  0
SECTION
  2
HEADER
  9
$ANGBASE
  50
0.0
  9
$ANGDIR
  70
1
  9
$MEASUREMENT
  70
0
  0
ENDSEC
  0
SECTION
  2
TABLES
  0
TABLE
  2
LTYPE
  70
4
  0
LTYPE
  5
40F
  2
CONTINUOUS
  70
0
  3
Solid line
  72
65
  73
0
  40
0.0
  0
LTYPE
  5
410
  2
DASHDOT
 70
0
  3
Dash Dot ____ _ ____ _
 72
65
 73
4
 40
2.0
 49
1.25
 49
-0.25
 49
0.25
 49
-0.25
  0
LTYPE
  5
411
  2
DASHED
 70
0
  3
Dashed __ __ __ __ __
 72
65
 73
2
 40
0.75
 49
0.5
 49
-0.25
  0
LTYPE
  5
43B
  2
DOTTED
 70
0
  3
Dotted .  .  .  .
 72
65
 73
2
 40
0.2
 49
0.0
 49
-0.2
  0
ENDTAB
  0
TABLE
  2
STYLE
  70
4
  0
STYLE
  2
KICAD
  70
0
  40
0
  41
1
  42
1
  50
0
  71
0
  3
isocp.shx
  0
STYLE
  2
KICADB
  70
0
  40
0
  41
1
  42
1
  50
0
  71
0
  3
isocp.shx
  0
STYLE
  2
KICADI
  70
0
  40
0
  41
1
  42
1
  50
15
  71
0
  3
isocp.shx
  0
STYLE
  2
KICADBI
  70
0
  40
0
  41
1
  42
1
  50
15
  71
0
  3
isocp.shx
  0
ENDTAB
  0
TABLE
  2
LAYER
  70
1
  0
LAYER
  2
BLACK
  70
0
  62
7
  6
CONTINUOUS
  0
ENDTAB
  0
ENDSEC
  0
SECTION
  2
ENTITIES
0
LINE
8
BLACK
6
CONTINUOUS
10
1.0277142519685039
20
0.6676166929133858
11
1.0350229133858266
21
0.6645893307086614
0
LINE
8
BLACK
6
CONTINUOUS
10
1.0350229133858266
20
0.6645893307086614
11
1.0416005118110236
21
0.6601943307086614
0
LINE
8
BLACK
6
CONTINUOUS
10
1.0416005118110236
20
0.6601943307086614
11
1.0471943307086613
21
0.6546005118110236
0
LINE
8
BLACK
6
CONTINUOUS
10
1.0471943307086613
20
0.6546005118110236
11
1.0515893307086615
21
0.6480229133858267
0
LINE
8
BLACK
6
CONTINUOUS
10
1.0515893307086615
20
0.6480229133858267
11
1.0546166929133858
21
0.640714251968504
0
LINE
8
BLACK
6
CONTINUOUS
10
1.0546166929133858
20
0.640714251968504
11
1.05616
21
0.6329554330708661
0
LINE
8
BLACK
6
CONTINUOUS
10
1.05616
20
0.6329554330708661
11
1.05616
21
0.6250445669291338
0
LINE
8
BLACK
6
CONTINUOUS
10
1.05616
20
0.6250445669291338
11
1.0546166929133858
21
0.6172857480314961
0
LINE
8
BLACK
6
CONTINUOUS
10
1.0546166929133858
20
0.6172857480314961
11
1.0515893307086615
21
0.6099770866141733
0
LINE
8
BLACK
6
CONTINUOUS
10
1.0515893307086615
20
0.6099770866141733
11
1.0471943307086613
21
0.6033994881889764
0
LINE
8
BLACK
6
CONTINUOUS
10
1.0471943307086613
20
0.6033994881889764
11
1.0416005118110236
21
0.5978056692913386
0
LINE
8
BLACK
6
CONTINUOUS
10
1.0416005118110236
20
0.5978056692913386
11
1.0350229133858266
21
0.5934106692913386
0
LINE
8
BLACK
6
CONTINUOUS
10
1.0350229133858266
20
0.5934106692913386
11
1.0277142519685039
21
0.5903833070866141
0
LINE
8
BLACK
6
CONTINUOUS
10
1.0277142519685039
20
0.5903833070866141
11
1.0199554330708662
21
0.58884
0
LINE
8
BLACK
6
CONTINUOUS
10
1.0199554330708662
20
0.58884
11
1.0120445669291338
21
0.58884
0
LINE
8
BLACK
6
CONTINUOUS
10
1.0120445669291338
20
0.58884
11
1.004285748031496
21
0.5903833070866141
0
LINE
8
BLACK
6
CONTINUOUS
10
1.004285748031496
20
0.5903833070866141
11
0.9969770866141732
21
0.5934106692913386
0
LINE
8
BLACK
6
CONTINUOUS
10
0.9969770866141732
20
0.5934106692913386
11
0.9903994881889764
21
0.5978056692913386
0
LINE
8
BLACK
6
CONTINUOUS
10
0.9903994881889764
20
0.5978056692913386
11
0.9848056692913386
21
0.6033994881889764
0
LINE
8
BLACK
6
CONTINUOUS
10
0.9848056692913386
20
0.6033994881889764
11
0.9804106692913386
21
0.6099770866141733
0
LINE
8
BLACK
6
CONTINUOUS
10
0.9804106692913386
20
0.6099770866141733
11
0.9773833070866141
21
0.6172857480314961
0
LINE
8
BLACK
6
CONTINUOUS
10
0.9773833070866141
20
0.6172857480314961
11
0.9758399999999999
21
0.6250445669291338
0
LINE
8
BLACK
6
CONTINUOUS
10
0.9758399999999999
20
0.6250445669291338
11
0.9758399999999999
21
0.6327806692913386
0
LINE
8
BLACK
6
CONTINUOUS
10
0.9758399999999999
20
0.6327806692913386
11
0.9758399999999999
21
0.6329554330708661
0
LINE
8
BLACK
6
CONTINUOUS
10
0.9758399999999999
20
0.6329554330708661
11
0.9773833070866141
21
0.640714251968504
0
LINE
8
BLACK
6
CONTINUOUS
10
0.9773833070866141
20
0.640714251968504
11
0.9804106692913386
21
0.6480229133858267
0
LINE
8
BLACK
6
CONTINUOUS
10
0.9804106692913386
20
0.6480229133858267
11
0.9848056692913386
21
0.6546005118110236
0
LINE
8
BLACK
6
CONTINUOUS
10
0.9848056692913386
20
0.6546005118110236
11
0.9903994881889764
21
0.6601943307086614
0
LINE
8
BLACK
6
CONTINUOUS
10
0.9903994881889764
20
0.6601943307086614
11
0.9969770866141732
21
0.6645893307086614
0
LINE
8
BLACK
6
CONTINUOUS
10
0.9969770866141732
20
0.6645893307086614
11
1.004285748031496
21
0.6676166929133858
0
LINE
8
BLACK
6
CONTINUOUS
10
1.004285748031496
20
0.6676166929133858
11
1.0120445669291338
21
0.66916
0
LINE
8
BLACK
6
CONTINUOUS
10
1.0120445669291338
20
0.66916
11
1.0199554330708662
21
0.66916
0
LINE
8
BLACK
6
CONTINUOUS
10
1.0199554330708662
20
0.66916
11
1.0277142519685039
21
0.6676166929133858
0
LINE
8
BLACK
6
CONTINUOUS
10
0.9776141732283464
20
0.6252193307086614
11
0.9790892913385827
21
0.6178032677165354
0
LINE
8
BLACK
6
CONTINUOUS
10
0.9790892913385827
20
0.6178032677165354
11
0.9819829133858268
21
0.6108174803149606
0
LINE
8
BLACK
6
CONTINUOUS
10
0.9819829133858268
20
0.6108174803149606
11
0.986183779527559
21
0.6045304330708662
0
LINE
8
BLACK
6
CONTINUOUS
10
0.986183779527559
20
0.6045304330708662
11
0.9915304330708661
21
0.5991837795275591
0
LINE
8
BLACK
6
CONTINUOUS
10
0.9915304330708661
20
0.5991837795275591
11
0.9978174803149606
21
0.5949829133858268
0
LINE
8
BLACK
6
CONTINUOUS
10
0.9978174803149606
20
0.5949829133858268
11
1.0048032677165355
21
0.5920892913385827
0
LINE
8
BLACK
6
CONTINUOUS
10
1.0048032677165355
20
0.5920892913385827
11
1.0122193307086613
21
0.5906141732283464
0
LINE
8
BLACK
6
CONTINUOUS
10
1.0122193307086613
20
0.5906141732283464
11
1.0197806692913385
21
0.5906141732283464
0
LINE
8
BLACK
6
CONTINUOUS
10
1.0197806692913385
20
0.5906141732283464
11
1.0271967322834645
21
0.5920892913385827
0
LINE
8
BLACK
6
CONTINUOUS
10
1.0271967322834645
20
0.5920892913385827
11
1.0341825196850394
21
0.5949829133858268
0
LINE
8
BLACK
6
CONTINUOUS
10
1.0341825196850394
20
0.5949829133858268
11
1.0404695669291337
21
0.5991837795275591
0
LINE
8
BLACK
6
CONTINUOUS
10
1.0404695669291337
20
0.5991837795275591
11
1.0458162204724408
21
0.6045304330708662
0
LINE
8
BLACK
6
CONTINUOUS
10
1.0458162204724408
20
0.6045304330708662
11
1.0500170866141731
21
0.6108174803149606
0
LINE
8
BLACK
6
CONTINUOUS
10
1.0500170866141731
20
0.6108174803149606
11
1.0529107086614173
21
0.6178032677165354
0
LINE
8
BLACK
6
CONTINUOUS
10
1.0529107086614173
20
0.6178032677165354
11
1.0543858267716535
21
0.6252193307086614
0
LINE
8
BLACK
6
CONTINUOUS
10
1.0543858267716535
20
0.6252193307086614
11
1.0543858267716535
21
0.6327806692913386
0
LINE
8
BLACK
6
CONTINUOUS
10
1.0543858267716535
20
0.6327806692913386
11
1.0529107086614173
21
0.6401967322834645
0
LINE
8
BLACK
6
CONTINUOUS
10
1.0529107086614173
20
0.6401967322834645
11
1.0500170866141731
21
0.6471825196850394
0
LINE
8
BLACK
6
CONTINUOUS
10
1.0500170866141731
20
0.6471825196850394
11
1.0458162204724408
21
0.6534695669291338
0
LINE
8
BLACK
6
CONTINUOUS
10
1.0458162204724408
20
0.6534695669291338
11
1.0404695669291337
21
0.6588162204724409
0
LINE
8
BLACK
6
CONTINUOUS
10
1.0404695669291337
20
0.6588162204724409
11
1.0341825196850394
21
0.6630170866141732
0
LINE
8
BLACK
6
CONTINUOUS
10
1.0341825196850394
20
0.6630170866141732
11
1.0271967322834645
21
0.6659107086614173
0
LINE
8
BLACK
6
CONTINUOUS
10
1.0271967322834645
20
0.6659107086614173
11
1.0197806692913385
21
0.6673858267716535
0
LINE
8
BLACK
6
CONTINUOUS
10
1.0197806692913385
20
0.6673858267716535
11
1.0122193307086613
21
0.6673858267716535
0
LINE
8
BLACK
6
CONTINUOUS
10
1.0122193307086613
20
0.6673858267716535
11
1.0048032677165355
21
0.6659107086614173
0
LINE
8
BLACK
6
CONTINUOUS
10
1.0048032677165355
20
0.6659107086614173
11
0.9978174803149606
21
0.6630170866141732
0
LINE
8
BLACK
6
CONTINUOUS
10
0.9978174803149606
20
0.6630170866141732
11
0.9915304330708661
21
0.6588162204724409
0
LINE
8
BLACK
6
CONTINUOUS
10
0.9915304330708661
20
0.6588162204724409
11
0.986183779527559
21
0.6534695669291338
0
LINE
8
BLACK
6
CONTINUOUS
10
0.986183779527559
20
0.6534695669291338
11
0.9819829133858268
21
0.6471825196850394
0
LINE
8
BLACK
6
CONTINUOUS
10
0.9819829133858268
20
0.6471825196850394
11
0.9790892913385827
21
0.6401967322834645
0
LINE
8
BLACK
6
CONTINUOUS
10
0.9790892913385827
20
0.6401967322834645
11
0.9776141732283464
21
0.6327806692913386
0
LINE
8
BLACK
6
CONTINUOUS
10
0.9776141732283464
20
0.6327806692913386
11
0.9776141732283464
21
0.6252193307086614
0
CIRCLE
8
BLACK
10
0.9129921259842519
20
1.1933070866141733
40
0.0068897637795276
0
CIRCLE
8
BLACK
10
0.9129921259842519
20
1.2933070866141732
40
0.0068897637795276
0
CIRCLE
8
BLACK
10
1.012992125984252
20
1.1933070866141733
40
0.0068897637795276
0
CIRCLE
8
BLACK
10
1.012992125984252
20
1.2933070866141732
40
0.0068897637795276
0
CIRCLE
8
BLACK
10
1.1129921259842519
20
1.1933070866141733
40
0.0068897637795276
0
CIRCLE
8
BLACK
10
1.1129921259842519
20
1.2933070866141732
40
0.0068897637795276
0
CIRCLE
8
BLACK
10
1.212992125984252
20
1.1933070866141733
40
0.0068897637795276
0
CIRCLE
8
BLACK
10
1.212992125984252
20
1.2933070866141732
40
0.0068897637795276
0
CIRCLE
8
BLACK
10
1.6031496062992125
20
0.8200787401574803
40
0.0068897637795276
0
CIRCLE
8
BLACK
10
1.7031496062992126
20
0.9200787401574803
40
0.0068897637795276
0
CIRCLE
8
BLACK
10
1.5031496062992125
20
0.9200787401574803
40
0.0068897637795276
0
CIRCLE
8
BLACK
10
1.7031496062992126
20
0.7200787401574803
40
0.0068897637795276
0
CIRCLE
8
BLACK
10
1.5031496062992125
20
0.7200787401574803
40
0.0068897637795276
0
CIRCLE
8
BLACK
10
0.4
20
0.4
40
0.0068897637795276
0
CIRCLE
8
BLACK
10
1.5999999999999999
20
1.2
40
0.0068897637795276
0
CIRCLE
8
BLACK
10
1.5999999999999999
20
0.4
40
0.0068897637795276
0
CIRCLE
8
BLACK
10
0.4
20
1.2
40
0.0068897637795276
0
CIRCLE
8
BLACK
10
0.3043307086614173
20
0.9070866141732283
40
0.0068897637795276
0
CIRCLE
8
BLACK
10
0.4043307086614173
20
0.9070866141732283
40
0.0068897637795276
0
CIRCLE
8
BLACK
10
0.3043307086614173
20
0.8070866141732284
40
0.0068897637795276
0
CIRCLE
8
BLACK
10
0.4043307086614173
20
0.8070866141732284
40
0.0068897637795276
0
CIRCLE
8
BLACK
10
0.3043307086614173
20
0.7070866141732284
40
0.0068897637795276
0
CIRCLE
8
BLACK
10
0.4043307086614173
20
0.7070866141732284
40
0.0068897637795276
0
CIRCLE
8
BLACK
10
0.9129921259842519
20
0.2989173228346457
40
0.0068897637795276
0
CIRCLE
8
BLACK
10
0.9129921259842519
20
0.3989173228346456
40
0.0068897637795276
0
CIRCLE
8
BLACK
10
1.012992125984252
20
0.2989173228346457
40
0.0068897637795276
0
CIRCLE
8
BLACK
10
1.012992125984252
20
0.3989173228346456
40
0.0068897637795276
0
CIRCLE
8
BLACK
10
1.1129921259842519
20
0.2989173228346457
40
0.0068897637795276
0
CIRCLE
8
BLACK
10
1.1129921259842519
20
0.3989173228346456
40
0.0068897637795276
0
CIRCLE
8
BLACK
10
1.212992125984252
20
0.2989173228346457
40
0.0068897637795276
0
CIRCLE
8
BLACK
10
1.212992125984252
20
0.3989173228346456
40
0.0068897637795276
0
CIRCLE
8
BLACK
10
0.9129921259842519
20
1.1933070866141733
40
0.0068897637795276
0
CIRCLE
8
BLACK
10
0.9129921259842519
20
1.2933070866141732
40
0.0068897637795276
0
CIRCLE
8
BLACK
10
1.012992125984252
20
1.1933070866141733
40
0.0068897637795276
0
CIRCLE
8
BLACK
10
1.012992125984252
20
1.2933070866141732
40
0.0068897637795276
0
CIRCLE
8
BLACK
10
1.1129921259842519
20
1.1933070866141733
40
0.0068897637795276
0
CIRCLE
8
BLACK
10
1.1129921259842519
20
1.2933070866141732
40
0.0068897637795276
0
CIRCLE
8
BLACK
10
1.212992125984252
20
1.1933070866141733
40
0.0068897637795276
0
CIRCLE
8
BLACK
10
1.212992125984252
20
1.2933070866141732
40
0.0068897637795276
0
CIRCLE
8
BLACK
10
1.6031496062992125
20
0.8200787401574803
40
0.0068897637795276
0
CIRCLE
8
BLACK
10
1.7031496062992126
20
0.9200787401574803
40
0.0068897637795276
0
CIRCLE
8
BLACK
10
1.5031496062992125
20
0.9200787401574803
40
0.0068897637795276
0
CIRCLE
8
BLACK
10
1.7031496062992126
20
0.7200787401574803
40
0.0068897637795276
0
CIRCLE
8
BLACK
10
1.5031496062992125
20
0.7200787401574803
40
0.0068897637795276
0
CIRCLE
8
BLACK
10
0.4
20
0.4
40
0.0068897637795276
0
CIRCLE
8
BLACK
10
1.5999999999999999
20
1.2
40
0.0068897637795276
0
CIRCLE
8
BLACK
10
1.5999999999999999
20
0.4
40
0.0068897637795276
0
CIRCLE
8
BLACK
10
0.4
20
1.2
40
0.0068897637795276
0
CIRCLE
8
BLACK
10
0.3043307086614173
20
0.9070866141732283
40
0.0068897637795276
0
CIRCLE
8
BLACK
10
0.4043307086614173
20
0.9070866141732283
40
0.0068897637795276
0
CIRCLE
8
BLACK
10
0.3043307086614173
20
0.8070866141732284
40
0.0068897637795276
0
CIRCLE
8
BLACK
10
0.4043307086614173
20
0.8070866141732284
40
0.0068897637795276
0
CIRCLE
8
BLACK
10
0.3043307086614173
20
0.7070866141732284
40
0.0068897637795276
0
CIRCLE
8
BLACK
10
0.4043307086614173
20
0.7070866141732284
40
0.0068897637795276
0
CIRCLE
8
BLACK
10
0.9129921259842519
20
0.2989173228346457
40
0.0068897637795276
0
CIRCLE
8
BLACK
10
0.9129921259842519
20
0.3989173228346456
40
0.0068897637795276
0
CIRCLE
8
BLACK
10
1.012992125984252
20
0.2989173228346457
40
0.0068897637795276
0
CIRCLE
8
BLACK
10
1.012992125984252
20
0.3989173228346456
40
0.0068897637795276
0
CIRCLE
8
BLACK
10
1.1129921259842519
20
0.2989173228346457
40
0.0068897637795276
0
CIRCLE
8
BLACK
10
1.1129921259842519
20
0.3989173228346456
40
0.0068897637795276
0
CIRCLE
8
BLACK
10
1.212992125984252
20
0.2989173228346457
40
0.0068897637795276
0
CIRCLE
8
BLACK
10
1.212992125984252
20
0.3989173228346456
40
0.0068897637795276
  0
ENDSEC
  0
EOF
