  0
SECTION
  2
HEADER
  9
$ANGBASE
  50
0.0
  9
$ANGDIR
  70
1
  9
$MEASUREMENT
  70
0
  0
ENDSEC
  0
SECTION
  2
TABLES
  0
TABLE
  2
LTYPE
  70
4
  0
LTYPE
  5
40F
  2
CONTINUOUS
  70
0
  3
Solid line
  72
65
  73
0
  40
0.0
  0
LTYPE
  5
410
  2
DASHDOT
 70
0
  3
Dash Dot ____ _ ____ _
 72
65
 73
4
 40
2.0
 49
1.25
 49
-0.25
 49
0.25
 49
-0.25
  0
LTYPE
  5
411
  2
DASHED
 70
0
  3
Dashed __ __ __ __ __
 72
65
 73
2
 40
0.75
 49
0.5
 49
-0.25
  0
LTYPE
  5
43B
  2
DOTTED
 70
0
  3
Dotted .  .  .  .
 72
65
 73
2
 40
0.2
 49
0.0
 49
-0.2
  0
ENDTAB
  0
TABLE
  2
STYLE
  70
4
  0
STYLE
  2
KICAD
  70
0
  40
0
  41
1
  42
1
  50
0
  71
0
  3
isocp.shx
  0
STYLE
  2
KICADB
  70
0
  40
0
  41
1
  42
1
  50
0
  71
0
  3
isocp.shx
  0
STYLE
  2
KICADI
  70
0
  40
0
  41
1
  42
1
  50
15
  71
0
  3
isocp.shx
  0
STYLE
  2
KICADBI
  70
0
  40
0
  41
1
  42
1
  50
15
  71
0
  3
isocp.shx
  0
ENDTAB
  0
TABLE
  2
LAYER
  70
1
  0
LAYER
  2
BLACK
  70
0
  62
7
  6
CONTINUOUS
  0
ENDTAB
  0
ENDSEC
  0
SECTION
  2
ENTITIES
0
LINE
8
BLACK
6
CONTINUOUS
10
0.4197842125984252
20
0.5164414566929134
11
0.432697125984252
21
0.5134941732283465
0
LINE
8
BLACK
6
CONTINUOUS
10
0.432697125984252
20
0.5134941732283465
11
0.4451988188976378
21
0.5091196456692914
0
LINE
8
BLACK
6
CONTINUOUS
10
0.4451988188976378
20
0.5091196456692914
11
0.4571321653543307
21
0.5033728346456693
0
LINE
8
BLACK
6
CONTINUOUS
10
0.4571321653543307
20
0.5033728346456693
11
0.4683470078740157
21
0.4963261023622047
0
LINE
8
BLACK
6
CONTINUOUS
10
0.4683470078740157
20
0.4963261023622047
11
0.4787023622047244
21
0.4880679527559055
0
LINE
8
BLACK
6
CONTINUOUS
10
0.4787023622047244
20
0.4880679527559055
11
0.4880679527559055
21
0.4787023622047244
0
LINE
8
BLACK
6
CONTINUOUS
10
0.4880679527559055
20
0.4787023622047244
11
0.4963261023622047
21
0.4683470078740157
0
LINE
8
BLACK
6
CONTINUOUS
10
0.4963261023622047
20
0.4683470078740157
11
0.5033728346456693
21
0.4571321653543307
0
LINE
8
BLACK
6
CONTINUOUS
10
0.5033728346456693
20
0.4571321653543307
11
0.5091196456692914
21
0.4451988188976378
0
LINE
8
BLACK
6
CONTINUOUS
10
0.5091196456692914
20
0.4451988188976378
11
0.5134941732283465
21
0.432697125984252
0
LINE
8
BLACK
6
CONTINUOUS
10
0.5134941732283465
20
0.432697125984252
11
0.5164414566929134
21
0.4197842125984252
0
LINE
8
BLACK
6
CONTINUOUS
10
0.5164414566929134
20
0.4197842125984252
11
0.5179244094488189
21
0.4066224803149606
0
LINE
8
BLACK
6
CONTINUOUS
10
0.5179244094488189
20
0.4066224803149606
11
0.5179244094488189
21
0.3933775196850394
0
LINE
8
BLACK
6
CONTINUOUS
10
0.5179244094488189
20
0.3933775196850394
11
0.5164414566929134
21
0.3802157874015748
0
LINE
8
BLACK
6
CONTINUOUS
10
0.5164414566929134
20
0.3802157874015748
11
0.5134941732283465
21
0.367302874015748
0
LINE
8
BLACK
6
CONTINUOUS
10
0.5134941732283465
20
0.367302874015748
11
0.5091196456692914
21
0.3548011811023622
0
LINE
8
BLACK
6
CONTINUOUS
10
0.5091196456692914
20
0.3548011811023622
11
0.5033728346456693
21
0.3428678346456693
0
LINE
8
BLACK
6
CONTINUOUS
10
0.5033728346456693
20
0.3428678346456693
11
0.4963261023622047
21
0.3316529921259843
0
LINE
8
BLACK
6
CONTINUOUS
10
0.4963261023622047
20
0.3316529921259843
11
0.4880679527559055
21
0.3212976377952756
0
LINE
8
BLACK
6
CONTINUOUS
10
0.4880679527559055
20
0.3212976377952756
11
0.4787023622047244
21
0.3119320472440945
0
LINE
8
BLACK
6
CONTINUOUS
10
0.4787023622047244
20
0.3119320472440945
11
0.4683470078740157
21
0.3036738976377953
0
LINE
8
BLACK
6
CONTINUOUS
10
0.4683470078740157
20
0.3036738976377953
11
0.4571321653543307
21
0.2966271653543307
0
LINE
8
BLACK
6
CONTINUOUS
10
0.4571321653543307
20
0.2966271653543307
11
0.4451988188976378
21
0.2908803543307086
0
LINE
8
BLACK
6
CONTINUOUS
10
0.4451988188976378
20
0.2908803543307086
11
0.432697125984252
21
0.2865058267716535
0
LINE
8
BLACK
6
CONTINUOUS
10
0.432697125984252
20
0.2865058267716535
11
0.4197842125984252
21
0.2835585433070866
0
LINE
8
BLACK
6
CONTINUOUS
10
0.4197842125984252
20
0.2835585433070866
11
0.4066224803149606
21
0.2820755905511811
0
LINE
8
BLACK
6
CONTINUOUS
10
0.4066224803149606
20
0.2820755905511811
11
0.3933775196850394
21
0.2820755905511811
0
LINE
8
BLACK
6
CONTINUOUS
10
0.3933775196850394
20
0.2820755905511811
11
0.3802157874015748
21
0.2835585433070866
0
LINE
8
BLACK
6
CONTINUOUS
10
0.3802157874015748
20
0.2835585433070866
11
0.367302874015748
21
0.2865058267716535
0
LINE
8
BLACK
6
CONTINUOUS
10
0.367302874015748
20
0.2865058267716535
11
0.3548011811023622
21
0.2908803543307086
0
LINE
8
BLACK
6
CONTINUOUS
10
0.3548011811023622
20
0.2908803543307086
11
0.3428678346456693
21
0.2966271653543307
0
LINE
8
BLACK
6
CONTINUOUS
10
0.3428678346456693
20
0.2966271653543307
11
0.3316529921259843
21
0.3036738976377953
0
LINE
8
BLACK
6
CONTINUOUS
10
0.3316529921259843
20
0.3036738976377953
11
0.3212976377952756
21
0.3119320472440945
0
LINE
8
BLACK
6
CONTINUOUS
10
0.3212976377952756
20
0.3119320472440945
11
0.3119320472440945
21
0.3212976377952756
0
LINE
8
BLACK
6
CONTINUOUS
10
0.3119320472440945
20
0.3212976377952756
11
0.3036738976377953
21
0.3316529921259843
0
LINE
8
BLACK
6
CONTINUOUS
10
0.3036738976377953
20
0.3316529921259843
11
0.2966271653543307
21
0.3428678346456693
0
LINE
8
BLACK
6
CONTINUOUS
10
0.2966271653543307
20
0.3428678346456693
11
0.2908803543307086
21
0.3548011811023622
0
LINE
8
BLACK
6
CONTINUOUS
10
0.2908803543307086
20
0.3548011811023622
11
0.2865058267716535
21
0.367302874015748
0
LINE
8
BLACK
6
CONTINUOUS
10
0.2865058267716535
20
0.367302874015748
11
0.2835585433070866
21
0.3802157874015748
0
LINE
8
BLACK
6
CONTINUOUS
10
0.2835585433070866
20
0.3802157874015748
11
0.2820755905511811
21
0.3933775196850394
0
LINE
8
BLACK
6
CONTINUOUS
10
0.2820755905511811
20
0.3933775196850394
11
0.2820755905511811
21
0.4066224803149606
0
LINE
8
BLACK
6
CONTINUOUS
10
0.2820755905511811
20
0.4066224803149606
11
0.2835585433070866
21
0.4197842125984252
0
LINE
8
BLACK
6
CONTINUOUS
10
0.2835585433070866
20
0.4197842125984252
11
0.2865058267716535
21
0.432697125984252
0
LINE
8
BLACK
6
CONTINUOUS
10
0.2865058267716535
20
0.432697125984252
11
0.2908803543307086
21
0.4451988188976378
0
LINE
8
BLACK
6
CONTINUOUS
10
0.2908803543307086
20
0.4451988188976378
11
0.2966271653543307
21
0.4571321653543307
0
LINE
8
BLACK
6
CONTINUOUS
10
0.2966271653543307
20
0.4571321653543307
11
0.3036738976377953
21
0.4683470078740157
0
LINE
8
BLACK
6
CONTINUOUS
10
0.3036738976377953
20
0.4683470078740157
11
0.3119320472440945
21
0.4787023622047244
0
LINE
8
BLACK
6
CONTINUOUS
10
0.3119320472440945
20
0.4787023622047244
11
0.3212976377952756
21
0.4880679527559055
0
LINE
8
BLACK
6
CONTINUOUS
10
0.3212976377952756
20
0.4880679527559055
11
0.3316529921259843
21
0.4963261023622047
0
LINE
8
BLACK
6
CONTINUOUS
10
0.3316529921259843
20
0.4963261023622047
11
0.3428678346456693
21
0.5033728346456693
0
LINE
8
BLACK
6
CONTINUOUS
10
0.3428678346456693
20
0.5033728346456693
11
0.3548011811023622
21
0.5091196456692914
0
LINE
8
BLACK
6
CONTINUOUS
10
0.3548011811023622
20
0.5091196456692914
11
0.367302874015748
21
0.5134941732283465
0
LINE
8
BLACK
6
CONTINUOUS
10
0.367302874015748
20
0.5134941732283465
11
0.3802157874015748
21
0.5164414566929134
0
LINE
8
BLACK
6
CONTINUOUS
10
0.3802157874015748
20
0.5164414566929134
11
0.3933775196850394
21
0.5179244094488189
0
LINE
8
BLACK
6
CONTINUOUS
10
0.3933775196850394
20
0.5179244094488189
11
0.4066224803149606
21
0.5179244094488189
0
LINE
8
BLACK
6
CONTINUOUS
10
0.4066224803149606
20
0.5179244094488189
11
0.4197842125984252
21
0.5164414566929134
0
LINE
8
BLACK
6
CONTINUOUS
10
1.6713602755905512
20
0.550503937007874
11
1.6792922440944882
21
0.5479266929133858
0
LINE
8
BLACK
6
CONTINUOUS
10
1.6792922440944882
20
0.5479266929133858
11
1.6867233464566929
21
0.5441403543307086
0
LINE
8
BLACK
6
CONTINUOUS
10
1.6867233464566929
20
0.5441403543307086
11
1.6934706692913386
21
0.5392381496062992
0
LINE
8
BLACK
6
CONTINUOUS
10
1.6934706692913386
20
0.5392381496062992
11
1.6993680314960629
21
0.5333407874015748
0
LINE
8
BLACK
6
CONTINUOUS
10
1.6993680314960629
20
0.5333407874015748
11
1.7042702362204725
21
0.5265934645669291
0
LINE
8
BLACK
6
CONTINUOUS
10
1.7042702362204725
20
0.5265934645669291
11
1.7080565748031495
21
0.5191623622047244
0
LINE
8
BLACK
6
CONTINUOUS
10
1.7080565748031495
20
0.5191623622047244
11
1.7106338188976378
21
0.5112303937007874
0
LINE
8
BLACK
6
CONTINUOUS
10
1.7106338188976378
20
0.5112303937007874
11
1.7119385039370079
21
0.5029929527559055
0
LINE
8
BLACK
6
CONTINUOUS
10
1.7119385039370079
20
0.5029929527559055
11
1.7119385039370079
21
0.4946527952755905
0
LINE
8
BLACK
6
CONTINUOUS
10
1.7119385039370079
20
0.4946527952755905
11
1.7106338188976378
21
0.4864153543307086
0
LINE
8
BLACK
6
CONTINUOUS
10
1.7106338188976378
20
0.4864153543307086
11
1.7080565748031495
21
0.4784833858267716
0
LINE
8
BLACK
6
CONTINUOUS
10
1.7080565748031495
20
0.4784833858267716
11
1.7042702362204725
21
0.4710522834645669
0
LINE
8
BLACK
6
CONTINUOUS
10
1.7042702362204725
20
0.4710522834645669
11
1.6993680314960629
21
0.4643049606299213
0
LINE
8
BLACK
6
CONTINUOUS
10
1.6993680314960629
20
0.4643049606299213
11
1.6990596456692912
21
0.4639966141732283
0
LINE
8
BLACK
6
CONTINUOUS
10
1.6990596456692912
20
0.4639966141732283
11
1.7033728346456694
21
0.4571321653543307
0
LINE
8
BLACK
6
CONTINUOUS
10
1.7033728346456694
20
0.4571321653543307
11
1.7091196456692912
21
0.4451988188976378
0
LINE
8
BLACK
6
CONTINUOUS
10
1.7091196456692912
20
0.4451988188976378
11
1.7134941732283464
21
0.432697125984252
0
LINE
8
BLACK
6
CONTINUOUS
10
1.7134941732283464
20
0.432697125984252
11
1.7164414566929134
21
0.4197842125984252
0
LINE
8
BLACK
6
CONTINUOUS
10
1.7164414566929134
20
0.4197842125984252
11
1.7179244094488189
21
0.4066224803149606
0
LINE
8
BLACK
6
CONTINUOUS
10
1.7179244094488189
20
0.4066224803149606
11
1.7179244094488189
21
0.3933775196850394
0
LINE
8
BLACK
6
CONTINUOUS
10
1.7179244094488189
20
0.3933775196850394
11
1.7164414566929134
21
0.3802157874015748
0
LINE
8
BLACK
6
CONTINUOUS
10
1.7164414566929134
20
0.3802157874015748
11
1.7134941732283464
21
0.367302874015748
0
LINE
8
BLACK
6
CONTINUOUS
10
1.7134941732283464
20
0.367302874015748
11
1.7091196456692912
21
0.3548011811023622
0
LINE
8
BLACK
6
CONTINUOUS
10
1.7091196456692912
20
0.3548011811023622
11
1.7033728346456694
21
0.3428678346456693
0
LINE
8
BLACK
6
CONTINUOUS
10
1.7033728346456694
20
0.3428678346456693
11
1.6963261023622047
21
0.3316529921259843
0
LINE
8
BLACK
6
CONTINUOUS
10
1.6963261023622047
20
0.3316529921259843
11
1.6880679527559055
21
0.3212976377952756
0
LINE
8
BLACK
6
CONTINUOUS
10
1.6880679527559055
20
0.3212976377952756
11
1.6787023622047244
21
0.3119320472440945
0
LINE
8
BLACK
6
CONTINUOUS
10
1.6787023622047244
20
0.3119320472440945
11
1.6683470078740157
21
0.3036738976377953
0
LINE
8
BLACK
6
CONTINUOUS
10
1.6683470078740157
20
0.3036738976377953
11
1.6571321653543307
21
0.2966271653543307
0
LINE
8
BLACK
6
CONTINUOUS
10
1.6571321653543307
20
0.2966271653543307
11
1.6451988188976379
21
0.2908803543307086
0
LINE
8
BLACK
6
CONTINUOUS
10
1.6451988188976379
20
0.2908803543307086
11
1.632697125984252
21
0.2865058267716535
0
LINE
8
BLACK
6
CONTINUOUS
10
1.632697125984252
20
0.2865058267716535
11
1.6197842125984252
21
0.2835585433070866
0
LINE
8
BLACK
6
CONTINUOUS
10
1.6197842125984252
20
0.2835585433070866
11
1.6066224803149607
21
0.2820755905511811
0
LINE
8
BLACK
6
CONTINUOUS
10
1.6066224803149607
20
0.2820755905511811
11
1.5933775196850393
21
0.2820755905511811
0
LINE
8
BLACK
6
CONTINUOUS
10
1.5933775196850393
20
0.2820755905511811
11
1.5802157874015748
21
0.2835585433070866
0
LINE
8
BLACK
6
CONTINUOUS
10
1.5802157874015748
20
0.2835585433070866
11
1.567302874015748
21
0.2865058267716535
0
LINE
8
BLACK
6
CONTINUOUS
10
1.567302874015748
20
0.2865058267716535
11
1.5548011811023621
21
0.2908803543307086
0
LINE
8
BLACK
6
CONTINUOUS
10
1.5548011811023621
20
0.2908803543307086
11
1.5428678346456692
21
0.2966271653543307
0
LINE
8
BLACK
6
CONTINUOUS
10
1.5428678346456692
20
0.2966271653543307
11
1.5316529921259843
21
0.3036738976377953
0
LINE
8
BLACK
6
CONTINUOUS
10
1.5316529921259843
20
0.3036738976377953
11
1.5212976377952756
21
0.3119320472440945
0
LINE
8
BLACK
6
CONTINUOUS
10
1.5212976377952756
20
0.3119320472440945
11
1.5119320472440945
21
0.3212976377952756
0
LINE
8
BLACK
6
CONTINUOUS
10
1.5119320472440945
20
0.3212976377952756
11
1.5036738976377952
21
0.3316529921259843
0
LINE
8
BLACK
6
CONTINUOUS
10
1.5036738976377952
20
0.3316529921259843
11
1.4966271653543306
21
0.3428678346456693
0
LINE
8
BLACK
6
CONTINUOUS
10
1.4966271653543306
20
0.3428678346456693
11
1.4908803543307085
21
0.3548011811023622
0
LINE
8
BLACK
6
CONTINUOUS
10
1.4908803543307085
20
0.3548011811023622
11
1.4865058267716535
21
0.367302874015748
0
LINE
8
BLACK
6
CONTINUOUS
10
1.4865058267716535
20
0.367302874015748
11
1.4835585433070866
21
0.3802157874015748
0
LINE
8
BLACK
6
CONTINUOUS
10
1.4835585433070866
20
0.3802157874015748
11
1.4820755905511811
21
0.3933775196850394
0
LINE
8
BLACK
6
CONTINUOUS
10
1.4820755905511811
20
0.3933775196850394
11
1.4820755905511811
21
0.4066224803149606
0
LINE
8
BLACK
6
CONTINUOUS
10
1.4820755905511811
20
0.4066224803149606
11
1.4835585433070866
21
0.4197842125984252
0
LINE
8
BLACK
6
CONTINUOUS
10
1.4835585433070866
20
0.4197842125984252
11
1.4865058267716535
21
0.432697125984252
0
LINE
8
BLACK
6
CONTINUOUS
10
1.4865058267716535
20
0.432697125984252
11
1.4908803543307085
21
0.4451988188976378
0
LINE
8
BLACK
6
CONTINUOUS
10
1.4908803543307085
20
0.4451988188976378
11
1.4966271653543306
21
0.4571321653543307
0
LINE
8
BLACK
6
CONTINUOUS
10
1.4966271653543306
20
0.4571321653543307
11
1.5036738976377952
21
0.4683470078740157
0
LINE
8
BLACK
6
CONTINUOUS
10
1.5036738976377952
20
0.4683470078740157
11
1.5119320472440945
21
0.4787023622047244
0
LINE
8
BLACK
6
CONTINUOUS
10
1.5119320472440945
20
0.4787023622047244
11
1.5212976377952756
21
0.4880679527559055
0
LINE
8
BLACK
6
CONTINUOUS
10
1.5212976377952756
20
0.4880679527559055
11
1.5316529921259843
21
0.4963261023622047
0
LINE
8
BLACK
6
CONTINUOUS
10
1.5316529921259843
20
0.4963261023622047
11
1.5428678346456692
21
0.5033728346456693
0
LINE
8
BLACK
6
CONTINUOUS
10
1.5428678346456692
20
0.5033728346456693
11
1.5548011811023621
21
0.5091196456692914
0
LINE
8
BLACK
6
CONTINUOUS
10
1.5548011811023621
20
0.5091196456692914
11
1.567302874015748
21
0.5134941732283465
0
LINE
8
BLACK
6
CONTINUOUS
10
1.567302874015748
20
0.5134941732283465
11
1.5802157874015748
21
0.5164414566929134
0
LINE
8
BLACK
6
CONTINUOUS
10
1.5802157874015748
20
0.5164414566929134
11
1.5933775196850393
21
0.5179244094488189
0
LINE
8
BLACK
6
CONTINUOUS
10
1.5933775196850393
20
0.5179244094488189
11
1.6066224803149607
21
0.5179244094488189
0
LINE
8
BLACK
6
CONTINUOUS
10
1.6066224803149607
20
0.5179244094488189
11
1.6093469291338582
21
0.5176174409448818
0
LINE
8
BLACK
6
CONTINUOUS
10
1.6093469291338582
20
0.5176174409448818
11
1.6098489370078739
21
0.5191623622047244
0
LINE
8
BLACK
6
CONTINUOUS
10
1.6098489370078739
20
0.5191623622047244
11
1.6136352755905512
21
0.5265934645669291
0
LINE
8
BLACK
6
CONTINUOUS
10
1.6136352755905512
20
0.5265934645669291
11
1.6185374803149606
21
0.5333407874015748
0
LINE
8
BLACK
6
CONTINUOUS
10
1.6185374803149606
20
0.5333407874015748
11
1.6244348425196851
21
0.5392381496062992
0
LINE
8
BLACK
6
CONTINUOUS
10
1.6244348425196851
20
0.5392381496062992
11
1.6311821653543306
21
0.5441403543307086
0
LINE
8
BLACK
6
CONTINUOUS
10
1.6311821653543306
20
0.5441403543307086
11
1.6386132677165355
21
0.5479266929133858
0
LINE
8
BLACK
6
CONTINUOUS
10
1.6386132677165355
20
0.5479266929133858
11
1.6465452362204724
21
0.550503937007874
0
LINE
8
BLACK
6
CONTINUOUS
10
1.6465452362204724
20
0.550503937007874
11
1.6547826771653542
21
0.5518086220472441
0
LINE
8
BLACK
6
CONTINUOUS
10
1.6547826771653542
20
0.5518086220472441
11
1.6631228346456692
21
0.5518086220472441
0
LINE
8
BLACK
6
CONTINUOUS
10
1.6631228346456692
20
0.5518086220472441
11
1.6713602755905512
21
0.550503937007874
0
LINE
8
BLACK
6
CONTINUOUS
10
1.471360275590551
20
0.550503937007874
11
1.4792922440944882
21
0.5479266929133858
0
LINE
8
BLACK
6
CONTINUOUS
10
1.4792922440944882
20
0.5479266929133858
11
1.4867233464566929
21
0.5441403543307086
0
LINE
8
BLACK
6
CONTINUOUS
10
1.4867233464566929
20
0.5441403543307086
11
1.4934706692913386
21
0.5392381496062992
0
LINE
8
BLACK
6
CONTINUOUS
10
1.4934706692913386
20
0.5392381496062992
11
1.4993680314960629
21
0.5333407874015748
0
LINE
8
BLACK
6
CONTINUOUS
10
1.4993680314960629
20
0.5333407874015748
11
1.5042702362204725
21
0.5265934645669291
0
LINE
8
BLACK
6
CONTINUOUS
10
1.5042702362204725
20
0.5265934645669291
11
1.5080565748031496
21
0.5191623622047244
0
LINE
8
BLACK
6
CONTINUOUS
10
1.5080565748031496
20
0.5191623622047244
11
1.5106338188976378
21
0.5112303937007874
0
LINE
8
BLACK
6
CONTINUOUS
10
1.5106338188976378
20
0.5112303937007874
11
1.5119385039370079
21
0.5029929527559055
0
LINE
8
BLACK
6
CONTINUOUS
10
1.5119385039370079
20
0.5029929527559055
11
1.5119385039370079
21
0.4946527952755905
0
LINE
8
BLACK
6
CONTINUOUS
10
1.5119385039370079
20
0.4946527952755905
11
1.5106338188976378
21
0.4864153543307086
0
LINE
8
BLACK
6
CONTINUOUS
10
1.5106338188976378
20
0.4864153543307086
11
1.5080565748031496
21
0.4784833858267716
0
LINE
8
BLACK
6
CONTINUOUS
10
1.5080565748031496
20
0.4784833858267716
11
1.5042702362204725
21
0.4710522834645669
0
LINE
8
BLACK
6
CONTINUOUS
10
1.5042702362204725
20
0.4710522834645669
11
1.4993680314960629
21
0.4643049606299213
0
LINE
8
BLACK
6
CONTINUOUS
10
1.4993680314960629
20
0.4643049606299213
11
1.4934706692913386
21
0.4584075984251968
0
LINE
8
BLACK
6
CONTINUOUS
10
1.4934706692913386
20
0.4584075984251968
11
1.4867233464566929
21
0.4535053937007874
0
LINE
8
BLACK
6
CONTINUOUS
10
1.4867233464566929
20
0.4535053937007874
11
1.4792922440944882
21
0.4497190551181102
0
LINE
8
BLACK
6
CONTINUOUS
10
1.4792922440944882
20
0.4497190551181102
11
1.471360275590551
21
0.447141811023622
0
LINE
8
BLACK
6
CONTINUOUS
10
1.471360275590551
20
0.447141811023622
11
1.4631228346456693
21
0.445837125984252
0
LINE
8
BLACK
6
CONTINUOUS
10
1.4631228346456693
20
0.445837125984252
11
1.4547826771653543
21
0.445837125984252
0
LINE
8
BLACK
6
CONTINUOUS
10
1.4547826771653543
20
0.445837125984252
11
1.4465452362204725
21
0.447141811023622
0
LINE
8
BLACK
6
CONTINUOUS
10
1.4465452362204725
20
0.447141811023622
11
1.4386132677165353
21
0.4497190551181102
0
LINE
8
BLACK
6
CONTINUOUS
10
1.4386132677165353
20
0.4497190551181102
11
1.4311821653543306
21
0.4535053937007874
0
LINE
8
BLACK
6
CONTINUOUS
10
1.4311821653543306
20
0.4535053937007874
11
1.4244348425196851
21
0.4584075984251968
0
LINE
8
BLACK
6
CONTINUOUS
10
1.4244348425196851
20
0.4584075984251968
11
1.4185374803149606
21
0.4643049606299213
0
LINE
8
BLACK
6
CONTINUOUS
10
1.4185374803149606
20
0.4643049606299213
11
1.4136352755905512
21
0.4710522834645669
0
LINE
8
BLACK
6
CONTINUOUS
10
1.4136352755905512
20
0.4710522834645669
11
1.4098489370078739
21
0.4784833858267716
0
LINE
8
BLACK
6
CONTINUOUS
10
1.4098489370078739
20
0.4784833858267716
11
1.4072716929133857
21
0.4864153543307086
0
LINE
8
BLACK
6
CONTINUOUS
10
1.4072716929133857
20
0.4864153543307086
11
1.4059670078740156
21
0.4946527952755905
0
LINE
8
BLACK
6
CONTINUOUS
10
1.4059670078740156
20
0.4946527952755905
11
1.4059670078740156
21
0.5029929527559055
0
LINE
8
BLACK
6
CONTINUOUS
10
1.4059670078740156
20
0.5029929527559055
11
1.4072716929133857
21
0.5112303937007874
0
LINE
8
BLACK
6
CONTINUOUS
10
1.4072716929133857
20
0.5112303937007874
11
1.4098489370078739
21
0.5191623622047244
0
LINE
8
BLACK
6
CONTINUOUS
10
1.4098489370078739
20
0.5191623622047244
11
1.4136352755905512
21
0.5265934645669291
0
LINE
8
BLACK
6
CONTINUOUS
10
1.4136352755905512
20
0.5265934645669291
11
1.4185374803149606
21
0.5333407874015748
0
LINE
8
BLACK
6
CONTINUOUS
10
1.4185374803149606
20
0.5333407874015748
11
1.4244348425196851
21
0.5392381496062992
0
LINE
8
BLACK
6
CONTINUOUS
10
1.4244348425196851
20
0.5392381496062992
11
1.4311821653543306
21
0.5441403543307086
0
LINE
8
BLACK
6
CONTINUOUS
10
1.4311821653543306
20
0.5441403543307086
11
1.4386132677165353
21
0.5479266929133858
0
LINE
8
BLACK
6
CONTINUOUS
10
1.4386132677165353
20
0.5479266929133858
11
1.4465452362204725
21
0.550503937007874
0
LINE
8
BLACK
6
CONTINUOUS
10
1.4465452362204725
20
0.550503937007874
11
1.4547826771653543
21
0.5518086220472441
0
LINE
8
BLACK
6
CONTINUOUS
10
1.4547826771653543
20
0.5518086220472441
11
1.4631228346456693
21
0.5518086220472441
0
LINE
8
BLACK
6
CONTINUOUS
10
1.4631228346456693
20
0.5518086220472441
11
1.471360275590551
21
0.550503937007874
0
LINE
8
BLACK
6
CONTINUOUS
10
0.8159100787401574
20
0.5683937795275591
11
0.817889842519685
21
0.5670709842519684
0
LINE
8
BLACK
6
CONTINUOUS
10
0.817889842519685
20
0.5670709842519684
11
0.8192126377952755
21
0.565091220472441
0
LINE
8
BLACK
6
CONTINUOUS
10
0.8192126377952755
20
0.565091220472441
11
0.8196771653543307
21
0.5627559448818897
0
LINE
8
BLACK
6
CONTINUOUS
10
0.8196771653543307
20
0.5627559448818897
11
0.8196771653543307
21
0.550551220472441
0
LINE
8
BLACK
6
CONTINUOUS
10
0.8196771653543307
20
0.550551220472441
11
0.8192126377952755
21
0.5482159448818897
0
LINE
8
BLACK
6
CONTINUOUS
10
0.8192126377952755
20
0.5482159448818897
11
0.817889842519685
21
0.5462361811023622
0
LINE
8
BLACK
6
CONTINUOUS
10
0.817889842519685
20
0.5462361811023622
11
0.8159100787401574
21
0.5449133858267716
0
LINE
8
BLACK
6
CONTINUOUS
10
0.8159100787401574
20
0.5449133858267716
11
0.8135748031496063
21
0.5444488582677165
0
LINE
8
BLACK
6
CONTINUOUS
10
0.8135748031496063
20
0.5444488582677165
11
0.7968425196850394
21
0.5444488582677165
0
LINE
8
BLACK
6
CONTINUOUS
10
0.7968425196850394
20
0.5444488582677165
11
0.7945072440944881
21
0.5449133858267716
0
LINE
8
BLACK
6
CONTINUOUS
10
0.7945072440944881
20
0.5449133858267716
11
0.7925274803149606
21
0.5462361811023622
0
LINE
8
BLACK
6
CONTINUOUS
10
0.7925274803149606
20
0.5462361811023622
11
0.79120468503937
21
0.5482159448818897
0
LINE
8
BLACK
6
CONTINUOUS
10
0.79120468503937
20
0.5482159448818897
11
0.7907401574803149
21
0.550551220472441
0
LINE
8
BLACK
6
CONTINUOUS
10
0.7907401574803149
20
0.550551220472441
11
0.7907401574803149
21
0.5627559448818897
0
LINE
8
BLACK
6
CONTINUOUS
10
0.7907401574803149
20
0.5627559448818897
11
0.79120468503937
21
0.565091220472441
0
LINE
8
BLACK
6
CONTINUOUS
10
0.79120468503937
20
0.565091220472441
11
0.7925274803149606
21
0.5670709842519684
0
LINE
8
BLACK
6
CONTINUOUS
10
0.7925274803149606
20
0.5670709842519684
11
0.7945072440944881
21
0.5683937795275591
0
LINE
8
BLACK
6
CONTINUOUS
10
0.7945072440944881
20
0.5683937795275591
11
0.7968425196850394
21
0.5688583070866141
0
LINE
8
BLACK
6
CONTINUOUS
10
0.7968425196850394
20
0.5688583070866141
11
0.8135748031496063
21
0.5688583070866141
0
LINE
8
BLACK
6
CONTINUOUS
10
0.8135748031496063
20
0.5688583070866141
11
0.8159100787401574
21
0.5683937795275591
0
LINE
8
BLACK
6
CONTINUOUS
10
0.8605951181102361
20
0.5683937795275591
11
0.8625748818897637
21
0.5670709842519684
0
LINE
8
BLACK
6
CONTINUOUS
10
0.8625748818897637
20
0.5670709842519684
11
0.8638976771653543
21
0.565091220472441
0
LINE
8
BLACK
6
CONTINUOUS
10
0.8638976771653543
20
0.565091220472441
11
0.8643622047244094
21
0.5627559448818897
0
LINE
8
BLACK
6
CONTINUOUS
10
0.8643622047244094
20
0.5627559448818897
11
0.8643622047244094
21
0.550551220472441
0
LINE
8
BLACK
6
CONTINUOUS
10
0.8643622047244094
20
0.550551220472441
11
0.8638976771653543
21
0.5482159448818897
0
LINE
8
BLACK
6
CONTINUOUS
10
0.8638976771653543
20
0.5482159448818897
11
0.8625748818897637
21
0.5462361811023622
0
LINE
8
BLACK
6
CONTINUOUS
10
0.8625748818897637
20
0.5462361811023622
11
0.8605951181102361
21
0.5449133858267716
0
LINE
8
BLACK
6
CONTINUOUS
10
0.8605951181102361
20
0.5449133858267716
11
0.858259842519685
21
0.5444488582677165
0
LINE
8
BLACK
6
CONTINUOUS
10
0.858259842519685
20
0.5444488582677165
11
0.8415275590551181
21
0.5444488582677165
0
LINE
8
BLACK
6
CONTINUOUS
10
0.8415275590551181
20
0.5444488582677165
11
0.8391922834645669
21
0.5449133858267716
0
LINE
8
BLACK
6
CONTINUOUS
10
0.8391922834645669
20
0.5449133858267716
11
0.8372125196850394
21
0.5462361811023622
0
LINE
8
BLACK
6
CONTINUOUS
10
0.8372125196850394
20
0.5462361811023622
11
0.8358897244094488
21
0.5482159448818897
0
LINE
8
BLACK
6
CONTINUOUS
10
0.8358897244094488
20
0.5482159448818897
11
0.8354251968503937
21
0.550551220472441
0
LINE
8
BLACK
6
CONTINUOUS
10
0.8354251968503937
20
0.550551220472441
11
0.8354251968503937
21
0.5627559448818897
0
LINE
8
BLACK
6
CONTINUOUS
10
0.8354251968503937
20
0.5627559448818897
11
0.8358897244094488
21
0.565091220472441
0
LINE
8
BLACK
6
CONTINUOUS
10
0.8358897244094488
20
0.565091220472441
11
0.8372125196850394
21
0.5670709842519684
0
LINE
8
BLACK
6
CONTINUOUS
10
0.8372125196850394
20
0.5670709842519684
11
0.8391922834645669
21
0.5683937795275591
0
LINE
8
BLACK
6
CONTINUOUS
10
0.8391922834645669
20
0.5683937795275591
11
0.8415275590551181
21
0.5688583070866141
0
LINE
8
BLACK
6
CONTINUOUS
10
0.8415275590551181
20
0.5688583070866141
11
0.858259842519685
21
0.5688583070866141
0
LINE
8
BLACK
6
CONTINUOUS
10
0.858259842519685
20
0.5688583070866141
11
0.8605951181102361
21
0.5683937795275591
0
LINE
8
BLACK
6
CONTINUOUS
10
1.5704412204724409
20
0.6466757086614173
11
1.5777855905511811
21
0.6442893700787401
0
LINE
8
BLACK
6
CONTINUOUS
10
1.5777855905511811
20
0.6442893700787401
11
1.5846662598425196
21
0.6407835039370079
0
LINE
8
BLACK
6
CONTINUOUS
10
1.5846662598425196
20
0.6407835039370079
11
1.590913779527559
21
0.6362444094488189
0
LINE
8
BLACK
6
CONTINUOUS
10
1.590913779527559
20
0.6362444094488189
11
1.5963742913385826
21
0.6307838976377953
0
LINE
8
BLACK
6
CONTINUOUS
10
1.5963742913385826
20
0.6307838976377953
11
1.6009133858267717
21
0.6245363779527559
0
LINE
8
BLACK
6
CONTINUOUS
10
1.6009133858267717
20
0.6245363779527559
11
1.6044192519685039
21
0.6176557086614173
0
LINE
8
BLACK
6
CONTINUOUS
10
1.6044192519685039
20
0.6176557086614173
11
1.6068055905511811
21
0.6103113385826772
0
LINE
8
BLACK
6
CONTINUOUS
10
1.6068055905511811
20
0.6103113385826772
11
1.6080136614173228
21
0.6026840551181102
0
LINE
8
BLACK
6
CONTINUOUS
10
1.6080136614173228
20
0.6026840551181102
11
1.6080136614173228
21
0.5949616929133859
0
LINE
8
BLACK
6
CONTINUOUS
10
1.6080136614173228
20
0.5949616929133859
11
1.6068055905511811
21
0.5873344094488189
0
LINE
8
BLACK
6
CONTINUOUS
10
1.6068055905511811
20
0.5873344094488189
11
1.6044192519685039
21
0.5799900393700788
0
LINE
8
BLACK
6
CONTINUOUS
10
1.6044192519685039
20
0.5799900393700788
11
1.6009133858267717
21
0.5731093700787402
0
LINE
8
BLACK
6
CONTINUOUS
10
1.6009133858267717
20
0.5731093700787402
11
1.5963742913385826
21
0.5668618503937007
0
LINE
8
BLACK
6
CONTINUOUS
10
1.5963742913385826
20
0.5668618503937007
11
1.590913779527559
21
0.5614013385826772
0
LINE
8
BLACK
6
CONTINUOUS
10
1.590913779527559
20
0.5614013385826772
11
1.5846662598425196
21
0.5568622440944881
0
LINE
8
BLACK
6
CONTINUOUS
10
1.5846662598425196
20
0.5568622440944881
11
1.5777855905511811
21
0.5533563779527559
0
LINE
8
BLACK
6
CONTINUOUS
10
1.5777855905511811
20
0.5533563779527559
11
1.5704412204724409
21
0.5509700393700787
0
LINE
8
BLACK
6
CONTINUOUS
10
1.5704412204724409
20
0.5509700393700787
11
1.562813937007874
21
0.549761968503937
0
LINE
8
BLACK
6
CONTINUOUS
10
1.562813937007874
20
0.549761968503937
11
1.5550915748031495
21
0.549761968503937
0
LINE
8
BLACK
6
CONTINUOUS
10
1.5550915748031495
20
0.549761968503937
11
1.5474642913385825
21
0.5509700393700787
0
LINE
8
BLACK
6
CONTINUOUS
10
1.5474642913385825
20
0.5509700393700787
11
1.5401199212598424
21
0.5533563779527559
0
LINE
8
BLACK
6
CONTINUOUS
10
1.5401199212598424
20
0.5533563779527559
11
1.5332392519685039
21
0.5568622440944881
0
LINE
8
BLACK
6
CONTINUOUS
10
1.5332392519685039
20
0.5568622440944881
11
1.5269917322834645
21
0.5614013385826772
0
LINE
8
BLACK
6
CONTINUOUS
10
1.5269917322834645
20
0.5614013385826772
11
1.5215312204724409
21
0.5668618503937007
0
LINE
8
BLACK
6
CONTINUOUS
10
1.5215312204724409
20
0.5668618503937007
11
1.516992125984252
21
0.5731093700787402
0
LINE
8
BLACK
6
CONTINUOUS
10
1.516992125984252
20
0.5731093700787402
11
1.5134862598425196
21
0.5799900393700788
0
LINE
8
BLACK
6
CONTINUOUS
10
1.5134862598425196
20
0.5799900393700788
11
1.5110999212598424
21
0.5873344094488189
0
LINE
8
BLACK
6
CONTINUOUS
10
1.5110999212598424
20
0.5873344094488189
11
1.5098918503937007
21
0.5949616929133859
0
LINE
8
BLACK
6
CONTINUOUS
10
1.5098918503937007
20
0.5949616929133859
11
1.5098918503937007
21
0.6026840551181102
0
LINE
8
BLACK
6
CONTINUOUS
10
1.5098918503937007
20
0.6026840551181102
11
1.5110999212598424
21
0.6103113385826772
0
LINE
8
BLACK
6
CONTINUOUS
10
1.5110999212598424
20
0.6103113385826772
11
1.5134862598425196
21
0.6176557086614173
0
LINE
8
BLACK
6
CONTINUOUS
10
1.5134862598425196
20
0.6176557086614173
11
1.516992125984252
21
0.6245363779527559
0
LINE
8
BLACK
6
CONTINUOUS
10
1.516992125984252
20
0.6245363779527559
11
1.5215312204724409
21
0.6307838976377953
0
LINE
8
BLACK
6
CONTINUOUS
10
1.5215312204724409
20
0.6307838976377953
11
1.5269917322834645
21
0.6362444094488189
0
LINE
8
BLACK
6
CONTINUOUS
10
1.5269917322834645
20
0.6362444094488189
11
1.5332392519685039
21
0.6407835039370079
0
LINE
8
BLACK
6
CONTINUOUS
10
1.5332392519685039
20
0.6407835039370079
11
1.5401199212598424
21
0.6442893700787401
0
LINE
8
BLACK
6
CONTINUOUS
10
1.5401199212598424
20
0.6442893700787401
11
1.5474642913385825
21
0.6466757086614173
0
LINE
8
BLACK
6
CONTINUOUS
10
1.5474642913385825
20
0.6466757086614173
11
1.5550915748031495
21
0.647883779527559
0
LINE
8
BLACK
6
CONTINUOUS
10
1.5550915748031495
20
0.647883779527559
11
1.562813937007874
21
0.647883779527559
0
LINE
8
BLACK
6
CONTINUOUS
10
1.562813937007874
20
0.647883779527559
11
1.5704412204724409
21
0.6466757086614173
0
LINE
8
BLACK
6
CONTINUOUS
10
1.2034527559055117
20
0.5648779921259842
11
1.1544527559055118
21
0.5648779921259842
0
LINE
8
BLACK
6
CONTINUOUS
10
1.1544527559055118
20
0.5648779921259842
11
1.1544527559055118
21
0.5868779921259842
0
LINE
8
BLACK
6
CONTINUOUS
10
1.1544527559055118
20
0.5868779921259842
11
1.2034527559055117
21
0.5868779921259842
0
LINE
8
BLACK
6
CONTINUOUS
10
1.2034527559055117
20
0.5868779921259842
11
1.2034527559055117
21
0.5648779921259842
0
LINE
8
BLACK
6
CONTINUOUS
10
1.2775838188976378
20
0.6124969291338582
11
1.2796274409448818
21
0.6111314173228346
0
LINE
8
BLACK
6
CONTINUOUS
10
1.2796274409448818
20
0.6111314173228346
11
1.2809929527559054
21
0.6090877952755905
0
LINE
8
BLACK
6
CONTINUOUS
10
1.2809929527559054
20
0.6090877952755905
11
1.2814724409448819
21
0.6066772047244094
0
LINE
8
BLACK
6
CONTINUOUS
10
1.2814724409448819
20
0.6066772047244094
11
1.2814724409448819
21
0.5940787795275591
0
LINE
8
BLACK
6
CONTINUOUS
10
1.2814724409448819
20
0.5940787795275591
11
1.2809929527559054
21
0.591668188976378
0
LINE
8
BLACK
6
CONTINUOUS
10
1.2809929527559054
20
0.591668188976378
11
1.2796274409448818
21
0.5896245669291339
0
LINE
8
BLACK
6
CONTINUOUS
10
1.2796274409448818
20
0.5896245669291339
11
1.2775838188976378
21
0.5882590551181103
0
LINE
8
BLACK
6
CONTINUOUS
10
1.2775838188976378
20
0.5882590551181103
11
1.2751732283464567
21
0.5877795669291338
0
LINE
8
BLACK
6
CONTINUOUS
10
1.2751732283464567
20
0.5877795669291338
11
1.2576535433070866
21
0.5877795669291338
0
LINE
8
BLACK
6
CONTINUOUS
10
1.2576535433070866
20
0.5877795669291338
11
1.2552429527559055
21
0.5882590551181103
0
LINE
8
BLACK
6
CONTINUOUS
10
1.2552429527559055
20
0.5882590551181103
11
1.2531993307086613
21
0.5896245669291339
0
LINE
8
BLACK
6
CONTINUOUS
10
1.2531993307086613
20
0.5896245669291339
11
1.2518338188976377
21
0.591668188976378
0
LINE
8
BLACK
6
CONTINUOUS
10
1.2518338188976377
20
0.591668188976378
11
1.2513543307086614
21
0.5940787795275591
0
LINE
8
BLACK
6
CONTINUOUS
10
1.2513543307086614
20
0.5940787795275591
11
1.2513543307086614
21
0.6066772047244094
0
LINE
8
BLACK
6
CONTINUOUS
10
1.2513543307086614
20
0.6066772047244094
11
1.2518338188976377
21
0.6090877952755905
0
LINE
8
BLACK
6
CONTINUOUS
10
1.2518338188976377
20
0.6090877952755905
11
1.2531993307086613
21
0.6111314173228346
0
LINE
8
BLACK
6
CONTINUOUS
10
1.2531993307086613
20
0.6111314173228346
11
1.2552429527559055
21
0.6124969291338582
0
LINE
8
BLACK
6
CONTINUOUS
10
1.2552429527559055
20
0.6124969291338582
11
1.2576535433070866
21
0.6129764173228346
0
LINE
8
BLACK
6
CONTINUOUS
10
1.2576535433070866
20
0.6129764173228346
11
1.2751732283464567
21
0.6129764173228346
0
LINE
8
BLACK
6
CONTINUOUS
10
1.2751732283464567
20
0.6129764173228346
11
1.2775838188976378
21
0.6124969291338582
0
LINE
8
BLACK
6
CONTINUOUS
10
1.322662559055118
20
0.6124969291338582
11
1.3247061811023622
21
0.6111314173228346
0
LINE
8
BLACK
6
CONTINUOUS
10
1.3247061811023622
20
0.6111314173228346
11
1.3260716929133858
21
0.6090877952755905
0
LINE
8
BLACK
6
CONTINUOUS
10
1.3260716929133858
20
0.6090877952755905
11
1.3265511811023623
21
0.6066772047244094
0
LINE
8
BLACK
6
CONTINUOUS
10
1.3265511811023623
20
0.6066772047244094
11
1.3265511811023623
21
0.5940787795275591
0
LINE
8
BLACK
6
CONTINUOUS
10
1.3265511811023623
20
0.5940787795275591
11
1.3260716929133858
21
0.591668188976378
0
LINE
8
BLACK
6
CONTINUOUS
10
1.3260716929133858
20
0.591668188976378
11
1.3247061811023622
21
0.5896245669291339
0
LINE
8
BLACK
6
CONTINUOUS
10
1.3247061811023622
20
0.5896245669291339
11
1.322662559055118
21
0.5882590551181103
0
LINE
8
BLACK
6
CONTINUOUS
10
1.322662559055118
20
0.5882590551181103
11
1.3202519685039369
21
0.5877795669291338
0
LINE
8
BLACK
6
CONTINUOUS
10
1.3202519685039369
20
0.5877795669291338
11
1.3027322834645669
21
0.5877795669291338
0
LINE
8
BLACK
6
CONTINUOUS
10
1.3027322834645669
20
0.5877795669291338
11
1.3003216929133858
21
0.5882590551181103
0
LINE
8
BLACK
6
CONTINUOUS
10
1.3003216929133858
20
0.5882590551181103
11
1.2982780708661417
21
0.5896245669291339
0
LINE
8
BLACK
6
CONTINUOUS
10
1.2982780708661417
20
0.5896245669291339
11
1.296912559055118
21
0.591668188976378
0
LINE
8
BLACK
6
CONTINUOUS
10
1.296912559055118
20
0.591668188976378
11
1.2964330708661418
21
0.5940787795275591
0
LINE
8
BLACK
6
CONTINUOUS
10
1.2964330708661418
20
0.5940787795275591
11
1.2964330708661418
21
0.6066772047244094
0
LINE
8
BLACK
6
CONTINUOUS
10
1.2964330708661418
20
0.6066772047244094
11
1.296912559055118
21
0.6090877952755905
0
LINE
8
BLACK
6
CONTINUOUS
10
1.296912559055118
20
0.6090877952755905
11
1.2982780708661417
21
0.6111314173228346
0
LINE
8
BLACK
6
CONTINUOUS
10
1.2982780708661417
20
0.6111314173228346
11
1.3003216929133858
21
0.6124969291338582
0
LINE
8
BLACK
6
CONTINUOUS
10
1.3003216929133858
20
0.6124969291338582
11
1.3027322834645669
21
0.6129764173228346
0
LINE
8
BLACK
6
CONTINUOUS
10
1.3027322834645669
20
0.6129764173228346
11
1.3202519685039369
21
0.6129764173228346
0
LINE
8
BLACK
6
CONTINUOUS
10
1.3202519685039369
20
0.6129764173228346
11
1.322662559055118
21
0.6124969291338582
0
LINE
8
BLACK
6
CONTINUOUS
10
1.0513116535433071
20
0.6141181889763779
11
1.0532914173228347
21
0.6127953937007874
0
LINE
8
BLACK
6
CONTINUOUS
10
1.0532914173228347
20
0.6127953937007874
11
1.0546142125984252
21
0.6108156299212598
0
LINE
8
BLACK
6
CONTINUOUS
10
1.0546142125984252
20
0.6108156299212598
11
1.0550787401574804
21
0.6084803543307087
0
LINE
8
BLACK
6
CONTINUOUS
10
1.0550787401574804
20
0.6084803543307087
11
1.0550787401574804
21
0.5962756299212598
0
LINE
8
BLACK
6
CONTINUOUS
10
1.0550787401574804
20
0.5962756299212598
11
1.0546142125984252
21
0.5939403543307087
0
LINE
8
BLACK
6
CONTINUOUS
10
1.0546142125984252
20
0.5939403543307087
11
1.0532914173228347
21
0.5919605905511811
0
LINE
8
BLACK
6
CONTINUOUS
10
1.0532914173228347
20
0.5919605905511811
11
1.0513116535433071
21
0.5906377952755906
0
LINE
8
BLACK
6
CONTINUOUS
10
1.0513116535433071
20
0.5906377952755906
11
1.0489763779527559
21
0.5901732677165354
0
LINE
8
BLACK
6
CONTINUOUS
10
1.0489763779527559
20
0.5901732677165354
11
1.032244094488189
21
0.5901732677165354
0
LINE
8
BLACK
6
CONTINUOUS
10
1.032244094488189
20
0.5901732677165354
11
1.0299088188976377
21
0.5906377952755906
0
LINE
8
BLACK
6
CONTINUOUS
10
1.0299088188976377
20
0.5906377952755906
11
1.0279290551181102
21
0.5919605905511811
0
LINE
8
BLACK
6
CONTINUOUS
10
1.0279290551181102
20
0.5919605905511811
11
1.0266062598425196
21
0.5939403543307087
0
LINE
8
BLACK
6
CONTINUOUS
10
1.0266062598425196
20
0.5939403543307087
11
1.0261417322834645
21
0.5962756299212598
0
LINE
8
BLACK
6
CONTINUOUS
10
1.0261417322834645
20
0.5962756299212598
11
1.0261417322834645
21
0.6084803543307087
0
LINE
8
BLACK
6
CONTINUOUS
10
1.0261417322834645
20
0.6084803543307087
11
1.0266062598425196
21
0.6108156299212598
0
LINE
8
BLACK
6
CONTINUOUS
10
1.0266062598425196
20
0.6108156299212598
11
1.0279290551181102
21
0.6127953937007874
0
LINE
8
BLACK
6
CONTINUOUS
10
1.0279290551181102
20
0.6127953937007874
11
1.0299088188976377
21
0.6141181889763779
0
LINE
8
BLACK
6
CONTINUOUS
10
1.0299088188976377
20
0.6141181889763779
11
1.032244094488189
21
0.6145827165354331
0
LINE
8
BLACK
6
CONTINUOUS
10
1.032244094488189
20
0.6145827165354331
11
1.0489763779527559
21
0.6145827165354331
0
LINE
8
BLACK
6
CONTINUOUS
10
1.0489763779527559
20
0.6145827165354331
11
1.0513116535433071
21
0.6141181889763779
0
LINE
8
BLACK
6
CONTINUOUS
10
1.0959966929133858
20
0.6141181889763779
11
1.0979764566929133
21
0.6127953937007874
0
LINE
8
BLACK
6
CONTINUOUS
10
1.0979764566929133
20
0.6127953937007874
11
1.0992992519685039
21
0.6108156299212598
0
LINE
8
BLACK
6
CONTINUOUS
10
1.0992992519685039
20
0.6108156299212598
11
1.099763779527559
21
0.6084803543307087
0
LINE
8
BLACK
6
CONTINUOUS
10
1.099763779527559
20
0.6084803543307087
11
1.099763779527559
21
0.5962756299212598
0
LINE
8
BLACK
6
CONTINUOUS
10
1.099763779527559
20
0.5962756299212598
11
1.0992992519685039
21
0.5939403543307087
0
LINE
8
BLACK
6
CONTINUOUS
10
1.0992992519685039
20
0.5939403543307087
11
1.0979764566929133
21
0.5919605905511811
0
LINE
8
BLACK
6
CONTINUOUS
10
1.0979764566929133
20
0.5919605905511811
11
1.0959966929133858
21
0.5906377952755906
0
LINE
8
BLACK
6
CONTINUOUS
10
1.0959966929133858
20
0.5906377952755906
11
1.0936614173228347
21
0.5901732677165354
0
LINE
8
BLACK
6
CONTINUOUS
10
1.0936614173228347
20
0.5901732677165354
11
1.0769291338582676
21
0.5901732677165354
0
LINE
8
BLACK
6
CONTINUOUS
10
1.0769291338582676
20
0.5901732677165354
11
1.0745938582677166
21
0.5906377952755906
0
LINE
8
BLACK
6
CONTINUOUS
10
1.0745938582677166
20
0.5906377952755906
11
1.072614094488189
21
0.5919605905511811
0
LINE
8
BLACK
6
CONTINUOUS
10
1.072614094488189
20
0.5919605905511811
11
1.0712912992125985
21
0.5939403543307087
0
LINE
8
BLACK
6
CONTINUOUS
10
1.0712912992125985
20
0.5939403543307087
11
1.0708267716535433
21
0.5962756299212598
0
LINE
8
BLACK
6
CONTINUOUS
10
1.0708267716535433
20
0.5962756299212598
11
1.0708267716535433
21
0.6084803543307087
0
LINE
8
BLACK
6
CONTINUOUS
10
1.0708267716535433
20
0.6084803543307087
11
1.0712912992125985
21
0.6108156299212598
0
LINE
8
BLACK
6
CONTINUOUS
10
1.0712912992125985
20
0.6108156299212598
11
1.072614094488189
21
0.6127953937007874
0
LINE
8
BLACK
6
CONTINUOUS
10
1.072614094488189
20
0.6127953937007874
11
1.0745938582677166
21
0.6141181889763779
0
LINE
8
BLACK
6
CONTINUOUS
10
1.0745938582677166
20
0.6141181889763779
11
1.0769291338582676
21
0.6145827165354331
0
LINE
8
BLACK
6
CONTINUOUS
10
1.0769291338582676
20
0.6145827165354331
11
1.0936614173228347
21
0.6145827165354331
0
LINE
8
BLACK
6
CONTINUOUS
10
1.0936614173228347
20
0.6145827165354331
11
1.0959966929133858
21
0.6141181889763779
0
LINE
8
BLACK
6
CONTINUOUS
10
1.1494527559055119
20
0.5943779921259842
11
1.1274527559055119
21
0.5943779921259842
0
LINE
8
BLACK
6
CONTINUOUS
10
1.1274527559055119
20
0.5943779921259842
11
1.1274527559055119
21
0.6083779921259842
0
LINE
8
BLACK
6
CONTINUOUS
10
1.1274527559055119
20
0.6083779921259842
11
1.1494527559055119
21
0.6083779921259842
0
LINE
8
BLACK
6
CONTINUOUS
10
1.1494527559055119
20
0.6083779921259842
11
1.1494527559055119
21
0.5943779921259842
0
LINE
8
BLACK
6
CONTINUOUS
10
1.2304527559055118
20
0.5943779921259842
11
1.2084527559055118
21
0.5943779921259842
0
LINE
8
BLACK
6
CONTINUOUS
10
1.2084527559055118
20
0.5943779921259842
11
1.2084527559055118
21
0.6083779921259842
0
LINE
8
BLACK
6
CONTINUOUS
10
1.2084527559055118
20
0.6083779921259842
11
1.2304527559055118
21
0.6083779921259842
0
LINE
8
BLACK
6
CONTINUOUS
10
1.2304527559055118
20
0.6083779921259842
11
1.2304527559055118
21
0.5943779921259842
0
LINE
8
BLACK
6
CONTINUOUS
10
0.739590590551181
20
0.6050235826771654
11
0.7317165748031496
21
0.6050235826771654
0
LINE
8
BLACK
6
CONTINUOUS
10
0.7317165748031496
20
0.6050235826771654
11
0.7317165748031496
21
0.6286456299212598
0
LINE
8
BLACK
6
CONTINUOUS
10
0.7317165748031496
20
0.6286456299212598
11
0.739590590551181
21
0.6286456299212598
0
LINE
8
BLACK
6
CONTINUOUS
10
0.739590590551181
20
0.6286456299212598
11
0.739590590551181
21
0.6050235826771654
0
LINE
8
BLACK
6
CONTINUOUS
10
0.7632127165354331
20
0.6050235826771654
11
0.7553387007874015
21
0.6050235826771654
0
LINE
8
BLACK
6
CONTINUOUS
10
0.7553387007874015
20
0.6050235826771654
11
0.7553387007874015
21
0.6286456299212598
0
LINE
8
BLACK
6
CONTINUOUS
10
0.7553387007874015
20
0.6286456299212598
11
0.7632127165354331
21
0.6286456299212598
0
LINE
8
BLACK
6
CONTINUOUS
10
0.7632127165354331
20
0.6286456299212598
11
0.7632127165354331
21
0.6050235826771654
0
LINE
8
BLACK
6
CONTINUOUS
10
0.78683468503937
20
0.6050235826771654
11
0.7789606692913386
21
0.6050235826771654
0
LINE
8
BLACK
6
CONTINUOUS
10
0.7789606692913386
20
0.6050235826771654
11
0.7789606692913386
21
0.6286456299212598
0
LINE
8
BLACK
6
CONTINUOUS
10
0.7789606692913386
20
0.6286456299212598
11
0.78683468503937
21
0.6286456299212598
0
LINE
8
BLACK
6
CONTINUOUS
10
0.78683468503937
20
0.6286456299212598
11
0.78683468503937
21
0.6050235826771654
0
LINE
8
BLACK
6
CONTINUOUS
10
0.810456811023622
20
0.6050235826771654
11
0.8025827952755905
21
0.6050235826771654
0
LINE
8
BLACK
6
CONTINUOUS
10
0.8025827952755905
20
0.6050235826771654
11
0.8025827952755905
21
0.6286456299212598
0
LINE
8
BLACK
6
CONTINUOUS
10
0.8025827952755905
20
0.6286456299212598
11
0.810456811023622
21
0.6286456299212598
0
LINE
8
BLACK
6
CONTINUOUS
10
0.810456811023622
20
0.6286456299212598
11
0.810456811023622
21
0.6050235826771654
0
LINE
8
BLACK
6
CONTINUOUS
10
0.8340788188976378
20
0.6050235826771654
11
0.8262048031496063
21
0.6050235826771654
0
LINE
8
BLACK
6
CONTINUOUS
10
0.8262048031496063
20
0.6050235826771654
11
0.8262048031496063
21
0.6286456299212598
0
LINE
8
BLACK
6
CONTINUOUS
10
0.8262048031496063
20
0.6286456299212598
11
0.8340788188976378
21
0.6286456299212598
0
LINE
8
BLACK
6
CONTINUOUS
10
0.8340788188976378
20
0.6286456299212598
11
0.8340788188976378
21
0.6050235826771654
0
LINE
8
BLACK
6
CONTINUOUS
10
0.857700905511811
20
0.6050235826771654
11
0.8498268897637795
21
0.6050235826771654
0
LINE
8
BLACK
6
CONTINUOUS
10
0.8498268897637795
20
0.6050235826771654
11
0.8498268897637795
21
0.6286456299212598
0
LINE
8
BLACK
6
CONTINUOUS
10
0.8498268897637795
20
0.6286456299212598
11
0.857700905511811
21
0.6286456299212598
0
LINE
8
BLACK
6
CONTINUOUS
10
0.857700905511811
20
0.6286456299212598
11
0.857700905511811
21
0.6050235826771654
0
LINE
8
BLACK
6
CONTINUOUS
10
0.8813229133858268
20
0.6050235826771654
11
0.8734488976377952
21
0.6050235826771654
0
LINE
8
BLACK
6
CONTINUOUS
10
0.8734488976377952
20
0.6050235826771654
11
0.8734488976377952
21
0.6286456299212598
0
LINE
8
BLACK
6
CONTINUOUS
10
0.8734488976377952
20
0.6286456299212598
11
0.8813229133858268
21
0.6286456299212598
0
LINE
8
BLACK
6
CONTINUOUS
10
0.8813229133858268
20
0.6286456299212598
11
0.8813229133858268
21
0.6050235826771654
0
LINE
8
BLACK
6
CONTINUOUS
10
0.904945
20
0.6050235826771654
11
0.8970709842519685
21
0.6050235826771654
0
LINE
8
BLACK
6
CONTINUOUS
10
0.8970709842519685
20
0.6050235826771654
11
0.8970709842519685
21
0.6286456299212598
0
LINE
8
BLACK
6
CONTINUOUS
10
0.8970709842519685
20
0.6286456299212598
11
0.904945
21
0.6286456299212598
0
LINE
8
BLACK
6
CONTINUOUS
10
0.904945
20
0.6286456299212598
11
0.904945
21
0.6050235826771654
0
LINE
8
BLACK
6
CONTINUOUS
10
0.9285670078740157
20
0.6050235826771654
11
0.9206929921259842
21
0.6050235826771654
0
LINE
8
BLACK
6
CONTINUOUS
10
0.9206929921259842
20
0.6050235826771654
11
0.9206929921259842
21
0.6286456299212598
0
LINE
8
BLACK
6
CONTINUOUS
10
0.9206929921259842
20
0.6286456299212598
11
0.9285670078740157
21
0.6286456299212598
0
LINE
8
BLACK
6
CONTINUOUS
10
0.9285670078740157
20
0.6286456299212598
11
0.9285670078740157
21
0.6050235826771654
0
LINE
8
BLACK
6
CONTINUOUS
10
0.952189094488189
20
0.6050235826771654
11
0.9443150787401574
21
0.6050235826771654
0
LINE
8
BLACK
6
CONTINUOUS
10
0.9443150787401574
20
0.6050235826771654
11
0.9443150787401574
21
0.6286456299212598
0
LINE
8
BLACK
6
CONTINUOUS
10
0.9443150787401574
20
0.6286456299212598
11
0.952189094488189
21
0.6286456299212598
0
LINE
8
BLACK
6
CONTINUOUS
10
0.952189094488189
20
0.6286456299212598
11
0.952189094488189
21
0.6050235826771654
0
LINE
8
BLACK
6
CONTINUOUS
10
1.2034527559055117
20
0.6158779921259843
11
1.1544527559055118
21
0.6158779921259843
0
LINE
8
BLACK
6
CONTINUOUS
10
1.1544527559055118
20
0.6158779921259843
11
1.1544527559055118
21
0.6378779921259843
0
LINE
8
BLACK
6
CONTINUOUS
10
1.1544527559055118
20
0.6378779921259843
11
1.2034527559055117
21
0.6378779921259843
0
LINE
8
BLACK
6
CONTINUOUS
10
1.2034527559055117
20
0.6378779921259843
11
1.2034527559055117
21
0.6158779921259843
0
LINE
8
BLACK
6
CONTINUOUS
10
1.2723903937007874
20
0.6530394488188976
11
1.274370157480315
21
0.6517166535433071
0
LINE
8
BLACK
6
CONTINUOUS
10
1.274370157480315
20
0.6517166535433071
11
1.2756929527559056
21
0.6497368897637795
0
LINE
8
BLACK
6
CONTINUOUS
10
1.2756929527559056
20
0.6497368897637795
11
1.2761574803149607
21
0.6474016141732283
0
LINE
8
BLACK
6
CONTINUOUS
10
1.2761574803149607
20
0.6474016141732283
11
1.2761574803149607
21
0.6306693307086614
0
LINE
8
BLACK
6
CONTINUOUS
10
1.2761574803149607
20
0.6306693307086614
11
1.2756929527559056
21
0.6283340551181102
0
LINE
8
BLACK
6
CONTINUOUS
10
1.2756929527559056
20
0.6283340551181102
11
1.274370157480315
21
0.6263542913385827
0
LINE
8
BLACK
6
CONTINUOUS
10
1.274370157480315
20
0.6263542913385827
11
1.2723903937007874
21
0.6250314960629921
0
LINE
8
BLACK
6
CONTINUOUS
10
1.2723903937007874
20
0.6250314960629921
11
1.2700551181102362
21
0.624566968503937
0
LINE
8
BLACK
6
CONTINUOUS
10
1.2700551181102362
20
0.624566968503937
11
1.2578503937007874
21
0.624566968503937
0
LINE
8
BLACK
6
CONTINUOUS
10
1.2578503937007874
20
0.624566968503937
11
1.2555151181102362
21
0.6250314960629921
0
LINE
8
BLACK
6
CONTINUOUS
10
1.2555151181102362
20
0.6250314960629921
11
1.2535353543307086
21
0.6263542913385827
0
LINE
8
BLACK
6
CONTINUOUS
10
1.2535353543307086
20
0.6263542913385827
11
1.2522125590551181
21
0.6283340551181102
0
LINE
8
BLACK
6
CONTINUOUS
10
1.2522125590551181
20
0.6283340551181102
11
1.251748031496063
21
0.6306693307086614
0
LINE
8
BLACK
6
CONTINUOUS
10
1.251748031496063
20
0.6306693307086614
11
1.251748031496063
21
0.6474016141732283
0
LINE
8
BLACK
6
CONTINUOUS
10
1.251748031496063
20
0.6474016141732283
11
1.2522125590551181
21
0.6497368897637795
0
LINE
8
BLACK
6
CONTINUOUS
10
1.2522125590551181
20
0.6497368897637795
11
1.2535353543307086
21
0.6517166535433071
0
LINE
8
BLACK
6
CONTINUOUS
10
1.2535353543307086
20
0.6517166535433071
11
1.2555151181102362
21
0.6530394488188976
0
LINE
8
BLACK
6
CONTINUOUS
10
1.2555151181102362
20
0.6530394488188976
11
1.2578503937007874
21
0.6535039763779528
0
LINE
8
BLACK
6
CONTINUOUS
10
1.2578503937007874
20
0.6535039763779528
11
1.2700551181102362
21
0.6535039763779528
0
LINE
8
BLACK
6
CONTINUOUS
10
1.2700551181102362
20
0.6535039763779528
11
1.2723903937007874
21
0.6530394488188976
0
LINE
8
BLACK
6
CONTINUOUS
10
1.3223903937007875
20
0.6530394488188976
11
1.3243701574803148
21
0.6517166535433071
0
LINE
8
BLACK
6
CONTINUOUS
10
1.3243701574803148
20
0.6517166535433071
11
1.3256929527559054
21
0.6497368897637795
0
LINE
8
BLACK
6
CONTINUOUS
10
1.3256929527559054
20
0.6497368897637795
11
1.3261574803149605
21
0.6474016141732283
0
LINE
8
BLACK
6
CONTINUOUS
10
1.3261574803149605
20
0.6474016141732283
11
1.3261574803149605
21
0.6306693307086614
0
LINE
8
BLACK
6
CONTINUOUS
10
1.3261574803149605
20
0.6306693307086614
11
1.3256929527559054
21
0.6283340551181102
0
LINE
8
BLACK
6
CONTINUOUS
10
1.3256929527559054
20
0.6283340551181102
11
1.3243701574803148
21
0.6263542913385827
0
LINE
8
BLACK
6
CONTINUOUS
10
1.3243701574803148
20
0.6263542913385827
11
1.3223903937007875
21
0.6250314960629921
0
LINE
8
BLACK
6
CONTINUOUS
10
1.3223903937007875
20
0.6250314960629921
11
1.3200551181102362
21
0.624566968503937
0
LINE
8
BLACK
6
CONTINUOUS
10
1.3200551181102362
20
0.624566968503937
11
1.3078503937007873
21
0.624566968503937
0
LINE
8
BLACK
6
CONTINUOUS
10
1.3078503937007873
20
0.624566968503937
11
1.3055151181102362
21
0.6250314960629921
0
LINE
8
BLACK
6
CONTINUOUS
10
1.3055151181102362
20
0.6250314960629921
11
1.3035353543307087
21
0.6263542913385827
0
LINE
8
BLACK
6
CONTINUOUS
10
1.3035353543307087
20
0.6263542913385827
11
1.3022125590551181
21
0.6283340551181102
0
LINE
8
BLACK
6
CONTINUOUS
10
1.3022125590551181
20
0.6283340551181102
11
1.301748031496063
21
0.6306693307086614
0
LINE
8
BLACK
6
CONTINUOUS
10
1.301748031496063
20
0.6306693307086614
11
1.301748031496063
21
0.6474016141732283
0
LINE
8
BLACK
6
CONTINUOUS
10
1.301748031496063
20
0.6474016141732283
11
1.3022125590551181
21
0.6497368897637795
0
LINE
8
BLACK
6
CONTINUOUS
10
1.3022125590551181
20
0.6497368897637795
11
1.3035353543307087
21
0.6517166535433071
0
LINE
8
BLACK
6
CONTINUOUS
10
1.3035353543307087
20
0.6517166535433071
11
1.3055151181102362
21
0.6530394488188976
0
LINE
8
BLACK
6
CONTINUOUS
10
1.3055151181102362
20
0.6530394488188976
11
1.3078503937007873
21
0.6535039763779528
0
LINE
8
BLACK
6
CONTINUOUS
10
1.3078503937007873
20
0.6535039763779528
11
1.3200551181102362
21
0.6535039763779528
0
LINE
8
BLACK
6
CONTINUOUS
10
1.3200551181102362
20
0.6535039763779528
11
1.3223903937007875
21
0.6530394488188976
0
LINE
8
BLACK
6
CONTINUOUS
10
0.7514016141732284
20
0.6404566929133858
11
0.7435275984251968
21
0.6404566929133858
0
LINE
8
BLACK
6
CONTINUOUS
10
0.7435275984251968
20
0.6404566929133858
11
0.7435275984251968
21
0.6562047244094488
0
LINE
8
BLACK
6
CONTINUOUS
10
0.7435275984251968
20
0.6562047244094488
11
0.7514016141732284
21
0.6562047244094488
0
LINE
8
BLACK
6
CONTINUOUS
10
0.7514016141732284
20
0.6562047244094488
11
0.7514016141732284
21
0.6404566929133858
0
LINE
8
BLACK
6
CONTINUOUS
10
0.7750237007874016
20
0.6404566929133858
11
0.7671496850393701
21
0.6404566929133858
0
LINE
8
BLACK
6
CONTINUOUS
10
0.7671496850393701
20
0.6404566929133858
11
0.7671496850393701
21
0.6562047244094488
0
LINE
8
BLACK
6
CONTINUOUS
10
0.7671496850393701
20
0.6562047244094488
11
0.7750237007874016
21
0.6562047244094488
0
LINE
8
BLACK
6
CONTINUOUS
10
0.7750237007874016
20
0.6562047244094488
11
0.7750237007874016
21
0.6404566929133858
0
LINE
8
BLACK
6
CONTINUOUS
10
0.7986457086614173
20
0.6404566929133858
11
0.7907716929133858
21
0.6404566929133858
0
LINE
8
BLACK
6
CONTINUOUS
10
0.7907716929133858
20
0.6404566929133858
11
0.7907716929133858
21
0.6562047244094488
0
LINE
8
BLACK
6
CONTINUOUS
10
0.7907716929133858
20
0.6562047244094488
11
0.7986457086614173
21
0.6562047244094488
0
LINE
8
BLACK
6
CONTINUOUS
10
0.7986457086614173
20
0.6562047244094488
11
0.7986457086614173
21
0.6404566929133858
0
LINE
8
BLACK
6
CONTINUOUS
10
0.8222677952755906
20
0.6404566929133858
11
0.8143937795275591
21
0.6404566929133858
0
LINE
8
BLACK
6
CONTINUOUS
10
0.8143937795275591
20
0.6404566929133858
11
0.8143937795275591
21
0.6562047244094488
0
LINE
8
BLACK
6
CONTINUOUS
10
0.8143937795275591
20
0.6562047244094488
11
0.8222677952755906
21
0.6562047244094488
0
LINE
8
BLACK
6
CONTINUOUS
10
0.8222677952755906
20
0.6562047244094488
11
0.8222677952755906
21
0.6404566929133858
0
LINE
8
BLACK
6
CONTINUOUS
10
0.8458898031496063
20
0.6404566929133858
11
0.8380157874015748
21
0.6404566929133858
0
LINE
8
BLACK
6
CONTINUOUS
10
0.8380157874015748
20
0.6404566929133858
11
0.8380157874015748
21
0.6562047244094488
0
LINE
8
BLACK
6
CONTINUOUS
10
0.8380157874015748
20
0.6562047244094488
11
0.8458898031496063
21
0.6562047244094488
0
LINE
8
BLACK
6
CONTINUOUS
10
0.8458898031496063
20
0.6562047244094488
11
0.8458898031496063
21
0.6404566929133858
0
LINE
8
BLACK
6
CONTINUOUS
10
0.8695118897637795
20
0.6404566929133858
11
0.861637874015748
21
0.6404566929133858
0
LINE
8
BLACK
6
CONTINUOUS
10
0.861637874015748
20
0.6404566929133858
11
0.861637874015748
21
0.6562047244094488
0
LINE
8
BLACK
6
CONTINUOUS
10
0.861637874015748
20
0.6562047244094488
11
0.8695118897637795
21
0.6562047244094488
0
LINE
8
BLACK
6
CONTINUOUS
10
0.8695118897637795
20
0.6562047244094488
11
0.8695118897637795
21
0.6404566929133858
0
LINE
8
BLACK
6
CONTINUOUS
10
0.8931338976377953
20
0.6404566929133858
11
0.8852598818897638
21
0.6404566929133858
0
LINE
8
BLACK
6
CONTINUOUS
10
0.8852598818897638
20
0.6404566929133858
11
0.8852598818897638
21
0.6562047244094488
0
LINE
8
BLACK
6
CONTINUOUS
10
0.8852598818897638
20
0.6562047244094488
11
0.8931338976377953
21
0.6562047244094488
0
LINE
8
BLACK
6
CONTINUOUS
10
0.8931338976377953
20
0.6562047244094488
11
0.8931338976377953
21
0.6404566929133858
0
LINE
8
BLACK
6
CONTINUOUS
10
0.9167559842519685
20
0.6404566929133858
11
0.908881968503937
21
0.6404566929133858
0
LINE
8
BLACK
6
CONTINUOUS
10
0.908881968503937
20
0.6404566929133858
11
0.908881968503937
21
0.6562047244094488
0
LINE
8
BLACK
6
CONTINUOUS
10
0.908881968503937
20
0.6562047244094488
11
0.9167559842519685
21
0.6562047244094488
0
LINE
8
BLACK
6
CONTINUOUS
10
0.9167559842519685
20
0.6562047244094488
11
0.9167559842519685
21
0.6404566929133858
0
LINE
8
BLACK
6
CONTINUOUS
10
0.9403779921259843
20
0.6404566929133858
11
0.9325039763779527
21
0.6404566929133858
0
LINE
8
BLACK
6
CONTINUOUS
10
0.9325039763779527
20
0.6404566929133858
11
0.9325039763779527
21
0.6562047244094488
0
LINE
8
BLACK
6
CONTINUOUS
10
0.9325039763779527
20
0.6562047244094488
11
0.9403779921259843
21
0.6562047244094488
0
LINE
8
BLACK
6
CONTINUOUS
10
0.9403779921259843
20
0.6562047244094488
11
0.9403779921259843
21
0.6404566929133858
0
LINE
8
BLACK
6
CONTINUOUS
10
1.471360275590551
20
0.750503937007874
11
1.4792922440944882
21
0.7479266929133858
0
LINE
8
BLACK
6
CONTINUOUS
10
1.4792922440944882
20
0.7479266929133858
11
1.4867233464566929
21
0.7441403543307087
0
LINE
8
BLACK
6
CONTINUOUS
10
1.4867233464566929
20
0.7441403543307087
11
1.4934706692913386
21
0.7392381496062992
0
LINE
8
BLACK
6
CONTINUOUS
10
1.4934706692913386
20
0.7392381496062992
11
1.4993680314960629
21
0.7333407874015748
0
LINE
8
BLACK
6
CONTINUOUS
10
1.4993680314960629
20
0.7333407874015748
11
1.5042702362204725
21
0.7265934645669291
0
LINE
8
BLACK
6
CONTINUOUS
10
1.5042702362204725
20
0.7265934645669291
11
1.5080565748031496
21
0.7191623622047244
0
LINE
8
BLACK
6
CONTINUOUS
10
1.5080565748031496
20
0.7191623622047244
11
1.5106338188976378
21
0.7112303937007873
0
LINE
8
BLACK
6
CONTINUOUS
10
1.5106338188976378
20
0.7112303937007873
11
1.5119385039370079
21
0.7029929527559055
0
LINE
8
BLACK
6
CONTINUOUS
10
1.5119385039370079
20
0.7029929527559055
11
1.5119385039370079
21
0.6946527952755905
0
LINE
8
BLACK
6
CONTINUOUS
10
1.5119385039370079
20
0.6946527952755905
11
1.5106338188976378
21
0.6864153543307087
0
LINE
8
BLACK
6
CONTINUOUS
10
1.5106338188976378
20
0.6864153543307087
11
1.5080565748031496
21
0.6784833858267716
0
LINE
8
BLACK
6
CONTINUOUS
10
1.5080565748031496
20
0.6784833858267716
11
1.5042702362204725
21
0.6710522834645669
0
LINE
8
BLACK
6
CONTINUOUS
10
1.5042702362204725
20
0.6710522834645669
11
1.4993680314960629
21
0.6643049606299213
0
LINE
8
BLACK
6
CONTINUOUS
10
1.4993680314960629
20
0.6643049606299213
11
1.4934706692913386
21
0.6584075984251968
0
LINE
8
BLACK
6
CONTINUOUS
10
1.4934706692913386
20
0.6584075984251968
11
1.4867233464566929
21
0.6535053937007874
0
LINE
8
BLACK
6
CONTINUOUS
10
1.4867233464566929
20
0.6535053937007874
11
1.4792922440944882
21
0.6497190551181102
0
LINE
8
BLACK
6
CONTINUOUS
10
1.4792922440944882
20
0.6497190551181102
11
1.471360275590551
21
0.647141811023622
0
LINE
8
BLACK
6
CONTINUOUS
10
1.471360275590551
20
0.647141811023622
11
1.4631228346456693
21
0.6458371259842519
0
LINE
8
BLACK
6
CONTINUOUS
10
1.4631228346456693
20
0.6458371259842519
11
1.4547826771653543
21
0.6458371259842519
0
LINE
8
BLACK
6
CONTINUOUS
10
1.4547826771653543
20
0.6458371259842519
11
1.4465452362204725
21
0.647141811023622
0
LINE
8
BLACK
6
CONTINUOUS
10
1.4465452362204725
20
0.647141811023622
11
1.4386132677165353
21
0.6497190551181102
0
LINE
8
BLACK
6
CONTINUOUS
10
1.4386132677165353
20
0.6497190551181102
11
1.4311821653543306
21
0.6535053937007874
0
LINE
8
BLACK
6
CONTINUOUS
10
1.4311821653543306
20
0.6535053937007874
11
1.4244348425196851
21
0.6584075984251968
0
LINE
8
BLACK
6
CONTINUOUS
10
1.4244348425196851
20
0.6584075984251968
11
1.4185374803149606
21
0.6643049606299213
0
LINE
8
BLACK
6
CONTINUOUS
10
1.4185374803149606
20
0.6643049606299213
11
1.4136352755905512
21
0.6710522834645669
0
LINE
8
BLACK
6
CONTINUOUS
10
1.4136352755905512
20
0.6710522834645669
11
1.4098489370078739
21
0.6784833858267716
0
LINE
8
BLACK
6
CONTINUOUS
10
1.4098489370078739
20
0.6784833858267716
11
1.4072716929133857
21
0.6864153543307087
0
LINE
8
BLACK
6
CONTINUOUS
10
1.4072716929133857
20
0.6864153543307087
11
1.4059670078740156
21
0.6946527952755905
0
LINE
8
BLACK
6
CONTINUOUS
10
1.4059670078740156
20
0.6946527952755905
11
1.4059670078740156
21
0.7029929527559055
0
LINE
8
BLACK
6
CONTINUOUS
10
1.4059670078740156
20
0.7029929527559055
11
1.4072716929133857
21
0.7112303937007873
0
LINE
8
BLACK
6
CONTINUOUS
10
1.4072716929133857
20
0.7112303937007873
11
1.4098489370078739
21
0.7191623622047244
0
LINE
8
BLACK
6
CONTINUOUS
10
1.4098489370078739
20
0.7191623622047244
11
1.4136352755905512
21
0.7265934645669291
0
LINE
8
BLACK
6
CONTINUOUS
10
1.4136352755905512
20
0.7265934645669291
11
1.4185374803149606
21
0.7333407874015748
0
LINE
8
BLACK
6
CONTINUOUS
10
1.4185374803149606
20
0.7333407874015748
11
1.4244348425196851
21
0.7392381496062992
0
LINE
8
BLACK
6
CONTINUOUS
10
1.4244348425196851
20
0.7392381496062992
11
1.4311821653543306
21
0.7441403543307087
0
LINE
8
BLACK
6
CONTINUOUS
10
1.4311821653543306
20
0.7441403543307087
11
1.4386132677165353
21
0.7479266929133858
0
LINE
8
BLACK
6
CONTINUOUS
10
1.4386132677165353
20
0.7479266929133858
11
1.4465452362204725
21
0.750503937007874
0
LINE
8
BLACK
6
CONTINUOUS
10
1.4465452362204725
20
0.750503937007874
11
1.4547826771653543
21
0.7518086220472441
0
LINE
8
BLACK
6
CONTINUOUS
10
1.4547826771653543
20
0.7518086220472441
11
1.4631228346456693
21
0.7518086220472441
0
LINE
8
BLACK
6
CONTINUOUS
10
1.4631228346456693
20
0.7518086220472441
11
1.471360275590551
21
0.750503937007874
0
LINE
8
BLACK
6
CONTINUOUS
10
1.6713602755905512
20
0.750503937007874
11
1.6792922440944882
21
0.7479266929133858
0
LINE
8
BLACK
6
CONTINUOUS
10
1.6792922440944882
20
0.7479266929133858
11
1.6867233464566929
21
0.7441403543307087
0
LINE
8
BLACK
6
CONTINUOUS
10
1.6867233464566929
20
0.7441403543307087
11
1.6934706692913386
21
0.7392381496062992
0
LINE
8
BLACK
6
CONTINUOUS
10
1.6934706692913386
20
0.7392381496062992
11
1.6993680314960629
21
0.7333407874015748
0
LINE
8
BLACK
6
CONTINUOUS
10
1.6993680314960629
20
0.7333407874015748
11
1.7042702362204725
21
0.7265934645669291
0
LINE
8
BLACK
6
CONTINUOUS
10
1.7042702362204725
20
0.7265934645669291
11
1.7080565748031495
21
0.7191623622047244
0
LINE
8
BLACK
6
CONTINUOUS
10
1.7080565748031495
20
0.7191623622047244
11
1.7106338188976378
21
0.7112303937007873
0
LINE
8
BLACK
6
CONTINUOUS
10
1.7106338188976378
20
0.7112303937007873
11
1.7119385039370079
21
0.7029929527559055
0
LINE
8
BLACK
6
CONTINUOUS
10
1.7119385039370079
20
0.7029929527559055
11
1.7119385039370079
21
0.6946527952755905
0
LINE
8
BLACK
6
CONTINUOUS
10
1.7119385039370079
20
0.6946527952755905
11
1.7106338188976378
21
0.6864153543307087
0
LINE
8
BLACK
6
CONTINUOUS
10
1.7106338188976378
20
0.6864153543307087
11
1.7080565748031495
21
0.6784833858267716
0
LINE
8
BLACK
6
CONTINUOUS
10
1.7080565748031495
20
0.6784833858267716
11
1.7042702362204725
21
0.6710522834645669
0
LINE
8
BLACK
6
CONTINUOUS
10
1.7042702362204725
20
0.6710522834645669
11
1.6993680314960629
21
0.6643049606299213
0
LINE
8
BLACK
6
CONTINUOUS
10
1.6993680314960629
20
0.6643049606299213
11
1.6934706692913386
21
0.6584075984251968
0
LINE
8
BLACK
6
CONTINUOUS
10
1.6934706692913386
20
0.6584075984251968
11
1.6867233464566929
21
0.6535053937007874
0
LINE
8
BLACK
6
CONTINUOUS
10
1.6867233464566929
20
0.6535053937007874
11
1.6792922440944882
21
0.6497190551181102
0
LINE
8
BLACK
6
CONTINUOUS
10
1.6792922440944882
20
0.6497190551181102
11
1.6713602755905512
21
0.647141811023622
0
LINE
8
BLACK
6
CONTINUOUS
10
1.6713602755905512
20
0.647141811023622
11
1.6631228346456692
21
0.6458371259842519
0
LINE
8
BLACK
6
CONTINUOUS
10
1.6631228346456692
20
0.6458371259842519
11
1.6547826771653542
21
0.6458371259842519
0
LINE
8
BLACK
6
CONTINUOUS
10
1.6547826771653542
20
0.6458371259842519
11
1.6465452362204724
21
0.647141811023622
0
LINE
8
BLACK
6
CONTINUOUS
10
1.6465452362204724
20
0.647141811023622
11
1.6386132677165355
21
0.6497190551181102
0
LINE
8
BLACK
6
CONTINUOUS
10
1.6386132677165355
20
0.6497190551181102
11
1.6311821653543306
21
0.6535053937007874
0
LINE
8
BLACK
6
CONTINUOUS
10
1.6311821653543306
20
0.6535053937007874
11
1.6244348425196851
21
0.6584075984251968
0
LINE
8
BLACK
6
CONTINUOUS
10
1.6244348425196851
20
0.6584075984251968
11
1.6185374803149606
21
0.6643049606299213
0
LINE
8
BLACK
6
CONTINUOUS
10
1.6185374803149606
20
0.6643049606299213
11
1.6136352755905512
21
0.6710522834645669
0
LINE
8
BLACK
6
CONTINUOUS
10
1.6136352755905512
20
0.6710522834645669
11
1.6098489370078739
21
0.6784833858267716
0
LINE
8
BLACK
6
CONTINUOUS
10
1.6098489370078739
20
0.6784833858267716
11
1.6072716929133859
21
0.6864153543307087
0
LINE
8
BLACK
6
CONTINUOUS
10
1.6072716929133859
20
0.6864153543307087
11
1.6059670078740158
21
0.6946527952755905
0
LINE
8
BLACK
6
CONTINUOUS
10
1.6059670078740158
20
0.6946527952755905
11
1.6059670078740158
21
0.7029929527559055
0
LINE
8
BLACK
6
CONTINUOUS
10
1.6059670078740158
20
0.7029929527559055
11
1.6072716929133859
21
0.7112303937007873
0
LINE
8
BLACK
6
CONTINUOUS
10
1.6072716929133859
20
0.7112303937007873
11
1.6098489370078739
21
0.7191623622047244
0
LINE
8
BLACK
6
CONTINUOUS
10
1.6098489370078739
20
0.7191623622047244
11
1.6136352755905512
21
0.7265934645669291
0
LINE
8
BLACK
6
CONTINUOUS
10
1.6136352755905512
20
0.7265934645669291
11
1.6185374803149606
21
0.7333407874015748
0
LINE
8
BLACK
6
CONTINUOUS
10
1.6185374803149606
20
0.7333407874015748
11
1.6244348425196851
21
0.7392381496062992
0
LINE
8
BLACK
6
CONTINUOUS
10
1.6244348425196851
20
0.7392381496062992
11
1.6311821653543306
21
0.7441403543307087
0
LINE
8
BLACK
6
CONTINUOUS
10
1.6311821653543306
20
0.7441403543307087
11
1.6386132677165355
21
0.7479266929133858
0
LINE
8
BLACK
6
CONTINUOUS
10
1.6386132677165355
20
0.7479266929133858
11
1.6465452362204724
21
0.750503937007874
0
LINE
8
BLACK
6
CONTINUOUS
10
1.6465452362204724
20
0.750503937007874
11
1.6547826771653542
21
0.7518086220472441
0
LINE
8
BLACK
6
CONTINUOUS
10
1.6547826771653542
20
0.7518086220472441
11
1.6631228346456692
21
0.7518086220472441
0
LINE
8
BLACK
6
CONTINUOUS
10
1.6631228346456692
20
0.7518086220472441
11
1.6713602755905512
21
0.750503937007874
0
LINE
8
BLACK
6
CONTINUOUS
10
0.7002205118110236
20
0.6601416929133858
11
0.6765984645669291
21
0.6601416929133858
0
LINE
8
BLACK
6
CONTINUOUS
10
0.6765984645669291
20
0.6601416929133858
11
0.6765984645669291
21
0.6680157086614174
0
LINE
8
BLACK
6
CONTINUOUS
10
0.6765984645669291
20
0.6680157086614174
11
0.7002205118110236
21
0.6680157086614174
0
LINE
8
BLACK
6
CONTINUOUS
10
0.7002205118110236
20
0.6680157086614174
11
0.7002205118110236
21
0.6601416929133858
0
LINE
8
BLACK
6
CONTINUOUS
10
1.0073071259842519
20
0.6601416929133858
11
0.9836850787401574
21
0.6601416929133858
0
LINE
8
BLACK
6
CONTINUOUS
10
0.9836850787401574
20
0.6601416929133858
11
0.9836850787401574
21
0.6680157086614174
0
LINE
8
BLACK
6
CONTINUOUS
10
0.9836850787401574
20
0.6680157086614174
11
1.0073071259842519
21
0.6680157086614174
0
LINE
8
BLACK
6
CONTINUOUS
10
1.0073071259842519
20
0.6680157086614174
11
1.0073071259842519
21
0.6601416929133858
0
LINE
8
BLACK
6
CONTINUOUS
10
1.2723903937007874
20
0.6977244881889764
11
1.274370157480315
21
0.6964016929133858
0
LINE
8
BLACK
6
CONTINUOUS
10
1.274370157480315
20
0.6964016929133858
11
1.2756929527559056
21
0.6944219291338583
0
LINE
8
BLACK
6
CONTINUOUS
10
1.2756929527559056
20
0.6944219291338583
11
1.2761574803149607
21
0.6920866535433071
0
LINE
8
BLACK
6
CONTINUOUS
10
1.2761574803149607
20
0.6920866535433071
11
1.2761574803149607
21
0.6753543700787401
0
LINE
8
BLACK
6
CONTINUOUS
10
1.2761574803149607
20
0.6753543700787401
11
1.2756929527559056
21
0.673019094488189
0
LINE
8
BLACK
6
CONTINUOUS
10
1.2756929527559056
20
0.673019094488189
11
1.274370157480315
21
0.6710393307086614
0
LINE
8
BLACK
6
CONTINUOUS
10
1.274370157480315
20
0.6710393307086614
11
1.2723903937007874
21
0.6697165354330709
0
LINE
8
BLACK
6
CONTINUOUS
10
1.2723903937007874
20
0.6697165354330709
11
1.2700551181102362
21
0.6692520078740157
0
LINE
8
BLACK
6
CONTINUOUS
10
1.2700551181102362
20
0.6692520078740157
11
1.2578503937007874
21
0.6692520078740157
0
LINE
8
BLACK
6
CONTINUOUS
10
1.2578503937007874
20
0.6692520078740157
11
1.2555151181102362
21
0.6697165354330709
0
LINE
8
BLACK
6
CONTINUOUS
10
1.2555151181102362
20
0.6697165354330709
11
1.2535353543307086
21
0.6710393307086614
0
LINE
8
BLACK
6
CONTINUOUS
10
1.2535353543307086
20
0.6710393307086614
11
1.2522125590551181
21
0.673019094488189
0
LINE
8
BLACK
6
CONTINUOUS
10
1.2522125590551181
20
0.673019094488189
11
1.251748031496063
21
0.6753543700787401
0
LINE
8
BLACK
6
CONTINUOUS
10
1.251748031496063
20
0.6753543700787401
11
1.251748031496063
21
0.6920866535433071
0
LINE
8
BLACK
6
CONTINUOUS
10
1.251748031496063
20
0.6920866535433071
11
1.2522125590551181
21
0.6944219291338583
0
LINE
8
BLACK
6
CONTINUOUS
10
1.2522125590551181
20
0.6944219291338583
11
1.2535353543307086
21
0.6964016929133858
0
LINE
8
BLACK
6
CONTINUOUS
10
1.2535353543307086
20
0.6964016929133858
11
1.2555151181102362
21
0.6977244881889764
0
LINE
8
BLACK
6
CONTINUOUS
10
1.2555151181102362
20
0.6977244881889764
11
1.2578503937007874
21
0.6981890157480315
0
LINE
8
BLACK
6
CONTINUOUS
10
1.2578503937007874
20
0.6981890157480315
11
1.2700551181102362
21
0.6981890157480315
0
LINE
8
BLACK
6
CONTINUOUS
10
1.2700551181102362
20
0.6981890157480315
11
1.2723903937007874
21
0.6977244881889764
0
LINE
8
BLACK
6
CONTINUOUS
10
1.3223903937007875
20
0.6977244881889764
11
1.3243701574803148
21
0.6964016929133858
0
LINE
8
BLACK
6
CONTINUOUS
10
1.3243701574803148
20
0.6964016929133858
11
1.3256929527559054
21
0.6944219291338583
0
LINE
8
BLACK
6
CONTINUOUS
10
1.3256929527559054
20
0.6944219291338583
11
1.3261574803149605
21
0.6920866535433071
0
LINE
8
BLACK
6
CONTINUOUS
10
1.3261574803149605
20
0.6920866535433071
11
1.3261574803149605
21
0.6753543700787401
0
LINE
8
BLACK
6
CONTINUOUS
10
1.3261574803149605
20
0.6753543700787401
11
1.3256929527559054
21
0.673019094488189
0
LINE
8
BLACK
6
CONTINUOUS
10
1.3256929527559054
20
0.673019094488189
11
1.3243701574803148
21
0.6710393307086614
0
LINE
8
BLACK
6
CONTINUOUS
10
1.3243701574803148
20
0.6710393307086614
11
1.3223903937007875
21
0.6697165354330709
0
LINE
8
BLACK
6
CONTINUOUS
10
1.3223903937007875
20
0.6697165354330709
11
1.3200551181102362
21
0.6692520078740157
0
LINE
8
BLACK
6
CONTINUOUS
10
1.3200551181102362
20
0.6692520078740157
11
1.3078503937007873
21
0.6692520078740157
0
LINE
8
BLACK
6
CONTINUOUS
10
1.3078503937007873
20
0.6692520078740157
11
1.3055151181102362
21
0.6697165354330709
0
LINE
8
BLACK
6
CONTINUOUS
10
1.3055151181102362
20
0.6697165354330709
11
1.3035353543307087
21
0.6710393307086614
0
LINE
8
BLACK
6
CONTINUOUS
10
1.3035353543307087
20
0.6710393307086614
11
1.3022125590551181
21
0.673019094488189
0
LINE
8
BLACK
6
CONTINUOUS
10
1.3022125590551181
20
0.673019094488189
11
1.301748031496063
21
0.6753543700787401
0
LINE
8
BLACK
6
CONTINUOUS
10
1.301748031496063
20
0.6753543700787401
11
1.301748031496063
21
0.6920866535433071
0
LINE
8
BLACK
6
CONTINUOUS
10
1.301748031496063
20
0.6920866535433071
11
1.3022125590551181
21
0.6944219291338583
0
LINE
8
BLACK
6
CONTINUOUS
10
1.3022125590551181
20
0.6944219291338583
11
1.3035353543307087
21
0.6964016929133858
0
LINE
8
BLACK
6
CONTINUOUS
10
1.3035353543307087
20
0.6964016929133858
11
1.3055151181102362
21
0.6977244881889764
0
LINE
8
BLACK
6
CONTINUOUS
10
1.3055151181102362
20
0.6977244881889764
11
1.3078503937007873
21
0.6981890157480315
0
LINE
8
BLACK
6
CONTINUOUS
10
1.3078503937007873
20
0.6981890157480315
11
1.3200551181102362
21
0.6981890157480315
0
LINE
8
BLACK
6
CONTINUOUS
10
1.3200551181102362
20
0.6981890157480315
11
1.3223903937007875
21
0.6977244881889764
0
LINE
8
BLACK
6
CONTINUOUS
10
0.7277796062992126
20
0.6719527165354331
11
0.7120315748031496
21
0.6719527165354331
0
LINE
8
BLACK
6
CONTINUOUS
10
0.7120315748031496
20
0.6719527165354331
11
0.7120315748031496
21
0.6798267322834646
0
LINE
8
BLACK
6
CONTINUOUS
10
0.7120315748031496
20
0.6798267322834646
11
0.7277796062992126
21
0.6798267322834646
0
LINE
8
BLACK
6
CONTINUOUS
10
0.7277796062992126
20
0.6798267322834646
11
0.7277796062992126
21
0.6719527165354331
0
LINE
8
BLACK
6
CONTINUOUS
10
0.9718740157480315
20
0.6719527165354331
11
0.9561259842519685
21
0.6719527165354331
0
LINE
8
BLACK
6
CONTINUOUS
10
0.9561259842519685
20
0.6719527165354331
11
0.9561259842519685
21
0.6798267322834646
0
LINE
8
BLACK
6
CONTINUOUS
10
0.9561259842519685
20
0.6798267322834646
11
0.9718740157480315
21
0.6798267322834646
0
LINE
8
BLACK
6
CONTINUOUS
10
0.9718740157480315
20
0.6798267322834646
11
0.9718740157480315
21
0.6719527165354331
0
LINE
8
BLACK
6
CONTINUOUS
10
1.0073071259842519
20
0.6837637007874016
11
0.9836850787401574
21
0.6837637007874016
0
LINE
8
BLACK
6
CONTINUOUS
10
0.9836850787401574
20
0.6837637007874016
11
0.9836850787401574
21
0.691637716535433
0
LINE
8
BLACK
6
CONTINUOUS
10
0.9836850787401574
20
0.691637716535433
11
1.0073071259842519
21
0.691637716535433
0
LINE
8
BLACK
6
CONTINUOUS
10
1.0073071259842519
20
0.691637716535433
11
1.0073071259842519
21
0.6837637007874016
0
LINE
8
BLACK
6
CONTINUOUS
10
0.7002205118110236
20
0.6837638188976378
11
0.6765984645669291
21
0.6837638188976378
0
LINE
8
BLACK
6
CONTINUOUS
10
0.6765984645669291
20
0.6837638188976378
11
0.6765984645669291
21
0.6916378346456693
0
LINE
8
BLACK
6
CONTINUOUS
10
0.6765984645669291
20
0.6916378346456693
11
0.7002205118110236
21
0.6916378346456693
0
LINE
8
BLACK
6
CONTINUOUS
10
0.7002205118110236
20
0.6916378346456693
11
0.7002205118110236
21
0.6837638188976378
0
LINE
8
BLACK
6
CONTINUOUS
10
0.7277796062992126
20
0.6955747244094488
11
0.7120315748031496
21
0.6955747244094488
0
LINE
8
BLACK
6
CONTINUOUS
10
0.7120315748031496
20
0.6955747244094488
11
0.7120315748031496
21
0.7034487401574803
0
LINE
8
BLACK
6
CONTINUOUS
10
0.7120315748031496
20
0.7034487401574803
11
0.7277796062992126
21
0.7034487401574803
0
LINE
8
BLACK
6
CONTINUOUS
10
0.7277796062992126
20
0.7034487401574803
11
0.7277796062992126
21
0.6955747244094488
0
LINE
8
BLACK
6
CONTINUOUS
10
0.9718740157480315
20
0.6955748031496063
11
0.9561259842519685
21
0.6955748031496063
0
LINE
8
BLACK
6
CONTINUOUS
10
0.9561259842519685
20
0.6955748031496063
11
0.9561259842519685
21
0.7034488188976378
0
LINE
8
BLACK
6
CONTINUOUS
10
0.9561259842519685
20
0.7034488188976378
11
0.9718740157480315
21
0.7034488188976378
0
LINE
8
BLACK
6
CONTINUOUS
10
0.9718740157480315
20
0.7034488188976378
11
0.9718740157480315
21
0.6955748031496063
0
LINE
8
BLACK
6
CONTINUOUS
10
1.180291653543307
20
0.7394480708661417
11
1.1822714173228346
21
0.7381252362204724
0
LINE
8
BLACK
6
CONTINUOUS
10
1.1822714173228346
20
0.7381252362204724
11
1.1909014566929133
21
0.7294951968503937
0
LINE
8
BLACK
6
CONTINUOUS
10
1.1909014566929133
20
0.7294951968503937
11
1.1922242913385825
21
0.7275154330708661
0
LINE
8
BLACK
6
CONTINUOUS
10
1.1922242913385825
20
0.7275154330708661
11
1.1926888188976377
21
0.7251801968503937
0
LINE
8
BLACK
6
CONTINUOUS
10
1.1926888188976377
20
0.7251801968503937
11
1.1922242913385825
21
0.7228449212598425
0
LINE
8
BLACK
6
CONTINUOUS
10
1.1922242913385825
20
0.7228449212598425
11
1.1909014566929133
21
0.720865157480315
0
LINE
8
BLACK
6
CONTINUOUS
10
1.1909014566929133
20
0.720865157480315
11
1.1790699606299213
21
0.7090336614173228
0
LINE
8
BLACK
6
CONTINUOUS
10
1.1790699606299213
20
0.7090336614173228
11
1.1770901968503937
21
0.7077108267716535
0
LINE
8
BLACK
6
CONTINUOUS
10
1.1770901968503937
20
0.7077108267716535
11
1.1747549212598425
21
0.7072462992125984
0
LINE
8
BLACK
6
CONTINUOUS
10
1.1747549212598425
20
0.7072462992125984
11
1.17241968503937
21
0.7077108267716535
0
LINE
8
BLACK
6
CONTINUOUS
10
1.17241968503937
20
0.7077108267716535
11
1.1704399212598424
21
0.7090336614173228
0
LINE
8
BLACK
6
CONTINUOUS
10
1.1704399212598424
20
0.7090336614173228
11
1.1618098818897638
21
0.7176637007874016
0
LINE
8
BLACK
6
CONTINUOUS
10
1.1618098818897638
20
0.7176637007874016
11
1.1604870472440945
21
0.7196434645669291
0
LINE
8
BLACK
6
CONTINUOUS
10
1.1604870472440945
20
0.7196434645669291
11
1.1600225196850393
21
0.7219787007874016
0
LINE
8
BLACK
6
CONTINUOUS
10
1.1600225196850393
20
0.7219787007874016
11
1.1604870472440945
21
0.7243139763779527
0
LINE
8
BLACK
6
CONTINUOUS
10
1.1604870472440945
20
0.7243139763779527
11
1.1618098818897638
21
0.7262937401574803
0
LINE
8
BLACK
6
CONTINUOUS
10
1.1618098818897638
20
0.7262937401574803
11
1.1736413779527559
21
0.7381252362204724
0
LINE
8
BLACK
6
CONTINUOUS
10
1.1736413779527559
20
0.7381252362204724
11
1.1756211417322835
21
0.7394480708661417
0
LINE
8
BLACK
6
CONTINUOUS
10
1.1756211417322835
20
0.7394480708661417
11
1.1779564173228345
21
0.7399125984251969
0
LINE
8
BLACK
6
CONTINUOUS
10
1.1779564173228345
20
0.7399125984251969
11
1.180291653543307
21
0.7394480708661417
0
LINE
8
BLACK
6
CONTINUOUS
10
0.7002205118110236
20
0.7073857874015748
11
0.6765984645669291
21
0.7073857874015748
0
LINE
8
BLACK
6
CONTINUOUS
10
0.6765984645669291
20
0.7073857874015748
11
0.6765984645669291
21
0.7152598031496062
0
LINE
8
BLACK
6
CONTINUOUS
10
0.6765984645669291
20
0.7152598031496062
11
0.7002205118110236
21
0.7152598031496062
0
LINE
8
BLACK
6
CONTINUOUS
10
0.7002205118110236
20
0.7152598031496062
11
0.7002205118110236
21
0.7073857874015748
0
LINE
8
BLACK
6
CONTINUOUS
10
1.0073071259842519
20
0.7073857874015748
11
0.9836850787401574
21
0.7073857874015748
0
LINE
8
BLACK
6
CONTINUOUS
10
0.9836850787401574
20
0.7073857874015748
11
0.9836850787401574
21
0.7152598031496062
0
LINE
8
BLACK
6
CONTINUOUS
10
0.9836850787401574
20
0.7152598031496062
11
1.0073071259842519
21
0.7152598031496062
0
LINE
8
BLACK
6
CONTINUOUS
10
1.0073071259842519
20
0.7152598031496062
11
1.0073071259842519
21
0.7073857874015748
0
LINE
8
BLACK
6
CONTINUOUS
10
0.5953116535433071
20
0.7351181889763779
11
0.5972914173228346
21
0.7337953937007874
0
LINE
8
BLACK
6
CONTINUOUS
10
0.5972914173228346
20
0.7337953937007874
11
0.5986142125984252
21
0.7318156299212598
0
LINE
8
BLACK
6
CONTINUOUS
10
0.5986142125984252
20
0.7318156299212598
11
0.5990787401574803
21
0.7294803543307087
0
LINE
8
BLACK
6
CONTINUOUS
10
0.5990787401574803
20
0.7294803543307087
11
0.5990787401574803
21
0.7172756299212598
0
LINE
8
BLACK
6
CONTINUOUS
10
0.5990787401574803
20
0.7172756299212598
11
0.5986142125984252
21
0.7149403543307087
0
LINE
8
BLACK
6
CONTINUOUS
10
0.5986142125984252
20
0.7149403543307087
11
0.5972914173228346
21
0.7129605905511811
0
LINE
8
BLACK
6
CONTINUOUS
10
0.5972914173228346
20
0.7129605905511811
11
0.5953116535433071
21
0.7116377952755906
0
LINE
8
BLACK
6
CONTINUOUS
10
0.5953116535433071
20
0.7116377952755906
11
0.5929763779527559
21
0.7111732677165354
0
LINE
8
BLACK
6
CONTINUOUS
10
0.5929763779527559
20
0.7111732677165354
11
0.5762440944881889
21
0.7111732677165354
0
LINE
8
BLACK
6
CONTINUOUS
10
0.5762440944881889
20
0.7111732677165354
11
0.5739088188976378
21
0.7116377952755906
0
LINE
8
BLACK
6
CONTINUOUS
10
0.5739088188976378
20
0.7116377952755906
11
0.5719290551181102
21
0.7129605905511811
0
LINE
8
BLACK
6
CONTINUOUS
10
0.5719290551181102
20
0.7129605905511811
11
0.5706062598425197
21
0.7149403543307087
0
LINE
8
BLACK
6
CONTINUOUS
10
0.5706062598425197
20
0.7149403543307087
11
0.5701417322834645
21
0.7172756299212598
0
LINE
8
BLACK
6
CONTINUOUS
10
0.5701417322834645
20
0.7172756299212598
11
0.5701417322834645
21
0.7294803543307087
0
LINE
8
BLACK
6
CONTINUOUS
10
0.5701417322834645
20
0.7294803543307087
11
0.5706062598425197
21
0.7318156299212598
0
LINE
8
BLACK
6
CONTINUOUS
10
0.5706062598425197
20
0.7318156299212598
11
0.5719290551181102
21
0.7337953937007874
0
LINE
8
BLACK
6
CONTINUOUS
10
0.5719290551181102
20
0.7337953937007874
11
0.5739088188976378
21
0.7351181889763779
0
LINE
8
BLACK
6
CONTINUOUS
10
0.5739088188976378
20
0.7351181889763779
11
0.5762440944881889
21
0.7355827165354331
0
LINE
8
BLACK
6
CONTINUOUS
10
0.5762440944881889
20
0.7355827165354331
11
0.5929763779527559
21
0.7355827165354331
0
LINE
8
BLACK
6
CONTINUOUS
10
0.5929763779527559
20
0.7355827165354331
11
0.5953116535433071
21
0.7351181889763779
0
LINE
8
BLACK
6
CONTINUOUS
10
0.6399966929133858
20
0.7351181889763779
11
0.6419764566929134
21
0.7337953937007874
0
LINE
8
BLACK
6
CONTINUOUS
10
0.6419764566929134
20
0.7337953937007874
11
0.6432992519685039
21
0.7318156299212598
0
LINE
8
BLACK
6
CONTINUOUS
10
0.6432992519685039
20
0.7318156299212598
11
0.643763779527559
21
0.7294803543307087
0
LINE
8
BLACK
6
CONTINUOUS
10
0.643763779527559
20
0.7294803543307087
11
0.643763779527559
21
0.7172756299212598
0
LINE
8
BLACK
6
CONTINUOUS
10
0.643763779527559
20
0.7172756299212598
11
0.6432992519685039
21
0.7149403543307087
0
LINE
8
BLACK
6
CONTINUOUS
10
0.6432992519685039
20
0.7149403543307087
11
0.6419764566929134
21
0.7129605905511811
0
LINE
8
BLACK
6
CONTINUOUS
10
0.6419764566929134
20
0.7129605905511811
11
0.6399966929133858
21
0.7116377952755906
0
LINE
8
BLACK
6
CONTINUOUS
10
0.6399966929133858
20
0.7116377952755906
11
0.6376614173228347
21
0.7111732677165354
0
LINE
8
BLACK
6
CONTINUOUS
10
0.6376614173228347
20
0.7111732677165354
11
0.6209291338582678
21
0.7111732677165354
0
LINE
8
BLACK
6
CONTINUOUS
10
0.6209291338582678
20
0.7111732677165354
11
0.6185938582677165
21
0.7116377952755906
0
LINE
8
BLACK
6
CONTINUOUS
10
0.6185938582677165
20
0.7116377952755906
11
0.6166140944881889
21
0.7129605905511811
0
LINE
8
BLACK
6
CONTINUOUS
10
0.6166140944881889
20
0.7129605905511811
11
0.6152912992125984
21
0.7149403543307087
0
LINE
8
BLACK
6
CONTINUOUS
10
0.6152912992125984
20
0.7149403543307087
11
0.6148267716535433
21
0.7172756299212598
0
LINE
8
BLACK
6
CONTINUOUS
10
0.6148267716535433
20
0.7172756299212598
11
0.6148267716535433
21
0.7294803543307087
0
LINE
8
BLACK
6
CONTINUOUS
10
0.6148267716535433
20
0.7294803543307087
11
0.6152912992125984
21
0.7318156299212598
0
LINE
8
BLACK
6
CONTINUOUS
10
0.6152912992125984
20
0.7318156299212598
11
0.6166140944881889
21
0.7337953937007874
0
LINE
8
BLACK
6
CONTINUOUS
10
0.6166140944881889
20
0.7337953937007874
11
0.6185938582677165
21
0.7351181889763779
0
LINE
8
BLACK
6
CONTINUOUS
10
0.6185938582677165
20
0.7351181889763779
11
0.6209291338582678
21
0.7355827165354331
0
LINE
8
BLACK
6
CONTINUOUS
10
0.6209291338582678
20
0.7355827165354331
11
0.6376614173228347
21
0.7355827165354331
0
LINE
8
BLACK
6
CONTINUOUS
10
0.6376614173228347
20
0.7355827165354331
11
0.6399966929133858
21
0.7351181889763779
0
LINE
8
BLACK
6
CONTINUOUS
10
0.9002205511811023
20
0.7113227952755905
11
0.7702992125984252
21
0.7113227952755905
0
LINE
8
BLACK
6
CONTINUOUS
10
0.7702992125984252
20
0.7113227952755905
11
0.7702992125984252
21
0.829433031496063
0
LINE
8
BLACK
6
CONTINUOUS
10
0.7702992125984252
20
0.829433031496063
11
0.9002205511811023
21
0.829433031496063
0
LINE
8
BLACK
6
CONTINUOUS
10
0.9002205511811023
20
0.829433031496063
11
0.9002205511811023
21
0.7113227952755905
0
LINE
8
BLACK
6
CONTINUOUS
10
0.7277796062992126
20
0.719196811023622
11
0.7120315748031496
21
0.719196811023622
0
LINE
8
BLACK
6
CONTINUOUS
10
0.7120315748031496
20
0.719196811023622
11
0.7120315748031496
21
0.7270708267716536
0
LINE
8
BLACK
6
CONTINUOUS
10
0.7120315748031496
20
0.7270708267716536
11
0.7277796062992126
21
0.7270708267716536
0
LINE
8
BLACK
6
CONTINUOUS
10
0.7277796062992126
20
0.7270708267716536
11
0.7277796062992126
21
0.719196811023622
0
LINE
8
BLACK
6
CONTINUOUS
10
0.9718740157480315
20
0.719196811023622
11
0.9561259842519685
21
0.719196811023622
0
LINE
8
BLACK
6
CONTINUOUS
10
0.9561259842519685
20
0.719196811023622
11
0.9561259842519685
21
0.7270708267716536
0
LINE
8
BLACK
6
CONTINUOUS
10
0.9561259842519685
20
0.7270708267716536
11
0.9718740157480315
21
0.7270708267716536
0
LINE
8
BLACK
6
CONTINUOUS
10
0.9718740157480315
20
0.7270708267716536
11
0.9718740157480315
21
0.719196811023622
0
LINE
8
BLACK
6
CONTINUOUS
10
1.0073071259842519
20
0.7310077952755906
11
0.9836850787401574
21
0.7310077952755906
0
LINE
8
BLACK
6
CONTINUOUS
10
0.9836850787401574
20
0.7310077952755906
11
0.9836850787401574
21
0.738881811023622
0
LINE
8
BLACK
6
CONTINUOUS
10
0.9836850787401574
20
0.738881811023622
11
1.0073071259842519
21
0.738881811023622
0
LINE
8
BLACK
6
CONTINUOUS
10
1.0073071259842519
20
0.738881811023622
11
1.0073071259842519
21
0.7310077952755906
0
LINE
8
BLACK
6
CONTINUOUS
10
0.7002205118110236
20
0.7310079133858267
11
0.6765984645669291
21
0.7310079133858267
0
LINE
8
BLACK
6
CONTINUOUS
10
0.6765984645669291
20
0.7310079133858267
11
0.6765984645669291
21
0.7388819291338583
0
LINE
8
BLACK
6
CONTINUOUS
10
0.6765984645669291
20
0.7388819291338583
11
0.7002205118110236
21
0.7388819291338583
0
LINE
8
BLACK
6
CONTINUOUS
10
0.7002205118110236
20
0.7388819291338583
11
0.7002205118110236
21
0.7310079133858267
0
LINE
8
BLACK
6
CONTINUOUS
10
1.1576048031496062
20
0.7648358267716535
11
1.1297659842519685
21
0.7369970078740158
0
LINE
8
BLACK
6
CONTINUOUS
10
1.1297659842519685
20
0.7369970078740158
11
1.0963593700787402
21
0.7704036220472441
0
LINE
8
BLACK
6
CONTINUOUS
10
1.0963593700787402
20
0.7704036220472441
11
1.1241981889763779
21
0.7982424409448818
0
LINE
8
BLACK
6
CONTINUOUS
10
1.1241981889763779
20
0.7982424409448818
11
1.1576048031496062
21
0.7648358267716535
0
LINE
8
BLACK
6
CONTINUOUS
10
1.2118887401574803
20
0.771045157480315
11
1.2138685039370078
21
0.7697223228346457
0
LINE
8
BLACK
6
CONTINUOUS
10
1.2138685039370078
20
0.7697223228346457
11
1.2224985433070865
21
0.7610922834645669
0
LINE
8
BLACK
6
CONTINUOUS
10
1.2224985433070865
20
0.7610922834645669
11
1.2238213779527558
21
0.7591125196850393
0
LINE
8
BLACK
6
CONTINUOUS
10
1.2238213779527558
20
0.7591125196850393
11
1.2242859055118109
21
0.756777283464567
0
LINE
8
BLACK
6
CONTINUOUS
10
1.2242859055118109
20
0.756777283464567
11
1.2238213779527558
21
0.7544420078740157
0
LINE
8
BLACK
6
CONTINUOUS
10
1.2238213779527558
20
0.7544420078740157
11
1.2224985433070865
21
0.7524622440944881
0
LINE
8
BLACK
6
CONTINUOUS
10
1.2224985433070865
20
0.7524622440944881
11
1.2106670472440944
21
0.7406307480314961
0
LINE
8
BLACK
6
CONTINUOUS
10
1.2106670472440944
20
0.7406307480314961
11
1.208687283464567
21
0.7393079133858268
0
LINE
8
BLACK
6
CONTINUOUS
10
1.208687283464567
20
0.7393079133858268
11
1.2063520078740158
21
0.7388433858267717
0
LINE
8
BLACK
6
CONTINUOUS
10
1.2063520078740158
20
0.7388433858267717
11
1.2040167716535433
21
0.7393079133858268
0
LINE
8
BLACK
6
CONTINUOUS
10
1.2040167716535433
20
0.7393079133858268
11
1.2020370078740157
21
0.7406307480314961
0
LINE
8
BLACK
6
CONTINUOUS
10
1.2020370078740157
20
0.7406307480314961
11
1.193406968503937
21
0.7492607874015748
0
LINE
8
BLACK
6
CONTINUOUS
10
1.193406968503937
20
0.7492607874015748
11
1.1920841338582677
21
0.7512405511811023
0
LINE
8
BLACK
6
CONTINUOUS
10
1.1920841338582677
20
0.7512405511811023
11
1.1916196062992126
21
0.7535757874015748
0
LINE
8
BLACK
6
CONTINUOUS
10
1.1916196062992126
20
0.7535757874015748
11
1.1920841338582677
21
0.755911062992126
0
LINE
8
BLACK
6
CONTINUOUS
10
1.1920841338582677
20
0.755911062992126
11
1.193406968503937
21
0.7578908267716535
0
LINE
8
BLACK
6
CONTINUOUS
10
1.193406968503937
20
0.7578908267716535
11
1.2052384645669292
21
0.7697223228346457
0
LINE
8
BLACK
6
CONTINUOUS
10
1.2052384645669292
20
0.7697223228346457
11
1.2072182283464568
21
0.771045157480315
0
LINE
8
BLACK
6
CONTINUOUS
10
1.2072182283464568
20
0.771045157480315
11
1.2095535039370078
21
0.77150968503937
0
LINE
8
BLACK
6
CONTINUOUS
10
1.2095535039370078
20
0.77150968503937
11
1.2118887401574803
21
0.771045157480315
0
LINE
8
BLACK
6
CONTINUOUS
10
0.7277796062992126
20
0.7428188188976378
11
0.7120315748031496
21
0.7428188188976378
0
LINE
8
BLACK
6
CONTINUOUS
10
0.7120315748031496
20
0.7428188188976378
11
0.7120315748031496
21
0.7506928346456693
0
LINE
8
BLACK
6
CONTINUOUS
10
0.7120315748031496
20
0.7506928346456693
11
0.7277796062992126
21
0.7506928346456693
0
LINE
8
BLACK
6
CONTINUOUS
10
0.7277796062992126
20
0.7506928346456693
11
0.7277796062992126
21
0.7428188188976378
0
LINE
8
BLACK
6
CONTINUOUS
10
0.9718740157480315
20
0.7428188976377953
11
0.9561259842519685
21
0.7428188976377953
0
LINE
8
BLACK
6
CONTINUOUS
10
0.9561259842519685
20
0.7428188976377953
11
0.9561259842519685
21
0.7506929133858268
0
LINE
8
BLACK
6
CONTINUOUS
10
0.9561259842519685
20
0.7506929133858268
11
0.9718740157480315
21
0.7506929133858268
0
LINE
8
BLACK
6
CONTINUOUS
10
0.9718740157480315
20
0.7506929133858268
11
0.9718740157480315
21
0.7428188976377953
0
LINE
8
BLACK
6
CONTINUOUS
10
0.5936153149606299
20
0.7784969291338583
11
0.595658937007874
21
0.7771314173228346
0
LINE
8
BLACK
6
CONTINUOUS
10
0.595658937007874
20
0.7771314173228346
11
0.5970244488188976
21
0.7750877952755906
0
LINE
8
BLACK
6
CONTINUOUS
10
0.5970244488188976
20
0.7750877952755906
11
0.597503937007874
21
0.7726772047244095
0
LINE
8
BLACK
6
CONTINUOUS
10
0.597503937007874
20
0.7726772047244095
11
0.597503937007874
21
0.7600787795275591
0
LINE
8
BLACK
6
CONTINUOUS
10
0.597503937007874
20
0.7600787795275591
11
0.5970244488188976
21
0.7576681889763779
0
LINE
8
BLACK
6
CONTINUOUS
10
0.5970244488188976
20
0.7576681889763779
11
0.595658937007874
21
0.7556245669291338
0
LINE
8
BLACK
6
CONTINUOUS
10
0.595658937007874
20
0.7556245669291338
11
0.5936153149606299
21
0.7542590551181102
0
LINE
8
BLACK
6
CONTINUOUS
10
0.5936153149606299
20
0.7542590551181102
11
0.5912047244094488
21
0.7537795669291338
0
LINE
8
BLACK
6
CONTINUOUS
10
0.5912047244094488
20
0.7537795669291338
11
0.5756535433070866
21
0.7537795669291338
0
LINE
8
BLACK
6
CONTINUOUS
10
0.5756535433070866
20
0.7537795669291338
11
0.5732429527559055
21
0.7542590551181102
0
LINE
8
BLACK
6
CONTINUOUS
10
0.5732429527559055
20
0.7542590551181102
11
0.5711993307086614
21
0.7556245669291338
0
LINE
8
BLACK
6
CONTINUOUS
10
0.5711993307086614
20
0.7556245669291338
11
0.5698338188976377
21
0.7576681889763779
0
LINE
8
BLACK
6
CONTINUOUS
10
0.5698338188976377
20
0.7576681889763779
11
0.5693543307086614
21
0.7600787795275591
0
LINE
8
BLACK
6
CONTINUOUS
10
0.5693543307086614
20
0.7600787795275591
11
0.5693543307086614
21
0.7726772047244095
0
LINE
8
BLACK
6
CONTINUOUS
10
0.5693543307086614
20
0.7726772047244095
11
0.5698338188976377
21
0.7750877952755906
0
LINE
8
BLACK
6
CONTINUOUS
10
0.5698338188976377
20
0.7750877952755906
11
0.5711993307086614
21
0.7771314173228346
0
LINE
8
BLACK
6
CONTINUOUS
10
0.5711993307086614
20
0.7771314173228346
11
0.5732429527559055
21
0.7784969291338583
0
LINE
8
BLACK
6
CONTINUOUS
10
0.5732429527559055
20
0.7784969291338583
11
0.5756535433070866
21
0.7789764173228346
0
LINE
8
BLACK
6
CONTINUOUS
10
0.5756535433070866
20
0.7789764173228346
11
0.5912047244094488
21
0.7789764173228346
0
LINE
8
BLACK
6
CONTINUOUS
10
0.5912047244094488
20
0.7789764173228346
11
0.5936153149606299
21
0.7784969291338583
0
LINE
8
BLACK
6
CONTINUOUS
10
0.640662559055118
20
0.7784969291338583
11
0.6427061811023622
21
0.7771314173228346
0
LINE
8
BLACK
6
CONTINUOUS
10
0.6427061811023622
20
0.7771314173228346
11
0.6440716929133858
21
0.7750877952755906
0
LINE
8
BLACK
6
CONTINUOUS
10
0.6440716929133858
20
0.7750877952755906
11
0.6445511811023622
21
0.7726772047244095
0
LINE
8
BLACK
6
CONTINUOUS
10
0.6445511811023622
20
0.7726772047244095
11
0.6445511811023622
21
0.7600787795275591
0
LINE
8
BLACK
6
CONTINUOUS
10
0.6445511811023622
20
0.7600787795275591
11
0.6440716929133858
21
0.7576681889763779
0
LINE
8
BLACK
6
CONTINUOUS
10
0.6440716929133858
20
0.7576681889763779
11
0.6427061811023622
21
0.7556245669291338
0
LINE
8
BLACK
6
CONTINUOUS
10
0.6427061811023622
20
0.7556245669291338
11
0.640662559055118
21
0.7542590551181102
0
LINE
8
BLACK
6
CONTINUOUS
10
0.640662559055118
20
0.7542590551181102
11
0.638251968503937
21
0.7537795669291338
0
LINE
8
BLACK
6
CONTINUOUS
10
0.638251968503937
20
0.7537795669291338
11
0.6227007874015748
21
0.7537795669291338
0
LINE
8
BLACK
6
CONTINUOUS
10
0.6227007874015748
20
0.7537795669291338
11
0.6202901968503937
21
0.7542590551181102
0
LINE
8
BLACK
6
CONTINUOUS
10
0.6202901968503937
20
0.7542590551181102
11
0.6182465748031496
21
0.7556245669291338
0
LINE
8
BLACK
6
CONTINUOUS
10
0.6182465748031496
20
0.7556245669291338
11
0.616881062992126
21
0.7576681889763779
0
LINE
8
BLACK
6
CONTINUOUS
10
0.616881062992126
20
0.7576681889763779
11
0.6164015748031496
21
0.7600787795275591
0
LINE
8
BLACK
6
CONTINUOUS
10
0.6164015748031496
20
0.7600787795275591
11
0.6164015748031496
21
0.7726772047244095
0
LINE
8
BLACK
6
CONTINUOUS
10
0.6164015748031496
20
0.7726772047244095
11
0.616881062992126
21
0.7750877952755906
0
LINE
8
BLACK
6
CONTINUOUS
10
0.616881062992126
20
0.7750877952755906
11
0.6182465748031496
21
0.7771314173228346
0
LINE
8
BLACK
6
CONTINUOUS
10
0.6182465748031496
20
0.7771314173228346
11
0.6202901968503937
21
0.7784969291338583
0
LINE
8
BLACK
6
CONTINUOUS
10
0.6202901968503937
20
0.7784969291338583
11
0.6227007874015748
21
0.7789764173228346
0
LINE
8
BLACK
6
CONTINUOUS
10
0.6227007874015748
20
0.7789764173228346
11
0.638251968503937
21
0.7789764173228346
0
LINE
8
BLACK
6
CONTINUOUS
10
0.638251968503937
20
0.7789764173228346
11
0.640662559055118
21
0.7784969291338583
0
LINE
8
BLACK
6
CONTINUOUS
10
0.7002205118110236
20
0.7546299212598425
11
0.6765984645669291
21
0.7546299212598425
0
LINE
8
BLACK
6
CONTINUOUS
10
0.6765984645669291
20
0.7546299212598425
11
0.6765984645669291
21
0.762503937007874
0
LINE
8
BLACK
6
CONTINUOUS
10
0.6765984645669291
20
0.762503937007874
11
0.7002205118110236
21
0.762503937007874
0
LINE
8
BLACK
6
CONTINUOUS
10
0.7002205118110236
20
0.762503937007874
11
0.7002205118110236
21
0.7546299212598425
0
LINE
8
BLACK
6
CONTINUOUS
10
1.0073071259842519
20
0.7546299212598425
11
0.9836850787401574
21
0.7546299212598425
0
LINE
8
BLACK
6
CONTINUOUS
10
0.9836850787401574
20
0.7546299212598425
11
0.9836850787401574
21
0.762503937007874
0
LINE
8
BLACK
6
CONTINUOUS
10
0.9836850787401574
20
0.762503937007874
11
1.0073071259842519
21
0.762503937007874
0
LINE
8
BLACK
6
CONTINUOUS
10
1.0073071259842519
20
0.762503937007874
11
1.0073071259842519
21
0.7546299212598425
0
LINE
8
BLACK
6
CONTINUOUS
10
0.7277796062992126
20
0.766440905511811
11
0.7120315748031496
21
0.766440905511811
0
LINE
8
BLACK
6
CONTINUOUS
10
0.7120315748031496
20
0.766440905511811
11
0.7120315748031496
21
0.7743149212598425
0
LINE
8
BLACK
6
CONTINUOUS
10
0.7120315748031496
20
0.7743149212598425
11
0.7277796062992126
21
0.7743149212598425
0
LINE
8
BLACK
6
CONTINUOUS
10
0.7277796062992126
20
0.7743149212598425
11
0.7277796062992126
21
0.766440905511811
0
LINE
8
BLACK
6
CONTINUOUS
10
0.9718740157480315
20
0.766440905511811
11
0.9561259842519685
21
0.766440905511811
0
LINE
8
BLACK
6
CONTINUOUS
10
0.9561259842519685
20
0.766440905511811
11
0.9561259842519685
21
0.7743149212598425
0
LINE
8
BLACK
6
CONTINUOUS
10
0.9561259842519685
20
0.7743149212598425
11
0.9718740157480315
21
0.7743149212598425
0
LINE
8
BLACK
6
CONTINUOUS
10
0.9718740157480315
20
0.7743149212598425
11
0.9718740157480315
21
0.766440905511811
0
LINE
8
BLACK
6
CONTINUOUS
10
1.19379531496063
20
0.8010263385826771
11
1.165956496062992
21
0.7731875196850394
0
LINE
8
BLACK
6
CONTINUOUS
10
1.165956496062992
20
0.7731875196850394
11
1.1325498818897637
21
0.8065941338582677
0
LINE
8
BLACK
6
CONTINUOUS
10
1.1325498818897637
20
0.8065941338582677
11
1.1603887007874016
21
0.8344329527559055
0
LINE
8
BLACK
6
CONTINUOUS
10
1.1603887007874016
20
0.8344329527559055
11
1.19379531496063
21
0.8010263385826771
0
LINE
8
BLACK
6
CONTINUOUS
10
1.0073071259842519
20
0.7782518897637795
11
0.9836850787401574
21
0.7782518897637795
0
LINE
8
BLACK
6
CONTINUOUS
10
0.9836850787401574
20
0.7782518897637795
11
0.9836850787401574
21
0.7861259055118111
0
LINE
8
BLACK
6
CONTINUOUS
10
0.9836850787401574
20
0.7861259055118111
11
1.0073071259842519
21
0.7861259055118111
0
LINE
8
BLACK
6
CONTINUOUS
10
1.0073071259842519
20
0.7861259055118111
11
1.0073071259842519
21
0.7782518897637795
0
LINE
8
BLACK
6
CONTINUOUS
10
0.7002205118110236
20
0.7782520078740157
11
0.6765984645669291
21
0.7782520078740157
0
LINE
8
BLACK
6
CONTINUOUS
10
0.6765984645669291
20
0.7782520078740157
11
0.6765984645669291
21
0.7861260236220472
0
LINE
8
BLACK
6
CONTINUOUS
10
0.6765984645669291
20
0.7861260236220472
11
0.7002205118110236
21
0.7861260236220472
0
LINE
8
BLACK
6
CONTINUOUS
10
0.7002205118110236
20
0.7861260236220472
11
0.7002205118110236
21
0.7782520078740157
0
LINE
8
BLACK
6
CONTINUOUS
10
1.110278779527559
20
0.8121618503937008
11
1.0824399606299213
21
0.784323031496063
0
LINE
8
BLACK
6
CONTINUOUS
10
1.0824399606299213
20
0.784323031496063
11
1.049033346456693
21
0.8177296456692913
0
LINE
8
BLACK
6
CONTINUOUS
10
1.049033346456693
20
0.8177296456692913
11
1.0768721653543307
21
0.8455684645669291
0
LINE
8
BLACK
6
CONTINUOUS
10
1.0768721653543307
20
0.8455684645669291
11
1.110278779527559
21
0.8121618503937008
0
LINE
8
BLACK
6
CONTINUOUS
10
0.7277796062992126
20
0.7900629133858268
11
0.7120315748031496
21
0.7900629133858268
0
LINE
8
BLACK
6
CONTINUOUS
10
0.7120315748031496
20
0.7900629133858268
11
0.7120315748031496
21
0.7979369291338583
0
LINE
8
BLACK
6
CONTINUOUS
10
0.7120315748031496
20
0.7979369291338583
11
0.7277796062992126
21
0.7979369291338583
0
LINE
8
BLACK
6
CONTINUOUS
10
0.7277796062992126
20
0.7979369291338583
11
0.7277796062992126
21
0.7900629133858268
0
LINE
8
BLACK
6
CONTINUOUS
10
0.9718740157480315
20
0.7900629921259842
11
0.9561259842519685
21
0.7900629921259842
0
LINE
8
BLACK
6
CONTINUOUS
10
0.9561259842519685
20
0.7900629921259842
11
0.9561259842519685
21
0.7979370078740158
0
LINE
8
BLACK
6
CONTINUOUS
10
0.9561259842519685
20
0.7979370078740158
11
0.9718740157480315
21
0.7979370078740158
0
LINE
8
BLACK
6
CONTINUOUS
10
0.9718740157480315
20
0.7979370078740158
11
0.9718740157480315
21
0.7900629921259842
0
LINE
8
BLACK
6
CONTINUOUS
10
0.7002205118110236
20
0.8018740157480315
11
0.6765984645669291
21
0.8018740157480315
0
LINE
8
BLACK
6
CONTINUOUS
10
0.6765984645669291
20
0.8018740157480315
11
0.6765984645669291
21
0.809748031496063
0
LINE
8
BLACK
6
CONTINUOUS
10
0.6765984645669291
20
0.809748031496063
11
0.7002205118110236
21
0.809748031496063
0
LINE
8
BLACK
6
CONTINUOUS
10
0.7002205118110236
20
0.809748031496063
11
0.7002205118110236
21
0.8018740157480315
0
LINE
8
BLACK
6
CONTINUOUS
10
1.0073071259842519
20
0.8018740157480315
11
0.9836850787401574
21
0.8018740157480315
0
LINE
8
BLACK
6
CONTINUOUS
10
0.9836850787401574
20
0.8018740157480315
11
0.9836850787401574
21
0.809748031496063
0
LINE
8
BLACK
6
CONTINUOUS
10
0.9836850787401574
20
0.809748031496063
11
1.0073071259842519
21
0.809748031496063
0
LINE
8
BLACK
6
CONTINUOUS
10
1.0073071259842519
20
0.809748031496063
11
1.0073071259842519
21
0.8018740157480315
0
LINE
8
BLACK
6
CONTINUOUS
10
0.7277796062992126
20
0.813685
11
0.7120315748031496
21
0.813685
0
LINE
8
BLACK
6
CONTINUOUS
10
0.7120315748031496
20
0.813685
11
0.7120315748031496
21
0.8215590157480315
0
LINE
8
BLACK
6
CONTINUOUS
10
0.7120315748031496
20
0.8215590157480315
11
0.7277796062992126
21
0.8215590157480315
0
LINE
8
BLACK
6
CONTINUOUS
10
0.7277796062992126
20
0.8215590157480315
11
0.7277796062992126
21
0.813685
0
LINE
8
BLACK
6
CONTINUOUS
10
0.9718740157480315
20
0.813685
11
0.9561259842519685
21
0.813685
0
LINE
8
BLACK
6
CONTINUOUS
10
0.9561259842519685
20
0.813685
11
0.9561259842519685
21
0.8215590157480315
0
LINE
8
BLACK
6
CONTINUOUS
10
0.9561259842519685
20
0.8215590157480315
11
0.9718740157480315
21
0.8215590157480315
0
LINE
8
BLACK
6
CONTINUOUS
10
0.9718740157480315
20
0.8215590157480315
11
0.9718740157480315
21
0.813685
0
LINE
8
BLACK
6
CONTINUOUS
10
1.1464692913385826
20
0.8483523622047244
11
1.1186304724409448
21
0.8205135433070866
0
LINE
8
BLACK
6
CONTINUOUS
10
1.1186304724409448
20
0.8205135433070866
11
1.0852238582677165
21
0.8539201574803149
0
LINE
8
BLACK
6
CONTINUOUS
10
1.0852238582677165
20
0.8539201574803149
11
1.1130626771653542
21
0.8817589763779528
0
LINE
8
BLACK
6
CONTINUOUS
10
1.1130626771653542
20
0.8817589763779528
11
1.1464692913385826
21
0.8483523622047244
0
LINE
8
BLACK
6
CONTINUOUS
10
1.0073071259842519
20
0.8254960236220472
11
0.9836850787401574
21
0.8254960236220472
0
LINE
8
BLACK
6
CONTINUOUS
10
0.9836850787401574
20
0.8254960236220472
11
0.9836850787401574
21
0.8333700393700787
0
LINE
8
BLACK
6
CONTINUOUS
10
0.9836850787401574
20
0.8333700393700787
11
1.0073071259842519
21
0.8333700393700787
0
LINE
8
BLACK
6
CONTINUOUS
10
1.0073071259842519
20
0.8333700393700787
11
1.0073071259842519
21
0.8254960236220472
0
LINE
8
BLACK
6
CONTINUOUS
10
0.7002205118110236
20
0.8254961023622047
11
0.6765984645669291
21
0.8254961023622047
0
LINE
8
BLACK
6
CONTINUOUS
10
0.6765984645669291
20
0.8254961023622047
11
0.6765984645669291
21
0.8333701181102362
0
LINE
8
BLACK
6
CONTINUOUS
10
0.6765984645669291
20
0.8333701181102362
11
0.7002205118110236
21
0.8333701181102362
0
LINE
8
BLACK
6
CONTINUOUS
10
0.7002205118110236
20
0.8333701181102362
11
0.7002205118110236
21
0.8254961023622047
0
LINE
8
BLACK
6
CONTINUOUS
10
1.1994858267716535
20
0.8694480708661417
11
1.2014655905511811
21
0.8681252362204724
0
LINE
8
BLACK
6
CONTINUOUS
10
1.2014655905511811
20
0.8681252362204724
11
1.2132970866141732
21
0.8562937401574803
0
LINE
8
BLACK
6
CONTINUOUS
10
1.2132970866141732
20
0.8562937401574803
11
1.2146199212598425
21
0.8543139763779527
0
LINE
8
BLACK
6
CONTINUOUS
10
1.2146199212598425
20
0.8543139763779527
11
1.2150844488188977
21
0.8519787007874016
0
LINE
8
BLACK
6
CONTINUOUS
10
1.2150844488188977
20
0.8519787007874016
11
1.2146199212598425
21
0.8496434645669291
0
LINE
8
BLACK
6
CONTINUOUS
10
1.2146199212598425
20
0.8496434645669291
11
1.2132970866141732
21
0.8476637007874016
0
LINE
8
BLACK
6
CONTINUOUS
10
1.2132970866141732
20
0.8476637007874016
11
1.2046670472440946
21
0.8390336614173228
0
LINE
8
BLACK
6
CONTINUOUS
10
1.2046670472440946
20
0.8390336614173228
11
1.202687283464567
21
0.8377108267716535
0
LINE
8
BLACK
6
CONTINUOUS
10
1.202687283464567
20
0.8377108267716535
11
1.2003520472440945
21
0.8372462992125984
0
LINE
8
BLACK
6
CONTINUOUS
10
1.2003520472440945
20
0.8372462992125984
11
1.1980167716535433
21
0.8377108267716535
0
LINE
8
BLACK
6
CONTINUOUS
10
1.1980167716535433
20
0.8377108267716535
11
1.1960370078740157
21
0.8390336614173228
0
LINE
8
BLACK
6
CONTINUOUS
10
1.1960370078740157
20
0.8390336614173228
11
1.1842055118110235
21
0.850865157480315
0
LINE
8
BLACK
6
CONTINUOUS
10
1.1842055118110235
20
0.850865157480315
11
1.1828826771653542
21
0.8528449212598425
0
LINE
8
BLACK
6
CONTINUOUS
10
1.1828826771653542
20
0.8528449212598425
11
1.1824181496062991
21
0.8551801968503937
0
LINE
8
BLACK
6
CONTINUOUS
10
1.1824181496062991
20
0.8551801968503937
11
1.1828826771653542
21
0.8575154330708661
0
LINE
8
BLACK
6
CONTINUOUS
10
1.1828826771653542
20
0.8575154330708661
11
1.1842055118110235
21
0.8594951968503937
0
LINE
8
BLACK
6
CONTINUOUS
10
1.1842055118110235
20
0.8594951968503937
11
1.1928355511811024
21
0.8681252362204724
0
LINE
8
BLACK
6
CONTINUOUS
10
1.1928355511811024
20
0.8681252362204724
11
1.19481531496063
21
0.8694480708661417
0
LINE
8
BLACK
6
CONTINUOUS
10
1.19481531496063
20
0.8694480708661417
11
1.1971505511811023
21
0.8699125984251969
0
LINE
8
BLACK
6
CONTINUOUS
10
1.1971505511811023
20
0.8699125984251969
11
1.1994858267716535
21
0.8694480708661417
0
LINE
8
BLACK
6
CONTINUOUS
10
0.7277796062992126
20
0.8373070078740157
11
0.7120315748031496
21
0.8373070078740157
0
LINE
8
BLACK
6
CONTINUOUS
10
0.7120315748031496
20
0.8373070078740157
11
0.7120315748031496
21
0.8451810236220473
0
LINE
8
BLACK
6
CONTINUOUS
10
0.7120315748031496
20
0.8451810236220473
11
0.7277796062992126
21
0.8451810236220473
0
LINE
8
BLACK
6
CONTINUOUS
10
0.7277796062992126
20
0.8451810236220473
11
0.7277796062992126
21
0.8373070078740157
0
LINE
8
BLACK
6
CONTINUOUS
10
0.9718740157480315
20
0.8373070866141732
11
0.9561259842519685
21
0.8373070866141732
0
LINE
8
BLACK
6
CONTINUOUS
10
0.9561259842519685
20
0.8373070866141732
11
0.9561259842519685
21
0.8451811023622047
0
LINE
8
BLACK
6
CONTINUOUS
10
0.9561259842519685
20
0.8451811023622047
11
0.9718740157480315
21
0.8451811023622047
0
LINE
8
BLACK
6
CONTINUOUS
10
0.9718740157480315
20
0.8451811023622047
11
0.9718740157480315
21
0.8373070866141732
0
LINE
8
BLACK
6
CONTINUOUS
10
0.7002205118110236
20
0.8491181102362204
11
0.6765984645669291
21
0.8491181102362204
0
LINE
8
BLACK
6
CONTINUOUS
10
0.6765984645669291
20
0.8491181102362204
11
0.6765984645669291
21
0.8569921259842519
0
LINE
8
BLACK
6
CONTINUOUS
10
0.6765984645669291
20
0.8569921259842519
11
0.7002205118110236
21
0.8569921259842519
0
LINE
8
BLACK
6
CONTINUOUS
10
0.7002205118110236
20
0.8569921259842519
11
0.7002205118110236
21
0.8491181102362204
0
LINE
8
BLACK
6
CONTINUOUS
10
1.0073071259842519
20
0.8491181102362204
11
0.9836850787401574
21
0.8491181102362204
0
LINE
8
BLACK
6
CONTINUOUS
10
0.9836850787401574
20
0.8491181102362204
11
0.9836850787401574
21
0.8569921259842519
0
LINE
8
BLACK
6
CONTINUOUS
10
0.9836850787401574
20
0.8569921259842519
11
1.0073071259842519
21
0.8569921259842519
0
LINE
8
BLACK
6
CONTINUOUS
10
1.0073071259842519
20
0.8569921259842519
11
1.0073071259842519
21
0.8491181102362204
0
LINE
8
BLACK
6
CONTINUOUS
10
0.7277796062992126
20
0.860929094488189
11
0.7120315748031496
21
0.860929094488189
0
LINE
8
BLACK
6
CONTINUOUS
10
0.7120315748031496
20
0.860929094488189
11
0.7120315748031496
21
0.8688031102362205
0
LINE
8
BLACK
6
CONTINUOUS
10
0.7120315748031496
20
0.8688031102362205
11
0.7277796062992126
21
0.8688031102362205
0
LINE
8
BLACK
6
CONTINUOUS
10
0.7277796062992126
20
0.8688031102362205
11
0.7277796062992126
21
0.860929094488189
0
LINE
8
BLACK
6
CONTINUOUS
10
0.9718740157480315
20
0.860929094488189
11
0.9561259842519685
21
0.860929094488189
0
LINE
8
BLACK
6
CONTINUOUS
10
0.9561259842519685
20
0.860929094488189
11
0.9561259842519685
21
0.8688031102362205
0
LINE
8
BLACK
6
CONTINUOUS
10
0.9561259842519685
20
0.8688031102362205
11
0.9718740157480315
21
0.8688031102362205
0
LINE
8
BLACK
6
CONTINUOUS
10
0.9718740157480315
20
0.8688031102362205
11
0.9718740157480315
21
0.860929094488189
0
LINE
8
BLACK
6
CONTINUOUS
10
1.1678887401574802
20
0.901045157480315
11
1.1698685039370078
21
0.8997223228346456
0
LINE
8
BLACK
6
CONTINUOUS
10
1.1698685039370078
20
0.8997223228346456
11
1.1817
21
0.8878908267716535
0
LINE
8
BLACK
6
CONTINUOUS
10
1.1817
20
0.8878908267716535
11
1.1830228346456693
21
0.885911062992126
0
LINE
8
BLACK
6
CONTINUOUS
10
1.1830228346456693
20
0.885911062992126
11
1.1834873622047244
21
0.8835757874015748
0
LINE
8
BLACK
6
CONTINUOUS
10
1.1834873622047244
20
0.8835757874015748
11
1.1830228346456693
21
0.8812405511811023
0
LINE
8
BLACK
6
CONTINUOUS
10
1.1830228346456693
20
0.8812405511811023
11
1.1817
21
0.8792607874015748
0
LINE
8
BLACK
6
CONTINUOUS
10
1.1817
20
0.8792607874015748
11
1.1730699606299213
21
0.8706307480314961
0
LINE
8
BLACK
6
CONTINUOUS
10
1.1730699606299213
20
0.8706307480314961
11
1.1710901968503937
21
0.8693079133858268
0
LINE
8
BLACK
6
CONTINUOUS
10
1.1710901968503937
20
0.8693079133858268
11
1.1687549606299212
21
0.8688433858267717
0
LINE
8
BLACK
6
CONTINUOUS
10
1.1687549606299212
20
0.8688433858267717
11
1.16641968503937
21
0.8693079133858268
0
LINE
8
BLACK
6
CONTINUOUS
10
1.16641968503937
20
0.8693079133858268
11
1.1644399212598424
21
0.8706307480314961
0
LINE
8
BLACK
6
CONTINUOUS
10
1.1644399212598424
20
0.8706307480314961
11
1.1526084251968505
21
0.8824622440944881
0
LINE
8
BLACK
6
CONTINUOUS
10
1.1526084251968505
20
0.8824622440944881
11
1.1512855905511812
21
0.8844420078740157
0
LINE
8
BLACK
6
CONTINUOUS
10
1.1512855905511812
20
0.8844420078740157
11
1.1508210629921261
21
0.8867772834645669
0
LINE
8
BLACK
6
CONTINUOUS
10
1.1508210629921261
20
0.8867772834645669
11
1.1512855905511812
21
0.8891125196850393
0
LINE
8
BLACK
6
CONTINUOUS
10
1.1512855905511812
20
0.8891125196850393
11
1.1526084251968505
21
0.8910922834645669
0
LINE
8
BLACK
6
CONTINUOUS
10
1.1526084251968505
20
0.8910922834645669
11
1.1612384645669291
21
0.8997223228346456
0
LINE
8
BLACK
6
CONTINUOUS
10
1.1612384645669291
20
0.8997223228346456
11
1.1632182283464567
21
0.901045157480315
0
LINE
8
BLACK
6
CONTINUOUS
10
1.1632182283464567
20
0.901045157480315
11
1.1655534645669292
21
0.90150968503937
0
LINE
8
BLACK
6
CONTINUOUS
10
1.1655534645669292
20
0.90150968503937
11
1.1678887401574802
21
0.901045157480315
0
LINE
8
BLACK
6
CONTINUOUS
10
1.0073071259842519
20
0.8727401181102362
11
0.9836850787401574
21
0.8727401181102362
0
LINE
8
BLACK
6
CONTINUOUS
10
0.9836850787401574
20
0.8727401181102362
11
0.9836850787401574
21
0.8806141338582677
0
LINE
8
BLACK
6
CONTINUOUS
10
0.9836850787401574
20
0.8806141338582677
11
1.0073071259842519
21
0.8806141338582677
0
LINE
8
BLACK
6
CONTINUOUS
10
1.0073071259842519
20
0.8806141338582677
11
1.0073071259842519
21
0.8727401181102362
0
LINE
8
BLACK
6
CONTINUOUS
10
0.7002205118110236
20
0.8727401968503937
11
0.6765984645669291
21
0.8727401968503937
0
LINE
8
BLACK
6
CONTINUOUS
10
0.6765984645669291
20
0.8727401968503937
11
0.6765984645669291
21
0.8806142125984252
0
LINE
8
BLACK
6
CONTINUOUS
10
0.6765984645669291
20
0.8806142125984252
11
0.7002205118110236
21
0.8806142125984252
0
LINE
8
BLACK
6
CONTINUOUS
10
0.7002205118110236
20
0.8806142125984252
11
0.7002205118110236
21
0.8727401968503937
0
LINE
8
BLACK
6
CONTINUOUS
10
0.7514016141732284
20
0.8845511023622047
11
0.7435275984251968
21
0.8845511023622047
0
LINE
8
BLACK
6
CONTINUOUS
10
0.7435275984251968
20
0.8845511023622047
11
0.7435275984251968
21
0.9002991338582677
0
LINE
8
BLACK
6
CONTINUOUS
10
0.7435275984251968
20
0.9002991338582677
11
0.7514016141732284
21
0.9002991338582677
0
LINE
8
BLACK
6
CONTINUOUS
10
0.7514016141732284
20
0.9002991338582677
11
0.7514016141732284
21
0.8845511023622047
0
LINE
8
BLACK
6
CONTINUOUS
10
0.7750236220472441
20
0.8845511023622047
11
0.7671496062992126
21
0.8845511023622047
0
LINE
8
BLACK
6
CONTINUOUS
10
0.7671496062992126
20
0.8845511023622047
11
0.7671496062992126
21
0.9002991338582677
0
LINE
8
BLACK
6
CONTINUOUS
10
0.7671496062992126
20
0.9002991338582677
11
0.7750236220472441
21
0.9002991338582677
0
LINE
8
BLACK
6
CONTINUOUS
10
0.7750236220472441
20
0.9002991338582677
11
0.7750236220472441
21
0.8845511023622047
0
LINE
8
BLACK
6
CONTINUOUS
10
0.7986457086614173
20
0.8845511023622047
11
0.7907716929133858
21
0.8845511023622047
0
LINE
8
BLACK
6
CONTINUOUS
10
0.7907716929133858
20
0.8845511023622047
11
0.7907716929133858
21
0.9002991338582677
0
LINE
8
BLACK
6
CONTINUOUS
10
0.7907716929133858
20
0.9002991338582677
11
0.7986457086614173
21
0.9002991338582677
0
LINE
8
BLACK
6
CONTINUOUS
10
0.7986457086614173
20
0.9002991338582677
11
0.7986457086614173
21
0.8845511023622047
0
LINE
8
BLACK
6
CONTINUOUS
10
0.8222677165354331
20
0.8845511023622047
11
0.8143937007874016
21
0.8845511023622047
0
LINE
8
BLACK
6
CONTINUOUS
10
0.8143937007874016
20
0.8845511023622047
11
0.8143937007874016
21
0.9002991338582677
0
LINE
8
BLACK
6
CONTINUOUS
10
0.8143937007874016
20
0.9002991338582677
11
0.8222677165354331
21
0.9002991338582677
0
LINE
8
BLACK
6
CONTINUOUS
10
0.8222677165354331
20
0.9002991338582677
11
0.8222677165354331
21
0.8845511023622047
0
LINE
8
BLACK
6
CONTINUOUS
10
0.8458898031496063
20
0.8845511023622047
11
0.8380157874015748
21
0.8845511023622047
0
LINE
8
BLACK
6
CONTINUOUS
10
0.8380157874015748
20
0.8845511023622047
11
0.8380157874015748
21
0.9002991338582677
0
LINE
8
BLACK
6
CONTINUOUS
10
0.8380157874015748
20
0.9002991338582677
11
0.8458898031496063
21
0.9002991338582677
0
LINE
8
BLACK
6
CONTINUOUS
10
0.8458898031496063
20
0.9002991338582677
11
0.8458898031496063
21
0.8845511023622047
0
LINE
8
BLACK
6
CONTINUOUS
10
0.8695118110236221
20
0.8845511023622047
11
0.8616377952755905
21
0.8845511023622047
0
LINE
8
BLACK
6
CONTINUOUS
10
0.8616377952755905
20
0.8845511023622047
11
0.8616377952755905
21
0.9002991338582677
0
LINE
8
BLACK
6
CONTINUOUS
10
0.8616377952755905
20
0.9002991338582677
11
0.8695118110236221
21
0.9002991338582677
0
LINE
8
BLACK
6
CONTINUOUS
10
0.8695118110236221
20
0.9002991338582677
11
0.8695118110236221
21
0.8845511023622047
0
LINE
8
BLACK
6
CONTINUOUS
10
0.8931338976377953
20
0.8845511023622047
11
0.8852598818897638
21
0.8845511023622047
0
LINE
8
BLACK
6
CONTINUOUS
10
0.8852598818897638
20
0.8845511023622047
11
0.8852598818897638
21
0.9002991338582677
0
LINE
8
BLACK
6
CONTINUOUS
10
0.8852598818897638
20
0.9002991338582677
11
0.8931338976377953
21
0.9002991338582677
0
LINE
8
BLACK
6
CONTINUOUS
10
0.8931338976377953
20
0.9002991338582677
11
0.8931338976377953
21
0.8845511023622047
0
LINE
8
BLACK
6
CONTINUOUS
10
0.916755905511811
20
0.8845511023622047
11
0.9088818897637795
21
0.8845511023622047
0
LINE
8
BLACK
6
CONTINUOUS
10
0.9088818897637795
20
0.8845511023622047
11
0.9088818897637795
21
0.9002991338582677
0
LINE
8
BLACK
6
CONTINUOUS
10
0.9088818897637795
20
0.9002991338582677
11
0.916755905511811
21
0.9002991338582677
0
LINE
8
BLACK
6
CONTINUOUS
10
0.916755905511811
20
0.9002991338582677
11
0.916755905511811
21
0.8845511023622047
0
LINE
8
BLACK
6
CONTINUOUS
10
0.9403779921259843
20
0.8845511023622047
11
0.9325039763779527
21
0.8845511023622047
0
LINE
8
BLACK
6
CONTINUOUS
10
0.9325039763779527
20
0.8845511023622047
11
0.9325039763779527
21
0.9002991338582677
0
LINE
8
BLACK
6
CONTINUOUS
10
0.9325039763779527
20
0.9002991338582677
11
0.9403779921259843
21
0.9002991338582677
0
LINE
8
BLACK
6
CONTINUOUS
10
0.9403779921259843
20
0.9002991338582677
11
0.9403779921259843
21
0.8845511023622047
0
LINE
8
BLACK
6
CONTINUOUS
10
0.739590590551181
20
0.9121101968503936
11
0.7317165748031496
21
0.9121101968503936
0
LINE
8
BLACK
6
CONTINUOUS
10
0.7317165748031496
20
0.9121101968503936
11
0.7317165748031496
21
0.9357322440944882
0
LINE
8
BLACK
6
CONTINUOUS
10
0.7317165748031496
20
0.9357322440944882
11
0.739590590551181
21
0.9357322440944882
0
LINE
8
BLACK
6
CONTINUOUS
10
0.739590590551181
20
0.9357322440944882
11
0.739590590551181
21
0.9121101968503936
0
LINE
8
BLACK
6
CONTINUOUS
10
0.7632127165354331
20
0.9121101968503936
11
0.7553387007874015
21
0.9121101968503936
0
LINE
8
BLACK
6
CONTINUOUS
10
0.7553387007874015
20
0.9121101968503936
11
0.7553387007874015
21
0.9357322440944882
0
LINE
8
BLACK
6
CONTINUOUS
10
0.7553387007874015
20
0.9357322440944882
11
0.7632127165354331
21
0.9357322440944882
0
LINE
8
BLACK
6
CONTINUOUS
10
0.7632127165354331
20
0.9357322440944882
11
0.7632127165354331
21
0.9121101968503936
0
LINE
8
BLACK
6
CONTINUOUS
10
0.78683468503937
20
0.9121101968503936
11
0.7789606692913386
21
0.9121101968503936
0
LINE
8
BLACK
6
CONTINUOUS
10
0.7789606692913386
20
0.9121101968503936
11
0.7789606692913386
21
0.9357322440944882
0
LINE
8
BLACK
6
CONTINUOUS
10
0.7789606692913386
20
0.9357322440944882
11
0.78683468503937
21
0.9357322440944882
0
LINE
8
BLACK
6
CONTINUOUS
10
0.78683468503937
20
0.9357322440944882
11
0.78683468503937
21
0.9121101968503936
0
LINE
8
BLACK
6
CONTINUOUS
10
0.810456811023622
20
0.9121101968503936
11
0.8025827952755905
21
0.9121101968503936
0
LINE
8
BLACK
6
CONTINUOUS
10
0.8025827952755905
20
0.9121101968503936
11
0.8025827952755905
21
0.9357322440944882
0
LINE
8
BLACK
6
CONTINUOUS
10
0.8025827952755905
20
0.9357322440944882
11
0.810456811023622
21
0.9357322440944882
0
LINE
8
BLACK
6
CONTINUOUS
10
0.810456811023622
20
0.9357322440944882
11
0.810456811023622
21
0.9121101968503936
0
LINE
8
BLACK
6
CONTINUOUS
10
0.8340788188976378
20
0.9121101968503936
11
0.8262048031496063
21
0.9121101968503936
0
LINE
8
BLACK
6
CONTINUOUS
10
0.8262048031496063
20
0.9121101968503936
11
0.8262048031496063
21
0.9357322440944882
0
LINE
8
BLACK
6
CONTINUOUS
10
0.8262048031496063
20
0.9357322440944882
11
0.8340788188976378
21
0.9357322440944882
0
LINE
8
BLACK
6
CONTINUOUS
10
0.8340788188976378
20
0.9357322440944882
11
0.8340788188976378
21
0.9121101968503936
0
LINE
8
BLACK
6
CONTINUOUS
10
0.857700905511811
20
0.9121101968503936
11
0.8498268897637795
21
0.9121101968503936
0
LINE
8
BLACK
6
CONTINUOUS
10
0.8498268897637795
20
0.9121101968503936
11
0.8498268897637795
21
0.9357322440944882
0
LINE
8
BLACK
6
CONTINUOUS
10
0.8498268897637795
20
0.9357322440944882
11
0.857700905511811
21
0.9357322440944882
0
LINE
8
BLACK
6
CONTINUOUS
10
0.857700905511811
20
0.9357322440944882
11
0.857700905511811
21
0.9121101968503936
0
LINE
8
BLACK
6
CONTINUOUS
10
0.8813229133858268
20
0.9121101968503936
11
0.8734488976377952
21
0.9121101968503936
0
LINE
8
BLACK
6
CONTINUOUS
10
0.8734488976377952
20
0.9121101968503936
11
0.8734488976377952
21
0.9357322440944882
0
LINE
8
BLACK
6
CONTINUOUS
10
0.8734488976377952
20
0.9357322440944882
11
0.8813229133858268
21
0.9357322440944882
0
LINE
8
BLACK
6
CONTINUOUS
10
0.8813229133858268
20
0.9357322440944882
11
0.8813229133858268
21
0.9121101968503936
0
LINE
8
BLACK
6
CONTINUOUS
10
0.904945
20
0.9121101968503936
11
0.8970709842519685
21
0.9121101968503936
0
LINE
8
BLACK
6
CONTINUOUS
10
0.8970709842519685
20
0.9121101968503936
11
0.8970709842519685
21
0.9357322440944882
0
LINE
8
BLACK
6
CONTINUOUS
10
0.8970709842519685
20
0.9357322440944882
11
0.904945
21
0.9357322440944882
0
LINE
8
BLACK
6
CONTINUOUS
10
0.904945
20
0.9357322440944882
11
0.904945
21
0.9121101968503936
0
LINE
8
BLACK
6
CONTINUOUS
10
0.9285670078740157
20
0.9121101968503936
11
0.9206929921259842
21
0.9121101968503936
0
LINE
8
BLACK
6
CONTINUOUS
10
0.9206929921259842
20
0.9121101968503936
11
0.9206929921259842
21
0.9357322440944882
0
LINE
8
BLACK
6
CONTINUOUS
10
0.9206929921259842
20
0.9357322440944882
11
0.9285670078740157
21
0.9357322440944882
0
LINE
8
BLACK
6
CONTINUOUS
10
0.9285670078740157
20
0.9357322440944882
11
0.9285670078740157
21
0.9121101968503936
0
LINE
8
BLACK
6
CONTINUOUS
10
0.952189094488189
20
0.9121101968503936
11
0.9443150787401574
21
0.9121101968503936
0
LINE
8
BLACK
6
CONTINUOUS
10
0.9443150787401574
20
0.9121101968503936
11
0.9443150787401574
21
0.9357322440944882
0
LINE
8
BLACK
6
CONTINUOUS
10
0.9443150787401574
20
0.9357322440944882
11
0.952189094488189
21
0.9357322440944882
0
LINE
8
BLACK
6
CONTINUOUS
10
0.952189094488189
20
0.9357322440944882
11
0.952189094488189
21
0.9121101968503936
0
LINE
8
BLACK
6
CONTINUOUS
10
0.7705675590551181
20
0.992393779527559
11
0.7725473228346457
21
0.9910709842519685
0
LINE
8
BLACK
6
CONTINUOUS
10
0.7725473228346457
20
0.9910709842519685
11
0.7738701181102362
21
0.9890912204724409
0
LINE
8
BLACK
6
CONTINUOUS
10
0.7738701181102362
20
0.9890912204724409
11
0.7743346456692913
21
0.9867559448818898
0
LINE
8
BLACK
6
CONTINUOUS
10
0.7743346456692913
20
0.9867559448818898
11
0.7743346456692913
21
0.9745512204724409
0
LINE
8
BLACK
6
CONTINUOUS
10
0.7743346456692913
20
0.9745512204724409
11
0.7738701181102362
21
0.9722159448818898
0
LINE
8
BLACK
6
CONTINUOUS
10
0.7738701181102362
20
0.9722159448818898
11
0.7725473228346457
21
0.9702361811023622
0
LINE
8
BLACK
6
CONTINUOUS
10
0.7725473228346457
20
0.9702361811023622
11
0.7705675590551181
21
0.9689133858267717
0
LINE
8
BLACK
6
CONTINUOUS
10
0.7705675590551181
20
0.9689133858267717
11
0.768232283464567
21
0.9684488582677165
0
LINE
8
BLACK
6
CONTINUOUS
10
0.768232283464567
20
0.9684488582677165
11
0.7514999999999999
21
0.9684488582677165
0
LINE
8
BLACK
6
CONTINUOUS
10
0.7514999999999999
20
0.9684488582677165
11
0.7491647244094488
21
0.9689133858267717
0
LINE
8
BLACK
6
CONTINUOUS
10
0.7491647244094488
20
0.9689133858267717
11
0.7471849606299212
21
0.9702361811023622
0
LINE
8
BLACK
6
CONTINUOUS
10
0.7471849606299212
20
0.9702361811023622
11
0.7458621653543307
21
0.9722159448818898
0
LINE
8
BLACK
6
CONTINUOUS
10
0.7458621653543307
20
0.9722159448818898
11
0.7453976377952756
21
0.9745512204724409
0
LINE
8
BLACK
6
CONTINUOUS
10
0.7453976377952756
20
0.9745512204724409
11
0.7453976377952756
21
0.9867559448818898
0
LINE
8
BLACK
6
CONTINUOUS
10
0.7453976377952756
20
0.9867559448818898
11
0.7458621653543307
21
0.9890912204724409
0
LINE
8
BLACK
6
CONTINUOUS
10
0.7458621653543307
20
0.9890912204724409
11
0.7471849606299212
21
0.9910709842519685
0
LINE
8
BLACK
6
CONTINUOUS
10
0.7471849606299212
20
0.9910709842519685
11
0.7491647244094488
21
0.992393779527559
0
LINE
8
BLACK
6
CONTINUOUS
10
0.7491647244094488
20
0.992393779527559
11
0.7514999999999999
21
0.9928583070866142
0
LINE
8
BLACK
6
CONTINUOUS
10
0.7514999999999999
20
0.9928583070866142
11
0.768232283464567
21
0.9928583070866142
0
LINE
8
BLACK
6
CONTINUOUS
10
0.768232283464567
20
0.9928583070866142
11
0.7705675590551181
21
0.992393779527559
0
LINE
8
BLACK
6
CONTINUOUS
10
0.8152525984251968
20
0.992393779527559
11
0.8172323622047244
21
0.9910709842519685
0
LINE
8
BLACK
6
CONTINUOUS
10
0.8172323622047244
20
0.9910709842519685
11
0.8185551574803149
21
0.9890912204724409
0
LINE
8
BLACK
6
CONTINUOUS
10
0.8185551574803149
20
0.9890912204724409
11
0.8190196850393701
21
0.9867559448818898
0
LINE
8
BLACK
6
CONTINUOUS
10
0.8190196850393701
20
0.9867559448818898
11
0.8190196850393701
21
0.9745512204724409
0
LINE
8
BLACK
6
CONTINUOUS
10
0.8190196850393701
20
0.9745512204724409
11
0.8185551574803149
21
0.9722159448818898
0
LINE
8
BLACK
6
CONTINUOUS
10
0.8185551574803149
20
0.9722159448818898
11
0.8172323622047244
21
0.9702361811023622
0
LINE
8
BLACK
6
CONTINUOUS
10
0.8172323622047244
20
0.9702361811023622
11
0.8152525984251968
21
0.9689133858267717
0
LINE
8
BLACK
6
CONTINUOUS
10
0.8152525984251968
20
0.9689133858267717
11
0.8129173228346457
21
0.9684488582677165
0
LINE
8
BLACK
6
CONTINUOUS
10
0.8129173228346457
20
0.9684488582677165
11
0.7961850393700787
21
0.9684488582677165
0
LINE
8
BLACK
6
CONTINUOUS
10
0.7961850393700787
20
0.9684488582677165
11
0.7938497637795275
21
0.9689133858267717
0
LINE
8
BLACK
6
CONTINUOUS
10
0.7938497637795275
20
0.9689133858267717
11
0.79187
21
0.9702361811023622
0
LINE
8
BLACK
6
CONTINUOUS
10
0.79187
20
0.9702361811023622
11
0.7905472047244094
21
0.9722159448818898
0
LINE
8
BLACK
6
CONTINUOUS
10
0.7905472047244094
20
0.9722159448818898
11
0.7900826771653543
21
0.9745512204724409
0
LINE
8
BLACK
6
CONTINUOUS
10
0.7900826771653543
20
0.9745512204724409
11
0.7900826771653543
21
0.9867559448818898
0
LINE
8
BLACK
6
CONTINUOUS
10
0.7900826771653543
20
0.9867559448818898
11
0.7905472047244094
21
0.9890912204724409
0
LINE
8
BLACK
6
CONTINUOUS
10
0.7905472047244094
20
0.9890912204724409
11
0.79187
21
0.9910709842519685
0
LINE
8
BLACK
6
CONTINUOUS
10
0.79187
20
0.9910709842519685
11
0.7938497637795275
21
0.992393779527559
0
LINE
8
BLACK
6
CONTINUOUS
10
0.7938497637795275
20
0.992393779527559
11
0.7961850393700787
21
0.9928583070866142
0
LINE
8
BLACK
6
CONTINUOUS
10
0.7961850393700787
20
0.9928583070866142
11
0.8129173228346457
21
0.9928583070866142
0
LINE
8
BLACK
6
CONTINUOUS
10
0.8129173228346457
20
0.9928583070866142
11
0.8152525984251968
21
0.992393779527559
0
LINE
8
BLACK
6
CONTINUOUS
10
0.9139100787401575
20
0.993393779527559
11
0.915889842519685
21
0.9920709842519685
0
LINE
8
BLACK
6
CONTINUOUS
10
0.915889842519685
20
0.9920709842519685
11
0.9172126377952756
21
0.9900912204724409
0
LINE
8
BLACK
6
CONTINUOUS
10
0.9172126377952756
20
0.9900912204724409
11
0.9176771653543306
21
0.9877559448818898
0
LINE
8
BLACK
6
CONTINUOUS
10
0.9176771653543306
20
0.9877559448818898
11
0.9176771653543306
21
0.9755512204724409
0
LINE
8
BLACK
6
CONTINUOUS
10
0.9176771653543306
20
0.9755512204724409
11
0.9172126377952756
21
0.9732159448818898
0
LINE
8
BLACK
6
CONTINUOUS
10
0.9172126377952756
20
0.9732159448818898
11
0.915889842519685
21
0.9712361811023622
0
LINE
8
BLACK
6
CONTINUOUS
10
0.915889842519685
20
0.9712361811023622
11
0.9139100787401575
21
0.9699133858267717
0
LINE
8
BLACK
6
CONTINUOUS
10
0.9139100787401575
20
0.9699133858267717
11
0.9115748031496063
21
0.9694488582677165
0
LINE
8
BLACK
6
CONTINUOUS
10
0.9115748031496063
20
0.9694488582677165
11
0.8948425196850394
21
0.9694488582677165
0
LINE
8
BLACK
6
CONTINUOUS
10
0.8948425196850394
20
0.9694488582677165
11
0.8925072440944881
21
0.9699133858267717
0
LINE
8
BLACK
6
CONTINUOUS
10
0.8925072440944881
20
0.9699133858267717
11
0.8905274803149607
21
0.9712361811023622
0
LINE
8
BLACK
6
CONTINUOUS
10
0.8905274803149607
20
0.9712361811023622
11
0.8892046850393701
21
0.9732159448818898
0
LINE
8
BLACK
6
CONTINUOUS
10
0.8892046850393701
20
0.9732159448818898
11
0.888740157480315
21
0.9755512204724409
0
LINE
8
BLACK
6
CONTINUOUS
10
0.888740157480315
20
0.9755512204724409
11
0.888740157480315
21
0.9877559448818898
0
LINE
8
BLACK
6
CONTINUOUS
10
0.888740157480315
20
0.9877559448818898
11
0.8892046850393701
21
0.9900912204724409
0
LINE
8
BLACK
6
CONTINUOUS
10
0.8892046850393701
20
0.9900912204724409
11
0.8905274803149607
21
0.9920709842519685
0
LINE
8
BLACK
6
CONTINUOUS
10
0.8905274803149607
20
0.9920709842519685
11
0.8925072440944881
21
0.993393779527559
0
LINE
8
BLACK
6
CONTINUOUS
10
0.8925072440944881
20
0.993393779527559
11
0.8948425196850394
21
0.9938583070866142
0
LINE
8
BLACK
6
CONTINUOUS
10
0.8948425196850394
20
0.9938583070866142
11
0.9115748031496063
21
0.9938583070866142
0
LINE
8
BLACK
6
CONTINUOUS
10
0.9115748031496063
20
0.9938583070866142
11
0.9139100787401575
21
0.993393779527559
0
LINE
8
BLACK
6
CONTINUOUS
10
0.9585951181102362
20
0.993393779527559
11
0.9605748818897638
21
0.9920709842519685
0
LINE
8
BLACK
6
CONTINUOUS
10
0.9605748818897638
20
0.9920709842519685
11
0.9618976771653543
21
0.9900912204724409
0
LINE
8
BLACK
6
CONTINUOUS
10
0.9618976771653543
20
0.9900912204724409
11
0.9623622047244095
21
0.9877559448818898
0
LINE
8
BLACK
6
CONTINUOUS
10
0.9623622047244095
20
0.9877559448818898
11
0.9623622047244095
21
0.9755512204724409
0
LINE
8
BLACK
6
CONTINUOUS
10
0.9623622047244095
20
0.9755512204724409
11
0.9618976771653543
21
0.9732159448818898
0
LINE
8
BLACK
6
CONTINUOUS
10
0.9618976771653543
20
0.9732159448818898
11
0.9605748818897638
21
0.9712361811023622
0
LINE
8
BLACK
6
CONTINUOUS
10
0.9605748818897638
20
0.9712361811023622
11
0.9585951181102362
21
0.9699133858267717
0
LINE
8
BLACK
6
CONTINUOUS
10
0.9585951181102362
20
0.9699133858267717
11
0.956259842519685
21
0.9694488582677165
0
LINE
8
BLACK
6
CONTINUOUS
10
0.956259842519685
20
0.9694488582677165
11
0.9395275590551181
21
0.9694488582677165
0
LINE
8
BLACK
6
CONTINUOUS
10
0.9395275590551181
20
0.9694488582677165
11
0.937192283464567
21
0.9699133858267717
0
LINE
8
BLACK
6
CONTINUOUS
10
0.937192283464567
20
0.9699133858267717
11
0.9352125196850394
21
0.9712361811023622
0
LINE
8
BLACK
6
CONTINUOUS
10
0.9352125196850394
20
0.9712361811023622
11
0.9338897244094488
21
0.9732159448818898
0
LINE
8
BLACK
6
CONTINUOUS
10
0.9338897244094488
20
0.9732159448818898
11
0.9334251968503937
21
0.9755512204724409
0
LINE
8
BLACK
6
CONTINUOUS
10
0.9334251968503937
20
0.9755512204724409
11
0.9334251968503937
21
0.9877559448818898
0
LINE
8
BLACK
6
CONTINUOUS
10
0.9334251968503937
20
0.9877559448818898
11
0.9338897244094488
21
0.9900912204724409
0
LINE
8
BLACK
6
CONTINUOUS
10
0.9338897244094488
20
0.9900912204724409
11
0.9352125196850394
21
0.9920709842519685
0
LINE
8
BLACK
6
CONTINUOUS
10
0.9352125196850394
20
0.9920709842519685
11
0.937192283464567
21
0.993393779527559
0
LINE
8
BLACK
6
CONTINUOUS
10
0.937192283464567
20
0.993393779527559
11
0.9395275590551181
21
0.9938583070866142
0
LINE
8
BLACK
6
CONTINUOUS
10
0.9395275590551181
20
0.9938583070866142
11
0.956259842519685
21
0.9938583070866142
0
LINE
8
BLACK
6
CONTINUOUS
10
0.956259842519685
20
0.9938583070866142
11
0.9585951181102362
21
0.993393779527559
0
LINE
8
BLACK
6
CONTINUOUS
10
1.3056642125984252
20
1.0559515748031496
11
1.3088573622047244
21
1.0538179921259843
0
LINE
8
BLACK
6
CONTINUOUS
10
1.3088573622047244
20
1.0538179921259843
11
1.3109909448818897
21
1.0506248425196849
0
LINE
8
BLACK
6
CONTINUOUS
10
1.3109909448818897
20
1.0506248425196849
11
1.3117401574803149
21
1.0468582677165355
0
LINE
8
BLACK
6
CONTINUOUS
10
1.3117401574803149
20
1.0468582677165355
11
1.3117401574803149
21
1.0153622047244095
0
LINE
8
BLACK
6
CONTINUOUS
10
1.3117401574803149
20
1.0153622047244095
11
1.3109909448818897
21
1.0115956299212598
0
LINE
8
BLACK
6
CONTINUOUS
10
1.3109909448818897
20
1.0115956299212598
11
1.3088573622047244
21
1.0084024803149607
0
LINE
8
BLACK
6
CONTINUOUS
10
1.3088573622047244
20
1.0084024803149607
11
1.3056642125984252
21
1.0062688976377951
0
LINE
8
BLACK
6
CONTINUOUS
10
1.3056642125984252
20
1.0062688976377951
11
1.3018976377952756
21
1.0055196850393699
0
LINE
8
BLACK
6
CONTINUOUS
10
1.3018976377952756
20
1.0055196850393699
11
1.2546535433070867
21
1.0055196850393699
0
LINE
8
BLACK
6
CONTINUOUS
10
1.2546535433070867
20
1.0055196850393699
11
1.250886968503937
21
1.0062688976377951
0
LINE
8
BLACK
6
CONTINUOUS
10
1.250886968503937
20
1.0062688976377951
11
1.2476938188976379
21
1.0084024803149607
0
LINE
8
BLACK
6
CONTINUOUS
10
1.2476938188976379
20
1.0084024803149607
11
1.2455602362204725
21
1.0115956299212598
0
LINE
8
BLACK
6
CONTINUOUS
10
1.2455602362204725
20
1.0115956299212598
11
1.2448110236220473
21
1.0153622047244095
0
LINE
8
BLACK
6
CONTINUOUS
10
1.2448110236220473
20
1.0153622047244095
11
1.2448110236220473
21
1.0468582677165355
0
LINE
8
BLACK
6
CONTINUOUS
10
1.2448110236220473
20
1.0468582677165355
11
1.2455602362204725
21
1.0506248425196849
0
LINE
8
BLACK
6
CONTINUOUS
10
1.2455602362204725
20
1.0506248425196849
11
1.2476938188976379
21
1.0538179921259843
0
LINE
8
BLACK
6
CONTINUOUS
10
1.2476938188976379
20
1.0538179921259843
11
1.250886968503937
21
1.0559515748031496
0
LINE
8
BLACK
6
CONTINUOUS
10
1.250886968503937
20
1.0559515748031496
11
1.2546535433070867
21
1.0567007874015748
0
LINE
8
BLACK
6
CONTINUOUS
10
1.2546535433070867
20
1.0567007874015748
11
1.3018976377952756
21
1.0567007874015748
0
LINE
8
BLACK
6
CONTINUOUS
10
1.3018976377952756
20
1.0567007874015748
11
1.3056642125984252
21
1.0559515748031496
0
LINE
8
BLACK
6
CONTINUOUS
10
0.4197842125984252
20
1.3164414566929135
11
0.432697125984252
21
1.3134941732283465
0
LINE
8
BLACK
6
CONTINUOUS
10
0.432697125984252
20
1.3134941732283465
11
0.4451988188976378
21
1.3091196456692913
0
LINE
8
BLACK
6
CONTINUOUS
10
0.4451988188976378
20
1.3091196456692913
11
0.4571321653543307
21
1.3033728346456692
0
LINE
8
BLACK
6
CONTINUOUS
10
0.4571321653543307
20
1.3033728346456692
11
0.4683470078740157
21
1.2963261023622048
0
LINE
8
BLACK
6
CONTINUOUS
10
0.4683470078740157
20
1.2963261023622048
11
0.4787023622047244
21
1.2880679527559056
0
LINE
8
BLACK
6
CONTINUOUS
10
0.4787023622047244
20
1.2880679527559056
11
0.4880679527559055
21
1.2787023622047244
0
LINE
8
BLACK
6
CONTINUOUS
10
0.4880679527559055
20
1.2787023622047244
11
0.4963261023622047
21
1.2683470078740158
0
LINE
8
BLACK
6
CONTINUOUS
10
0.4963261023622047
20
1.2683470078740158
11
0.5033728346456693
21
1.2571321653543306
0
LINE
8
BLACK
6
CONTINUOUS
10
0.5033728346456693
20
1.2571321653543306
11
0.5091196456692914
21
1.2451988188976377
0
LINE
8
BLACK
6
CONTINUOUS
10
0.5091196456692914
20
1.2451988188976377
11
0.5134941732283465
21
1.2326971259842519
0
LINE
8
BLACK
6
CONTINUOUS
10
0.5134941732283465
20
1.2326971259842519
11
0.5164414566929134
21
1.2197842125984251
0
LINE
8
BLACK
6
CONTINUOUS
10
0.5164414566929134
20
1.2197842125984251
11
0.5179244094488189
21
1.2066224803149606
0
LINE
8
BLACK
6
CONTINUOUS
10
0.5179244094488189
20
1.2066224803149606
11
0.5179244094488189
21
1.1933775196850394
0
LINE
8
BLACK
6
CONTINUOUS
10
0.5179244094488189
20
1.1933775196850394
11
0.5164414566929134
21
1.1802157874015748
0
LINE
8
BLACK
6
CONTINUOUS
10
0.5164414566929134
20
1.1802157874015748
11
0.5134941732283465
21
1.1673028740157481
0
LINE
8
BLACK
6
CONTINUOUS
10
0.5134941732283465
20
1.1673028740157481
11
0.5091196456692914
21
1.1548011811023622
0
LINE
8
BLACK
6
CONTINUOUS
10
0.5091196456692914
20
1.1548011811023622
11
0.5033728346456693
21
1.1428678346456693
0
LINE
8
BLACK
6
CONTINUOUS
10
0.5033728346456693
20
1.1428678346456693
11
0.4963261023622047
21
1.1316529921259841
0
LINE
8
BLACK
6
CONTINUOUS
10
0.4963261023622047
20
1.1316529921259841
11
0.4880679527559055
21
1.1212976377952755
0
LINE
8
BLACK
6
CONTINUOUS
10
0.4880679527559055
20
1.1212976377952755
11
0.4787023622047244
21
1.1119320472440946
0
LINE
8
BLACK
6
CONTINUOUS
10
0.4787023622047244
20
1.1119320472440946
11
0.4683470078740157
21
1.1036738976377953
0
LINE
8
BLACK
6
CONTINUOUS
10
0.4683470078740157
20
1.1036738976377953
11
0.4571321653543307
21
1.0966271653543307
0
LINE
8
BLACK
6
CONTINUOUS
10
0.4571321653543307
20
1.0966271653543307
11
0.4451988188976378
21
1.0908803543307086
0
LINE
8
BLACK
6
CONTINUOUS
10
0.4451988188976378
20
1.0908803543307086
11
0.432697125984252
21
1.0865058267716534
0
LINE
8
BLACK
6
CONTINUOUS
10
0.432697125984252
20
1.0865058267716534
11
0.4197842125984252
21
1.0835585433070867
0
LINE
8
BLACK
6
CONTINUOUS
10
0.4197842125984252
20
1.0835585433070867
11
0.4066224803149606
21
1.0820755905511812
0
LINE
8
BLACK
6
CONTINUOUS
10
0.4066224803149606
20
1.0820755905511812
11
0.3933775196850394
21
1.0820755905511812
0
LINE
8
BLACK
6
CONTINUOUS
10
0.3933775196850394
20
1.0820755905511812
11
0.3802157874015748
21
1.0835585433070867
0
LINE
8
BLACK
6
CONTINUOUS
10
0.3802157874015748
20
1.0835585433070867
11
0.367302874015748
21
1.0865058267716534
0
LINE
8
BLACK
6
CONTINUOUS
10
0.367302874015748
20
1.0865058267716534
11
0.3548011811023622
21
1.0908803543307086
0
LINE
8
BLACK
6
CONTINUOUS
10
0.3548011811023622
20
1.0908803543307086
11
0.3428678346456693
21
1.0966271653543307
0
LINE
8
BLACK
6
CONTINUOUS
10
0.3428678346456693
20
1.0966271653543307
11
0.3316529921259843
21
1.1036738976377953
0
LINE
8
BLACK
6
CONTINUOUS
10
0.3316529921259843
20
1.1036738976377953
11
0.3212976377952756
21
1.1119320472440946
0
LINE
8
BLACK
6
CONTINUOUS
10
0.3212976377952756
20
1.1119320472440946
11
0.3119320472440945
21
1.1212976377952755
0
LINE
8
BLACK
6
CONTINUOUS
10
0.3119320472440945
20
1.1212976377952755
11
0.3036738976377953
21
1.1316529921259841
0
LINE
8
BLACK
6
CONTINUOUS
10
0.3036738976377953
20
1.1316529921259841
11
0.2966271653543307
21
1.1428678346456693
0
LINE
8
BLACK
6
CONTINUOUS
10
0.2966271653543307
20
1.1428678346456693
11
0.2908803543307086
21
1.1548011811023622
0
LINE
8
BLACK
6
CONTINUOUS
10
0.2908803543307086
20
1.1548011811023622
11
0.2865058267716535
21
1.1673028740157481
0
LINE
8
BLACK
6
CONTINUOUS
10
0.2865058267716535
20
1.1673028740157481
11
0.2835585433070866
21
1.1802157874015748
0
LINE
8
BLACK
6
CONTINUOUS
10
0.2835585433070866
20
1.1802157874015748
11
0.2820755905511811
21
1.1933775196850394
0
LINE
8
BLACK
6
CONTINUOUS
10
0.2820755905511811
20
1.1933775196850394
11
0.2820755905511811
21
1.2066224803149606
0
LINE
8
BLACK
6
CONTINUOUS
10
0.2820755905511811
20
1.2066224803149606
11
0.2835585433070866
21
1.2197842125984251
0
LINE
8
BLACK
6
CONTINUOUS
10
0.2835585433070866
20
1.2197842125984251
11
0.2865058267716535
21
1.2326971259842519
0
LINE
8
BLACK
6
CONTINUOUS
10
0.2865058267716535
20
1.2326971259842519
11
0.2908803543307086
21
1.2451988188976377
0
LINE
8
BLACK
6
CONTINUOUS
10
0.2908803543307086
20
1.2451988188976377
11
0.2966271653543307
21
1.2571321653543306
0
LINE
8
BLACK
6
CONTINUOUS
10
0.2966271653543307
20
1.2571321653543306
11
0.3036738976377953
21
1.2683470078740158
0
LINE
8
BLACK
6
CONTINUOUS
10
0.3036738976377953
20
1.2683470078740158
11
0.3119320472440945
21
1.2787023622047244
0
LINE
8
BLACK
6
CONTINUOUS
10
0.3119320472440945
20
1.2787023622047244
11
0.3212976377952756
21
1.2880679527559056
0
LINE
8
BLACK
6
CONTINUOUS
10
0.3212976377952756
20
1.2880679527559056
11
0.3316529921259843
21
1.2963261023622048
0
LINE
8
BLACK
6
CONTINUOUS
10
0.3316529921259843
20
1.2963261023622048
11
0.3428678346456693
21
1.3033728346456692
0
LINE
8
BLACK
6
CONTINUOUS
10
0.3428678346456693
20
1.3033728346456692
11
0.3548011811023622
21
1.3091196456692913
0
LINE
8
BLACK
6
CONTINUOUS
10
0.3548011811023622
20
1.3091196456692913
11
0.367302874015748
21
1.3134941732283465
0
LINE
8
BLACK
6
CONTINUOUS
10
0.367302874015748
20
1.3134941732283465
11
0.3802157874015748
21
1.3164414566929135
0
LINE
8
BLACK
6
CONTINUOUS
10
0.3802157874015748
20
1.3164414566929135
11
0.3933775196850394
21
1.3179244094488189
0
LINE
8
BLACK
6
CONTINUOUS
10
0.3933775196850394
20
1.3179244094488189
11
0.4066224803149606
21
1.3179244094488189
0
LINE
8
BLACK
6
CONTINUOUS
10
0.4066224803149606
20
1.3179244094488189
11
0.4197842125984252
21
1.3164414566929135
0
LINE
8
BLACK
6
CONTINUOUS
10
1.6197842125984252
20
1.3164414566929135
11
1.632697125984252
21
1.3134941732283465
0
LINE
8
BLACK
6
CONTINUOUS
10
1.632697125984252
20
1.3134941732283465
11
1.6451988188976379
21
1.3091196456692913
0
LINE
8
BLACK
6
CONTINUOUS
10
1.6451988188976379
20
1.3091196456692913
11
1.6571321653543307
21
1.3033728346456692
0
LINE
8
BLACK
6
CONTINUOUS
10
1.6571321653543307
20
1.3033728346456692
11
1.6683470078740157
21
1.2963261023622048
0
LINE
8
BLACK
6
CONTINUOUS
10
1.6683470078740157
20
1.2963261023622048
11
1.6787023622047244
21
1.2880679527559056
0
LINE
8
BLACK
6
CONTINUOUS
10
1.6787023622047244
20
1.2880679527559056
11
1.6880679527559055
21
1.2787023622047244
0
LINE
8
BLACK
6
CONTINUOUS
10
1.6880679527559055
20
1.2787023622047244
11
1.6963261023622047
21
1.2683470078740158
0
LINE
8
BLACK
6
CONTINUOUS
10
1.6963261023622047
20
1.2683470078740158
11
1.7033728346456694
21
1.2571321653543306
0
LINE
8
BLACK
6
CONTINUOUS
10
1.7033728346456694
20
1.2571321653543306
11
1.7091196456692912
21
1.2451988188976377
0
LINE
8
BLACK
6
CONTINUOUS
10
1.7091196456692912
20
1.2451988188976377
11
1.7134941732283464
21
1.2326971259842519
0
LINE
8
BLACK
6
CONTINUOUS
10
1.7134941732283464
20
1.2326971259842519
11
1.7164414566929134
21
1.2197842125984251
0
LINE
8
BLACK
6
CONTINUOUS
10
1.7164414566929134
20
1.2197842125984251
11
1.7179244094488189
21
1.2066224803149606
0
LINE
8
BLACK
6
CONTINUOUS
10
1.7179244094488189
20
1.2066224803149606
11
1.7179244094488189
21
1.1933775196850394
0
LINE
8
BLACK
6
CONTINUOUS
10
1.7179244094488189
20
1.1933775196850394
11
1.7164414566929134
21
1.1802157874015748
0
LINE
8
BLACK
6
CONTINUOUS
10
1.7164414566929134
20
1.1802157874015748
11
1.7134941732283464
21
1.1673028740157481
0
LINE
8
BLACK
6
CONTINUOUS
10
1.7134941732283464
20
1.1673028740157481
11
1.7091196456692912
21
1.1548011811023622
0
LINE
8
BLACK
6
CONTINUOUS
10
1.7091196456692912
20
1.1548011811023622
11
1.7033728346456694
21
1.1428678346456693
0
LINE
8
BLACK
6
CONTINUOUS
10
1.7033728346456694
20
1.1428678346456693
11
1.6963261023622047
21
1.1316529921259841
0
LINE
8
BLACK
6
CONTINUOUS
10
1.6963261023622047
20
1.1316529921259841
11
1.6880679527559055
21
1.1212976377952755
0
LINE
8
BLACK
6
CONTINUOUS
10
1.6880679527559055
20
1.1212976377952755
11
1.6787023622047244
21
1.1119320472440946
0
LINE
8
BLACK
6
CONTINUOUS
10
1.6787023622047244
20
1.1119320472440946
11
1.6683470078740157
21
1.1036738976377953
0
LINE
8
BLACK
6
CONTINUOUS
10
1.6683470078740157
20
1.1036738976377953
11
1.6571321653543307
21
1.0966271653543307
0
LINE
8
BLACK
6
CONTINUOUS
10
1.6571321653543307
20
1.0966271653543307
11
1.6451988188976379
21
1.0908803543307086
0
LINE
8
BLACK
6
CONTINUOUS
10
1.6451988188976379
20
1.0908803543307086
11
1.632697125984252
21
1.0865058267716534
0
LINE
8
BLACK
6
CONTINUOUS
10
1.632697125984252
20
1.0865058267716534
11
1.6197842125984252
21
1.0835585433070867
0
LINE
8
BLACK
6
CONTINUOUS
10
1.6197842125984252
20
1.0835585433070867
11
1.6066224803149607
21
1.0820755905511812
0
LINE
8
BLACK
6
CONTINUOUS
10
1.6066224803149607
20
1.0820755905511812
11
1.5933775196850393
21
1.0820755905511812
0
LINE
8
BLACK
6
CONTINUOUS
10
1.5933775196850393
20
1.0820755905511812
11
1.5802157874015748
21
1.0835585433070867
0
LINE
8
BLACK
6
CONTINUOUS
10
1.5802157874015748
20
1.0835585433070867
11
1.567302874015748
21
1.0865058267716534
0
LINE
8
BLACK
6
CONTINUOUS
10
1.567302874015748
20
1.0865058267716534
11
1.5548011811023621
21
1.0908803543307086
0
LINE
8
BLACK
6
CONTINUOUS
10
1.5548011811023621
20
1.0908803543307086
11
1.5428678346456692
21
1.0966271653543307
0
LINE
8
BLACK
6
CONTINUOUS
10
1.5428678346456692
20
1.0966271653543307
11
1.5316529921259843
21
1.1036738976377953
0
LINE
8
BLACK
6
CONTINUOUS
10
1.5316529921259843
20
1.1036738976377953
11
1.5212976377952756
21
1.1119320472440946
0
LINE
8
BLACK
6
CONTINUOUS
10
1.5212976377952756
20
1.1119320472440946
11
1.5119320472440945
21
1.1212976377952755
0
LINE
8
BLACK
6
CONTINUOUS
10
1.5119320472440945
20
1.1212976377952755
11
1.5036738976377952
21
1.1316529921259841
0
LINE
8
BLACK
6
CONTINUOUS
10
1.5036738976377952
20
1.1316529921259841
11
1.4966271653543306
21
1.1428678346456693
0
LINE
8
BLACK
6
CONTINUOUS
10
1.4966271653543306
20
1.1428678346456693
11
1.4908803543307085
21
1.1548011811023622
0
LINE
8
BLACK
6
CONTINUOUS
10
1.4908803543307085
20
1.1548011811023622
11
1.4865058267716535
21
1.1673028740157481
0
LINE
8
BLACK
6
CONTINUOUS
10
1.4865058267716535
20
1.1673028740157481
11
1.4835585433070866
21
1.1802157874015748
0
LINE
8
BLACK
6
CONTINUOUS
10
1.4835585433070866
20
1.1802157874015748
11
1.4820755905511811
21
1.1933775196850394
0
LINE
8
BLACK
6
CONTINUOUS
10
1.4820755905511811
20
1.1933775196850394
11
1.4820755905511811
21
1.2066224803149606
0
LINE
8
BLACK
6
CONTINUOUS
10
1.4820755905511811
20
1.2066224803149606
11
1.4835585433070866
21
1.2197842125984251
0
LINE
8
BLACK
6
CONTINUOUS
10
1.4835585433070866
20
1.2197842125984251
11
1.4865058267716535
21
1.2326971259842519
0
LINE
8
BLACK
6
CONTINUOUS
10
1.4865058267716535
20
1.2326971259842519
11
1.4908803543307085
21
1.2451988188976377
0
LINE
8
BLACK
6
CONTINUOUS
10
1.4908803543307085
20
1.2451988188976377
11
1.4966271653543306
21
1.2571321653543306
0
LINE
8
BLACK
6
CONTINUOUS
10
1.4966271653543306
20
1.2571321653543306
11
1.5036738976377952
21
1.2683470078740158
0
LINE
8
BLACK
6
CONTINUOUS
10
1.5036738976377952
20
1.2683470078740158
11
1.5119320472440945
21
1.2787023622047244
0
LINE
8
BLACK
6
CONTINUOUS
10
1.5119320472440945
20
1.2787023622047244
11
1.5212976377952756
21
1.2880679527559056
0
LINE
8
BLACK
6
CONTINUOUS
10
1.5212976377952756
20
1.2880679527559056
11
1.5316529921259843
21
1.2963261023622048
0
LINE
8
BLACK
6
CONTINUOUS
10
1.5316529921259843
20
1.2963261023622048
11
1.5428678346456692
21
1.3033728346456692
0
LINE
8
BLACK
6
CONTINUOUS
10
1.5428678346456692
20
1.3033728346456692
11
1.5548011811023621
21
1.3091196456692913
0
LINE
8
BLACK
6
CONTINUOUS
10
1.5548011811023621
20
1.3091196456692913
11
1.567302874015748
21
1.3134941732283465
0
LINE
8
BLACK
6
CONTINUOUS
10
1.567302874015748
20
1.3134941732283465
11
1.5802157874015748
21
1.3164414566929135
0
LINE
8
BLACK
6
CONTINUOUS
10
1.5802157874015748
20
1.3164414566929135
11
1.5933775196850393
21
1.3179244094488189
0
LINE
8
BLACK
6
CONTINUOUS
10
1.5933775196850393
20
1.3179244094488189
11
1.6066224803149607
21
1.3179244094488189
0
LINE
8
BLACK
6
CONTINUOUS
10
1.6066224803149607
20
1.3179244094488189
11
1.6197842125984252
21
1.3164414566929135
0
LINE
8
BLACK
6
CONTINUOUS
10
1.3056642125984252
20
1.1937468503937008
11
1.3088573622047244
21
1.1916132677165354
0
LINE
8
BLACK
6
CONTINUOUS
10
1.3088573622047244
20
1.1916132677165354
11
1.3109909448818897
21
1.1884201181102363
0
LINE
8
BLACK
6
CONTINUOUS
10
1.3109909448818897
20
1.1884201181102363
11
1.3117401574803149
21
1.1846535433070866
0
LINE
8
BLACK
6
CONTINUOUS
10
1.3117401574803149
20
1.1846535433070866
11
1.3117401574803149
21
1.1531574803149607
0
LINE
8
BLACK
6
CONTINUOUS
10
1.3117401574803149
20
1.1531574803149607
11
1.3109909448818897
21
1.149390905511811
0
LINE
8
BLACK
6
CONTINUOUS
10
1.3109909448818897
20
1.149390905511811
11
1.3088573622047244
21
1.1461977559055119
0
LINE
8
BLACK
6
CONTINUOUS
10
1.3088573622047244
20
1.1461977559055119
11
1.3056642125984252
21
1.1440641732283465
0
LINE
8
BLACK
6
CONTINUOUS
10
1.3056642125984252
20
1.1440641732283465
11
1.3018976377952756
21
1.1433149606299213
0
LINE
8
BLACK
6
CONTINUOUS
10
1.3018976377952756
20
1.1433149606299213
11
1.2546535433070867
21
1.1433149606299213
0
LINE
8
BLACK
6
CONTINUOUS
10
1.2546535433070867
20
1.1433149606299213
11
1.250886968503937
21
1.1440641732283465
0
LINE
8
BLACK
6
CONTINUOUS
10
1.250886968503937
20
1.1440641732283465
11
1.2476938188976379
21
1.1461977559055119
0
LINE
8
BLACK
6
CONTINUOUS
10
1.2476938188976379
20
1.1461977559055119
11
1.2455602362204725
21
1.149390905511811
0
LINE
8
BLACK
6
CONTINUOUS
10
1.2455602362204725
20
1.149390905511811
11
1.2448110236220473
21
1.1531574803149607
0
LINE
8
BLACK
6
CONTINUOUS
10
1.2448110236220473
20
1.1531574803149607
11
1.2448110236220473
21
1.1846535433070866
0
LINE
8
BLACK
6
CONTINUOUS
10
1.2448110236220473
20
1.1846535433070866
11
1.2455602362204725
21
1.1884201181102363
0
LINE
8
BLACK
6
CONTINUOUS
10
1.2455602362204725
20
1.1884201181102363
11
1.2476938188976379
21
1.1916132677165354
0
LINE
8
BLACK
6
CONTINUOUS
10
1.2476938188976379
20
1.1916132677165354
11
1.250886968503937
21
1.1937468503937008
0
LINE
8
BLACK
6
CONTINUOUS
10
1.250886968503937
20
1.1937468503937008
11
1.2546535433070867
21
1.194496062992126
0
LINE
8
BLACK
6
CONTINUOUS
10
1.2546535433070867
20
1.194496062992126
11
1.3018976377952756
21
1.194496062992126
0
LINE
8
BLACK
6
CONTINUOUS
10
1.3018976377952756
20
1.194496062992126
11
1.3056642125984252
21
1.1937468503937008
0
LINE
8
BLACK
6
CONTINUOUS
10
0.7119634251968504
20
1.1821327165354329
11
0.7151565748031495
21
1.1799991338582676
0
LINE
8
BLACK
6
CONTINUOUS
10
0.7151565748031495
20
1.1799991338582676
11
0.717290157480315
21
1.1768059842519685
0
LINE
8
BLACK
6
CONTINUOUS
10
0.717290157480315
20
1.1768059842519685
11
0.7180393700787402
21
1.1730394094488188
0
LINE
8
BLACK
6
CONTINUOUS
10
0.7180393700787402
20
1.1730394094488188
11
0.7180393700787402
21
1.1533543700787401
0
LINE
8
BLACK
6
CONTINUOUS
10
0.7180393700787402
20
1.1533543700787401
11
0.717290157480315
21
1.1495877952755906
0
LINE
8
BLACK
6
CONTINUOUS
10
0.717290157480315
20
1.1495877952755906
11
0.7151565748031495
21
1.1463946456692913
0
LINE
8
BLACK
6
CONTINUOUS
10
0.7151565748031495
20
1.1463946456692913
11
0.7119634251968504
21
1.1442610629921259
0
LINE
8
BLACK
6
CONTINUOUS
10
0.7119634251968504
20
1.1442610629921259
11
0.7081968503937007
21
1.1435118503937007
0
LINE
8
BLACK
6
CONTINUOUS
10
0.7081968503937007
20
1.1435118503937007
11
0.6707952755905512
21
1.1435118503937007
0
LINE
8
BLACK
6
CONTINUOUS
10
0.6707952755905512
20
1.1435118503937007
11
0.6670287007874015
21
1.1442610629921259
0
LINE
8
BLACK
6
CONTINUOUS
10
0.6670287007874015
20
1.1442610629921259
11
0.6638355511811024
21
1.1463946456692913
0
LINE
8
BLACK
6
CONTINUOUS
10
0.6638355511811024
20
1.1463946456692913
11
0.661701968503937
21
1.1495877952755906
0
LINE
8
BLACK
6
CONTINUOUS
10
0.661701968503937
20
1.1495877952755906
11
0.6609527559055118
21
1.1533543700787401
0
LINE
8
BLACK
6
CONTINUOUS
10
0.6609527559055118
20
1.1533543700787401
11
0.6609527559055118
21
1.1730394094488188
0
LINE
8
BLACK
6
CONTINUOUS
10
0.6609527559055118
20
1.1730394094488188
11
0.661701968503937
21
1.1768059842519685
0
LINE
8
BLACK
6
CONTINUOUS
10
0.661701968503937
20
1.1768059842519685
11
0.6638355511811024
21
1.1799991338582676
0
LINE
8
BLACK
6
CONTINUOUS
10
0.6638355511811024
20
1.1799991338582676
11
0.6670287007874015
21
1.1821327165354329
0
LINE
8
BLACK
6
CONTINUOUS
10
0.6670287007874015
20
1.1821327165354329
11
0.6707952755905512
21
1.1828819291338581
0
LINE
8
BLACK
6
CONTINUOUS
10
0.6707952755905512
20
1.1828819291338581
11
0.7081968503937007
21
1.1828819291338581
0
LINE
8
BLACK
6
CONTINUOUS
10
0.7081968503937007
20
1.1828819291338581
11
0.7119634251968504
21
1.1821327165354329
0
LINE
8
BLACK
6
CONTINUOUS
10
0.8304673622047244
20
1.1821327559055117
11
0.8336605118110236
21
1.1799991732283464
0
LINE
8
BLACK
6
CONTINUOUS
10
0.8336605118110236
20
1.1799991732283464
11
0.835794094488189
21
1.1768060236220472
0
LINE
8
BLACK
6
CONTINUOUS
10
0.835794094488189
20
1.1768060236220472
11
0.8365433070866142
21
1.1730394488188975
0
LINE
8
BLACK
6
CONTINUOUS
10
0.8365433070866142
20
1.1730394488188975
11
0.8365433070866142
21
1.1533544094488188
0
LINE
8
BLACK
6
CONTINUOUS
10
0.8365433070866142
20
1.1533544094488188
11
0.835794094488189
21
1.1495878346456692
0
LINE
8
BLACK
6
CONTINUOUS
10
0.835794094488189
20
1.1495878346456692
11
0.8336605118110236
21
1.14639468503937
0
LINE
8
BLACK
6
CONTINUOUS
10
0.8336605118110236
20
1.14639468503937
11
0.8304673622047244
21
1.1442611023622047
0
LINE
8
BLACK
6
CONTINUOUS
10
0.8304673622047244
20
1.1442611023622047
11
0.8267007874015748
21
1.1435118897637795
0
LINE
8
BLACK
6
CONTINUOUS
10
0.8267007874015748
20
1.1435118897637795
11
0.7892992125984252
21
1.1435118897637795
0
LINE
8
BLACK
6
CONTINUOUS
10
0.7892992125984252
20
1.1435118897637795
11
0.7855326377952756
21
1.1442611023622047
0
LINE
8
BLACK
6
CONTINUOUS
10
0.7855326377952756
20
1.1442611023622047
11
0.7823394881889764
21
1.14639468503937
0
LINE
8
BLACK
6
CONTINUOUS
10
0.7823394881889764
20
1.14639468503937
11
0.780205905511811
21
1.1495878346456692
0
LINE
8
BLACK
6
CONTINUOUS
10
0.780205905511811
20
1.1495878346456692
11
0.7794566929133858
21
1.1533544094488188
0
LINE
8
BLACK
6
CONTINUOUS
10
0.7794566929133858
20
1.1533544094488188
11
0.7794566929133858
21
1.1730394488188975
0
LINE
8
BLACK
6
CONTINUOUS
10
0.7794566929133858
20
1.1730394488188975
11
0.780205905511811
21
1.1768060236220472
0
LINE
8
BLACK
6
CONTINUOUS
10
0.780205905511811
20
1.1768060236220472
11
0.7823394881889764
21
1.1799991732283464
0
LINE
8
BLACK
6
CONTINUOUS
10
0.7823394881889764
20
1.1799991732283464
11
0.7855326377952756
21
1.1821327559055117
0
LINE
8
BLACK
6
CONTINUOUS
10
0.7855326377952756
20
1.1821327559055117
11
0.7892992125984252
21
1.1828819685039369
0
LINE
8
BLACK
6
CONTINUOUS
10
0.7892992125984252
20
1.1828819685039369
11
0.8267007874015748
21
1.1828819685039369
0
LINE
8
BLACK
6
CONTINUOUS
10
0.8267007874015748
20
1.1828819685039369
11
0.8304673622047244
21
1.1821327559055117
0
LINE
8
BLACK
6
CONTINUOUS
10
0.7119634251968504
20
1.2569357874015747
11
0.7151565748031495
21
1.2548022047244094
0
LINE
8
BLACK
6
CONTINUOUS
10
0.7151565748031495
20
1.2548022047244094
11
0.717290157480315
21
1.2516090551181103
0
LINE
8
BLACK
6
CONTINUOUS
10
0.717290157480315
20
1.2516090551181103
11
0.7180393700787402
21
1.2478424803149606
0
LINE
8
BLACK
6
CONTINUOUS
10
0.7180393700787402
20
1.2478424803149606
11
0.7180393700787402
21
1.2281574409448819
0
LINE
8
BLACK
6
CONTINUOUS
10
0.7180393700787402
20
1.2281574409448819
11
0.717290157480315
21
1.2243908661417322
0
LINE
8
BLACK
6
CONTINUOUS
10
0.717290157480315
20
1.2243908661417322
11
0.7151565748031495
21
1.2211977165354331
0
LINE
8
BLACK
6
CONTINUOUS
10
0.7151565748031495
20
1.2211977165354331
11
0.7119634251968504
21
1.2190641338582677
0
LINE
8
BLACK
6
CONTINUOUS
10
0.7119634251968504
20
1.2190641338582677
11
0.7081968503937007
21
1.2183149212598425
0
LINE
8
BLACK
6
CONTINUOUS
10
0.7081968503937007
20
1.2183149212598425
11
0.6707952755905512
21
1.2183149212598425
0
LINE
8
BLACK
6
CONTINUOUS
10
0.6707952755905512
20
1.2183149212598425
11
0.6670287007874015
21
1.2190641338582677
0
LINE
8
BLACK
6
CONTINUOUS
10
0.6670287007874015
20
1.2190641338582677
11
0.6638355511811024
21
1.2211977165354331
0
LINE
8
BLACK
6
CONTINUOUS
10
0.6638355511811024
20
1.2211977165354331
11
0.661701968503937
21
1.2243908661417322
0
LINE
8
BLACK
6
CONTINUOUS
10
0.661701968503937
20
1.2243908661417322
11
0.6609527559055118
21
1.2281574409448819
0
LINE
8
BLACK
6
CONTINUOUS
10
0.6609527559055118
20
1.2281574409448819
11
0.6609527559055118
21
1.2478424803149606
0
LINE
8
BLACK
6
CONTINUOUS
10
0.6609527559055118
20
1.2478424803149606
11
0.661701968503937
21
1.2516090551181103
0
LINE
8
BLACK
6
CONTINUOUS
10
0.661701968503937
20
1.2516090551181103
11
0.6638355511811024
21
1.2548022047244094
0
LINE
8
BLACK
6
CONTINUOUS
10
0.6638355511811024
20
1.2548022047244094
11
0.6670287007874015
21
1.2569357874015747
0
LINE
8
BLACK
6
CONTINUOUS
10
0.6670287007874015
20
1.2569357874015747
11
0.6707952755905512
21
1.2576849999999999
0
LINE
8
BLACK
6
CONTINUOUS
10
0.6707952755905512
20
1.2576849999999999
11
0.7081968503937007
21
1.2576849999999999
0
LINE
8
BLACK
6
CONTINUOUS
10
0.7081968503937007
20
1.2576849999999999
11
0.7119634251968504
21
1.2569357874015747
0
LINE
8
BLACK
6
CONTINUOUS
10
0.8304673622047244
20
1.2569358267716535
11
0.8336605118110236
21
1.2548022440944882
0
LINE
8
BLACK
6
CONTINUOUS
10
0.8336605118110236
20
1.2548022440944882
11
0.835794094488189
21
1.251609094488189
0
LINE
8
BLACK
6
CONTINUOUS
10
0.835794094488189
20
1.251609094488189
11
0.8365433070866142
21
1.2478425196850393
0
LINE
8
BLACK
6
CONTINUOUS
10
0.8365433070866142
20
1.2478425196850393
11
0.8365433070866142
21
1.2281574803149606
0
LINE
8
BLACK
6
CONTINUOUS
10
0.8365433070866142
20
1.2281574803149606
11
0.835794094488189
21
1.224390905511811
0
LINE
8
BLACK
6
CONTINUOUS
10
0.835794094488189
20
1.224390905511811
11
0.8336605118110236
21
1.2211977559055118
0
LINE
8
BLACK
6
CONTINUOUS
10
0.8336605118110236
20
1.2211977559055118
11
0.8304673622047244
21
1.2190641732283465
0
LINE
8
BLACK
6
CONTINUOUS
10
0.8304673622047244
20
1.2190641732283465
11
0.8267007874015748
21
1.2183149606299213
0
LINE
8
BLACK
6
CONTINUOUS
10
0.8267007874015748
20
1.2183149606299213
11
0.7892992125984252
21
1.2183149606299213
0
LINE
8
BLACK
6
CONTINUOUS
10
0.7892992125984252
20
1.2183149606299213
11
0.7855326377952756
21
1.2190641732283465
0
LINE
8
BLACK
6
CONTINUOUS
10
0.7855326377952756
20
1.2190641732283465
11
0.7823394881889764
21
1.2211977559055118
0
LINE
8
BLACK
6
CONTINUOUS
10
0.7823394881889764
20
1.2211977559055118
11
0.780205905511811
21
1.224390905511811
0
LINE
8
BLACK
6
CONTINUOUS
10
0.780205905511811
20
1.224390905511811
11
0.7794566929133858
21
1.2281574803149606
0
LINE
8
BLACK
6
CONTINUOUS
10
0.7794566929133858
20
1.2281574803149606
11
0.7794566929133858
21
1.2478425196850393
0
LINE
8
BLACK
6
CONTINUOUS
10
0.7794566929133858
20
1.2478425196850393
11
0.780205905511811
21
1.251609094488189
0
LINE
8
BLACK
6
CONTINUOUS
10
0.780205905511811
20
1.251609094488189
11
0.7823394881889764
21
1.2548022440944882
0
LINE
8
BLACK
6
CONTINUOUS
10
0.7823394881889764
20
1.2548022440944882
11
0.7855326377952756
21
1.2569358267716535
0
LINE
8
BLACK
6
CONTINUOUS
10
0.7855326377952756
20
1.2569358267716535
11
0.7892992125984252
21
1.2576850393700787
0
LINE
8
BLACK
6
CONTINUOUS
10
0.7892992125984252
20
1.2576850393700787
11
0.8267007874015748
21
1.2576850393700787
0
LINE
8
BLACK
6
CONTINUOUS
10
0.8267007874015748
20
1.2576850393700787
11
0.8304673622047244
21
1.2569358267716535
0
LINE
8
BLACK
6
CONTINUOUS
10
0.7959999999999999
20
1.3289999606299212
11
0.736
21
1.3289999606299212
0
LINE
8
BLACK
6
CONTINUOUS
10
0.736
20
1.3289999606299212
11
0.736
21
1.3889999606299213
0
LINE
8
BLACK
6
CONTINUOUS
10
0.736
20
1.3889999606299213
11
0.7959999999999999
21
1.3889999606299213
0
LINE
8
BLACK
6
CONTINUOUS
10
0.7959999999999999
20
1.3889999606299213
11
0.7959999999999999
21
1.3289999606299212
0
LINE
8
BLACK
6
CONTINUOUS
10
0.696
20
1.329
11
0.636
21
1.329
0
LINE
8
BLACK
6
CONTINUOUS
10
0.636
20
1.329
11
0.636
21
1.389
0
LINE
8
BLACK
6
CONTINUOUS
10
0.636
20
1.389
11
0.696
21
1.389
0
LINE
8
BLACK
6
CONTINUOUS
10
0.696
20
1.389
11
0.696
21
1.329
0
LINE
8
BLACK
6
CONTINUOUS
10
0.896
20
1.329
11
0.836
21
1.329
0
LINE
8
BLACK
6
CONTINUOUS
10
0.836
20
1.329
11
0.836
21
1.389
0
LINE
8
BLACK
6
CONTINUOUS
10
0.836
20
1.389
11
0.896
21
1.389
0
LINE
8
BLACK
6
CONTINUOUS
10
0.896
20
1.389
11
0.896
21
1.329
0
LINE
8
BLACK
6
CONTINUOUS
10
0.696
20
1.429
11
0.636
21
1.429
0
LINE
8
BLACK
6
CONTINUOUS
10
0.636
20
1.429
11
0.636
21
1.4889999999999999
0
LINE
8
BLACK
6
CONTINUOUS
10
0.636
20
1.4889999999999999
11
0.696
21
1.4889999999999999
0
LINE
8
BLACK
6
CONTINUOUS
10
0.696
20
1.4889999999999999
11
0.696
21
1.429
0
LINE
8
BLACK
6
CONTINUOUS
10
0.896
20
1.429
11
0.836
21
1.429
0
LINE
8
BLACK
6
CONTINUOUS
10
0.836
20
1.429
11
0.836
21
1.4889999999999999
0
LINE
8
BLACK
6
CONTINUOUS
10
0.836
20
1.4889999999999999
11
0.896
21
1.4889999999999999
0
LINE
8
BLACK
6
CONTINUOUS
10
0.896
20
1.4889999999999999
11
0.896
21
1.429
0
LINE
8
BLACK
6
CONTINUOUS
10
0.7959999999999999
20
1.4290000393700788
11
0.736
21
1.4290000393700788
0
LINE
8
BLACK
6
CONTINUOUS
10
0.736
20
1.4290000393700788
11
0.736
21
1.4890000393700786
0
LINE
8
BLACK
6
CONTINUOUS
10
0.736
20
1.4890000393700786
11
0.7959999999999999
21
1.4890000393700786
0
LINE
8
BLACK
6
CONTINUOUS
10
0.7959999999999999
20
1.4890000393700786
11
0.7959999999999999
21
1.4290000393700788
0
LINE
8
BLACK
6
CONTINUOUS
10
-0.1028155511811024
20
1.5544385826771654
11
-0.095685157480315
21
1.5514850787401575
0
LINE
8
BLACK
6
CONTINUOUS
10
-0.095685157480315
20
1.5514850787401575
11
-0.0892679921259843
21
1.5471972440944881
0
LINE
8
BLACK
6
CONTINUOUS
10
-0.0892679921259843
20
1.5471972440944881
11
-0.0838106299212598
21
1.5417398818897639
0
LINE
8
BLACK
6
CONTINUOUS
10
-0.0838106299212598
20
1.5417398818897639
11
-0.0795227952755905
21
1.5353227165354331
0
LINE
8
BLACK
6
CONTINUOUS
10
-0.0795227952755905
20
1.5353227165354331
11
-0.0765692913385827
21
1.5281923228346457
0
LINE
8
BLACK
6
CONTINUOUS
10
-0.0765692913385827
20
1.5281923228346457
11
-0.0750635826771654
21
1.5206227165354331
0
LINE
8
BLACK
6
CONTINUOUS
10
-0.0750635826771654
20
1.5206227165354331
11
-0.0750635826771654
21
1.5129048425196849
0
LINE
8
BLACK
6
CONTINUOUS
10
-0.0750635826771654
20
1.5129048425196849
11
-0.0765692913385827
21
1.5053352362204724
0
LINE
8
BLACK
6
CONTINUOUS
10
-0.0765692913385827
20
1.5053352362204724
11
-0.0795227952755905
21
1.498204842519685
0
LINE
8
BLACK
6
CONTINUOUS
10
-0.0795227952755905
20
1.498204842519685
11
-0.0838106299212598
21
1.4917876771653542
0
LINE
8
BLACK
6
CONTINUOUS
10
-0.0838106299212598
20
1.4917876771653542
11
-0.0892679921259843
21
1.48633031496063
0
LINE
8
BLACK
6
CONTINUOUS
10
-0.0892679921259843
20
1.48633031496063
11
-0.095685157480315
21
1.4820424803149606
0
LINE
8
BLACK
6
CONTINUOUS
10
-0.095685157480315
20
1.4820424803149606
11
-0.1028155511811024
21
1.4790889763779527
0
LINE
8
BLACK
6
CONTINUOUS
10
-0.1028155511811024
20
1.4790889763779527
11
-0.110385157480315
21
1.4775832677165355
0
LINE
8
BLACK
6
CONTINUOUS
10
-0.110385157480315
20
1.4775832677165355
11
-0.118103031496063
21
1.4775832677165355
0
LINE
8
BLACK
6
CONTINUOUS
10
-0.118103031496063
20
1.4775832677165355
11
-0.1256726377952756
21
1.4790889763779527
0
LINE
8
BLACK
6
CONTINUOUS
10
-0.1256726377952756
20
1.4790889763779527
11
-0.132803031496063
21
1.4820424803149606
0
LINE
8
BLACK
6
CONTINUOUS
10
-0.132803031496063
20
1.4820424803149606
11
-0.1392201968503937
21
1.48633031496063
0
LINE
8
BLACK
6
CONTINUOUS
10
-0.1392201968503937
20
1.48633031496063
11
-0.1446775590551181
21
1.4917876771653542
0
LINE
8
BLACK
6
CONTINUOUS
10
-0.1446775590551181
20
1.4917876771653542
11
-0.1489653937007874
21
1.498204842519685
0
LINE
8
BLACK
6
CONTINUOUS
10
-0.1489653937007874
20
1.498204842519685
11
-0.1519188976377953
21
1.5053352362204724
0
LINE
8
BLACK
6
CONTINUOUS
10
-0.1519188976377953
20
1.5053352362204724
11
-0.1534246062992126
21
1.5129048425196849
0
LINE
8
BLACK
6
CONTINUOUS
10
-0.1534246062992126
20
1.5129048425196849
11
-0.1534246062992126
21
1.5206227165354331
0
LINE
8
BLACK
6
CONTINUOUS
10
-0.1534246062992126
20
1.5206227165354331
11
-0.1519188976377953
21
1.5281923228346457
0
LINE
8
BLACK
6
CONTINUOUS
10
-0.1519188976377953
20
1.5281923228346457
11
-0.1489653937007874
21
1.5353227165354331
0
LINE
8
BLACK
6
CONTINUOUS
10
-0.1489653937007874
20
1.5353227165354331
11
-0.1446775590551181
21
1.5417398818897639
0
LINE
8
BLACK
6
CONTINUOUS
10
-0.1446775590551181
20
1.5417398818897639
11
-0.1392201968503937
21
1.5471972440944881
0
LINE
8
BLACK
6
CONTINUOUS
10
-0.1392201968503937
20
1.5471972440944881
11
-0.132803031496063
21
1.5514850787401575
0
LINE
8
BLACK
6
CONTINUOUS
10
-0.132803031496063
20
1.5514850787401575
11
-0.1256726377952756
21
1.5544385826771654
0
LINE
8
BLACK
6
CONTINUOUS
10
-0.1256726377952756
20
1.5544385826771654
11
-0.118103031496063
21
1.5559442913385826
0
LINE
8
BLACK
6
CONTINUOUS
10
-0.118103031496063
20
1.5559442913385826
11
-0.110385157480315
21
1.5559442913385826
0
LINE
8
BLACK
6
CONTINUOUS
10
-0.110385157480315
20
1.5559442913385826
11
-0.1028155511811024
21
1.5544385826771654
0
LINE
8
BLACK
6
CONTINUOUS
10
-0.1028155511811024
20
1.6942023622047244
11
-0.095685157480315
21
1.6912488582677165
0
LINE
8
BLACK
6
CONTINUOUS
10
-0.095685157480315
20
1.6912488582677165
11
-0.0892679921259843
21
1.6869610236220471
0
LINE
8
BLACK
6
CONTINUOUS
10
-0.0892679921259843
20
1.6869610236220471
11
-0.0838106299212598
21
1.6815036614173229
0
LINE
8
BLACK
6
CONTINUOUS
10
-0.0838106299212598
20
1.6815036614173229
11
-0.0795227952755905
21
1.6750864960629921
0
LINE
8
BLACK
6
CONTINUOUS
10
-0.0795227952755905
20
1.6750864960629921
11
-0.0765692913385827
21
1.6679561023622047
0
LINE
8
BLACK
6
CONTINUOUS
10
-0.0765692913385827
20
1.6679561023622047
11
-0.0750635826771654
21
1.6603864960629922
0
LINE
8
BLACK
6
CONTINUOUS
10
-0.0750635826771654
20
1.6603864960629922
11
-0.0750635826771654
21
1.652668622047244
0
LINE
8
BLACK
6
CONTINUOUS
10
-0.0750635826771654
20
1.652668622047244
11
-0.0765692913385827
21
1.6450990157480314
0
LINE
8
BLACK
6
CONTINUOUS
10
-0.0765692913385827
20
1.6450990157480314
11
-0.0795227952755905
21
1.637968622047244
0
LINE
8
BLACK
6
CONTINUOUS
10
-0.0795227952755905
20
1.637968622047244
11
-0.0838106299212598
21
1.6315514566929132
0
LINE
8
BLACK
6
CONTINUOUS
10
-0.0838106299212598
20
1.6315514566929132
11
-0.0892679921259843
21
1.626094094488189
0
LINE
8
BLACK
6
CONTINUOUS
10
-0.0892679921259843
20
1.626094094488189
11
-0.095685157480315
21
1.6218062598425196
0
LINE
8
BLACK
6
CONTINUOUS
10
-0.095685157480315
20
1.6218062598425196
11
-0.1028155511811024
21
1.6188527559055117
0
LINE
8
BLACK
6
CONTINUOUS
10
-0.1028155511811024
20
1.6188527559055117
11
-0.110385157480315
21
1.6173470472440945
0
LINE
8
BLACK
6
CONTINUOUS
10
-0.110385157480315
20
1.6173470472440945
11
-0.118103031496063
21
1.6173470472440945
0
LINE
8
BLACK
6
CONTINUOUS
10
-0.118103031496063
20
1.6173470472440945
11
-0.1256726377952756
21
1.6188527559055117
0
LINE
8
BLACK
6
CONTINUOUS
10
-0.1256726377952756
20
1.6188527559055117
11
-0.132803031496063
21
1.6218062598425196
0
LINE
8
BLACK
6
CONTINUOUS
10
-0.132803031496063
20
1.6218062598425196
11
-0.1392201968503937
21
1.626094094488189
0
LINE
8
BLACK
6
CONTINUOUS
10
-0.1392201968503937
20
1.626094094488189
11
-0.1446775590551181
21
1.6315514566929132
0
LINE
8
BLACK
6
CONTINUOUS
10
-0.1446775590551181
20
1.6315514566929132
11
-0.1489653937007874
21
1.637968622047244
0
LINE
8
BLACK
6
CONTINUOUS
10
-0.1489653937007874
20
1.637968622047244
11
-0.1519188976377953
21
1.6450990157480314
0
LINE
8
BLACK
6
CONTINUOUS
10
-0.1519188976377953
20
1.6450990157480314
11
-0.1534246062992126
21
1.652668622047244
0
LINE
8
BLACK
6
CONTINUOUS
10
-0.1534246062992126
20
1.652668622047244
11
-0.1534246062992126
21
1.6603864960629922
0
LINE
8
BLACK
6
CONTINUOUS
10
-0.1534246062992126
20
1.6603864960629922
11
-0.1519188976377953
21
1.6679561023622047
0
LINE
8
BLACK
6
CONTINUOUS
10
-0.1519188976377953
20
1.6679561023622047
11
-0.1489653937007874
21
1.6750864960629921
0
LINE
8
BLACK
6
CONTINUOUS
10
-0.1489653937007874
20
1.6750864960629921
11
-0.1446775590551181
21
1.6815036614173229
0
LINE
8
BLACK
6
CONTINUOUS
10
-0.1446775590551181
20
1.6815036614173229
11
-0.1392201968503937
21
1.6869610236220471
0
LINE
8
BLACK
6
CONTINUOUS
10
-0.1392201968503937
20
1.6869610236220471
11
-0.132803031496063
21
1.6912488582677165
0
LINE
8
BLACK
6
CONTINUOUS
10
-0.132803031496063
20
1.6912488582677165
11
-0.1256726377952756
21
1.6942023622047244
0
LINE
8
BLACK
6
CONTINUOUS
10
-0.1256726377952756
20
1.6942023622047244
11
-0.118103031496063
21
1.6957080708661416
0
LINE
8
BLACK
6
CONTINUOUS
10
-0.118103031496063
20
1.6957080708661416
11
-0.110385157480315
21
1.6957080708661416
0
LINE
8
BLACK
6
CONTINUOUS
10
-0.110385157480315
20
1.6957080708661416
11
-0.1028155511811024
21
1.6942023622047244
0
LINE
8
BLACK
6
CONTINUOUS
10
-0.1028155511811024
20
1.8339661417322835
11
-0.095685157480315
21
1.8310126377952756
0
LINE
8
BLACK
6
CONTINUOUS
10
-0.095685157480315
20
1.8310126377952756
11
-0.0892679921259843
21
1.8267248031496062
0
LINE
8
BLACK
6
CONTINUOUS
10
-0.0892679921259843
20
1.8267248031496062
11
-0.0838106299212598
21
1.8212674409448819
0
LINE
8
BLACK
6
CONTINUOUS
10
-0.0838106299212598
20
1.8212674409448819
11
-0.0795227952755905
21
1.8148502755905511
0
LINE
8
BLACK
6
CONTINUOUS
10
-0.0795227952755905
20
1.8148502755905511
11
-0.0765692913385827
21
1.8077198818897637
0
LINE
8
BLACK
6
CONTINUOUS
10
-0.0765692913385827
20
1.8077198818897637
11
-0.0750635826771654
21
1.8001502755905512
0
LINE
8
BLACK
6
CONTINUOUS
10
-0.0750635826771654
20
1.8001502755905512
11
-0.0750635826771654
21
1.7924324015748032
0
LINE
8
BLACK
6
CONTINUOUS
10
-0.0750635826771654
20
1.7924324015748032
11
-0.0765692913385827
21
1.7848627952755904
0
LINE
8
BLACK
6
CONTINUOUS
10
-0.0765692913385827
20
1.7848627952755904
11
-0.0795227952755905
21
1.7777324015748031
0
LINE
8
BLACK
6
CONTINUOUS
10
-0.0795227952755905
20
1.7777324015748031
11
-0.0838106299212598
21
1.7713152362204725
0
LINE
8
BLACK
6
CONTINUOUS
10
-0.0838106299212598
20
1.7713152362204725
11
-0.0892679921259843
21
1.765857874015748
0
LINE
8
BLACK
6
CONTINUOUS
10
-0.0892679921259843
20
1.765857874015748
11
-0.095685157480315
21
1.7615700393700786
0
LINE
8
BLACK
6
CONTINUOUS
10
-0.095685157480315
20
1.7615700393700786
11
-0.1028155511811024
21
1.7586165354330707
0
LINE
8
BLACK
6
CONTINUOUS
10
-0.1028155511811024
20
1.7586165354330707
11
-0.110385157480315
21
1.7571108267716535
0
LINE
8
BLACK
6
CONTINUOUS
10
-0.110385157480315
20
1.7571108267716535
11
-0.118103031496063
21
1.7571108267716535
0
LINE
8
BLACK
6
CONTINUOUS
10
-0.118103031496063
20
1.7571108267716535
11
-0.1256726377952756
21
1.7586165354330707
0
LINE
8
BLACK
6
CONTINUOUS
10
-0.1256726377952756
20
1.7586165354330707
11
-0.132803031496063
21
1.7615700393700786
0
LINE
8
BLACK
6
CONTINUOUS
10
-0.132803031496063
20
1.7615700393700786
11
-0.1392201968503937
21
1.765857874015748
0
LINE
8
BLACK
6
CONTINUOUS
10
-0.1392201968503937
20
1.765857874015748
11
-0.1446775590551181
21
1.7713152362204725
0
LINE
8
BLACK
6
CONTINUOUS
10
-0.1446775590551181
20
1.7713152362204725
11
-0.1489653937007874
21
1.7777324015748031
0
LINE
8
BLACK
6
CONTINUOUS
10
-0.1489653937007874
20
1.7777324015748031
11
-0.1519188976377953
21
1.7848627952755904
0
LINE
8
BLACK
6
CONTINUOUS
10
-0.1519188976377953
20
1.7848627952755904
11
-0.1534246062992126
21
1.7924324015748032
0
LINE
8
BLACK
6
CONTINUOUS
10
-0.1534246062992126
20
1.7924324015748032
11
-0.1534246062992126
21
1.8001502755905512
0
LINE
8
BLACK
6
CONTINUOUS
10
-0.1534246062992126
20
1.8001502755905512
11
-0.1519188976377953
21
1.8077198818897637
0
LINE
8
BLACK
6
CONTINUOUS
10
-0.1519188976377953
20
1.8077198818897637
11
-0.1489653937007874
21
1.8148502755905511
0
LINE
8
BLACK
6
CONTINUOUS
10
-0.1489653937007874
20
1.8148502755905511
11
-0.1446775590551181
21
1.8212674409448819
0
LINE
8
BLACK
6
CONTINUOUS
10
-0.1446775590551181
20
1.8212674409448819
11
-0.1392201968503937
21
1.8267248031496062
0
LINE
8
BLACK
6
CONTINUOUS
10
-0.1392201968503937
20
1.8267248031496062
11
-0.132803031496063
21
1.8310126377952756
0
LINE
8
BLACK
6
CONTINUOUS
10
-0.132803031496063
20
1.8310126377952756
11
-0.1256726377952756
21
1.8339661417322835
0
LINE
8
BLACK
6
CONTINUOUS
10
-0.1256726377952756
20
1.8339661417322835
11
-0.118103031496063
21
1.8354718503937006
0
LINE
8
BLACK
6
CONTINUOUS
10
-0.118103031496063
20
1.8354718503937006
11
-0.110385157480315
21
1.8354718503937006
0
LINE
8
BLACK
6
CONTINUOUS
10
-0.110385157480315
20
1.8354718503937006
11
-0.1028155511811024
21
1.8339661417322835
0
CIRCLE
8
BLACK
10
1.5589527559055119
20
0.598822874015748
40
0.0068897637795276
0
CIRCLE
8
BLACK
10
1.6589527559055117
20
0.6988228740157481
40
0.0068897637795276
0
CIRCLE
8
BLACK
10
1.4589527559055118
20
0.6988228740157481
40
0.0068897637795276
0
CIRCLE
8
BLACK
10
1.6589527559055117
20
0.498822874015748
40
0.0068897637795276
0
CIRCLE
8
BLACK
10
1.4589527559055118
20
0.498822874015748
40
0.0068897637795276
0
CIRCLE
8
BLACK
10
0.666
20
1.359
40
0.0068897637795276
0
CIRCLE
8
BLACK
10
0.666
20
1.4590000000000001
40
0.0068897637795276
0
CIRCLE
8
BLACK
10
0.766
20
1.3589999606299212
40
0.0068897637795276
0
CIRCLE
8
BLACK
10
0.766
20
1.4590000393700786
40
0.0068897637795276
0
CIRCLE
8
BLACK
10
0.866
20
1.359
40
0.0068897637795276
0
CIRCLE
8
BLACK
10
0.866
20
1.4590000000000001
40
0.0068897637795276
0
CIRCLE
8
BLACK
10
0.4
20
0.4
40
0.0068897637795276
0
CIRCLE
8
BLACK
10
1.5999999999999999
20
1.2
40
0.0068897637795276
0
CIRCLE
8
BLACK
10
1.5999999999999999
20
0.4
40
0.0068897637795276
0
CIRCLE
8
BLACK
10
0.4
20
1.2
40
0.0068897637795276
0
CIRCLE
8
WHITE
10
1.5589527559055119
20
0.598822874015748
40
0.0068897637795276
0
CIRCLE
8
WHITE
10
1.6589527559055117
20
0.6988228740157481
40
0.0068897637795276
0
CIRCLE
8
WHITE
10
1.4589527559055118
20
0.6988228740157481
40
0.0068897637795276
0
CIRCLE
8
WHITE
10
1.6589527559055117
20
0.498822874015748
40
0.0068897637795276
0
CIRCLE
8
WHITE
10
1.4589527559055118
20
0.498822874015748
40
0.0068897637795276
0
CIRCLE
8
WHITE
10
0.666
20
1.359
40
0.0068897637795276
0
CIRCLE
8
WHITE
10
0.666
20
1.4590000000000001
40
0.0068897637795276
0
CIRCLE
8
WHITE
10
0.766
20
1.3589999606299212
40
0.0068897637795276
0
CIRCLE
8
WHITE
10
0.766
20
1.4590000393700786
40
0.0068897637795276
0
CIRCLE
8
WHITE
10
0.866
20
1.359
40
0.0068897637795276
0
CIRCLE
8
WHITE
10
0.866
20
1.4590000000000001
40
0.0068897637795276
0
CIRCLE
8
WHITE
10
0.4
20
0.4
40
0.0068897637795276
0
CIRCLE
8
WHITE
10
1.5999999999999999
20
1.2
40
0.0068897637795276
0
CIRCLE
8
WHITE
10
1.5999999999999999
20
0.4
40
0.0068897637795276
0
CIRCLE
8
WHITE
10
0.4
20
1.2
40
0.0068897637795276
  0
ENDSEC
  0
EOF
