  0
SECTION
  2
HEADER
  9
$ANGBASE
  50
0.0
  9
$ANGDIR
  70
1
  9
$MEASUREMENT
  70
0
  0
ENDSEC
  0
SECTION
  2
TABLES
  0
TABLE
  2
LTYPE
  70
4
  0
LTYPE
  5
40F
  2
CONTINUOUS
  70
0
  3
Solid line
  72
65
  73
0
  40
0.0
  0
LTYPE
  5
410
  2
DASHDOT
 70
0
  3
Dash Dot ____ _ ____ _
 72
65
 73
4
 40
2.0
 49
1.25
 49
-0.25
 49
0.25
 49
-0.25
  0
LTYPE
  5
411
  2
DASHED
 70
0
  3
Dashed __ __ __ __ __
 72
65
 73
2
 40
0.75
 49
0.5
 49
-0.25
  0
LTYPE
  5
43B
  2
DOTTED
 70
0
  3
Dotted .  .  .  .
 72
65
 73
2
 40
0.2
 49
0.0
 49
-0.2
  0
ENDTAB
  0
TABLE
  2
STYLE
  70
4
  0
STYLE
  2
KICAD
  70
0
  40
0
  41
1
  42
1
  50
0
  71
0
  3
isocp.shx
  0
STYLE
  2
KICADB
  70
0
  40
0
  41
1
  42
1
  50
0
  71
0
  3
isocp.shx
  0
STYLE
  2
KICADI
  70
0
  40
0
  41
1
  42
1
  50
15
  71
0
  3
isocp.shx
  0
STYLE
  2
KICADBI
  70
0
  40
0
  41
1
  42
1
  50
15
  71
0
  3
isocp.shx
  0
ENDTAB
  0
TABLE
  2
LAYER
  70
1
  0
LAYER
  2
BLACK
  70
0
  62
7
  6
CONTINUOUS
  0
ENDTAB
  0
ENDSEC
  0
SECTION
  2
ENTITIES
0
LINE
8
BLACK
6
CONTINUOUS
10
0.942992125984252
20
0.2689173228346456
11
0.8829921259842519
21
0.2689173228346456
0
LINE
8
BLACK
6
CONTINUOUS
10
0.8829921259842519
20
0.2689173228346456
11
0.8829921259842519
21
0.3289173228346456
0
LINE
8
BLACK
6
CONTINUOUS
10
0.8829921259842519
20
0.3289173228346456
11
0.942992125984252
21
0.3289173228346456
0
LINE
8
BLACK
6
CONTINUOUS
10
0.942992125984252
20
0.3289173228346456
11
0.942992125984252
21
0.2689173228346456
0
LINE
8
BLACK
6
CONTINUOUS
10
1.0429921259842518
20
0.2689173228346456
11
0.9829921259842519
21
0.2689173228346456
0
LINE
8
BLACK
6
CONTINUOUS
10
0.9829921259842519
20
0.2689173228346456
11
0.9829921259842519
21
0.3289173228346456
0
LINE
8
BLACK
6
CONTINUOUS
10
0.9829921259842519
20
0.3289173228346456
11
1.0429921259842518
21
0.3289173228346456
0
LINE
8
BLACK
6
CONTINUOUS
10
1.0429921259842518
20
0.3289173228346456
11
1.0429921259842518
21
0.2689173228346456
0
LINE
8
BLACK
6
CONTINUOUS
10
1.1429921259842519
20
0.2689173228346456
11
1.0829921259842519
21
0.2689173228346456
0
LINE
8
BLACK
6
CONTINUOUS
10
1.0829921259842519
20
0.2689173228346456
11
1.0829921259842519
21
0.3289173228346456
0
LINE
8
BLACK
6
CONTINUOUS
10
1.0829921259842519
20
0.3289173228346456
11
1.1429921259842519
21
0.3289173228346456
0
LINE
8
BLACK
6
CONTINUOUS
10
1.1429921259842519
20
0.3289173228346456
11
1.1429921259842519
21
0.2689173228346456
0
LINE
8
BLACK
6
CONTINUOUS
10
1.242992125984252
20
0.2689173228346456
11
1.182992125984252
21
0.2689173228346456
0
LINE
8
BLACK
6
CONTINUOUS
10
1.182992125984252
20
0.2689173228346456
11
1.182992125984252
21
0.3289173228346456
0
LINE
8
BLACK
6
CONTINUOUS
10
1.182992125984252
20
0.3289173228346456
11
1.242992125984252
21
0.3289173228346456
0
LINE
8
BLACK
6
CONTINUOUS
10
1.242992125984252
20
0.3289173228346456
11
1.242992125984252
21
0.2689173228346456
0
LINE
8
BLACK
6
CONTINUOUS
10
0.4197842125984252
20
0.5164414566929134
11
0.432697125984252
21
0.5134941732283465
0
LINE
8
BLACK
6
CONTINUOUS
10
0.432697125984252
20
0.5134941732283465
11
0.4451988188976378
21
0.5091196456692914
0
LINE
8
BLACK
6
CONTINUOUS
10
0.4451988188976378
20
0.5091196456692914
11
0.4571321653543307
21
0.5033728346456693
0
LINE
8
BLACK
6
CONTINUOUS
10
0.4571321653543307
20
0.5033728346456693
11
0.4683470078740157
21
0.4963261023622047
0
LINE
8
BLACK
6
CONTINUOUS
10
0.4683470078740157
20
0.4963261023622047
11
0.4787023622047244
21
0.4880679527559055
0
LINE
8
BLACK
6
CONTINUOUS
10
0.4787023622047244
20
0.4880679527559055
11
0.4880679527559055
21
0.4787023622047244
0
LINE
8
BLACK
6
CONTINUOUS
10
0.4880679527559055
20
0.4787023622047244
11
0.4963261023622047
21
0.4683470078740157
0
LINE
8
BLACK
6
CONTINUOUS
10
0.4963261023622047
20
0.4683470078740157
11
0.5033728346456693
21
0.4571321653543307
0
LINE
8
BLACK
6
CONTINUOUS
10
0.5033728346456693
20
0.4571321653543307
11
0.5091196456692914
21
0.4451988188976378
0
LINE
8
BLACK
6
CONTINUOUS
10
0.5091196456692914
20
0.4451988188976378
11
0.5134941732283465
21
0.432697125984252
0
LINE
8
BLACK
6
CONTINUOUS
10
0.5134941732283465
20
0.432697125984252
11
0.5164414566929134
21
0.4197842125984252
0
LINE
8
BLACK
6
CONTINUOUS
10
0.5164414566929134
20
0.4197842125984252
11
0.5179244094488189
21
0.4066224803149606
0
LINE
8
BLACK
6
CONTINUOUS
10
0.5179244094488189
20
0.4066224803149606
11
0.5179244094488189
21
0.3933775196850394
0
LINE
8
BLACK
6
CONTINUOUS
10
0.5179244094488189
20
0.3933775196850394
11
0.5164414566929134
21
0.3802157874015748
0
LINE
8
BLACK
6
CONTINUOUS
10
0.5164414566929134
20
0.3802157874015748
11
0.5134941732283465
21
0.367302874015748
0
LINE
8
BLACK
6
CONTINUOUS
10
0.5134941732283465
20
0.367302874015748
11
0.5091196456692914
21
0.3548011811023622
0
LINE
8
BLACK
6
CONTINUOUS
10
0.5091196456692914
20
0.3548011811023622
11
0.5033728346456693
21
0.3428678346456693
0
LINE
8
BLACK
6
CONTINUOUS
10
0.5033728346456693
20
0.3428678346456693
11
0.4963261023622047
21
0.3316529921259843
0
LINE
8
BLACK
6
CONTINUOUS
10
0.4963261023622047
20
0.3316529921259843
11
0.4880679527559055
21
0.3212976377952756
0
LINE
8
BLACK
6
CONTINUOUS
10
0.4880679527559055
20
0.3212976377952756
11
0.4787023622047244
21
0.3119320472440945
0
LINE
8
BLACK
6
CONTINUOUS
10
0.4787023622047244
20
0.3119320472440945
11
0.4683470078740157
21
0.3036738976377953
0
LINE
8
BLACK
6
CONTINUOUS
10
0.4683470078740157
20
0.3036738976377953
11
0.4571321653543307
21
0.2966271653543307
0
LINE
8
BLACK
6
CONTINUOUS
10
0.4571321653543307
20
0.2966271653543307
11
0.4451988188976378
21
0.2908803543307086
0
LINE
8
BLACK
6
CONTINUOUS
10
0.4451988188976378
20
0.2908803543307086
11
0.432697125984252
21
0.2865058267716535
0
LINE
8
BLACK
6
CONTINUOUS
10
0.432697125984252
20
0.2865058267716535
11
0.4197842125984252
21
0.2835585433070866
0
LINE
8
BLACK
6
CONTINUOUS
10
0.4197842125984252
20
0.2835585433070866
11
0.4066224803149606
21
0.2820755905511811
0
LINE
8
BLACK
6
CONTINUOUS
10
0.4066224803149606
20
0.2820755905511811
11
0.3933775196850394
21
0.2820755905511811
0
LINE
8
BLACK
6
CONTINUOUS
10
0.3933775196850394
20
0.2820755905511811
11
0.3802157874015748
21
0.2835585433070866
0
LINE
8
BLACK
6
CONTINUOUS
10
0.3802157874015748
20
0.2835585433070866
11
0.367302874015748
21
0.2865058267716535
0
LINE
8
BLACK
6
CONTINUOUS
10
0.367302874015748
20
0.2865058267716535
11
0.3548011811023622
21
0.2908803543307086
0
LINE
8
BLACK
6
CONTINUOUS
10
0.3548011811023622
20
0.2908803543307086
11
0.3428678346456693
21
0.2966271653543307
0
LINE
8
BLACK
6
CONTINUOUS
10
0.3428678346456693
20
0.2966271653543307
11
0.3316529921259843
21
0.3036738976377953
0
LINE
8
BLACK
6
CONTINUOUS
10
0.3316529921259843
20
0.3036738976377953
11
0.3212976377952756
21
0.3119320472440945
0
LINE
8
BLACK
6
CONTINUOUS
10
0.3212976377952756
20
0.3119320472440945
11
0.3119320472440945
21
0.3212976377952756
0
LINE
8
BLACK
6
CONTINUOUS
10
0.3119320472440945
20
0.3212976377952756
11
0.3036738976377953
21
0.3316529921259843
0
LINE
8
BLACK
6
CONTINUOUS
10
0.3036738976377953
20
0.3316529921259843
11
0.2966271653543307
21
0.3428678346456693
0
LINE
8
BLACK
6
CONTINUOUS
10
0.2966271653543307
20
0.3428678346456693
11
0.2908803543307086
21
0.3548011811023622
0
LINE
8
BLACK
6
CONTINUOUS
10
0.2908803543307086
20
0.3548011811023622
11
0.2865058267716535
21
0.367302874015748
0
LINE
8
BLACK
6
CONTINUOUS
10
0.2865058267716535
20
0.367302874015748
11
0.2835585433070866
21
0.3802157874015748
0
LINE
8
BLACK
6
CONTINUOUS
10
0.2835585433070866
20
0.3802157874015748
11
0.2820755905511811
21
0.3933775196850394
0
LINE
8
BLACK
6
CONTINUOUS
10
0.2820755905511811
20
0.3933775196850394
11
0.2820755905511811
21
0.4066224803149606
0
LINE
8
BLACK
6
CONTINUOUS
10
0.2820755905511811
20
0.4066224803149606
11
0.2835585433070866
21
0.4197842125984252
0
LINE
8
BLACK
6
CONTINUOUS
10
0.2835585433070866
20
0.4197842125984252
11
0.2865058267716535
21
0.432697125984252
0
LINE
8
BLACK
6
CONTINUOUS
10
0.2865058267716535
20
0.432697125984252
11
0.2908803543307086
21
0.4451988188976378
0
LINE
8
BLACK
6
CONTINUOUS
10
0.2908803543307086
20
0.4451988188976378
11
0.2966271653543307
21
0.4571321653543307
0
LINE
8
BLACK
6
CONTINUOUS
10
0.2966271653543307
20
0.4571321653543307
11
0.3036738976377953
21
0.4683470078740157
0
LINE
8
BLACK
6
CONTINUOUS
10
0.3036738976377953
20
0.4683470078740157
11
0.3119320472440945
21
0.4787023622047244
0
LINE
8
BLACK
6
CONTINUOUS
10
0.3119320472440945
20
0.4787023622047244
11
0.3212976377952756
21
0.4880679527559055
0
LINE
8
BLACK
6
CONTINUOUS
10
0.3212976377952756
20
0.4880679527559055
11
0.3316529921259843
21
0.4963261023622047
0
LINE
8
BLACK
6
CONTINUOUS
10
0.3316529921259843
20
0.4963261023622047
11
0.3428678346456693
21
0.5033728346456693
0
LINE
8
BLACK
6
CONTINUOUS
10
0.3428678346456693
20
0.5033728346456693
11
0.3548011811023622
21
0.5091196456692914
0
LINE
8
BLACK
6
CONTINUOUS
10
0.3548011811023622
20
0.5091196456692914
11
0.367302874015748
21
0.5134941732283465
0
LINE
8
BLACK
6
CONTINUOUS
10
0.367302874015748
20
0.5134941732283465
11
0.3802157874015748
21
0.5164414566929134
0
LINE
8
BLACK
6
CONTINUOUS
10
0.3802157874015748
20
0.5164414566929134
11
0.3933775196850394
21
0.5179244094488189
0
LINE
8
BLACK
6
CONTINUOUS
10
0.3933775196850394
20
0.5179244094488189
11
0.4066224803149606
21
0.5179244094488189
0
LINE
8
BLACK
6
CONTINUOUS
10
0.4066224803149606
20
0.5179244094488189
11
0.4197842125984252
21
0.5164414566929134
0
LINE
8
BLACK
6
CONTINUOUS
10
1.6197842125984252
20
0.5164414566929134
11
1.632697125984252
21
0.5134941732283465
0
LINE
8
BLACK
6
CONTINUOUS
10
1.632697125984252
20
0.5134941732283465
11
1.6451988188976379
21
0.5091196456692914
0
LINE
8
BLACK
6
CONTINUOUS
10
1.6451988188976379
20
0.5091196456692914
11
1.6571321653543307
21
0.5033728346456693
0
LINE
8
BLACK
6
CONTINUOUS
10
1.6571321653543307
20
0.5033728346456693
11
1.6683470078740157
21
0.4963261023622047
0
LINE
8
BLACK
6
CONTINUOUS
10
1.6683470078740157
20
0.4963261023622047
11
1.6787023622047244
21
0.4880679527559055
0
LINE
8
BLACK
6
CONTINUOUS
10
1.6787023622047244
20
0.4880679527559055
11
1.6880679527559055
21
0.4787023622047244
0
LINE
8
BLACK
6
CONTINUOUS
10
1.6880679527559055
20
0.4787023622047244
11
1.6963261023622047
21
0.4683470078740157
0
LINE
8
BLACK
6
CONTINUOUS
10
1.6963261023622047
20
0.4683470078740157
11
1.7033728346456694
21
0.4571321653543307
0
LINE
8
BLACK
6
CONTINUOUS
10
1.7033728346456694
20
0.4571321653543307
11
1.7091196456692912
21
0.4451988188976378
0
LINE
8
BLACK
6
CONTINUOUS
10
1.7091196456692912
20
0.4451988188976378
11
1.7134941732283464
21
0.432697125984252
0
LINE
8
BLACK
6
CONTINUOUS
10
1.7134941732283464
20
0.432697125984252
11
1.7164414566929134
21
0.4197842125984252
0
LINE
8
BLACK
6
CONTINUOUS
10
1.7164414566929134
20
0.4197842125984252
11
1.7179244094488189
21
0.4066224803149606
0
LINE
8
BLACK
6
CONTINUOUS
10
1.7179244094488189
20
0.4066224803149606
11
1.7179244094488189
21
0.3933775196850394
0
LINE
8
BLACK
6
CONTINUOUS
10
1.7179244094488189
20
0.3933775196850394
11
1.7164414566929134
21
0.3802157874015748
0
LINE
8
BLACK
6
CONTINUOUS
10
1.7164414566929134
20
0.3802157874015748
11
1.7134941732283464
21
0.367302874015748
0
LINE
8
BLACK
6
CONTINUOUS
10
1.7134941732283464
20
0.367302874015748
11
1.7091196456692912
21
0.3548011811023622
0
LINE
8
BLACK
6
CONTINUOUS
10
1.7091196456692912
20
0.3548011811023622
11
1.7033728346456694
21
0.3428678346456693
0
LINE
8
BLACK
6
CONTINUOUS
10
1.7033728346456694
20
0.3428678346456693
11
1.6963261023622047
21
0.3316529921259843
0
LINE
8
BLACK
6
CONTINUOUS
10
1.6963261023622047
20
0.3316529921259843
11
1.6880679527559055
21
0.3212976377952756
0
LINE
8
BLACK
6
CONTINUOUS
10
1.6880679527559055
20
0.3212976377952756
11
1.6787023622047244
21
0.3119320472440945
0
LINE
8
BLACK
6
CONTINUOUS
10
1.6787023622047244
20
0.3119320472440945
11
1.6683470078740157
21
0.3036738976377953
0
LINE
8
BLACK
6
CONTINUOUS
10
1.6683470078740157
20
0.3036738976377953
11
1.6571321653543307
21
0.2966271653543307
0
LINE
8
BLACK
6
CONTINUOUS
10
1.6571321653543307
20
0.2966271653543307
11
1.6451988188976379
21
0.2908803543307086
0
LINE
8
BLACK
6
CONTINUOUS
10
1.6451988188976379
20
0.2908803543307086
11
1.632697125984252
21
0.2865058267716535
0
LINE
8
BLACK
6
CONTINUOUS
10
1.632697125984252
20
0.2865058267716535
11
1.6197842125984252
21
0.2835585433070866
0
LINE
8
BLACK
6
CONTINUOUS
10
1.6197842125984252
20
0.2835585433070866
11
1.6066224803149607
21
0.2820755905511811
0
LINE
8
BLACK
6
CONTINUOUS
10
1.6066224803149607
20
0.2820755905511811
11
1.5933775196850393
21
0.2820755905511811
0
LINE
8
BLACK
6
CONTINUOUS
10
1.5933775196850393
20
0.2820755905511811
11
1.5802157874015748
21
0.2835585433070866
0
LINE
8
BLACK
6
CONTINUOUS
10
1.5802157874015748
20
0.2835585433070866
11
1.567302874015748
21
0.2865058267716535
0
LINE
8
BLACK
6
CONTINUOUS
10
1.567302874015748
20
0.2865058267716535
11
1.5548011811023621
21
0.2908803543307086
0
LINE
8
BLACK
6
CONTINUOUS
10
1.5548011811023621
20
0.2908803543307086
11
1.5428678346456692
21
0.2966271653543307
0
LINE
8
BLACK
6
CONTINUOUS
10
1.5428678346456692
20
0.2966271653543307
11
1.5316529921259843
21
0.3036738976377953
0
LINE
8
BLACK
6
CONTINUOUS
10
1.5316529921259843
20
0.3036738976377953
11
1.5212976377952756
21
0.3119320472440945
0
LINE
8
BLACK
6
CONTINUOUS
10
1.5212976377952756
20
0.3119320472440945
11
1.5119320472440945
21
0.3212976377952756
0
LINE
8
BLACK
6
CONTINUOUS
10
1.5119320472440945
20
0.3212976377952756
11
1.5036738976377952
21
0.3316529921259843
0
LINE
8
BLACK
6
CONTINUOUS
10
1.5036738976377952
20
0.3316529921259843
11
1.4966271653543306
21
0.3428678346456693
0
LINE
8
BLACK
6
CONTINUOUS
10
1.4966271653543306
20
0.3428678346456693
11
1.4908803543307085
21
0.3548011811023622
0
LINE
8
BLACK
6
CONTINUOUS
10
1.4908803543307085
20
0.3548011811023622
11
1.4865058267716535
21
0.367302874015748
0
LINE
8
BLACK
6
CONTINUOUS
10
1.4865058267716535
20
0.367302874015748
11
1.4835585433070866
21
0.3802157874015748
0
LINE
8
BLACK
6
CONTINUOUS
10
1.4835585433070866
20
0.3802157874015748
11
1.4820755905511811
21
0.3933775196850394
0
LINE
8
BLACK
6
CONTINUOUS
10
1.4820755905511811
20
0.3933775196850394
11
1.4820755905511811
21
0.4066224803149606
0
LINE
8
BLACK
6
CONTINUOUS
10
1.4820755905511811
20
0.4066224803149606
11
1.4835585433070866
21
0.4197842125984252
0
LINE
8
BLACK
6
CONTINUOUS
10
1.4835585433070866
20
0.4197842125984252
11
1.4865058267716535
21
0.432697125984252
0
LINE
8
BLACK
6
CONTINUOUS
10
1.4865058267716535
20
0.432697125984252
11
1.4908803543307085
21
0.4451988188976378
0
LINE
8
BLACK
6
CONTINUOUS
10
1.4908803543307085
20
0.4451988188976378
11
1.4966271653543306
21
0.4571321653543307
0
LINE
8
BLACK
6
CONTINUOUS
10
1.4966271653543306
20
0.4571321653543307
11
1.5036738976377952
21
0.4683470078740157
0
LINE
8
BLACK
6
CONTINUOUS
10
1.5036738976377952
20
0.4683470078740157
11
1.5119320472440945
21
0.4787023622047244
0
LINE
8
BLACK
6
CONTINUOUS
10
1.5119320472440945
20
0.4787023622047244
11
1.5212976377952756
21
0.4880679527559055
0
LINE
8
BLACK
6
CONTINUOUS
10
1.5212976377952756
20
0.4880679527559055
11
1.5316529921259843
21
0.4963261023622047
0
LINE
8
BLACK
6
CONTINUOUS
10
1.5316529921259843
20
0.4963261023622047
11
1.5428678346456692
21
0.5033728346456693
0
LINE
8
BLACK
6
CONTINUOUS
10
1.5428678346456692
20
0.5033728346456693
11
1.5548011811023621
21
0.5091196456692914
0
LINE
8
BLACK
6
CONTINUOUS
10
1.5548011811023621
20
0.5091196456692914
11
1.567302874015748
21
0.5134941732283465
0
LINE
8
BLACK
6
CONTINUOUS
10
1.567302874015748
20
0.5134941732283465
11
1.5802157874015748
21
0.5164414566929134
0
LINE
8
BLACK
6
CONTINUOUS
10
1.5802157874015748
20
0.5164414566929134
11
1.5933775196850393
21
0.5179244094488189
0
LINE
8
BLACK
6
CONTINUOUS
10
1.5933775196850393
20
0.5179244094488189
11
1.6066224803149607
21
0.5179244094488189
0
LINE
8
BLACK
6
CONTINUOUS
10
1.6066224803149607
20
0.5179244094488189
11
1.6197842125984252
21
0.5164414566929134
0
LINE
8
BLACK
6
CONTINUOUS
10
0.942992125984252
20
0.3689173228346457
11
0.8829921259842519
21
0.3689173228346457
0
LINE
8
BLACK
6
CONTINUOUS
10
0.8829921259842519
20
0.3689173228346457
11
0.8829921259842519
21
0.4289173228346457
0
LINE
8
BLACK
6
CONTINUOUS
10
0.8829921259842519
20
0.4289173228346457
11
0.942992125984252
21
0.4289173228346457
0
LINE
8
BLACK
6
CONTINUOUS
10
0.942992125984252
20
0.4289173228346457
11
0.942992125984252
21
0.3689173228346457
0
LINE
8
BLACK
6
CONTINUOUS
10
1.0429921259842518
20
0.3689173228346457
11
0.9829921259842519
21
0.3689173228346457
0
LINE
8
BLACK
6
CONTINUOUS
10
0.9829921259842519
20
0.3689173228346457
11
0.9829921259842519
21
0.4289173228346457
0
LINE
8
BLACK
6
CONTINUOUS
10
0.9829921259842519
20
0.4289173228346457
11
1.0429921259842518
21
0.4289173228346457
0
LINE
8
BLACK
6
CONTINUOUS
10
1.0429921259842518
20
0.4289173228346457
11
1.0429921259842518
21
0.3689173228346457
0
LINE
8
BLACK
6
CONTINUOUS
10
1.1429921259842519
20
0.3689173228346457
11
1.0829921259842519
21
0.3689173228346457
0
LINE
8
BLACK
6
CONTINUOUS
10
1.0829921259842519
20
0.3689173228346457
11
1.0829921259842519
21
0.4289173228346457
0
LINE
8
BLACK
6
CONTINUOUS
10
1.0829921259842519
20
0.4289173228346457
11
1.1429921259842519
21
0.4289173228346457
0
LINE
8
BLACK
6
CONTINUOUS
10
1.1429921259842519
20
0.4289173228346457
11
1.1429921259842519
21
0.3689173228346457
0
LINE
8
BLACK
6
CONTINUOUS
10
1.242992125984252
20
0.3689173228346457
11
1.182992125984252
21
0.3689173228346457
0
LINE
8
BLACK
6
CONTINUOUS
10
1.182992125984252
20
0.3689173228346457
11
1.182992125984252
21
0.4289173228346457
0
LINE
8
BLACK
6
CONTINUOUS
10
1.182992125984252
20
0.4289173228346457
11
1.242992125984252
21
0.4289173228346457
0
LINE
8
BLACK
6
CONTINUOUS
10
1.242992125984252
20
0.4289173228346457
11
1.242992125984252
21
0.3689173228346457
0
LINE
8
BLACK
6
CONTINUOUS
10
1.0235331496062992
20
0.6471866141732283
11
1.0279835039370078
21
0.6446172047244094
0
LINE
8
BLACK
6
CONTINUOUS
10
1.0279835039370078
20
0.6446172047244094
11
1.0316172047244094
21
0.6409835039370079
0
LINE
8
BLACK
6
CONTINUOUS
10
1.0316172047244094
20
0.6409835039370079
11
1.0341866141732283
21
0.6365331496062993
0
LINE
8
BLACK
6
CONTINUOUS
10
1.0341866141732283
20
0.6365331496062993
11
1.0355166141732284
21
0.6315694094488189
0
LINE
8
BLACK
6
CONTINUOUS
10
1.0355166141732284
20
0.6315694094488189
11
1.0355166141732284
21
0.6264305905511811
0
LINE
8
BLACK
6
CONTINUOUS
10
1.0355166141732284
20
0.6264305905511811
11
1.0341866141732283
21
0.6214668503937008
0
LINE
8
BLACK
6
CONTINUOUS
10
1.0341866141732283
20
0.6214668503937008
11
1.0316172047244094
21
0.6170164960629921
0
LINE
8
BLACK
6
CONTINUOUS
10
1.0316172047244094
20
0.6170164960629921
11
1.0279835039370078
21
0.6133827952755906
0
LINE
8
BLACK
6
CONTINUOUS
10
1.0279835039370078
20
0.6133827952755906
11
1.0235331496062992
21
0.6108133858267717
0
LINE
8
BLACK
6
CONTINUOUS
10
1.0235331496062992
20
0.6108133858267717
11
1.0185694094488189
21
0.6094833858267716
0
LINE
8
BLACK
6
CONTINUOUS
10
1.0185694094488189
20
0.6094833858267716
11
1.0134305905511811
21
0.6094833858267716
0
LINE
8
BLACK
6
CONTINUOUS
10
1.0134305905511811
20
0.6094833858267716
11
1.0084668503937009
21
0.6108133858267717
0
LINE
8
BLACK
6
CONTINUOUS
10
1.0084668503937009
20
0.6108133858267717
11
1.004016496062992
21
0.6133827952755906
0
LINE
8
BLACK
6
CONTINUOUS
10
1.004016496062992
20
0.6133827952755906
11
1.0003827952755906
21
0.6170164960629921
0
LINE
8
BLACK
6
CONTINUOUS
10
1.0003827952755906
20
0.6170164960629921
11
0.9978133858267716
21
0.6214668503937008
0
LINE
8
BLACK
6
CONTINUOUS
10
0.9978133858267716
20
0.6214668503937008
11
0.9964833858267717
21
0.6264305905511811
0
LINE
8
BLACK
6
CONTINUOUS
10
0.9964833858267717
20
0.6264305905511811
11
0.9964833858267717
21
0.6315694094488189
0
LINE
8
BLACK
6
CONTINUOUS
10
0.9964833858267717
20
0.6315694094488189
11
0.9978133858267716
21
0.6365331496062993
0
LINE
8
BLACK
6
CONTINUOUS
10
0.9978133858267716
20
0.6365331496062993
11
1.0003827952755906
21
0.6409835039370079
0
LINE
8
BLACK
6
CONTINUOUS
10
1.0003827952755906
20
0.6409835039370079
11
1.004016496062992
21
0.6446172047244094
0
LINE
8
BLACK
6
CONTINUOUS
10
1.004016496062992
20
0.6446172047244094
11
1.0084668503937009
21
0.6471866141732283
0
LINE
8
BLACK
6
CONTINUOUS
10
1.0084668503937009
20
0.6471866141732283
11
1.0134305905511811
21
0.6485166141732284
0
LINE
8
BLACK
6
CONTINUOUS
10
1.0134305905511811
20
0.6485166141732284
11
1.0185694094488189
21
0.6485166141732284
0
LINE
8
BLACK
6
CONTINUOUS
10
1.0185694094488189
20
0.6485166141732284
11
1.0235331496062992
21
0.6471866141732283
0
LINE
8
BLACK
6
CONTINUOUS
10
1.515557125984252
20
0.7717598031496062
11
1.5234890944881889
21
0.7691825590551181
0
LINE
8
BLACK
6
CONTINUOUS
10
1.5234890944881889
20
0.7691825590551181
11
1.5309201968503936
21
0.7653962204724409
0
LINE
8
BLACK
6
CONTINUOUS
10
1.5309201968503936
20
0.7653962204724409
11
1.5376675196850393
21
0.7604940157480314
0
LINE
8
BLACK
6
CONTINUOUS
10
1.5376675196850393
20
0.7604940157480314
11
1.5435648818897638
21
0.7545966535433071
0
LINE
8
BLACK
6
CONTINUOUS
10
1.5435648818897638
20
0.7545966535433071
11
1.5484670866141732
21
0.7478493307086614
0
LINE
8
BLACK
6
CONTINUOUS
10
1.5484670866141732
20
0.7478493307086614
11
1.5522534251968503
21
0.7404182283464567
0
LINE
8
BLACK
6
CONTINUOUS
10
1.5522534251968503
20
0.7404182283464567
11
1.5548306692913385
21
0.7324862598425197
0
LINE
8
BLACK
6
CONTINUOUS
10
1.5548306692913385
20
0.7324862598425197
11
1.5561353543307086
21
0.7242488188976378
0
LINE
8
BLACK
6
CONTINUOUS
10
1.5561353543307086
20
0.7242488188976378
11
1.5561353543307086
21
0.7159086614173228
0
LINE
8
BLACK
6
CONTINUOUS
10
1.5561353543307086
20
0.7159086614173228
11
1.5548306692913385
21
0.7076712204724409
0
LINE
8
BLACK
6
CONTINUOUS
10
1.5548306692913385
20
0.7076712204724409
11
1.5522534251968503
21
0.699739251968504
0
LINE
8
BLACK
6
CONTINUOUS
10
1.5522534251968503
20
0.699739251968504
11
1.5484670866141732
21
0.6923081496062992
0
LINE
8
BLACK
6
CONTINUOUS
10
1.5484670866141732
20
0.6923081496062992
11
1.5435648818897638
21
0.6855608267716535
0
LINE
8
BLACK
6
CONTINUOUS
10
1.5435648818897638
20
0.6855608267716535
11
1.5376675196850393
21
0.6796634645669292
0
LINE
8
BLACK
6
CONTINUOUS
10
1.5376675196850393
20
0.6796634645669292
11
1.5309201968503936
21
0.6747612598425197
0
LINE
8
BLACK
6
CONTINUOUS
10
1.5309201968503936
20
0.6747612598425197
11
1.5234890944881889
21
0.6709749212598425
0
LINE
8
BLACK
6
CONTINUOUS
10
1.5234890944881889
20
0.6709749212598425
11
1.515557125984252
21
0.6683976771653544
0
LINE
8
BLACK
6
CONTINUOUS
10
1.515557125984252
20
0.6683976771653544
11
1.50731968503937
21
0.6670929921259843
0
LINE
8
BLACK
6
CONTINUOUS
10
1.50731968503937
20
0.6670929921259843
11
1.4989795275590552
21
0.6670929921259843
0
LINE
8
BLACK
6
CONTINUOUS
10
1.4989795275590552
20
0.6670929921259843
11
1.4907420866141732
21
0.6683976771653544
0
LINE
8
BLACK
6
CONTINUOUS
10
1.4907420866141732
20
0.6683976771653544
11
1.4828101181102362
21
0.6709749212598425
0
LINE
8
BLACK
6
CONTINUOUS
10
1.4828101181102362
20
0.6709749212598425
11
1.4753790157480315
21
0.6747612598425197
0
LINE
8
BLACK
6
CONTINUOUS
10
1.4753790157480315
20
0.6747612598425197
11
1.4686316929133858
21
0.6796634645669292
0
LINE
8
BLACK
6
CONTINUOUS
10
1.4686316929133858
20
0.6796634645669292
11
1.4627343307086613
21
0.6855608267716535
0
LINE
8
BLACK
6
CONTINUOUS
10
1.4627343307086613
20
0.6855608267716535
11
1.4578321259842519
21
0.6923081496062992
0
LINE
8
BLACK
6
CONTINUOUS
10
1.4578321259842519
20
0.6923081496062992
11
1.4540457874015749
21
0.699739251968504
0
LINE
8
BLACK
6
CONTINUOUS
10
1.4540457874015749
20
0.699739251968504
11
1.4514685433070866
21
0.7076712204724409
0
LINE
8
BLACK
6
CONTINUOUS
10
1.4514685433070866
20
0.7076712204724409
11
1.4501638582677165
21
0.7159086614173228
0
LINE
8
BLACK
6
CONTINUOUS
10
1.4501638582677165
20
0.7159086614173228
11
1.4501638582677165
21
0.7242488188976378
0
LINE
8
BLACK
6
CONTINUOUS
10
1.4501638582677165
20
0.7242488188976378
11
1.4514685433070866
21
0.7324862598425197
0
LINE
8
BLACK
6
CONTINUOUS
10
1.4514685433070866
20
0.7324862598425197
11
1.4540457874015749
21
0.7404182283464567
0
LINE
8
BLACK
6
CONTINUOUS
10
1.4540457874015749
20
0.7404182283464567
11
1.4578321259842519
21
0.7478493307086614
0
LINE
8
BLACK
6
CONTINUOUS
10
1.4578321259842519
20
0.7478493307086614
11
1.4627343307086613
21
0.7545966535433071
0
LINE
8
BLACK
6
CONTINUOUS
10
1.4627343307086613
20
0.7545966535433071
11
1.4686316929133858
21
0.7604940157480314
0
LINE
8
BLACK
6
CONTINUOUS
10
1.4686316929133858
20
0.7604940157480314
11
1.4753790157480315
21
0.7653962204724409
0
LINE
8
BLACK
6
CONTINUOUS
10
1.4753790157480315
20
0.7653962204724409
11
1.4828101181102362
21
0.7691825590551181
0
LINE
8
BLACK
6
CONTINUOUS
10
1.4828101181102362
20
0.7691825590551181
11
1.4907420866141732
21
0.7717598031496062
0
LINE
8
BLACK
6
CONTINUOUS
10
1.4907420866141732
20
0.7717598031496062
11
1.4989795275590552
21
0.7730644881889763
0
LINE
8
BLACK
6
CONTINUOUS
10
1.4989795275590552
20
0.7730644881889763
11
1.50731968503937
21
0.7730644881889763
0
LINE
8
BLACK
6
CONTINUOUS
10
1.50731968503937
20
0.7730644881889763
11
1.515557125984252
21
0.7717598031496062
0
LINE
8
BLACK
6
CONTINUOUS
10
1.7155571259842519
20
0.7717598031496062
11
1.7234890944881889
21
0.7691825590551181
0
LINE
8
BLACK
6
CONTINUOUS
10
1.7234890944881889
20
0.7691825590551181
11
1.7309201968503936
21
0.7653962204724409
0
LINE
8
BLACK
6
CONTINUOUS
10
1.7309201968503936
20
0.7653962204724409
11
1.7376675196850393
21
0.7604940157480314
0
LINE
8
BLACK
6
CONTINUOUS
10
1.7376675196850393
20
0.7604940157480314
11
1.7435648818897638
21
0.7545966535433071
0
LINE
8
BLACK
6
CONTINUOUS
10
1.7435648818897638
20
0.7545966535433071
11
1.7484670866141732
21
0.7478493307086614
0
LINE
8
BLACK
6
CONTINUOUS
10
1.7484670866141732
20
0.7478493307086614
11
1.7522534251968505
21
0.7404182283464567
0
LINE
8
BLACK
6
CONTINUOUS
10
1.7522534251968505
20
0.7404182283464567
11
1.7548306692913385
21
0.7324862598425197
0
LINE
8
BLACK
6
CONTINUOUS
10
1.7548306692913385
20
0.7324862598425197
11
1.7561353543307086
21
0.7242488188976378
0
LINE
8
BLACK
6
CONTINUOUS
10
1.7561353543307086
20
0.7242488188976378
11
1.7561353543307086
21
0.7159086614173228
0
LINE
8
BLACK
6
CONTINUOUS
10
1.7561353543307086
20
0.7159086614173228
11
1.7548306692913385
21
0.7076712204724409
0
LINE
8
BLACK
6
CONTINUOUS
10
1.7548306692913385
20
0.7076712204724409
11
1.7522534251968505
21
0.699739251968504
0
LINE
8
BLACK
6
CONTINUOUS
10
1.7522534251968505
20
0.699739251968504
11
1.7484670866141732
21
0.6923081496062992
0
LINE
8
BLACK
6
CONTINUOUS
10
1.7484670866141732
20
0.6923081496062992
11
1.7435648818897638
21
0.6855608267716535
0
LINE
8
BLACK
6
CONTINUOUS
10
1.7435648818897638
20
0.6855608267716535
11
1.7376675196850393
21
0.6796634645669292
0
LINE
8
BLACK
6
CONTINUOUS
10
1.7376675196850393
20
0.6796634645669292
11
1.7309201968503936
21
0.6747612598425197
0
LINE
8
BLACK
6
CONTINUOUS
10
1.7309201968503936
20
0.6747612598425197
11
1.7234890944881889
21
0.6709749212598425
0
LINE
8
BLACK
6
CONTINUOUS
10
1.7234890944881889
20
0.6709749212598425
11
1.7155571259842519
21
0.6683976771653544
0
LINE
8
BLACK
6
CONTINUOUS
10
1.7155571259842519
20
0.6683976771653544
11
1.7073196850393701
21
0.6670929921259843
0
LINE
8
BLACK
6
CONTINUOUS
10
1.7073196850393701
20
0.6670929921259843
11
1.6989795275590551
21
0.6670929921259843
0
LINE
8
BLACK
6
CONTINUOUS
10
1.6989795275590551
20
0.6670929921259843
11
1.6907420866141731
21
0.6683976771653544
0
LINE
8
BLACK
6
CONTINUOUS
10
1.6907420866141731
20
0.6683976771653544
11
1.6828101181102362
21
0.6709749212598425
0
LINE
8
BLACK
6
CONTINUOUS
10
1.6828101181102362
20
0.6709749212598425
11
1.6753790157480315
21
0.6747612598425197
0
LINE
8
BLACK
6
CONTINUOUS
10
1.6753790157480315
20
0.6747612598425197
11
1.6686316929133858
21
0.6796634645669292
0
LINE
8
BLACK
6
CONTINUOUS
10
1.6686316929133858
20
0.6796634645669292
11
1.6627343307086613
21
0.6855608267716535
0
LINE
8
BLACK
6
CONTINUOUS
10
1.6627343307086613
20
0.6855608267716535
11
1.6578321259842519
21
0.6923081496062992
0
LINE
8
BLACK
6
CONTINUOUS
10
1.6578321259842519
20
0.6923081496062992
11
1.6540457874015748
21
0.699739251968504
0
LINE
8
BLACK
6
CONTINUOUS
10
1.6540457874015748
20
0.699739251968504
11
1.6514685433070866
21
0.7076712204724409
0
LINE
8
BLACK
6
CONTINUOUS
10
1.6514685433070866
20
0.7076712204724409
11
1.6501638582677165
21
0.7159086614173228
0
LINE
8
BLACK
6
CONTINUOUS
10
1.6501638582677165
20
0.7159086614173228
11
1.6501638582677165
21
0.7242488188976378
0
LINE
8
BLACK
6
CONTINUOUS
10
1.6501638582677165
20
0.7242488188976378
11
1.6514685433070866
21
0.7324862598425197
0
LINE
8
BLACK
6
CONTINUOUS
10
1.6514685433070866
20
0.7324862598425197
11
1.6540457874015748
21
0.7404182283464567
0
LINE
8
BLACK
6
CONTINUOUS
10
1.6540457874015748
20
0.7404182283464567
11
1.6578321259842519
21
0.7478493307086614
0
LINE
8
BLACK
6
CONTINUOUS
10
1.6578321259842519
20
0.7478493307086614
11
1.6627343307086613
21
0.7545966535433071
0
LINE
8
BLACK
6
CONTINUOUS
10
1.6627343307086613
20
0.7545966535433071
11
1.6686316929133858
21
0.7604940157480314
0
LINE
8
BLACK
6
CONTINUOUS
10
1.6686316929133858
20
0.7604940157480314
11
1.6753790157480315
21
0.7653962204724409
0
LINE
8
BLACK
6
CONTINUOUS
10
1.6753790157480315
20
0.7653962204724409
11
1.6828101181102362
21
0.7691825590551181
0
LINE
8
BLACK
6
CONTINUOUS
10
1.6828101181102362
20
0.7691825590551181
11
1.6907420866141731
21
0.7717598031496062
0
LINE
8
BLACK
6
CONTINUOUS
10
1.6907420866141731
20
0.7717598031496062
11
1.6989795275590551
21
0.7730644881889763
0
LINE
8
BLACK
6
CONTINUOUS
10
1.6989795275590551
20
0.7730644881889763
11
1.7073196850393701
21
0.7730644881889763
0
LINE
8
BLACK
6
CONTINUOUS
10
1.7073196850393701
20
0.7730644881889763
11
1.7155571259842519
21
0.7717598031496062
0
LINE
8
BLACK
6
CONTINUOUS
10
0.3343307086614173
20
0.6770866141732284
11
0.2743307086614173
21
0.6770866141732284
0
LINE
8
BLACK
6
CONTINUOUS
10
0.2743307086614173
20
0.6770866141732284
11
0.2743307086614173
21
0.7370866141732283
0
LINE
8
BLACK
6
CONTINUOUS
10
0.2743307086614173
20
0.7370866141732283
11
0.3343307086614173
21
0.7370866141732283
0
LINE
8
BLACK
6
CONTINUOUS
10
0.3343307086614173
20
0.7370866141732283
11
0.3343307086614173
21
0.6770866141732284
0
LINE
8
BLACK
6
CONTINUOUS
10
0.4343307086614173
20
0.6770866141732284
11
0.3743307086614173
21
0.6770866141732284
0
LINE
8
BLACK
6
CONTINUOUS
10
0.3743307086614173
20
0.6770866141732284
11
0.3743307086614173
21
0.7370866141732283
0
LINE
8
BLACK
6
CONTINUOUS
10
0.3743307086614173
20
0.7370866141732283
11
0.4343307086614173
21
0.7370866141732283
0
LINE
8
BLACK
6
CONTINUOUS
10
0.4343307086614173
20
0.7370866141732283
11
0.4343307086614173
21
0.6770866141732284
0
LINE
8
BLACK
6
CONTINUOUS
10
1.6146380708661416
20
0.8679315748031496
11
1.6219824409448818
21
0.8655452362204724
0
LINE
8
BLACK
6
CONTINUOUS
10
1.6219824409448818
20
0.8655452362204724
11
1.6288631102362205
21
0.8620393700787401
0
LINE
8
BLACK
6
CONTINUOUS
10
1.6288631102362205
20
0.8620393700787401
11
1.6351106299212599
21
0.8575002755905512
0
LINE
8
BLACK
6
CONTINUOUS
10
1.6351106299212599
20
0.8575002755905512
11
1.6405711417322835
21
0.8520397637795275
0
LINE
8
BLACK
6
CONTINUOUS
10
1.6405711417322835
20
0.8520397637795275
11
1.6451102362204724
21
0.8457922440944882
0
LINE
8
BLACK
6
CONTINUOUS
10
1.6451102362204724
20
0.8457922440944882
11
1.6486161023622048
21
0.8389115748031496
0
LINE
8
BLACK
6
CONTINUOUS
10
1.6486161023622048
20
0.8389115748031496
11
1.6510024409448818
21
0.8315672047244095
0
LINE
8
BLACK
6
CONTINUOUS
10
1.6510024409448818
20
0.8315672047244095
11
1.6522105118110235
21
0.8239399212598425
0
LINE
8
BLACK
6
CONTINUOUS
10
1.6522105118110235
20
0.8239399212598425
11
1.6522105118110235
21
0.8162175590551181
0
LINE
8
BLACK
6
CONTINUOUS
10
1.6522105118110235
20
0.8162175590551181
11
1.6510024409448818
21
0.8085902755905512
0
LINE
8
BLACK
6
CONTINUOUS
10
1.6510024409448818
20
0.8085902755905512
11
1.6486161023622048
21
0.801245905511811
0
LINE
8
BLACK
6
CONTINUOUS
10
1.6486161023622048
20
0.801245905511811
11
1.6451102362204724
21
0.7943652362204724
0
LINE
8
BLACK
6
CONTINUOUS
10
1.6451102362204724
20
0.7943652362204724
11
1.6405711417322835
21
0.7881177165354331
0
LINE
8
BLACK
6
CONTINUOUS
10
1.6405711417322835
20
0.7881177165354331
11
1.6351106299212599
21
0.7826572047244095
0
LINE
8
BLACK
6
CONTINUOUS
10
1.6351106299212599
20
0.7826572047244095
11
1.6288631102362205
21
0.7781181102362205
0
LINE
8
BLACK
6
CONTINUOUS
10
1.6288631102362205
20
0.7781181102362205
11
1.6219824409448818
21
0.7746122440944881
0
LINE
8
BLACK
6
CONTINUOUS
10
1.6219824409448818
20
0.7746122440944881
11
1.6146380708661416
21
0.772225905511811
0
LINE
8
BLACK
6
CONTINUOUS
10
1.6146380708661416
20
0.772225905511811
11
1.6070107874015747
21
0.7710178346456693
0
LINE
8
BLACK
6
CONTINUOUS
10
1.6070107874015747
20
0.7710178346456693
11
1.5992884251968504
21
0.7710178346456693
0
LINE
8
BLACK
6
CONTINUOUS
10
1.5992884251968504
20
0.7710178346456693
11
1.5916611417322835
21
0.772225905511811
0
LINE
8
BLACK
6
CONTINUOUS
10
1.5916611417322835
20
0.772225905511811
11
1.5843167716535433
21
0.7746122440944881
0
LINE
8
BLACK
6
CONTINUOUS
10
1.5843167716535433
20
0.7746122440944881
11
1.5774361023622048
21
0.7781181102362205
0
LINE
8
BLACK
6
CONTINUOUS
10
1.5774361023622048
20
0.7781181102362205
11
1.5711885826771652
21
0.7826572047244095
0
LINE
8
BLACK
6
CONTINUOUS
10
1.5711885826771652
20
0.7826572047244095
11
1.5657280708661416
21
0.7881177165354331
0
LINE
8
BLACK
6
CONTINUOUS
10
1.5657280708661416
20
0.7881177165354331
11
1.5611889763779527
21
0.7943652362204724
0
LINE
8
BLACK
6
CONTINUOUS
10
1.5611889763779527
20
0.7943652362204724
11
1.5576831102362205
21
0.801245905511811
0
LINE
8
BLACK
6
CONTINUOUS
10
1.5576831102362205
20
0.801245905511811
11
1.5552967716535433
21
0.8085902755905512
0
LINE
8
BLACK
6
CONTINUOUS
10
1.5552967716535433
20
0.8085902755905512
11
1.5540887007874016
21
0.8162175590551181
0
LINE
8
BLACK
6
CONTINUOUS
10
1.5540887007874016
20
0.8162175590551181
11
1.5540887007874016
21
0.8239399212598425
0
LINE
8
BLACK
6
CONTINUOUS
10
1.5540887007874016
20
0.8239399212598425
11
1.5552967716535433
21
0.8315672047244095
0
LINE
8
BLACK
6
CONTINUOUS
10
1.5552967716535433
20
0.8315672047244095
11
1.5576831102362205
21
0.8389115748031496
0
LINE
8
BLACK
6
CONTINUOUS
10
1.5576831102362205
20
0.8389115748031496
11
1.5611889763779527
21
0.8457922440944882
0
LINE
8
BLACK
6
CONTINUOUS
10
1.5611889763779527
20
0.8457922440944882
11
1.5657280708661416
21
0.8520397637795275
0
LINE
8
BLACK
6
CONTINUOUS
10
1.5657280708661416
20
0.8520397637795275
11
1.5711885826771652
21
0.8575002755905512
0
LINE
8
BLACK
6
CONTINUOUS
10
1.5711885826771652
20
0.8575002755905512
11
1.5774361023622048
21
0.8620393700787401
0
LINE
8
BLACK
6
CONTINUOUS
10
1.5774361023622048
20
0.8620393700787401
11
1.5843167716535433
21
0.8655452362204724
0
LINE
8
BLACK
6
CONTINUOUS
10
1.5843167716535433
20
0.8655452362204724
11
1.5916611417322835
21
0.8679315748031496
0
LINE
8
BLACK
6
CONTINUOUS
10
1.5916611417322835
20
0.8679315748031496
11
1.5992884251968504
21
0.8691396456692914
0
LINE
8
BLACK
6
CONTINUOUS
10
1.5992884251968504
20
0.8691396456692914
11
1.6070107874015747
21
0.8691396456692914
0
LINE
8
BLACK
6
CONTINUOUS
10
1.6070107874015747
20
0.8691396456692914
11
1.6146380708661416
21
0.8679315748031496
0
LINE
8
BLACK
6
CONTINUOUS
10
0.3343307086614173
20
0.7770866141732283
11
0.2743307086614173
21
0.7770866141732283
0
LINE
8
BLACK
6
CONTINUOUS
10
0.2743307086614173
20
0.7770866141732283
11
0.2743307086614173
21
0.8370866141732284
0
LINE
8
BLACK
6
CONTINUOUS
10
0.2743307086614173
20
0.8370866141732284
11
0.3343307086614173
21
0.8370866141732284
0
LINE
8
BLACK
6
CONTINUOUS
10
0.3343307086614173
20
0.8370866141732284
11
0.3343307086614173
21
0.7770866141732283
0
LINE
8
BLACK
6
CONTINUOUS
10
0.4343307086614173
20
0.7770866141732283
11
0.3743307086614173
21
0.7770866141732283
0
LINE
8
BLACK
6
CONTINUOUS
10
0.3743307086614173
20
0.7770866141732283
11
0.3743307086614173
21
0.8370866141732284
0
LINE
8
BLACK
6
CONTINUOUS
10
0.3743307086614173
20
0.8370866141732284
11
0.4343307086614173
21
0.8370866141732284
0
LINE
8
BLACK
6
CONTINUOUS
10
0.4343307086614173
20
0.8370866141732284
11
0.4343307086614173
21
0.7770866141732283
0
LINE
8
BLACK
6
CONTINUOUS
10
1.515557125984252
20
0.9717598031496063
11
1.5234890944881889
21
0.9691825590551181
0
LINE
8
BLACK
6
CONTINUOUS
10
1.5234890944881889
20
0.9691825590551181
11
1.5309201968503936
21
0.9653962204724409
0
LINE
8
BLACK
6
CONTINUOUS
10
1.5309201968503936
20
0.9653962204724409
11
1.5376675196850393
21
0.9604940157480315
0
LINE
8
BLACK
6
CONTINUOUS
10
1.5376675196850393
20
0.9604940157480315
11
1.5435648818897638
21
0.954596653543307
0
LINE
8
BLACK
6
CONTINUOUS
10
1.5435648818897638
20
0.954596653543307
11
1.5484670866141732
21
0.9478493307086614
0
LINE
8
BLACK
6
CONTINUOUS
10
1.5484670866141732
20
0.9478493307086614
11
1.5522534251968503
21
0.9404182283464567
0
LINE
8
BLACK
6
CONTINUOUS
10
1.5522534251968503
20
0.9404182283464567
11
1.5548306692913385
21
0.9324862598425196
0
LINE
8
BLACK
6
CONTINUOUS
10
1.5548306692913385
20
0.9324862598425196
11
1.5561353543307086
21
0.9242488188976378
0
LINE
8
BLACK
6
CONTINUOUS
10
1.5561353543307086
20
0.9242488188976378
11
1.5561353543307086
21
0.9159086614173229
0
LINE
8
BLACK
6
CONTINUOUS
10
1.5561353543307086
20
0.9159086614173229
11
1.5548306692913385
21
0.907671220472441
0
LINE
8
BLACK
6
CONTINUOUS
10
1.5548306692913385
20
0.907671220472441
11
1.5522534251968503
21
0.8997392519685039
0
LINE
8
BLACK
6
CONTINUOUS
10
1.5522534251968503
20
0.8997392519685039
11
1.5484670866141732
21
0.8923081496062992
0
LINE
8
BLACK
6
CONTINUOUS
10
1.5484670866141732
20
0.8923081496062992
11
1.5435648818897638
21
0.8855608267716535
0
LINE
8
BLACK
6
CONTINUOUS
10
1.5435648818897638
20
0.8855608267716535
11
1.5376675196850393
21
0.8796634645669291
0
LINE
8
BLACK
6
CONTINUOUS
10
1.5376675196850393
20
0.8796634645669291
11
1.5309201968503936
21
0.8747612598425196
0
LINE
8
BLACK
6
CONTINUOUS
10
1.5309201968503936
20
0.8747612598425196
11
1.5234890944881889
21
0.8709749212598425
0
LINE
8
BLACK
6
CONTINUOUS
10
1.5234890944881889
20
0.8709749212598425
11
1.515557125984252
21
0.8683976771653543
0
LINE
8
BLACK
6
CONTINUOUS
10
1.515557125984252
20
0.8683976771653543
11
1.50731968503937
21
0.8670929921259842
0
LINE
8
BLACK
6
CONTINUOUS
10
1.50731968503937
20
0.8670929921259842
11
1.4989795275590552
21
0.8670929921259842
0
LINE
8
BLACK
6
CONTINUOUS
10
1.4989795275590552
20
0.8670929921259842
11
1.4907420866141732
21
0.8683976771653543
0
LINE
8
BLACK
6
CONTINUOUS
10
1.4907420866141732
20
0.8683976771653543
11
1.4828101181102362
21
0.8709749212598425
0
LINE
8
BLACK
6
CONTINUOUS
10
1.4828101181102362
20
0.8709749212598425
11
1.4753790157480315
21
0.8747612598425196
0
LINE
8
BLACK
6
CONTINUOUS
10
1.4753790157480315
20
0.8747612598425196
11
1.4686316929133858
21
0.8796634645669291
0
LINE
8
BLACK
6
CONTINUOUS
10
1.4686316929133858
20
0.8796634645669291
11
1.4627343307086613
21
0.8855608267716535
0
LINE
8
BLACK
6
CONTINUOUS
10
1.4627343307086613
20
0.8855608267716535
11
1.4578321259842519
21
0.8923081496062992
0
LINE
8
BLACK
6
CONTINUOUS
10
1.4578321259842519
20
0.8923081496062992
11
1.4540457874015749
21
0.8997392519685039
0
LINE
8
BLACK
6
CONTINUOUS
10
1.4540457874015749
20
0.8997392519685039
11
1.4514685433070866
21
0.907671220472441
0
LINE
8
BLACK
6
CONTINUOUS
10
1.4514685433070866
20
0.907671220472441
11
1.4501638582677165
21
0.9159086614173229
0
LINE
8
BLACK
6
CONTINUOUS
10
1.4501638582677165
20
0.9159086614173229
11
1.4501638582677165
21
0.9242488188976378
0
LINE
8
BLACK
6
CONTINUOUS
10
1.4501638582677165
20
0.9242488188976378
11
1.4514685433070866
21
0.9324862598425196
0
LINE
8
BLACK
6
CONTINUOUS
10
1.4514685433070866
20
0.9324862598425196
11
1.4540457874015749
21
0.9404182283464567
0
LINE
8
BLACK
6
CONTINUOUS
10
1.4540457874015749
20
0.9404182283464567
11
1.4578321259842519
21
0.9478493307086614
0
LINE
8
BLACK
6
CONTINUOUS
10
1.4578321259842519
20
0.9478493307086614
11
1.4627343307086613
21
0.954596653543307
0
LINE
8
BLACK
6
CONTINUOUS
10
1.4627343307086613
20
0.954596653543307
11
1.4686316929133858
21
0.9604940157480315
0
LINE
8
BLACK
6
CONTINUOUS
10
1.4686316929133858
20
0.9604940157480315
11
1.4753790157480315
21
0.9653962204724409
0
LINE
8
BLACK
6
CONTINUOUS
10
1.4753790157480315
20
0.9653962204724409
11
1.4828101181102362
21
0.9691825590551181
0
LINE
8
BLACK
6
CONTINUOUS
10
1.4828101181102362
20
0.9691825590551181
11
1.4907420866141732
21
0.9717598031496063
0
LINE
8
BLACK
6
CONTINUOUS
10
1.4907420866141732
20
0.9717598031496063
11
1.4989795275590552
21
0.9730644881889764
0
LINE
8
BLACK
6
CONTINUOUS
10
1.4989795275590552
20
0.9730644881889764
11
1.50731968503937
21
0.9730644881889764
0
LINE
8
BLACK
6
CONTINUOUS
10
1.50731968503937
20
0.9730644881889764
11
1.515557125984252
21
0.9717598031496063
0
LINE
8
BLACK
6
CONTINUOUS
10
1.7155571259842519
20
0.9717598031496063
11
1.7234890944881889
21
0.9691825590551181
0
LINE
8
BLACK
6
CONTINUOUS
10
1.7234890944881889
20
0.9691825590551181
11
1.7309201968503936
21
0.9653962204724409
0
LINE
8
BLACK
6
CONTINUOUS
10
1.7309201968503936
20
0.9653962204724409
11
1.7376675196850393
21
0.9604940157480315
0
LINE
8
BLACK
6
CONTINUOUS
10
1.7376675196850393
20
0.9604940157480315
11
1.7435648818897638
21
0.954596653543307
0
LINE
8
BLACK
6
CONTINUOUS
10
1.7435648818897638
20
0.954596653543307
11
1.7484670866141732
21
0.9478493307086614
0
LINE
8
BLACK
6
CONTINUOUS
10
1.7484670866141732
20
0.9478493307086614
11
1.7522534251968505
21
0.9404182283464567
0
LINE
8
BLACK
6
CONTINUOUS
10
1.7522534251968505
20
0.9404182283464567
11
1.7548306692913385
21
0.9324862598425196
0
LINE
8
BLACK
6
CONTINUOUS
10
1.7548306692913385
20
0.9324862598425196
11
1.7561353543307086
21
0.9242488188976378
0
LINE
8
BLACK
6
CONTINUOUS
10
1.7561353543307086
20
0.9242488188976378
11
1.7561353543307086
21
0.9159086614173229
0
LINE
8
BLACK
6
CONTINUOUS
10
1.7561353543307086
20
0.9159086614173229
11
1.7548306692913385
21
0.907671220472441
0
LINE
8
BLACK
6
CONTINUOUS
10
1.7548306692913385
20
0.907671220472441
11
1.7522534251968505
21
0.8997392519685039
0
LINE
8
BLACK
6
CONTINUOUS
10
1.7522534251968505
20
0.8997392519685039
11
1.7484670866141732
21
0.8923081496062992
0
LINE
8
BLACK
6
CONTINUOUS
10
1.7484670866141732
20
0.8923081496062992
11
1.7435648818897638
21
0.8855608267716535
0
LINE
8
BLACK
6
CONTINUOUS
10
1.7435648818897638
20
0.8855608267716535
11
1.7376675196850393
21
0.8796634645669291
0
LINE
8
BLACK
6
CONTINUOUS
10
1.7376675196850393
20
0.8796634645669291
11
1.7309201968503936
21
0.8747612598425196
0
LINE
8
BLACK
6
CONTINUOUS
10
1.7309201968503936
20
0.8747612598425196
11
1.7234890944881889
21
0.8709749212598425
0
LINE
8
BLACK
6
CONTINUOUS
10
1.7234890944881889
20
0.8709749212598425
11
1.7155571259842519
21
0.8683976771653543
0
LINE
8
BLACK
6
CONTINUOUS
10
1.7155571259842519
20
0.8683976771653543
11
1.7073196850393701
21
0.8670929921259842
0
LINE
8
BLACK
6
CONTINUOUS
10
1.7073196850393701
20
0.8670929921259842
11
1.6989795275590551
21
0.8670929921259842
0
LINE
8
BLACK
6
CONTINUOUS
10
1.6989795275590551
20
0.8670929921259842
11
1.6907420866141731
21
0.8683976771653543
0
LINE
8
BLACK
6
CONTINUOUS
10
1.6907420866141731
20
0.8683976771653543
11
1.6828101181102362
21
0.8709749212598425
0
LINE
8
BLACK
6
CONTINUOUS
10
1.6828101181102362
20
0.8709749212598425
11
1.6753790157480315
21
0.8747612598425196
0
LINE
8
BLACK
6
CONTINUOUS
10
1.6753790157480315
20
0.8747612598425196
11
1.6686316929133858
21
0.8796634645669291
0
LINE
8
BLACK
6
CONTINUOUS
10
1.6686316929133858
20
0.8796634645669291
11
1.6627343307086613
21
0.8855608267716535
0
LINE
8
BLACK
6
CONTINUOUS
10
1.6627343307086613
20
0.8855608267716535
11
1.6578321259842519
21
0.8923081496062992
0
LINE
8
BLACK
6
CONTINUOUS
10
1.6578321259842519
20
0.8923081496062992
11
1.6540457874015748
21
0.8997392519685039
0
LINE
8
BLACK
6
CONTINUOUS
10
1.6540457874015748
20
0.8997392519685039
11
1.6514685433070866
21
0.907671220472441
0
LINE
8
BLACK
6
CONTINUOUS
10
1.6514685433070866
20
0.907671220472441
11
1.6501638582677165
21
0.9159086614173229
0
LINE
8
BLACK
6
CONTINUOUS
10
1.6501638582677165
20
0.9159086614173229
11
1.6501638582677165
21
0.9242488188976378
0
LINE
8
BLACK
6
CONTINUOUS
10
1.6501638582677165
20
0.9242488188976378
11
1.6514685433070866
21
0.9324862598425196
0
LINE
8
BLACK
6
CONTINUOUS
10
1.6514685433070866
20
0.9324862598425196
11
1.6540457874015748
21
0.9404182283464567
0
LINE
8
BLACK
6
CONTINUOUS
10
1.6540457874015748
20
0.9404182283464567
11
1.6578321259842519
21
0.9478493307086614
0
LINE
8
BLACK
6
CONTINUOUS
10
1.6578321259842519
20
0.9478493307086614
11
1.6627343307086613
21
0.954596653543307
0
LINE
8
BLACK
6
CONTINUOUS
10
1.6627343307086613
20
0.954596653543307
11
1.6686316929133858
21
0.9604940157480315
0
LINE
8
BLACK
6
CONTINUOUS
10
1.6686316929133858
20
0.9604940157480315
11
1.6753790157480315
21
0.9653962204724409
0
LINE
8
BLACK
6
CONTINUOUS
10
1.6753790157480315
20
0.9653962204724409
11
1.6828101181102362
21
0.9691825590551181
0
LINE
8
BLACK
6
CONTINUOUS
10
1.6828101181102362
20
0.9691825590551181
11
1.6907420866141731
21
0.9717598031496063
0
LINE
8
BLACK
6
CONTINUOUS
10
1.6907420866141731
20
0.9717598031496063
11
1.6989795275590551
21
0.9730644881889764
0
LINE
8
BLACK
6
CONTINUOUS
10
1.6989795275590551
20
0.9730644881889764
11
1.7073196850393701
21
0.9730644881889764
0
LINE
8
BLACK
6
CONTINUOUS
10
1.7073196850393701
20
0.9730644881889764
11
1.7155571259842519
21
0.9717598031496063
0
LINE
8
BLACK
6
CONTINUOUS
10
0.3343307086614173
20
0.8770866141732283
11
0.2743307086614173
21
0.8770866141732283
0
LINE
8
BLACK
6
CONTINUOUS
10
0.2743307086614173
20
0.8770866141732283
11
0.2743307086614173
21
0.9370866141732284
0
LINE
8
BLACK
6
CONTINUOUS
10
0.2743307086614173
20
0.9370866141732284
11
0.3343307086614173
21
0.9370866141732284
0
LINE
8
BLACK
6
CONTINUOUS
10
0.3343307086614173
20
0.9370866141732284
11
0.3343307086614173
21
0.8770866141732283
0
LINE
8
BLACK
6
CONTINUOUS
10
0.4343307086614173
20
0.8770866141732283
11
0.3743307086614173
21
0.8770866141732283
0
LINE
8
BLACK
6
CONTINUOUS
10
0.3743307086614173
20
0.8770866141732283
11
0.3743307086614173
21
0.9370866141732284
0
LINE
8
BLACK
6
CONTINUOUS
10
0.3743307086614173
20
0.9370866141732284
11
0.4343307086614173
21
0.9370866141732284
0
LINE
8
BLACK
6
CONTINUOUS
10
0.4343307086614173
20
0.9370866141732284
11
0.4343307086614173
21
0.8770866141732283
0
LINE
8
BLACK
6
CONTINUOUS
10
0.4197842125984252
20
1.3164414566929135
11
0.432697125984252
21
1.3134941732283465
0
LINE
8
BLACK
6
CONTINUOUS
10
0.432697125984252
20
1.3134941732283465
11
0.4451988188976378
21
1.3091196456692913
0
LINE
8
BLACK
6
CONTINUOUS
10
0.4451988188976378
20
1.3091196456692913
11
0.4571321653543307
21
1.3033728346456692
0
LINE
8
BLACK
6
CONTINUOUS
10
0.4571321653543307
20
1.3033728346456692
11
0.4683470078740157
21
1.2963261023622048
0
LINE
8
BLACK
6
CONTINUOUS
10
0.4683470078740157
20
1.2963261023622048
11
0.4787023622047244
21
1.2880679527559056
0
LINE
8
BLACK
6
CONTINUOUS
10
0.4787023622047244
20
1.2880679527559056
11
0.4880679527559055
21
1.2787023622047244
0
LINE
8
BLACK
6
CONTINUOUS
10
0.4880679527559055
20
1.2787023622047244
11
0.4963261023622047
21
1.2683470078740158
0
LINE
8
BLACK
6
CONTINUOUS
10
0.4963261023622047
20
1.2683470078740158
11
0.5033728346456693
21
1.2571321653543306
0
LINE
8
BLACK
6
CONTINUOUS
10
0.5033728346456693
20
1.2571321653543306
11
0.5091196456692914
21
1.2451988188976377
0
LINE
8
BLACK
6
CONTINUOUS
10
0.5091196456692914
20
1.2451988188976377
11
0.5134941732283465
21
1.2326971259842519
0
LINE
8
BLACK
6
CONTINUOUS
10
0.5134941732283465
20
1.2326971259842519
11
0.5164414566929134
21
1.2197842125984251
0
LINE
8
BLACK
6
CONTINUOUS
10
0.5164414566929134
20
1.2197842125984251
11
0.5179244094488189
21
1.2066224803149606
0
LINE
8
BLACK
6
CONTINUOUS
10
0.5179244094488189
20
1.2066224803149606
11
0.5179244094488189
21
1.1933775196850394
0
LINE
8
BLACK
6
CONTINUOUS
10
0.5179244094488189
20
1.1933775196850394
11
0.5164414566929134
21
1.1802157874015748
0
LINE
8
BLACK
6
CONTINUOUS
10
0.5164414566929134
20
1.1802157874015748
11
0.5134941732283465
21
1.1673028740157481
0
LINE
8
BLACK
6
CONTINUOUS
10
0.5134941732283465
20
1.1673028740157481
11
0.5091196456692914
21
1.1548011811023622
0
LINE
8
BLACK
6
CONTINUOUS
10
0.5091196456692914
20
1.1548011811023622
11
0.5033728346456693
21
1.1428678346456693
0
LINE
8
BLACK
6
CONTINUOUS
10
0.5033728346456693
20
1.1428678346456693
11
0.4963261023622047
21
1.1316529921259841
0
LINE
8
BLACK
6
CONTINUOUS
10
0.4963261023622047
20
1.1316529921259841
11
0.4880679527559055
21
1.1212976377952755
0
LINE
8
BLACK
6
CONTINUOUS
10
0.4880679527559055
20
1.1212976377952755
11
0.4787023622047244
21
1.1119320472440946
0
LINE
8
BLACK
6
CONTINUOUS
10
0.4787023622047244
20
1.1119320472440946
11
0.4683470078740157
21
1.1036738976377953
0
LINE
8
BLACK
6
CONTINUOUS
10
0.4683470078740157
20
1.1036738976377953
11
0.4571321653543307
21
1.0966271653543307
0
LINE
8
BLACK
6
CONTINUOUS
10
0.4571321653543307
20
1.0966271653543307
11
0.4451988188976378
21
1.0908803543307086
0
LINE
8
BLACK
6
CONTINUOUS
10
0.4451988188976378
20
1.0908803543307086
11
0.432697125984252
21
1.0865058267716534
0
LINE
8
BLACK
6
CONTINUOUS
10
0.432697125984252
20
1.0865058267716534
11
0.4197842125984252
21
1.0835585433070867
0
LINE
8
BLACK
6
CONTINUOUS
10
0.4197842125984252
20
1.0835585433070867
11
0.4066224803149606
21
1.0820755905511812
0
LINE
8
BLACK
6
CONTINUOUS
10
0.4066224803149606
20
1.0820755905511812
11
0.3933775196850394
21
1.0820755905511812
0
LINE
8
BLACK
6
CONTINUOUS
10
0.3933775196850394
20
1.0820755905511812
11
0.3802157874015748
21
1.0835585433070867
0
LINE
8
BLACK
6
CONTINUOUS
10
0.3802157874015748
20
1.0835585433070867
11
0.367302874015748
21
1.0865058267716534
0
LINE
8
BLACK
6
CONTINUOUS
10
0.367302874015748
20
1.0865058267716534
11
0.3548011811023622
21
1.0908803543307086
0
LINE
8
BLACK
6
CONTINUOUS
10
0.3548011811023622
20
1.0908803543307086
11
0.3428678346456693
21
1.0966271653543307
0
LINE
8
BLACK
6
CONTINUOUS
10
0.3428678346456693
20
1.0966271653543307
11
0.3316529921259843
21
1.1036738976377953
0
LINE
8
BLACK
6
CONTINUOUS
10
0.3316529921259843
20
1.1036738976377953
11
0.3212976377952756
21
1.1119320472440946
0
LINE
8
BLACK
6
CONTINUOUS
10
0.3212976377952756
20
1.1119320472440946
11
0.3119320472440945
21
1.1212976377952755
0
LINE
8
BLACK
6
CONTINUOUS
10
0.3119320472440945
20
1.1212976377952755
11
0.3036738976377953
21
1.1316529921259841
0
LINE
8
BLACK
6
CONTINUOUS
10
0.3036738976377953
20
1.1316529921259841
11
0.2966271653543307
21
1.1428678346456693
0
LINE
8
BLACK
6
CONTINUOUS
10
0.2966271653543307
20
1.1428678346456693
11
0.2908803543307086
21
1.1548011811023622
0
LINE
8
BLACK
6
CONTINUOUS
10
0.2908803543307086
20
1.1548011811023622
11
0.2865058267716535
21
1.1673028740157481
0
LINE
8
BLACK
6
CONTINUOUS
10
0.2865058267716535
20
1.1673028740157481
11
0.2835585433070866
21
1.1802157874015748
0
LINE
8
BLACK
6
CONTINUOUS
10
0.2835585433070866
20
1.1802157874015748
11
0.2820755905511811
21
1.1933775196850394
0
LINE
8
BLACK
6
CONTINUOUS
10
0.2820755905511811
20
1.1933775196850394
11
0.2820755905511811
21
1.2066224803149606
0
LINE
8
BLACK
6
CONTINUOUS
10
0.2820755905511811
20
1.2066224803149606
11
0.2835585433070866
21
1.2197842125984251
0
LINE
8
BLACK
6
CONTINUOUS
10
0.2835585433070866
20
1.2197842125984251
11
0.2865058267716535
21
1.2326971259842519
0
LINE
8
BLACK
6
CONTINUOUS
10
0.2865058267716535
20
1.2326971259842519
11
0.2908803543307086
21
1.2451988188976377
0
LINE
8
BLACK
6
CONTINUOUS
10
0.2908803543307086
20
1.2451988188976377
11
0.2966271653543307
21
1.2571321653543306
0
LINE
8
BLACK
6
CONTINUOUS
10
0.2966271653543307
20
1.2571321653543306
11
0.3036738976377953
21
1.2683470078740158
0
LINE
8
BLACK
6
CONTINUOUS
10
0.3036738976377953
20
1.2683470078740158
11
0.3119320472440945
21
1.2787023622047244
0
LINE
8
BLACK
6
CONTINUOUS
10
0.3119320472440945
20
1.2787023622047244
11
0.3212976377952756
21
1.2880679527559056
0
LINE
8
BLACK
6
CONTINUOUS
10
0.3212976377952756
20
1.2880679527559056
11
0.3316529921259843
21
1.2963261023622048
0
LINE
8
BLACK
6
CONTINUOUS
10
0.3316529921259843
20
1.2963261023622048
11
0.3428678346456693
21
1.3033728346456692
0
LINE
8
BLACK
6
CONTINUOUS
10
0.3428678346456693
20
1.3033728346456692
11
0.3548011811023622
21
1.3091196456692913
0
LINE
8
BLACK
6
CONTINUOUS
10
0.3548011811023622
20
1.3091196456692913
11
0.367302874015748
21
1.3134941732283465
0
LINE
8
BLACK
6
CONTINUOUS
10
0.367302874015748
20
1.3134941732283465
11
0.3802157874015748
21
1.3164414566929135
0
LINE
8
BLACK
6
CONTINUOUS
10
0.3802157874015748
20
1.3164414566929135
11
0.3933775196850394
21
1.3179244094488189
0
LINE
8
BLACK
6
CONTINUOUS
10
0.3933775196850394
20
1.3179244094488189
11
0.4066224803149606
21
1.3179244094488189
0
LINE
8
BLACK
6
CONTINUOUS
10
0.4066224803149606
20
1.3179244094488189
11
0.4197842125984252
21
1.3164414566929135
0
LINE
8
BLACK
6
CONTINUOUS
10
1.6197842125984252
20
1.3164414566929135
11
1.632697125984252
21
1.3134941732283465
0
LINE
8
BLACK
6
CONTINUOUS
10
1.632697125984252
20
1.3134941732283465
11
1.6451988188976379
21
1.3091196456692913
0
LINE
8
BLACK
6
CONTINUOUS
10
1.6451988188976379
20
1.3091196456692913
11
1.6571321653543307
21
1.3033728346456692
0
LINE
8
BLACK
6
CONTINUOUS
10
1.6571321653543307
20
1.3033728346456692
11
1.6683470078740157
21
1.2963261023622048
0
LINE
8
BLACK
6
CONTINUOUS
10
1.6683470078740157
20
1.2963261023622048
11
1.6787023622047244
21
1.2880679527559056
0
LINE
8
BLACK
6
CONTINUOUS
10
1.6787023622047244
20
1.2880679527559056
11
1.6880679527559055
21
1.2787023622047244
0
LINE
8
BLACK
6
CONTINUOUS
10
1.6880679527559055
20
1.2787023622047244
11
1.6963261023622047
21
1.2683470078740158
0
LINE
8
BLACK
6
CONTINUOUS
10
1.6963261023622047
20
1.2683470078740158
11
1.7033728346456694
21
1.2571321653543306
0
LINE
8
BLACK
6
CONTINUOUS
10
1.7033728346456694
20
1.2571321653543306
11
1.7091196456692912
21
1.2451988188976377
0
LINE
8
BLACK
6
CONTINUOUS
10
1.7091196456692912
20
1.2451988188976377
11
1.7134941732283464
21
1.2326971259842519
0
LINE
8
BLACK
6
CONTINUOUS
10
1.7134941732283464
20
1.2326971259842519
11
1.7164414566929134
21
1.2197842125984251
0
LINE
8
BLACK
6
CONTINUOUS
10
1.7164414566929134
20
1.2197842125984251
11
1.7179244094488189
21
1.2066224803149606
0
LINE
8
BLACK
6
CONTINUOUS
10
1.7179244094488189
20
1.2066224803149606
11
1.7179244094488189
21
1.1933775196850394
0
LINE
8
BLACK
6
CONTINUOUS
10
1.7179244094488189
20
1.1933775196850394
11
1.7164414566929134
21
1.1802157874015748
0
LINE
8
BLACK
6
CONTINUOUS
10
1.7164414566929134
20
1.1802157874015748
11
1.7134941732283464
21
1.1673028740157481
0
LINE
8
BLACK
6
CONTINUOUS
10
1.7134941732283464
20
1.1673028740157481
11
1.7091196456692912
21
1.1548011811023622
0
LINE
8
BLACK
6
CONTINUOUS
10
1.7091196456692912
20
1.1548011811023622
11
1.7033728346456694
21
1.1428678346456693
0
LINE
8
BLACK
6
CONTINUOUS
10
1.7033728346456694
20
1.1428678346456693
11
1.6963261023622047
21
1.1316529921259841
0
LINE
8
BLACK
6
CONTINUOUS
10
1.6963261023622047
20
1.1316529921259841
11
1.6880679527559055
21
1.1212976377952755
0
LINE
8
BLACK
6
CONTINUOUS
10
1.6880679527559055
20
1.1212976377952755
11
1.6787023622047244
21
1.1119320472440946
0
LINE
8
BLACK
6
CONTINUOUS
10
1.6787023622047244
20
1.1119320472440946
11
1.6683470078740157
21
1.1036738976377953
0
LINE
8
BLACK
6
CONTINUOUS
10
1.6683470078740157
20
1.1036738976377953
11
1.6571321653543307
21
1.0966271653543307
0
LINE
8
BLACK
6
CONTINUOUS
10
1.6571321653543307
20
1.0966271653543307
11
1.6451988188976379
21
1.0908803543307086
0
LINE
8
BLACK
6
CONTINUOUS
10
1.6451988188976379
20
1.0908803543307086
11
1.632697125984252
21
1.0865058267716534
0
LINE
8
BLACK
6
CONTINUOUS
10
1.632697125984252
20
1.0865058267716534
11
1.6197842125984252
21
1.0835585433070867
0
LINE
8
BLACK
6
CONTINUOUS
10
1.6197842125984252
20
1.0835585433070867
11
1.6066224803149607
21
1.0820755905511812
0
LINE
8
BLACK
6
CONTINUOUS
10
1.6066224803149607
20
1.0820755905511812
11
1.5933775196850393
21
1.0820755905511812
0
LINE
8
BLACK
6
CONTINUOUS
10
1.5933775196850393
20
1.0820755905511812
11
1.5802157874015748
21
1.0835585433070867
0
LINE
8
BLACK
6
CONTINUOUS
10
1.5802157874015748
20
1.0835585433070867
11
1.567302874015748
21
1.0865058267716534
0
LINE
8
BLACK
6
CONTINUOUS
10
1.567302874015748
20
1.0865058267716534
11
1.5548011811023621
21
1.0908803543307086
0
LINE
8
BLACK
6
CONTINUOUS
10
1.5548011811023621
20
1.0908803543307086
11
1.5428678346456692
21
1.0966271653543307
0
LINE
8
BLACK
6
CONTINUOUS
10
1.5428678346456692
20
1.0966271653543307
11
1.5316529921259843
21
1.1036738976377953
0
LINE
8
BLACK
6
CONTINUOUS
10
1.5316529921259843
20
1.1036738976377953
11
1.5212976377952756
21
1.1119320472440946
0
LINE
8
BLACK
6
CONTINUOUS
10
1.5212976377952756
20
1.1119320472440946
11
1.5119320472440945
21
1.1212976377952755
0
LINE
8
BLACK
6
CONTINUOUS
10
1.5119320472440945
20
1.1212976377952755
11
1.5036738976377952
21
1.1316529921259841
0
LINE
8
BLACK
6
CONTINUOUS
10
1.5036738976377952
20
1.1316529921259841
11
1.4966271653543306
21
1.1428678346456693
0
LINE
8
BLACK
6
CONTINUOUS
10
1.4966271653543306
20
1.1428678346456693
11
1.4908803543307085
21
1.1548011811023622
0
LINE
8
BLACK
6
CONTINUOUS
10
1.4908803543307085
20
1.1548011811023622
11
1.4865058267716535
21
1.1673028740157481
0
LINE
8
BLACK
6
CONTINUOUS
10
1.4865058267716535
20
1.1673028740157481
11
1.4835585433070866
21
1.1802157874015748
0
LINE
8
BLACK
6
CONTINUOUS
10
1.4835585433070866
20
1.1802157874015748
11
1.4820755905511811
21
1.1933775196850394
0
LINE
8
BLACK
6
CONTINUOUS
10
1.4820755905511811
20
1.1933775196850394
11
1.4820755905511811
21
1.2066224803149606
0
LINE
8
BLACK
6
CONTINUOUS
10
1.4820755905511811
20
1.2066224803149606
11
1.4835585433070866
21
1.2197842125984251
0
LINE
8
BLACK
6
CONTINUOUS
10
1.4835585433070866
20
1.2197842125984251
11
1.4865058267716535
21
1.2326971259842519
0
LINE
8
BLACK
6
CONTINUOUS
10
1.4865058267716535
20
1.2326971259842519
11
1.4908803543307085
21
1.2451988188976377
0
LINE
8
BLACK
6
CONTINUOUS
10
1.4908803543307085
20
1.2451988188976377
11
1.4966271653543306
21
1.2571321653543306
0
LINE
8
BLACK
6
CONTINUOUS
10
1.4966271653543306
20
1.2571321653543306
11
1.5036738976377952
21
1.2683470078740158
0
LINE
8
BLACK
6
CONTINUOUS
10
1.5036738976377952
20
1.2683470078740158
11
1.5119320472440945
21
1.2787023622047244
0
LINE
8
BLACK
6
CONTINUOUS
10
1.5119320472440945
20
1.2787023622047244
11
1.5212976377952756
21
1.2880679527559056
0
LINE
8
BLACK
6
CONTINUOUS
10
1.5212976377952756
20
1.2880679527559056
11
1.5316529921259843
21
1.2963261023622048
0
LINE
8
BLACK
6
CONTINUOUS
10
1.5316529921259843
20
1.2963261023622048
11
1.5428678346456692
21
1.3033728346456692
0
LINE
8
BLACK
6
CONTINUOUS
10
1.5428678346456692
20
1.3033728346456692
11
1.5548011811023621
21
1.3091196456692913
0
LINE
8
BLACK
6
CONTINUOUS
10
1.5548011811023621
20
1.3091196456692913
11
1.567302874015748
21
1.3134941732283465
0
LINE
8
BLACK
6
CONTINUOUS
10
1.567302874015748
20
1.3134941732283465
11
1.5802157874015748
21
1.3164414566929135
0
LINE
8
BLACK
6
CONTINUOUS
10
1.5802157874015748
20
1.3164414566929135
11
1.5933775196850393
21
1.3179244094488189
0
LINE
8
BLACK
6
CONTINUOUS
10
1.5933775196850393
20
1.3179244094488189
11
1.6066224803149607
21
1.3179244094488189
0
LINE
8
BLACK
6
CONTINUOUS
10
1.6066224803149607
20
1.3179244094488189
11
1.6197842125984252
21
1.3164414566929135
0
LINE
8
BLACK
6
CONTINUOUS
10
0.942992125984252
20
1.1633070866141733
11
0.8829921259842519
21
1.1633070866141733
0
LINE
8
BLACK
6
CONTINUOUS
10
0.8829921259842519
20
1.1633070866141733
11
0.8829921259842519
21
1.2233070866141733
0
LINE
8
BLACK
6
CONTINUOUS
10
0.8829921259842519
20
1.2233070866141733
11
0.942992125984252
21
1.2233070866141733
0
LINE
8
BLACK
6
CONTINUOUS
10
0.942992125984252
20
1.2233070866141733
11
0.942992125984252
21
1.1633070866141733
0
LINE
8
BLACK
6
CONTINUOUS
10
1.0429921259842518
20
1.1633070866141733
11
0.9829921259842519
21
1.1633070866141733
0
LINE
8
BLACK
6
CONTINUOUS
10
0.9829921259842519
20
1.1633070866141733
11
0.9829921259842519
21
1.2233070866141733
0
LINE
8
BLACK
6
CONTINUOUS
10
0.9829921259842519
20
1.2233070866141733
11
1.0429921259842518
21
1.2233070866141733
0
LINE
8
BLACK
6
CONTINUOUS
10
1.0429921259842518
20
1.2233070866141733
11
1.0429921259842518
21
1.1633070866141733
0
LINE
8
BLACK
6
CONTINUOUS
10
1.1429921259842519
20
1.1633070866141733
11
1.0829921259842519
21
1.1633070866141733
0
LINE
8
BLACK
6
CONTINUOUS
10
1.0829921259842519
20
1.1633070866141733
11
1.0829921259842519
21
1.2233070866141733
0
LINE
8
BLACK
6
CONTINUOUS
10
1.0829921259842519
20
1.2233070866141733
11
1.1429921259842519
21
1.2233070866141733
0
LINE
8
BLACK
6
CONTINUOUS
10
1.1429921259842519
20
1.2233070866141733
11
1.1429921259842519
21
1.1633070866141733
0
LINE
8
BLACK
6
CONTINUOUS
10
1.242992125984252
20
1.1633070866141733
11
1.182992125984252
21
1.1633070866141733
0
LINE
8
BLACK
6
CONTINUOUS
10
1.182992125984252
20
1.1633070866141733
11
1.182992125984252
21
1.2233070866141733
0
LINE
8
BLACK
6
CONTINUOUS
10
1.182992125984252
20
1.2233070866141733
11
1.242992125984252
21
1.2233070866141733
0
LINE
8
BLACK
6
CONTINUOUS
10
1.242992125984252
20
1.2233070866141733
11
1.242992125984252
21
1.1633070866141733
0
LINE
8
BLACK
6
CONTINUOUS
10
0.942992125984252
20
1.2633070866141731
11
0.8829921259842519
21
1.2633070866141731
0
LINE
8
BLACK
6
CONTINUOUS
10
0.8829921259842519
20
1.2633070866141731
11
0.8829921259842519
21
1.3233070866141732
0
LINE
8
BLACK
6
CONTINUOUS
10
0.8829921259842519
20
1.3233070866141732
11
0.942992125984252
21
1.3233070866141732
0
LINE
8
BLACK
6
CONTINUOUS
10
0.942992125984252
20
1.3233070866141732
11
0.942992125984252
21
1.2633070866141731
0
LINE
8
BLACK
6
CONTINUOUS
10
1.0429921259842518
20
1.2633070866141731
11
0.9829921259842519
21
1.2633070866141731
0
LINE
8
BLACK
6
CONTINUOUS
10
0.9829921259842519
20
1.2633070866141731
11
0.9829921259842519
21
1.3233070866141732
0
LINE
8
BLACK
6
CONTINUOUS
10
0.9829921259842519
20
1.3233070866141732
11
1.0429921259842518
21
1.3233070866141732
0
LINE
8
BLACK
6
CONTINUOUS
10
1.0429921259842518
20
1.3233070866141732
11
1.0429921259842518
21
1.2633070866141731
0
LINE
8
BLACK
6
CONTINUOUS
10
1.1429921259842519
20
1.2633070866141731
11
1.0829921259842519
21
1.2633070866141731
0
LINE
8
BLACK
6
CONTINUOUS
10
1.0829921259842519
20
1.2633070866141731
11
1.0829921259842519
21
1.3233070866141732
0
LINE
8
BLACK
6
CONTINUOUS
10
1.0829921259842519
20
1.3233070866141732
11
1.1429921259842519
21
1.3233070866141732
0
LINE
8
BLACK
6
CONTINUOUS
10
1.1429921259842519
20
1.3233070866141732
11
1.1429921259842519
21
1.2633070866141731
0
LINE
8
BLACK
6
CONTINUOUS
10
1.242992125984252
20
1.2633070866141731
11
1.182992125984252
21
1.2633070866141731
0
LINE
8
BLACK
6
CONTINUOUS
10
1.182992125984252
20
1.2633070866141731
11
1.182992125984252
21
1.3233070866141732
0
LINE
8
BLACK
6
CONTINUOUS
10
1.182992125984252
20
1.3233070866141732
11
1.242992125984252
21
1.3233070866141732
0
LINE
8
BLACK
6
CONTINUOUS
10
1.242992125984252
20
1.3233070866141732
11
1.242992125984252
21
1.2633070866141731
0
CIRCLE
8
BLACK
10
0.9129921259842519
20
1.1933070866141733
40
0.0068897637795276
0
CIRCLE
8
BLACK
10
0.9129921259842519
20
1.2933070866141732
40
0.0068897637795276
0
CIRCLE
8
BLACK
10
1.012992125984252
20
1.1933070866141733
40
0.0068897637795276
0
CIRCLE
8
BLACK
10
1.012992125984252
20
1.2933070866141732
40
0.0068897637795276
0
CIRCLE
8
BLACK
10
1.1129921259842519
20
1.1933070866141733
40
0.0068897637795276
0
CIRCLE
8
BLACK
10
1.1129921259842519
20
1.2933070866141732
40
0.0068897637795276
0
CIRCLE
8
BLACK
10
1.212992125984252
20
1.1933070866141733
40
0.0068897637795276
0
CIRCLE
8
BLACK
10
1.212992125984252
20
1.2933070866141732
40
0.0068897637795276
0
CIRCLE
8
BLACK
10
1.6031496062992125
20
0.8200787401574803
40
0.0068897637795276
0
CIRCLE
8
BLACK
10
1.7031496062992126
20
0.9200787401574803
40
0.0068897637795276
0
CIRCLE
8
BLACK
10
1.5031496062992125
20
0.9200787401574803
40
0.0068897637795276
0
CIRCLE
8
BLACK
10
1.7031496062992126
20
0.7200787401574803
40
0.0068897637795276
0
CIRCLE
8
BLACK
10
1.5031496062992125
20
0.7200787401574803
40
0.0068897637795276
0
CIRCLE
8
BLACK
10
0.4
20
0.4
40
0.0068897637795276
0
CIRCLE
8
BLACK
10
1.5999999999999999
20
1.2
40
0.0068897637795276
0
CIRCLE
8
BLACK
10
1.5999999999999999
20
0.4
40
0.0068897637795276
0
CIRCLE
8
BLACK
10
0.4
20
1.2
40
0.0068897637795276
0
CIRCLE
8
BLACK
10
0.3043307086614173
20
0.9070866141732283
40
0.0068897637795276
0
CIRCLE
8
BLACK
10
0.4043307086614173
20
0.9070866141732283
40
0.0068897637795276
0
CIRCLE
8
BLACK
10
0.3043307086614173
20
0.8070866141732284
40
0.0068897637795276
0
CIRCLE
8
BLACK
10
0.4043307086614173
20
0.8070866141732284
40
0.0068897637795276
0
CIRCLE
8
BLACK
10
0.3043307086614173
20
0.7070866141732284
40
0.0068897637795276
0
CIRCLE
8
BLACK
10
0.4043307086614173
20
0.7070866141732284
40
0.0068897637795276
0
CIRCLE
8
BLACK
10
0.9129921259842519
20
0.2989173228346457
40
0.0068897637795276
0
CIRCLE
8
BLACK
10
0.9129921259842519
20
0.3989173228346456
40
0.0068897637795276
0
CIRCLE
8
BLACK
10
1.012992125984252
20
0.2989173228346457
40
0.0068897637795276
0
CIRCLE
8
BLACK
10
1.012992125984252
20
0.3989173228346456
40
0.0068897637795276
0
CIRCLE
8
BLACK
10
1.1129921259842519
20
0.2989173228346457
40
0.0068897637795276
0
CIRCLE
8
BLACK
10
1.1129921259842519
20
0.3989173228346456
40
0.0068897637795276
0
CIRCLE
8
BLACK
10
1.212992125984252
20
0.2989173228346457
40
0.0068897637795276
0
CIRCLE
8
BLACK
10
1.212992125984252
20
0.3989173228346456
40
0.0068897637795276
0
CIRCLE
8
WHITE
10
0.9129921259842519
20
1.1933070866141733
40
0.0068897637795276
0
CIRCLE
8
WHITE
10
0.9129921259842519
20
1.2933070866141732
40
0.0068897637795276
0
CIRCLE
8
WHITE
10
1.012992125984252
20
1.1933070866141733
40
0.0068897637795276
0
CIRCLE
8
WHITE
10
1.012992125984252
20
1.2933070866141732
40
0.0068897637795276
0
CIRCLE
8
WHITE
10
1.1129921259842519
20
1.1933070866141733
40
0.0068897637795276
0
CIRCLE
8
WHITE
10
1.1129921259842519
20
1.2933070866141732
40
0.0068897637795276
0
CIRCLE
8
WHITE
10
1.212992125984252
20
1.1933070866141733
40
0.0068897637795276
0
CIRCLE
8
WHITE
10
1.212992125984252
20
1.2933070866141732
40
0.0068897637795276
0
CIRCLE
8
WHITE
10
1.6031496062992125
20
0.8200787401574803
40
0.0068897637795276
0
CIRCLE
8
WHITE
10
1.7031496062992126
20
0.9200787401574803
40
0.0068897637795276
0
CIRCLE
8
WHITE
10
1.5031496062992125
20
0.9200787401574803
40
0.0068897637795276
0
CIRCLE
8
WHITE
10
1.7031496062992126
20
0.7200787401574803
40
0.0068897637795276
0
CIRCLE
8
WHITE
10
1.5031496062992125
20
0.7200787401574803
40
0.0068897637795276
0
CIRCLE
8
WHITE
10
0.4
20
0.4
40
0.0068897637795276
0
CIRCLE
8
WHITE
10
1.5999999999999999
20
1.2
40
0.0068897637795276
0
CIRCLE
8
WHITE
10
1.5999999999999999
20
0.4
40
0.0068897637795276
0
CIRCLE
8
WHITE
10
0.4
20
1.2
40
0.0068897637795276
0
CIRCLE
8
WHITE
10
0.3043307086614173
20
0.9070866141732283
40
0.0068897637795276
0
CIRCLE
8
WHITE
10
0.4043307086614173
20
0.9070866141732283
40
0.0068897637795276
0
CIRCLE
8
WHITE
10
0.3043307086614173
20
0.8070866141732284
40
0.0068897637795276
0
CIRCLE
8
WHITE
10
0.4043307086614173
20
0.8070866141732284
40
0.0068897637795276
0
CIRCLE
8
WHITE
10
0.3043307086614173
20
0.7070866141732284
40
0.0068897637795276
0
CIRCLE
8
WHITE
10
0.4043307086614173
20
0.7070866141732284
40
0.0068897637795276
0
CIRCLE
8
WHITE
10
0.9129921259842519
20
0.2989173228346457
40
0.0068897637795276
0
CIRCLE
8
WHITE
10
0.9129921259842519
20
0.3989173228346456
40
0.0068897637795276
0
CIRCLE
8
WHITE
10
1.012992125984252
20
0.2989173228346457
40
0.0068897637795276
0
CIRCLE
8
WHITE
10
1.012992125984252
20
0.3989173228346456
40
0.0068897637795276
0
CIRCLE
8
WHITE
10
1.1129921259842519
20
0.2989173228346457
40
0.0068897637795276
0
CIRCLE
8
WHITE
10
1.1129921259842519
20
0.3989173228346456
40
0.0068897637795276
0
CIRCLE
8
WHITE
10
1.212992125984252
20
0.2989173228346457
40
0.0068897637795276
0
CIRCLE
8
WHITE
10
1.212992125984252
20
0.3989173228346456
40
0.0068897637795276
  0
ENDSEC
  0
EOF
