  0
SECTION
  2
HEADER
  9
$ANGBASE
  50
0.0
  9
$ANGDIR
  70
1
  9
$MEASUREMENT
  70
0
  0
ENDSEC
  0
SECTION
  2
TABLES
  0
TABLE
  2
LTYPE
  70
4
  0
LTYPE
  5
40F
  2
CONTINUOUS
  70
0
  3
Solid line
  72
65
  73
0
  40
0.0
  0
LTYPE
  5
410
  2
DASHDOT
 70
0
  3
Dash Dot ____ _ ____ _
 72
65
 73
4
 40
2.0
 49
1.25
 49
-0.25
 49
0.25
 49
-0.25
  0
LTYPE
  5
411
  2
DASHED
 70
0
  3
Dashed __ __ __ __ __
 72
65
 73
2
 40
0.75
 49
0.5
 49
-0.25
  0
LTYPE
  5
43B
  2
DOTTED
 70
0
  3
Dotted .  .  .  .
 72
65
 73
2
 40
0.2
 49
0.0
 49
-0.2
  0
ENDTAB
  0
TABLE
  2
STYLE
  70
4
  0
STYLE
  2
KICAD
  70
0
  40
0
  41
1
  42
1
  50
0
  71
0
  3
isocp.shx
  0
STYLE
  2
KICADB
  70
0
  40
0
  41
1
  42
1
  50
0
  71
0
  3
isocp.shx
  0
STYLE
  2
KICADI
  70
0
  40
0
  41
1
  42
1
  50
15
  71
0
  3
isocp.shx
  0
STYLE
  2
KICADBI
  70
0
  40
0
  41
1
  42
1
  50
15
  71
0
  3
isocp.shx
  0
ENDTAB
  0
TABLE
  2
LAYER
  70
1
  0
LAYER
  2
BLACK
  70
0
  62
7
  6
CONTINUOUS
  0
ENDTAB
  0
ENDSEC
  0
SECTION
  2
ENTITIES
0
LINE
8
BLACK
6
CONTINUOUS
10
0.4201122047244095
20
0.5183720472440945
11
0.4332392125984252
21
0.515375905511811
0
LINE
8
BLACK
6
CONTINUOUS
10
0.4332392125984252
20
0.515375905511811
11
0.4459482283464567
21
0.5109288188976377
0
LINE
8
BLACK
6
CONTINUOUS
10
0.4459482283464567
20
0.5109288188976377
11
0.4580794094488189
21
0.5050867716535433
0
LINE
8
BLACK
6
CONTINUOUS
10
0.4580794094488189
20
0.5050867716535433
11
0.4694801968503937
21
0.4979231889763779
0
LINE
8
BLACK
6
CONTINUOUS
10
0.4694801968503937
20
0.4979231889763779
11
0.4800072440944882
21
0.4895281496062992
0
LINE
8
BLACK
6
CONTINUOUS
10
0.4800072440944882
20
0.4895281496062992
11
0.4895281496062992
21
0.4800072440944882
0
LINE
8
BLACK
6
CONTINUOUS
10
0.4895281496062992
20
0.4800072440944882
11
0.4979231889763779
21
0.4694801968503937
0
LINE
8
BLACK
6
CONTINUOUS
10
0.4979231889763779
20
0.4694801968503937
11
0.5050867716535433
21
0.4580794094488189
0
LINE
8
BLACK
6
CONTINUOUS
10
0.5050867716535433
20
0.4580794094488189
11
0.5109288188976377
21
0.4459482283464567
0
LINE
8
BLACK
6
CONTINUOUS
10
0.5109288188976377
20
0.4459482283464567
11
0.515375905511811
21
0.4332392125984252
0
LINE
8
BLACK
6
CONTINUOUS
10
0.515375905511811
20
0.4332392125984252
11
0.5183720472440945
21
0.4201122047244095
0
LINE
8
BLACK
6
CONTINUOUS
10
0.5183720472440945
20
0.4201122047244095
11
0.5198796062992126
21
0.4067322834645669
0
LINE
8
BLACK
6
CONTINUOUS
10
0.5198796062992126
20
0.4067322834645669
11
0.5198796062992126
21
0.3932677165354331
0
LINE
8
BLACK
6
CONTINUOUS
10
0.5198796062992126
20
0.3932677165354331
11
0.5183720472440945
21
0.3798877952755905
0
LINE
8
BLACK
6
CONTINUOUS
10
0.5183720472440945
20
0.3798877952755905
11
0.515375905511811
21
0.3667607874015748
0
LINE
8
BLACK
6
CONTINUOUS
10
0.515375905511811
20
0.3667607874015748
11
0.5109288188976377
21
0.3540517716535433
0
LINE
8
BLACK
6
CONTINUOUS
10
0.5109288188976377
20
0.3540517716535433
11
0.5050867716535433
21
0.3419205905511811
0
LINE
8
BLACK
6
CONTINUOUS
10
0.5050867716535433
20
0.3419205905511811
11
0.4979231889763779
21
0.3305198031496063
0
LINE
8
BLACK
6
CONTINUOUS
10
0.4979231889763779
20
0.3305198031496063
11
0.4895281496062992
21
0.3199927559055118
0
LINE
8
BLACK
6
CONTINUOUS
10
0.4895281496062992
20
0.3199927559055118
11
0.4800072440944882
21
0.3104718503937008
0
LINE
8
BLACK
6
CONTINUOUS
10
0.4800072440944882
20
0.3104718503937008
11
0.4694801968503937
21
0.302076811023622
0
LINE
8
BLACK
6
CONTINUOUS
10
0.4694801968503937
20
0.302076811023622
11
0.4580794094488189
21
0.2949132283464567
0
LINE
8
BLACK
6
CONTINUOUS
10
0.4580794094488189
20
0.2949132283464567
11
0.4459482283464567
21
0.2890711811023622
0
LINE
8
BLACK
6
CONTINUOUS
10
0.4459482283464567
20
0.2890711811023622
11
0.4332392125984252
21
0.284624094488189
0
LINE
8
BLACK
6
CONTINUOUS
10
0.4332392125984252
20
0.284624094488189
11
0.4201122047244095
21
0.2816279527559055
0
LINE
8
BLACK
6
CONTINUOUS
10
0.4201122047244095
20
0.2816279527559055
11
0.4067322834645669
21
0.2801203937007874
0
LINE
8
BLACK
6
CONTINUOUS
10
0.4067322834645669
20
0.2801203937007874
11
0.3932677165354331
21
0.2801203937007874
0
LINE
8
BLACK
6
CONTINUOUS
10
0.3932677165354331
20
0.2801203937007874
11
0.3798877952755905
21
0.2816279527559055
0
LINE
8
BLACK
6
CONTINUOUS
10
0.3798877952755905
20
0.2816279527559055
11
0.3667607874015748
21
0.284624094488189
0
LINE
8
BLACK
6
CONTINUOUS
10
0.3667607874015748
20
0.284624094488189
11
0.3540517716535433
21
0.2890711811023622
0
LINE
8
BLACK
6
CONTINUOUS
10
0.3540517716535433
20
0.2890711811023622
11
0.3419205905511811
21
0.2949132283464567
0
LINE
8
BLACK
6
CONTINUOUS
10
0.3419205905511811
20
0.2949132283464567
11
0.3305198031496063
21
0.302076811023622
0
LINE
8
BLACK
6
CONTINUOUS
10
0.3305198031496063
20
0.302076811023622
11
0.3199927559055118
21
0.3104718503937008
0
LINE
8
BLACK
6
CONTINUOUS
10
0.3199927559055118
20
0.3104718503937008
11
0.3104718503937008
21
0.3199927559055118
0
LINE
8
BLACK
6
CONTINUOUS
10
0.3104718503937008
20
0.3199927559055118
11
0.302076811023622
21
0.3305198031496063
0
LINE
8
BLACK
6
CONTINUOUS
10
0.302076811023622
20
0.3305198031496063
11
0.2949132283464567
21
0.3419205905511811
0
LINE
8
BLACK
6
CONTINUOUS
10
0.2949132283464567
20
0.3419205905511811
11
0.2890711811023622
21
0.3540517716535433
0
LINE
8
BLACK
6
CONTINUOUS
10
0.2890711811023622
20
0.3540517716535433
11
0.284624094488189
21
0.3667607874015748
0
LINE
8
BLACK
6
CONTINUOUS
10
0.284624094488189
20
0.3667607874015748
11
0.2816279527559055
21
0.3798877952755905
0
LINE
8
BLACK
6
CONTINUOUS
10
0.2816279527559055
20
0.3798877952755905
11
0.2801203937007874
21
0.3932677165354331
0
LINE
8
BLACK
6
CONTINUOUS
10
0.2801203937007874
20
0.3932677165354331
11
0.2801203937007874
21
0.4065218110236221
0
LINE
8
BLACK
6
CONTINUOUS
10
0.2801203937007874
20
0.4065218110236221
11
0.2801203937007874
21
0.4067322834645669
0
LINE
8
BLACK
6
CONTINUOUS
10
0.2801203937007874
20
0.4067322834645669
11
0.2816279527559055
21
0.4201122047244095
0
LINE
8
BLACK
6
CONTINUOUS
10
0.2816279527559055
20
0.4201122047244095
11
0.284624094488189
21
0.4332392125984252
0
LINE
8
BLACK
6
CONTINUOUS
10
0.284624094488189
20
0.4332392125984252
11
0.2890711811023622
21
0.4459482283464567
0
LINE
8
BLACK
6
CONTINUOUS
10
0.2890711811023622
20
0.4459482283464567
11
0.2949132283464567
21
0.4580794094488189
0
LINE
8
BLACK
6
CONTINUOUS
10
0.2949132283464567
20
0.4580794094488189
11
0.302076811023622
21
0.4694801968503937
0
LINE
8
BLACK
6
CONTINUOUS
10
0.302076811023622
20
0.4694801968503937
11
0.3104718503937008
21
0.4800072440944882
0
LINE
8
BLACK
6
CONTINUOUS
10
0.3104718503937008
20
0.4800072440944882
11
0.3199927559055118
21
0.4895281496062992
0
LINE
8
BLACK
6
CONTINUOUS
10
0.3199927559055118
20
0.4895281496062992
11
0.3305198031496063
21
0.4979231889763779
0
LINE
8
BLACK
6
CONTINUOUS
10
0.3305198031496063
20
0.4979231889763779
11
0.3419205905511811
21
0.5050867716535433
0
LINE
8
BLACK
6
CONTINUOUS
10
0.3419205905511811
20
0.5050867716535433
11
0.3540517716535433
21
0.5109288188976377
0
LINE
8
BLACK
6
CONTINUOUS
10
0.3540517716535433
20
0.5109288188976377
11
0.3667607874015748
21
0.515375905511811
0
LINE
8
BLACK
6
CONTINUOUS
10
0.3667607874015748
20
0.515375905511811
11
0.3798877952755905
21
0.5183720472440945
0
LINE
8
BLACK
6
CONTINUOUS
10
0.3798877952755905
20
0.5183720472440945
11
0.3932677165354331
21
0.5198796062992126
0
LINE
8
BLACK
6
CONTINUOUS
10
0.3932677165354331
20
0.5198796062992126
11
0.4067322834645669
21
0.5198796062992126
0
LINE
8
BLACK
6
CONTINUOUS
10
0.4067322834645669
20
0.5198796062992126
11
0.4201122047244095
21
0.5183720472440945
0
LINE
8
BLACK
6
CONTINUOUS
10
0.2838685039370079
20
0.3934781889763779
11
0.2853288976377953
21
0.3805166141732284
0
LINE
8
BLACK
6
CONTINUOUS
10
0.2853288976377953
20
0.3805166141732284
11
0.2882313779527559
21
0.3678
0
LINE
8
BLACK
6
CONTINUOUS
10
0.2882313779527559
20
0.3678
11
0.2925394094488189
21
0.3554883858267717
0
LINE
8
BLACK
6
CONTINUOUS
10
0.2925394094488189
20
0.3554883858267717
11
0.2981988188976378
21
0.3437364960629921
0
LINE
8
BLACK
6
CONTINUOUS
10
0.2981988188976378
20
0.3437364960629921
11
0.3051384645669291
21
0.332692125984252
0
LINE
8
BLACK
6
CONTINUOUS
10
0.3051384645669291
20
0.332692125984252
11
0.3132710236220472
21
0.322494251968504
0
LINE
8
BLACK
6
CONTINUOUS
10
0.3132710236220472
20
0.322494251968504
11
0.322494251968504
21
0.3132710236220472
0
LINE
8
BLACK
6
CONTINUOUS
10
0.322494251968504
20
0.3132710236220472
11
0.332692125984252
21
0.3051384645669291
0
LINE
8
BLACK
6
CONTINUOUS
10
0.332692125984252
20
0.3051384645669291
11
0.3437364960629921
21
0.2981988188976378
0
LINE
8
BLACK
6
CONTINUOUS
10
0.3437364960629921
20
0.2981988188976378
11
0.3554883858267717
21
0.2925394094488189
0
LINE
8
BLACK
6
CONTINUOUS
10
0.3554883858267717
20
0.2925394094488189
11
0.3678
21
0.2882313779527559
0
LINE
8
BLACK
6
CONTINUOUS
10
0.3678
20
0.2882313779527559
11
0.3805166141732284
21
0.2853288976377953
0
LINE
8
BLACK
6
CONTINUOUS
10
0.3805166141732284
20
0.2853288976377953
11
0.3934781889763779
21
0.2838685039370079
0
LINE
8
BLACK
6
CONTINUOUS
10
0.3934781889763779
20
0.2838685039370079
11
0.4065218110236221
21
0.2838685039370079
0
LINE
8
BLACK
6
CONTINUOUS
10
0.4065218110236221
20
0.2838685039370079
11
0.4194833858267716
21
0.2853288976377953
0
LINE
8
BLACK
6
CONTINUOUS
10
0.4194833858267716
20
0.2853288976377953
11
0.4322
21
0.2882313779527559
0
LINE
8
BLACK
6
CONTINUOUS
10
0.4322
20
0.2882313779527559
11
0.4445116141732283
21
0.2925394094488189
0
LINE
8
BLACK
6
CONTINUOUS
10
0.4445116141732283
20
0.2925394094488189
11
0.4562635039370079
21
0.2981988188976378
0
LINE
8
BLACK
6
CONTINUOUS
10
0.4562635039370079
20
0.2981988188976378
11
0.467307874015748
21
0.3051384645669291
0
LINE
8
BLACK
6
CONTINUOUS
10
0.467307874015748
20
0.3051384645669291
11
0.477505748031496
21
0.3132710236220472
0
LINE
8
BLACK
6
CONTINUOUS
10
0.477505748031496
20
0.3132710236220472
11
0.4867289763779528
21
0.322494251968504
0
LINE
8
BLACK
6
CONTINUOUS
10
0.4867289763779528
20
0.322494251968504
11
0.4948615354330709
21
0.332692125984252
0
LINE
8
BLACK
6
CONTINUOUS
10
0.4948615354330709
20
0.332692125984252
11
0.5018011811023622
21
0.3437364960629921
0
LINE
8
BLACK
6
CONTINUOUS
10
0.5018011811023622
20
0.3437364960629921
11
0.5074605905511811
21
0.3554883858267717
0
LINE
8
BLACK
6
CONTINUOUS
10
0.5074605905511811
20
0.3554883858267717
11
0.511768622047244
21
0.3678
0
LINE
8
BLACK
6
CONTINUOUS
10
0.511768622047244
20
0.3678
11
0.5146711023622047
21
0.3805166141732284
0
LINE
8
BLACK
6
CONTINUOUS
10
0.5146711023622047
20
0.3805166141732284
11
0.5161314960629921
21
0.3934781889763779
0
LINE
8
BLACK
6
CONTINUOUS
10
0.5161314960629921
20
0.3934781889763779
11
0.5161314960629921
21
0.4065218110236221
0
LINE
8
BLACK
6
CONTINUOUS
10
0.5161314960629921
20
0.4065218110236221
11
0.5146711023622047
21
0.4194833858267716
0
LINE
8
BLACK
6
CONTINUOUS
10
0.5146711023622047
20
0.4194833858267716
11
0.511768622047244
21
0.4322
0
LINE
8
BLACK
6
CONTINUOUS
10
0.511768622047244
20
0.4322
11
0.5074605905511811
21
0.4445116141732283
0
LINE
8
BLACK
6
CONTINUOUS
10
0.5074605905511811
20
0.4445116141732283
11
0.5018011811023622
21
0.4562635039370079
0
LINE
8
BLACK
6
CONTINUOUS
10
0.5018011811023622
20
0.4562635039370079
11
0.4948615354330709
21
0.467307874015748
0
LINE
8
BLACK
6
CONTINUOUS
10
0.4948615354330709
20
0.467307874015748
11
0.4867289763779528
21
0.477505748031496
0
LINE
8
BLACK
6
CONTINUOUS
10
0.4867289763779528
20
0.477505748031496
11
0.477505748031496
21
0.4867289763779528
0
LINE
8
BLACK
6
CONTINUOUS
10
0.477505748031496
20
0.4867289763779528
11
0.467307874015748
21
0.4948615354330709
0
LINE
8
BLACK
6
CONTINUOUS
10
0.467307874015748
20
0.4948615354330709
11
0.4562635039370079
21
0.5018011811023622
0
LINE
8
BLACK
6
CONTINUOUS
10
0.4562635039370079
20
0.5018011811023622
11
0.4445116141732283
21
0.5074605905511811
0
LINE
8
BLACK
6
CONTINUOUS
10
0.4445116141732283
20
0.5074605905511811
11
0.4322
21
0.511768622047244
0
LINE
8
BLACK
6
CONTINUOUS
10
0.4322
20
0.511768622047244
11
0.4194833858267716
21
0.5146711023622047
0
LINE
8
BLACK
6
CONTINUOUS
10
0.4194833858267716
20
0.5146711023622047
11
0.4065218110236221
21
0.5161314960629921
0
LINE
8
BLACK
6
CONTINUOUS
10
0.4065218110236221
20
0.5161314960629921
11
0.3934781889763779
21
0.5161314960629921
0
LINE
8
BLACK
6
CONTINUOUS
10
0.3934781889763779
20
0.5161314960629921
11
0.3805166141732284
21
0.5146711023622047
0
LINE
8
BLACK
6
CONTINUOUS
10
0.3805166141732284
20
0.5146711023622047
11
0.3678
21
0.511768622047244
0
LINE
8
BLACK
6
CONTINUOUS
10
0.3678
20
0.511768622047244
11
0.3554883858267717
21
0.5074605905511811
0
LINE
8
BLACK
6
CONTINUOUS
10
0.3554883858267717
20
0.5074605905511811
11
0.3437364960629921
21
0.5018011811023622
0
LINE
8
BLACK
6
CONTINUOUS
10
0.3437364960629921
20
0.5018011811023622
11
0.332692125984252
21
0.4948615354330709
0
LINE
8
BLACK
6
CONTINUOUS
10
0.332692125984252
20
0.4948615354330709
11
0.322494251968504
21
0.4867289763779528
0
LINE
8
BLACK
6
CONTINUOUS
10
0.322494251968504
20
0.4867289763779528
11
0.3132710236220472
21
0.477505748031496
0
LINE
8
BLACK
6
CONTINUOUS
10
0.3132710236220472
20
0.477505748031496
11
0.3051384645669291
21
0.467307874015748
0
LINE
8
BLACK
6
CONTINUOUS
10
0.3051384645669291
20
0.467307874015748
11
0.2981988188976378
21
0.4562635039370079
0
LINE
8
BLACK
6
CONTINUOUS
10
0.2981988188976378
20
0.4562635039370079
11
0.2925394094488189
21
0.4445116141732283
0
LINE
8
BLACK
6
CONTINUOUS
10
0.2925394094488189
20
0.4445116141732283
11
0.2882313779527559
21
0.4322
0
LINE
8
BLACK
6
CONTINUOUS
10
0.2882313779527559
20
0.4322
11
0.2853288976377953
21
0.4194833858267716
0
LINE
8
BLACK
6
CONTINUOUS
10
0.2853288976377953
20
0.4194833858267716
11
0.2838685039370079
21
0.4065218110236221
0
LINE
8
BLACK
6
CONTINUOUS
10
0.2838685039370079
20
0.4065218110236221
11
0.2838685039370079
21
0.3934781889763779
0
LINE
8
BLACK
6
CONTINUOUS
10
1.6201122047244094
20
0.5183720472440945
11
1.6332392125984252
21
0.515375905511811
0
LINE
8
BLACK
6
CONTINUOUS
10
1.6332392125984252
20
0.515375905511811
11
1.6459482283464566
21
0.5109288188976377
0
LINE
8
BLACK
6
CONTINUOUS
10
1.6459482283464566
20
0.5109288188976377
11
1.6580794094488189
21
0.5050867716535433
0
LINE
8
BLACK
6
CONTINUOUS
10
1.6580794094488189
20
0.5050867716535433
11
1.6694801968503936
21
0.4979231889763779
0
LINE
8
BLACK
6
CONTINUOUS
10
1.6694801968503936
20
0.4979231889763779
11
1.6800072440944882
21
0.4895281496062992
0
LINE
8
BLACK
6
CONTINUOUS
10
1.6800072440944882
20
0.4895281496062992
11
1.6895281496062993
21
0.4800072440944882
0
LINE
8
BLACK
6
CONTINUOUS
10
1.6895281496062993
20
0.4800072440944882
11
1.697923188976378
21
0.4694801968503937
0
LINE
8
BLACK
6
CONTINUOUS
10
1.697923188976378
20
0.4694801968503937
11
1.7050867716535432
21
0.4580794094488189
0
LINE
8
BLACK
6
CONTINUOUS
10
1.7050867716535432
20
0.4580794094488189
11
1.7109288188976377
21
0.4459482283464567
0
LINE
8
BLACK
6
CONTINUOUS
10
1.7109288188976377
20
0.4459482283464567
11
1.715375905511811
21
0.4332392125984252
0
LINE
8
BLACK
6
CONTINUOUS
10
1.715375905511811
20
0.4332392125984252
11
1.7183720472440944
21
0.4201122047244095
0
LINE
8
BLACK
6
CONTINUOUS
10
1.7183720472440944
20
0.4201122047244095
11
1.7198796062992125
21
0.4067322834645669
0
LINE
8
BLACK
6
CONTINUOUS
10
1.7198796062992125
20
0.4067322834645669
11
1.7198796062992125
21
0.3932677165354331
0
LINE
8
BLACK
6
CONTINUOUS
10
1.7198796062992125
20
0.3932677165354331
11
1.7183720472440944
21
0.3798877952755905
0
LINE
8
BLACK
6
CONTINUOUS
10
1.7183720472440944
20
0.3798877952755905
11
1.715375905511811
21
0.3667607874015748
0
LINE
8
BLACK
6
CONTINUOUS
10
1.715375905511811
20
0.3667607874015748
11
1.7109288188976377
21
0.3540517716535433
0
LINE
8
BLACK
6
CONTINUOUS
10
1.7109288188976377
20
0.3540517716535433
11
1.7050867716535432
21
0.3419205905511811
0
LINE
8
BLACK
6
CONTINUOUS
10
1.7050867716535432
20
0.3419205905511811
11
1.697923188976378
21
0.3305198031496063
0
LINE
8
BLACK
6
CONTINUOUS
10
1.697923188976378
20
0.3305198031496063
11
1.6895281496062993
21
0.3199927559055118
0
LINE
8
BLACK
6
CONTINUOUS
10
1.6895281496062993
20
0.3199927559055118
11
1.6800072440944882
21
0.3104718503937008
0
LINE
8
BLACK
6
CONTINUOUS
10
1.6800072440944882
20
0.3104718503937008
11
1.6694801968503936
21
0.302076811023622
0
LINE
8
BLACK
6
CONTINUOUS
10
1.6694801968503936
20
0.302076811023622
11
1.6580794094488189
21
0.2949132283464567
0
LINE
8
BLACK
6
CONTINUOUS
10
1.6580794094488189
20
0.2949132283464567
11
1.6459482283464566
21
0.2890711811023622
0
LINE
8
BLACK
6
CONTINUOUS
10
1.6459482283464566
20
0.2890711811023622
11
1.6332392125984252
21
0.284624094488189
0
LINE
8
BLACK
6
CONTINUOUS
10
1.6332392125984252
20
0.284624094488189
11
1.6201122047244094
21
0.2816279527559055
0
LINE
8
BLACK
6
CONTINUOUS
10
1.6201122047244094
20
0.2816279527559055
11
1.606732283464567
21
0.2801203937007874
0
LINE
8
BLACK
6
CONTINUOUS
10
1.606732283464567
20
0.2801203937007874
11
1.593267716535433
21
0.2801203937007874
0
LINE
8
BLACK
6
CONTINUOUS
10
1.593267716535433
20
0.2801203937007874
11
1.5798877952755905
21
0.2816279527559055
0
LINE
8
BLACK
6
CONTINUOUS
10
1.5798877952755905
20
0.2816279527559055
11
1.5667607874015748
21
0.284624094488189
0
LINE
8
BLACK
6
CONTINUOUS
10
1.5667607874015748
20
0.284624094488189
11
1.5540517716535434
21
0.2890711811023622
0
LINE
8
BLACK
6
CONTINUOUS
10
1.5540517716535434
20
0.2890711811023622
11
1.541920590551181
21
0.2949132283464567
0
LINE
8
BLACK
6
CONTINUOUS
10
1.541920590551181
20
0.2949132283464567
11
1.5305198031496063
21
0.302076811023622
0
LINE
8
BLACK
6
CONTINUOUS
10
1.5305198031496063
20
0.302076811023622
11
1.5199927559055117
21
0.3104718503937008
0
LINE
8
BLACK
6
CONTINUOUS
10
1.5199927559055117
20
0.3104718503937008
11
1.5104718503937007
21
0.3199927559055118
0
LINE
8
BLACK
6
CONTINUOUS
10
1.5104718503937007
20
0.3199927559055118
11
1.502076811023622
21
0.3305198031496063
0
LINE
8
BLACK
6
CONTINUOUS
10
1.502076811023622
20
0.3305198031496063
11
1.4949132283464566
21
0.3419205905511811
0
LINE
8
BLACK
6
CONTINUOUS
10
1.4949132283464566
20
0.3419205905511811
11
1.4890711811023623
21
0.3540517716535433
0
LINE
8
BLACK
6
CONTINUOUS
10
1.4890711811023623
20
0.3540517716535433
11
1.484624094488189
21
0.3667607874015748
0
LINE
8
BLACK
6
CONTINUOUS
10
1.484624094488189
20
0.3667607874015748
11
1.4816279527559055
21
0.3798877952755905
0
LINE
8
BLACK
6
CONTINUOUS
10
1.4816279527559055
20
0.3798877952755905
11
1.4801203937007874
21
0.3932677165354331
0
LINE
8
BLACK
6
CONTINUOUS
10
1.4801203937007874
20
0.3932677165354331
11
1.4801203937007874
21
0.4065218110236221
0
LINE
8
BLACK
6
CONTINUOUS
10
1.4801203937007874
20
0.4065218110236221
11
1.4801203937007874
21
0.4067322834645669
0
LINE
8
BLACK
6
CONTINUOUS
10
1.4801203937007874
20
0.4067322834645669
11
1.4816279527559055
21
0.4201122047244095
0
LINE
8
BLACK
6
CONTINUOUS
10
1.4816279527559055
20
0.4201122047244095
11
1.484624094488189
21
0.4332392125984252
0
LINE
8
BLACK
6
CONTINUOUS
10
1.484624094488189
20
0.4332392125984252
11
1.4890711811023623
21
0.4459482283464567
0
LINE
8
BLACK
6
CONTINUOUS
10
1.4890711811023623
20
0.4459482283464567
11
1.4949132283464566
21
0.4580794094488189
0
LINE
8
BLACK
6
CONTINUOUS
10
1.4949132283464566
20
0.4580794094488189
11
1.502076811023622
21
0.4694801968503937
0
LINE
8
BLACK
6
CONTINUOUS
10
1.502076811023622
20
0.4694801968503937
11
1.5104718503937007
21
0.4800072440944882
0
LINE
8
BLACK
6
CONTINUOUS
10
1.5104718503937007
20
0.4800072440944882
11
1.5199927559055117
21
0.4895281496062992
0
LINE
8
BLACK
6
CONTINUOUS
10
1.5199927559055117
20
0.4895281496062992
11
1.5305198031496063
21
0.4979231889763779
0
LINE
8
BLACK
6
CONTINUOUS
10
1.5305198031496063
20
0.4979231889763779
11
1.541920590551181
21
0.5050867716535433
0
LINE
8
BLACK
6
CONTINUOUS
10
1.541920590551181
20
0.5050867716535433
11
1.5540517716535434
21
0.5109288188976377
0
LINE
8
BLACK
6
CONTINUOUS
10
1.5540517716535434
20
0.5109288188976377
11
1.5667607874015748
21
0.515375905511811
0
LINE
8
BLACK
6
CONTINUOUS
10
1.5667607874015748
20
0.515375905511811
11
1.5798877952755905
21
0.5183720472440945
0
LINE
8
BLACK
6
CONTINUOUS
10
1.5798877952755905
20
0.5183720472440945
11
1.593267716535433
21
0.5198796062992126
0
LINE
8
BLACK
6
CONTINUOUS
10
1.593267716535433
20
0.5198796062992126
11
1.606732283464567
21
0.5198796062992126
0
LINE
8
BLACK
6
CONTINUOUS
10
1.606732283464567
20
0.5198796062992126
11
1.6201122047244094
21
0.5183720472440945
0
LINE
8
BLACK
6
CONTINUOUS
10
1.4838685039370079
20
0.3934781889763779
11
1.4853288976377952
21
0.3805166141732284
0
LINE
8
BLACK
6
CONTINUOUS
10
1.4853288976377952
20
0.3805166141732284
11
1.4882313779527558
21
0.3678
0
LINE
8
BLACK
6
CONTINUOUS
10
1.4882313779527558
20
0.3678
11
1.4925394094488189
21
0.3554883858267717
0
LINE
8
BLACK
6
CONTINUOUS
10
1.4925394094488189
20
0.3554883858267717
11
1.4981988188976378
21
0.3437364960629921
0
LINE
8
BLACK
6
CONTINUOUS
10
1.4981988188976378
20
0.3437364960629921
11
1.505138464566929
21
0.332692125984252
0
LINE
8
BLACK
6
CONTINUOUS
10
1.505138464566929
20
0.332692125984252
11
1.5132710236220472
21
0.322494251968504
0
LINE
8
BLACK
6
CONTINUOUS
10
1.5132710236220472
20
0.322494251968504
11
1.5224942519685039
21
0.3132710236220472
0
LINE
8
BLACK
6
CONTINUOUS
10
1.5224942519685039
20
0.3132710236220472
11
1.5326921259842519
21
0.3051384645669291
0
LINE
8
BLACK
6
CONTINUOUS
10
1.5326921259842519
20
0.3051384645669291
11
1.543736496062992
21
0.2981988188976378
0
LINE
8
BLACK
6
CONTINUOUS
10
1.543736496062992
20
0.2981988188976378
11
1.5554883858267716
21
0.2925394094488189
0
LINE
8
BLACK
6
CONTINUOUS
10
1.5554883858267716
20
0.2925394094488189
11
1.5677999999999999
21
0.2882313779527559
0
LINE
8
BLACK
6
CONTINUOUS
10
1.5677999999999999
20
0.2882313779527559
11
1.5805166141732283
21
0.2853288976377953
0
LINE
8
BLACK
6
CONTINUOUS
10
1.5805166141732283
20
0.2853288976377953
11
1.5934781889763778
21
0.2838685039370079
0
LINE
8
BLACK
6
CONTINUOUS
10
1.5934781889763778
20
0.2838685039370079
11
1.6065218110236219
21
0.2838685039370079
0
LINE
8
BLACK
6
CONTINUOUS
10
1.6065218110236219
20
0.2838685039370079
11
1.6194833858267716
21
0.2853288976377953
0
LINE
8
BLACK
6
CONTINUOUS
10
1.6194833858267716
20
0.2853288976377953
11
1.6321999999999999
21
0.2882313779527559
0
LINE
8
BLACK
6
CONTINUOUS
10
1.6321999999999999
20
0.2882313779527559
11
1.6445116141732283
21
0.2925394094488189
0
LINE
8
BLACK
6
CONTINUOUS
10
1.6445116141732283
20
0.2925394094488189
11
1.6562635039370079
21
0.2981988188976378
0
LINE
8
BLACK
6
CONTINUOUS
10
1.6562635039370079
20
0.2981988188976378
11
1.6673078740157481
21
0.3051384645669291
0
LINE
8
BLACK
6
CONTINUOUS
10
1.6673078740157481
20
0.3051384645669291
11
1.6775057480314961
21
0.3132710236220472
0
LINE
8
BLACK
6
CONTINUOUS
10
1.6775057480314961
20
0.3132710236220472
11
1.6867289763779527
21
0.322494251968504
0
LINE
8
BLACK
6
CONTINUOUS
10
1.6867289763779527
20
0.322494251968504
11
1.6948615354330707
21
0.332692125984252
0
LINE
8
BLACK
6
CONTINUOUS
10
1.6948615354330707
20
0.332692125984252
11
1.7018011811023621
21
0.3437364960629921
0
LINE
8
BLACK
6
CONTINUOUS
10
1.7018011811023621
20
0.3437364960629921
11
1.707460590551181
21
0.3554883858267717
0
LINE
8
BLACK
6
CONTINUOUS
10
1.707460590551181
20
0.3554883858267717
11
1.7117686220472441
21
0.3678
0
LINE
8
BLACK
6
CONTINUOUS
10
1.7117686220472441
20
0.3678
11
1.7146711023622048
21
0.3805166141732284
0
LINE
8
BLACK
6
CONTINUOUS
10
1.7146711023622048
20
0.3805166141732284
11
1.7161314960629921
21
0.3934781889763779
0
LINE
8
BLACK
6
CONTINUOUS
10
1.7161314960629921
20
0.3934781889763779
11
1.7161314960629921
21
0.4065218110236221
0
LINE
8
BLACK
6
CONTINUOUS
10
1.7161314960629921
20
0.4065218110236221
11
1.7146711023622048
21
0.4194833858267716
0
LINE
8
BLACK
6
CONTINUOUS
10
1.7146711023622048
20
0.4194833858267716
11
1.7117686220472441
21
0.4322
0
LINE
8
BLACK
6
CONTINUOUS
10
1.7117686220472441
20
0.4322
11
1.707460590551181
21
0.4445116141732283
0
LINE
8
BLACK
6
CONTINUOUS
10
1.707460590551181
20
0.4445116141732283
11
1.7018011811023621
21
0.4562635039370079
0
LINE
8
BLACK
6
CONTINUOUS
10
1.7018011811023621
20
0.4562635039370079
11
1.6948615354330707
21
0.467307874015748
0
LINE
8
BLACK
6
CONTINUOUS
10
1.6948615354330707
20
0.467307874015748
11
1.6867289763779527
21
0.477505748031496
0
LINE
8
BLACK
6
CONTINUOUS
10
1.6867289763779527
20
0.477505748031496
11
1.6775057480314961
21
0.4867289763779528
0
LINE
8
BLACK
6
CONTINUOUS
10
1.6775057480314961
20
0.4867289763779528
11
1.6673078740157481
21
0.4948615354330709
0
LINE
8
BLACK
6
CONTINUOUS
10
1.6673078740157481
20
0.4948615354330709
11
1.6562635039370079
21
0.5018011811023622
0
LINE
8
BLACK
6
CONTINUOUS
10
1.6562635039370079
20
0.5018011811023622
11
1.6445116141732283
21
0.5074605905511811
0
LINE
8
BLACK
6
CONTINUOUS
10
1.6445116141732283
20
0.5074605905511811
11
1.6321999999999999
21
0.511768622047244
0
LINE
8
BLACK
6
CONTINUOUS
10
1.6321999999999999
20
0.511768622047244
11
1.6194833858267716
21
0.5146711023622047
0
LINE
8
BLACK
6
CONTINUOUS
10
1.6194833858267716
20
0.5146711023622047
11
1.6065218110236219
21
0.5161314960629921
0
LINE
8
BLACK
6
CONTINUOUS
10
1.6065218110236219
20
0.5161314960629921
11
1.5934781889763778
21
0.5161314960629921
0
LINE
8
BLACK
6
CONTINUOUS
10
1.5934781889763778
20
0.5161314960629921
11
1.5805166141732283
21
0.5146711023622047
0
LINE
8
BLACK
6
CONTINUOUS
10
1.5805166141732283
20
0.5146711023622047
11
1.5677999999999999
21
0.511768622047244
0
LINE
8
BLACK
6
CONTINUOUS
10
1.5677999999999999
20
0.511768622047244
11
1.5554883858267716
21
0.5074605905511811
0
LINE
8
BLACK
6
CONTINUOUS
10
1.5554883858267716
20
0.5074605905511811
11
1.543736496062992
21
0.5018011811023622
0
LINE
8
BLACK
6
CONTINUOUS
10
1.543736496062992
20
0.5018011811023622
11
1.5326921259842519
21
0.4948615354330709
0
LINE
8
BLACK
6
CONTINUOUS
10
1.5326921259842519
20
0.4948615354330709
11
1.5224942519685039
21
0.4867289763779528
0
LINE
8
BLACK
6
CONTINUOUS
10
1.5224942519685039
20
0.4867289763779528
11
1.5132710236220472
21
0.477505748031496
0
LINE
8
BLACK
6
CONTINUOUS
10
1.5132710236220472
20
0.477505748031496
11
1.505138464566929
21
0.467307874015748
0
LINE
8
BLACK
6
CONTINUOUS
10
1.505138464566929
20
0.467307874015748
11
1.4981988188976378
21
0.4562635039370079
0
LINE
8
BLACK
6
CONTINUOUS
10
1.4981988188976378
20
0.4562635039370079
11
1.4925394094488189
21
0.4445116141732283
0
LINE
8
BLACK
6
CONTINUOUS
10
1.4925394094488189
20
0.4445116141732283
11
1.4882313779527558
21
0.4322
0
LINE
8
BLACK
6
CONTINUOUS
10
1.4882313779527558
20
0.4322
11
1.4853288976377952
21
0.4194833858267716
0
LINE
8
BLACK
6
CONTINUOUS
10
1.4853288976377952
20
0.4194833858267716
11
1.4838685039370079
21
0.4065218110236221
0
LINE
8
BLACK
6
CONTINUOUS
10
1.4838685039370079
20
0.4065218110236221
11
1.4838685039370079
21
0.3934781889763779
0
LINE
8
BLACK
6
CONTINUOUS
10
0.4549067716535433
20
0.9599826377952756
11
0.4559711811023622
21
0.9595417322834645
0
LINE
8
BLACK
6
CONTINUOUS
10
0.4559711811023622
20
0.9595417322834645
11
0.4567858267716535
21
0.9587270866141732
0
LINE
8
BLACK
6
CONTINUOUS
10
0.4567858267716535
20
0.9587270866141732
11
0.4572267322834646
21
0.9576626771653544
0
LINE
8
BLACK
6
CONTINUOUS
10
0.4572267322834646
20
0.9576626771653544
11
0.4572834645669291
21
0.9570866141732284
0
LINE
8
BLACK
6
CONTINUOUS
10
0.4572834645669291
20
0.9570866141732284
11
0.4572834645669291
21
0.6570866141732283
0
LINE
8
BLACK
6
CONTINUOUS
10
0.4572834645669291
20
0.6570866141732283
11
0.4572267322834646
21
0.6565105511811024
0
LINE
8
BLACK
6
CONTINUOUS
10
0.4572267322834646
20
0.6565105511811024
11
0.4567858267716535
21
0.6554461417322834
0
LINE
8
BLACK
6
CONTINUOUS
10
0.4567858267716535
20
0.6554461417322834
11
0.4559711811023622
21
0.6546314960629921
0
LINE
8
BLACK
6
CONTINUOUS
10
0.4559711811023622
20
0.6546314960629921
11
0.4549067716535433
21
0.6541905905511811
0
LINE
8
BLACK
6
CONTINUOUS
10
0.4549067716535433
20
0.6541905905511811
11
0.4543307086614173
21
0.6541338582677165
0
LINE
8
BLACK
6
CONTINUOUS
10
0.4543307086614173
20
0.6541338582677165
11
0.2543307086614173
21
0.6541338582677165
0
LINE
8
BLACK
6
CONTINUOUS
10
0.2543307086614173
20
0.6541338582677165
11
0.2537546456692913
21
0.6541905905511811
0
LINE
8
BLACK
6
CONTINUOUS
10
0.2537546456692913
20
0.6541905905511811
11
0.2526902362204724
21
0.6546314960629921
0
LINE
8
BLACK
6
CONTINUOUS
10
0.2526902362204724
20
0.6546314960629921
11
0.2518755905511811
21
0.6554461417322834
0
LINE
8
BLACK
6
CONTINUOUS
10
0.2518755905511811
20
0.6554461417322834
11
0.2514346850393701
21
0.6565105511811024
0
LINE
8
BLACK
6
CONTINUOUS
10
0.2514346850393701
20
0.6565105511811024
11
0.2513779527559055
21
0.6570866141732283
0
LINE
8
BLACK
6
CONTINUOUS
10
0.2513779527559055
20
0.6570866141732283
11
0.2513779527559055
21
0.9570866141732284
0
LINE
8
BLACK
6
CONTINUOUS
10
0.2513779527559055
20
0.9570866141732284
11
0.2514346850393701
21
0.9576626771653544
0
LINE
8
BLACK
6
CONTINUOUS
10
0.2514346850393701
20
0.9576626771653544
11
0.2518755905511811
21
0.9587270866141732
0
LINE
8
BLACK
6
CONTINUOUS
10
0.2518755905511811
20
0.9587270866141732
11
0.2526902362204724
21
0.9595417322834645
0
LINE
8
BLACK
6
CONTINUOUS
10
0.2526902362204724
20
0.9595417322834645
11
0.2537546456692913
21
0.9599826377952756
0
LINE
8
BLACK
6
CONTINUOUS
10
0.2537546456692913
20
0.9599826377952756
11
0.2543307086614173
21
0.9600393700787402
0
LINE
8
BLACK
6
CONTINUOUS
10
0.2543307086614173
20
0.9600393700787402
11
0.4543307086614173
21
0.9600393700787402
0
LINE
8
BLACK
6
CONTINUOUS
10
0.4543307086614173
20
0.9600393700787402
11
0.4549067716535433
21
0.9599826377952756
0
LINE
8
BLACK
6
CONTINUOUS
10
0.2572834645669291
20
0.9541338582677165
11
0.2572834645669291
21
0.6600393700787401
0
LINE
8
BLACK
6
CONTINUOUS
10
0.2572834645669291
20
0.6600393700787401
11
0.4513779527559055
21
0.6600393700787401
0
LINE
8
BLACK
6
CONTINUOUS
10
0.4513779527559055
20
0.6600393700787401
11
0.4513779527559055
21
0.9541338582677165
0
LINE
8
BLACK
6
CONTINUOUS
10
0.4513779527559055
20
0.9541338582677165
11
0.2572834645669291
21
0.9541338582677165
0
LINE
8
BLACK
6
CONTINUOUS
10
1.6230029133858268
20
0.8130290944881889
11
1.6230807086614172
21
0.8130346062992125
0
LINE
8
BLACK
6
CONTINUOUS
10
1.6230807086614172
20
0.8130346062992125
11
1.6231829527559054
21
0.8130113779527559
0
LINE
8
BLACK
6
CONTINUOUS
10
1.6231829527559054
20
0.8130113779527559
11
1.6232874409448819
21
0.8130010629921259
0
LINE
8
BLACK
6
CONTINUOUS
10
1.6232874409448819
20
0.8130010629921259
11
1.6233594881889764
21
0.812971220472441
0
LINE
8
BLACK
6
CONTINUOUS
10
1.6233594881889764
20
0.812971220472441
11
1.6236451181102363
21
0.8129062598425196
0
LINE
8
BLACK
6
CONTINUOUS
10
1.6236451181102363
20
0.8129062598425196
11
1.6307879527559055
21
0.8105252755905512
0
LINE
8
BLACK
6
CONTINUOUS
10
1.6307879527559055
20
0.8105252755905512
11
1.6313165354330708
21
0.8102892913385826
0
LINE
8
BLACK
6
CONTINUOUS
10
1.6313165354330708
20
0.8102892913385826
11
1.6313966535433071
21
0.8102198031496063
0
LINE
8
BLACK
6
CONTINUOUS
10
1.6313966535433071
20
0.8102198031496063
11
1.6314946456692914
21
0.8101792125984252
0
LINE
8
BLACK
6
CONTINUOUS
10
1.6314946456692914
20
0.8101792125984252
11
1.6319421259842519
21
0.809811968503937
0
LINE
8
BLACK
6
CONTINUOUS
10
1.6319421259842519
20
0.809811968503937
11
1.6367040551181102
21
0.8050500787401574
0
LINE
8
BLACK
6
CONTINUOUS
10
1.6367040551181102
20
0.8050500787401574
11
1.6370712992125984
21
0.8046026377952755
0
LINE
8
BLACK
6
CONTINUOUS
10
1.6370712992125984
20
0.8046026377952755
11
1.6371119291338583
21
0.8045045275590551
0
LINE
8
BLACK
6
CONTINUOUS
10
1.6371119291338583
20
0.8045045275590551
11
1.637181377952756
21
0.8044244488188976
0
LINE
8
BLACK
6
CONTINUOUS
10
1.637181377952756
20
0.8044244488188976
11
1.6374173622047243
21
0.803895905511811
0
LINE
8
BLACK
6
CONTINUOUS
10
1.6374173622047243
20
0.803895905511811
11
1.6397983070866142
21
0.796753031496063
0
LINE
8
BLACK
6
CONTINUOUS
10
1.6397983070866142
20
0.796753031496063
11
1.6398632283464567
21
0.7964674803149606
0
LINE
8
BLACK
6
CONTINUOUS
10
1.6398632283464567
20
0.7964674803149606
11
1.6398931102362204
21
0.7963953543307086
0
LINE
8
BLACK
6
CONTINUOUS
10
1.6398931102362204
20
0.7963953543307086
11
1.6399033858267715
21
0.7962908661417323
0
LINE
8
BLACK
6
CONTINUOUS
10
1.6399033858267715
20
0.7962908661417323
11
1.639926653543307
21
0.7961885826771653
0
LINE
8
BLACK
6
CONTINUOUS
10
1.639926653543307
20
0.7961885826771653
11
1.6399211023622047
21
0.7961108661417323
0
LINE
8
BLACK
6
CONTINUOUS
10
1.6399211023622047
20
0.7961108661417323
11
1.639949842519685
21
0.7958192913385826
0
LINE
8
BLACK
6
CONTINUOUS
10
1.639949842519685
20
0.7958192913385826
11
1.639949842519685
21
0.7910574015748031
0
LINE
8
BLACK
6
CONTINUOUS
10
1.639949842519685
20
0.7910574015748031
11
1.6398931102362204
21
0.7904813385826771
0
LINE
8
BLACK
6
CONTINUOUS
10
1.6398931102362204
20
0.7904813385826771
11
1.6394522047244093
21
0.7894169291338583
0
LINE
8
BLACK
6
CONTINUOUS
10
1.6394522047244093
20
0.7894169291338583
11
1.6386375590551181
21
0.788602283464567
0
LINE
8
BLACK
6
CONTINUOUS
10
1.6386375590551181
20
0.788602283464567
11
1.6375731496062991
21
0.7881613779527559
0
LINE
8
BLACK
6
CONTINUOUS
10
1.6375731496062991
20
0.7881613779527559
11
1.6364210236220471
21
0.7881613779527559
0
LINE
8
BLACK
6
CONTINUOUS
10
1.6364210236220471
20
0.7881613779527559
11
1.6353566141732283
21
0.788602283464567
0
LINE
8
BLACK
6
CONTINUOUS
10
1.6353566141732283
20
0.788602283464567
11
1.6345419685039371
21
0.7894169291338583
0
LINE
8
BLACK
6
CONTINUOUS
10
1.6345419685039371
20
0.7894169291338583
11
1.634101062992126
21
0.7904813385826771
0
LINE
8
BLACK
6
CONTINUOUS
10
1.634101062992126
20
0.7904813385826771
11
1.6340443307086614
21
0.7910574015748031
0
LINE
8
BLACK
6
CONTINUOUS
10
1.6340443307086614
20
0.7910574015748031
11
1.6340443307086614
21
0.7953401968503937
0
LINE
8
BLACK
6
CONTINUOUS
10
1.6340443307086614
20
0.7953401968503937
11
1.6320353543307087
21
0.801367125984252
0
LINE
8
BLACK
6
CONTINUOUS
10
1.6320353543307087
20
0.801367125984252
11
1.6282591732283465
21
0.8051432677165354
0
LINE
8
BLACK
6
CONTINUOUS
10
1.6282591732283465
20
0.8051432677165354
11
1.6222322440944881
21
0.8071522834645669
0
LINE
8
BLACK
6
CONTINUOUS
10
1.6222322440944881
20
0.8071522834645669
11
1.5869970866141732
21
0.8071522834645669
0
LINE
8
BLACK
6
CONTINUOUS
10
1.5869970866141732
20
0.8071522834645669
11
1.5864210236220473
21
0.8072090157480315
0
LINE
8
BLACK
6
CONTINUOUS
10
1.5864210236220473
20
0.8072090157480315
11
1.5853566141732283
21
0.8076499212598425
0
LINE
8
BLACK
6
CONTINUOUS
10
1.5853566141732283
20
0.8076499212598425
11
1.584541968503937
21
0.8084645669291338
0
LINE
8
BLACK
6
CONTINUOUS
10
1.584541968503937
20
0.8084645669291338
11
1.5841010629921259
21
0.8095289763779527
0
LINE
8
BLACK
6
CONTINUOUS
10
1.5841010629921259
20
0.8095289763779527
11
1.5841010629921259
21
0.8106811023622047
0
LINE
8
BLACK
6
CONTINUOUS
10
1.5841010629921259
20
0.8106811023622047
11
1.584541968503937
21
0.8117455118110236
0
LINE
8
BLACK
6
CONTINUOUS
10
1.584541968503937
20
0.8117455118110236
11
1.5853566141732283
21
0.812560157480315
0
LINE
8
BLACK
6
CONTINUOUS
10
1.5853566141732283
20
0.812560157480315
11
1.5864210236220473
21
0.8130010629921259
0
LINE
8
BLACK
6
CONTINUOUS
10
1.5864210236220473
20
0.8130010629921259
11
1.5869970866141732
21
0.8130577952755905
0
LINE
8
BLACK
6
CONTINUOUS
10
1.5869970866141732
20
0.8130577952755905
11
1.6227113779527558
21
0.8130577952755905
0
LINE
8
BLACK
6
CONTINUOUS
10
1.6227113779527558
20
0.8130577952755905
11
1.6230029133858268
21
0.8130290944881889
0
LINE
8
BLACK
6
CONTINUOUS
10
1.6386375590551181
20
0.8625601574803149
11
1.6394522047244093
21
0.8617455118110237
0
LINE
8
BLACK
6
CONTINUOUS
10
1.6394522047244093
20
0.8617455118110237
11
1.6398931102362204
21
0.8606811023622047
0
LINE
8
BLACK
6
CONTINUOUS
10
1.6398931102362204
20
0.8606811023622047
11
1.639949842519685
21
0.8601050393700788
0
LINE
8
BLACK
6
CONTINUOUS
10
1.639949842519685
20
0.8601050393700788
11
1.639949842519685
21
0.8315335826771654
0
LINE
8
BLACK
6
CONTINUOUS
10
1.639949842519685
20
0.8315335826771654
11
1.6398931102362204
21
0.8309575196850394
0
LINE
8
BLACK
6
CONTINUOUS
10
1.6398931102362204
20
0.8309575196850394
11
1.6394522047244093
21
0.8298931102362205
0
LINE
8
BLACK
6
CONTINUOUS
10
1.6394522047244093
20
0.8298931102362205
11
1.6386375590551181
21
0.8290784645669291
0
LINE
8
BLACK
6
CONTINUOUS
10
1.6386375590551181
20
0.8290784645669291
11
1.6375731496062991
21
0.828637559055118
0
LINE
8
BLACK
6
CONTINUOUS
10
1.6375731496062991
20
0.828637559055118
11
1.6364210236220471
21
0.828637559055118
0
LINE
8
BLACK
6
CONTINUOUS
10
1.6364210236220471
20
0.828637559055118
11
1.6353566141732283
21
0.8290784645669291
0
LINE
8
BLACK
6
CONTINUOUS
10
1.6353566141732283
20
0.8290784645669291
11
1.6345419685039371
21
0.8298931102362205
0
LINE
8
BLACK
6
CONTINUOUS
10
1.6345419685039371
20
0.8298931102362205
11
1.634101062992126
21
0.8309575196850394
0
LINE
8
BLACK
6
CONTINUOUS
10
1.634101062992126
20
0.8309575196850394
11
1.6340443307086614
21
0.8315335826771654
0
LINE
8
BLACK
6
CONTINUOUS
10
1.6340443307086614
20
0.8315335826771654
11
1.6340443307086614
21
0.8428665354330709
0
LINE
8
BLACK
6
CONTINUOUS
10
1.6340443307086614
20
0.8428665354330709
11
1.5965066141732283
21
0.8428665354330709
0
LINE
8
BLACK
6
CONTINUOUS
10
1.5965066141732283
20
0.8428665354330709
11
1.6009897637795276
21
0.8383834251968504
0
LINE
8
BLACK
6
CONTINUOUS
10
1.6009897637795276
20
0.8383834251968504
11
1.6011755905511811
21
0.8381570472440945
0
LINE
8
BLACK
6
CONTINUOUS
10
1.6011755905511811
20
0.8381570472440945
11
1.6012345275590552
21
0.838105905511811
0
LINE
8
BLACK
6
CONTINUOUS
10
1.6012345275590552
20
0.838105905511811
11
1.6012903937007874
21
0.8380171653543307
0
LINE
8
BLACK
6
CONTINUOUS
10
1.6012903937007874
20
0.8380171653543307
11
1.6013570078740158
21
0.8379359842519685
0
LINE
8
BLACK
6
CONTINUOUS
10
1.6013570078740158
20
0.8379359842519685
11
1.6013868503937008
21
0.8378638582677165
0
LINE
8
BLACK
6
CONTINUOUS
10
1.6013868503937008
20
0.8378638582677165
11
1.601542874015748
21
0.8376160236220472
0
LINE
8
BLACK
6
CONTINUOUS
10
1.601542874015748
20
0.8376160236220472
11
1.6039238188976377
21
0.8328540944881889
0
LINE
8
BLACK
6
CONTINUOUS
10
1.6039238188976377
20
0.8328540944881889
11
1.6041307086614174
21
0.8323134645669291
0
LINE
8
BLACK
6
CONTINUOUS
10
1.6041307086614174
20
0.8323134645669291
11
1.6042123622047244
21
0.831164251968504
0
LINE
8
BLACK
6
CONTINUOUS
10
1.6042123622047244
20
0.831164251968504
11
1.603848031496063
21
0.8300712992125984
0
LINE
8
BLACK
6
CONTINUOUS
10
1.603848031496063
20
0.8300712992125984
11
1.6030931496062992
21
0.8292009448818898
0
LINE
8
BLACK
6
CONTINUOUS
10
1.6030931496062992
20
0.8292009448818898
11
1.6020626771653543
21
0.8286856692913386
0
LINE
8
BLACK
6
CONTINUOUS
10
1.6020626771653543
20
0.8286856692913386
11
1.6009134645669292
21
0.8286040157480314
0
LINE
8
BLACK
6
CONTINUOUS
10
1.6009134645669292
20
0.8286040157480314
11
1.5998205118110236
21
0.8289683464566929
0
LINE
8
BLACK
6
CONTINUOUS
10
1.5998205118110236
20
0.8289683464566929
11
1.5989501181102361
21
0.8297232283464566
0
LINE
8
BLACK
6
CONTINUOUS
10
1.5989501181102361
20
0.8297232283464566
11
1.5986417716535433
21
0.8302131102362205
0
LINE
8
BLACK
6
CONTINUOUS
10
1.5986417716535433
20
0.8302131102362205
11
1.5964751181102361
21
0.8345464173228346
0
LINE
8
BLACK
6
CONTINUOUS
10
1.5964751181102361
20
0.8345464173228346
11
1.5922588188976377
21
0.8387626771653544
0
LINE
8
BLACK
6
CONTINUOUS
10
1.5922588188976377
20
0.8387626771653544
11
1.5853591732283465
21
0.8433624409448819
0
LINE
8
BLACK
6
CONTINUOUS
10
1.5853591732283465
20
0.8433624409448819
11
1.5853574803149606
21
0.8433638188976378
0
LINE
8
BLACK
6
CONTINUOUS
10
1.5853574803149606
20
0.8433638188976378
11
1.5853566141732283
21
0.8433641732283464
0
LINE
8
BLACK
6
CONTINUOUS
10
1.5853566141732283
20
0.8433641732283464
11
1.5853545669291338
21
0.8433662204724409
0
LINE
8
BLACK
6
CONTINUOUS
10
1.5853545669291338
20
0.8433662204724409
11
1.5849113385826772
21
0.8437292125984251
0
LINE
8
BLACK
6
CONTINUOUS
10
1.5849113385826772
20
0.8437292125984251
11
1.5847486614173227
21
0.843972125984252
0
LINE
8
BLACK
6
CONTINUOUS
10
1.5847486614173227
20
0.843972125984252
11
1.584541968503937
21
0.8441788188976378
0
LINE
8
BLACK
6
CONTINUOUS
10
1.584541968503937
20
0.8441788188976378
11
1.5844312204724409
21
0.8444461417322835
0
LINE
8
BLACK
6
CONTINUOUS
10
1.5844312204724409
20
0.8444461417322835
11
1.5842702755905511
21
0.8446864960629921
0
LINE
8
BLACK
6
CONTINUOUS
10
1.5842702755905511
20
0.8446864960629921
11
1.5842129133858267
21
0.8449731496062992
0
LINE
8
BLACK
6
CONTINUOUS
10
1.5842129133858267
20
0.8449731496062992
11
1.5841010629921259
21
0.8452432283464567
0
LINE
8
BLACK
6
CONTINUOUS
10
1.5841010629921259
20
0.8452432283464567
11
1.5841010629921259
21
0.845532559055118
0
LINE
8
BLACK
6
CONTINUOUS
10
1.5841010629921259
20
0.845532559055118
11
1.5840443307086614
21
0.8458161811023622
0
LINE
8
BLACK
6
CONTINUOUS
10
1.5840443307086614
20
0.8458161811023622
11
1.5841010629921259
21
0.8461029921259843
0
LINE
8
BLACK
6
CONTINUOUS
10
1.5841010629921259
20
0.8461029921259843
11
1.5841010629921259
21
0.8463953543307087
0
LINE
8
BLACK
6
CONTINUOUS
10
1.5841010629921259
20
0.8463953543307087
11
1.5842117716535433
21
0.8466626377952756
0
LINE
8
BLACK
6
CONTINUOUS
10
1.5842117716535433
20
0.8466626377952756
11
1.5842679133858268
21
0.8469464173228346
0
LINE
8
BLACK
6
CONTINUOUS
10
1.5842679133858268
20
0.8469464173228346
11
1.5844300787401575
21
0.8471896850393701
0
LINE
8
BLACK
6
CONTINUOUS
10
1.5844300787401575
20
0.8471896850393701
11
1.584541968503937
21
0.8474597637795276
0
LINE
8
BLACK
6
CONTINUOUS
10
1.584541968503937
20
0.8474597637795276
11
1.584746496062992
21
0.8476643307086614
0
LINE
8
BLACK
6
CONTINUOUS
10
1.584746496062992
20
0.8476643307086614
11
1.5849070078740157
21
0.8479050393700788
0
LINE
8
BLACK
6
CONTINUOUS
10
1.5849070078740157
20
0.8479050393700788
11
1.5851498818897638
21
0.848067716535433
0
LINE
8
BLACK
6
CONTINUOUS
10
1.5851498818897638
20
0.848067716535433
11
1.5853566141732283
21
0.8482744094488189
0
LINE
8
BLACK
6
CONTINUOUS
10
1.5853566141732283
20
0.8482744094488189
11
1.5856238976377952
21
0.848385157480315
0
LINE
8
BLACK
6
CONTINUOUS
10
1.5856238976377952
20
0.848385157480315
11
1.5858642913385825
21
0.8485461023622047
0
LINE
8
BLACK
6
CONTINUOUS
10
1.5858642913385825
20
0.8485461023622047
11
1.586150905511811
21
0.8486034645669291
0
LINE
8
BLACK
6
CONTINUOUS
10
1.586150905511811
20
0.8486034645669291
11
1.5864210236220473
21
0.8487153149606299
0
LINE
8
BLACK
6
CONTINUOUS
10
1.5864210236220473
20
0.8487153149606299
11
1.5869909448818897
21
0.8487714566929133
0
LINE
8
BLACK
6
CONTINUOUS
10
1.5869909448818897
20
0.8487714566929133
11
1.5869939763779528
21
0.8487720472440945
0
LINE
8
BLACK
6
CONTINUOUS
10
1.5869939763779528
20
0.8487720472440945
11
1.5869949999999999
21
0.8487718503937007
0
LINE
8
BLACK
6
CONTINUOUS
10
1.5869949999999999
20
0.8487718503937007
11
1.5869970866141732
21
0.8487720472440945
0
LINE
8
BLACK
6
CONTINUOUS
10
1.5869970866141732
20
0.8487720472440945
11
1.6340443307086614
21
0.8487720472440945
0
LINE
8
BLACK
6
CONTINUOUS
10
1.6340443307086614
20
0.8487720472440945
11
1.6340443307086614
21
0.8601050393700788
0
LINE
8
BLACK
6
CONTINUOUS
10
1.6340443307086614
20
0.8601050393700788
11
1.634101062992126
21
0.8606811023622047
0
LINE
8
BLACK
6
CONTINUOUS
10
1.634101062992126
20
0.8606811023622047
11
1.6345419685039371
21
0.8617455118110237
0
LINE
8
BLACK
6
CONTINUOUS
10
1.6345419685039371
20
0.8617455118110237
11
1.6353566141732283
21
0.8625601574803149
0
LINE
8
BLACK
6
CONTINUOUS
10
1.6353566141732283
20
0.8625601574803149
11
1.6364210236220471
21
0.863001062992126
0
LINE
8
BLACK
6
CONTINUOUS
10
1.6364210236220471
20
0.863001062992126
11
1.6375731496062991
21
0.863001062992126
0
LINE
8
BLACK
6
CONTINUOUS
10
1.6375731496062991
20
0.863001062992126
11
1.6386375590551181
21
0.8625601574803149
0
LINE
8
BLACK
6
CONTINUOUS
10
1.6313611417322835
20
0.9131811023622047
11
1.6424927952755906
21
0.9101983858267716
0
LINE
8
BLACK
6
CONTINUOUS
10
1.6424927952755906
20
0.9101983858267716
11
1.6531398818897638
21
0.9057882283464567
0
LINE
8
BLACK
6
CONTINUOUS
10
1.6531398818897638
20
0.9057882283464567
11
1.6631202755905512
21
0.900026062992126
0
LINE
8
BLACK
6
CONTINUOUS
10
1.6631202755905512
20
0.900026062992126
11
1.6722631102362204
21
0.8930104724409449
0
LINE
8
BLACK
6
CONTINUOUS
10
1.6722631102362204
20
0.8930104724409449
11
1.6804120472440944
21
0.8848615354330709
0
LINE
8
BLACK
6
CONTINUOUS
10
1.6804120472440944
20
0.8848615354330709
11
1.6874276377952755
21
0.8757187007874015
0
LINE
8
BLACK
6
CONTINUOUS
10
1.6874276377952755
20
0.8757187007874015
11
1.6931898031496062
21
0.8657383070866141
0
LINE
8
BLACK
6
CONTINUOUS
10
1.6931898031496062
20
0.8657383070866141
11
1.6975999606299212
21
0.8550912204724409
0
LINE
8
BLACK
6
CONTINUOUS
10
1.6975999606299212
20
0.8550912204724409
11
1.7005826771653543
21
0.8439595669291339
0
LINE
8
BLACK
6
CONTINUOUS
10
1.7005826771653543
20
0.8439595669291339
11
1.7020869291338583
21
0.8325338188976378
0
LINE
8
BLACK
6
CONTINUOUS
10
1.7020869291338583
20
0.8325338188976378
11
1.7020869291338583
21
0.8210094881889763
0
LINE
8
BLACK
6
CONTINUOUS
10
1.7020869291338583
20
0.8210094881889763
11
1.7005826771653543
21
0.8095837401574802
0
LINE
8
BLACK
6
CONTINUOUS
10
1.7005826771653543
20
0.8095837401574802
11
1.6975999606299212
21
0.7984520866141732
0
LINE
8
BLACK
6
CONTINUOUS
10
1.6975999606299212
20
0.7984520866141732
11
1.6931898031496062
21
0.787805
0
LINE
8
BLACK
6
CONTINUOUS
10
1.6931898031496062
20
0.787805
11
1.6874276377952755
21
0.7778246062992126
0
LINE
8
BLACK
6
CONTINUOUS
10
1.6874276377952755
20
0.7778246062992126
11
1.6804120472440944
21
0.7686817716535433
0
LINE
8
BLACK
6
CONTINUOUS
10
1.6804120472440944
20
0.7686817716535433
11
1.6722631102362204
21
0.7605328346456692
0
LINE
8
BLACK
6
CONTINUOUS
10
1.6722631102362204
20
0.7605328346456692
11
1.6631202755905512
21
0.7535172440944882
0
LINE
8
BLACK
6
CONTINUOUS
10
1.6631202755905512
20
0.7535172440944882
11
1.6531398818897638
21
0.7477550787401575
0
LINE
8
BLACK
6
CONTINUOUS
10
1.6531398818897638
20
0.7477550787401575
11
1.6424927952755906
21
0.7433449212598425
0
LINE
8
BLACK
6
CONTINUOUS
10
1.6424927952755906
20
0.7433449212598425
11
1.6313611417322835
21
0.7403622047244094
0
LINE
8
BLACK
6
CONTINUOUS
10
1.6313611417322835
20
0.7403622047244094
11
1.6199353937007874
21
0.7388579527559055
0
LINE
8
BLACK
6
CONTINUOUS
10
1.6199353937007874
20
0.7388579527559055
11
1.608411062992126
21
0.7388579527559055
0
LINE
8
BLACK
6
CONTINUOUS
10
1.608411062992126
20
0.7388579527559055
11
1.5969853149606299
21
0.7403622047244094
0
LINE
8
BLACK
6
CONTINUOUS
10
1.5969853149606299
20
0.7403622047244094
11
1.5858536614173229
21
0.7433449212598425
0
LINE
8
BLACK
6
CONTINUOUS
10
1.5858536614173229
20
0.7433449212598425
11
1.5752065748031496
21
0.7477550787401575
0
LINE
8
BLACK
6
CONTINUOUS
10
1.5752065748031496
20
0.7477550787401575
11
1.5652261811023622
21
0.7535172440944882
0
LINE
8
BLACK
6
CONTINUOUS
10
1.5652261811023622
20
0.7535172440944882
11
1.5560833464566928
21
0.7605328346456692
0
LINE
8
BLACK
6
CONTINUOUS
10
1.5560833464566928
20
0.7605328346456692
11
1.5479344094488188
21
0.7686817716535433
0
LINE
8
BLACK
6
CONTINUOUS
10
1.5479344094488188
20
0.7686817716535433
11
1.5409188188976377
21
0.7778246062992126
0
LINE
8
BLACK
6
CONTINUOUS
10
1.5409188188976377
20
0.7778246062992126
11
1.535156653543307
21
0.787805
0
LINE
8
BLACK
6
CONTINUOUS
10
1.535156653543307
20
0.787805
11
1.5307464960629922
21
0.7984520866141732
0
LINE
8
BLACK
6
CONTINUOUS
10
1.5307464960629922
20
0.7984520866141732
11
1.5277637795275589
21
0.8095837401574802
0
LINE
8
BLACK
6
CONTINUOUS
10
1.5277637795275589
20
0.8095837401574802
11
1.5262595275590551
21
0.8210094881889763
0
LINE
8
BLACK
6
CONTINUOUS
10
1.5262595275590551
20
0.8210094881889763
11
1.5262595275590551
21
0.8321591338582677
0
LINE
8
BLACK
6
CONTINUOUS
10
1.5262595275590551
20
0.8321591338582677
11
1.5262595275590551
21
0.8325338188976378
0
LINE
8
BLACK
6
CONTINUOUS
10
1.5262595275590551
20
0.8325338188976378
11
1.5277637795275589
21
0.8439595669291339
0
LINE
8
BLACK
6
CONTINUOUS
10
1.5277637795275589
20
0.8439595669291339
11
1.5307464960629922
21
0.8550912204724409
0
LINE
8
BLACK
6
CONTINUOUS
10
1.5307464960629922
20
0.8550912204724409
11
1.535156653543307
21
0.8657383070866141
0
LINE
8
BLACK
6
CONTINUOUS
10
1.535156653543307
20
0.8657383070866141
11
1.5409188188976377
21
0.8757187007874015
0
LINE
8
BLACK
6
CONTINUOUS
10
1.5409188188976377
20
0.8757187007874015
11
1.5479344094488188
21
0.8848615354330709
0
LINE
8
BLACK
6
CONTINUOUS
10
1.5479344094488188
20
0.8848615354330709
11
1.5560833464566928
21
0.8930104724409449
0
LINE
8
BLACK
6
CONTINUOUS
10
1.5560833464566928
20
0.8930104724409449
11
1.5652261811023622
21
0.900026062992126
0
LINE
8
BLACK
6
CONTINUOUS
10
1.5652261811023622
20
0.900026062992126
11
1.5752065748031496
21
0.9057882283464567
0
LINE
8
BLACK
6
CONTINUOUS
10
1.5752065748031496
20
0.9057882283464567
11
1.5858536614173229
21
0.9101983858267716
0
LINE
8
BLACK
6
CONTINUOUS
10
1.5858536614173229
20
0.9101983858267716
11
1.5969853149606299
21
0.9131811023622047
0
LINE
8
BLACK
6
CONTINUOUS
10
1.5969853149606299
20
0.9131811023622047
11
1.608411062992126
21
0.9146853543307086
0
LINE
8
BLACK
6
CONTINUOUS
10
1.608411062992126
20
0.9146853543307086
11
1.6199353937007874
21
0.9146853543307086
0
LINE
8
BLACK
6
CONTINUOUS
10
1.6199353937007874
20
0.9146853543307086
11
1.6313611417322835
21
0.9131811023622047
0
LINE
8
BLACK
6
CONTINUOUS
10
1.5319764173228345
20
0.8213841732283464
11
1.5333828346456693
21
0.8107014566929134
0
LINE
8
BLACK
6
CONTINUOUS
10
1.5333828346456693
20
0.8107014566929134
11
1.5361715748031495
21
0.8002936614173228
0
LINE
8
BLACK
6
CONTINUOUS
10
1.5361715748031495
20
0.8002936614173228
11
1.5402949606299212
21
0.7903389370078739
0
LINE
8
BLACK
6
CONTINUOUS
10
1.5402949606299212
20
0.7903389370078739
11
1.5456824409448819
21
0.7810075590551181
0
LINE
8
BLACK
6
CONTINUOUS
10
1.5456824409448819
20
0.7810075590551181
11
1.5522417716535433
21
0.772459251968504
0
LINE
8
BLACK
6
CONTINUOUS
10
1.5522417716535433
20
0.772459251968504
11
1.5598608267716536
21
0.7648401968503937
0
LINE
8
BLACK
6
CONTINUOUS
10
1.5598608267716536
20
0.7648401968503937
11
1.5684091338582677
21
0.7582808661417323
0
LINE
8
BLACK
6
CONTINUOUS
10
1.5684091338582677
20
0.7582808661417323
11
1.5777405118110235
21
0.7528933858267717
0
LINE
8
BLACK
6
CONTINUOUS
10
1.5777405118110235
20
0.7528933858267717
11
1.5876952362204724
21
0.7487699999999999
0
LINE
8
BLACK
6
CONTINUOUS
10
1.5876952362204724
20
0.7487699999999999
11
1.5981030314960629
21
0.7459812598425196
0
LINE
8
BLACK
6
CONTINUOUS
10
1.5981030314960629
20
0.7459812598425196
11
1.608785748031496
21
0.744574842519685
0
LINE
8
BLACK
6
CONTINUOUS
10
1.608785748031496
20
0.744574842519685
11
1.6195607086614172
21
0.744574842519685
0
LINE
8
BLACK
6
CONTINUOUS
10
1.6195607086614172
20
0.744574842519685
11
1.6302434251968503
21
0.7459812598425196
0
LINE
8
BLACK
6
CONTINUOUS
10
1.6302434251968503
20
0.7459812598425196
11
1.6406512204724408
21
0.7487699999999999
0
LINE
8
BLACK
6
CONTINUOUS
10
1.6406512204724408
20
0.7487699999999999
11
1.6506059448818897
21
0.7528933858267717
0
LINE
8
BLACK
6
CONTINUOUS
10
1.6506059448818897
20
0.7528933858267717
11
1.6599373228346457
21
0.7582808661417323
0
LINE
8
BLACK
6
CONTINUOUS
10
1.6599373228346457
20
0.7582808661417323
11
1.6684856299212598
21
0.7648401968503937
0
LINE
8
BLACK
6
CONTINUOUS
10
1.6684856299212598
20
0.7648401968503937
11
1.6761046850393699
21
0.772459251968504
0
LINE
8
BLACK
6
CONTINUOUS
10
1.6761046850393699
20
0.772459251968504
11
1.6826640157480315
21
0.7810075590551181
0
LINE
8
BLACK
6
CONTINUOUS
10
1.6826640157480315
20
0.7810075590551181
11
1.688051496062992
21
0.7903389370078739
0
LINE
8
BLACK
6
CONTINUOUS
10
1.688051496062992
20
0.7903389370078739
11
1.6921748818897637
21
0.8002936614173228
0
LINE
8
BLACK
6
CONTINUOUS
10
1.6921748818897637
20
0.8002936614173228
11
1.6949636220472442
21
0.8107014566929134
0
LINE
8
BLACK
6
CONTINUOUS
10
1.6949636220472442
20
0.8107014566929134
11
1.6963700393700787
21
0.8213841732283464
0
LINE
8
BLACK
6
CONTINUOUS
10
1.6963700393700787
20
0.8213841732283464
11
1.6963700393700787
21
0.8321591338582677
0
LINE
8
BLACK
6
CONTINUOUS
10
1.6963700393700787
20
0.8321591338582677
11
1.6949636220472442
21
0.8428418503937007
0
LINE
8
BLACK
6
CONTINUOUS
10
1.6949636220472442
20
0.8428418503937007
11
1.6921748818897637
21
0.8532496456692913
0
LINE
8
BLACK
6
CONTINUOUS
10
1.6921748818897637
20
0.8532496456692913
11
1.688051496062992
21
0.8632043700787402
0
LINE
8
BLACK
6
CONTINUOUS
10
1.688051496062992
20
0.8632043700787402
11
1.6826640157480315
21
0.872535748031496
0
LINE
8
BLACK
6
CONTINUOUS
10
1.6826640157480315
20
0.872535748031496
11
1.6761046850393699
21
0.8810840551181102
0
LINE
8
BLACK
6
CONTINUOUS
10
1.6761046850393699
20
0.8810840551181102
11
1.6684856299212598
21
0.8887031102362205
0
LINE
8
BLACK
6
CONTINUOUS
10
1.6684856299212598
20
0.8887031102362205
11
1.6599373228346457
21
0.8952624409448818
0
LINE
8
BLACK
6
CONTINUOUS
10
1.6599373228346457
20
0.8952624409448818
11
1.6506059448818897
21
0.9006499212598424
0
LINE
8
BLACK
6
CONTINUOUS
10
1.6506059448818897
20
0.9006499212598424
11
1.6406512204724408
21
0.9047733070866142
0
LINE
8
BLACK
6
CONTINUOUS
10
1.6406512204724408
20
0.9047733070866142
11
1.6302434251968503
21
0.9075620472440945
0
LINE
8
BLACK
6
CONTINUOUS
10
1.6302434251968503
20
0.9075620472440945
11
1.6195607086614172
21
0.9089684645669291
0
LINE
8
BLACK
6
CONTINUOUS
10
1.6195607086614172
20
0.9089684645669291
11
1.608785748031496
21
0.9089684645669291
0
LINE
8
BLACK
6
CONTINUOUS
10
1.608785748031496
20
0.9089684645669291
11
1.5981030314960629
21
0.9075620472440945
0
LINE
8
BLACK
6
CONTINUOUS
10
1.5981030314960629
20
0.9075620472440945
11
1.5876952362204724
21
0.9047733070866142
0
LINE
8
BLACK
6
CONTINUOUS
10
1.5876952362204724
20
0.9047733070866142
11
1.5777405118110235
21
0.9006499212598424
0
LINE
8
BLACK
6
CONTINUOUS
10
1.5777405118110235
20
0.9006499212598424
11
1.5684091338582677
21
0.8952624409448818
0
LINE
8
BLACK
6
CONTINUOUS
10
1.5684091338582677
20
0.8952624409448818
11
1.5598608267716536
21
0.8887031102362205
0
LINE
8
BLACK
6
CONTINUOUS
10
1.5598608267716536
20
0.8887031102362205
11
1.5522417716535433
21
0.8810840551181102
0
LINE
8
BLACK
6
CONTINUOUS
10
1.5522417716535433
20
0.8810840551181102
11
1.5456824409448819
21
0.872535748031496
0
LINE
8
BLACK
6
CONTINUOUS
10
1.5456824409448819
20
0.872535748031496
11
1.5402949606299212
21
0.8632043700787402
0
LINE
8
BLACK
6
CONTINUOUS
10
1.5402949606299212
20
0.8632043700787402
11
1.5361715748031495
21
0.8532496456692913
0
LINE
8
BLACK
6
CONTINUOUS
10
1.5361715748031495
20
0.8532496456692913
11
1.5333828346456693
21
0.8428418503937007
0
LINE
8
BLACK
6
CONTINUOUS
10
1.5333828346456693
20
0.8428418503937007
11
1.5319764173228345
21
0.8321591338582677
0
LINE
8
BLACK
6
CONTINUOUS
10
1.5319764173228345
20
0.8321591338582677
11
1.5319764173228345
21
0.8213841732283464
0
LINE
8
BLACK
6
CONTINUOUS
10
1.7525445669291337
20
0.9674629527559054
11
1.7536089763779528
21
0.9670220472440945
0
LINE
8
BLACK
6
CONTINUOUS
10
1.7536089763779528
20
0.9670220472440945
11
1.754423622047244
21
0.9662074015748031
0
LINE
8
BLACK
6
CONTINUOUS
10
1.754423622047244
20
0.9662074015748031
11
1.7548645275590551
21
0.9651429921259842
0
LINE
8
BLACK
6
CONTINUOUS
10
1.7548645275590551
20
0.9651429921259842
11
1.7549212598425197
21
0.9645669291338582
0
LINE
8
BLACK
6
CONTINUOUS
10
1.7549212598425197
20
0.9645669291338582
11
1.7549212598425197
21
0.6889763779527559
0
LINE
8
BLACK
6
CONTINUOUS
10
1.7549212598425197
20
0.6889763779527559
11
1.7548645275590551
21
0.6884003149606299
0
LINE
8
BLACK
6
CONTINUOUS
10
1.7548645275590551
20
0.6884003149606299
11
1.754423622047244
21
0.687335905511811
0
LINE
8
BLACK
6
CONTINUOUS
10
1.754423622047244
20
0.687335905511811
11
1.7536089763779528
21
0.6865212598425197
0
LINE
8
BLACK
6
CONTINUOUS
10
1.7536089763779528
20
0.6865212598425197
11
1.7525445669291337
21
0.6860803543307087
0
LINE
8
BLACK
6
CONTINUOUS
10
1.7525445669291337
20
0.6860803543307087
11
1.7519685039370079
21
0.6860236220472441
0
LINE
8
BLACK
6
CONTINUOUS
10
1.7519685039370079
20
0.6860236220472441
11
1.4763779527559056
21
0.6860236220472441
0
LINE
8
BLACK
6
CONTINUOUS
10
1.4763779527559056
20
0.6860236220472441
11
1.4758018897637795
21
0.6860803543307087
0
LINE
8
BLACK
6
CONTINUOUS
10
1.4758018897637795
20
0.6860803543307087
11
1.4747374803149607
21
0.6865212598425197
0
LINE
8
BLACK
6
CONTINUOUS
10
1.4747374803149607
20
0.6865212598425197
11
1.4739228346456692
21
0.687335905511811
0
LINE
8
BLACK
6
CONTINUOUS
10
1.4739228346456692
20
0.687335905511811
11
1.4734819291338583
21
0.6884003149606299
0
LINE
8
BLACK
6
CONTINUOUS
10
1.4734819291338583
20
0.6884003149606299
11
1.4734251968503937
21
0.6889763779527559
0
LINE
8
BLACK
6
CONTINUOUS
10
1.4734251968503937
20
0.6889763779527559
11
1.4734251968503937
21
0.9645669291338582
0
LINE
8
BLACK
6
CONTINUOUS
10
1.4734251968503937
20
0.9645669291338582
11
1.4734819291338583
21
0.9651429921259842
0
LINE
8
BLACK
6
CONTINUOUS
10
1.4734819291338583
20
0.9651429921259842
11
1.4739228346456692
21
0.9662074015748031
0
LINE
8
BLACK
6
CONTINUOUS
10
1.4739228346456692
20
0.9662074015748031
11
1.4747374803149607
21
0.9670220472440945
0
LINE
8
BLACK
6
CONTINUOUS
10
1.4747374803149607
20
0.9670220472440945
11
1.4758018897637795
21
0.9674629527559054
0
LINE
8
BLACK
6
CONTINUOUS
10
1.4758018897637795
20
0.9674629527559054
11
1.4763779527559056
21
0.96751968503937
0
LINE
8
BLACK
6
CONTINUOUS
10
1.4763779527559056
20
0.96751968503937
11
1.7519685039370079
21
0.96751968503937
0
LINE
8
BLACK
6
CONTINUOUS
10
1.7519685039370079
20
0.96751968503937
11
1.7525445669291337
21
0.9674629527559054
0
LINE
8
BLACK
6
CONTINUOUS
10
1.4793307086614174
20
0.7438976377952756
11
1.4793307086614174
21
0.6919291338582677
0
LINE
8
BLACK
6
CONTINUOUS
10
1.4793307086614174
20
0.6919291338582677
11
1.5312992125984251
21
0.6919291338582677
0
LINE
8
BLACK
6
CONTINUOUS
10
1.5312992125984251
20
0.6919291338582677
11
1.5312992125984251
21
0.7037401574803149
0
LINE
8
BLACK
6
CONTINUOUS
10
1.5312992125984251
20
0.7037401574803149
11
1.4940944881889764
21
0.7037401574803149
0
LINE
8
BLACK
6
CONTINUOUS
10
1.4940944881889764
20
0.7037401574803149
11
1.4935184251968503
21
0.7037968897637795
0
LINE
8
BLACK
6
CONTINUOUS
10
1.4935184251968503
20
0.7037968897637795
11
1.4924540157480315
21
0.7042377952755905
0
LINE
8
BLACK
6
CONTINUOUS
10
1.4924540157480315
20
0.7042377952755905
11
1.49163937007874
21
0.7050524409448818
0
LINE
8
BLACK
6
CONTINUOUS
10
1.49163937007874
20
0.7050524409448818
11
1.4911984645669292
21
0.7061168503937008
0
LINE
8
BLACK
6
CONTINUOUS
10
1.4911984645669292
20
0.7061168503937008
11
1.4911417322834646
21
0.7066929133858267
0
LINE
8
BLACK
6
CONTINUOUS
10
1.4911417322834646
20
0.7066929133858267
11
1.4911417322834646
21
0.7438976377952756
0
LINE
8
BLACK
6
CONTINUOUS
10
1.4911417322834646
20
0.7438976377952756
11
1.4793307086614174
21
0.7438976377952756
0
LINE
8
BLACK
6
CONTINUOUS
10
1.5372047244094489
20
0.9616141732283464
11
1.5372047244094489
21
0.9066929133858268
0
LINE
8
BLACK
6
CONTINUOUS
10
1.5372047244094489
20
0.9066929133858268
11
1.5371479921259843
21
0.9061168503937007
0
LINE
8
BLACK
6
CONTINUOUS
10
1.5371479921259843
20
0.9061168503937007
11
1.5367070866141732
21
0.9050524409448819
0
LINE
8
BLACK
6
CONTINUOUS
10
1.5367070866141732
20
0.9050524409448819
11
1.5358924409448818
21
0.9042377952755906
0
LINE
8
BLACK
6
CONTINUOUS
10
1.5358924409448818
20
0.9042377952755906
11
1.534828031496063
21
0.9037968897637795
0
LINE
8
BLACK
6
CONTINUOUS
10
1.534828031496063
20
0.9037968897637795
11
1.5342519685039371
21
0.9037401574803149
0
LINE
8
BLACK
6
CONTINUOUS
10
1.5342519685039371
20
0.9037401574803149
11
1.4793307086614174
21
0.9037401574803149
0
LINE
8
BLACK
6
CONTINUOUS
10
1.4793307086614174
20
0.9037401574803149
11
1.4793307086614174
21
0.7498031496062992
0
LINE
8
BLACK
6
CONTINUOUS
10
1.4793307086614174
20
0.7498031496062992
11
1.5342519685039371
21
0.7498031496062992
0
LINE
8
BLACK
6
CONTINUOUS
10
1.5342519685039371
20
0.7498031496062992
11
1.534828031496063
21
0.7497464173228346
0
LINE
8
BLACK
6
CONTINUOUS
10
1.534828031496063
20
0.7497464173228346
11
1.5358924409448818
21
0.7493055118110236
0
LINE
8
BLACK
6
CONTINUOUS
10
1.5358924409448818
20
0.7493055118110236
11
1.5367070866141732
21
0.7484908661417322
0
LINE
8
BLACK
6
CONTINUOUS
10
1.5367070866141732
20
0.7484908661417322
11
1.5371479921259843
21
0.7474264566929134
0
LINE
8
BLACK
6
CONTINUOUS
10
1.5371479921259843
20
0.7474264566929134
11
1.5372047244094489
21
0.7468503937007874
0
LINE
8
BLACK
6
CONTINUOUS
10
1.5372047244094489
20
0.7468503937007874
11
1.5372047244094489
21
0.6919291338582677
0
LINE
8
BLACK
6
CONTINUOUS
10
1.5372047244094489
20
0.6919291338582677
11
1.6911417322834645
21
0.6919291338582677
0
LINE
8
BLACK
6
CONTINUOUS
10
1.6911417322834645
20
0.6919291338582677
11
1.6911417322834645
21
0.7468503937007874
0
LINE
8
BLACK
6
CONTINUOUS
10
1.6911417322834645
20
0.7468503937007874
11
1.6911984645669291
21
0.7474264566929134
0
LINE
8
BLACK
6
CONTINUOUS
10
1.6911984645669291
20
0.7474264566929134
11
1.6916393700787402
21
0.7484908661417322
0
LINE
8
BLACK
6
CONTINUOUS
10
1.6916393700787402
20
0.7484908661417322
11
1.6924540157480314
21
0.7493055118110236
0
LINE
8
BLACK
6
CONTINUOUS
10
1.6924540157480314
20
0.7493055118110236
11
1.6935184251968503
21
0.7497464173228346
0
LINE
8
BLACK
6
CONTINUOUS
10
1.6935184251968503
20
0.7497464173228346
11
1.6940944881889763
21
0.7498031496062992
0
LINE
8
BLACK
6
CONTINUOUS
10
1.6940944881889763
20
0.7498031496062992
11
1.7490157480314961
21
0.7498031496062992
0
LINE
8
BLACK
6
CONTINUOUS
10
1.7490157480314961
20
0.7498031496062992
11
1.7490157480314961
21
0.9037401574803149
0
LINE
8
BLACK
6
CONTINUOUS
10
1.7490157480314961
20
0.9037401574803149
11
1.6940944881889763
21
0.9037401574803149
0
LINE
8
BLACK
6
CONTINUOUS
10
1.6940944881889763
20
0.9037401574803149
11
1.6935184251968503
21
0.9037968897637795
0
LINE
8
BLACK
6
CONTINUOUS
10
1.6935184251968503
20
0.9037968897637795
11
1.6924540157480314
21
0.9042377952755906
0
LINE
8
BLACK
6
CONTINUOUS
10
1.6924540157480314
20
0.9042377952755906
11
1.6916393700787402
21
0.9050524409448819
0
LINE
8
BLACK
6
CONTINUOUS
10
1.6916393700787402
20
0.9050524409448819
11
1.6911984645669291
21
0.9061168503937007
0
LINE
8
BLACK
6
CONTINUOUS
10
1.6911984645669291
20
0.9061168503937007
11
1.6911417322834645
21
0.9066929133858268
0
LINE
8
BLACK
6
CONTINUOUS
10
1.6911417322834645
20
0.9066929133858268
11
1.6911417322834645
21
0.9616141732283464
0
LINE
8
BLACK
6
CONTINUOUS
10
1.6911417322834645
20
0.9616141732283464
11
1.5372047244094489
21
0.9616141732283464
0
LINE
8
BLACK
6
CONTINUOUS
10
1.7372047244094488
20
0.7438976377952756
11
1.7372047244094488
21
0.7066929133858267
0
LINE
8
BLACK
6
CONTINUOUS
10
1.7372047244094488
20
0.7066929133858267
11
1.7371479921259843
21
0.7061168503937008
0
LINE
8
BLACK
6
CONTINUOUS
10
1.7371479921259843
20
0.7061168503937008
11
1.7367070866141732
21
0.7050524409448818
0
LINE
8
BLACK
6
CONTINUOUS
10
1.7367070866141732
20
0.7050524409448818
11
1.7358924409448819
21
0.7042377952755905
0
LINE
8
BLACK
6
CONTINUOUS
10
1.7358924409448819
20
0.7042377952755905
11
1.7348280314960629
21
0.7037968897637795
0
LINE
8
BLACK
6
CONTINUOUS
10
1.7348280314960629
20
0.7037968897637795
11
1.734251968503937
21
0.7037401574803149
0
LINE
8
BLACK
6
CONTINUOUS
10
1.734251968503937
20
0.7037401574803149
11
1.6970472440944881
21
0.7037401574803149
0
LINE
8
BLACK
6
CONTINUOUS
10
1.6970472440944881
20
0.7037401574803149
11
1.6970472440944881
21
0.6919291338582677
0
LINE
8
BLACK
6
CONTINUOUS
10
1.6970472440944881
20
0.6919291338582677
11
1.7490157480314961
21
0.6919291338582677
0
LINE
8
BLACK
6
CONTINUOUS
10
1.7490157480314961
20
0.6919291338582677
11
1.7490157480314961
21
0.7438976377952756
0
LINE
8
BLACK
6
CONTINUOUS
10
1.7490157480314961
20
0.7438976377952756
11
1.7372047244094488
21
0.7438976377952756
0
LINE
8
BLACK
6
CONTINUOUS
10
1.6970472440944881
20
0.7438976377952756
11
1.6970472440944881
21
0.7096456692913385
0
LINE
8
BLACK
6
CONTINUOUS
10
1.6970472440944881
20
0.7096456692913385
11
1.7312992125984252
21
0.7096456692913385
0
LINE
8
BLACK
6
CONTINUOUS
10
1.7312992125984252
20
0.7096456692913385
11
1.7312992125984252
21
0.7438976377952756
0
LINE
8
BLACK
6
CONTINUOUS
10
1.7312992125984252
20
0.7438976377952756
11
1.6970472440944881
21
0.7438976377952756
0
LINE
8
BLACK
6
CONTINUOUS
10
1.4970472440944882
20
0.7438976377952756
11
1.4970472440944882
21
0.7096456692913385
0
LINE
8
BLACK
6
CONTINUOUS
10
1.4970472440944882
20
0.7096456692913385
11
1.5312992125984251
21
0.7096456692913385
0
LINE
8
BLACK
6
CONTINUOUS
10
1.5312992125984251
20
0.7096456692913385
11
1.5312992125984251
21
0.7438976377952756
0
LINE
8
BLACK
6
CONTINUOUS
10
1.5312992125984251
20
0.7438976377952756
11
1.4970472440944882
21
0.7438976377952756
0
LINE
8
BLACK
6
CONTINUOUS
10
1.6970472440944881
20
0.9438976377952756
11
1.6970472440944881
21
0.9096456692913386
0
LINE
8
BLACK
6
CONTINUOUS
10
1.6970472440944881
20
0.9096456692913386
11
1.7312992125984252
21
0.9096456692913386
0
LINE
8
BLACK
6
CONTINUOUS
10
1.7312992125984252
20
0.9096456692913386
11
1.7312992125984252
21
0.9438976377952756
0
LINE
8
BLACK
6
CONTINUOUS
10
1.7312992125984252
20
0.9438976377952756
11
1.6970472440944881
21
0.9438976377952756
0
LINE
8
BLACK
6
CONTINUOUS
10
1.6970472440944881
20
0.9616141732283464
11
1.6970472440944881
21
0.9498031496062992
0
LINE
8
BLACK
6
CONTINUOUS
10
1.6970472440944881
20
0.9498031496062992
11
1.734251968503937
21
0.9498031496062992
0
LINE
8
BLACK
6
CONTINUOUS
10
1.734251968503937
20
0.9498031496062992
11
1.7348280314960629
21
0.9497464173228346
0
LINE
8
BLACK
6
CONTINUOUS
10
1.7348280314960629
20
0.9497464173228346
11
1.7358924409448819
21
0.9493055118110236
0
LINE
8
BLACK
6
CONTINUOUS
10
1.7358924409448819
20
0.9493055118110236
11
1.7367070866141732
21
0.9484908661417323
0
LINE
8
BLACK
6
CONTINUOUS
10
1.7367070866141732
20
0.9484908661417323
11
1.7371479921259843
21
0.9474264566929134
0
LINE
8
BLACK
6
CONTINUOUS
10
1.7371479921259843
20
0.9474264566929134
11
1.7372047244094488
21
0.9468503937007874
0
LINE
8
BLACK
6
CONTINUOUS
10
1.7372047244094488
20
0.9468503937007874
11
1.7372047244094488
21
0.9096456692913386
0
LINE
8
BLACK
6
CONTINUOUS
10
1.7372047244094488
20
0.9096456692913386
11
1.7490157480314961
21
0.9096456692913386
0
LINE
8
BLACK
6
CONTINUOUS
10
1.7490157480314961
20
0.9096456692913386
11
1.7490157480314961
21
0.9616141732283464
0
LINE
8
BLACK
6
CONTINUOUS
10
1.7490157480314961
20
0.9616141732283464
11
1.6970472440944881
21
0.9616141732283464
0
LINE
8
BLACK
6
CONTINUOUS
10
1.4793307086614174
20
0.9616141732283464
11
1.4793307086614174
21
0.9096456692913386
0
LINE
8
BLACK
6
CONTINUOUS
10
1.4793307086614174
20
0.9096456692913386
11
1.4911417322834646
21
0.9096456692913386
0
LINE
8
BLACK
6
CONTINUOUS
10
1.4911417322834646
20
0.9096456692913386
11
1.4911417322834646
21
0.9468503937007874
0
LINE
8
BLACK
6
CONTINUOUS
10
1.4911417322834646
20
0.9468503937007874
11
1.4911984645669292
21
0.9474264566929134
0
LINE
8
BLACK
6
CONTINUOUS
10
1.4911984645669292
20
0.9474264566929134
11
1.49163937007874
21
0.9484908661417323
0
LINE
8
BLACK
6
CONTINUOUS
10
1.49163937007874
20
0.9484908661417323
11
1.4924540157480315
21
0.9493055118110236
0
LINE
8
BLACK
6
CONTINUOUS
10
1.4924540157480315
20
0.9493055118110236
11
1.4935184251968503
21
0.9497464173228346
0
LINE
8
BLACK
6
CONTINUOUS
10
1.4935184251968503
20
0.9497464173228346
11
1.4940944881889764
21
0.9498031496062992
0
LINE
8
BLACK
6
CONTINUOUS
10
1.4940944881889764
20
0.9498031496062992
11
1.5312992125984251
21
0.9498031496062992
0
LINE
8
BLACK
6
CONTINUOUS
10
1.5312992125984251
20
0.9498031496062992
11
1.5312992125984251
21
0.9616141732283464
0
LINE
8
BLACK
6
CONTINUOUS
10
1.5312992125984251
20
0.9616141732283464
11
1.4793307086614174
21
0.9616141732283464
0
LINE
8
BLACK
6
CONTINUOUS
10
1.4970472440944882
20
0.9438976377952756
11
1.4970472440944882
21
0.9096456692913386
0
LINE
8
BLACK
6
CONTINUOUS
10
1.4970472440944882
20
0.9096456692913386
11
1.5312992125984251
21
0.9096456692913386
0
LINE
8
BLACK
6
CONTINUOUS
10
1.5312992125984251
20
0.9096456692913386
11
1.5312992125984251
21
0.9438976377952756
0
LINE
8
BLACK
6
CONTINUOUS
10
1.5312992125984251
20
0.9438976377952756
11
1.4970472440944882
21
0.9438976377952756
0
LINE
8
BLACK
6
CONTINUOUS
10
0.4201122047244095
20
1.3183720472440945
11
0.4332392125984252
21
1.315375905511811
0
LINE
8
BLACK
6
CONTINUOUS
10
0.4332392125984252
20
1.315375905511811
11
0.4459482283464567
21
1.3109288188976378
0
LINE
8
BLACK
6
CONTINUOUS
10
0.4459482283464567
20
1.3109288188976378
11
0.4580794094488189
21
1.3050867716535433
0
LINE
8
BLACK
6
CONTINUOUS
10
0.4580794094488189
20
1.3050867716535433
11
0.4694801968503937
21
1.2979231889763778
0
LINE
8
BLACK
6
CONTINUOUS
10
0.4694801968503937
20
1.2979231889763778
11
0.4800072440944882
21
1.2895281496062991
0
LINE
8
BLACK
6
CONTINUOUS
10
0.4800072440944882
20
1.2895281496062991
11
0.4895281496062992
21
1.2800072440944881
0
LINE
8
BLACK
6
CONTINUOUS
10
0.4895281496062992
20
1.2800072440944881
11
0.4979231889763779
21
1.2694801968503937
0
LINE
8
BLACK
6
CONTINUOUS
10
0.4979231889763779
20
1.2694801968503937
11
0.5050867716535433
21
1.2580794094488188
0
LINE
8
BLACK
6
CONTINUOUS
10
0.5050867716535433
20
1.2580794094488188
11
0.5109288188976377
21
1.2459482283464567
0
LINE
8
BLACK
6
CONTINUOUS
10
0.5109288188976377
20
1.2459482283464567
11
0.515375905511811
21
1.2332392125984251
0
LINE
8
BLACK
6
CONTINUOUS
10
0.515375905511811
20
1.2332392125984251
11
0.5183720472440945
21
1.2201122047244095
0
LINE
8
BLACK
6
CONTINUOUS
10
0.5183720472440945
20
1.2201122047244095
11
0.5198796062992126
21
1.2067322834645668
0
LINE
8
BLACK
6
CONTINUOUS
10
0.5198796062992126
20
1.2067322834645668
11
0.5198796062992126
21
1.1932677165354331
0
LINE
8
BLACK
6
CONTINUOUS
10
0.5198796062992126
20
1.1932677165354331
11
0.5183720472440945
21
1.1798877952755906
0
LINE
8
BLACK
6
CONTINUOUS
10
0.5183720472440945
20
1.1798877952755906
11
0.515375905511811
21
1.1667607874015749
0
LINE
8
BLACK
6
CONTINUOUS
10
0.515375905511811
20
1.1667607874015749
11
0.5109288188976377
21
1.1540517716535432
0
LINE
8
BLACK
6
CONTINUOUS
10
0.5109288188976377
20
1.1540517716535432
11
0.5050867716535433
21
1.1419205905511811
0
LINE
8
BLACK
6
CONTINUOUS
10
0.5050867716535433
20
1.1419205905511811
11
0.4979231889763779
21
1.1305198031496062
0
LINE
8
BLACK
6
CONTINUOUS
10
0.4979231889763779
20
1.1305198031496062
11
0.4895281496062992
21
1.1199927559055118
0
LINE
8
BLACK
6
CONTINUOUS
10
0.4895281496062992
20
1.1199927559055118
11
0.4800072440944882
21
1.1104718503937008
0
LINE
8
BLACK
6
CONTINUOUS
10
0.4800072440944882
20
1.1104718503937008
11
0.4694801968503937
21
1.1020768110236221
0
LINE
8
BLACK
6
CONTINUOUS
10
0.4694801968503937
20
1.1020768110236221
11
0.4580794094488189
21
1.0949132283464567
0
LINE
8
BLACK
6
CONTINUOUS
10
0.4580794094488189
20
1.0949132283464567
11
0.4459482283464567
21
1.0890711811023621
0
LINE
8
BLACK
6
CONTINUOUS
10
0.4459482283464567
20
1.0890711811023621
11
0.4332392125984252
21
1.0846240944881889
0
LINE
8
BLACK
6
CONTINUOUS
10
0.4332392125984252
20
1.0846240944881889
11
0.4201122047244095
21
1.0816279527559054
0
LINE
8
BLACK
6
CONTINUOUS
10
0.4201122047244095
20
1.0816279527559054
11
0.4067322834645669
21
1.0801203937007873
0
LINE
8
BLACK
6
CONTINUOUS
10
0.4067322834645669
20
1.0801203937007873
11
0.3932677165354331
21
1.0801203937007873
0
LINE
8
BLACK
6
CONTINUOUS
10
0.3932677165354331
20
1.0801203937007873
11
0.3798877952755905
21
1.0816279527559054
0
LINE
8
BLACK
6
CONTINUOUS
10
0.3798877952755905
20
1.0816279527559054
11
0.3667607874015748
21
1.0846240944881889
0
LINE
8
BLACK
6
CONTINUOUS
10
0.3667607874015748
20
1.0846240944881889
11
0.3540517716535433
21
1.0890711811023621
0
LINE
8
BLACK
6
CONTINUOUS
10
0.3540517716535433
20
1.0890711811023621
11
0.3419205905511811
21
1.0949132283464567
0
LINE
8
BLACK
6
CONTINUOUS
10
0.3419205905511811
20
1.0949132283464567
11
0.3305198031496063
21
1.1020768110236221
0
LINE
8
BLACK
6
CONTINUOUS
10
0.3305198031496063
20
1.1020768110236221
11
0.3199927559055118
21
1.1104718503937008
0
LINE
8
BLACK
6
CONTINUOUS
10
0.3199927559055118
20
1.1104718503937008
11
0.3104718503937008
21
1.1199927559055118
0
LINE
8
BLACK
6
CONTINUOUS
10
0.3104718503937008
20
1.1199927559055118
11
0.302076811023622
21
1.1305198031496062
0
LINE
8
BLACK
6
CONTINUOUS
10
0.302076811023622
20
1.1305198031496062
11
0.2949132283464567
21
1.1419205905511811
0
LINE
8
BLACK
6
CONTINUOUS
10
0.2949132283464567
20
1.1419205905511811
11
0.2890711811023622
21
1.1540517716535432
0
LINE
8
BLACK
6
CONTINUOUS
10
0.2890711811023622
20
1.1540517716535432
11
0.284624094488189
21
1.1667607874015749
0
LINE
8
BLACK
6
CONTINUOUS
10
0.284624094488189
20
1.1667607874015749
11
0.2816279527559055
21
1.1798877952755906
0
LINE
8
BLACK
6
CONTINUOUS
10
0.2816279527559055
20
1.1798877952755906
11
0.2801203937007874
21
1.1932677165354331
0
LINE
8
BLACK
6
CONTINUOUS
10
0.2801203937007874
20
1.1932677165354331
11
0.2801203937007874
21
1.206521811023622
0
LINE
8
BLACK
6
CONTINUOUS
10
0.2801203937007874
20
1.206521811023622
11
0.2801203937007874
21
1.2067322834645668
0
LINE
8
BLACK
6
CONTINUOUS
10
0.2801203937007874
20
1.2067322834645668
11
0.2816279527559055
21
1.2201122047244095
0
LINE
8
BLACK
6
CONTINUOUS
10
0.2816279527559055
20
1.2201122047244095
11
0.284624094488189
21
1.2332392125984251
0
LINE
8
BLACK
6
CONTINUOUS
10
0.284624094488189
20
1.2332392125984251
11
0.2890711811023622
21
1.2459482283464567
0
LINE
8
BLACK
6
CONTINUOUS
10
0.2890711811023622
20
1.2459482283464567
11
0.2949132283464567
21
1.2580794094488188
0
LINE
8
BLACK
6
CONTINUOUS
10
0.2949132283464567
20
1.2580794094488188
11
0.302076811023622
21
1.2694801968503937
0
LINE
8
BLACK
6
CONTINUOUS
10
0.302076811023622
20
1.2694801968503937
11
0.3104718503937008
21
1.2800072440944881
0
LINE
8
BLACK
6
CONTINUOUS
10
0.3104718503937008
20
1.2800072440944881
11
0.3199927559055118
21
1.2895281496062991
0
LINE
8
BLACK
6
CONTINUOUS
10
0.3199927559055118
20
1.2895281496062991
11
0.3305198031496063
21
1.2979231889763778
0
LINE
8
BLACK
6
CONTINUOUS
10
0.3305198031496063
20
1.2979231889763778
11
0.3419205905511811
21
1.3050867716535433
0
LINE
8
BLACK
6
CONTINUOUS
10
0.3419205905511811
20
1.3050867716535433
11
0.3540517716535433
21
1.3109288188976378
0
LINE
8
BLACK
6
CONTINUOUS
10
0.3540517716535433
20
1.3109288188976378
11
0.3667607874015748
21
1.315375905511811
0
LINE
8
BLACK
6
CONTINUOUS
10
0.3667607874015748
20
1.315375905511811
11
0.3798877952755905
21
1.3183720472440945
0
LINE
8
BLACK
6
CONTINUOUS
10
0.3798877952755905
20
1.3183720472440945
11
0.3932677165354331
21
1.3198796062992126
0
LINE
8
BLACK
6
CONTINUOUS
10
0.3932677165354331
20
1.3198796062992126
11
0.4067322834645669
21
1.3198796062992126
0
LINE
8
BLACK
6
CONTINUOUS
10
0.4067322834645669
20
1.3198796062992126
11
0.4201122047244095
21
1.3183720472440945
0
LINE
8
BLACK
6
CONTINUOUS
10
0.2838685039370079
20
1.1934781889763779
11
0.2853288976377953
21
1.1805166141732284
0
LINE
8
BLACK
6
CONTINUOUS
10
0.2853288976377953
20
1.1805166141732284
11
0.2882313779527559
21
1.1677999999999999
0
LINE
8
BLACK
6
CONTINUOUS
10
0.2882313779527559
20
1.1677999999999999
11
0.2925394094488189
21
1.1554883858267717
0
LINE
8
BLACK
6
CONTINUOUS
10
0.2925394094488189
20
1.1554883858267717
11
0.2981988188976378
21
1.1437364960629921
0
LINE
8
BLACK
6
CONTINUOUS
10
0.2981988188976378
20
1.1437364960629921
11
0.3051384645669291
21
1.132692125984252
0
LINE
8
BLACK
6
CONTINUOUS
10
0.3051384645669291
20
1.132692125984252
11
0.3132710236220472
21
1.1224942519685039
0
LINE
8
BLACK
6
CONTINUOUS
10
0.3132710236220472
20
1.1224942519685039
11
0.322494251968504
21
1.1132710236220473
0
LINE
8
BLACK
6
CONTINUOUS
10
0.322494251968504
20
1.1132710236220473
11
0.332692125984252
21
1.1051384645669291
0
LINE
8
BLACK
6
CONTINUOUS
10
0.332692125984252
20
1.1051384645669291
11
0.3437364960629921
21
1.0981988188976377
0
LINE
8
BLACK
6
CONTINUOUS
10
0.3437364960629921
20
1.0981988188976377
11
0.3554883858267717
21
1.0925394094488188
0
LINE
8
BLACK
6
CONTINUOUS
10
0.3554883858267717
20
1.0925394094488188
11
0.3678
21
1.0882313779527559
0
LINE
8
BLACK
6
CONTINUOUS
10
0.3678
20
1.0882313779527559
11
0.3805166141732284
21
1.0853288976377953
0
LINE
8
BLACK
6
CONTINUOUS
10
0.3805166141732284
20
1.0853288976377953
11
0.3934781889763779
21
1.083868503937008
0
LINE
8
BLACK
6
CONTINUOUS
10
0.3934781889763779
20
1.083868503937008
11
0.4065218110236221
21
1.083868503937008
0
LINE
8
BLACK
6
CONTINUOUS
10
0.4065218110236221
20
1.083868503937008
11
0.4194833858267716
21
1.0853288976377953
0
LINE
8
BLACK
6
CONTINUOUS
10
0.4194833858267716
20
1.0853288976377953
11
0.4322
21
1.0882313779527559
0
LINE
8
BLACK
6
CONTINUOUS
10
0.4322
20
1.0882313779527559
11
0.4445116141732283
21
1.0925394094488188
0
LINE
8
BLACK
6
CONTINUOUS
10
0.4445116141732283
20
1.0925394094488188
11
0.4562635039370079
21
1.0981988188976377
0
LINE
8
BLACK
6
CONTINUOUS
10
0.4562635039370079
20
1.0981988188976377
11
0.467307874015748
21
1.1051384645669291
0
LINE
8
BLACK
6
CONTINUOUS
10
0.467307874015748
20
1.1051384645669291
11
0.477505748031496
21
1.1132710236220473
0
LINE
8
BLACK
6
CONTINUOUS
10
0.477505748031496
20
1.1132710236220473
11
0.4867289763779528
21
1.1224942519685039
0
LINE
8
BLACK
6
CONTINUOUS
10
0.4867289763779528
20
1.1224942519685039
11
0.4948615354330709
21
1.132692125984252
0
LINE
8
BLACK
6
CONTINUOUS
10
0.4948615354330709
20
1.132692125984252
11
0.5018011811023622
21
1.1437364960629921
0
LINE
8
BLACK
6
CONTINUOUS
10
0.5018011811023622
20
1.1437364960629921
11
0.5074605905511811
21
1.1554883858267717
0
LINE
8
BLACK
6
CONTINUOUS
10
0.5074605905511811
20
1.1554883858267717
11
0.511768622047244
21
1.1677999999999999
0
LINE
8
BLACK
6
CONTINUOUS
10
0.511768622047244
20
1.1677999999999999
11
0.5146711023622047
21
1.1805166141732284
0
LINE
8
BLACK
6
CONTINUOUS
10
0.5146711023622047
20
1.1805166141732284
11
0.5161314960629921
21
1.1934781889763779
0
LINE
8
BLACK
6
CONTINUOUS
10
0.5161314960629921
20
1.1934781889763779
11
0.5161314960629921
21
1.206521811023622
0
LINE
8
BLACK
6
CONTINUOUS
10
0.5161314960629921
20
1.206521811023622
11
0.5146711023622047
21
1.2194833858267715
0
LINE
8
BLACK
6
CONTINUOUS
10
0.5146711023622047
20
1.2194833858267715
11
0.511768622047244
21
1.2322
0
LINE
8
BLACK
6
CONTINUOUS
10
0.511768622047244
20
1.2322
11
0.5074605905511811
21
1.2445116141732284
0
LINE
8
BLACK
6
CONTINUOUS
10
0.5074605905511811
20
1.2445116141732284
11
0.5018011811023622
21
1.2562635039370078
0
LINE
8
BLACK
6
CONTINUOUS
10
0.5018011811023622
20
1.2562635039370078
11
0.4948615354330709
21
1.267307874015748
0
LINE
8
BLACK
6
CONTINUOUS
10
0.4948615354330709
20
1.267307874015748
11
0.4867289763779528
21
1.277505748031496
0
LINE
8
BLACK
6
CONTINUOUS
10
0.4867289763779528
20
1.277505748031496
11
0.477505748031496
21
1.2867289763779528
0
LINE
8
BLACK
6
CONTINUOUS
10
0.477505748031496
20
1.2867289763779528
11
0.467307874015748
21
1.2948615354330708
0
LINE
8
BLACK
6
CONTINUOUS
10
0.467307874015748
20
1.2948615354330708
11
0.4562635039370079
21
1.3018011811023622
0
LINE
8
BLACK
6
CONTINUOUS
10
0.4562635039370079
20
1.3018011811023622
11
0.4445116141732283
21
1.3074605905511811
0
LINE
8
BLACK
6
CONTINUOUS
10
0.4445116141732283
20
1.3074605905511811
11
0.4322
21
1.311768622047244
0
LINE
8
BLACK
6
CONTINUOUS
10
0.4322
20
1.311768622047244
11
0.4194833858267716
21
1.3146711023622046
0
LINE
8
BLACK
6
CONTINUOUS
10
0.4194833858267716
20
1.3146711023622046
11
0.4065218110236221
21
1.3161314960629922
0
LINE
8
BLACK
6
CONTINUOUS
10
0.4065218110236221
20
1.3161314960629922
11
0.3934781889763779
21
1.3161314960629922
0
LINE
8
BLACK
6
CONTINUOUS
10
0.3934781889763779
20
1.3161314960629922
11
0.3805166141732284
21
1.3146711023622046
0
LINE
8
BLACK
6
CONTINUOUS
10
0.3805166141732284
20
1.3146711023622046
11
0.3678
21
1.311768622047244
0
LINE
8
BLACK
6
CONTINUOUS
10
0.3678
20
1.311768622047244
11
0.3554883858267717
21
1.3074605905511811
0
LINE
8
BLACK
6
CONTINUOUS
10
0.3554883858267717
20
1.3074605905511811
11
0.3437364960629921
21
1.3018011811023622
0
LINE
8
BLACK
6
CONTINUOUS
10
0.3437364960629921
20
1.3018011811023622
11
0.332692125984252
21
1.2948615354330708
0
LINE
8
BLACK
6
CONTINUOUS
10
0.332692125984252
20
1.2948615354330708
11
0.322494251968504
21
1.2867289763779528
0
LINE
8
BLACK
6
CONTINUOUS
10
0.322494251968504
20
1.2867289763779528
11
0.3132710236220472
21
1.277505748031496
0
LINE
8
BLACK
6
CONTINUOUS
10
0.3132710236220472
20
1.277505748031496
11
0.3051384645669291
21
1.267307874015748
0
LINE
8
BLACK
6
CONTINUOUS
10
0.3051384645669291
20
1.267307874015748
11
0.2981988188976378
21
1.2562635039370078
0
LINE
8
BLACK
6
CONTINUOUS
10
0.2981988188976378
20
1.2562635039370078
11
0.2925394094488189
21
1.2445116141732284
0
LINE
8
BLACK
6
CONTINUOUS
10
0.2925394094488189
20
1.2445116141732284
11
0.2882313779527559
21
1.2322
0
LINE
8
BLACK
6
CONTINUOUS
10
0.2882313779527559
20
1.2322
11
0.2853288976377953
21
1.2194833858267715
0
LINE
8
BLACK
6
CONTINUOUS
10
0.2853288976377953
20
1.2194833858267715
11
0.2838685039370079
21
1.206521811023622
0
LINE
8
BLACK
6
CONTINUOUS
10
0.2838685039370079
20
1.206521811023622
11
0.2838685039370079
21
1.1934781889763779
0
LINE
8
BLACK
6
CONTINUOUS
10
1.6201122047244094
20
1.3183720472440945
11
1.6332392125984252
21
1.315375905511811
0
LINE
8
BLACK
6
CONTINUOUS
10
1.6332392125984252
20
1.315375905511811
11
1.6459482283464566
21
1.3109288188976378
0
LINE
8
BLACK
6
CONTINUOUS
10
1.6459482283464566
20
1.3109288188976378
11
1.6580794094488189
21
1.3050867716535433
0
LINE
8
BLACK
6
CONTINUOUS
10
1.6580794094488189
20
1.3050867716535433
11
1.6694801968503936
21
1.2979231889763778
0
LINE
8
BLACK
6
CONTINUOUS
10
1.6694801968503936
20
1.2979231889763778
11
1.6800072440944882
21
1.2895281496062991
0
LINE
8
BLACK
6
CONTINUOUS
10
1.6800072440944882
20
1.2895281496062991
11
1.6895281496062993
21
1.2800072440944881
0
LINE
8
BLACK
6
CONTINUOUS
10
1.6895281496062993
20
1.2800072440944881
11
1.697923188976378
21
1.2694801968503937
0
LINE
8
BLACK
6
CONTINUOUS
10
1.697923188976378
20
1.2694801968503937
11
1.7050867716535432
21
1.2580794094488188
0
LINE
8
BLACK
6
CONTINUOUS
10
1.7050867716535432
20
1.2580794094488188
11
1.7109288188976377
21
1.2459482283464567
0
LINE
8
BLACK
6
CONTINUOUS
10
1.7109288188976377
20
1.2459482283464567
11
1.715375905511811
21
1.2332392125984251
0
LINE
8
BLACK
6
CONTINUOUS
10
1.715375905511811
20
1.2332392125984251
11
1.7183720472440944
21
1.2201122047244095
0
LINE
8
BLACK
6
CONTINUOUS
10
1.7183720472440944
20
1.2201122047244095
11
1.7198796062992125
21
1.2067322834645668
0
LINE
8
BLACK
6
CONTINUOUS
10
1.7198796062992125
20
1.2067322834645668
11
1.7198796062992125
21
1.1932677165354331
0
LINE
8
BLACK
6
CONTINUOUS
10
1.7198796062992125
20
1.1932677165354331
11
1.7183720472440944
21
1.1798877952755906
0
LINE
8
BLACK
6
CONTINUOUS
10
1.7183720472440944
20
1.1798877952755906
11
1.715375905511811
21
1.1667607874015749
0
LINE
8
BLACK
6
CONTINUOUS
10
1.715375905511811
20
1.1667607874015749
11
1.7109288188976377
21
1.1540517716535432
0
LINE
8
BLACK
6
CONTINUOUS
10
1.7109288188976377
20
1.1540517716535432
11
1.7050867716535432
21
1.1419205905511811
0
LINE
8
BLACK
6
CONTINUOUS
10
1.7050867716535432
20
1.1419205905511811
11
1.697923188976378
21
1.1305198031496062
0
LINE
8
BLACK
6
CONTINUOUS
10
1.697923188976378
20
1.1305198031496062
11
1.6895281496062993
21
1.1199927559055118
0
LINE
8
BLACK
6
CONTINUOUS
10
1.6895281496062993
20
1.1199927559055118
11
1.6800072440944882
21
1.1104718503937008
0
LINE
8
BLACK
6
CONTINUOUS
10
1.6800072440944882
20
1.1104718503937008
11
1.6694801968503936
21
1.1020768110236221
0
LINE
8
BLACK
6
CONTINUOUS
10
1.6694801968503936
20
1.1020768110236221
11
1.6580794094488189
21
1.0949132283464567
0
LINE
8
BLACK
6
CONTINUOUS
10
1.6580794094488189
20
1.0949132283464567
11
1.6459482283464566
21
1.0890711811023621
0
LINE
8
BLACK
6
CONTINUOUS
10
1.6459482283464566
20
1.0890711811023621
11
1.6332392125984252
21
1.0846240944881889
0
LINE
8
BLACK
6
CONTINUOUS
10
1.6332392125984252
20
1.0846240944881889
11
1.6201122047244094
21
1.0816279527559054
0
LINE
8
BLACK
6
CONTINUOUS
10
1.6201122047244094
20
1.0816279527559054
11
1.606732283464567
21
1.0801203937007873
0
LINE
8
BLACK
6
CONTINUOUS
10
1.606732283464567
20
1.0801203937007873
11
1.593267716535433
21
1.0801203937007873
0
LINE
8
BLACK
6
CONTINUOUS
10
1.593267716535433
20
1.0801203937007873
11
1.5798877952755905
21
1.0816279527559054
0
LINE
8
BLACK
6
CONTINUOUS
10
1.5798877952755905
20
1.0816279527559054
11
1.5667607874015748
21
1.0846240944881889
0
LINE
8
BLACK
6
CONTINUOUS
10
1.5667607874015748
20
1.0846240944881889
11
1.5540517716535434
21
1.0890711811023621
0
LINE
8
BLACK
6
CONTINUOUS
10
1.5540517716535434
20
1.0890711811023621
11
1.541920590551181
21
1.0949132283464567
0
LINE
8
BLACK
6
CONTINUOUS
10
1.541920590551181
20
1.0949132283464567
11
1.5305198031496063
21
1.1020768110236221
0
LINE
8
BLACK
6
CONTINUOUS
10
1.5305198031496063
20
1.1020768110236221
11
1.5199927559055117
21
1.1104718503937008
0
LINE
8
BLACK
6
CONTINUOUS
10
1.5199927559055117
20
1.1104718503937008
11
1.5104718503937007
21
1.1199927559055118
0
LINE
8
BLACK
6
CONTINUOUS
10
1.5104718503937007
20
1.1199927559055118
11
1.502076811023622
21
1.1305198031496062
0
LINE
8
BLACK
6
CONTINUOUS
10
1.502076811023622
20
1.1305198031496062
11
1.4949132283464566
21
1.1419205905511811
0
LINE
8
BLACK
6
CONTINUOUS
10
1.4949132283464566
20
1.1419205905511811
11
1.4890711811023623
21
1.1540517716535432
0
LINE
8
BLACK
6
CONTINUOUS
10
1.4890711811023623
20
1.1540517716535432
11
1.484624094488189
21
1.1667607874015749
0
LINE
8
BLACK
6
CONTINUOUS
10
1.484624094488189
20
1.1667607874015749
11
1.4816279527559055
21
1.1798877952755906
0
LINE
8
BLACK
6
CONTINUOUS
10
1.4816279527559055
20
1.1798877952755906
11
1.4801203937007874
21
1.1932677165354331
0
LINE
8
BLACK
6
CONTINUOUS
10
1.4801203937007874
20
1.1932677165354331
11
1.4801203937007874
21
1.206521811023622
0
LINE
8
BLACK
6
CONTINUOUS
10
1.4801203937007874
20
1.206521811023622
11
1.4801203937007874
21
1.2067322834645668
0
LINE
8
BLACK
6
CONTINUOUS
10
1.4801203937007874
20
1.2067322834645668
11
1.4816279527559055
21
1.2201122047244095
0
LINE
8
BLACK
6
CONTINUOUS
10
1.4816279527559055
20
1.2201122047244095
11
1.484624094488189
21
1.2332392125984251
0
LINE
8
BLACK
6
CONTINUOUS
10
1.484624094488189
20
1.2332392125984251
11
1.4890711811023623
21
1.2459482283464567
0
LINE
8
BLACK
6
CONTINUOUS
10
1.4890711811023623
20
1.2459482283464567
11
1.4949132283464566
21
1.2580794094488188
0
LINE
8
BLACK
6
CONTINUOUS
10
1.4949132283464566
20
1.2580794094488188
11
1.502076811023622
21
1.2694801968503937
0
LINE
8
BLACK
6
CONTINUOUS
10
1.502076811023622
20
1.2694801968503937
11
1.5104718503937007
21
1.2800072440944881
0
LINE
8
BLACK
6
CONTINUOUS
10
1.5104718503937007
20
1.2800072440944881
11
1.5199927559055117
21
1.2895281496062991
0
LINE
8
BLACK
6
CONTINUOUS
10
1.5199927559055117
20
1.2895281496062991
11
1.5305198031496063
21
1.2979231889763778
0
LINE
8
BLACK
6
CONTINUOUS
10
1.5305198031496063
20
1.2979231889763778
11
1.541920590551181
21
1.3050867716535433
0
LINE
8
BLACK
6
CONTINUOUS
10
1.541920590551181
20
1.3050867716535433
11
1.5540517716535434
21
1.3109288188976378
0
LINE
8
BLACK
6
CONTINUOUS
10
1.5540517716535434
20
1.3109288188976378
11
1.5667607874015748
21
1.315375905511811
0
LINE
8
BLACK
6
CONTINUOUS
10
1.5667607874015748
20
1.315375905511811
11
1.5798877952755905
21
1.3183720472440945
0
LINE
8
BLACK
6
CONTINUOUS
10
1.5798877952755905
20
1.3183720472440945
11
1.593267716535433
21
1.3198796062992126
0
LINE
8
BLACK
6
CONTINUOUS
10
1.593267716535433
20
1.3198796062992126
11
1.606732283464567
21
1.3198796062992126
0
LINE
8
BLACK
6
CONTINUOUS
10
1.606732283464567
20
1.3198796062992126
11
1.6201122047244094
21
1.3183720472440945
0
LINE
8
BLACK
6
CONTINUOUS
10
1.4838685039370079
20
1.1934781889763779
11
1.4853288976377952
21
1.1805166141732284
0
LINE
8
BLACK
6
CONTINUOUS
10
1.4853288976377952
20
1.1805166141732284
11
1.4882313779527558
21
1.1677999999999999
0
LINE
8
BLACK
6
CONTINUOUS
10
1.4882313779527558
20
1.1677999999999999
11
1.4925394094488189
21
1.1554883858267717
0
LINE
8
BLACK
6
CONTINUOUS
10
1.4925394094488189
20
1.1554883858267717
11
1.4981988188976378
21
1.1437364960629921
0
LINE
8
BLACK
6
CONTINUOUS
10
1.4981988188976378
20
1.1437364960629921
11
1.505138464566929
21
1.132692125984252
0
LINE
8
BLACK
6
CONTINUOUS
10
1.505138464566929
20
1.132692125984252
11
1.5132710236220472
21
1.1224942519685039
0
LINE
8
BLACK
6
CONTINUOUS
10
1.5132710236220472
20
1.1224942519685039
11
1.5224942519685039
21
1.1132710236220473
0
LINE
8
BLACK
6
CONTINUOUS
10
1.5224942519685039
20
1.1132710236220473
11
1.5326921259842519
21
1.1051384645669291
0
LINE
8
BLACK
6
CONTINUOUS
10
1.5326921259842519
20
1.1051384645669291
11
1.543736496062992
21
1.0981988188976377
0
LINE
8
BLACK
6
CONTINUOUS
10
1.543736496062992
20
1.0981988188976377
11
1.5554883858267716
21
1.0925394094488188
0
LINE
8
BLACK
6
CONTINUOUS
10
1.5554883858267716
20
1.0925394094488188
11
1.5677999999999999
21
1.0882313779527559
0
LINE
8
BLACK
6
CONTINUOUS
10
1.5677999999999999
20
1.0882313779527559
11
1.5805166141732283
21
1.0853288976377953
0
LINE
8
BLACK
6
CONTINUOUS
10
1.5805166141732283
20
1.0853288976377953
11
1.5934781889763778
21
1.083868503937008
0
LINE
8
BLACK
6
CONTINUOUS
10
1.5934781889763778
20
1.083868503937008
11
1.6065218110236219
21
1.083868503937008
0
LINE
8
BLACK
6
CONTINUOUS
10
1.6065218110236219
20
1.083868503937008
11
1.6194833858267716
21
1.0853288976377953
0
LINE
8
BLACK
6
CONTINUOUS
10
1.6194833858267716
20
1.0853288976377953
11
1.6321999999999999
21
1.0882313779527559
0
LINE
8
BLACK
6
CONTINUOUS
10
1.6321999999999999
20
1.0882313779527559
11
1.6445116141732283
21
1.0925394094488188
0
LINE
8
BLACK
6
CONTINUOUS
10
1.6445116141732283
20
1.0925394094488188
11
1.6562635039370079
21
1.0981988188976377
0
LINE
8
BLACK
6
CONTINUOUS
10
1.6562635039370079
20
1.0981988188976377
11
1.6673078740157481
21
1.1051384645669291
0
LINE
8
BLACK
6
CONTINUOUS
10
1.6673078740157481
20
1.1051384645669291
11
1.6775057480314961
21
1.1132710236220473
0
LINE
8
BLACK
6
CONTINUOUS
10
1.6775057480314961
20
1.1132710236220473
11
1.6867289763779527
21
1.1224942519685039
0
LINE
8
BLACK
6
CONTINUOUS
10
1.6867289763779527
20
1.1224942519685039
11
1.6948615354330707
21
1.132692125984252
0
LINE
8
BLACK
6
CONTINUOUS
10
1.6948615354330707
20
1.132692125984252
11
1.7018011811023621
21
1.1437364960629921
0
LINE
8
BLACK
6
CONTINUOUS
10
1.7018011811023621
20
1.1437364960629921
11
1.707460590551181
21
1.1554883858267717
0
LINE
8
BLACK
6
CONTINUOUS
10
1.707460590551181
20
1.1554883858267717
11
1.7117686220472441
21
1.1677999999999999
0
LINE
8
BLACK
6
CONTINUOUS
10
1.7117686220472441
20
1.1677999999999999
11
1.7146711023622048
21
1.1805166141732284
0
LINE
8
BLACK
6
CONTINUOUS
10
1.7146711023622048
20
1.1805166141732284
11
1.7161314960629921
21
1.1934781889763779
0
LINE
8
BLACK
6
CONTINUOUS
10
1.7161314960629921
20
1.1934781889763779
11
1.7161314960629921
21
1.206521811023622
0
LINE
8
BLACK
6
CONTINUOUS
10
1.7161314960629921
20
1.206521811023622
11
1.7146711023622048
21
1.2194833858267715
0
LINE
8
BLACK
6
CONTINUOUS
10
1.7146711023622048
20
1.2194833858267715
11
1.7117686220472441
21
1.2322
0
LINE
8
BLACK
6
CONTINUOUS
10
1.7117686220472441
20
1.2322
11
1.707460590551181
21
1.2445116141732284
0
LINE
8
BLACK
6
CONTINUOUS
10
1.707460590551181
20
1.2445116141732284
11
1.7018011811023621
21
1.2562635039370078
0
LINE
8
BLACK
6
CONTINUOUS
10
1.7018011811023621
20
1.2562635039370078
11
1.6948615354330707
21
1.267307874015748
0
LINE
8
BLACK
6
CONTINUOUS
10
1.6948615354330707
20
1.267307874015748
11
1.6867289763779527
21
1.277505748031496
0
LINE
8
BLACK
6
CONTINUOUS
10
1.6867289763779527
20
1.277505748031496
11
1.6775057480314961
21
1.2867289763779528
0
LINE
8
BLACK
6
CONTINUOUS
10
1.6775057480314961
20
1.2867289763779528
11
1.6673078740157481
21
1.2948615354330708
0
LINE
8
BLACK
6
CONTINUOUS
10
1.6673078740157481
20
1.2948615354330708
11
1.6562635039370079
21
1.3018011811023622
0
LINE
8
BLACK
6
CONTINUOUS
10
1.6562635039370079
20
1.3018011811023622
11
1.6445116141732283
21
1.3074605905511811
0
LINE
8
BLACK
6
CONTINUOUS
10
1.6445116141732283
20
1.3074605905511811
11
1.6321999999999999
21
1.311768622047244
0
LINE
8
BLACK
6
CONTINUOUS
10
1.6321999999999999
20
1.311768622047244
11
1.6194833858267716
21
1.3146711023622046
0
LINE
8
BLACK
6
CONTINUOUS
10
1.6194833858267716
20
1.3146711023622046
11
1.6065218110236219
21
1.3161314960629922
0
LINE
8
BLACK
6
CONTINUOUS
10
1.6065218110236219
20
1.3161314960629922
11
1.5934781889763778
21
1.3161314960629922
0
LINE
8
BLACK
6
CONTINUOUS
10
1.5934781889763778
20
1.3161314960629922
11
1.5805166141732283
21
1.3146711023622046
0
LINE
8
BLACK
6
CONTINUOUS
10
1.5805166141732283
20
1.3146711023622046
11
1.5677999999999999
21
1.311768622047244
0
LINE
8
BLACK
6
CONTINUOUS
10
1.5677999999999999
20
1.311768622047244
11
1.5554883858267716
21
1.3074605905511811
0
LINE
8
BLACK
6
CONTINUOUS
10
1.5554883858267716
20
1.3074605905511811
11
1.543736496062992
21
1.3018011811023622
0
LINE
8
BLACK
6
CONTINUOUS
10
1.543736496062992
20
1.3018011811023622
11
1.5326921259842519
21
1.2948615354330708
0
LINE
8
BLACK
6
CONTINUOUS
10
1.5326921259842519
20
1.2948615354330708
11
1.5224942519685039
21
1.2867289763779528
0
LINE
8
BLACK
6
CONTINUOUS
10
1.5224942519685039
20
1.2867289763779528
11
1.5132710236220472
21
1.277505748031496
0
LINE
8
BLACK
6
CONTINUOUS
10
1.5132710236220472
20
1.277505748031496
11
1.505138464566929
21
1.267307874015748
0
LINE
8
BLACK
6
CONTINUOUS
10
1.505138464566929
20
1.267307874015748
11
1.4981988188976378
21
1.2562635039370078
0
LINE
8
BLACK
6
CONTINUOUS
10
1.4981988188976378
20
1.2562635039370078
11
1.4925394094488189
21
1.2445116141732284
0
LINE
8
BLACK
6
CONTINUOUS
10
1.4925394094488189
20
1.2445116141732284
11
1.4882313779527558
21
1.2322
0
LINE
8
BLACK
6
CONTINUOUS
10
1.4882313779527558
20
1.2322
11
1.4853288976377952
21
1.2194833858267715
0
LINE
8
BLACK
6
CONTINUOUS
10
1.4853288976377952
20
1.2194833858267715
11
1.4838685039370079
21
1.206521811023622
0
LINE
8
BLACK
6
CONTINUOUS
10
1.4838685039370079
20
1.206521811023622
11
1.4838685039370079
21
1.1934781889763779
0
CIRCLE
8
BLACK
10
1.05
20
1.1933070866141733
40
0.0068897637795276
0
CIRCLE
8
BLACK
10
1.05
20
1.2933070866141732
40
0.0068897637795276
0
CIRCLE
8
BLACK
10
1.1499999999999999
20
1.1933070866141733
40
0.0068897637795276
0
CIRCLE
8
BLACK
10
1.1499999999999999
20
1.2933070866141732
40
0.0068897637795276
0
CIRCLE
8
BLACK
10
1.25
20
1.1933070866141733
40
0.0068897637795276
0
CIRCLE
8
BLACK
10
1.25
20
1.2933070866141732
40
0.0068897637795276
0
CIRCLE
8
BLACK
10
1.3499999999999999
20
1.1933070866141733
40
0.0068897637795276
0
CIRCLE
8
BLACK
10
1.3499999999999999
20
1.2933070866141732
40
0.0068897637795276
0
CIRCLE
8
BLACK
10
1.6141732283464567
20
0.8267716535433071
40
0.0068897637795276
0
CIRCLE
8
BLACK
10
1.7141732283464566
20
0.926771653543307
40
0.0068897637795276
0
CIRCLE
8
BLACK
10
1.5141732283464566
20
0.926771653543307
40
0.0068897637795276
0
CIRCLE
8
BLACK
10
1.7141732283464566
20
0.7267716535433071
40
0.0068897637795276
0
CIRCLE
8
BLACK
10
1.5141732283464566
20
0.7267716535433071
40
0.0068897637795276
0
CIRCLE
8
BLACK
10
0.4
20
0.4
40
0.0068897637795276
0
CIRCLE
8
BLACK
10
1.5999999999999999
20
1.2
40
0.0068897637795276
0
CIRCLE
8
BLACK
10
1.5999999999999999
20
0.4
40
0.0068897637795276
0
CIRCLE
8
BLACK
10
0.4
20
1.2
40
0.0068897637795276
0
CIRCLE
8
BLACK
10
0.3043307086614173
20
0.9070866141732283
40
0.0068897637795276
0
CIRCLE
8
BLACK
10
0.4043307086614173
20
0.9070866141732283
40
0.0068897637795276
0
CIRCLE
8
BLACK
10
0.3043307086614173
20
0.8070866141732284
40
0.0068897637795276
0
CIRCLE
8
BLACK
10
0.4043307086614173
20
0.8070866141732284
40
0.0068897637795276
0
CIRCLE
8
BLACK
10
0.3043307086614173
20
0.7070866141732284
40
0.0068897637795276
0
CIRCLE
8
BLACK
10
0.4043307086614173
20
0.7070866141732284
40
0.0068897637795276
0
CIRCLE
8
BLACK
10
0.987007874015748
20
0.2989173228346457
40
0.0068897637795276
0
CIRCLE
8
BLACK
10
0.987007874015748
20
0.3989173228346456
40
0.0068897637795276
0
CIRCLE
8
BLACK
10
1.0870078740157481
20
0.2989173228346457
40
0.0068897637795276
0
CIRCLE
8
BLACK
10
1.0870078740157481
20
0.3989173228346456
40
0.0068897637795276
0
CIRCLE
8
BLACK
10
1.1870078740157479
20
0.2989173228346457
40
0.0068897637795276
0
CIRCLE
8
BLACK
10
1.1870078740157479
20
0.3989173228346456
40
0.0068897637795276
0
CIRCLE
8
BLACK
10
1.287007874015748
20
0.2989173228346457
40
0.0068897637795276
0
CIRCLE
8
BLACK
10
1.287007874015748
20
0.3989173228346456
40
0.0068897637795276
0
CIRCLE
8
BLACK
10
0.9116561417322835
20
0.8494582283464567
40
0.004
0
CIRCLE
8
BLACK
10
0.9074803149606299
20
0.7756852755905511
40
0.004
0
CIRCLE
8
BLACK
10
0.8726817716535433
20
0.8104838582677165
40
0.004
0
CIRCLE
8
BLACK
10
0.8378831889763779
20
0.8452824015748032
40
0.004
0
CIRCLE
8
BLACK
10
0.8337074015748032
20
0.7715094881889764
40
0.004
0
CIRCLE
8
BLACK
10
1.05
20
1.1933070866141733
40
0.0068897637795276
0
CIRCLE
8
BLACK
10
1.05
20
1.2933070866141732
40
0.0068897637795276
0
CIRCLE
8
BLACK
10
1.1499999999999999
20
1.1933070866141733
40
0.0068897637795276
0
CIRCLE
8
BLACK
10
1.1499999999999999
20
1.2933070866141732
40
0.0068897637795276
0
CIRCLE
8
BLACK
10
1.25
20
1.1933070866141733
40
0.0068897637795276
0
CIRCLE
8
BLACK
10
1.25
20
1.2933070866141732
40
0.0068897637795276
0
CIRCLE
8
BLACK
10
1.3499999999999999
20
1.1933070866141733
40
0.0068897637795276
0
CIRCLE
8
BLACK
10
1.3499999999999999
20
1.2933070866141732
40
0.0068897637795276
0
CIRCLE
8
BLACK
10
1.6141732283464567
20
0.8267716535433071
40
0.0068897637795276
0
CIRCLE
8
BLACK
10
1.7141732283464566
20
0.926771653543307
40
0.0068897637795276
0
CIRCLE
8
BLACK
10
1.5141732283464566
20
0.926771653543307
40
0.0068897637795276
0
CIRCLE
8
BLACK
10
1.7141732283464566
20
0.7267716535433071
40
0.0068897637795276
0
CIRCLE
8
BLACK
10
1.5141732283464566
20
0.7267716535433071
40
0.0068897637795276
0
CIRCLE
8
BLACK
10
0.4
20
0.4
40
0.0068897637795276
0
CIRCLE
8
BLACK
10
1.5999999999999999
20
1.2
40
0.0068897637795276
0
CIRCLE
8
BLACK
10
1.5999999999999999
20
0.4
40
0.0068897637795276
0
CIRCLE
8
BLACK
10
0.4
20
1.2
40
0.0068897637795276
0
CIRCLE
8
BLACK
10
0.3043307086614173
20
0.9070866141732283
40
0.0068897637795276
0
CIRCLE
8
BLACK
10
0.4043307086614173
20
0.9070866141732283
40
0.0068897637795276
0
CIRCLE
8
BLACK
10
0.3043307086614173
20
0.8070866141732284
40
0.0068897637795276
0
CIRCLE
8
BLACK
10
0.4043307086614173
20
0.8070866141732284
40
0.0068897637795276
0
CIRCLE
8
BLACK
10
0.3043307086614173
20
0.7070866141732284
40
0.0068897637795276
0
CIRCLE
8
BLACK
10
0.4043307086614173
20
0.7070866141732284
40
0.0068897637795276
0
CIRCLE
8
BLACK
10
0.987007874015748
20
0.2989173228346457
40
0.0068897637795276
0
CIRCLE
8
BLACK
10
0.987007874015748
20
0.3989173228346456
40
0.0068897637795276
0
CIRCLE
8
BLACK
10
1.0870078740157481
20
0.2989173228346457
40
0.0068897637795276
0
CIRCLE
8
BLACK
10
1.0870078740157481
20
0.3989173228346456
40
0.0068897637795276
0
CIRCLE
8
BLACK
10
1.1870078740157479
20
0.2989173228346457
40
0.0068897637795276
0
CIRCLE
8
BLACK
10
1.1870078740157479
20
0.3989173228346456
40
0.0068897637795276
0
CIRCLE
8
BLACK
10
1.287007874015748
20
0.2989173228346457
40
0.0068897637795276
0
CIRCLE
8
BLACK
10
1.287007874015748
20
0.3989173228346456
40
0.0068897637795276
0
CIRCLE
8
BLACK
10
0.9116561417322835
20
0.8494582283464567
40
0.004
0
CIRCLE
8
BLACK
10
0.9074803149606299
20
0.7756852755905511
40
0.004
0
CIRCLE
8
BLACK
10
0.8726817716535433
20
0.8104838582677165
40
0.004
0
CIRCLE
8
BLACK
10
0.8378831889763779
20
0.8452824015748032
40
0.004
0
CIRCLE
8
BLACK
10
0.8337074015748032
20
0.7715094881889764
40
0.004
  0
ENDSEC
  0
EOF
