  0
SECTION
  2
HEADER
  9
$ANGBASE
  50
0.0
  9
$ANGDIR
  70
1
  9
$MEASUREMENT
  70
0
  0
ENDSEC
  0
SECTION
  2
TABLES
  0
TABLE
  2
LTYPE
  70
4
  0
LTYPE
  5
40F
  2
CONTINUOUS
  70
0
  3
Solid line
  72
65
  73
0
  40
0.0
  0
LTYPE
  5
410
  2
DASHDOT
 70
0
  3
Dash Dot ____ _ ____ _
 72
65
 73
4
 40
2.0
 49
1.25
 49
-0.25
 49
0.25
 49
-0.25
  0
LTYPE
  5
411
  2
DASHED
 70
0
  3
Dashed __ __ __ __ __
 72
65
 73
2
 40
0.75
 49
0.5
 49
-0.25
  0
LTYPE
  5
43B
  2
DOTTED
 70
0
  3
Dotted .  .  .  .
 72
65
 73
2
 40
0.2
 49
0.0
 49
-0.2
  0
ENDTAB
  0
TABLE
  2
STYLE
  70
4
  0
STYLE
  2
KICAD
  70
0
  40
0
  41
1
  42
1
  50
0
  71
0
  3
isocp.shx
  0
STYLE
  2
KICADB
  70
0
  40
0
  41
1
  42
1
  50
0
  71
0
  3
isocp.shx
  0
STYLE
  2
KICADI
  70
0
  40
0
  41
1
  42
1
  50
15
  71
0
  3
isocp.shx
  0
STYLE
  2
KICADBI
  70
0
  40
0
  41
1
  42
1
  50
15
  71
0
  3
isocp.shx
  0
ENDTAB
  0
TABLE
  2
LAYER
  70
1
  0
LAYER
  2
BLACK
  70
0
  62
7
  6
CONTINUOUS
  0
ENDTAB
  0
ENDSEC
  0
SECTION
  2
ENTITIES
0
LINE
8
BLACK
6
CONTINUOUS
10
0.9670078740157481
20
0.2689173228346456
11
0.907007874015748
21
0.2689173228346456
0
LINE
8
BLACK
6
CONTINUOUS
10
0.907007874015748
20
0.2689173228346456
11
0.907007874015748
21
0.3289173228346456
0
LINE
8
BLACK
6
CONTINUOUS
10
0.907007874015748
20
0.3289173228346456
11
0.9670078740157481
21
0.3289173228346456
0
LINE
8
BLACK
6
CONTINUOUS
10
0.9670078740157481
20
0.3289173228346456
11
0.9670078740157481
21
0.2689173228346456
0
LINE
8
BLACK
6
CONTINUOUS
10
1.067007874015748
20
0.2689173228346456
11
1.007007874015748
21
0.2689173228346456
0
LINE
8
BLACK
6
CONTINUOUS
10
1.007007874015748
20
0.2689173228346456
11
1.007007874015748
21
0.3289173228346456
0
LINE
8
BLACK
6
CONTINUOUS
10
1.007007874015748
20
0.3289173228346456
11
1.067007874015748
21
0.3289173228346456
0
LINE
8
BLACK
6
CONTINUOUS
10
1.067007874015748
20
0.3289173228346456
11
1.067007874015748
21
0.2689173228346456
0
LINE
8
BLACK
6
CONTINUOUS
10
1.1670078740157479
20
0.2689173228346456
11
1.1070078740157481
21
0.2689173228346456
0
LINE
8
BLACK
6
CONTINUOUS
10
1.1070078740157481
20
0.2689173228346456
11
1.1070078740157481
21
0.3289173228346456
0
LINE
8
BLACK
6
CONTINUOUS
10
1.1070078740157481
20
0.3289173228346456
11
1.1670078740157479
21
0.3289173228346456
0
LINE
8
BLACK
6
CONTINUOUS
10
1.1670078740157479
20
0.3289173228346456
11
1.1670078740157479
21
0.2689173228346456
0
LINE
8
BLACK
6
CONTINUOUS
10
1.267007874015748
20
0.2689173228346456
11
1.2070078740157479
21
0.2689173228346456
0
LINE
8
BLACK
6
CONTINUOUS
10
1.2070078740157479
20
0.2689173228346456
11
1.2070078740157479
21
0.3289173228346456
0
LINE
8
BLACK
6
CONTINUOUS
10
1.2070078740157479
20
0.3289173228346456
11
1.267007874015748
21
0.3289173228346456
0
LINE
8
BLACK
6
CONTINUOUS
10
1.267007874015748
20
0.3289173228346456
11
1.267007874015748
21
0.2689173228346456
0
LINE
8
BLACK
6
CONTINUOUS
10
1.3670078740157481
20
0.2689173228346456
11
1.307007874015748
21
0.2689173228346456
0
LINE
8
BLACK
6
CONTINUOUS
10
1.307007874015748
20
0.2689173228346456
11
1.307007874015748
21
0.3289173228346456
0
LINE
8
BLACK
6
CONTINUOUS
10
1.307007874015748
20
0.3289173228346456
11
1.3670078740157481
21
0.3289173228346456
0
LINE
8
BLACK
6
CONTINUOUS
10
1.3670078740157481
20
0.3289173228346456
11
1.3670078740157481
21
0.2689173228346456
0
LINE
8
BLACK
6
CONTINUOUS
10
0.4197842125984252
20
0.5164414566929134
11
0.432697125984252
21
0.5134941732283465
0
LINE
8
BLACK
6
CONTINUOUS
10
0.432697125984252
20
0.5134941732283465
11
0.4451988188976378
21
0.5091196456692914
0
LINE
8
BLACK
6
CONTINUOUS
10
0.4451988188976378
20
0.5091196456692914
11
0.4571321653543307
21
0.5033728346456693
0
LINE
8
BLACK
6
CONTINUOUS
10
0.4571321653543307
20
0.5033728346456693
11
0.4683470078740157
21
0.4963261023622047
0
LINE
8
BLACK
6
CONTINUOUS
10
0.4683470078740157
20
0.4963261023622047
11
0.4787023622047244
21
0.4880679527559055
0
LINE
8
BLACK
6
CONTINUOUS
10
0.4787023622047244
20
0.4880679527559055
11
0.4880679527559055
21
0.4787023622047244
0
LINE
8
BLACK
6
CONTINUOUS
10
0.4880679527559055
20
0.4787023622047244
11
0.4963261023622047
21
0.4683470078740157
0
LINE
8
BLACK
6
CONTINUOUS
10
0.4963261023622047
20
0.4683470078740157
11
0.5033728346456693
21
0.4571321653543307
0
LINE
8
BLACK
6
CONTINUOUS
10
0.5033728346456693
20
0.4571321653543307
11
0.5091196456692914
21
0.4451988188976378
0
LINE
8
BLACK
6
CONTINUOUS
10
0.5091196456692914
20
0.4451988188976378
11
0.5134941732283465
21
0.432697125984252
0
LINE
8
BLACK
6
CONTINUOUS
10
0.5134941732283465
20
0.432697125984252
11
0.5164414566929134
21
0.4197842125984252
0
LINE
8
BLACK
6
CONTINUOUS
10
0.5164414566929134
20
0.4197842125984252
11
0.5179244094488189
21
0.4066224803149606
0
LINE
8
BLACK
6
CONTINUOUS
10
0.5179244094488189
20
0.4066224803149606
11
0.5179244094488189
21
0.3933775196850394
0
LINE
8
BLACK
6
CONTINUOUS
10
0.5179244094488189
20
0.3933775196850394
11
0.5164414566929134
21
0.3802157874015748
0
LINE
8
BLACK
6
CONTINUOUS
10
0.5164414566929134
20
0.3802157874015748
11
0.5134941732283465
21
0.367302874015748
0
LINE
8
BLACK
6
CONTINUOUS
10
0.5134941732283465
20
0.367302874015748
11
0.5091196456692914
21
0.3548011811023622
0
LINE
8
BLACK
6
CONTINUOUS
10
0.5091196456692914
20
0.3548011811023622
11
0.5033728346456693
21
0.3428678346456693
0
LINE
8
BLACK
6
CONTINUOUS
10
0.5033728346456693
20
0.3428678346456693
11
0.4963261023622047
21
0.3316529921259843
0
LINE
8
BLACK
6
CONTINUOUS
10
0.4963261023622047
20
0.3316529921259843
11
0.4880679527559055
21
0.3212976377952756
0
LINE
8
BLACK
6
CONTINUOUS
10
0.4880679527559055
20
0.3212976377952756
11
0.4787023622047244
21
0.3119320472440945
0
LINE
8
BLACK
6
CONTINUOUS
10
0.4787023622047244
20
0.3119320472440945
11
0.4683470078740157
21
0.3036738976377953
0
LINE
8
BLACK
6
CONTINUOUS
10
0.4683470078740157
20
0.3036738976377953
11
0.4571321653543307
21
0.2966271653543307
0
LINE
8
BLACK
6
CONTINUOUS
10
0.4571321653543307
20
0.2966271653543307
11
0.4451988188976378
21
0.2908803543307086
0
LINE
8
BLACK
6
CONTINUOUS
10
0.4451988188976378
20
0.2908803543307086
11
0.432697125984252
21
0.2865058267716535
0
LINE
8
BLACK
6
CONTINUOUS
10
0.432697125984252
20
0.2865058267716535
11
0.4197842125984252
21
0.2835585433070866
0
LINE
8
BLACK
6
CONTINUOUS
10
0.4197842125984252
20
0.2835585433070866
11
0.4066224803149606
21
0.2820755905511811
0
LINE
8
BLACK
6
CONTINUOUS
10
0.4066224803149606
20
0.2820755905511811
11
0.3933775196850394
21
0.2820755905511811
0
LINE
8
BLACK
6
CONTINUOUS
10
0.3933775196850394
20
0.2820755905511811
11
0.3802157874015748
21
0.2835585433070866
0
LINE
8
BLACK
6
CONTINUOUS
10
0.3802157874015748
20
0.2835585433070866
11
0.367302874015748
21
0.2865058267716535
0
LINE
8
BLACK
6
CONTINUOUS
10
0.367302874015748
20
0.2865058267716535
11
0.3548011811023622
21
0.2908803543307086
0
LINE
8
BLACK
6
CONTINUOUS
10
0.3548011811023622
20
0.2908803543307086
11
0.3428678346456693
21
0.2966271653543307
0
LINE
8
BLACK
6
CONTINUOUS
10
0.3428678346456693
20
0.2966271653543307
11
0.3316529921259843
21
0.3036738976377953
0
LINE
8
BLACK
6
CONTINUOUS
10
0.3316529921259843
20
0.3036738976377953
11
0.3212976377952756
21
0.3119320472440945
0
LINE
8
BLACK
6
CONTINUOUS
10
0.3212976377952756
20
0.3119320472440945
11
0.3119320472440945
21
0.3212976377952756
0
LINE
8
BLACK
6
CONTINUOUS
10
0.3119320472440945
20
0.3212976377952756
11
0.3036738976377953
21
0.3316529921259843
0
LINE
8
BLACK
6
CONTINUOUS
10
0.3036738976377953
20
0.3316529921259843
11
0.2966271653543307
21
0.3428678346456693
0
LINE
8
BLACK
6
CONTINUOUS
10
0.2966271653543307
20
0.3428678346456693
11
0.2908803543307086
21
0.3548011811023622
0
LINE
8
BLACK
6
CONTINUOUS
10
0.2908803543307086
20
0.3548011811023622
11
0.2865058267716535
21
0.367302874015748
0
LINE
8
BLACK
6
CONTINUOUS
10
0.2865058267716535
20
0.367302874015748
11
0.2835585433070866
21
0.3802157874015748
0
LINE
8
BLACK
6
CONTINUOUS
10
0.2835585433070866
20
0.3802157874015748
11
0.2820755905511811
21
0.3933775196850394
0
LINE
8
BLACK
6
CONTINUOUS
10
0.2820755905511811
20
0.3933775196850394
11
0.2820755905511811
21
0.4066224803149606
0
LINE
8
BLACK
6
CONTINUOUS
10
0.2820755905511811
20
0.4066224803149606
11
0.2835585433070866
21
0.4197842125984252
0
LINE
8
BLACK
6
CONTINUOUS
10
0.2835585433070866
20
0.4197842125984252
11
0.2865058267716535
21
0.432697125984252
0
LINE
8
BLACK
6
CONTINUOUS
10
0.2865058267716535
20
0.432697125984252
11
0.2908803543307086
21
0.4451988188976378
0
LINE
8
BLACK
6
CONTINUOUS
10
0.2908803543307086
20
0.4451988188976378
11
0.2966271653543307
21
0.4571321653543307
0
LINE
8
BLACK
6
CONTINUOUS
10
0.2966271653543307
20
0.4571321653543307
11
0.3036738976377953
21
0.4683470078740157
0
LINE
8
BLACK
6
CONTINUOUS
10
0.3036738976377953
20
0.4683470078740157
11
0.3119320472440945
21
0.4787023622047244
0
LINE
8
BLACK
6
CONTINUOUS
10
0.3119320472440945
20
0.4787023622047244
11
0.3212976377952756
21
0.4880679527559055
0
LINE
8
BLACK
6
CONTINUOUS
10
0.3212976377952756
20
0.4880679527559055
11
0.3316529921259843
21
0.4963261023622047
0
LINE
8
BLACK
6
CONTINUOUS
10
0.3316529921259843
20
0.4963261023622047
11
0.3428678346456693
21
0.5033728346456693
0
LINE
8
BLACK
6
CONTINUOUS
10
0.3428678346456693
20
0.5033728346456693
11
0.3548011811023622
21
0.5091196456692914
0
LINE
8
BLACK
6
CONTINUOUS
10
0.3548011811023622
20
0.5091196456692914
11
0.367302874015748
21
0.5134941732283465
0
LINE
8
BLACK
6
CONTINUOUS
10
0.367302874015748
20
0.5134941732283465
11
0.3802157874015748
21
0.5164414566929134
0
LINE
8
BLACK
6
CONTINUOUS
10
0.3802157874015748
20
0.5164414566929134
11
0.3933775196850394
21
0.5179244094488189
0
LINE
8
BLACK
6
CONTINUOUS
10
0.3933775196850394
20
0.5179244094488189
11
0.4066224803149606
21
0.5179244094488189
0
LINE
8
BLACK
6
CONTINUOUS
10
0.4066224803149606
20
0.5179244094488189
11
0.4197842125984252
21
0.5164414566929134
0
LINE
8
BLACK
6
CONTINUOUS
10
1.6197842125984252
20
0.5164414566929134
11
1.632697125984252
21
0.5134941732283465
0
LINE
8
BLACK
6
CONTINUOUS
10
1.632697125984252
20
0.5134941732283465
11
1.6451988188976379
21
0.5091196456692914
0
LINE
8
BLACK
6
CONTINUOUS
10
1.6451988188976379
20
0.5091196456692914
11
1.6571321653543307
21
0.5033728346456693
0
LINE
8
BLACK
6
CONTINUOUS
10
1.6571321653543307
20
0.5033728346456693
11
1.6683470078740157
21
0.4963261023622047
0
LINE
8
BLACK
6
CONTINUOUS
10
1.6683470078740157
20
0.4963261023622047
11
1.6787023622047244
21
0.4880679527559055
0
LINE
8
BLACK
6
CONTINUOUS
10
1.6787023622047244
20
0.4880679527559055
11
1.6880679527559055
21
0.4787023622047244
0
LINE
8
BLACK
6
CONTINUOUS
10
1.6880679527559055
20
0.4787023622047244
11
1.6963261023622047
21
0.4683470078740157
0
LINE
8
BLACK
6
CONTINUOUS
10
1.6963261023622047
20
0.4683470078740157
11
1.7033728346456694
21
0.4571321653543307
0
LINE
8
BLACK
6
CONTINUOUS
10
1.7033728346456694
20
0.4571321653543307
11
1.7091196456692912
21
0.4451988188976378
0
LINE
8
BLACK
6
CONTINUOUS
10
1.7091196456692912
20
0.4451988188976378
11
1.7134941732283464
21
0.432697125984252
0
LINE
8
BLACK
6
CONTINUOUS
10
1.7134941732283464
20
0.432697125984252
11
1.7164414566929134
21
0.4197842125984252
0
LINE
8
BLACK
6
CONTINUOUS
10
1.7164414566929134
20
0.4197842125984252
11
1.7179244094488189
21
0.4066224803149606
0
LINE
8
BLACK
6
CONTINUOUS
10
1.7179244094488189
20
0.4066224803149606
11
1.7179244094488189
21
0.3933775196850394
0
LINE
8
BLACK
6
CONTINUOUS
10
1.7179244094488189
20
0.3933775196850394
11
1.7164414566929134
21
0.3802157874015748
0
LINE
8
BLACK
6
CONTINUOUS
10
1.7164414566929134
20
0.3802157874015748
11
1.7134941732283464
21
0.367302874015748
0
LINE
8
BLACK
6
CONTINUOUS
10
1.7134941732283464
20
0.367302874015748
11
1.7091196456692912
21
0.3548011811023622
0
LINE
8
BLACK
6
CONTINUOUS
10
1.7091196456692912
20
0.3548011811023622
11
1.7033728346456694
21
0.3428678346456693
0
LINE
8
BLACK
6
CONTINUOUS
10
1.7033728346456694
20
0.3428678346456693
11
1.6963261023622047
21
0.3316529921259843
0
LINE
8
BLACK
6
CONTINUOUS
10
1.6963261023622047
20
0.3316529921259843
11
1.6880679527559055
21
0.3212976377952756
0
LINE
8
BLACK
6
CONTINUOUS
10
1.6880679527559055
20
0.3212976377952756
11
1.6787023622047244
21
0.3119320472440945
0
LINE
8
BLACK
6
CONTINUOUS
10
1.6787023622047244
20
0.3119320472440945
11
1.6683470078740157
21
0.3036738976377953
0
LINE
8
BLACK
6
CONTINUOUS
10
1.6683470078740157
20
0.3036738976377953
11
1.6571321653543307
21
0.2966271653543307
0
LINE
8
BLACK
6
CONTINUOUS
10
1.6571321653543307
20
0.2966271653543307
11
1.6451988188976379
21
0.2908803543307086
0
LINE
8
BLACK
6
CONTINUOUS
10
1.6451988188976379
20
0.2908803543307086
11
1.632697125984252
21
0.2865058267716535
0
LINE
8
BLACK
6
CONTINUOUS
10
1.632697125984252
20
0.2865058267716535
11
1.6197842125984252
21
0.2835585433070866
0
LINE
8
BLACK
6
CONTINUOUS
10
1.6197842125984252
20
0.2835585433070866
11
1.6066224803149607
21
0.2820755905511811
0
LINE
8
BLACK
6
CONTINUOUS
10
1.6066224803149607
20
0.2820755905511811
11
1.5933775196850393
21
0.2820755905511811
0
LINE
8
BLACK
6
CONTINUOUS
10
1.5933775196850393
20
0.2820755905511811
11
1.5802157874015748
21
0.2835585433070866
0
LINE
8
BLACK
6
CONTINUOUS
10
1.5802157874015748
20
0.2835585433070866
11
1.567302874015748
21
0.2865058267716535
0
LINE
8
BLACK
6
CONTINUOUS
10
1.567302874015748
20
0.2865058267716535
11
1.5548011811023621
21
0.2908803543307086
0
LINE
8
BLACK
6
CONTINUOUS
10
1.5548011811023621
20
0.2908803543307086
11
1.5428678346456692
21
0.2966271653543307
0
LINE
8
BLACK
6
CONTINUOUS
10
1.5428678346456692
20
0.2966271653543307
11
1.5316529921259843
21
0.3036738976377953
0
LINE
8
BLACK
6
CONTINUOUS
10
1.5316529921259843
20
0.3036738976377953
11
1.5212976377952756
21
0.3119320472440945
0
LINE
8
BLACK
6
CONTINUOUS
10
1.5212976377952756
20
0.3119320472440945
11
1.5119320472440945
21
0.3212976377952756
0
LINE
8
BLACK
6
CONTINUOUS
10
1.5119320472440945
20
0.3212976377952756
11
1.5036738976377952
21
0.3316529921259843
0
LINE
8
BLACK
6
CONTINUOUS
10
1.5036738976377952
20
0.3316529921259843
11
1.4966271653543306
21
0.3428678346456693
0
LINE
8
BLACK
6
CONTINUOUS
10
1.4966271653543306
20
0.3428678346456693
11
1.4908803543307085
21
0.3548011811023622
0
LINE
8
BLACK
6
CONTINUOUS
10
1.4908803543307085
20
0.3548011811023622
11
1.4865058267716535
21
0.367302874015748
0
LINE
8
BLACK
6
CONTINUOUS
10
1.4865058267716535
20
0.367302874015748
11
1.4835585433070866
21
0.3802157874015748
0
LINE
8
BLACK
6
CONTINUOUS
10
1.4835585433070866
20
0.3802157874015748
11
1.4820755905511811
21
0.3933775196850394
0
LINE
8
BLACK
6
CONTINUOUS
10
1.4820755905511811
20
0.3933775196850394
11
1.4820755905511811
21
0.4066224803149606
0
LINE
8
BLACK
6
CONTINUOUS
10
1.4820755905511811
20
0.4066224803149606
11
1.4835585433070866
21
0.4197842125984252
0
LINE
8
BLACK
6
CONTINUOUS
10
1.4835585433070866
20
0.4197842125984252
11
1.4865058267716535
21
0.432697125984252
0
LINE
8
BLACK
6
CONTINUOUS
10
1.4865058267716535
20
0.432697125984252
11
1.4908803543307085
21
0.4451988188976378
0
LINE
8
BLACK
6
CONTINUOUS
10
1.4908803543307085
20
0.4451988188976378
11
1.4966271653543306
21
0.4571321653543307
0
LINE
8
BLACK
6
CONTINUOUS
10
1.4966271653543306
20
0.4571321653543307
11
1.5036738976377952
21
0.4683470078740157
0
LINE
8
BLACK
6
CONTINUOUS
10
1.5036738976377952
20
0.4683470078740157
11
1.5119320472440945
21
0.4787023622047244
0
LINE
8
BLACK
6
CONTINUOUS
10
1.5119320472440945
20
0.4787023622047244
11
1.5212976377952756
21
0.4880679527559055
0
LINE
8
BLACK
6
CONTINUOUS
10
1.5212976377952756
20
0.4880679527559055
11
1.5316529921259843
21
0.4963261023622047
0
LINE
8
BLACK
6
CONTINUOUS
10
1.5316529921259843
20
0.4963261023622047
11
1.5428678346456692
21
0.5033728346456693
0
LINE
8
BLACK
6
CONTINUOUS
10
1.5428678346456692
20
0.5033728346456693
11
1.5548011811023621
21
0.5091196456692914
0
LINE
8
BLACK
6
CONTINUOUS
10
1.5548011811023621
20
0.5091196456692914
11
1.567302874015748
21
0.5134941732283465
0
LINE
8
BLACK
6
CONTINUOUS
10
1.567302874015748
20
0.5134941732283465
11
1.5802157874015748
21
0.5164414566929134
0
LINE
8
BLACK
6
CONTINUOUS
10
1.5802157874015748
20
0.5164414566929134
11
1.5933775196850393
21
0.5179244094488189
0
LINE
8
BLACK
6
CONTINUOUS
10
1.5933775196850393
20
0.5179244094488189
11
1.6066224803149607
21
0.5179244094488189
0
LINE
8
BLACK
6
CONTINUOUS
10
1.6066224803149607
20
0.5179244094488189
11
1.6197842125984252
21
0.5164414566929134
0
LINE
8
BLACK
6
CONTINUOUS
10
0.9670078740157481
20
0.3689173228346457
11
0.907007874015748
21
0.3689173228346457
0
LINE
8
BLACK
6
CONTINUOUS
10
0.907007874015748
20
0.3689173228346457
11
0.907007874015748
21
0.4289173228346457
0
LINE
8
BLACK
6
CONTINUOUS
10
0.907007874015748
20
0.4289173228346457
11
0.9670078740157481
21
0.4289173228346457
0
LINE
8
BLACK
6
CONTINUOUS
10
0.9670078740157481
20
0.4289173228346457
11
0.9670078740157481
21
0.3689173228346457
0
LINE
8
BLACK
6
CONTINUOUS
10
1.067007874015748
20
0.3689173228346457
11
1.007007874015748
21
0.3689173228346457
0
LINE
8
BLACK
6
CONTINUOUS
10
1.007007874015748
20
0.3689173228346457
11
1.007007874015748
21
0.4289173228346457
0
LINE
8
BLACK
6
CONTINUOUS
10
1.007007874015748
20
0.4289173228346457
11
1.067007874015748
21
0.4289173228346457
0
LINE
8
BLACK
6
CONTINUOUS
10
1.067007874015748
20
0.4289173228346457
11
1.067007874015748
21
0.3689173228346457
0
LINE
8
BLACK
6
CONTINUOUS
10
1.1670078740157479
20
0.3689173228346457
11
1.1070078740157481
21
0.3689173228346457
0
LINE
8
BLACK
6
CONTINUOUS
10
1.1070078740157481
20
0.3689173228346457
11
1.1070078740157481
21
0.4289173228346457
0
LINE
8
BLACK
6
CONTINUOUS
10
1.1070078740157481
20
0.4289173228346457
11
1.1670078740157479
21
0.4289173228346457
0
LINE
8
BLACK
6
CONTINUOUS
10
1.1670078740157479
20
0.4289173228346457
11
1.1670078740157479
21
0.3689173228346457
0
LINE
8
BLACK
6
CONTINUOUS
10
1.267007874015748
20
0.3689173228346457
11
1.2070078740157479
21
0.3689173228346457
0
LINE
8
BLACK
6
CONTINUOUS
10
1.2070078740157479
20
0.3689173228346457
11
1.2070078740157479
21
0.4289173228346457
0
LINE
8
BLACK
6
CONTINUOUS
10
1.2070078740157479
20
0.4289173228346457
11
1.267007874015748
21
0.4289173228346457
0
LINE
8
BLACK
6
CONTINUOUS
10
1.267007874015748
20
0.4289173228346457
11
1.267007874015748
21
0.3689173228346457
0
LINE
8
BLACK
6
CONTINUOUS
10
1.3670078740157481
20
0.3689173228346457
11
1.307007874015748
21
0.3689173228346457
0
LINE
8
BLACK
6
CONTINUOUS
10
1.307007874015748
20
0.3689173228346457
11
1.307007874015748
21
0.4289173228346457
0
LINE
8
BLACK
6
CONTINUOUS
10
1.307007874015748
20
0.4289173228346457
11
1.3670078740157481
21
0.4289173228346457
0
LINE
8
BLACK
6
CONTINUOUS
10
1.3670078740157481
20
0.4289173228346457
11
1.3670078740157481
21
0.3689173228346457
0
LINE
8
BLACK
6
CONTINUOUS
10
1.5265807480314961
20
0.778452716535433
11
1.5345127165354331
21
0.7758754724409449
0
LINE
8
BLACK
6
CONTINUOUS
10
1.5345127165354331
20
0.7758754724409449
11
1.5419438188976378
21
0.7720891338582677
0
LINE
8
BLACK
6
CONTINUOUS
10
1.5419438188976378
20
0.7720891338582677
11
1.5486911417322835
21
0.7671869291338582
0
LINE
8
BLACK
6
CONTINUOUS
10
1.5486911417322835
20
0.7671869291338582
11
1.5545885039370078
21
0.7612895669291339
0
LINE
8
BLACK
6
CONTINUOUS
10
1.5545885039370078
20
0.7612895669291339
11
1.5594907086614174
21
0.7545422440944882
0
LINE
8
BLACK
6
CONTINUOUS
10
1.5594907086614174
20
0.7545422440944882
11
1.5632770472440944
21
0.7471111417322834
0
LINE
8
BLACK
6
CONTINUOUS
10
1.5632770472440944
20
0.7471111417322834
11
1.5658542913385827
21
0.7391791732283465
0
LINE
8
BLACK
6
CONTINUOUS
10
1.5658542913385827
20
0.7391791732283465
11
1.5671589763779528
21
0.7309417322834646
0
LINE
8
BLACK
6
CONTINUOUS
10
1.5671589763779528
20
0.7309417322834646
11
1.5671589763779528
21
0.7226015748031496
0
LINE
8
BLACK
6
CONTINUOUS
10
1.5671589763779528
20
0.7226015748031496
11
1.5658542913385827
21
0.7143641338582677
0
LINE
8
BLACK
6
CONTINUOUS
10
1.5658542913385827
20
0.7143641338582677
11
1.5632770472440944
21
0.7064321653543307
0
LINE
8
BLACK
6
CONTINUOUS
10
1.5632770472440944
20
0.7064321653543307
11
1.5594907086614174
21
0.6990010629921259
0
LINE
8
BLACK
6
CONTINUOUS
10
1.5594907086614174
20
0.6990010629921259
11
1.5545885039370078
21
0.6922537401574803
0
LINE
8
BLACK
6
CONTINUOUS
10
1.5545885039370078
20
0.6922537401574803
11
1.5486911417322835
21
0.6863563779527558
0
LINE
8
BLACK
6
CONTINUOUS
10
1.5486911417322835
20
0.6863563779527558
11
1.5419438188976378
21
0.6814541732283464
0
LINE
8
BLACK
6
CONTINUOUS
10
1.5419438188976378
20
0.6814541732283464
11
1.5345127165354331
21
0.6776678346456693
0
LINE
8
BLACK
6
CONTINUOUS
10
1.5345127165354331
20
0.6776678346456693
11
1.5265807480314961
21
0.675090590551181
0
LINE
8
BLACK
6
CONTINUOUS
10
1.5265807480314961
20
0.675090590551181
11
1.5183433070866141
21
0.6737859055118111
0
LINE
8
BLACK
6
CONTINUOUS
10
1.5183433070866141
20
0.6737859055118111
11
1.5100031496062991
21
0.6737859055118111
0
LINE
8
BLACK
6
CONTINUOUS
10
1.5100031496062991
20
0.6737859055118111
11
1.5017657086614173
21
0.675090590551181
0
LINE
8
BLACK
6
CONTINUOUS
10
1.5017657086614173
20
0.675090590551181
11
1.4938337401574804
21
0.6776678346456693
0
LINE
8
BLACK
6
CONTINUOUS
10
1.4938337401574804
20
0.6776678346456693
11
1.4864026377952755
21
0.6814541732283464
0
LINE
8
BLACK
6
CONTINUOUS
10
1.4864026377952755
20
0.6814541732283464
11
1.47965531496063
21
0.6863563779527558
0
LINE
8
BLACK
6
CONTINUOUS
10
1.47965531496063
20
0.6863563779527558
11
1.4737579527559055
21
0.6922537401574803
0
LINE
8
BLACK
6
CONTINUOUS
10
1.4737579527559055
20
0.6922537401574803
11
1.4688557480314961
21
0.6990010629921259
0
LINE
8
BLACK
6
CONTINUOUS
10
1.4688557480314961
20
0.6990010629921259
11
1.4650694094488188
21
0.7064321653543307
0
LINE
8
BLACK
6
CONTINUOUS
10
1.4650694094488188
20
0.7064321653543307
11
1.4624921653543306
21
0.7143641338582677
0
LINE
8
BLACK
6
CONTINUOUS
10
1.4624921653543306
20
0.7143641338582677
11
1.4611874803149607
21
0.7226015748031496
0
LINE
8
BLACK
6
CONTINUOUS
10
1.4611874803149607
20
0.7226015748031496
11
1.4611874803149607
21
0.7309417322834646
0
LINE
8
BLACK
6
CONTINUOUS
10
1.4611874803149607
20
0.7309417322834646
11
1.4624921653543306
21
0.7391791732283465
0
LINE
8
BLACK
6
CONTINUOUS
10
1.4624921653543306
20
0.7391791732283465
11
1.4650694094488188
21
0.7471111417322834
0
LINE
8
BLACK
6
CONTINUOUS
10
1.4650694094488188
20
0.7471111417322834
11
1.4688557480314961
21
0.7545422440944882
0
LINE
8
BLACK
6
CONTINUOUS
10
1.4688557480314961
20
0.7545422440944882
11
1.4737579527559055
21
0.7612895669291339
0
LINE
8
BLACK
6
CONTINUOUS
10
1.4737579527559055
20
0.7612895669291339
11
1.47965531496063
21
0.7671869291338582
0
LINE
8
BLACK
6
CONTINUOUS
10
1.47965531496063
20
0.7671869291338582
11
1.4864026377952755
21
0.7720891338582677
0
LINE
8
BLACK
6
CONTINUOUS
10
1.4864026377952755
20
0.7720891338582677
11
1.4938337401574804
21
0.7758754724409449
0
LINE
8
BLACK
6
CONTINUOUS
10
1.4938337401574804
20
0.7758754724409449
11
1.5017657086614173
21
0.778452716535433
0
LINE
8
BLACK
6
CONTINUOUS
10
1.5017657086614173
20
0.778452716535433
11
1.5100031496062991
21
0.7797574015748031
0
LINE
8
BLACK
6
CONTINUOUS
10
1.5100031496062991
20
0.7797574015748031
11
1.5183433070866141
21
0.7797574015748031
0
LINE
8
BLACK
6
CONTINUOUS
10
1.5183433070866141
20
0.7797574015748031
11
1.5265807480314961
21
0.778452716535433
0
LINE
8
BLACK
6
CONTINUOUS
10
1.7265807480314961
20
0.778452716535433
11
1.734512716535433
21
0.7758754724409449
0
LINE
8
BLACK
6
CONTINUOUS
10
1.734512716535433
20
0.7758754724409449
11
1.7419438188976377
21
0.7720891338582677
0
LINE
8
BLACK
6
CONTINUOUS
10
1.7419438188976377
20
0.7720891338582677
11
1.7486911417322835
21
0.7671869291338582
0
LINE
8
BLACK
6
CONTINUOUS
10
1.7486911417322835
20
0.7671869291338582
11
1.7545885039370079
21
0.7612895669291339
0
LINE
8
BLACK
6
CONTINUOUS
10
1.7545885039370079
20
0.7612895669291339
11
1.7594907086614173
21
0.7545422440944882
0
LINE
8
BLACK
6
CONTINUOUS
10
1.7594907086614173
20
0.7545422440944882
11
1.7632770472440944
21
0.7471111417322834
0
LINE
8
BLACK
6
CONTINUOUS
10
1.7632770472440944
20
0.7471111417322834
11
1.7658542913385826
21
0.7391791732283465
0
LINE
8
BLACK
6
CONTINUOUS
10
1.7658542913385826
20
0.7391791732283465
11
1.7671589763779527
21
0.7309417322834646
0
LINE
8
BLACK
6
CONTINUOUS
10
1.7671589763779527
20
0.7309417322834646
11
1.7671589763779527
21
0.7226015748031496
0
LINE
8
BLACK
6
CONTINUOUS
10
1.7671589763779527
20
0.7226015748031496
11
1.7658542913385826
21
0.7143641338582677
0
LINE
8
BLACK
6
CONTINUOUS
10
1.7658542913385826
20
0.7143641338582677
11
1.7632770472440944
21
0.7064321653543307
0
LINE
8
BLACK
6
CONTINUOUS
10
1.7632770472440944
20
0.7064321653543307
11
1.7594907086614173
21
0.6990010629921259
0
LINE
8
BLACK
6
CONTINUOUS
10
1.7594907086614173
20
0.6990010629921259
11
1.7545885039370079
21
0.6922537401574803
0
LINE
8
BLACK
6
CONTINUOUS
10
1.7545885039370079
20
0.6922537401574803
11
1.7486911417322835
21
0.6863563779527558
0
LINE
8
BLACK
6
CONTINUOUS
10
1.7486911417322835
20
0.6863563779527558
11
1.7419438188976377
21
0.6814541732283464
0
LINE
8
BLACK
6
CONTINUOUS
10
1.7419438188976377
20
0.6814541732283464
11
1.734512716535433
21
0.6776678346456693
0
LINE
8
BLACK
6
CONTINUOUS
10
1.734512716535433
20
0.6776678346456693
11
1.7265807480314961
21
0.675090590551181
0
LINE
8
BLACK
6
CONTINUOUS
10
1.7265807480314961
20
0.675090590551181
11
1.7183433070866141
21
0.6737859055118111
0
LINE
8
BLACK
6
CONTINUOUS
10
1.7183433070866141
20
0.6737859055118111
11
1.7100031496062991
21
0.6737859055118111
0
LINE
8
BLACK
6
CONTINUOUS
10
1.7100031496062991
20
0.6737859055118111
11
1.7017657086614173
21
0.675090590551181
0
LINE
8
BLACK
6
CONTINUOUS
10
1.7017657086614173
20
0.675090590551181
11
1.6938337401574803
21
0.6776678346456693
0
LINE
8
BLACK
6
CONTINUOUS
10
1.6938337401574803
20
0.6776678346456693
11
1.6864026377952757
21
0.6814541732283464
0
LINE
8
BLACK
6
CONTINUOUS
10
1.6864026377952757
20
0.6814541732283464
11
1.6796553149606299
21
0.6863563779527558
0
LINE
8
BLACK
6
CONTINUOUS
10
1.6796553149606299
20
0.6863563779527558
11
1.6737579527559054
21
0.6922537401574803
0
LINE
8
BLACK
6
CONTINUOUS
10
1.6737579527559054
20
0.6922537401574803
11
1.6688557480314961
21
0.6990010629921259
0
LINE
8
BLACK
6
CONTINUOUS
10
1.6688557480314961
20
0.6990010629921259
11
1.6650694094488188
21
0.7064321653543307
0
LINE
8
BLACK
6
CONTINUOUS
10
1.6650694094488188
20
0.7064321653543307
11
1.6624921653543308
21
0.7143641338582677
0
LINE
8
BLACK
6
CONTINUOUS
10
1.6624921653543308
20
0.7143641338582677
11
1.6611874803149607
21
0.7226015748031496
0
LINE
8
BLACK
6
CONTINUOUS
10
1.6611874803149607
20
0.7226015748031496
11
1.6611874803149607
21
0.7309417322834646
0
LINE
8
BLACK
6
CONTINUOUS
10
1.6611874803149607
20
0.7309417322834646
11
1.6624921653543308
21
0.7391791732283465
0
LINE
8
BLACK
6
CONTINUOUS
10
1.6624921653543308
20
0.7391791732283465
11
1.6650694094488188
21
0.7471111417322834
0
LINE
8
BLACK
6
CONTINUOUS
10
1.6650694094488188
20
0.7471111417322834
11
1.6688557480314961
21
0.7545422440944882
0
LINE
8
BLACK
6
CONTINUOUS
10
1.6688557480314961
20
0.7545422440944882
11
1.6737579527559054
21
0.7612895669291339
0
LINE
8
BLACK
6
CONTINUOUS
10
1.6737579527559054
20
0.7612895669291339
11
1.6796553149606299
21
0.7671869291338582
0
LINE
8
BLACK
6
CONTINUOUS
10
1.6796553149606299
20
0.7671869291338582
11
1.6864026377952757
21
0.7720891338582677
0
LINE
8
BLACK
6
CONTINUOUS
10
1.6864026377952757
20
0.7720891338582677
11
1.6938337401574803
21
0.7758754724409449
0
LINE
8
BLACK
6
CONTINUOUS
10
1.6938337401574803
20
0.7758754724409449
11
1.7017657086614173
21
0.778452716535433
0
LINE
8
BLACK
6
CONTINUOUS
10
1.7017657086614173
20
0.778452716535433
11
1.7100031496062991
21
0.7797574015748031
0
LINE
8
BLACK
6
CONTINUOUS
10
1.7100031496062991
20
0.7797574015748031
11
1.7183433070866141
21
0.7797574015748031
0
LINE
8
BLACK
6
CONTINUOUS
10
1.7183433070866141
20
0.7797574015748031
11
1.7265807480314961
21
0.778452716535433
0
LINE
8
BLACK
6
CONTINUOUS
10
0.3343307086614173
20
0.6770866141732284
11
0.2743307086614173
21
0.6770866141732284
0
LINE
8
BLACK
6
CONTINUOUS
10
0.2743307086614173
20
0.6770866141732284
11
0.2743307086614173
21
0.7370866141732283
0
LINE
8
BLACK
6
CONTINUOUS
10
0.2743307086614173
20
0.7370866141732283
11
0.3343307086614173
21
0.7370866141732283
0
LINE
8
BLACK
6
CONTINUOUS
10
0.3343307086614173
20
0.7370866141732283
11
0.3343307086614173
21
0.6770866141732284
0
LINE
8
BLACK
6
CONTINUOUS
10
0.4343307086614173
20
0.6770866141732284
11
0.3743307086614173
21
0.6770866141732284
0
LINE
8
BLACK
6
CONTINUOUS
10
0.3743307086614173
20
0.6770866141732284
11
0.3743307086614173
21
0.7370866141732283
0
LINE
8
BLACK
6
CONTINUOUS
10
0.3743307086614173
20
0.7370866141732283
11
0.4343307086614173
21
0.7370866141732283
0
LINE
8
BLACK
6
CONTINUOUS
10
0.4343307086614173
20
0.7370866141732283
11
0.4343307086614173
21
0.6770866141732284
0
LINE
8
BLACK
6
CONTINUOUS
10
0.8391755905511811
20
0.7796932283464567
11
0.8418911417322834
21
0.7769776771653543
0
LINE
8
BLACK
6
CONTINUOUS
10
0.8418911417322834
20
0.7769776771653543
11
0.8433607480314961
21
0.7734296456692913
0
LINE
8
BLACK
6
CONTINUOUS
10
0.8433607480314961
20
0.7734296456692913
11
0.8433607480314961
21
0.7695893307086614
0
LINE
8
BLACK
6
CONTINUOUS
10
0.8433607480314961
20
0.7695893307086614
11
0.8418911417322834
21
0.7660412992125984
0
LINE
8
BLACK
6
CONTINUOUS
10
0.8418911417322834
20
0.7660412992125984
11
0.8391755905511811
21
0.763325748031496
0
LINE
8
BLACK
6
CONTINUOUS
10
0.8391755905511811
20
0.763325748031496
11
0.8356275590551181
21
0.7618561417322834
0
LINE
8
BLACK
6
CONTINUOUS
10
0.8356275590551181
20
0.7618561417322834
11
0.8317872440944881
21
0.7618561417322834
0
LINE
8
BLACK
6
CONTINUOUS
10
0.8317872440944881
20
0.7618561417322834
11
0.8282392125984251
21
0.763325748031496
0
LINE
8
BLACK
6
CONTINUOUS
10
0.8282392125984251
20
0.763325748031496
11
0.8255236614173228
21
0.7660412992125984
0
LINE
8
BLACK
6
CONTINUOUS
10
0.8255236614173228
20
0.7660412992125984
11
0.8240540551181103
21
0.7695893307086614
0
LINE
8
BLACK
6
CONTINUOUS
10
0.8240540551181103
20
0.7695893307086614
11
0.8240540551181103
21
0.7734296456692913
0
LINE
8
BLACK
6
CONTINUOUS
10
0.8240540551181103
20
0.7734296456692913
11
0.8255236614173228
21
0.7769776771653543
0
LINE
8
BLACK
6
CONTINUOUS
10
0.8255236614173228
20
0.7769776771653543
11
0.8282392125984251
21
0.7796932283464567
0
LINE
8
BLACK
6
CONTINUOUS
10
0.8282392125984251
20
0.7796932283464567
11
0.8317872440944881
21
0.7811628346456693
0
LINE
8
BLACK
6
CONTINUOUS
10
0.8317872440944881
20
0.7811628346456693
11
0.8356275590551181
21
0.7811628346456693
0
LINE
8
BLACK
6
CONTINUOUS
10
0.8356275590551181
20
0.7811628346456693
11
0.8391755905511811
21
0.7796932283464567
0
LINE
8
BLACK
6
CONTINUOUS
10
0.9129485039370079
20
0.7838690157480315
11
0.9156640551181102
21
0.7811534645669291
0
LINE
8
BLACK
6
CONTINUOUS
10
0.9156640551181102
20
0.7811534645669291
11
0.9171336614173228
21
0.7776054330708662
0
LINE
8
BLACK
6
CONTINUOUS
10
0.9171336614173228
20
0.7776054330708662
11
0.9171336614173228
21
0.7737651181102362
0
LINE
8
BLACK
6
CONTINUOUS
10
0.9171336614173228
20
0.7737651181102362
11
0.9156640551181102
21
0.7702170866141732
0
LINE
8
BLACK
6
CONTINUOUS
10
0.9156640551181102
20
0.7702170866141732
11
0.9129485039370079
21
0.7675015354330709
0
LINE
8
BLACK
6
CONTINUOUS
10
0.9129485039370079
20
0.7675015354330709
11
0.9094004724409449
21
0.7660319291338582
0
LINE
8
BLACK
6
CONTINUOUS
10
0.9094004724409449
20
0.7660319291338582
11
0.9055601574803149
21
0.7660319291338582
0
LINE
8
BLACK
6
CONTINUOUS
10
0.9055601574803149
20
0.7660319291338582
11
0.902012125984252
21
0.7675015354330709
0
LINE
8
BLACK
6
CONTINUOUS
10
0.902012125984252
20
0.7675015354330709
11
0.8992965748031496
21
0.7702170866141732
0
LINE
8
BLACK
6
CONTINUOUS
10
0.8992965748031496
20
0.7702170866141732
11
0.897826968503937
21
0.7737651181102362
0
LINE
8
BLACK
6
CONTINUOUS
10
0.897826968503937
20
0.7737651181102362
11
0.897826968503937
21
0.7776054330708662
0
LINE
8
BLACK
6
CONTINUOUS
10
0.897826968503937
20
0.7776054330708662
11
0.8992965748031496
21
0.7811534645669291
0
LINE
8
BLACK
6
CONTINUOUS
10
0.8992965748031496
20
0.7811534645669291
11
0.902012125984252
21
0.7838690157480315
0
LINE
8
BLACK
6
CONTINUOUS
10
0.902012125984252
20
0.7838690157480315
11
0.9055601574803149
21
0.785338622047244
0
LINE
8
BLACK
6
CONTINUOUS
10
0.9055601574803149
20
0.785338622047244
11
0.9094004724409449
21
0.785338622047244
0
LINE
8
BLACK
6
CONTINUOUS
10
0.9094004724409449
20
0.785338622047244
11
0.9129485039370079
21
0.7838690157480315
0
LINE
8
BLACK
6
CONTINUOUS
10
0.3343307086614173
20
0.7770866141732283
11
0.2743307086614173
21
0.7770866141732283
0
LINE
8
BLACK
6
CONTINUOUS
10
0.2743307086614173
20
0.7770866141732283
11
0.2743307086614173
21
0.8370866141732284
0
LINE
8
BLACK
6
CONTINUOUS
10
0.2743307086614173
20
0.8370866141732284
11
0.3343307086614173
21
0.8370866141732284
0
LINE
8
BLACK
6
CONTINUOUS
10
0.3343307086614173
20
0.8370866141732284
11
0.3343307086614173
21
0.7770866141732283
0
LINE
8
BLACK
6
CONTINUOUS
10
0.4343307086614173
20
0.7770866141732283
11
0.3743307086614173
21
0.7770866141732283
0
LINE
8
BLACK
6
CONTINUOUS
10
0.3743307086614173
20
0.7770866141732283
11
0.3743307086614173
21
0.8370866141732284
0
LINE
8
BLACK
6
CONTINUOUS
10
0.3743307086614173
20
0.8370866141732284
11
0.4343307086614173
21
0.8370866141732284
0
LINE
8
BLACK
6
CONTINUOUS
10
0.4343307086614173
20
0.8370866141732284
11
0.4343307086614173
21
0.7770866141732283
0
LINE
8
BLACK
6
CONTINUOUS
10
1.6256616929133858
20
0.8746244881889763
11
1.6330060629921259
21
0.8722381496062992
0
LINE
8
BLACK
6
CONTINUOUS
10
1.6330060629921259
20
0.8722381496062992
11
1.6398867322834645
21
0.8687322834645669
0
LINE
8
BLACK
6
CONTINUOUS
10
1.6398867322834645
20
0.8687322834645669
11
1.6461342519685038
21
0.864193188976378
0
LINE
8
BLACK
6
CONTINUOUS
10
1.6461342519685038
20
0.864193188976378
11
1.6515947637795276
21
0.8587326771653543
0
LINE
8
BLACK
6
CONTINUOUS
10
1.6515947637795276
20
0.8587326771653543
11
1.6561338582677165
21
0.8524851574803149
0
LINE
8
BLACK
6
CONTINUOUS
10
1.6561338582677165
20
0.8524851574803149
11
1.6596397244094487
21
0.8456044881889764
0
LINE
8
BLACK
6
CONTINUOUS
10
1.6596397244094487
20
0.8456044881889764
11
1.662026062992126
21
0.8382601181102362
0
LINE
8
BLACK
6
CONTINUOUS
10
1.662026062992126
20
0.8382601181102362
11
1.6632341338582677
21
0.8306328346456693
0
LINE
8
BLACK
6
CONTINUOUS
10
1.6632341338582677
20
0.8306328346456693
11
1.6632341338582677
21
0.8229104724409448
0
LINE
8
BLACK
6
CONTINUOUS
10
1.6632341338582677
20
0.8229104724409448
11
1.662026062992126
21
0.815283188976378
0
LINE
8
BLACK
6
CONTINUOUS
10
1.662026062992126
20
0.815283188976378
11
1.6596397244094487
21
0.8079388188976377
0
LINE
8
BLACK
6
CONTINUOUS
10
1.6596397244094487
20
0.8079388188976377
11
1.6561338582677165
21
0.8010581496062992
0
LINE
8
BLACK
6
CONTINUOUS
10
1.6561338582677165
20
0.8010581496062992
11
1.6515947637795276
21
0.7948106299212598
0
LINE
8
BLACK
6
CONTINUOUS
10
1.6515947637795276
20
0.7948106299212598
11
1.6461342519685038
21
0.7893501181102363
0
LINE
8
BLACK
6
CONTINUOUS
10
1.6461342519685038
20
0.7893501181102363
11
1.6398867322834645
21
0.7848110236220472
0
LINE
8
BLACK
6
CONTINUOUS
10
1.6398867322834645
20
0.7848110236220472
11
1.6330060629921259
21
0.7813051574803149
0
LINE
8
BLACK
6
CONTINUOUS
10
1.6330060629921259
20
0.7813051574803149
11
1.6256616929133858
21
0.7789188188976378
0
LINE
8
BLACK
6
CONTINUOUS
10
1.6256616929133858
20
0.7789188188976378
11
1.6180344094488188
21
0.7777107480314961
0
LINE
8
BLACK
6
CONTINUOUS
10
1.6180344094488188
20
0.7777107480314961
11
1.6103120472440944
21
0.7777107480314961
0
LINE
8
BLACK
6
CONTINUOUS
10
1.6103120472440944
20
0.7777107480314961
11
1.6026847637795276
21
0.7789188188976378
0
LINE
8
BLACK
6
CONTINUOUS
10
1.6026847637795276
20
0.7789188188976378
11
1.5953403937007873
21
0.7813051574803149
0
LINE
8
BLACK
6
CONTINUOUS
10
1.5953403937007873
20
0.7813051574803149
11
1.5884597244094487
21
0.7848110236220472
0
LINE
8
BLACK
6
CONTINUOUS
10
1.5884597244094487
20
0.7848110236220472
11
1.5822122047244094
21
0.7893501181102363
0
LINE
8
BLACK
6
CONTINUOUS
10
1.5822122047244094
20
0.7893501181102363
11
1.5767516929133858
21
0.7948106299212598
0
LINE
8
BLACK
6
CONTINUOUS
10
1.5767516929133858
20
0.7948106299212598
11
1.5722125984251969
21
0.8010581496062992
0
LINE
8
BLACK
6
CONTINUOUS
10
1.5722125984251969
20
0.8010581496062992
11
1.5687067322834645
21
0.8079388188976377
0
LINE
8
BLACK
6
CONTINUOUS
10
1.5687067322834645
20
0.8079388188976377
11
1.5663203937007875
21
0.815283188976378
0
LINE
8
BLACK
6
CONTINUOUS
10
1.5663203937007875
20
0.815283188976378
11
1.5651123228346457
21
0.8229104724409448
0
LINE
8
BLACK
6
CONTINUOUS
10
1.5651123228346457
20
0.8229104724409448
11
1.5651123228346457
21
0.8306328346456693
0
LINE
8
BLACK
6
CONTINUOUS
10
1.5651123228346457
20
0.8306328346456693
11
1.5663203937007875
21
0.8382601181102362
0
LINE
8
BLACK
6
CONTINUOUS
10
1.5663203937007875
20
0.8382601181102362
11
1.5687067322834645
21
0.8456044881889764
0
LINE
8
BLACK
6
CONTINUOUS
10
1.5687067322834645
20
0.8456044881889764
11
1.5722125984251969
21
0.8524851574803149
0
LINE
8
BLACK
6
CONTINUOUS
10
1.5722125984251969
20
0.8524851574803149
11
1.5767516929133858
21
0.8587326771653543
0
LINE
8
BLACK
6
CONTINUOUS
10
1.5767516929133858
20
0.8587326771653543
11
1.5822122047244094
21
0.864193188976378
0
LINE
8
BLACK
6
CONTINUOUS
10
1.5822122047244094
20
0.864193188976378
11
1.5884597244094487
21
0.8687322834645669
0
LINE
8
BLACK
6
CONTINUOUS
10
1.5884597244094487
20
0.8687322834645669
11
1.5953403937007873
21
0.8722381496062992
0
LINE
8
BLACK
6
CONTINUOUS
10
1.5953403937007873
20
0.8722381496062992
11
1.6026847637795276
21
0.8746244881889763
0
LINE
8
BLACK
6
CONTINUOUS
10
1.6026847637795276
20
0.8746244881889763
11
1.6103120472440944
21
0.8758325590551181
0
LINE
8
BLACK
6
CONTINUOUS
10
1.6103120472440944
20
0.8758325590551181
11
1.6180344094488188
21
0.8758325590551181
0
LINE
8
BLACK
6
CONTINUOUS
10
1.6180344094488188
20
0.8758325590551181
11
1.6256616929133858
21
0.8746244881889763
0
LINE
8
BLACK
6
CONTINUOUS
10
0.8781499606299212
20
0.8186675984251969
11
0.8808655118110236
21
0.8159520472440944
0
LINE
8
BLACK
6
CONTINUOUS
10
0.8808655118110236
20
0.8159520472440944
11
0.8823351181102362
21
0.8124040157480314
0
LINE
8
BLACK
6
CONTINUOUS
10
0.8823351181102362
20
0.8124040157480314
11
0.8823351181102362
21
0.8085637007874016
0
LINE
8
BLACK
6
CONTINUOUS
10
0.8823351181102362
20
0.8085637007874016
11
0.8808655118110236
21
0.8050156692913386
0
LINE
8
BLACK
6
CONTINUOUS
10
0.8808655118110236
20
0.8050156692913386
11
0.8781499606299212
21
0.8023001181102362
0
LINE
8
BLACK
6
CONTINUOUS
10
0.8781499606299212
20
0.8023001181102362
11
0.8746019291338583
21
0.8008305118110236
0
LINE
8
BLACK
6
CONTINUOUS
10
0.8746019291338583
20
0.8008305118110236
11
0.8707616141732283
21
0.8008305118110236
0
LINE
8
BLACK
6
CONTINUOUS
10
0.8707616141732283
20
0.8008305118110236
11
0.8672135826771653
21
0.8023001181102362
0
LINE
8
BLACK
6
CONTINUOUS
10
0.8672135826771653
20
0.8023001181102362
11
0.864498031496063
21
0.8050156692913386
0
LINE
8
BLACK
6
CONTINUOUS
10
0.864498031496063
20
0.8050156692913386
11
0.8630284251968504
21
0.8085637007874016
0
LINE
8
BLACK
6
CONTINUOUS
10
0.8630284251968504
20
0.8085637007874016
11
0.8630284251968504
21
0.8124040157480314
0
LINE
8
BLACK
6
CONTINUOUS
10
0.8630284251968504
20
0.8124040157480314
11
0.864498031496063
21
0.8159520472440944
0
LINE
8
BLACK
6
CONTINUOUS
10
0.864498031496063
20
0.8159520472440944
11
0.8672135826771653
21
0.8186675984251969
0
LINE
8
BLACK
6
CONTINUOUS
10
0.8672135826771653
20
0.8186675984251969
11
0.8707616141732283
21
0.8201372047244094
0
LINE
8
BLACK
6
CONTINUOUS
10
0.8707616141732283
20
0.8201372047244094
11
0.8746019291338583
21
0.8201372047244094
0
LINE
8
BLACK
6
CONTINUOUS
10
0.8746019291338583
20
0.8201372047244094
11
0.8781499606299212
21
0.8186675984251969
0
LINE
8
BLACK
6
CONTINUOUS
10
0.8433513779527558
20
0.8534661417322834
11
0.8460669291338583
21
0.8507505905511811
0
LINE
8
BLACK
6
CONTINUOUS
10
0.8460669291338583
20
0.8507505905511811
11
0.8475365354330708
21
0.8472025590551181
0
LINE
8
BLACK
6
CONTINUOUS
10
0.8475365354330708
20
0.8472025590551181
11
0.8475365354330708
21
0.8433622440944881
0
LINE
8
BLACK
6
CONTINUOUS
10
0.8475365354330708
20
0.8433622440944881
11
0.8460669291338583
21
0.8398142125984251
0
LINE
8
BLACK
6
CONTINUOUS
10
0.8460669291338583
20
0.8398142125984251
11
0.8433513779527558
21
0.8370986614173228
0
LINE
8
BLACK
6
CONTINUOUS
10
0.8433513779527558
20
0.8370986614173228
11
0.8398033464566929
21
0.8356290551181103
0
LINE
8
BLACK
6
CONTINUOUS
10
0.8398033464566929
20
0.8356290551181103
11
0.835963031496063
21
0.8356290551181103
0
LINE
8
BLACK
6
CONTINUOUS
10
0.835963031496063
20
0.8356290551181103
11
0.832415
21
0.8370986614173228
0
LINE
8
BLACK
6
CONTINUOUS
10
0.832415
20
0.8370986614173228
11
0.8296994488188976
21
0.8398142125984251
0
LINE
8
BLACK
6
CONTINUOUS
10
0.8296994488188976
20
0.8398142125984251
11
0.828229842519685
21
0.8433622440944881
0
LINE
8
BLACK
6
CONTINUOUS
10
0.828229842519685
20
0.8433622440944881
11
0.828229842519685
21
0.8472025590551181
0
LINE
8
BLACK
6
CONTINUOUS
10
0.828229842519685
20
0.8472025590551181
11
0.8296994488188976
21
0.8507505905511811
0
LINE
8
BLACK
6
CONTINUOUS
10
0.8296994488188976
20
0.8507505905511811
11
0.832415
21
0.8534661417322834
0
LINE
8
BLACK
6
CONTINUOUS
10
0.832415
20
0.8534661417322834
11
0.835963031496063
21
0.8549357480314961
0
LINE
8
BLACK
6
CONTINUOUS
10
0.835963031496063
20
0.8549357480314961
11
0.8398033464566929
21
0.8549357480314961
0
LINE
8
BLACK
6
CONTINUOUS
10
0.8398033464566929
20
0.8549357480314961
11
0.8433513779527558
21
0.8534661417322834
0
LINE
8
BLACK
6
CONTINUOUS
10
0.9171243307086614
20
0.857641968503937
11
0.9198398818897637
21
0.8549264173228346
0
LINE
8
BLACK
6
CONTINUOUS
10
0.9198398818897637
20
0.8549264173228346
11
0.9213094881889764
21
0.8513783858267716
0
LINE
8
BLACK
6
CONTINUOUS
10
0.9213094881889764
20
0.8513783858267716
11
0.9213094881889764
21
0.8475380708661417
0
LINE
8
BLACK
6
CONTINUOUS
10
0.9213094881889764
20
0.8475380708661417
11
0.9198398818897637
21
0.8439900393700788
0
LINE
8
BLACK
6
CONTINUOUS
10
0.9198398818897637
20
0.8439900393700788
11
0.9171243307086614
21
0.8412744881889763
0
LINE
8
BLACK
6
CONTINUOUS
10
0.9171243307086614
20
0.8412744881889763
11
0.9135762992125984
21
0.8398048818897638
0
LINE
8
BLACK
6
CONTINUOUS
10
0.9135762992125984
20
0.8398048818897638
11
0.9097359842519684
21
0.8398048818897638
0
LINE
8
BLACK
6
CONTINUOUS
10
0.9097359842519684
20
0.8398048818897638
11
0.9061879527559055
21
0.8412744881889763
0
LINE
8
BLACK
6
CONTINUOUS
10
0.9061879527559055
20
0.8412744881889763
11
0.9034724015748031
21
0.8439900393700788
0
LINE
8
BLACK
6
CONTINUOUS
10
0.9034724015748031
20
0.8439900393700788
11
0.9020027952755906
21
0.8475380708661417
0
LINE
8
BLACK
6
CONTINUOUS
10
0.9020027952755906
20
0.8475380708661417
11
0.9020027952755906
21
0.8513783858267716
0
LINE
8
BLACK
6
CONTINUOUS
10
0.9020027952755906
20
0.8513783858267716
11
0.9034724015748031
21
0.8549264173228346
0
LINE
8
BLACK
6
CONTINUOUS
10
0.9034724015748031
20
0.8549264173228346
11
0.9061879527559055
21
0.857641968503937
0
LINE
8
BLACK
6
CONTINUOUS
10
0.9061879527559055
20
0.857641968503937
11
0.9097359842519684
21
0.8591115748031496
0
LINE
8
BLACK
6
CONTINUOUS
10
0.9097359842519684
20
0.8591115748031496
11
0.9135762992125984
21
0.8591115748031496
0
LINE
8
BLACK
6
CONTINUOUS
10
0.9135762992125984
20
0.8591115748031496
11
0.9171243307086614
21
0.857641968503937
0
LINE
8
BLACK
6
CONTINUOUS
10
1.5265807480314961
20
0.9784527165354331
11
1.5345127165354331
21
0.9758754724409449
0
LINE
8
BLACK
6
CONTINUOUS
10
1.5345127165354331
20
0.9758754724409449
11
1.5419438188976378
21
0.9720891338582677
0
LINE
8
BLACK
6
CONTINUOUS
10
1.5419438188976378
20
0.9720891338582677
11
1.5486911417322835
21
0.9671869291338583
0
LINE
8
BLACK
6
CONTINUOUS
10
1.5486911417322835
20
0.9671869291338583
11
1.5545885039370078
21
0.9612895669291338
0
LINE
8
BLACK
6
CONTINUOUS
10
1.5545885039370078
20
0.9612895669291338
11
1.5594907086614174
21
0.9545422440944882
0
LINE
8
BLACK
6
CONTINUOUS
10
1.5594907086614174
20
0.9545422440944882
11
1.5632770472440944
21
0.9471111417322834
0
LINE
8
BLACK
6
CONTINUOUS
10
1.5632770472440944
20
0.9471111417322834
11
1.5658542913385827
21
0.9391791732283464
0
LINE
8
BLACK
6
CONTINUOUS
10
1.5658542913385827
20
0.9391791732283464
11
1.5671589763779528
21
0.9309417322834646
0
LINE
8
BLACK
6
CONTINUOUS
10
1.5671589763779528
20
0.9309417322834646
11
1.5671589763779528
21
0.9226015748031496
0
LINE
8
BLACK
6
CONTINUOUS
10
1.5671589763779528
20
0.9226015748031496
11
1.5658542913385827
21
0.9143641338582676
0
LINE
8
BLACK
6
CONTINUOUS
10
1.5658542913385827
20
0.9143641338582676
11
1.5632770472440944
21
0.9064321653543307
0
LINE
8
BLACK
6
CONTINUOUS
10
1.5632770472440944
20
0.9064321653543307
11
1.5594907086614174
21
0.899001062992126
0
LINE
8
BLACK
6
CONTINUOUS
10
1.5594907086614174
20
0.899001062992126
11
1.5545885039370078
21
0.8922537401574803
0
LINE
8
BLACK
6
CONTINUOUS
10
1.5545885039370078
20
0.8922537401574803
11
1.5486911417322835
21
0.8863563779527559
0
LINE
8
BLACK
6
CONTINUOUS
10
1.5486911417322835
20
0.8863563779527559
11
1.5419438188976378
21
0.8814541732283464
0
LINE
8
BLACK
6
CONTINUOUS
10
1.5419438188976378
20
0.8814541732283464
11
1.5345127165354331
21
0.8776678346456692
0
LINE
8
BLACK
6
CONTINUOUS
10
1.5345127165354331
20
0.8776678346456692
11
1.5265807480314961
21
0.8750905905511811
0
LINE
8
BLACK
6
CONTINUOUS
10
1.5265807480314961
20
0.8750905905511811
11
1.5183433070866141
21
0.873785905511811
0
LINE
8
BLACK
6
CONTINUOUS
10
1.5183433070866141
20
0.873785905511811
11
1.5100031496062991
21
0.873785905511811
0
LINE
8
BLACK
6
CONTINUOUS
10
1.5100031496062991
20
0.873785905511811
11
1.5017657086614173
21
0.8750905905511811
0
LINE
8
BLACK
6
CONTINUOUS
10
1.5017657086614173
20
0.8750905905511811
11
1.4938337401574804
21
0.8776678346456692
0
LINE
8
BLACK
6
CONTINUOUS
10
1.4938337401574804
20
0.8776678346456692
11
1.4864026377952755
21
0.8814541732283464
0
LINE
8
BLACK
6
CONTINUOUS
10
1.4864026377952755
20
0.8814541732283464
11
1.47965531496063
21
0.8863563779527559
0
LINE
8
BLACK
6
CONTINUOUS
10
1.47965531496063
20
0.8863563779527559
11
1.4737579527559055
21
0.8922537401574803
0
LINE
8
BLACK
6
CONTINUOUS
10
1.4737579527559055
20
0.8922537401574803
11
1.4688557480314961
21
0.899001062992126
0
LINE
8
BLACK
6
CONTINUOUS
10
1.4688557480314961
20
0.899001062992126
11
1.4650694094488188
21
0.9064321653543307
0
LINE
8
BLACK
6
CONTINUOUS
10
1.4650694094488188
20
0.9064321653543307
11
1.4624921653543306
21
0.9143641338582676
0
LINE
8
BLACK
6
CONTINUOUS
10
1.4624921653543306
20
0.9143641338582676
11
1.4611874803149607
21
0.9226015748031496
0
LINE
8
BLACK
6
CONTINUOUS
10
1.4611874803149607
20
0.9226015748031496
11
1.4611874803149607
21
0.9309417322834646
0
LINE
8
BLACK
6
CONTINUOUS
10
1.4611874803149607
20
0.9309417322834646
11
1.4624921653543306
21
0.9391791732283464
0
LINE
8
BLACK
6
CONTINUOUS
10
1.4624921653543306
20
0.9391791732283464
11
1.4650694094488188
21
0.9471111417322834
0
LINE
8
BLACK
6
CONTINUOUS
10
1.4650694094488188
20
0.9471111417322834
11
1.4688557480314961
21
0.9545422440944882
0
LINE
8
BLACK
6
CONTINUOUS
10
1.4688557480314961
20
0.9545422440944882
11
1.4737579527559055
21
0.9612895669291338
0
LINE
8
BLACK
6
CONTINUOUS
10
1.4737579527559055
20
0.9612895669291338
11
1.47965531496063
21
0.9671869291338583
0
LINE
8
BLACK
6
CONTINUOUS
10
1.47965531496063
20
0.9671869291338583
11
1.4864026377952755
21
0.9720891338582677
0
LINE
8
BLACK
6
CONTINUOUS
10
1.4864026377952755
20
0.9720891338582677
11
1.4938337401574804
21
0.9758754724409449
0
LINE
8
BLACK
6
CONTINUOUS
10
1.4938337401574804
20
0.9758754724409449
11
1.5017657086614173
21
0.9784527165354331
0
LINE
8
BLACK
6
CONTINUOUS
10
1.5017657086614173
20
0.9784527165354331
11
1.5100031496062991
21
0.9797574015748032
0
LINE
8
BLACK
6
CONTINUOUS
10
1.5100031496062991
20
0.9797574015748032
11
1.5183433070866141
21
0.9797574015748032
0
LINE
8
BLACK
6
CONTINUOUS
10
1.5183433070866141
20
0.9797574015748032
11
1.5265807480314961
21
0.9784527165354331
0
LINE
8
BLACK
6
CONTINUOUS
10
1.7265807480314961
20
0.9784527165354331
11
1.734512716535433
21
0.9758754724409449
0
LINE
8
BLACK
6
CONTINUOUS
10
1.734512716535433
20
0.9758754724409449
11
1.7419438188976377
21
0.9720891338582677
0
LINE
8
BLACK
6
CONTINUOUS
10
1.7419438188976377
20
0.9720891338582677
11
1.7486911417322835
21
0.9671869291338583
0
LINE
8
BLACK
6
CONTINUOUS
10
1.7486911417322835
20
0.9671869291338583
11
1.7545885039370079
21
0.9612895669291338
0
LINE
8
BLACK
6
CONTINUOUS
10
1.7545885039370079
20
0.9612895669291338
11
1.7594907086614173
21
0.9545422440944882
0
LINE
8
BLACK
6
CONTINUOUS
10
1.7594907086614173
20
0.9545422440944882
11
1.7632770472440944
21
0.9471111417322834
0
LINE
8
BLACK
6
CONTINUOUS
10
1.7632770472440944
20
0.9471111417322834
11
1.7658542913385826
21
0.9391791732283464
0
LINE
8
BLACK
6
CONTINUOUS
10
1.7658542913385826
20
0.9391791732283464
11
1.7671589763779527
21
0.9309417322834646
0
LINE
8
BLACK
6
CONTINUOUS
10
1.7671589763779527
20
0.9309417322834646
11
1.7671589763779527
21
0.9226015748031496
0
LINE
8
BLACK
6
CONTINUOUS
10
1.7671589763779527
20
0.9226015748031496
11
1.7658542913385826
21
0.9143641338582676
0
LINE
8
BLACK
6
CONTINUOUS
10
1.7658542913385826
20
0.9143641338582676
11
1.7632770472440944
21
0.9064321653543307
0
LINE
8
BLACK
6
CONTINUOUS
10
1.7632770472440944
20
0.9064321653543307
11
1.7594907086614173
21
0.899001062992126
0
LINE
8
BLACK
6
CONTINUOUS
10
1.7594907086614173
20
0.899001062992126
11
1.7545885039370079
21
0.8922537401574803
0
LINE
8
BLACK
6
CONTINUOUS
10
1.7545885039370079
20
0.8922537401574803
11
1.7486911417322835
21
0.8863563779527559
0
LINE
8
BLACK
6
CONTINUOUS
10
1.7486911417322835
20
0.8863563779527559
11
1.7419438188976377
21
0.8814541732283464
0
LINE
8
BLACK
6
CONTINUOUS
10
1.7419438188976377
20
0.8814541732283464
11
1.734512716535433
21
0.8776678346456692
0
LINE
8
BLACK
6
CONTINUOUS
10
1.734512716535433
20
0.8776678346456692
11
1.7265807480314961
21
0.8750905905511811
0
LINE
8
BLACK
6
CONTINUOUS
10
1.7265807480314961
20
0.8750905905511811
11
1.7183433070866141
21
0.873785905511811
0
LINE
8
BLACK
6
CONTINUOUS
10
1.7183433070866141
20
0.873785905511811
11
1.7100031496062991
21
0.873785905511811
0
LINE
8
BLACK
6
CONTINUOUS
10
1.7100031496062991
20
0.873785905511811
11
1.7017657086614173
21
0.8750905905511811
0
LINE
8
BLACK
6
CONTINUOUS
10
1.7017657086614173
20
0.8750905905511811
11
1.6938337401574803
21
0.8776678346456692
0
LINE
8
BLACK
6
CONTINUOUS
10
1.6938337401574803
20
0.8776678346456692
11
1.6864026377952757
21
0.8814541732283464
0
LINE
8
BLACK
6
CONTINUOUS
10
1.6864026377952757
20
0.8814541732283464
11
1.6796553149606299
21
0.8863563779527559
0
LINE
8
BLACK
6
CONTINUOUS
10
1.6796553149606299
20
0.8863563779527559
11
1.6737579527559054
21
0.8922537401574803
0
LINE
8
BLACK
6
CONTINUOUS
10
1.6737579527559054
20
0.8922537401574803
11
1.6688557480314961
21
0.899001062992126
0
LINE
8
BLACK
6
CONTINUOUS
10
1.6688557480314961
20
0.899001062992126
11
1.6650694094488188
21
0.9064321653543307
0
LINE
8
BLACK
6
CONTINUOUS
10
1.6650694094488188
20
0.9064321653543307
11
1.6624921653543308
21
0.9143641338582676
0
LINE
8
BLACK
6
CONTINUOUS
10
1.6624921653543308
20
0.9143641338582676
11
1.6611874803149607
21
0.9226015748031496
0
LINE
8
BLACK
6
CONTINUOUS
10
1.6611874803149607
20
0.9226015748031496
11
1.6611874803149607
21
0.9309417322834646
0
LINE
8
BLACK
6
CONTINUOUS
10
1.6611874803149607
20
0.9309417322834646
11
1.6624921653543308
21
0.9391791732283464
0
LINE
8
BLACK
6
CONTINUOUS
10
1.6624921653543308
20
0.9391791732283464
11
1.6650694094488188
21
0.9471111417322834
0
LINE
8
BLACK
6
CONTINUOUS
10
1.6650694094488188
20
0.9471111417322834
11
1.6688557480314961
21
0.9545422440944882
0
LINE
8
BLACK
6
CONTINUOUS
10
1.6688557480314961
20
0.9545422440944882
11
1.6737579527559054
21
0.9612895669291338
0
LINE
8
BLACK
6
CONTINUOUS
10
1.6737579527559054
20
0.9612895669291338
11
1.6796553149606299
21
0.9671869291338583
0
LINE
8
BLACK
6
CONTINUOUS
10
1.6796553149606299
20
0.9671869291338583
11
1.6864026377952757
21
0.9720891338582677
0
LINE
8
BLACK
6
CONTINUOUS
10
1.6864026377952757
20
0.9720891338582677
11
1.6938337401574803
21
0.9758754724409449
0
LINE
8
BLACK
6
CONTINUOUS
10
1.6938337401574803
20
0.9758754724409449
11
1.7017657086614173
21
0.9784527165354331
0
LINE
8
BLACK
6
CONTINUOUS
10
1.7017657086614173
20
0.9784527165354331
11
1.7100031496062991
21
0.9797574015748032
0
LINE
8
BLACK
6
CONTINUOUS
10
1.7100031496062991
20
0.9797574015748032
11
1.7183433070866141
21
0.9797574015748032
0
LINE
8
BLACK
6
CONTINUOUS
10
1.7183433070866141
20
0.9797574015748032
11
1.7265807480314961
21
0.9784527165354331
0
LINE
8
BLACK
6
CONTINUOUS
10
0.3343307086614173
20
0.8770866141732283
11
0.2743307086614173
21
0.8770866141732283
0
LINE
8
BLACK
6
CONTINUOUS
10
0.2743307086614173
20
0.8770866141732283
11
0.2743307086614173
21
0.9370866141732284
0
LINE
8
BLACK
6
CONTINUOUS
10
0.2743307086614173
20
0.9370866141732284
11
0.3343307086614173
21
0.9370866141732284
0
LINE
8
BLACK
6
CONTINUOUS
10
0.3343307086614173
20
0.9370866141732284
11
0.3343307086614173
21
0.8770866141732283
0
LINE
8
BLACK
6
CONTINUOUS
10
0.4343307086614173
20
0.8770866141732283
11
0.3743307086614173
21
0.8770866141732283
0
LINE
8
BLACK
6
CONTINUOUS
10
0.3743307086614173
20
0.8770866141732283
11
0.3743307086614173
21
0.9370866141732284
0
LINE
8
BLACK
6
CONTINUOUS
10
0.3743307086614173
20
0.9370866141732284
11
0.4343307086614173
21
0.9370866141732284
0
LINE
8
BLACK
6
CONTINUOUS
10
0.4343307086614173
20
0.9370866141732284
11
0.4343307086614173
21
0.8770866141732283
0
LINE
8
BLACK
6
CONTINUOUS
10
0.4197842125984252
20
1.3164414566929135
11
0.432697125984252
21
1.3134941732283465
0
LINE
8
BLACK
6
CONTINUOUS
10
0.432697125984252
20
1.3134941732283465
11
0.4451988188976378
21
1.3091196456692913
0
LINE
8
BLACK
6
CONTINUOUS
10
0.4451988188976378
20
1.3091196456692913
11
0.4571321653543307
21
1.3033728346456692
0
LINE
8
BLACK
6
CONTINUOUS
10
0.4571321653543307
20
1.3033728346456692
11
0.4683470078740157
21
1.2963261023622048
0
LINE
8
BLACK
6
CONTINUOUS
10
0.4683470078740157
20
1.2963261023622048
11
0.4787023622047244
21
1.2880679527559056
0
LINE
8
BLACK
6
CONTINUOUS
10
0.4787023622047244
20
1.2880679527559056
11
0.4880679527559055
21
1.2787023622047244
0
LINE
8
BLACK
6
CONTINUOUS
10
0.4880679527559055
20
1.2787023622047244
11
0.4963261023622047
21
1.2683470078740158
0
LINE
8
BLACK
6
CONTINUOUS
10
0.4963261023622047
20
1.2683470078740158
11
0.5033728346456693
21
1.2571321653543306
0
LINE
8
BLACK
6
CONTINUOUS
10
0.5033728346456693
20
1.2571321653543306
11
0.5091196456692914
21
1.2451988188976377
0
LINE
8
BLACK
6
CONTINUOUS
10
0.5091196456692914
20
1.2451988188976377
11
0.5134941732283465
21
1.2326971259842519
0
LINE
8
BLACK
6
CONTINUOUS
10
0.5134941732283465
20
1.2326971259842519
11
0.5164414566929134
21
1.2197842125984251
0
LINE
8
BLACK
6
CONTINUOUS
10
0.5164414566929134
20
1.2197842125984251
11
0.5179244094488189
21
1.2066224803149606
0
LINE
8
BLACK
6
CONTINUOUS
10
0.5179244094488189
20
1.2066224803149606
11
0.5179244094488189
21
1.1933775196850394
0
LINE
8
BLACK
6
CONTINUOUS
10
0.5179244094488189
20
1.1933775196850394
11
0.5164414566929134
21
1.1802157874015748
0
LINE
8
BLACK
6
CONTINUOUS
10
0.5164414566929134
20
1.1802157874015748
11
0.5134941732283465
21
1.1673028740157481
0
LINE
8
BLACK
6
CONTINUOUS
10
0.5134941732283465
20
1.1673028740157481
11
0.5091196456692914
21
1.1548011811023622
0
LINE
8
BLACK
6
CONTINUOUS
10
0.5091196456692914
20
1.1548011811023622
11
0.5033728346456693
21
1.1428678346456693
0
LINE
8
BLACK
6
CONTINUOUS
10
0.5033728346456693
20
1.1428678346456693
11
0.4963261023622047
21
1.1316529921259841
0
LINE
8
BLACK
6
CONTINUOUS
10
0.4963261023622047
20
1.1316529921259841
11
0.4880679527559055
21
1.1212976377952755
0
LINE
8
BLACK
6
CONTINUOUS
10
0.4880679527559055
20
1.1212976377952755
11
0.4787023622047244
21
1.1119320472440946
0
LINE
8
BLACK
6
CONTINUOUS
10
0.4787023622047244
20
1.1119320472440946
11
0.4683470078740157
21
1.1036738976377953
0
LINE
8
BLACK
6
CONTINUOUS
10
0.4683470078740157
20
1.1036738976377953
11
0.4571321653543307
21
1.0966271653543307
0
LINE
8
BLACK
6
CONTINUOUS
10
0.4571321653543307
20
1.0966271653543307
11
0.4451988188976378
21
1.0908803543307086
0
LINE
8
BLACK
6
CONTINUOUS
10
0.4451988188976378
20
1.0908803543307086
11
0.432697125984252
21
1.0865058267716534
0
LINE
8
BLACK
6
CONTINUOUS
10
0.432697125984252
20
1.0865058267716534
11
0.4197842125984252
21
1.0835585433070867
0
LINE
8
BLACK
6
CONTINUOUS
10
0.4197842125984252
20
1.0835585433070867
11
0.4066224803149606
21
1.0820755905511812
0
LINE
8
BLACK
6
CONTINUOUS
10
0.4066224803149606
20
1.0820755905511812
11
0.3933775196850394
21
1.0820755905511812
0
LINE
8
BLACK
6
CONTINUOUS
10
0.3933775196850394
20
1.0820755905511812
11
0.3802157874015748
21
1.0835585433070867
0
LINE
8
BLACK
6
CONTINUOUS
10
0.3802157874015748
20
1.0835585433070867
11
0.367302874015748
21
1.0865058267716534
0
LINE
8
BLACK
6
CONTINUOUS
10
0.367302874015748
20
1.0865058267716534
11
0.3548011811023622
21
1.0908803543307086
0
LINE
8
BLACK
6
CONTINUOUS
10
0.3548011811023622
20
1.0908803543307086
11
0.3428678346456693
21
1.0966271653543307
0
LINE
8
BLACK
6
CONTINUOUS
10
0.3428678346456693
20
1.0966271653543307
11
0.3316529921259843
21
1.1036738976377953
0
LINE
8
BLACK
6
CONTINUOUS
10
0.3316529921259843
20
1.1036738976377953
11
0.3212976377952756
21
1.1119320472440946
0
LINE
8
BLACK
6
CONTINUOUS
10
0.3212976377952756
20
1.1119320472440946
11
0.3119320472440945
21
1.1212976377952755
0
LINE
8
BLACK
6
CONTINUOUS
10
0.3119320472440945
20
1.1212976377952755
11
0.3036738976377953
21
1.1316529921259841
0
LINE
8
BLACK
6
CONTINUOUS
10
0.3036738976377953
20
1.1316529921259841
11
0.2966271653543307
21
1.1428678346456693
0
LINE
8
BLACK
6
CONTINUOUS
10
0.2966271653543307
20
1.1428678346456693
11
0.2908803543307086
21
1.1548011811023622
0
LINE
8
BLACK
6
CONTINUOUS
10
0.2908803543307086
20
1.1548011811023622
11
0.2865058267716535
21
1.1673028740157481
0
LINE
8
BLACK
6
CONTINUOUS
10
0.2865058267716535
20
1.1673028740157481
11
0.2835585433070866
21
1.1802157874015748
0
LINE
8
BLACK
6
CONTINUOUS
10
0.2835585433070866
20
1.1802157874015748
11
0.2820755905511811
21
1.1933775196850394
0
LINE
8
BLACK
6
CONTINUOUS
10
0.2820755905511811
20
1.1933775196850394
11
0.2820755905511811
21
1.2066224803149606
0
LINE
8
BLACK
6
CONTINUOUS
10
0.2820755905511811
20
1.2066224803149606
11
0.2835585433070866
21
1.2197842125984251
0
LINE
8
BLACK
6
CONTINUOUS
10
0.2835585433070866
20
1.2197842125984251
11
0.2865058267716535
21
1.2326971259842519
0
LINE
8
BLACK
6
CONTINUOUS
10
0.2865058267716535
20
1.2326971259842519
11
0.2908803543307086
21
1.2451988188976377
0
LINE
8
BLACK
6
CONTINUOUS
10
0.2908803543307086
20
1.2451988188976377
11
0.2966271653543307
21
1.2571321653543306
0
LINE
8
BLACK
6
CONTINUOUS
10
0.2966271653543307
20
1.2571321653543306
11
0.3036738976377953
21
1.2683470078740158
0
LINE
8
BLACK
6
CONTINUOUS
10
0.3036738976377953
20
1.2683470078740158
11
0.3119320472440945
21
1.2787023622047244
0
LINE
8
BLACK
6
CONTINUOUS
10
0.3119320472440945
20
1.2787023622047244
11
0.3212976377952756
21
1.2880679527559056
0
LINE
8
BLACK
6
CONTINUOUS
10
0.3212976377952756
20
1.2880679527559056
11
0.3316529921259843
21
1.2963261023622048
0
LINE
8
BLACK
6
CONTINUOUS
10
0.3316529921259843
20
1.2963261023622048
11
0.3428678346456693
21
1.3033728346456692
0
LINE
8
BLACK
6
CONTINUOUS
10
0.3428678346456693
20
1.3033728346456692
11
0.3548011811023622
21
1.3091196456692913
0
LINE
8
BLACK
6
CONTINUOUS
10
0.3548011811023622
20
1.3091196456692913
11
0.367302874015748
21
1.3134941732283465
0
LINE
8
BLACK
6
CONTINUOUS
10
0.367302874015748
20
1.3134941732283465
11
0.3802157874015748
21
1.3164414566929135
0
LINE
8
BLACK
6
CONTINUOUS
10
0.3802157874015748
20
1.3164414566929135
11
0.3933775196850394
21
1.3179244094488189
0
LINE
8
BLACK
6
CONTINUOUS
10
0.3933775196850394
20
1.3179244094488189
11
0.4066224803149606
21
1.3179244094488189
0
LINE
8
BLACK
6
CONTINUOUS
10
0.4066224803149606
20
1.3179244094488189
11
0.4197842125984252
21
1.3164414566929135
0
LINE
8
BLACK
6
CONTINUOUS
10
1.6197842125984252
20
1.3164414566929135
11
1.632697125984252
21
1.3134941732283465
0
LINE
8
BLACK
6
CONTINUOUS
10
1.632697125984252
20
1.3134941732283465
11
1.6451988188976379
21
1.3091196456692913
0
LINE
8
BLACK
6
CONTINUOUS
10
1.6451988188976379
20
1.3091196456692913
11
1.6571321653543307
21
1.3033728346456692
0
LINE
8
BLACK
6
CONTINUOUS
10
1.6571321653543307
20
1.3033728346456692
11
1.6683470078740157
21
1.2963261023622048
0
LINE
8
BLACK
6
CONTINUOUS
10
1.6683470078740157
20
1.2963261023622048
11
1.6787023622047244
21
1.2880679527559056
0
LINE
8
BLACK
6
CONTINUOUS
10
1.6787023622047244
20
1.2880679527559056
11
1.6880679527559055
21
1.2787023622047244
0
LINE
8
BLACK
6
CONTINUOUS
10
1.6880679527559055
20
1.2787023622047244
11
1.6963261023622047
21
1.2683470078740158
0
LINE
8
BLACK
6
CONTINUOUS
10
1.6963261023622047
20
1.2683470078740158
11
1.7033728346456694
21
1.2571321653543306
0
LINE
8
BLACK
6
CONTINUOUS
10
1.7033728346456694
20
1.2571321653543306
11
1.7091196456692912
21
1.2451988188976377
0
LINE
8
BLACK
6
CONTINUOUS
10
1.7091196456692912
20
1.2451988188976377
11
1.7134941732283464
21
1.2326971259842519
0
LINE
8
BLACK
6
CONTINUOUS
10
1.7134941732283464
20
1.2326971259842519
11
1.7164414566929134
21
1.2197842125984251
0
LINE
8
BLACK
6
CONTINUOUS
10
1.7164414566929134
20
1.2197842125984251
11
1.7179244094488189
21
1.2066224803149606
0
LINE
8
BLACK
6
CONTINUOUS
10
1.7179244094488189
20
1.2066224803149606
11
1.7179244094488189
21
1.1933775196850394
0
LINE
8
BLACK
6
CONTINUOUS
10
1.7179244094488189
20
1.1933775196850394
11
1.7164414566929134
21
1.1802157874015748
0
LINE
8
BLACK
6
CONTINUOUS
10
1.7164414566929134
20
1.1802157874015748
11
1.7134941732283464
21
1.1673028740157481
0
LINE
8
BLACK
6
CONTINUOUS
10
1.7134941732283464
20
1.1673028740157481
11
1.7091196456692912
21
1.1548011811023622
0
LINE
8
BLACK
6
CONTINUOUS
10
1.7091196456692912
20
1.1548011811023622
11
1.7033728346456694
21
1.1428678346456693
0
LINE
8
BLACK
6
CONTINUOUS
10
1.7033728346456694
20
1.1428678346456693
11
1.6963261023622047
21
1.1316529921259841
0
LINE
8
BLACK
6
CONTINUOUS
10
1.6963261023622047
20
1.1316529921259841
11
1.6880679527559055
21
1.1212976377952755
0
LINE
8
BLACK
6
CONTINUOUS
10
1.6880679527559055
20
1.1212976377952755
11
1.6787023622047244
21
1.1119320472440946
0
LINE
8
BLACK
6
CONTINUOUS
10
1.6787023622047244
20
1.1119320472440946
11
1.6683470078740157
21
1.1036738976377953
0
LINE
8
BLACK
6
CONTINUOUS
10
1.6683470078740157
20
1.1036738976377953
11
1.6571321653543307
21
1.0966271653543307
0
LINE
8
BLACK
6
CONTINUOUS
10
1.6571321653543307
20
1.0966271653543307
11
1.6451988188976379
21
1.0908803543307086
0
LINE
8
BLACK
6
CONTINUOUS
10
1.6451988188976379
20
1.0908803543307086
11
1.632697125984252
21
1.0865058267716534
0
LINE
8
BLACK
6
CONTINUOUS
10
1.632697125984252
20
1.0865058267716534
11
1.6197842125984252
21
1.0835585433070867
0
LINE
8
BLACK
6
CONTINUOUS
10
1.6197842125984252
20
1.0835585433070867
11
1.6066224803149607
21
1.0820755905511812
0
LINE
8
BLACK
6
CONTINUOUS
10
1.6066224803149607
20
1.0820755905511812
11
1.5933775196850393
21
1.0820755905511812
0
LINE
8
BLACK
6
CONTINUOUS
10
1.5933775196850393
20
1.0820755905511812
11
1.5802157874015748
21
1.0835585433070867
0
LINE
8
BLACK
6
CONTINUOUS
10
1.5802157874015748
20
1.0835585433070867
11
1.567302874015748
21
1.0865058267716534
0
LINE
8
BLACK
6
CONTINUOUS
10
1.567302874015748
20
1.0865058267716534
11
1.5548011811023621
21
1.0908803543307086
0
LINE
8
BLACK
6
CONTINUOUS
10
1.5548011811023621
20
1.0908803543307086
11
1.5428678346456692
21
1.0966271653543307
0
LINE
8
BLACK
6
CONTINUOUS
10
1.5428678346456692
20
1.0966271653543307
11
1.5316529921259843
21
1.1036738976377953
0
LINE
8
BLACK
6
CONTINUOUS
10
1.5316529921259843
20
1.1036738976377953
11
1.5212976377952756
21
1.1119320472440946
0
LINE
8
BLACK
6
CONTINUOUS
10
1.5212976377952756
20
1.1119320472440946
11
1.5119320472440945
21
1.1212976377952755
0
LINE
8
BLACK
6
CONTINUOUS
10
1.5119320472440945
20
1.1212976377952755
11
1.5036738976377952
21
1.1316529921259841
0
LINE
8
BLACK
6
CONTINUOUS
10
1.5036738976377952
20
1.1316529921259841
11
1.4966271653543306
21
1.1428678346456693
0
LINE
8
BLACK
6
CONTINUOUS
10
1.4966271653543306
20
1.1428678346456693
11
1.4908803543307085
21
1.1548011811023622
0
LINE
8
BLACK
6
CONTINUOUS
10
1.4908803543307085
20
1.1548011811023622
11
1.4865058267716535
21
1.1673028740157481
0
LINE
8
BLACK
6
CONTINUOUS
10
1.4865058267716535
20
1.1673028740157481
11
1.4835585433070866
21
1.1802157874015748
0
LINE
8
BLACK
6
CONTINUOUS
10
1.4835585433070866
20
1.1802157874015748
11
1.4820755905511811
21
1.1933775196850394
0
LINE
8
BLACK
6
CONTINUOUS
10
1.4820755905511811
20
1.1933775196850394
11
1.4820755905511811
21
1.2066224803149606
0
LINE
8
BLACK
6
CONTINUOUS
10
1.4820755905511811
20
1.2066224803149606
11
1.4835585433070866
21
1.2197842125984251
0
LINE
8
BLACK
6
CONTINUOUS
10
1.4835585433070866
20
1.2197842125984251
11
1.4865058267716535
21
1.2326971259842519
0
LINE
8
BLACK
6
CONTINUOUS
10
1.4865058267716535
20
1.2326971259842519
11
1.4908803543307085
21
1.2451988188976377
0
LINE
8
BLACK
6
CONTINUOUS
10
1.4908803543307085
20
1.2451988188976377
11
1.4966271653543306
21
1.2571321653543306
0
LINE
8
BLACK
6
CONTINUOUS
10
1.4966271653543306
20
1.2571321653543306
11
1.5036738976377952
21
1.2683470078740158
0
LINE
8
BLACK
6
CONTINUOUS
10
1.5036738976377952
20
1.2683470078740158
11
1.5119320472440945
21
1.2787023622047244
0
LINE
8
BLACK
6
CONTINUOUS
10
1.5119320472440945
20
1.2787023622047244
11
1.5212976377952756
21
1.2880679527559056
0
LINE
8
BLACK
6
CONTINUOUS
10
1.5212976377952756
20
1.2880679527559056
11
1.5316529921259843
21
1.2963261023622048
0
LINE
8
BLACK
6
CONTINUOUS
10
1.5316529921259843
20
1.2963261023622048
11
1.5428678346456692
21
1.3033728346456692
0
LINE
8
BLACK
6
CONTINUOUS
10
1.5428678346456692
20
1.3033728346456692
11
1.5548011811023621
21
1.3091196456692913
0
LINE
8
BLACK
6
CONTINUOUS
10
1.5548011811023621
20
1.3091196456692913
11
1.567302874015748
21
1.3134941732283465
0
LINE
8
BLACK
6
CONTINUOUS
10
1.567302874015748
20
1.3134941732283465
11
1.5802157874015748
21
1.3164414566929135
0
LINE
8
BLACK
6
CONTINUOUS
10
1.5802157874015748
20
1.3164414566929135
11
1.5933775196850393
21
1.3179244094488189
0
LINE
8
BLACK
6
CONTINUOUS
10
1.5933775196850393
20
1.3179244094488189
11
1.6066224803149607
21
1.3179244094488189
0
LINE
8
BLACK
6
CONTINUOUS
10
1.6066224803149607
20
1.3179244094488189
11
1.6197842125984252
21
1.3164414566929135
0
LINE
8
BLACK
6
CONTINUOUS
10
0.9650393700787402
20
1.1633070866141733
11
0.9050393700787401
21
1.1633070866141733
0
LINE
8
BLACK
6
CONTINUOUS
10
0.9050393700787401
20
1.1633070866141733
11
0.9050393700787401
21
1.2233070866141733
0
LINE
8
BLACK
6
CONTINUOUS
10
0.9050393700787401
20
1.2233070866141733
11
0.9650393700787402
21
1.2233070866141733
0
LINE
8
BLACK
6
CONTINUOUS
10
0.9650393700787402
20
1.2233070866141733
11
0.9650393700787402
21
1.1633070866141733
0
LINE
8
BLACK
6
CONTINUOUS
10
1.0650393700787402
20
1.1633070866141733
11
1.0050393700787401
21
1.1633070866141733
0
LINE
8
BLACK
6
CONTINUOUS
10
1.0050393700787401
20
1.1633070866141733
11
1.0050393700787401
21
1.2233070866141733
0
LINE
8
BLACK
6
CONTINUOUS
10
1.0050393700787401
20
1.2233070866141733
11
1.0650393700787402
21
1.2233070866141733
0
LINE
8
BLACK
6
CONTINUOUS
10
1.0650393700787402
20
1.2233070866141733
11
1.0650393700787402
21
1.1633070866141733
0
LINE
8
BLACK
6
CONTINUOUS
10
1.16503937007874
20
1.1633070866141733
11
1.1050393700787402
21
1.1633070866141733
0
LINE
8
BLACK
6
CONTINUOUS
10
1.1050393700787402
20
1.1633070866141733
11
1.1050393700787402
21
1.2233070866141733
0
LINE
8
BLACK
6
CONTINUOUS
10
1.1050393700787402
20
1.2233070866141733
11
1.16503937007874
21
1.2233070866141733
0
LINE
8
BLACK
6
CONTINUOUS
10
1.16503937007874
20
1.2233070866141733
11
1.16503937007874
21
1.1633070866141733
0
LINE
8
BLACK
6
CONTINUOUS
10
1.2650393700787401
20
1.1633070866141733
11
1.2050393700787401
21
1.1633070866141733
0
LINE
8
BLACK
6
CONTINUOUS
10
1.2050393700787401
20
1.1633070866141733
11
1.2050393700787401
21
1.2233070866141733
0
LINE
8
BLACK
6
CONTINUOUS
10
1.2050393700787401
20
1.2233070866141733
11
1.2650393700787401
21
1.2233070866141733
0
LINE
8
BLACK
6
CONTINUOUS
10
1.2650393700787401
20
1.2233070866141733
11
1.2650393700787401
21
1.1633070866141733
0
LINE
8
BLACK
6
CONTINUOUS
10
1.3650393700787402
20
1.1633070866141733
11
1.3050393700787402
21
1.1633070866141733
0
LINE
8
BLACK
6
CONTINUOUS
10
1.3050393700787402
20
1.1633070866141733
11
1.3050393700787402
21
1.2233070866141733
0
LINE
8
BLACK
6
CONTINUOUS
10
1.3050393700787402
20
1.2233070866141733
11
1.3650393700787402
21
1.2233070866141733
0
LINE
8
BLACK
6
CONTINUOUS
10
1.3650393700787402
20
1.2233070866141733
11
1.3650393700787402
21
1.1633070866141733
0
LINE
8
BLACK
6
CONTINUOUS
10
0.9650393700787402
20
1.2633070866141731
11
0.9050393700787401
21
1.2633070866141731
0
LINE
8
BLACK
6
CONTINUOUS
10
0.9050393700787401
20
1.2633070866141731
11
0.9050393700787401
21
1.3233070866141732
0
LINE
8
BLACK
6
CONTINUOUS
10
0.9050393700787401
20
1.3233070866141732
11
0.9650393700787402
21
1.3233070866141732
0
LINE
8
BLACK
6
CONTINUOUS
10
0.9650393700787402
20
1.3233070866141732
11
0.9650393700787402
21
1.2633070866141731
0
LINE
8
BLACK
6
CONTINUOUS
10
1.0650393700787402
20
1.2633070866141731
11
1.0050393700787401
21
1.2633070866141731
0
LINE
8
BLACK
6
CONTINUOUS
10
1.0050393700787401
20
1.2633070866141731
11
1.0050393700787401
21
1.3233070866141732
0
LINE
8
BLACK
6
CONTINUOUS
10
1.0050393700787401
20
1.3233070866141732
11
1.0650393700787402
21
1.3233070866141732
0
LINE
8
BLACK
6
CONTINUOUS
10
1.0650393700787402
20
1.3233070866141732
11
1.0650393700787402
21
1.2633070866141731
0
LINE
8
BLACK
6
CONTINUOUS
10
1.16503937007874
20
1.2633070866141731
11
1.1050393700787402
21
1.2633070866141731
0
LINE
8
BLACK
6
CONTINUOUS
10
1.1050393700787402
20
1.2633070866141731
11
1.1050393700787402
21
1.3233070866141732
0
LINE
8
BLACK
6
CONTINUOUS
10
1.1050393700787402
20
1.3233070866141732
11
1.16503937007874
21
1.3233070866141732
0
LINE
8
BLACK
6
CONTINUOUS
10
1.16503937007874
20
1.3233070866141732
11
1.16503937007874
21
1.2633070866141731
0
LINE
8
BLACK
6
CONTINUOUS
10
1.2650393700787401
20
1.2633070866141731
11
1.2050393700787401
21
1.2633070866141731
0
LINE
8
BLACK
6
CONTINUOUS
10
1.2050393700787401
20
1.2633070866141731
11
1.2050393700787401
21
1.3233070866141732
0
LINE
8
BLACK
6
CONTINUOUS
10
1.2050393700787401
20
1.3233070866141732
11
1.2650393700787401
21
1.3233070866141732
0
LINE
8
BLACK
6
CONTINUOUS
10
1.2650393700787401
20
1.3233070866141732
11
1.2650393700787401
21
1.2633070866141731
0
LINE
8
BLACK
6
CONTINUOUS
10
1.3650393700787402
20
1.2633070866141731
11
1.3050393700787402
21
1.2633070866141731
0
LINE
8
BLACK
6
CONTINUOUS
10
1.3050393700787402
20
1.2633070866141731
11
1.3050393700787402
21
1.3233070866141732
0
LINE
8
BLACK
6
CONTINUOUS
10
1.3050393700787402
20
1.3233070866141732
11
1.3650393700787402
21
1.3233070866141732
0
LINE
8
BLACK
6
CONTINUOUS
10
1.3650393700787402
20
1.3233070866141732
11
1.3650393700787402
21
1.2633070866141731
0
CIRCLE
8
BLACK
10
0.9350393700787402
20
1.1933070866141733
40
0.0068897637795276
0
CIRCLE
8
BLACK
10
0.9350393700787402
20
1.2933070866141732
40
0.0068897637795276
0
CIRCLE
8
BLACK
10
1.0350393700787401
20
1.1933070866141733
40
0.0068897637795276
0
CIRCLE
8
BLACK
10
1.0350393700787401
20
1.2933070866141732
40
0.0068897637795276
0
CIRCLE
8
BLACK
10
1.1350393700787402
20
1.1933070866141733
40
0.0068897637795276
0
CIRCLE
8
BLACK
10
1.1350393700787402
20
1.2933070866141732
40
0.0068897637795276
0
CIRCLE
8
BLACK
10
1.2350393700787401
20
1.1933070866141733
40
0.0068897637795276
0
CIRCLE
8
BLACK
10
1.2350393700787401
20
1.2933070866141732
40
0.0068897637795276
0
CIRCLE
8
BLACK
10
1.3350393700787402
20
1.1933070866141733
40
0.0068897637795276
0
CIRCLE
8
BLACK
10
1.3350393700787402
20
1.2933070866141732
40
0.0068897637795276
0
CIRCLE
8
BLACK
10
1.6141732283464567
20
0.8267716535433071
40
0.0068897637795276
0
CIRCLE
8
BLACK
10
1.7141732283464566
20
0.926771653543307
40
0.0068897637795276
0
CIRCLE
8
BLACK
10
1.5141732283464566
20
0.926771653543307
40
0.0068897637795276
0
CIRCLE
8
BLACK
10
1.7141732283464566
20
0.7267716535433071
40
0.0068897637795276
0
CIRCLE
8
BLACK
10
1.5141732283464566
20
0.7267716535433071
40
0.0068897637795276
0
CIRCLE
8
BLACK
10
0.4
20
0.4
40
0.0068897637795276
0
CIRCLE
8
BLACK
10
1.5999999999999999
20
1.2
40
0.0068897637795276
0
CIRCLE
8
BLACK
10
1.5999999999999999
20
0.4
40
0.0068897637795276
0
CIRCLE
8
BLACK
10
0.4
20
1.2
40
0.0068897637795276
0
CIRCLE
8
BLACK
10
0.3043307086614173
20
0.9070866141732283
40
0.0068897637795276
0
CIRCLE
8
BLACK
10
0.4043307086614173
20
0.9070866141732283
40
0.0068897637795276
0
CIRCLE
8
BLACK
10
0.3043307086614173
20
0.8070866141732284
40
0.0068897637795276
0
CIRCLE
8
BLACK
10
0.4043307086614173
20
0.8070866141732284
40
0.0068897637795276
0
CIRCLE
8
BLACK
10
0.3043307086614173
20
0.7070866141732284
40
0.0068897637795276
0
CIRCLE
8
BLACK
10
0.4043307086614173
20
0.7070866141732284
40
0.0068897637795276
0
CIRCLE
8
BLACK
10
0.937007874015748
20
0.2989173228346457
40
0.0068897637795276
0
CIRCLE
8
BLACK
10
0.937007874015748
20
0.3989173228346456
40
0.0068897637795276
0
CIRCLE
8
BLACK
10
1.037007874015748
20
0.2989173228346457
40
0.0068897637795276
0
CIRCLE
8
BLACK
10
1.037007874015748
20
0.3989173228346456
40
0.0068897637795276
0
CIRCLE
8
BLACK
10
1.1370078740157481
20
0.2989173228346457
40
0.0068897637795276
0
CIRCLE
8
BLACK
10
1.1370078740157481
20
0.3989173228346456
40
0.0068897637795276
0
CIRCLE
8
BLACK
10
1.237007874015748
20
0.2989173228346457
40
0.0068897637795276
0
CIRCLE
8
BLACK
10
1.237007874015748
20
0.3989173228346456
40
0.0068897637795276
0
CIRCLE
8
BLACK
10
1.3370078740157481
20
0.2989173228346457
40
0.0068897637795276
0
CIRCLE
8
BLACK
10
1.3370078740157481
20
0.3989173228346456
40
0.0068897637795276
0
CIRCLE
8
BLACK
10
0.9116561417322835
20
0.8494582283464567
40
0.004
0
CIRCLE
8
BLACK
10
0.9074803149606299
20
0.7756852755905511
40
0.004
0
CIRCLE
8
BLACK
10
0.8726817716535433
20
0.8104838582677165
40
0.004
0
CIRCLE
8
BLACK
10
0.8378831889763779
20
0.8452824015748032
40
0.004
0
CIRCLE
8
BLACK
10
0.8337074015748032
20
0.7715094881889764
40
0.004
0
CIRCLE
8
WHITE
10
0.9350393700787402
20
1.1933070866141733
40
0.0068897637795276
0
CIRCLE
8
WHITE
10
0.9350393700787402
20
1.2933070866141732
40
0.0068897637795276
0
CIRCLE
8
WHITE
10
1.0350393700787401
20
1.1933070866141733
40
0.0068897637795276
0
CIRCLE
8
WHITE
10
1.0350393700787401
20
1.2933070866141732
40
0.0068897637795276
0
CIRCLE
8
WHITE
10
1.1350393700787402
20
1.1933070866141733
40
0.0068897637795276
0
CIRCLE
8
WHITE
10
1.1350393700787402
20
1.2933070866141732
40
0.0068897637795276
0
CIRCLE
8
WHITE
10
1.2350393700787401
20
1.1933070866141733
40
0.0068897637795276
0
CIRCLE
8
WHITE
10
1.2350393700787401
20
1.2933070866141732
40
0.0068897637795276
0
CIRCLE
8
WHITE
10
1.3350393700787402
20
1.1933070866141733
40
0.0068897637795276
0
CIRCLE
8
WHITE
10
1.3350393700787402
20
1.2933070866141732
40
0.0068897637795276
0
CIRCLE
8
WHITE
10
1.6141732283464567
20
0.8267716535433071
40
0.0068897637795276
0
CIRCLE
8
WHITE
10
1.7141732283464566
20
0.926771653543307
40
0.0068897637795276
0
CIRCLE
8
WHITE
10
1.5141732283464566
20
0.926771653543307
40
0.0068897637795276
0
CIRCLE
8
WHITE
10
1.7141732283464566
20
0.7267716535433071
40
0.0068897637795276
0
CIRCLE
8
WHITE
10
1.5141732283464566
20
0.7267716535433071
40
0.0068897637795276
0
CIRCLE
8
WHITE
10
0.4
20
0.4
40
0.0068897637795276
0
CIRCLE
8
WHITE
10
1.5999999999999999
20
1.2
40
0.0068897637795276
0
CIRCLE
8
WHITE
10
1.5999999999999999
20
0.4
40
0.0068897637795276
0
CIRCLE
8
WHITE
10
0.4
20
1.2
40
0.0068897637795276
0
CIRCLE
8
WHITE
10
0.3043307086614173
20
0.9070866141732283
40
0.0068897637795276
0
CIRCLE
8
WHITE
10
0.4043307086614173
20
0.9070866141732283
40
0.0068897637795276
0
CIRCLE
8
WHITE
10
0.3043307086614173
20
0.8070866141732284
40
0.0068897637795276
0
CIRCLE
8
WHITE
10
0.4043307086614173
20
0.8070866141732284
40
0.0068897637795276
0
CIRCLE
8
WHITE
10
0.3043307086614173
20
0.7070866141732284
40
0.0068897637795276
0
CIRCLE
8
WHITE
10
0.4043307086614173
20
0.7070866141732284
40
0.0068897637795276
0
CIRCLE
8
WHITE
10
0.937007874015748
20
0.2989173228346457
40
0.0068897637795276
0
CIRCLE
8
WHITE
10
0.937007874015748
20
0.3989173228346456
40
0.0068897637795276
0
CIRCLE
8
WHITE
10
1.037007874015748
20
0.2989173228346457
40
0.0068897637795276
0
CIRCLE
8
WHITE
10
1.037007874015748
20
0.3989173228346456
40
0.0068897637795276
0
CIRCLE
8
WHITE
10
1.1370078740157481
20
0.2989173228346457
40
0.0068897637795276
0
CIRCLE
8
WHITE
10
1.1370078740157481
20
0.3989173228346456
40
0.0068897637795276
0
CIRCLE
8
WHITE
10
1.237007874015748
20
0.2989173228346457
40
0.0068897637795276
0
CIRCLE
8
WHITE
10
1.237007874015748
20
0.3989173228346456
40
0.0068897637795276
0
CIRCLE
8
WHITE
10
1.3370078740157481
20
0.2989173228346457
40
0.0068897637795276
0
CIRCLE
8
WHITE
10
1.3370078740157481
20
0.3989173228346456
40
0.0068897637795276
0
CIRCLE
8
WHITE
10
0.9116561417322835
20
0.8494582283464567
40
0.004
0
CIRCLE
8
WHITE
10
0.9074803149606299
20
0.7756852755905511
40
0.004
0
CIRCLE
8
WHITE
10
0.8726817716535433
20
0.8104838582677165
40
0.004
0
CIRCLE
8
WHITE
10
0.8378831889763779
20
0.8452824015748032
40
0.004
0
CIRCLE
8
WHITE
10
0.8337074015748032
20
0.7715094881889764
40
0.004
  0
ENDSEC
  0
EOF
