  0
SECTION
  2
HEADER
  9
$ANGBASE
  50
0.0
  9
$ANGDIR
  70
1
  9
$MEASUREMENT
  70
0
  0
ENDSEC
  0
SECTION
  2
TABLES
  0
TABLE
  2
LTYPE
  70
4
  0
LTYPE
  5
40F
  2
CONTINUOUS
  70
0
  3
Solid line
  72
65
  73
0
  40
0.0
  0
LTYPE
  5
410
  2
DASHDOT
 70
0
  3
Dash Dot ____ _ ____ _
 72
65
 73
4
 40
2.0
 49
1.25
 49
-0.25
 49
0.25
 49
-0.25
  0
LTYPE
  5
411
  2
DASHED
 70
0
  3
Dashed __ __ __ __ __
 72
65
 73
2
 40
0.75
 49
0.5
 49
-0.25
  0
LTYPE
  5
43B
  2
DOTTED
 70
0
  3
Dotted .  .  .  .
 72
65
 73
2
 40
0.2
 49
0.0
 49
-0.2
  0
ENDTAB
  0
TABLE
  2
STYLE
  70
4
  0
STYLE
  2
KICAD
  70
0
  40
0
  41
1
  42
1
  50
0
  71
0
  3
isocp.shx
  0
STYLE
  2
KICADB
  70
0
  40
0
  41
1
  42
1
  50
0
  71
0
  3
isocp.shx
  0
STYLE
  2
KICADI
  70
0
  40
0
  41
1
  42
1
  50
15
  71
0
  3
isocp.shx
  0
STYLE
  2
KICADBI
  70
0
  40
0
  41
1
  42
1
  50
15
  71
0
  3
isocp.shx
  0
ENDTAB
  0
TABLE
  2
LAYER
  70
1
  0
LAYER
  2
BLACK
  70
0
  62
7
  6
CONTINUOUS
  0
ENDTAB
  0
ENDSEC
  0
SECTION
  2
ENTITIES
0
LINE
8
BLACK
6
CONTINUOUS
10
1.5995288188976378
20
0.4639236220472441
11
1.6005932283464566
21
0.463482716535433
0
LINE
8
BLACK
6
CONTINUOUS
10
1.6005932283464566
20
0.463482716535433
11
1.601407874015748
21
0.4626680708661417
0
LINE
8
BLACK
6
CONTINUOUS
10
1.601407874015748
20
0.4626680708661417
11
1.6018487795275591
21
0.4616036614173228
0
LINE
8
BLACK
6
CONTINUOUS
10
1.6018487795275591
20
0.4616036614173228
11
1.6018487795275591
21
0.4604515354330709
0
LINE
8
BLACK
6
CONTINUOUS
10
1.6018487795275591
20
0.4604515354330709
11
1.601407874015748
21
0.459387125984252
0
LINE
8
BLACK
6
CONTINUOUS
10
1.601407874015748
20
0.459387125984252
11
1.6005932283464566
21
0.4585724803149606
0
LINE
8
BLACK
6
CONTINUOUS
10
1.6005932283464566
20
0.4585724803149606
11
1.5995288188976378
21
0.4581315748031496
0
LINE
8
BLACK
6
CONTINUOUS
10
1.5995288188976378
20
0.4581315748031496
11
1.5989527559055117
21
0.4580748425196851
0
LINE
8
BLACK
6
CONTINUOUS
10
1.5989527559055117
20
0.4580748425196851
11
1.5189527559055118
21
0.4580748425196851
0
LINE
8
BLACK
6
CONTINUOUS
10
1.5189527559055118
20
0.4580748425196851
11
1.5183766929133857
21
0.4581315748031496
0
LINE
8
BLACK
6
CONTINUOUS
10
1.5183766929133857
20
0.4581315748031496
11
1.5173122834645669
21
0.4585724803149606
0
LINE
8
BLACK
6
CONTINUOUS
10
1.5173122834645669
20
0.4585724803149606
11
1.5164976377952755
21
0.459387125984252
0
LINE
8
BLACK
6
CONTINUOUS
10
1.5164976377952755
20
0.459387125984252
11
1.5160567322834646
21
0.4604515354330709
0
LINE
8
BLACK
6
CONTINUOUS
10
1.5160567322834646
20
0.4604515354330709
11
1.5160567322834646
21
0.4616036614173228
0
LINE
8
BLACK
6
CONTINUOUS
10
1.5160567322834646
20
0.4616036614173228
11
1.5164976377952755
21
0.4626680708661417
0
LINE
8
BLACK
6
CONTINUOUS
10
1.5164976377952755
20
0.4626680708661417
11
1.5173122834645669
21
0.463482716535433
0
LINE
8
BLACK
6
CONTINUOUS
10
1.5173122834645669
20
0.463482716535433
11
1.5183766929133857
21
0.4639236220472441
0
LINE
8
BLACK
6
CONTINUOUS
10
1.5183766929133857
20
0.4639236220472441
11
1.5189527559055118
21
0.4639803543307087
0
LINE
8
BLACK
6
CONTINUOUS
10
1.5189527559055118
20
0.4639803543307087
11
1.5989527559055117
21
0.4639803543307087
0
LINE
8
BLACK
6
CONTINUOUS
10
1.5989527559055117
20
0.4639803543307087
11
1.5995288188976378
21
0.4639236220472441
0
LINE
8
BLACK
6
CONTINUOUS
10
1.7701717322834645
20
0.5820619291338582
11
1.7702494881889763
21
0.5820674409448818
0
LINE
8
BLACK
6
CONTINUOUS
10
1.7702494881889763
20
0.5820674409448818
11
1.7703517322834645
21
0.5820442125984252
0
LINE
8
BLACK
6
CONTINUOUS
10
1.7703517322834645
20
0.5820442125984252
11
1.7704562598425198
21
0.5820338976377952
0
LINE
8
BLACK
6
CONTINUOUS
10
1.7704562598425198
20
0.5820338976377952
11
1.7705283464566928
21
0.5820040551181103
0
LINE
8
BLACK
6
CONTINUOUS
10
1.7705283464566928
20
0.5820040551181103
11
1.7708139370078739
21
0.5819390944881889
0
LINE
8
BLACK
6
CONTINUOUS
10
1.7708139370078739
20
0.5819390944881889
11
1.7792503543307086
21
0.5791269291338582
0
LINE
8
BLACK
6
CONTINUOUS
10
1.7792503543307086
20
0.5791269291338582
11
1.7797788976377953
21
0.5788909448818897
0
LINE
8
BLACK
6
CONTINUOUS
10
1.7797788976377953
20
0.5788909448818897
11
1.7798589763779527
21
0.5788214960629922
0
LINE
8
BLACK
6
CONTINUOUS
10
1.7798589763779527
20
0.5788214960629922
11
1.7799570472440944
21
0.5787808661417323
0
LINE
8
BLACK
6
CONTINUOUS
10
1.7799570472440944
20
0.5787808661417323
11
1.780404527559055
21
0.5784136220472441
0
LINE
8
BLACK
6
CONTINUOUS
10
1.780404527559055
20
0.5784136220472441
11
1.7860288582677164
21
0.5727893307086614
0
LINE
8
BLACK
6
CONTINUOUS
10
1.7860288582677164
20
0.5727893307086614
11
1.7863960629921258
21
0.5723418897637795
0
LINE
8
BLACK
6
CONTINUOUS
10
1.7863960629921258
20
0.5723418897637795
11
1.7864366535433069
21
0.5722438582677165
0
LINE
8
BLACK
6
CONTINUOUS
10
1.7864366535433069
20
0.5722438582677165
11
1.7865061811023621
21
0.5721637007874015
0
LINE
8
BLACK
6
CONTINUOUS
10
1.7865061811023621
20
0.5721637007874015
11
1.7867421653543307
21
0.5716351574803149
0
LINE
8
BLACK
6
CONTINUOUS
10
1.7867421653543307
20
0.5716351574803149
11
1.7895542913385827
21
0.5631987007874015
0
LINE
8
BLACK
6
CONTINUOUS
10
1.7895542913385827
20
0.5631987007874015
11
1.7896192125984252
21
0.5629131496062992
0
LINE
8
BLACK
6
CONTINUOUS
10
1.7896192125984252
20
0.5629131496062992
11
1.7896490944881889
21
0.5628410236220472
0
LINE
8
BLACK
6
CONTINUOUS
10
1.7896490944881889
20
0.5628410236220472
11
1.7896593700787402
21
0.5627365354330709
0
LINE
8
BLACK
6
CONTINUOUS
10
1.7896593700787402
20
0.5627365354330709
11
1.7896826377952755
21
0.5626342519685039
0
LINE
8
BLACK
6
CONTINUOUS
10
1.7896826377952755
20
0.5626342519685039
11
1.7896770866141731
21
0.5625565354330708
0
LINE
8
BLACK
6
CONTINUOUS
10
1.7896770866141731
20
0.5625565354330708
11
1.7897058267716535
21
0.5622649606299213
0
LINE
8
BLACK
6
CONTINUOUS
10
1.7897058267716535
20
0.5622649606299213
11
1.7897058267716535
21
0.5566406692913386
0
LINE
8
BLACK
6
CONTINUOUS
10
1.7897058267716535
20
0.5566406692913386
11
1.7896490944881889
21
0.5560646062992126
0
LINE
8
BLACK
6
CONTINUOUS
10
1.7896490944881889
20
0.5560646062992126
11
1.789208188976378
21
0.5550001968503937
0
LINE
8
BLACK
6
CONTINUOUS
10
1.789208188976378
20
0.5550001968503937
11
1.7883935433070866
21
0.5541855511811024
0
LINE
8
BLACK
6
CONTINUOUS
10
1.7883935433070866
20
0.5541855511811024
11
1.7873291338582677
21
0.5537446456692914
0
LINE
8
BLACK
6
CONTINUOUS
10
1.7873291338582677
20
0.5537446456692914
11
1.7861770078740158
21
0.5537446456692914
0
LINE
8
BLACK
6
CONTINUOUS
10
1.7861770078740158
20
0.5537446456692914
11
1.7851125984251968
21
0.5541855511811024
0
LINE
8
BLACK
6
CONTINUOUS
10
1.7851125984251968
20
0.5541855511811024
11
1.7842979527559055
21
0.5550001968503937
0
LINE
8
BLACK
6
CONTINUOUS
10
1.7842979527559055
20
0.5550001968503937
11
1.7838570472440944
21
0.5560646062992126
0
LINE
8
BLACK
6
CONTINUOUS
10
1.7838570472440944
20
0.5560646062992126
11
1.7838003149606299
21
0.5566406692913386
0
LINE
8
BLACK
6
CONTINUOUS
10
1.7838003149606299
20
0.5566406692913386
11
1.7838003149606299
21
0.5617858661417323
0
LINE
8
BLACK
6
CONTINUOUS
10
1.7838003149606299
20
0.5617858661417323
11
1.7813601181102361
21
0.5691063779527559
0
LINE
8
BLACK
6
CONTINUOUS
10
1.7813601181102361
20
0.5691063779527559
11
1.7767215748031495
21
0.5737449212598426
0
LINE
8
BLACK
6
CONTINUOUS
10
1.7767215748031495
20
0.5737449212598426
11
1.769401062992126
21
0.5761851181102362
0
LINE
8
BLACK
6
CONTINUOUS
10
1.769401062992126
20
0.5761851181102362
11
1.7276979527559055
21
0.5761851181102362
0
LINE
8
BLACK
6
CONTINUOUS
10
1.7276979527559055
20
0.5761851181102362
11
1.7271218897637794
21
0.5762418503937008
0
LINE
8
BLACK
6
CONTINUOUS
10
1.7271218897637794
20
0.5762418503937008
11
1.7260574803149606
21
0.5766827559055118
0
LINE
8
BLACK
6
CONTINUOUS
10
1.7260574803149606
20
0.5766827559055118
11
1.7252428346456692
21
0.5774974015748031
0
LINE
8
BLACK
6
CONTINUOUS
10
1.7252428346456692
20
0.5774974015748031
11
1.7248019291338583
21
0.578561811023622
0
LINE
8
BLACK
6
CONTINUOUS
10
1.7248019291338583
20
0.578561811023622
11
1.7248019291338583
21
0.579713937007874
0
LINE
8
BLACK
6
CONTINUOUS
10
1.7248019291338583
20
0.579713937007874
11
1.7252428346456692
21
0.5807783464566929
0
LINE
8
BLACK
6
CONTINUOUS
10
1.7252428346456692
20
0.5807783464566929
11
1.7260574803149606
21
0.5815929921259843
0
LINE
8
BLACK
6
CONTINUOUS
10
1.7260574803149606
20
0.5815929921259843
11
1.7271218897637794
21
0.5820338976377952
0
LINE
8
BLACK
6
CONTINUOUS
10
1.7271218897637794
20
0.5820338976377952
11
1.7276979527559055
21
0.5820906299212598
0
LINE
8
BLACK
6
CONTINUOUS
10
1.7276979527559055
20
0.5820906299212598
11
1.7698801968503937
21
0.5820906299212598
0
LINE
8
BLACK
6
CONTINUOUS
10
1.7698801968503937
20
0.5820906299212598
11
1.7701717322834645
21
0.5820619291338582
0
LINE
8
BLACK
6
CONTINUOUS
10
1.4237979527559055
20
0.6412779921259842
11
1.4246125984251967
21
0.6404633464566929
0
LINE
8
BLACK
6
CONTINUOUS
10
1.4246125984251967
20
0.6404633464566929
11
1.4250535039370078
21
0.639398937007874
0
LINE
8
BLACK
6
CONTINUOUS
10
1.4250535039370078
20
0.639398937007874
11
1.4251102362204724
21
0.638822874015748
0
LINE
8
BLACK
6
CONTINUOUS
10
1.4251102362204724
20
0.638822874015748
11
1.4251102362204724
21
0.558822874015748
0
LINE
8
BLACK
6
CONTINUOUS
10
1.4251102362204724
20
0.558822874015748
11
1.4250535039370078
21
0.5582468110236221
0
LINE
8
BLACK
6
CONTINUOUS
10
1.4250535039370078
20
0.5582468110236221
11
1.4246125984251967
21
0.5571824015748031
0
LINE
8
BLACK
6
CONTINUOUS
10
1.4246125984251967
20
0.5571824015748031
11
1.4237979527559055
21
0.5563677559055118
0
LINE
8
BLACK
6
CONTINUOUS
10
1.4237979527559055
20
0.5563677559055118
11
1.4227335433070867
21
0.5559268503937008
0
LINE
8
BLACK
6
CONTINUOUS
10
1.4227335433070867
20
0.5559268503937008
11
1.4215814173228347
21
0.5559268503937008
0
LINE
8
BLACK
6
CONTINUOUS
10
1.4215814173228347
20
0.5559268503937008
11
1.4205170078740157
21
0.5563677559055118
0
LINE
8
BLACK
6
CONTINUOUS
10
1.4205170078740157
20
0.5563677559055118
11
1.4197023622047245
21
0.5571824015748031
0
LINE
8
BLACK
6
CONTINUOUS
10
1.4197023622047245
20
0.5571824015748031
11
1.4192614566929134
21
0.5582468110236221
0
LINE
8
BLACK
6
CONTINUOUS
10
1.4192614566929134
20
0.5582468110236221
11
1.4192047244094488
21
0.558822874015748
0
LINE
8
BLACK
6
CONTINUOUS
10
1.4192047244094488
20
0.558822874015748
11
1.4192047244094488
21
0.638822874015748
0
LINE
8
BLACK
6
CONTINUOUS
10
1.4192047244094488
20
0.638822874015748
11
1.4192614566929134
21
0.639398937007874
0
LINE
8
BLACK
6
CONTINUOUS
10
1.4192614566929134
20
0.639398937007874
11
1.4197023622047245
21
0.6404633464566929
0
LINE
8
BLACK
6
CONTINUOUS
10
1.4197023622047245
20
0.6404633464566929
11
1.4205170078740157
21
0.6412779921259842
0
LINE
8
BLACK
6
CONTINUOUS
10
1.4205170078740157
20
0.6412779921259842
11
1.4215814173228347
21
0.6417188976377952
0
LINE
8
BLACK
6
CONTINUOUS
10
1.4215814173228347
20
0.6417188976377952
11
1.4227335433070867
21
0.6417188976377952
0
LINE
8
BLACK
6
CONTINUOUS
10
1.4227335433070867
20
0.6417188976377952
11
1.4237979527559055
21
0.6412779921259842
0
LINE
8
BLACK
6
CONTINUOUS
10
1.6983885039370079
20
0.6412779921259842
11
1.6992031496062991
21
0.6404633464566929
0
LINE
8
BLACK
6
CONTINUOUS
10
1.6992031496062991
20
0.6404633464566929
11
1.6996440551181102
21
0.639398937007874
0
LINE
8
BLACK
6
CONTINUOUS
10
1.6996440551181102
20
0.639398937007874
11
1.6997007874015748
21
0.638822874015748
0
LINE
8
BLACK
6
CONTINUOUS
10
1.6997007874015748
20
0.638822874015748
11
1.6997007874015748
21
0.558822874015748
0
LINE
8
BLACK
6
CONTINUOUS
10
1.6997007874015748
20
0.558822874015748
11
1.6996440551181102
21
0.5582468110236221
0
LINE
8
BLACK
6
CONTINUOUS
10
1.6996440551181102
20
0.5582468110236221
11
1.6992031496062991
21
0.5571824015748031
0
LINE
8
BLACK
6
CONTINUOUS
10
1.6992031496062991
20
0.5571824015748031
11
1.6983885039370079
21
0.5563677559055118
0
LINE
8
BLACK
6
CONTINUOUS
10
1.6983885039370079
20
0.5563677559055118
11
1.6973240944881889
21
0.5559268503937008
0
LINE
8
BLACK
6
CONTINUOUS
10
1.6973240944881889
20
0.5559268503937008
11
1.6961719685039369
21
0.5559268503937008
0
LINE
8
BLACK
6
CONTINUOUS
10
1.6961719685039369
20
0.5559268503937008
11
1.6951075590551181
21
0.5563677559055118
0
LINE
8
BLACK
6
CONTINUOUS
10
1.6951075590551181
20
0.5563677559055118
11
1.6942929133858267
21
0.5571824015748031
0
LINE
8
BLACK
6
CONTINUOUS
10
1.6942929133858267
20
0.5571824015748031
11
1.6938520078740158
21
0.5582468110236221
0
LINE
8
BLACK
6
CONTINUOUS
10
1.6938520078740158
20
0.5582468110236221
11
1.6937952755905512
21
0.558822874015748
0
LINE
8
BLACK
6
CONTINUOUS
10
1.6937952755905512
20
0.558822874015748
11
1.6937952755905512
21
0.638822874015748
0
LINE
8
BLACK
6
CONTINUOUS
10
1.6937952755905512
20
0.638822874015748
11
1.6938520078740158
21
0.639398937007874
0
LINE
8
BLACK
6
CONTINUOUS
10
1.6938520078740158
20
0.639398937007874
11
1.6942929133858267
21
0.6404633464566929
0
LINE
8
BLACK
6
CONTINUOUS
10
1.6942929133858267
20
0.6404633464566929
11
1.6951075590551181
21
0.6412779921259842
0
LINE
8
BLACK
6
CONTINUOUS
10
1.6951075590551181
20
0.6412779921259842
11
1.6961719685039369
21
0.6417188976377952
0
LINE
8
BLACK
6
CONTINUOUS
10
1.6961719685039369
20
0.6417188976377952
11
1.6973240944881889
21
0.6417188976377952
0
LINE
8
BLACK
6
CONTINUOUS
10
1.6973240944881889
20
0.6417188976377952
11
1.6983885039370079
21
0.6412779921259842
0
LINE
8
BLACK
6
CONTINUOUS
10
1.7883935433070866
20
0.6406481102362205
11
1.789208188976378
21
0.6398334645669291
0
LINE
8
BLACK
6
CONTINUOUS
10
1.789208188976378
20
0.6398334645669291
11
1.7896490944881889
21
0.6387690551181102
0
LINE
8
BLACK
6
CONTINUOUS
10
1.7896490944881889
20
0.6387690551181102
11
1.7897058267716535
21
0.6381929921259842
0
LINE
8
BLACK
6
CONTINUOUS
10
1.7897058267716535
20
0.6381929921259842
11
1.7897058267716535
21
0.6044472047244094
0
LINE
8
BLACK
6
CONTINUOUS
10
1.7897058267716535
20
0.6044472047244094
11
1.7896490944881889
21
0.6038711417322834
0
LINE
8
BLACK
6
CONTINUOUS
10
1.7896490944881889
20
0.6038711417322834
11
1.789208188976378
21
0.6028067322834646
0
LINE
8
BLACK
6
CONTINUOUS
10
1.789208188976378
20
0.6028067322834646
11
1.7883935433070866
21
0.6019920866141732
0
LINE
8
BLACK
6
CONTINUOUS
10
1.7883935433070866
20
0.6019920866141732
11
1.7873291338582677
21
0.6015511811023622
0
LINE
8
BLACK
6
CONTINUOUS
10
1.7873291338582677
20
0.6015511811023622
11
1.7861770078740158
21
0.6015511811023622
0
LINE
8
BLACK
6
CONTINUOUS
10
1.7861770078740158
20
0.6015511811023622
11
1.7851125984251968
21
0.6019920866141732
0
LINE
8
BLACK
6
CONTINUOUS
10
1.7851125984251968
20
0.6019920866141732
11
1.7842979527559055
21
0.6028067322834646
0
LINE
8
BLACK
6
CONTINUOUS
10
1.7842979527559055
20
0.6028067322834646
11
1.7838570472440944
21
0.6038711417322834
0
LINE
8
BLACK
6
CONTINUOUS
10
1.7838570472440944
20
0.6038711417322834
11
1.7838003149606299
21
0.6044472047244094
0
LINE
8
BLACK
6
CONTINUOUS
10
1.7838003149606299
20
0.6044472047244094
11
1.7838003149606299
21
0.6183673228346457
0
LINE
8
BLACK
6
CONTINUOUS
10
1.7838003149606299
20
0.6183673228346457
11
1.7374502755905512
21
0.6183673228346457
0
LINE
8
BLACK
6
CONTINUOUS
10
1.7374502755905512
20
0.6183673228346457
11
1.7377723228346456
21
0.6181526377952756
0
LINE
8
BLACK
6
CONTINUOUS
10
1.7377723228346456
20
0.6181526377952756
11
1.7377739763779527
21
0.6181512992125984
0
LINE
8
BLACK
6
CONTINUOUS
10
1.7377739763779527
20
0.6181512992125984
11
1.7377748818897638
21
0.618150905511811
0
LINE
8
BLACK
6
CONTINUOUS
10
1.7377748818897638
20
0.618150905511811
11
1.7379901574803149
21
0.6179742125984252
0
LINE
8
BLACK
6
CONTINUOUS
10
1.7379901574803149
20
0.6179742125984252
11
1.7382201574803149
21
0.6177858661417323
0
LINE
8
BLACK
6
CONTINUOUS
10
1.7382201574803149
20
0.6177858661417323
11
1.7382207086614172
21
0.6177850393700788
0
LINE
8
BLACK
6
CONTINUOUS
10
1.7382207086614172
20
0.6177850393700788
11
1.7382223228346456
21
0.6177837007874015
0
LINE
8
BLACK
6
CONTINUOUS
10
1.7382223228346456
20
0.6177837007874015
11
1.7438466141732283
21
0.6121594094488189
0
LINE
8
BLACK
6
CONTINUOUS
10
1.7438466141732283
20
0.6121594094488189
11
1.7440324409448817
21
0.6119329527559055
0
LINE
8
BLACK
6
CONTINUOUS
10
1.7440324409448817
20
0.6119329527559055
11
1.7440913385826771
21
0.6118818897637796
0
LINE
8
BLACK
6
CONTINUOUS
10
1.7440913385826771
20
0.6118818897637796
11
1.7441472047244093
21
0.6117931496062992
0
LINE
8
BLACK
6
CONTINUOUS
10
1.7441472047244093
20
0.6117931496062992
11
1.7442138188976377
21
0.6117119685039369
0
LINE
8
BLACK
6
CONTINUOUS
10
1.7442138188976377
20
0.6117119685039369
11
1.7442436614173229
21
0.6116399212598425
0
LINE
8
BLACK
6
CONTINUOUS
10
1.7442436614173229
20
0.6116399212598425
11
1.7443997244094487
21
0.6113920078740157
0
LINE
8
BLACK
6
CONTINUOUS
10
1.7443997244094487
20
0.6113920078740157
11
1.7472118897637794
21
0.605767716535433
0
LINE
8
BLACK
6
CONTINUOUS
10
1.7472118897637794
20
0.605767716535433
11
1.7474187795275591
21
0.605227125984252
0
LINE
8
BLACK
6
CONTINUOUS
10
1.7474187795275591
20
0.605227125984252
11
1.7475004330708661
21
0.6040779133858267
0
LINE
8
BLACK
6
CONTINUOUS
10
1.7475004330708661
20
0.6040779133858267
11
1.7471361023622047
21
0.6029849212598425
0
LINE
8
BLACK
6
CONTINUOUS
10
1.7471361023622047
20
0.6029849212598425
11
1.7463812598425197
21
0.6021145669291339
0
LINE
8
BLACK
6
CONTINUOUS
10
1.7463812598425197
20
0.6021145669291339
11
1.745350748031496
21
0.6015992913385827
0
LINE
8
BLACK
6
CONTINUOUS
10
1.745350748031496
20
0.6015992913385827
11
1.7442015354330709
21
0.6015176377952756
0
LINE
8
BLACK
6
CONTINUOUS
10
1.7442015354330709
20
0.6015176377952756
11
1.7431085826771653
21
0.601881968503937
0
LINE
8
BLACK
6
CONTINUOUS
10
1.7431085826771653
20
0.601881968503937
11
1.7422381889763778
21
0.602636811023622
0
LINE
8
BLACK
6
CONTINUOUS
10
1.7422381889763778
20
0.602636811023622
11
1.741929842519685
21
0.6031266929133858
0
LINE
8
BLACK
6
CONTINUOUS
10
1.741929842519685
20
0.6031266929133858
11
1.739331968503937
21
0.6083224015748031
0
LINE
8
BLACK
6
CONTINUOUS
10
1.739331968503937
20
0.6083224015748031
11
1.7342532283464567
21
0.6134011417322834
0
LINE
8
BLACK
6
CONTINUOUS
10
1.7342532283464567
20
0.6134011417322834
11
1.7260600787401574
21
0.6188632283464567
0
LINE
8
BLACK
6
CONTINUOUS
10
1.7260600787401574
20
0.6188632283464567
11
1.7260584251968503
21
0.6188645669291338
0
LINE
8
BLACK
6
CONTINUOUS
10
1.7260584251968503
20
0.6188645669291338
11
1.7260574803149606
21
0.6188649606299212
0
LINE
8
BLACK
6
CONTINUOUS
10
1.7260574803149606
20
0.6188649606299212
11
1.7260552755905512
21
0.6188671653543307
0
LINE
8
BLACK
6
CONTINUOUS
10
1.7260552755905512
20
0.6188671653543307
11
1.7256122047244093
21
0.6192299999999999
0
LINE
8
BLACK
6
CONTINUOUS
10
1.7256122047244093
20
0.6192299999999999
11
1.7254495275590551
21
0.6194729133858268
0
LINE
8
BLACK
6
CONTINUOUS
10
1.7254495275590551
20
0.6194729133858268
11
1.7252428346456692
21
0.6196796062992126
0
LINE
8
BLACK
6
CONTINUOUS
10
1.7252428346456692
20
0.6196796062992126
11
1.7251320866141733
21
0.6199469291338583
0
LINE
8
BLACK
6
CONTINUOUS
10
1.7251320866141733
20
0.6199469291338583
11
1.7249711417322835
21
0.6201872834645669
0
LINE
8
BLACK
6
CONTINUOUS
10
1.7249711417322835
20
0.6201872834645669
11
1.7249137795275591
21
0.620473937007874
0
LINE
8
BLACK
6
CONTINUOUS
10
1.7249137795275591
20
0.620473937007874
11
1.7248019291338583
21
0.6207440157480315
0
LINE
8
BLACK
6
CONTINUOUS
10
1.7248019291338583
20
0.6207440157480315
11
1.7248019291338583
21
0.6210333464566929
0
LINE
8
BLACK
6
CONTINUOUS
10
1.7248019291338583
20
0.6210333464566929
11
1.7247451968503937
21
0.621316968503937
0
LINE
8
BLACK
6
CONTINUOUS
10
1.7247451968503937
20
0.621316968503937
11
1.7248019291338583
21
0.6216037795275591
0
LINE
8
BLACK
6
CONTINUOUS
10
1.7248019291338583
20
0.6216037795275591
11
1.7248019291338583
21
0.6218961417322835
0
LINE
8
BLACK
6
CONTINUOUS
10
1.7248019291338583
20
0.6218961417322835
11
1.7249126377952755
21
0.6221634251968504
0
LINE
8
BLACK
6
CONTINUOUS
10
1.7249126377952755
20
0.6221634251968504
11
1.724968779527559
21
0.6224472047244094
0
LINE
8
BLACK
6
CONTINUOUS
10
1.724968779527559
20
0.6224472047244094
11
1.7251309448818897
21
0.6226904724409449
0
LINE
8
BLACK
6
CONTINUOUS
10
1.7251309448818897
20
0.6226904724409449
11
1.7252428346456692
21
0.6229605511811024
0
LINE
8
BLACK
6
CONTINUOUS
10
1.7252428346456692
20
0.6229605511811024
11
1.7254473622047244
21
0.6231651181102362
0
LINE
8
BLACK
6
CONTINUOUS
10
1.7254473622047244
20
0.6231651181102362
11
1.7256078740157479
21
0.6234058267716536
0
LINE
8
BLACK
6
CONTINUOUS
10
1.7256078740157479
20
0.6234058267716536
11
1.725850748031496
21
0.6235685039370079
0
LINE
8
BLACK
6
CONTINUOUS
10
1.725850748031496
20
0.6235685039370079
11
1.7260574803149606
21
0.6237751968503937
0
LINE
8
BLACK
6
CONTINUOUS
10
1.7260574803149606
20
0.6237751968503937
11
1.7263247637795276
21
0.6238859448818898
0
LINE
8
BLACK
6
CONTINUOUS
10
1.7263247637795276
20
0.6238859448818898
11
1.7265651574803149
21
0.6240468897637795
0
LINE
8
BLACK
6
CONTINUOUS
10
1.7265651574803149
20
0.6240468897637795
11
1.7268517716535432
21
0.6241042519685039
0
LINE
8
BLACK
6
CONTINUOUS
10
1.7268517716535432
20
0.6241042519685039
11
1.7271218897637794
21
0.6242161023622047
0
LINE
8
BLACK
6
CONTINUOUS
10
1.7271218897637794
20
0.6242161023622047
11
1.7276918110236219
21
0.6242722440944882
0
LINE
8
BLACK
6
CONTINUOUS
10
1.7276918110236219
20
0.6242722440944882
11
1.727694842519685
21
0.6242728346456693
0
LINE
8
BLACK
6
CONTINUOUS
10
1.727694842519685
20
0.6242728346456693
11
1.7276958661417323
21
0.6242726377952755
0
LINE
8
BLACK
6
CONTINUOUS
10
1.7276958661417323
20
0.6242726377952755
11
1.7276979527559055
21
0.6242728346456693
0
LINE
8
BLACK
6
CONTINUOUS
10
1.7276979527559055
20
0.6242728346456693
11
1.7838003149606299
21
0.6242728346456693
0
LINE
8
BLACK
6
CONTINUOUS
10
1.7838003149606299
20
0.6242728346456693
11
1.7838003149606299
21
0.6381929921259842
0
LINE
8
BLACK
6
CONTINUOUS
10
1.7838003149606299
20
0.6381929921259842
11
1.7838570472440944
21
0.6387690551181102
0
LINE
8
BLACK
6
CONTINUOUS
10
1.7838570472440944
20
0.6387690551181102
11
1.7842979527559055
21
0.6398334645669291
0
LINE
8
BLACK
6
CONTINUOUS
10
1.7842979527559055
20
0.6398334645669291
11
1.7851125984251968
21
0.6406481102362205
0
LINE
8
BLACK
6
CONTINUOUS
10
1.7851125984251968
20
0.6406481102362205
11
1.7861770078740158
21
0.6410890157480315
0
LINE
8
BLACK
6
CONTINUOUS
10
1.7861770078740158
20
0.6410890157480315
11
1.7873291338582677
21
0.6410890157480315
0
LINE
8
BLACK
6
CONTINUOUS
10
1.7873291338582677
20
0.6410890157480315
11
1.7883935433070866
21
0.6406481102362205
0
LINE
8
BLACK
6
CONTINUOUS
10
1.5995288188976378
20
0.7395141732283464
11
1.6005932283464566
21
0.7390732677165354
0
LINE
8
BLACK
6
CONTINUOUS
10
1.6005932283464566
20
0.7390732677165354
11
1.601407874015748
21
0.7382586220472441
0
LINE
8
BLACK
6
CONTINUOUS
10
1.601407874015748
20
0.7382586220472441
11
1.6018487795275591
21
0.7371942125984252
0
LINE
8
BLACK
6
CONTINUOUS
10
1.6018487795275591
20
0.7371942125984252
11
1.6018487795275591
21
0.7360420866141733
0
LINE
8
BLACK
6
CONTINUOUS
10
1.6018487795275591
20
0.7360420866141733
11
1.601407874015748
21
0.7349776771653543
0
LINE
8
BLACK
6
CONTINUOUS
10
1.601407874015748
20
0.7349776771653543
11
1.6005932283464566
21
0.734163031496063
0
LINE
8
BLACK
6
CONTINUOUS
10
1.6005932283464566
20
0.734163031496063
11
1.5995288188976378
21
0.7337221259842519
0
LINE
8
BLACK
6
CONTINUOUS
10
1.5995288188976378
20
0.7337221259842519
11
1.5989527559055117
21
0.7336653937007874
0
LINE
8
BLACK
6
CONTINUOUS
10
1.5989527559055117
20
0.7336653937007874
11
1.5189527559055118
21
0.7336653937007874
0
LINE
8
BLACK
6
CONTINUOUS
10
1.5189527559055118
20
0.7336653937007874
11
1.5183766929133857
21
0.7337221259842519
0
LINE
8
BLACK
6
CONTINUOUS
10
1.5183766929133857
20
0.7337221259842519
11
1.5173122834645669
21
0.734163031496063
0
LINE
8
BLACK
6
CONTINUOUS
10
1.5173122834645669
20
0.734163031496063
11
1.5164976377952755
21
0.7349776771653543
0
LINE
8
BLACK
6
CONTINUOUS
10
1.5164976377952755
20
0.7349776771653543
11
1.5160567322834646
21
0.7360420866141733
0
LINE
8
BLACK
6
CONTINUOUS
10
1.5160567322834646
20
0.7360420866141733
11
1.5160567322834646
21
0.7371942125984252
0
LINE
8
BLACK
6
CONTINUOUS
10
1.5160567322834646
20
0.7371942125984252
11
1.5164976377952755
21
0.7382586220472441
0
LINE
8
BLACK
6
CONTINUOUS
10
1.5164976377952755
20
0.7382586220472441
11
1.5173122834645669
21
0.7390732677165354
0
LINE
8
BLACK
6
CONTINUOUS
10
1.5173122834645669
20
0.7390732677165354
11
1.5183766929133857
21
0.7395141732283464
0
LINE
8
BLACK
6
CONTINUOUS
10
1.5183766929133857
20
0.7395141732283464
11
1.5189527559055118
21
0.739570905511811
0
LINE
8
BLACK
6
CONTINUOUS
10
1.5189527559055118
20
0.739570905511811
11
1.5989527559055117
21
0.739570905511811
0
LINE
8
BLACK
6
CONTINUOUS
10
1.5989527559055117
20
0.739570905511811
11
1.5995288188976378
21
0.7395141732283464
0
LINE
8
BLACK
6
CONTINUOUS
10
0.916576062992126
20
1.5118960236220471
11
0.9176404724409448
21
1.5114551181102363
0
LINE
8
BLACK
6
CONTINUOUS
10
0.9176404724409448
20
1.5114551181102363
11
0.9184551181102362
21
1.5106404724409448
0
LINE
8
BLACK
6
CONTINUOUS
10
0.9184551181102362
20
1.5106404724409448
11
0.9188960236220473
21
1.509576062992126
0
LINE
8
BLACK
6
CONTINUOUS
10
0.9188960236220473
20
1.509576062992126
11
0.9189527559055118
21
1.5089999999999999
0
LINE
8
BLACK
6
CONTINUOUS
10
0.9189527559055118
20
1.5089999999999999
11
0.9189527559055118
21
1.3089999999999999
0
LINE
8
BLACK
6
CONTINUOUS
10
0.9189527559055118
20
1.3089999999999999
11
0.9188960236220473
21
1.3084239370078741
0
LINE
8
BLACK
6
CONTINUOUS
10
0.9188960236220473
20
1.3084239370078741
11
0.9184551181102362
21
1.307359527559055
0
LINE
8
BLACK
6
CONTINUOUS
10
0.9184551181102362
20
1.307359527559055
11
0.9176404724409448
21
1.3065448818897638
0
LINE
8
BLACK
6
CONTINUOUS
10
0.9176404724409448
20
1.3065448818897638
11
0.916576062992126
21
1.3061039763779527
0
LINE
8
BLACK
6
CONTINUOUS
10
0.916576062992126
20
1.3061039763779527
11
0.9159999999999999
21
1.3060472440944881
0
LINE
8
BLACK
6
CONTINUOUS
10
0.9159999999999999
20
1.3060472440944881
11
0.616
21
1.3060472440944881
0
LINE
8
BLACK
6
CONTINUOUS
10
0.616
20
1.3060472440944881
11
0.615423937007874
21
1.3061039763779527
0
LINE
8
BLACK
6
CONTINUOUS
10
0.615423937007874
20
1.3061039763779527
11
0.6143595275590551
21
1.3065448818897638
0
LINE
8
BLACK
6
CONTINUOUS
10
0.6143595275590551
20
1.3065448818897638
11
0.6135448818897637
21
1.307359527559055
0
LINE
8
BLACK
6
CONTINUOUS
10
0.6135448818897637
20
1.307359527559055
11
0.6131039763779528
21
1.3084239370078741
0
LINE
8
BLACK
6
CONTINUOUS
10
0.6131039763779528
20
1.3084239370078741
11
0.6130472440944882
21
1.3089999999999999
0
LINE
8
BLACK
6
CONTINUOUS
10
0.6130472440944882
20
1.3089999999999999
11
0.6130472440944882
21
1.5089999999999999
0
LINE
8
BLACK
6
CONTINUOUS
10
0.6130472440944882
20
1.5089999999999999
11
0.6131039763779528
21
1.509576062992126
0
LINE
8
BLACK
6
CONTINUOUS
10
0.6131039763779528
20
1.509576062992126
11
0.6135448818897637
21
1.5106404724409448
0
LINE
8
BLACK
6
CONTINUOUS
10
0.6135448818897637
20
1.5106404724409448
11
0.6143595275590551
21
1.5114551181102363
0
LINE
8
BLACK
6
CONTINUOUS
10
0.6143595275590551
20
1.5114551181102363
11
0.615423937007874
21
1.5118960236220471
0
LINE
8
BLACK
6
CONTINUOUS
10
0.615423937007874
20
1.5118960236220471
11
0.616
21
1.5119527559055117
0
LINE
8
BLACK
6
CONTINUOUS
10
0.616
20
1.5119527559055117
11
0.9159999999999999
21
1.5119527559055117
0
LINE
8
BLACK
6
CONTINUOUS
10
0.9159999999999999
20
1.5119527559055117
11
0.916576062992126
21
1.5118960236220471
0
LINE
8
BLACK
6
CONTINUOUS
10
0.6189527559055118
20
1.5060472440944881
11
0.6189527559055118
21
1.3119527559055117
0
LINE
8
BLACK
6
CONTINUOUS
10
0.6189527559055118
20
1.3119527559055117
11
0.9130472440944881
21
1.3119527559055117
0
LINE
8
BLACK
6
CONTINUOUS
10
0.9130472440944881
20
1.3119527559055117
11
0.9130472440944881
21
1.5060472440944881
0
LINE
8
BLACK
6
CONTINUOUS
10
0.9130472440944881
20
1.5060472440944881
11
0.6189527559055118
21
1.5060472440944881
0
CIRCLE
8
BLACK
10
1.5589527559055119
20
0.598822874015748
40
0.0068897637795276
0
CIRCLE
8
BLACK
10
1.6589527559055117
20
0.6988228740157481
40
0.0068897637795276
0
CIRCLE
8
BLACK
10
1.4589527559055118
20
0.6988228740157481
40
0.0068897637795276
0
CIRCLE
8
BLACK
10
1.6589527559055117
20
0.498822874015748
40
0.0068897637795276
0
CIRCLE
8
BLACK
10
1.4589527559055118
20
0.498822874015748
40
0.0068897637795276
0
CIRCLE
8
BLACK
10
0.666
20
1.359
40
0.0068897637795276
0
CIRCLE
8
BLACK
10
0.666
20
1.4590000000000001
40
0.0068897637795276
0
CIRCLE
8
BLACK
10
0.766
20
1.3589999606299212
40
0.0068897637795276
0
CIRCLE
8
BLACK
10
0.766
20
1.4590000393700786
40
0.0068897637795276
0
CIRCLE
8
BLACK
10
0.866
20
1.359
40
0.0068897637795276
0
CIRCLE
8
BLACK
10
0.866
20
1.4590000000000001
40
0.0068897637795276
0
CIRCLE
8
BLACK
10
0.4
20
0.4
40
0.0068897637795276
0
CIRCLE
8
BLACK
10
1.5999999999999999
20
1.2
40
0.0068897637795276
0
CIRCLE
8
BLACK
10
1.5999999999999999
20
0.4
40
0.0068897637795276
0
CIRCLE
8
BLACK
10
0.4
20
1.2
40
0.0068897637795276
0
CIRCLE
8
BLACK
10
1.5589527559055119
20
0.598822874015748
40
0.0068897637795276
0
CIRCLE
8
BLACK
10
1.6589527559055117
20
0.6988228740157481
40
0.0068897637795276
0
CIRCLE
8
BLACK
10
1.4589527559055118
20
0.6988228740157481
40
0.0068897637795276
0
CIRCLE
8
BLACK
10
1.6589527559055117
20
0.498822874015748
40
0.0068897637795276
0
CIRCLE
8
BLACK
10
1.4589527559055118
20
0.498822874015748
40
0.0068897637795276
0
CIRCLE
8
BLACK
10
0.666
20
1.359
40
0.0068897637795276
0
CIRCLE
8
BLACK
10
0.666
20
1.4590000000000001
40
0.0068897637795276
0
CIRCLE
8
BLACK
10
0.766
20
1.3589999606299212
40
0.0068897637795276
0
CIRCLE
8
BLACK
10
0.766
20
1.4590000393700786
40
0.0068897637795276
0
CIRCLE
8
BLACK
10
0.866
20
1.359
40
0.0068897637795276
0
CIRCLE
8
BLACK
10
0.866
20
1.4590000000000001
40
0.0068897637795276
0
CIRCLE
8
BLACK
10
0.4
20
0.4
40
0.0068897637795276
0
CIRCLE
8
BLACK
10
1.5999999999999999
20
1.2
40
0.0068897637795276
0
CIRCLE
8
BLACK
10
1.5999999999999999
20
0.4
40
0.0068897637795276
0
CIRCLE
8
BLACK
10
0.4
20
1.2
40
0.0068897637795276
  0
ENDSEC
  0
EOF
