  0
SECTION
  2
HEADER
  9
$ANGBASE
  50
0.0
  9
$ANGDIR
  70
1
  9
$MEASUREMENT
  70
0
  0
ENDSEC
  0
SECTION
  2
TABLES
  0
TABLE
  2
LTYPE
  70
4
  0
LTYPE
  5
40F
  2
CONTINUOUS
  70
0
  3
Solid line
  72
65
  73
0
  40
0.0
  0
LTYPE
  5
410
  2
DASHDOT
 70
0
  3
Dash Dot ____ _ ____ _
 72
65
 73
4
 40
2.0
 49
1.25
 49
-0.25
 49
0.25
 49
-0.25
  0
LTYPE
  5
411
  2
DASHED
 70
0
  3
Dashed __ __ __ __ __
 72
65
 73
2
 40
0.75
 49
0.5
 49
-0.25
  0
LTYPE
  5
43B
  2
DOTTED
 70
0
  3
Dotted .  .  .  .
 72
65
 73
2
 40
0.2
 49
0.0
 49
-0.2
  0
ENDTAB
  0
TABLE
  2
STYLE
  70
4
  0
STYLE
  2
KICAD
  70
0
  40
0
  41
1
  42
1
  50
0
  71
0
  3
isocp.shx
  0
STYLE
  2
KICADB
  70
0
  40
0
  41
1
  42
1
  50
0
  71
0
  3
isocp.shx
  0
STYLE
  2
KICADI
  70
0
  40
0
  41
1
  42
1
  50
15
  71
0
  3
isocp.shx
  0
STYLE
  2
KICADBI
  70
0
  40
0
  41
1
  42
1
  50
15
  71
0
  3
isocp.shx
  0
ENDTAB
  0
TABLE
  2
LAYER
  70
1
  0
LAYER
  2
BLACK
  70
0
  62
7
  6
CONTINUOUS
  0
ENDTAB
  0
ENDSEC
  0
SECTION
  2
ENTITIES
0
LINE
8
BLACK
6
CONTINUOUS
10
0.3858267716535433
20
1.0433543307086615
11
0.389780748031496
21
1.0427280708661417
0
LINE
8
BLACK
6
CONTINUOUS
10
0.389780748031496
20
1.0427280708661417
11
0.3933476377952756
21
1.0409106692913386
0
LINE
8
BLACK
6
CONTINUOUS
10
0.3933476377952756
20
1.0409106692913386
11
0.3961783858267716
21
1.0380799212598424
0
LINE
8
BLACK
6
CONTINUOUS
10
0.3961783858267716
20
1.0380799212598424
11
0.3979957874015748
21
1.0345130314960629
0
LINE
8
BLACK
6
CONTINUOUS
10
0.3979957874015748
20
1.0345130314960629
11
0.3986220472440945
21
1.0305590551181103
0
LINE
8
BLACK
6
CONTINUOUS
10
0.3986220472440945
20
1.0305590551181103
11
0.3986220472440945
21
0.9754409448818897
0
LINE
8
BLACK
6
CONTINUOUS
10
0.3986220472440945
20
0.9754409448818897
11
0.3979957874015748
21
0.971486968503937
0
LINE
8
BLACK
6
CONTINUOUS
10
0.3979957874015748
20
0.971486968503937
11
0.3961783858267716
21
0.9679200787401575
0
LINE
8
BLACK
6
CONTINUOUS
10
0.3961783858267716
20
0.9679200787401575
11
0.3933476377952756
21
0.9650893307086614
0
LINE
8
BLACK
6
CONTINUOUS
10
0.3933476377952756
20
0.9650893307086614
11
0.389780748031496
21
0.9632719291338583
0
LINE
8
BLACK
6
CONTINUOUS
10
0.389780748031496
20
0.9632719291338583
11
0.3858267716535433
21
0.9626456692913385
0
LINE
8
BLACK
6
CONTINUOUS
10
0.3858267716535433
20
0.9626456692913385
11
0.3228346456692913
21
0.9626456692913385
0
LINE
8
BLACK
6
CONTINUOUS
10
0.3228346456692913
20
0.9626456692913385
11
0.3188806692913386
21
0.9632719291338583
0
LINE
8
BLACK
6
CONTINUOUS
10
0.3188806692913386
20
0.9632719291338583
11
0.3153137795275591
21
0.9650893307086614
0
LINE
8
BLACK
6
CONTINUOUS
10
0.3153137795275591
20
0.9650893307086614
11
0.312483031496063
21
0.9679200787401575
0
LINE
8
BLACK
6
CONTINUOUS
10
0.312483031496063
20
0.9679200787401575
11
0.3106656299212598
21
0.971486968503937
0
LINE
8
BLACK
6
CONTINUOUS
10
0.3106656299212598
20
0.971486968503937
11
0.3100393700787402
21
0.9754409448818897
0
LINE
8
BLACK
6
CONTINUOUS
10
0.3100393700787402
20
0.9754409448818897
11
0.3100393700787402
21
1.0305590551181103
0
LINE
8
BLACK
6
CONTINUOUS
10
0.3100393700787402
20
1.0305590551181103
11
0.3106656299212598
21
1.0345130314960629
0
LINE
8
BLACK
6
CONTINUOUS
10
0.3106656299212598
20
1.0345130314960629
11
0.312483031496063
21
1.0380799212598424
0
LINE
8
BLACK
6
CONTINUOUS
10
0.312483031496063
20
1.0380799212598424
11
0.3153137795275591
21
1.0409106692913386
0
LINE
8
BLACK
6
CONTINUOUS
10
0.3153137795275591
20
1.0409106692913386
11
0.3188806692913386
21
1.0427280708661417
0
LINE
8
BLACK
6
CONTINUOUS
10
0.3188806692913386
20
1.0427280708661417
11
0.3228346456692913
21
1.0433543307086615
0
LINE
8
BLACK
6
CONTINUOUS
10
0.3228346456692913
20
1.0433543307086615
11
0.3858267716535433
21
1.0433543307086615
0
LINE
8
BLACK
6
CONTINUOUS
10
0.3228346456692913
20
1.0413858267716536
11
0.321119842519685
21
1.0413858267716536
0
LINE
8
BLACK
6
CONTINUOUS
10
0.321119842519685
20
1.0413858267716536
11
0.3178581102362205
21
1.0403260236220473
0
LINE
8
BLACK
6
CONTINUOUS
10
0.3178581102362205
20
1.0403260236220473
11
0.3150835433070866
21
1.0383101574803149
0
LINE
8
BLACK
6
CONTINUOUS
10
0.3150835433070866
20
1.0383101574803149
11
0.3130676771653543
21
1.0355355905511812
0
LINE
8
BLACK
6
CONTINUOUS
10
0.3130676771653543
20
1.0355355905511812
11
0.312007874015748
21
1.0322738582677164
0
LINE
8
BLACK
6
CONTINUOUS
10
0.312007874015748
20
1.0322738582677164
11
0.312007874015748
21
1.0305590551181103
0
LINE
8
BLACK
6
CONTINUOUS
10
0.312007874015748
20
1.0305590551181103
11
0.312007874015748
21
0.9754409448818897
0
LINE
8
BLACK
6
CONTINUOUS
10
0.312007874015748
20
0.9754409448818897
11
0.312007874015748
21
0.9737261417322834
0
LINE
8
BLACK
6
CONTINUOUS
10
0.312007874015748
20
0.9737261417322834
11
0.3130676771653543
21
0.9704644094488188
0
LINE
8
BLACK
6
CONTINUOUS
10
0.3130676771653543
20
0.9704644094488188
11
0.3150835433070866
21
0.967689842519685
0
LINE
8
BLACK
6
CONTINUOUS
10
0.3150835433070866
20
0.967689842519685
11
0.3178581102362205
21
0.9656739763779527
0
LINE
8
BLACK
6
CONTINUOUS
10
0.3178581102362205
20
0.9656739763779527
11
0.321119842519685
21
0.9646141732283464
0
LINE
8
BLACK
6
CONTINUOUS
10
0.321119842519685
20
0.9646141732283464
11
0.3228346456692913
21
0.9646141732283464
0
LINE
8
BLACK
6
CONTINUOUS
10
0.3228346456692913
20
0.9646141732283464
11
0.3858267716535433
21
0.9646141732283464
0
LINE
8
BLACK
6
CONTINUOUS
10
0.3858267716535433
20
0.9646141732283464
11
0.3875415748031496
21
0.9646141732283464
0
LINE
8
BLACK
6
CONTINUOUS
10
0.3875415748031496
20
0.9646141732283464
11
0.3908033070866141
21
0.9656739763779527
0
LINE
8
BLACK
6
CONTINUOUS
10
0.3908033070866141
20
0.9656739763779527
11
0.393577874015748
21
0.967689842519685
0
LINE
8
BLACK
6
CONTINUOUS
10
0.393577874015748
20
0.967689842519685
11
0.3955937401574803
21
0.9704644094488188
0
LINE
8
BLACK
6
CONTINUOUS
10
0.3955937401574803
20
0.9704644094488188
11
0.3966535433070866
21
0.9737261417322834
0
LINE
8
BLACK
6
CONTINUOUS
10
0.3966535433070866
20
0.9737261417322834
11
0.3966535433070866
21
0.9754409448818897
0
LINE
8
BLACK
6
CONTINUOUS
10
0.3966535433070866
20
0.9754409448818897
11
0.3966535433070866
21
1.0305590551181103
0
LINE
8
BLACK
6
CONTINUOUS
10
0.3966535433070866
20
1.0305590551181103
11
0.3966535433070866
21
1.0322738582677164
0
LINE
8
BLACK
6
CONTINUOUS
10
0.3966535433070866
20
1.0322738582677164
11
0.3955937401574803
21
1.0355355905511812
0
LINE
8
BLACK
6
CONTINUOUS
10
0.3955937401574803
20
1.0355355905511812
11
0.393577874015748
21
1.0383101574803149
0
LINE
8
BLACK
6
CONTINUOUS
10
0.393577874015748
20
1.0383101574803149
11
0.3908033070866141
21
1.0403260236220473
0
LINE
8
BLACK
6
CONTINUOUS
10
0.3908033070866141
20
1.0403260236220473
11
0.3875415748031496
21
1.0413858267716536
0
LINE
8
BLACK
6
CONTINUOUS
10
0.3875415748031496
20
1.0413858267716536
11
0.3858267716535433
21
1.0413858267716536
0
LINE
8
BLACK
6
CONTINUOUS
10
0.3858267716535433
20
1.0413858267716536
11
0.3228346456692913
21
1.0413858267716536
0
LINE
8
BLACK
6
CONTINUOUS
10
1.7905760629921259
20
1.3928960236220471
11
1.7916404724409449
21
1.3924551181102363
0
LINE
8
BLACK
6
CONTINUOUS
10
1.7916404724409449
20
1.3924551181102363
11
1.7924551181102362
21
1.3916404724409448
0
LINE
8
BLACK
6
CONTINUOUS
10
1.7924551181102362
20
1.3916404724409448
11
1.7928960236220473
21
1.390576062992126
0
LINE
8
BLACK
6
CONTINUOUS
10
1.7928960236220473
20
1.390576062992126
11
1.7929527559055118
21
1.3899999999999999
0
LINE
8
BLACK
6
CONTINUOUS
10
1.7929527559055118
20
1.3899999999999999
11
1.7929527559055118
21
0.21
0
LINE
8
BLACK
6
CONTINUOUS
10
1.7929527559055118
20
0.21
11
1.7928960236220473
21
0.209423937007874
0
LINE
8
BLACK
6
CONTINUOUS
10
1.7928960236220473
20
0.209423937007874
11
1.7924551181102362
21
0.2083595275590551
0
LINE
8
BLACK
6
CONTINUOUS
10
1.7924551181102362
20
0.2083595275590551
11
1.7916404724409449
21
0.2075448818897638
0
LINE
8
BLACK
6
CONTINUOUS
10
1.7916404724409449
20
0.2075448818897638
11
1.7905760629921259
21
0.2071039763779527
0
LINE
8
BLACK
6
CONTINUOUS
10
1.7905760629921259
20
0.2071039763779527
11
1.79
21
0.2070472440944882
0
LINE
8
BLACK
6
CONTINUOUS
10
1.79
20
0.2070472440944882
11
0.21
21
0.2070472440944882
0
LINE
8
BLACK
6
CONTINUOUS
10
0.21
20
0.2070472440944882
11
0.209423937007874
21
0.2071039763779527
0
LINE
8
BLACK
6
CONTINUOUS
10
0.209423937007874
20
0.2071039763779527
11
0.2083595275590551
21
0.2075448818897638
0
LINE
8
BLACK
6
CONTINUOUS
10
0.2083595275590551
20
0.2075448818897638
11
0.2075448818897638
21
0.2083595275590551
0
LINE
8
BLACK
6
CONTINUOUS
10
0.2075448818897638
20
0.2083595275590551
11
0.2071039763779527
21
0.209423937007874
0
LINE
8
BLACK
6
CONTINUOUS
10
0.2071039763779527
20
0.209423937007874
11
0.2070472440944882
21
0.21
0
LINE
8
BLACK
6
CONTINUOUS
10
0.2070472440944882
20
0.21
11
0.2070472440944882
21
1.3899999999999999
0
LINE
8
BLACK
6
CONTINUOUS
10
0.2070472440944882
20
1.3899999999999999
11
0.2071039763779527
21
1.390576062992126
0
LINE
8
BLACK
6
CONTINUOUS
10
0.2071039763779527
20
1.390576062992126
11
0.2075448818897638
21
1.3916404724409448
0
LINE
8
BLACK
6
CONTINUOUS
10
0.2075448818897638
20
1.3916404724409448
11
0.2083595275590551
21
1.3924551181102363
0
LINE
8
BLACK
6
CONTINUOUS
10
0.2083595275590551
20
1.3924551181102363
11
0.209423937007874
21
1.3928960236220471
0
LINE
8
BLACK
6
CONTINUOUS
10
0.209423937007874
20
1.3928960236220471
11
0.21
21
1.3929527559055117
0
LINE
8
BLACK
6
CONTINUOUS
10
0.21
20
1.3929527559055117
11
1.79
21
1.3929527559055117
0
LINE
8
BLACK
6
CONTINUOUS
10
1.79
20
1.3929527559055117
11
1.7905760629921259
21
1.3928960236220471
0
LINE
8
BLACK
6
CONTINUOUS
10
0.2129527559055118
20
1.3870472440944881
11
0.2129527559055118
21
0.2129527559055118
0
LINE
8
BLACK
6
CONTINUOUS
10
0.2129527559055118
20
0.2129527559055118
11
1.7870472440944882
21
0.2129527559055118
0
LINE
8
BLACK
6
CONTINUOUS
10
1.7870472440944882
20
0.2129527559055118
11
1.7870472440944882
21
1.3870472440944881
0
LINE
8
BLACK
6
CONTINUOUS
10
1.7870472440944882
20
1.3870472440944881
11
0.2129527559055118
21
1.3870472440944881
0
CIRCLE
8
BLACK
10
0.9129921259842519
20
1.1933070866141733
40
0.0068897637795276
0
CIRCLE
8
BLACK
10
0.9129921259842519
20
1.2933070866141732
40
0.0068897637795276
0
CIRCLE
8
BLACK
10
1.012992125984252
20
1.1933070866141733
40
0.0068897637795276
0
CIRCLE
8
BLACK
10
1.012992125984252
20
1.2933070866141732
40
0.0068897637795276
0
CIRCLE
8
BLACK
10
1.1129921259842519
20
1.1933070866141733
40
0.0068897637795276
0
CIRCLE
8
BLACK
10
1.1129921259842519
20
1.2933070866141732
40
0.0068897637795276
0
CIRCLE
8
BLACK
10
1.212992125984252
20
1.1933070866141733
40
0.0068897637795276
0
CIRCLE
8
BLACK
10
1.212992125984252
20
1.2933070866141732
40
0.0068897637795276
0
CIRCLE
8
BLACK
10
1.6031496062992125
20
0.8200787401574803
40
0.0068897637795276
0
CIRCLE
8
BLACK
10
1.7031496062992126
20
0.9200787401574803
40
0.0068897637795276
0
CIRCLE
8
BLACK
10
1.5031496062992125
20
0.9200787401574803
40
0.0068897637795276
0
CIRCLE
8
BLACK
10
1.7031496062992126
20
0.7200787401574803
40
0.0068897637795276
0
CIRCLE
8
BLACK
10
1.5031496062992125
20
0.7200787401574803
40
0.0068897637795276
0
CIRCLE
8
BLACK
10
0.4
20
0.4
40
0.0068897637795276
0
CIRCLE
8
BLACK
10
1.5999999999999999
20
1.2
40
0.0068897637795276
0
CIRCLE
8
BLACK
10
1.5999999999999999
20
0.4
40
0.0068897637795276
0
CIRCLE
8
BLACK
10
0.4
20
1.2
40
0.0068897637795276
0
CIRCLE
8
BLACK
10
0.3043307086614173
20
0.9070866141732283
40
0.0068897637795276
0
CIRCLE
8
BLACK
10
0.4043307086614173
20
0.9070866141732283
40
0.0068897637795276
0
CIRCLE
8
BLACK
10
0.3043307086614173
20
0.8070866141732284
40
0.0068897637795276
0
CIRCLE
8
BLACK
10
0.4043307086614173
20
0.8070866141732284
40
0.0068897637795276
0
CIRCLE
8
BLACK
10
0.3043307086614173
20
0.7070866141732284
40
0.0068897637795276
0
CIRCLE
8
BLACK
10
0.4043307086614173
20
0.7070866141732284
40
0.0068897637795276
0
CIRCLE
8
BLACK
10
0.9129921259842519
20
0.2989173228346457
40
0.0068897637795276
0
CIRCLE
8
BLACK
10
0.9129921259842519
20
0.3989173228346456
40
0.0068897637795276
0
CIRCLE
8
BLACK
10
1.012992125984252
20
0.2989173228346457
40
0.0068897637795276
0
CIRCLE
8
BLACK
10
1.012992125984252
20
0.3989173228346456
40
0.0068897637795276
0
CIRCLE
8
BLACK
10
1.1129921259842519
20
0.2989173228346457
40
0.0068897637795276
0
CIRCLE
8
BLACK
10
1.1129921259842519
20
0.3989173228346456
40
0.0068897637795276
0
CIRCLE
8
BLACK
10
1.212992125984252
20
0.2989173228346457
40
0.0068897637795276
0
CIRCLE
8
BLACK
10
1.212992125984252
20
0.3989173228346456
40
0.0068897637795276
0
CIRCLE
8
BLACK
10
0.9129921259842519
20
1.1933070866141733
40
0.0068897637795276
0
CIRCLE
8
BLACK
10
0.9129921259842519
20
1.2933070866141732
40
0.0068897637795276
0
CIRCLE
8
BLACK
10
1.012992125984252
20
1.1933070866141733
40
0.0068897637795276
0
CIRCLE
8
BLACK
10
1.012992125984252
20
1.2933070866141732
40
0.0068897637795276
0
CIRCLE
8
BLACK
10
1.1129921259842519
20
1.1933070866141733
40
0.0068897637795276
0
CIRCLE
8
BLACK
10
1.1129921259842519
20
1.2933070866141732
40
0.0068897637795276
0
CIRCLE
8
BLACK
10
1.212992125984252
20
1.1933070866141733
40
0.0068897637795276
0
CIRCLE
8
BLACK
10
1.212992125984252
20
1.2933070866141732
40
0.0068897637795276
0
CIRCLE
8
BLACK
10
1.6031496062992125
20
0.8200787401574803
40
0.0068897637795276
0
CIRCLE
8
BLACK
10
1.7031496062992126
20
0.9200787401574803
40
0.0068897637795276
0
CIRCLE
8
BLACK
10
1.5031496062992125
20
0.9200787401574803
40
0.0068897637795276
0
CIRCLE
8
BLACK
10
1.7031496062992126
20
0.7200787401574803
40
0.0068897637795276
0
CIRCLE
8
BLACK
10
1.5031496062992125
20
0.7200787401574803
40
0.0068897637795276
0
CIRCLE
8
BLACK
10
0.4
20
0.4
40
0.0068897637795276
0
CIRCLE
8
BLACK
10
1.5999999999999999
20
1.2
40
0.0068897637795276
0
CIRCLE
8
BLACK
10
1.5999999999999999
20
0.4
40
0.0068897637795276
0
CIRCLE
8
BLACK
10
0.4
20
1.2
40
0.0068897637795276
0
CIRCLE
8
BLACK
10
0.3043307086614173
20
0.9070866141732283
40
0.0068897637795276
0
CIRCLE
8
BLACK
10
0.4043307086614173
20
0.9070866141732283
40
0.0068897637795276
0
CIRCLE
8
BLACK
10
0.3043307086614173
20
0.8070866141732284
40
0.0068897637795276
0
CIRCLE
8
BLACK
10
0.4043307086614173
20
0.8070866141732284
40
0.0068897637795276
0
CIRCLE
8
BLACK
10
0.3043307086614173
20
0.7070866141732284
40
0.0068897637795276
0
CIRCLE
8
BLACK
10
0.4043307086614173
20
0.7070866141732284
40
0.0068897637795276
0
CIRCLE
8
BLACK
10
0.9129921259842519
20
0.2989173228346457
40
0.0068897637795276
0
CIRCLE
8
BLACK
10
0.9129921259842519
20
0.3989173228346456
40
0.0068897637795276
0
CIRCLE
8
BLACK
10
1.012992125984252
20
0.2989173228346457
40
0.0068897637795276
0
CIRCLE
8
BLACK
10
1.012992125984252
20
0.3989173228346456
40
0.0068897637795276
0
CIRCLE
8
BLACK
10
1.1129921259842519
20
0.2989173228346457
40
0.0068897637795276
0
CIRCLE
8
BLACK
10
1.1129921259842519
20
0.3989173228346456
40
0.0068897637795276
0
CIRCLE
8
BLACK
10
1.212992125984252
20
0.2989173228346457
40
0.0068897637795276
0
CIRCLE
8
BLACK
10
1.212992125984252
20
0.3989173228346456
40
0.0068897637795276
  0
ENDSEC
  0
EOF
