  0
SECTION
  2
HEADER
  9
$ANGBASE
  50
0.0
  9
$ANGDIR
  70
1
  9
$MEASUREMENT
  70
0
  0
ENDSEC
  0
SECTION
  2
TABLES
  0
TABLE
  2
LTYPE
  70
4
  0
LTYPE
  5
40F
  2
CONTINUOUS
  70
0
  3
Solid line
  72
65
  73
0
  40
0.0
  0
LTYPE
  5
410
  2
DASHDOT
 70
0
  3
Dash Dot ____ _ ____ _
 72
65
 73
4
 40
2.0
 49
1.25
 49
-0.25
 49
0.25
 49
-0.25
  0
LTYPE
  5
411
  2
DASHED
 70
0
  3
Dashed __ __ __ __ __
 72
65
 73
2
 40
0.75
 49
0.5
 49
-0.25
  0
LTYPE
  5
43B
  2
DOTTED
 70
0
  3
Dotted .  .  .  .
 72
65
 73
2
 40
0.2
 49
0.0
 49
-0.2
  0
ENDTAB
  0
TABLE
  2
STYLE
  70
4
  0
STYLE
  2
KICAD
  70
0
  40
0
  41
1
  42
1
  50
0
  71
0
  3
isocp.shx
  0
STYLE
  2
KICADB
  70
0
  40
0
  41
1
  42
1
  50
0
  71
0
  3
isocp.shx
  0
STYLE
  2
KICADI
  70
0
  40
0
  41
1
  42
1
  50
15
  71
0
  3
isocp.shx
  0
STYLE
  2
KICADBI
  70
0
  40
0
  41
1
  42
1
  50
15
  71
0
  3
isocp.shx
  0
ENDTAB
  0
TABLE
  2
LAYER
  70
1
  0
LAYER
  2
BLACK
  70
0
  62
7
  6
CONTINUOUS
  0
ENDTAB
  0
ENDSEC
  0
SECTION
  2
ENTITIES
0
LINE
8
BLACK
6
CONTINUOUS
10
0.9385656299212598
20
0.5690195669291338
11
0.9390983070866141
21
0.5684868897637795
0
LINE
8
BLACK
6
CONTINUOUS
10
0.9390983070866141
20
0.5684868897637795
11
0.9391732283464567
21
0.5681102362204724
0
LINE
8
BLACK
6
CONTINUOUS
10
0.9391732283464567
20
0.5681102362204724
11
0.9391732283464567
21
0.5106299212598425
0
LINE
8
BLACK
6
CONTINUOUS
10
0.9391732283464567
20
0.5106299212598425
11
0.9390983070866141
21
0.5102532677165355
0
LINE
8
BLACK
6
CONTINUOUS
10
0.9390983070866141
20
0.5102532677165355
11
0.9385656299212598
21
0.5097205905511811
0
LINE
8
BLACK
6
CONTINUOUS
10
0.9385656299212598
20
0.5097205905511811
11
0.9381889763779527
21
0.5096456692913386
0
LINE
8
BLACK
6
CONTINUOUS
10
0.9381889763779527
20
0.5096456692913386
11
0.8316929133858267
21
0.5096456692913386
0
LINE
8
BLACK
6
CONTINUOUS
10
0.8316929133858267
20
0.5096456692913386
11
0.8316929133858267
21
0.3169291338582677
0
LINE
8
BLACK
6
CONTINUOUS
10
0.8316929133858267
20
0.3169291338582677
11
0.8316179921259842
21
0.3165524803149606
0
LINE
8
BLACK
6
CONTINUOUS
10
0.8316179921259842
20
0.3165524803149606
11
0.8310853149606299
21
0.3160198031496063
0
LINE
8
BLACK
6
CONTINUOUS
10
0.8310853149606299
20
0.3160198031496063
11
0.8307086614173228
21
0.3159448818897638
0
LINE
8
BLACK
6
CONTINUOUS
10
0.8307086614173228
20
0.3159448818897638
11
0.8179133858267716
21
0.3159448818897638
0
LINE
8
BLACK
6
CONTINUOUS
10
0.8179133858267716
20
0.3159448818897638
11
0.8179133858267716
21
0.2618110236220472
0
LINE
8
BLACK
6
CONTINUOUS
10
0.8179133858267716
20
0.2618110236220472
11
0.8178384645669291
21
0.2614343700787402
0
LINE
8
BLACK
6
CONTINUOUS
10
0.8178384645669291
20
0.2614343700787402
11
0.8173057874015748
21
0.2609016929133858
0
LINE
8
BLACK
6
CONTINUOUS
10
0.8173057874015748
20
0.2609016929133858
11
0.8169291338582677
21
0.2608267716535433
0
LINE
8
BLACK
6
CONTINUOUS
10
0.8169291338582677
20
0.2608267716535433
11
0.6279527559055118
21
0.2608267716535433
0
LINE
8
BLACK
6
CONTINUOUS
10
0.6279527559055118
20
0.2608267716535433
11
0.6275761023622047
21
0.2609016929133858
0
LINE
8
BLACK
6
CONTINUOUS
10
0.6275761023622047
20
0.2609016929133858
11
0.6270434251968504
21
0.2614343700787402
0
LINE
8
BLACK
6
CONTINUOUS
10
0.6270434251968504
20
0.2614343700787402
11
0.6269685039370079
21
0.2618110236220472
0
LINE
8
BLACK
6
CONTINUOUS
10
0.6269685039370079
20
0.2618110236220472
11
0.6269685039370079
21
0.3159448818897638
0
LINE
8
BLACK
6
CONTINUOUS
10
0.6269685039370079
20
0.3159448818897638
11
0.6141732283464567
21
0.3159448818897638
0
LINE
8
BLACK
6
CONTINUOUS
10
0.6141732283464567
20
0.3159448818897638
11
0.6137965748031496
21
0.3160198031496063
0
LINE
8
BLACK
6
CONTINUOUS
10
0.6137965748031496
20
0.3160198031496063
11
0.6132638976377952
21
0.3165524803149606
0
LINE
8
BLACK
6
CONTINUOUS
10
0.6132638976377952
20
0.3165524803149606
11
0.6131889763779528
21
0.3169291338582677
0
LINE
8
BLACK
6
CONTINUOUS
10
0.6131889763779528
20
0.3169291338582677
11
0.6131889763779528
21
0.5098425196850394
0
LINE
8
BLACK
6
CONTINUOUS
10
0.6131889763779528
20
0.5098425196850394
11
0.6132638976377952
21
0.5102191732283464
0
LINE
8
BLACK
6
CONTINUOUS
10
0.6132638976377952
20
0.5102191732283464
11
0.6137965748031496
21
0.5107518503937007
0
LINE
8
BLACK
6
CONTINUOUS
10
0.6137965748031496
20
0.5107518503937007
11
0.6141732283464567
21
0.5108267716535433
0
LINE
8
BLACK
6
CONTINUOUS
10
0.6141732283464567
20
0.5108267716535433
11
0.6269685039370079
21
0.5108267716535433
0
LINE
8
BLACK
6
CONTINUOUS
10
0.6269685039370079
20
0.5108267716535433
11
0.6269685039370079
21
0.5649606299212598
0
LINE
8
BLACK
6
CONTINUOUS
10
0.6269685039370079
20
0.5649606299212598
11
0.6270434251968504
21
0.5653372834645669
0
LINE
8
BLACK
6
CONTINUOUS
10
0.6270434251968504
20
0.5653372834645669
11
0.6275761023622047
21
0.5658699606299212
0
LINE
8
BLACK
6
CONTINUOUS
10
0.6275761023622047
20
0.5658699606299212
11
0.6279527559055118
21
0.5659448818897638
0
LINE
8
BLACK
6
CONTINUOUS
10
0.6279527559055118
20
0.5659448818897638
11
0.8169291338582677
21
0.5659448818897638
0
LINE
8
BLACK
6
CONTINUOUS
10
0.8169291338582677
20
0.5659448818897638
11
0.8173057874015748
21
0.5658699606299212
0
LINE
8
BLACK
6
CONTINUOUS
10
0.8173057874015748
20
0.5658699606299212
11
0.8178384645669291
21
0.5653372834645669
0
LINE
8
BLACK
6
CONTINUOUS
10
0.8178384645669291
20
0.5653372834645669
11
0.8179133858267716
21
0.5649606299212598
0
LINE
8
BLACK
6
CONTINUOUS
10
0.8179133858267716
20
0.5649606299212598
11
0.8179133858267716
21
0.5108267716535433
0
LINE
8
BLACK
6
CONTINUOUS
10
0.8179133858267716
20
0.5108267716535433
11
0.8206692913385827
21
0.5108267716535433
0
LINE
8
BLACK
6
CONTINUOUS
10
0.8206692913385827
20
0.5108267716535433
11
0.8206692913385827
21
0.5681102362204724
0
LINE
8
BLACK
6
CONTINUOUS
10
0.8206692913385827
20
0.5681102362204724
11
0.8207442125984252
21
0.5684868897637795
0
LINE
8
BLACK
6
CONTINUOUS
10
0.8207442125984252
20
0.5684868897637795
11
0.8212768897637795
21
0.5690195669291338
0
LINE
8
BLACK
6
CONTINUOUS
10
0.8212768897637795
20
0.5690195669291338
11
0.8216535433070866
21
0.5690944881889763
0
LINE
8
BLACK
6
CONTINUOUS
10
0.8216535433070866
20
0.5690944881889763
11
0.9381889763779527
21
0.5690944881889763
0
LINE
8
BLACK
6
CONTINUOUS
10
0.9381889763779527
20
0.5690944881889763
11
0.9385656299212598
21
0.5690195669291338
0
LINE
8
BLACK
6
CONTINUOUS
10
0.6289370078740157
20
0.5639763779527559
11
0.6289370078740157
21
0.5098425196850394
0
LINE
8
BLACK
6
CONTINUOUS
10
0.6289370078740157
20
0.5098425196850394
11
0.6288620866141732
21
0.5094658661417323
0
LINE
8
BLACK
6
CONTINUOUS
10
0.6288620866141732
20
0.5094658661417323
11
0.6283294094488189
21
0.508933188976378
0
LINE
8
BLACK
6
CONTINUOUS
10
0.6283294094488189
20
0.508933188976378
11
0.6279527559055118
21
0.5088582677165354
0
LINE
8
BLACK
6
CONTINUOUS
10
0.6279527559055118
20
0.5088582677165354
11
0.6151574803149606
21
0.5088582677165354
0
LINE
8
BLACK
6
CONTINUOUS
10
0.6151574803149606
20
0.5088582677165354
11
0.6151574803149606
21
0.3179133858267716
0
LINE
8
BLACK
6
CONTINUOUS
10
0.6151574803149606
20
0.3179133858267716
11
0.6279527559055118
21
0.3179133858267716
0
LINE
8
BLACK
6
CONTINUOUS
10
0.6279527559055118
20
0.3179133858267716
11
0.6283294094488189
21
0.3178384645669291
0
LINE
8
BLACK
6
CONTINUOUS
10
0.6283294094488189
20
0.3178384645669291
11
0.6288620866141732
21
0.3173057874015748
0
LINE
8
BLACK
6
CONTINUOUS
10
0.6288620866141732
20
0.3173057874015748
11
0.6289370078740157
21
0.3169291338582677
0
LINE
8
BLACK
6
CONTINUOUS
10
0.6289370078740157
20
0.3169291338582677
11
0.6289370078740157
21
0.2627952755905512
0
LINE
8
BLACK
6
CONTINUOUS
10
0.6289370078740157
20
0.2627952755905512
11
0.8159448818897638
21
0.2627952755905512
0
LINE
8
BLACK
6
CONTINUOUS
10
0.8159448818897638
20
0.2627952755905512
11
0.8159448818897638
21
0.3169291338582677
0
LINE
8
BLACK
6
CONTINUOUS
10
0.8159448818897638
20
0.3169291338582677
11
0.8160198031496063
21
0.3173057874015748
0
LINE
8
BLACK
6
CONTINUOUS
10
0.8160198031496063
20
0.3173057874015748
11
0.8165524803149606
21
0.3178384645669291
0
LINE
8
BLACK
6
CONTINUOUS
10
0.8165524803149606
20
0.3178384645669291
11
0.8169291338582677
21
0.3179133858267716
0
LINE
8
BLACK
6
CONTINUOUS
10
0.8169291338582677
20
0.3179133858267716
11
0.8297244094488189
21
0.3179133858267716
0
LINE
8
BLACK
6
CONTINUOUS
10
0.8297244094488189
20
0.3179133858267716
11
0.8297244094488189
21
0.5088582677165354
0
LINE
8
BLACK
6
CONTINUOUS
10
0.8297244094488189
20
0.5088582677165354
11
0.8169291338582677
21
0.5088582677165354
0
LINE
8
BLACK
6
CONTINUOUS
10
0.8169291338582677
20
0.5088582677165354
11
0.8165524803149606
21
0.508933188976378
0
LINE
8
BLACK
6
CONTINUOUS
10
0.8165524803149606
20
0.508933188976378
11
0.8160198031496063
21
0.5094658661417323
0
LINE
8
BLACK
6
CONTINUOUS
10
0.8160198031496063
20
0.5094658661417323
11
0.8159448818897638
21
0.5098425196850394
0
LINE
8
BLACK
6
CONTINUOUS
10
0.8159448818897638
20
0.5098425196850394
11
0.8159448818897638
21
0.5639763779527559
0
LINE
8
BLACK
6
CONTINUOUS
10
0.8159448818897638
20
0.5639763779527559
11
0.6289370078740157
21
0.5639763779527559
0
LINE
8
BLACK
6
CONTINUOUS
10
0.8226377952755906
20
0.5671259842519685
11
0.8226377952755906
21
0.5116141732283465
0
LINE
8
BLACK
6
CONTINUOUS
10
0.8226377952755906
20
0.5116141732283465
11
0.9372047244094488
21
0.5116141732283465
0
LINE
8
BLACK
6
CONTINUOUS
10
0.9372047244094488
20
0.5116141732283465
11
0.9372047244094488
21
0.5671259842519685
0
LINE
8
BLACK
6
CONTINUOUS
10
0.9372047244094488
20
0.5671259842519685
11
0.8226377952755906
21
0.5671259842519685
0
LINE
8
BLACK
6
CONTINUOUS
10
0.4590380708661417
20
0.6544526377952756
11
0.4595707480314961
21
0.6539199606299212
0
LINE
8
BLACK
6
CONTINUOUS
10
0.4595707480314961
20
0.6539199606299212
11
0.4596456692913386
21
0.6535433070866141
0
LINE
8
BLACK
6
CONTINUOUS
10
0.4596456692913386
20
0.6535433070866141
11
0.4596456692913386
21
0.5669291338582677
0
LINE
8
BLACK
6
CONTINUOUS
10
0.4596456692913386
20
0.5669291338582677
11
0.4595707480314961
21
0.5665524803149606
0
LINE
8
BLACK
6
CONTINUOUS
10
0.4595707480314961
20
0.5665524803149606
11
0.4590380708661417
21
0.5660198031496063
0
LINE
8
BLACK
6
CONTINUOUS
10
0.4590380708661417
20
0.5660198031496063
11
0.4586614173228346
21
0.5659448818897638
0
LINE
8
BLACK
6
CONTINUOUS
10
0.4586614173228346
20
0.5659448818897638
11
0.25
21
0.5659448818897638
0
LINE
8
BLACK
6
CONTINUOUS
10
0.25
20
0.5659448818897638
11
0.2496233464566929
21
0.5660198031496063
0
LINE
8
BLACK
6
CONTINUOUS
10
0.2496233464566929
20
0.5660198031496063
11
0.2490906692913386
21
0.5665524803149606
0
LINE
8
BLACK
6
CONTINUOUS
10
0.2490906692913386
20
0.5665524803149606
11
0.2490157480314961
21
0.5669291338582677
0
LINE
8
BLACK
6
CONTINUOUS
10
0.2490157480314961
20
0.5669291338582677
11
0.2490157480314961
21
0.6535433070866141
0
LINE
8
BLACK
6
CONTINUOUS
10
0.2490157480314961
20
0.6535433070866141
11
0.2490906692913386
21
0.6539199606299212
0
LINE
8
BLACK
6
CONTINUOUS
10
0.2490906692913386
20
0.6539199606299212
11
0.2496233464566929
21
0.6544526377952756
0
LINE
8
BLACK
6
CONTINUOUS
10
0.2496233464566929
20
0.6544526377952756
11
0.25
21
0.6545275590551181
0
LINE
8
BLACK
6
CONTINUOUS
10
0.25
20
0.6545275590551181
11
0.4586614173228346
21
0.6545275590551181
0
LINE
8
BLACK
6
CONTINUOUS
10
0.4586614173228346
20
0.6545275590551181
11
0.4590380708661417
21
0.6544526377952756
0
LINE
8
BLACK
6
CONTINUOUS
10
0.2509842519685039
20
0.6525590551181102
11
0.2509842519685039
21
0.5679133858267716
0
LINE
8
BLACK
6
CONTINUOUS
10
0.2509842519685039
20
0.5679133858267716
11
0.4576771653543307
21
0.5679133858267716
0
LINE
8
BLACK
6
CONTINUOUS
10
0.4576771653543307
20
0.5679133858267716
11
0.4576771653543307
21
0.6525590551181102
0
LINE
8
BLACK
6
CONTINUOUS
10
0.4576771653543307
20
0.6525590551181102
11
0.2509842519685039
21
0.6525590551181102
0
LINE
8
BLACK
6
CONTINUOUS
10
0.5901404330708662
20
0.6398857086614174
11
0.5906731102362205
21
0.6393530314960629
0
LINE
8
BLACK
6
CONTINUOUS
10
0.5906731102362205
20
0.6393530314960629
11
0.590748031496063
21
0.6389763779527559
0
LINE
8
BLACK
6
CONTINUOUS
10
0.590748031496063
20
0.6389763779527559
11
0.590748031496063
21
0.581496062992126
0
LINE
8
BLACK
6
CONTINUOUS
10
0.590748031496063
20
0.581496062992126
11
0.5906731102362205
21
0.5811194094488189
0
LINE
8
BLACK
6
CONTINUOUS
10
0.5906731102362205
20
0.5811194094488189
11
0.5901404330708662
21
0.5805867322834646
0
LINE
8
BLACK
6
CONTINUOUS
10
0.5901404330708662
20
0.5805867322834646
11
0.5897637795275591
21
0.580511811023622
0
LINE
8
BLACK
6
CONTINUOUS
10
0.5897637795275591
20
0.580511811023622
11
0.4732283464566929
21
0.580511811023622
0
LINE
8
BLACK
6
CONTINUOUS
10
0.4732283464566929
20
0.580511811023622
11
0.4728516929133858
21
0.5805867322834646
0
LINE
8
BLACK
6
CONTINUOUS
10
0.4728516929133858
20
0.5805867322834646
11
0.4723190157480315
21
0.5811194094488189
0
LINE
8
BLACK
6
CONTINUOUS
10
0.4723190157480315
20
0.5811194094488189
11
0.472244094488189
21
0.581496062992126
0
LINE
8
BLACK
6
CONTINUOUS
10
0.472244094488189
20
0.581496062992126
11
0.472244094488189
21
0.6389763779527559
0
LINE
8
BLACK
6
CONTINUOUS
10
0.472244094488189
20
0.6389763779527559
11
0.4723190157480315
21
0.6393530314960629
0
LINE
8
BLACK
6
CONTINUOUS
10
0.4723190157480315
20
0.6393530314960629
11
0.4728516929133858
21
0.6398857086614174
0
LINE
8
BLACK
6
CONTINUOUS
10
0.4728516929133858
20
0.6398857086614174
11
0.4732283464566929
21
0.6399606299212598
0
LINE
8
BLACK
6
CONTINUOUS
10
0.4732283464566929
20
0.6399606299212598
11
0.5897637795275591
21
0.6399606299212598
0
LINE
8
BLACK
6
CONTINUOUS
10
0.5897637795275591
20
0.6399606299212598
11
0.5901404330708662
21
0.6398857086614174
0
LINE
8
BLACK
6
CONTINUOUS
10
0.4742125984251969
20
0.6379921259842519
11
0.4742125984251969
21
0.5824803149606299
0
LINE
8
BLACK
6
CONTINUOUS
10
0.4742125984251969
20
0.5824803149606299
11
0.588779527559055
21
0.5824803149606299
0
LINE
8
BLACK
6
CONTINUOUS
10
0.588779527559055
20
0.5824803149606299
11
0.588779527559055
21
0.6379921259842519
0
LINE
8
BLACK
6
CONTINUOUS
10
0.588779527559055
20
0.6379921259842519
11
0.4742125984251969
21
0.6379921259842519
0
LINE
8
BLACK
6
CONTINUOUS
10
1.0507833464566929
20
0.7100709842519685
11
1.0511026771653542
21
0.7098576377952756
0
LINE
8
BLACK
6
CONTINUOUS
10
1.0511026771653542
20
0.7098576377952756
11
1.0917474015748032
21
0.6692129133858268
0
LINE
8
BLACK
6
CONTINUOUS
10
1.0917474015748032
20
0.6692129133858268
11
1.0919607480314961
21
0.6688935826771654
0
LINE
8
BLACK
6
CONTINUOUS
10
1.0919607480314961
20
0.6688935826771654
11
1.0919607480314961
21
0.6681402755905511
0
LINE
8
BLACK
6
CONTINUOUS
10
1.0919607480314961
20
0.6681402755905511
11
1.0917474015748032
21
0.6678209448818897
0
LINE
8
BLACK
6
CONTINUOUS
10
1.0917474015748032
20
0.6678209448818897
11
1.0093444094488189
21
0.5854179527559055
0
LINE
8
BLACK
6
CONTINUOUS
10
1.0093444094488189
20
0.5854179527559055
11
1.0090250787401576
21
0.5852046062992126
0
LINE
8
BLACK
6
CONTINUOUS
10
1.0090250787401576
20
0.5852046062992126
11
1.0082717716535432
21
0.5852046062992126
0
LINE
8
BLACK
6
CONTINUOUS
10
1.0082717716535432
20
0.5852046062992126
11
1.0079524409448819
21
0.5854179527559055
0
LINE
8
BLACK
6
CONTINUOUS
10
1.0079524409448819
20
0.5854179527559055
11
0.967307716535433
21
0.6260626771653544
0
LINE
8
BLACK
6
CONTINUOUS
10
0.967307716535433
20
0.6260626771653544
11
0.9670943700787401
21
0.6263820078740158
0
LINE
8
BLACK
6
CONTINUOUS
10
0.9670943700787401
20
0.6263820078740158
11
0.9670943700787401
21
0.6271353149606299
0
LINE
8
BLACK
6
CONTINUOUS
10
0.9670943700787401
20
0.6271353149606299
11
0.967307716535433
21
0.6274546456692913
0
LINE
8
BLACK
6
CONTINUOUS
10
0.967307716535433
20
0.6274546456692913
11
1.0497107086614172
21
0.7098576377952756
0
LINE
8
BLACK
6
CONTINUOUS
10
1.0497107086614172
20
0.7098576377952756
11
1.0500300393700788
21
0.7100709842519685
0
LINE
8
BLACK
6
CONTINUOUS
10
1.0500300393700788
20
0.7100709842519685
11
1.0507833464566929
21
0.7100709842519685
0
LINE
8
BLACK
6
CONTINUOUS
10
0.9693956692913386
20
0.6267586614173228
11
1.0086484251968504
21
0.587505905511811
0
LINE
8
BLACK
6
CONTINUOUS
10
1.0086484251968504
20
0.587505905511811
11
1.0896594488188975
21
0.6685169291338583
0
LINE
8
BLACK
6
CONTINUOUS
10
1.0896594488188975
20
0.6685169291338583
11
1.0504066929133857
21
0.7077696850393701
0
LINE
8
BLACK
6
CONTINUOUS
10
1.0504066929133857
20
0.7077696850393701
11
0.9693956692913386
21
0.6267586614173228
0
LINE
8
BLACK
6
CONTINUOUS
10
1.2990813385826772
20
0.8703085039370079
11
1.3001627559055118
21
0.8698605511811024
0
LINE
8
BLACK
6
CONTINUOUS
10
1.3001627559055118
20
0.8698605511811024
11
1.3009904724409449
21
0.8690328346456693
0
LINE
8
BLACK
6
CONTINUOUS
10
1.3009904724409449
20
0.8690328346456693
11
1.3014384251968503
21
0.8679514173228347
0
LINE
8
BLACK
6
CONTINUOUS
10
1.3014384251968503
20
0.8679514173228347
11
1.3014960629921259
21
0.8673661417322834
0
LINE
8
BLACK
6
CONTINUOUS
10
1.3014960629921259
20
0.8673661417322834
11
1.3014960629921259
21
0.8613661417322834
0
LINE
8
BLACK
6
CONTINUOUS
10
1.3014960629921259
20
0.8613661417322834
11
1.3339960629921259
21
0.8613661417322834
0
LINE
8
BLACK
6
CONTINUOUS
10
1.3339960629921259
20
0.8613661417322834
11
1.3345813385826772
21
0.8613085039370079
0
LINE
8
BLACK
6
CONTINUOUS
10
1.3345813385826772
20
0.8613085039370079
11
1.3356627559055119
21
0.8608605511811024
0
LINE
8
BLACK
6
CONTINUOUS
10
1.3356627559055119
20
0.8608605511811024
11
1.3364904724409448
21
0.8600328346456693
0
LINE
8
BLACK
6
CONTINUOUS
10
1.3364904724409448
20
0.8600328346456693
11
1.3369384251968504
21
0.8589514173228346
0
LINE
8
BLACK
6
CONTINUOUS
10
1.3369384251968504
20
0.8589514173228346
11
1.336996062992126
21
0.8583661417322834
0
LINE
8
BLACK
6
CONTINUOUS
10
1.336996062992126
20
0.8583661417322834
11
1.336996062992126
21
0.8408661417322835
0
LINE
8
BLACK
6
CONTINUOUS
10
1.336996062992126
20
0.8408661417322835
11
1.342996062992126
21
0.8408661417322835
0
LINE
8
BLACK
6
CONTINUOUS
10
1.342996062992126
20
0.8408661417322835
11
1.3435813385826771
21
0.8408085039370079
0
LINE
8
BLACK
6
CONTINUOUS
10
1.3435813385826771
20
0.8408085039370079
11
1.3446627559055118
21
0.8403605511811023
0
LINE
8
BLACK
6
CONTINUOUS
10
1.3446627559055118
20
0.8403605511811023
11
1.3454904724409449
21
0.8395328346456693
0
LINE
8
BLACK
6
CONTINUOUS
10
1.3454904724409449
20
0.8395328346456693
11
1.3459384251968503
21
0.8384514173228347
0
LINE
8
BLACK
6
CONTINUOUS
10
1.3459384251968503
20
0.8384514173228347
11
1.3459960629921259
21
0.8378661417322835
0
LINE
8
BLACK
6
CONTINUOUS
10
1.3459960629921259
20
0.8378661417322835
11
1.3459960629921259
21
0.8008661417322834
0
LINE
8
BLACK
6
CONTINUOUS
10
1.3459960629921259
20
0.8008661417322834
11
1.3459668897637795
21
0.80057
0
LINE
8
BLACK
6
CONTINUOUS
10
1.3459668897637795
20
0.80057
11
1.3459725196850394
21
0.800490905511811
0
LINE
8
BLACK
6
CONTINUOUS
10
1.3459725196850394
20
0.800490905511811
11
1.3459534645669291
21
0.8004338188976378
0
LINE
8
BLACK
6
CONTINUOUS
10
1.3459534645669291
20
0.8004338188976378
11
1.3459384251968503
21
0.8002808661417322
0
LINE
8
BLACK
6
CONTINUOUS
10
1.3459384251968503
20
0.8002808661417322
11
1.3457544881889763
21
0.7998368503937008
0
LINE
8
BLACK
6
CONTINUOUS
10
1.3457544881889763
20
0.7998368503937008
11
1.3456023622047244
21
0.7993804330708661
0
LINE
8
BLACK
6
CONTINUOUS
10
1.3456023622047244
20
0.7993804330708661
11
1.3455316535433071
21
0.7992989763779528
0
LINE
8
BLACK
6
CONTINUOUS
10
1.3455316535433071
20
0.7992989763779528
11
1.3454904724409449
21
0.7991994488188976
0
LINE
8
BLACK
6
CONTINUOUS
10
1.3454904724409449
20
0.7991994488188976
11
1.3451506692913386
21
0.7988596850393701
0
LINE
8
BLACK
6
CONTINUOUS
10
1.3451506692913386
20
0.7988596850393701
11
1.3448354330708661
21
0.7984961811023622
0
LINE
8
BLACK
6
CONTINUOUS
10
1.3448354330708661
20
0.7984961811023622
11
1.3447389763779527
21
0.7984479527559055
0
LINE
8
BLACK
6
CONTINUOUS
10
1.3447389763779527
20
0.7984479527559055
11
1.3446627559055118
21
0.7983717322834646
0
LINE
8
BLACK
6
CONTINUOUS
10
1.3446627559055118
20
0.7983717322834646
11
1.3442184251968503
21
0.7981877165354331
0
LINE
8
BLACK
6
CONTINUOUS
10
1.3442184251968503
20
0.7981877165354331
11
1.3437884251968504
21
0.7979726771653544
0
LINE
8
BLACK
6
CONTINUOUS
10
1.3437884251968504
20
0.7979726771653544
11
1.3436809055118111
21
0.7979650393700787
0
LINE
8
BLACK
6
CONTINUOUS
10
1.3436809055118111
20
0.7979650393700787
11
1.3435813385826771
21
0.797923779527559
0
LINE
8
BLACK
6
CONTINUOUS
10
1.3435813385826771
20
0.797923779527559
11
1.3431005118110235
21
0.797923779527559
0
LINE
8
BLACK
6
CONTINUOUS
10
1.3431005118110235
20
0.797923779527559
11
1.3426208661417323
21
0.7978896850393701
0
LINE
8
BLACK
6
CONTINUOUS
10
1.3426208661417323
20
0.7978896850393701
11
1.3424709055118109
21
0.797923779527559
0
LINE
8
BLACK
6
CONTINUOUS
10
1.3424709055118109
20
0.797923779527559
11
1.3424107874015747
21
0.797923779527559
0
LINE
8
BLACK
6
CONTINUOUS
10
1.3424107874015747
20
0.797923779527559
11
1.3423375984251968
21
0.797954094488189
0
LINE
8
BLACK
6
CONTINUOUS
10
1.3423375984251968
20
0.797954094488189
11
1.3420474015748032
21
0.7980200787401575
0
LINE
8
BLACK
6
CONTINUOUS
10
1.3420474015748032
20
0.7980200787401575
11
1.336996062992126
21
0.7997038582677165
0
LINE
8
BLACK
6
CONTINUOUS
10
1.336996062992126
20
0.7997038582677165
11
1.336996062992126
21
0.7833661417322835
0
LINE
8
BLACK
6
CONTINUOUS
10
1.336996062992126
20
0.7833661417322835
11
1.3369384251968504
21
0.7827808661417323
0
LINE
8
BLACK
6
CONTINUOUS
10
1.3369384251968504
20
0.7827808661417323
11
1.3364904724409448
21
0.7816994488188976
0
LINE
8
BLACK
6
CONTINUOUS
10
1.3364904724409448
20
0.7816994488188976
11
1.3356627559055119
21
0.7808717322834645
0
LINE
8
BLACK
6
CONTINUOUS
10
1.3356627559055119
20
0.7808717322834645
11
1.3345813385826772
21
0.780423779527559
0
LINE
8
BLACK
6
CONTINUOUS
10
1.3345813385826772
20
0.780423779527559
11
1.3339960629921259
21
0.7803661417322835
0
LINE
8
BLACK
6
CONTINUOUS
10
1.3339960629921259
20
0.7803661417322835
11
1.3014960629921259
21
0.7803661417322835
0
LINE
8
BLACK
6
CONTINUOUS
10
1.3014960629921259
20
0.7803661417322835
11
1.3014960629921259
21
0.7743661417322835
0
LINE
8
BLACK
6
CONTINUOUS
10
1.3014960629921259
20
0.7743661417322835
11
1.3014384251968503
21
0.7737808661417322
0
LINE
8
BLACK
6
CONTINUOUS
10
1.3014384251968503
20
0.7737808661417322
11
1.3009904724409449
21
0.7726994488188976
0
LINE
8
BLACK
6
CONTINUOUS
10
1.3009904724409449
20
0.7726994488188976
11
1.3001627559055118
21
0.7718717322834645
0
LINE
8
BLACK
6
CONTINUOUS
10
1.3001627559055118
20
0.7718717322834645
11
1.2990813385826772
21
0.771423779527559
0
LINE
8
BLACK
6
CONTINUOUS
10
1.2990813385826772
20
0.771423779527559
11
1.2984960629921261
21
0.7713661417322835
0
LINE
8
BLACK
6
CONTINUOUS
10
1.2984960629921261
20
0.7713661417322835
11
1.264496062992126
21
0.7713661417322835
0
LINE
8
BLACK
6
CONTINUOUS
10
1.264496062992126
20
0.7713661417322835
11
1.2639107874015747
21
0.771423779527559
0
LINE
8
BLACK
6
CONTINUOUS
10
1.2639107874015747
20
0.771423779527559
11
1.2628293700787401
21
0.7718717322834645
0
LINE
8
BLACK
6
CONTINUOUS
10
1.2628293700787401
20
0.7718717322834645
11
1.262001653543307
21
0.7726994488188976
0
LINE
8
BLACK
6
CONTINUOUS
10
1.262001653543307
20
0.7726994488188976
11
1.2615537007874016
21
0.7737808661417322
0
LINE
8
BLACK
6
CONTINUOUS
10
1.2615537007874016
20
0.7737808661417322
11
1.2614960629921259
21
0.7743661417322835
0
LINE
8
BLACK
6
CONTINUOUS
10
1.2614960629921259
20
0.7743661417322835
11
1.2614960629921259
21
0.7803661417322835
0
LINE
8
BLACK
6
CONTINUOUS
10
1.2614960629921259
20
0.7803661417322835
11
1.2289960629921259
21
0.7803661417322835
0
LINE
8
BLACK
6
CONTINUOUS
10
1.2289960629921259
20
0.7803661417322835
11
1.2284107874015748
21
0.780423779527559
0
LINE
8
BLACK
6
CONTINUOUS
10
1.2284107874015748
20
0.780423779527559
11
1.2273293700787402
21
0.7808717322834645
0
LINE
8
BLACK
6
CONTINUOUS
10
1.2273293700787402
20
0.7808717322834645
11
1.2265016535433071
21
0.7816994488188976
0
LINE
8
BLACK
6
CONTINUOUS
10
1.2265016535433071
20
0.7816994488188976
11
1.2260537007874015
21
0.7827808661417323
0
LINE
8
BLACK
6
CONTINUOUS
10
1.2260537007874015
20
0.7827808661417323
11
1.225996062992126
21
0.7833661417322835
0
LINE
8
BLACK
6
CONTINUOUS
10
1.225996062992126
20
0.7833661417322835
11
1.225996062992126
21
0.7907238582677165
0
LINE
8
BLACK
6
CONTINUOUS
10
1.225996062992126
20
0.7907238582677165
11
1.2259672047244095
21
0.790695
0
LINE
8
BLACK
6
CONTINUOUS
10
1.2259672047244095
20
0.790695
11
1.2255905511811023
21
0.7906200787401575
0
LINE
8
BLACK
6
CONTINUOUS
10
1.2255905511811023
20
0.7906200787401575
11
1.1090551181102362
21
0.7906200787401575
0
LINE
8
BLACK
6
CONTINUOUS
10
1.1090551181102362
20
0.7906200787401575
11
1.1086784645669292
21
0.790695
0
LINE
8
BLACK
6
CONTINUOUS
10
1.1086784645669292
20
0.790695
11
1.1081457874015748
21
0.7912276771653544
0
LINE
8
BLACK
6
CONTINUOUS
10
1.1081457874015748
20
0.7912276771653544
11
1.1080708661417322
21
0.7916043307086614
0
LINE
8
BLACK
6
CONTINUOUS
10
1.1080708661417322
20
0.7916043307086614
11
1.1080708661417322
21
0.8490846456692913
0
LINE
8
BLACK
6
CONTINUOUS
10
1.1080708661417322
20
0.8490846456692913
11
1.1081457874015748
21
0.8494612992125984
0
LINE
8
BLACK
6
CONTINUOUS
10
1.1081457874015748
20
0.8494612992125984
11
1.1086784645669292
21
0.8499939763779527
0
LINE
8
BLACK
6
CONTINUOUS
10
1.1086784645669292
20
0.8499939763779527
11
1.1090551181102362
21
0.8500688976377953
0
LINE
8
BLACK
6
CONTINUOUS
10
1.1090551181102362
20
0.8500688976377953
11
1.2255905511811023
21
0.8500688976377953
0
LINE
8
BLACK
6
CONTINUOUS
10
1.2255905511811023
20
0.8500688976377953
11
1.2259672047244095
21
0.8499939763779527
0
LINE
8
BLACK
6
CONTINUOUS
10
1.2259672047244095
20
0.8499939763779527
11
1.225996062992126
21
0.8499651181102362
0
LINE
8
BLACK
6
CONTINUOUS
10
1.225996062992126
20
0.8499651181102362
11
1.225996062992126
21
0.8583661417322834
0
LINE
8
BLACK
6
CONTINUOUS
10
1.225996062992126
20
0.8583661417322834
11
1.2260537007874015
21
0.8589514173228346
0
LINE
8
BLACK
6
CONTINUOUS
10
1.2260537007874015
20
0.8589514173228346
11
1.2265016535433071
21
0.8600328346456693
0
LINE
8
BLACK
6
CONTINUOUS
10
1.2265016535433071
20
0.8600328346456693
11
1.2273293700787402
21
0.8608605511811024
0
LINE
8
BLACK
6
CONTINUOUS
10
1.2273293700787402
20
0.8608605511811024
11
1.2284107874015748
21
0.8613085039370079
0
LINE
8
BLACK
6
CONTINUOUS
10
1.2284107874015748
20
0.8613085039370079
11
1.2289960629921259
21
0.8613661417322834
0
LINE
8
BLACK
6
CONTINUOUS
10
1.2289960629921259
20
0.8613661417322834
11
1.2614960629921259
21
0.8613661417322834
0
LINE
8
BLACK
6
CONTINUOUS
10
1.2614960629921259
20
0.8613661417322834
11
1.2614960629921259
21
0.8673661417322834
0
LINE
8
BLACK
6
CONTINUOUS
10
1.2614960629921259
20
0.8673661417322834
11
1.2615537007874016
21
0.8679514173228347
0
LINE
8
BLACK
6
CONTINUOUS
10
1.2615537007874016
20
0.8679514173228347
11
1.262001653543307
21
0.8690328346456693
0
LINE
8
BLACK
6
CONTINUOUS
10
1.262001653543307
20
0.8690328346456693
11
1.2628293700787401
21
0.8698605511811024
0
LINE
8
BLACK
6
CONTINUOUS
10
1.2628293700787401
20
0.8698605511811024
11
1.2639107874015747
21
0.8703085039370079
0
LINE
8
BLACK
6
CONTINUOUS
10
1.2639107874015747
20
0.8703085039370079
11
1.264496062992126
21
0.8703661417322834
0
LINE
8
BLACK
6
CONTINUOUS
10
1.264496062992126
20
0.8703661417322834
11
1.2984960629921261
21
0.8703661417322834
0
LINE
8
BLACK
6
CONTINUOUS
10
1.2984960629921261
20
0.8703661417322834
11
1.2990813385826772
21
0.8703085039370079
0
LINE
8
BLACK
6
CONTINUOUS
10
1.2674960629921259
20
0.8643661417322834
11
1.2674960629921259
21
0.8583661417322834
0
LINE
8
BLACK
6
CONTINUOUS
10
1.2674960629921259
20
0.8583661417322834
11
1.2674384251968505
21
0.8577808661417322
0
LINE
8
BLACK
6
CONTINUOUS
10
1.2674384251968505
20
0.8577808661417322
11
1.2669904724409449
21
0.8566994488188976
0
LINE
8
BLACK
6
CONTINUOUS
10
1.2669904724409449
20
0.8566994488188976
11
1.2661627559055117
21
0.8558717322834646
0
LINE
8
BLACK
6
CONTINUOUS
10
1.2661627559055117
20
0.8558717322834646
11
1.2650813385826771
21
0.855423779527559
0
LINE
8
BLACK
6
CONTINUOUS
10
1.2650813385826771
20
0.855423779527559
11
1.264496062992126
21
0.8553661417322834
0
LINE
8
BLACK
6
CONTINUOUS
10
1.264496062992126
20
0.8553661417322834
11
1.2319960629921261
21
0.8553661417322834
0
LINE
8
BLACK
6
CONTINUOUS
10
1.2319960629921261
20
0.8553661417322834
11
1.2319960629921261
21
0.8378661417322835
0
LINE
8
BLACK
6
CONTINUOUS
10
1.2319960629921261
20
0.8378661417322835
11
1.2319384251968504
21
0.8372808661417322
0
LINE
8
BLACK
6
CONTINUOUS
10
1.2319384251968504
20
0.8372808661417322
11
1.2314904724409448
21
0.8361994488188976
0
LINE
8
BLACK
6
CONTINUOUS
10
1.2314904724409448
20
0.8361994488188976
11
1.2306627559055119
21
0.8353717322834645
0
LINE
8
BLACK
6
CONTINUOUS
10
1.2306627559055119
20
0.8353717322834645
11
1.229581338582677
21
0.834923779527559
0
LINE
8
BLACK
6
CONTINUOUS
10
1.229581338582677
20
0.834923779527559
11
1.2289960629921259
21
0.8348661417322835
0
LINE
8
BLACK
6
CONTINUOUS
10
1.2289960629921259
20
0.8348661417322835
11
1.2265748031496062
21
0.8348661417322835
0
LINE
8
BLACK
6
CONTINUOUS
10
1.2265748031496062
20
0.8348661417322835
11
1.2265748031496062
21
0.8068661417322834
0
LINE
8
BLACK
6
CONTINUOUS
10
1.2265748031496062
20
0.8068661417322834
11
1.2289960629921259
21
0.8068661417322834
0
LINE
8
BLACK
6
CONTINUOUS
10
1.2289960629921259
20
0.8068661417322834
11
1.229581338582677
21
0.8068085039370079
0
LINE
8
BLACK
6
CONTINUOUS
10
1.229581338582677
20
0.8068085039370079
11
1.2306627559055119
21
0.8063605511811024
0
LINE
8
BLACK
6
CONTINUOUS
10
1.2306627559055119
20
0.8063605511811024
11
1.2314904724409448
21
0.8055328346456693
0
LINE
8
BLACK
6
CONTINUOUS
10
1.2314904724409448
20
0.8055328346456693
11
1.2319384251968504
21
0.8044514173228346
0
LINE
8
BLACK
6
CONTINUOUS
10
1.2319384251968504
20
0.8044514173228346
11
1.2319960629921261
21
0.8038661417322834
0
LINE
8
BLACK
6
CONTINUOUS
10
1.2319960629921261
20
0.8038661417322834
11
1.2319960629921261
21
0.7863661417322835
0
LINE
8
BLACK
6
CONTINUOUS
10
1.2319960629921261
20
0.7863661417322835
11
1.264496062992126
21
0.7863661417322835
0
LINE
8
BLACK
6
CONTINUOUS
10
1.264496062992126
20
0.7863661417322835
11
1.2650813385826771
21
0.7863085039370079
0
LINE
8
BLACK
6
CONTINUOUS
10
1.2650813385826771
20
0.7863085039370079
11
1.2661627559055117
21
0.7858605511811023
0
LINE
8
BLACK
6
CONTINUOUS
10
1.2661627559055117
20
0.7858605511811023
11
1.2669904724409449
21
0.7850328346456693
0
LINE
8
BLACK
6
CONTINUOUS
10
1.2669904724409449
20
0.7850328346456693
11
1.2674384251968505
21
0.7839514173228346
0
LINE
8
BLACK
6
CONTINUOUS
10
1.2674384251968505
20
0.7839514173228346
11
1.2674960629921259
21
0.7833661417322835
0
LINE
8
BLACK
6
CONTINUOUS
10
1.2674960629921259
20
0.7833661417322835
11
1.2674960629921259
21
0.7773661417322835
0
LINE
8
BLACK
6
CONTINUOUS
10
1.2674960629921259
20
0.7773661417322835
11
1.2954960629921259
21
0.7773661417322835
0
LINE
8
BLACK
6
CONTINUOUS
10
1.2954960629921259
20
0.7773661417322835
11
1.2954960629921259
21
0.7833661417322835
0
LINE
8
BLACK
6
CONTINUOUS
10
1.2954960629921259
20
0.7833661417322835
11
1.2955537007874016
21
0.7839514173228346
0
LINE
8
BLACK
6
CONTINUOUS
10
1.2955537007874016
20
0.7839514173228346
11
1.296001653543307
21
0.7850328346456693
0
LINE
8
BLACK
6
CONTINUOUS
10
1.296001653543307
20
0.7850328346456693
11
1.2968293700787401
21
0.7858605511811023
0
LINE
8
BLACK
6
CONTINUOUS
10
1.2968293700787401
20
0.7858605511811023
11
1.2979107874015747
21
0.7863085039370079
0
LINE
8
BLACK
6
CONTINUOUS
10
1.2979107874015747
20
0.7863085039370079
11
1.2984960629921261
21
0.7863661417322835
0
LINE
8
BLACK
6
CONTINUOUS
10
1.2984960629921261
20
0.7863661417322835
11
1.330996062992126
21
0.7863661417322835
0
LINE
8
BLACK
6
CONTINUOUS
10
1.330996062992126
20
0.7863661417322835
11
1.330996062992126
21
0.8038661417322834
0
LINE
8
BLACK
6
CONTINUOUS
10
1.330996062992126
20
0.8038661417322834
11
1.3310251968503937
21
0.8041622834645669
0
LINE
8
BLACK
6
CONTINUOUS
10
1.3310251968503937
20
0.8041622834645669
11
1.3310196062992126
21
0.8042413385826771
0
LINE
8
BLACK
6
CONTINUOUS
10
1.3310196062992126
20
0.8042413385826771
11
1.3310386220472441
21
0.8042984251968504
0
LINE
8
BLACK
6
CONTINUOUS
10
1.3310386220472441
20
0.8042984251968504
11
1.3310537007874015
21
0.8044514173228346
0
LINE
8
BLACK
6
CONTINUOUS
10
1.3310537007874015
20
0.8044514173228346
11
1.3312376377952755
21
0.8048955118110236
0
LINE
8
BLACK
6
CONTINUOUS
10
1.3312376377952755
20
0.8048955118110236
11
1.3313897637795276
21
0.8053518503937007
0
LINE
8
BLACK
6
CONTINUOUS
10
1.3313897637795276
20
0.8053518503937007
11
1.3314604330708661
21
0.8054333464566928
0
LINE
8
BLACK
6
CONTINUOUS
10
1.3314604330708661
20
0.8054333464566928
11
1.3315016535433071
21
0.8055328346456693
0
LINE
8
BLACK
6
CONTINUOUS
10
1.3315016535433071
20
0.8055328346456693
11
1.3318415748031496
21
0.8058727952755905
0
LINE
8
BLACK
6
CONTINUOUS
10
1.3318415748031496
20
0.8058727952755905
11
1.3321567322834644
21
0.8062361023622047
0
LINE
8
BLACK
6
CONTINUOUS
10
1.3321567322834644
20
0.8062361023622047
11
1.3322531102362205
21
0.8062843307086613
0
LINE
8
BLACK
6
CONTINUOUS
10
1.3322531102362205
20
0.8062843307086613
11
1.3323293700787402
21
0.8063605511811024
0
LINE
8
BLACK
6
CONTINUOUS
10
1.3323293700787402
20
0.8063605511811024
11
1.3327737795275589
21
0.8065446456692913
0
LINE
8
BLACK
6
CONTINUOUS
10
1.3327737795275589
20
0.8065446456692913
11
1.3332037007874016
21
0.8067596062992126
0
LINE
8
BLACK
6
CONTINUOUS
10
1.3332037007874016
20
0.8067596062992126
11
1.3333111811023621
21
0.8067672834645669
0
LINE
8
BLACK
6
CONTINUOUS
10
1.3333111811023621
20
0.8067672834645669
11
1.3334107874015748
21
0.8068085039370079
0
LINE
8
BLACK
6
CONTINUOUS
10
1.3334107874015748
20
0.8068085039370079
11
1.3338916141732282
21
0.8068085039370079
0
LINE
8
BLACK
6
CONTINUOUS
10
1.3338916141732282
20
0.8068085039370079
11
1.3343712598425197
21
0.8068425984251968
0
LINE
8
BLACK
6
CONTINUOUS
10
1.3343712598425197
20
0.8068425984251968
11
1.3345212204724408
21
0.8068085039370079
0
LINE
8
BLACK
6
CONTINUOUS
10
1.3345212204724408
20
0.8068085039370079
11
1.3345813385826772
21
0.8068085039370079
0
LINE
8
BLACK
6
CONTINUOUS
10
1.3345813385826772
20
0.8068085039370079
11
1.3346544881889764
21
0.8067782283464566
0
LINE
8
BLACK
6
CONTINUOUS
10
1.3346544881889764
20
0.8067782283464566
11
1.3349447637795275
21
0.8067122047244094
0
LINE
8
BLACK
6
CONTINUOUS
10
1.3349447637795275
20
0.8067122047244094
11
1.3399960629921259
21
0.8050284645669291
0
LINE
8
BLACK
6
CONTINUOUS
10
1.3399960629921259
20
0.8050284645669291
11
1.3399960629921259
21
0.8348661417322835
0
LINE
8
BLACK
6
CONTINUOUS
10
1.3399960629921259
20
0.8348661417322835
11
1.3339960629921259
21
0.8348661417322835
0
LINE
8
BLACK
6
CONTINUOUS
10
1.3339960629921259
20
0.8348661417322835
11
1.3334107874015748
21
0.834923779527559
0
LINE
8
BLACK
6
CONTINUOUS
10
1.3334107874015748
20
0.834923779527559
11
1.3323293700787402
21
0.8353717322834645
0
LINE
8
BLACK
6
CONTINUOUS
10
1.3323293700787402
20
0.8353717322834645
11
1.3315016535433071
21
0.8361994488188976
0
LINE
8
BLACK
6
CONTINUOUS
10
1.3315016535433071
20
0.8361994488188976
11
1.3310537007874015
21
0.8372808661417322
0
LINE
8
BLACK
6
CONTINUOUS
10
1.3310537007874015
20
0.8372808661417322
11
1.330996062992126
21
0.8378661417322835
0
LINE
8
BLACK
6
CONTINUOUS
10
1.330996062992126
20
0.8378661417322835
11
1.330996062992126
21
0.8553661417322834
0
LINE
8
BLACK
6
CONTINUOUS
10
1.330996062992126
20
0.8553661417322834
11
1.2984960629921261
21
0.8553661417322834
0
LINE
8
BLACK
6
CONTINUOUS
10
1.2984960629921261
20
0.8553661417322834
11
1.2979107874015747
21
0.855423779527559
0
LINE
8
BLACK
6
CONTINUOUS
10
1.2979107874015747
20
0.855423779527559
11
1.2968293700787401
21
0.8558717322834646
0
LINE
8
BLACK
6
CONTINUOUS
10
1.2968293700787401
20
0.8558717322834646
11
1.296001653543307
21
0.8566994488188976
0
LINE
8
BLACK
6
CONTINUOUS
10
1.296001653543307
20
0.8566994488188976
11
1.2955537007874016
21
0.8577808661417322
0
LINE
8
BLACK
6
CONTINUOUS
10
1.2955537007874016
20
0.8577808661417322
11
1.2954960629921259
21
0.8583661417322834
0
LINE
8
BLACK
6
CONTINUOUS
10
1.2954960629921259
20
0.8583661417322834
11
1.2954960629921259
21
0.8643661417322834
0
LINE
8
BLACK
6
CONTINUOUS
10
1.2954960629921259
20
0.8643661417322834
11
1.2674960629921259
21
0.8643661417322834
0
LINE
8
BLACK
6
CONTINUOUS
10
1.1100393700787401
20
0.8481003937007874
11
1.1100393700787401
21
0.7925885826771654
0
LINE
8
BLACK
6
CONTINUOUS
10
1.1100393700787401
20
0.7925885826771654
11
1.2246062992125983
21
0.7925885826771654
0
LINE
8
BLACK
6
CONTINUOUS
10
1.2246062992125983
20
0.7925885826771654
11
1.2246062992125983
21
0.8008661417322834
0
LINE
8
BLACK
6
CONTINUOUS
10
1.2246062992125983
20
0.8008661417322834
11
1.219996062992126
21
0.8008661417322834
0
LINE
8
BLACK
6
CONTINUOUS
10
1.219996062992126
20
0.8008661417322834
11
1.2194107874015747
21
0.800923779527559
0
LINE
8
BLACK
6
CONTINUOUS
10
1.2194107874015747
20
0.800923779527559
11
1.2183293700787401
21
0.8013717322834646
0
LINE
8
BLACK
6
CONTINUOUS
10
1.2183293700787401
20
0.8013717322834646
11
1.217501653543307
21
0.8021994488188976
0
LINE
8
BLACK
6
CONTINUOUS
10
1.217501653543307
20
0.8021994488188976
11
1.2170537007874016
21
0.8032808661417322
0
LINE
8
BLACK
6
CONTINUOUS
10
1.2170537007874016
20
0.8032808661417322
11
1.2169960629921259
21
0.8038661417322834
0
LINE
8
BLACK
6
CONTINUOUS
10
1.2169960629921259
20
0.8038661417322834
11
1.2169960629921259
21
0.8378661417322835
0
LINE
8
BLACK
6
CONTINUOUS
10
1.2169960629921259
20
0.8378661417322835
11
1.2170537007874016
21
0.8384514173228347
0
LINE
8
BLACK
6
CONTINUOUS
10
1.2170537007874016
20
0.8384514173228347
11
1.217501653543307
21
0.8395328346456693
0
LINE
8
BLACK
6
CONTINUOUS
10
1.217501653543307
20
0.8395328346456693
11
1.2183293700787401
21
0.8403605511811023
0
LINE
8
BLACK
6
CONTINUOUS
10
1.2183293700787401
20
0.8403605511811023
11
1.2194107874015747
21
0.8408085039370079
0
LINE
8
BLACK
6
CONTINUOUS
10
1.2194107874015747
20
0.8408085039370079
11
1.219996062992126
21
0.8408661417322835
0
LINE
8
BLACK
6
CONTINUOUS
10
1.219996062992126
20
0.8408661417322835
11
1.2246062992125983
21
0.8408661417322835
0
LINE
8
BLACK
6
CONTINUOUS
10
1.2246062992125983
20
0.8408661417322835
11
1.2246062992125983
21
0.8481003937007874
0
LINE
8
BLACK
6
CONTINUOUS
10
1.2246062992125983
20
0.8481003937007874
11
1.1100393700787401
21
0.8481003937007874
0
LINE
8
BLACK
6
CONTINUOUS
10
1.2229960629921259
20
0.8348661417322835
11
1.2229960629921259
21
0.8068661417322834
0
LINE
8
BLACK
6
CONTINUOUS
10
1.2229960629921259
20
0.8068661417322834
11
1.2246062992125983
21
0.8068661417322834
0
LINE
8
BLACK
6
CONTINUOUS
10
1.2246062992125983
20
0.8068661417322834
11
1.2246062992125983
21
0.8348661417322835
0
LINE
8
BLACK
6
CONTINUOUS
10
1.2246062992125983
20
0.8348661417322835
11
1.2229960629921259
21
0.8348661417322835
0
LINE
8
BLACK
6
CONTINUOUS
10
0.6912231102362204
20
0.9528778346456692
11
0.6917557874015748
21
0.9523451574803149
0
LINE
8
BLACK
6
CONTINUOUS
10
0.6917557874015748
20
0.9523451574803149
11
0.6918307086614173
21
0.9519685039370078
0
LINE
8
BLACK
6
CONTINUOUS
10
0.6918307086614173
20
0.9519685039370078
11
0.6918307086614173
21
0.8944881889763779
0
LINE
8
BLACK
6
CONTINUOUS
10
0.6918307086614173
20
0.8944881889763779
11
0.6917557874015748
21
0.8941115354330709
0
LINE
8
BLACK
6
CONTINUOUS
10
0.6917557874015748
20
0.8941115354330709
11
0.6912231102362204
21
0.8935788582677165
0
LINE
8
BLACK
6
CONTINUOUS
10
0.6912231102362204
20
0.8935788582677165
11
0.6908464566929133
21
0.893503937007874
0
LINE
8
BLACK
6
CONTINUOUS
10
0.6908464566929133
20
0.893503937007874
11
0.5743110236220472
21
0.893503937007874
0
LINE
8
BLACK
6
CONTINUOUS
10
0.5743110236220472
20
0.893503937007874
11
0.5739343700787402
21
0.8935788582677165
0
LINE
8
BLACK
6
CONTINUOUS
10
0.5739343700787402
20
0.8935788582677165
11
0.5734016929133858
21
0.8941115354330709
0
LINE
8
BLACK
6
CONTINUOUS
10
0.5734016929133858
20
0.8941115354330709
11
0.5733267716535433
21
0.8944881889763779
0
LINE
8
BLACK
6
CONTINUOUS
10
0.5733267716535433
20
0.8944881889763779
11
0.5733267716535433
21
0.9519685039370078
0
LINE
8
BLACK
6
CONTINUOUS
10
0.5733267716535433
20
0.9519685039370078
11
0.5734016929133858
21
0.9523451574803149
0
LINE
8
BLACK
6
CONTINUOUS
10
0.5734016929133858
20
0.9523451574803149
11
0.5739343700787402
21
0.9528778346456692
0
LINE
8
BLACK
6
CONTINUOUS
10
0.5739343700787402
20
0.9528778346456692
11
0.5743110236220472
21
0.9529527559055118
0
LINE
8
BLACK
6
CONTINUOUS
10
0.5743110236220472
20
0.9529527559055118
11
0.6908464566929133
21
0.9529527559055118
0
LINE
8
BLACK
6
CONTINUOUS
10
0.6908464566929133
20
0.9529527559055118
11
0.6912231102362204
21
0.9528778346456692
0
LINE
8
BLACK
6
CONTINUOUS
10
0.5752952755905512
20
0.9509842519685039
11
0.5752952755905512
21
0.8954724409448819
0
LINE
8
BLACK
6
CONTINUOUS
10
0.5752952755905512
20
0.8954724409448819
11
0.6898622047244094
21
0.8954724409448819
0
LINE
8
BLACK
6
CONTINUOUS
10
0.6898622047244094
20
0.8954724409448819
11
0.6898622047244094
21
0.9509842519685039
0
LINE
8
BLACK
6
CONTINUOUS
10
0.6898622047244094
20
0.9509842519685039
11
0.5752952755905512
21
0.9509842519685039
0
LINE
8
BLACK
6
CONTINUOUS
10
0.5310853149606299
20
1.052090433070866
11
0.5316179921259843
21
1.0515577559055118
0
LINE
8
BLACK
6
CONTINUOUS
10
0.5316179921259843
20
1.0515577559055118
11
0.5316929133858268
21
1.0511811023622046
0
LINE
8
BLACK
6
CONTINUOUS
10
0.5316929133858268
20
1.0511811023622046
11
0.5316929133858268
21
0.9173228346456692
0
LINE
8
BLACK
6
CONTINUOUS
10
0.5316929133858268
20
0.9173228346456692
11
0.5316179921259843
21
0.9169461811023621
0
LINE
8
BLACK
6
CONTINUOUS
10
0.5316179921259843
20
0.9169461811023621
11
0.5310853149606299
21
0.9164135039370078
0
LINE
8
BLACK
6
CONTINUOUS
10
0.5310853149606299
20
0.9164135039370078
11
0.5307086614173229
21
0.9163385826771653
0
LINE
8
BLACK
6
CONTINUOUS
10
0.5307086614173229
20
0.9163385826771653
11
0.4535433070866142
21
0.9163385826771653
0
LINE
8
BLACK
6
CONTINUOUS
10
0.4535433070866142
20
0.9163385826771653
11
0.4531666535433071
21
0.9164135039370078
0
LINE
8
BLACK
6
CONTINUOUS
10
0.4531666535433071
20
0.9164135039370078
11
0.4526339763779527
21
0.9169461811023621
0
LINE
8
BLACK
6
CONTINUOUS
10
0.4526339763779527
20
0.9169461811023621
11
0.4525590551181102
21
0.9173228346456692
0
LINE
8
BLACK
6
CONTINUOUS
10
0.4525590551181102
20
0.9173228346456692
11
0.4525590551181102
21
1.0511811023622046
0
LINE
8
BLACK
6
CONTINUOUS
10
0.4525590551181102
20
1.0511811023622046
11
0.4526339763779527
21
1.0515577559055118
0
LINE
8
BLACK
6
CONTINUOUS
10
0.4526339763779527
20
1.0515577559055118
11
0.4531666535433071
21
1.052090433070866
0
LINE
8
BLACK
6
CONTINUOUS
10
0.4531666535433071
20
1.052090433070866
11
0.4535433070866142
21
1.0521653543307086
0
LINE
8
BLACK
6
CONTINUOUS
10
0.4535433070866142
20
1.0521653543307086
11
0.5307086614173229
21
1.0521653543307086
0
LINE
8
BLACK
6
CONTINUOUS
10
0.5307086614173229
20
1.0521653543307086
11
0.5310853149606299
21
1.052090433070866
0
LINE
8
BLACK
6
CONTINUOUS
10
0.4545275590551181
20
1.0501968503937007
11
0.4545275590551181
21
0.9183070866141733
0
LINE
8
BLACK
6
CONTINUOUS
10
0.4545275590551181
20
0.9183070866141733
11
0.5297244094488189
21
0.9183070866141733
0
LINE
8
BLACK
6
CONTINUOUS
10
0.5297244094488189
20
0.9183070866141733
11
0.5297244094488189
21
1.0501968503937007
0
LINE
8
BLACK
6
CONTINUOUS
10
0.5297244094488189
20
1.0501968503937007
11
0.4545275590551181
21
1.0501968503937007
0
LINE
8
BLACK
6
CONTINUOUS
10
0.813368779527559
20
1.3698069685039369
11
0.8139014566929134
21
1.3692742913385827
0
LINE
8
BLACK
6
CONTINUOUS
10
0.8139014566929134
20
1.3692742913385827
11
0.8139763779527559
21
1.3688976377952755
0
LINE
8
BLACK
6
CONTINUOUS
10
0.8139763779527559
20
1.3688976377952755
11
0.8139763779527559
21
1.3147637795275591
0
LINE
8
BLACK
6
CONTINUOUS
10
0.8139763779527559
20
1.3147637795275591
11
0.8267716535433071
21
1.3147637795275591
0
LINE
8
BLACK
6
CONTINUOUS
10
0.8267716535433071
20
1.3147637795275591
11
0.8271483070866141
21
1.3146888582677165
0
LINE
8
BLACK
6
CONTINUOUS
10
0.8271483070866141
20
1.3146888582677165
11
0.8276809842519685
21
1.3141561811023621
0
LINE
8
BLACK
6
CONTINUOUS
10
0.8276809842519685
20
1.3141561811023621
11
0.827755905511811
21
1.3137795275590551
0
LINE
8
BLACK
6
CONTINUOUS
10
0.827755905511811
20
1.3137795275590551
11
0.827755905511811
21
1.1208661417322834
0
LINE
8
BLACK
6
CONTINUOUS
10
0.827755905511811
20
1.1208661417322834
11
0.8276809842519685
21
1.1204894881889764
0
LINE
8
BLACK
6
CONTINUOUS
10
0.8276809842519685
20
1.1204894881889764
11
0.8271483070866141
21
1.119956811023622
0
LINE
8
BLACK
6
CONTINUOUS
10
0.8271483070866141
20
1.119956811023622
11
0.8267716535433071
21
1.1198818897637794
0
LINE
8
BLACK
6
CONTINUOUS
10
0.8267716535433071
20
1.1198818897637794
11
0.8139763779527559
21
1.1198818897637794
0
LINE
8
BLACK
6
CONTINUOUS
10
0.8139763779527559
20
1.1198818897637794
11
0.8139763779527559
21
1.065748031496063
0
LINE
8
BLACK
6
CONTINUOUS
10
0.8139763779527559
20
1.065748031496063
11
0.8139014566929134
21
1.0653713779527558
0
LINE
8
BLACK
6
CONTINUOUS
10
0.8139014566929134
20
1.0653713779527558
11
0.813368779527559
21
1.0648387007874016
0
LINE
8
BLACK
6
CONTINUOUS
10
0.813368779527559
20
1.0648387007874016
11
0.812992125984252
21
1.0647637795275591
0
LINE
8
BLACK
6
CONTINUOUS
10
0.812992125984252
20
1.0647637795275591
11
0.6240157480314961
21
1.0647637795275591
0
LINE
8
BLACK
6
CONTINUOUS
10
0.6240157480314961
20
1.0647637795275591
11
0.623639094488189
21
1.0648387007874016
0
LINE
8
BLACK
6
CONTINUOUS
10
0.623639094488189
20
1.0648387007874016
11
0.6231064173228347
21
1.0653713779527558
0
LINE
8
BLACK
6
CONTINUOUS
10
0.6231064173228347
20
1.0653713779527558
11
0.6230314960629921
21
1.065748031496063
0
LINE
8
BLACK
6
CONTINUOUS
10
0.6230314960629921
20
1.065748031496063
11
0.6230314960629921
21
1.1198818897637794
0
LINE
8
BLACK
6
CONTINUOUS
10
0.6230314960629921
20
1.1198818897637794
11
0.610236220472441
21
1.1198818897637794
0
LINE
8
BLACK
6
CONTINUOUS
10
0.610236220472441
20
1.1198818897637794
11
0.6098595669291338
21
1.119956811023622
0
LINE
8
BLACK
6
CONTINUOUS
10
0.6098595669291338
20
1.119956811023622
11
0.6093268897637795
21
1.1204894881889764
0
LINE
8
BLACK
6
CONTINUOUS
10
0.6093268897637795
20
1.1204894881889764
11
0.609251968503937
21
1.1208661417322834
0
LINE
8
BLACK
6
CONTINUOUS
10
0.609251968503937
20
1.1208661417322834
11
0.609251968503937
21
1.3137795275590551
0
LINE
8
BLACK
6
CONTINUOUS
10
0.609251968503937
20
1.3137795275590551
11
0.6093268897637795
21
1.3141561811023621
0
LINE
8
BLACK
6
CONTINUOUS
10
0.6093268897637795
20
1.3141561811023621
11
0.6098595669291338
21
1.3146888582677165
0
LINE
8
BLACK
6
CONTINUOUS
10
0.6098595669291338
20
1.3146888582677165
11
0.610236220472441
21
1.3147637795275591
0
LINE
8
BLACK
6
CONTINUOUS
10
0.610236220472441
20
1.3147637795275591
11
0.6230314960629921
21
1.3147637795275591
0
LINE
8
BLACK
6
CONTINUOUS
10
0.6230314960629921
20
1.3147637795275591
11
0.6230314960629921
21
1.3688976377952755
0
LINE
8
BLACK
6
CONTINUOUS
10
0.6230314960629921
20
1.3688976377952755
11
0.6231064173228347
21
1.3692742913385827
0
LINE
8
BLACK
6
CONTINUOUS
10
0.6231064173228347
20
1.3692742913385827
11
0.623639094488189
21
1.3698069685039369
0
LINE
8
BLACK
6
CONTINUOUS
10
0.623639094488189
20
1.3698069685039369
11
0.6240157480314961
21
1.3698818897637794
0
LINE
8
BLACK
6
CONTINUOUS
10
0.6240157480314961
20
1.3698818897637794
11
0.812992125984252
21
1.3698818897637794
0
LINE
8
BLACK
6
CONTINUOUS
10
0.812992125984252
20
1.3698818897637794
11
0.813368779527559
21
1.3698069685039369
0
LINE
8
BLACK
6
CONTINUOUS
10
0.625
20
1.3679133858267716
11
0.625
21
1.3137795275590551
0
LINE
8
BLACK
6
CONTINUOUS
10
0.625
20
1.3137795275590551
11
0.6249250787401575
21
1.313402874015748
0
LINE
8
BLACK
6
CONTINUOUS
10
0.6249250787401575
20
1.313402874015748
11
0.6243924015748031
21
1.3128701968503937
0
LINE
8
BLACK
6
CONTINUOUS
10
0.6243924015748031
20
1.3128701968503937
11
0.6240157480314961
21
1.3127952755905512
0
LINE
8
BLACK
6
CONTINUOUS
10
0.6240157480314961
20
1.3127952755905512
11
0.6112204724409449
21
1.3127952755905512
0
LINE
8
BLACK
6
CONTINUOUS
10
0.6112204724409449
20
1.3127952755905512
11
0.6112204724409449
21
1.1218503937007873
0
LINE
8
BLACK
6
CONTINUOUS
10
0.6112204724409449
20
1.1218503937007873
11
0.6240157480314961
21
1.1218503937007873
0
LINE
8
BLACK
6
CONTINUOUS
10
0.6240157480314961
20
1.1218503937007873
11
0.6243924015748031
21
1.1217754724409448
0
LINE
8
BLACK
6
CONTINUOUS
10
0.6243924015748031
20
1.1217754724409448
11
0.6249250787401575
21
1.1212427952755906
0
LINE
8
BLACK
6
CONTINUOUS
10
0.6249250787401575
20
1.1212427952755906
11
0.625
21
1.1208661417322834
0
LINE
8
BLACK
6
CONTINUOUS
10
0.625
20
1.1208661417322834
11
0.625
21
1.0667322834645669
0
LINE
8
BLACK
6
CONTINUOUS
10
0.625
20
1.0667322834645669
11
0.812007874015748
21
1.0667322834645669
0
LINE
8
BLACK
6
CONTINUOUS
10
0.812007874015748
20
1.0667322834645669
11
0.812007874015748
21
1.1208661417322834
0
LINE
8
BLACK
6
CONTINUOUS
10
0.812007874015748
20
1.1208661417322834
11
0.8120827952755906
21
1.1212427952755906
0
LINE
8
BLACK
6
CONTINUOUS
10
0.8120827952755906
20
1.1212427952755906
11
0.8126154724409449
21
1.1217754724409448
0
LINE
8
BLACK
6
CONTINUOUS
10
0.8126154724409449
20
1.1217754724409448
11
0.812992125984252
21
1.1218503937007873
0
LINE
8
BLACK
6
CONTINUOUS
10
0.812992125984252
20
1.1218503937007873
11
0.8257874015748031
21
1.1218503937007873
0
LINE
8
BLACK
6
CONTINUOUS
10
0.8257874015748031
20
1.1218503937007873
11
0.8257874015748031
21
1.3127952755905512
0
LINE
8
BLACK
6
CONTINUOUS
10
0.8257874015748031
20
1.3127952755905512
11
0.812992125984252
21
1.3127952755905512
0
LINE
8
BLACK
6
CONTINUOUS
10
0.812992125984252
20
1.3127952755905512
11
0.8126154724409449
21
1.3128701968503937
0
LINE
8
BLACK
6
CONTINUOUS
10
0.8126154724409449
20
1.3128701968503937
11
0.8120827952755906
21
1.313402874015748
0
LINE
8
BLACK
6
CONTINUOUS
10
0.8120827952755906
20
1.313402874015748
11
0.812007874015748
21
1.3137795275590551
0
LINE
8
BLACK
6
CONTINUOUS
10
0.812007874015748
20
1.3137795275590551
11
0.812007874015748
21
1.3679133858267716
0
LINE
8
BLACK
6
CONTINUOUS
10
0.812007874015748
20
1.3679133858267716
11
0.625
21
1.3679133858267716
0
LINE
8
BLACK
6
CONTINUOUS
10
1.1289775590551181
20
1.5511505511811023
11
1.1292968897637794
21
1.5509372047244094
0
LINE
8
BLACK
6
CONTINUOUS
10
1.1292968897637794
20
1.5509372047244094
11
1.1699416141732284
21
1.5102924803149607
0
LINE
8
BLACK
6
CONTINUOUS
10
1.1699416141732284
20
1.5102924803149607
11
1.1701549606299213
21
1.5099731496062991
0
LINE
8
BLACK
6
CONTINUOUS
10
1.1701549606299213
20
1.5099731496062991
11
1.1701549606299213
21
1.509219842519685
0
LINE
8
BLACK
6
CONTINUOUS
10
1.1701549606299213
20
1.509219842519685
11
1.1699416141732284
21
1.5089005118110237
0
LINE
8
BLACK
6
CONTINUOUS
10
1.1699416141732284
20
1.5089005118110237
11
1.0875386220472441
21
1.4264975196850394
0
LINE
8
BLACK
6
CONTINUOUS
10
1.0875386220472441
20
1.4264975196850394
11
1.0872192913385827
21
1.4262841732283464
0
LINE
8
BLACK
6
CONTINUOUS
10
1.0872192913385827
20
1.4262841732283464
11
1.0864659842519684
21
1.4262841732283464
0
LINE
8
BLACK
6
CONTINUOUS
10
1.0864659842519684
20
1.4262841732283464
11
1.0861466535433071
21
1.4264975196850394
0
LINE
8
BLACK
6
CONTINUOUS
10
1.0861466535433071
20
1.4264975196850394
11
1.0455019291338583
21
1.4671422440944881
0
LINE
8
BLACK
6
CONTINUOUS
10
1.0455019291338583
20
1.4671422440944881
11
1.0452885826771654
21
1.4674615748031496
0
LINE
8
BLACK
6
CONTINUOUS
10
1.0452885826771654
20
1.4674615748031496
11
1.0452885826771654
21
1.4682148818897638
0
LINE
8
BLACK
6
CONTINUOUS
10
1.0452885826771654
20
1.4682148818897638
11
1.0455019291338583
21
1.4685342125984251
0
LINE
8
BLACK
6
CONTINUOUS
10
1.0455019291338583
20
1.4685342125984251
11
1.1279049212598424
21
1.5509372047244094
0
LINE
8
BLACK
6
CONTINUOUS
10
1.1279049212598424
20
1.5509372047244094
11
1.128224251968504
21
1.5511505511811023
0
LINE
8
BLACK
6
CONTINUOUS
10
1.128224251968504
20
1.5511505511811023
11
1.1289775590551181
21
1.5511505511811023
0
LINE
8
BLACK
6
CONTINUOUS
10
1.0475898818897638
20
1.4678382283464566
11
1.0868426377952756
21
1.4285854724409448
0
LINE
8
BLACK
6
CONTINUOUS
10
1.0868426377952756
20
1.4285854724409448
11
1.1678536614173227
21
1.5095964960629922
0
LINE
8
BLACK
6
CONTINUOUS
10
1.1678536614173227
20
1.5095964960629922
11
1.1286009055118109
21
1.548849251968504
0
LINE
8
BLACK
6
CONTINUOUS
10
1.1286009055118109
20
1.548849251968504
11
1.0475898818897638
21
1.4678382283464566
0
LINE
8
BLACK
6
CONTINUOUS
10
-0.1025258661417323
20
1.5655737007874015
11
-0.0950346062992126
21
1.5631396062992127
0
LINE
8
BLACK
6
CONTINUOUS
10
-0.0950346062992126
20
1.5631396062992127
11
-0.0880162992125984
21
1.559563622047244
0
LINE
8
BLACK
6
CONTINUOUS
10
-0.0880162992125984
20
1.559563622047244
11
-0.0816438582677165
21
1.5549337795275591
0
LINE
8
BLACK
6
CONTINUOUS
10
-0.0816438582677165
20
1.5549337795275591
11
-0.076074094488189
21
1.5493640157480315
0
LINE
8
BLACK
6
CONTINUOUS
10
-0.076074094488189
20
1.5493640157480315
11
-0.0714442519685039
21
1.5429915748031495
0
LINE
8
BLACK
6
CONTINUOUS
10
-0.0714442519685039
20
1.5429915748031495
11
-0.0678682677165354
21
1.5359732677165354
0
LINE
8
BLACK
6
CONTINUOUS
10
-0.0678682677165354
20
1.5359732677165354
11
-0.0654341732283465
21
1.5284820078740158
0
LINE
8
BLACK
6
CONTINUOUS
10
-0.0654341732283465
20
1.5284820078740158
11
-0.064201968503937
21
1.5207021653543307
0
LINE
8
BLACK
6
CONTINUOUS
10
-0.064201968503937
20
1.5207021653543307
11
-0.064201968503937
21
1.5128253937007874
0
LINE
8
BLACK
6
CONTINUOUS
10
-0.064201968503937
20
1.5128253937007874
11
-0.0654341732283465
21
1.5050455511811023
0
LINE
8
BLACK
6
CONTINUOUS
10
-0.0654341732283465
20
1.5050455511811023
11
-0.0678682677165354
21
1.4975542913385826
0
LINE
8
BLACK
6
CONTINUOUS
10
-0.0678682677165354
20
1.4975542913385826
11
-0.0714442519685039
21
1.4905359842519685
0
LINE
8
BLACK
6
CONTINUOUS
10
-0.0714442519685039
20
1.4905359842519685
11
-0.076074094488189
21
1.4841635433070866
0
LINE
8
BLACK
6
CONTINUOUS
10
-0.076074094488189
20
1.4841635433070866
11
-0.0816438582677165
21
1.478593779527559
0
LINE
8
BLACK
6
CONTINUOUS
10
-0.0816438582677165
20
1.478593779527559
11
-0.0880162992125984
21
1.4739639370078741
0
LINE
8
BLACK
6
CONTINUOUS
10
-0.0880162992125984
20
1.4739639370078741
11
-0.0950346062992126
21
1.4703879527559054
0
LINE
8
BLACK
6
CONTINUOUS
10
-0.0950346062992126
20
1.4703879527559054
11
-0.1025258661417323
21
1.4679538582677165
0
LINE
8
BLACK
6
CONTINUOUS
10
-0.1025258661417323
20
1.4679538582677165
11
-0.1103057086614173
21
1.466721653543307
0
LINE
8
BLACK
6
CONTINUOUS
10
-0.1103057086614173
20
1.466721653543307
11
-0.1181824803149606
21
1.466721653543307
0
LINE
8
BLACK
6
CONTINUOUS
10
-0.1181824803149606
20
1.466721653543307
11
-0.1259623228346457
21
1.4679538582677165
0
LINE
8
BLACK
6
CONTINUOUS
10
-0.1259623228346457
20
1.4679538582677165
11
-0.1334535826771653
21
1.4703879527559054
0
LINE
8
BLACK
6
CONTINUOUS
10
-0.1334535826771653
20
1.4703879527559054
11
-0.1404718897637795
21
1.4739639370078741
0
LINE
8
BLACK
6
CONTINUOUS
10
-0.1404718897637795
20
1.4739639370078741
11
-0.1468443307086614
21
1.478593779527559
0
LINE
8
BLACK
6
CONTINUOUS
10
-0.1468443307086614
20
1.478593779527559
11
-0.152414094488189
21
1.4841635433070866
0
LINE
8
BLACK
6
CONTINUOUS
10
-0.152414094488189
20
1.4841635433070866
11
-0.157043937007874
21
1.4905359842519685
0
LINE
8
BLACK
6
CONTINUOUS
10
-0.157043937007874
20
1.4905359842519685
11
-0.1606199212598425
21
1.4975542913385826
0
LINE
8
BLACK
6
CONTINUOUS
10
-0.1606199212598425
20
1.4975542913385826
11
-0.1630540157480315
21
1.5050455511811023
0
LINE
8
BLACK
6
CONTINUOUS
10
-0.1630540157480315
20
1.5050455511811023
11
-0.1642862204724409
21
1.5128253937007874
0
LINE
8
BLACK
6
CONTINUOUS
10
-0.1642862204724409
20
1.5128253937007874
11
-0.1642862204724409
21
1.5205594488188976
0
LINE
8
BLACK
6
CONTINUOUS
10
-0.1642862204724409
20
1.5205594488188976
11
-0.1642862204724409
21
1.5207021653543307
0
LINE
8
BLACK
6
CONTINUOUS
10
-0.1642862204724409
20
1.5207021653543307
11
-0.1630540157480315
21
1.5284820078740158
0
LINE
8
BLACK
6
CONTINUOUS
10
-0.1630540157480315
20
1.5284820078740158
11
-0.1606199212598425
21
1.5359732677165354
0
LINE
8
BLACK
6
CONTINUOUS
10
-0.1606199212598425
20
1.5359732677165354
11
-0.157043937007874
21
1.5429915748031495
0
LINE
8
BLACK
6
CONTINUOUS
10
-0.157043937007874
20
1.5429915748031495
11
-0.152414094488189
21
1.5493640157480315
0
LINE
8
BLACK
6
CONTINUOUS
10
-0.152414094488189
20
1.5493640157480315
11
-0.1468443307086614
21
1.5549337795275591
0
LINE
8
BLACK
6
CONTINUOUS
10
-0.1468443307086614
20
1.5549337795275591
11
-0.1404718897637795
21
1.559563622047244
0
LINE
8
BLACK
6
CONTINUOUS
10
-0.1404718897637795
20
1.559563622047244
11
-0.1334535826771653
21
1.5631396062992127
0
LINE
8
BLACK
6
CONTINUOUS
10
-0.1334535826771653
20
1.5631396062992127
11
-0.1259623228346457
21
1.5655737007874015
0
LINE
8
BLACK
6
CONTINUOUS
10
-0.1259623228346457
20
1.5655737007874015
11
-0.1181824803149606
21
1.5668059055118111
0
LINE
8
BLACK
6
CONTINUOUS
10
-0.1181824803149606
20
1.5668059055118111
11
-0.1103057086614173
21
1.5668059055118111
0
LINE
8
BLACK
6
CONTINUOUS
10
-0.1103057086614173
20
1.5668059055118111
11
-0.1025258661417323
21
1.5655737007874015
0
LINE
8
BLACK
6
CONTINUOUS
10
-0.1624724409448819
20
1.5129681102362205
11
-0.1612848818897638
21
1.5054702755905511
0
LINE
8
BLACK
6
CONTINUOUS
10
-0.1612848818897638
20
1.5054702755905511
11
-0.1589390551181102
21
1.4982505118110236
0
LINE
8
BLACK
6
CONTINUOUS
10
-0.1589390551181102
20
1.4982505118110236
11
-0.1554926771653543
21
1.4914866141732284
0
LINE
8
BLACK
6
CONTINUOUS
10
-0.1554926771653543
20
1.4914866141732284
11
-0.1510306299212598
21
1.4853451181102362
0
LINE
8
BLACK
6
CONTINUOUS
10
-0.1510306299212598
20
1.4853451181102362
11
-0.1456627559055118
21
1.4799772440944881
0
LINE
8
BLACK
6
CONTINUOUS
10
-0.1456627559055118
20
1.4799772440944881
11
-0.1395212598425197
21
1.4755151968503937
0
LINE
8
BLACK
6
CONTINUOUS
10
-0.1395212598425197
20
1.4755151968503937
11
-0.1327573622047244
21
1.4720688188976379
0
LINE
8
BLACK
6
CONTINUOUS
10
-0.1327573622047244
20
1.4720688188976379
11
-0.1255375984251969
21
1.4697229921259842
0
LINE
8
BLACK
6
CONTINUOUS
10
-0.1255375984251969
20
1.4697229921259842
11
-0.1180397637795276
21
1.4685354330708662
0
LINE
8
BLACK
6
CONTINUOUS
10
-0.1180397637795276
20
1.4685354330708662
11
-0.1104484251968504
21
1.4685354330708662
0
LINE
8
BLACK
6
CONTINUOUS
10
-0.1104484251968504
20
1.4685354330708662
11
-0.1029505905511811
21
1.4697229921259842
0
LINE
8
BLACK
6
CONTINUOUS
10
-0.1029505905511811
20
1.4697229921259842
11
-0.0957308267716535
21
1.4720688188976379
0
LINE
8
BLACK
6
CONTINUOUS
10
-0.0957308267716535
20
1.4720688188976379
11
-0.0889669291338583
21
1.4755151968503937
0
LINE
8
BLACK
6
CONTINUOUS
10
-0.0889669291338583
20
1.4755151968503937
11
-0.0828254330708661
21
1.4799772440944881
0
LINE
8
BLACK
6
CONTINUOUS
10
-0.0828254330708661
20
1.4799772440944881
11
-0.0774575590551181
21
1.4853451181102362
0
LINE
8
BLACK
6
CONTINUOUS
10
-0.0774575590551181
20
1.4853451181102362
11
-0.0729955118110236
21
1.4914866141732284
0
LINE
8
BLACK
6
CONTINUOUS
10
-0.0729955118110236
20
1.4914866141732284
11
-0.0695491338582677
21
1.4982505118110236
0
LINE
8
BLACK
6
CONTINUOUS
10
-0.0695491338582677
20
1.4982505118110236
11
-0.0672033070866142
21
1.5054702755905511
0
LINE
8
BLACK
6
CONTINUOUS
10
-0.0672033070866142
20
1.5054702755905511
11
-0.0660157480314961
21
1.5129681102362205
0
LINE
8
BLACK
6
CONTINUOUS
10
-0.0660157480314961
20
1.5129681102362205
11
-0.0660157480314961
21
1.5205594488188976
0
LINE
8
BLACK
6
CONTINUOUS
10
-0.0660157480314961
20
1.5205594488188976
11
-0.0672033070866142
21
1.5280572834645669
0
LINE
8
BLACK
6
CONTINUOUS
10
-0.0672033070866142
20
1.5280572834645669
11
-0.0695491338582677
21
1.5352770472440944
0
LINE
8
BLACK
6
CONTINUOUS
10
-0.0695491338582677
20
1.5352770472440944
11
-0.0729955118110236
21
1.5420409448818897
0
LINE
8
BLACK
6
CONTINUOUS
10
-0.0729955118110236
20
1.5420409448818897
11
-0.0774575590551181
21
1.5481824409448819
0
LINE
8
BLACK
6
CONTINUOUS
10
-0.0774575590551181
20
1.5481824409448819
11
-0.0828254330708661
21
1.5535503149606298
0
LINE
8
BLACK
6
CONTINUOUS
10
-0.0828254330708661
20
1.5535503149606298
11
-0.0889669291338583
21
1.5580123622047244
0
LINE
8
BLACK
6
CONTINUOUS
10
-0.0889669291338583
20
1.5580123622047244
11
-0.0957308267716535
21
1.5614587401574802
0
LINE
8
BLACK
6
CONTINUOUS
10
-0.0957308267716535
20
1.5614587401574802
11
-0.1029505905511811
21
1.5638045669291338
0
LINE
8
BLACK
6
CONTINUOUS
10
-0.1029505905511811
20
1.5638045669291338
11
-0.1104484251968504
21
1.5649921259842519
0
LINE
8
BLACK
6
CONTINUOUS
10
-0.1104484251968504
20
1.5649921259842519
11
-0.1180397637795276
21
1.5649921259842519
0
LINE
8
BLACK
6
CONTINUOUS
10
-0.1180397637795276
20
1.5649921259842519
11
-0.1255375984251969
21
1.5638045669291338
0
LINE
8
BLACK
6
CONTINUOUS
10
-0.1255375984251969
20
1.5638045669291338
11
-0.1327573622047244
21
1.5614587401574802
0
LINE
8
BLACK
6
CONTINUOUS
10
-0.1327573622047244
20
1.5614587401574802
11
-0.1395212598425197
21
1.5580123622047244
0
LINE
8
BLACK
6
CONTINUOUS
10
-0.1395212598425197
20
1.5580123622047244
11
-0.1456627559055118
21
1.5535503149606298
0
LINE
8
BLACK
6
CONTINUOUS
10
-0.1456627559055118
20
1.5535503149606298
11
-0.1510306299212598
21
1.5481824409448819
0
LINE
8
BLACK
6
CONTINUOUS
10
-0.1510306299212598
20
1.5481824409448819
11
-0.1554926771653543
21
1.5420409448818897
0
LINE
8
BLACK
6
CONTINUOUS
10
-0.1554926771653543
20
1.5420409448818897
11
-0.1589390551181102
21
1.5352770472440944
0
LINE
8
BLACK
6
CONTINUOUS
10
-0.1589390551181102
20
1.5352770472440944
11
-0.1612848818897638
21
1.5280572834645669
0
LINE
8
BLACK
6
CONTINUOUS
10
-0.1612848818897638
20
1.5280572834645669
11
-0.1624724409448819
21
1.5205594488188976
0
LINE
8
BLACK
6
CONTINUOUS
10
-0.1624724409448819
20
1.5205594488188976
11
-0.1624724409448819
21
1.5129681102362205
0
LINE
8
BLACK
6
CONTINUOUS
10
1.0290068897637794
20
1.6459271259842518
11
1.0293262204724409
21
1.6457137795275589
0
LINE
8
BLACK
6
CONTINUOUS
10
1.0293262204724409
20
1.6457137795275589
11
1.1239783070866141
21
1.5510616929133858
0
LINE
8
BLACK
6
CONTINUOUS
10
1.1239783070866141
20
1.5510616929133858
11
1.124191653543307
21
1.5507423622047243
0
LINE
8
BLACK
6
CONTINUOUS
10
1.124191653543307
20
1.5507423622047243
11
1.124191653543307
21
1.5499890551181101
0
LINE
8
BLACK
6
CONTINUOUS
10
1.124191653543307
20
1.5499890551181101
11
1.1239783070866141
21
1.5496697244094488
0
LINE
8
BLACK
6
CONTINUOUS
10
1.1239783070866141
20
1.5496697244094488
11
1.046029527559055
21
1.4717209448818898
0
LINE
8
BLACK
6
CONTINUOUS
10
1.046029527559055
20
1.4717209448818898
11
1.0457101968503937
21
1.4715075984251968
0
LINE
8
BLACK
6
CONTINUOUS
10
1.0457101968503937
20
1.4715075984251968
11
1.0449568897637795
21
1.4715075984251968
0
LINE
8
BLACK
6
CONTINUOUS
10
1.0449568897637795
20
1.4715075984251968
11
1.044637559055118
21
1.4717209448818898
0
LINE
8
BLACK
6
CONTINUOUS
10
1.044637559055118
20
1.4717209448818898
11
0.9499854724409449
21
1.5663730314960629
0
LINE
8
BLACK
6
CONTINUOUS
10
0.9499854724409449
20
1.5663730314960629
11
0.949772125984252
21
1.5666923622047244
0
LINE
8
BLACK
6
CONTINUOUS
10
0.949772125984252
20
1.5666923622047244
11
0.949772125984252
21
1.5674456692913386
0
LINE
8
BLACK
6
CONTINUOUS
10
0.949772125984252
20
1.5674456692913386
11
0.9499854724409449
21
1.5677650000000001
0
LINE
8
BLACK
6
CONTINUOUS
10
0.9499854724409449
20
1.5677650000000001
11
1.027934251968504
21
1.6457137795275589
0
LINE
8
BLACK
6
CONTINUOUS
10
1.027934251968504
20
1.6457137795275589
11
1.0282535826771653
21
1.6459271259842518
0
LINE
8
BLACK
6
CONTINUOUS
10
1.0282535826771653
20
1.6459271259842518
11
1.0290068897637794
21
1.6459271259842518
0
LINE
8
BLACK
6
CONTINUOUS
10
0.9520734251968503
20
1.5670690157480314
11
1.0453335433070865
21
1.4738088976377952
0
LINE
8
BLACK
6
CONTINUOUS
10
1.0453335433070865
20
1.4738088976377952
11
1.1218903543307086
21
1.5503657086614173
0
LINE
8
BLACK
6
CONTINUOUS
10
1.1218903543307086
20
1.5503657086614173
11
1.0286302362204724
21
1.6436258267716535
0
LINE
8
BLACK
6
CONTINUOUS
10
1.0286302362204724
20
1.6436258267716535
11
0.9520734251968503
21
1.5670690157480314
0
LINE
8
BLACK
6
CONTINUOUS
10
1.6039199606299213
20
1.5453975196850394
11
1.6044526377952755
21
1.5448648425196849
0
LINE
8
BLACK
6
CONTINUOUS
10
1.6044526377952755
20
1.5448648425196849
11
1.604527559055118
21
1.544488188976378
0
LINE
8
BLACK
6
CONTINUOUS
10
1.604527559055118
20
1.544488188976378
11
1.604527559055118
21
1.487007874015748
0
LINE
8
BLACK
6
CONTINUOUS
10
1.604527559055118
20
1.487007874015748
11
1.6044526377952755
21
1.486631220472441
0
LINE
8
BLACK
6
CONTINUOUS
10
1.6044526377952755
20
1.486631220472441
11
1.6039199606299213
21
1.4860985433070866
0
LINE
8
BLACK
6
CONTINUOUS
10
1.6039199606299213
20
1.4860985433070866
11
1.6035433070866141
21
1.486023622047244
0
LINE
8
BLACK
6
CONTINUOUS
10
1.6035433070866141
20
1.486023622047244
11
1.487007874015748
21
1.486023622047244
0
LINE
8
BLACK
6
CONTINUOUS
10
1.487007874015748
20
1.486023622047244
11
1.486631220472441
21
1.4860985433070866
0
LINE
8
BLACK
6
CONTINUOUS
10
1.486631220472441
20
1.4860985433070866
11
1.4860985433070866
21
1.486631220472441
0
LINE
8
BLACK
6
CONTINUOUS
10
1.4860985433070866
20
1.486631220472441
11
1.486023622047244
21
1.487007874015748
0
LINE
8
BLACK
6
CONTINUOUS
10
1.486023622047244
20
1.487007874015748
11
1.486023622047244
21
1.544488188976378
0
LINE
8
BLACK
6
CONTINUOUS
10
1.486023622047244
20
1.544488188976378
11
1.4860985433070866
21
1.5448648425196849
0
LINE
8
BLACK
6
CONTINUOUS
10
1.4860985433070866
20
1.5448648425196849
11
1.486631220472441
21
1.5453975196850394
0
LINE
8
BLACK
6
CONTINUOUS
10
1.486631220472441
20
1.5453975196850394
11
1.487007874015748
21
1.5454724409448819
0
LINE
8
BLACK
6
CONTINUOUS
10
1.487007874015748
20
1.5454724409448819
11
1.6035433070866141
21
1.5454724409448819
0
LINE
8
BLACK
6
CONTINUOUS
10
1.6035433070866141
20
1.5454724409448819
11
1.6039199606299213
21
1.5453975196850394
0
LINE
8
BLACK
6
CONTINUOUS
10
1.4879921259842519
20
1.543503937007874
11
1.4879921259842519
21
1.4879921259842519
0
LINE
8
BLACK
6
CONTINUOUS
10
1.4879921259842519
20
1.4879921259842519
11
1.6025590551181101
21
1.4879921259842519
0
LINE
8
BLACK
6
CONTINUOUS
10
1.6025590551181101
20
1.4879921259842519
11
1.6025590551181101
21
1.543503937007874
0
LINE
8
BLACK
6
CONTINUOUS
10
1.6025590551181101
20
1.543503937007874
11
1.4879921259842519
21
1.543503937007874
0
LINE
8
BLACK
6
CONTINUOUS
10
1.0780178346456692
20
1.6811505511811022
11
1.0783371653543308
21
1.6809372047244093
0
LINE
8
BLACK
6
CONTINUOUS
10
1.0783371653543308
20
1.6809372047244093
11
1.1607401574803149
21
1.5985342125984252
0
LINE
8
BLACK
6
CONTINUOUS
10
1.1607401574803149
20
1.5985342125984252
11
1.1609535039370078
21
1.5982148818897637
0
LINE
8
BLACK
6
CONTINUOUS
10
1.1609535039370078
20
1.5982148818897637
11
1.1609535039370078
21
1.5974615748031495
0
LINE
8
BLACK
6
CONTINUOUS
10
1.1609535039370078
20
1.5974615748031495
11
1.1607401574803149
21
1.5971422440944882
0
LINE
8
BLACK
6
CONTINUOUS
10
1.1607401574803149
20
1.5971422440944882
11
1.1200954330708661
21
1.5564975196850392
0
LINE
8
BLACK
6
CONTINUOUS
10
1.1200954330708661
20
1.5564975196850392
11
1.1197761023622046
21
1.5562841732283463
0
LINE
8
BLACK
6
CONTINUOUS
10
1.1197761023622046
20
1.5562841732283463
11
1.1190227952755905
21
1.5562841732283463
0
LINE
8
BLACK
6
CONTINUOUS
10
1.1190227952755905
20
1.5562841732283463
11
1.1187034645669292
21
1.5564975196850392
0
LINE
8
BLACK
6
CONTINUOUS
10
1.1187034645669292
20
1.5564975196850392
11
1.0363004724409448
21
1.6389005118110236
0
LINE
8
BLACK
6
CONTINUOUS
10
1.0363004724409448
20
1.6389005118110236
11
1.0360871259842519
21
1.6392198425196851
0
LINE
8
BLACK
6
CONTINUOUS
10
1.0360871259842519
20
1.6392198425196851
11
1.0360871259842519
21
1.6399731496062993
0
LINE
8
BLACK
6
CONTINUOUS
10
1.0360871259842519
20
1.6399731496062993
11
1.0363004724409448
21
1.6402924803149606
0
LINE
8
BLACK
6
CONTINUOUS
10
1.0363004724409448
20
1.6402924803149606
11
1.0769451968503936
21
1.6809372047244093
0
LINE
8
BLACK
6
CONTINUOUS
10
1.0769451968503936
20
1.6809372047244093
11
1.0772645275590551
21
1.6811505511811022
0
LINE
8
BLACK
6
CONTINUOUS
10
1.0772645275590551
20
1.6811505511811022
11
1.0780178346456692
21
1.6811505511811022
0
LINE
8
BLACK
6
CONTINUOUS
10
1.0383884251968503
20
1.6395964960629921
11
1.1193994488188976
21
1.5585854724409449
0
LINE
8
BLACK
6
CONTINUOUS
10
1.1193994488188976
20
1.5585854724409449
11
1.1586522047244094
21
1.5978382283464567
0
LINE
8
BLACK
6
CONTINUOUS
10
1.1586522047244094
20
1.5978382283464567
11
1.0776411811023623
21
1.6788492519685039
0
LINE
8
BLACK
6
CONTINUOUS
10
1.0776411811023623
20
1.6788492519685039
11
1.0383884251968503
21
1.6395964960629921
0
LINE
8
BLACK
6
CONTINUOUS
10
-0.1025258661417323
20
1.7053374803149606
11
-0.0950346062992126
21
1.7029033858267717
0
LINE
8
BLACK
6
CONTINUOUS
10
-0.0950346062992126
20
1.7029033858267717
11
-0.0880162992125984
21
1.6993274015748032
0
LINE
8
BLACK
6
CONTINUOUS
10
-0.0880162992125984
20
1.6993274015748032
11
-0.0816438582677165
21
1.6946975590551181
0
LINE
8
BLACK
6
CONTINUOUS
10
-0.0816438582677165
20
1.6946975590551181
11
-0.076074094488189
21
1.6891277952755905
0
LINE
8
BLACK
6
CONTINUOUS
10
-0.076074094488189
20
1.6891277952755905
11
-0.0714442519685039
21
1.6827553543307086
0
LINE
8
BLACK
6
CONTINUOUS
10
-0.0714442519685039
20
1.6827553543307086
11
-0.0678682677165354
21
1.6757370472440944
0
LINE
8
BLACK
6
CONTINUOUS
10
-0.0678682677165354
20
1.6757370472440944
11
-0.0654341732283465
21
1.6682457874015748
0
LINE
8
BLACK
6
CONTINUOUS
10
-0.0654341732283465
20
1.6682457874015748
11
-0.064201968503937
21
1.6604659448818897
0
LINE
8
BLACK
6
CONTINUOUS
10
-0.064201968503937
20
1.6604659448818897
11
-0.064201968503937
21
1.6525891732283464
0
LINE
8
BLACK
6
CONTINUOUS
10
-0.064201968503937
20
1.6525891732283464
11
-0.0654341732283465
21
1.6448093307086613
0
LINE
8
BLACK
6
CONTINUOUS
10
-0.0654341732283465
20
1.6448093307086613
11
-0.0678682677165354
21
1.6373180708661417
0
LINE
8
BLACK
6
CONTINUOUS
10
-0.0678682677165354
20
1.6373180708661417
11
-0.0714442519685039
21
1.6302997637795276
0
LINE
8
BLACK
6
CONTINUOUS
10
-0.0714442519685039
20
1.6302997637795276
11
-0.076074094488189
21
1.6239273228346456
0
LINE
8
BLACK
6
CONTINUOUS
10
-0.076074094488189
20
1.6239273228346456
11
-0.0816438582677165
21
1.618357559055118
0
LINE
8
BLACK
6
CONTINUOUS
10
-0.0816438582677165
20
1.618357559055118
11
-0.0880162992125984
21
1.6137277165354331
0
LINE
8
BLACK
6
CONTINUOUS
10
-0.0880162992125984
20
1.6137277165354331
11
-0.0950346062992126
21
1.6101517322834644
0
LINE
8
BLACK
6
CONTINUOUS
10
-0.0950346062992126
20
1.6101517322834644
11
-0.1025258661417323
21
1.6077176377952755
0
LINE
8
BLACK
6
CONTINUOUS
10
-0.1025258661417323
20
1.6077176377952755
11
-0.1103057086614173
21
1.606485433070866
0
LINE
8
BLACK
6
CONTINUOUS
10
-0.1103057086614173
20
1.606485433070866
11
-0.1181824803149606
21
1.606485433070866
0
LINE
8
BLACK
6
CONTINUOUS
10
-0.1181824803149606
20
1.606485433070866
11
-0.1259623228346457
21
1.6077176377952755
0
LINE
8
BLACK
6
CONTINUOUS
10
-0.1259623228346457
20
1.6077176377952755
11
-0.1334535826771653
21
1.6101517322834644
0
LINE
8
BLACK
6
CONTINUOUS
10
-0.1334535826771653
20
1.6101517322834644
11
-0.1404718897637795
21
1.6137277165354331
0
LINE
8
BLACK
6
CONTINUOUS
10
-0.1404718897637795
20
1.6137277165354331
11
-0.1468443307086614
21
1.618357559055118
0
LINE
8
BLACK
6
CONTINUOUS
10
-0.1468443307086614
20
1.618357559055118
11
-0.152414094488189
21
1.6239273228346456
0
LINE
8
BLACK
6
CONTINUOUS
10
-0.152414094488189
20
1.6239273228346456
11
-0.157043937007874
21
1.6302997637795276
0
LINE
8
BLACK
6
CONTINUOUS
10
-0.157043937007874
20
1.6302997637795276
11
-0.1606199212598425
21
1.6373180708661417
0
LINE
8
BLACK
6
CONTINUOUS
10
-0.1606199212598425
20
1.6373180708661417
11
-0.1630540157480315
21
1.6448093307086613
0
LINE
8
BLACK
6
CONTINUOUS
10
-0.1630540157480315
20
1.6448093307086613
11
-0.1642862204724409
21
1.6525891732283464
0
LINE
8
BLACK
6
CONTINUOUS
10
-0.1642862204724409
20
1.6525891732283464
11
-0.1642862204724409
21
1.6603232283464566
0
LINE
8
BLACK
6
CONTINUOUS
10
-0.1642862204724409
20
1.6603232283464566
11
-0.1642862204724409
21
1.6604659448818897
0
LINE
8
BLACK
6
CONTINUOUS
10
-0.1642862204724409
20
1.6604659448818897
11
-0.1630540157480315
21
1.6682457874015748
0
LINE
8
BLACK
6
CONTINUOUS
10
-0.1630540157480315
20
1.6682457874015748
11
-0.1606199212598425
21
1.6757370472440944
0
LINE
8
BLACK
6
CONTINUOUS
10
-0.1606199212598425
20
1.6757370472440944
11
-0.157043937007874
21
1.6827553543307086
0
LINE
8
BLACK
6
CONTINUOUS
10
-0.157043937007874
20
1.6827553543307086
11
-0.152414094488189
21
1.6891277952755905
0
LINE
8
BLACK
6
CONTINUOUS
10
-0.152414094488189
20
1.6891277952755905
11
-0.1468443307086614
21
1.6946975590551181
0
LINE
8
BLACK
6
CONTINUOUS
10
-0.1468443307086614
20
1.6946975590551181
11
-0.1404718897637795
21
1.6993274015748032
0
LINE
8
BLACK
6
CONTINUOUS
10
-0.1404718897637795
20
1.6993274015748032
11
-0.1334535826771653
21
1.7029033858267717
0
LINE
8
BLACK
6
CONTINUOUS
10
-0.1334535826771653
20
1.7029033858267717
11
-0.1259623228346457
21
1.7053374803149606
0
LINE
8
BLACK
6
CONTINUOUS
10
-0.1259623228346457
20
1.7053374803149606
11
-0.1181824803149606
21
1.7065696850393701
0
LINE
8
BLACK
6
CONTINUOUS
10
-0.1181824803149606
20
1.7065696850393701
11
-0.1103057086614173
21
1.7065696850393701
0
LINE
8
BLACK
6
CONTINUOUS
10
-0.1103057086614173
20
1.7065696850393701
11
-0.1025258661417323
21
1.7053374803149606
0
LINE
8
BLACK
6
CONTINUOUS
10
-0.1624724409448819
20
1.6527318897637795
11
-0.1612848818897638
21
1.6452340551181102
0
LINE
8
BLACK
6
CONTINUOUS
10
-0.1612848818897638
20
1.6452340551181102
11
-0.1589390551181102
21
1.6380142913385827
0
LINE
8
BLACK
6
CONTINUOUS
10
-0.1589390551181102
20
1.6380142913385827
11
-0.1554926771653543
21
1.6312503937007874
0
LINE
8
BLACK
6
CONTINUOUS
10
-0.1554926771653543
20
1.6312503937007874
11
-0.1510306299212598
21
1.6251088976377952
0
LINE
8
BLACK
6
CONTINUOUS
10
-0.1510306299212598
20
1.6251088976377952
11
-0.1456627559055118
21
1.6197410236220473
0
LINE
8
BLACK
6
CONTINUOUS
10
-0.1456627559055118
20
1.6197410236220473
11
-0.1395212598425197
21
1.6152789763779527
0
LINE
8
BLACK
6
CONTINUOUS
10
-0.1395212598425197
20
1.6152789763779527
11
-0.1327573622047244
21
1.6118325984251969
0
LINE
8
BLACK
6
CONTINUOUS
10
-0.1327573622047244
20
1.6118325984251969
11
-0.1255375984251969
21
1.6094867716535433
0
LINE
8
BLACK
6
CONTINUOUS
10
-0.1255375984251969
20
1.6094867716535433
11
-0.1180397637795276
21
1.6082992125984252
0
LINE
8
BLACK
6
CONTINUOUS
10
-0.1180397637795276
20
1.6082992125984252
11
-0.1104484251968504
21
1.6082992125984252
0
LINE
8
BLACK
6
CONTINUOUS
10
-0.1104484251968504
20
1.6082992125984252
11
-0.1029505905511811
21
1.6094867716535433
0
LINE
8
BLACK
6
CONTINUOUS
10
-0.1029505905511811
20
1.6094867716535433
11
-0.0957308267716535
21
1.6118325984251969
0
LINE
8
BLACK
6
CONTINUOUS
10
-0.0957308267716535
20
1.6118325984251969
11
-0.0889669291338583
21
1.6152789763779527
0
LINE
8
BLACK
6
CONTINUOUS
10
-0.0889669291338583
20
1.6152789763779527
11
-0.0828254330708661
21
1.6197410236220473
0
LINE
8
BLACK
6
CONTINUOUS
10
-0.0828254330708661
20
1.6197410236220473
11
-0.0774575590551181
21
1.6251088976377952
0
LINE
8
BLACK
6
CONTINUOUS
10
-0.0774575590551181
20
1.6251088976377952
11
-0.0729955118110236
21
1.6312503937007874
0
LINE
8
BLACK
6
CONTINUOUS
10
-0.0729955118110236
20
1.6312503937007874
11
-0.0695491338582677
21
1.6380142913385827
0
LINE
8
BLACK
6
CONTINUOUS
10
-0.0695491338582677
20
1.6380142913385827
11
-0.0672033070866142
21
1.6452340551181102
0
LINE
8
BLACK
6
CONTINUOUS
10
-0.0672033070866142
20
1.6452340551181102
11
-0.0660157480314961
21
1.6527318897637795
0
LINE
8
BLACK
6
CONTINUOUS
10
-0.0660157480314961
20
1.6527318897637795
11
-0.0660157480314961
21
1.6603232283464566
0
LINE
8
BLACK
6
CONTINUOUS
10
-0.0660157480314961
20
1.6603232283464566
11
-0.0672033070866142
21
1.667821062992126
0
LINE
8
BLACK
6
CONTINUOUS
10
-0.0672033070866142
20
1.667821062992126
11
-0.0695491338582677
21
1.6750408267716534
0
LINE
8
BLACK
6
CONTINUOUS
10
-0.0695491338582677
20
1.6750408267716534
11
-0.0729955118110236
21
1.6818047244094487
0
LINE
8
BLACK
6
CONTINUOUS
10
-0.0729955118110236
20
1.6818047244094487
11
-0.0774575590551181
21
1.6879462204724409
0
LINE
8
BLACK
6
CONTINUOUS
10
-0.0774575590551181
20
1.6879462204724409
11
-0.0828254330708661
21
1.693314094488189
0
LINE
8
BLACK
6
CONTINUOUS
10
-0.0828254330708661
20
1.693314094488189
11
-0.0889669291338583
21
1.6977761417322834
0
LINE
8
BLACK
6
CONTINUOUS
10
-0.0889669291338583
20
1.6977761417322834
11
-0.0957308267716535
21
1.7012225196850392
0
LINE
8
BLACK
6
CONTINUOUS
10
-0.0957308267716535
20
1.7012225196850392
11
-0.1029505905511811
21
1.7035683464566929
0
LINE
8
BLACK
6
CONTINUOUS
10
-0.1029505905511811
20
1.7035683464566929
11
-0.1104484251968504
21
1.7047559055118109
0
LINE
8
BLACK
6
CONTINUOUS
10
-0.1104484251968504
20
1.7047559055118109
11
-0.1180397637795276
21
1.7047559055118109
0
LINE
8
BLACK
6
CONTINUOUS
10
-0.1180397637795276
20
1.7047559055118109
11
-0.1255375984251969
21
1.7035683464566929
0
LINE
8
BLACK
6
CONTINUOUS
10
-0.1255375984251969
20
1.7035683464566929
11
-0.1327573622047244
21
1.7012225196850392
0
LINE
8
BLACK
6
CONTINUOUS
10
-0.1327573622047244
20
1.7012225196850392
11
-0.1395212598425197
21
1.6977761417322834
0
LINE
8
BLACK
6
CONTINUOUS
10
-0.1395212598425197
20
1.6977761417322834
11
-0.1456627559055118
21
1.693314094488189
0
LINE
8
BLACK
6
CONTINUOUS
10
-0.1456627559055118
20
1.693314094488189
11
-0.1510306299212598
21
1.6879462204724409
0
LINE
8
BLACK
6
CONTINUOUS
10
-0.1510306299212598
20
1.6879462204724409
11
-0.1554926771653543
21
1.6818047244094487
0
LINE
8
BLACK
6
CONTINUOUS
10
-0.1554926771653543
20
1.6818047244094487
11
-0.1589390551181102
21
1.6750408267716534
0
LINE
8
BLACK
6
CONTINUOUS
10
-0.1589390551181102
20
1.6750408267716534
11
-0.1612848818897638
21
1.667821062992126
0
LINE
8
BLACK
6
CONTINUOUS
10
-0.1612848818897638
20
1.667821062992126
11
-0.1624724409448819
21
1.6603232283464566
0
LINE
8
BLACK
6
CONTINUOUS
10
-0.1624724409448819
20
1.6603232283464566
11
-0.1624724409448819
21
1.6527318897637795
0
LINE
8
BLACK
6
CONTINUOUS
10
0.4929947637795276
20
1.675318779527559
11
0.4935274409448819
21
1.6747861023622046
0
LINE
8
BLACK
6
CONTINUOUS
10
0.4935274409448819
20
1.6747861023622046
11
0.4936023622047244
21
1.6744094488188976
0
LINE
8
BLACK
6
CONTINUOUS
10
0.4936023622047244
20
1.6744094488188976
11
0.4936023622047244
21
1.6169291338582676
0
LINE
8
BLACK
6
CONTINUOUS
10
0.4936023622047244
20
1.6169291338582676
11
0.4935274409448819
21
1.6165524803149607
0
LINE
8
BLACK
6
CONTINUOUS
10
0.4935274409448819
20
1.6165524803149607
11
0.4929947637795276
21
1.6160198031496062
0
LINE
8
BLACK
6
CONTINUOUS
10
0.4929947637795276
20
1.6160198031496062
11
0.4926181102362205
21
1.6159448818897637
0
LINE
8
BLACK
6
CONTINUOUS
10
0.4926181102362205
20
1.6159448818897637
11
0.3760826771653543
21
1.6159448818897637
0
LINE
8
BLACK
6
CONTINUOUS
10
0.3760826771653543
20
1.6159448818897637
11
0.3757060236220472
21
1.6160198031496062
0
LINE
8
BLACK
6
CONTINUOUS
10
0.3757060236220472
20
1.6160198031496062
11
0.3751733464566929
21
1.6165524803149607
0
LINE
8
BLACK
6
CONTINUOUS
10
0.3751733464566929
20
1.6165524803149607
11
0.3750984251968504
21
1.6169291338582676
0
LINE
8
BLACK
6
CONTINUOUS
10
0.3750984251968504
20
1.6169291338582676
11
0.3750984251968504
21
1.6744094488188976
0
LINE
8
BLACK
6
CONTINUOUS
10
0.3750984251968504
20
1.6744094488188976
11
0.3751733464566929
21
1.6747861023622046
0
LINE
8
BLACK
6
CONTINUOUS
10
0.3751733464566929
20
1.6747861023622046
11
0.3757060236220472
21
1.675318779527559
0
LINE
8
BLACK
6
CONTINUOUS
10
0.3757060236220472
20
1.675318779527559
11
0.3760826771653543
21
1.6753937007874016
0
LINE
8
BLACK
6
CONTINUOUS
10
0.3760826771653543
20
1.6753937007874016
11
0.4926181102362205
21
1.6753937007874016
0
LINE
8
BLACK
6
CONTINUOUS
10
0.4926181102362205
20
1.6753937007874016
11
0.4929947637795276
21
1.675318779527559
0
LINE
8
BLACK
6
CONTINUOUS
10
0.3770669291338583
20
1.6734251968503937
11
0.3770669291338583
21
1.6179133858267716
0
LINE
8
BLACK
6
CONTINUOUS
10
0.3770669291338583
20
1.6179133858267716
11
0.4916338582677166
21
1.6179133858267716
0
LINE
8
BLACK
6
CONTINUOUS
10
0.4916338582677166
20
1.6179133858267716
11
0.4916338582677166
21
1.6734251968503937
0
LINE
8
BLACK
6
CONTINUOUS
10
0.4916338582677166
20
1.6734251968503937
11
0.3770669291338583
21
1.6734251968503937
0
LINE
8
BLACK
6
CONTINUOUS
10
-0.1025258661417323
20
1.8451012598425196
11
-0.0950346062992126
21
1.8426671653543307
0
LINE
8
BLACK
6
CONTINUOUS
10
-0.0950346062992126
20
1.8426671653543307
11
-0.0880162992125984
21
1.8390911811023622
0
LINE
8
BLACK
6
CONTINUOUS
10
-0.0880162992125984
20
1.8390911811023622
11
-0.0816438582677165
21
1.8344613385826771
0
LINE
8
BLACK
6
CONTINUOUS
10
-0.0816438582677165
20
1.8344613385826771
11
-0.076074094488189
21
1.8288915748031496
0
LINE
8
BLACK
6
CONTINUOUS
10
-0.076074094488189
20
1.8288915748031496
11
-0.0714442519685039
21
1.8225191338582676
0
LINE
8
BLACK
6
CONTINUOUS
10
-0.0714442519685039
20
1.8225191338582676
11
-0.0678682677165354
21
1.8155008267716535
0
LINE
8
BLACK
6
CONTINUOUS
10
-0.0678682677165354
20
1.8155008267716535
11
-0.0654341732283465
21
1.8080095669291338
0
LINE
8
BLACK
6
CONTINUOUS
10
-0.0654341732283465
20
1.8080095669291338
11
-0.064201968503937
21
1.8002297244094487
0
LINE
8
BLACK
6
CONTINUOUS
10
-0.064201968503937
20
1.8002297244094487
11
-0.064201968503937
21
1.7923529527559054
0
LINE
8
BLACK
6
CONTINUOUS
10
-0.064201968503937
20
1.7923529527559054
11
-0.0654341732283465
21
1.7845731102362203
0
LINE
8
BLACK
6
CONTINUOUS
10
-0.0654341732283465
20
1.7845731102362203
11
-0.0678682677165354
21
1.7770818503937007
0
LINE
8
BLACK
6
CONTINUOUS
10
-0.0678682677165354
20
1.7770818503937007
11
-0.0714442519685039
21
1.7700635433070866
0
LINE
8
BLACK
6
CONTINUOUS
10
-0.0714442519685039
20
1.7700635433070866
11
-0.076074094488189
21
1.7636911023622046
0
LINE
8
BLACK
6
CONTINUOUS
10
-0.076074094488189
20
1.7636911023622046
11
-0.0816438582677165
21
1.7581213385826771
0
LINE
8
BLACK
6
CONTINUOUS
10
-0.0816438582677165
20
1.7581213385826771
11
-0.0880162992125984
21
1.7534914960629921
0
LINE
8
BLACK
6
CONTINUOUS
10
-0.0880162992125984
20
1.7534914960629921
11
-0.0950346062992126
21
1.7499155118110237
0
LINE
8
BLACK
6
CONTINUOUS
10
-0.0950346062992126
20
1.7499155118110237
11
-0.1025258661417323
21
1.7474814173228346
0
LINE
8
BLACK
6
CONTINUOUS
10
-0.1025258661417323
20
1.7474814173228346
11
-0.1103057086614173
21
1.7462492125984252
0
LINE
8
BLACK
6
CONTINUOUS
10
-0.1103057086614173
20
1.7462492125984252
11
-0.1181824803149606
21
1.7462492125984252
0
LINE
8
BLACK
6
CONTINUOUS
10
-0.1181824803149606
20
1.7462492125984252
11
-0.1259623228346457
21
1.7474814173228346
0
LINE
8
BLACK
6
CONTINUOUS
10
-0.1259623228346457
20
1.7474814173228346
11
-0.1334535826771653
21
1.7499155118110237
0
LINE
8
BLACK
6
CONTINUOUS
10
-0.1334535826771653
20
1.7499155118110237
11
-0.1404718897637795
21
1.7534914960629921
0
LINE
8
BLACK
6
CONTINUOUS
10
-0.1404718897637795
20
1.7534914960629921
11
-0.1468443307086614
21
1.7581213385826771
0
LINE
8
BLACK
6
CONTINUOUS
10
-0.1468443307086614
20
1.7581213385826771
11
-0.152414094488189
21
1.7636911023622046
0
LINE
8
BLACK
6
CONTINUOUS
10
-0.152414094488189
20
1.7636911023622046
11
-0.157043937007874
21
1.7700635433070866
0
LINE
8
BLACK
6
CONTINUOUS
10
-0.157043937007874
20
1.7700635433070866
11
-0.1606199212598425
21
1.7770818503937007
0
LINE
8
BLACK
6
CONTINUOUS
10
-0.1606199212598425
20
1.7770818503937007
11
-0.1630540157480315
21
1.7845731102362203
0
LINE
8
BLACK
6
CONTINUOUS
10
-0.1630540157480315
20
1.7845731102362203
11
-0.1642862204724409
21
1.7923529527559054
0
LINE
8
BLACK
6
CONTINUOUS
10
-0.1642862204724409
20
1.7923529527559054
11
-0.1642862204724409
21
1.8000870078740157
0
LINE
8
BLACK
6
CONTINUOUS
10
-0.1642862204724409
20
1.8000870078740157
11
-0.1642862204724409
21
1.8002297244094487
0
LINE
8
BLACK
6
CONTINUOUS
10
-0.1642862204724409
20
1.8002297244094487
11
-0.1630540157480315
21
1.8080095669291338
0
LINE
8
BLACK
6
CONTINUOUS
10
-0.1630540157480315
20
1.8080095669291338
11
-0.1606199212598425
21
1.8155008267716535
0
LINE
8
BLACK
6
CONTINUOUS
10
-0.1606199212598425
20
1.8155008267716535
11
-0.157043937007874
21
1.8225191338582676
0
LINE
8
BLACK
6
CONTINUOUS
10
-0.157043937007874
20
1.8225191338582676
11
-0.152414094488189
21
1.8288915748031496
0
LINE
8
BLACK
6
CONTINUOUS
10
-0.152414094488189
20
1.8288915748031496
11
-0.1468443307086614
21
1.8344613385826771
0
LINE
8
BLACK
6
CONTINUOUS
10
-0.1468443307086614
20
1.8344613385826771
11
-0.1404718897637795
21
1.8390911811023622
0
LINE
8
BLACK
6
CONTINUOUS
10
-0.1404718897637795
20
1.8390911811023622
11
-0.1334535826771653
21
1.8426671653543307
0
LINE
8
BLACK
6
CONTINUOUS
10
-0.1334535826771653
20
1.8426671653543307
11
-0.1259623228346457
21
1.8451012598425196
0
LINE
8
BLACK
6
CONTINUOUS
10
-0.1259623228346457
20
1.8451012598425196
11
-0.1181824803149606
21
1.8463334645669292
0
LINE
8
BLACK
6
CONTINUOUS
10
-0.1181824803149606
20
1.8463334645669292
11
-0.1103057086614173
21
1.8463334645669292
0
LINE
8
BLACK
6
CONTINUOUS
10
-0.1103057086614173
20
1.8463334645669292
11
-0.1025258661417323
21
1.8451012598425196
0
LINE
8
BLACK
6
CONTINUOUS
10
-0.1624724409448819
20
1.7924956692913385
11
-0.1612848818897638
21
1.7849978346456692
0
LINE
8
BLACK
6
CONTINUOUS
10
-0.1612848818897638
20
1.7849978346456692
11
-0.1589390551181102
21
1.7777780708661417
0
LINE
8
BLACK
6
CONTINUOUS
10
-0.1589390551181102
20
1.7777780708661417
11
-0.1554926771653543
21
1.7710141732283464
0
LINE
8
BLACK
6
CONTINUOUS
10
-0.1554926771653543
20
1.7710141732283464
11
-0.1510306299212598
21
1.7648726771653542
0
LINE
8
BLACK
6
CONTINUOUS
10
-0.1510306299212598
20
1.7648726771653542
11
-0.1456627559055118
21
1.7595048031496063
0
LINE
8
BLACK
6
CONTINUOUS
10
-0.1456627559055118
20
1.7595048031496063
11
-0.1395212598425197
21
1.7550427559055117
0
LINE
8
BLACK
6
CONTINUOUS
10
-0.1395212598425197
20
1.7550427559055117
11
-0.1327573622047244
21
1.7515963779527559
0
LINE
8
BLACK
6
CONTINUOUS
10
-0.1327573622047244
20
1.7515963779527559
11
-0.1255375984251969
21
1.7492505511811023
0
LINE
8
BLACK
6
CONTINUOUS
10
-0.1255375984251969
20
1.7492505511811023
11
-0.1180397637795276
21
1.7480629921259843
0
LINE
8
BLACK
6
CONTINUOUS
10
-0.1180397637795276
20
1.7480629921259843
11
-0.1104484251968504
21
1.7480629921259843
0
LINE
8
BLACK
6
CONTINUOUS
10
-0.1104484251968504
20
1.7480629921259843
11
-0.1029505905511811
21
1.7492505511811023
0
LINE
8
BLACK
6
CONTINUOUS
10
-0.1029505905511811
20
1.7492505511811023
11
-0.0957308267716535
21
1.7515963779527559
0
LINE
8
BLACK
6
CONTINUOUS
10
-0.0957308267716535
20
1.7515963779527559
11
-0.0889669291338583
21
1.7550427559055117
0
LINE
8
BLACK
6
CONTINUOUS
10
-0.0889669291338583
20
1.7550427559055117
11
-0.0828254330708661
21
1.7595048031496063
0
LINE
8
BLACK
6
CONTINUOUS
10
-0.0828254330708661
20
1.7595048031496063
11
-0.0774575590551181
21
1.7648726771653542
0
LINE
8
BLACK
6
CONTINUOUS
10
-0.0774575590551181
20
1.7648726771653542
11
-0.0729955118110236
21
1.7710141732283464
0
LINE
8
BLACK
6
CONTINUOUS
10
-0.0729955118110236
20
1.7710141732283464
11
-0.0695491338582677
21
1.7777780708661417
0
LINE
8
BLACK
6
CONTINUOUS
10
-0.0695491338582677
20
1.7777780708661417
11
-0.0672033070866142
21
1.7849978346456692
0
LINE
8
BLACK
6
CONTINUOUS
10
-0.0672033070866142
20
1.7849978346456692
11
-0.0660157480314961
21
1.7924956692913385
0
LINE
8
BLACK
6
CONTINUOUS
10
-0.0660157480314961
20
1.7924956692913385
11
-0.0660157480314961
21
1.8000870078740157
0
LINE
8
BLACK
6
CONTINUOUS
10
-0.0660157480314961
20
1.8000870078740157
11
-0.0672033070866142
21
1.807584842519685
0
LINE
8
BLACK
6
CONTINUOUS
10
-0.0672033070866142
20
1.807584842519685
11
-0.0695491338582677
21
1.8148046062992125
0
LINE
8
BLACK
6
CONTINUOUS
10
-0.0695491338582677
20
1.8148046062992125
11
-0.0729955118110236
21
1.8215685039370078
0
LINE
8
BLACK
6
CONTINUOUS
10
-0.0729955118110236
20
1.8215685039370078
11
-0.0774575590551181
21
1.8277099999999999
0
LINE
8
BLACK
6
CONTINUOUS
10
-0.0774575590551181
20
1.8277099999999999
11
-0.0828254330708661
21
1.8330778740157481
0
LINE
8
BLACK
6
CONTINUOUS
10
-0.0828254330708661
20
1.8330778740157481
11
-0.0889669291338583
21
1.8375399212598424
0
LINE
8
BLACK
6
CONTINUOUS
10
-0.0889669291338583
20
1.8375399212598424
11
-0.0957308267716535
21
1.8409862992125985
0
LINE
8
BLACK
6
CONTINUOUS
10
-0.0957308267716535
20
1.8409862992125985
11
-0.1029505905511811
21
1.8433321259842519
0
LINE
8
BLACK
6
CONTINUOUS
10
-0.1029505905511811
20
1.8433321259842519
11
-0.1104484251968504
21
1.8445196850393701
0
LINE
8
BLACK
6
CONTINUOUS
10
-0.1104484251968504
20
1.8445196850393701
11
-0.1180397637795276
21
1.8445196850393701
0
LINE
8
BLACK
6
CONTINUOUS
10
-0.1180397637795276
20
1.8445196850393701
11
-0.1255375984251969
21
1.8433321259842519
0
LINE
8
BLACK
6
CONTINUOUS
10
-0.1255375984251969
20
1.8433321259842519
11
-0.1327573622047244
21
1.8409862992125985
0
LINE
8
BLACK
6
CONTINUOUS
10
-0.1327573622047244
20
1.8409862992125985
11
-0.1395212598425197
21
1.8375399212598424
0
LINE
8
BLACK
6
CONTINUOUS
10
-0.1395212598425197
20
1.8375399212598424
11
-0.1456627559055118
21
1.8330778740157481
0
LINE
8
BLACK
6
CONTINUOUS
10
-0.1456627559055118
20
1.8330778740157481
11
-0.1510306299212598
21
1.8277099999999999
0
LINE
8
BLACK
6
CONTINUOUS
10
-0.1510306299212598
20
1.8277099999999999
11
-0.1554926771653543
21
1.8215685039370078
0
LINE
8
BLACK
6
CONTINUOUS
10
-0.1554926771653543
20
1.8215685039370078
11
-0.1589390551181102
21
1.8148046062992125
0
LINE
8
BLACK
6
CONTINUOUS
10
-0.1589390551181102
20
1.8148046062992125
11
-0.1612848818897638
21
1.807584842519685
0
LINE
8
BLACK
6
CONTINUOUS
10
-0.1612848818897638
20
1.807584842519685
11
-0.1624724409448819
21
1.8000870078740157
0
LINE
8
BLACK
6
CONTINUOUS
10
-0.1624724409448819
20
1.8000870078740157
11
-0.1624724409448819
21
1.7924956692913385
0
CIRCLE
8
BLACK
10
1.05
20
1.1933070866141733
40
0.0068897637795276
0
CIRCLE
8
BLACK
10
1.05
20
1.2933070866141732
40
0.0068897637795276
0
CIRCLE
8
BLACK
10
1.1499999999999999
20
1.1933070866141733
40
0.0068897637795276
0
CIRCLE
8
BLACK
10
1.1499999999999999
20
1.2933070866141732
40
0.0068897637795276
0
CIRCLE
8
BLACK
10
1.25
20
1.1933070866141733
40
0.0068897637795276
0
CIRCLE
8
BLACK
10
1.25
20
1.2933070866141732
40
0.0068897637795276
0
CIRCLE
8
BLACK
10
1.3499999999999999
20
1.1933070866141733
40
0.0068897637795276
0
CIRCLE
8
BLACK
10
1.3499999999999999
20
1.2933070866141732
40
0.0068897637795276
0
CIRCLE
8
BLACK
10
1.6141732283464567
20
0.8267716535433071
40
0.0068897637795276
0
CIRCLE
8
BLACK
10
1.7141732283464566
20
0.926771653543307
40
0.0068897637795276
0
CIRCLE
8
BLACK
10
1.5141732283464566
20
0.926771653543307
40
0.0068897637795276
0
CIRCLE
8
BLACK
10
1.7141732283464566
20
0.7267716535433071
40
0.0068897637795276
0
CIRCLE
8
BLACK
10
1.5141732283464566
20
0.7267716535433071
40
0.0068897637795276
0
CIRCLE
8
BLACK
10
0.4
20
0.4
40
0.0068897637795276
0
CIRCLE
8
BLACK
10
1.5999999999999999
20
1.2
40
0.0068897637795276
0
CIRCLE
8
BLACK
10
1.5999999999999999
20
0.4
40
0.0068897637795276
0
CIRCLE
8
BLACK
10
0.4
20
1.2
40
0.0068897637795276
0
CIRCLE
8
BLACK
10
0.3043307086614173
20
0.9070866141732283
40
0.0068897637795276
0
CIRCLE
8
BLACK
10
0.4043307086614173
20
0.9070866141732283
40
0.0068897637795276
0
CIRCLE
8
BLACK
10
0.3043307086614173
20
0.8070866141732284
40
0.0068897637795276
0
CIRCLE
8
BLACK
10
0.4043307086614173
20
0.8070866141732284
40
0.0068897637795276
0
CIRCLE
8
BLACK
10
0.3043307086614173
20
0.7070866141732284
40
0.0068897637795276
0
CIRCLE
8
BLACK
10
0.4043307086614173
20
0.7070866141732284
40
0.0068897637795276
0
CIRCLE
8
BLACK
10
0.987007874015748
20
0.2989173228346457
40
0.0068897637795276
0
CIRCLE
8
BLACK
10
0.987007874015748
20
0.3989173228346456
40
0.0068897637795276
0
CIRCLE
8
BLACK
10
1.0870078740157481
20
0.2989173228346457
40
0.0068897637795276
0
CIRCLE
8
BLACK
10
1.0870078740157481
20
0.3989173228346456
40
0.0068897637795276
0
CIRCLE
8
BLACK
10
1.1870078740157479
20
0.2989173228346457
40
0.0068897637795276
0
CIRCLE
8
BLACK
10
1.1870078740157479
20
0.3989173228346456
40
0.0068897637795276
0
CIRCLE
8
BLACK
10
1.287007874015748
20
0.2989173228346457
40
0.0068897637795276
0
CIRCLE
8
BLACK
10
1.287007874015748
20
0.3989173228346456
40
0.0068897637795276
0
CIRCLE
8
BLACK
10
0.9116561417322835
20
0.8494582283464567
40
0.004
0
CIRCLE
8
BLACK
10
0.9074803149606299
20
0.7756852755905511
40
0.004
0
CIRCLE
8
BLACK
10
0.8726817716535433
20
0.8104838582677165
40
0.004
0
CIRCLE
8
BLACK
10
0.8378831889763779
20
0.8452824015748032
40
0.004
0
CIRCLE
8
BLACK
10
0.8337074015748032
20
0.7715094881889764
40
0.004
0
CIRCLE
8
BLACK
10
1.05
20
1.1933070866141733
40
0.0068897637795276
0
CIRCLE
8
BLACK
10
1.05
20
1.2933070866141732
40
0.0068897637795276
0
CIRCLE
8
BLACK
10
1.1499999999999999
20
1.1933070866141733
40
0.0068897637795276
0
CIRCLE
8
BLACK
10
1.1499999999999999
20
1.2933070866141732
40
0.0068897637795276
0
CIRCLE
8
BLACK
10
1.25
20
1.1933070866141733
40
0.0068897637795276
0
CIRCLE
8
BLACK
10
1.25
20
1.2933070866141732
40
0.0068897637795276
0
CIRCLE
8
BLACK
10
1.3499999999999999
20
1.1933070866141733
40
0.0068897637795276
0
CIRCLE
8
BLACK
10
1.3499999999999999
20
1.2933070866141732
40
0.0068897637795276
0
CIRCLE
8
BLACK
10
1.6141732283464567
20
0.8267716535433071
40
0.0068897637795276
0
CIRCLE
8
BLACK
10
1.7141732283464566
20
0.926771653543307
40
0.0068897637795276
0
CIRCLE
8
BLACK
10
1.5141732283464566
20
0.926771653543307
40
0.0068897637795276
0
CIRCLE
8
BLACK
10
1.7141732283464566
20
0.7267716535433071
40
0.0068897637795276
0
CIRCLE
8
BLACK
10
1.5141732283464566
20
0.7267716535433071
40
0.0068897637795276
0
CIRCLE
8
BLACK
10
0.4
20
0.4
40
0.0068897637795276
0
CIRCLE
8
BLACK
10
1.5999999999999999
20
1.2
40
0.0068897637795276
0
CIRCLE
8
BLACK
10
1.5999999999999999
20
0.4
40
0.0068897637795276
0
CIRCLE
8
BLACK
10
0.4
20
1.2
40
0.0068897637795276
0
CIRCLE
8
BLACK
10
0.3043307086614173
20
0.9070866141732283
40
0.0068897637795276
0
CIRCLE
8
BLACK
10
0.4043307086614173
20
0.9070866141732283
40
0.0068897637795276
0
CIRCLE
8
BLACK
10
0.3043307086614173
20
0.8070866141732284
40
0.0068897637795276
0
CIRCLE
8
BLACK
10
0.4043307086614173
20
0.8070866141732284
40
0.0068897637795276
0
CIRCLE
8
BLACK
10
0.3043307086614173
20
0.7070866141732284
40
0.0068897637795276
0
CIRCLE
8
BLACK
10
0.4043307086614173
20
0.7070866141732284
40
0.0068897637795276
0
CIRCLE
8
BLACK
10
0.987007874015748
20
0.2989173228346457
40
0.0068897637795276
0
CIRCLE
8
BLACK
10
0.987007874015748
20
0.3989173228346456
40
0.0068897637795276
0
CIRCLE
8
BLACK
10
1.0870078740157481
20
0.2989173228346457
40
0.0068897637795276
0
CIRCLE
8
BLACK
10
1.0870078740157481
20
0.3989173228346456
40
0.0068897637795276
0
CIRCLE
8
BLACK
10
1.1870078740157479
20
0.2989173228346457
40
0.0068897637795276
0
CIRCLE
8
BLACK
10
1.1870078740157479
20
0.3989173228346456
40
0.0068897637795276
0
CIRCLE
8
BLACK
10
1.287007874015748
20
0.2989173228346457
40
0.0068897637795276
0
CIRCLE
8
BLACK
10
1.287007874015748
20
0.3989173228346456
40
0.0068897637795276
0
CIRCLE
8
BLACK
10
0.9116561417322835
20
0.8494582283464567
40
0.004
0
CIRCLE
8
BLACK
10
0.9074803149606299
20
0.7756852755905511
40
0.004
0
CIRCLE
8
BLACK
10
0.8726817716535433
20
0.8104838582677165
40
0.004
0
CIRCLE
8
BLACK
10
0.8378831889763779
20
0.8452824015748032
40
0.004
0
CIRCLE
8
BLACK
10
0.8337074015748032
20
0.7715094881889764
40
0.004
  0
ENDSEC
  0
EOF
