  0
SECTION
  2
HEADER
  9
$ANGBASE
  50
0.0
  9
$ANGDIR
  70
1
  9
$MEASUREMENT
  70
0
  0
ENDSEC
  0
SECTION
  2
TABLES
  0
TABLE
  2
LTYPE
  70
4
  0
LTYPE
  5
40F
  2
CONTINUOUS
  70
0
  3
Solid line
  72
65
  73
0
  40
0.0
  0
LTYPE
  5
410
  2
DASHDOT
 70
0
  3
Dash Dot ____ _ ____ _
 72
65
 73
4
 40
2.0
 49
1.25
 49
-0.25
 49
0.25
 49
-0.25
  0
LTYPE
  5
411
  2
DASHED
 70
0
  3
Dashed __ __ __ __ __
 72
65
 73
2
 40
0.75
 49
0.5
 49
-0.25
  0
LTYPE
  5
43B
  2
DOTTED
 70
0
  3
Dotted .  .  .  .
 72
65
 73
2
 40
0.2
 49
0.0
 49
-0.2
  0
ENDTAB
  0
TABLE
  2
STYLE
  70
4
  0
STYLE
  2
KICAD
  70
0
  40
0
  41
1
  42
1
  50
0
  71
0
  3
isocp.shx
  0
STYLE
  2
KICADB
  70
0
  40
0
  41
1
  42
1
  50
0
  71
0
  3
isocp.shx
  0
STYLE
  2
KICADI
  70
0
  40
0
  41
1
  42
1
  50
15
  71
0
  3
isocp.shx
  0
STYLE
  2
KICADBI
  70
0
  40
0
  41
1
  42
1
  50
15
  71
0
  3
isocp.shx
  0
ENDTAB
  0
TABLE
  2
LAYER
  70
1
  0
LAYER
  2
BLACK
  70
0
  62
7
  6
CONTINUOUS
  0
ENDTAB
  0
ENDSEC
  0
SECTION
  2
ENTITIES
0
LINE
8
BLACK
6
CONTINUOUS
10
1.7905760629921259
20
1.3928960236220471
11
1.7916404724409449
21
1.3924551181102363
0
LINE
8
BLACK
6
CONTINUOUS
10
1.7916404724409449
20
1.3924551181102363
11
1.7924551181102362
21
1.3916404724409448
0
LINE
8
BLACK
6
CONTINUOUS
10
1.7924551181102362
20
1.3916404724409448
11
1.7928960236220473
21
1.390576062992126
0
LINE
8
BLACK
6
CONTINUOUS
10
1.7928960236220473
20
1.390576062992126
11
1.7929527559055118
21
1.3899999999999999
0
LINE
8
BLACK
6
CONTINUOUS
10
1.7929527559055118
20
1.3899999999999999
11
1.7929527559055118
21
0.21
0
LINE
8
BLACK
6
CONTINUOUS
10
1.7929527559055118
20
0.21
11
1.7928960236220473
21
0.209423937007874
0
LINE
8
BLACK
6
CONTINUOUS
10
1.7928960236220473
20
0.209423937007874
11
1.7924551181102362
21
0.2083595275590551
0
LINE
8
BLACK
6
CONTINUOUS
10
1.7924551181102362
20
0.2083595275590551
11
1.7916404724409449
21
0.2075448818897638
0
LINE
8
BLACK
6
CONTINUOUS
10
1.7916404724409449
20
0.2075448818897638
11
1.7905760629921259
21
0.2071039763779527
0
LINE
8
BLACK
6
CONTINUOUS
10
1.7905760629921259
20
0.2071039763779527
11
1.79
21
0.2070472440944882
0
LINE
8
BLACK
6
CONTINUOUS
10
1.79
20
0.2070472440944882
11
0.21
21
0.2070472440944882
0
LINE
8
BLACK
6
CONTINUOUS
10
0.21
20
0.2070472440944882
11
0.209423937007874
21
0.2071039763779527
0
LINE
8
BLACK
6
CONTINUOUS
10
0.209423937007874
20
0.2071039763779527
11
0.2083595275590551
21
0.2075448818897638
0
LINE
8
BLACK
6
CONTINUOUS
10
0.2083595275590551
20
0.2075448818897638
11
0.2075448818897638
21
0.2083595275590551
0
LINE
8
BLACK
6
CONTINUOUS
10
0.2075448818897638
20
0.2083595275590551
11
0.2071039763779527
21
0.209423937007874
0
LINE
8
BLACK
6
CONTINUOUS
10
0.2071039763779527
20
0.209423937007874
11
0.2070472440944882
21
0.21
0
LINE
8
BLACK
6
CONTINUOUS
10
0.2070472440944882
20
0.21
11
0.2070472440944882
21
1.3899999999999999
0
LINE
8
BLACK
6
CONTINUOUS
10
0.2070472440944882
20
1.3899999999999999
11
0.2071039763779527
21
1.390576062992126
0
LINE
8
BLACK
6
CONTINUOUS
10
0.2071039763779527
20
1.390576062992126
11
0.2075448818897638
21
1.3916404724409448
0
LINE
8
BLACK
6
CONTINUOUS
10
0.2075448818897638
20
1.3916404724409448
11
0.2083595275590551
21
1.3924551181102363
0
LINE
8
BLACK
6
CONTINUOUS
10
0.2083595275590551
20
1.3924551181102363
11
0.209423937007874
21
1.3928960236220471
0
LINE
8
BLACK
6
CONTINUOUS
10
0.209423937007874
20
1.3928960236220471
11
0.21
21
1.3929527559055117
0
LINE
8
BLACK
6
CONTINUOUS
10
0.21
20
1.3929527559055117
11
1.79
21
1.3929527559055117
0
LINE
8
BLACK
6
CONTINUOUS
10
1.79
20
1.3929527559055117
11
1.7905760629921259
21
1.3928960236220471
0
LINE
8
BLACK
6
CONTINUOUS
10
0.2129527559055118
20
1.3870472440944881
11
0.2129527559055118
21
0.2129527559055118
0
LINE
8
BLACK
6
CONTINUOUS
10
0.2129527559055118
20
0.2129527559055118
11
1.7870472440944882
21
0.2129527559055118
0
LINE
8
BLACK
6
CONTINUOUS
10
1.7870472440944882
20
0.2129527559055118
11
1.7870472440944882
21
1.3870472440944881
0
LINE
8
BLACK
6
CONTINUOUS
10
1.7870472440944882
20
1.3870472440944881
11
0.2129527559055118
21
1.3870472440944881
0
CIRCLE
8
BLACK
10
1.05
20
1.1933070866141733
40
0.0068897637795276
0
CIRCLE
8
BLACK
10
1.05
20
1.2933070866141732
40
0.0068897637795276
0
CIRCLE
8
BLACK
10
1.1499999999999999
20
1.1933070866141733
40
0.0068897637795276
0
CIRCLE
8
BLACK
10
1.1499999999999999
20
1.2933070866141732
40
0.0068897637795276
0
CIRCLE
8
BLACK
10
1.25
20
1.1933070866141733
40
0.0068897637795276
0
CIRCLE
8
BLACK
10
1.25
20
1.2933070866141732
40
0.0068897637795276
0
CIRCLE
8
BLACK
10
1.3499999999999999
20
1.1933070866141733
40
0.0068897637795276
0
CIRCLE
8
BLACK
10
1.3499999999999999
20
1.2933070866141732
40
0.0068897637795276
0
CIRCLE
8
BLACK
10
1.6141732283464567
20
0.8267716535433071
40
0.0068897637795276
0
CIRCLE
8
BLACK
10
1.7141732283464566
20
0.926771653543307
40
0.0068897637795276
0
CIRCLE
8
BLACK
10
1.5141732283464566
20
0.926771653543307
40
0.0068897637795276
0
CIRCLE
8
BLACK
10
1.7141732283464566
20
0.7267716535433071
40
0.0068897637795276
0
CIRCLE
8
BLACK
10
1.5141732283464566
20
0.7267716535433071
40
0.0068897637795276
0
CIRCLE
8
BLACK
10
0.4
20
0.4
40
0.0068897637795276
0
CIRCLE
8
BLACK
10
1.5999999999999999
20
1.2
40
0.0068897637795276
0
CIRCLE
8
BLACK
10
1.5999999999999999
20
0.4
40
0.0068897637795276
0
CIRCLE
8
BLACK
10
0.4
20
1.2
40
0.0068897637795276
0
CIRCLE
8
BLACK
10
0.3043307086614173
20
0.9070866141732283
40
0.0068897637795276
0
CIRCLE
8
BLACK
10
0.4043307086614173
20
0.9070866141732283
40
0.0068897637795276
0
CIRCLE
8
BLACK
10
0.3043307086614173
20
0.8070866141732284
40
0.0068897637795276
0
CIRCLE
8
BLACK
10
0.4043307086614173
20
0.8070866141732284
40
0.0068897637795276
0
CIRCLE
8
BLACK
10
0.3043307086614173
20
0.7070866141732284
40
0.0068897637795276
0
CIRCLE
8
BLACK
10
0.4043307086614173
20
0.7070866141732284
40
0.0068897637795276
0
CIRCLE
8
BLACK
10
0.987007874015748
20
0.2989173228346457
40
0.0068897637795276
0
CIRCLE
8
BLACK
10
0.987007874015748
20
0.3989173228346456
40
0.0068897637795276
0
CIRCLE
8
BLACK
10
1.0870078740157481
20
0.2989173228346457
40
0.0068897637795276
0
CIRCLE
8
BLACK
10
1.0870078740157481
20
0.3989173228346456
40
0.0068897637795276
0
CIRCLE
8
BLACK
10
1.1870078740157479
20
0.2989173228346457
40
0.0068897637795276
0
CIRCLE
8
BLACK
10
1.1870078740157479
20
0.3989173228346456
40
0.0068897637795276
0
CIRCLE
8
BLACK
10
1.287007874015748
20
0.2989173228346457
40
0.0068897637795276
0
CIRCLE
8
BLACK
10
1.287007874015748
20
0.3989173228346456
40
0.0068897637795276
0
CIRCLE
8
BLACK
10
0.9116561417322835
20
0.8494582283464567
40
0.004
0
CIRCLE
8
BLACK
10
0.9074803149606299
20
0.7756852755905511
40
0.004
0
CIRCLE
8
BLACK
10
0.8726817716535433
20
0.8104838582677165
40
0.004
0
CIRCLE
8
BLACK
10
0.8378831889763779
20
0.8452824015748032
40
0.004
0
CIRCLE
8
BLACK
10
0.8337074015748032
20
0.7715094881889764
40
0.004
0
CIRCLE
8
BLACK
10
1.05
20
1.1933070866141733
40
0.0068897637795276
0
CIRCLE
8
BLACK
10
1.05
20
1.2933070866141732
40
0.0068897637795276
0
CIRCLE
8
BLACK
10
1.1499999999999999
20
1.1933070866141733
40
0.0068897637795276
0
CIRCLE
8
BLACK
10
1.1499999999999999
20
1.2933070866141732
40
0.0068897637795276
0
CIRCLE
8
BLACK
10
1.25
20
1.1933070866141733
40
0.0068897637795276
0
CIRCLE
8
BLACK
10
1.25
20
1.2933070866141732
40
0.0068897637795276
0
CIRCLE
8
BLACK
10
1.3499999999999999
20
1.1933070866141733
40
0.0068897637795276
0
CIRCLE
8
BLACK
10
1.3499999999999999
20
1.2933070866141732
40
0.0068897637795276
0
CIRCLE
8
BLACK
10
1.6141732283464567
20
0.8267716535433071
40
0.0068897637795276
0
CIRCLE
8
BLACK
10
1.7141732283464566
20
0.926771653543307
40
0.0068897637795276
0
CIRCLE
8
BLACK
10
1.5141732283464566
20
0.926771653543307
40
0.0068897637795276
0
CIRCLE
8
BLACK
10
1.7141732283464566
20
0.7267716535433071
40
0.0068897637795276
0
CIRCLE
8
BLACK
10
1.5141732283464566
20
0.7267716535433071
40
0.0068897637795276
0
CIRCLE
8
BLACK
10
0.4
20
0.4
40
0.0068897637795276
0
CIRCLE
8
BLACK
10
1.5999999999999999
20
1.2
40
0.0068897637795276
0
CIRCLE
8
BLACK
10
1.5999999999999999
20
0.4
40
0.0068897637795276
0
CIRCLE
8
BLACK
10
0.4
20
1.2
40
0.0068897637795276
0
CIRCLE
8
BLACK
10
0.3043307086614173
20
0.9070866141732283
40
0.0068897637795276
0
CIRCLE
8
BLACK
10
0.4043307086614173
20
0.9070866141732283
40
0.0068897637795276
0
CIRCLE
8
BLACK
10
0.3043307086614173
20
0.8070866141732284
40
0.0068897637795276
0
CIRCLE
8
BLACK
10
0.4043307086614173
20
0.8070866141732284
40
0.0068897637795276
0
CIRCLE
8
BLACK
10
0.3043307086614173
20
0.7070866141732284
40
0.0068897637795276
0
CIRCLE
8
BLACK
10
0.4043307086614173
20
0.7070866141732284
40
0.0068897637795276
0
CIRCLE
8
BLACK
10
0.987007874015748
20
0.2989173228346457
40
0.0068897637795276
0
CIRCLE
8
BLACK
10
0.987007874015748
20
0.3989173228346456
40
0.0068897637795276
0
CIRCLE
8
BLACK
10
1.0870078740157481
20
0.2989173228346457
40
0.0068897637795276
0
CIRCLE
8
BLACK
10
1.0870078740157481
20
0.3989173228346456
40
0.0068897637795276
0
CIRCLE
8
BLACK
10
1.1870078740157479
20
0.2989173228346457
40
0.0068897637795276
0
CIRCLE
8
BLACK
10
1.1870078740157479
20
0.3989173228346456
40
0.0068897637795276
0
CIRCLE
8
BLACK
10
1.287007874015748
20
0.2989173228346457
40
0.0068897637795276
0
CIRCLE
8
BLACK
10
1.287007874015748
20
0.3989173228346456
40
0.0068897637795276
0
CIRCLE
8
BLACK
10
0.9116561417322835
20
0.8494582283464567
40
0.004
0
CIRCLE
8
BLACK
10
0.9074803149606299
20
0.7756852755905511
40
0.004
0
CIRCLE
8
BLACK
10
0.8726817716535433
20
0.8104838582677165
40
0.004
0
CIRCLE
8
BLACK
10
0.8378831889763779
20
0.8452824015748032
40
0.004
0
CIRCLE
8
BLACK
10
0.8337074015748032
20
0.7715094881889764
40
0.004
  0
ENDSEC
  0
EOF
