  0
SECTION
  2
HEADER
  9
$ANGBASE
  50
0.0
  9
$ANGDIR
  70
1
  9
$MEASUREMENT
  70
0
  0
ENDSEC
  0
SECTION
  2
TABLES
  0
TABLE
  2
LTYPE
  70
4
  0
LTYPE
  5
40F
  2
CONTINUOUS
  70
0
  3
Solid line
  72
65
  73
0
  40
0.0
  0
LTYPE
  5
410
  2
DASHDOT
 70
0
  3
Dash Dot ____ _ ____ _
 72
65
 73
4
 40
2.0
 49
1.25
 49
-0.25
 49
0.25
 49
-0.25
  0
LTYPE
  5
411
  2
DASHED
 70
0
  3
Dashed __ __ __ __ __
 72
65
 73
2
 40
0.75
 49
0.5
 49
-0.25
  0
LTYPE
  5
43B
  2
DOTTED
 70
0
  3
Dotted .  .  .  .
 72
65
 73
2
 40
0.2
 49
0.0
 49
-0.2
  0
ENDTAB
  0
TABLE
  2
STYLE
  70
4
  0
STYLE
  2
KICAD
  70
0
  40
0
  41
1
  42
1
  50
0
  71
0
  3
isocp.shx
  0
STYLE
  2
KICADB
  70
0
  40
0
  41
1
  42
1
  50
0
  71
0
  3
isocp.shx
  0
STYLE
  2
KICADI
  70
0
  40
0
  41
1
  42
1
  50
15
  71
0
  3
isocp.shx
  0
STYLE
  2
KICADBI
  70
0
  40
0
  41
1
  42
1
  50
15
  71
0
  3
isocp.shx
  0
ENDTAB
  0
TABLE
  2
LAYER
  70
1
  0
LAYER
  2
BLACK
  70
0
  62
7
  6
CONTINUOUS
  0
ENDTAB
  0
ENDSEC
  0
SECTION
  2
ENTITIES
0
LINE
8
BLACK
6
CONTINUOUS
10
1.5211434251968503
20
0.6274457874015748
11
1.5221020472440945
21
0.6268066929133859
0
LINE
8
BLACK
6
CONTINUOUS
10
1.5221020472440945
20
0.6268066929133859
11
1.5227431102362203
21
0.6258494094488188
0
LINE
8
BLACK
6
CONTINUOUS
10
1.5227431102362203
20
0.6258494094488188
11
1.5229690551181101
21
0.62471968503937
0
LINE
8
BLACK
6
CONTINUOUS
10
1.5229690551181101
20
0.62471968503937
11
1.5227454724409448
21
0.6235894881889764
0
LINE
8
BLACK
6
CONTINUOUS
10
1.5227454724409448
20
0.6235894881889764
11
1.5224731496062991
21
0.6230787007874016
0
LINE
8
BLACK
6
CONTINUOUS
10
1.5224731496062991
20
0.6230787007874016
11
1.4887274015748031
21
0.5724600393700787
0
LINE
8
BLACK
6
CONTINUOUS
10
1.4887274015748031
20
0.5724600393700787
11
1.4883606299212597
21
0.5720121653543307
0
LINE
8
BLACK
6
CONTINUOUS
10
1.4883606299212597
20
0.5720121653543307
11
1.4874033464566929
21
0.5713711023622047
0
LINE
8
BLACK
6
CONTINUOUS
10
1.4874033464566929
20
0.5713711023622047
11
1.4862736614173229
21
0.5711451574803149
0
LINE
8
BLACK
6
CONTINUOUS
10
1.4862736614173229
20
0.5711451574803149
11
1.4851434251968503
21
0.5713687401574803
0
LINE
8
BLACK
6
CONTINUOUS
10
1.4851434251968503
20
0.5713687401574803
11
1.4841848031496063
21
0.5720078346456693
0
LINE
8
BLACK
6
CONTINUOUS
10
1.4841848031496063
20
0.5720078346456693
11
1.4835437401574803
21
0.5729651181102362
0
LINE
8
BLACK
6
CONTINUOUS
10
1.4835437401574803
20
0.5729651181102362
11
1.4833177952755905
21
0.5740948031496063
0
LINE
8
BLACK
6
CONTINUOUS
10
1.4833177952755905
20
0.5740948031496063
11
1.483541377952756
21
0.5752250393700787
0
LINE
8
BLACK
6
CONTINUOUS
10
1.483541377952756
20
0.5752250393700787
11
1.4838137007874015
21
0.5757357874015748
0
LINE
8
BLACK
6
CONTINUOUS
10
1.4838137007874015
20
0.5757357874015748
11
1.5175594488188977
21
0.6263544881889763
0
LINE
8
BLACK
6
CONTINUOUS
10
1.5175594488188977
20
0.6263544881889763
11
1.5179262204724409
21
0.6268023228346457
0
LINE
8
BLACK
6
CONTINUOUS
10
1.5179262204724409
20
0.6268023228346457
11
1.5188835039370079
21
0.6274433858267716
0
LINE
8
BLACK
6
CONTINUOUS
10
1.5188835039370079
20
0.6274433858267716
11
1.5200131889763779
21
0.6276693307086614
0
LINE
8
BLACK
6
CONTINUOUS
10
1.5200131889763779
20
0.6276693307086614
11
1.5211434251968503
21
0.6274457874015748
0
LINE
8
BLACK
6
CONTINUOUS
10
1.2806224015748031
20
0.6257378346456692
11
1.2807203937007874
21
0.6256972440944881
0
LINE
8
BLACK
6
CONTINUOUS
10
1.2807203937007874
20
0.6256972440944881
11
1.280826220472441
21
0.6256897244094488
0
LINE
8
BLACK
6
CONTINUOUS
10
1.280826220472441
20
0.6256897244094488
11
1.2813668503937008
21
0.6254828346456692
0
LINE
8
BLACK
6
CONTINUOUS
10
1.2813668503937008
20
0.6254828346456692
11
1.2851163779527559
21
0.6236080708661417
0
LINE
8
BLACK
6
CONTINUOUS
10
1.2851163779527559
20
0.6236080708661417
11
1.28536437007874
21
0.6234520078740158
0
LINE
8
BLACK
6
CONTINUOUS
10
1.28536437007874
20
0.6234520078740158
11
1.285436338582677
21
0.6234221653543307
0
LINE
8
BLACK
6
CONTINUOUS
10
1.285436338582677
20
0.6234221653543307
11
1.285517283464567
21
0.6233557086614173
0
LINE
8
BLACK
6
CONTINUOUS
10
1.285517283464567
20
0.6233557086614173
11
1.2856062598425197
21
0.6232997244094488
0
LINE
8
BLACK
6
CONTINUOUS
10
1.2856062598425197
20
0.6232997244094488
11
1.285657401574803
21
0.6232407480314961
0
LINE
8
BLACK
6
CONTINUOUS
10
1.285657401574803
20
0.6232407480314961
11
1.2858837795275591
21
0.6230549606299213
0
LINE
8
BLACK
6
CONTINUOUS
10
1.2858837795275591
20
0.6230549606299213
11
1.2877585433070866
21
0.6211801968503937
0
LINE
8
BLACK
6
CONTINUOUS
10
1.2877585433070866
20
0.6211801968503937
11
1.2879442913385826
21
0.6209538582677165
0
LINE
8
BLACK
6
CONTINUOUS
10
1.2879442913385826
20
0.6209538582677165
11
1.2880033070866141
21
0.6209026771653543
0
LINE
8
BLACK
6
CONTINUOUS
10
1.2880033070866141
20
0.6209026771653543
11
1.2880592519685039
21
0.6208137401574803
0
LINE
8
BLACK
6
CONTINUOUS
10
1.2880592519685039
20
0.6208137401574803
11
1.288125748031496
21
0.6207327559055118
0
LINE
8
BLACK
6
CONTINUOUS
10
1.288125748031496
20
0.6207327559055118
11
1.2881555511811023
21
0.6206608267716536
0
LINE
8
BLACK
6
CONTINUOUS
10
1.2881555511811023
20
0.6206608267716536
11
1.288311653543307
21
0.6204127952755906
0
LINE
8
BLACK
6
CONTINUOUS
10
1.288311653543307
20
0.6204127952755906
11
1.2901864173228346
21
0.6166632677165355
0
LINE
8
BLACK
6
CONTINUOUS
10
1.2901864173228346
20
0.6166632677165355
11
1.2902025196850393
21
0.6166211811023622
0
LINE
8
BLACK
6
CONTINUOUS
10
1.2902025196850393
20
0.6166211811023622
11
1.2902152362204724
21
0.6166040157480315
0
LINE
8
BLACK
6
CONTINUOUS
10
1.2902152362204724
20
0.6166040157480315
11
1.2903015354330709
21
0.6163624409448819
0
LINE
8
BLACK
6
CONTINUOUS
10
1.2903015354330709
20
0.6163624409448819
11
1.290393307086614
21
0.6161226771653543
0
LINE
8
BLACK
6
CONTINUOUS
10
1.290393307086614
20
0.6161226771653543
11
1.2903948031496062
21
0.6161014173228346
0
LINE
8
BLACK
6
CONTINUOUS
10
1.2903948031496062
20
0.6161014173228346
11
1.2904100000000001
21
0.6160588976377953
0
LINE
8
BLACK
6
CONTINUOUS
10
1.2904100000000001
20
0.6160588976377953
11
1.2922847637795276
21
0.608559842519685
0
LINE
8
BLACK
6
CONTINUOUS
10
1.2922847637795276
20
0.608559842519685
11
1.2922995275590552
21
0.60846
0
LINE
8
BLACK
6
CONTINUOUS
10
1.2922995275590552
20
0.60846
11
1.2923161811023622
21
0.6084197637795276
0
LINE
8
BLACK
6
CONTINUOUS
10
1.2923161811023622
20
0.6084197637795276
11
1.2923375196850393
21
0.6082027559055118
0
LINE
8
BLACK
6
CONTINUOUS
10
1.2923375196850393
20
0.6082027559055118
11
1.292369409448819
21
0.6079872440944881
0
LINE
8
BLACK
6
CONTINUOUS
10
1.292369409448819
20
0.6079872440944881
11
1.2923629921259843
21
0.6079442519685039
0
LINE
8
BLACK
6
CONTINUOUS
10
1.2923629921259843
20
0.6079442519685039
11
1.2923729133858268
21
0.6078437007874016
0
LINE
8
BLACK
6
CONTINUOUS
10
1.2923729133858268
20
0.6078437007874016
11
1.2923729133858268
21
0.5984698818897638
0
LINE
8
BLACK
6
CONTINUOUS
10
1.2923729133858268
20
0.5984698818897638
11
1.2923629921259843
21
0.5983693700787401
0
LINE
8
BLACK
6
CONTINUOUS
10
1.2923629921259843
20
0.5983693700787401
11
1.292369409448819
21
0.5983263385826771
0
LINE
8
BLACK
6
CONTINUOUS
10
1.292369409448819
20
0.5983263385826771
11
1.2923375196850393
21
0.5981108661417323
0
LINE
8
BLACK
6
CONTINUOUS
10
1.2923375196850393
20
0.5981108661417323
11
1.2923161811023622
21
0.5978938188976378
0
LINE
8
BLACK
6
CONTINUOUS
10
1.2923161811023622
20
0.5978938188976378
11
1.2922995275590552
21
0.5978536220472441
0
LINE
8
BLACK
6
CONTINUOUS
10
1.2922995275590552
20
0.5978536220472441
11
1.2922847637795276
21
0.5977537401574803
0
LINE
8
BLACK
6
CONTINUOUS
10
1.2922847637795276
20
0.5977537401574803
11
1.2904100000000001
21
0.5902546850393701
0
LINE
8
BLACK
6
CONTINUOUS
10
1.2904100000000001
20
0.5902546850393701
11
1.2903948031496062
21
0.5902122047244094
0
LINE
8
BLACK
6
CONTINUOUS
10
1.2903948031496062
20
0.5902122047244094
11
1.290393307086614
21
0.590190905511811
0
LINE
8
BLACK
6
CONTINUOUS
10
1.290393307086614
20
0.590190905511811
11
1.2903015354330709
21
0.5899511811023622
0
LINE
8
BLACK
6
CONTINUOUS
10
1.2903015354330709
20
0.5899511811023622
11
1.2902152362204724
21
0.5897095669291339
0
LINE
8
BLACK
6
CONTINUOUS
10
1.2902152362204724
20
0.5897095669291339
11
1.2902025196850393
21
0.5896924409448818
0
LINE
8
BLACK
6
CONTINUOUS
10
1.2902025196850393
20
0.5896924409448818
11
1.2901864173228346
21
0.5896503149606299
0
LINE
8
BLACK
6
CONTINUOUS
10
1.2901864173228346
20
0.5896503149606299
11
1.288311653543307
21
0.5859007874015748
0
LINE
8
BLACK
6
CONTINUOUS
10
1.288311653543307
20
0.5859007874015748
11
1.288155590551181
21
0.5856529133858268
0
LINE
8
BLACK
6
CONTINUOUS
10
1.288155590551181
20
0.5856529133858268
11
1.2881257874015748
21
0.5855808661417322
0
LINE
8
BLACK
6
CONTINUOUS
10
1.2881257874015748
20
0.5855808661417322
11
1.2880592519685039
21
0.585499842519685
0
LINE
8
BLACK
6
CONTINUOUS
10
1.2880592519685039
20
0.585499842519685
11
1.2880033070866141
21
0.585410905511811
0
LINE
8
BLACK
6
CONTINUOUS
10
1.2880033070866141
20
0.585410905511811
11
1.2879442913385826
21
0.5853597637795276
0
LINE
8
BLACK
6
CONTINUOUS
10
1.2879442913385826
20
0.5853597637795276
11
1.2877585433070866
21
0.5851333858267717
0
LINE
8
BLACK
6
CONTINUOUS
10
1.2877585433070866
20
0.5851333858267717
11
1.2858838188976378
21
0.5832586220472441
0
LINE
8
BLACK
6
CONTINUOUS
10
1.2858838188976378
20
0.5832586220472441
11
1.2856574409448818
21
0.583072874015748
0
LINE
8
BLACK
6
CONTINUOUS
10
1.2856574409448818
20
0.583072874015748
11
1.2856062598425197
21
0.5830138188976378
0
LINE
8
BLACK
6
CONTINUOUS
10
1.2856062598425197
20
0.5830138188976378
11
1.285517283464567
21
0.5829578346456693
0
LINE
8
BLACK
6
CONTINUOUS
10
1.285517283464567
20
0.5829578346456693
11
1.285436338582677
21
0.5828913779527559
0
LINE
8
BLACK
6
CONTINUOUS
10
1.285436338582677
20
0.5828913779527559
11
1.28536437007874
21
0.5828615748031496
0
LINE
8
BLACK
6
CONTINUOUS
10
1.28536437007874
20
0.5828615748031496
11
1.2851163779527559
21
0.5827054724409448
0
LINE
8
BLACK
6
CONTINUOUS
10
1.2851163779527559
20
0.5827054724409448
11
1.2813668503937008
21
0.5808307086614173
0
LINE
8
BLACK
6
CONTINUOUS
10
1.2813668503937008
20
0.5808307086614173
11
1.280826220472441
21
0.5806238188976378
0
LINE
8
BLACK
6
CONTINUOUS
10
1.280826220472441
20
0.5806238188976378
11
1.2807203937007874
21
0.5806163385826771
0
LINE
8
BLACK
6
CONTINUOUS
10
1.2807203937007874
20
0.5806163385826771
11
1.2806224015748031
21
0.5805757086614173
0
LINE
8
BLACK
6
CONTINUOUS
10
1.2806224015748031
20
0.5805757086614173
11
1.2800463385826772
21
0.5805189763779527
0
LINE
8
BLACK
6
CONTINUOUS
10
1.2800463385826772
20
0.5805189763779527
11
1.2762968110236219
21
0.5805189763779527
0
LINE
8
BLACK
6
CONTINUOUS
10
1.2762968110236219
20
0.5805189763779527
11
1.275720748031496
21
0.5805757086614173
0
LINE
8
BLACK
6
CONTINUOUS
10
1.275720748031496
20
0.5805757086614173
11
1.2756227559055118
21
0.5806162992125984
0
LINE
8
BLACK
6
CONTINUOUS
10
1.2756227559055118
20
0.5806162992125984
11
1.2755168897637794
21
0.5806238188976378
0
LINE
8
BLACK
6
CONTINUOUS
10
1.2755168897637794
20
0.5806238188976378
11
1.2749762992125984
21
0.5808307086614173
0
LINE
8
BLACK
6
CONTINUOUS
10
1.2749762992125984
20
0.5808307086614173
11
1.2712267716535433
21
0.5827054724409448
0
LINE
8
BLACK
6
CONTINUOUS
10
1.2712267716535433
20
0.5827054724409448
11
1.2709787401574804
21
0.5828615748031496
0
LINE
8
BLACK
6
CONTINUOUS
10
1.2709787401574804
20
0.5828615748031496
11
1.2709068110236219
21
0.5828913779527559
0
LINE
8
BLACK
6
CONTINUOUS
10
1.2709068110236219
20
0.5828913779527559
11
1.2708258267716535
21
0.5829578346456693
0
LINE
8
BLACK
6
CONTINUOUS
10
1.2708258267716535
20
0.5829578346456693
11
1.2707368897637794
21
0.5830138188976378
0
LINE
8
BLACK
6
CONTINUOUS
10
1.2707368897637794
20
0.5830138188976378
11
1.2706856692913386
21
0.583072874015748
0
LINE
8
BLACK
6
CONTINUOUS
10
1.2706856692913386
20
0.583072874015748
11
1.2704593307086613
21
0.5832586220472441
0
LINE
8
BLACK
6
CONTINUOUS
10
1.2704593307086613
20
0.5832586220472441
11
1.2685845669291338
21
0.5851334251968504
0
LINE
8
BLACK
6
CONTINUOUS
10
1.2685845669291338
20
0.5851334251968504
11
1.2683988188976378
21
0.5853597637795276
0
LINE
8
BLACK
6
CONTINUOUS
10
1.2683988188976378
20
0.5853597637795276
11
1.268339842519685
21
0.585410905511811
0
LINE
8
BLACK
6
CONTINUOUS
10
1.268339842519685
20
0.585410905511811
11
1.2682838582677165
21
0.585499842519685
0
LINE
8
BLACK
6
CONTINUOUS
10
1.2682838582677165
20
0.585499842519685
11
1.2682173622047244
21
0.5855808661417322
0
LINE
8
BLACK
6
CONTINUOUS
10
1.2682173622047244
20
0.5855808661417322
11
1.2681875196850394
21
0.5856529133858268
0
LINE
8
BLACK
6
CONTINUOUS
10
1.2681875196850394
20
0.5856529133858268
11
1.2680314960629921
21
0.5859007874015748
0
LINE
8
BLACK
6
CONTINUOUS
10
1.2680314960629921
20
0.5859007874015748
11
1.2661567322834646
21
0.5896503149606299
0
LINE
8
BLACK
6
CONTINUOUS
10
1.2661567322834646
20
0.5896503149606299
11
1.2661405905511811
21
0.5896924409448818
0
LINE
8
BLACK
6
CONTINUOUS
10
1.2661405905511811
20
0.5896924409448818
11
1.2661279133858268
21
0.5897095669291339
0
LINE
8
BLACK
6
CONTINUOUS
10
1.2661279133858268
20
0.5897095669291339
11
1.2660414566929135
21
0.5899515354330709
0
LINE
8
BLACK
6
CONTINUOUS
10
1.2660414566929135
20
0.5899515354330709
11
1.2659498425196851
21
0.5901909448818897
0
LINE
8
BLACK
6
CONTINUOUS
10
1.2659498425196851
20
0.5901909448818897
11
1.2659483070866142
21
0.5902122047244094
0
LINE
8
BLACK
6
CONTINUOUS
10
1.2659483070866142
20
0.5902122047244094
11
1.2659331496062991
21
0.5902546850393701
0
LINE
8
BLACK
6
CONTINUOUS
10
1.2659331496062991
20
0.5902546850393701
11
1.2640583858267715
21
0.5977537401574803
0
LINE
8
BLACK
6
CONTINUOUS
10
1.2640583858267715
20
0.5977537401574803
11
1.2640435826771654
21
0.5978536220472441
0
LINE
8
BLACK
6
CONTINUOUS
10
1.2640435826771654
20
0.5978536220472441
11
1.2640269685039369
21
0.5978938188976378
0
LINE
8
BLACK
6
CONTINUOUS
10
1.2640269685039369
20
0.5978938188976378
11
1.2640055905511811
21
0.5981108661417323
0
LINE
8
BLACK
6
CONTINUOUS
10
1.2640055905511811
20
0.5981108661417323
11
1.2639737401574802
21
0.5983263385826771
0
LINE
8
BLACK
6
CONTINUOUS
10
1.2639737401574802
20
0.5983263385826771
11
1.2639801181102361
21
0.5983693700787401
0
LINE
8
BLACK
6
CONTINUOUS
10
1.2639801181102361
20
0.5983693700787401
11
1.2639702362204723
21
0.5984698818897638
0
LINE
8
BLACK
6
CONTINUOUS
10
1.2639702362204723
20
0.5984698818897638
11
1.2639702362204723
21
0.6078437007874016
0
LINE
8
BLACK
6
CONTINUOUS
10
1.2639702362204723
20
0.6078437007874016
11
1.2639801181102361
21
0.6079442519685039
0
LINE
8
BLACK
6
CONTINUOUS
10
1.2639801181102361
20
0.6079442519685039
11
1.2639737401574802
21
0.6079872440944881
0
LINE
8
BLACK
6
CONTINUOUS
10
1.2639737401574802
20
0.6079872440944881
11
1.2640055905511811
21
0.6082027559055118
0
LINE
8
BLACK
6
CONTINUOUS
10
1.2640055905511811
20
0.6082027559055118
11
1.2640269685039369
21
0.6084197637795276
0
LINE
8
BLACK
6
CONTINUOUS
10
1.2640269685039369
20
0.6084197637795276
11
1.2640435826771654
21
0.60846
0
LINE
8
BLACK
6
CONTINUOUS
10
1.2640435826771654
20
0.60846
11
1.2640583858267715
21
0.608559842519685
0
LINE
8
BLACK
6
CONTINUOUS
10
1.2640583858267715
20
0.608559842519685
11
1.2659331496062991
21
0.6160588976377953
0
LINE
8
BLACK
6
CONTINUOUS
10
1.2659331496062991
20
0.6160588976377953
11
1.2659483070866142
21
0.6161014173228346
0
LINE
8
BLACK
6
CONTINUOUS
10
1.2659483070866142
20
0.6161014173228346
11
1.2659498425196851
21
0.6161226377952755
0
LINE
8
BLACK
6
CONTINUOUS
10
1.2659498425196851
20
0.6161226377952755
11
1.2660414566929135
21
0.6163620866141732
0
LINE
8
BLACK
6
CONTINUOUS
10
1.2660414566929135
20
0.6163620866141732
11
1.2661279133858268
21
0.6166040157480315
0
LINE
8
BLACK
6
CONTINUOUS
10
1.2661279133858268
20
0.6166040157480315
11
1.2661405905511811
21
0.6166211811023622
0
LINE
8
BLACK
6
CONTINUOUS
10
1.2661405905511811
20
0.6166211811023622
11
1.2661567322834646
21
0.6166632677165355
0
LINE
8
BLACK
6
CONTINUOUS
10
1.2661567322834646
20
0.6166632677165355
11
1.2680314960629921
21
0.6204127952755906
0
LINE
8
BLACK
6
CONTINUOUS
10
1.2680314960629921
20
0.6204127952755906
11
1.2681875590551182
21
0.6206608267716536
0
LINE
8
BLACK
6
CONTINUOUS
10
1.2681875590551182
20
0.6206608267716536
11
1.2682174015748031
21
0.6207327559055118
0
LINE
8
BLACK
6
CONTINUOUS
10
1.2682174015748031
20
0.6207327559055118
11
1.2682838582677165
21
0.6208137401574803
0
LINE
8
BLACK
6
CONTINUOUS
10
1.2682838582677165
20
0.6208137401574803
11
1.268339842519685
21
0.6209026771653543
0
LINE
8
BLACK
6
CONTINUOUS
10
1.268339842519685
20
0.6209026771653543
11
1.2683988188976378
21
0.6209538582677165
0
LINE
8
BLACK
6
CONTINUOUS
10
1.2683988188976378
20
0.6209538582677165
11
1.2685846062992125
21
0.6211801968503937
0
LINE
8
BLACK
6
CONTINUOUS
10
1.2685846062992125
20
0.6211801968503937
11
1.2704593700787401
21
0.6230549606299213
0
LINE
8
BLACK
6
CONTINUOUS
10
1.2704593700787401
20
0.6230549606299213
11
1.2706857086614174
21
0.6232407480314961
0
LINE
8
BLACK
6
CONTINUOUS
10
1.2706857086614174
20
0.6232407480314961
11
1.2707368897637794
21
0.6232997244094488
0
LINE
8
BLACK
6
CONTINUOUS
10
1.2707368897637794
20
0.6232997244094488
11
1.2708258267716535
21
0.6233557086614173
0
LINE
8
BLACK
6
CONTINUOUS
10
1.2708258267716535
20
0.6233557086614173
11
1.2709068110236219
21
0.6234221653543307
0
LINE
8
BLACK
6
CONTINUOUS
10
1.2709068110236219
20
0.6234221653543307
11
1.2709787401574804
21
0.6234520078740158
0
LINE
8
BLACK
6
CONTINUOUS
10
1.2709787401574804
20
0.6234520078740158
11
1.2712267716535433
21
0.6236080708661417
0
LINE
8
BLACK
6
CONTINUOUS
10
1.2712267716535433
20
0.6236080708661417
11
1.2749762992125984
21
0.6254828346456692
0
LINE
8
BLACK
6
CONTINUOUS
10
1.2749762992125984
20
0.6254828346456692
11
1.2755168897637794
21
0.6256897244094488
0
LINE
8
BLACK
6
CONTINUOUS
10
1.2755168897637794
20
0.6256897244094488
11
1.2756227559055118
21
0.6256972834645669
0
LINE
8
BLACK
6
CONTINUOUS
10
1.2756227559055118
20
0.6256972834645669
11
1.275720748031496
21
0.6257378346456692
0
LINE
8
BLACK
6
CONTINUOUS
10
1.275720748031496
20
0.6257378346456692
11
1.2762968110236219
21
0.6257945669291338
0
LINE
8
BLACK
6
CONTINUOUS
10
1.2762968110236219
20
0.6257945669291338
11
1.2800463385826772
21
0.6257945669291338
0
LINE
8
BLACK
6
CONTINUOUS
10
1.2800463385826772
20
0.6257945669291338
11
1.2806224015748031
21
0.6257378346456692
0
LINE
8
BLACK
6
CONTINUOUS
10
1.2742963779527559
20
0.6185403149606299
11
1.2730992519685038
21
0.617343188976378
0
LINE
8
BLACK
6
CONTINUOUS
10
1.2730992519685038
20
0.617343188976378
11
1.2715837401574803
21
0.6143122047244094
0
LINE
8
BLACK
6
CONTINUOUS
10
1.2715837401574803
20
0.6143122047244094
11
1.2698757480314959
21
0.6074801574803149
0
LINE
8
BLACK
6
CONTINUOUS
10
1.2698757480314959
20
0.6074801574803149
11
1.2698757480314959
21
0.5988334251968503
0
LINE
8
BLACK
6
CONTINUOUS
10
1.2698757480314959
20
0.5988334251968503
11
1.2715837401574803
21
0.5920013779527559
0
LINE
8
BLACK
6
CONTINUOUS
10
1.2715837401574803
20
0.5920013779527559
11
1.2730992519685038
21
0.5889703937007874
0
LINE
8
BLACK
6
CONTINUOUS
10
1.2730992519685038
20
0.5889703937007874
11
1.2742963779527559
21
0.5877732283464567
0
LINE
8
BLACK
6
CONTINUOUS
10
1.2742963779527559
20
0.5877732283464567
11
1.2769938582677165
21
0.5864244881889764
0
LINE
8
BLACK
6
CONTINUOUS
10
1.2769938582677165
20
0.5864244881889764
11
1.2793492913385827
21
0.5864244881889764
0
LINE
8
BLACK
6
CONTINUOUS
10
1.2793492913385827
20
0.5864244881889764
11
1.2820467322834646
21
0.5877732283464567
0
LINE
8
BLACK
6
CONTINUOUS
10
1.2820467322834646
20
0.5877732283464567
11
1.2832438582677166
21
0.5889703937007874
0
LINE
8
BLACK
6
CONTINUOUS
10
1.2832438582677166
20
0.5889703937007874
11
1.2847593700787401
21
0.5920013779527559
0
LINE
8
BLACK
6
CONTINUOUS
10
1.2847593700787401
20
0.5920013779527559
11
1.2864674015748032
21
0.5988334251968503
0
LINE
8
BLACK
6
CONTINUOUS
10
1.2864674015748032
20
0.5988334251968503
11
1.2864674015748032
21
0.6074801574803149
0
LINE
8
BLACK
6
CONTINUOUS
10
1.2864674015748032
20
0.6074801574803149
11
1.2847593700787401
21
0.6143122047244094
0
LINE
8
BLACK
6
CONTINUOUS
10
1.2847593700787401
20
0.6143122047244094
11
1.2832438976377953
21
0.617343188976378
0
LINE
8
BLACK
6
CONTINUOUS
10
1.2832438976377953
20
0.617343188976378
11
1.2820467716535433
21
0.6185403149606299
0
LINE
8
BLACK
6
CONTINUOUS
10
1.2820467716535433
20
0.6185403149606299
11
1.2793492913385827
21
0.6198890551181102
0
LINE
8
BLACK
6
CONTINUOUS
10
1.2793492913385827
20
0.6198890551181102
11
1.2769938582677165
21
0.6198890551181102
0
LINE
8
BLACK
6
CONTINUOUS
10
1.2769938582677165
20
0.6198890551181102
11
1.2742963779527559
21
0.6185403149606299
0
LINE
8
BLACK
6
CONTINUOUS
10
1.3368653543307085
20
0.6257378346456692
11
1.3369633464566928
21
0.6256972440944881
0
LINE
8
BLACK
6
CONTINUOUS
10
1.3369633464566928
20
0.6256972440944881
11
1.3370691732283464
21
0.6256897244094488
0
LINE
8
BLACK
6
CONTINUOUS
10
1.3370691732283464
20
0.6256897244094488
11
1.3376098031496062
21
0.6254828346456692
0
LINE
8
BLACK
6
CONTINUOUS
10
1.3376098031496062
20
0.6254828346456692
11
1.3413593307086613
21
0.6236080708661417
0
LINE
8
BLACK
6
CONTINUOUS
10
1.3413593307086613
20
0.6236080708661417
11
1.3416073228346457
21
0.6234520078740158
0
LINE
8
BLACK
6
CONTINUOUS
10
1.3416073228346457
20
0.6234520078740158
11
1.3416792913385827
21
0.6234221653543307
0
LINE
8
BLACK
6
CONTINUOUS
10
1.3416792913385827
20
0.6234221653543307
11
1.3417602362204724
21
0.6233557086614173
0
LINE
8
BLACK
6
CONTINUOUS
10
1.3417602362204724
20
0.6233557086614173
11
1.3418492125984252
21
0.6232997244094488
0
LINE
8
BLACK
6
CONTINUOUS
10
1.3418492125984252
20
0.6232997244094488
11
1.3419003543307086
21
0.6232407480314961
0
LINE
8
BLACK
6
CONTINUOUS
10
1.3419003543307086
20
0.6232407480314961
11
1.3421267322834645
21
0.6230549606299213
0
LINE
8
BLACK
6
CONTINUOUS
10
1.3421267322834645
20
0.6230549606299213
11
1.344001496062992
21
0.6211801968503937
0
LINE
8
BLACK
6
CONTINUOUS
10
1.344001496062992
20
0.6211801968503937
11
1.3441872440944882
21
0.6209538582677165
0
LINE
8
BLACK
6
CONTINUOUS
10
1.3441872440944882
20
0.6209538582677165
11
1.3442462598425196
21
0.6209026771653543
0
LINE
8
BLACK
6
CONTINUOUS
10
1.3442462598425196
20
0.6209026771653543
11
1.3443022047244093
21
0.6208137401574803
0
LINE
8
BLACK
6
CONTINUOUS
10
1.3443022047244093
20
0.6208137401574803
11
1.3443687007874014
21
0.6207327559055118
0
LINE
8
BLACK
6
CONTINUOUS
10
1.3443687007874014
20
0.6207327559055118
11
1.3443985039370079
21
0.6206608267716536
0
LINE
8
BLACK
6
CONTINUOUS
10
1.3443985039370079
20
0.6206608267716536
11
1.3445546062992126
21
0.6204127952755906
0
LINE
8
BLACK
6
CONTINUOUS
10
1.3445546062992126
20
0.6204127952755906
11
1.3464293700787402
21
0.6166632677165355
0
LINE
8
BLACK
6
CONTINUOUS
10
1.3464293700787402
20
0.6166632677165355
11
1.3464454724409449
21
0.6166211811023622
0
LINE
8
BLACK
6
CONTINUOUS
10
1.3464454724409449
20
0.6166211811023622
11
1.3464581889763778
21
0.6166040157480315
0
LINE
8
BLACK
6
CONTINUOUS
10
1.3464581889763778
20
0.6166040157480315
11
1.3465444881889763
21
0.6163624409448819
0
LINE
8
BLACK
6
CONTINUOUS
10
1.3465444881889763
20
0.6163624409448819
11
1.3466362598425197
21
0.6161226771653543
0
LINE
8
BLACK
6
CONTINUOUS
10
1.3466362598425197
20
0.6161226771653543
11
1.3466377559055118
21
0.6161014173228346
0
LINE
8
BLACK
6
CONTINUOUS
10
1.3466377559055118
20
0.6161014173228346
11
1.3466529527559055
21
0.6160588976377953
0
LINE
8
BLACK
6
CONTINUOUS
10
1.3466529527559055
20
0.6160588976377953
11
1.348527716535433
21
0.608559842519685
0
LINE
8
BLACK
6
CONTINUOUS
10
1.348527716535433
20
0.608559842519685
11
1.3485424803149606
21
0.60846
0
LINE
8
BLACK
6
CONTINUOUS
10
1.3485424803149606
20
0.60846
11
1.3485591338582676
21
0.6084197637795276
0
LINE
8
BLACK
6
CONTINUOUS
10
1.3485591338582676
20
0.6084197637795276
11
1.3485804724409449
21
0.6082027559055118
0
LINE
8
BLACK
6
CONTINUOUS
10
1.3485804724409449
20
0.6082027559055118
11
1.3486123622047244
21
0.6079872440944881
0
LINE
8
BLACK
6
CONTINUOUS
10
1.3486123622047244
20
0.6079872440944881
11
1.3486059448818897
21
0.6079442519685039
0
LINE
8
BLACK
6
CONTINUOUS
10
1.3486059448818897
20
0.6079442519685039
11
1.3486158661417322
21
0.6078437007874016
0
LINE
8
BLACK
6
CONTINUOUS
10
1.3486158661417322
20
0.6078437007874016
11
1.3486158661417322
21
0.5984698818897638
0
LINE
8
BLACK
6
CONTINUOUS
10
1.3486158661417322
20
0.5984698818897638
11
1.3486059448818897
21
0.5983693700787401
0
LINE
8
BLACK
6
CONTINUOUS
10
1.3486059448818897
20
0.5983693700787401
11
1.3486123622047244
21
0.5983263385826771
0
LINE
8
BLACK
6
CONTINUOUS
10
1.3486123622047244
20
0.5983263385826771
11
1.3485804724409449
21
0.5981108661417323
0
LINE
8
BLACK
6
CONTINUOUS
10
1.3485804724409449
20
0.5981108661417323
11
1.3485591338582676
21
0.5978938188976378
0
LINE
8
BLACK
6
CONTINUOUS
10
1.3485591338582676
20
0.5978938188976378
11
1.3485424803149606
21
0.5978536220472441
0
LINE
8
BLACK
6
CONTINUOUS
10
1.3485424803149606
20
0.5978536220472441
11
1.348527716535433
21
0.5977537401574803
0
LINE
8
BLACK
6
CONTINUOUS
10
1.348527716535433
20
0.5977537401574803
11
1.3466529527559055
21
0.5902546850393701
0
LINE
8
BLACK
6
CONTINUOUS
10
1.3466529527559055
20
0.5902546850393701
11
1.3466377559055118
21
0.5902122047244094
0
LINE
8
BLACK
6
CONTINUOUS
10
1.3466377559055118
20
0.5902122047244094
11
1.3466362598425197
21
0.590190905511811
0
LINE
8
BLACK
6
CONTINUOUS
10
1.3466362598425197
20
0.590190905511811
11
1.3465444881889763
21
0.5899511811023622
0
LINE
8
BLACK
6
CONTINUOUS
10
1.3465444881889763
20
0.5899511811023622
11
1.3464581889763778
21
0.5897095669291339
0
LINE
8
BLACK
6
CONTINUOUS
10
1.3464581889763778
20
0.5897095669291339
11
1.3464454724409449
21
0.5896924409448818
0
LINE
8
BLACK
6
CONTINUOUS
10
1.3464454724409449
20
0.5896924409448818
11
1.3464293700787402
21
0.5896503149606299
0
LINE
8
BLACK
6
CONTINUOUS
10
1.3464293700787402
20
0.5896503149606299
11
1.3445546062992126
21
0.5859007874015748
0
LINE
8
BLACK
6
CONTINUOUS
10
1.3445546062992126
20
0.5859007874015748
11
1.3443985433070866
21
0.5856529133858268
0
LINE
8
BLACK
6
CONTINUOUS
10
1.3443985433070866
20
0.5856529133858268
11
1.3443687401574802
21
0.5855808661417322
0
LINE
8
BLACK
6
CONTINUOUS
10
1.3443687401574802
20
0.5855808661417322
11
1.3443022047244093
21
0.585499842519685
0
LINE
8
BLACK
6
CONTINUOUS
10
1.3443022047244093
20
0.585499842519685
11
1.3442462598425196
21
0.585410905511811
0
LINE
8
BLACK
6
CONTINUOUS
10
1.3442462598425196
20
0.585410905511811
11
1.3441872440944882
21
0.5853597637795276
0
LINE
8
BLACK
6
CONTINUOUS
10
1.3441872440944882
20
0.5853597637795276
11
1.344001496062992
21
0.5851333858267717
0
LINE
8
BLACK
6
CONTINUOUS
10
1.344001496062992
20
0.5851333858267717
11
1.3421267716535432
21
0.5832586220472441
0
LINE
8
BLACK
6
CONTINUOUS
10
1.3421267716535432
20
0.5832586220472441
11
1.3419003937007874
21
0.583072874015748
0
LINE
8
BLACK
6
CONTINUOUS
10
1.3419003937007874
20
0.583072874015748
11
1.3418492125984252
21
0.5830138188976378
0
LINE
8
BLACK
6
CONTINUOUS
10
1.3418492125984252
20
0.5830138188976378
11
1.3417602362204724
21
0.5829578346456693
0
LINE
8
BLACK
6
CONTINUOUS
10
1.3417602362204724
20
0.5829578346456693
11
1.3416792913385827
21
0.5828913779527559
0
LINE
8
BLACK
6
CONTINUOUS
10
1.3416792913385827
20
0.5828913779527559
11
1.3416073228346457
21
0.5828615748031496
0
LINE
8
BLACK
6
CONTINUOUS
10
1.3416073228346457
20
0.5828615748031496
11
1.3413593307086613
21
0.5827054724409448
0
LINE
8
BLACK
6
CONTINUOUS
10
1.3413593307086613
20
0.5827054724409448
11
1.3376098031496062
21
0.5808307086614173
0
LINE
8
BLACK
6
CONTINUOUS
10
1.3376098031496062
20
0.5808307086614173
11
1.3370691732283464
21
0.5806238188976378
0
LINE
8
BLACK
6
CONTINUOUS
10
1.3370691732283464
20
0.5806238188976378
11
1.3369633464566928
21
0.5806163385826771
0
LINE
8
BLACK
6
CONTINUOUS
10
1.3369633464566928
20
0.5806163385826771
11
1.3368653543307085
21
0.5805757086614173
0
LINE
8
BLACK
6
CONTINUOUS
10
1.3368653543307085
20
0.5805757086614173
11
1.3362892913385827
21
0.5805189763779527
0
LINE
8
BLACK
6
CONTINUOUS
10
1.3362892913385827
20
0.5805189763779527
11
1.3325397637795275
21
0.5805189763779527
0
LINE
8
BLACK
6
CONTINUOUS
10
1.3325397637795275
20
0.5805189763779527
11
1.3319637007874015
21
0.5805757086614173
0
LINE
8
BLACK
6
CONTINUOUS
10
1.3319637007874015
20
0.5805757086614173
11
1.3318657086614174
21
0.5806162992125984
0
LINE
8
BLACK
6
CONTINUOUS
10
1.3318657086614174
20
0.5806162992125984
11
1.331759842519685
21
0.5806238188976378
0
LINE
8
BLACK
6
CONTINUOUS
10
1.331759842519685
20
0.5806238188976378
11
1.331219251968504
21
0.5808307086614173
0
LINE
8
BLACK
6
CONTINUOUS
10
1.331219251968504
20
0.5808307086614173
11
1.3274697244094489
21
0.5827054724409448
0
LINE
8
BLACK
6
CONTINUOUS
10
1.3274697244094489
20
0.5827054724409448
11
1.3272216929133858
21
0.5828615748031496
0
LINE
8
BLACK
6
CONTINUOUS
10
1.3272216929133858
20
0.5828615748031496
11
1.3271497637795275
21
0.5828913779527559
0
LINE
8
BLACK
6
CONTINUOUS
10
1.3271497637795275
20
0.5828913779527559
11
1.3270687795275591
21
0.5829578346456693
0
LINE
8
BLACK
6
CONTINUOUS
10
1.3270687795275591
20
0.5829578346456693
11
1.326979842519685
21
0.5830138188976378
0
LINE
8
BLACK
6
CONTINUOUS
10
1.326979842519685
20
0.5830138188976378
11
1.326928622047244
21
0.583072874015748
0
LINE
8
BLACK
6
CONTINUOUS
10
1.326928622047244
20
0.583072874015748
11
1.326702283464567
21
0.5832586220472441
0
LINE
8
BLACK
6
CONTINUOUS
10
1.326702283464567
20
0.5832586220472441
11
1.3248275196850394
21
0.5851334251968504
0
LINE
8
BLACK
6
CONTINUOUS
10
1.3248275196850394
20
0.5851334251968504
11
1.3246417716535432
21
0.5853597637795276
0
LINE
8
BLACK
6
CONTINUOUS
10
1.3246417716535432
20
0.5853597637795276
11
1.3245827952755904
21
0.585410905511811
0
LINE
8
BLACK
6
CONTINUOUS
10
1.3245827952755904
20
0.585410905511811
11
1.3245268110236219
21
0.585499842519685
0
LINE
8
BLACK
6
CONTINUOUS
10
1.3245268110236219
20
0.585499842519685
11
1.32446031496063
21
0.5855808661417322
0
LINE
8
BLACK
6
CONTINUOUS
10
1.32446031496063
20
0.5855808661417322
11
1.3244304724409448
21
0.5856529133858268
0
LINE
8
BLACK
6
CONTINUOUS
10
1.3244304724409448
20
0.5856529133858268
11
1.3242744488188976
21
0.5859007874015748
0
LINE
8
BLACK
6
CONTINUOUS
10
1.3242744488188976
20
0.5859007874015748
11
1.32239968503937
21
0.5896503149606299
0
LINE
8
BLACK
6
CONTINUOUS
10
1.32239968503937
20
0.5896503149606299
11
1.3223835433070865
21
0.5896924409448818
0
LINE
8
BLACK
6
CONTINUOUS
10
1.3223835433070865
20
0.5896924409448818
11
1.3223708661417322
21
0.5897095669291339
0
LINE
8
BLACK
6
CONTINUOUS
10
1.3223708661417322
20
0.5897095669291339
11
1.3222844094488189
21
0.5899515354330709
0
LINE
8
BLACK
6
CONTINUOUS
10
1.3222844094488189
20
0.5899515354330709
11
1.3221927952755905
21
0.5901909448818897
0
LINE
8
BLACK
6
CONTINUOUS
10
1.3221927952755905
20
0.5901909448818897
11
1.3221912598425196
21
0.5902122047244094
0
LINE
8
BLACK
6
CONTINUOUS
10
1.3221912598425196
20
0.5902122047244094
11
1.3221761023622047
21
0.5902546850393701
0
LINE
8
BLACK
6
CONTINUOUS
10
1.3221761023622047
20
0.5902546850393701
11
1.3203013385826772
21
0.5977537401574803
0
LINE
8
BLACK
6
CONTINUOUS
10
1.3203013385826772
20
0.5977537401574803
11
1.3202865354330708
21
0.5978536220472441
0
LINE
8
BLACK
6
CONTINUOUS
10
1.3202865354330708
20
0.5978536220472441
11
1.3202699212598425
21
0.5978938188976378
0
LINE
8
BLACK
6
CONTINUOUS
10
1.3202699212598425
20
0.5978938188976378
11
1.3202485433070865
21
0.5981108661417323
0
LINE
8
BLACK
6
CONTINUOUS
10
1.3202485433070865
20
0.5981108661417323
11
1.3202166929133858
21
0.5983263385826771
0
LINE
8
BLACK
6
CONTINUOUS
10
1.3202166929133858
20
0.5983263385826771
11
1.3202230708661418
21
0.5983693700787401
0
LINE
8
BLACK
6
CONTINUOUS
10
1.3202230708661418
20
0.5983693700787401
11
1.320213188976378
21
0.5984698818897638
0
LINE
8
BLACK
6
CONTINUOUS
10
1.320213188976378
20
0.5984698818897638
11
1.320213188976378
21
0.6078437007874016
0
LINE
8
BLACK
6
CONTINUOUS
10
1.320213188976378
20
0.6078437007874016
11
1.3202230708661418
21
0.6079442519685039
0
LINE
8
BLACK
6
CONTINUOUS
10
1.3202230708661418
20
0.6079442519685039
11
1.3202166929133858
21
0.6079872440944881
0
LINE
8
BLACK
6
CONTINUOUS
10
1.3202166929133858
20
0.6079872440944881
11
1.3202485433070865
21
0.6082027559055118
0
LINE
8
BLACK
6
CONTINUOUS
10
1.3202485433070865
20
0.6082027559055118
11
1.3202699212598425
21
0.6084197637795276
0
LINE
8
BLACK
6
CONTINUOUS
10
1.3202699212598425
20
0.6084197637795276
11
1.3202865354330708
21
0.60846
0
LINE
8
BLACK
6
CONTINUOUS
10
1.3202865354330708
20
0.60846
11
1.3203013385826772
21
0.608559842519685
0
LINE
8
BLACK
6
CONTINUOUS
10
1.3203013385826772
20
0.608559842519685
11
1.3221761023622047
21
0.6160588976377953
0
LINE
8
BLACK
6
CONTINUOUS
10
1.3221761023622047
20
0.6160588976377953
11
1.3221912598425196
21
0.6161014173228346
0
LINE
8
BLACK
6
CONTINUOUS
10
1.3221912598425196
20
0.6161014173228346
11
1.3221927952755905
21
0.6161226377952755
0
LINE
8
BLACK
6
CONTINUOUS
10
1.3221927952755905
20
0.6161226377952755
11
1.3222844094488189
21
0.6163620866141732
0
LINE
8
BLACK
6
CONTINUOUS
10
1.3222844094488189
20
0.6163620866141732
11
1.3223708661417322
21
0.6166040157480315
0
LINE
8
BLACK
6
CONTINUOUS
10
1.3223708661417322
20
0.6166040157480315
11
1.3223835433070865
21
0.6166211811023622
0
LINE
8
BLACK
6
CONTINUOUS
10
1.3223835433070865
20
0.6166211811023622
11
1.32239968503937
21
0.6166632677165355
0
LINE
8
BLACK
6
CONTINUOUS
10
1.32239968503937
20
0.6166632677165355
11
1.3242744488188976
21
0.6204127952755906
0
LINE
8
BLACK
6
CONTINUOUS
10
1.3242744488188976
20
0.6204127952755906
11
1.3244305118110236
21
0.6206608267716536
0
LINE
8
BLACK
6
CONTINUOUS
10
1.3244305118110236
20
0.6206608267716536
11
1.3244603543307085
21
0.6207327559055118
0
LINE
8
BLACK
6
CONTINUOUS
10
1.3244603543307085
20
0.6207327559055118
11
1.3245268110236219
21
0.6208137401574803
0
LINE
8
BLACK
6
CONTINUOUS
10
1.3245268110236219
20
0.6208137401574803
11
1.3245827952755904
21
0.6209026771653543
0
LINE
8
BLACK
6
CONTINUOUS
10
1.3245827952755904
20
0.6209026771653543
11
1.3246417716535432
21
0.6209538582677165
0
LINE
8
BLACK
6
CONTINUOUS
10
1.3246417716535432
20
0.6209538582677165
11
1.3248275590551182
21
0.6211801968503937
0
LINE
8
BLACK
6
CONTINUOUS
10
1.3248275590551182
20
0.6211801968503937
11
1.3267023228346457
21
0.6230549606299213
0
LINE
8
BLACK
6
CONTINUOUS
10
1.3267023228346457
20
0.6230549606299213
11
1.3269286614173228
21
0.6232407480314961
0
LINE
8
BLACK
6
CONTINUOUS
10
1.3269286614173228
20
0.6232407480314961
11
1.326979842519685
21
0.6232997244094488
0
LINE
8
BLACK
6
CONTINUOUS
10
1.326979842519685
20
0.6232997244094488
11
1.3270687795275591
21
0.6233557086614173
0
LINE
8
BLACK
6
CONTINUOUS
10
1.3270687795275591
20
0.6233557086614173
11
1.3271497637795275
21
0.6234221653543307
0
LINE
8
BLACK
6
CONTINUOUS
10
1.3271497637795275
20
0.6234221653543307
11
1.3272216929133858
21
0.6234520078740158
0
LINE
8
BLACK
6
CONTINUOUS
10
1.3272216929133858
20
0.6234520078740158
11
1.3274697244094489
21
0.6236080708661417
0
LINE
8
BLACK
6
CONTINUOUS
10
1.3274697244094489
20
0.6236080708661417
11
1.331219251968504
21
0.6254828346456692
0
LINE
8
BLACK
6
CONTINUOUS
10
1.331219251968504
20
0.6254828346456692
11
1.331759842519685
21
0.6256897244094488
0
LINE
8
BLACK
6
CONTINUOUS
10
1.331759842519685
20
0.6256897244094488
11
1.3318657086614174
21
0.6256972834645669
0
LINE
8
BLACK
6
CONTINUOUS
10
1.3318657086614174
20
0.6256972834645669
11
1.3319637007874015
21
0.6257378346456692
0
LINE
8
BLACK
6
CONTINUOUS
10
1.3319637007874015
20
0.6257378346456692
11
1.3325397637795275
21
0.6257945669291338
0
LINE
8
BLACK
6
CONTINUOUS
10
1.3325397637795275
20
0.6257945669291338
11
1.3362892913385827
21
0.6257945669291338
0
LINE
8
BLACK
6
CONTINUOUS
10
1.3362892913385827
20
0.6257945669291338
11
1.3368653543307085
21
0.6257378346456692
0
LINE
8
BLACK
6
CONTINUOUS
10
1.3305393307086615
20
0.6185403149606299
11
1.3293422047244094
21
0.617343188976378
0
LINE
8
BLACK
6
CONTINUOUS
10
1.3293422047244094
20
0.617343188976378
11
1.3278266929133857
21
0.6143122047244094
0
LINE
8
BLACK
6
CONTINUOUS
10
1.3278266929133857
20
0.6143122047244094
11
1.3261187007874016
21
0.6074801574803149
0
LINE
8
BLACK
6
CONTINUOUS
10
1.3261187007874016
20
0.6074801574803149
11
1.3261187007874016
21
0.5988334251968503
0
LINE
8
BLACK
6
CONTINUOUS
10
1.3261187007874016
20
0.5988334251968503
11
1.3278266929133857
21
0.5920013779527559
0
LINE
8
BLACK
6
CONTINUOUS
10
1.3278266929133857
20
0.5920013779527559
11
1.3293422047244094
21
0.5889703937007874
0
LINE
8
BLACK
6
CONTINUOUS
10
1.3293422047244094
20
0.5889703937007874
11
1.3305393307086615
21
0.5877732283464567
0
LINE
8
BLACK
6
CONTINUOUS
10
1.3305393307086615
20
0.5877732283464567
11
1.3332368110236221
21
0.5864244881889764
0
LINE
8
BLACK
6
CONTINUOUS
10
1.3332368110236221
20
0.5864244881889764
11
1.3355922440944881
21
0.5864244881889764
0
LINE
8
BLACK
6
CONTINUOUS
10
1.3355922440944881
20
0.5864244881889764
11
1.33828968503937
21
0.5877732283464567
0
LINE
8
BLACK
6
CONTINUOUS
10
1.33828968503937
20
0.5877732283464567
11
1.339486811023622
21
0.5889703937007874
0
LINE
8
BLACK
6
CONTINUOUS
10
1.339486811023622
20
0.5889703937007874
11
1.3410023228346457
21
0.5920013779527559
0
LINE
8
BLACK
6
CONTINUOUS
10
1.3410023228346457
20
0.5920013779527559
11
1.3427103543307086
21
0.5988334251968503
0
LINE
8
BLACK
6
CONTINUOUS
10
1.3427103543307086
20
0.5988334251968503
11
1.3427103543307086
21
0.6074801574803149
0
LINE
8
BLACK
6
CONTINUOUS
10
1.3427103543307086
20
0.6074801574803149
11
1.3410023228346457
21
0.6143122047244094
0
LINE
8
BLACK
6
CONTINUOUS
10
1.3410023228346457
20
0.6143122047244094
11
1.3394868503937007
21
0.617343188976378
0
LINE
8
BLACK
6
CONTINUOUS
10
1.3394868503937007
20
0.617343188976378
11
1.3382897244094487
21
0.6185403149606299
0
LINE
8
BLACK
6
CONTINUOUS
10
1.3382897244094487
20
0.6185403149606299
11
1.3355922440944881
21
0.6198890551181102
0
LINE
8
BLACK
6
CONTINUOUS
10
1.3355922440944881
20
0.6198890551181102
11
1.3332368110236221
21
0.6198890551181102
0
LINE
8
BLACK
6
CONTINUOUS
10
1.3332368110236221
20
0.6198890551181102
11
1.3305393307086615
21
0.6185403149606299
0
LINE
8
BLACK
6
CONTINUOUS
10
1.3818597244094488
20
0.6257378346456692
11
1.3829241338582676
21
0.6252969291338583
0
LINE
8
BLACK
6
CONTINUOUS
10
1.3829241338582676
20
0.6252969291338583
11
1.3837387795275591
21
0.6244822834645669
0
LINE
8
BLACK
6
CONTINUOUS
10
1.3837387795275591
20
0.6244822834645669
11
1.3841796850393699
21
0.623417874015748
0
LINE
8
BLACK
6
CONTINUOUS
10
1.3841796850393699
20
0.623417874015748
11
1.3841796850393699
21
0.622265748031496
0
LINE
8
BLACK
6
CONTINUOUS
10
1.3841796850393699
20
0.622265748031496
11
1.3837387795275591
21
0.6212013385826771
0
LINE
8
BLACK
6
CONTINUOUS
10
1.3837387795275591
20
0.6212013385826771
11
1.3829241338582676
21
0.6203866929133858
0
LINE
8
BLACK
6
CONTINUOUS
10
1.3829241338582676
20
0.6203866929133858
11
1.3818597244094488
21
0.6199457874015748
0
LINE
8
BLACK
6
CONTINUOUS
10
1.3818597244094488
20
0.6199457874015748
11
1.3812836614173227
21
0.6198890551181102
0
LINE
8
BLACK
6
CONTINUOUS
10
1.3812836614173227
20
0.6198890551181102
11
1.3652082283464566
21
0.6198890551181102
0
LINE
8
BLACK
6
CONTINUOUS
10
1.3652082283464566
20
0.6198890551181102
11
1.3642311023622047
21
0.6101177952755905
0
LINE
8
BLACK
6
CONTINUOUS
10
1.3642311023622047
20
0.6101177952755905
11
1.3649650393700787
21
0.6104847244094488
0
LINE
8
BLACK
6
CONTINUOUS
10
1.3649650393700787
20
0.6104847244094488
11
1.3655056299212598
21
0.6106916141732284
0
LINE
8
BLACK
6
CONTINUOUS
10
1.3655056299212598
20
0.6106916141732284
11
1.3656114960629921
21
0.6106991732283464
0
LINE
8
BLACK
6
CONTINUOUS
10
1.3656114960629921
20
0.6106991732283464
11
1.3657094881889764
21
0.6107397244094488
0
LINE
8
BLACK
6
CONTINUOUS
10
1.3657094881889764
20
0.6107397244094488
11
1.3662855511811023
21
0.6107964566929134
0
LINE
8
BLACK
6
CONTINUOUS
10
1.3662855511811023
20
0.6107964566929134
11
1.3756593700787401
21
0.6107964566929134
0
LINE
8
BLACK
6
CONTINUOUS
10
1.3756593700787401
20
0.6107964566929134
11
1.3762354330708662
21
0.6107397244094488
0
LINE
8
BLACK
6
CONTINUOUS
10
1.3762354330708662
20
0.6107397244094488
11
1.3763334251968504
21
0.6106991338582677
0
LINE
8
BLACK
6
CONTINUOUS
10
1.3763334251968504
20
0.6106991338582677
11
1.3764392519685038
21
0.6106916141732284
0
LINE
8
BLACK
6
CONTINUOUS
10
1.3764392519685038
20
0.6106916141732284
11
1.3769798818897638
21
0.6104847244094488
0
LINE
8
BLACK
6
CONTINUOUS
10
1.3769798818897638
20
0.6104847244094488
11
1.3807294094488189
21
0.6086099606299212
0
LINE
8
BLACK
6
CONTINUOUS
10
1.3807294094488189
20
0.6086099606299212
11
1.3809774015748031
21
0.6084538976377952
0
LINE
8
BLACK
6
CONTINUOUS
10
1.3809774015748031
20
0.6084538976377952
11
1.3810493700787401
21
0.6084240551181103
0
LINE
8
BLACK
6
CONTINUOUS
10
1.3810493700787401
20
0.6084240551181103
11
1.38113031496063
21
0.6083575984251969
0
LINE
8
BLACK
6
CONTINUOUS
10
1.38113031496063
20
0.6083575984251969
11
1.3812192913385826
21
0.6083016141732284
0
LINE
8
BLACK
6
CONTINUOUS
10
1.3812192913385826
20
0.6083016141732284
11
1.3812704330708661
21
0.6082426377952755
0
LINE
8
BLACK
6
CONTINUOUS
10
1.3812704330708661
20
0.6082426377952755
11
1.3814968110236221
21
0.6080568503937007
0
LINE
8
BLACK
6
CONTINUOUS
10
1.3814968110236221
20
0.6080568503937007
11
1.3833715748031497
21
0.6061820866141732
0
LINE
8
BLACK
6
CONTINUOUS
10
1.3833715748031497
20
0.6061820866141732
11
1.3835573228346456
21
0.6059557480314961
0
LINE
8
BLACK
6
CONTINUOUS
10
1.3835573228346456
20
0.6059557480314961
11
1.3836163385826772
21
0.6059045669291339
0
LINE
8
BLACK
6
CONTINUOUS
10
1.3836163385826772
20
0.6059045669291339
11
1.3836722834645669
21
0.6058156299212598
0
LINE
8
BLACK
6
CONTINUOUS
10
1.3836722834645669
20
0.6058156299212598
11
1.3837387795275591
21
0.6057346456692914
0
LINE
8
BLACK
6
CONTINUOUS
10
1.3837387795275591
20
0.6057346456692914
11
1.3837685826771653
21
0.605662716535433
0
LINE
8
BLACK
6
CONTINUOUS
10
1.3837685826771653
20
0.605662716535433
11
1.3839246850393701
21
0.60541468503937
0
LINE
8
BLACK
6
CONTINUOUS
10
1.3839246850393701
20
0.60541468503937
11
1.3857994488188976
21
0.6016651574803149
0
LINE
8
BLACK
6
CONTINUOUS
10
1.3857994488188976
20
0.6016651574803149
11
1.3860063385826771
21
0.6011245669291339
0
LINE
8
BLACK
6
CONTINUOUS
10
1.3860063385826771
20
0.6011245669291339
11
1.3860138582677166
21
0.6010187007874016
0
LINE
8
BLACK
6
CONTINUOUS
10
1.3860138582677166
20
0.6010187007874016
11
1.3860544488188975
21
0.6009207086614173
0
LINE
8
BLACK
6
CONTINUOUS
10
1.3860544488188975
20
0.6009207086614173
11
1.3861111811023621
21
0.6003446456692914
0
LINE
8
BLACK
6
CONTINUOUS
10
1.3861111811023621
20
0.6003446456692914
11
1.3861111811023621
21
0.5909708267716536
0
LINE
8
BLACK
6
CONTINUOUS
10
1.3861111811023621
20
0.5909708267716536
11
1.3860544488188975
21
0.5903947637795276
0
LINE
8
BLACK
6
CONTINUOUS
10
1.3860544488188975
20
0.5903947637795276
11
1.3860138582677166
21
0.5902968110236221
0
LINE
8
BLACK
6
CONTINUOUS
10
1.3860138582677166
20
0.5902968110236221
11
1.3860063385826771
21
0.590190905511811
0
LINE
8
BLACK
6
CONTINUOUS
10
1.3860063385826771
20
0.590190905511811
11
1.3857994488188976
21
0.5896503149606299
0
LINE
8
BLACK
6
CONTINUOUS
10
1.3857994488188976
20
0.5896503149606299
11
1.3839246850393701
21
0.5859007874015748
0
LINE
8
BLACK
6
CONTINUOUS
10
1.3839246850393701
20
0.5859007874015748
11
1.383768622047244
21
0.5856529133858268
0
LINE
8
BLACK
6
CONTINUOUS
10
1.383768622047244
20
0.5856529133858268
11
1.3837388188976378
21
0.5855808661417322
0
LINE
8
BLACK
6
CONTINUOUS
10
1.3837388188976378
20
0.5855808661417322
11
1.3836722834645669
21
0.585499842519685
0
LINE
8
BLACK
6
CONTINUOUS
10
1.3836722834645669
20
0.585499842519685
11
1.3836163385826772
21
0.585410905511811
0
LINE
8
BLACK
6
CONTINUOUS
10
1.3836163385826772
20
0.585410905511811
11
1.3835573228346456
21
0.5853597637795276
0
LINE
8
BLACK
6
CONTINUOUS
10
1.3835573228346456
20
0.5853597637795276
11
1.3833715748031497
21
0.5851333858267717
0
LINE
8
BLACK
6
CONTINUOUS
10
1.3833715748031497
20
0.5851333858267717
11
1.3814968503937008
21
0.5832586220472441
0
LINE
8
BLACK
6
CONTINUOUS
10
1.3814968503937008
20
0.5832586220472441
11
1.3812704724409448
21
0.583072874015748
0
LINE
8
BLACK
6
CONTINUOUS
10
1.3812704724409448
20
0.583072874015748
11
1.3812192913385826
21
0.5830138188976378
0
LINE
8
BLACK
6
CONTINUOUS
10
1.3812192913385826
20
0.5830138188976378
11
1.38113031496063
21
0.5829578346456693
0
LINE
8
BLACK
6
CONTINUOUS
10
1.38113031496063
20
0.5829578346456693
11
1.3810493700787401
21
0.5828913779527559
0
LINE
8
BLACK
6
CONTINUOUS
10
1.3810493700787401
20
0.5828913779527559
11
1.3809774015748031
21
0.5828615748031496
0
LINE
8
BLACK
6
CONTINUOUS
10
1.3809774015748031
20
0.5828615748031496
11
1.3807294094488189
21
0.5827054724409448
0
LINE
8
BLACK
6
CONTINUOUS
10
1.3807294094488189
20
0.5827054724409448
11
1.3769798818897638
21
0.5808307086614173
0
LINE
8
BLACK
6
CONTINUOUS
10
1.3769798818897638
20
0.5808307086614173
11
1.3764392519685038
21
0.5806238188976378
0
LINE
8
BLACK
6
CONTINUOUS
10
1.3764392519685038
20
0.5806238188976378
11
1.3763334251968504
21
0.5806163385826771
0
LINE
8
BLACK
6
CONTINUOUS
10
1.3763334251968504
20
0.5806163385826771
11
1.3762354330708662
21
0.5805757086614173
0
LINE
8
BLACK
6
CONTINUOUS
10
1.3762354330708662
20
0.5805757086614173
11
1.3756593700787401
21
0.5805189763779527
0
LINE
8
BLACK
6
CONTINUOUS
10
1.3756593700787401
20
0.5805189763779527
11
1.3662855511811023
21
0.5805189763779527
0
LINE
8
BLACK
6
CONTINUOUS
10
1.3662855511811023
20
0.5805189763779527
11
1.3657094881889764
21
0.5805757086614173
0
LINE
8
BLACK
6
CONTINUOUS
10
1.3657094881889764
20
0.5805757086614173
11
1.3656114960629921
21
0.5806162992125984
0
LINE
8
BLACK
6
CONTINUOUS
10
1.3656114960629921
20
0.5806162992125984
11
1.3655056299212598
21
0.5806238188976378
0
LINE
8
BLACK
6
CONTINUOUS
10
1.3655056299212598
20
0.5806238188976378
11
1.3649650393700787
21
0.5808307086614173
0
LINE
8
BLACK
6
CONTINUOUS
10
1.3649650393700787
20
0.5808307086614173
11
1.3612155118110236
21
0.5827054724409448
0
LINE
8
BLACK
6
CONTINUOUS
10
1.3612155118110236
20
0.5827054724409448
11
1.3609674803149605
21
0.5828615748031496
0
LINE
8
BLACK
6
CONTINUOUS
10
1.3609674803149605
20
0.5828615748031496
11
1.3608955511811023
21
0.5828913779527559
0
LINE
8
BLACK
6
CONTINUOUS
10
1.3608955511811023
20
0.5828913779527559
11
1.3608145669291338
21
0.5829578346456693
0
LINE
8
BLACK
6
CONTINUOUS
10
1.3608145669291338
20
0.5829578346456693
11
1.3607256299212598
21
0.5830138188976378
0
LINE
8
BLACK
6
CONTINUOUS
10
1.3607256299212598
20
0.5830138188976378
11
1.3606744094488188
21
0.583072874015748
0
LINE
8
BLACK
6
CONTINUOUS
10
1.3606744094488188
20
0.583072874015748
11
1.3604480708661417
21
0.5832586220472441
0
LINE
8
BLACK
6
CONTINUOUS
10
1.3604480708661417
20
0.5832586220472441
11
1.3585733070866142
21
0.5851334251968504
0
LINE
8
BLACK
6
CONTINUOUS
10
1.3585733070866142
20
0.5851334251968504
11
1.3582061023622047
21
0.5855808661417322
0
LINE
8
BLACK
6
CONTINUOUS
10
1.3582061023622047
20
0.5855808661417322
11
1.3577652362204724
21
0.5866452755905511
0
LINE
8
BLACK
6
CONTINUOUS
10
1.3577652362204724
20
0.5866452755905511
11
1.3577652362204724
21
0.5877973622047244
0
LINE
8
BLACK
6
CONTINUOUS
10
1.3577652362204724
20
0.5877973622047244
11
1.3582061417322835
21
0.5888617716535433
0
LINE
8
BLACK
6
CONTINUOUS
10
1.3582061417322835
20
0.5888617716535433
11
1.3590208267716535
21
0.5896764566929134
0
LINE
8
BLACK
6
CONTINUOUS
10
1.3590208267716535
20
0.5896764566929134
11
1.3600852362204725
21
0.5901173228346457
0
LINE
8
BLACK
6
CONTINUOUS
10
1.3600852362204725
20
0.5901173228346457
11
1.3612373228346457
21
0.5901173228346457
0
LINE
8
BLACK
6
CONTINUOUS
10
1.3612373228346457
20
0.5901173228346457
11
1.3623017322834645
21
0.5896764173228346
0
LINE
8
BLACK
6
CONTINUOUS
10
1.3623017322834645
20
0.5896764173228346
11
1.3627492125984251
21
0.5893091732283464
0
LINE
8
BLACK
6
CONTINUOUS
10
1.3627492125984251
20
0.5893091732283464
11
1.3642851181102362
21
0.5877732283464567
0
LINE
8
BLACK
6
CONTINUOUS
10
1.3642851181102362
20
0.5877732283464567
11
1.3669825984251969
21
0.5864244881889764
0
LINE
8
BLACK
6
CONTINUOUS
10
1.3669825984251969
20
0.5864244881889764
11
1.3749623228346457
21
0.5864244881889764
0
LINE
8
BLACK
6
CONTINUOUS
10
1.3749623228346457
20
0.5864244881889764
11
1.3776597637795276
21
0.5877732283464567
0
LINE
8
BLACK
6
CONTINUOUS
10
1.3776597637795276
20
0.5877732283464567
11
1.3788568897637794
21
0.5889703937007874
0
LINE
8
BLACK
6
CONTINUOUS
10
1.3788568897637794
20
0.5889703937007874
11
1.3802056692913385
21
0.5916678740157481
0
LINE
8
BLACK
6
CONTINUOUS
10
1.3802056692913385
20
0.5916678740157481
11
1.3802056692913385
21
0.5996475984251969
0
LINE
8
BLACK
6
CONTINUOUS
10
1.3802056692913385
20
0.5996475984251969
11
1.3788569291338582
21
0.6023450787401574
0
LINE
8
BLACK
6
CONTINUOUS
10
1.3788569291338582
20
0.6023450787401574
11
1.3776598031496063
21
0.6035422047244094
0
LINE
8
BLACK
6
CONTINUOUS
10
1.3776598031496063
20
0.6035422047244094
11
1.3749623228346457
21
0.6048909448818898
0
LINE
8
BLACK
6
CONTINUOUS
10
1.3749623228346457
20
0.6048909448818898
11
1.3669825984251969
21
0.6048909448818898
0
LINE
8
BLACK
6
CONTINUOUS
10
1.3669825984251969
20
0.6048909448818898
11
1.3642851181102362
21
0.6035422047244094
0
LINE
8
BLACK
6
CONTINUOUS
10
1.3642851181102362
20
0.6035422047244094
11
1.3627491732283463
21
0.6020062598425197
0
LINE
8
BLACK
6
CONTINUOUS
10
1.3627491732283463
20
0.6020062598425197
11
1.3623017322834645
21
0.6016390551181102
0
LINE
8
BLACK
6
CONTINUOUS
10
1.3623017322834645
20
0.6016390551181102
11
1.36216437007874
21
0.6015821653543307
0
LINE
8
BLACK
6
CONTINUOUS
10
1.36216437007874
20
0.6015821653543307
11
1.3620492913385827
21
0.6014879921259842
0
LINE
8
BLACK
6
CONTINUOUS
10
1.3620492913385827
20
0.6014879921259842
11
1.361635905511811
21
0.6013633070866141
0
LINE
8
BLACK
6
CONTINUOUS
10
1.361635905511811
20
0.6013633070866141
11
1.361237283464567
21
0.6011981496062992
0
LINE
8
BLACK
6
CONTINUOUS
10
1.361237283464567
20
0.6011981496062992
11
1.3610886614173228
21
0.6011981496062992
0
LINE
8
BLACK
6
CONTINUOUS
10
1.3610886614173228
20
0.6011981496062992
11
1.3609462992125985
21
0.6011551968503936
0
LINE
8
BLACK
6
CONTINUOUS
10
1.3609462992125985
20
0.6011551968503936
11
1.3605167716535433
21
0.6011981496062992
0
LINE
8
BLACK
6
CONTINUOUS
10
1.3605167716535433
20
0.6011981496062992
11
1.3600852362204725
21
0.6011981496062992
0
LINE
8
BLACK
6
CONTINUOUS
10
1.3600852362204725
20
0.6011981496062992
11
1.359947874015748
21
0.6012550787401575
0
LINE
8
BLACK
6
CONTINUOUS
10
1.359947874015748
20
0.6012550787401575
11
1.3597998818897636
21
0.6012698425196851
0
LINE
8
BLACK
6
CONTINUOUS
10
1.3597998818897636
20
0.6012698425196851
11
1.3594194881889763
21
0.6014738976377952
0
LINE
8
BLACK
6
CONTINUOUS
10
1.3594194881889763
20
0.6014738976377952
11
1.3590207874015747
21
0.6016390551181102
0
LINE
8
BLACK
6
CONTINUOUS
10
1.3590207874015747
20
0.6016390551181102
11
1.3589155905511812
21
0.6017442519685039
0
LINE
8
BLACK
6
CONTINUOUS
10
1.3589155905511812
20
0.6017442519685039
11
1.3587846456692914
21
0.6018144881889763
0
LINE
8
BLACK
6
CONTINUOUS
10
1.3587846456692914
20
0.6018144881889763
11
1.3585113779527558
21
0.6021484645669292
0
LINE
8
BLACK
6
CONTINUOUS
10
1.3585113779527558
20
0.6021484645669292
11
1.3582061417322835
21
0.6024537007874016
0
LINE
8
BLACK
6
CONTINUOUS
10
1.3582061417322835
20
0.6024537007874016
11
1.3581492125984251
21
0.6025910629921259
0
LINE
8
BLACK
6
CONTINUOUS
10
1.3581492125984251
20
0.6025910629921259
11
1.3580550787401575
21
0.6027061417322834
0
LINE
8
BLACK
6
CONTINUOUS
10
1.3580550787401575
20
0.6027061417322834
11
1.3579303543307086
21
0.6031195275590551
0
LINE
8
BLACK
6
CONTINUOUS
10
1.3579303543307086
20
0.6031195275590551
11
1.3577652362204724
21
0.6035181496062992
0
LINE
8
BLACK
6
CONTINUOUS
10
1.3577652362204724
20
0.6035181496062992
11
1.3577652362204724
21
0.6036668110236221
0
LINE
8
BLACK
6
CONTINUOUS
10
1.3577652362204724
20
0.6036668110236221
11
1.3577222834645668
21
0.6038091338582677
0
LINE
8
BLACK
6
CONTINUOUS
10
1.3577222834645668
20
0.6038091338582677
11
1.3577231496062991
21
0.6043879921259843
0
LINE
8
BLACK
6
CONTINUOUS
10
1.3577231496062991
20
0.6043879921259843
11
1.3595979133858267
21
0.6231356299212598
0
LINE
8
BLACK
6
CONTINUOUS
10
1.3595979133858267
20
0.6231356299212598
11
1.35964
21
0.6233455905511811
0
LINE
8
BLACK
6
CONTINUOUS
10
1.35964
20
0.6233455905511811
11
1.35964
21
0.623417874015748
0
LINE
8
BLACK
6
CONTINUOUS
10
1.35964
20
0.623417874015748
11
1.3596680708661417
21
0.6234857086614173
0
LINE
8
BLACK
6
CONTINUOUS
10
1.3596680708661417
20
0.6234857086614173
11
1.3597116929133859
21
0.6237031889763779
0
LINE
8
BLACK
6
CONTINUOUS
10
1.3597116929133859
20
0.6237031889763779
11
1.3599157086614173
21
0.6240835039370078
0
LINE
8
BLACK
6
CONTINUOUS
10
1.3599157086614173
20
0.6240835039370078
11
1.360080905511811
21
0.6244822834645669
0
LINE
8
BLACK
6
CONTINUOUS
10
1.360080905511811
20
0.6244822834645669
11
1.3601860629921259
21
0.6245874803149606
0
LINE
8
BLACK
6
CONTINUOUS
10
1.3601860629921259
20
0.6245874803149606
11
1.3602563385826771
21
0.6247184251968504
0
LINE
8
BLACK
6
CONTINUOUS
10
1.3602563385826771
20
0.6247184251968504
11
1.3605902755905512
21
0.6249916929133859
0
LINE
8
BLACK
6
CONTINUOUS
10
1.3605902755905512
20
0.6249916929133859
11
1.3608955511811023
21
0.6252969291338583
0
LINE
8
BLACK
6
CONTINUOUS
10
1.3608955511811023
20
0.6252969291338583
11
1.361032874015748
21
0.6253538582677165
0
LINE
8
BLACK
6
CONTINUOUS
10
1.361032874015748
20
0.6253538582677165
11
1.3611479921259841
21
0.6254479921259842
0
LINE
8
BLACK
6
CONTINUOUS
10
1.3611479921259841
20
0.6254479921259842
11
1.3615612598425197
21
0.625572716535433
0
LINE
8
BLACK
6
CONTINUOUS
10
1.3615612598425197
20
0.625572716535433
11
1.3619599606299213
21
0.6257378346456692
0
LINE
8
BLACK
6
CONTINUOUS
10
1.3619599606299213
20
0.6257378346456692
11
1.3621806299212598
21
0.6257596062992126
0
LINE
8
BLACK
6
CONTINUOUS
10
1.3621806299212598
20
0.6257596062992126
11
1.3622509842519686
21
0.6257807874015748
0
LINE
8
BLACK
6
CONTINUOUS
10
1.3622509842519686
20
0.6257807874015748
11
1.3623229527559055
21
0.6257736220472441
0
LINE
8
BLACK
6
CONTINUOUS
10
1.3623229527559055
20
0.6257736220472441
11
1.3625360236220472
21
0.6257945669291338
0
LINE
8
BLACK
6
CONTINUOUS
10
1.3625360236220472
20
0.6257945669291338
11
1.3812836614173227
21
0.6257945669291338
0
LINE
8
BLACK
6
CONTINUOUS
10
1.3812836614173227
20
0.6257945669291338
11
1.3818597244094488
21
0.6257378346456692
0
LINE
8
BLACK
6
CONTINUOUS
10
1.4096888188976378
20
0.6257378346456692
11
1.4099812204724409
21
0.6257378346456692
0
LINE
8
BLACK
6
CONTINUOUS
10
1.4099812204724409
20
0.6257378346456692
11
1.4102484645669291
21
0.625627125984252
0
LINE
8
BLACK
6
CONTINUOUS
10
1.4102484645669291
20
0.625627125984252
11
1.4105322834645668
21
0.6255709842519684
0
LINE
8
BLACK
6
CONTINUOUS
10
1.4105322834645668
20
0.6255709842519684
11
1.4107755511811024
21
0.6254088188976378
0
LINE
8
BLACK
6
CONTINUOUS
10
1.4107755511811024
20
0.6254088188976378
11
1.4110456299212597
21
0.6252969291338583
0
LINE
8
BLACK
6
CONTINUOUS
10
1.4110456299212597
20
0.6252969291338583
11
1.4112500787401574
21
0.6250924803149606
0
LINE
8
BLACK
6
CONTINUOUS
10
1.4112500787401574
20
0.6250924803149606
11
1.411490905511811
21
0.6249319291338582
0
LINE
8
BLACK
6
CONTINUOUS
10
1.411490905511811
20
0.6249319291338582
11
1.411653622047244
21
0.624688937007874
0
LINE
8
BLACK
6
CONTINUOUS
10
1.411653622047244
20
0.624688937007874
11
1.4118602755905512
21
0.6244822834645669
0
LINE
8
BLACK
6
CONTINUOUS
10
1.4118602755905512
20
0.6244822834645669
11
1.4119709448818898
21
0.6242150787401575
0
LINE
8
BLACK
6
CONTINUOUS
10
1.4119709448818898
20
0.6242150787401575
11
1.4121319685039371
21
0.6239746456692913
0
LINE
8
BLACK
6
CONTINUOUS
10
1.4121319685039371
20
0.6239746456692913
11
1.4121892913385827
21
0.6236879921259842
0
LINE
8
BLACK
6
CONTINUOUS
10
1.4121892913385827
20
0.6236879921259842
11
1.4123011811023622
21
0.623417874015748
0
LINE
8
BLACK
6
CONTINUOUS
10
1.4123011811023622
20
0.623417874015748
11
1.4123572834645668
21
0.6228479527559055
0
LINE
8
BLACK
6
CONTINUOUS
10
1.4123572834645668
20
0.6228479527559055
11
1.4123579133858268
21
0.6228449212598425
0
LINE
8
BLACK
6
CONTINUOUS
10
1.4123579133858268
20
0.6228449212598425
11
1.4123576771653543
21
0.6228438976377952
0
LINE
8
BLACK
6
CONTINUOUS
10
1.4123576771653543
20
0.6228438976377952
11
1.4123579133858268
21
0.622841811023622
0
LINE
8
BLACK
6
CONTINUOUS
10
1.4123579133858268
20
0.622841811023622
11
1.4123579133858268
21
0.5864244881889764
0
LINE
8
BLACK
6
CONTINUOUS
10
1.4123579133858268
20
0.5864244881889764
11
1.4206537401574804
21
0.5864244881889764
0
LINE
8
BLACK
6
CONTINUOUS
10
1.4206537401574804
20
0.5864244881889764
11
1.4212298031496062
21
0.5863677559055118
0
LINE
8
BLACK
6
CONTINUOUS
10
1.4212298031496062
20
0.5863677559055118
11
1.4222942125984253
21
0.5859268503937007
0
LINE
8
BLACK
6
CONTINUOUS
10
1.4222942125984253
20
0.5859268503937007
11
1.4231088582677165
21
0.5851122047244094
0
LINE
8
BLACK
6
CONTINUOUS
10
1.4231088582677165
20
0.5851122047244094
11
1.4235497637795276
21
0.5840477952755906
0
LINE
8
BLACK
6
CONTINUOUS
10
1.4235497637795276
20
0.5840477952755906
11
1.4235497637795276
21
0.5828956692913385
0
LINE
8
BLACK
6
CONTINUOUS
10
1.4235497637795276
20
0.5828956692913385
11
1.4231088582677165
21
0.5818312598425197
0
LINE
8
BLACK
6
CONTINUOUS
10
1.4231088582677165
20
0.5818312598425197
11
1.4222942125984253
21
0.5810166141732284
0
LINE
8
BLACK
6
CONTINUOUS
10
1.4222942125984253
20
0.5810166141732284
11
1.4212298031496062
21
0.5805757086614173
0
LINE
8
BLACK
6
CONTINUOUS
10
1.4212298031496062
20
0.5805757086614173
11
1.4206537401574804
21
0.5805189763779527
0
LINE
8
BLACK
6
CONTINUOUS
10
1.4206537401574804
20
0.5805189763779527
11
1.3981565748031495
21
0.5805189763779527
0
LINE
8
BLACK
6
CONTINUOUS
10
1.3981565748031495
20
0.5805189763779527
11
1.3975805118110236
21
0.5805757086614173
0
LINE
8
BLACK
6
CONTINUOUS
10
1.3975805118110236
20
0.5805757086614173
11
1.3965161023622048
21
0.5810166141732284
0
LINE
8
BLACK
6
CONTINUOUS
10
1.3965161023622048
20
0.5810166141732284
11
1.3957014566929133
21
0.5818312598425197
0
LINE
8
BLACK
6
CONTINUOUS
10
1.3957014566929133
20
0.5818312598425197
11
1.3952605511811023
21
0.5828956692913385
0
LINE
8
BLACK
6
CONTINUOUS
10
1.3952605511811023
20
0.5828956692913385
11
1.3952605511811023
21
0.5840477952755906
0
LINE
8
BLACK
6
CONTINUOUS
10
1.3952605511811023
20
0.5840477952755906
11
1.3957014566929133
21
0.5851122047244094
0
LINE
8
BLACK
6
CONTINUOUS
10
1.3957014566929133
20
0.5851122047244094
11
1.3965161023622048
21
0.5859268503937007
0
LINE
8
BLACK
6
CONTINUOUS
10
1.3965161023622048
20
0.5859268503937007
11
1.3975805118110236
21
0.5863677559055118
0
LINE
8
BLACK
6
CONTINUOUS
10
1.3975805118110236
20
0.5863677559055118
11
1.3981565748031495
21
0.5864244881889764
0
LINE
8
BLACK
6
CONTINUOUS
10
1.3981565748031495
20
0.5864244881889764
11
1.4064524015748032
21
0.5864244881889764
0
LINE
8
BLACK
6
CONTINUOUS
10
1.4064524015748032
20
0.5864244881889764
11
1.4064524015748032
21
0.6138384645669291
0
LINE
8
BLACK
6
CONTINUOUS
10
1.4064524015748032
20
0.6138384645669291
11
1.4039940157480315
21
0.6113800787401574
0
LINE
8
BLACK
6
CONTINUOUS
10
1.4039940157480315
20
0.6113800787401574
11
1.4037676377952755
21
0.6111943307086614
0
LINE
8
BLACK
6
CONTINUOUS
10
1.4037676377952755
20
0.6111943307086614
11
1.4037164960629922
21
0.6111353149606299
0
LINE
8
BLACK
6
CONTINUOUS
10
1.4037164960629922
20
0.6111353149606299
11
1.4036275196850394
21
0.6110793700787401
0
LINE
8
BLACK
6
CONTINUOUS
10
1.4036275196850394
20
0.6110793700787401
11
1.4035465748031495
21
0.611012874015748
0
LINE
8
BLACK
6
CONTINUOUS
10
1.4035465748031495
20
0.611012874015748
11
1.4034746062992125
21
0.6109830708661417
0
LINE
8
BLACK
6
CONTINUOUS
10
1.4034746062992125
20
0.6109830708661417
11
1.4032266141732284
21
0.610826968503937
0
LINE
8
BLACK
6
CONTINUOUS
10
1.4032266141732284
20
0.610826968503937
11
1.3994770866141732
21
0.6089522047244095
0
LINE
8
BLACK
6
CONTINUOUS
10
1.3994770866141732
20
0.6089522047244095
11
1.3989364566929134
21
0.6087453149606299
0
LINE
8
BLACK
6
CONTINUOUS
10
1.3989364566929134
20
0.6087453149606299
11
1.3977872440944881
21
0.6086636614173229
0
LINE
8
BLACK
6
CONTINUOUS
10
1.3977872440944881
20
0.6086636614173229
11
1.3966942913385827
21
0.6090279921259842
0
LINE
8
BLACK
6
CONTINUOUS
10
1.3966942913385827
20
0.6090279921259842
11
1.3958238976377952
21
0.6097828346456693
0
LINE
8
BLACK
6
CONTINUOUS
10
1.3958238976377952
20
0.6097828346456693
11
1.3953086614173229
21
0.6108133464566929
0
LINE
8
BLACK
6
CONTINUOUS
10
1.3953086614173229
20
0.6108133464566929
11
1.3952270078740157
21
0.6119625590551181
0
LINE
8
BLACK
6
CONTINUOUS
10
1.3952270078740157
20
0.6119625590551181
11
1.395591338582677
21
0.6130555118110236
0
LINE
8
BLACK
6
CONTINUOUS
10
1.395591338582677
20
0.6130555118110236
11
1.3963461811023621
21
0.613925905511811
0
LINE
8
BLACK
6
CONTINUOUS
10
1.3963461811023621
20
0.613925905511811
11
1.3968360629921259
21
0.6142342519685039
0
LINE
8
BLACK
6
CONTINUOUS
10
1.3968360629921259
20
0.6142342519685039
11
1.4001570078740158
21
0.6158947244094488
0
LINE
8
BLACK
6
CONTINUOUS
10
1.4001570078740158
20
0.6158947244094488
11
1.403360905511811
21
0.6190986220472441
0
LINE
8
BLACK
6
CONTINUOUS
10
1.403360905511811
20
0.6190986220472441
11
1.4069483070866142
21
0.6244797244094488
0
LINE
8
BLACK
6
CONTINUOUS
10
1.4069483070866142
20
0.6244797244094488
11
1.4069496456692914
21
0.6244814173228347
0
LINE
8
BLACK
6
CONTINUOUS
10
1.4069496456692914
20
0.6244814173228347
11
1.4069500393700787
21
0.6244822834645669
0
LINE
8
BLACK
6
CONTINUOUS
10
1.4069500393700787
20
0.6244822834645669
11
1.4069520472440944
21
0.6244843307086614
0
LINE
8
BLACK
6
CONTINUOUS
10
1.4069520472440944
20
0.6244843307086614
11
1.4073150787401574
21
0.6249275590551181
0
LINE
8
BLACK
6
CONTINUOUS
10
1.4073150787401574
20
0.6249275590551181
11
1.4075579527559055
21
0.6250902362204724
0
LINE
8
BLACK
6
CONTINUOUS
10
1.4075579527559055
20
0.6250902362204724
11
1.4077646850393701
21
0.6252969291338583
0
LINE
8
BLACK
6
CONTINUOUS
10
1.4077646850393701
20
0.6252969291338583
11
1.4080319685039371
21
0.6254076771653543
0
LINE
8
BLACK
6
CONTINUOUS
10
1.4080319685039371
20
0.6254076771653543
11
1.4082723622047244
21
0.6255686220472441
0
LINE
8
BLACK
6
CONTINUOUS
10
1.4082723622047244
20
0.6255686220472441
11
1.4085589763779527
21
0.6256259842519685
0
LINE
8
BLACK
6
CONTINUOUS
10
1.4085589763779527
20
0.6256259842519685
11
1.4088290944881889
21
0.6257378346456692
0
LINE
8
BLACK
6
CONTINUOUS
10
1.4088290944881889
20
0.6257378346456692
11
1.4091183858267715
21
0.6257378346456692
0
LINE
8
BLACK
6
CONTINUOUS
10
1.4091183858267715
20
0.6257378346456692
11
1.4094020472440945
21
0.6257945669291338
0
LINE
8
BLACK
6
CONTINUOUS
10
1.4094020472440945
20
0.6257945669291338
11
1.4096888188976378
21
0.6257378346456692
0
LINE
8
BLACK
6
CONTINUOUS
10
1.5427971653543306
20
0.6257378346456692
11
1.5430895669291338
21
0.6257378346456692
0
LINE
8
BLACK
6
CONTINUOUS
10
1.5430895669291338
20
0.6257378346456692
11
1.543356811023622
21
0.625627125984252
0
LINE
8
BLACK
6
CONTINUOUS
10
1.543356811023622
20
0.625627125984252
11
1.5436406299212597
21
0.6255709842519684
0
LINE
8
BLACK
6
CONTINUOUS
10
1.5436406299212597
20
0.6255709842519684
11
1.5438838976377953
21
0.6254088188976378
0
LINE
8
BLACK
6
CONTINUOUS
10
1.5438838976377953
20
0.6254088188976378
11
1.5441539763779528
21
0.6252969291338583
0
LINE
8
BLACK
6
CONTINUOUS
10
1.5441539763779528
20
0.6252969291338583
11
1.5443584251968503
21
0.6250924803149606
0
LINE
8
BLACK
6
CONTINUOUS
10
1.5443584251968503
20
0.6250924803149606
11
1.5445992519685039
21
0.6249319291338582
0
LINE
8
BLACK
6
CONTINUOUS
10
1.5445992519685039
20
0.6249319291338582
11
1.5447619685039369
21
0.624688937007874
0
LINE
8
BLACK
6
CONTINUOUS
10
1.5447619685039369
20
0.624688937007874
11
1.5449686220472441
21
0.6244822834645669
0
LINE
8
BLACK
6
CONTINUOUS
10
1.5449686220472441
20
0.6244822834645669
11
1.5450792913385827
21
0.6242150787401575
0
LINE
8
BLACK
6
CONTINUOUS
10
1.5450792913385827
20
0.6242150787401575
11
1.54524031496063
21
0.6239746456692913
0
LINE
8
BLACK
6
CONTINUOUS
10
1.54524031496063
20
0.6239746456692913
11
1.5452976377952756
21
0.6236879921259842
0
LINE
8
BLACK
6
CONTINUOUS
10
1.5452976377952756
20
0.6236879921259842
11
1.5454095275590551
21
0.623417874015748
0
LINE
8
BLACK
6
CONTINUOUS
10
1.5454095275590551
20
0.623417874015748
11
1.5454656299212599
21
0.6228479527559055
0
LINE
8
BLACK
6
CONTINUOUS
10
1.5454656299212599
20
0.6228479527559055
11
1.5454662598425197
21
0.6228449212598425
0
LINE
8
BLACK
6
CONTINUOUS
10
1.5454662598425197
20
0.6228449212598425
11
1.5454660236220472
21
0.6228438976377952
0
LINE
8
BLACK
6
CONTINUOUS
10
1.5454660236220472
20
0.6228438976377952
11
1.5454662598425197
21
0.622841811023622
0
LINE
8
BLACK
6
CONTINUOUS
10
1.5454662598425197
20
0.622841811023622
11
1.5454662598425197
21
0.5864244881889764
0
LINE
8
BLACK
6
CONTINUOUS
10
1.5454662598425197
20
0.5864244881889764
11
1.5537620866141733
21
0.5864244881889764
0
LINE
8
BLACK
6
CONTINUOUS
10
1.5537620866141733
20
0.5864244881889764
11
1.5543381496062991
21
0.5863677559055118
0
LINE
8
BLACK
6
CONTINUOUS
10
1.5543381496062991
20
0.5863677559055118
11
1.5554025590551182
21
0.5859268503937007
0
LINE
8
BLACK
6
CONTINUOUS
10
1.5554025590551182
20
0.5859268503937007
11
1.5562172047244094
21
0.5851122047244094
0
LINE
8
BLACK
6
CONTINUOUS
10
1.5562172047244094
20
0.5851122047244094
11
1.5566581102362205
21
0.5840477952755906
0
LINE
8
BLACK
6
CONTINUOUS
10
1.5566581102362205
20
0.5840477952755906
11
1.5566581102362205
21
0.5828956692913385
0
LINE
8
BLACK
6
CONTINUOUS
10
1.5566581102362205
20
0.5828956692913385
11
1.5562172047244094
21
0.5818312598425197
0
LINE
8
BLACK
6
CONTINUOUS
10
1.5562172047244094
20
0.5818312598425197
11
1.5554025590551182
21
0.5810166141732284
0
LINE
8
BLACK
6
CONTINUOUS
10
1.5554025590551182
20
0.5810166141732284
11
1.5543381496062991
21
0.5805757086614173
0
LINE
8
BLACK
6
CONTINUOUS
10
1.5543381496062991
20
0.5805757086614173
11
1.5537620866141733
21
0.5805189763779527
0
LINE
8
BLACK
6
CONTINUOUS
10
1.5537620866141733
20
0.5805189763779527
11
1.5312649212598426
21
0.5805189763779527
0
LINE
8
BLACK
6
CONTINUOUS
10
1.5312649212598426
20
0.5805189763779527
11
1.5306888582677165
21
0.5805757086614173
0
LINE
8
BLACK
6
CONTINUOUS
10
1.5306888582677165
20
0.5805757086614173
11
1.5296244488188977
21
0.5810166141732284
0
LINE
8
BLACK
6
CONTINUOUS
10
1.5296244488188977
20
0.5810166141732284
11
1.5288098031496062
21
0.5818312598425197
0
LINE
8
BLACK
6
CONTINUOUS
10
1.5288098031496062
20
0.5818312598425197
11
1.5283688976377952
21
0.5828956692913385
0
LINE
8
BLACK
6
CONTINUOUS
10
1.5283688976377952
20
0.5828956692913385
11
1.5283688976377952
21
0.5840477952755906
0
LINE
8
BLACK
6
CONTINUOUS
10
1.5283688976377952
20
0.5840477952755906
11
1.5288098031496062
21
0.5851122047244094
0
LINE
8
BLACK
6
CONTINUOUS
10
1.5288098031496062
20
0.5851122047244094
11
1.5296244488188977
21
0.5859268503937007
0
LINE
8
BLACK
6
CONTINUOUS
10
1.5296244488188977
20
0.5859268503937007
11
1.5306888582677165
21
0.5863677559055118
0
LINE
8
BLACK
6
CONTINUOUS
10
1.5306888582677165
20
0.5863677559055118
11
1.5312649212598426
21
0.5864244881889764
0
LINE
8
BLACK
6
CONTINUOUS
10
1.5312649212598426
20
0.5864244881889764
11
1.5395607480314961
21
0.5864244881889764
0
LINE
8
BLACK
6
CONTINUOUS
10
1.5395607480314961
20
0.5864244881889764
11
1.5395607480314961
21
0.6138384645669291
0
LINE
8
BLACK
6
CONTINUOUS
10
1.5395607480314961
20
0.6138384645669291
11
1.5371023622047244
21
0.6113800787401574
0
LINE
8
BLACK
6
CONTINUOUS
10
1.5371023622047244
20
0.6113800787401574
11
1.5368759842519684
21
0.6111943307086614
0
LINE
8
BLACK
6
CONTINUOUS
10
1.5368759842519684
20
0.6111943307086614
11
1.5368248425196851
21
0.6111353149606299
0
LINE
8
BLACK
6
CONTINUOUS
10
1.5368248425196851
20
0.6111353149606299
11
1.5367358661417323
21
0.6110793700787401
0
LINE
8
BLACK
6
CONTINUOUS
10
1.5367358661417323
20
0.6110793700787401
11
1.5366549212598424
21
0.611012874015748
0
LINE
8
BLACK
6
CONTINUOUS
10
1.5366549212598424
20
0.611012874015748
11
1.5365829527559054
21
0.6109830708661417
0
LINE
8
BLACK
6
CONTINUOUS
10
1.5365829527559054
20
0.6109830708661417
11
1.5363349606299213
21
0.610826968503937
0
LINE
8
BLACK
6
CONTINUOUS
10
1.5363349606299213
20
0.610826968503937
11
1.5325854330708661
21
0.6089522047244095
0
LINE
8
BLACK
6
CONTINUOUS
10
1.5325854330708661
20
0.6089522047244095
11
1.5320448031496063
21
0.6087453149606299
0
LINE
8
BLACK
6
CONTINUOUS
10
1.5320448031496063
20
0.6087453149606299
11
1.530895590551181
21
0.6086636614173229
0
LINE
8
BLACK
6
CONTINUOUS
10
1.530895590551181
20
0.6086636614173229
11
1.5298026377952756
21
0.6090279921259842
0
LINE
8
BLACK
6
CONTINUOUS
10
1.5298026377952756
20
0.6090279921259842
11
1.5289322440944881
21
0.6097828346456693
0
LINE
8
BLACK
6
CONTINUOUS
10
1.5289322440944881
20
0.6097828346456693
11
1.5284170078740158
21
0.6108133464566929
0
LINE
8
BLACK
6
CONTINUOUS
10
1.5284170078740158
20
0.6108133464566929
11
1.5283353543307086
21
0.6119625590551181
0
LINE
8
BLACK
6
CONTINUOUS
10
1.5283353543307086
20
0.6119625590551181
11
1.5286996850393701
21
0.6130555118110236
0
LINE
8
BLACK
6
CONTINUOUS
10
1.5286996850393701
20
0.6130555118110236
11
1.529454527559055
21
0.613925905511811
0
LINE
8
BLACK
6
CONTINUOUS
10
1.529454527559055
20
0.613925905511811
11
1.5299444094488188
21
0.6142342519685039
0
LINE
8
BLACK
6
CONTINUOUS
10
1.5299444094488188
20
0.6142342519685039
11
1.5332653543307087
21
0.6158947244094488
0
LINE
8
BLACK
6
CONTINUOUS
10
1.5332653543307087
20
0.6158947244094488
11
1.5364692519685039
21
0.6190986220472441
0
LINE
8
BLACK
6
CONTINUOUS
10
1.5364692519685039
20
0.6190986220472441
11
1.5400566535433071
21
0.6244797244094488
0
LINE
8
BLACK
6
CONTINUOUS
10
1.5400566535433071
20
0.6244797244094488
11
1.5400579921259843
21
0.6244814173228347
0
LINE
8
BLACK
6
CONTINUOUS
10
1.5400579921259843
20
0.6244814173228347
11
1.5400583858267716
21
0.6244822834645669
0
LINE
8
BLACK
6
CONTINUOUS
10
1.5400583858267716
20
0.6244822834645669
11
1.5400603937007873
21
0.6244843307086614
0
LINE
8
BLACK
6
CONTINUOUS
10
1.5400603937007873
20
0.6244843307086614
11
1.5404234251968503
21
0.6249275590551181
0
LINE
8
BLACK
6
CONTINUOUS
10
1.5404234251968503
20
0.6249275590551181
11
1.5406662992125983
21
0.6250902362204724
0
LINE
8
BLACK
6
CONTINUOUS
10
1.5406662992125983
20
0.6250902362204724
11
1.540873031496063
21
0.6252969291338583
0
LINE
8
BLACK
6
CONTINUOUS
10
1.540873031496063
20
0.6252969291338583
11
1.54114031496063
21
0.6254076771653543
0
LINE
8
BLACK
6
CONTINUOUS
10
1.54114031496063
20
0.6254076771653543
11
1.5413807086614173
21
0.6255686220472441
0
LINE
8
BLACK
6
CONTINUOUS
10
1.5413807086614173
20
0.6255686220472441
11
1.5416673228346456
21
0.6256259842519685
0
LINE
8
BLACK
6
CONTINUOUS
10
1.5416673228346456
20
0.6256259842519685
11
1.5419374409448818
21
0.6257378346456692
0
LINE
8
BLACK
6
CONTINUOUS
10
1.5419374409448818
20
0.6257378346456692
11
1.5422267322834646
21
0.6257378346456692
0
LINE
8
BLACK
6
CONTINUOUS
10
1.5422267322834646
20
0.6257378346456692
11
1.5425103937007874
21
0.6257945669291338
0
LINE
8
BLACK
6
CONTINUOUS
10
1.5425103937007874
20
0.6257945669291338
11
1.5427971653543306
21
0.6257378346456692
0
LINE
8
BLACK
6
CONTINUOUS
10
1.6030820472440945
20
0.6257378346456692
11
1.6031800393700788
21
0.6256972440944881
0
LINE
8
BLACK
6
CONTINUOUS
10
1.6031800393700788
20
0.6256972440944881
11
1.6032858661417322
21
0.6256897244094488
0
LINE
8
BLACK
6
CONTINUOUS
10
1.6032858661417322
20
0.6256897244094488
11
1.603826496062992
21
0.6254828346456692
0
LINE
8
BLACK
6
CONTINUOUS
10
1.603826496062992
20
0.6254828346456692
11
1.6075760236220471
21
0.6236080708661417
0
LINE
8
BLACK
6
CONTINUOUS
10
1.6075760236220471
20
0.6236080708661417
11
1.6078240157480315
21
0.6234520078740158
0
LINE
8
BLACK
6
CONTINUOUS
10
1.6078240157480315
20
0.6234520078740158
11
1.6078959842519684
21
0.6234221653543307
0
LINE
8
BLACK
6
CONTINUOUS
10
1.6078959842519684
20
0.6234221653543307
11
1.6079769291338581
21
0.6233557086614173
0
LINE
8
BLACK
6
CONTINUOUS
10
1.6079769291338581
20
0.6233557086614173
11
1.6080659055118109
21
0.6232997244094488
0
LINE
8
BLACK
6
CONTINUOUS
10
1.6080659055118109
20
0.6232997244094488
11
1.6081170472440944
21
0.6232407480314961
0
LINE
8
BLACK
6
CONTINUOUS
10
1.6081170472440944
20
0.6232407480314961
11
1.6083434251968503
21
0.6230549606299213
0
LINE
8
BLACK
6
CONTINUOUS
10
1.6083434251968503
20
0.6230549606299213
11
1.6102181889763778
21
0.6211801968503937
0
LINE
8
BLACK
6
CONTINUOUS
10
1.6102181889763778
20
0.6211801968503937
11
1.610403937007874
21
0.6209538582677165
0
LINE
8
BLACK
6
CONTINUOUS
10
1.610403937007874
20
0.6209538582677165
11
1.6104629527559056
21
0.6209026771653543
0
LINE
8
BLACK
6
CONTINUOUS
10
1.6104629527559056
20
0.6209026771653543
11
1.6105188976377953
21
0.6208137401574803
0
LINE
8
BLACK
6
CONTINUOUS
10
1.6105188976377953
20
0.6208137401574803
11
1.6105853937007875
21
0.6207327559055118
0
LINE
8
BLACK
6
CONTINUOUS
10
1.6105853937007875
20
0.6207327559055118
11
1.6106151968503937
21
0.6206608267716536
0
LINE
8
BLACK
6
CONTINUOUS
10
1.6106151968503937
20
0.6206608267716536
11
1.6107712992125984
21
0.6204127952755906
0
LINE
8
BLACK
6
CONTINUOUS
10
1.6107712992125984
20
0.6204127952755906
11
1.612646062992126
21
0.6166632677165355
0
LINE
8
BLACK
6
CONTINUOUS
10
1.612646062992126
20
0.6166632677165355
11
1.6128529527559055
21
0.6161226771653543
0
LINE
8
BLACK
6
CONTINUOUS
10
1.6128529527559055
20
0.6161226771653543
11
1.6128604724409448
21
0.616016811023622
0
LINE
8
BLACK
6
CONTINUOUS
10
1.6128604724409448
20
0.616016811023622
11
1.6129010629921259
21
0.6159188188976378
0
LINE
8
BLACK
6
CONTINUOUS
10
1.6129010629921259
20
0.6159188188976378
11
1.6129577952755905
21
0.6153427559055118
0
LINE
8
BLACK
6
CONTINUOUS
10
1.6129577952755905
20
0.6153427559055118
11
1.6129577952755905
21
0.6115932283464567
0
LINE
8
BLACK
6
CONTINUOUS
10
1.6129577952755905
20
0.6115932283464567
11
1.6129290551181101
21
0.6113016535433071
0
LINE
8
BLACK
6
CONTINUOUS
10
1.6129290551181101
20
0.6113016535433071
11
1.6129346062992125
21
0.6112238976377953
0
LINE
8
BLACK
6
CONTINUOUS
10
1.6129346062992125
20
0.6112238976377953
11
1.6129113385826772
21
0.6111216535433071
0
LINE
8
BLACK
6
CONTINUOUS
10
1.6129113385826772
20
0.6111216535433071
11
1.6129010629921259
21
0.6110171653543307
0
LINE
8
BLACK
6
CONTINUOUS
10
1.6129010629921259
20
0.6110171653543307
11
1.6128711811023622
21
0.6109451181102362
0
LINE
8
BLACK
6
CONTINUOUS
10
1.6128711811023622
20
0.6109451181102362
11
1.6128062598425197
21
0.6106594488188977
0
LINE
8
BLACK
6
CONTINUOUS
10
1.6128062598425197
20
0.6106594488188977
11
1.6109314960629921
21
0.6050351968503936
0
LINE
8
BLACK
6
CONTINUOUS
10
1.6109314960629921
20
0.6050351968503936
11
1.6106955118110236
21
0.6045066141732284
0
LINE
8
BLACK
6
CONTINUOUS
10
1.6106955118110236
20
0.6045066141732284
11
1.6106260236220471
21
0.6044265354330709
0
LINE
8
BLACK
6
CONTINUOUS
10
1.6106260236220471
20
0.6044265354330709
11
1.6105854330708662
21
0.6043284645669291
0
LINE
8
BLACK
6
CONTINUOUS
10
1.6105854330708662
20
0.6043284645669291
11
1.6102181889763778
21
0.6038810236220472
0
LINE
8
BLACK
6
CONTINUOUS
10
1.6102181889763778
20
0.6038810236220472
11
1.5927616929133859
21
0.5864244881889764
0
LINE
8
BLACK
6
CONTINUOUS
10
1.5927616929133859
20
0.5864244881889764
11
1.6100050393700787
21
0.5864244881889764
0
LINE
8
BLACK
6
CONTINUOUS
10
1.6100050393700787
20
0.5864244881889764
11
1.6105811023622048
21
0.5863677559055118
0
LINE
8
BLACK
6
CONTINUOUS
10
1.6105811023622048
20
0.5863677559055118
11
1.6116455118110236
21
0.5859268503937007
0
LINE
8
BLACK
6
CONTINUOUS
10
1.6116455118110236
20
0.5859268503937007
11
1.612460157480315
21
0.5851122047244094
0
LINE
8
BLACK
6
CONTINUOUS
10
1.612460157480315
20
0.5851122047244094
11
1.6129010629921259
21
0.5840477952755906
0
LINE
8
BLACK
6
CONTINUOUS
10
1.6129010629921259
20
0.5840477952755906
11
1.6129010629921259
21
0.5828956692913385
0
LINE
8
BLACK
6
CONTINUOUS
10
1.6129010629921259
20
0.5828956692913385
11
1.612460157480315
21
0.5818312598425197
0
LINE
8
BLACK
6
CONTINUOUS
10
1.612460157480315
20
0.5818312598425197
11
1.6116455118110236
21
0.5810166141732284
0
LINE
8
BLACK
6
CONTINUOUS
10
1.6116455118110236
20
0.5810166141732284
11
1.6105811023622048
21
0.5805757086614173
0
LINE
8
BLACK
6
CONTINUOUS
10
1.6105811023622048
20
0.5805757086614173
11
1.6100050393700787
21
0.5805189763779527
0
LINE
8
BLACK
6
CONTINUOUS
10
1.6100050393700787
20
0.5805189763779527
11
1.5856331102362204
21
0.5805189763779527
0
LINE
8
BLACK
6
CONTINUOUS
10
1.5856331102362204
20
0.5805189763779527
11
1.5850570472440944
21
0.5805757086614173
0
LINE
8
BLACK
6
CONTINUOUS
10
1.5850570472440944
20
0.5805757086614173
11
1.5839926377952755
21
0.5810166141732284
0
LINE
8
BLACK
6
CONTINUOUS
10
1.5839926377952755
20
0.5810166141732284
11
1.5831779921259843
21
0.5818312598425197
0
LINE
8
BLACK
6
CONTINUOUS
10
1.5831779921259843
20
0.5818312598425197
11
1.5827370866141732
21
0.5828956692913385
0
LINE
8
BLACK
6
CONTINUOUS
10
1.5827370866141732
20
0.5828956692913385
11
1.5827370866141732
21
0.5840477952755906
0
LINE
8
BLACK
6
CONTINUOUS
10
1.5827370866141732
20
0.5840477952755906
11
1.5831779921259843
21
0.5851122047244094
0
LINE
8
BLACK
6
CONTINUOUS
10
1.5831779921259843
20
0.5851122047244094
11
1.5835451968503937
21
0.5855596456692913
0
LINE
8
BLACK
6
CONTINUOUS
10
1.5835451968503937
20
0.5855596456692913
11
1.6055494488188975
21
0.6075639763779528
0
LINE
8
BLACK
6
CONTINUOUS
10
1.6055494488188975
20
0.6075639763779528
11
1.6070522834645669
21
0.6120723622047244
0
LINE
8
BLACK
6
CONTINUOUS
10
1.6070522834645669
20
0.6120723622047244
11
1.6070522834645669
21
0.6146457086614173
0
LINE
8
BLACK
6
CONTINUOUS
10
1.6070522834645669
20
0.6146457086614173
11
1.6057035433070865
21
0.617343188976378
0
LINE
8
BLACK
6
CONTINUOUS
10
1.6057035433070865
20
0.617343188976378
11
1.6045064173228345
21
0.6185403149606299
0
LINE
8
BLACK
6
CONTINUOUS
10
1.6045064173228345
20
0.6185403149606299
11
1.6018089370078741
21
0.6198890551181102
0
LINE
8
BLACK
6
CONTINUOUS
10
1.6018089370078741
20
0.6198890551181102
11
1.5938292125984252
21
0.6198890551181102
0
LINE
8
BLACK
6
CONTINUOUS
10
1.5938292125984252
20
0.6198890551181102
11
1.5911317322834646
21
0.6185403149606299
0
LINE
8
BLACK
6
CONTINUOUS
10
1.5911317322834646
20
0.6185403149606299
11
1.5895957874015747
21
0.6170043700787401
0
LINE
8
BLACK
6
CONTINUOUS
10
1.5895957874015747
20
0.6170043700787401
11
1.5891483464566929
21
0.6166371653543307
0
LINE
8
BLACK
6
CONTINUOUS
10
1.5891483464566929
20
0.6166371653543307
11
1.5880838976377953
21
0.6161962598425197
0
LINE
8
BLACK
6
CONTINUOUS
10
1.5880838976377953
20
0.6161962598425197
11
1.5869318503937007
21
0.6161962598425197
0
LINE
8
BLACK
6
CONTINUOUS
10
1.5869318503937007
20
0.6161962598425197
11
1.5858674015748031
21
0.6166371653543307
0
LINE
8
BLACK
6
CONTINUOUS
10
1.5858674015748031
20
0.6166371653543307
11
1.5850527559055119
21
0.617451811023622
0
LINE
8
BLACK
6
CONTINUOUS
10
1.5850527559055119
20
0.617451811023622
11
1.5846118503937008
21
0.6185162598425197
0
LINE
8
BLACK
6
CONTINUOUS
10
1.5846118503937008
20
0.6185162598425197
11
1.5846118503937008
21
0.6196683070866141
0
LINE
8
BLACK
6
CONTINUOUS
10
1.5846118503937008
20
0.6196683070866141
11
1.5850527559055119
21
0.6207327559055118
0
LINE
8
BLACK
6
CONTINUOUS
10
1.5850527559055119
20
0.6207327559055118
11
1.5854199606299213
21
0.6211801968503937
0
LINE
8
BLACK
6
CONTINUOUS
10
1.5854199606299213
20
0.6211801968503937
11
1.5872947244094489
21
0.6230549606299213
0
LINE
8
BLACK
6
CONTINUOUS
10
1.5872947244094489
20
0.6230549606299213
11
1.5875210629921259
21
0.6232407480314961
0
LINE
8
BLACK
6
CONTINUOUS
10
1.5875210629921259
20
0.6232407480314961
11
1.5875722440944882
21
0.6232997244094488
0
LINE
8
BLACK
6
CONTINUOUS
10
1.5875722440944882
20
0.6232997244094488
11
1.5876611811023622
21
0.6233557086614173
0
LINE
8
BLACK
6
CONTINUOUS
10
1.5876611811023622
20
0.6233557086614173
11
1.5877421653543307
21
0.6234221653543307
0
LINE
8
BLACK
6
CONTINUOUS
10
1.5877421653543307
20
0.6234221653543307
11
1.5878140944881889
21
0.6234520078740158
0
LINE
8
BLACK
6
CONTINUOUS
10
1.5878140944881889
20
0.6234520078740158
11
1.588062125984252
21
0.6236080708661417
0
LINE
8
BLACK
6
CONTINUOUS
10
1.588062125984252
20
0.6236080708661417
11
1.5918116535433071
21
0.6254828346456692
0
LINE
8
BLACK
6
CONTINUOUS
10
1.5918116535433071
20
0.6254828346456692
11
1.5923522440944882
21
0.6256897244094488
0
LINE
8
BLACK
6
CONTINUOUS
10
1.5923522440944882
20
0.6256897244094488
11
1.5924581102362205
21
0.6256972834645669
0
LINE
8
BLACK
6
CONTINUOUS
10
1.5924581102362205
20
0.6256972834645669
11
1.5925561023622048
21
0.6257378346456692
0
LINE
8
BLACK
6
CONTINUOUS
10
1.5925561023622048
20
0.6257378346456692
11
1.5931321653543307
21
0.6257945669291338
0
LINE
8
BLACK
6
CONTINUOUS
10
1.5931321653543307
20
0.6257945669291338
11
1.6025059842519684
21
0.6257945669291338
0
LINE
8
BLACK
6
CONTINUOUS
10
1.6025059842519684
20
0.6257945669291338
11
1.6030820472440945
21
0.6257378346456692
0
LINE
8
BLACK
6
CONTINUOUS
10
1.6405773622047244
20
0.6257378346456692
11
1.6406753543307087
21
0.6256972440944881
0
LINE
8
BLACK
6
CONTINUOUS
10
1.6406753543307087
20
0.6256972440944881
11
1.6407811811023623
21
0.6256897244094488
0
LINE
8
BLACK
6
CONTINUOUS
10
1.6407811811023623
20
0.6256897244094488
11
1.6413218110236221
21
0.6254828346456692
0
LINE
8
BLACK
6
CONTINUOUS
10
1.6413218110236221
20
0.6254828346456692
11
1.6450713385826772
21
0.6236080708661417
0
LINE
8
BLACK
6
CONTINUOUS
10
1.6450713385826772
20
0.6236080708661417
11
1.6453193307086613
21
0.6234520078740158
0
LINE
8
BLACK
6
CONTINUOUS
10
1.6453193307086613
20
0.6234520078740158
11
1.6453912992125983
21
0.6234221653543307
0
LINE
8
BLACK
6
CONTINUOUS
10
1.6453912992125983
20
0.6234221653543307
11
1.6454722440944882
21
0.6233557086614173
0
LINE
8
BLACK
6
CONTINUOUS
10
1.6454722440944882
20
0.6233557086614173
11
1.6455612204724408
21
0.6232997244094488
0
LINE
8
BLACK
6
CONTINUOUS
10
1.6455612204724408
20
0.6232997244094488
11
1.6456123622047243
21
0.6232407480314961
0
LINE
8
BLACK
6
CONTINUOUS
10
1.6456123622047243
20
0.6232407480314961
11
1.6458387401574803
21
0.6230549606299213
0
LINE
8
BLACK
6
CONTINUOUS
10
1.6458387401574803
20
0.6230549606299213
11
1.6477135039370079
21
0.6211801968503937
0
LINE
8
BLACK
6
CONTINUOUS
10
1.6477135039370079
20
0.6211801968503937
11
1.6478992519685038
21
0.6209538582677165
0
LINE
8
BLACK
6
CONTINUOUS
10
1.6478992519685038
20
0.6209538582677165
11
1.6479582677165354
21
0.6209026771653543
0
LINE
8
BLACK
6
CONTINUOUS
10
1.6479582677165354
20
0.6209026771653543
11
1.6480142125984252
21
0.6208137401574803
0
LINE
8
BLACK
6
CONTINUOUS
10
1.6480142125984252
20
0.6208137401574803
11
1.6480807086614173
21
0.6207327559055118
0
LINE
8
BLACK
6
CONTINUOUS
10
1.6480807086614173
20
0.6207327559055118
11
1.6481105118110235
21
0.6206608267716536
0
LINE
8
BLACK
6
CONTINUOUS
10
1.6481105118110235
20
0.6206608267716536
11
1.6482666141732283
21
0.6204127952755906
0
LINE
8
BLACK
6
CONTINUOUS
10
1.6482666141732283
20
0.6204127952755906
11
1.6501413779527558
21
0.6166632677165355
0
LINE
8
BLACK
6
CONTINUOUS
10
1.6501413779527558
20
0.6166632677165355
11
1.6503482677165353
21
0.6161226771653543
0
LINE
8
BLACK
6
CONTINUOUS
10
1.6503482677165353
20
0.6161226771653543
11
1.6503557874015748
21
0.616016811023622
0
LINE
8
BLACK
6
CONTINUOUS
10
1.6503557874015748
20
0.616016811023622
11
1.650396377952756
21
0.6159188188976378
0
LINE
8
BLACK
6
CONTINUOUS
10
1.650396377952756
20
0.6159188188976378
11
1.6504531102362205
21
0.6153427559055118
0
LINE
8
BLACK
6
CONTINUOUS
10
1.6504531102362205
20
0.6153427559055118
11
1.6504531102362205
21
0.6003446456692914
0
LINE
8
BLACK
6
CONTINUOUS
10
1.6504531102362205
20
0.6003446456692914
11
1.650443188976378
21
0.6002441338582677
0
LINE
8
BLACK
6
CONTINUOUS
10
1.650443188976378
20
0.6002441338582677
11
1.6504496062992127
21
0.6002011023622047
0
LINE
8
BLACK
6
CONTINUOUS
10
1.6504496062992127
20
0.6002011023622047
11
1.650417716535433
21
0.5999856299212598
0
LINE
8
BLACK
6
CONTINUOUS
10
1.650417716535433
20
0.5999856299212598
11
1.650396377952756
21
0.5997685826771654
0
LINE
8
BLACK
6
CONTINUOUS
10
1.650396377952756
20
0.5997685826771654
11
1.6503797244094487
21
0.5997283858267717
0
LINE
8
BLACK
6
CONTINUOUS
10
1.6503797244094487
20
0.5997283858267717
11
1.6503649606299213
21
0.5996285039370078
0
LINE
8
BLACK
6
CONTINUOUS
10
1.6503649606299213
20
0.5996285039370078
11
1.6484901968503938
21
0.5921294488188976
0
LINE
8
BLACK
6
CONTINUOUS
10
1.6484901968503938
20
0.5921294488188976
11
1.6483688582677165
21
0.5917899606299213
0
LINE
8
BLACK
6
CONTINUOUS
10
1.6483688582677165
20
0.5917899606299213
11
1.6483547637795275
21
0.5917185039370079
0
LINE
8
BLACK
6
CONTINUOUS
10
1.6483547637795275
20
0.5917185039370079
11
1.6483201968503938
21
0.5916537401574803
0
LINE
8
BLACK
6
CONTINUOUS
10
1.6483201968503938
20
0.5916537401574803
11
1.6482954330708661
21
0.5915843307086615
0
LINE
8
BLACK
6
CONTINUOUS
10
1.6482954330708661
20
0.5915843307086615
11
1.6482518897637795
21
0.5915256299212598
0
LINE
8
BLACK
6
CONTINUOUS
10
1.6482518897637795
20
0.5915256299212598
11
1.6480824409448818
21
0.591207716535433
0
LINE
8
BLACK
6
CONTINUOUS
10
1.6480824409448818
20
0.591207716535433
11
1.6443329133858267
21
0.5855833858267716
0
LINE
8
BLACK
6
CONTINUOUS
10
1.6443329133858267
20
0.5855833858267716
11
1.6443315748031495
21
0.5855818110236221
0
LINE
8
BLACK
6
CONTINUOUS
10
1.6443315748031495
20
0.5855818110236221
11
1.644331220472441
21
0.5855808661417322
0
LINE
8
BLACK
6
CONTINUOUS
10
1.644331220472441
20
0.5855808661417322
11
1.644152716535433
21
0.5853633858267716
0
LINE
8
BLACK
6
CONTINUOUS
10
1.644152716535433
20
0.5853633858267716
11
1.6439661417322835
21
0.5851355511811024
0
LINE
8
BLACK
6
CONTINUOUS
10
1.6439661417322835
20
0.5851355511811024
11
1.6439652755905512
21
0.585135
0
LINE
8
BLACK
6
CONTINUOUS
10
1.6439652755905512
20
0.585135
11
1.6439639763779528
21
0.5851333858267717
0
LINE
8
BLACK
6
CONTINUOUS
10
1.6439639763779528
20
0.5851333858267717
11
1.642089251968504
21
0.5832586220472441
0
LINE
8
BLACK
6
CONTINUOUS
10
1.642089251968504
20
0.5832586220472441
11
1.6418628740157479
21
0.583072874015748
0
LINE
8
BLACK
6
CONTINUOUS
10
1.6418628740157479
20
0.583072874015748
11
1.6418116929133857
21
0.5830138188976378
0
LINE
8
BLACK
6
CONTINUOUS
10
1.6418116929133857
20
0.5830138188976378
11
1.6417227165354331
21
0.5829578346456693
0
LINE
8
BLACK
6
CONTINUOUS
10
1.6417227165354331
20
0.5829578346456693
11
1.6416417716535432
21
0.5828913779527559
0
LINE
8
BLACK
6
CONTINUOUS
10
1.6416417716535432
20
0.5828913779527559
11
1.6415698031496062
21
0.5828615748031496
0
LINE
8
BLACK
6
CONTINUOUS
10
1.6415698031496062
20
0.5828615748031496
11
1.6413218110236221
21
0.5827054724409448
0
LINE
8
BLACK
6
CONTINUOUS
10
1.6413218110236221
20
0.5827054724409448
11
1.637572283464567
21
0.5808307086614173
0
LINE
8
BLACK
6
CONTINUOUS
10
1.637572283464567
20
0.5808307086614173
11
1.6370316535433072
21
0.5806238188976378
0
LINE
8
BLACK
6
CONTINUOUS
10
1.6370316535433072
20
0.5806238188976378
11
1.6369258267716535
21
0.5806163385826771
0
LINE
8
BLACK
6
CONTINUOUS
10
1.6369258267716535
20
0.5806163385826771
11
1.6368278346456693
21
0.5805757086614173
0
LINE
8
BLACK
6
CONTINUOUS
10
1.6368278346456693
20
0.5805757086614173
11
1.6362517716535432
21
0.5805189763779527
0
LINE
8
BLACK
6
CONTINUOUS
10
1.6362517716535432
20
0.5805189763779527
11
1.628752716535433
21
0.5805189763779527
0
LINE
8
BLACK
6
CONTINUOUS
10
1.628752716535433
20
0.5805189763779527
11
1.6281766535433071
21
0.5805757086614173
0
LINE
8
BLACK
6
CONTINUOUS
10
1.6281766535433071
20
0.5805757086614173
11
1.6271122440944881
21
0.5810166141732284
0
LINE
8
BLACK
6
CONTINUOUS
10
1.6271122440944881
20
0.5810166141732284
11
1.6262975984251968
21
0.5818312598425197
0
LINE
8
BLACK
6
CONTINUOUS
10
1.6262975984251968
20
0.5818312598425197
11
1.6258566929133857
21
0.5828956692913385
0
LINE
8
BLACK
6
CONTINUOUS
10
1.6258566929133857
20
0.5828956692913385
11
1.6258566929133857
21
0.5840477952755906
0
LINE
8
BLACK
6
CONTINUOUS
10
1.6258566929133857
20
0.5840477952755906
11
1.6262975984251968
21
0.5851122047244094
0
LINE
8
BLACK
6
CONTINUOUS
10
1.6262975984251968
20
0.5851122047244094
11
1.6271122440944881
21
0.5859268503937007
0
LINE
8
BLACK
6
CONTINUOUS
10
1.6271122440944881
20
0.5859268503937007
11
1.6281766535433071
21
0.5863677559055118
0
LINE
8
BLACK
6
CONTINUOUS
10
1.6281766535433071
20
0.5863677559055118
11
1.628752716535433
21
0.5864244881889764
0
LINE
8
BLACK
6
CONTINUOUS
10
1.628752716535433
20
0.5864244881889764
11
1.6355547244094488
21
0.5864244881889764
0
LINE
8
BLACK
6
CONTINUOUS
10
1.6355547244094488
20
0.5864244881889764
11
1.6382521653543307
21
0.5877732283464567
0
LINE
8
BLACK
6
CONTINUOUS
10
1.6382521653543307
20
0.5877732283464567
11
1.6395812992125984
21
0.5891024015748031
0
LINE
8
BLACK
6
CONTINUOUS
10
1.6395812992125984
20
0.5891024015748031
11
1.6428850393700787
21
0.5940579527559054
0
LINE
8
BLACK
6
CONTINUOUS
10
1.6428850393700787
20
0.5940579527559054
11
1.6436143307086615
21
0.5969751181102362
0
LINE
8
BLACK
6
CONTINUOUS
10
1.6436143307086615
20
0.5969751181102362
11
1.6413218110236221
21
0.5958288582677165
0
LINE
8
BLACK
6
CONTINUOUS
10
1.6413218110236221
20
0.5958288582677165
11
1.6407811811023623
21
0.595621968503937
0
LINE
8
BLACK
6
CONTINUOUS
10
1.6407811811023623
20
0.595621968503937
11
1.6406753543307087
21
0.5956144881889763
0
LINE
8
BLACK
6
CONTINUOUS
10
1.6406753543307087
20
0.5956144881889763
11
1.6405773622047244
21
0.5955738582677165
0
LINE
8
BLACK
6
CONTINUOUS
10
1.6405773622047244
20
0.5955738582677165
11
1.6400012992125983
21
0.595517125984252
0
LINE
8
BLACK
6
CONTINUOUS
10
1.6400012992125983
20
0.595517125984252
11
1.6325022440944881
21
0.595517125984252
0
LINE
8
BLACK
6
CONTINUOUS
10
1.6325022440944881
20
0.595517125984252
11
1.6319261811023622
21
0.5955738582677165
0
LINE
8
BLACK
6
CONTINUOUS
10
1.6319261811023622
20
0.5955738582677165
11
1.6318281889763779
21
0.5956144488188976
0
LINE
8
BLACK
6
CONTINUOUS
10
1.6318281889763779
20
0.5956144488188976
11
1.6317223228346456
21
0.595621968503937
0
LINE
8
BLACK
6
CONTINUOUS
10
1.6317223228346456
20
0.595621968503937
11
1.6311817322834645
21
0.5958288582677165
0
LINE
8
BLACK
6
CONTINUOUS
10
1.6311817322834645
20
0.5958288582677165
11
1.6274322047244094
21
0.597703622047244
0
LINE
8
BLACK
6
CONTINUOUS
10
1.6274322047244094
20
0.597703622047244
11
1.6271841732283465
21
0.5978597244094488
0
LINE
8
BLACK
6
CONTINUOUS
10
1.6271841732283465
20
0.5978597244094488
11
1.6271122440944881
21
0.5978895275590551
0
LINE
8
BLACK
6
CONTINUOUS
10
1.6271122440944881
20
0.5978895275590551
11
1.6270312598425196
21
0.5979560236220473
0
LINE
8
BLACK
6
CONTINUOUS
10
1.6270312598425196
20
0.5979560236220473
11
1.6269423228346456
21
0.598011968503937
0
LINE
8
BLACK
6
CONTINUOUS
10
1.6269423228346456
20
0.598011968503937
11
1.6268911417322833
21
0.5980709842519685
0
LINE
8
BLACK
6
CONTINUOUS
10
1.6268911417322833
20
0.5980709842519685
11
1.6266648031496063
21
0.5982567322834645
0
LINE
8
BLACK
6
CONTINUOUS
10
1.6266648031496063
20
0.5982567322834645
11
1.6247900393700787
21
0.6001314960629921
0
LINE
8
BLACK
6
CONTINUOUS
10
1.6247900393700787
20
0.6001314960629921
11
1.624604251968504
21
0.600357874015748
0
LINE
8
BLACK
6
CONTINUOUS
10
1.624604251968504
20
0.600357874015748
11
1.6245452755905512
21
0.6004090157480315
0
LINE
8
BLACK
6
CONTINUOUS
10
1.6245452755905512
20
0.6004090157480315
11
1.6244892913385827
21
0.6004979921259842
0
LINE
8
BLACK
6
CONTINUOUS
10
1.6244892913385827
20
0.6004979921259842
11
1.6244228346456693
21
0.600578937007874
0
LINE
8
BLACK
6
CONTINUOUS
10
1.6244228346456693
20
0.600578937007874
11
1.6243929921259843
21
0.600650905511811
0
LINE
8
BLACK
6
CONTINUOUS
10
1.6243929921259843
20
0.600650905511811
11
1.6242369291338583
21
0.6008988976377952
0
LINE
8
BLACK
6
CONTINUOUS
10
1.6242369291338583
20
0.6008988976377952
11
1.6223621653543308
21
0.6046484251968504
0
LINE
8
BLACK
6
CONTINUOUS
10
1.6223621653543308
20
0.6046484251968504
11
1.6221552755905511
21
0.6051890551181103
0
LINE
8
BLACK
6
CONTINUOUS
10
1.6221552755905511
20
0.6051890551181103
11
1.6221477559055117
21
0.6052948818897638
0
LINE
8
BLACK
6
CONTINUOUS
10
1.6221477559055117
20
0.6052948818897638
11
1.6221071653543306
21
0.605392874015748
0
LINE
8
BLACK
6
CONTINUOUS
10
1.6221071653543306
20
0.605392874015748
11
1.622050433070866
21
0.605968937007874
0
LINE
8
BLACK
6
CONTINUOUS
10
1.622050433070866
20
0.605968937007874
11
1.622050433070866
21
0.6153427559055118
0
LINE
8
BLACK
6
CONTINUOUS
10
1.622050433070866
20
0.6153427559055118
11
1.6221071653543306
21
0.6159188188976378
0
LINE
8
BLACK
6
CONTINUOUS
10
1.6221071653543306
20
0.6159188188976378
11
1.6221477559055117
21
0.6160168503937008
0
LINE
8
BLACK
6
CONTINUOUS
10
1.6221477559055117
20
0.6160168503937008
11
1.6221552755905511
21
0.6161226377952755
0
LINE
8
BLACK
6
CONTINUOUS
10
1.6221552755905511
20
0.6161226377952755
11
1.6223621653543308
21
0.6166632677165355
0
LINE
8
BLACK
6
CONTINUOUS
10
1.6223621653543308
20
0.6166632677165355
11
1.6242369291338583
21
0.6204127952755906
0
LINE
8
BLACK
6
CONTINUOUS
10
1.6242369291338583
20
0.6204127952755906
11
1.6243929921259843
21
0.6206608267716536
0
LINE
8
BLACK
6
CONTINUOUS
10
1.6243929921259843
20
0.6206608267716536
11
1.6244228346456693
21
0.6207327559055118
0
LINE
8
BLACK
6
CONTINUOUS
10
1.6244228346456693
20
0.6207327559055118
11
1.6244892913385827
21
0.6208137401574803
0
LINE
8
BLACK
6
CONTINUOUS
10
1.6244892913385827
20
0.6208137401574803
11
1.6245452755905512
21
0.6209026771653543
0
LINE
8
BLACK
6
CONTINUOUS
10
1.6245452755905512
20
0.6209026771653543
11
1.624604251968504
21
0.6209538582677165
0
LINE
8
BLACK
6
CONTINUOUS
10
1.624604251968504
20
0.6209538582677165
11
1.6247900393700787
21
0.6211801968503937
0
LINE
8
BLACK
6
CONTINUOUS
10
1.6247900393700787
20
0.6211801968503937
11
1.6266648031496063
21
0.6230549606299213
0
LINE
8
BLACK
6
CONTINUOUS
10
1.6266648031496063
20
0.6230549606299213
11
1.6268911417322833
21
0.6232407480314961
0
LINE
8
BLACK
6
CONTINUOUS
10
1.6268911417322833
20
0.6232407480314961
11
1.6269423228346456
21
0.6232997244094488
0
LINE
8
BLACK
6
CONTINUOUS
10
1.6269423228346456
20
0.6232997244094488
11
1.6270312598425196
21
0.6233557086614173
0
LINE
8
BLACK
6
CONTINUOUS
10
1.6270312598425196
20
0.6233557086614173
11
1.6271122440944881
21
0.6234221653543307
0
LINE
8
BLACK
6
CONTINUOUS
10
1.6271122440944881
20
0.6234221653543307
11
1.6271841732283465
21
0.6234520078740158
0
LINE
8
BLACK
6
CONTINUOUS
10
1.6271841732283465
20
0.6234520078740158
11
1.6274322047244094
21
0.6236080708661417
0
LINE
8
BLACK
6
CONTINUOUS
10
1.6274322047244094
20
0.6236080708661417
11
1.6311817322834645
21
0.6254828346456692
0
LINE
8
BLACK
6
CONTINUOUS
10
1.6311817322834645
20
0.6254828346456692
11
1.6317223228346456
21
0.6256897244094488
0
LINE
8
BLACK
6
CONTINUOUS
10
1.6317223228346456
20
0.6256897244094488
11
1.6318281889763779
21
0.6256972834645669
0
LINE
8
BLACK
6
CONTINUOUS
10
1.6318281889763779
20
0.6256972834645669
11
1.6319261811023622
21
0.6257378346456692
0
LINE
8
BLACK
6
CONTINUOUS
10
1.6319261811023622
20
0.6257378346456692
11
1.6325022440944881
21
0.6257945669291338
0
LINE
8
BLACK
6
CONTINUOUS
10
1.6325022440944881
20
0.6257945669291338
11
1.6400012992125983
21
0.6257945669291338
0
LINE
8
BLACK
6
CONTINUOUS
10
1.6400012992125983
20
0.6257945669291338
11
1.6405773622047244
21
0.6257378346456692
0
LINE
8
BLACK
6
CONTINUOUS
10
1.630501811023622
20
0.6185403149606299
11
1.62930468503937
21
0.617343188976378
0
LINE
8
BLACK
6
CONTINUOUS
10
1.62930468503937
20
0.617343188976378
11
1.6279559448818897
21
0.6146457086614173
0
LINE
8
BLACK
6
CONTINUOUS
10
1.6279559448818897
20
0.6146457086614173
11
1.6279559448818897
21
0.6066659842519685
0
LINE
8
BLACK
6
CONTINUOUS
10
1.6279559448818897
20
0.6066659842519685
11
1.62930468503937
21
0.6039685039370079
0
LINE
8
BLACK
6
CONTINUOUS
10
1.62930468503937
20
0.6039685039370079
11
1.630501811023622
21
0.6027713779527559
0
LINE
8
BLACK
6
CONTINUOUS
10
1.630501811023622
20
0.6027713779527559
11
1.6331992913385827
21
0.6014226377952756
0
LINE
8
BLACK
6
CONTINUOUS
10
1.6331992913385827
20
0.6014226377952756
11
1.6393042519685039
21
0.6014226377952756
0
LINE
8
BLACK
6
CONTINUOUS
10
1.6393042519685039
20
0.6014226377952756
11
1.6420017322834646
21
0.6027713779527559
0
LINE
8
BLACK
6
CONTINUOUS
10
1.6420017322834646
20
0.6027713779527559
11
1.6431988582677164
21
0.6039685039370079
0
LINE
8
BLACK
6
CONTINUOUS
10
1.6431988582677164
20
0.6039685039370079
11
1.6445475984251967
21
0.6066659842519685
0
LINE
8
BLACK
6
CONTINUOUS
10
1.6445475984251967
20
0.6066659842519685
11
1.6445475984251967
21
0.6146457086614173
0
LINE
8
BLACK
6
CONTINUOUS
10
1.6445475984251967
20
0.6146457086614173
11
1.6431988582677164
21
0.617343188976378
0
LINE
8
BLACK
6
CONTINUOUS
10
1.6431988582677164
20
0.617343188976378
11
1.6420017322834646
21
0.6185403149606299
0
LINE
8
BLACK
6
CONTINUOUS
10
1.6420017322834646
20
0.6185403149606299
11
1.6393042519685039
21
0.6198890551181102
0
LINE
8
BLACK
6
CONTINUOUS
10
1.6393042519685039
20
0.6198890551181102
11
1.6331992913385827
21
0.6198890551181102
0
LINE
8
BLACK
6
CONTINUOUS
10
1.6331992913385827
20
0.6198890551181102
11
1.630501811023622
21
0.6185403149606299
0
LINE
8
BLACK
6
CONTINUOUS
10
1.6836969685039369
20
0.6257378346456692
11
1.6847613779527559
21
0.6252969291338583
0
LINE
8
BLACK
6
CONTINUOUS
10
1.6847613779527559
20
0.6252969291338583
11
1.6855760236220472
21
0.6244822834645669
0
LINE
8
BLACK
6
CONTINUOUS
10
1.6855760236220472
20
0.6244822834645669
11
1.6860169291338583
21
0.623417874015748
0
LINE
8
BLACK
6
CONTINUOUS
10
1.6860169291338583
20
0.623417874015748
11
1.6860169291338583
21
0.622265748031496
0
LINE
8
BLACK
6
CONTINUOUS
10
1.6860169291338583
20
0.622265748031496
11
1.6855760236220472
21
0.6212013385826771
0
LINE
8
BLACK
6
CONTINUOUS
10
1.6855760236220472
20
0.6212013385826771
11
1.6847613779527559
21
0.6203866929133858
0
LINE
8
BLACK
6
CONTINUOUS
10
1.6847613779527559
20
0.6203866929133858
11
1.6836969685039369
21
0.6199457874015748
0
LINE
8
BLACK
6
CONTINUOUS
10
1.6836969685039369
20
0.6199457874015748
11
1.683120905511811
21
0.6198890551181102
0
LINE
8
BLACK
6
CONTINUOUS
10
1.683120905511811
20
0.6198890551181102
11
1.6670454724409449
21
0.6198890551181102
0
LINE
8
BLACK
6
CONTINUOUS
10
1.6670454724409449
20
0.6198890551181102
11
1.6660683464566928
21
0.6101177952755905
0
LINE
8
BLACK
6
CONTINUOUS
10
1.6660683464566928
20
0.6101177952755905
11
1.6668022834645668
21
0.6104847244094488
0
LINE
8
BLACK
6
CONTINUOUS
10
1.6668022834645668
20
0.6104847244094488
11
1.6673428740157481
21
0.6106916141732284
0
LINE
8
BLACK
6
CONTINUOUS
10
1.6673428740157481
20
0.6106916141732284
11
1.6674487401574802
21
0.6106991732283464
0
LINE
8
BLACK
6
CONTINUOUS
10
1.6674487401574802
20
0.6106991732283464
11
1.6675467322834645
21
0.6107397244094488
0
LINE
8
BLACK
6
CONTINUOUS
10
1.6675467322834645
20
0.6107397244094488
11
1.6681227952755906
21
0.6107964566929134
0
LINE
8
BLACK
6
CONTINUOUS
10
1.6681227952755906
20
0.6107964566929134
11
1.6774966141732284
21
0.6107964566929134
0
LINE
8
BLACK
6
CONTINUOUS
10
1.6774966141732284
20
0.6107964566929134
11
1.6780726771653542
21
0.6107397244094488
0
LINE
8
BLACK
6
CONTINUOUS
10
1.6780726771653542
20
0.6107397244094488
11
1.6781706692913385
21
0.6106991338582677
0
LINE
8
BLACK
6
CONTINUOUS
10
1.6781706692913385
20
0.6106991338582677
11
1.6782764960629921
21
0.6106916141732284
0
LINE
8
BLACK
6
CONTINUOUS
10
1.6782764960629921
20
0.6106916141732284
11
1.6788171259842519
21
0.6104847244094488
0
LINE
8
BLACK
6
CONTINUOUS
10
1.6788171259842519
20
0.6104847244094488
11
1.682566653543307
21
0.6086099606299212
0
LINE
8
BLACK
6
CONTINUOUS
10
1.682566653543307
20
0.6086099606299212
11
1.6828146456692914
21
0.6084538976377952
0
LINE
8
BLACK
6
CONTINUOUS
10
1.6828146456692914
20
0.6084538976377952
11
1.6828866141732284
21
0.6084240551181103
0
LINE
8
BLACK
6
CONTINUOUS
10
1.6828866141732284
20
0.6084240551181103
11
1.6829675590551181
21
0.6083575984251969
0
LINE
8
BLACK
6
CONTINUOUS
10
1.6829675590551181
20
0.6083575984251969
11
1.6830565354330709
21
0.6083016141732284
0
LINE
8
BLACK
6
CONTINUOUS
10
1.6830565354330709
20
0.6083016141732284
11
1.6831076771653544
21
0.6082426377952755
0
LINE
8
BLACK
6
CONTINUOUS
10
1.6831076771653544
20
0.6082426377952755
11
1.6833340551181102
21
0.6080568503937007
0
LINE
8
BLACK
6
CONTINUOUS
10
1.6833340551181102
20
0.6080568503937007
11
1.6852088188976377
21
0.6061820866141732
0
LINE
8
BLACK
6
CONTINUOUS
10
1.6852088188976377
20
0.6061820866141732
11
1.6853945669291339
21
0.6059557480314961
0
LINE
8
BLACK
6
CONTINUOUS
10
1.6853945669291339
20
0.6059557480314961
11
1.6854535826771653
21
0.6059045669291339
0
LINE
8
BLACK
6
CONTINUOUS
10
1.6854535826771653
20
0.6059045669291339
11
1.685509527559055
21
0.6058156299212598
0
LINE
8
BLACK
6
CONTINUOUS
10
1.685509527559055
20
0.6058156299212598
11
1.6855760236220472
21
0.6057346456692914
0
LINE
8
BLACK
6
CONTINUOUS
10
1.6855760236220472
20
0.6057346456692914
11
1.6856058267716536
21
0.605662716535433
0
LINE
8
BLACK
6
CONTINUOUS
10
1.6856058267716536
20
0.605662716535433
11
1.6857619291338581
21
0.60541468503937
0
LINE
8
BLACK
6
CONTINUOUS
10
1.6857619291338581
20
0.60541468503937
11
1.6876366929133857
21
0.6016651574803149
0
LINE
8
BLACK
6
CONTINUOUS
10
1.6876366929133857
20
0.6016651574803149
11
1.6878435826771654
21
0.6011245669291339
0
LINE
8
BLACK
6
CONTINUOUS
10
1.6878435826771654
20
0.6011245669291339
11
1.6878511023622047
21
0.6010187007874016
0
LINE
8
BLACK
6
CONTINUOUS
10
1.6878511023622047
20
0.6010187007874016
11
1.6878916929133858
21
0.6009207086614173
0
LINE
8
BLACK
6
CONTINUOUS
10
1.6878916929133858
20
0.6009207086614173
11
1.6879484251968504
21
0.6003446456692914
0
LINE
8
BLACK
6
CONTINUOUS
10
1.6879484251968504
20
0.6003446456692914
11
1.6879484251968504
21
0.5909708267716536
0
LINE
8
BLACK
6
CONTINUOUS
10
1.6879484251968504
20
0.5909708267716536
11
1.6878916929133858
21
0.5903947637795276
0
LINE
8
BLACK
6
CONTINUOUS
10
1.6878916929133858
20
0.5903947637795276
11
1.6878511023622047
21
0.5902968110236221
0
LINE
8
BLACK
6
CONTINUOUS
10
1.6878511023622047
20
0.5902968110236221
11
1.6878435826771654
21
0.590190905511811
0
LINE
8
BLACK
6
CONTINUOUS
10
1.6878435826771654
20
0.590190905511811
11
1.6876366929133857
21
0.5896503149606299
0
LINE
8
BLACK
6
CONTINUOUS
10
1.6876366929133857
20
0.5896503149606299
11
1.6857619291338581
21
0.5859007874015748
0
LINE
8
BLACK
6
CONTINUOUS
10
1.6857619291338581
20
0.5859007874015748
11
1.6856058661417321
21
0.5856529133858268
0
LINE
8
BLACK
6
CONTINUOUS
10
1.6856058661417321
20
0.5856529133858268
11
1.6855760629921259
21
0.5855808661417322
0
LINE
8
BLACK
6
CONTINUOUS
10
1.6855760629921259
20
0.5855808661417322
11
1.685509527559055
21
0.585499842519685
0
LINE
8
BLACK
6
CONTINUOUS
10
1.685509527559055
20
0.585499842519685
11
1.6854535826771653
21
0.585410905511811
0
LINE
8
BLACK
6
CONTINUOUS
10
1.6854535826771653
20
0.585410905511811
11
1.6853945669291339
21
0.5853597637795276
0
LINE
8
BLACK
6
CONTINUOUS
10
1.6853945669291339
20
0.5853597637795276
11
1.6852088188976377
21
0.5851333858267717
0
LINE
8
BLACK
6
CONTINUOUS
10
1.6852088188976377
20
0.5851333858267717
11
1.6833340944881889
21
0.5832586220472441
0
LINE
8
BLACK
6
CONTINUOUS
10
1.6833340944881889
20
0.5832586220472441
11
1.6831077165354331
21
0.583072874015748
0
LINE
8
BLACK
6
CONTINUOUS
10
1.6831077165354331
20
0.583072874015748
11
1.6830565354330709
21
0.5830138188976378
0
LINE
8
BLACK
6
CONTINUOUS
10
1.6830565354330709
20
0.5830138188976378
11
1.6829675590551181
21
0.5829578346456693
0
LINE
8
BLACK
6
CONTINUOUS
10
1.6829675590551181
20
0.5829578346456693
11
1.6828866141732284
21
0.5828913779527559
0
LINE
8
BLACK
6
CONTINUOUS
10
1.6828866141732284
20
0.5828913779527559
11
1.6828146456692914
21
0.5828615748031496
0
LINE
8
BLACK
6
CONTINUOUS
10
1.6828146456692914
20
0.5828615748031496
11
1.682566653543307
21
0.5827054724409448
0
LINE
8
BLACK
6
CONTINUOUS
10
1.682566653543307
20
0.5827054724409448
11
1.6788171259842519
21
0.5808307086614173
0
LINE
8
BLACK
6
CONTINUOUS
10
1.6788171259842519
20
0.5808307086614173
11
1.6782764960629921
21
0.5806238188976378
0
LINE
8
BLACK
6
CONTINUOUS
10
1.6782764960629921
20
0.5806238188976378
11
1.6781706692913385
21
0.5806163385826771
0
LINE
8
BLACK
6
CONTINUOUS
10
1.6781706692913385
20
0.5806163385826771
11
1.6780726771653542
21
0.5805757086614173
0
LINE
8
BLACK
6
CONTINUOUS
10
1.6780726771653542
20
0.5805757086614173
11
1.6774966141732284
21
0.5805189763779527
0
LINE
8
BLACK
6
CONTINUOUS
10
1.6774966141732284
20
0.5805189763779527
11
1.6681227952755906
21
0.5805189763779527
0
LINE
8
BLACK
6
CONTINUOUS
10
1.6681227952755906
20
0.5805189763779527
11
1.6675467322834645
21
0.5805757086614173
0
LINE
8
BLACK
6
CONTINUOUS
10
1.6675467322834645
20
0.5805757086614173
11
1.6674487401574802
21
0.5806162992125984
0
LINE
8
BLACK
6
CONTINUOUS
10
1.6674487401574802
20
0.5806162992125984
11
1.6673428740157481
21
0.5806238188976378
0
LINE
8
BLACK
6
CONTINUOUS
10
1.6673428740157481
20
0.5806238188976378
11
1.6668022834645668
21
0.5808307086614173
0
LINE
8
BLACK
6
CONTINUOUS
10
1.6668022834645668
20
0.5808307086614173
11
1.6630527559055117
21
0.5827054724409448
0
LINE
8
BLACK
6
CONTINUOUS
10
1.6630527559055117
20
0.5827054724409448
11
1.6628047244094488
21
0.5828615748031496
0
LINE
8
BLACK
6
CONTINUOUS
10
1.6628047244094488
20
0.5828615748031496
11
1.6627327952755906
21
0.5828913779527559
0
LINE
8
BLACK
6
CONTINUOUS
10
1.6627327952755906
20
0.5828913779527559
11
1.6626518110236219
21
0.5829578346456693
0
LINE
8
BLACK
6
CONTINUOUS
10
1.6626518110236219
20
0.5829578346456693
11
1.6625628740157481
21
0.5830138188976378
0
LINE
8
BLACK
6
CONTINUOUS
10
1.6625628740157481
20
0.5830138188976378
11
1.6625116535433071
21
0.583072874015748
0
LINE
8
BLACK
6
CONTINUOUS
10
1.6625116535433071
20
0.583072874015748
11
1.6622853149606298
21
0.5832586220472441
0
LINE
8
BLACK
6
CONTINUOUS
10
1.6622853149606298
20
0.5832586220472441
11
1.6604105511811023
21
0.5851334251968504
0
LINE
8
BLACK
6
CONTINUOUS
10
1.6604105511811023
20
0.5851334251968504
11
1.6600433464566928
21
0.5855808661417322
0
LINE
8
BLACK
6
CONTINUOUS
10
1.6600433464566928
20
0.5855808661417322
11
1.6596024803149605
21
0.5866452755905511
0
LINE
8
BLACK
6
CONTINUOUS
10
1.6596024803149605
20
0.5866452755905511
11
1.6596024803149605
21
0.5877973622047244
0
LINE
8
BLACK
6
CONTINUOUS
10
1.6596024803149605
20
0.5877973622047244
11
1.6600433858267716
21
0.5888617716535433
0
LINE
8
BLACK
6
CONTINUOUS
10
1.6600433858267716
20
0.5888617716535433
11
1.6608580708661418
21
0.5896764566929134
0
LINE
8
BLACK
6
CONTINUOUS
10
1.6608580708661418
20
0.5896764566929134
11
1.6619224803149606
21
0.5901173228346457
0
LINE
8
BLACK
6
CONTINUOUS
10
1.6619224803149606
20
0.5901173228346457
11
1.6630745669291338
21
0.5901173228346457
0
LINE
8
BLACK
6
CONTINUOUS
10
1.6630745669291338
20
0.5901173228346457
11
1.6641389763779528
21
0.5896764173228346
0
LINE
8
BLACK
6
CONTINUOUS
10
1.6641389763779528
20
0.5896764173228346
11
1.6645864566929134
21
0.5893091732283464
0
LINE
8
BLACK
6
CONTINUOUS
10
1.6645864566929134
20
0.5893091732283464
11
1.6661223622047243
21
0.5877732283464567
0
LINE
8
BLACK
6
CONTINUOUS
10
1.6661223622047243
20
0.5877732283464567
11
1.668819842519685
21
0.5864244881889764
0
LINE
8
BLACK
6
CONTINUOUS
10
1.668819842519685
20
0.5864244881889764
11
1.6767995669291338
21
0.5864244881889764
0
LINE
8
BLACK
6
CONTINUOUS
10
1.6767995669291338
20
0.5864244881889764
11
1.6794970078740157
21
0.5877732283464567
0
LINE
8
BLACK
6
CONTINUOUS
10
1.6794970078740157
20
0.5877732283464567
11
1.6806941338582677
21
0.5889703937007874
0
LINE
8
BLACK
6
CONTINUOUS
10
1.6806941338582677
20
0.5889703937007874
11
1.6820429133858268
21
0.5916678740157481
0
LINE
8
BLACK
6
CONTINUOUS
10
1.6820429133858268
20
0.5916678740157481
11
1.6820429133858268
21
0.5996475984251969
0
LINE
8
BLACK
6
CONTINUOUS
10
1.6820429133858268
20
0.5996475984251969
11
1.6806941732283465
21
0.6023450787401574
0
LINE
8
BLACK
6
CONTINUOUS
10
1.6806941732283465
20
0.6023450787401574
11
1.6794970472440944
21
0.6035422047244094
0
LINE
8
BLACK
6
CONTINUOUS
10
1.6794970472440944
20
0.6035422047244094
11
1.6767995669291338
21
0.6048909448818898
0
LINE
8
BLACK
6
CONTINUOUS
10
1.6767995669291338
20
0.6048909448818898
11
1.668819842519685
21
0.6048909448818898
0
LINE
8
BLACK
6
CONTINUOUS
10
1.668819842519685
20
0.6048909448818898
11
1.6661223622047243
21
0.6035422047244094
0
LINE
8
BLACK
6
CONTINUOUS
10
1.6661223622047243
20
0.6035422047244094
11
1.6645864173228346
21
0.6020062598425197
0
LINE
8
BLACK
6
CONTINUOUS
10
1.6645864173228346
20
0.6020062598425197
11
1.6641389763779528
21
0.6016390551181102
0
LINE
8
BLACK
6
CONTINUOUS
10
1.6641389763779528
20
0.6016390551181102
11
1.6640016141732283
21
0.6015821653543307
0
LINE
8
BLACK
6
CONTINUOUS
10
1.6640016141732283
20
0.6015821653543307
11
1.6638865354330707
21
0.6014879921259842
0
LINE
8
BLACK
6
CONTINUOUS
10
1.6638865354330707
20
0.6014879921259842
11
1.6634731496062991
21
0.6013633070866141
0
LINE
8
BLACK
6
CONTINUOUS
10
1.6634731496062991
20
0.6013633070866141
11
1.663074527559055
21
0.6011981496062992
0
LINE
8
BLACK
6
CONTINUOUS
10
1.663074527559055
20
0.6011981496062992
11
1.6629259055118111
21
0.6011981496062992
0
LINE
8
BLACK
6
CONTINUOUS
10
1.6629259055118111
20
0.6011981496062992
11
1.6627835433070866
21
0.6011551968503936
0
LINE
8
BLACK
6
CONTINUOUS
10
1.6627835433070866
20
0.6011551968503936
11
1.6623540157480314
21
0.6011981496062992
0
LINE
8
BLACK
6
CONTINUOUS
10
1.6623540157480314
20
0.6011981496062992
11
1.6619224803149606
21
0.6011981496062992
0
LINE
8
BLACK
6
CONTINUOUS
10
1.6619224803149606
20
0.6011981496062992
11
1.6617851181102361
21
0.6012550787401575
0
LINE
8
BLACK
6
CONTINUOUS
10
1.6617851181102361
20
0.6012550787401575
11
1.661637125984252
21
0.6012698425196851
0
LINE
8
BLACK
6
CONTINUOUS
10
1.661637125984252
20
0.6012698425196851
11
1.6612567322834646
21
0.6014738976377952
0
LINE
8
BLACK
6
CONTINUOUS
10
1.6612567322834646
20
0.6014738976377952
11
1.660858031496063
21
0.6016390551181102
0
LINE
8
BLACK
6
CONTINUOUS
10
1.660858031496063
20
0.6016390551181102
11
1.6607528346456693
21
0.6017442519685039
0
LINE
8
BLACK
6
CONTINUOUS
10
1.6607528346456693
20
0.6017442519685039
11
1.6606218897637794
21
0.6018144881889763
0
LINE
8
BLACK
6
CONTINUOUS
10
1.6606218897637794
20
0.6018144881889763
11
1.6603486220472441
21
0.6021484645669292
0
LINE
8
BLACK
6
CONTINUOUS
10
1.6603486220472441
20
0.6021484645669292
11
1.6600433858267716
21
0.6024537007874016
0
LINE
8
BLACK
6
CONTINUOUS
10
1.6600433858267716
20
0.6024537007874016
11
1.6599864566929134
21
0.6025910629921259
0
LINE
8
BLACK
6
CONTINUOUS
10
1.6599864566929134
20
0.6025910629921259
11
1.6598923228346456
21
0.6027061417322834
0
LINE
8
BLACK
6
CONTINUOUS
10
1.6598923228346456
20
0.6027061417322834
11
1.6597675984251967
21
0.6031195275590551
0
LINE
8
BLACK
6
CONTINUOUS
10
1.6597675984251967
20
0.6031195275590551
11
1.6596024803149605
21
0.6035181496062992
0
LINE
8
BLACK
6
CONTINUOUS
10
1.6596024803149605
20
0.6035181496062992
11
1.6596024803149605
21
0.6036668110236221
0
LINE
8
BLACK
6
CONTINUOUS
10
1.6596024803149605
20
0.6036668110236221
11
1.6595595275590551
21
0.6038091338582677
0
LINE
8
BLACK
6
CONTINUOUS
10
1.6595595275590551
20
0.6038091338582677
11
1.6595603937007875
21
0.6043879921259843
0
LINE
8
BLACK
6
CONTINUOUS
10
1.6595603937007875
20
0.6043879921259843
11
1.661435157480315
21
0.6231356299212598
0
LINE
8
BLACK
6
CONTINUOUS
10
1.661435157480315
20
0.6231356299212598
11
1.661477244094488
21
0.6233455905511811
0
LINE
8
BLACK
6
CONTINUOUS
10
1.661477244094488
20
0.6233455905511811
11
1.661477244094488
21
0.623417874015748
0
LINE
8
BLACK
6
CONTINUOUS
10
1.661477244094488
20
0.623417874015748
11
1.6615053149606298
21
0.6234857086614173
0
LINE
8
BLACK
6
CONTINUOUS
10
1.6615053149606298
20
0.6234857086614173
11
1.661548937007874
21
0.6237031889763779
0
LINE
8
BLACK
6
CONTINUOUS
10
1.661548937007874
20
0.6237031889763779
11
1.6617529527559054
21
0.6240835039370078
0
LINE
8
BLACK
6
CONTINUOUS
10
1.6617529527559054
20
0.6240835039370078
11
1.6619181496062991
21
0.6244822834645669
0
LINE
8
BLACK
6
CONTINUOUS
10
1.6619181496062991
20
0.6244822834645669
11
1.6620233070866142
21
0.6245874803149606
0
LINE
8
BLACK
6
CONTINUOUS
10
1.6620233070866142
20
0.6245874803149606
11
1.6620935826771652
21
0.6247184251968504
0
LINE
8
BLACK
6
CONTINUOUS
10
1.6620935826771652
20
0.6247184251968504
11
1.6624275196850393
21
0.6249916929133859
0
LINE
8
BLACK
6
CONTINUOUS
10
1.6624275196850393
20
0.6249916929133859
11
1.6627327952755906
21
0.6252969291338583
0
LINE
8
BLACK
6
CONTINUOUS
10
1.6627327952755906
20
0.6252969291338583
11
1.6628701181102361
21
0.6253538582677165
0
LINE
8
BLACK
6
CONTINUOUS
10
1.6628701181102361
20
0.6253538582677165
11
1.6629852362204725
21
0.6254479921259842
0
LINE
8
BLACK
6
CONTINUOUS
10
1.6629852362204725
20
0.6254479921259842
11
1.6633985039370078
21
0.625572716535433
0
LINE
8
BLACK
6
CONTINUOUS
10
1.6633985039370078
20
0.625572716535433
11
1.6637972047244094
21
0.6257378346456692
0
LINE
8
BLACK
6
CONTINUOUS
10
1.6637972047244094
20
0.6257378346456692
11
1.6640178740157481
21
0.6257596062992126
0
LINE
8
BLACK
6
CONTINUOUS
10
1.6640178740157481
20
0.6257596062992126
11
1.6640882283464566
21
0.6257807874015748
0
LINE
8
BLACK
6
CONTINUOUS
10
1.6640882283464566
20
0.6257807874015748
11
1.6641601968503936
21
0.6257736220472441
0
LINE
8
BLACK
6
CONTINUOUS
10
1.6641601968503936
20
0.6257736220472441
11
1.6643732677165355
21
0.6257945669291338
0
LINE
8
BLACK
6
CONTINUOUS
10
1.6643732677165355
20
0.6257945669291338
11
1.683120905511811
21
0.6257945669291338
0
LINE
8
BLACK
6
CONTINUOUS
10
1.683120905511811
20
0.6257945669291338
11
1.6836969685039369
21
0.6257378346456692
0
LINE
8
BLACK
6
CONTINUOUS
10
1.3072131889763778
20
0.5899748031496063
11
1.3079335039370079
21
0.5896764566929134
0
LINE
8
BLACK
6
CONTINUOUS
10
1.3079335039370079
20
0.5896764566929134
11
1.3079335433070867
21
0.5896764173228346
0
LINE
8
BLACK
6
CONTINUOUS
10
1.3079335433070867
20
0.5896764173228346
11
1.3083810236220472
21
0.5893091732283464
0
LINE
8
BLACK
6
CONTINUOUS
10
1.3083810236220472
20
0.5893091732283464
11
1.310255748031496
21
0.5874344094488189
0
LINE
8
BLACK
6
CONTINUOUS
10
1.310255748031496
20
0.5874344094488189
11
1.3106229921259842
21
0.5869869291338583
0
LINE
8
BLACK
6
CONTINUOUS
10
1.3106229921259842
20
0.5869869291338583
11
1.3109951181102362
21
0.5860885039370078
0
LINE
8
BLACK
6
CONTINUOUS
10
1.3109951181102362
20
0.5860885039370078
11
1.3110638582677165
21
0.5859225196850394
0
LINE
8
BLACK
6
CONTINUOUS
10
1.3110638582677165
20
0.5859225196850394
11
1.3110638582677165
21
0.5847704330708662
0
LINE
8
BLACK
6
CONTINUOUS
10
1.3110638582677165
20
0.5847704330708662
11
1.3106229527559055
21
0.5837060236220473
0
LINE
8
BLACK
6
CONTINUOUS
10
1.3106229527559055
20
0.5837060236220473
11
1.310255748031496
21
0.5832585826771653
0
LINE
8
BLACK
6
CONTINUOUS
10
1.310255748031496
20
0.5832585826771653
11
1.3083809842519685
21
0.5813838188976378
0
LINE
8
BLACK
6
CONTINUOUS
10
1.3083809842519685
20
0.5813838188976378
11
1.3079335433070867
21
0.5810166141732284
0
LINE
8
BLACK
6
CONTINUOUS
10
1.3079335433070867
20
0.5810166141732284
11
1.3068691338582676
21
0.5805757086614173
0
LINE
8
BLACK
6
CONTINUOUS
10
1.3068691338582676
20
0.5805757086614173
11
1.3068690944881889
21
0.5805757086614173
0
LINE
8
BLACK
6
CONTINUOUS
10
1.3068690944881889
20
0.5805757086614173
11
1.3057170472440944
21
0.5805757086614173
0
LINE
8
BLACK
6
CONTINUOUS
10
1.3057170472440944
20
0.5805757086614173
11
1.3057170078740157
21
0.5805757086614173
0
LINE
8
BLACK
6
CONTINUOUS
10
1.3057170078740157
20
0.5805757086614173
11
1.3046525984251969
21
0.5810166141732284
0
LINE
8
BLACK
6
CONTINUOUS
10
1.3046525984251969
20
0.5810166141732284
11
1.3042051574803148
21
0.5813838188976378
0
LINE
8
BLACK
6
CONTINUOUS
10
1.3042051574803148
20
0.5813838188976378
11
1.3023303937007873
21
0.5832585826771653
0
LINE
8
BLACK
6
CONTINUOUS
10
1.3023303937007873
20
0.5832585826771653
11
1.3019631889763779
21
0.5837060236220473
0
LINE
8
BLACK
6
CONTINUOUS
10
1.3019631889763779
20
0.5837060236220473
11
1.3017205905511811
21
0.5842917322834645
0
LINE
8
BLACK
6
CONTINUOUS
10
1.3017205905511811
20
0.5842917322834645
11
1.301522283464567
21
0.5847704330708662
0
LINE
8
BLACK
6
CONTINUOUS
10
1.301522283464567
20
0.5847704330708662
11
1.301522283464567
21
0.5859225196850394
0
LINE
8
BLACK
6
CONTINUOUS
10
1.301522283464567
20
0.5859225196850394
11
1.3019631496062991
21
0.5869869291338583
0
LINE
8
BLACK
6
CONTINUOUS
10
1.3019631496062991
20
0.5869869291338583
11
1.3023303543307085
21
0.5874343700787401
0
LINE
8
BLACK
6
CONTINUOUS
10
1.3023303543307085
20
0.5874343700787401
11
1.3042051181102361
21
0.5893091732283464
0
LINE
8
BLACK
6
CONTINUOUS
10
1.3042051181102361
20
0.5893091732283464
11
1.3046525984251969
21
0.5896764173228346
0
LINE
8
BLACK
6
CONTINUOUS
10
1.3046525984251969
20
0.5896764173228346
11
1.3046526377952756
21
0.5896764566929134
0
LINE
8
BLACK
6
CONTINUOUS
10
1.3046526377952756
20
0.5896764566929134
11
1.3053729527559055
21
0.5899748031496063
0
LINE
8
BLACK
6
CONTINUOUS
10
1.3053729527559055
20
0.5899748031496063
11
1.3057170078740157
21
0.5901173228346457
0
LINE
8
BLACK
6
CONTINUOUS
10
1.3057170078740157
20
0.5901173228346457
11
1.3068690944881889
21
0.5901173228346457
0
LINE
8
BLACK
6
CONTINUOUS
10
1.3068690944881889
20
0.5901173228346457
11
1.3068691338582676
21
0.5901173228346457
0
LINE
8
BLACK
6
CONTINUOUS
10
1.3068691338582676
20
0.5901173228346457
11
1.3072131889763778
21
0.5899748031496063
0
LINE
8
BLACK
6
CONTINUOUS
10
1.439167125984252
20
0.6121735826771654
11
1.4399817716535432
21
0.611358937007874
0
LINE
8
BLACK
6
CONTINUOUS
10
1.4399817716535432
20
0.611358937007874
11
1.4404226771653543
21
0.6102945275590551
0
LINE
8
BLACK
6
CONTINUOUS
10
1.4404226771653543
20
0.6102945275590551
11
1.4404794094488189
21
0.6097184645669291
0
LINE
8
BLACK
6
CONTINUOUS
10
1.4404794094488189
20
0.6097184645669291
11
1.4404794094488189
21
0.5834717322834646
0
LINE
8
BLACK
6
CONTINUOUS
10
1.4404794094488189
20
0.5834717322834646
11
1.4404226771653543
21
0.5828956692913385
0
LINE
8
BLACK
6
CONTINUOUS
10
1.4404226771653543
20
0.5828956692913385
11
1.4399817716535432
21
0.5818312598425197
0
LINE
8
BLACK
6
CONTINUOUS
10
1.4399817716535432
20
0.5818312598425197
11
1.439167125984252
21
0.5810166141732284
0
LINE
8
BLACK
6
CONTINUOUS
10
1.439167125984252
20
0.5810166141732284
11
1.438102716535433
21
0.5805757086614173
0
LINE
8
BLACK
6
CONTINUOUS
10
1.438102716535433
20
0.5805757086614173
11
1.436950590551181
21
0.5805757086614173
0
LINE
8
BLACK
6
CONTINUOUS
10
1.436950590551181
20
0.5805757086614173
11
1.4358861811023622
21
0.5810166141732284
0
LINE
8
BLACK
6
CONTINUOUS
10
1.4358861811023622
20
0.5810166141732284
11
1.4350715354330708
21
0.5818312598425197
0
LINE
8
BLACK
6
CONTINUOUS
10
1.4350715354330708
20
0.5818312598425197
11
1.4346306299212599
21
0.5828956692913385
0
LINE
8
BLACK
6
CONTINUOUS
10
1.4346306299212599
20
0.5828956692913385
11
1.4345738976377953
21
0.5834717322834646
0
LINE
8
BLACK
6
CONTINUOUS
10
1.4345738976377953
20
0.5834717322834646
11
1.4345738976377953
21
0.6097184645669291
0
LINE
8
BLACK
6
CONTINUOUS
10
1.4345738976377953
20
0.6097184645669291
11
1.4346306299212599
21
0.6102945275590551
0
LINE
8
BLACK
6
CONTINUOUS
10
1.4346306299212599
20
0.6102945275590551
11
1.4350715354330708
21
0.611358937007874
0
LINE
8
BLACK
6
CONTINUOUS
10
1.4350715354330708
20
0.611358937007874
11
1.4358861811023622
21
0.6121735826771654
0
LINE
8
BLACK
6
CONTINUOUS
10
1.4358861811023622
20
0.6121735826771654
11
1.436950590551181
21
0.6126144881889763
0
LINE
8
BLACK
6
CONTINUOUS
10
1.436950590551181
20
0.6126144881889763
11
1.438102716535433
21
0.6126144881889763
0
LINE
8
BLACK
6
CONTINUOUS
10
1.438102716535433
20
0.6126144881889763
11
1.439167125984252
21
0.6121735826771654
0
LINE
8
BLACK
6
CONTINUOUS
10
1.4680989370078741
20
0.6126144881889763
11
1.4681969291338581
21
0.6125738976377952
0
LINE
8
BLACK
6
CONTINUOUS
10
1.4681969291338581
20
0.6125738976377952
11
1.4683027559055117
21
0.6125663779527559
0
LINE
8
BLACK
6
CONTINUOUS
10
1.4683027559055117
20
0.6125663779527559
11
1.4688433858267715
21
0.6123594881889763
0
LINE
8
BLACK
6
CONTINUOUS
10
1.4688433858267715
20
0.6123594881889763
11
1.4725929133858267
21
0.6104847244094488
0
LINE
8
BLACK
6
CONTINUOUS
10
1.4725929133858267
20
0.6104847244094488
11
1.472689251968504
21
0.610424094488189
0
LINE
8
BLACK
6
CONTINUOUS
10
1.472689251968504
20
0.610424094488189
11
1.4727346850393701
21
0.610408937007874
0
LINE
8
BLACK
6
CONTINUOUS
10
1.4727346850393701
20
0.610408937007874
11
1.4727912204724409
21
0.6103599212598425
0
LINE
8
BLACK
6
CONTINUOUS
10
1.4727912204724409
20
0.6103599212598425
11
1.4730827952755905
21
0.6101763779527559
0
LINE
8
BLACK
6
CONTINUOUS
10
1.4730827952755905
20
0.6101763779527559
11
1.4733253543307085
21
0.6098966929133858
0
LINE
8
BLACK
6
CONTINUOUS
10
1.4733253543307085
20
0.6098966929133858
11
1.4736050787401573
21
0.609654094488189
0
LINE
8
BLACK
6
CONTINUOUS
10
1.4736050787401573
20
0.609654094488189
11
1.4737885826771653
21
0.609362559055118
0
LINE
8
BLACK
6
CONTINUOUS
10
1.4737885826771653
20
0.609362559055118
11
1.4738376377952755
21
0.6093059842519685
0
LINE
8
BLACK
6
CONTINUOUS
10
1.4738376377952755
20
0.6093059842519685
11
1.4738527559055117
21
0.6092605905511811
0
LINE
8
BLACK
6
CONTINUOUS
10
1.4738527559055117
20
0.6092605905511811
11
1.4739134251968504
21
0.6091642125984252
0
LINE
8
BLACK
6
CONTINUOUS
10
1.4739134251968504
20
0.6091642125984252
11
1.475788188976378
21
0.60541468503937
0
LINE
8
BLACK
6
CONTINUOUS
10
1.475788188976378
20
0.60541468503937
11
1.4759950787401575
21
0.604874094488189
0
LINE
8
BLACK
6
CONTINUOUS
10
1.4759950787401575
20
0.604874094488189
11
1.4760025984251968
21
0.6047682283464567
0
LINE
8
BLACK
6
CONTINUOUS
10
1.4760025984251968
20
0.6047682283464567
11
1.4760431889763779
21
0.6046702362204724
0
LINE
8
BLACK
6
CONTINUOUS
10
1.4760431889763779
20
0.6046702362204724
11
1.4760999212598425
21
0.6040941732283465
0
LINE
8
BLACK
6
CONTINUOUS
10
1.4760999212598425
20
0.6040941732283465
11
1.4760999212598425
21
0.5834717322834646
0
LINE
8
BLACK
6
CONTINUOUS
10
1.4760999212598425
20
0.5834717322834646
11
1.4760431889763779
21
0.5828956692913385
0
LINE
8
BLACK
6
CONTINUOUS
10
1.4760431889763779
20
0.5828956692913385
11
1.4756022834645668
21
0.5818312598425197
0
LINE
8
BLACK
6
CONTINUOUS
10
1.4756022834645668
20
0.5818312598425197
11
1.4747876377952756
21
0.5810166141732284
0
LINE
8
BLACK
6
CONTINUOUS
10
1.4747876377952756
20
0.5810166141732284
11
1.4737232283464567
21
0.5805757086614173
0
LINE
8
BLACK
6
CONTINUOUS
10
1.4737232283464567
20
0.5805757086614173
11
1.4725711023622048
21
0.5805757086614173
0
LINE
8
BLACK
6
CONTINUOUS
10
1.4725711023622048
20
0.5805757086614173
11
1.4715066929133858
21
0.5810166141732284
0
LINE
8
BLACK
6
CONTINUOUS
10
1.4715066929133858
20
0.5810166141732284
11
1.4706920472440945
21
0.5818312598425197
0
LINE
8
BLACK
6
CONTINUOUS
10
1.4706920472440945
20
0.5818312598425197
11
1.4702511417322834
21
0.5828956692913385
0
LINE
8
BLACK
6
CONTINUOUS
10
1.4702511417322834
20
0.5828956692913385
11
1.4701944094488189
21
0.5834717322834646
0
LINE
8
BLACK
6
CONTINUOUS
10
1.4701944094488189
20
0.5834717322834646
11
1.4701944094488189
21
0.603397125984252
0
LINE
8
BLACK
6
CONTINUOUS
10
1.4701944094488189
20
0.603397125984252
11
1.4690715354330708
21
0.605642874015748
0
LINE
8
BLACK
6
CONTINUOUS
10
1.4690715354330708
20
0.605642874015748
11
1.4668258267716534
21
0.6067657086614173
0
LINE
8
BLACK
6
CONTINUOUS
10
1.4668258267716534
20
0.6067657086614173
11
1.4625956299212599
21
0.6067657086614173
0
LINE
8
BLACK
6
CONTINUOUS
10
1.4625956299212599
20
0.6067657086614173
11
1.4598981496062993
21
0.605416968503937
0
LINE
8
BLACK
6
CONTINUOUS
10
1.4598981496062993
20
0.605416968503937
11
1.4592270472440945
21
0.6047458661417323
0
LINE
8
BLACK
6
CONTINUOUS
10
1.4592270472440945
20
0.6047458661417323
11
1.4592270472440945
21
0.5834717322834646
0
LINE
8
BLACK
6
CONTINUOUS
10
1.4592270472440945
20
0.5834717322834646
11
1.4591703149606299
21
0.5828956692913385
0
LINE
8
BLACK
6
CONTINUOUS
10
1.4591703149606299
20
0.5828956692913385
11
1.4587294094488188
21
0.5818312598425197
0
LINE
8
BLACK
6
CONTINUOUS
10
1.4587294094488188
20
0.5818312598425197
11
1.4579147637795276
21
0.5810166141732284
0
LINE
8
BLACK
6
CONTINUOUS
10
1.4579147637795276
20
0.5810166141732284
11
1.4568503543307085
21
0.5805757086614173
0
LINE
8
BLACK
6
CONTINUOUS
10
1.4568503543307085
20
0.5805757086614173
11
1.4556982283464566
21
0.5805757086614173
0
LINE
8
BLACK
6
CONTINUOUS
10
1.4556982283464566
20
0.5805757086614173
11
1.4546338188976378
21
0.5810166141732284
0
LINE
8
BLACK
6
CONTINUOUS
10
1.4546338188976378
20
0.5810166141732284
11
1.4538191732283465
21
0.5818312598425197
0
LINE
8
BLACK
6
CONTINUOUS
10
1.4538191732283465
20
0.5818312598425197
11
1.4533782677165354
21
0.5828956692913385
0
LINE
8
BLACK
6
CONTINUOUS
10
1.4533782677165354
20
0.5828956692913385
11
1.4533215354330709
21
0.5834717322834646
0
LINE
8
BLACK
6
CONTINUOUS
10
1.4533215354330709
20
0.5834717322834646
11
1.4533215354330709
21
0.6097184645669291
0
LINE
8
BLACK
6
CONTINUOUS
10
1.4533215354330709
20
0.6097184645669291
11
1.4533782677165354
21
0.6102945275590551
0
LINE
8
BLACK
6
CONTINUOUS
10
1.4533782677165354
20
0.6102945275590551
11
1.4538191732283465
21
0.611358937007874
0
LINE
8
BLACK
6
CONTINUOUS
10
1.4538191732283465
20
0.611358937007874
11
1.4546338188976378
21
0.6121735826771654
0
LINE
8
BLACK
6
CONTINUOUS
10
1.4546338188976378
20
0.6121735826771654
11
1.4556982283464566
21
0.6126144881889763
0
LINE
8
BLACK
6
CONTINUOUS
10
1.4556982283464566
20
0.6126144881889763
11
1.4568503543307085
21
0.6126144881889763
0
LINE
8
BLACK
6
CONTINUOUS
10
1.4568503543307085
20
0.6126144881889763
11
1.4579147637795276
21
0.6121735826771654
0
LINE
8
BLACK
6
CONTINUOUS
10
1.4579147637795276
20
0.6121735826771654
11
1.4586785826771653
21
0.6114097637795275
0
LINE
8
BLACK
6
CONTINUOUS
10
1.4586785826771653
20
0.6114097637795275
11
1.4605780708661418
21
0.6123594881889763
0
LINE
8
BLACK
6
CONTINUOUS
10
1.4605780708661418
20
0.6123594881889763
11
1.4611186614173228
21
0.6125663779527559
0
LINE
8
BLACK
6
CONTINUOUS
10
1.4611186614173228
20
0.6125663779527559
11
1.4612245275590552
21
0.612573937007874
0
LINE
8
BLACK
6
CONTINUOUS
10
1.4612245275590552
20
0.612573937007874
11
1.4613225196850392
21
0.6126144881889763
0
LINE
8
BLACK
6
CONTINUOUS
10
1.4613225196850392
20
0.6126144881889763
11
1.4618985826771653
21
0.6126712204724409
0
LINE
8
BLACK
6
CONTINUOUS
10
1.4618985826771653
20
0.6126712204724409
11
1.467522874015748
21
0.6126712204724409
0
LINE
8
BLACK
6
CONTINUOUS
10
1.467522874015748
20
0.6126712204724409
11
1.4680989370078741
21
0.6126144881889763
0
LINE
8
BLACK
6
CONTINUOUS
10
1.5715551181102363
20
0.5899748031496063
11
1.5722754330708661
21
0.5896764566929134
0
LINE
8
BLACK
6
CONTINUOUS
10
1.5722754330708661
20
0.5896764566929134
11
1.5722754724409449
21
0.5896764173228346
0
LINE
8
BLACK
6
CONTINUOUS
10
1.5722754724409449
20
0.5896764173228346
11
1.5727229527559055
21
0.5893091732283464
0
LINE
8
BLACK
6
CONTINUOUS
10
1.5727229527559055
20
0.5893091732283464
11
1.5745976771653543
21
0.5874344094488189
0
LINE
8
BLACK
6
CONTINUOUS
10
1.5745976771653543
20
0.5874344094488189
11
1.5749649212598424
21
0.5869869291338583
0
LINE
8
BLACK
6
CONTINUOUS
10
1.5749649212598424
20
0.5869869291338583
11
1.5753370472440944
21
0.5860885039370078
0
LINE
8
BLACK
6
CONTINUOUS
10
1.5753370472440944
20
0.5860885039370078
11
1.5754057874015748
21
0.5859225196850394
0
LINE
8
BLACK
6
CONTINUOUS
10
1.5754057874015748
20
0.5859225196850394
11
1.5754057874015748
21
0.5847704330708662
0
LINE
8
BLACK
6
CONTINUOUS
10
1.5754057874015748
20
0.5847704330708662
11
1.5749648818897637
21
0.5837060236220473
0
LINE
8
BLACK
6
CONTINUOUS
10
1.5749648818897637
20
0.5837060236220473
11
1.5745976771653543
21
0.5832585826771653
0
LINE
8
BLACK
6
CONTINUOUS
10
1.5745976771653543
20
0.5832585826771653
11
1.5727229133858267
21
0.5813838188976378
0
LINE
8
BLACK
6
CONTINUOUS
10
1.5727229133858267
20
0.5813838188976378
11
1.5722754724409449
21
0.5810166141732284
0
LINE
8
BLACK
6
CONTINUOUS
10
1.5722754724409449
20
0.5810166141732284
11
1.5712110629921259
21
0.5805757086614173
0
LINE
8
BLACK
6
CONTINUOUS
10
1.5712110629921259
20
0.5805757086614173
11
1.5712110236220471
21
0.5805757086614173
0
LINE
8
BLACK
6
CONTINUOUS
10
1.5712110236220471
20
0.5805757086614173
11
1.5700589763779527
21
0.5805757086614173
0
LINE
8
BLACK
6
CONTINUOUS
10
1.5700589763779527
20
0.5805757086614173
11
1.5700589370078739
21
0.5805757086614173
0
LINE
8
BLACK
6
CONTINUOUS
10
1.5700589370078739
20
0.5805757086614173
11
1.5689945275590551
21
0.5810166141732284
0
LINE
8
BLACK
6
CONTINUOUS
10
1.5689945275590551
20
0.5810166141732284
11
1.5685470866141733
21
0.5813838188976378
0
LINE
8
BLACK
6
CONTINUOUS
10
1.5685470866141733
20
0.5813838188976378
11
1.5666723228346455
21
0.5832585826771653
0
LINE
8
BLACK
6
CONTINUOUS
10
1.5666723228346455
20
0.5832585826771653
11
1.5663051181102361
21
0.5837060236220473
0
LINE
8
BLACK
6
CONTINUOUS
10
1.5663051181102361
20
0.5837060236220473
11
1.5660625196850393
21
0.5842917322834645
0
LINE
8
BLACK
6
CONTINUOUS
10
1.5660625196850393
20
0.5842917322834645
11
1.5658642125984252
21
0.5847704330708662
0
LINE
8
BLACK
6
CONTINUOUS
10
1.5658642125984252
20
0.5847704330708662
11
1.5658642125984252
21
0.5859225196850394
0
LINE
8
BLACK
6
CONTINUOUS
10
1.5658642125984252
20
0.5859225196850394
11
1.5663050787401573
21
0.5869869291338583
0
LINE
8
BLACK
6
CONTINUOUS
10
1.5663050787401573
20
0.5869869291338583
11
1.566672283464567
21
0.5874343700787401
0
LINE
8
BLACK
6
CONTINUOUS
10
1.566672283464567
20
0.5874343700787401
11
1.5685470472440945
21
0.5893091732283464
0
LINE
8
BLACK
6
CONTINUOUS
10
1.5685470472440945
20
0.5893091732283464
11
1.5689945275590551
21
0.5896764173228346
0
LINE
8
BLACK
6
CONTINUOUS
10
1.5689945275590551
20
0.5896764173228346
11
1.5689945669291339
21
0.5896764566929134
0
LINE
8
BLACK
6
CONTINUOUS
10
1.5689945669291339
20
0.5896764566929134
11
1.5697148818897637
21
0.5899748031496063
0
LINE
8
BLACK
6
CONTINUOUS
10
1.5697148818897637
20
0.5899748031496063
11
1.5700589370078739
21
0.5901173228346457
0
LINE
8
BLACK
6
CONTINUOUS
10
1.5700589370078739
20
0.5901173228346457
11
1.5712110236220471
21
0.5901173228346457
0
LINE
8
BLACK
6
CONTINUOUS
10
1.5712110236220471
20
0.5901173228346457
11
1.5712110629921259
21
0.5901173228346457
0
LINE
8
BLACK
6
CONTINUOUS
10
1.5712110629921259
20
0.5901173228346457
11
1.5715551181102363
21
0.5899748031496063
0
LINE
8
BLACK
6
CONTINUOUS
10
1.7136932283464565
20
0.6126144881889763
11
1.7137912204724408
21
0.6125738976377952
0
LINE
8
BLACK
6
CONTINUOUS
10
1.7137912204724408
20
0.6125738976377952
11
1.7138970472440944
21
0.6125663779527559
0
LINE
8
BLACK
6
CONTINUOUS
10
1.7138970472440944
20
0.6125663779527559
11
1.7144376771653542
21
0.6123594881889763
0
LINE
8
BLACK
6
CONTINUOUS
10
1.7144376771653542
20
0.6123594881889763
11
1.7181872047244093
21
0.6104847244094488
0
LINE
8
BLACK
6
CONTINUOUS
10
1.7181872047244093
20
0.6104847244094488
11
1.7182835433070867
21
0.610424094488189
0
LINE
8
BLACK
6
CONTINUOUS
10
1.7182835433070867
20
0.610424094488189
11
1.7183289763779528
21
0.610408937007874
0
LINE
8
BLACK
6
CONTINUOUS
10
1.7183289763779528
20
0.610408937007874
11
1.7183855118110236
21
0.6103599212598425
0
LINE
8
BLACK
6
CONTINUOUS
10
1.7183855118110236
20
0.6103599212598425
11
1.7186770866141732
21
0.6101763779527559
0
LINE
8
BLACK
6
CONTINUOUS
10
1.7186770866141732
20
0.6101763779527559
11
1.7187414566929133
21
0.6101021653543307
0
LINE
8
BLACK
6
CONTINUOUS
10
1.7187414566929133
20
0.6101021653543307
11
1.7188058267716535
21
0.6101763779527559
0
LINE
8
BLACK
6
CONTINUOUS
10
1.7188058267716535
20
0.6101763779527559
11
1.7190973622047243
21
0.6103599212598425
0
LINE
8
BLACK
6
CONTINUOUS
10
1.7190973622047243
20
0.6103599212598425
11
1.7191539370078739
21
0.610408937007874
0
LINE
8
BLACK
6
CONTINUOUS
10
1.7191539370078739
20
0.610408937007874
11
1.7191993307086615
21
0.610424094488189
0
LINE
8
BLACK
6
CONTINUOUS
10
1.7191993307086615
20
0.610424094488189
11
1.7192957086614173
21
0.6104847244094488
0
LINE
8
BLACK
6
CONTINUOUS
10
1.7192957086614173
20
0.6104847244094488
11
1.7230452362204725
21
0.6123594881889763
0
LINE
8
BLACK
6
CONTINUOUS
10
1.7230452362204725
20
0.6123594881889763
11
1.7235858267716535
21
0.6125663779527559
0
LINE
8
BLACK
6
CONTINUOUS
10
1.7235858267716535
20
0.6125663779527559
11
1.7236916929133859
21
0.612573937007874
0
LINE
8
BLACK
6
CONTINUOUS
10
1.7236916929133859
20
0.612573937007874
11
1.7237896850393701
21
0.6126144881889763
0
LINE
8
BLACK
6
CONTINUOUS
10
1.7237896850393701
20
0.6126144881889763
11
1.724365748031496
21
0.6126712204724409
0
LINE
8
BLACK
6
CONTINUOUS
10
1.724365748031496
20
0.6126712204724409
11
1.7299900393700787
21
0.6126712204724409
0
LINE
8
BLACK
6
CONTINUOUS
10
1.7299900393700787
20
0.6126712204724409
11
1.7305661023622048
21
0.6126144881889763
0
LINE
8
BLACK
6
CONTINUOUS
10
1.7305661023622048
20
0.6126144881889763
11
1.730664094488189
21
0.6125738976377952
0
LINE
8
BLACK
6
CONTINUOUS
10
1.730664094488189
20
0.6125738976377952
11
1.7307699212598424
21
0.6125663779527559
0
LINE
8
BLACK
6
CONTINUOUS
10
1.7307699212598424
20
0.6125663779527559
11
1.7313105511811022
21
0.6123594881889763
0
LINE
8
BLACK
6
CONTINUOUS
10
1.7313105511811022
20
0.6123594881889763
11
1.7350601181102361
21
0.6104847244094488
0
LINE
8
BLACK
6
CONTINUOUS
10
1.7350601181102361
20
0.6104847244094488
11
1.7351564173228347
21
0.610424094488189
0
LINE
8
BLACK
6
CONTINUOUS
10
1.7351564173228347
20
0.610424094488189
11
1.7352018897637795
21
0.610408937007874
0
LINE
8
BLACK
6
CONTINUOUS
10
1.7352018897637795
20
0.610408937007874
11
1.7352584645669291
21
0.6103598818897638
0
LINE
8
BLACK
6
CONTINUOUS
10
1.7352584645669291
20
0.6103598818897638
11
1.7355499606299212
21
0.6101763779527559
0
LINE
8
BLACK
6
CONTINUOUS
10
1.7355499606299212
20
0.6101763779527559
11
1.7357924409448819
21
0.6098967716535433
0
LINE
8
BLACK
6
CONTINUOUS
10
1.7357924409448819
20
0.6098967716535433
11
1.736072283464567
21
0.609654094488189
0
LINE
8
BLACK
6
CONTINUOUS
10
1.736072283464567
20
0.609654094488189
11
1.7362557874015747
21
0.609362559055118
0
LINE
8
BLACK
6
CONTINUOUS
10
1.7362557874015747
20
0.609362559055118
11
1.736304842519685
21
0.6093059842519685
0
LINE
8
BLACK
6
CONTINUOUS
10
1.736304842519685
20
0.6093059842519685
11
1.7363199606299211
21
0.6092605905511811
0
LINE
8
BLACK
6
CONTINUOUS
10
1.7363199606299211
20
0.6092605905511811
11
1.7363806299212599
21
0.6091642125984252
0
LINE
8
BLACK
6
CONTINUOUS
10
1.7363806299212599
20
0.6091642125984252
11
1.7382553937007874
21
0.60541468503937
0
LINE
8
BLACK
6
CONTINUOUS
10
1.7382553937007874
20
0.60541468503937
11
1.7384622834645669
21
0.604874094488189
0
LINE
8
BLACK
6
CONTINUOUS
10
1.7384622834645669
20
0.604874094488189
11
1.7384698031496062
21
0.6047682283464567
0
LINE
8
BLACK
6
CONTINUOUS
10
1.7384698031496062
20
0.6047682283464567
11
1.7385103937007873
21
0.6046702362204724
0
LINE
8
BLACK
6
CONTINUOUS
10
1.7385103937007873
20
0.6046702362204724
11
1.7385671259842519
21
0.6040941732283465
0
LINE
8
BLACK
6
CONTINUOUS
10
1.7385671259842519
20
0.6040941732283465
11
1.7385671259842519
21
0.5834717322834646
0
LINE
8
BLACK
6
CONTINUOUS
10
1.7385671259842519
20
0.5834717322834646
11
1.7385103937007873
21
0.5828956692913385
0
LINE
8
BLACK
6
CONTINUOUS
10
1.7385103937007873
20
0.5828956692913385
11
1.7380694881889764
21
0.5818312598425197
0
LINE
8
BLACK
6
CONTINUOUS
10
1.7380694881889764
20
0.5818312598425197
11
1.737254842519685
21
0.5810166141732284
0
LINE
8
BLACK
6
CONTINUOUS
10
1.737254842519685
20
0.5810166141732284
11
1.7361904330708662
21
0.5805757086614173
0
LINE
8
BLACK
6
CONTINUOUS
10
1.7361904330708662
20
0.5805757086614173
11
1.7350383070866142
21
0.5805757086614173
0
LINE
8
BLACK
6
CONTINUOUS
10
1.7350383070866142
20
0.5805757086614173
11
1.7339738976377952
21
0.5810166141732284
0
LINE
8
BLACK
6
CONTINUOUS
10
1.7339738976377952
20
0.5810166141732284
11
1.733159251968504
21
0.5818312598425197
0
LINE
8
BLACK
6
CONTINUOUS
10
1.733159251968504
20
0.5818312598425197
11
1.7327183464566929
21
0.5828956692913385
0
LINE
8
BLACK
6
CONTINUOUS
10
1.7327183464566929
20
0.5828956692913385
11
1.7326616141732283
21
0.5834717322834646
0
LINE
8
BLACK
6
CONTINUOUS
10
1.7326616141732283
20
0.5834717322834646
11
1.7326616141732283
21
0.603397125984252
0
LINE
8
BLACK
6
CONTINUOUS
10
1.7326616141732283
20
0.603397125984252
11
1.7315387401574802
21
0.605642874015748
0
LINE
8
BLACK
6
CONTINUOUS
10
1.7315387401574802
20
0.605642874015748
11
1.7292929921259843
21
0.6067657086614173
0
LINE
8
BLACK
6
CONTINUOUS
10
1.7292929921259843
20
0.6067657086614173
11
1.7250627952755906
21
0.6067657086614173
0
LINE
8
BLACK
6
CONTINUOUS
10
1.7250627952755906
20
0.6067657086614173
11
1.7228170472440945
21
0.605642874015748
0
LINE
8
BLACK
6
CONTINUOUS
10
1.7228170472440945
20
0.605642874015748
11
1.7216942125984251
21
0.603397125984252
0
LINE
8
BLACK
6
CONTINUOUS
10
1.7216942125984251
20
0.603397125984252
11
1.7216942125984251
21
0.5834717322834646
0
LINE
8
BLACK
6
CONTINUOUS
10
1.7216942125984251
20
0.5834717322834646
11
1.7216374803149606
21
0.5828956692913385
0
LINE
8
BLACK
6
CONTINUOUS
10
1.7216374803149606
20
0.5828956692913385
11
1.7211965748031495
21
0.5818312598425197
0
LINE
8
BLACK
6
CONTINUOUS
10
1.7211965748031495
20
0.5818312598425197
11
1.7203819291338582
21
0.5810166141732284
0
LINE
8
BLACK
6
CONTINUOUS
10
1.7203819291338582
20
0.5810166141732284
11
1.7193175196850394
21
0.5805757086614173
0
LINE
8
BLACK
6
CONTINUOUS
10
1.7193175196850394
20
0.5805757086614173
11
1.7181653937007875
21
0.5805757086614173
0
LINE
8
BLACK
6
CONTINUOUS
10
1.7181653937007875
20
0.5805757086614173
11
1.7171009842519684
21
0.5810166141732284
0
LINE
8
BLACK
6
CONTINUOUS
10
1.7171009842519684
20
0.5810166141732284
11
1.7162863385826772
21
0.5818312598425197
0
LINE
8
BLACK
6
CONTINUOUS
10
1.7162863385826772
20
0.5818312598425197
11
1.7158454330708661
21
0.5828956692913385
0
LINE
8
BLACK
6
CONTINUOUS
10
1.7158454330708661
20
0.5828956692913385
11
1.7157887007874015
21
0.5834717322834646
0
LINE
8
BLACK
6
CONTINUOUS
10
1.7157887007874015
20
0.5834717322834646
11
1.7157887007874015
21
0.603397125984252
0
LINE
8
BLACK
6
CONTINUOUS
10
1.7157887007874015
20
0.603397125984252
11
1.7146658267716535
21
0.605642874015748
0
LINE
8
BLACK
6
CONTINUOUS
10
1.7146658267716535
20
0.605642874015748
11
1.7124201181102361
21
0.6067657086614173
0
LINE
8
BLACK
6
CONTINUOUS
10
1.7124201181102361
20
0.6067657086614173
11
1.7081899212598424
21
0.6067657086614173
0
LINE
8
BLACK
6
CONTINUOUS
10
1.7081899212598424
20
0.6067657086614173
11
1.7054924409448819
21
0.605416968503937
0
LINE
8
BLACK
6
CONTINUOUS
10
1.7054924409448819
20
0.605416968503937
11
1.7048213385826771
21
0.6047458661417323
0
LINE
8
BLACK
6
CONTINUOUS
10
1.7048213385826771
20
0.6047458661417323
11
1.7048213385826771
21
0.5834717322834646
0
LINE
8
BLACK
6
CONTINUOUS
10
1.7048213385826771
20
0.5834717322834646
11
1.7047646062992126
21
0.5828956692913385
0
LINE
8
BLACK
6
CONTINUOUS
10
1.7047646062992126
20
0.5828956692913385
11
1.7043237007874015
21
0.5818312598425197
0
LINE
8
BLACK
6
CONTINUOUS
10
1.7043237007874015
20
0.5818312598425197
11
1.7035090551181102
21
0.5810166141732284
0
LINE
8
BLACK
6
CONTINUOUS
10
1.7035090551181102
20
0.5810166141732284
11
1.7024446456692912
21
0.5805757086614173
0
LINE
8
BLACK
6
CONTINUOUS
10
1.7024446456692912
20
0.5805757086614173
11
1.7012925196850393
21
0.5805757086614173
0
LINE
8
BLACK
6
CONTINUOUS
10
1.7012925196850393
20
0.5805757086614173
11
1.7002281102362204
21
0.5810166141732284
0
LINE
8
BLACK
6
CONTINUOUS
10
1.7002281102362204
20
0.5810166141732284
11
1.699413464566929
21
0.5818312598425197
0
LINE
8
BLACK
6
CONTINUOUS
10
1.699413464566929
20
0.5818312598425197
11
1.6989725590551181
21
0.5828956692913385
0
LINE
8
BLACK
6
CONTINUOUS
10
1.6989725590551181
20
0.5828956692913385
11
1.6989158267716535
21
0.5834717322834646
0
LINE
8
BLACK
6
CONTINUOUS
10
1.6989158267716535
20
0.5834717322834646
11
1.6989158267716535
21
0.6097184645669291
0
LINE
8
BLACK
6
CONTINUOUS
10
1.6989158267716535
20
0.6097184645669291
11
1.6989725590551181
21
0.6102945275590551
0
LINE
8
BLACK
6
CONTINUOUS
10
1.6989725590551181
20
0.6102945275590551
11
1.699413464566929
21
0.611358937007874
0
LINE
8
BLACK
6
CONTINUOUS
10
1.699413464566929
20
0.611358937007874
11
1.7002281102362204
21
0.6121735826771654
0
LINE
8
BLACK
6
CONTINUOUS
10
1.7002281102362204
20
0.6121735826771654
11
1.7012925196850393
21
0.6126144881889763
0
LINE
8
BLACK
6
CONTINUOUS
10
1.7012925196850393
20
0.6126144881889763
11
1.7024446456692912
21
0.6126144881889763
0
LINE
8
BLACK
6
CONTINUOUS
10
1.7024446456692912
20
0.6126144881889763
11
1.7035090551181102
21
0.6121735826771654
0
LINE
8
BLACK
6
CONTINUOUS
10
1.7035090551181102
20
0.6121735826771654
11
1.704272874015748
21
0.6114097637795275
0
LINE
8
BLACK
6
CONTINUOUS
10
1.704272874015748
20
0.6114097637795275
11
1.7061723622047245
21
0.6123594881889763
0
LINE
8
BLACK
6
CONTINUOUS
10
1.7061723622047245
20
0.6123594881889763
11
1.7067129527559055
21
0.6125663779527559
0
LINE
8
BLACK
6
CONTINUOUS
10
1.7067129527559055
20
0.6125663779527559
11
1.7068188188976376
21
0.612573937007874
0
LINE
8
BLACK
6
CONTINUOUS
10
1.7068188188976376
20
0.612573937007874
11
1.7069168110236219
21
0.6126144881889763
0
LINE
8
BLACK
6
CONTINUOUS
10
1.7069168110236219
20
0.6126144881889763
11
1.707492874015748
21
0.6126712204724409
0
LINE
8
BLACK
6
CONTINUOUS
10
1.707492874015748
20
0.6126712204724409
11
1.7131171653543307
21
0.6126712204724409
0
LINE
8
BLACK
6
CONTINUOUS
10
1.7131171653543307
20
0.6126712204724409
11
1.7136932283464565
21
0.6126144881889763
0
LINE
8
BLACK
6
CONTINUOUS
10
1.7661866535433071
20
0.6126144881889763
11
1.7662846456692913
21
0.6125738976377952
0
LINE
8
BLACK
6
CONTINUOUS
10
1.7662846456692913
20
0.6125738976377952
11
1.7663904724409449
21
0.6125663779527559
0
LINE
8
BLACK
6
CONTINUOUS
10
1.7663904724409449
20
0.6125663779527559
11
1.7669311023622047
21
0.6123594881889763
0
LINE
8
BLACK
6
CONTINUOUS
10
1.7669311023622047
20
0.6123594881889763
11
1.7706806299212599
21
0.6104847244094488
0
LINE
8
BLACK
6
CONTINUOUS
10
1.7706806299212599
20
0.6104847244094488
11
1.770776968503937
21
0.610424094488189
0
LINE
8
BLACK
6
CONTINUOUS
10
1.770776968503937
20
0.610424094488189
11
1.7708224015748031
21
0.610408937007874
0
LINE
8
BLACK
6
CONTINUOUS
10
1.7708224015748031
20
0.610408937007874
11
1.7708789370078739
21
0.6103599212598425
0
LINE
8
BLACK
6
CONTINUOUS
10
1.7708789370078739
20
0.6103599212598425
11
1.7711705118110235
21
0.6101763779527559
0
LINE
8
BLACK
6
CONTINUOUS
10
1.7711705118110235
20
0.6101763779527559
11
1.7712348818897636
21
0.6101021653543307
0
LINE
8
BLACK
6
CONTINUOUS
10
1.7712348818897636
20
0.6101021653543307
11
1.7712992519685038
21
0.6101763779527559
0
LINE
8
BLACK
6
CONTINUOUS
10
1.7712992519685038
20
0.6101763779527559
11
1.7715907874015748
21
0.6103599212598425
0
LINE
8
BLACK
6
CONTINUOUS
10
1.7715907874015748
20
0.6103599212598425
11
1.7716473622047244
21
0.610408937007874
0
LINE
8
BLACK
6
CONTINUOUS
10
1.7716473622047244
20
0.610408937007874
11
1.7716927559055118
21
0.610424094488189
0
LINE
8
BLACK
6
CONTINUOUS
10
1.7716927559055118
20
0.610424094488189
11
1.7717891338582676
21
0.6104847244094488
0
LINE
8
BLACK
6
CONTINUOUS
10
1.7717891338582676
20
0.6104847244094488
11
1.7755386614173227
21
0.6123594881889763
0
LINE
8
BLACK
6
CONTINUOUS
10
1.7755386614173227
20
0.6123594881889763
11
1.7760792519685038
21
0.6125663779527559
0
LINE
8
BLACK
6
CONTINUOUS
10
1.7760792519685038
20
0.6125663779527559
11
1.7761851181102362
21
0.612573937007874
0
LINE
8
BLACK
6
CONTINUOUS
10
1.7761851181102362
20
0.612573937007874
11
1.7762831102362204
21
0.6126144881889763
0
LINE
8
BLACK
6
CONTINUOUS
10
1.7762831102362204
20
0.6126144881889763
11
1.7768591732283465
21
0.6126712204724409
0
LINE
8
BLACK
6
CONTINUOUS
10
1.7768591732283465
20
0.6126712204724409
11
1.7824834645669292
21
0.6126712204724409
0
LINE
8
BLACK
6
CONTINUOUS
10
1.7824834645669292
20
0.6126712204724409
11
1.7830595275590551
21
0.6126144881889763
0
LINE
8
BLACK
6
CONTINUOUS
10
1.7830595275590551
20
0.6126144881889763
11
1.7831575196850393
21
0.6125738976377952
0
LINE
8
BLACK
6
CONTINUOUS
10
1.7831575196850393
20
0.6125738976377952
11
1.7832633464566929
21
0.6125663779527559
0
LINE
8
BLACK
6
CONTINUOUS
10
1.7832633464566929
20
0.6125663779527559
11
1.7838039763779527
21
0.6123594881889763
0
LINE
8
BLACK
6
CONTINUOUS
10
1.7838039763779527
20
0.6123594881889763
11
1.7875535433070866
21
0.6104847244094488
0
LINE
8
BLACK
6
CONTINUOUS
10
1.7875535433070866
20
0.6104847244094488
11
1.787649842519685
21
0.610424094488189
0
LINE
8
BLACK
6
CONTINUOUS
10
1.787649842519685
20
0.610424094488189
11
1.7876953149606298
21
0.610408937007874
0
LINE
8
BLACK
6
CONTINUOUS
10
1.7876953149606298
20
0.610408937007874
11
1.7877518897637794
21
0.6103598818897638
0
LINE
8
BLACK
6
CONTINUOUS
10
1.7877518897637794
20
0.6103598818897638
11
1.7880433858267717
21
0.6101763779527559
0
LINE
8
BLACK
6
CONTINUOUS
10
1.7880433858267717
20
0.6101763779527559
11
1.7882858661417322
21
0.6098967716535433
0
LINE
8
BLACK
6
CONTINUOUS
10
1.7882858661417322
20
0.6098967716535433
11
1.7885657086614173
21
0.609654094488189
0
LINE
8
BLACK
6
CONTINUOUS
10
1.7885657086614173
20
0.609654094488189
11
1.7887492125984252
21
0.609362559055118
0
LINE
8
BLACK
6
CONTINUOUS
10
1.7887492125984252
20
0.609362559055118
11
1.7887982677165355
21
0.6093059842519685
0
LINE
8
BLACK
6
CONTINUOUS
10
1.7887982677165355
20
0.6093059842519685
11
1.7888133858267716
21
0.6092605905511811
0
LINE
8
BLACK
6
CONTINUOUS
10
1.7888133858267716
20
0.6092605905511811
11
1.7888740551181102
21
0.6091642125984252
0
LINE
8
BLACK
6
CONTINUOUS
10
1.7888740551181102
20
0.6091642125984252
11
1.7907488188976377
21
0.60541468503937
0
LINE
8
BLACK
6
CONTINUOUS
10
1.7907488188976377
20
0.60541468503937
11
1.7909557086614172
21
0.604874094488189
0
LINE
8
BLACK
6
CONTINUOUS
10
1.7909557086614172
20
0.604874094488189
11
1.7909632283464567
21
0.6047682283464567
0
LINE
8
BLACK
6
CONTINUOUS
10
1.7909632283464567
20
0.6047682283464567
11
1.7910038188976378
21
0.6046702362204724
0
LINE
8
BLACK
6
CONTINUOUS
10
1.7910038188976378
20
0.6046702362204724
11
1.7910605511811024
21
0.6040941732283465
0
LINE
8
BLACK
6
CONTINUOUS
10
1.7910605511811024
20
0.6040941732283465
11
1.7910605511811024
21
0.5834717322834646
0
LINE
8
BLACK
6
CONTINUOUS
10
1.7910605511811024
20
0.5834717322834646
11
1.7910038188976378
21
0.5828956692913385
0
LINE
8
BLACK
6
CONTINUOUS
10
1.7910038188976378
20
0.5828956692913385
11
1.7905629133858267
21
0.5818312598425197
0
LINE
8
BLACK
6
CONTINUOUS
10
1.7905629133858267
20
0.5818312598425197
11
1.7897482677165355
21
0.5810166141732284
0
LINE
8
BLACK
6
CONTINUOUS
10
1.7897482677165355
20
0.5810166141732284
11
1.7886838582677165
21
0.5805757086614173
0
LINE
8
BLACK
6
CONTINUOUS
10
1.7886838582677165
20
0.5805757086614173
11
1.7875317322834645
21
0.5805757086614173
0
LINE
8
BLACK
6
CONTINUOUS
10
1.7875317322834645
20
0.5805757086614173
11
1.7864673228346457
21
0.5810166141732284
0
LINE
8
BLACK
6
CONTINUOUS
10
1.7864673228346457
20
0.5810166141732284
11
1.7856526771653543
21
0.5818312598425197
0
LINE
8
BLACK
6
CONTINUOUS
10
1.7856526771653543
20
0.5818312598425197
11
1.7852117716535432
21
0.5828956692913385
0
LINE
8
BLACK
6
CONTINUOUS
10
1.7852117716535432
20
0.5828956692913385
11
1.7851550393700788
21
0.5834717322834646
0
LINE
8
BLACK
6
CONTINUOUS
10
1.7851550393700788
20
0.5834717322834646
11
1.7851550393700788
21
0.603397125984252
0
LINE
8
BLACK
6
CONTINUOUS
10
1.7851550393700788
20
0.603397125984252
11
1.7840321653543307
21
0.605642874015748
0
LINE
8
BLACK
6
CONTINUOUS
10
1.7840321653543307
20
0.605642874015748
11
1.7817864173228346
21
0.6067657086614173
0
LINE
8
BLACK
6
CONTINUOUS
10
1.7817864173228346
20
0.6067657086614173
11
1.7775562204724409
21
0.6067657086614173
0
LINE
8
BLACK
6
CONTINUOUS
10
1.7775562204724409
20
0.6067657086614173
11
1.7753104724409448
21
0.605642874015748
0
LINE
8
BLACK
6
CONTINUOUS
10
1.7753104724409448
20
0.605642874015748
11
1.7741876377952754
21
0.603397125984252
0
LINE
8
BLACK
6
CONTINUOUS
10
1.7741876377952754
20
0.603397125984252
11
1.7741876377952754
21
0.5834717322834646
0
LINE
8
BLACK
6
CONTINUOUS
10
1.7741876377952754
20
0.5834717322834646
11
1.7741309055118111
21
0.5828956692913385
0
LINE
8
BLACK
6
CONTINUOUS
10
1.7741309055118111
20
0.5828956692913385
11
1.77369
21
0.5818312598425197
0
LINE
8
BLACK
6
CONTINUOUS
10
1.77369
20
0.5818312598425197
11
1.7728753543307085
21
0.5810166141732284
0
LINE
8
BLACK
6
CONTINUOUS
10
1.7728753543307085
20
0.5810166141732284
11
1.7718109448818897
21
0.5805757086614173
0
LINE
8
BLACK
6
CONTINUOUS
10
1.7718109448818897
20
0.5805757086614173
11
1.7706588188976378
21
0.5805757086614173
0
LINE
8
BLACK
6
CONTINUOUS
10
1.7706588188976378
20
0.5805757086614173
11
1.769594409448819
21
0.5810166141732284
0
LINE
8
BLACK
6
CONTINUOUS
10
1.769594409448819
20
0.5810166141732284
11
1.7687797637795275
21
0.5818312598425197
0
LINE
8
BLACK
6
CONTINUOUS
10
1.7687797637795275
20
0.5818312598425197
11
1.7683388582677164
21
0.5828956692913385
0
LINE
8
BLACK
6
CONTINUOUS
10
1.7683388582677164
20
0.5828956692913385
11
1.7682821259842518
21
0.5834717322834646
0
LINE
8
BLACK
6
CONTINUOUS
10
1.7682821259842518
20
0.5834717322834646
11
1.7682821259842518
21
0.603397125984252
0
LINE
8
BLACK
6
CONTINUOUS
10
1.7682821259842518
20
0.603397125984252
11
1.767159251968504
21
0.605642874015748
0
LINE
8
BLACK
6
CONTINUOUS
10
1.767159251968504
20
0.605642874015748
11
1.7649135433070866
21
0.6067657086614173
0
LINE
8
BLACK
6
CONTINUOUS
10
1.7649135433070866
20
0.6067657086614173
11
1.7606833464566929
21
0.6067657086614173
0
LINE
8
BLACK
6
CONTINUOUS
10
1.7606833464566929
20
0.6067657086614173
11
1.7579858661417322
21
0.605416968503937
0
LINE
8
BLACK
6
CONTINUOUS
10
1.7579858661417322
20
0.605416968503937
11
1.7573147637795274
21
0.6047458661417323
0
LINE
8
BLACK
6
CONTINUOUS
10
1.7573147637795274
20
0.6047458661417323
11
1.7573147637795274
21
0.5834717322834646
0
LINE
8
BLACK
6
CONTINUOUS
10
1.7573147637795274
20
0.5834717322834646
11
1.7572580314960629
21
0.5828956692913385
0
LINE
8
BLACK
6
CONTINUOUS
10
1.7572580314960629
20
0.5828956692913385
11
1.756817125984252
21
0.5818312598425197
0
LINE
8
BLACK
6
CONTINUOUS
10
1.756817125984252
20
0.5818312598425197
11
1.7560024803149605
21
0.5810166141732284
0
LINE
8
BLACK
6
CONTINUOUS
10
1.7560024803149605
20
0.5810166141732284
11
1.7549380708661417
21
0.5805757086614173
0
LINE
8
BLACK
6
CONTINUOUS
10
1.7549380708661417
20
0.5805757086614173
11
1.7537859448818898
21
0.5805757086614173
0
LINE
8
BLACK
6
CONTINUOUS
10
1.7537859448818898
20
0.5805757086614173
11
1.7527215354330707
21
0.5810166141732284
0
LINE
8
BLACK
6
CONTINUOUS
10
1.7527215354330707
20
0.5810166141732284
11
1.7519068897637795
21
0.5818312598425197
0
LINE
8
BLACK
6
CONTINUOUS
10
1.7519068897637795
20
0.5818312598425197
11
1.7514659842519684
21
0.5828956692913385
0
LINE
8
BLACK
6
CONTINUOUS
10
1.7514659842519684
20
0.5828956692913385
11
1.7514092519685038
21
0.5834717322834646
0
LINE
8
BLACK
6
CONTINUOUS
10
1.7514092519685038
20
0.5834717322834646
11
1.7514092519685038
21
0.6097184645669291
0
LINE
8
BLACK
6
CONTINUOUS
10
1.7514092519685038
20
0.6097184645669291
11
1.7514659842519684
21
0.6102945275590551
0
LINE
8
BLACK
6
CONTINUOUS
10
1.7514659842519684
20
0.6102945275590551
11
1.7519068897637795
21
0.611358937007874
0
LINE
8
BLACK
6
CONTINUOUS
10
1.7519068897637795
20
0.611358937007874
11
1.7527215354330707
21
0.6121735826771654
0
LINE
8
BLACK
6
CONTINUOUS
10
1.7527215354330707
20
0.6121735826771654
11
1.7537859448818898
21
0.6126144881889763
0
LINE
8
BLACK
6
CONTINUOUS
10
1.7537859448818898
20
0.6126144881889763
11
1.7549380708661417
21
0.6126144881889763
0
LINE
8
BLACK
6
CONTINUOUS
10
1.7549380708661417
20
0.6126144881889763
11
1.7560024803149605
21
0.6121735826771654
0
LINE
8
BLACK
6
CONTINUOUS
10
1.7560024803149605
20
0.6121735826771654
11
1.7567662992125983
21
0.6114097637795275
0
LINE
8
BLACK
6
CONTINUOUS
10
1.7567662992125983
20
0.6114097637795275
11
1.7586657874015748
21
0.6123594881889763
0
LINE
8
BLACK
6
CONTINUOUS
10
1.7586657874015748
20
0.6123594881889763
11
1.7592063779527558
21
0.6125663779527559
0
LINE
8
BLACK
6
CONTINUOUS
10
1.7592063779527558
20
0.6125663779527559
11
1.7593122440944882
21
0.612573937007874
0
LINE
8
BLACK
6
CONTINUOUS
10
1.7593122440944882
20
0.612573937007874
11
1.7594102362204724
21
0.6126144881889763
0
LINE
8
BLACK
6
CONTINUOUS
10
1.7594102362204724
20
0.6126144881889763
11
1.7599862992125983
21
0.6126712204724409
0
LINE
8
BLACK
6
CONTINUOUS
10
1.7599862992125983
20
0.6126712204724409
11
1.765610590551181
21
0.6126712204724409
0
LINE
8
BLACK
6
CONTINUOUS
10
1.765610590551181
20
0.6126712204724409
11
1.7661866535433071
21
0.6126144881889763
0
LINE
8
BLACK
6
CONTINUOUS
10
1.439167125984252
20
0.6252969291338583
11
1.4396145669291338
21
0.6249297244094488
0
LINE
8
BLACK
6
CONTINUOUS
10
1.4396145669291338
20
0.6249297244094488
11
1.4414893307086614
21
0.6230549606299213
0
LINE
8
BLACK
6
CONTINUOUS
10
1.4414893307086614
20
0.6230549606299213
11
1.4418565354330708
21
0.6226075196850394
0
LINE
8
BLACK
6
CONTINUOUS
10
1.4418565354330708
20
0.6226075196850394
11
1.4419981102362205
21
0.622265748031496
0
LINE
8
BLACK
6
CONTINUOUS
10
1.4419981102362205
20
0.622265748031496
11
1.4422974409448819
21
0.6215430708661417
0
LINE
8
BLACK
6
CONTINUOUS
10
1.4422974409448819
20
0.6215430708661417
11
1.4422974409448819
21
0.6203909842519685
0
LINE
8
BLACK
6
CONTINUOUS
10
1.4422974409448819
20
0.6203909842519685
11
1.4418565354330708
21
0.6193265748031496
0
LINE
8
BLACK
6
CONTINUOUS
10
1.4418565354330708
20
0.6193265748031496
11
1.4414893307086614
21
0.6188791338582676
0
LINE
8
BLACK
6
CONTINUOUS
10
1.4414893307086614
20
0.6188791338582676
11
1.4396145669291338
21
0.6170043700787401
0
LINE
8
BLACK
6
CONTINUOUS
10
1.4396145669291338
20
0.6170043700787401
11
1.439167125984252
21
0.6166371653543307
0
LINE
8
BLACK
6
CONTINUOUS
10
1.439167125984252
20
0.6166371653543307
11
1.438102716535433
21
0.6161962598425197
0
LINE
8
BLACK
6
CONTINUOUS
10
1.438102716535433
20
0.6161962598425197
11
1.4381026771653542
21
0.6161962598425197
0
LINE
8
BLACK
6
CONTINUOUS
10
1.4381026771653542
20
0.6161962598425197
11
1.4369506299212598
21
0.6161962598425197
0
LINE
8
BLACK
6
CONTINUOUS
10
1.4369506299212598
20
0.6161962598425197
11
1.436950590551181
21
0.6161962598425197
0
LINE
8
BLACK
6
CONTINUOUS
10
1.436950590551181
20
0.6161962598425197
11
1.4358861811023622
21
0.6166371653543307
0
LINE
8
BLACK
6
CONTINUOUS
10
1.4358861811023622
20
0.6166371653543307
11
1.4354387401574802
21
0.6170043700787401
0
LINE
8
BLACK
6
CONTINUOUS
10
1.4354387401574802
20
0.6170043700787401
11
1.4335639763779526
21
0.6188791338582676
0
LINE
8
BLACK
6
CONTINUOUS
10
1.4335639763779526
20
0.6188791338582676
11
1.4331967716535432
21
0.6193265748031496
0
LINE
8
BLACK
6
CONTINUOUS
10
1.4331967716535432
20
0.6193265748031496
11
1.4327558661417323
21
0.6203910236220472
0
LINE
8
BLACK
6
CONTINUOUS
10
1.4327558661417323
20
0.6203910236220472
11
1.4327558661417323
21
0.6215430708661417
0
LINE
8
BLACK
6
CONTINUOUS
10
1.4327558661417323
20
0.6215430708661417
11
1.4331967716535432
21
0.6226075196850394
0
LINE
8
BLACK
6
CONTINUOUS
10
1.4331967716535432
20
0.6226075196850394
11
1.4335639763779526
21
0.6230549606299213
0
LINE
8
BLACK
6
CONTINUOUS
10
1.4335639763779526
20
0.6230549606299213
11
1.4354387401574802
21
0.6249297244094488
0
LINE
8
BLACK
6
CONTINUOUS
10
1.4354387401574802
20
0.6249297244094488
11
1.4358861811023622
21
0.6252969291338583
0
LINE
8
BLACK
6
CONTINUOUS
10
1.4358861811023622
20
0.6252969291338583
11
1.436950590551181
21
0.6257378346456692
0
LINE
8
BLACK
6
CONTINUOUS
10
1.436950590551181
20
0.6257378346456692
11
1.4381026771653542
21
0.6257378346456692
0
LINE
8
BLACK
6
CONTINUOUS
10
1.4381026771653542
20
0.6257378346456692
11
1.438102716535433
21
0.6257378346456692
0
LINE
8
BLACK
6
CONTINUOUS
10
1.438102716535433
20
0.6257378346456692
11
1.439167125984252
21
0.6252969291338583
0
CIRCLE
8
BLACK
10
1.5589527559055119
20
0.598822874015748
40
0.0068897637795276
0
CIRCLE
8
BLACK
10
1.6589527559055117
20
0.6988228740157481
40
0.0068897637795276
0
CIRCLE
8
BLACK
10
1.4589527559055118
20
0.6988228740157481
40
0.0068897637795276
0
CIRCLE
8
BLACK
10
1.6589527559055117
20
0.498822874015748
40
0.0068897637795276
0
CIRCLE
8
BLACK
10
1.4589527559055118
20
0.498822874015748
40
0.0068897637795276
0
CIRCLE
8
BLACK
10
0.666
20
1.359
40
0.0068897637795276
0
CIRCLE
8
BLACK
10
0.666
20
1.4590000000000001
40
0.0068897637795276
0
CIRCLE
8
BLACK
10
0.766
20
1.3589999606299212
40
0.0068897637795276
0
CIRCLE
8
BLACK
10
0.766
20
1.4590000393700786
40
0.0068897637795276
0
CIRCLE
8
BLACK
10
0.866
20
1.359
40
0.0068897637795276
0
CIRCLE
8
BLACK
10
0.866
20
1.4590000000000001
40
0.0068897637795276
0
CIRCLE
8
BLACK
10
0.4
20
0.4
40
0.0068897637795276
0
CIRCLE
8
BLACK
10
1.5999999999999999
20
1.2
40
0.0068897637795276
0
CIRCLE
8
BLACK
10
1.5999999999999999
20
0.4
40
0.0068897637795276
0
CIRCLE
8
BLACK
10
0.4
20
1.2
40
0.0068897637795276
0
CIRCLE
8
BLACK
10
1.5589527559055119
20
0.598822874015748
40
0.0068897637795276
0
CIRCLE
8
BLACK
10
1.6589527559055117
20
0.6988228740157481
40
0.0068897637795276
0
CIRCLE
8
BLACK
10
1.4589527559055118
20
0.6988228740157481
40
0.0068897637795276
0
CIRCLE
8
BLACK
10
1.6589527559055117
20
0.498822874015748
40
0.0068897637795276
0
CIRCLE
8
BLACK
10
1.4589527559055118
20
0.498822874015748
40
0.0068897637795276
0
CIRCLE
8
BLACK
10
0.666
20
1.359
40
0.0068897637795276
0
CIRCLE
8
BLACK
10
0.666
20
1.4590000000000001
40
0.0068897637795276
0
CIRCLE
8
BLACK
10
0.766
20
1.3589999606299212
40
0.0068897637795276
0
CIRCLE
8
BLACK
10
0.766
20
1.4590000393700786
40
0.0068897637795276
0
CIRCLE
8
BLACK
10
0.866
20
1.359
40
0.0068897637795276
0
CIRCLE
8
BLACK
10
0.866
20
1.4590000000000001
40
0.0068897637795276
0
CIRCLE
8
BLACK
10
0.4
20
0.4
40
0.0068897637795276
0
CIRCLE
8
BLACK
10
1.5999999999999999
20
1.2
40
0.0068897637795276
0
CIRCLE
8
BLACK
10
1.5999999999999999
20
0.4
40
0.0068897637795276
0
CIRCLE
8
BLACK
10
0.4
20
1.2
40
0.0068897637795276
  0
ENDSEC
  0
EOF
