  0
SECTION
  2
HEADER
  9
$ANGBASE
  50
0.0
  9
$ANGDIR
  70
1
  9
$MEASUREMENT
  70
0
  0
ENDSEC
  0
SECTION
  2
TABLES
  0
TABLE
  2
LTYPE
  70
4
  0
LTYPE
  5
40F
  2
CONTINUOUS
  70
0
  3
Solid line
  72
65
  73
0
  40
0.0
  0
LTYPE
  5
410
  2
DASHDOT
 70
0
  3
Dash Dot ____ _ ____ _
 72
65
 73
4
 40
2.0
 49
1.25
 49
-0.25
 49
0.25
 49
-0.25
  0
LTYPE
  5
411
  2
DASHED
 70
0
  3
Dashed __ __ __ __ __
 72
65
 73
2
 40
0.75
 49
0.5
 49
-0.25
  0
LTYPE
  5
43B
  2
DOTTED
 70
0
  3
Dotted .  .  .  .
 72
65
 73
2
 40
0.2
 49
0.0
 49
-0.2
  0
ENDTAB
  0
TABLE
  2
STYLE
  70
4
  0
STYLE
  2
KICAD
  70
0
  40
0
  41
1
  42
1
  50
0
  71
0
  3
isocp.shx
  0
STYLE
  2
KICADB
  70
0
  40
0
  41
1
  42
1
  50
0
  71
0
  3
isocp.shx
  0
STYLE
  2
KICADI
  70
0
  40
0
  41
1
  42
1
  50
15
  71
0
  3
isocp.shx
  0
STYLE
  2
KICADBI
  70
0
  40
0
  41
1
  42
1
  50
15
  71
0
  3
isocp.shx
  0
ENDTAB
  0
TABLE
  2
LAYER
  70
1
  0
LAYER
  2
BLACK
  70
0
  62
7
  6
CONTINUOUS
  0
ENDTAB
  0
ENDSEC
  0
SECTION
  2
ENTITIES
0
LINE
8
BLACK
6
CONTINUOUS
10
1.6236867322834645
20
0.846933937007874
11
1.6246453543307087
21
0.846294842519685
0
LINE
8
BLACK
6
CONTINUOUS
10
1.6246453543307087
20
0.846294842519685
11
1.6252864173228345
21
0.8453375590551181
0
LINE
8
BLACK
6
CONTINUOUS
10
1.6252864173228345
20
0.8453375590551181
11
1.6255123622047243
21
0.8442078346456693
0
LINE
8
BLACK
6
CONTINUOUS
10
1.6255123622047243
20
0.8442078346456693
11
1.625288779527559
21
0.8430776377952756
0
LINE
8
BLACK
6
CONTINUOUS
10
1.625288779527559
20
0.8430776377952756
11
1.6250164566929133
21
0.8425668503937007
0
LINE
8
BLACK
6
CONTINUOUS
10
1.6250164566929133
20
0.8425668503937007
11
1.5912707086614173
21
0.791948188976378
0
LINE
8
BLACK
6
CONTINUOUS
10
1.5912707086614173
20
0.791948188976378
11
1.5909039370078739
21
0.7915003149606299
0
LINE
8
BLACK
6
CONTINUOUS
10
1.5909039370078739
20
0.7915003149606299
11
1.5899466535433071
21
0.7908592519685039
0
LINE
8
BLACK
6
CONTINUOUS
10
1.5899466535433071
20
0.7908592519685039
11
1.5888169685039371
21
0.7906333070866142
0
LINE
8
BLACK
6
CONTINUOUS
10
1.5888169685039371
20
0.7906333070866142
11
1.5876867322834645
21
0.7908568897637795
0
LINE
8
BLACK
6
CONTINUOUS
10
1.5876867322834645
20
0.7908568897637795
11
1.5867281102362205
21
0.7914959842519684
0
LINE
8
BLACK
6
CONTINUOUS
10
1.5867281102362205
20
0.7914959842519684
11
1.5860870472440944
21
0.7924532677165355
0
LINE
8
BLACK
6
CONTINUOUS
10
1.5860870472440944
20
0.7924532677165355
11
1.5858611023622047
21
0.7935829527559055
0
LINE
8
BLACK
6
CONTINUOUS
10
1.5858611023622047
20
0.7935829527559055
11
1.5860846850393699
21
0.7947131889763779
0
LINE
8
BLACK
6
CONTINUOUS
10
1.5860846850393699
20
0.7947131889763779
11
1.5863570078740157
21
0.795223937007874
0
LINE
8
BLACK
6
CONTINUOUS
10
1.5863570078740157
20
0.795223937007874
11
1.6201027559055117
21
0.8458426377952756
0
LINE
8
BLACK
6
CONTINUOUS
10
1.6201027559055117
20
0.8458426377952756
11
1.620469527559055
21
0.8462904724409449
0
LINE
8
BLACK
6
CONTINUOUS
10
1.620469527559055
20
0.8462904724409449
11
1.6214268110236221
21
0.8469315354330709
0
LINE
8
BLACK
6
CONTINUOUS
10
1.6214268110236221
20
0.8469315354330709
11
1.6225564960629921
21
0.8471574803149606
0
LINE
8
BLACK
6
CONTINUOUS
10
1.6225564960629921
20
0.8471574803149606
11
1.6236867322834645
21
0.846933937007874
0
LINE
8
BLACK
6
CONTINUOUS
10
1.3831657086614173
20
0.8452259842519685
11
1.3832637007874016
21
0.8451853937007874
0
LINE
8
BLACK
6
CONTINUOUS
10
1.3832637007874016
20
0.8451853937007874
11
1.3833695275590552
21
0.8451778740157481
0
LINE
8
BLACK
6
CONTINUOUS
10
1.3833695275590552
20
0.8451778740157481
11
1.383910157480315
21
0.8449709842519685
0
LINE
8
BLACK
6
CONTINUOUS
10
1.383910157480315
20
0.8449709842519685
11
1.3876596850393701
21
0.8430962204724409
0
LINE
8
BLACK
6
CONTINUOUS
10
1.3876596850393701
20
0.8430962204724409
11
1.3879076771653542
21
0.8429401574803149
0
LINE
8
BLACK
6
CONTINUOUS
10
1.3879076771653542
20
0.8429401574803149
11
1.3879796456692912
21
0.8429103149606298
0
LINE
8
BLACK
6
CONTINUOUS
10
1.3879796456692912
20
0.8429103149606298
11
1.3880605905511811
21
0.8428438582677165
0
LINE
8
BLACK
6
CONTINUOUS
10
1.3880605905511811
20
0.8428438582677165
11
1.3881495669291337
21
0.8427878740157481
0
LINE
8
BLACK
6
CONTINUOUS
10
1.3881495669291337
20
0.8427878740157481
11
1.3882007086614172
21
0.8427288976377952
0
LINE
8
BLACK
6
CONTINUOUS
10
1.3882007086614172
20
0.8427288976377952
11
1.3884270866141732
21
0.8425431102362204
0
LINE
8
BLACK
6
CONTINUOUS
10
1.3884270866141732
20
0.8425431102362204
11
1.3903018503937008
21
0.8406683464566929
0
LINE
8
BLACK
6
CONTINUOUS
10
1.3903018503937008
20
0.8406683464566929
11
1.3904875984251968
21
0.8404420078740157
0
LINE
8
BLACK
6
CONTINUOUS
10
1.3904875984251968
20
0.8404420078740157
11
1.3905466141732283
21
0.8403908267716536
0
LINE
8
BLACK
6
CONTINUOUS
10
1.3905466141732283
20
0.8403908267716536
11
1.3906025590551181
21
0.8403018897637795
0
LINE
8
BLACK
6
CONTINUOUS
10
1.3906025590551181
20
0.8403018897637795
11
1.3906690551181102
21
0.8402209055118111
0
LINE
8
BLACK
6
CONTINUOUS
10
1.3906690551181102
20
0.8402209055118111
11
1.3906988582677164
21
0.8401489763779527
0
LINE
8
BLACK
6
CONTINUOUS
10
1.3906988582677164
20
0.8401489763779527
11
1.3908549606299212
21
0.8399009448818897
0
LINE
8
BLACK
6
CONTINUOUS
10
1.3908549606299212
20
0.8399009448818897
11
1.3927297244094488
21
0.8361514173228346
0
LINE
8
BLACK
6
CONTINUOUS
10
1.3927297244094488
20
0.8361514173228346
11
1.3927458267716535
21
0.8361093307086614
0
LINE
8
BLACK
6
CONTINUOUS
10
1.3927458267716535
20
0.8361093307086614
11
1.3927585433070866
21
0.8360921653543307
0
LINE
8
BLACK
6
CONTINUOUS
10
1.3927585433070866
20
0.8360921653543307
11
1.3928448425196851
21
0.835850590551181
0
LINE
8
BLACK
6
CONTINUOUS
10
1.3928448425196851
20
0.835850590551181
11
1.3929366141732282
21
0.8356108267716535
0
LINE
8
BLACK
6
CONTINUOUS
10
1.3929366141732282
20
0.8356108267716535
11
1.3929381102362204
21
0.8355895669291339
0
LINE
8
BLACK
6
CONTINUOUS
10
1.3929381102362204
20
0.8355895669291339
11
1.3929533070866142
21
0.8355470472440945
0
LINE
8
BLACK
6
CONTINUOUS
10
1.3929533070866142
20
0.8355470472440945
11
1.3948280708661418
21
0.8280479921259842
0
LINE
8
BLACK
6
CONTINUOUS
10
1.3948280708661418
20
0.8280479921259842
11
1.3948428346456692
21
0.8279481496062991
0
LINE
8
BLACK
6
CONTINUOUS
10
1.3948428346456692
20
0.8279481496062991
11
1.3948594881889764
21
0.8279079133858267
0
LINE
8
BLACK
6
CONTINUOUS
10
1.3948594881889764
20
0.8279079133858267
11
1.3948808267716535
21
0.827690905511811
0
LINE
8
BLACK
6
CONTINUOUS
10
1.3948808267716535
20
0.827690905511811
11
1.3949127165354331
21
0.8274753937007874
0
LINE
8
BLACK
6
CONTINUOUS
10
1.3949127165354331
20
0.8274753937007874
11
1.3949062992125985
21
0.8274324015748031
0
LINE
8
BLACK
6
CONTINUOUS
10
1.3949062992125985
20
0.8274324015748031
11
1.394916220472441
21
0.8273318503937007
0
LINE
8
BLACK
6
CONTINUOUS
10
1.394916220472441
20
0.8273318503937007
11
1.394916220472441
21
0.8179580314960629
0
LINE
8
BLACK
6
CONTINUOUS
10
1.394916220472441
20
0.8179580314960629
11
1.3949062992125985
21
0.8178575196850394
0
LINE
8
BLACK
6
CONTINUOUS
10
1.3949062992125985
20
0.8178575196850394
11
1.3949127165354331
21
0.8178144881889764
0
LINE
8
BLACK
6
CONTINUOUS
10
1.3949127165354331
20
0.8178144881889764
11
1.3948808267716535
21
0.8175990157480315
0
LINE
8
BLACK
6
CONTINUOUS
10
1.3948808267716535
20
0.8175990157480315
11
1.3948594881889764
21
0.817381968503937
0
LINE
8
BLACK
6
CONTINUOUS
10
1.3948594881889764
20
0.817381968503937
11
1.3948428346456692
21
0.8173417716535433
0
LINE
8
BLACK
6
CONTINUOUS
10
1.3948428346456692
20
0.8173417716535433
11
1.3948280708661418
21
0.8172418897637795
0
LINE
8
BLACK
6
CONTINUOUS
10
1.3948280708661418
20
0.8172418897637795
11
1.3929533070866142
21
0.8097428346456693
0
LINE
8
BLACK
6
CONTINUOUS
10
1.3929533070866142
20
0.8097428346456693
11
1.3929381102362204
21
0.8097003543307086
0
LINE
8
BLACK
6
CONTINUOUS
10
1.3929381102362204
20
0.8097003543307086
11
1.3929366141732282
21
0.8096790551181102
0
LINE
8
BLACK
6
CONTINUOUS
10
1.3929366141732282
20
0.8096790551181102
11
1.3928448425196851
21
0.8094393307086614
0
LINE
8
BLACK
6
CONTINUOUS
10
1.3928448425196851
20
0.8094393307086614
11
1.3927585433070866
21
0.809197716535433
0
LINE
8
BLACK
6
CONTINUOUS
10
1.3927585433070866
20
0.809197716535433
11
1.3927458267716535
21
0.8091805905511811
0
LINE
8
BLACK
6
CONTINUOUS
10
1.3927458267716535
20
0.8091805905511811
11
1.3927297244094488
21
0.8091384645669291
0
LINE
8
BLACK
6
CONTINUOUS
10
1.3927297244094488
20
0.8091384645669291
11
1.3908549606299212
21
0.805388937007874
0
LINE
8
BLACK
6
CONTINUOUS
10
1.3908549606299212
20
0.805388937007874
11
1.3906988976377952
21
0.805141062992126
0
LINE
8
BLACK
6
CONTINUOUS
10
1.3906988976377952
20
0.805141062992126
11
1.390669094488189
21
0.8050690157480315
0
LINE
8
BLACK
6
CONTINUOUS
10
1.390669094488189
20
0.8050690157480315
11
1.3906025590551181
21
0.8049879921259843
0
LINE
8
BLACK
6
CONTINUOUS
10
1.3906025590551181
20
0.8049879921259843
11
1.3905466141732283
21
0.8048990551181102
0
LINE
8
BLACK
6
CONTINUOUS
10
1.3905466141732283
20
0.8048990551181102
11
1.3904875984251968
21
0.8048479133858267
0
LINE
8
BLACK
6
CONTINUOUS
10
1.3904875984251968
20
0.8048479133858267
11
1.3903018503937008
21
0.8046215354330708
0
LINE
8
BLACK
6
CONTINUOUS
10
1.3903018503937008
20
0.8046215354330708
11
1.388427125984252
21
0.8027467716535432
0
LINE
8
BLACK
6
CONTINUOUS
10
1.388427125984252
20
0.8027467716535432
11
1.388200748031496
21
0.8025610236220472
0
LINE
8
BLACK
6
CONTINUOUS
10
1.388200748031496
20
0.8025610236220472
11
1.3881495669291337
21
0.802501968503937
0
LINE
8
BLACK
6
CONTINUOUS
10
1.3881495669291337
20
0.802501968503937
11
1.3880605905511811
21
0.8024459842519684
0
LINE
8
BLACK
6
CONTINUOUS
10
1.3880605905511811
20
0.8024459842519684
11
1.3879796456692912
21
0.8023795275590551
0
LINE
8
BLACK
6
CONTINUOUS
10
1.3879796456692912
20
0.8023795275590551
11
1.3879076771653542
21
0.8023497244094489
0
LINE
8
BLACK
6
CONTINUOUS
10
1.3879076771653542
20
0.8023497244094489
11
1.3876596850393701
21
0.8021936220472441
0
LINE
8
BLACK
6
CONTINUOUS
10
1.3876596850393701
20
0.8021936220472441
11
1.383910157480315
21
0.8003188582677165
0
LINE
8
BLACK
6
CONTINUOUS
10
1.383910157480315
20
0.8003188582677165
11
1.3833695275590552
21
0.800111968503937
0
LINE
8
BLACK
6
CONTINUOUS
10
1.3833695275590552
20
0.800111968503937
11
1.3832637007874016
21
0.8001044881889764
0
LINE
8
BLACK
6
CONTINUOUS
10
1.3832637007874016
20
0.8001044881889764
11
1.3831657086614173
21
0.8000638582677165
0
LINE
8
BLACK
6
CONTINUOUS
10
1.3831657086614173
20
0.8000638582677165
11
1.3825896456692912
21
0.8000071259842519
0
LINE
8
BLACK
6
CONTINUOUS
10
1.3825896456692912
20
0.8000071259842519
11
1.3788401181102361
21
0.8000071259842519
0
LINE
8
BLACK
6
CONTINUOUS
10
1.3788401181102361
20
0.8000071259842519
11
1.3782640551181102
21
0.8000638582677165
0
LINE
8
BLACK
6
CONTINUOUS
10
1.3782640551181102
20
0.8000638582677165
11
1.378166062992126
21
0.8001044488188976
0
LINE
8
BLACK
6
CONTINUOUS
10
1.378166062992126
20
0.8001044488188976
11
1.3780601968503936
21
0.800111968503937
0
LINE
8
BLACK
6
CONTINUOUS
10
1.3780601968503936
20
0.800111968503937
11
1.3775196062992126
21
0.8003188582677165
0
LINE
8
BLACK
6
CONTINUOUS
10
1.3775196062992126
20
0.8003188582677165
11
1.3737700787401574
21
0.8021936220472441
0
LINE
8
BLACK
6
CONTINUOUS
10
1.3737700787401574
20
0.8021936220472441
11
1.3735220472440945
21
0.8023497244094489
0
LINE
8
BLACK
6
CONTINUOUS
10
1.3735220472440945
20
0.8023497244094489
11
1.3734501181102361
21
0.8023795275590551
0
LINE
8
BLACK
6
CONTINUOUS
10
1.3734501181102361
20
0.8023795275590551
11
1.3733691338582676
21
0.8024459842519684
0
LINE
8
BLACK
6
CONTINUOUS
10
1.3733691338582676
20
0.8024459842519684
11
1.3732801968503936
21
0.802501968503937
0
LINE
8
BLACK
6
CONTINUOUS
10
1.3732801968503936
20
0.802501968503937
11
1.3732289763779528
21
0.8025610236220472
0
LINE
8
BLACK
6
CONTINUOUS
10
1.3732289763779528
20
0.8025610236220472
11
1.3730026377952755
21
0.8027467716535432
0
LINE
8
BLACK
6
CONTINUOUS
10
1.3730026377952755
20
0.8027467716535432
11
1.371127874015748
21
0.8046215748031496
0
LINE
8
BLACK
6
CONTINUOUS
10
1.371127874015748
20
0.8046215748031496
11
1.370942125984252
21
0.8048479133858267
0
LINE
8
BLACK
6
CONTINUOUS
10
1.370942125984252
20
0.8048479133858267
11
1.3708831496062992
21
0.8048990551181102
0
LINE
8
BLACK
6
CONTINUOUS
10
1.3708831496062992
20
0.8048990551181102
11
1.3708271653543307
21
0.8049879921259843
0
LINE
8
BLACK
6
CONTINUOUS
10
1.3708271653543307
20
0.8049879921259843
11
1.3707606692913386
21
0.8050690157480315
0
LINE
8
BLACK
6
CONTINUOUS
10
1.3707606692913386
20
0.8050690157480315
11
1.3707308267716536
21
0.805141062992126
0
LINE
8
BLACK
6
CONTINUOUS
10
1.3707308267716536
20
0.805141062992126
11
1.3705748031496063
21
0.805388937007874
0
LINE
8
BLACK
6
CONTINUOUS
10
1.3705748031496063
20
0.805388937007874
11
1.3687000393700788
21
0.8091384645669291
0
LINE
8
BLACK
6
CONTINUOUS
10
1.3687000393700788
20
0.8091384645669291
11
1.3686838976377953
21
0.8091805905511811
0
LINE
8
BLACK
6
CONTINUOUS
10
1.3686838976377953
20
0.8091805905511811
11
1.3686712204724409
21
0.809197716535433
0
LINE
8
BLACK
6
CONTINUOUS
10
1.3686712204724409
20
0.809197716535433
11
1.3685847637795274
21
0.80943968503937
0
LINE
8
BLACK
6
CONTINUOUS
10
1.3685847637795274
20
0.80943968503937
11
1.3684931496062991
21
0.809679094488189
0
LINE
8
BLACK
6
CONTINUOUS
10
1.3684931496062991
20
0.809679094488189
11
1.3684916141732284
21
0.8097003543307086
0
LINE
8
BLACK
6
CONTINUOUS
10
1.3684916141732284
20
0.8097003543307086
11
1.3684764566929133
21
0.8097428346456693
0
LINE
8
BLACK
6
CONTINUOUS
10
1.3684764566929133
20
0.8097428346456693
11
1.3666016929133857
21
0.8172418897637795
0
LINE
8
BLACK
6
CONTINUOUS
10
1.3666016929133857
20
0.8172418897637795
11
1.3665868897637794
21
0.8173417716535433
0
LINE
8
BLACK
6
CONTINUOUS
10
1.3665868897637794
20
0.8173417716535433
11
1.3665702755905511
21
0.817381968503937
0
LINE
8
BLACK
6
CONTINUOUS
10
1.3665702755905511
20
0.817381968503937
11
1.3665488976377953
21
0.8175990157480315
0
LINE
8
BLACK
6
CONTINUOUS
10
1.3665488976377953
20
0.8175990157480315
11
1.3665170472440944
21
0.8178144881889764
0
LINE
8
BLACK
6
CONTINUOUS
10
1.3665170472440944
20
0.8178144881889764
11
1.3665234251968503
21
0.8178575196850394
0
LINE
8
BLACK
6
CONTINUOUS
10
1.3665234251968503
20
0.8178575196850394
11
1.3665135433070865
21
0.8179580314960629
0
LINE
8
BLACK
6
CONTINUOUS
10
1.3665135433070865
20
0.8179580314960629
11
1.3665135433070865
21
0.8273318503937007
0
LINE
8
BLACK
6
CONTINUOUS
10
1.3665135433070865
20
0.8273318503937007
11
1.3665234251968503
21
0.8274324015748031
0
LINE
8
BLACK
6
CONTINUOUS
10
1.3665234251968503
20
0.8274324015748031
11
1.3665170472440944
21
0.8274753937007874
0
LINE
8
BLACK
6
CONTINUOUS
10
1.3665170472440944
20
0.8274753937007874
11
1.3665488976377953
21
0.827690905511811
0
LINE
8
BLACK
6
CONTINUOUS
10
1.3665488976377953
20
0.827690905511811
11
1.3665702755905511
21
0.8279079133858267
0
LINE
8
BLACK
6
CONTINUOUS
10
1.3665702755905511
20
0.8279079133858267
11
1.3665868897637794
21
0.8279481496062991
0
LINE
8
BLACK
6
CONTINUOUS
10
1.3665868897637794
20
0.8279481496062991
11
1.3666016929133857
21
0.8280479921259842
0
LINE
8
BLACK
6
CONTINUOUS
10
1.3666016929133857
20
0.8280479921259842
11
1.3684764566929133
21
0.8355470472440945
0
LINE
8
BLACK
6
CONTINUOUS
10
1.3684764566929133
20
0.8355470472440945
11
1.3684916141732284
21
0.8355895669291339
0
LINE
8
BLACK
6
CONTINUOUS
10
1.3684916141732284
20
0.8355895669291339
11
1.3684931496062991
21
0.8356107874015748
0
LINE
8
BLACK
6
CONTINUOUS
10
1.3684931496062991
20
0.8356107874015748
11
1.3685847637795274
21
0.8358502362204724
0
LINE
8
BLACK
6
CONTINUOUS
10
1.3685847637795274
20
0.8358502362204724
11
1.3686712204724409
21
0.8360921653543307
0
LINE
8
BLACK
6
CONTINUOUS
10
1.3686712204724409
20
0.8360921653543307
11
1.3686838976377953
21
0.8361093307086614
0
LINE
8
BLACK
6
CONTINUOUS
10
1.3686838976377953
20
0.8361093307086614
11
1.3687000393700788
21
0.8361514173228346
0
LINE
8
BLACK
6
CONTINUOUS
10
1.3687000393700788
20
0.8361514173228346
11
1.3705748031496063
21
0.8399009448818897
0
LINE
8
BLACK
6
CONTINUOUS
10
1.3705748031496063
20
0.8399009448818897
11
1.3707308661417323
21
0.8401489763779527
0
LINE
8
BLACK
6
CONTINUOUS
10
1.3707308661417323
20
0.8401489763779527
11
1.3707607086614173
21
0.8402209055118111
0
LINE
8
BLACK
6
CONTINUOUS
10
1.3707607086614173
20
0.8402209055118111
11
1.3708271653543307
21
0.8403018897637795
0
LINE
8
BLACK
6
CONTINUOUS
10
1.3708271653543307
20
0.8403018897637795
11
1.3708831496062992
21
0.8403908267716536
0
LINE
8
BLACK
6
CONTINUOUS
10
1.3708831496062992
20
0.8403908267716536
11
1.370942125984252
21
0.8404420078740157
0
LINE
8
BLACK
6
CONTINUOUS
10
1.370942125984252
20
0.8404420078740157
11
1.3711279133858267
21
0.8406683464566929
0
LINE
8
BLACK
6
CONTINUOUS
10
1.3711279133858267
20
0.8406683464566929
11
1.3730026771653543
21
0.8425431102362204
0
LINE
8
BLACK
6
CONTINUOUS
10
1.3730026771653543
20
0.8425431102362204
11
1.3732290157480314
21
0.8427288976377952
0
LINE
8
BLACK
6
CONTINUOUS
10
1.3732290157480314
20
0.8427288976377952
11
1.3732801968503936
21
0.8427878740157481
0
LINE
8
BLACK
6
CONTINUOUS
10
1.3732801968503936
20
0.8427878740157481
11
1.3733691338582676
21
0.8428438582677165
0
LINE
8
BLACK
6
CONTINUOUS
10
1.3733691338582676
20
0.8428438582677165
11
1.3734501181102361
21
0.8429103149606298
0
LINE
8
BLACK
6
CONTINUOUS
10
1.3734501181102361
20
0.8429103149606298
11
1.3735220472440945
21
0.8429401574803149
0
LINE
8
BLACK
6
CONTINUOUS
10
1.3735220472440945
20
0.8429401574803149
11
1.3737700787401574
21
0.8430962204724409
0
LINE
8
BLACK
6
CONTINUOUS
10
1.3737700787401574
20
0.8430962204724409
11
1.3775196062992126
21
0.8449709842519685
0
LINE
8
BLACK
6
CONTINUOUS
10
1.3775196062992126
20
0.8449709842519685
11
1.3780601968503936
21
0.8451778740157481
0
LINE
8
BLACK
6
CONTINUOUS
10
1.3780601968503936
20
0.8451778740157481
11
1.378166062992126
21
0.8451854330708661
0
LINE
8
BLACK
6
CONTINUOUS
10
1.378166062992126
20
0.8451854330708661
11
1.3782640551181102
21
0.8452259842519685
0
LINE
8
BLACK
6
CONTINUOUS
10
1.3782640551181102
20
0.8452259842519685
11
1.3788401181102361
21
0.8452827165354331
0
LINE
8
BLACK
6
CONTINUOUS
10
1.3788401181102361
20
0.8452827165354331
11
1.3825896456692912
21
0.8452827165354331
0
LINE
8
BLACK
6
CONTINUOUS
10
1.3825896456692912
20
0.8452827165354331
11
1.3831657086614173
21
0.8452259842519685
0
LINE
8
BLACK
6
CONTINUOUS
10
1.37683968503937
20
0.8380284645669291
11
1.375642559055118
21
0.8368313385826771
0
LINE
8
BLACK
6
CONTINUOUS
10
1.375642559055118
20
0.8368313385826771
11
1.3741270472440945
21
0.8338003543307086
0
LINE
8
BLACK
6
CONTINUOUS
10
1.3741270472440945
20
0.8338003543307086
11
1.3724190551181101
21
0.8269683070866142
0
LINE
8
BLACK
6
CONTINUOUS
10
1.3724190551181101
20
0.8269683070866142
11
1.3724190551181101
21
0.8183215748031496
0
LINE
8
BLACK
6
CONTINUOUS
10
1.3724190551181101
20
0.8183215748031496
11
1.3741270472440945
21
0.8114895275590551
0
LINE
8
BLACK
6
CONTINUOUS
10
1.3741270472440945
20
0.8114895275590551
11
1.375642559055118
21
0.8084585433070866
0
LINE
8
BLACK
6
CONTINUOUS
10
1.375642559055118
20
0.8084585433070866
11
1.37683968503937
21
0.8072613779527559
0
LINE
8
BLACK
6
CONTINUOUS
10
1.37683968503937
20
0.8072613779527559
11
1.3795371653543307
21
0.8059126377952756
0
LINE
8
BLACK
6
CONTINUOUS
10
1.3795371653543307
20
0.8059126377952756
11
1.3818925984251968
21
0.8059126377952756
0
LINE
8
BLACK
6
CONTINUOUS
10
1.3818925984251968
20
0.8059126377952756
11
1.3845900393700787
21
0.8072613779527559
0
LINE
8
BLACK
6
CONTINUOUS
10
1.3845900393700787
20
0.8072613779527559
11
1.3857871653543308
21
0.8084585433070866
0
LINE
8
BLACK
6
CONTINUOUS
10
1.3857871653543308
20
0.8084585433070866
11
1.3873026771653543
21
0.8114895275590551
0
LINE
8
BLACK
6
CONTINUOUS
10
1.3873026771653543
20
0.8114895275590551
11
1.3890107086614172
21
0.8183215748031496
0
LINE
8
BLACK
6
CONTINUOUS
10
1.3890107086614172
20
0.8183215748031496
11
1.3890107086614172
21
0.8269683070866142
0
LINE
8
BLACK
6
CONTINUOUS
10
1.3890107086614172
20
0.8269683070866142
11
1.3873026771653543
21
0.8338003543307086
0
LINE
8
BLACK
6
CONTINUOUS
10
1.3873026771653543
20
0.8338003543307086
11
1.3857872047244095
21
0.8368313385826771
0
LINE
8
BLACK
6
CONTINUOUS
10
1.3857872047244095
20
0.8368313385826771
11
1.3845900787401575
21
0.8380284645669291
0
LINE
8
BLACK
6
CONTINUOUS
10
1.3845900787401575
20
0.8380284645669291
11
1.3818925984251968
21
0.8393772047244095
0
LINE
8
BLACK
6
CONTINUOUS
10
1.3818925984251968
20
0.8393772047244095
11
1.3795371653543307
21
0.8393772047244095
0
LINE
8
BLACK
6
CONTINUOUS
10
1.3795371653543307
20
0.8393772047244095
11
1.37683968503937
21
0.8380284645669291
0
LINE
8
BLACK
6
CONTINUOUS
10
1.4394086614173227
20
0.8452259842519685
11
1.439506653543307
21
0.8451853937007874
0
LINE
8
BLACK
6
CONTINUOUS
10
1.439506653543307
20
0.8451853937007874
11
1.4396124803149606
21
0.8451778740157481
0
LINE
8
BLACK
6
CONTINUOUS
10
1.4396124803149606
20
0.8451778740157481
11
1.4401531102362204
21
0.8449709842519685
0
LINE
8
BLACK
6
CONTINUOUS
10
1.4401531102362204
20
0.8449709842519685
11
1.4439026377952755
21
0.8430962204724409
0
LINE
8
BLACK
6
CONTINUOUS
10
1.4439026377952755
20
0.8430962204724409
11
1.4441506299212599
21
0.8429401574803149
0
LINE
8
BLACK
6
CONTINUOUS
10
1.4441506299212599
20
0.8429401574803149
11
1.4442225984251968
21
0.8429103149606298
0
LINE
8
BLACK
6
CONTINUOUS
10
1.4442225984251968
20
0.8429103149606298
11
1.4443035433070865
21
0.8428438582677165
0
LINE
8
BLACK
6
CONTINUOUS
10
1.4443035433070865
20
0.8428438582677165
11
1.4443925196850393
21
0.8427878740157481
0
LINE
8
BLACK
6
CONTINUOUS
10
1.4443925196850393
20
0.8427878740157481
11
1.4444436614173228
21
0.8427288976377952
0
LINE
8
BLACK
6
CONTINUOUS
10
1.4444436614173228
20
0.8427288976377952
11
1.4446700393700787
21
0.8425431102362204
0
LINE
8
BLACK
6
CONTINUOUS
10
1.4446700393700787
20
0.8425431102362204
11
1.4465448031496062
21
0.8406683464566929
0
LINE
8
BLACK
6
CONTINUOUS
10
1.4465448031496062
20
0.8406683464566929
11
1.4467305511811024
21
0.8404420078740157
0
LINE
8
BLACK
6
CONTINUOUS
10
1.4467305511811024
20
0.8404420078740157
11
1.4467895669291337
21
0.8403908267716536
0
LINE
8
BLACK
6
CONTINUOUS
10
1.4467895669291337
20
0.8403908267716536
11
1.4468455118110235
21
0.8403018897637795
0
LINE
8
BLACK
6
CONTINUOUS
10
1.4468455118110235
20
0.8403018897637795
11
1.4469120078740156
21
0.8402209055118111
0
LINE
8
BLACK
6
CONTINUOUS
10
1.4469120078740156
20
0.8402209055118111
11
1.4469418110236221
21
0.8401489763779527
0
LINE
8
BLACK
6
CONTINUOUS
10
1.4469418110236221
20
0.8401489763779527
11
1.4470979133858268
21
0.8399009448818897
0
LINE
8
BLACK
6
CONTINUOUS
10
1.4470979133858268
20
0.8399009448818897
11
1.4489726771653544
21
0.8361514173228346
0
LINE
8
BLACK
6
CONTINUOUS
10
1.4489726771653544
20
0.8361514173228346
11
1.4489887795275591
21
0.8361093307086614
0
LINE
8
BLACK
6
CONTINUOUS
10
1.4489887795275591
20
0.8361093307086614
11
1.449001496062992
21
0.8360921653543307
0
LINE
8
BLACK
6
CONTINUOUS
10
1.449001496062992
20
0.8360921653543307
11
1.4490877952755905
21
0.835850590551181
0
LINE
8
BLACK
6
CONTINUOUS
10
1.4490877952755905
20
0.835850590551181
11
1.4491795669291339
21
0.8356108267716535
0
LINE
8
BLACK
6
CONTINUOUS
10
1.4491795669291339
20
0.8356108267716535
11
1.449181062992126
21
0.8355895669291339
0
LINE
8
BLACK
6
CONTINUOUS
10
1.449181062992126
20
0.8355895669291339
11
1.4491962598425197
21
0.8355470472440945
0
LINE
8
BLACK
6
CONTINUOUS
10
1.4491962598425197
20
0.8355470472440945
11
1.4510710236220472
21
0.8280479921259842
0
LINE
8
BLACK
6
CONTINUOUS
10
1.4510710236220472
20
0.8280479921259842
11
1.4510857874015748
21
0.8279481496062991
0
LINE
8
BLACK
6
CONTINUOUS
10
1.4510857874015748
20
0.8279481496062991
11
1.4511024409448818
21
0.8279079133858267
0
LINE
8
BLACK
6
CONTINUOUS
10
1.4511024409448818
20
0.8279079133858267
11
1.4511237795275591
21
0.827690905511811
0
LINE
8
BLACK
6
CONTINUOUS
10
1.4511237795275591
20
0.827690905511811
11
1.4511556692913385
21
0.8274753937007874
0
LINE
8
BLACK
6
CONTINUOUS
10
1.4511556692913385
20
0.8274753937007874
11
1.4511492519685039
21
0.8274324015748031
0
LINE
8
BLACK
6
CONTINUOUS
10
1.4511492519685039
20
0.8274324015748031
11
1.4511591732283464
21
0.8273318503937007
0
LINE
8
BLACK
6
CONTINUOUS
10
1.4511591732283464
20
0.8273318503937007
11
1.4511591732283464
21
0.8179580314960629
0
LINE
8
BLACK
6
CONTINUOUS
10
1.4511591732283464
20
0.8179580314960629
11
1.4511492519685039
21
0.8178575196850394
0
LINE
8
BLACK
6
CONTINUOUS
10
1.4511492519685039
20
0.8178575196850394
11
1.4511556692913385
21
0.8178144881889764
0
LINE
8
BLACK
6
CONTINUOUS
10
1.4511556692913385
20
0.8178144881889764
11
1.4511237795275591
21
0.8175990157480315
0
LINE
8
BLACK
6
CONTINUOUS
10
1.4511237795275591
20
0.8175990157480315
11
1.4511024409448818
21
0.817381968503937
0
LINE
8
BLACK
6
CONTINUOUS
10
1.4511024409448818
20
0.817381968503937
11
1.4510857874015748
21
0.8173417716535433
0
LINE
8
BLACK
6
CONTINUOUS
10
1.4510857874015748
20
0.8173417716535433
11
1.4510710236220472
21
0.8172418897637795
0
LINE
8
BLACK
6
CONTINUOUS
10
1.4510710236220472
20
0.8172418897637795
11
1.4491962598425197
21
0.8097428346456693
0
LINE
8
BLACK
6
CONTINUOUS
10
1.4491962598425197
20
0.8097428346456693
11
1.449181062992126
21
0.8097003543307086
0
LINE
8
BLACK
6
CONTINUOUS
10
1.449181062992126
20
0.8097003543307086
11
1.4491795669291339
21
0.8096790551181102
0
LINE
8
BLACK
6
CONTINUOUS
10
1.4491795669291339
20
0.8096790551181102
11
1.4490877952755905
21
0.8094393307086614
0
LINE
8
BLACK
6
CONTINUOUS
10
1.4490877952755905
20
0.8094393307086614
11
1.449001496062992
21
0.809197716535433
0
LINE
8
BLACK
6
CONTINUOUS
10
1.449001496062992
20
0.809197716535433
11
1.4489887795275591
21
0.8091805905511811
0
LINE
8
BLACK
6
CONTINUOUS
10
1.4489887795275591
20
0.8091805905511811
11
1.4489726771653544
21
0.8091384645669291
0
LINE
8
BLACK
6
CONTINUOUS
10
1.4489726771653544
20
0.8091384645669291
11
1.4470979133858268
21
0.805388937007874
0
LINE
8
BLACK
6
CONTINUOUS
10
1.4470979133858268
20
0.805388937007874
11
1.4469418503937008
21
0.805141062992126
0
LINE
8
BLACK
6
CONTINUOUS
10
1.4469418503937008
20
0.805141062992126
11
1.4469120472440944
21
0.8050690157480315
0
LINE
8
BLACK
6
CONTINUOUS
10
1.4469120472440944
20
0.8050690157480315
11
1.4468455118110235
21
0.8049879921259843
0
LINE
8
BLACK
6
CONTINUOUS
10
1.4468455118110235
20
0.8049879921259843
11
1.4467895669291337
21
0.8048990551181102
0
LINE
8
BLACK
6
CONTINUOUS
10
1.4467895669291337
20
0.8048990551181102
11
1.4467305511811024
21
0.8048479133858267
0
LINE
8
BLACK
6
CONTINUOUS
10
1.4467305511811024
20
0.8048479133858267
11
1.4465448031496062
21
0.8046215354330708
0
LINE
8
BLACK
6
CONTINUOUS
10
1.4465448031496062
20
0.8046215354330708
11
1.4446700787401574
21
0.8027467716535432
0
LINE
8
BLACK
6
CONTINUOUS
10
1.4446700787401574
20
0.8027467716535432
11
1.4444437007874016
21
0.8025610236220472
0
LINE
8
BLACK
6
CONTINUOUS
10
1.4444437007874016
20
0.8025610236220472
11
1.4443925196850393
21
0.802501968503937
0
LINE
8
BLACK
6
CONTINUOUS
10
1.4443925196850393
20
0.802501968503937
11
1.4443035433070865
21
0.8024459842519684
0
LINE
8
BLACK
6
CONTINUOUS
10
1.4443035433070865
20
0.8024459842519684
11
1.4442225984251968
21
0.8023795275590551
0
LINE
8
BLACK
6
CONTINUOUS
10
1.4442225984251968
20
0.8023795275590551
11
1.4441506299212599
21
0.8023497244094489
0
LINE
8
BLACK
6
CONTINUOUS
10
1.4441506299212599
20
0.8023497244094489
11
1.4439026377952755
21
0.8021936220472441
0
LINE
8
BLACK
6
CONTINUOUS
10
1.4439026377952755
20
0.8021936220472441
11
1.4401531102362204
21
0.8003188582677165
0
LINE
8
BLACK
6
CONTINUOUS
10
1.4401531102362204
20
0.8003188582677165
11
1.4396124803149606
21
0.800111968503937
0
LINE
8
BLACK
6
CONTINUOUS
10
1.4396124803149606
20
0.800111968503937
11
1.439506653543307
21
0.8001044881889764
0
LINE
8
BLACK
6
CONTINUOUS
10
1.439506653543307
20
0.8001044881889764
11
1.4394086614173227
21
0.8000638582677165
0
LINE
8
BLACK
6
CONTINUOUS
10
1.4394086614173227
20
0.8000638582677165
11
1.4388325984251968
21
0.8000071259842519
0
LINE
8
BLACK
6
CONTINUOUS
10
1.4388325984251968
20
0.8000071259842519
11
1.4350830708661417
21
0.8000071259842519
0
LINE
8
BLACK
6
CONTINUOUS
10
1.4350830708661417
20
0.8000071259842519
11
1.4345070078740156
21
0.8000638582677165
0
LINE
8
BLACK
6
CONTINUOUS
10
1.4345070078740156
20
0.8000638582677165
11
1.4344090157480314
21
0.8001044488188976
0
LINE
8
BLACK
6
CONTINUOUS
10
1.4344090157480314
20
0.8001044488188976
11
1.4343031496062992
21
0.800111968503937
0
LINE
8
BLACK
6
CONTINUOUS
10
1.4343031496062992
20
0.800111968503937
11
1.4337625590551182
21
0.8003188582677165
0
LINE
8
BLACK
6
CONTINUOUS
10
1.4337625590551182
20
0.8003188582677165
11
1.4300130314960631
21
0.8021936220472441
0
LINE
8
BLACK
6
CONTINUOUS
10
1.4300130314960631
20
0.8021936220472441
11
1.429765
21
0.8023497244094489
0
LINE
8
BLACK
6
CONTINUOUS
10
1.429765
20
0.8023497244094489
11
1.4296930708661417
21
0.8023795275590551
0
LINE
8
BLACK
6
CONTINUOUS
10
1.4296930708661417
20
0.8023795275590551
11
1.4296120866141733
21
0.8024459842519684
0
LINE
8
BLACK
6
CONTINUOUS
10
1.4296120866141733
20
0.8024459842519684
11
1.4295231496062992
21
0.802501968503937
0
LINE
8
BLACK
6
CONTINUOUS
10
1.4295231496062992
20
0.802501968503937
11
1.4294719291338582
21
0.8025610236220472
0
LINE
8
BLACK
6
CONTINUOUS
10
1.4294719291338582
20
0.8025610236220472
11
1.4292455905511812
21
0.8027467716535432
0
LINE
8
BLACK
6
CONTINUOUS
10
1.4292455905511812
20
0.8027467716535432
11
1.4273708267716536
21
0.8046215748031496
0
LINE
8
BLACK
6
CONTINUOUS
10
1.4273708267716536
20
0.8046215748031496
11
1.4271850787401574
21
0.8048479133858267
0
LINE
8
BLACK
6
CONTINUOUS
10
1.4271850787401574
20
0.8048479133858267
11
1.4271261023622046
21
0.8048990551181102
0
LINE
8
BLACK
6
CONTINUOUS
10
1.4271261023622046
20
0.8048990551181102
11
1.4270701181102361
21
0.8049879921259843
0
LINE
8
BLACK
6
CONTINUOUS
10
1.4270701181102361
20
0.8049879921259843
11
1.427003622047244
21
0.8050690157480315
0
LINE
8
BLACK
6
CONTINUOUS
10
1.427003622047244
20
0.8050690157480315
11
1.426973779527559
21
0.805141062992126
0
LINE
8
BLACK
6
CONTINUOUS
10
1.426973779527559
20
0.805141062992126
11
1.4268177559055117
21
0.805388937007874
0
LINE
8
BLACK
6
CONTINUOUS
10
1.4268177559055117
20
0.805388937007874
11
1.4249429921259842
21
0.8091384645669291
0
LINE
8
BLACK
6
CONTINUOUS
10
1.4249429921259842
20
0.8091384645669291
11
1.4249268503937007
21
0.8091805905511811
0
LINE
8
BLACK
6
CONTINUOUS
10
1.4249268503937007
20
0.8091805905511811
11
1.4249141732283463
21
0.809197716535433
0
LINE
8
BLACK
6
CONTINUOUS
10
1.4249141732283463
20
0.809197716535433
11
1.4248277165354331
21
0.80943968503937
0
LINE
8
BLACK
6
CONTINUOUS
10
1.4248277165354331
20
0.80943968503937
11
1.4247361023622047
21
0.809679094488189
0
LINE
8
BLACK
6
CONTINUOUS
10
1.4247361023622047
20
0.809679094488189
11
1.4247345669291338
21
0.8097003543307086
0
LINE
8
BLACK
6
CONTINUOUS
10
1.4247345669291338
20
0.8097003543307086
11
1.4247194094488189
21
0.8097428346456693
0
LINE
8
BLACK
6
CONTINUOUS
10
1.4247194094488189
20
0.8097428346456693
11
1.4228446456692914
21
0.8172418897637795
0
LINE
8
BLACK
6
CONTINUOUS
10
1.4228446456692914
20
0.8172418897637795
11
1.422829842519685
21
0.8173417716535433
0
LINE
8
BLACK
6
CONTINUOUS
10
1.422829842519685
20
0.8173417716535433
11
1.4228132283464567
21
0.817381968503937
0
LINE
8
BLACK
6
CONTINUOUS
10
1.4228132283464567
20
0.817381968503937
11
1.4227918503937007
21
0.8175990157480315
0
LINE
8
BLACK
6
CONTINUOUS
10
1.4227918503937007
20
0.8175990157480315
11
1.42276
21
0.8178144881889764
0
LINE
8
BLACK
6
CONTINUOUS
10
1.42276
20
0.8178144881889764
11
1.422766377952756
21
0.8178575196850394
0
LINE
8
BLACK
6
CONTINUOUS
10
1.422766377952756
20
0.8178575196850394
11
1.4227564960629921
21
0.8179580314960629
0
LINE
8
BLACK
6
CONTINUOUS
10
1.4227564960629921
20
0.8179580314960629
11
1.4227564960629921
21
0.8273318503937007
0
LINE
8
BLACK
6
CONTINUOUS
10
1.4227564960629921
20
0.8273318503937007
11
1.422766377952756
21
0.8274324015748031
0
LINE
8
BLACK
6
CONTINUOUS
10
1.422766377952756
20
0.8274324015748031
11
1.42276
21
0.8274753937007874
0
LINE
8
BLACK
6
CONTINUOUS
10
1.42276
20
0.8274753937007874
11
1.4227918503937007
21
0.827690905511811
0
LINE
8
BLACK
6
CONTINUOUS
10
1.4227918503937007
20
0.827690905511811
11
1.4228132283464567
21
0.8279079133858267
0
LINE
8
BLACK
6
CONTINUOUS
10
1.4228132283464567
20
0.8279079133858267
11
1.422829842519685
21
0.8279481496062991
0
LINE
8
BLACK
6
CONTINUOUS
10
1.422829842519685
20
0.8279481496062991
11
1.4228446456692914
21
0.8280479921259842
0
LINE
8
BLACK
6
CONTINUOUS
10
1.4228446456692914
20
0.8280479921259842
11
1.4247194094488189
21
0.8355470472440945
0
LINE
8
BLACK
6
CONTINUOUS
10
1.4247194094488189
20
0.8355470472440945
11
1.4247345669291338
21
0.8355895669291339
0
LINE
8
BLACK
6
CONTINUOUS
10
1.4247345669291338
20
0.8355895669291339
11
1.4247361023622047
21
0.8356107874015748
0
LINE
8
BLACK
6
CONTINUOUS
10
1.4247361023622047
20
0.8356107874015748
11
1.4248277165354331
21
0.8358502362204724
0
LINE
8
BLACK
6
CONTINUOUS
10
1.4248277165354331
20
0.8358502362204724
11
1.4249141732283463
21
0.8360921653543307
0
LINE
8
BLACK
6
CONTINUOUS
10
1.4249141732283463
20
0.8360921653543307
11
1.4249268503937007
21
0.8361093307086614
0
LINE
8
BLACK
6
CONTINUOUS
10
1.4249268503937007
20
0.8361093307086614
11
1.4249429921259842
21
0.8361514173228346
0
LINE
8
BLACK
6
CONTINUOUS
10
1.4249429921259842
20
0.8361514173228346
11
1.4268177559055117
21
0.8399009448818897
0
LINE
8
BLACK
6
CONTINUOUS
10
1.4268177559055117
20
0.8399009448818897
11
1.4269738188976377
21
0.8401489763779527
0
LINE
8
BLACK
6
CONTINUOUS
10
1.4269738188976377
20
0.8401489763779527
11
1.4270036614173227
21
0.8402209055118111
0
LINE
8
BLACK
6
CONTINUOUS
10
1.4270036614173227
20
0.8402209055118111
11
1.4270701181102361
21
0.8403018897637795
0
LINE
8
BLACK
6
CONTINUOUS
10
1.4270701181102361
20
0.8403018897637795
11
1.4271261023622046
21
0.8403908267716536
0
LINE
8
BLACK
6
CONTINUOUS
10
1.4271261023622046
20
0.8403908267716536
11
1.4271850787401574
21
0.8404420078740157
0
LINE
8
BLACK
6
CONTINUOUS
10
1.4271850787401574
20
0.8404420078740157
11
1.4273708661417321
21
0.8406683464566929
0
LINE
8
BLACK
6
CONTINUOUS
10
1.4273708661417321
20
0.8406683464566929
11
1.4292456299212599
21
0.8425431102362204
0
LINE
8
BLACK
6
CONTINUOUS
10
1.4292456299212599
20
0.8425431102362204
11
1.429471968503937
21
0.8427288976377952
0
LINE
8
BLACK
6
CONTINUOUS
10
1.429471968503937
20
0.8427288976377952
11
1.4295231496062992
21
0.8427878740157481
0
LINE
8
BLACK
6
CONTINUOUS
10
1.4295231496062992
20
0.8427878740157481
11
1.4296120866141733
21
0.8428438582677165
0
LINE
8
BLACK
6
CONTINUOUS
10
1.4296120866141733
20
0.8428438582677165
11
1.4296930708661417
21
0.8429103149606298
0
LINE
8
BLACK
6
CONTINUOUS
10
1.4296930708661417
20
0.8429103149606298
11
1.429765
21
0.8429401574803149
0
LINE
8
BLACK
6
CONTINUOUS
10
1.429765
20
0.8429401574803149
11
1.4300130314960631
21
0.8430962204724409
0
LINE
8
BLACK
6
CONTINUOUS
10
1.4300130314960631
20
0.8430962204724409
11
1.4337625590551182
21
0.8449709842519685
0
LINE
8
BLACK
6
CONTINUOUS
10
1.4337625590551182
20
0.8449709842519685
11
1.4343031496062992
21
0.8451778740157481
0
LINE
8
BLACK
6
CONTINUOUS
10
1.4343031496062992
20
0.8451778740157481
11
1.4344090157480314
21
0.8451854330708661
0
LINE
8
BLACK
6
CONTINUOUS
10
1.4344090157480314
20
0.8451854330708661
11
1.4345070078740156
21
0.8452259842519685
0
LINE
8
BLACK
6
CONTINUOUS
10
1.4345070078740156
20
0.8452259842519685
11
1.4350830708661417
21
0.8452827165354331
0
LINE
8
BLACK
6
CONTINUOUS
10
1.4350830708661417
20
0.8452827165354331
11
1.4388325984251968
21
0.8452827165354331
0
LINE
8
BLACK
6
CONTINUOUS
10
1.4388325984251968
20
0.8452827165354331
11
1.4394086614173227
21
0.8452259842519685
0
LINE
8
BLACK
6
CONTINUOUS
10
1.4330826377952754
20
0.8380284645669291
11
1.4318855118110236
21
0.8368313385826771
0
LINE
8
BLACK
6
CONTINUOUS
10
1.4318855118110236
20
0.8368313385826771
11
1.4303699999999999
21
0.8338003543307086
0
LINE
8
BLACK
6
CONTINUOUS
10
1.4303699999999999
20
0.8338003543307086
11
1.4286620078740158
21
0.8269683070866142
0
LINE
8
BLACK
6
CONTINUOUS
10
1.4286620078740158
20
0.8269683070866142
11
1.4286620078740158
21
0.8183215748031496
0
LINE
8
BLACK
6
CONTINUOUS
10
1.4286620078740158
20
0.8183215748031496
11
1.4303699999999999
21
0.8114895275590551
0
LINE
8
BLACK
6
CONTINUOUS
10
1.4303699999999999
20
0.8114895275590551
11
1.4318855118110236
21
0.8084585433070866
0
LINE
8
BLACK
6
CONTINUOUS
10
1.4318855118110236
20
0.8084585433070866
11
1.4330826377952754
21
0.8072613779527559
0
LINE
8
BLACK
6
CONTINUOUS
10
1.4330826377952754
20
0.8072613779527559
11
1.4357801181102361
21
0.8059126377952756
0
LINE
8
BLACK
6
CONTINUOUS
10
1.4357801181102361
20
0.8059126377952756
11
1.4381355511811023
21
0.8059126377952756
0
LINE
8
BLACK
6
CONTINUOUS
10
1.4381355511811023
20
0.8059126377952756
11
1.4408329921259841
21
0.8072613779527559
0
LINE
8
BLACK
6
CONTINUOUS
10
1.4408329921259841
20
0.8072613779527559
11
1.4420301181102362
21
0.8084585433070866
0
LINE
8
BLACK
6
CONTINUOUS
10
1.4420301181102362
20
0.8084585433070866
11
1.4435456299212599
21
0.8114895275590551
0
LINE
8
BLACK
6
CONTINUOUS
10
1.4435456299212599
20
0.8114895275590551
11
1.4452536614173228
21
0.8183215748031496
0
LINE
8
BLACK
6
CONTINUOUS
10
1.4452536614173228
20
0.8183215748031496
11
1.4452536614173228
21
0.8269683070866142
0
LINE
8
BLACK
6
CONTINUOUS
10
1.4452536614173228
20
0.8269683070866142
11
1.4435456299212599
21
0.8338003543307086
0
LINE
8
BLACK
6
CONTINUOUS
10
1.4435456299212599
20
0.8338003543307086
11
1.4420301574803149
21
0.8368313385826771
0
LINE
8
BLACK
6
CONTINUOUS
10
1.4420301574803149
20
0.8368313385826771
11
1.4408330314960629
21
0.8380284645669291
0
LINE
8
BLACK
6
CONTINUOUS
10
1.4408330314960629
20
0.8380284645669291
11
1.4381355511811023
21
0.8393772047244095
0
LINE
8
BLACK
6
CONTINUOUS
10
1.4381355511811023
20
0.8393772047244095
11
1.4357801181102361
21
0.8393772047244095
0
LINE
8
BLACK
6
CONTINUOUS
10
1.4357801181102361
20
0.8393772047244095
11
1.4330826377952754
21
0.8380284645669291
0
LINE
8
BLACK
6
CONTINUOUS
10
1.484403031496063
20
0.8452259842519685
11
1.4854674409448818
21
0.8447850787401575
0
LINE
8
BLACK
6
CONTINUOUS
10
1.4854674409448818
20
0.8447850787401575
11
1.4862820866141733
21
0.8439704330708662
0
LINE
8
BLACK
6
CONTINUOUS
10
1.4862820866141733
20
0.8439704330708662
11
1.4867229921259841
21
0.8429060236220473
0
LINE
8
BLACK
6
CONTINUOUS
10
1.4867229921259841
20
0.8429060236220473
11
1.4867229921259841
21
0.8417538976377953
0
LINE
8
BLACK
6
CONTINUOUS
10
1.4867229921259841
20
0.8417538976377953
11
1.4862820866141733
21
0.8406894881889764
0
LINE
8
BLACK
6
CONTINUOUS
10
1.4862820866141733
20
0.8406894881889764
11
1.4854674409448818
21
0.839874842519685
0
LINE
8
BLACK
6
CONTINUOUS
10
1.4854674409448818
20
0.839874842519685
11
1.484403031496063
21
0.8394339370078739
0
LINE
8
BLACK
6
CONTINUOUS
10
1.484403031496063
20
0.8394339370078739
11
1.4838269685039369
21
0.8393772047244095
0
LINE
8
BLACK
6
CONTINUOUS
10
1.4838269685039369
20
0.8393772047244095
11
1.4677515354330708
21
0.8393772047244095
0
LINE
8
BLACK
6
CONTINUOUS
10
1.4677515354330708
20
0.8393772047244095
11
1.4667744094488189
21
0.8296059448818898
0
LINE
8
BLACK
6
CONTINUOUS
10
1.4667744094488189
20
0.8296059448818898
11
1.4675083464566929
21
0.829972874015748
0
LINE
8
BLACK
6
CONTINUOUS
10
1.4675083464566929
20
0.829972874015748
11
1.468048937007874
21
0.8301797637795275
0
LINE
8
BLACK
6
CONTINUOUS
10
1.468048937007874
20
0.8301797637795275
11
1.4681548031496063
21
0.8301873228346457
0
LINE
8
BLACK
6
CONTINUOUS
10
1.4681548031496063
20
0.8301873228346457
11
1.4682527952755906
21
0.830227874015748
0
LINE
8
BLACK
6
CONTINUOUS
10
1.4682527952755906
20
0.830227874015748
11
1.4688288582677165
21
0.8302846062992125
0
LINE
8
BLACK
6
CONTINUOUS
10
1.4688288582677165
20
0.8302846062992125
11
1.4782026771653543
21
0.8302846062992125
0
LINE
8
BLACK
6
CONTINUOUS
10
1.4782026771653543
20
0.8302846062992125
11
1.4787787401574803
21
0.830227874015748
0
LINE
8
BLACK
6
CONTINUOUS
10
1.4787787401574803
20
0.830227874015748
11
1.4788767322834646
21
0.8301872834645669
0
LINE
8
BLACK
6
CONTINUOUS
10
1.4788767322834646
20
0.8301872834645669
11
1.478982559055118
21
0.8301797637795275
0
LINE
8
BLACK
6
CONTINUOUS
10
1.478982559055118
20
0.8301797637795275
11
1.479523188976378
21
0.829972874015748
0
LINE
8
BLACK
6
CONTINUOUS
10
1.479523188976378
20
0.829972874015748
11
1.4832727165354331
21
0.8280981102362205
0
LINE
8
BLACK
6
CONTINUOUS
10
1.4832727165354331
20
0.8280981102362205
11
1.4835207086614173
21
0.8279420472440945
0
LINE
8
BLACK
6
CONTINUOUS
10
1.4835207086614173
20
0.8279420472440945
11
1.4835926771653543
21
0.8279122047244094
0
LINE
8
BLACK
6
CONTINUOUS
10
1.4835926771653543
20
0.8279122047244094
11
1.483673622047244
21
0.827845748031496
0
LINE
8
BLACK
6
CONTINUOUS
10
1.483673622047244
20
0.827845748031496
11
1.4837625984251968
21
0.8277897637795275
0
LINE
8
BLACK
6
CONTINUOUS
10
1.4837625984251968
20
0.8277897637795275
11
1.4838137401574802
21
0.8277307874015748
0
LINE
8
BLACK
6
CONTINUOUS
10
1.4838137401574802
20
0.8277307874015748
11
1.4840401181102363
21
0.827545
0
LINE
8
BLACK
6
CONTINUOUS
10
1.4840401181102363
20
0.827545
11
1.4859148818897638
21
0.8256702362204724
0
LINE
8
BLACK
6
CONTINUOUS
10
1.4859148818897638
20
0.8256702362204724
11
1.4861006299212598
21
0.8254438976377952
0
LINE
8
BLACK
6
CONTINUOUS
10
1.4861006299212598
20
0.8254438976377952
11
1.4861596456692914
21
0.825392716535433
0
LINE
8
BLACK
6
CONTINUOUS
10
1.4861596456692914
20
0.825392716535433
11
1.4862155905511811
21
0.8253037795275591
0
LINE
8
BLACK
6
CONTINUOUS
10
1.4862155905511811
20
0.8253037795275591
11
1.4862820866141733
21
0.8252227952755905
0
LINE
8
BLACK
6
CONTINUOUS
10
1.4862820866141733
20
0.8252227952755905
11
1.4863118897637795
21
0.8251508661417323
0
LINE
8
BLACK
6
CONTINUOUS
10
1.4863118897637795
20
0.8251508661417323
11
1.4864679921259842
21
0.8249028346456693
0
LINE
8
BLACK
6
CONTINUOUS
10
1.4864679921259842
20
0.8249028346456693
11
1.4883427559055118
21
0.8211533070866142
0
LINE
8
BLACK
6
CONTINUOUS
10
1.4883427559055118
20
0.8211533070866142
11
1.4885496456692913
21
0.8206127165354331
0
LINE
8
BLACK
6
CONTINUOUS
10
1.4885496456692913
20
0.8206127165354331
11
1.4885571653543306
21
0.8205068503937007
0
LINE
8
BLACK
6
CONTINUOUS
10
1.4885571653543306
20
0.8205068503937007
11
1.4885977559055117
21
0.8204088582677165
0
LINE
8
BLACK
6
CONTINUOUS
10
1.4885977559055117
20
0.8204088582677165
11
1.4886544881889763
21
0.8198327952755905
0
LINE
8
BLACK
6
CONTINUOUS
10
1.4886544881889763
20
0.8198327952755905
11
1.4886544881889763
21
0.8104589763779527
0
LINE
8
BLACK
6
CONTINUOUS
10
1.4886544881889763
20
0.8104589763779527
11
1.4885977559055117
21
0.8098829133858267
0
LINE
8
BLACK
6
CONTINUOUS
10
1.4885977559055117
20
0.8098829133858267
11
1.4885571653543306
21
0.8097849606299212
0
LINE
8
BLACK
6
CONTINUOUS
10
1.4885571653543306
20
0.8097849606299212
11
1.4885496456692913
21
0.8096790551181102
0
LINE
8
BLACK
6
CONTINUOUS
10
1.4885496456692913
20
0.8096790551181102
11
1.4883427559055118
21
0.8091384645669291
0
LINE
8
BLACK
6
CONTINUOUS
10
1.4883427559055118
20
0.8091384645669291
11
1.4864679921259842
21
0.805388937007874
0
LINE
8
BLACK
6
CONTINUOUS
10
1.4864679921259842
20
0.805388937007874
11
1.4863119291338582
21
0.805141062992126
0
LINE
8
BLACK
6
CONTINUOUS
10
1.4863119291338582
20
0.805141062992126
11
1.486282125984252
21
0.8050690157480315
0
LINE
8
BLACK
6
CONTINUOUS
10
1.486282125984252
20
0.8050690157480315
11
1.4862155905511811
21
0.8049879921259843
0
LINE
8
BLACK
6
CONTINUOUS
10
1.4862155905511811
20
0.8049879921259843
11
1.4861596456692914
21
0.8048990551181102
0
LINE
8
BLACK
6
CONTINUOUS
10
1.4861596456692914
20
0.8048990551181102
11
1.4861006299212598
21
0.8048479133858267
0
LINE
8
BLACK
6
CONTINUOUS
10
1.4861006299212598
20
0.8048479133858267
11
1.4859148818897638
21
0.8046215354330708
0
LINE
8
BLACK
6
CONTINUOUS
10
1.4859148818897638
20
0.8046215354330708
11
1.484040157480315
21
0.8027467716535432
0
LINE
8
BLACK
6
CONTINUOUS
10
1.484040157480315
20
0.8027467716535432
11
1.483813779527559
21
0.8025610236220472
0
LINE
8
BLACK
6
CONTINUOUS
10
1.483813779527559
20
0.8025610236220472
11
1.4837625984251968
21
0.802501968503937
0
LINE
8
BLACK
6
CONTINUOUS
10
1.4837625984251968
20
0.802501968503937
11
1.483673622047244
21
0.8024459842519684
0
LINE
8
BLACK
6
CONTINUOUS
10
1.483673622047244
20
0.8024459842519684
11
1.4835926771653543
21
0.8023795275590551
0
LINE
8
BLACK
6
CONTINUOUS
10
1.4835926771653543
20
0.8023795275590551
11
1.4835207086614173
21
0.8023497244094489
0
LINE
8
BLACK
6
CONTINUOUS
10
1.4835207086614173
20
0.8023497244094489
11
1.4832727165354331
21
0.8021936220472441
0
LINE
8
BLACK
6
CONTINUOUS
10
1.4832727165354331
20
0.8021936220472441
11
1.479523188976378
21
0.8003188582677165
0
LINE
8
BLACK
6
CONTINUOUS
10
1.479523188976378
20
0.8003188582677165
11
1.478982559055118
21
0.800111968503937
0
LINE
8
BLACK
6
CONTINUOUS
10
1.478982559055118
20
0.800111968503937
11
1.4788767322834646
21
0.8001044881889764
0
LINE
8
BLACK
6
CONTINUOUS
10
1.4788767322834646
20
0.8001044881889764
11
1.4787787401574803
21
0.8000638582677165
0
LINE
8
BLACK
6
CONTINUOUS
10
1.4787787401574803
20
0.8000638582677165
11
1.4782026771653543
21
0.8000071259842519
0
LINE
8
BLACK
6
CONTINUOUS
10
1.4782026771653543
20
0.8000071259842519
11
1.4688288582677165
21
0.8000071259842519
0
LINE
8
BLACK
6
CONTINUOUS
10
1.4688288582677165
20
0.8000071259842519
11
1.4682527952755906
21
0.8000638582677165
0
LINE
8
BLACK
6
CONTINUOUS
10
1.4682527952755906
20
0.8000638582677165
11
1.4681548031496063
21
0.8001044488188976
0
LINE
8
BLACK
6
CONTINUOUS
10
1.4681548031496063
20
0.8001044488188976
11
1.468048937007874
21
0.800111968503937
0
LINE
8
BLACK
6
CONTINUOUS
10
1.468048937007874
20
0.800111968503937
11
1.4675083464566929
21
0.8003188582677165
0
LINE
8
BLACK
6
CONTINUOUS
10
1.4675083464566929
20
0.8003188582677165
11
1.4637588188976378
21
0.8021936220472441
0
LINE
8
BLACK
6
CONTINUOUS
10
1.4637588188976378
20
0.8021936220472441
11
1.4635107874015747
21
0.8023497244094489
0
LINE
8
BLACK
6
CONTINUOUS
10
1.4635107874015747
20
0.8023497244094489
11
1.4634388582677165
21
0.8023795275590551
0
LINE
8
BLACK
6
CONTINUOUS
10
1.4634388582677165
20
0.8023795275590551
11
1.463357874015748
21
0.8024459842519684
0
LINE
8
BLACK
6
CONTINUOUS
10
1.463357874015748
20
0.8024459842519684
11
1.463268937007874
21
0.802501968503937
0
LINE
8
BLACK
6
CONTINUOUS
10
1.463268937007874
20
0.802501968503937
11
1.463217716535433
21
0.8025610236220472
0
LINE
8
BLACK
6
CONTINUOUS
10
1.463217716535433
20
0.8025610236220472
11
1.4629913779527559
21
0.8027467716535432
0
LINE
8
BLACK
6
CONTINUOUS
10
1.4629913779527559
20
0.8027467716535432
11
1.4611166141732284
21
0.8046215748031496
0
LINE
8
BLACK
6
CONTINUOUS
10
1.4611166141732284
20
0.8046215748031496
11
1.4607494094488189
21
0.8050690157480315
0
LINE
8
BLACK
6
CONTINUOUS
10
1.4607494094488189
20
0.8050690157480315
11
1.4603085433070866
21
0.8061334251968504
0
LINE
8
BLACK
6
CONTINUOUS
10
1.4603085433070866
20
0.8061334251968504
11
1.4603085433070866
21
0.8072855118110236
0
LINE
8
BLACK
6
CONTINUOUS
10
1.4603085433070866
20
0.8072855118110236
11
1.4607494488188977
21
0.8083499212598425
0
LINE
8
BLACK
6
CONTINUOUS
10
1.4607494488188977
20
0.8083499212598425
11
1.4615641338582677
21
0.8091646062992126
0
LINE
8
BLACK
6
CONTINUOUS
10
1.4615641338582677
20
0.8091646062992126
11
1.4626285433070865
21
0.8096054724409448
0
LINE
8
BLACK
6
CONTINUOUS
10
1.4626285433070865
20
0.8096054724409448
11
1.4637806299212599
21
0.8096054724409448
0
LINE
8
BLACK
6
CONTINUOUS
10
1.4637806299212599
20
0.8096054724409448
11
1.4648450393700787
21
0.8091645669291339
0
LINE
8
BLACK
6
CONTINUOUS
10
1.4648450393700787
20
0.8091645669291339
11
1.4652925196850393
21
0.8087973228346457
0
LINE
8
BLACK
6
CONTINUOUS
10
1.4652925196850393
20
0.8087973228346457
11
1.4668284251968504
21
0.8072613779527559
0
LINE
8
BLACK
6
CONTINUOUS
10
1.4668284251968504
20
0.8072613779527559
11
1.4695259055118111
21
0.8059126377952756
0
LINE
8
BLACK
6
CONTINUOUS
10
1.4695259055118111
20
0.8059126377952756
11
1.4775056299212599
21
0.8059126377952756
0
LINE
8
BLACK
6
CONTINUOUS
10
1.4775056299212599
20
0.8059126377952756
11
1.4802030708661418
21
0.8072613779527559
0
LINE
8
BLACK
6
CONTINUOUS
10
1.4802030708661418
20
0.8072613779527559
11
1.4814001968503936
21
0.8084585433070866
0
LINE
8
BLACK
6
CONTINUOUS
10
1.4814001968503936
20
0.8084585433070866
11
1.4827489763779527
21
0.8111560236220472
0
LINE
8
BLACK
6
CONTINUOUS
10
1.4827489763779527
20
0.8111560236220472
11
1.4827489763779527
21
0.819135748031496
0
LINE
8
BLACK
6
CONTINUOUS
10
1.4827489763779527
20
0.819135748031496
11
1.4814002362204723
21
0.8218332283464567
0
LINE
8
BLACK
6
CONTINUOUS
10
1.4814002362204723
20
0.8218332283464567
11
1.4802031102362205
21
0.8230303543307086
0
LINE
8
BLACK
6
CONTINUOUS
10
1.4802031102362205
20
0.8230303543307086
11
1.4775056299212599
21
0.8243790944881889
0
LINE
8
BLACK
6
CONTINUOUS
10
1.4775056299212599
20
0.8243790944881889
11
1.4695259055118111
21
0.8243790944881889
0
LINE
8
BLACK
6
CONTINUOUS
10
1.4695259055118111
20
0.8243790944881889
11
1.4668284251968504
21
0.8230303543307086
0
LINE
8
BLACK
6
CONTINUOUS
10
1.4668284251968504
20
0.8230303543307086
11
1.4652924803149605
21
0.8214944094488189
0
LINE
8
BLACK
6
CONTINUOUS
10
1.4652924803149605
20
0.8214944094488189
11
1.4648450393700787
21
0.8211272047244095
0
LINE
8
BLACK
6
CONTINUOUS
10
1.4648450393700787
20
0.8211272047244095
11
1.4647076771653542
21
0.8210703149606299
0
LINE
8
BLACK
6
CONTINUOUS
10
1.4647076771653542
20
0.8210703149606299
11
1.4645925984251968
21
0.8209761417322834
0
LINE
8
BLACK
6
CONTINUOUS
10
1.4645925984251968
20
0.8209761417322834
11
1.4641792125984252
21
0.8208514566929134
0
LINE
8
BLACK
6
CONTINUOUS
10
1.4641792125984252
20
0.8208514566929134
11
1.4637805905511811
21
0.8206862992125984
0
LINE
8
BLACK
6
CONTINUOUS
10
1.4637805905511811
20
0.8206862992125984
11
1.463631968503937
21
0.8206862992125984
0
LINE
8
BLACK
6
CONTINUOUS
10
1.463631968503937
20
0.8206862992125984
11
1.4634896062992127
21
0.8206433464566929
0
LINE
8
BLACK
6
CONTINUOUS
10
1.4634896062992127
20
0.8206433464566929
11
1.4630600787401575
21
0.8206862992125984
0
LINE
8
BLACK
6
CONTINUOUS
10
1.4630600787401575
20
0.8206862992125984
11
1.4626285433070865
21
0.8206862992125984
0
LINE
8
BLACK
6
CONTINUOUS
10
1.4626285433070865
20
0.8206862992125984
11
1.4624911811023622
21
0.8207432283464566
0
LINE
8
BLACK
6
CONTINUOUS
10
1.4624911811023622
20
0.8207432283464566
11
1.4623431889763778
21
0.8207579921259842
0
LINE
8
BLACK
6
CONTINUOUS
10
1.4623431889763778
20
0.8207579921259842
11
1.4619627952755905
21
0.8209620472440945
0
LINE
8
BLACK
6
CONTINUOUS
10
1.4619627952755905
20
0.8209620472440945
11
1.4615640944881889
21
0.8211272047244095
0
LINE
8
BLACK
6
CONTINUOUS
10
1.4615640944881889
20
0.8211272047244095
11
1.4614588976377954
21
0.8212324015748032
0
LINE
8
BLACK
6
CONTINUOUS
10
1.4614588976377954
20
0.8212324015748032
11
1.4613279527559055
21
0.8213026377952756
0
LINE
8
BLACK
6
CONTINUOUS
10
1.4613279527559055
20
0.8213026377952756
11
1.46105468503937
21
0.8216366141732283
0
LINE
8
BLACK
6
CONTINUOUS
10
1.46105468503937
20
0.8216366141732283
11
1.4607494488188977
21
0.8219418503937008
0
LINE
8
BLACK
6
CONTINUOUS
10
1.4607494488188977
20
0.8219418503937008
11
1.4606925196850393
21
0.8220792125984252
0
LINE
8
BLACK
6
CONTINUOUS
10
1.4606925196850393
20
0.8220792125984252
11
1.4605983858267717
21
0.8221942913385827
0
LINE
8
BLACK
6
CONTINUOUS
10
1.4605983858267717
20
0.8221942913385827
11
1.4604736614173228
21
0.8226076771653543
0
LINE
8
BLACK
6
CONTINUOUS
10
1.4604736614173228
20
0.8226076771653543
11
1.4603085433070866
21
0.8230062992125984
0
LINE
8
BLACK
6
CONTINUOUS
10
1.4603085433070866
20
0.8230062992125984
11
1.4603085433070866
21
0.8231549606299212
0
LINE
8
BLACK
6
CONTINUOUS
10
1.4603085433070866
20
0.8231549606299212
11
1.460265590551181
21
0.8232972834645669
0
LINE
8
BLACK
6
CONTINUOUS
10
1.460265590551181
20
0.8232972834645669
11
1.4602664566929133
21
0.8238761417322834
0
LINE
8
BLACK
6
CONTINUOUS
10
1.4602664566929133
20
0.8238761417322834
11
1.4621412204724409
21
0.8426237795275591
0
LINE
8
BLACK
6
CONTINUOUS
10
1.4621412204724409
20
0.8426237795275591
11
1.4621833070866141
21
0.8428337401574802
0
LINE
8
BLACK
6
CONTINUOUS
10
1.4621833070866141
20
0.8428337401574802
11
1.4621833070866141
21
0.8429060236220473
0
LINE
8
BLACK
6
CONTINUOUS
10
1.4621833070866141
20
0.8429060236220473
11
1.4622113779527559
21
0.8429738582677165
0
LINE
8
BLACK
6
CONTINUOUS
10
1.4622113779527559
20
0.8429738582677165
11
1.4622549999999999
21
0.8431913385826771
0
LINE
8
BLACK
6
CONTINUOUS
10
1.4622549999999999
20
0.8431913385826771
11
1.4624590157480315
21
0.8435716535433071
0
LINE
8
BLACK
6
CONTINUOUS
10
1.4624590157480315
20
0.8435716535433071
11
1.4626242125984252
21
0.8439704330708662
0
LINE
8
BLACK
6
CONTINUOUS
10
1.4626242125984252
20
0.8439704330708662
11
1.46272937007874
21
0.8440756299212598
0
LINE
8
BLACK
6
CONTINUOUS
10
1.46272937007874
20
0.8440756299212598
11
1.4627996456692913
21
0.8442065748031495
0
LINE
8
BLACK
6
CONTINUOUS
10
1.4627996456692913
20
0.8442065748031495
11
1.4631335826771654
21
0.844479842519685
0
LINE
8
BLACK
6
CONTINUOUS
10
1.4631335826771654
20
0.844479842519685
11
1.4634388582677165
21
0.8447850787401575
0
LINE
8
BLACK
6
CONTINUOUS
10
1.4634388582677165
20
0.8447850787401575
11
1.4635761811023622
21
0.8448420078740158
0
LINE
8
BLACK
6
CONTINUOUS
10
1.4635761811023622
20
0.8448420078740158
11
1.4636912992125983
21
0.8449361417322835
0
LINE
8
BLACK
6
CONTINUOUS
10
1.4636912992125983
20
0.8449361417322835
11
1.4641045669291339
21
0.8450608661417323
0
LINE
8
BLACK
6
CONTINUOUS
10
1.4641045669291339
20
0.8450608661417323
11
1.4645032677165355
21
0.8452259842519685
0
LINE
8
BLACK
6
CONTINUOUS
10
1.4645032677165355
20
0.8452259842519685
11
1.464723937007874
21
0.8452477559055118
0
LINE
8
BLACK
6
CONTINUOUS
10
1.464723937007874
20
0.8452477559055118
11
1.4647942913385827
21
0.845268937007874
0
LINE
8
BLACK
6
CONTINUOUS
10
1.4647942913385827
20
0.845268937007874
11
1.4648662598425197
21
0.8452617716535433
0
LINE
8
BLACK
6
CONTINUOUS
10
1.4648662598425197
20
0.8452617716535433
11
1.4650793307086614
21
0.8452827165354331
0
LINE
8
BLACK
6
CONTINUOUS
10
1.4650793307086614
20
0.8452827165354331
11
1.4838269685039369
21
0.8452827165354331
0
LINE
8
BLACK
6
CONTINUOUS
10
1.4838269685039369
20
0.8452827165354331
11
1.484403031496063
21
0.8452259842519685
0
LINE
8
BLACK
6
CONTINUOUS
10
1.5122321259842519
20
0.8452259842519685
11
1.5125245275590551
21
0.8452259842519685
0
LINE
8
BLACK
6
CONTINUOUS
10
1.5125245275590551
20
0.8452259842519685
11
1.5127917716535433
21
0.8451152755905511
0
LINE
8
BLACK
6
CONTINUOUS
10
1.5127917716535433
20
0.8451152755905511
11
1.513075590551181
21
0.8450591338582677
0
LINE
8
BLACK
6
CONTINUOUS
10
1.513075590551181
20
0.8450591338582677
11
1.5133188582677164
21
0.844896968503937
0
LINE
8
BLACK
6
CONTINUOUS
10
1.5133188582677164
20
0.844896968503937
11
1.5135889370078739
21
0.8447850787401575
0
LINE
8
BLACK
6
CONTINUOUS
10
1.5135889370078739
20
0.8447850787401575
11
1.5137933858267716
21
0.8445806299212598
0
LINE
8
BLACK
6
CONTINUOUS
10
1.5137933858267716
20
0.8445806299212598
11
1.5140342125984252
21
0.8444200787401575
0
LINE
8
BLACK
6
CONTINUOUS
10
1.5140342125984252
20
0.8444200787401575
11
1.5141969291338582
21
0.8441770866141732
0
LINE
8
BLACK
6
CONTINUOUS
10
1.5141969291338582
20
0.8441770866141732
11
1.5144035826771653
21
0.8439704330708662
0
LINE
8
BLACK
6
CONTINUOUS
10
1.5144035826771653
20
0.8439704330708662
11
1.514514251968504
21
0.8437032283464567
0
LINE
8
BLACK
6
CONTINUOUS
10
1.514514251968504
20
0.8437032283464567
11
1.514675275590551
21
0.8434627952755905
0
LINE
8
BLACK
6
CONTINUOUS
10
1.514675275590551
20
0.8434627952755905
11
1.5147325984251969
21
0.8431761417322834
0
LINE
8
BLACK
6
CONTINUOUS
10
1.5147325984251969
20
0.8431761417322834
11
1.5148444881889764
21
0.8429060236220473
0
LINE
8
BLACK
6
CONTINUOUS
10
1.5148444881889764
20
0.8429060236220473
11
1.514900590551181
21
0.8423361023622047
0
LINE
8
BLACK
6
CONTINUOUS
10
1.514900590551181
20
0.8423361023622047
11
1.5149012204724408
21
0.8423330708661417
0
LINE
8
BLACK
6
CONTINUOUS
10
1.5149012204724408
20
0.8423330708661417
11
1.5149009842519685
21
0.8423320472440945
0
LINE
8
BLACK
6
CONTINUOUS
10
1.5149009842519685
20
0.8423320472440945
11
1.5149012204724408
21
0.8423299606299213
0
LINE
8
BLACK
6
CONTINUOUS
10
1.5149012204724408
20
0.8423299606299213
11
1.5149012204724408
21
0.8059126377952756
0
LINE
8
BLACK
6
CONTINUOUS
10
1.5149012204724408
20
0.8059126377952756
11
1.5231970472440945
21
0.8059126377952756
0
LINE
8
BLACK
6
CONTINUOUS
10
1.5231970472440945
20
0.8059126377952756
11
1.5237731102362204
21
0.805855905511811
0
LINE
8
BLACK
6
CONTINUOUS
10
1.5237731102362204
20
0.805855905511811
11
1.5248375196850394
21
0.805415
0
LINE
8
BLACK
6
CONTINUOUS
10
1.5248375196850394
20
0.805415
11
1.5256521653543307
21
0.8046003543307086
0
LINE
8
BLACK
6
CONTINUOUS
10
1.5256521653543307
20
0.8046003543307086
11
1.5260930708661418
21
0.8035359448818897
0
LINE
8
BLACK
6
CONTINUOUS
10
1.5260930708661418
20
0.8035359448818897
11
1.5260930708661418
21
0.8023838188976378
0
LINE
8
BLACK
6
CONTINUOUS
10
1.5260930708661418
20
0.8023838188976378
11
1.5256521653543307
21
0.8013194094488189
0
LINE
8
BLACK
6
CONTINUOUS
10
1.5256521653543307
20
0.8013194094488189
11
1.5248375196850394
21
0.8005047637795275
0
LINE
8
BLACK
6
CONTINUOUS
10
1.5248375196850394
20
0.8005047637795275
11
1.5237731102362204
21
0.8000638582677165
0
LINE
8
BLACK
6
CONTINUOUS
10
1.5237731102362204
20
0.8000638582677165
11
1.5231970472440945
21
0.8000071259842519
0
LINE
8
BLACK
6
CONTINUOUS
10
1.5231970472440945
20
0.8000071259842519
11
1.5006998818897637
21
0.8000071259842519
0
LINE
8
BLACK
6
CONTINUOUS
10
1.5006998818897637
20
0.8000071259842519
11
1.5001238188976378
21
0.8000638582677165
0
LINE
8
BLACK
6
CONTINUOUS
10
1.5001238188976378
20
0.8000638582677165
11
1.4990594094488188
21
0.8005047637795275
0
LINE
8
BLACK
6
CONTINUOUS
10
1.4990594094488188
20
0.8005047637795275
11
1.4982447637795275
21
0.8013194094488189
0
LINE
8
BLACK
6
CONTINUOUS
10
1.4982447637795275
20
0.8013194094488189
11
1.4978038582677164
21
0.8023838188976378
0
LINE
8
BLACK
6
CONTINUOUS
10
1.4978038582677164
20
0.8023838188976378
11
1.4978038582677164
21
0.8035359448818897
0
LINE
8
BLACK
6
CONTINUOUS
10
1.4978038582677164
20
0.8035359448818897
11
1.4982447637795275
21
0.8046003543307086
0
LINE
8
BLACK
6
CONTINUOUS
10
1.4982447637795275
20
0.8046003543307086
11
1.4990594094488188
21
0.805415
0
LINE
8
BLACK
6
CONTINUOUS
10
1.4990594094488188
20
0.805415
11
1.5001238188976378
21
0.805855905511811
0
LINE
8
BLACK
6
CONTINUOUS
10
1.5001238188976378
20
0.805855905511811
11
1.5006998818897637
21
0.8059126377952756
0
LINE
8
BLACK
6
CONTINUOUS
10
1.5006998818897637
20
0.8059126377952756
11
1.5089957086614172
21
0.8059126377952756
0
LINE
8
BLACK
6
CONTINUOUS
10
1.5089957086614172
20
0.8059126377952756
11
1.5089957086614172
21
0.8333266141732283
0
LINE
8
BLACK
6
CONTINUOUS
10
1.5089957086614172
20
0.8333266141732283
11
1.5065373228346457
21
0.8308682283464567
0
LINE
8
BLACK
6
CONTINUOUS
10
1.5065373228346457
20
0.8308682283464567
11
1.5063109448818897
21
0.8306824803149606
0
LINE
8
BLACK
6
CONTINUOUS
10
1.5063109448818897
20
0.8306824803149606
11
1.5062598031496062
21
0.8306234645669291
0
LINE
8
BLACK
6
CONTINUOUS
10
1.5062598031496062
20
0.8306234645669291
11
1.5061708267716536
21
0.8305675196850394
0
LINE
8
BLACK
6
CONTINUOUS
10
1.5061708267716536
20
0.8305675196850394
11
1.5060898818897637
21
0.8305010236220473
0
LINE
8
BLACK
6
CONTINUOUS
10
1.5060898818897637
20
0.8305010236220473
11
1.5060179133858267
21
0.8304712204724409
0
LINE
8
BLACK
6
CONTINUOUS
10
1.5060179133858267
20
0.8304712204724409
11
1.5057699212598425
21
0.8303151181102362
0
LINE
8
BLACK
6
CONTINUOUS
10
1.5057699212598425
20
0.8303151181102362
11
1.5020203937007874
21
0.8284403543307086
0
LINE
8
BLACK
6
CONTINUOUS
10
1.5020203937007874
20
0.8284403543307086
11
1.5014797637795276
21
0.8282334645669291
0
LINE
8
BLACK
6
CONTINUOUS
10
1.5014797637795276
20
0.8282334645669291
11
1.5003305511811023
21
0.828151811023622
0
LINE
8
BLACK
6
CONTINUOUS
10
1.5003305511811023
20
0.828151811023622
11
1.4992375984251969
21
0.8285161417322835
0
LINE
8
BLACK
6
CONTINUOUS
10
1.4992375984251969
20
0.8285161417322835
11
1.4983672047244094
21
0.8292709842519684
0
LINE
8
BLACK
6
CONTINUOUS
10
1.4983672047244094
20
0.8292709842519684
11
1.4978519685039369
21
0.8303014960629921
0
LINE
8
BLACK
6
CONTINUOUS
10
1.4978519685039369
20
0.8303014960629921
11
1.4977703149606298
21
0.8314507086614173
0
LINE
8
BLACK
6
CONTINUOUS
10
1.4977703149606298
20
0.8314507086614173
11
1.4981346456692912
21
0.8325436614173228
0
LINE
8
BLACK
6
CONTINUOUS
10
1.4981346456692912
20
0.8325436614173228
11
1.4988894881889763
21
0.8334140551181102
0
LINE
8
BLACK
6
CONTINUOUS
10
1.4988894881889763
20
0.8334140551181102
11
1.4993793700787401
21
0.8337224015748032
0
LINE
8
BLACK
6
CONTINUOUS
10
1.4993793700787401
20
0.8337224015748032
11
1.5027003149606299
21
0.8353828740157481
0
LINE
8
BLACK
6
CONTINUOUS
10
1.5027003149606299
20
0.8353828740157481
11
1.5059042125984252
21
0.8385867716535433
0
LINE
8
BLACK
6
CONTINUOUS
10
1.5059042125984252
20
0.8385867716535433
11
1.5094916141732284
21
0.843967874015748
0
LINE
8
BLACK
6
CONTINUOUS
10
1.5094916141732284
20
0.843967874015748
11
1.5094929527559056
21
0.8439695669291338
0
LINE
8
BLACK
6
CONTINUOUS
10
1.5094929527559056
20
0.8439695669291338
11
1.5094933464566929
21
0.8439704330708662
0
LINE
8
BLACK
6
CONTINUOUS
10
1.5094933464566929
20
0.8439704330708662
11
1.5094953543307086
21
0.8439724803149606
0
LINE
8
BLACK
6
CONTINUOUS
10
1.5094953543307086
20
0.8439724803149606
11
1.5098583858267716
21
0.8444157086614174
0
LINE
8
BLACK
6
CONTINUOUS
10
1.5098583858267716
20
0.8444157086614174
11
1.5101012598425196
21
0.8445783858267716
0
LINE
8
BLACK
6
CONTINUOUS
10
1.5101012598425196
20
0.8445783858267716
11
1.5103079921259843
21
0.8447850787401575
0
LINE
8
BLACK
6
CONTINUOUS
10
1.5103079921259843
20
0.8447850787401575
11
1.510575275590551
21
0.8448958267716535
0
LINE
8
BLACK
6
CONTINUOUS
10
1.510575275590551
20
0.8448958267716535
11
1.5108156692913386
21
0.8450567716535433
0
LINE
8
BLACK
6
CONTINUOUS
10
1.5108156692913386
20
0.8450567716535433
11
1.5111022834645669
21
0.8451141338582677
0
LINE
8
BLACK
6
CONTINUOUS
10
1.5111022834645669
20
0.8451141338582677
11
1.5113724015748031
21
0.8452259842519685
0
LINE
8
BLACK
6
CONTINUOUS
10
1.5113724015748031
20
0.8452259842519685
11
1.5116616929133857
21
0.8452259842519685
0
LINE
8
BLACK
6
CONTINUOUS
10
1.5116616929133857
20
0.8452259842519685
11
1.5119453543307086
21
0.8452827165354331
0
LINE
8
BLACK
6
CONTINUOUS
10
1.5119453543307086
20
0.8452827165354331
11
1.5122321259842519
21
0.8452259842519685
0
LINE
8
BLACK
6
CONTINUOUS
10
1.6453404724409448
20
0.8452259842519685
11
1.645632874015748
21
0.8452259842519685
0
LINE
8
BLACK
6
CONTINUOUS
10
1.645632874015748
20
0.8452259842519685
11
1.6459001181102362
21
0.8451152755905511
0
LINE
8
BLACK
6
CONTINUOUS
10
1.6459001181102362
20
0.8451152755905511
11
1.6461839370078739
21
0.8450591338582677
0
LINE
8
BLACK
6
CONTINUOUS
10
1.6461839370078739
20
0.8450591338582677
11
1.6464272047244095
21
0.844896968503937
0
LINE
8
BLACK
6
CONTINUOUS
10
1.6464272047244095
20
0.844896968503937
11
1.6466972834645668
21
0.8447850787401575
0
LINE
8
BLACK
6
CONTINUOUS
10
1.6466972834645668
20
0.8447850787401575
11
1.6469017322834645
21
0.8445806299212598
0
LINE
8
BLACK
6
CONTINUOUS
10
1.6469017322834645
20
0.8445806299212598
11
1.6471425590551181
21
0.8444200787401575
0
LINE
8
BLACK
6
CONTINUOUS
10
1.6471425590551181
20
0.8444200787401575
11
1.6473052755905511
21
0.8441770866141732
0
LINE
8
BLACK
6
CONTINUOUS
10
1.6473052755905511
20
0.8441770866141732
11
1.6475119291338582
21
0.8439704330708662
0
LINE
8
BLACK
6
CONTINUOUS
10
1.6475119291338582
20
0.8439704330708662
11
1.6476225984251969
21
0.8437032283464567
0
LINE
8
BLACK
6
CONTINUOUS
10
1.6476225984251969
20
0.8437032283464567
11
1.6477836220472442
21
0.8434627952755905
0
LINE
8
BLACK
6
CONTINUOUS
10
1.6477836220472442
20
0.8434627952755905
11
1.6478409448818898
21
0.8431761417322834
0
LINE
8
BLACK
6
CONTINUOUS
10
1.6478409448818898
20
0.8431761417322834
11
1.6479528346456693
21
0.8429060236220473
0
LINE
8
BLACK
6
CONTINUOUS
10
1.6479528346456693
20
0.8429060236220473
11
1.6480089370078739
21
0.8423361023622047
0
LINE
8
BLACK
6
CONTINUOUS
10
1.6480089370078739
20
0.8423361023622047
11
1.6480095669291339
21
0.8423330708661417
0
LINE
8
BLACK
6
CONTINUOUS
10
1.6480095669291339
20
0.8423330708661417
11
1.6480093307086614
21
0.8423320472440945
0
LINE
8
BLACK
6
CONTINUOUS
10
1.6480093307086614
20
0.8423320472440945
11
1.6480095669291339
21
0.8423299606299213
0
LINE
8
BLACK
6
CONTINUOUS
10
1.6480095669291339
20
0.8423299606299213
11
1.6480095669291339
21
0.8059126377952756
0
LINE
8
BLACK
6
CONTINUOUS
10
1.6480095669291339
20
0.8059126377952756
11
1.6563053937007874
21
0.8059126377952756
0
LINE
8
BLACK
6
CONTINUOUS
10
1.6563053937007874
20
0.8059126377952756
11
1.6568814566929133
21
0.805855905511811
0
LINE
8
BLACK
6
CONTINUOUS
10
1.6568814566929133
20
0.805855905511811
11
1.6579458661417323
21
0.805415
0
LINE
8
BLACK
6
CONTINUOUS
10
1.6579458661417323
20
0.805415
11
1.6587605118110236
21
0.8046003543307086
0
LINE
8
BLACK
6
CONTINUOUS
10
1.6587605118110236
20
0.8046003543307086
11
1.6592014173228347
21
0.8035359448818897
0
LINE
8
BLACK
6
CONTINUOUS
10
1.6592014173228347
20
0.8035359448818897
11
1.6592014173228347
21
0.8023838188976378
0
LINE
8
BLACK
6
CONTINUOUS
10
1.6592014173228347
20
0.8023838188976378
11
1.6587605118110236
21
0.8013194094488189
0
LINE
8
BLACK
6
CONTINUOUS
10
1.6587605118110236
20
0.8013194094488189
11
1.6579458661417323
21
0.8005047637795275
0
LINE
8
BLACK
6
CONTINUOUS
10
1.6579458661417323
20
0.8005047637795275
11
1.6568814566929133
21
0.8000638582677165
0
LINE
8
BLACK
6
CONTINUOUS
10
1.6568814566929133
20
0.8000638582677165
11
1.6563053937007874
21
0.8000071259842519
0
LINE
8
BLACK
6
CONTINUOUS
10
1.6563053937007874
20
0.8000071259842519
11
1.6338082283464566
21
0.8000071259842519
0
LINE
8
BLACK
6
CONTINUOUS
10
1.6338082283464566
20
0.8000071259842519
11
1.6332321653543307
21
0.8000638582677165
0
LINE
8
BLACK
6
CONTINUOUS
10
1.6332321653543307
20
0.8000638582677165
11
1.6321677559055117
21
0.8005047637795275
0
LINE
8
BLACK
6
CONTINUOUS
10
1.6321677559055117
20
0.8005047637795275
11
1.6313531102362204
21
0.8013194094488189
0
LINE
8
BLACK
6
CONTINUOUS
10
1.6313531102362204
20
0.8013194094488189
11
1.6309122047244093
21
0.8023838188976378
0
LINE
8
BLACK
6
CONTINUOUS
10
1.6309122047244093
20
0.8023838188976378
11
1.6309122047244093
21
0.8035359448818897
0
LINE
8
BLACK
6
CONTINUOUS
10
1.6309122047244093
20
0.8035359448818897
11
1.6313531102362204
21
0.8046003543307086
0
LINE
8
BLACK
6
CONTINUOUS
10
1.6313531102362204
20
0.8046003543307086
11
1.6321677559055117
21
0.805415
0
LINE
8
BLACK
6
CONTINUOUS
10
1.6321677559055117
20
0.805415
11
1.6332321653543307
21
0.805855905511811
0
LINE
8
BLACK
6
CONTINUOUS
10
1.6332321653543307
20
0.805855905511811
11
1.6338082283464566
21
0.8059126377952756
0
LINE
8
BLACK
6
CONTINUOUS
10
1.6338082283464566
20
0.8059126377952756
11
1.6421040551181103
21
0.8059126377952756
0
LINE
8
BLACK
6
CONTINUOUS
10
1.6421040551181103
20
0.8059126377952756
11
1.6421040551181103
21
0.8333266141732283
0
LINE
8
BLACK
6
CONTINUOUS
10
1.6421040551181103
20
0.8333266141732283
11
1.6396456692913386
21
0.8308682283464567
0
LINE
8
BLACK
6
CONTINUOUS
10
1.6396456692913386
20
0.8308682283464567
11
1.6394192913385826
21
0.8306824803149606
0
LINE
8
BLACK
6
CONTINUOUS
10
1.6394192913385826
20
0.8306824803149606
11
1.6393681496062993
21
0.8306234645669291
0
LINE
8
BLACK
6
CONTINUOUS
10
1.6393681496062993
20
0.8306234645669291
11
1.6392791732283465
21
0.8305675196850394
0
LINE
8
BLACK
6
CONTINUOUS
10
1.6392791732283465
20
0.8305675196850394
11
1.6391982283464566
21
0.8305010236220473
0
LINE
8
BLACK
6
CONTINUOUS
10
1.6391982283464566
20
0.8305010236220473
11
1.6391262598425196
21
0.8304712204724409
0
LINE
8
BLACK
6
CONTINUOUS
10
1.6391262598425196
20
0.8304712204724409
11
1.6388782677165354
21
0.8303151181102362
0
LINE
8
BLACK
6
CONTINUOUS
10
1.6388782677165354
20
0.8303151181102362
11
1.6351287401574803
21
0.8284403543307086
0
LINE
8
BLACK
6
CONTINUOUS
10
1.6351287401574803
20
0.8284403543307086
11
1.6345881102362205
21
0.8282334645669291
0
LINE
8
BLACK
6
CONTINUOUS
10
1.6345881102362205
20
0.8282334645669291
11
1.6334388976377952
21
0.828151811023622
0
LINE
8
BLACK
6
CONTINUOUS
10
1.6334388976377952
20
0.828151811023622
11
1.6323459448818898
21
0.8285161417322835
0
LINE
8
BLACK
6
CONTINUOUS
10
1.6323459448818898
20
0.8285161417322835
11
1.6314755511811023
21
0.8292709842519684
0
LINE
8
BLACK
6
CONTINUOUS
10
1.6314755511811023
20
0.8292709842519684
11
1.63096031496063
21
0.8303014960629921
0
LINE
8
BLACK
6
CONTINUOUS
10
1.63096031496063
20
0.8303014960629921
11
1.6308786614173227
21
0.8314507086614173
0
LINE
8
BLACK
6
CONTINUOUS
10
1.6308786614173227
20
0.8314507086614173
11
1.6312429921259841
21
0.8325436614173228
0
LINE
8
BLACK
6
CONTINUOUS
10
1.6312429921259841
20
0.8325436614173228
11
1.6319978346456692
21
0.8334140551181102
0
LINE
8
BLACK
6
CONTINUOUS
10
1.6319978346456692
20
0.8334140551181102
11
1.632487716535433
21
0.8337224015748032
0
LINE
8
BLACK
6
CONTINUOUS
10
1.632487716535433
20
0.8337224015748032
11
1.6358086614173228
21
0.8353828740157481
0
LINE
8
BLACK
6
CONTINUOUS
10
1.6358086614173228
20
0.8353828740157481
11
1.6390125590551181
21
0.8385867716535433
0
LINE
8
BLACK
6
CONTINUOUS
10
1.6390125590551181
20
0.8385867716535433
11
1.6425999606299213
21
0.843967874015748
0
LINE
8
BLACK
6
CONTINUOUS
10
1.6425999606299213
20
0.843967874015748
11
1.6426012992125985
21
0.8439695669291338
0
LINE
8
BLACK
6
CONTINUOUS
10
1.6426012992125985
20
0.8439695669291338
11
1.6426016929133858
21
0.8439704330708662
0
LINE
8
BLACK
6
CONTINUOUS
10
1.6426016929133858
20
0.8439704330708662
11
1.6426037007874015
21
0.8439724803149606
0
LINE
8
BLACK
6
CONTINUOUS
10
1.6426037007874015
20
0.8439724803149606
11
1.6429667322834645
21
0.8444157086614174
0
LINE
8
BLACK
6
CONTINUOUS
10
1.6429667322834645
20
0.8444157086614174
11
1.6432096062992125
21
0.8445783858267716
0
LINE
8
BLACK
6
CONTINUOUS
10
1.6432096062992125
20
0.8445783858267716
11
1.6434163385826772
21
0.8447850787401575
0
LINE
8
BLACK
6
CONTINUOUS
10
1.6434163385826772
20
0.8447850787401575
11
1.6436836220472442
21
0.8448958267716535
0
LINE
8
BLACK
6
CONTINUOUS
10
1.6436836220472442
20
0.8448958267716535
11
1.6439240157480315
21
0.8450567716535433
0
LINE
8
BLACK
6
CONTINUOUS
10
1.6439240157480315
20
0.8450567716535433
11
1.6442106299212598
21
0.8451141338582677
0
LINE
8
BLACK
6
CONTINUOUS
10
1.6442106299212598
20
0.8451141338582677
11
1.644480748031496
21
0.8452259842519685
0
LINE
8
BLACK
6
CONTINUOUS
10
1.644480748031496
20
0.8452259842519685
11
1.6447700393700786
21
0.8452259842519685
0
LINE
8
BLACK
6
CONTINUOUS
10
1.6447700393700786
20
0.8452259842519685
11
1.6450537007874015
21
0.8452827165354331
0
LINE
8
BLACK
6
CONTINUOUS
10
1.6450537007874015
20
0.8452827165354331
11
1.6453404724409448
21
0.8452259842519685
0
LINE
8
BLACK
6
CONTINUOUS
10
1.7056253543307087
20
0.8452259842519685
11
1.7057233464566928
21
0.8451853937007874
0
LINE
8
BLACK
6
CONTINUOUS
10
1.7057233464566928
20
0.8451853937007874
11
1.7058291732283464
21
0.8451778740157481
0
LINE
8
BLACK
6
CONTINUOUS
10
1.7058291732283464
20
0.8451778740157481
11
1.7063698031496062
21
0.8449709842519685
0
LINE
8
BLACK
6
CONTINUOUS
10
1.7063698031496062
20
0.8449709842519685
11
1.7101193307086613
21
0.8430962204724409
0
LINE
8
BLACK
6
CONTINUOUS
10
1.7101193307086613
20
0.8430962204724409
11
1.7103673228346457
21
0.8429401574803149
0
LINE
8
BLACK
6
CONTINUOUS
10
1.7103673228346457
20
0.8429401574803149
11
1.7104392913385826
21
0.8429103149606298
0
LINE
8
BLACK
6
CONTINUOUS
10
1.7104392913385826
20
0.8429103149606298
11
1.7105202362204723
21
0.8428438582677165
0
LINE
8
BLACK
6
CONTINUOUS
10
1.7105202362204723
20
0.8428438582677165
11
1.7106092125984251
21
0.8427878740157481
0
LINE
8
BLACK
6
CONTINUOUS
10
1.7106092125984251
20
0.8427878740157481
11
1.7106603543307086
21
0.8427288976377952
0
LINE
8
BLACK
6
CONTINUOUS
10
1.7106603543307086
20
0.8427288976377952
11
1.7108867322834644
21
0.8425431102362204
0
LINE
8
BLACK
6
CONTINUOUS
10
1.7108867322834644
20
0.8425431102362204
11
1.712761496062992
21
0.8406683464566929
0
LINE
8
BLACK
6
CONTINUOUS
10
1.712761496062992
20
0.8406683464566929
11
1.7129472440944882
21
0.8404420078740157
0
LINE
8
BLACK
6
CONTINUOUS
10
1.7129472440944882
20
0.8404420078740157
11
1.7130062598425198
21
0.8403908267716536
0
LINE
8
BLACK
6
CONTINUOUS
10
1.7130062598425198
20
0.8403908267716536
11
1.7130622047244095
21
0.8403018897637795
0
LINE
8
BLACK
6
CONTINUOUS
10
1.7130622047244095
20
0.8403018897637795
11
1.7131287007874014
21
0.8402209055118111
0
LINE
8
BLACK
6
CONTINUOUS
10
1.7131287007874014
20
0.8402209055118111
11
1.7131585039370079
21
0.8401489763779527
0
LINE
8
BLACK
6
CONTINUOUS
10
1.7131585039370079
20
0.8401489763779527
11
1.7133146062992126
21
0.8399009448818897
0
LINE
8
BLACK
6
CONTINUOUS
10
1.7133146062992126
20
0.8399009448818897
11
1.7151893700787402
21
0.8361514173228346
0
LINE
8
BLACK
6
CONTINUOUS
10
1.7151893700787402
20
0.8361514173228346
11
1.7153962598425196
21
0.8356108267716535
0
LINE
8
BLACK
6
CONTINUOUS
10
1.7153962598425196
20
0.8356108267716535
11
1.715403779527559
21
0.8355049606299212
0
LINE
8
BLACK
6
CONTINUOUS
10
1.715403779527559
20
0.8355049606299212
11
1.7154443700787401
21
0.835406968503937
0
LINE
8
BLACK
6
CONTINUOUS
10
1.7154443700787401
20
0.835406968503937
11
1.7155011023622047
21
0.834830905511811
0
LINE
8
BLACK
6
CONTINUOUS
10
1.7155011023622047
20
0.834830905511811
11
1.7155011023622047
21
0.8310813779527559
0
LINE
8
BLACK
6
CONTINUOUS
10
1.7155011023622047
20
0.8310813779527559
11
1.7154723622047243
21
0.8307898031496063
0
LINE
8
BLACK
6
CONTINUOUS
10
1.7154723622047243
20
0.8307898031496063
11
1.7154779133858267
21
0.8307120472440944
0
LINE
8
BLACK
6
CONTINUOUS
10
1.7154779133858267
20
0.8307120472440944
11
1.7154546456692914
21
0.8306098031496063
0
LINE
8
BLACK
6
CONTINUOUS
10
1.7154546456692914
20
0.8306098031496063
11
1.7154443700787401
21
0.8305053149606298
0
LINE
8
BLACK
6
CONTINUOUS
10
1.7154443700787401
20
0.8305053149606298
11
1.7154144881889763
21
0.8304332677165354
0
LINE
8
BLACK
6
CONTINUOUS
10
1.7154144881889763
20
0.8304332677165354
11
1.7153495669291339
21
0.8301475984251968
0
LINE
8
BLACK
6
CONTINUOUS
10
1.7153495669291339
20
0.8301475984251968
11
1.7134748031496063
21
0.8245233464566929
0
LINE
8
BLACK
6
CONTINUOUS
10
1.7134748031496063
20
0.8245233464566929
11
1.7132388188976377
21
0.8239947637795275
0
LINE
8
BLACK
6
CONTINUOUS
10
1.7132388188976377
20
0.8239947637795275
11
1.7131693307086613
21
0.82391468503937
0
LINE
8
BLACK
6
CONTINUOUS
10
1.7131693307086613
20
0.82391468503937
11
1.7131287401574802
21
0.8238166141732284
0
LINE
8
BLACK
6
CONTINUOUS
10
1.7131287401574802
20
0.8238166141732284
11
1.712761496062992
21
0.8233691732283465
0
LINE
8
BLACK
6
CONTINUOUS
10
1.712761496062992
20
0.8233691732283465
11
1.6953050000000001
21
0.8059126377952756
0
LINE
8
BLACK
6
CONTINUOUS
10
1.6953050000000001
20
0.8059126377952756
11
1.7125483464566928
21
0.8059126377952756
0
LINE
8
BLACK
6
CONTINUOUS
10
1.7125483464566928
20
0.8059126377952756
11
1.7131244094488189
21
0.805855905511811
0
LINE
8
BLACK
6
CONTINUOUS
10
1.7131244094488189
20
0.805855905511811
11
1.7141888188976377
21
0.805415
0
LINE
8
BLACK
6
CONTINUOUS
10
1.7141888188976377
20
0.805415
11
1.7150034645669292
21
0.8046003543307086
0
LINE
8
BLACK
6
CONTINUOUS
10
1.7150034645669292
20
0.8046003543307086
11
1.7154443700787401
21
0.8035359448818897
0
LINE
8
BLACK
6
CONTINUOUS
10
1.7154443700787401
20
0.8035359448818897
11
1.7154443700787401
21
0.8023838188976378
0
LINE
8
BLACK
6
CONTINUOUS
10
1.7154443700787401
20
0.8023838188976378
11
1.7150034645669292
21
0.8013194094488189
0
LINE
8
BLACK
6
CONTINUOUS
10
1.7150034645669292
20
0.8013194094488189
11
1.7141888188976377
21
0.8005047637795275
0
LINE
8
BLACK
6
CONTINUOUS
10
1.7141888188976377
20
0.8005047637795275
11
1.7131244094488189
21
0.8000638582677165
0
LINE
8
BLACK
6
CONTINUOUS
10
1.7131244094488189
20
0.8000638582677165
11
1.7125483464566928
21
0.8000071259842519
0
LINE
8
BLACK
6
CONTINUOUS
10
1.7125483464566928
20
0.8000071259842519
11
1.6881764173228346
21
0.8000071259842519
0
LINE
8
BLACK
6
CONTINUOUS
10
1.6881764173228346
20
0.8000071259842519
11
1.6876003543307085
21
0.8000638582677165
0
LINE
8
BLACK
6
CONTINUOUS
10
1.6876003543307085
20
0.8000638582677165
11
1.6865359448818897
21
0.8005047637795275
0
LINE
8
BLACK
6
CONTINUOUS
10
1.6865359448818897
20
0.8005047637795275
11
1.6857212992125983
21
0.8013194094488189
0
LINE
8
BLACK
6
CONTINUOUS
10
1.6857212992125983
20
0.8013194094488189
11
1.6852803937007874
21
0.8023838188976378
0
LINE
8
BLACK
6
CONTINUOUS
10
1.6852803937007874
20
0.8023838188976378
11
1.6852803937007874
21
0.8035359448818897
0
LINE
8
BLACK
6
CONTINUOUS
10
1.6852803937007874
20
0.8035359448818897
11
1.6857212992125983
21
0.8046003543307086
0
LINE
8
BLACK
6
CONTINUOUS
10
1.6857212992125983
20
0.8046003543307086
11
1.6860885039370079
21
0.8050477952755906
0
LINE
8
BLACK
6
CONTINUOUS
10
1.6860885039370079
20
0.8050477952755906
11
1.7080927559055117
21
0.8270521259842519
0
LINE
8
BLACK
6
CONTINUOUS
10
1.7080927559055117
20
0.8270521259842519
11
1.709595590551181
21
0.8315605118110236
0
LINE
8
BLACK
6
CONTINUOUS
10
1.709595590551181
20
0.8315605118110236
11
1.709595590551181
21
0.8341338582677165
0
LINE
8
BLACK
6
CONTINUOUS
10
1.709595590551181
20
0.8341338582677165
11
1.7082468503937007
21
0.8368313385826771
0
LINE
8
BLACK
6
CONTINUOUS
10
1.7082468503937007
20
0.8368313385826771
11
1.7070497244094487
21
0.8380284645669291
0
LINE
8
BLACK
6
CONTINUOUS
10
1.7070497244094487
20
0.8380284645669291
11
1.704352244094488
21
0.8393772047244095
0
LINE
8
BLACK
6
CONTINUOUS
10
1.704352244094488
20
0.8393772047244095
11
1.6963725196850394
21
0.8393772047244095
0
LINE
8
BLACK
6
CONTINUOUS
10
1.6963725196850394
20
0.8393772047244095
11
1.6936750393700788
21
0.8380284645669291
0
LINE
8
BLACK
6
CONTINUOUS
10
1.6936750393700788
20
0.8380284645669291
11
1.6921390944881889
21
0.8364925196850393
0
LINE
8
BLACK
6
CONTINUOUS
10
1.6921390944881889
20
0.8364925196850393
11
1.6916916535433071
21
0.8361253149606299
0
LINE
8
BLACK
6
CONTINUOUS
10
1.6916916535433071
20
0.8361253149606299
11
1.6906272047244093
21
0.8356844094488188
0
LINE
8
BLACK
6
CONTINUOUS
10
1.6906272047244093
20
0.8356844094488188
11
1.6894751574803148
21
0.8356844094488188
0
LINE
8
BLACK
6
CONTINUOUS
10
1.6894751574803148
20
0.8356844094488188
11
1.6884107086614173
21
0.8361253149606299
0
LINE
8
BLACK
6
CONTINUOUS
10
1.6884107086614173
20
0.8361253149606299
11
1.6875960629921261
21
0.8369399606299213
0
LINE
8
BLACK
6
CONTINUOUS
10
1.6875960629921261
20
0.8369399606299213
11
1.687155157480315
21
0.8380044094488189
0
LINE
8
BLACK
6
CONTINUOUS
10
1.687155157480315
20
0.8380044094488189
11
1.687155157480315
21
0.8391564566929134
0
LINE
8
BLACK
6
CONTINUOUS
10
1.687155157480315
20
0.8391564566929134
11
1.6875960629921261
21
0.8402209055118111
0
LINE
8
BLACK
6
CONTINUOUS
10
1.6875960629921261
20
0.8402209055118111
11
1.6879632677165355
21
0.8406683464566929
0
LINE
8
BLACK
6
CONTINUOUS
10
1.6879632677165355
20
0.8406683464566929
11
1.689838031496063
21
0.8425431102362204
0
LINE
8
BLACK
6
CONTINUOUS
10
1.689838031496063
20
0.8425431102362204
11
1.6900643700787401
21
0.8427288976377952
0
LINE
8
BLACK
6
CONTINUOUS
10
1.6900643700787401
20
0.8427288976377952
11
1.6901155511811023
21
0.8427878740157481
0
LINE
8
BLACK
6
CONTINUOUS
10
1.6901155511811023
20
0.8427878740157481
11
1.6902044881889764
21
0.8428438582677165
0
LINE
8
BLACK
6
CONTINUOUS
10
1.6902044881889764
20
0.8428438582677165
11
1.6902854724409448
21
0.8429103149606298
0
LINE
8
BLACK
6
CONTINUOUS
10
1.6902854724409448
20
0.8429103149606298
11
1.6903574015748031
21
0.8429401574803149
0
LINE
8
BLACK
6
CONTINUOUS
10
1.6903574015748031
20
0.8429401574803149
11
1.6906054330708662
21
0.8430962204724409
0
LINE
8
BLACK
6
CONTINUOUS
10
1.6906054330708662
20
0.8430962204724409
11
1.6943549606299213
21
0.8449709842519685
0
LINE
8
BLACK
6
CONTINUOUS
10
1.6943549606299213
20
0.8449709842519685
11
1.6948955511811024
21
0.8451778740157481
0
LINE
8
BLACK
6
CONTINUOUS
10
1.6948955511811024
20
0.8451778740157481
11
1.6950014173228347
21
0.8451854330708661
0
LINE
8
BLACK
6
CONTINUOUS
10
1.6950014173228347
20
0.8451854330708661
11
1.6950994094488188
21
0.8452259842519685
0
LINE
8
BLACK
6
CONTINUOUS
10
1.6950994094488188
20
0.8452259842519685
11
1.6956754724409449
21
0.8452827165354331
0
LINE
8
BLACK
6
CONTINUOUS
10
1.6956754724409449
20
0.8452827165354331
11
1.7050492913385826
21
0.8452827165354331
0
LINE
8
BLACK
6
CONTINUOUS
10
1.7050492913385826
20
0.8452827165354331
11
1.7056253543307087
21
0.8452259842519685
0
LINE
8
BLACK
6
CONTINUOUS
10
1.7431206692913386
20
0.8452259842519685
11
1.7432186614173228
21
0.8451853937007874
0
LINE
8
BLACK
6
CONTINUOUS
10
1.7432186614173228
20
0.8451853937007874
11
1.7433244881889762
21
0.8451778740157481
0
LINE
8
BLACK
6
CONTINUOUS
10
1.7433244881889762
20
0.8451778740157481
11
1.7438651181102363
21
0.8449709842519685
0
LINE
8
BLACK
6
CONTINUOUS
10
1.7438651181102363
20
0.8449709842519685
11
1.7476146456692914
21
0.8430962204724409
0
LINE
8
BLACK
6
CONTINUOUS
10
1.7476146456692914
20
0.8430962204724409
11
1.7478626377952755
21
0.8429401574803149
0
LINE
8
BLACK
6
CONTINUOUS
10
1.7478626377952755
20
0.8429401574803149
11
1.7479346062992125
21
0.8429103149606298
0
LINE
8
BLACK
6
CONTINUOUS
10
1.7479346062992125
20
0.8429103149606298
11
1.7480155511811024
21
0.8428438582677165
0
LINE
8
BLACK
6
CONTINUOUS
10
1.7480155511811024
20
0.8428438582677165
11
1.748104527559055
21
0.8427878740157481
0
LINE
8
BLACK
6
CONTINUOUS
10
1.748104527559055
20
0.8427878740157481
11
1.7481556692913385
21
0.8427288976377952
0
LINE
8
BLACK
6
CONTINUOUS
10
1.7481556692913385
20
0.8427288976377952
11
1.7483820472440945
21
0.8425431102362204
0
LINE
8
BLACK
6
CONTINUOUS
10
1.7483820472440945
20
0.8425431102362204
11
1.7502568110236221
21
0.8406683464566929
0
LINE
8
BLACK
6
CONTINUOUS
10
1.7502568110236221
20
0.8406683464566929
11
1.750442559055118
21
0.8404420078740157
0
LINE
8
BLACK
6
CONTINUOUS
10
1.750442559055118
20
0.8404420078740157
11
1.7505015748031496
21
0.8403908267716536
0
LINE
8
BLACK
6
CONTINUOUS
10
1.7505015748031496
20
0.8403908267716536
11
1.7505575196850394
21
0.8403018897637795
0
LINE
8
BLACK
6
CONTINUOUS
10
1.7505575196850394
20
0.8403018897637795
11
1.7506240157480315
21
0.8402209055118111
0
LINE
8
BLACK
6
CONTINUOUS
10
1.7506240157480315
20
0.8402209055118111
11
1.7506538188976377
21
0.8401489763779527
0
LINE
8
BLACK
6
CONTINUOUS
10
1.7506538188976377
20
0.8401489763779527
11
1.7508099212598425
21
0.8399009448818897
0
LINE
8
BLACK
6
CONTINUOUS
10
1.7508099212598425
20
0.8399009448818897
11
1.75268468503937
21
0.8361514173228346
0
LINE
8
BLACK
6
CONTINUOUS
10
1.75268468503937
20
0.8361514173228346
11
1.7528915748031495
21
0.8356108267716535
0
LINE
8
BLACK
6
CONTINUOUS
10
1.7528915748031495
20
0.8356108267716535
11
1.752899094488189
21
0.8355049606299212
0
LINE
8
BLACK
6
CONTINUOUS
10
1.752899094488189
20
0.8355049606299212
11
1.7529396850393701
21
0.835406968503937
0
LINE
8
BLACK
6
CONTINUOUS
10
1.7529396850393701
20
0.835406968503937
11
1.7529964173228345
21
0.834830905511811
0
LINE
8
BLACK
6
CONTINUOUS
10
1.7529964173228345
20
0.834830905511811
11
1.7529964173228345
21
0.8198327952755905
0
LINE
8
BLACK
6
CONTINUOUS
10
1.7529964173228345
20
0.8198327952755905
11
1.7529864960629922
21
0.8197322834645669
0
LINE
8
BLACK
6
CONTINUOUS
10
1.7529864960629922
20
0.8197322834645669
11
1.7529929133858266
21
0.819689251968504
0
LINE
8
BLACK
6
CONTINUOUS
10
1.7529929133858266
20
0.819689251968504
11
1.7529610236220472
21
0.8194737795275591
0
LINE
8
BLACK
6
CONTINUOUS
10
1.7529610236220472
20
0.8194737795275591
11
1.7529396850393701
21
0.8192567322834645
0
LINE
8
BLACK
6
CONTINUOUS
10
1.7529396850393701
20
0.8192567322834645
11
1.7529230314960629
21
0.8192165354330708
0
LINE
8
BLACK
6
CONTINUOUS
10
1.7529230314960629
20
0.8192165354330708
11
1.7529082677165353
21
0.8191166535433071
0
LINE
8
BLACK
6
CONTINUOUS
10
1.7529082677165353
20
0.8191166535433071
11
1.7510335039370077
21
0.8116175984251969
0
LINE
8
BLACK
6
CONTINUOUS
10
1.7510335039370077
20
0.8116175984251969
11
1.7509121653543307
21
0.8112781102362204
0
LINE
8
BLACK
6
CONTINUOUS
10
1.7509121653543307
20
0.8112781102362204
11
1.7508980708661417
21
0.8112066535433071
0
LINE
8
BLACK
6
CONTINUOUS
10
1.7508980708661417
20
0.8112066535433071
11
1.7508635039370077
21
0.8111418897637795
0
LINE
8
BLACK
6
CONTINUOUS
10
1.7508635039370077
20
0.8111418897637795
11
1.7508387401574803
21
0.8110724803149606
0
LINE
8
BLACK
6
CONTINUOUS
10
1.7508387401574803
20
0.8110724803149606
11
1.7507951968503936
21
0.811013779527559
0
LINE
8
BLACK
6
CONTINUOUS
10
1.7507951968503936
20
0.811013779527559
11
1.750625748031496
21
0.8106958661417323
0
LINE
8
BLACK
6
CONTINUOUS
10
1.750625748031496
20
0.8106958661417323
11
1.7468762204724408
21
0.8050715354330709
0
LINE
8
BLACK
6
CONTINUOUS
10
1.7468762204724408
20
0.8050715354330709
11
1.7468748818897637
21
0.8050699606299212
0
LINE
8
BLACK
6
CONTINUOUS
10
1.7468748818897637
20
0.8050699606299212
11
1.7468745275590551
21
0.8050690157480315
0
LINE
8
BLACK
6
CONTINUOUS
10
1.7468745275590551
20
0.8050690157480315
11
1.7466960236220472
21
0.8048515354330709
0
LINE
8
BLACK
6
CONTINUOUS
10
1.7466960236220472
20
0.8048515354330709
11
1.7465094488188977
21
0.8046237007874015
0
LINE
8
BLACK
6
CONTINUOUS
10
1.7465094488188977
20
0.8046237007874015
11
1.7465085826771654
21
0.8046231496062992
0
LINE
8
BLACK
6
CONTINUOUS
10
1.7465085826771654
20
0.8046231496062992
11
1.746507283464567
21
0.8046215354330708
0
LINE
8
BLACK
6
CONTINUOUS
10
1.746507283464567
20
0.8046215354330708
11
1.7446325590551182
21
0.8027467716535432
0
LINE
8
BLACK
6
CONTINUOUS
10
1.7446325590551182
20
0.8027467716535432
11
1.7444061811023621
21
0.8025610236220472
0
LINE
8
BLACK
6
CONTINUOUS
10
1.7444061811023621
20
0.8025610236220472
11
1.7443549999999999
21
0.802501968503937
0
LINE
8
BLACK
6
CONTINUOUS
10
1.7443549999999999
20
0.802501968503937
11
1.7442660236220473
21
0.8024459842519684
0
LINE
8
BLACK
6
CONTINUOUS
10
1.7442660236220473
20
0.8024459842519684
11
1.7441850787401574
21
0.8023795275590551
0
LINE
8
BLACK
6
CONTINUOUS
10
1.7441850787401574
20
0.8023795275590551
11
1.7441131102362204
21
0.8023497244094489
0
LINE
8
BLACK
6
CONTINUOUS
10
1.7441131102362204
20
0.8023497244094489
11
1.7438651181102363
21
0.8021936220472441
0
LINE
8
BLACK
6
CONTINUOUS
10
1.7438651181102363
20
0.8021936220472441
11
1.7401155905511811
21
0.8003188582677165
0
LINE
8
BLACK
6
CONTINUOUS
10
1.7401155905511811
20
0.8003188582677165
11
1.7395749606299211
21
0.800111968503937
0
LINE
8
BLACK
6
CONTINUOUS
10
1.7395749606299211
20
0.800111968503937
11
1.7394691338582677
21
0.8001044881889764
0
LINE
8
BLACK
6
CONTINUOUS
10
1.7394691338582677
20
0.8001044881889764
11
1.7393711417322835
21
0.8000638582677165
0
LINE
8
BLACK
6
CONTINUOUS
10
1.7393711417322835
20
0.8000638582677165
11
1.7387950787401574
21
0.8000071259842519
0
LINE
8
BLACK
6
CONTINUOUS
10
1.7387950787401574
20
0.8000071259842519
11
1.7312960236220472
21
0.8000071259842519
0
LINE
8
BLACK
6
CONTINUOUS
10
1.7312960236220472
20
0.8000071259842519
11
1.7307199606299213
21
0.8000638582677165
0
LINE
8
BLACK
6
CONTINUOUS
10
1.7307199606299213
20
0.8000638582677165
11
1.7296555511811023
21
0.8005047637795275
0
LINE
8
BLACK
6
CONTINUOUS
10
1.7296555511811023
20
0.8005047637795275
11
1.728840905511811
21
0.8013194094488189
0
LINE
8
BLACK
6
CONTINUOUS
10
1.728840905511811
20
0.8013194094488189
11
1.7283999999999999
21
0.8023838188976378
0
LINE
8
BLACK
6
CONTINUOUS
10
1.7283999999999999
20
0.8023838188976378
11
1.7283999999999999
21
0.8035359448818897
0
LINE
8
BLACK
6
CONTINUOUS
10
1.7283999999999999
20
0.8035359448818897
11
1.728840905511811
21
0.8046003543307086
0
LINE
8
BLACK
6
CONTINUOUS
10
1.728840905511811
20
0.8046003543307086
11
1.7296555511811023
21
0.805415
0
LINE
8
BLACK
6
CONTINUOUS
10
1.7296555511811023
20
0.805415
11
1.7307199606299213
21
0.805855905511811
0
LINE
8
BLACK
6
CONTINUOUS
10
1.7307199606299213
20
0.805855905511811
11
1.7312960236220472
21
0.8059126377952756
0
LINE
8
BLACK
6
CONTINUOUS
10
1.7312960236220472
20
0.8059126377952756
11
1.738098031496063
21
0.8059126377952756
0
LINE
8
BLACK
6
CONTINUOUS
10
1.738098031496063
20
0.8059126377952756
11
1.7407954724409449
21
0.8072613779527559
0
LINE
8
BLACK
6
CONTINUOUS
10
1.7407954724409449
20
0.8072613779527559
11
1.7421246062992126
21
0.8085905511811023
0
LINE
8
BLACK
6
CONTINUOUS
10
1.7421246062992126
20
0.8085905511811023
11
1.7454283464566929
21
0.8135461023622047
0
LINE
8
BLACK
6
CONTINUOUS
10
1.7454283464566929
20
0.8135461023622047
11
1.7461576377952754
21
0.8164632677165354
0
LINE
8
BLACK
6
CONTINUOUS
10
1.7461576377952754
20
0.8164632677165354
11
1.7438651181102363
21
0.8153170078740157
0
LINE
8
BLACK
6
CONTINUOUS
10
1.7438651181102363
20
0.8153170078740157
11
1.7433244881889762
21
0.8151101181102361
0
LINE
8
BLACK
6
CONTINUOUS
10
1.7433244881889762
20
0.8151101181102361
11
1.7432186614173228
21
0.8151026377952756
0
LINE
8
BLACK
6
CONTINUOUS
10
1.7432186614173228
20
0.8151026377952756
11
1.7431206692913386
21
0.8150620078740157
0
LINE
8
BLACK
6
CONTINUOUS
10
1.7431206692913386
20
0.8150620078740157
11
1.7425446062992125
21
0.8150052755905511
0
LINE
8
BLACK
6
CONTINUOUS
10
1.7425446062992125
20
0.8150052755905511
11
1.7350455511811023
21
0.8150052755905511
0
LINE
8
BLACK
6
CONTINUOUS
10
1.7350455511811023
20
0.8150052755905511
11
1.7344694881889764
21
0.8150620078740157
0
LINE
8
BLACK
6
CONTINUOUS
10
1.7344694881889764
20
0.8150620078740157
11
1.7343714960629921
21
0.8151025984251968
0
LINE
8
BLACK
6
CONTINUOUS
10
1.7343714960629921
20
0.8151025984251968
11
1.7342656299212598
21
0.8151101181102361
0
LINE
8
BLACK
6
CONTINUOUS
10
1.7342656299212598
20
0.8151101181102361
11
1.7337250393700787
21
0.8153170078740157
0
LINE
8
BLACK
6
CONTINUOUS
10
1.7337250393700787
20
0.8153170078740157
11
1.7299755118110236
21
0.8171917716535433
0
LINE
8
BLACK
6
CONTINUOUS
10
1.7299755118110236
20
0.8171917716535433
11
1.7297274803149605
21
0.817347874015748
0
LINE
8
BLACK
6
CONTINUOUS
10
1.7297274803149605
20
0.817347874015748
11
1.7296555511811023
21
0.8173776771653544
0
LINE
8
BLACK
6
CONTINUOUS
10
1.7296555511811023
20
0.8173776771653544
11
1.7295745669291338
21
0.8174441732283464
0
LINE
8
BLACK
6
CONTINUOUS
10
1.7295745669291338
20
0.8174441732283464
11
1.7294856299212598
21
0.8175001181102362
0
LINE
8
BLACK
6
CONTINUOUS
10
1.7294856299212598
20
0.8175001181102362
11
1.7294344488188975
21
0.8175591338582677
0
LINE
8
BLACK
6
CONTINUOUS
10
1.7294344488188975
20
0.8175591338582677
11
1.7292081102362205
21
0.8177448818897638
0
LINE
8
BLACK
6
CONTINUOUS
10
1.7292081102362205
20
0.8177448818897638
11
1.7273333464566929
21
0.8196196456692914
0
LINE
8
BLACK
6
CONTINUOUS
10
1.7273333464566929
20
0.8196196456692914
11
1.727147559055118
21
0.8198460236220472
0
LINE
8
BLACK
6
CONTINUOUS
10
1.727147559055118
20
0.8198460236220472
11
1.7270885826771654
21
0.8198971653543307
0
LINE
8
BLACK
6
CONTINUOUS
10
1.7270885826771654
20
0.8198971653543307
11
1.7270325984251969
21
0.8199861417322835
0
LINE
8
BLACK
6
CONTINUOUS
10
1.7270325984251969
20
0.8199861417322835
11
1.7269661417322835
21
0.8200670866141732
0
LINE
8
BLACK
6
CONTINUOUS
10
1.7269661417322835
20
0.8200670866141732
11
1.7269362992125983
21
0.8201390551181102
0
LINE
8
BLACK
6
CONTINUOUS
10
1.7269362992125983
20
0.8201390551181102
11
1.7267802362204725
21
0.8203870472440945
0
LINE
8
BLACK
6
CONTINUOUS
10
1.7267802362204725
20
0.8203870472440945
11
1.7249054724409449
21
0.8241365748031496
0
LINE
8
BLACK
6
CONTINUOUS
10
1.7249054724409449
20
0.8241365748031496
11
1.7246985826771652
21
0.8246772047244094
0
LINE
8
BLACK
6
CONTINUOUS
10
1.7246985826771652
20
0.8246772047244094
11
1.7246910629921259
21
0.824783031496063
0
LINE
8
BLACK
6
CONTINUOUS
10
1.7246910629921259
20
0.824783031496063
11
1.7246504724409448
21
0.8248810236220472
0
LINE
8
BLACK
6
CONTINUOUS
10
1.7246504724409448
20
0.8248810236220472
11
1.7245937401574802
21
0.8254570866141732
0
LINE
8
BLACK
6
CONTINUOUS
10
1.7245937401574802
20
0.8254570866141732
11
1.7245937401574802
21
0.834830905511811
0
LINE
8
BLACK
6
CONTINUOUS
10
1.7245937401574802
20
0.834830905511811
11
1.7246504724409448
21
0.835406968503937
0
LINE
8
BLACK
6
CONTINUOUS
10
1.7246504724409448
20
0.835406968503937
11
1.7246910629921259
21
0.8355049999999999
0
LINE
8
BLACK
6
CONTINUOUS
10
1.7246910629921259
20
0.8355049999999999
11
1.7246985826771652
21
0.8356107874015748
0
LINE
8
BLACK
6
CONTINUOUS
10
1.7246985826771652
20
0.8356107874015748
11
1.7249054724409449
21
0.8361514173228346
0
LINE
8
BLACK
6
CONTINUOUS
10
1.7249054724409449
20
0.8361514173228346
11
1.7267802362204725
21
0.8399009448818897
0
LINE
8
BLACK
6
CONTINUOUS
10
1.7267802362204725
20
0.8399009448818897
11
1.7269362992125983
21
0.8401489763779527
0
LINE
8
BLACK
6
CONTINUOUS
10
1.7269362992125983
20
0.8401489763779527
11
1.7269661417322835
21
0.8402209055118111
0
LINE
8
BLACK
6
CONTINUOUS
10
1.7269661417322835
20
0.8402209055118111
11
1.7270325984251969
21
0.8403018897637795
0
LINE
8
BLACK
6
CONTINUOUS
10
1.7270325984251969
20
0.8403018897637795
11
1.7270885826771654
21
0.8403908267716536
0
LINE
8
BLACK
6
CONTINUOUS
10
1.7270885826771654
20
0.8403908267716536
11
1.727147559055118
21
0.8404420078740157
0
LINE
8
BLACK
6
CONTINUOUS
10
1.727147559055118
20
0.8404420078740157
11
1.7273333464566929
21
0.8406683464566929
0
LINE
8
BLACK
6
CONTINUOUS
10
1.7273333464566929
20
0.8406683464566929
11
1.7292081102362205
21
0.8425431102362204
0
LINE
8
BLACK
6
CONTINUOUS
10
1.7292081102362205
20
0.8425431102362204
11
1.7294344488188975
21
0.8427288976377952
0
LINE
8
BLACK
6
CONTINUOUS
10
1.7294344488188975
20
0.8427288976377952
11
1.7294856299212598
21
0.8427878740157481
0
LINE
8
BLACK
6
CONTINUOUS
10
1.7294856299212598
20
0.8427878740157481
11
1.7295745669291338
21
0.8428438582677165
0
LINE
8
BLACK
6
CONTINUOUS
10
1.7295745669291338
20
0.8428438582677165
11
1.7296555511811023
21
0.8429103149606298
0
LINE
8
BLACK
6
CONTINUOUS
10
1.7296555511811023
20
0.8429103149606298
11
1.7297274803149605
21
0.8429401574803149
0
LINE
8
BLACK
6
CONTINUOUS
10
1.7297274803149605
20
0.8429401574803149
11
1.7299755118110236
21
0.8430962204724409
0
LINE
8
BLACK
6
CONTINUOUS
10
1.7299755118110236
20
0.8430962204724409
11
1.7337250393700787
21
0.8449709842519685
0
LINE
8
BLACK
6
CONTINUOUS
10
1.7337250393700787
20
0.8449709842519685
11
1.7342656299212598
21
0.8451778740157481
0
LINE
8
BLACK
6
CONTINUOUS
10
1.7342656299212598
20
0.8451778740157481
11
1.7343714960629921
21
0.8451854330708661
0
LINE
8
BLACK
6
CONTINUOUS
10
1.7343714960629921
20
0.8451854330708661
11
1.7344694881889764
21
0.8452259842519685
0
LINE
8
BLACK
6
CONTINUOUS
10
1.7344694881889764
20
0.8452259842519685
11
1.7350455511811023
21
0.8452827165354331
0
LINE
8
BLACK
6
CONTINUOUS
10
1.7350455511811023
20
0.8452827165354331
11
1.7425446062992125
21
0.8452827165354331
0
LINE
8
BLACK
6
CONTINUOUS
10
1.7425446062992125
20
0.8452827165354331
11
1.7431206692913386
21
0.8452259842519685
0
LINE
8
BLACK
6
CONTINUOUS
10
1.7330451181102362
20
0.8380284645669291
11
1.7318479921259842
21
0.8368313385826771
0
LINE
8
BLACK
6
CONTINUOUS
10
1.7318479921259842
20
0.8368313385826771
11
1.7304992519685038
21
0.8341338582677165
0
LINE
8
BLACK
6
CONTINUOUS
10
1.7304992519685038
20
0.8341338582677165
11
1.7304992519685038
21
0.8261541338582677
0
LINE
8
BLACK
6
CONTINUOUS
10
1.7304992519685038
20
0.8261541338582677
11
1.7318479921259842
21
0.8234566535433071
0
LINE
8
BLACK
6
CONTINUOUS
10
1.7318479921259842
20
0.8234566535433071
11
1.7330451181102362
21
0.8222595275590551
0
LINE
8
BLACK
6
CONTINUOUS
10
1.7330451181102362
20
0.8222595275590551
11
1.7357425984251968
21
0.8209107874015747
0
LINE
8
BLACK
6
CONTINUOUS
10
1.7357425984251968
20
0.8209107874015747
11
1.7418475590551181
21
0.8209107874015747
0
LINE
8
BLACK
6
CONTINUOUS
10
1.7418475590551181
20
0.8209107874015747
11
1.7445450393700788
21
0.8222595275590551
0
LINE
8
BLACK
6
CONTINUOUS
10
1.7445450393700788
20
0.8222595275590551
11
1.7457421653543306
21
0.8234566535433071
0
LINE
8
BLACK
6
CONTINUOUS
10
1.7457421653543306
20
0.8234566535433071
11
1.7470909055118109
21
0.8261541338582677
0
LINE
8
BLACK
6
CONTINUOUS
10
1.7470909055118109
20
0.8261541338582677
11
1.7470909055118109
21
0.8341338582677165
0
LINE
8
BLACK
6
CONTINUOUS
10
1.7470909055118109
20
0.8341338582677165
11
1.7457421653543306
21
0.8368313385826771
0
LINE
8
BLACK
6
CONTINUOUS
10
1.7457421653543306
20
0.8368313385826771
11
1.7445450393700788
21
0.8380284645669291
0
LINE
8
BLACK
6
CONTINUOUS
10
1.7445450393700788
20
0.8380284645669291
11
1.7418475590551181
21
0.8393772047244095
0
LINE
8
BLACK
6
CONTINUOUS
10
1.7418475590551181
20
0.8393772047244095
11
1.7357425984251968
21
0.8393772047244095
0
LINE
8
BLACK
6
CONTINUOUS
10
1.7357425984251968
20
0.8393772047244095
11
1.7330451181102362
21
0.8380284645669291
0
LINE
8
BLACK
6
CONTINUOUS
10
1.7862402755905511
20
0.8452259842519685
11
1.7873046850393701
21
0.8447850787401575
0
LINE
8
BLACK
6
CONTINUOUS
10
1.7873046850393701
20
0.8447850787401575
11
1.7881193307086614
21
0.8439704330708662
0
LINE
8
BLACK
6
CONTINUOUS
10
1.7881193307086614
20
0.8439704330708662
11
1.7885602362204724
21
0.8429060236220473
0
LINE
8
BLACK
6
CONTINUOUS
10
1.7885602362204724
20
0.8429060236220473
11
1.7885602362204724
21
0.8417538976377953
0
LINE
8
BLACK
6
CONTINUOUS
10
1.7885602362204724
20
0.8417538976377953
11
1.7881193307086614
21
0.8406894881889764
0
LINE
8
BLACK
6
CONTINUOUS
10
1.7881193307086614
20
0.8406894881889764
11
1.7873046850393701
21
0.839874842519685
0
LINE
8
BLACK
6
CONTINUOUS
10
1.7873046850393701
20
0.839874842519685
11
1.7862402755905511
21
0.8394339370078739
0
LINE
8
BLACK
6
CONTINUOUS
10
1.7862402755905511
20
0.8394339370078739
11
1.7856642125984252
21
0.8393772047244095
0
LINE
8
BLACK
6
CONTINUOUS
10
1.7856642125984252
20
0.8393772047244095
11
1.7695887795275591
21
0.8393772047244095
0
LINE
8
BLACK
6
CONTINUOUS
10
1.7695887795275591
20
0.8393772047244095
11
1.768611653543307
21
0.8296059448818898
0
LINE
8
BLACK
6
CONTINUOUS
10
1.768611653543307
20
0.8296059448818898
11
1.769345590551181
21
0.829972874015748
0
LINE
8
BLACK
6
CONTINUOUS
10
1.769345590551181
20
0.829972874015748
11
1.7698861811023621
21
0.8301797637795275
0
LINE
8
BLACK
6
CONTINUOUS
10
1.7698861811023621
20
0.8301797637795275
11
1.7699920472440944
21
0.8301873228346457
0
LINE
8
BLACK
6
CONTINUOUS
10
1.7699920472440944
20
0.8301873228346457
11
1.7700900393700787
21
0.830227874015748
0
LINE
8
BLACK
6
CONTINUOUS
10
1.7700900393700787
20
0.830227874015748
11
1.7706661023622048
21
0.8302846062992125
0
LINE
8
BLACK
6
CONTINUOUS
10
1.7706661023622048
20
0.8302846062992125
11
1.7800399212598426
21
0.8302846062992125
0
LINE
8
BLACK
6
CONTINUOUS
10
1.7800399212598426
20
0.8302846062992125
11
1.7806159842519684
21
0.830227874015748
0
LINE
8
BLACK
6
CONTINUOUS
10
1.7806159842519684
20
0.830227874015748
11
1.7807139763779527
21
0.8301872834645669
0
LINE
8
BLACK
6
CONTINUOUS
10
1.7807139763779527
20
0.8301872834645669
11
1.7808198031496063
21
0.8301797637795275
0
LINE
8
BLACK
6
CONTINUOUS
10
1.7808198031496063
20
0.8301797637795275
11
1.7813604330708661
21
0.829972874015748
0
LINE
8
BLACK
6
CONTINUOUS
10
1.7813604330708661
20
0.829972874015748
11
1.7851099606299212
21
0.8280981102362205
0
LINE
8
BLACK
6
CONTINUOUS
10
1.7851099606299212
20
0.8280981102362205
11
1.7853579527559054
21
0.8279420472440945
0
LINE
8
BLACK
6
CONTINUOUS
10
1.7853579527559054
20
0.8279420472440945
11
1.7854299212598426
21
0.8279122047244094
0
LINE
8
BLACK
6
CONTINUOUS
10
1.7854299212598426
20
0.8279122047244094
11
1.7855108661417323
21
0.827845748031496
0
LINE
8
BLACK
6
CONTINUOUS
10
1.7855108661417323
20
0.827845748031496
11
1.7855998425196851
21
0.8277897637795275
0
LINE
8
BLACK
6
CONTINUOUS
10
1.7855998425196851
20
0.8277897637795275
11
1.7856509842519686
21
0.8277307874015748
0
LINE
8
BLACK
6
CONTINUOUS
10
1.7856509842519686
20
0.8277307874015748
11
1.7858773622047244
21
0.827545
0
LINE
8
BLACK
6
CONTINUOUS
10
1.7858773622047244
20
0.827545
11
1.7877521259842519
21
0.8256702362204724
0
LINE
8
BLACK
6
CONTINUOUS
10
1.7877521259842519
20
0.8256702362204724
11
1.7879378740157479
21
0.8254438976377952
0
LINE
8
BLACK
6
CONTINUOUS
10
1.7879378740157479
20
0.8254438976377952
11
1.7879968897637795
21
0.825392716535433
0
LINE
8
BLACK
6
CONTINUOUS
10
1.7879968897637795
20
0.825392716535433
11
1.7880528346456692
21
0.8253037795275591
0
LINE
8
BLACK
6
CONTINUOUS
10
1.7880528346456692
20
0.8253037795275591
11
1.7881193307086614
21
0.8252227952755905
0
LINE
8
BLACK
6
CONTINUOUS
10
1.7881193307086614
20
0.8252227952755905
11
1.7881491338582676
21
0.8251508661417323
0
LINE
8
BLACK
6
CONTINUOUS
10
1.7881491338582676
20
0.8251508661417323
11
1.7883052362204723
21
0.8249028346456693
0
LINE
8
BLACK
6
CONTINUOUS
10
1.7883052362204723
20
0.8249028346456693
11
1.7901799999999999
21
0.8211533070866142
0
LINE
8
BLACK
6
CONTINUOUS
10
1.7901799999999999
20
0.8211533070866142
11
1.7903868897637796
21
0.8206127165354331
0
LINE
8
BLACK
6
CONTINUOUS
10
1.7903868897637796
20
0.8206127165354331
11
1.7903944094488189
21
0.8205068503937007
0
LINE
8
BLACK
6
CONTINUOUS
10
1.7903944094488189
20
0.8205068503937007
11
1.790435
21
0.8204088582677165
0
LINE
8
BLACK
6
CONTINUOUS
10
1.790435
20
0.8204088582677165
11
1.7904917322834646
21
0.8198327952755905
0
LINE
8
BLACK
6
CONTINUOUS
10
1.7904917322834646
20
0.8198327952755905
11
1.7904917322834646
21
0.8104589763779527
0
LINE
8
BLACK
6
CONTINUOUS
10
1.7904917322834646
20
0.8104589763779527
11
1.790435
21
0.8098829133858267
0
LINE
8
BLACK
6
CONTINUOUS
10
1.790435
20
0.8098829133858267
11
1.7903944094488189
21
0.8097849606299212
0
LINE
8
BLACK
6
CONTINUOUS
10
1.7903944094488189
20
0.8097849606299212
11
1.7903868897637796
21
0.8096790551181102
0
LINE
8
BLACK
6
CONTINUOUS
10
1.7903868897637796
20
0.8096790551181102
11
1.7901799999999999
21
0.8091384645669291
0
LINE
8
BLACK
6
CONTINUOUS
10
1.7901799999999999
20
0.8091384645669291
11
1.7883052362204723
21
0.805388937007874
0
LINE
8
BLACK
6
CONTINUOUS
10
1.7883052362204723
20
0.805388937007874
11
1.7881491732283463
21
0.805141062992126
0
LINE
8
BLACK
6
CONTINUOUS
10
1.7881491732283463
20
0.805141062992126
11
1.7881193700787401
21
0.8050690157480315
0
LINE
8
BLACK
6
CONTINUOUS
10
1.7881193700787401
20
0.8050690157480315
11
1.7880528346456692
21
0.8049879921259843
0
LINE
8
BLACK
6
CONTINUOUS
10
1.7880528346456692
20
0.8049879921259843
11
1.7879968897637795
21
0.8048990551181102
0
LINE
8
BLACK
6
CONTINUOUS
10
1.7879968897637795
20
0.8048990551181102
11
1.7879378740157479
21
0.8048479133858267
0
LINE
8
BLACK
6
CONTINUOUS
10
1.7879378740157479
20
0.8048479133858267
11
1.7877521259842519
21
0.8046215354330708
0
LINE
8
BLACK
6
CONTINUOUS
10
1.7877521259842519
20
0.8046215354330708
11
1.7858774015748031
21
0.8027467716535432
0
LINE
8
BLACK
6
CONTINUOUS
10
1.7858774015748031
20
0.8027467716535432
11
1.7856510236220473
21
0.8025610236220472
0
LINE
8
BLACK
6
CONTINUOUS
10
1.7856510236220473
20
0.8025610236220472
11
1.7855998425196851
21
0.802501968503937
0
LINE
8
BLACK
6
CONTINUOUS
10
1.7855998425196851
20
0.802501968503937
11
1.7855108661417323
21
0.8024459842519684
0
LINE
8
BLACK
6
CONTINUOUS
10
1.7855108661417323
20
0.8024459842519684
11
1.7854299212598426
21
0.8023795275590551
0
LINE
8
BLACK
6
CONTINUOUS
10
1.7854299212598426
20
0.8023795275590551
11
1.7853579527559054
21
0.8023497244094489
0
LINE
8
BLACK
6
CONTINUOUS
10
1.7853579527559054
20
0.8023497244094489
11
1.7851099606299212
21
0.8021936220472441
0
LINE
8
BLACK
6
CONTINUOUS
10
1.7851099606299212
20
0.8021936220472441
11
1.7813604330708661
21
0.8003188582677165
0
LINE
8
BLACK
6
CONTINUOUS
10
1.7813604330708661
20
0.8003188582677165
11
1.7808198031496063
21
0.800111968503937
0
LINE
8
BLACK
6
CONTINUOUS
10
1.7808198031496063
20
0.800111968503937
11
1.7807139763779527
21
0.8001044881889764
0
LINE
8
BLACK
6
CONTINUOUS
10
1.7807139763779527
20
0.8001044881889764
11
1.7806159842519684
21
0.8000638582677165
0
LINE
8
BLACK
6
CONTINUOUS
10
1.7806159842519684
20
0.8000638582677165
11
1.7800399212598426
21
0.8000071259842519
0
LINE
8
BLACK
6
CONTINUOUS
10
1.7800399212598426
20
0.8000071259842519
11
1.7706661023622048
21
0.8000071259842519
0
LINE
8
BLACK
6
CONTINUOUS
10
1.7706661023622048
20
0.8000071259842519
11
1.7700900393700787
21
0.8000638582677165
0
LINE
8
BLACK
6
CONTINUOUS
10
1.7700900393700787
20
0.8000638582677165
11
1.7699920472440944
21
0.8001044488188976
0
LINE
8
BLACK
6
CONTINUOUS
10
1.7699920472440944
20
0.8001044488188976
11
1.7698861811023621
21
0.800111968503937
0
LINE
8
BLACK
6
CONTINUOUS
10
1.7698861811023621
20
0.800111968503937
11
1.769345590551181
21
0.8003188582677165
0
LINE
8
BLACK
6
CONTINUOUS
10
1.769345590551181
20
0.8003188582677165
11
1.7655960629921259
21
0.8021936220472441
0
LINE
8
BLACK
6
CONTINUOUS
10
1.7655960629921259
20
0.8021936220472441
11
1.765348031496063
21
0.8023497244094489
0
LINE
8
BLACK
6
CONTINUOUS
10
1.765348031496063
20
0.8023497244094489
11
1.7652761023622048
21
0.8023795275590551
0
LINE
8
BLACK
6
CONTINUOUS
10
1.7652761023622048
20
0.8023795275590551
11
1.7651951181102361
21
0.8024459842519684
0
LINE
8
BLACK
6
CONTINUOUS
10
1.7651951181102361
20
0.8024459842519684
11
1.7651061811023621
21
0.802501968503937
0
LINE
8
BLACK
6
CONTINUOUS
10
1.7651061811023621
20
0.802501968503937
11
1.7650549606299213
21
0.8025610236220472
0
LINE
8
BLACK
6
CONTINUOUS
10
1.7650549606299213
20
0.8025610236220472
11
1.764828622047244
21
0.8027467716535432
0
LINE
8
BLACK
6
CONTINUOUS
10
1.764828622047244
20
0.8027467716535432
11
1.7629538582677164
21
0.8046215748031496
0
LINE
8
BLACK
6
CONTINUOUS
10
1.7629538582677164
20
0.8046215748031496
11
1.762586653543307
21
0.8050690157480315
0
LINE
8
BLACK
6
CONTINUOUS
10
1.762586653543307
20
0.8050690157480315
11
1.7621457874015747
21
0.8061334251968504
0
LINE
8
BLACK
6
CONTINUOUS
10
1.7621457874015747
20
0.8061334251968504
11
1.7621457874015747
21
0.8072855118110236
0
LINE
8
BLACK
6
CONTINUOUS
10
1.7621457874015747
20
0.8072855118110236
11
1.7625866929133858
21
0.8083499212598425
0
LINE
8
BLACK
6
CONTINUOUS
10
1.7625866929133858
20
0.8083499212598425
11
1.7634013779527558
21
0.8091646062992126
0
LINE
8
BLACK
6
CONTINUOUS
10
1.7634013779527558
20
0.8091646062992126
11
1.7644657874015748
21
0.8096054724409448
0
LINE
8
BLACK
6
CONTINUOUS
10
1.7644657874015748
20
0.8096054724409448
11
1.765617874015748
21
0.8096054724409448
0
LINE
8
BLACK
6
CONTINUOUS
10
1.765617874015748
20
0.8096054724409448
11
1.7666822834645668
21
0.8091645669291339
0
LINE
8
BLACK
6
CONTINUOUS
10
1.7666822834645668
20
0.8091645669291339
11
1.7671297637795276
21
0.8087973228346457
0
LINE
8
BLACK
6
CONTINUOUS
10
1.7671297637795276
20
0.8087973228346457
11
1.7686656692913385
21
0.8072613779527559
0
LINE
8
BLACK
6
CONTINUOUS
10
1.7686656692913385
20
0.8072613779527559
11
1.7713631496062991
21
0.8059126377952756
0
LINE
8
BLACK
6
CONTINUOUS
10
1.7713631496062991
20
0.8059126377952756
11
1.779342874015748
21
0.8059126377952756
0
LINE
8
BLACK
6
CONTINUOUS
10
1.779342874015748
20
0.8059126377952756
11
1.7820403149606299
21
0.8072613779527559
0
LINE
8
BLACK
6
CONTINUOUS
10
1.7820403149606299
20
0.8072613779527559
11
1.7832374409448819
21
0.8084585433070866
0
LINE
8
BLACK
6
CONTINUOUS
10
1.7832374409448819
20
0.8084585433070866
11
1.784586220472441
21
0.8111560236220472
0
LINE
8
BLACK
6
CONTINUOUS
10
1.784586220472441
20
0.8111560236220472
11
1.784586220472441
21
0.819135748031496
0
LINE
8
BLACK
6
CONTINUOUS
10
1.784586220472441
20
0.819135748031496
11
1.7832374803149607
21
0.8218332283464567
0
LINE
8
BLACK
6
CONTINUOUS
10
1.7832374803149607
20
0.8218332283464567
11
1.7820403543307086
21
0.8230303543307086
0
LINE
8
BLACK
6
CONTINUOUS
10
1.7820403543307086
20
0.8230303543307086
11
1.779342874015748
21
0.8243790944881889
0
LINE
8
BLACK
6
CONTINUOUS
10
1.779342874015748
20
0.8243790944881889
11
1.7713631496062991
21
0.8243790944881889
0
LINE
8
BLACK
6
CONTINUOUS
10
1.7713631496062991
20
0.8243790944881889
11
1.7686656692913385
21
0.8230303543307086
0
LINE
8
BLACK
6
CONTINUOUS
10
1.7686656692913385
20
0.8230303543307086
11
1.7671297244094488
21
0.8214944094488189
0
LINE
8
BLACK
6
CONTINUOUS
10
1.7671297244094488
20
0.8214944094488189
11
1.7666822834645668
21
0.8211272047244095
0
LINE
8
BLACK
6
CONTINUOUS
10
1.7666822834645668
20
0.8211272047244095
11
1.7665449212598425
21
0.8210703149606299
0
LINE
8
BLACK
6
CONTINUOUS
10
1.7665449212598425
20
0.8210703149606299
11
1.7664298425196849
21
0.8209761417322834
0
LINE
8
BLACK
6
CONTINUOUS
10
1.7664298425196849
20
0.8209761417322834
11
1.7660164566929133
21
0.8208514566929134
0
LINE
8
BLACK
6
CONTINUOUS
10
1.7660164566929133
20
0.8208514566929134
11
1.7656178346456692
21
0.8206862992125984
0
LINE
8
BLACK
6
CONTINUOUS
10
1.7656178346456692
20
0.8206862992125984
11
1.7654692125984253
21
0.8206862992125984
0
LINE
8
BLACK
6
CONTINUOUS
10
1.7654692125984253
20
0.8206862992125984
11
1.7653268503937007
21
0.8206433464566929
0
LINE
8
BLACK
6
CONTINUOUS
10
1.7653268503937007
20
0.8206433464566929
11
1.7648973228346456
21
0.8206862992125984
0
LINE
8
BLACK
6
CONTINUOUS
10
1.7648973228346456
20
0.8206862992125984
11
1.7644657874015748
21
0.8206862992125984
0
LINE
8
BLACK
6
CONTINUOUS
10
1.7644657874015748
20
0.8206862992125984
11
1.7643284251968503
21
0.8207432283464566
0
LINE
8
BLACK
6
CONTINUOUS
10
1.7643284251968503
20
0.8207432283464566
11
1.7641804330708661
21
0.8207579921259842
0
LINE
8
BLACK
6
CONTINUOUS
10
1.7641804330708661
20
0.8207579921259842
11
1.7638000393700788
21
0.8209620472440945
0
LINE
8
BLACK
6
CONTINUOUS
10
1.7638000393700788
20
0.8209620472440945
11
1.7634013385826772
21
0.8211272047244095
0
LINE
8
BLACK
6
CONTINUOUS
10
1.7634013385826772
20
0.8211272047244095
11
1.7632961417322834
21
0.8212324015748032
0
LINE
8
BLACK
6
CONTINUOUS
10
1.7632961417322834
20
0.8212324015748032
11
1.7631651968503936
21
0.8213026377952756
0
LINE
8
BLACK
6
CONTINUOUS
10
1.7631651968503936
20
0.8213026377952756
11
1.7628919291338583
21
0.8216366141732283
0
LINE
8
BLACK
6
CONTINUOUS
10
1.7628919291338583
20
0.8216366141732283
11
1.7625866929133858
21
0.8219418503937008
0
LINE
8
BLACK
6
CONTINUOUS
10
1.7625866929133858
20
0.8219418503937008
11
1.7625297637795274
21
0.8220792125984252
0
LINE
8
BLACK
6
CONTINUOUS
10
1.7625297637795274
20
0.8220792125984252
11
1.7624356299212598
21
0.8221942913385827
0
LINE
8
BLACK
6
CONTINUOUS
10
1.7624356299212598
20
0.8221942913385827
11
1.7623109055118109
21
0.8226076771653543
0
LINE
8
BLACK
6
CONTINUOUS
10
1.7623109055118109
20
0.8226076771653543
11
1.7621457874015747
21
0.8230062992125984
0
LINE
8
BLACK
6
CONTINUOUS
10
1.7621457874015747
20
0.8230062992125984
11
1.7621457874015747
21
0.8231549606299212
0
LINE
8
BLACK
6
CONTINUOUS
10
1.7621457874015747
20
0.8231549606299212
11
1.7621028346456693
21
0.8232972834645669
0
LINE
8
BLACK
6
CONTINUOUS
10
1.7621028346456693
20
0.8232972834645669
11
1.7621037007874016
21
0.8238761417322834
0
LINE
8
BLACK
6
CONTINUOUS
10
1.7621037007874016
20
0.8238761417322834
11
1.7639784645669292
21
0.8426237795275591
0
LINE
8
BLACK
6
CONTINUOUS
10
1.7639784645669292
20
0.8426237795275591
11
1.7640205511811022
21
0.8428337401574802
0
LINE
8
BLACK
6
CONTINUOUS
10
1.7640205511811022
20
0.8428337401574802
11
1.7640205511811022
21
0.8429060236220473
0
LINE
8
BLACK
6
CONTINUOUS
10
1.7640205511811022
20
0.8429060236220473
11
1.764048622047244
21
0.8429738582677165
0
LINE
8
BLACK
6
CONTINUOUS
10
1.764048622047244
20
0.8429738582677165
11
1.7640922440944882
21
0.8431913385826771
0
LINE
8
BLACK
6
CONTINUOUS
10
1.7640922440944882
20
0.8431913385826771
11
1.7642962598425196
21
0.8435716535433071
0
LINE
8
BLACK
6
CONTINUOUS
10
1.7642962598425196
20
0.8435716535433071
11
1.7644614566929133
21
0.8439704330708662
0
LINE
8
BLACK
6
CONTINUOUS
10
1.7644614566929133
20
0.8439704330708662
11
1.7645666141732284
21
0.8440756299212598
0
LINE
8
BLACK
6
CONTINUOUS
10
1.7645666141732284
20
0.8440756299212598
11
1.7646368897637794
21
0.8442065748031495
0
LINE
8
BLACK
6
CONTINUOUS
10
1.7646368897637794
20
0.8442065748031495
11
1.7649708267716535
21
0.844479842519685
0
LINE
8
BLACK
6
CONTINUOUS
10
1.7649708267716535
20
0.844479842519685
11
1.7652761023622048
21
0.8447850787401575
0
LINE
8
BLACK
6
CONTINUOUS
10
1.7652761023622048
20
0.8447850787401575
11
1.7654134251968503
21
0.8448420078740158
0
LINE
8
BLACK
6
CONTINUOUS
10
1.7654134251968503
20
0.8448420078740158
11
1.7655285433070866
21
0.8449361417322835
0
LINE
8
BLACK
6
CONTINUOUS
10
1.7655285433070866
20
0.8449361417322835
11
1.765941811023622
21
0.8450608661417323
0
LINE
8
BLACK
6
CONTINUOUS
10
1.765941811023622
20
0.8450608661417323
11
1.7663405118110236
21
0.8452259842519685
0
LINE
8
BLACK
6
CONTINUOUS
10
1.7663405118110236
20
0.8452259842519685
11
1.7665611811023623
21
0.8452477559055118
0
LINE
8
BLACK
6
CONTINUOUS
10
1.7665611811023623
20
0.8452477559055118
11
1.7666315354330708
21
0.845268937007874
0
LINE
8
BLACK
6
CONTINUOUS
10
1.7666315354330708
20
0.845268937007874
11
1.7667035039370078
21
0.8452617716535433
0
LINE
8
BLACK
6
CONTINUOUS
10
1.7667035039370078
20
0.8452617716535433
11
1.7669165748031497
21
0.8452827165354331
0
LINE
8
BLACK
6
CONTINUOUS
10
1.7669165748031497
20
0.8452827165354331
11
1.7856642125984252
21
0.8452827165354331
0
LINE
8
BLACK
6
CONTINUOUS
10
1.7856642125984252
20
0.8452827165354331
11
1.7862402755905511
21
0.8452259842519685
0
LINE
8
BLACK
6
CONTINUOUS
10
1.409756496062992
20
0.8094629527559055
11
1.4104768110236221
21
0.8091646062992126
0
LINE
8
BLACK
6
CONTINUOUS
10
1.4104768110236221
20
0.8091646062992126
11
1.4104768503937009
21
0.8091645669291339
0
LINE
8
BLACK
6
CONTINUOUS
10
1.4104768503937009
20
0.8091645669291339
11
1.4109243307086614
21
0.8087973228346457
0
LINE
8
BLACK
6
CONTINUOUS
10
1.4109243307086614
20
0.8087973228346457
11
1.4127990551181102
21
0.8069225590551181
0
LINE
8
BLACK
6
CONTINUOUS
10
1.4127990551181102
20
0.8069225590551181
11
1.4131662992125984
21
0.8064750787401574
0
LINE
8
BLACK
6
CONTINUOUS
10
1.4131662992125984
20
0.8064750787401574
11
1.4135384251968504
21
0.8055766535433071
0
LINE
8
BLACK
6
CONTINUOUS
10
1.4135384251968504
20
0.8055766535433071
11
1.4136071653543307
21
0.8054106692913385
0
LINE
8
BLACK
6
CONTINUOUS
10
1.4136071653543307
20
0.8054106692913385
11
1.4136071653543307
21
0.8042585826771653
0
LINE
8
BLACK
6
CONTINUOUS
10
1.4136071653543307
20
0.8042585826771653
11
1.4131662598425196
21
0.8031941732283464
0
LINE
8
BLACK
6
CONTINUOUS
10
1.4131662598425196
20
0.8031941732283464
11
1.4127990551181102
21
0.8027467322834646
0
LINE
8
BLACK
6
CONTINUOUS
10
1.4127990551181102
20
0.8027467322834646
11
1.4109242913385827
21
0.8008719685039369
0
LINE
8
BLACK
6
CONTINUOUS
10
1.4109242913385827
20
0.8008719685039369
11
1.4104768503937009
21
0.8005047637795275
0
LINE
8
BLACK
6
CONTINUOUS
10
1.4104768503937009
20
0.8005047637795275
11
1.4094124409448818
21
0.8000638582677165
0
LINE
8
BLACK
6
CONTINUOUS
10
1.4094124409448818
20
0.8000638582677165
11
1.4094124015748031
21
0.8000638582677165
0
LINE
8
BLACK
6
CONTINUOUS
10
1.4094124015748031
20
0.8000638582677165
11
1.4082603543307086
21
0.8000638582677165
0
LINE
8
BLACK
6
CONTINUOUS
10
1.4082603543307086
20
0.8000638582677165
11
1.4082603149606299
21
0.8000638582677165
0
LINE
8
BLACK
6
CONTINUOUS
10
1.4082603149606299
20
0.8000638582677165
11
1.4071959055118111
21
0.8005047637795275
0
LINE
8
BLACK
6
CONTINUOUS
10
1.4071959055118111
20
0.8005047637795275
11
1.406748464566929
21
0.8008719685039369
0
LINE
8
BLACK
6
CONTINUOUS
10
1.406748464566929
20
0.8008719685039369
11
1.4048737007874015
21
0.8027467322834646
0
LINE
8
BLACK
6
CONTINUOUS
10
1.4048737007874015
20
0.8027467322834646
11
1.404506496062992
21
0.8031941732283464
0
LINE
8
BLACK
6
CONTINUOUS
10
1.404506496062992
20
0.8031941732283464
11
1.4042638976377952
21
0.8037798818897638
0
LINE
8
BLACK
6
CONTINUOUS
10
1.4042638976377952
20
0.8037798818897638
11
1.404065590551181
21
0.8042585826771653
0
LINE
8
BLACK
6
CONTINUOUS
10
1.404065590551181
20
0.8042585826771653
11
1.404065590551181
21
0.8054106692913385
0
LINE
8
BLACK
6
CONTINUOUS
10
1.404065590551181
20
0.8054106692913385
11
1.4045064566929133
21
0.8064750787401574
0
LINE
8
BLACK
6
CONTINUOUS
10
1.4045064566929133
20
0.8064750787401574
11
1.4048736614173227
21
0.8069225196850394
0
LINE
8
BLACK
6
CONTINUOUS
10
1.4048736614173227
20
0.8069225196850394
11
1.4067484251968503
21
0.8087973228346457
0
LINE
8
BLACK
6
CONTINUOUS
10
1.4067484251968503
20
0.8087973228346457
11
1.4071959055118111
21
0.8091645669291339
0
LINE
8
BLACK
6
CONTINUOUS
10
1.4071959055118111
20
0.8091645669291339
11
1.4071959448818898
21
0.8091646062992126
0
LINE
8
BLACK
6
CONTINUOUS
10
1.4071959448818898
20
0.8091646062992126
11
1.4079162598425197
21
0.8094629527559055
0
LINE
8
BLACK
6
CONTINUOUS
10
1.4079162598425197
20
0.8094629527559055
11
1.4082603149606299
21
0.8096054724409448
0
LINE
8
BLACK
6
CONTINUOUS
10
1.4082603149606299
20
0.8096054724409448
11
1.4094124015748031
21
0.8096054724409448
0
LINE
8
BLACK
6
CONTINUOUS
10
1.4094124015748031
20
0.8096054724409448
11
1.4094124409448818
21
0.8096054724409448
0
LINE
8
BLACK
6
CONTINUOUS
10
1.4094124409448818
20
0.8096054724409448
11
1.409756496062992
21
0.8094629527559055
0
LINE
8
BLACK
6
CONTINUOUS
10
1.5417104330708662
20
0.8316617322834645
11
1.5425250787401574
21
0.8308470866141732
0
LINE
8
BLACK
6
CONTINUOUS
10
1.5425250787401574
20
0.8308470866141732
11
1.5429659842519685
21
0.8297826771653544
0
LINE
8
BLACK
6
CONTINUOUS
10
1.5429659842519685
20
0.8297826771653544
11
1.5430227165354331
21
0.8292066141732283
0
LINE
8
BLACK
6
CONTINUOUS
10
1.5430227165354331
20
0.8292066141732283
11
1.5430227165354331
21
0.8029598818897637
0
LINE
8
BLACK
6
CONTINUOUS
10
1.5430227165354331
20
0.8029598818897637
11
1.5429659842519685
21
0.8023838188976378
0
LINE
8
BLACK
6
CONTINUOUS
10
1.5429659842519685
20
0.8023838188976378
11
1.5425250787401574
21
0.8013194094488189
0
LINE
8
BLACK
6
CONTINUOUS
10
1.5425250787401574
20
0.8013194094488189
11
1.5417104330708662
21
0.8005047637795275
0
LINE
8
BLACK
6
CONTINUOUS
10
1.5417104330708662
20
0.8005047637795275
11
1.5406460236220472
21
0.8000638582677165
0
LINE
8
BLACK
6
CONTINUOUS
10
1.5406460236220472
20
0.8000638582677165
11
1.5394938976377952
21
0.8000638582677165
0
LINE
8
BLACK
6
CONTINUOUS
10
1.5394938976377952
20
0.8000638582677165
11
1.5384294881889764
21
0.8005047637795275
0
LINE
8
BLACK
6
CONTINUOUS
10
1.5384294881889764
20
0.8005047637795275
11
1.5376148425196849
21
0.8013194094488189
0
LINE
8
BLACK
6
CONTINUOUS
10
1.5376148425196849
20
0.8013194094488189
11
1.5371739370078741
21
0.8023838188976378
0
LINE
8
BLACK
6
CONTINUOUS
10
1.5371739370078741
20
0.8023838188976378
11
1.5371172047244095
21
0.8029598818897637
0
LINE
8
BLACK
6
CONTINUOUS
10
1.5371172047244095
20
0.8029598818897637
11
1.5371172047244095
21
0.8292066141732283
0
LINE
8
BLACK
6
CONTINUOUS
10
1.5371172047244095
20
0.8292066141732283
11
1.5371739370078741
21
0.8297826771653544
0
LINE
8
BLACK
6
CONTINUOUS
10
1.5371739370078741
20
0.8297826771653544
11
1.5376148425196849
21
0.8308470866141732
0
LINE
8
BLACK
6
CONTINUOUS
10
1.5376148425196849
20
0.8308470866141732
11
1.5384294881889764
21
0.8316617322834645
0
LINE
8
BLACK
6
CONTINUOUS
10
1.5384294881889764
20
0.8316617322834645
11
1.5394938976377952
21
0.8321026377952756
0
LINE
8
BLACK
6
CONTINUOUS
10
1.5394938976377952
20
0.8321026377952756
11
1.5406460236220472
21
0.8321026377952756
0
LINE
8
BLACK
6
CONTINUOUS
10
1.5406460236220472
20
0.8321026377952756
11
1.5417104330708662
21
0.8316617322834645
0
LINE
8
BLACK
6
CONTINUOUS
10
1.570642244094488
20
0.8321026377952756
11
1.5707402362204723
21
0.8320620472440945
0
LINE
8
BLACK
6
CONTINUOUS
10
1.5707402362204723
20
0.8320620472440945
11
1.5708460629921259
21
0.8320545275590551
0
LINE
8
BLACK
6
CONTINUOUS
10
1.5708460629921259
20
0.8320545275590551
11
1.5713866929133857
21
0.8318476377952756
0
LINE
8
BLACK
6
CONTINUOUS
10
1.5713866929133857
20
0.8318476377952756
11
1.5751362204724408
21
0.829972874015748
0
LINE
8
BLACK
6
CONTINUOUS
10
1.5751362204724408
20
0.829972874015748
11
1.5752325590551182
21
0.8299122440944882
0
LINE
8
BLACK
6
CONTINUOUS
10
1.5752325590551182
20
0.8299122440944882
11
1.5752779921259843
21
0.8298970866141732
0
LINE
8
BLACK
6
CONTINUOUS
10
1.5752779921259843
20
0.8298970866141732
11
1.5753345275590551
21
0.8298480708661418
0
LINE
8
BLACK
6
CONTINUOUS
10
1.5753345275590551
20
0.8298480708661418
11
1.5756261023622047
21
0.8296645275590551
0
LINE
8
BLACK
6
CONTINUOUS
10
1.5756261023622047
20
0.8296645275590551
11
1.5758686614173227
21
0.829384842519685
0
LINE
8
BLACK
6
CONTINUOUS
10
1.5758686614173227
20
0.829384842519685
11
1.5761483858267715
21
0.8291422440944882
0
LINE
8
BLACK
6
CONTINUOUS
10
1.5761483858267715
20
0.8291422440944882
11
1.5763318897637795
21
0.8288507086614173
0
LINE
8
BLACK
6
CONTINUOUS
10
1.5763318897637795
20
0.8288507086614173
11
1.5763809448818897
21
0.8287941338582677
0
LINE
8
BLACK
6
CONTINUOUS
10
1.5763809448818897
20
0.8287941338582677
11
1.5763960629921259
21
0.8287487401574803
0
LINE
8
BLACK
6
CONTINUOUS
10
1.5763960629921259
20
0.8287487401574803
11
1.5764567322834646
21
0.8286523622047244
0
LINE
8
BLACK
6
CONTINUOUS
10
1.5764567322834646
20
0.8286523622047244
11
1.5783314960629922
21
0.8249028346456693
0
LINE
8
BLACK
6
CONTINUOUS
10
1.5783314960629922
20
0.8249028346456693
11
1.5785383858267716
21
0.8243622440944882
0
LINE
8
BLACK
6
CONTINUOUS
10
1.5785383858267716
20
0.8243622440944882
11
1.578545905511811
21
0.8242563779527559
0
LINE
8
BLACK
6
CONTINUOUS
10
1.578545905511811
20
0.8242563779527559
11
1.5785864960629921
21
0.8241583858267716
0
LINE
8
BLACK
6
CONTINUOUS
10
1.5785864960629921
20
0.8241583858267716
11
1.5786432283464567
21
0.8235823228346456
0
LINE
8
BLACK
6
CONTINUOUS
10
1.5786432283464567
20
0.8235823228346456
11
1.5786432283464567
21
0.8029598818897637
0
LINE
8
BLACK
6
CONTINUOUS
10
1.5786432283464567
20
0.8029598818897637
11
1.5785864960629921
21
0.8023838188976378
0
LINE
8
BLACK
6
CONTINUOUS
10
1.5785864960629921
20
0.8023838188976378
11
1.578145590551181
21
0.8013194094488189
0
LINE
8
BLACK
6
CONTINUOUS
10
1.578145590551181
20
0.8013194094488189
11
1.5773309448818897
21
0.8005047637795275
0
LINE
8
BLACK
6
CONTINUOUS
10
1.5773309448818897
20
0.8005047637795275
11
1.5762665354330709
21
0.8000638582677165
0
LINE
8
BLACK
6
CONTINUOUS
10
1.5762665354330709
20
0.8000638582677165
11
1.5751144094488188
21
0.8000638582677165
0
LINE
8
BLACK
6
CONTINUOUS
10
1.5751144094488188
20
0.8000638582677165
11
1.5740499999999999
21
0.8005047637795275
0
LINE
8
BLACK
6
CONTINUOUS
10
1.5740499999999999
20
0.8005047637795275
11
1.5732353543307087
21
0.8013194094488189
0
LINE
8
BLACK
6
CONTINUOUS
10
1.5732353543307087
20
0.8013194094488189
11
1.5727944488188976
21
0.8023838188976378
0
LINE
8
BLACK
6
CONTINUOUS
10
1.5727944488188976
20
0.8023838188976378
11
1.572737716535433
21
0.8029598818897637
0
LINE
8
BLACK
6
CONTINUOUS
10
1.572737716535433
20
0.8029598818897637
11
1.572737716535433
21
0.8228852755905511
0
LINE
8
BLACK
6
CONTINUOUS
10
1.572737716535433
20
0.8228852755905511
11
1.571614842519685
21
0.8251310236220473
0
LINE
8
BLACK
6
CONTINUOUS
10
1.571614842519685
20
0.8251310236220473
11
1.5693691338582676
21
0.8262538582677165
0
LINE
8
BLACK
6
CONTINUOUS
10
1.5693691338582676
20
0.8262538582677165
11
1.5651389370078739
21
0.8262538582677165
0
LINE
8
BLACK
6
CONTINUOUS
10
1.5651389370078739
20
0.8262538582677165
11
1.5624414566929135
21
0.8249051181102361
0
LINE
8
BLACK
6
CONTINUOUS
10
1.5624414566929135
20
0.8249051181102361
11
1.5617703543307087
21
0.8242340157480315
0
LINE
8
BLACK
6
CONTINUOUS
10
1.5617703543307087
20
0.8242340157480315
11
1.5617703543307087
21
0.8029598818897637
0
LINE
8
BLACK
6
CONTINUOUS
10
1.5617703543307087
20
0.8029598818897637
11
1.5617136220472441
21
0.8023838188976378
0
LINE
8
BLACK
6
CONTINUOUS
10
1.5617136220472441
20
0.8023838188976378
11
1.561272716535433
21
0.8013194094488189
0
LINE
8
BLACK
6
CONTINUOUS
10
1.561272716535433
20
0.8013194094488189
11
1.5604580708661417
21
0.8005047637795275
0
LINE
8
BLACK
6
CONTINUOUS
10
1.5604580708661417
20
0.8005047637795275
11
1.5593936614173227
21
0.8000638582677165
0
LINE
8
BLACK
6
CONTINUOUS
10
1.5593936614173227
20
0.8000638582677165
11
1.5582415354330708
21
0.8000638582677165
0
LINE
8
BLACK
6
CONTINUOUS
10
1.5582415354330708
20
0.8000638582677165
11
1.557177125984252
21
0.8005047637795275
0
LINE
8
BLACK
6
CONTINUOUS
10
1.557177125984252
20
0.8005047637795275
11
1.5563624803149605
21
0.8013194094488189
0
LINE
8
BLACK
6
CONTINUOUS
10
1.5563624803149605
20
0.8013194094488189
11
1.5559215748031496
21
0.8023838188976378
0
LINE
8
BLACK
6
CONTINUOUS
10
1.5559215748031496
20
0.8023838188976378
11
1.555864842519685
21
0.8029598818897637
0
LINE
8
BLACK
6
CONTINUOUS
10
1.555864842519685
20
0.8029598818897637
11
1.555864842519685
21
0.8292066141732283
0
LINE
8
BLACK
6
CONTINUOUS
10
1.555864842519685
20
0.8292066141732283
11
1.5559215748031496
21
0.8297826771653544
0
LINE
8
BLACK
6
CONTINUOUS
10
1.5559215748031496
20
0.8297826771653544
11
1.5563624803149605
21
0.8308470866141732
0
LINE
8
BLACK
6
CONTINUOUS
10
1.5563624803149605
20
0.8308470866141732
11
1.557177125984252
21
0.8316617322834645
0
LINE
8
BLACK
6
CONTINUOUS
10
1.557177125984252
20
0.8316617322834645
11
1.5582415354330708
21
0.8321026377952756
0
LINE
8
BLACK
6
CONTINUOUS
10
1.5582415354330708
20
0.8321026377952756
11
1.5593936614173227
21
0.8321026377952756
0
LINE
8
BLACK
6
CONTINUOUS
10
1.5593936614173227
20
0.8321026377952756
11
1.5604580708661417
21
0.8316617322834645
0
LINE
8
BLACK
6
CONTINUOUS
10
1.5604580708661417
20
0.8316617322834645
11
1.5612218897637795
21
0.8308979133858267
0
LINE
8
BLACK
6
CONTINUOUS
10
1.5612218897637795
20
0.8308979133858267
11
1.563121377952756
21
0.8318476377952756
0
LINE
8
BLACK
6
CONTINUOUS
10
1.563121377952756
20
0.8318476377952756
11
1.563661968503937
21
0.8320545275590551
0
LINE
8
BLACK
6
CONTINUOUS
10
1.563661968503937
20
0.8320545275590551
11
1.5637678346456692
21
0.8320620866141732
0
LINE
8
BLACK
6
CONTINUOUS
10
1.5637678346456692
20
0.8320620866141732
11
1.5638658267716534
21
0.8321026377952756
0
LINE
8
BLACK
6
CONTINUOUS
10
1.5638658267716534
20
0.8321026377952756
11
1.5644418897637795
21
0.8321593700787402
0
LINE
8
BLACK
6
CONTINUOUS
10
1.5644418897637795
20
0.8321593700787402
11
1.5700661811023622
21
0.8321593700787402
0
LINE
8
BLACK
6
CONTINUOUS
10
1.5700661811023622
20
0.8321593700787402
11
1.570642244094488
21
0.8321026377952756
0
LINE
8
BLACK
6
CONTINUOUS
10
1.6740984251968503
20
0.8094629527559055
11
1.6748187401574803
21
0.8091646062992126
0
LINE
8
BLACK
6
CONTINUOUS
10
1.6748187401574803
20
0.8091646062992126
11
1.6748187795275591
21
0.8091645669291339
0
LINE
8
BLACK
6
CONTINUOUS
10
1.6748187795275591
20
0.8091645669291339
11
1.6752662598425196
21
0.8087973228346457
0
LINE
8
BLACK
6
CONTINUOUS
10
1.6752662598425196
20
0.8087973228346457
11
1.6771409842519684
21
0.8069225590551181
0
LINE
8
BLACK
6
CONTINUOUS
10
1.6771409842519684
20
0.8069225590551181
11
1.6775082283464566
21
0.8064750787401574
0
LINE
8
BLACK
6
CONTINUOUS
10
1.6775082283464566
20
0.8064750787401574
11
1.6778803543307086
21
0.8055766535433071
0
LINE
8
BLACK
6
CONTINUOUS
10
1.6778803543307086
20
0.8055766535433071
11
1.677949094488189
21
0.8054106692913385
0
LINE
8
BLACK
6
CONTINUOUS
10
1.677949094488189
20
0.8054106692913385
11
1.677949094488189
21
0.8042585826771653
0
LINE
8
BLACK
6
CONTINUOUS
10
1.677949094488189
20
0.8042585826771653
11
1.6775081889763779
21
0.8031941732283464
0
LINE
8
BLACK
6
CONTINUOUS
10
1.6775081889763779
20
0.8031941732283464
11
1.6771409842519684
21
0.8027467322834646
0
LINE
8
BLACK
6
CONTINUOUS
10
1.6771409842519684
20
0.8027467322834646
11
1.6752662204724409
21
0.8008719685039369
0
LINE
8
BLACK
6
CONTINUOUS
10
1.6752662204724409
20
0.8008719685039369
11
1.6748187795275591
21
0.8005047637795275
0
LINE
8
BLACK
6
CONTINUOUS
10
1.6748187795275591
20
0.8005047637795275
11
1.6737543700787401
21
0.8000638582677165
0
LINE
8
BLACK
6
CONTINUOUS
10
1.6737543700787401
20
0.8000638582677165
11
1.6737543307086613
21
0.8000638582677165
0
LINE
8
BLACK
6
CONTINUOUS
10
1.6737543307086613
20
0.8000638582677165
11
1.6726022834645669
21
0.8000638582677165
0
LINE
8
BLACK
6
CONTINUOUS
10
1.6726022834645669
20
0.8000638582677165
11
1.6726022440944881
21
0.8000638582677165
0
LINE
8
BLACK
6
CONTINUOUS
10
1.6726022440944881
20
0.8000638582677165
11
1.6715378346456693
21
0.8005047637795275
0
LINE
8
BLACK
6
CONTINUOUS
10
1.6715378346456693
20
0.8005047637795275
11
1.6710903937007873
21
0.8008719685039369
0
LINE
8
BLACK
6
CONTINUOUS
10
1.6710903937007873
20
0.8008719685039369
11
1.6692156299212597
21
0.8027467322834646
0
LINE
8
BLACK
6
CONTINUOUS
10
1.6692156299212597
20
0.8027467322834646
11
1.6688484251968503
21
0.8031941732283464
0
LINE
8
BLACK
6
CONTINUOUS
10
1.6688484251968503
20
0.8031941732283464
11
1.6686058267716535
21
0.8037798818897638
0
LINE
8
BLACK
6
CONTINUOUS
10
1.6686058267716535
20
0.8037798818897638
11
1.6684075196850394
21
0.8042585826771653
0
LINE
8
BLACK
6
CONTINUOUS
10
1.6684075196850394
20
0.8042585826771653
11
1.6684075196850394
21
0.8054106692913385
0
LINE
8
BLACK
6
CONTINUOUS
10
1.6684075196850394
20
0.8054106692913385
11
1.6688483858267715
21
0.8064750787401574
0
LINE
8
BLACK
6
CONTINUOUS
10
1.6688483858267715
20
0.8064750787401574
11
1.669215590551181
21
0.8069225196850394
0
LINE
8
BLACK
6
CONTINUOUS
10
1.669215590551181
20
0.8069225196850394
11
1.6710903543307085
21
0.8087973228346457
0
LINE
8
BLACK
6
CONTINUOUS
10
1.6710903543307085
20
0.8087973228346457
11
1.6715378346456693
21
0.8091645669291339
0
LINE
8
BLACK
6
CONTINUOUS
10
1.6715378346456693
20
0.8091645669291339
11
1.671537874015748
21
0.8091646062992126
0
LINE
8
BLACK
6
CONTINUOUS
10
1.671537874015748
20
0.8091646062992126
11
1.6722581889763779
21
0.8094629527559055
0
LINE
8
BLACK
6
CONTINUOUS
10
1.6722581889763779
20
0.8094629527559055
11
1.6726022440944881
21
0.8096054724409448
0
LINE
8
BLACK
6
CONTINUOUS
10
1.6726022440944881
20
0.8096054724409448
11
1.6737543307086613
21
0.8096054724409448
0
LINE
8
BLACK
6
CONTINUOUS
10
1.6737543307086613
20
0.8096054724409448
11
1.6737543700787401
21
0.8096054724409448
0
LINE
8
BLACK
6
CONTINUOUS
10
1.6737543700787401
20
0.8096054724409448
11
1.6740984251968503
21
0.8094629527559055
0
LINE
8
BLACK
6
CONTINUOUS
10
1.8162365354330707
20
0.8321026377952756
11
1.816334527559055
21
0.8320620472440945
0
LINE
8
BLACK
6
CONTINUOUS
10
1.816334527559055
20
0.8320620472440945
11
1.8164403543307086
21
0.8320545275590551
0
LINE
8
BLACK
6
CONTINUOUS
10
1.8164403543307086
20
0.8320545275590551
11
1.8169809842519684
21
0.8318476377952756
0
LINE
8
BLACK
6
CONTINUOUS
10
1.8169809842519684
20
0.8318476377952756
11
1.8207305118110235
21
0.829972874015748
0
LINE
8
BLACK
6
CONTINUOUS
10
1.8207305118110235
20
0.829972874015748
11
1.8208268503937008
21
0.8299122440944882
0
LINE
8
BLACK
6
CONTINUOUS
10
1.8208268503937008
20
0.8299122440944882
11
1.820872283464567
21
0.8298970866141732
0
LINE
8
BLACK
6
CONTINUOUS
10
1.820872283464567
20
0.8298970866141732
11
1.8209288188976378
21
0.8298480708661418
0
LINE
8
BLACK
6
CONTINUOUS
10
1.8209288188976378
20
0.8298480708661418
11
1.8212203937007874
21
0.8296645275590551
0
LINE
8
BLACK
6
CONTINUOUS
10
1.8212203937007874
20
0.8296645275590551
11
1.8212847637795275
21
0.8295903149606298
0
LINE
8
BLACK
6
CONTINUOUS
10
1.8212847637795275
20
0.8295903149606298
11
1.8213491338582677
21
0.8296645275590551
0
LINE
8
BLACK
6
CONTINUOUS
10
1.8213491338582677
20
0.8296645275590551
11
1.8216406692913385
21
0.8298480708661418
0
LINE
8
BLACK
6
CONTINUOUS
10
1.8216406692913385
20
0.8298480708661418
11
1.8216972440944881
21
0.8298970866141732
0
LINE
8
BLACK
6
CONTINUOUS
10
1.8216972440944881
20
0.8298970866141732
11
1.8217426377952755
21
0.8299122440944882
0
LINE
8
BLACK
6
CONTINUOUS
10
1.8217426377952755
20
0.8299122440944882
11
1.8218390157480315
21
0.829972874015748
0
LINE
8
BLACK
6
CONTINUOUS
10
1.8218390157480315
20
0.829972874015748
11
1.8255885433070866
21
0.8318476377952756
0
LINE
8
BLACK
6
CONTINUOUS
10
1.8255885433070866
20
0.8318476377952756
11
1.8261291338582677
21
0.8320545275590551
0
LINE
8
BLACK
6
CONTINUOUS
10
1.8261291338582677
20
0.8320545275590551
11
1.8262350000000001
21
0.8320620866141732
0
LINE
8
BLACK
6
CONTINUOUS
10
1.8262350000000001
20
0.8320620866141732
11
1.8263329921259841
21
0.8321026377952756
0
LINE
8
BLACK
6
CONTINUOUS
10
1.8263329921259841
20
0.8321026377952756
11
1.8269090551181102
21
0.8321593700787402
0
LINE
8
BLACK
6
CONTINUOUS
10
1.8269090551181102
20
0.8321593700787402
11
1.8325333464566929
21
0.8321593700787402
0
LINE
8
BLACK
6
CONTINUOUS
10
1.8325333464566929
20
0.8321593700787402
11
1.8331094094488189
21
0.8321026377952756
0
LINE
8
BLACK
6
CONTINUOUS
10
1.8331094094488189
20
0.8321026377952756
11
1.833207401574803
21
0.8320620472440945
0
LINE
8
BLACK
6
CONTINUOUS
10
1.833207401574803
20
0.8320620472440945
11
1.8333132283464566
21
0.8320545275590551
0
LINE
8
BLACK
6
CONTINUOUS
10
1.8333132283464566
20
0.8320545275590551
11
1.8338538582677164
21
0.8318476377952756
0
LINE
8
BLACK
6
CONTINUOUS
10
1.8338538582677164
20
0.8318476377952756
11
1.8376034251968503
21
0.829972874015748
0
LINE
8
BLACK
6
CONTINUOUS
10
1.8376034251968503
20
0.829972874015748
11
1.8376997244094488
21
0.8299122440944882
0
LINE
8
BLACK
6
CONTINUOUS
10
1.8376997244094488
20
0.8299122440944882
11
1.8377451968503937
21
0.8298970866141732
0
LINE
8
BLACK
6
CONTINUOUS
10
1.8377451968503937
20
0.8298970866141732
11
1.8378017716535433
21
0.829848031496063
0
LINE
8
BLACK
6
CONTINUOUS
10
1.8378017716535433
20
0.829848031496063
11
1.8380932677165354
21
0.8296645275590551
0
LINE
8
BLACK
6
CONTINUOUS
10
1.8380932677165354
20
0.8296645275590551
11
1.8383357480314961
21
0.8293849212598425
0
LINE
8
BLACK
6
CONTINUOUS
10
1.8383357480314961
20
0.8293849212598425
11
1.838615590551181
21
0.8291422440944882
0
LINE
8
BLACK
6
CONTINUOUS
10
1.838615590551181
20
0.8291422440944882
11
1.8387990944881889
21
0.8288507086614173
0
LINE
8
BLACK
6
CONTINUOUS
10
1.8387990944881889
20
0.8288507086614173
11
1.8388481496062992
21
0.8287941338582677
0
LINE
8
BLACK
6
CONTINUOUS
10
1.8388481496062992
20
0.8287941338582677
11
1.8388632677165353
21
0.8287487401574803
0
LINE
8
BLACK
6
CONTINUOUS
10
1.8388632677165353
20
0.8287487401574803
11
1.838923937007874
21
0.8286523622047244
0
LINE
8
BLACK
6
CONTINUOUS
10
1.838923937007874
20
0.8286523622047244
11
1.8407987007874016
21
0.8249028346456693
0
LINE
8
BLACK
6
CONTINUOUS
10
1.8407987007874016
20
0.8249028346456693
11
1.8410055905511811
21
0.8243622440944882
0
LINE
8
BLACK
6
CONTINUOUS
10
1.8410055905511811
20
0.8243622440944882
11
1.8410131102362204
21
0.8242563779527559
0
LINE
8
BLACK
6
CONTINUOUS
10
1.8410131102362204
20
0.8242563779527559
11
1.8410537007874015
21
0.8241583858267716
0
LINE
8
BLACK
6
CONTINUOUS
10
1.8410537007874015
20
0.8241583858267716
11
1.8411104330708661
21
0.8235823228346456
0
LINE
8
BLACK
6
CONTINUOUS
10
1.8411104330708661
20
0.8235823228346456
11
1.8411104330708661
21
0.8029598818897637
0
LINE
8
BLACK
6
CONTINUOUS
10
1.8411104330708661
20
0.8029598818897637
11
1.8410537007874015
21
0.8023838188976378
0
LINE
8
BLACK
6
CONTINUOUS
10
1.8410537007874015
20
0.8023838188976378
11
1.8406127952755904
21
0.8013194094488189
0
LINE
8
BLACK
6
CONTINUOUS
10
1.8406127952755904
20
0.8013194094488189
11
1.8397981496062992
21
0.8005047637795275
0
LINE
8
BLACK
6
CONTINUOUS
10
1.8397981496062992
20
0.8005047637795275
11
1.8387337401574804
21
0.8000638582677165
0
LINE
8
BLACK
6
CONTINUOUS
10
1.8387337401574804
20
0.8000638582677165
11
1.8375816141732284
21
0.8000638582677165
0
LINE
8
BLACK
6
CONTINUOUS
10
1.8375816141732284
20
0.8000638582677165
11
1.8365172047244094
21
0.8005047637795275
0
LINE
8
BLACK
6
CONTINUOUS
10
1.8365172047244094
20
0.8005047637795275
11
1.8357025590551181
21
0.8013194094488189
0
LINE
8
BLACK
6
CONTINUOUS
10
1.8357025590551181
20
0.8013194094488189
11
1.8352616535433071
21
0.8023838188976378
0
LINE
8
BLACK
6
CONTINUOUS
10
1.8352616535433071
20
0.8023838188976378
11
1.8352049212598425
21
0.8029598818897637
0
LINE
8
BLACK
6
CONTINUOUS
10
1.8352049212598425
20
0.8029598818897637
11
1.8352049212598425
21
0.8228852755905511
0
LINE
8
BLACK
6
CONTINUOUS
10
1.8352049212598425
20
0.8228852755905511
11
1.8340820472440944
21
0.8251310236220473
0
LINE
8
BLACK
6
CONTINUOUS
10
1.8340820472440944
20
0.8251310236220473
11
1.8318362992125983
21
0.8262538582677165
0
LINE
8
BLACK
6
CONTINUOUS
10
1.8318362992125983
20
0.8262538582677165
11
1.8276061023622048
21
0.8262538582677165
0
LINE
8
BLACK
6
CONTINUOUS
10
1.8276061023622048
20
0.8262538582677165
11
1.8253603543307086
21
0.8251310236220473
0
LINE
8
BLACK
6
CONTINUOUS
10
1.8253603543307086
20
0.8251310236220473
11
1.8242375196850393
21
0.8228852755905511
0
LINE
8
BLACK
6
CONTINUOUS
10
1.8242375196850393
20
0.8228852755905511
11
1.8242375196850393
21
0.8029598818897637
0
LINE
8
BLACK
6
CONTINUOUS
10
1.8242375196850393
20
0.8029598818897637
11
1.8241807874015747
21
0.8023838188976378
0
LINE
8
BLACK
6
CONTINUOUS
10
1.8241807874015747
20
0.8023838188976378
11
1.8237398818897637
21
0.8013194094488189
0
LINE
8
BLACK
6
CONTINUOUS
10
1.8237398818897637
20
0.8013194094488189
11
1.8229252362204724
21
0.8005047637795275
0
LINE
8
BLACK
6
CONTINUOUS
10
1.8229252362204724
20
0.8005047637795275
11
1.8218608267716534
21
0.8000638582677165
0
LINE
8
BLACK
6
CONTINUOUS
10
1.8218608267716534
20
0.8000638582677165
11
1.8207087007874014
21
0.8000638582677165
0
LINE
8
BLACK
6
CONTINUOUS
10
1.8207087007874014
20
0.8000638582677165
11
1.8196442913385826
21
0.8005047637795275
0
LINE
8
BLACK
6
CONTINUOUS
10
1.8196442913385826
20
0.8005047637795275
11
1.8188296456692914
21
0.8013194094488189
0
LINE
8
BLACK
6
CONTINUOUS
10
1.8188296456692914
20
0.8013194094488189
11
1.8183887401574803
21
0.8023838188976378
0
LINE
8
BLACK
6
CONTINUOUS
10
1.8183887401574803
20
0.8023838188976378
11
1.8183320078740157
21
0.8029598818897637
0
LINE
8
BLACK
6
CONTINUOUS
10
1.8183320078740157
20
0.8029598818897637
11
1.8183320078740157
21
0.8228852755905511
0
LINE
8
BLACK
6
CONTINUOUS
10
1.8183320078740157
20
0.8228852755905511
11
1.8172091338582677
21
0.8251310236220473
0
LINE
8
BLACK
6
CONTINUOUS
10
1.8172091338582677
20
0.8251310236220473
11
1.8149634251968503
21
0.8262538582677165
0
LINE
8
BLACK
6
CONTINUOUS
10
1.8149634251968503
20
0.8262538582677165
11
1.8107332283464566
21
0.8262538582677165
0
LINE
8
BLACK
6
CONTINUOUS
10
1.8107332283464566
20
0.8262538582677165
11
1.8080357480314959
21
0.8249051181102361
0
LINE
8
BLACK
6
CONTINUOUS
10
1.8080357480314959
20
0.8249051181102361
11
1.8073646456692913
21
0.8242340157480315
0
LINE
8
BLACK
6
CONTINUOUS
10
1.8073646456692913
20
0.8242340157480315
11
1.8073646456692913
21
0.8029598818897637
0
LINE
8
BLACK
6
CONTINUOUS
10
1.8073646456692913
20
0.8029598818897637
11
1.8073079133858267
21
0.8023838188976378
0
LINE
8
BLACK
6
CONTINUOUS
10
1.8073079133858267
20
0.8023838188976378
11
1.8068670078740157
21
0.8013194094488189
0
LINE
8
BLACK
6
CONTINUOUS
10
1.8068670078740157
20
0.8013194094488189
11
1.8060523622047244
21
0.8005047637795275
0
LINE
8
BLACK
6
CONTINUOUS
10
1.8060523622047244
20
0.8005047637795275
11
1.8049879527559054
21
0.8000638582677165
0
LINE
8
BLACK
6
CONTINUOUS
10
1.8049879527559054
20
0.8000638582677165
11
1.8038358267716534
21
0.8000638582677165
0
LINE
8
BLACK
6
CONTINUOUS
10
1.8038358267716534
20
0.8000638582677165
11
1.8027714173228346
21
0.8005047637795275
0
LINE
8
BLACK
6
CONTINUOUS
10
1.8027714173228346
20
0.8005047637795275
11
1.8019567716535432
21
0.8013194094488189
0
LINE
8
BLACK
6
CONTINUOUS
10
1.8019567716535432
20
0.8013194094488189
11
1.8015158661417323
21
0.8023838188976378
0
LINE
8
BLACK
6
CONTINUOUS
10
1.8015158661417323
20
0.8023838188976378
11
1.8014591338582677
21
0.8029598818897637
0
LINE
8
BLACK
6
CONTINUOUS
10
1.8014591338582677
20
0.8029598818897637
11
1.8014591338582677
21
0.8292066141732283
0
LINE
8
BLACK
6
CONTINUOUS
10
1.8014591338582677
20
0.8292066141732283
11
1.8015158661417323
21
0.8297826771653544
0
LINE
8
BLACK
6
CONTINUOUS
10
1.8015158661417323
20
0.8297826771653544
11
1.8019567716535432
21
0.8308470866141732
0
LINE
8
BLACK
6
CONTINUOUS
10
1.8019567716535432
20
0.8308470866141732
11
1.8027714173228346
21
0.8316617322834645
0
LINE
8
BLACK
6
CONTINUOUS
10
1.8027714173228346
20
0.8316617322834645
11
1.8038358267716534
21
0.8321026377952756
0
LINE
8
BLACK
6
CONTINUOUS
10
1.8038358267716534
20
0.8321026377952756
11
1.8049879527559054
21
0.8321026377952756
0
LINE
8
BLACK
6
CONTINUOUS
10
1.8049879527559054
20
0.8321026377952756
11
1.8060523622047244
21
0.8316617322834645
0
LINE
8
BLACK
6
CONTINUOUS
10
1.8060523622047244
20
0.8316617322834645
11
1.8068161811023622
21
0.8308979133858267
0
LINE
8
BLACK
6
CONTINUOUS
10
1.8068161811023622
20
0.8308979133858267
11
1.8087156692913386
21
0.8318476377952756
0
LINE
8
BLACK
6
CONTINUOUS
10
1.8087156692913386
20
0.8318476377952756
11
1.8092562598425197
21
0.8320545275590551
0
LINE
8
BLACK
6
CONTINUOUS
10
1.8092562598425197
20
0.8320545275590551
11
1.8093621259842518
21
0.8320620866141732
0
LINE
8
BLACK
6
CONTINUOUS
10
1.8093621259842518
20
0.8320620866141732
11
1.8094601181102361
21
0.8321026377952756
0
LINE
8
BLACK
6
CONTINUOUS
10
1.8094601181102361
20
0.8321026377952756
11
1.8100361811023622
21
0.8321593700787402
0
LINE
8
BLACK
6
CONTINUOUS
10
1.8100361811023622
20
0.8321593700787402
11
1.8156604724409449
21
0.8321593700787402
0
LINE
8
BLACK
6
CONTINUOUS
10
1.8156604724409449
20
0.8321593700787402
11
1.8162365354330707
21
0.8321026377952756
0
LINE
8
BLACK
6
CONTINUOUS
10
1.8687299606299212
20
0.8321026377952756
11
1.8688279527559055
21
0.8320620472440945
0
LINE
8
BLACK
6
CONTINUOUS
10
1.8688279527559055
20
0.8320620472440945
11
1.8689337795275589
21
0.8320545275590551
0
LINE
8
BLACK
6
CONTINUOUS
10
1.8689337795275589
20
0.8320545275590551
11
1.8694744094488189
21
0.8318476377952756
0
LINE
8
BLACK
6
CONTINUOUS
10
1.8694744094488189
20
0.8318476377952756
11
1.873223937007874
21
0.829972874015748
0
LINE
8
BLACK
6
CONTINUOUS
10
1.873223937007874
20
0.829972874015748
11
1.8733202755905511
21
0.8299122440944882
0
LINE
8
BLACK
6
CONTINUOUS
10
1.8733202755905511
20
0.8299122440944882
11
1.8733657086614173
21
0.8298970866141732
0
LINE
8
BLACK
6
CONTINUOUS
10
1.8733657086614173
20
0.8298970866141732
11
1.8734222440944881
21
0.8298480708661418
0
LINE
8
BLACK
6
CONTINUOUS
10
1.8734222440944881
20
0.8298480708661418
11
1.8737138188976377
21
0.8296645275590551
0
LINE
8
BLACK
6
CONTINUOUS
10
1.8737138188976377
20
0.8296645275590551
11
1.8737781889763778
21
0.8295903149606298
0
LINE
8
BLACK
6
CONTINUOUS
10
1.8737781889763778
20
0.8295903149606298
11
1.873842559055118
21
0.8296645275590551
0
LINE
8
BLACK
6
CONTINUOUS
10
1.873842559055118
20
0.8296645275590551
11
1.874134094488189
21
0.8298480708661418
0
LINE
8
BLACK
6
CONTINUOUS
10
1.874134094488189
20
0.8298480708661418
11
1.8741906692913386
21
0.8298970866141732
0
LINE
8
BLACK
6
CONTINUOUS
10
1.8741906692913386
20
0.8298970866141732
11
1.874236062992126
21
0.8299122440944882
0
LINE
8
BLACK
6
CONTINUOUS
10
1.874236062992126
20
0.8299122440944882
11
1.8743324409448818
21
0.829972874015748
0
LINE
8
BLACK
6
CONTINUOUS
10
1.8743324409448818
20
0.829972874015748
11
1.8780819685039369
21
0.8318476377952756
0
LINE
8
BLACK
6
CONTINUOUS
10
1.8780819685039369
20
0.8318476377952756
11
1.878622559055118
21
0.8320545275590551
0
LINE
8
BLACK
6
CONTINUOUS
10
1.878622559055118
20
0.8320545275590551
11
1.8787284251968503
21
0.8320620866141732
0
LINE
8
BLACK
6
CONTINUOUS
10
1.8787284251968503
20
0.8320620866141732
11
1.8788264173228346
21
0.8321026377952756
0
LINE
8
BLACK
6
CONTINUOUS
10
1.8788264173228346
20
0.8321026377952756
11
1.8794024803149605
21
0.8321593700787402
0
LINE
8
BLACK
6
CONTINUOUS
10
1.8794024803149605
20
0.8321593700787402
11
1.8850267716535432
21
0.8321593700787402
0
LINE
8
BLACK
6
CONTINUOUS
10
1.8850267716535432
20
0.8321593700787402
11
1.8856028346456692
21
0.8321026377952756
0
LINE
8
BLACK
6
CONTINUOUS
10
1.8856028346456692
20
0.8321026377952756
11
1.8857008267716535
21
0.8320620472440945
0
LINE
8
BLACK
6
CONTINUOUS
10
1.8857008267716535
20
0.8320620472440945
11
1.8858066535433071
21
0.8320545275590551
0
LINE
8
BLACK
6
CONTINUOUS
10
1.8858066535433071
20
0.8320545275590551
11
1.8863472834645669
21
0.8318476377952756
0
LINE
8
BLACK
6
CONTINUOUS
10
1.8863472834645669
20
0.8318476377952756
11
1.8900968503937008
21
0.829972874015748
0
LINE
8
BLACK
6
CONTINUOUS
10
1.8900968503937008
20
0.829972874015748
11
1.8901931496062991
21
0.8299122440944882
0
LINE
8
BLACK
6
CONTINUOUS
10
1.8901931496062991
20
0.8299122440944882
11
1.890238622047244
21
0.8298970866141732
0
LINE
8
BLACK
6
CONTINUOUS
10
1.890238622047244
20
0.8298970866141732
11
1.8902951968503936
21
0.829848031496063
0
LINE
8
BLACK
6
CONTINUOUS
10
1.8902951968503936
20
0.829848031496063
11
1.8905866929133859
21
0.8296645275590551
0
LINE
8
BLACK
6
CONTINUOUS
10
1.8905866929133859
20
0.8296645275590551
11
1.8908291732283464
21
0.8293849212598425
0
LINE
8
BLACK
6
CONTINUOUS
10
1.8908291732283464
20
0.8293849212598425
11
1.8911090157480315
21
0.8291422440944882
0
LINE
8
BLACK
6
CONTINUOUS
10
1.8911090157480315
20
0.8291422440944882
11
1.8912925196850394
21
0.8288507086614173
0
LINE
8
BLACK
6
CONTINUOUS
10
1.8912925196850394
20
0.8288507086614173
11
1.8913415748031495
21
0.8287941338582677
0
LINE
8
BLACK
6
CONTINUOUS
10
1.8913415748031495
20
0.8287941338582677
11
1.8913566929133858
21
0.8287487401574803
0
LINE
8
BLACK
6
CONTINUOUS
10
1.8913566929133858
20
0.8287487401574803
11
1.8914173622047243
21
0.8286523622047244
0
LINE
8
BLACK
6
CONTINUOUS
10
1.8914173622047243
20
0.8286523622047244
11
1.8932921259842519
21
0.8249028346456693
0
LINE
8
BLACK
6
CONTINUOUS
10
1.8932921259842519
20
0.8249028346456693
11
1.8934990157480314
21
0.8243622440944882
0
LINE
8
BLACK
6
CONTINUOUS
10
1.8934990157480314
20
0.8243622440944882
11
1.8935065354330709
21
0.8242563779527559
0
LINE
8
BLACK
6
CONTINUOUS
10
1.8935065354330709
20
0.8242563779527559
11
1.893547125984252
21
0.8241583858267716
0
LINE
8
BLACK
6
CONTINUOUS
10
1.893547125984252
20
0.8241583858267716
11
1.8936038582677166
21
0.8235823228346456
0
LINE
8
BLACK
6
CONTINUOUS
10
1.8936038582677166
20
0.8235823228346456
11
1.8936038582677166
21
0.8029598818897637
0
LINE
8
BLACK
6
CONTINUOUS
10
1.8936038582677166
20
0.8029598818897637
11
1.893547125984252
21
0.8023838188976378
0
LINE
8
BLACK
6
CONTINUOUS
10
1.893547125984252
20
0.8023838188976378
11
1.8931062204724409
21
0.8013194094488189
0
LINE
8
BLACK
6
CONTINUOUS
10
1.8931062204724409
20
0.8013194094488189
11
1.8922915748031495
21
0.8005047637795275
0
LINE
8
BLACK
6
CONTINUOUS
10
1.8922915748031495
20
0.8005047637795275
11
1.8912271653543307
21
0.8000638582677165
0
LINE
8
BLACK
6
CONTINUOUS
10
1.8912271653543307
20
0.8000638582677165
11
1.8900750393700787
21
0.8000638582677165
0
LINE
8
BLACK
6
CONTINUOUS
10
1.8900750393700787
20
0.8000638582677165
11
1.8890106299212599
21
0.8005047637795275
0
LINE
8
BLACK
6
CONTINUOUS
10
1.8890106299212599
20
0.8005047637795275
11
1.8881959842519684
21
0.8013194094488189
0
LINE
8
BLACK
6
CONTINUOUS
10
1.8881959842519684
20
0.8013194094488189
11
1.8877550787401574
21
0.8023838188976378
0
LINE
8
BLACK
6
CONTINUOUS
10
1.8877550787401574
20
0.8023838188976378
11
1.8876983464566928
21
0.8029598818897637
0
LINE
8
BLACK
6
CONTINUOUS
10
1.8876983464566928
20
0.8029598818897637
11
1.8876983464566928
21
0.8228852755905511
0
LINE
8
BLACK
6
CONTINUOUS
10
1.8876983464566928
20
0.8228852755905511
11
1.8865754724409449
21
0.8251310236220473
0
LINE
8
BLACK
6
CONTINUOUS
10
1.8865754724409449
20
0.8251310236220473
11
1.8843297244094488
21
0.8262538582677165
0
LINE
8
BLACK
6
CONTINUOUS
10
1.8843297244094488
20
0.8262538582677165
11
1.8800995275590551
21
0.8262538582677165
0
LINE
8
BLACK
6
CONTINUOUS
10
1.8800995275590551
20
0.8262538582677165
11
1.8778537795275589
21
0.8251310236220473
0
LINE
8
BLACK
6
CONTINUOUS
10
1.8778537795275589
20
0.8251310236220473
11
1.8767309448818896
21
0.8228852755905511
0
LINE
8
BLACK
6
CONTINUOUS
10
1.8767309448818896
20
0.8228852755905511
11
1.8767309448818896
21
0.8029598818897637
0
LINE
8
BLACK
6
CONTINUOUS
10
1.8767309448818896
20
0.8029598818897637
11
1.8766742125984253
21
0.8023838188976378
0
LINE
8
BLACK
6
CONTINUOUS
10
1.8766742125984253
20
0.8023838188976378
11
1.8762333070866142
21
0.8013194094488189
0
LINE
8
BLACK
6
CONTINUOUS
10
1.8762333070866142
20
0.8013194094488189
11
1.8754186614173227
21
0.8005047637795275
0
LINE
8
BLACK
6
CONTINUOUS
10
1.8754186614173227
20
0.8005047637795275
11
1.8743542519685039
21
0.8000638582677165
0
LINE
8
BLACK
6
CONTINUOUS
10
1.8743542519685039
20
0.8000638582677165
11
1.873202125984252
21
0.8000638582677165
0
LINE
8
BLACK
6
CONTINUOUS
10
1.873202125984252
20
0.8000638582677165
11
1.8721377165354329
21
0.8005047637795275
0
LINE
8
BLACK
6
CONTINUOUS
10
1.8721377165354329
20
0.8005047637795275
11
1.8713230708661417
21
0.8013194094488189
0
LINE
8
BLACK
6
CONTINUOUS
10
1.8713230708661417
20
0.8013194094488189
11
1.8708821653543306
21
0.8023838188976378
0
LINE
8
BLACK
6
CONTINUOUS
10
1.8708821653543306
20
0.8023838188976378
11
1.870825433070866
21
0.8029598818897637
0
LINE
8
BLACK
6
CONTINUOUS
10
1.870825433070866
20
0.8029598818897637
11
1.870825433070866
21
0.8228852755905511
0
LINE
8
BLACK
6
CONTINUOUS
10
1.870825433070866
20
0.8228852755905511
11
1.8697025590551182
21
0.8251310236220473
0
LINE
8
BLACK
6
CONTINUOUS
10
1.8697025590551182
20
0.8251310236220473
11
1.8674568503937008
21
0.8262538582677165
0
LINE
8
BLACK
6
CONTINUOUS
10
1.8674568503937008
20
0.8262538582677165
11
1.8632266535433071
21
0.8262538582677165
0
LINE
8
BLACK
6
CONTINUOUS
10
1.8632266535433071
20
0.8262538582677165
11
1.8605291732283464
21
0.8249051181102361
0
LINE
8
BLACK
6
CONTINUOUS
10
1.8605291732283464
20
0.8249051181102361
11
1.8598580708661416
21
0.8242340157480315
0
LINE
8
BLACK
6
CONTINUOUS
10
1.8598580708661416
20
0.8242340157480315
11
1.8598580708661416
21
0.8029598818897637
0
LINE
8
BLACK
6
CONTINUOUS
10
1.8598580708661416
20
0.8029598818897637
11
1.859801338582677
21
0.8023838188976378
0
LINE
8
BLACK
6
CONTINUOUS
10
1.859801338582677
20
0.8023838188976378
11
1.8593604330708662
21
0.8013194094488189
0
LINE
8
BLACK
6
CONTINUOUS
10
1.8593604330708662
20
0.8013194094488189
11
1.8585457874015747
21
0.8005047637795275
0
LINE
8
BLACK
6
CONTINUOUS
10
1.8585457874015747
20
0.8005047637795275
11
1.8574813779527559
21
0.8000638582677165
0
LINE
8
BLACK
6
CONTINUOUS
10
1.8574813779527559
20
0.8000638582677165
11
1.856329251968504
21
0.8000638582677165
0
LINE
8
BLACK
6
CONTINUOUS
10
1.856329251968504
20
0.8000638582677165
11
1.8552648425196849
21
0.8005047637795275
0
LINE
8
BLACK
6
CONTINUOUS
10
1.8552648425196849
20
0.8005047637795275
11
1.8544501968503937
21
0.8013194094488189
0
LINE
8
BLACK
6
CONTINUOUS
10
1.8544501968503937
20
0.8013194094488189
11
1.8540092913385826
21
0.8023838188976378
0
LINE
8
BLACK
6
CONTINUOUS
10
1.8540092913385826
20
0.8023838188976378
11
1.853952559055118
21
0.8029598818897637
0
LINE
8
BLACK
6
CONTINUOUS
10
1.853952559055118
20
0.8029598818897637
11
1.853952559055118
21
0.8292066141732283
0
LINE
8
BLACK
6
CONTINUOUS
10
1.853952559055118
20
0.8292066141732283
11
1.8540092913385826
21
0.8297826771653544
0
LINE
8
BLACK
6
CONTINUOUS
10
1.8540092913385826
20
0.8297826771653544
11
1.8544501968503937
21
0.8308470866141732
0
LINE
8
BLACK
6
CONTINUOUS
10
1.8544501968503937
20
0.8308470866141732
11
1.8552648425196849
21
0.8316617322834645
0
LINE
8
BLACK
6
CONTINUOUS
10
1.8552648425196849
20
0.8316617322834645
11
1.856329251968504
21
0.8321026377952756
0
LINE
8
BLACK
6
CONTINUOUS
10
1.856329251968504
20
0.8321026377952756
11
1.8574813779527559
21
0.8321026377952756
0
LINE
8
BLACK
6
CONTINUOUS
10
1.8574813779527559
20
0.8321026377952756
11
1.8585457874015747
21
0.8316617322834645
0
LINE
8
BLACK
6
CONTINUOUS
10
1.8585457874015747
20
0.8316617322834645
11
1.8593096062992125
21
0.8308979133858267
0
LINE
8
BLACK
6
CONTINUOUS
10
1.8593096062992125
20
0.8308979133858267
11
1.8612090944881889
21
0.8318476377952756
0
LINE
8
BLACK
6
CONTINUOUS
10
1.8612090944881889
20
0.8318476377952756
11
1.86174968503937
21
0.8320545275590551
0
LINE
8
BLACK
6
CONTINUOUS
10
1.86174968503937
20
0.8320545275590551
11
1.8618555511811024
21
0.8320620866141732
0
LINE
8
BLACK
6
CONTINUOUS
10
1.8618555511811024
20
0.8320620866141732
11
1.8619535433070866
21
0.8321026377952756
0
LINE
8
BLACK
6
CONTINUOUS
10
1.8619535433070866
20
0.8321026377952756
11
1.8625296062992125
21
0.8321593700787402
0
LINE
8
BLACK
6
CONTINUOUS
10
1.8625296062992125
20
0.8321593700787402
11
1.8681538976377952
21
0.8321593700787402
0
LINE
8
BLACK
6
CONTINUOUS
10
1.8681538976377952
20
0.8321593700787402
11
1.8687299606299212
21
0.8321026377952756
0
LINE
8
BLACK
6
CONTINUOUS
10
1.5417104330708662
20
0.8447850787401575
11
1.542157874015748
21
0.844417874015748
0
LINE
8
BLACK
6
CONTINUOUS
10
1.542157874015748
20
0.844417874015748
11
1.5440326377952756
21
0.8425431102362204
0
LINE
8
BLACK
6
CONTINUOUS
10
1.5440326377952756
20
0.8425431102362204
11
1.544399842519685
21
0.8420956692913386
0
LINE
8
BLACK
6
CONTINUOUS
10
1.544399842519685
20
0.8420956692913386
11
1.5445414173228347
21
0.8417538976377953
0
LINE
8
BLACK
6
CONTINUOUS
10
1.5445414173228347
20
0.8417538976377953
11
1.5448407480314961
21
0.8410312204724409
0
LINE
8
BLACK
6
CONTINUOUS
10
1.5448407480314961
20
0.8410312204724409
11
1.5448407480314961
21
0.8398791338582677
0
LINE
8
BLACK
6
CONTINUOUS
10
1.5448407480314961
20
0.8398791338582677
11
1.544399842519685
21
0.8388147244094488
0
LINE
8
BLACK
6
CONTINUOUS
10
1.544399842519685
20
0.8388147244094488
11
1.5440326377952756
21
0.8383672834645669
0
LINE
8
BLACK
6
CONTINUOUS
10
1.5440326377952756
20
0.8383672834645669
11
1.542157874015748
21
0.8364925196850393
0
LINE
8
BLACK
6
CONTINUOUS
10
1.542157874015748
20
0.8364925196850393
11
1.5417104330708662
21
0.8361253149606299
0
LINE
8
BLACK
6
CONTINUOUS
10
1.5417104330708662
20
0.8361253149606299
11
1.5406460236220472
21
0.8356844094488188
0
LINE
8
BLACK
6
CONTINUOUS
10
1.5406460236220472
20
0.8356844094488188
11
1.5406459842519684
21
0.8356844094488188
0
LINE
8
BLACK
6
CONTINUOUS
10
1.5406459842519684
20
0.8356844094488188
11
1.539493937007874
21
0.8356844094488188
0
LINE
8
BLACK
6
CONTINUOUS
10
1.539493937007874
20
0.8356844094488188
11
1.5394938976377952
21
0.8356844094488188
0
LINE
8
BLACK
6
CONTINUOUS
10
1.5394938976377952
20
0.8356844094488188
11
1.5384294881889764
21
0.8361253149606299
0
LINE
8
BLACK
6
CONTINUOUS
10
1.5384294881889764
20
0.8361253149606299
11
1.5379820472440944
21
0.8364925196850393
0
LINE
8
BLACK
6
CONTINUOUS
10
1.5379820472440944
20
0.8364925196850393
11
1.5361072834645668
21
0.8383672834645669
0
LINE
8
BLACK
6
CONTINUOUS
10
1.5361072834645668
20
0.8383672834645669
11
1.5357400787401574
21
0.8388147244094488
0
LINE
8
BLACK
6
CONTINUOUS
10
1.5357400787401574
20
0.8388147244094488
11
1.5352991732283465
21
0.8398791732283465
0
LINE
8
BLACK
6
CONTINUOUS
10
1.5352991732283465
20
0.8398791732283465
11
1.5352991732283465
21
0.8410312204724409
0
LINE
8
BLACK
6
CONTINUOUS
10
1.5352991732283465
20
0.8410312204724409
11
1.5357400787401574
21
0.8420956692913386
0
LINE
8
BLACK
6
CONTINUOUS
10
1.5357400787401574
20
0.8420956692913386
11
1.5361072834645668
21
0.8425431102362204
0
LINE
8
BLACK
6
CONTINUOUS
10
1.5361072834645668
20
0.8425431102362204
11
1.5379820472440944
21
0.844417874015748
0
LINE
8
BLACK
6
CONTINUOUS
10
1.5379820472440944
20
0.844417874015748
11
1.5384294881889764
21
0.8447850787401575
0
LINE
8
BLACK
6
CONTINUOUS
10
1.5384294881889764
20
0.8447850787401575
11
1.5394938976377952
21
0.8452259842519685
0
LINE
8
BLACK
6
CONTINUOUS
10
1.5394938976377952
20
0.8452259842519685
11
1.5406459842519684
21
0.8452259842519685
0
LINE
8
BLACK
6
CONTINUOUS
10
1.5406459842519684
20
0.8452259842519685
11
1.5406460236220472
21
0.8452259842519685
0
LINE
8
BLACK
6
CONTINUOUS
10
1.5406460236220472
20
0.8452259842519685
11
1.5417104330708662
21
0.8447850787401575
0
CIRCLE
8
BLACK
10
0.9350393700787402
20
1.1933070866141733
40
0.0068897637795276
0
CIRCLE
8
BLACK
10
0.9350393700787402
20
1.2933070866141732
40
0.0068897637795276
0
CIRCLE
8
BLACK
10
1.0350393700787401
20
1.1933070866141733
40
0.0068897637795276
0
CIRCLE
8
BLACK
10
1.0350393700787401
20
1.2933070866141732
40
0.0068897637795276
0
CIRCLE
8
BLACK
10
1.1350393700787402
20
1.1933070866141733
40
0.0068897637795276
0
CIRCLE
8
BLACK
10
1.1350393700787402
20
1.2933070866141732
40
0.0068897637795276
0
CIRCLE
8
BLACK
10
1.2350393700787401
20
1.1933070866141733
40
0.0068897637795276
0
CIRCLE
8
BLACK
10
1.2350393700787401
20
1.2933070866141732
40
0.0068897637795276
0
CIRCLE
8
BLACK
10
1.3350393700787402
20
1.1933070866141733
40
0.0068897637795276
0
CIRCLE
8
BLACK
10
1.3350393700787402
20
1.2933070866141732
40
0.0068897637795276
0
CIRCLE
8
BLACK
10
1.6141732283464567
20
0.8267716535433071
40
0.0068897637795276
0
CIRCLE
8
BLACK
10
1.7141732283464566
20
0.926771653543307
40
0.0068897637795276
0
CIRCLE
8
BLACK
10
1.5141732283464566
20
0.926771653543307
40
0.0068897637795276
0
CIRCLE
8
BLACK
10
1.7141732283464566
20
0.7267716535433071
40
0.0068897637795276
0
CIRCLE
8
BLACK
10
1.5141732283464566
20
0.7267716535433071
40
0.0068897637795276
0
CIRCLE
8
BLACK
10
0.4
20
0.4
40
0.0068897637795276
0
CIRCLE
8
BLACK
10
1.5999999999999999
20
1.2
40
0.0068897637795276
0
CIRCLE
8
BLACK
10
1.5999999999999999
20
0.4
40
0.0068897637795276
0
CIRCLE
8
BLACK
10
0.4
20
1.2
40
0.0068897637795276
0
CIRCLE
8
BLACK
10
0.3043307086614173
20
0.9070866141732283
40
0.0068897637795276
0
CIRCLE
8
BLACK
10
0.4043307086614173
20
0.9070866141732283
40
0.0068897637795276
0
CIRCLE
8
BLACK
10
0.3043307086614173
20
0.8070866141732284
40
0.0068897637795276
0
CIRCLE
8
BLACK
10
0.4043307086614173
20
0.8070866141732284
40
0.0068897637795276
0
CIRCLE
8
BLACK
10
0.3043307086614173
20
0.7070866141732284
40
0.0068897637795276
0
CIRCLE
8
BLACK
10
0.4043307086614173
20
0.7070866141732284
40
0.0068897637795276
0
CIRCLE
8
BLACK
10
0.937007874015748
20
0.2989173228346457
40
0.0068897637795276
0
CIRCLE
8
BLACK
10
0.937007874015748
20
0.3989173228346456
40
0.0068897637795276
0
CIRCLE
8
BLACK
10
1.037007874015748
20
0.2989173228346457
40
0.0068897637795276
0
CIRCLE
8
BLACK
10
1.037007874015748
20
0.3989173228346456
40
0.0068897637795276
0
CIRCLE
8
BLACK
10
1.1370078740157481
20
0.2989173228346457
40
0.0068897637795276
0
CIRCLE
8
BLACK
10
1.1370078740157481
20
0.3989173228346456
40
0.0068897637795276
0
CIRCLE
8
BLACK
10
1.237007874015748
20
0.2989173228346457
40
0.0068897637795276
0
CIRCLE
8
BLACK
10
1.237007874015748
20
0.3989173228346456
40
0.0068897637795276
0
CIRCLE
8
BLACK
10
1.3370078740157481
20
0.2989173228346457
40
0.0068897637795276
0
CIRCLE
8
BLACK
10
1.3370078740157481
20
0.3989173228346456
40
0.0068897637795276
0
CIRCLE
8
BLACK
10
0.9116561417322835
20
0.8494582283464567
40
0.004
0
CIRCLE
8
BLACK
10
0.9074803149606299
20
0.7756852755905511
40
0.004
0
CIRCLE
8
BLACK
10
0.8726817716535433
20
0.8104838582677165
40
0.004
0
CIRCLE
8
BLACK
10
0.8378831889763779
20
0.8452824015748032
40
0.004
0
CIRCLE
8
BLACK
10
0.8337074015748032
20
0.7715094881889764
40
0.004
0
CIRCLE
8
BLACK
10
0.9350393700787402
20
1.1933070866141733
40
0.0068897637795276
0
CIRCLE
8
BLACK
10
0.9350393700787402
20
1.2933070866141732
40
0.0068897637795276
0
CIRCLE
8
BLACK
10
1.0350393700787401
20
1.1933070866141733
40
0.0068897637795276
0
CIRCLE
8
BLACK
10
1.0350393700787401
20
1.2933070866141732
40
0.0068897637795276
0
CIRCLE
8
BLACK
10
1.1350393700787402
20
1.1933070866141733
40
0.0068897637795276
0
CIRCLE
8
BLACK
10
1.1350393700787402
20
1.2933070866141732
40
0.0068897637795276
0
CIRCLE
8
BLACK
10
1.2350393700787401
20
1.1933070866141733
40
0.0068897637795276
0
CIRCLE
8
BLACK
10
1.2350393700787401
20
1.2933070866141732
40
0.0068897637795276
0
CIRCLE
8
BLACK
10
1.3350393700787402
20
1.1933070866141733
40
0.0068897637795276
0
CIRCLE
8
BLACK
10
1.3350393700787402
20
1.2933070866141732
40
0.0068897637795276
0
CIRCLE
8
BLACK
10
1.6141732283464567
20
0.8267716535433071
40
0.0068897637795276
0
CIRCLE
8
BLACK
10
1.7141732283464566
20
0.926771653543307
40
0.0068897637795276
0
CIRCLE
8
BLACK
10
1.5141732283464566
20
0.926771653543307
40
0.0068897637795276
0
CIRCLE
8
BLACK
10
1.7141732283464566
20
0.7267716535433071
40
0.0068897637795276
0
CIRCLE
8
BLACK
10
1.5141732283464566
20
0.7267716535433071
40
0.0068897637795276
0
CIRCLE
8
BLACK
10
0.4
20
0.4
40
0.0068897637795276
0
CIRCLE
8
BLACK
10
1.5999999999999999
20
1.2
40
0.0068897637795276
0
CIRCLE
8
BLACK
10
1.5999999999999999
20
0.4
40
0.0068897637795276
0
CIRCLE
8
BLACK
10
0.4
20
1.2
40
0.0068897637795276
0
CIRCLE
8
BLACK
10
0.3043307086614173
20
0.9070866141732283
40
0.0068897637795276
0
CIRCLE
8
BLACK
10
0.4043307086614173
20
0.9070866141732283
40
0.0068897637795276
0
CIRCLE
8
BLACK
10
0.3043307086614173
20
0.8070866141732284
40
0.0068897637795276
0
CIRCLE
8
BLACK
10
0.4043307086614173
20
0.8070866141732284
40
0.0068897637795276
0
CIRCLE
8
BLACK
10
0.3043307086614173
20
0.7070866141732284
40
0.0068897637795276
0
CIRCLE
8
BLACK
10
0.4043307086614173
20
0.7070866141732284
40
0.0068897637795276
0
CIRCLE
8
BLACK
10
0.937007874015748
20
0.2989173228346457
40
0.0068897637795276
0
CIRCLE
8
BLACK
10
0.937007874015748
20
0.3989173228346456
40
0.0068897637795276
0
CIRCLE
8
BLACK
10
1.037007874015748
20
0.2989173228346457
40
0.0068897637795276
0
CIRCLE
8
BLACK
10
1.037007874015748
20
0.3989173228346456
40
0.0068897637795276
0
CIRCLE
8
BLACK
10
1.1370078740157481
20
0.2989173228346457
40
0.0068897637795276
0
CIRCLE
8
BLACK
10
1.1370078740157481
20
0.3989173228346456
40
0.0068897637795276
0
CIRCLE
8
BLACK
10
1.237007874015748
20
0.2989173228346457
40
0.0068897637795276
0
CIRCLE
8
BLACK
10
1.237007874015748
20
0.3989173228346456
40
0.0068897637795276
0
CIRCLE
8
BLACK
10
1.3370078740157481
20
0.2989173228346457
40
0.0068897637795276
0
CIRCLE
8
BLACK
10
1.3370078740157481
20
0.3989173228346456
40
0.0068897637795276
0
CIRCLE
8
BLACK
10
0.9116561417322835
20
0.8494582283464567
40
0.004
0
CIRCLE
8
BLACK
10
0.9074803149606299
20
0.7756852755905511
40
0.004
0
CIRCLE
8
BLACK
10
0.8726817716535433
20
0.8104838582677165
40
0.004
0
CIRCLE
8
BLACK
10
0.8378831889763779
20
0.8452824015748032
40
0.004
0
CIRCLE
8
BLACK
10
0.8337074015748032
20
0.7715094881889764
40
0.004
  0
ENDSEC
  0
EOF
