  0
SECTION
  2
HEADER
  9
$ANGBASE
  50
0.0
  9
$ANGDIR
  70
1
  9
$MEASUREMENT
  70
0
  0
ENDSEC
  0
SECTION
  2
TABLES
  0
TABLE
  2
LTYPE
  70
4
  0
LTYPE
  5
40F
  2
CONTINUOUS
  70
0
  3
Solid line
  72
65
  73
0
  40
0.0
  0
LTYPE
  5
410
  2
DASHDOT
 70
0
  3
Dash Dot ____ _ ____ _
 72
65
 73
4
 40
2.0
 49
1.25
 49
-0.25
 49
0.25
 49
-0.25
  0
LTYPE
  5
411
  2
DASHED
 70
0
  3
Dashed __ __ __ __ __
 72
65
 73
2
 40
0.75
 49
0.5
 49
-0.25
  0
LTYPE
  5
43B
  2
DOTTED
 70
0
  3
Dotted .  .  .  .
 72
65
 73
2
 40
0.2
 49
0.0
 49
-0.2
  0
ENDTAB
  0
TABLE
  2
STYLE
  70
4
  0
STYLE
  2
KICAD
  70
0
  40
0
  41
1
  42
1
  50
0
  71
0
  3
isocp.shx
  0
STYLE
  2
KICADB
  70
0
  40
0
  41
1
  42
1
  50
0
  71
0
  3
isocp.shx
  0
STYLE
  2
KICADI
  70
0
  40
0
  41
1
  42
1
  50
15
  71
0
  3
isocp.shx
  0
STYLE
  2
KICADBI
  70
0
  40
0
  41
1
  42
1
  50
15
  71
0
  3
isocp.shx
  0
ENDTAB
  0
TABLE
  2
LAYER
  70
1
  0
LAYER
  2
BLACK
  70
0
  62
7
  6
CONTINUOUS
  0
ENDTAB
  0
ENDSEC
  0
SECTION
  2
ENTITIES
0
LINE
8
BLACK
6
CONTINUOUS
10
1.3375839370078739
20
0.4518133464566929
11
1.338648346456693
21
0.4513724409448819
0
LINE
8
BLACK
6
CONTINUOUS
10
1.338648346456693
20
0.4513724409448819
11
1.3394629921259842
21
0.4505577952755905
0
LINE
8
BLACK
6
CONTINUOUS
10
1.3394629921259842
20
0.4505577952755905
11
1.3399038976377953
21
0.4494933858267716
0
LINE
8
BLACK
6
CONTINUOUS
10
1.3399038976377953
20
0.4494933858267716
11
1.3399606299212599
21
0.4489173228346456
0
LINE
8
BLACK
6
CONTINUOUS
10
1.3399606299212599
20
0.4489173228346456
11
1.3399606299212599
21
0.2489173228346457
0
LINE
8
BLACK
6
CONTINUOUS
10
1.3399606299212599
20
0.2489173228346457
11
1.3399038976377953
21
0.2483412598425197
0
LINE
8
BLACK
6
CONTINUOUS
10
1.3399038976377953
20
0.2483412598425197
11
1.3394629921259842
21
0.2472768503937008
0
LINE
8
BLACK
6
CONTINUOUS
10
1.3394629921259842
20
0.2472768503937008
11
1.338648346456693
21
0.2464622047244094
0
LINE
8
BLACK
6
CONTINUOUS
10
1.338648346456693
20
0.2464622047244094
11
1.3375839370078739
21
0.2460212992125984
0
LINE
8
BLACK
6
CONTINUOUS
10
1.3375839370078739
20
0.2460212992125984
11
1.3370078740157481
21
0.2459645669291338
0
LINE
8
BLACK
6
CONTINUOUS
10
1.3370078740157481
20
0.2459645669291338
11
0.937007874015748
21
0.2459645669291338
0
LINE
8
BLACK
6
CONTINUOUS
10
0.937007874015748
20
0.2459645669291338
11
0.9364318110236221
21
0.2460212992125984
0
LINE
8
BLACK
6
CONTINUOUS
10
0.9364318110236221
20
0.2460212992125984
11
0.9353674015748031
21
0.2464622047244094
0
LINE
8
BLACK
6
CONTINUOUS
10
0.9353674015748031
20
0.2464622047244094
11
0.9345527559055118
21
0.2472768503937008
0
LINE
8
BLACK
6
CONTINUOUS
10
0.9345527559055118
20
0.2472768503937008
11
0.9341118503937008
21
0.2483412598425197
0
LINE
8
BLACK
6
CONTINUOUS
10
0.9341118503937008
20
0.2483412598425197
11
0.9340551181102362
21
0.2489173228346457
0
LINE
8
BLACK
6
CONTINUOUS
10
0.9340551181102362
20
0.2489173228346457
11
0.9340551181102362
21
0.4489173228346456
0
LINE
8
BLACK
6
CONTINUOUS
10
0.9340551181102362
20
0.4489173228346456
11
0.9341118503937008
21
0.4494933858267716
0
LINE
8
BLACK
6
CONTINUOUS
10
0.9341118503937008
20
0.4494933858267716
11
0.9345527559055118
21
0.4505577952755905
0
LINE
8
BLACK
6
CONTINUOUS
10
0.9345527559055118
20
0.4505577952755905
11
0.9353674015748031
21
0.4513724409448819
0
LINE
8
BLACK
6
CONTINUOUS
10
0.9353674015748031
20
0.4513724409448819
11
0.9364318110236221
21
0.4518133464566929
0
LINE
8
BLACK
6
CONTINUOUS
10
0.9364318110236221
20
0.4518133464566929
11
0.937007874015748
21
0.4518700787401574
0
LINE
8
BLACK
6
CONTINUOUS
10
0.937007874015748
20
0.4518700787401574
11
1.3370078740157481
21
0.4518700787401574
0
LINE
8
BLACK
6
CONTINUOUS
10
1.3370078740157481
20
0.4518700787401574
11
1.3375839370078739
21
0.4518133464566929
0
LINE
8
BLACK
6
CONTINUOUS
10
0.9399606299212598
20
0.4459645669291338
11
0.9399606299212598
21
0.2518700787401575
0
LINE
8
BLACK
6
CONTINUOUS
10
0.9399606299212598
20
0.2518700787401575
11
1.3340551181102362
21
0.2518700787401575
0
LINE
8
BLACK
6
CONTINUOUS
10
1.3340551181102362
20
0.2518700787401575
11
1.3340551181102362
21
0.4459645669291338
0
LINE
8
BLACK
6
CONTINUOUS
10
1.3340551181102362
20
0.4459645669291338
11
0.9399606299212598
21
0.4459645669291338
0
LINE
8
BLACK
6
CONTINUOUS
10
0.4549067716535433
20
0.9599826377952756
11
0.4559711811023622
21
0.9595417322834645
0
LINE
8
BLACK
6
CONTINUOUS
10
0.4559711811023622
20
0.9595417322834645
11
0.4567858267716535
21
0.9587270866141732
0
LINE
8
BLACK
6
CONTINUOUS
10
0.4567858267716535
20
0.9587270866141732
11
0.4572267322834646
21
0.9576626771653544
0
LINE
8
BLACK
6
CONTINUOUS
10
0.4572267322834646
20
0.9576626771653544
11
0.4572834645669291
21
0.9570866141732284
0
LINE
8
BLACK
6
CONTINUOUS
10
0.4572834645669291
20
0.9570866141732284
11
0.4572834645669291
21
0.6570866141732283
0
LINE
8
BLACK
6
CONTINUOUS
10
0.4572834645669291
20
0.6570866141732283
11
0.4572267322834646
21
0.6565105511811024
0
LINE
8
BLACK
6
CONTINUOUS
10
0.4572267322834646
20
0.6565105511811024
11
0.4567858267716535
21
0.6554461417322834
0
LINE
8
BLACK
6
CONTINUOUS
10
0.4567858267716535
20
0.6554461417322834
11
0.4559711811023622
21
0.6546314960629921
0
LINE
8
BLACK
6
CONTINUOUS
10
0.4559711811023622
20
0.6546314960629921
11
0.4549067716535433
21
0.6541905905511811
0
LINE
8
BLACK
6
CONTINUOUS
10
0.4549067716535433
20
0.6541905905511811
11
0.4543307086614173
21
0.6541338582677165
0
LINE
8
BLACK
6
CONTINUOUS
10
0.4543307086614173
20
0.6541338582677165
11
0.2543307086614173
21
0.6541338582677165
0
LINE
8
BLACK
6
CONTINUOUS
10
0.2543307086614173
20
0.6541338582677165
11
0.2537546456692913
21
0.6541905905511811
0
LINE
8
BLACK
6
CONTINUOUS
10
0.2537546456692913
20
0.6541905905511811
11
0.2526902362204724
21
0.6546314960629921
0
LINE
8
BLACK
6
CONTINUOUS
10
0.2526902362204724
20
0.6546314960629921
11
0.2518755905511811
21
0.6554461417322834
0
LINE
8
BLACK
6
CONTINUOUS
10
0.2518755905511811
20
0.6554461417322834
11
0.2514346850393701
21
0.6565105511811024
0
LINE
8
BLACK
6
CONTINUOUS
10
0.2514346850393701
20
0.6565105511811024
11
0.2513779527559055
21
0.6570866141732283
0
LINE
8
BLACK
6
CONTINUOUS
10
0.2513779527559055
20
0.6570866141732283
11
0.2513779527559055
21
0.9570866141732284
0
LINE
8
BLACK
6
CONTINUOUS
10
0.2513779527559055
20
0.9570866141732284
11
0.2514346850393701
21
0.9576626771653544
0
LINE
8
BLACK
6
CONTINUOUS
10
0.2514346850393701
20
0.9576626771653544
11
0.2518755905511811
21
0.9587270866141732
0
LINE
8
BLACK
6
CONTINUOUS
10
0.2518755905511811
20
0.9587270866141732
11
0.2526902362204724
21
0.9595417322834645
0
LINE
8
BLACK
6
CONTINUOUS
10
0.2526902362204724
20
0.9595417322834645
11
0.2537546456692913
21
0.9599826377952756
0
LINE
8
BLACK
6
CONTINUOUS
10
0.2537546456692913
20
0.9599826377952756
11
0.2543307086614173
21
0.9600393700787402
0
LINE
8
BLACK
6
CONTINUOUS
10
0.2543307086614173
20
0.9600393700787402
11
0.4543307086614173
21
0.9600393700787402
0
LINE
8
BLACK
6
CONTINUOUS
10
0.4543307086614173
20
0.9600393700787402
11
0.4549067716535433
21
0.9599826377952756
0
LINE
8
BLACK
6
CONTINUOUS
10
0.2572834645669291
20
0.9541338582677165
11
0.2572834645669291
21
0.6600393700787401
0
LINE
8
BLACK
6
CONTINUOUS
10
0.2572834645669291
20
0.6600393700787401
11
0.4513779527559055
21
0.6600393700787401
0
LINE
8
BLACK
6
CONTINUOUS
10
0.4513779527559055
20
0.6600393700787401
11
0.4513779527559055
21
0.9541338582677165
0
LINE
8
BLACK
6
CONTINUOUS
10
0.4513779527559055
20
0.9541338582677165
11
0.2572834645669291
21
0.9541338582677165
0
LINE
8
BLACK
6
CONTINUOUS
10
1.6547492913385826
20
0.6918724015748031
11
1.6558137007874016
21
0.6914314960629921
0
LINE
8
BLACK
6
CONTINUOUS
10
1.6558137007874016
20
0.6914314960629921
11
1.6566283464566929
21
0.6906168503937008
0
LINE
8
BLACK
6
CONTINUOUS
10
1.6566283464566929
20
0.6906168503937008
11
1.657069251968504
21
0.6895524409448819
0
LINE
8
BLACK
6
CONTINUOUS
10
1.657069251968504
20
0.6895524409448819
11
1.657069251968504
21
0.6884003149606299
0
LINE
8
BLACK
6
CONTINUOUS
10
1.657069251968504
20
0.6884003149606299
11
1.6566283464566929
21
0.687335905511811
0
LINE
8
BLACK
6
CONTINUOUS
10
1.6566283464566929
20
0.687335905511811
11
1.6558137007874016
21
0.6865212598425197
0
LINE
8
BLACK
6
CONTINUOUS
10
1.6558137007874016
20
0.6865212598425197
11
1.6547492913385826
21
0.6860803543307087
0
LINE
8
BLACK
6
CONTINUOUS
10
1.6547492913385826
20
0.6860803543307087
11
1.6541732283464567
21
0.6860236220472441
0
LINE
8
BLACK
6
CONTINUOUS
10
1.6541732283464567
20
0.6860236220472441
11
1.5741732283464567
21
0.6860236220472441
0
LINE
8
BLACK
6
CONTINUOUS
10
1.5741732283464567
20
0.6860236220472441
11
1.5735971653543306
21
0.6860803543307087
0
LINE
8
BLACK
6
CONTINUOUS
10
1.5735971653543306
20
0.6860803543307087
11
1.5725327559055118
21
0.6865212598425197
0
LINE
8
BLACK
6
CONTINUOUS
10
1.5725327559055118
20
0.6865212598425197
11
1.5717181102362205
21
0.687335905511811
0
LINE
8
BLACK
6
CONTINUOUS
10
1.5717181102362205
20
0.687335905511811
11
1.5712772047244095
21
0.6884003149606299
0
LINE
8
BLACK
6
CONTINUOUS
10
1.5712772047244095
20
0.6884003149606299
11
1.5712772047244095
21
0.6895524409448819
0
LINE
8
BLACK
6
CONTINUOUS
10
1.5712772047244095
20
0.6895524409448819
11
1.5717181102362205
21
0.6906168503937008
0
LINE
8
BLACK
6
CONTINUOUS
10
1.5717181102362205
20
0.6906168503937008
11
1.5725327559055118
21
0.6914314960629921
0
LINE
8
BLACK
6
CONTINUOUS
10
1.5725327559055118
20
0.6914314960629921
11
1.5735971653543306
21
0.6918724015748031
0
LINE
8
BLACK
6
CONTINUOUS
10
1.5735971653543306
20
0.6918724015748031
11
1.5741732283464567
21
0.6919291338582677
0
LINE
8
BLACK
6
CONTINUOUS
10
1.5741732283464567
20
0.6919291338582677
11
1.6541732283464567
21
0.6919291338582677
0
LINE
8
BLACK
6
CONTINUOUS
10
1.6541732283464567
20
0.6919291338582677
11
1.6547492913385826
21
0.6918724015748031
0
LINE
8
BLACK
6
CONTINUOUS
10
1.8253922047244093
20
0.8100107086614173
11
1.8254699606299212
21
0.8100162204724409
0
LINE
8
BLACK
6
CONTINUOUS
10
1.8254699606299212
20
0.8100162204724409
11
1.8255722047244094
21
0.8099929921259842
0
LINE
8
BLACK
6
CONTINUOUS
10
1.8255722047244094
20
0.8099929921259842
11
1.8256767322834646
21
0.8099826771653543
0
LINE
8
BLACK
6
CONTINUOUS
10
1.8256767322834646
20
0.8099826771653543
11
1.8257488188976378
21
0.8099528346456693
0
LINE
8
BLACK
6
CONTINUOUS
10
1.8257488188976378
20
0.8099528346456693
11
1.8260344094488188
21
0.809887874015748
0
LINE
8
BLACK
6
CONTINUOUS
10
1.8260344094488188
20
0.809887874015748
11
1.8344708267716534
21
0.8070757086614173
0
LINE
8
BLACK
6
CONTINUOUS
10
1.8344708267716534
20
0.8070757086614173
11
1.8349993700787401
21
0.8068397244094488
0
LINE
8
BLACK
6
CONTINUOUS
10
1.8349993700787401
20
0.8068397244094488
11
1.8350794488188975
21
0.8067702755905511
0
LINE
8
BLACK
6
CONTINUOUS
10
1.8350794488188975
20
0.8067702755905511
11
1.8351775196850393
21
0.8067296456692913
0
LINE
8
BLACK
6
CONTINUOUS
10
1.8351775196850393
20
0.8067296456692913
11
1.8356250000000001
21
0.8063624015748031
0
LINE
8
BLACK
6
CONTINUOUS
10
1.8356250000000001
20
0.8063624015748031
11
1.8412493307086615
21
0.8007381102362204
0
LINE
8
BLACK
6
CONTINUOUS
10
1.8412493307086615
20
0.8007381102362204
11
1.8416165354330709
21
0.8002906692913385
0
LINE
8
BLACK
6
CONTINUOUS
10
1.8416165354330709
20
0.8002906692913385
11
1.841657125984252
21
0.8001926377952756
0
LINE
8
BLACK
6
CONTINUOUS
10
1.841657125984252
20
0.8001926377952756
11
1.841726653543307
21
0.8001124803149606
0
LINE
8
BLACK
6
CONTINUOUS
10
1.841726653543307
20
0.8001124803149606
11
1.8419626377952756
21
0.799583937007874
0
LINE
8
BLACK
6
CONTINUOUS
10
1.8419626377952756
20
0.799583937007874
11
1.8447747637795275
21
0.7911474803149606
0
LINE
8
BLACK
6
CONTINUOUS
10
1.8447747637795275
20
0.7911474803149606
11
1.84483968503937
21
0.7908619291338582
0
LINE
8
BLACK
6
CONTINUOUS
10
1.84483968503937
20
0.7908619291338582
11
1.8448695669291337
21
0.7907898031496062
0
LINE
8
BLACK
6
CONTINUOUS
10
1.8448695669291337
20
0.7907898031496062
11
1.8448798425196851
21
0.7906853149606299
0
LINE
8
BLACK
6
CONTINUOUS
10
1.8448798425196851
20
0.7906853149606299
11
1.8449031102362203
21
0.790583031496063
0
LINE
8
BLACK
6
CONTINUOUS
10
1.8449031102362203
20
0.790583031496063
11
1.844897559055118
21
0.7905053149606299
0
LINE
8
BLACK
6
CONTINUOUS
10
1.844897559055118
20
0.7905053149606299
11
1.8449262992125983
21
0.7902137401574802
0
LINE
8
BLACK
6
CONTINUOUS
10
1.8449262992125983
20
0.7902137401574802
11
1.8449262992125983
21
0.7845894488188976
0
LINE
8
BLACK
6
CONTINUOUS
10
1.8449262992125983
20
0.7845894488188976
11
1.8448695669291337
21
0.7840133858267716
0
LINE
8
BLACK
6
CONTINUOUS
10
1.8448695669291337
20
0.7840133858267716
11
1.8444286614173229
21
0.7829489763779527
0
LINE
8
BLACK
6
CONTINUOUS
10
1.8444286614173229
20
0.7829489763779527
11
1.8436140157480314
21
0.7821343307086615
0
LINE
8
BLACK
6
CONTINUOUS
10
1.8436140157480314
20
0.7821343307086615
11
1.8425496062992126
21
0.7816934251968504
0
LINE
8
BLACK
6
CONTINUOUS
10
1.8425496062992126
20
0.7816934251968504
11
1.8413974803149606
21
0.7816934251968504
0
LINE
8
BLACK
6
CONTINUOUS
10
1.8413974803149606
20
0.7816934251968504
11
1.8403330708661416
21
0.7821343307086615
0
LINE
8
BLACK
6
CONTINUOUS
10
1.8403330708661416
20
0.7821343307086615
11
1.8395184251968504
21
0.7829489763779527
0
LINE
8
BLACK
6
CONTINUOUS
10
1.8395184251968504
20
0.7829489763779527
11
1.8390775196850393
21
0.7840133858267716
0
LINE
8
BLACK
6
CONTINUOUS
10
1.8390775196850393
20
0.7840133858267716
11
1.8390207874015747
21
0.7845894488188976
0
LINE
8
BLACK
6
CONTINUOUS
10
1.8390207874015747
20
0.7845894488188976
11
1.8390207874015747
21
0.7897346456692913
0
LINE
8
BLACK
6
CONTINUOUS
10
1.8390207874015747
20
0.7897346456692913
11
1.8365805905511812
21
0.797055157480315
0
LINE
8
BLACK
6
CONTINUOUS
10
1.8365805905511812
20
0.797055157480315
11
1.8319420472440944
21
0.8016937007874015
0
LINE
8
BLACK
6
CONTINUOUS
10
1.8319420472440944
20
0.8016937007874015
11
1.8246215354330708
21
0.8041338976377953
0
LINE
8
BLACK
6
CONTINUOUS
10
1.8246215354330708
20
0.8041338976377953
11
1.7829184251968504
21
0.8041338976377953
0
LINE
8
BLACK
6
CONTINUOUS
10
1.7829184251968504
20
0.8041338976377953
11
1.7823423622047243
21
0.8041906299212598
0
LINE
8
BLACK
6
CONTINUOUS
10
1.7823423622047243
20
0.8041906299212598
11
1.7812779527559055
21
0.8046315354330709
0
LINE
8
BLACK
6
CONTINUOUS
10
1.7812779527559055
20
0.8046315354330709
11
1.780463307086614
21
0.8054461811023622
0
LINE
8
BLACK
6
CONTINUOUS
10
1.780463307086614
20
0.8054461811023622
11
1.7800224015748032
21
0.8065105905511811
0
LINE
8
BLACK
6
CONTINUOUS
10
1.7800224015748032
20
0.8065105905511811
11
1.7800224015748032
21
0.8076627165354331
0
LINE
8
BLACK
6
CONTINUOUS
10
1.7800224015748032
20
0.8076627165354331
11
1.780463307086614
21
0.808727125984252
0
LINE
8
BLACK
6
CONTINUOUS
10
1.780463307086614
20
0.808727125984252
11
1.7812779527559055
21
0.8095417716535432
0
LINE
8
BLACK
6
CONTINUOUS
10
1.7812779527559055
20
0.8095417716535432
11
1.7823423622047243
21
0.8099826771653543
0
LINE
8
BLACK
6
CONTINUOUS
10
1.7823423622047243
20
0.8099826771653543
11
1.7829184251968504
21
0.8100394094488189
0
LINE
8
BLACK
6
CONTINUOUS
10
1.7829184251968504
20
0.8100394094488189
11
1.8251006692913385
21
0.8100394094488189
0
LINE
8
BLACK
6
CONTINUOUS
10
1.8251006692913385
20
0.8100394094488189
11
1.8253922047244093
21
0.8100107086614173
0
LINE
8
BLACK
6
CONTINUOUS
10
1.4790184251968503
20
0.8692267716535433
11
1.4798330708661418
21
0.868412125984252
0
LINE
8
BLACK
6
CONTINUOUS
10
1.4798330708661418
20
0.868412125984252
11
1.4802739763779527
21
0.8673477165354331
0
LINE
8
BLACK
6
CONTINUOUS
10
1.4802739763779527
20
0.8673477165354331
11
1.4803307086614172
21
0.8667716535433071
0
LINE
8
BLACK
6
CONTINUOUS
10
1.4803307086614172
20
0.8667716535433071
11
1.4803307086614172
21
0.786771653543307
0
LINE
8
BLACK
6
CONTINUOUS
10
1.4803307086614172
20
0.786771653543307
11
1.4802739763779527
21
0.786195590551181
0
LINE
8
BLACK
6
CONTINUOUS
10
1.4802739763779527
20
0.786195590551181
11
1.4798330708661418
21
0.7851311811023622
0
LINE
8
BLACK
6
CONTINUOUS
10
1.4798330708661418
20
0.7851311811023622
11
1.4790184251968503
21
0.7843165354330709
0
LINE
8
BLACK
6
CONTINUOUS
10
1.4790184251968503
20
0.7843165354330709
11
1.4779540157480315
21
0.7838756299212598
0
LINE
8
BLACK
6
CONTINUOUS
10
1.4779540157480315
20
0.7838756299212598
11
1.4768018897637796
21
0.7838756299212598
0
LINE
8
BLACK
6
CONTINUOUS
10
1.4768018897637796
20
0.7838756299212598
11
1.4757374803149605
21
0.7843165354330709
0
LINE
8
BLACK
6
CONTINUOUS
10
1.4757374803149605
20
0.7843165354330709
11
1.4749228346456693
21
0.7851311811023622
0
LINE
8
BLACK
6
CONTINUOUS
10
1.4749228346456693
20
0.7851311811023622
11
1.4744819291338582
21
0.786195590551181
0
LINE
8
BLACK
6
CONTINUOUS
10
1.4744819291338582
20
0.786195590551181
11
1.4744251968503936
21
0.786771653543307
0
LINE
8
BLACK
6
CONTINUOUS
10
1.4744251968503936
20
0.786771653543307
11
1.4744251968503936
21
0.8667716535433071
0
LINE
8
BLACK
6
CONTINUOUS
10
1.4744251968503936
20
0.8667716535433071
11
1.4744819291338582
21
0.8673477165354331
0
LINE
8
BLACK
6
CONTINUOUS
10
1.4744819291338582
20
0.8673477165354331
11
1.4749228346456693
21
0.868412125984252
0
LINE
8
BLACK
6
CONTINUOUS
10
1.4749228346456693
20
0.868412125984252
11
1.4757374803149605
21
0.8692267716535433
0
LINE
8
BLACK
6
CONTINUOUS
10
1.4757374803149605
20
0.8692267716535433
11
1.4768018897637796
21
0.8696676771653543
0
LINE
8
BLACK
6
CONTINUOUS
10
1.4768018897637796
20
0.8696676771653543
11
1.4779540157480315
21
0.8696676771653543
0
LINE
8
BLACK
6
CONTINUOUS
10
1.4779540157480315
20
0.8696676771653543
11
1.4790184251968503
21
0.8692267716535433
0
LINE
8
BLACK
6
CONTINUOUS
10
1.7536089763779528
20
0.8692267716535433
11
1.754423622047244
21
0.868412125984252
0
LINE
8
BLACK
6
CONTINUOUS
10
1.754423622047244
20
0.868412125984252
11
1.7548645275590551
21
0.8673477165354331
0
LINE
8
BLACK
6
CONTINUOUS
10
1.7548645275590551
20
0.8673477165354331
11
1.7549212598425197
21
0.8667716535433071
0
LINE
8
BLACK
6
CONTINUOUS
10
1.7549212598425197
20
0.8667716535433071
11
1.7549212598425197
21
0.786771653543307
0
LINE
8
BLACK
6
CONTINUOUS
10
1.7549212598425197
20
0.786771653543307
11
1.7548645275590551
21
0.786195590551181
0
LINE
8
BLACK
6
CONTINUOUS
10
1.7548645275590551
20
0.786195590551181
11
1.754423622047244
21
0.7851311811023622
0
LINE
8
BLACK
6
CONTINUOUS
10
1.754423622047244
20
0.7851311811023622
11
1.7536089763779528
21
0.7843165354330709
0
LINE
8
BLACK
6
CONTINUOUS
10
1.7536089763779528
20
0.7843165354330709
11
1.7525445669291337
21
0.7838756299212598
0
LINE
8
BLACK
6
CONTINUOUS
10
1.7525445669291337
20
0.7838756299212598
11
1.7513924409448818
21
0.7838756299212598
0
LINE
8
BLACK
6
CONTINUOUS
10
1.7513924409448818
20
0.7838756299212598
11
1.750328031496063
21
0.7843165354330709
0
LINE
8
BLACK
6
CONTINUOUS
10
1.750328031496063
20
0.7843165354330709
11
1.7495133858267715
21
0.7851311811023622
0
LINE
8
BLACK
6
CONTINUOUS
10
1.7495133858267715
20
0.7851311811023622
11
1.7490724803149607
21
0.786195590551181
0
LINE
8
BLACK
6
CONTINUOUS
10
1.7490724803149607
20
0.786195590551181
11
1.7490157480314961
21
0.786771653543307
0
LINE
8
BLACK
6
CONTINUOUS
10
1.7490157480314961
20
0.786771653543307
11
1.7490157480314961
21
0.8667716535433071
0
LINE
8
BLACK
6
CONTINUOUS
10
1.7490157480314961
20
0.8667716535433071
11
1.7490724803149607
21
0.8673477165354331
0
LINE
8
BLACK
6
CONTINUOUS
10
1.7490724803149607
20
0.8673477165354331
11
1.7495133858267715
21
0.868412125984252
0
LINE
8
BLACK
6
CONTINUOUS
10
1.7495133858267715
20
0.868412125984252
11
1.750328031496063
21
0.8692267716535433
0
LINE
8
BLACK
6
CONTINUOUS
10
1.750328031496063
20
0.8692267716535433
11
1.7513924409448818
21
0.8696676771653543
0
LINE
8
BLACK
6
CONTINUOUS
10
1.7513924409448818
20
0.8696676771653543
11
1.7525445669291337
21
0.8696676771653543
0
LINE
8
BLACK
6
CONTINUOUS
10
1.7525445669291337
20
0.8696676771653543
11
1.7536089763779528
21
0.8692267716535433
0
LINE
8
BLACK
6
CONTINUOUS
10
1.8436140157480314
20
0.8685968897637795
11
1.8444286614173229
21
0.8677822440944881
0
LINE
8
BLACK
6
CONTINUOUS
10
1.8444286614173229
20
0.8677822440944881
11
1.8448695669291337
21
0.8667178346456693
0
LINE
8
BLACK
6
CONTINUOUS
10
1.8448695669291337
20
0.8667178346456693
11
1.8449262992125983
21
0.8661417716535433
0
LINE
8
BLACK
6
CONTINUOUS
10
1.8449262992125983
20
0.8661417716535433
11
1.8449262992125983
21
0.8323959842519685
0
LINE
8
BLACK
6
CONTINUOUS
10
1.8449262992125983
20
0.8323959842519685
11
1.8448695669291337
21
0.8318199212598425
0
LINE
8
BLACK
6
CONTINUOUS
10
1.8448695669291337
20
0.8318199212598425
11
1.8444286614173229
21
0.8307555118110236
0
LINE
8
BLACK
6
CONTINUOUS
10
1.8444286614173229
20
0.8307555118110236
11
1.8436140157480314
21
0.8299408661417322
0
LINE
8
BLACK
6
CONTINUOUS
10
1.8436140157480314
20
0.8299408661417322
11
1.8425496062992126
21
0.8294999606299213
0
LINE
8
BLACK
6
CONTINUOUS
10
1.8425496062992126
20
0.8294999606299213
11
1.8413974803149606
21
0.8294999606299213
0
LINE
8
BLACK
6
CONTINUOUS
10
1.8413974803149606
20
0.8294999606299213
11
1.8403330708661416
21
0.8299408661417322
0
LINE
8
BLACK
6
CONTINUOUS
10
1.8403330708661416
20
0.8299408661417322
11
1.8395184251968504
21
0.8307555118110236
0
LINE
8
BLACK
6
CONTINUOUS
10
1.8395184251968504
20
0.8307555118110236
11
1.8390775196850393
21
0.8318199212598425
0
LINE
8
BLACK
6
CONTINUOUS
10
1.8390775196850393
20
0.8318199212598425
11
1.8390207874015747
21
0.8323959842519685
0
LINE
8
BLACK
6
CONTINUOUS
10
1.8390207874015747
20
0.8323959842519685
11
1.8390207874015747
21
0.8463161023622047
0
LINE
8
BLACK
6
CONTINUOUS
10
1.8390207874015747
20
0.8463161023622047
11
1.7926707480314961
21
0.8463161023622047
0
LINE
8
BLACK
6
CONTINUOUS
10
1.7926707480314961
20
0.8463161023622047
11
1.7929927952755904
21
0.8461014173228346
0
LINE
8
BLACK
6
CONTINUOUS
10
1.7929927952755904
20
0.8461014173228346
11
1.7929944488188976
21
0.8461000787401575
0
LINE
8
BLACK
6
CONTINUOUS
10
1.7929944488188976
20
0.8461000787401575
11
1.7929953543307087
21
0.8460996850393701
0
LINE
8
BLACK
6
CONTINUOUS
10
1.7929953543307087
20
0.8460996850393701
11
1.7932106299212598
21
0.8459229921259842
0
LINE
8
BLACK
6
CONTINUOUS
10
1.7932106299212598
20
0.8459229921259842
11
1.7934406299212597
21
0.8457346456692914
0
LINE
8
BLACK
6
CONTINUOUS
10
1.7934406299212597
20
0.8457346456692914
11
1.7934411811023621
21
0.8457338188976378
0
LINE
8
BLACK
6
CONTINUOUS
10
1.7934411811023621
20
0.8457338188976378
11
1.7934427952755905
21
0.8457324803149606
0
LINE
8
BLACK
6
CONTINUOUS
10
1.7934427952755905
20
0.8457324803149606
11
1.7990670866141731
21
0.840108188976378
0
LINE
8
BLACK
6
CONTINUOUS
10
1.7990670866141731
20
0.840108188976378
11
1.7992529133858268
21
0.8398817322834645
0
LINE
8
BLACK
6
CONTINUOUS
10
1.7992529133858268
20
0.8398817322834645
11
1.7993118110236219
21
0.8398306692913385
0
LINE
8
BLACK
6
CONTINUOUS
10
1.7993118110236219
20
0.8398306692913385
11
1.7993676771653544
21
0.8397419291338583
0
LINE
8
BLACK
6
CONTINUOUS
10
1.7993676771653544
20
0.8397419291338583
11
1.7994342913385826
21
0.839660748031496
0
LINE
8
BLACK
6
CONTINUOUS
10
1.7994342913385826
20
0.839660748031496
11
1.7994641338582678
21
0.8395887007874016
0
LINE
8
BLACK
6
CONTINUOUS
10
1.7994641338582678
20
0.8395887007874016
11
1.7996201968503938
21
0.8393407874015748
0
LINE
8
BLACK
6
CONTINUOUS
10
1.7996201968503938
20
0.8393407874015748
11
1.8024323622047245
21
0.8337164960629921
0
LINE
8
BLACK
6
CONTINUOUS
10
1.8024323622047245
20
0.8337164960629921
11
1.8026392519685039
21
0.833175905511811
0
LINE
8
BLACK
6
CONTINUOUS
10
1.8026392519685039
20
0.833175905511811
11
1.802720905511811
21
0.8320266929133858
0
LINE
8
BLACK
6
CONTINUOUS
10
1.802720905511811
20
0.8320266929133858
11
1.8023565748031496
21
0.8309337007874016
0
LINE
8
BLACK
6
CONTINUOUS
10
1.8023565748031496
20
0.8309337007874016
11
1.8016017322834645
21
0.8300633464566929
0
LINE
8
BLACK
6
CONTINUOUS
10
1.8016017322834645
20
0.8300633464566929
11
1.8005712204724409
21
0.8295480708661417
0
LINE
8
BLACK
6
CONTINUOUS
10
1.8005712204724409
20
0.8295480708661417
11
1.7994220078740157
21
0.8294664173228347
0
LINE
8
BLACK
6
CONTINUOUS
10
1.7994220078740157
20
0.8294664173228347
11
1.7983290551181101
21
0.829830748031496
0
LINE
8
BLACK
6
CONTINUOUS
10
1.7983290551181101
20
0.829830748031496
11
1.7974586614173227
21
0.8305855905511811
0
LINE
8
BLACK
6
CONTINUOUS
10
1.7974586614173227
20
0.8305855905511811
11
1.7971503149606298
21
0.8310754724409448
0
LINE
8
BLACK
6
CONTINUOUS
10
1.7971503149606298
20
0.8310754724409448
11
1.7945524409448819
21
0.8362711811023622
0
LINE
8
BLACK
6
CONTINUOUS
10
1.7945524409448819
20
0.8362711811023622
11
1.7894737007874015
21
0.8413499212598425
0
LINE
8
BLACK
6
CONTINUOUS
10
1.7894737007874015
20
0.8413499212598425
11
1.7812805511811023
21
0.8468120078740158
0
LINE
8
BLACK
6
CONTINUOUS
10
1.7812805511811023
20
0.8468120078740158
11
1.7812788976377953
21
0.8468133464566929
0
LINE
8
BLACK
6
CONTINUOUS
10
1.7812788976377953
20
0.8468133464566929
11
1.7812779527559055
21
0.8468137401574803
0
LINE
8
BLACK
6
CONTINUOUS
10
1.7812779527559055
20
0.8468137401574803
11
1.781275748031496
21
0.8468159448818897
0
LINE
8
BLACK
6
CONTINUOUS
10
1.781275748031496
20
0.8468159448818897
11
1.7808326771653542
21
0.847178779527559
0
LINE
8
BLACK
6
CONTINUOUS
10
1.7808326771653542
20
0.847178779527559
11
1.78067
21
0.8474216929133858
0
LINE
8
BLACK
6
CONTINUOUS
10
1.78067
20
0.8474216929133858
11
1.780463307086614
21
0.8476283858267716
0
LINE
8
BLACK
6
CONTINUOUS
10
1.780463307086614
20
0.8476283858267716
11
1.7803525590551181
21
0.8478957086614173
0
LINE
8
BLACK
6
CONTINUOUS
10
1.7803525590551181
20
0.8478957086614173
11
1.7801916141732284
21
0.848136062992126
0
LINE
8
BLACK
6
CONTINUOUS
10
1.7801916141732284
20
0.848136062992126
11
1.7801342519685039
21
0.848422716535433
0
LINE
8
BLACK
6
CONTINUOUS
10
1.7801342519685039
20
0.848422716535433
11
1.7800224015748032
21
0.8486927952755905
0
LINE
8
BLACK
6
CONTINUOUS
10
1.7800224015748032
20
0.8486927952755905
11
1.7800224015748032
21
0.8489821259842519
0
LINE
8
BLACK
6
CONTINUOUS
10
1.7800224015748032
20
0.8489821259842519
11
1.7799656692913386
21
0.849265748031496
0
LINE
8
BLACK
6
CONTINUOUS
10
1.7799656692913386
20
0.849265748031496
11
1.7800224015748032
21
0.8495525590551181
0
LINE
8
BLACK
6
CONTINUOUS
10
1.7800224015748032
20
0.8495525590551181
11
1.7800224015748032
21
0.8498449212598425
0
LINE
8
BLACK
6
CONTINUOUS
10
1.7800224015748032
20
0.8498449212598425
11
1.7801331102362203
21
0.8501122047244094
0
LINE
8
BLACK
6
CONTINUOUS
10
1.7801331102362203
20
0.8501122047244094
11
1.7801892519685039
21
0.8503959842519685
0
LINE
8
BLACK
6
CONTINUOUS
10
1.7801892519685039
20
0.8503959842519685
11
1.7803514173228345
21
0.8506392519685039
0
LINE
8
BLACK
6
CONTINUOUS
10
1.7803514173228345
20
0.8506392519685039
11
1.780463307086614
21
0.8509093307086614
0
LINE
8
BLACK
6
CONTINUOUS
10
1.780463307086614
20
0.8509093307086614
11
1.7806678346456692
21
0.8511138976377952
0
LINE
8
BLACK
6
CONTINUOUS
10
1.7806678346456692
20
0.8511138976377952
11
1.780828346456693
21
0.8513546062992126
0
LINE
8
BLACK
6
CONTINUOUS
10
1.780828346456693
20
0.8513546062992126
11
1.7810712204724408
21
0.8515172834645669
0
LINE
8
BLACK
6
CONTINUOUS
10
1.7810712204724408
20
0.8515172834645669
11
1.7812779527559055
21
0.8517239763779527
0
LINE
8
BLACK
6
CONTINUOUS
10
1.7812779527559055
20
0.8517239763779527
11
1.7815452362204725
21
0.8518347244094489
0
LINE
8
BLACK
6
CONTINUOUS
10
1.7815452362204725
20
0.8518347244094489
11
1.7817856299212598
21
0.8519956692913385
0
LINE
8
BLACK
6
CONTINUOUS
10
1.7817856299212598
20
0.8519956692913385
11
1.7820722440944881
21
0.8520530314960629
0
LINE
8
BLACK
6
CONTINUOUS
10
1.7820722440944881
20
0.8520530314960629
11
1.7823423622047243
21
0.8521648818897638
0
LINE
8
BLACK
6
CONTINUOUS
10
1.7823423622047243
20
0.8521648818897638
11
1.782912283464567
21
0.8522210236220472
0
LINE
8
BLACK
6
CONTINUOUS
10
1.782912283464567
20
0.8522210236220472
11
1.7829153149606298
21
0.8522216141732283
0
LINE
8
BLACK
6
CONTINUOUS
10
1.7829153149606298
20
0.8522216141732283
11
1.7829163385826772
21
0.8522214173228346
0
LINE
8
BLACK
6
CONTINUOUS
10
1.7829163385826772
20
0.8522214173228346
11
1.7829184251968504
21
0.8522216141732283
0
LINE
8
BLACK
6
CONTINUOUS
10
1.7829184251968504
20
0.8522216141732283
11
1.8390207874015747
21
0.8522216141732283
0
LINE
8
BLACK
6
CONTINUOUS
10
1.8390207874015747
20
0.8522216141732283
11
1.8390207874015747
21
0.8661417716535433
0
LINE
8
BLACK
6
CONTINUOUS
10
1.8390207874015747
20
0.8661417716535433
11
1.8390775196850393
21
0.8667178346456693
0
LINE
8
BLACK
6
CONTINUOUS
10
1.8390775196850393
20
0.8667178346456693
11
1.8395184251968504
21
0.8677822440944881
0
LINE
8
BLACK
6
CONTINUOUS
10
1.8395184251968504
20
0.8677822440944881
11
1.8403330708661416
21
0.8685968897637795
0
LINE
8
BLACK
6
CONTINUOUS
10
1.8403330708661416
20
0.8685968897637795
11
1.8413974803149606
21
0.8690377952755906
0
LINE
8
BLACK
6
CONTINUOUS
10
1.8413974803149606
20
0.8690377952755906
11
1.8425496062992126
21
0.8690377952755906
0
LINE
8
BLACK
6
CONTINUOUS
10
1.8425496062992126
20
0.8690377952755906
11
1.8436140157480314
21
0.8685968897637795
0
LINE
8
BLACK
6
CONTINUOUS
10
1.6547492913385826
20
0.9674629527559054
11
1.6558137007874016
21
0.9670220472440945
0
LINE
8
BLACK
6
CONTINUOUS
10
1.6558137007874016
20
0.9670220472440945
11
1.6566283464566929
21
0.9662074015748031
0
LINE
8
BLACK
6
CONTINUOUS
10
1.6566283464566929
20
0.9662074015748031
11
1.657069251968504
21
0.9651429921259842
0
LINE
8
BLACK
6
CONTINUOUS
10
1.657069251968504
20
0.9651429921259842
11
1.657069251968504
21
0.9639908661417322
0
LINE
8
BLACK
6
CONTINUOUS
10
1.657069251968504
20
0.9639908661417322
11
1.6566283464566929
21
0.9629264566929133
0
LINE
8
BLACK
6
CONTINUOUS
10
1.6566283464566929
20
0.9629264566929133
11
1.6558137007874016
21
0.962111811023622
0
LINE
8
BLACK
6
CONTINUOUS
10
1.6558137007874016
20
0.962111811023622
11
1.6547492913385826
21
0.961670905511811
0
LINE
8
BLACK
6
CONTINUOUS
10
1.6547492913385826
20
0.961670905511811
11
1.6541732283464567
21
0.9616141732283464
0
LINE
8
BLACK
6
CONTINUOUS
10
1.6541732283464567
20
0.9616141732283464
11
1.5741732283464567
21
0.9616141732283464
0
LINE
8
BLACK
6
CONTINUOUS
10
1.5741732283464567
20
0.9616141732283464
11
1.5735971653543306
21
0.961670905511811
0
LINE
8
BLACK
6
CONTINUOUS
10
1.5735971653543306
20
0.961670905511811
11
1.5725327559055118
21
0.962111811023622
0
LINE
8
BLACK
6
CONTINUOUS
10
1.5725327559055118
20
0.962111811023622
11
1.5717181102362205
21
0.9629264566929133
0
LINE
8
BLACK
6
CONTINUOUS
10
1.5717181102362205
20
0.9629264566929133
11
1.5712772047244095
21
0.9639908661417322
0
LINE
8
BLACK
6
CONTINUOUS
10
1.5712772047244095
20
0.9639908661417322
11
1.5712772047244095
21
0.9651429921259842
0
LINE
8
BLACK
6
CONTINUOUS
10
1.5712772047244095
20
0.9651429921259842
11
1.5717181102362205
21
0.9662074015748031
0
LINE
8
BLACK
6
CONTINUOUS
10
1.5717181102362205
20
0.9662074015748031
11
1.5725327559055118
21
0.9670220472440945
0
LINE
8
BLACK
6
CONTINUOUS
10
1.5725327559055118
20
0.9670220472440945
11
1.5735971653543306
21
0.9674629527559054
0
LINE
8
BLACK
6
CONTINUOUS
10
1.5735971653543306
20
0.9674629527559054
11
1.5741732283464567
21
0.96751968503937
0
LINE
8
BLACK
6
CONTINUOUS
10
1.5741732283464567
20
0.96751968503937
11
1.6541732283464567
21
0.96751968503937
0
LINE
8
BLACK
6
CONTINUOUS
10
1.6541732283464567
20
0.96751968503937
11
1.6547492913385826
21
0.9674629527559054
0
LINE
8
BLACK
6
CONTINUOUS
10
1.400576062992126
20
1.3462031102362204
11
1.4016404724409448
21
1.3457622047244093
0
LINE
8
BLACK
6
CONTINUOUS
10
1.4016404724409448
20
1.3457622047244093
11
1.4024551181102363
21
1.3449475590551181
0
LINE
8
BLACK
6
CONTINUOUS
10
1.4024551181102363
20
1.3449475590551181
11
1.4028960236220471
21
1.3438831496062993
0
LINE
8
BLACK
6
CONTINUOUS
10
1.4028960236220471
20
1.3438831496062993
11
1.4029527559055117
21
1.3433070866141732
0
LINE
8
BLACK
6
CONTINUOUS
10
1.4029527559055117
20
1.3433070866141732
11
1.4029527559055117
21
1.1433070866141732
0
LINE
8
BLACK
6
CONTINUOUS
10
1.4029527559055117
20
1.1433070866141732
11
1.4028960236220471
21
1.1427310236220471
0
LINE
8
BLACK
6
CONTINUOUS
10
1.4028960236220471
20
1.1427310236220471
11
1.4024551181102363
21
1.1416666141732283
0
LINE
8
BLACK
6
CONTINUOUS
10
1.4024551181102363
20
1.1416666141732283
11
1.4016404724409448
21
1.1408519685039369
0
LINE
8
BLACK
6
CONTINUOUS
10
1.4016404724409448
20
1.1408519685039369
11
1.400576062992126
21
1.140411062992126
0
LINE
8
BLACK
6
CONTINUOUS
10
1.400576062992126
20
1.140411062992126
11
1.3999999999999999
21
1.1403543307086614
0
LINE
8
BLACK
6
CONTINUOUS
10
1.3999999999999999
20
1.1403543307086614
11
1.
21
1.1403543307086614
0
LINE
8
BLACK
6
CONTINUOUS
10
1.
20
1.1403543307086614
11
0.999423937007874
21
1.140411062992126
0
LINE
8
BLACK
6
CONTINUOUS
10
0.999423937007874
20
1.140411062992126
11
0.9983595275590551
21
1.1408519685039369
0
LINE
8
BLACK
6
CONTINUOUS
10
0.9983595275590551
20
1.1408519685039369
11
0.9975448818897638
21
1.1416666141732283
0
LINE
8
BLACK
6
CONTINUOUS
10
0.9975448818897638
20
1.1416666141732283
11
0.9971039763779528
21
1.1427310236220471
0
LINE
8
BLACK
6
CONTINUOUS
10
0.9971039763779528
20
1.1427310236220471
11
0.9970472440944882
21
1.1433070866141732
0
LINE
8
BLACK
6
CONTINUOUS
10
0.9970472440944882
20
1.1433070866141732
11
0.9970472440944882
21
1.3433070866141732
0
LINE
8
BLACK
6
CONTINUOUS
10
0.9970472440944882
20
1.3433070866141732
11
0.9971039763779528
21
1.3438831496062993
0
LINE
8
BLACK
6
CONTINUOUS
10
0.9971039763779528
20
1.3438831496062993
11
0.9975448818897638
21
1.3449475590551181
0
LINE
8
BLACK
6
CONTINUOUS
10
0.9975448818897638
20
1.3449475590551181
11
0.9983595275590551
21
1.3457622047244093
0
LINE
8
BLACK
6
CONTINUOUS
10
0.9983595275590551
20
1.3457622047244093
11
0.999423937007874
21
1.3462031102362204
0
LINE
8
BLACK
6
CONTINUOUS
10
0.999423937007874
20
1.3462031102362204
11
1.
21
1.346259842519685
0
LINE
8
BLACK
6
CONTINUOUS
10
1.
20
1.346259842519685
11
1.3999999999999999
21
1.346259842519685
0
LINE
8
BLACK
6
CONTINUOUS
10
1.3999999999999999
20
1.346259842519685
11
1.400576062992126
21
1.3462031102362204
0
LINE
8
BLACK
6
CONTINUOUS
10
1.0029527559055118
20
1.3403543307086614
11
1.0029527559055118
21
1.146259842519685
0
LINE
8
BLACK
6
CONTINUOUS
10
1.0029527559055118
20
1.146259842519685
11
1.3970472440944881
21
1.146259842519685
0
LINE
8
BLACK
6
CONTINUOUS
10
1.3970472440944881
20
1.146259842519685
11
1.3970472440944881
21
1.3403543307086614
0
LINE
8
BLACK
6
CONTINUOUS
10
1.3970472440944881
20
1.3403543307086614
11
1.0029527559055118
21
1.3403543307086614
0
CIRCLE
8
BLACK
10
1.05
20
1.1933070866141733
40
0.0068897637795276
0
CIRCLE
8
BLACK
10
1.05
20
1.2933070866141732
40
0.0068897637795276
0
CIRCLE
8
BLACK
10
1.1499999999999999
20
1.1933070866141733
40
0.0068897637795276
0
CIRCLE
8
BLACK
10
1.1499999999999999
20
1.2933070866141732
40
0.0068897637795276
0
CIRCLE
8
BLACK
10
1.25
20
1.1933070866141733
40
0.0068897637795276
0
CIRCLE
8
BLACK
10
1.25
20
1.2933070866141732
40
0.0068897637795276
0
CIRCLE
8
BLACK
10
1.3499999999999999
20
1.1933070866141733
40
0.0068897637795276
0
CIRCLE
8
BLACK
10
1.3499999999999999
20
1.2933070866141732
40
0.0068897637795276
0
CIRCLE
8
BLACK
10
1.6141732283464567
20
0.8267716535433071
40
0.0068897637795276
0
CIRCLE
8
BLACK
10
1.7141732283464566
20
0.926771653543307
40
0.0068897637795276
0
CIRCLE
8
BLACK
10
1.5141732283464566
20
0.926771653543307
40
0.0068897637795276
0
CIRCLE
8
BLACK
10
1.7141732283464566
20
0.7267716535433071
40
0.0068897637795276
0
CIRCLE
8
BLACK
10
1.5141732283464566
20
0.7267716535433071
40
0.0068897637795276
0
CIRCLE
8
BLACK
10
0.4
20
0.4
40
0.0068897637795276
0
CIRCLE
8
BLACK
10
1.5999999999999999
20
1.2
40
0.0068897637795276
0
CIRCLE
8
BLACK
10
1.5999999999999999
20
0.4
40
0.0068897637795276
0
CIRCLE
8
BLACK
10
0.4
20
1.2
40
0.0068897637795276
0
CIRCLE
8
BLACK
10
0.3043307086614173
20
0.9070866141732283
40
0.0068897637795276
0
CIRCLE
8
BLACK
10
0.4043307086614173
20
0.9070866141732283
40
0.0068897637795276
0
CIRCLE
8
BLACK
10
0.3043307086614173
20
0.8070866141732284
40
0.0068897637795276
0
CIRCLE
8
BLACK
10
0.4043307086614173
20
0.8070866141732284
40
0.0068897637795276
0
CIRCLE
8
BLACK
10
0.3043307086614173
20
0.7070866141732284
40
0.0068897637795276
0
CIRCLE
8
BLACK
10
0.4043307086614173
20
0.7070866141732284
40
0.0068897637795276
0
CIRCLE
8
BLACK
10
0.987007874015748
20
0.2989173228346457
40
0.0068897637795276
0
CIRCLE
8
BLACK
10
0.987007874015748
20
0.3989173228346456
40
0.0068897637795276
0
CIRCLE
8
BLACK
10
1.0870078740157481
20
0.2989173228346457
40
0.0068897637795276
0
CIRCLE
8
BLACK
10
1.0870078740157481
20
0.3989173228346456
40
0.0068897637795276
0
CIRCLE
8
BLACK
10
1.1870078740157479
20
0.2989173228346457
40
0.0068897637795276
0
CIRCLE
8
BLACK
10
1.1870078740157479
20
0.3989173228346456
40
0.0068897637795276
0
CIRCLE
8
BLACK
10
1.287007874015748
20
0.2989173228346457
40
0.0068897637795276
0
CIRCLE
8
BLACK
10
1.287007874015748
20
0.3989173228346456
40
0.0068897637795276
0
CIRCLE
8
BLACK
10
0.9116561417322835
20
0.8494582283464567
40
0.004
0
CIRCLE
8
BLACK
10
0.9074803149606299
20
0.7756852755905511
40
0.004
0
CIRCLE
8
BLACK
10
0.8726817716535433
20
0.8104838582677165
40
0.004
0
CIRCLE
8
BLACK
10
0.8378831889763779
20
0.8452824015748032
40
0.004
0
CIRCLE
8
BLACK
10
0.8337074015748032
20
0.7715094881889764
40
0.004
0
CIRCLE
8
BLACK
10
1.05
20
1.1933070866141733
40
0.0068897637795276
0
CIRCLE
8
BLACK
10
1.05
20
1.2933070866141732
40
0.0068897637795276
0
CIRCLE
8
BLACK
10
1.1499999999999999
20
1.1933070866141733
40
0.0068897637795276
0
CIRCLE
8
BLACK
10
1.1499999999999999
20
1.2933070866141732
40
0.0068897637795276
0
CIRCLE
8
BLACK
10
1.25
20
1.1933070866141733
40
0.0068897637795276
0
CIRCLE
8
BLACK
10
1.25
20
1.2933070866141732
40
0.0068897637795276
0
CIRCLE
8
BLACK
10
1.3499999999999999
20
1.1933070866141733
40
0.0068897637795276
0
CIRCLE
8
BLACK
10
1.3499999999999999
20
1.2933070866141732
40
0.0068897637795276
0
CIRCLE
8
BLACK
10
1.6141732283464567
20
0.8267716535433071
40
0.0068897637795276
0
CIRCLE
8
BLACK
10
1.7141732283464566
20
0.926771653543307
40
0.0068897637795276
0
CIRCLE
8
BLACK
10
1.5141732283464566
20
0.926771653543307
40
0.0068897637795276
0
CIRCLE
8
BLACK
10
1.7141732283464566
20
0.7267716535433071
40
0.0068897637795276
0
CIRCLE
8
BLACK
10
1.5141732283464566
20
0.7267716535433071
40
0.0068897637795276
0
CIRCLE
8
BLACK
10
0.4
20
0.4
40
0.0068897637795276
0
CIRCLE
8
BLACK
10
1.5999999999999999
20
1.2
40
0.0068897637795276
0
CIRCLE
8
BLACK
10
1.5999999999999999
20
0.4
40
0.0068897637795276
0
CIRCLE
8
BLACK
10
0.4
20
1.2
40
0.0068897637795276
0
CIRCLE
8
BLACK
10
0.3043307086614173
20
0.9070866141732283
40
0.0068897637795276
0
CIRCLE
8
BLACK
10
0.4043307086614173
20
0.9070866141732283
40
0.0068897637795276
0
CIRCLE
8
BLACK
10
0.3043307086614173
20
0.8070866141732284
40
0.0068897637795276
0
CIRCLE
8
BLACK
10
0.4043307086614173
20
0.8070866141732284
40
0.0068897637795276
0
CIRCLE
8
BLACK
10
0.3043307086614173
20
0.7070866141732284
40
0.0068897637795276
0
CIRCLE
8
BLACK
10
0.4043307086614173
20
0.7070866141732284
40
0.0068897637795276
0
CIRCLE
8
BLACK
10
0.987007874015748
20
0.2989173228346457
40
0.0068897637795276
0
CIRCLE
8
BLACK
10
0.987007874015748
20
0.3989173228346456
40
0.0068897637795276
0
CIRCLE
8
BLACK
10
1.0870078740157481
20
0.2989173228346457
40
0.0068897637795276
0
CIRCLE
8
BLACK
10
1.0870078740157481
20
0.3989173228346456
40
0.0068897637795276
0
CIRCLE
8
BLACK
10
1.1870078740157479
20
0.2989173228346457
40
0.0068897637795276
0
CIRCLE
8
BLACK
10
1.1870078740157479
20
0.3989173228346456
40
0.0068897637795276
0
CIRCLE
8
BLACK
10
1.287007874015748
20
0.2989173228346457
40
0.0068897637795276
0
CIRCLE
8
BLACK
10
1.287007874015748
20
0.3989173228346456
40
0.0068897637795276
0
CIRCLE
8
BLACK
10
0.9116561417322835
20
0.8494582283464567
40
0.004
0
CIRCLE
8
BLACK
10
0.9074803149606299
20
0.7756852755905511
40
0.004
0
CIRCLE
8
BLACK
10
0.8726817716535433
20
0.8104838582677165
40
0.004
0
CIRCLE
8
BLACK
10
0.8378831889763779
20
0.8452824015748032
40
0.004
0
CIRCLE
8
BLACK
10
0.8337074015748032
20
0.7715094881889764
40
0.004
  0
ENDSEC
  0
EOF
