  0
SECTION
  2
HEADER
  9
$ANGBASE
  50
0.0
  9
$ANGDIR
  70
1
  9
$MEASUREMENT
  70
0
  0
ENDSEC
  0
SECTION
  2
TABLES
  0
TABLE
  2
LTYPE
  70
4
  0
LTYPE
  5
40F
  2
CONTINUOUS
  70
0
  3
Solid line
  72
65
  73
0
  40
0.0
  0
LTYPE
  5
410
  2
DASHDOT
 70
0
  3
Dash Dot ____ _ ____ _
 72
65
 73
4
 40
2.0
 49
1.25
 49
-0.25
 49
0.25
 49
-0.25
  0
LTYPE
  5
411
  2
DASHED
 70
0
  3
Dashed __ __ __ __ __
 72
65
 73
2
 40
0.75
 49
0.5
 49
-0.25
  0
LTYPE
  5
43B
  2
DOTTED
 70
0
  3
Dotted .  .  .  .
 72
65
 73
2
 40
0.2
 49
0.0
 49
-0.2
  0
ENDTAB
  0
TABLE
  2
STYLE
  70
4
  0
STYLE
  2
KICAD
  70
0
  40
0
  41
1
  42
1
  50
0
  71
0
  3
isocp.shx
  0
STYLE
  2
KICADB
  70
0
  40
0
  41
1
  42
1
  50
0
  71
0
  3
isocp.shx
  0
STYLE
  2
KICADI
  70
0
  40
0
  41
1
  42
1
  50
15
  71
0
  3
isocp.shx
  0
STYLE
  2
KICADBI
  70
0
  40
0
  41
1
  42
1
  50
15
  71
0
  3
isocp.shx
  0
ENDTAB
  0
TABLE
  2
LAYER
  70
1
  0
LAYER
  2
BLACK
  70
0
  62
7
  6
CONTINUOUS
  0
ENDTAB
  0
ENDSEC
  0
SECTION
  2
ENTITIES
0
LINE
8
BLACK
6
CONTINUOUS
10
1.5704412204724409
20
0.6466757086614173
11
1.5777855905511811
21
0.6442893700787401
0
LINE
8
BLACK
6
CONTINUOUS
10
1.5777855905511811
20
0.6442893700787401
11
1.5846662598425196
21
0.6407835039370079
0
LINE
8
BLACK
6
CONTINUOUS
10
1.5846662598425196
20
0.6407835039370079
11
1.590913779527559
21
0.6362444094488189
0
LINE
8
BLACK
6
CONTINUOUS
10
1.590913779527559
20
0.6362444094488189
11
1.5963742913385826
21
0.6307838976377953
0
LINE
8
BLACK
6
CONTINUOUS
10
1.5963742913385826
20
0.6307838976377953
11
1.6009133858267717
21
0.6245363779527559
0
LINE
8
BLACK
6
CONTINUOUS
10
1.6009133858267717
20
0.6245363779527559
11
1.6044192519685039
21
0.6176557086614173
0
LINE
8
BLACK
6
CONTINUOUS
10
1.6044192519685039
20
0.6176557086614173
11
1.6068055905511811
21
0.6103113385826772
0
LINE
8
BLACK
6
CONTINUOUS
10
1.6068055905511811
20
0.6103113385826772
11
1.6080136614173228
21
0.6026840551181102
0
LINE
8
BLACK
6
CONTINUOUS
10
1.6080136614173228
20
0.6026840551181102
11
1.6080136614173228
21
0.5949616929133859
0
LINE
8
BLACK
6
CONTINUOUS
10
1.6080136614173228
20
0.5949616929133859
11
1.6068055905511811
21
0.5873344094488189
0
LINE
8
BLACK
6
CONTINUOUS
10
1.6068055905511811
20
0.5873344094488189
11
1.6044192519685039
21
0.5799900393700788
0
LINE
8
BLACK
6
CONTINUOUS
10
1.6044192519685039
20
0.5799900393700788
11
1.6009133858267717
21
0.5731093700787402
0
LINE
8
BLACK
6
CONTINUOUS
10
1.6009133858267717
20
0.5731093700787402
11
1.5963742913385826
21
0.5668618503937007
0
LINE
8
BLACK
6
CONTINUOUS
10
1.5963742913385826
20
0.5668618503937007
11
1.590913779527559
21
0.5614013385826772
0
LINE
8
BLACK
6
CONTINUOUS
10
1.590913779527559
20
0.5614013385826772
11
1.5846662598425196
21
0.5568622440944881
0
LINE
8
BLACK
6
CONTINUOUS
10
1.5846662598425196
20
0.5568622440944881
11
1.5777855905511811
21
0.5533563779527559
0
LINE
8
BLACK
6
CONTINUOUS
10
1.5777855905511811
20
0.5533563779527559
11
1.5704412204724409
21
0.5509700393700787
0
LINE
8
BLACK
6
CONTINUOUS
10
1.5704412204724409
20
0.5509700393700787
11
1.562813937007874
21
0.549761968503937
0
LINE
8
BLACK
6
CONTINUOUS
10
1.562813937007874
20
0.549761968503937
11
1.5550915748031495
21
0.549761968503937
0
LINE
8
BLACK
6
CONTINUOUS
10
1.5550915748031495
20
0.549761968503937
11
1.5474642913385825
21
0.5509700393700787
0
LINE
8
BLACK
6
CONTINUOUS
10
1.5474642913385825
20
0.5509700393700787
11
1.5401199212598424
21
0.5533563779527559
0
LINE
8
BLACK
6
CONTINUOUS
10
1.5401199212598424
20
0.5533563779527559
11
1.5332392519685039
21
0.5568622440944881
0
LINE
8
BLACK
6
CONTINUOUS
10
1.5332392519685039
20
0.5568622440944881
11
1.5269917322834645
21
0.5614013385826772
0
LINE
8
BLACK
6
CONTINUOUS
10
1.5269917322834645
20
0.5614013385826772
11
1.5215312204724409
21
0.5668618503937007
0
LINE
8
BLACK
6
CONTINUOUS
10
1.5215312204724409
20
0.5668618503937007
11
1.516992125984252
21
0.5731093700787402
0
LINE
8
BLACK
6
CONTINUOUS
10
1.516992125984252
20
0.5731093700787402
11
1.5134862598425196
21
0.5799900393700788
0
LINE
8
BLACK
6
CONTINUOUS
10
1.5134862598425196
20
0.5799900393700788
11
1.5110999212598424
21
0.5873344094488189
0
LINE
8
BLACK
6
CONTINUOUS
10
1.5110999212598424
20
0.5873344094488189
11
1.5098918503937007
21
0.5949616929133859
0
LINE
8
BLACK
6
CONTINUOUS
10
1.5098918503937007
20
0.5949616929133859
11
1.5098918503937007
21
0.6026840551181102
0
LINE
8
BLACK
6
CONTINUOUS
10
1.5098918503937007
20
0.6026840551181102
11
1.5110999212598424
21
0.6103113385826772
0
LINE
8
BLACK
6
CONTINUOUS
10
1.5110999212598424
20
0.6103113385826772
11
1.5134862598425196
21
0.6176557086614173
0
LINE
8
BLACK
6
CONTINUOUS
10
1.5134862598425196
20
0.6176557086614173
11
1.516992125984252
21
0.6245363779527559
0
LINE
8
BLACK
6
CONTINUOUS
10
1.516992125984252
20
0.6245363779527559
11
1.5215312204724409
21
0.6307838976377953
0
LINE
8
BLACK
6
CONTINUOUS
10
1.5215312204724409
20
0.6307838976377953
11
1.5269917322834645
21
0.6362444094488189
0
LINE
8
BLACK
6
CONTINUOUS
10
1.5269917322834645
20
0.6362444094488189
11
1.5332392519685039
21
0.6407835039370079
0
LINE
8
BLACK
6
CONTINUOUS
10
1.5332392519685039
20
0.6407835039370079
11
1.5401199212598424
21
0.6442893700787401
0
LINE
8
BLACK
6
CONTINUOUS
10
1.5401199212598424
20
0.6442893700787401
11
1.5474642913385825
21
0.6466757086614173
0
LINE
8
BLACK
6
CONTINUOUS
10
1.5474642913385825
20
0.6466757086614173
11
1.5550915748031495
21
0.647883779527559
0
LINE
8
BLACK
6
CONTINUOUS
10
1.5550915748031495
20
0.647883779527559
11
1.562813937007874
21
0.647883779527559
0
LINE
8
BLACK
6
CONTINUOUS
10
1.562813937007874
20
0.647883779527559
11
1.5704412204724409
21
0.6466757086614173
0
LINE
8
BLACK
6
CONTINUOUS
10
1.0349835039370079
20
0.7669070472440944
11
1.0374818110236219
21
0.7644087401574803
0
LINE
8
BLACK
6
CONTINUOUS
10
1.0374818110236219
20
0.7644087401574803
11
1.0388338976377953
21
0.7611445669291338
0
LINE
8
BLACK
6
CONTINUOUS
10
1.0388338976377953
20
0.7611445669291338
11
1.0388338976377953
21
0.7576114173228347
0
LINE
8
BLACK
6
CONTINUOUS
10
1.0388338976377953
20
0.7576114173228347
11
1.0374818110236219
21
0.7543472440944882
0
LINE
8
BLACK
6
CONTINUOUS
10
1.0374818110236219
20
0.7543472440944882
11
1.0349835039370079
21
0.751848937007874
0
LINE
8
BLACK
6
CONTINUOUS
10
1.0349835039370079
20
0.751848937007874
11
1.0317193307086614
21
0.7504968503937007
0
LINE
8
BLACK
6
CONTINUOUS
10
1.0317193307086614
20
0.7504968503937007
11
1.0281861811023623
21
0.7504968503937007
0
LINE
8
BLACK
6
CONTINUOUS
10
1.0281861811023623
20
0.7504968503937007
11
1.0249220078740158
21
0.751848937007874
0
LINE
8
BLACK
6
CONTINUOUS
10
1.0249220078740158
20
0.751848937007874
11
1.0224237007874015
21
0.7543472440944882
0
LINE
8
BLACK
6
CONTINUOUS
10
1.0224237007874015
20
0.7543472440944882
11
1.0210716141732283
21
0.7576114173228347
0
LINE
8
BLACK
6
CONTINUOUS
10
1.0210716141732283
20
0.7576114173228347
11
1.0210716141732283
21
0.7611445669291338
0
LINE
8
BLACK
6
CONTINUOUS
10
1.0210716141732283
20
0.7611445669291338
11
1.0224237007874015
21
0.7644087401574803
0
LINE
8
BLACK
6
CONTINUOUS
10
1.0224237007874015
20
0.7644087401574803
11
1.0249220078740158
21
0.7669070472440944
0
LINE
8
BLACK
6
CONTINUOUS
10
1.0249220078740158
20
0.7669070472440944
11
1.0281861811023623
21
0.7682591338582677
0
LINE
8
BLACK
6
CONTINUOUS
10
1.0281861811023623
20
0.7682591338582677
11
1.0317193307086614
21
0.7682591338582677
0
LINE
8
BLACK
6
CONTINUOUS
10
1.0317193307086614
20
0.7682591338582677
11
1.0349835039370079
21
0.7669070472440944
0
LINE
8
BLACK
6
CONTINUOUS
10
0.6289835039370079
20
0.8089070472440945
11
0.631481811023622
21
0.8064087401574803
0
LINE
8
BLACK
6
CONTINUOUS
10
0.631481811023622
20
0.8064087401574803
11
0.6328338976377953
21
0.8031445669291338
0
LINE
8
BLACK
6
CONTINUOUS
10
0.6328338976377953
20
0.8031445669291338
11
0.6328338976377953
21
0.7996114173228346
0
LINE
8
BLACK
6
CONTINUOUS
10
0.6328338976377953
20
0.7996114173228346
11
0.631481811023622
21
0.7963472440944882
0
LINE
8
BLACK
6
CONTINUOUS
10
0.631481811023622
20
0.7963472440944882
11
0.6289835039370079
21
0.793848937007874
0
LINE
8
BLACK
6
CONTINUOUS
10
0.6289835039370079
20
0.793848937007874
11
0.6257193307086614
21
0.7924968503937008
0
LINE
8
BLACK
6
CONTINUOUS
10
0.6257193307086614
20
0.7924968503937008
11
0.6221861811023622
21
0.7924968503937008
0
LINE
8
BLACK
6
CONTINUOUS
10
0.6221861811023622
20
0.7924968503937008
11
0.6189220078740157
21
0.793848937007874
0
LINE
8
BLACK
6
CONTINUOUS
10
0.6189220078740157
20
0.793848937007874
11
0.6164237007874016
21
0.7963472440944882
0
LINE
8
BLACK
6
CONTINUOUS
10
0.6164237007874016
20
0.7963472440944882
11
0.6150716141732283
21
0.7996114173228346
0
LINE
8
BLACK
6
CONTINUOUS
10
0.6150716141732283
20
0.7996114173228346
11
0.6150716141732283
21
0.8031445669291338
0
LINE
8
BLACK
6
CONTINUOUS
10
0.6150716141732283
20
0.8031445669291338
11
0.6164237007874016
21
0.8064087401574803
0
LINE
8
BLACK
6
CONTINUOUS
10
0.6164237007874016
20
0.8064087401574803
11
0.6189220078740157
21
0.8089070472440945
0
LINE
8
BLACK
6
CONTINUOUS
10
0.6189220078740157
20
0.8089070472440945
11
0.6221861811023622
21
0.8102591338582676
0
LINE
8
BLACK
6
CONTINUOUS
10
0.6221861811023622
20
0.8102591338582676
11
0.6257193307086614
21
0.8102591338582676
0
LINE
8
BLACK
6
CONTINUOUS
10
0.6257193307086614
20
0.8102591338582676
11
0.6289835039370079
21
0.8089070472440945
0
LINE
8
BLACK
6
CONTINUOUS
10
0.6579835039370079
20
0.8169070472440945
11
0.660481811023622
21
0.8144087401574803
0
LINE
8
BLACK
6
CONTINUOUS
10
0.660481811023622
20
0.8144087401574803
11
0.6618338976377952
21
0.8111445669291338
0
LINE
8
BLACK
6
CONTINUOUS
10
0.6618338976377952
20
0.8111445669291338
11
0.6618338976377952
21
0.8076114173228346
0
LINE
8
BLACK
6
CONTINUOUS
10
0.6618338976377952
20
0.8076114173228346
11
0.660481811023622
21
0.8043472440944882
0
LINE
8
BLACK
6
CONTINUOUS
10
0.660481811023622
20
0.8043472440944882
11
0.6579835039370079
21
0.801848937007874
0
LINE
8
BLACK
6
CONTINUOUS
10
0.6579835039370079
20
0.801848937007874
11
0.6547193307086614
21
0.8004968503937008
0
LINE
8
BLACK
6
CONTINUOUS
10
0.6547193307086614
20
0.8004968503937008
11
0.6511861811023621
21
0.8004968503937008
0
LINE
8
BLACK
6
CONTINUOUS
10
0.6511861811023621
20
0.8004968503937008
11
0.6479220078740158
21
0.801848937007874
0
LINE
8
BLACK
6
CONTINUOUS
10
0.6479220078740158
20
0.801848937007874
11
0.6454237007874015
21
0.8043472440944882
0
LINE
8
BLACK
6
CONTINUOUS
10
0.6454237007874015
20
0.8043472440944882
11
0.6440716141732283
21
0.8076114173228346
0
LINE
8
BLACK
6
CONTINUOUS
10
0.6440716141732283
20
0.8076114173228346
11
0.6440716141732283
21
0.8111445669291338
0
LINE
8
BLACK
6
CONTINUOUS
10
0.6440716141732283
20
0.8111445669291338
11
0.6454237007874015
21
0.8144087401574803
0
LINE
8
BLACK
6
CONTINUOUS
10
0.6454237007874015
20
0.8144087401574803
11
0.6479220078740158
21
0.8169070472440945
0
LINE
8
BLACK
6
CONTINUOUS
10
0.6479220078740158
20
0.8169070472440945
11
0.6511861811023621
21
0.8182591338582677
0
LINE
8
BLACK
6
CONTINUOUS
10
0.6511861811023621
20
0.8182591338582677
11
0.6547193307086614
21
0.8182591338582677
0
LINE
8
BLACK
6
CONTINUOUS
10
0.6547193307086614
20
0.8182591338582677
11
0.6579835039370079
21
0.8169070472440945
0
LINE
8
BLACK
6
CONTINUOUS
10
0.6619835039370079
20
0.8609070472440945
11
0.664481811023622
21
0.8584087401574803
0
LINE
8
BLACK
6
CONTINUOUS
10
0.664481811023622
20
0.8584087401574803
11
0.6658338976377952
21
0.8551445669291339
0
LINE
8
BLACK
6
CONTINUOUS
10
0.6658338976377952
20
0.8551445669291339
11
0.6658338976377952
21
0.8516114173228346
0
LINE
8
BLACK
6
CONTINUOUS
10
0.6658338976377952
20
0.8516114173228346
11
0.664481811023622
21
0.8483472440944881
0
LINE
8
BLACK
6
CONTINUOUS
10
0.664481811023622
20
0.8483472440944881
11
0.6619835039370079
21
0.845848937007874
0
LINE
8
BLACK
6
CONTINUOUS
10
0.6619835039370079
20
0.845848937007874
11
0.6587193307086614
21
0.8444968503937008
0
LINE
8
BLACK
6
CONTINUOUS
10
0.6587193307086614
20
0.8444968503937008
11
0.6551861811023622
21
0.8444968503937008
0
LINE
8
BLACK
6
CONTINUOUS
10
0.6551861811023622
20
0.8444968503937008
11
0.6519220078740158
21
0.845848937007874
0
LINE
8
BLACK
6
CONTINUOUS
10
0.6519220078740158
20
0.845848937007874
11
0.6494237007874015
21
0.8483472440944881
0
LINE
8
BLACK
6
CONTINUOUS
10
0.6494237007874015
20
0.8483472440944881
11
0.6480716141732283
21
0.8516114173228346
0
LINE
8
BLACK
6
CONTINUOUS
10
0.6480716141732283
20
0.8516114173228346
11
0.6480716141732283
21
0.8551445669291339
0
LINE
8
BLACK
6
CONTINUOUS
10
0.6480716141732283
20
0.8551445669291339
11
0.6494237007874015
21
0.8584087401574803
0
LINE
8
BLACK
6
CONTINUOUS
10
0.6494237007874015
20
0.8584087401574803
11
0.6519220078740158
21
0.8609070472440945
0
LINE
8
BLACK
6
CONTINUOUS
10
0.6519220078740158
20
0.8609070472440945
11
0.6551861811023622
21
0.8622591338582677
0
LINE
8
BLACK
6
CONTINUOUS
10
0.6551861811023622
20
0.8622591338582677
11
0.6587193307086614
21
0.8622591338582677
0
LINE
8
BLACK
6
CONTINUOUS
10
0.6587193307086614
20
0.8622591338582677
11
0.6619835039370079
21
0.8609070472440945
0
LINE
8
BLACK
6
CONTINUOUS
10
0.7524953543307087
20
0.8193951968503936
11
0.7549936614173228
21
0.8168968897637795
0
LINE
8
BLACK
6
CONTINUOUS
10
0.7549936614173228
20
0.8168968897637795
11
0.756345748031496
21
0.813632716535433
0
LINE
8
BLACK
6
CONTINUOUS
10
0.756345748031496
20
0.813632716535433
11
0.756345748031496
21
0.8100995669291339
0
LINE
8
BLACK
6
CONTINUOUS
10
0.756345748031496
20
0.8100995669291339
11
0.7549936614173228
21
0.8068353937007874
0
LINE
8
BLACK
6
CONTINUOUS
10
0.7549936614173228
20
0.8068353937007874
11
0.7524953543307087
21
0.8043370866141732
0
LINE
8
BLACK
6
CONTINUOUS
10
0.7524953543307087
20
0.8043370866141732
11
0.7492311811023622
21
0.8029849999999999
0
LINE
8
BLACK
6
CONTINUOUS
10
0.7492311811023622
20
0.8029849999999999
11
0.745698031496063
21
0.8029849999999999
0
LINE
8
BLACK
6
CONTINUOUS
10
0.745698031496063
20
0.8029849999999999
11
0.7424338582677166
21
0.8043370866141732
0
LINE
8
BLACK
6
CONTINUOUS
10
0.7424338582677166
20
0.8043370866141732
11
0.7399355511811023
21
0.8068353937007874
0
LINE
8
BLACK
6
CONTINUOUS
10
0.7399355511811023
20
0.8068353937007874
11
0.7385834645669291
21
0.8100995669291339
0
LINE
8
BLACK
6
CONTINUOUS
10
0.7385834645669291
20
0.8100995669291339
11
0.7385834645669291
21
0.813632716535433
0
LINE
8
BLACK
6
CONTINUOUS
10
0.7385834645669291
20
0.813632716535433
11
0.7399355511811023
21
0.8168968897637795
0
LINE
8
BLACK
6
CONTINUOUS
10
0.7399355511811023
20
0.8168968897637795
11
0.7424338582677166
21
0.8193951968503936
0
LINE
8
BLACK
6
CONTINUOUS
10
0.7424338582677166
20
0.8193951968503936
11
0.745698031496063
21
0.8207472834645669
0
LINE
8
BLACK
6
CONTINUOUS
10
0.745698031496063
20
0.8207472834645669
11
0.7492311811023622
21
0.8207472834645669
0
LINE
8
BLACK
6
CONTINUOUS
10
0.7492311811023622
20
0.8207472834645669
11
0.7524953543307087
21
0.8193951968503936
0
LINE
8
BLACK
6
CONTINUOUS
10
0.8209835039370078
20
0.8729070472440945
11
0.8234818110236221
21
0.8704087401574803
0
LINE
8
BLACK
6
CONTINUOUS
10
0.8234818110236221
20
0.8704087401574803
11
0.8248338976377952
21
0.8671445669291339
0
LINE
8
BLACK
6
CONTINUOUS
10
0.8248338976377952
20
0.8671445669291339
11
0.8248338976377952
21
0.8636114173228346
0
LINE
8
BLACK
6
CONTINUOUS
10
0.8248338976377952
20
0.8636114173228346
11
0.8234818110236221
21
0.8603472440944882
0
LINE
8
BLACK
6
CONTINUOUS
10
0.8234818110236221
20
0.8603472440944882
11
0.8209835039370078
21
0.857848937007874
0
LINE
8
BLACK
6
CONTINUOUS
10
0.8209835039370078
20
0.857848937007874
11
0.8177193307086614
21
0.8564968503937007
0
LINE
8
BLACK
6
CONTINUOUS
10
0.8177193307086614
20
0.8564968503937007
11
0.8141861811023622
21
0.8564968503937007
0
LINE
8
BLACK
6
CONTINUOUS
10
0.8141861811023622
20
0.8564968503937007
11
0.8109220078740157
21
0.857848937007874
0
LINE
8
BLACK
6
CONTINUOUS
10
0.8109220078740157
20
0.857848937007874
11
0.8084237007874016
21
0.8603472440944882
0
LINE
8
BLACK
6
CONTINUOUS
10
0.8084237007874016
20
0.8603472440944882
11
0.8070716141732284
21
0.8636114173228346
0
LINE
8
BLACK
6
CONTINUOUS
10
0.8070716141732284
20
0.8636114173228346
11
0.8070716141732284
21
0.8671445669291339
0
LINE
8
BLACK
6
CONTINUOUS
10
0.8070716141732284
20
0.8671445669291339
11
0.8084237007874016
21
0.8704087401574803
0
LINE
8
BLACK
6
CONTINUOUS
10
0.8084237007874016
20
0.8704087401574803
11
0.8109220078740157
21
0.8729070472440945
0
LINE
8
BLACK
6
CONTINUOUS
10
0.8109220078740157
20
0.8729070472440945
11
0.8141861811023622
21
0.8742591338582677
0
LINE
8
BLACK
6
CONTINUOUS
10
0.8141861811023622
20
0.8742591338582677
11
0.8177193307086614
21
0.8742591338582677
0
LINE
8
BLACK
6
CONTINUOUS
10
0.8177193307086614
20
0.8742591338582677
11
0.8209835039370078
21
0.8729070472440945
0
LINE
8
BLACK
6
CONTINUOUS
10
1.4292542519685039
20
0.8749801968503936
11
1.4306337007874015
21
0.873600748031496
0
LINE
8
BLACK
6
CONTINUOUS
10
1.4306337007874015
20
0.873600748031496
11
1.4313803149606299
21
0.8717983464566929
0
LINE
8
BLACK
6
CONTINUOUS
10
1.4313803149606299
20
0.8717983464566929
11
1.4313803149606299
21
0.8698474015748031
0
LINE
8
BLACK
6
CONTINUOUS
10
1.4313803149606299
20
0.8698474015748031
11
1.4306337007874015
21
0.868045
0
LINE
8
BLACK
6
CONTINUOUS
10
1.4306337007874015
20
0.868045
11
1.4300119291338582
21
0.8672873228346456
0
LINE
8
BLACK
6
CONTINUOUS
10
1.4300119291338582
20
0.8672873228346456
11
1.4270119291338583
21
0.8642873228346456
0
LINE
8
BLACK
6
CONTINUOUS
10
1.4270119291338583
20
0.8642873228346456
11
1.426254251968504
21
0.8636655511811023
0
LINE
8
BLACK
6
CONTINUOUS
10
1.426254251968504
20
0.8636655511811023
11
1.4244518503937007
21
0.862918937007874
0
LINE
8
BLACK
6
CONTINUOUS
10
1.4244518503937007
20
0.862918937007874
11
1.422500905511811
21
0.862918937007874
0
LINE
8
BLACK
6
CONTINUOUS
10
1.422500905511811
20
0.862918937007874
11
1.4206985039370079
21
0.8636655511811023
0
LINE
8
BLACK
6
CONTINUOUS
10
1.4206985039370079
20
0.8636655511811023
11
1.4193190551181103
21
0.865045
0
LINE
8
BLACK
6
CONTINUOUS
10
1.4193190551181103
20
0.865045
11
1.4185724409448819
21
0.8668474015748031
0
LINE
8
BLACK
6
CONTINUOUS
10
1.4185724409448819
20
0.8668474015748031
11
1.4185724409448819
21
0.8687983464566928
0
LINE
8
BLACK
6
CONTINUOUS
10
1.4185724409448819
20
0.8687983464566928
11
1.4193190551181103
21
0.870600748031496
0
LINE
8
BLACK
6
CONTINUOUS
10
1.4193190551181103
20
0.870600748031496
11
1.4199408267716536
21
0.8713584251968504
0
LINE
8
BLACK
6
CONTINUOUS
10
1.4199408267716536
20
0.8713584251968504
11
1.4229408267716535
21
0.8743584251968504
0
LINE
8
BLACK
6
CONTINUOUS
10
1.4229408267716535
20
0.8743584251968504
11
1.4236985039370078
21
0.8749801968503936
0
LINE
8
BLACK
6
CONTINUOUS
10
1.4236985039370078
20
0.8749801968503936
11
1.4255009055118111
21
0.875726811023622
0
LINE
8
BLACK
6
CONTINUOUS
10
1.4255009055118111
20
0.875726811023622
11
1.4274518503937008
21
0.875726811023622
0
LINE
8
BLACK
6
CONTINUOUS
10
1.4274518503937008
20
0.875726811023622
11
1.4292542519685039
21
0.8749801968503936
0
LINE
8
BLACK
6
CONTINUOUS
10
0.7629835039370079
20
0.9589070472440945
11
0.765481811023622
21
0.9564087401574803
0
LINE
8
BLACK
6
CONTINUOUS
10
0.765481811023622
20
0.9564087401574803
11
0.7668338976377953
21
0.9531445669291339
0
LINE
8
BLACK
6
CONTINUOUS
10
0.7668338976377953
20
0.9531445669291339
11
0.7668338976377953
21
0.9496114173228346
0
LINE
8
BLACK
6
CONTINUOUS
10
0.7668338976377953
20
0.9496114173228346
11
0.765481811023622
21
0.9463472440944881
0
LINE
8
BLACK
6
CONTINUOUS
10
0.765481811023622
20
0.9463472440944881
11
0.7629835039370079
21
0.943848937007874
0
LINE
8
BLACK
6
CONTINUOUS
10
0.7629835039370079
20
0.943848937007874
11
0.7597193307086614
21
0.9424968503937008
0
LINE
8
BLACK
6
CONTINUOUS
10
0.7597193307086614
20
0.9424968503937008
11
0.7561861811023622
21
0.9424968503937008
0
LINE
8
BLACK
6
CONTINUOUS
10
0.7561861811023622
20
0.9424968503937008
11
0.7529220078740158
21
0.943848937007874
0
LINE
8
BLACK
6
CONTINUOUS
10
0.7529220078740158
20
0.943848937007874
11
0.7504237007874015
21
0.9463472440944881
0
LINE
8
BLACK
6
CONTINUOUS
10
0.7504237007874015
20
0.9463472440944881
11
0.7490716141732283
21
0.9496114173228346
0
LINE
8
BLACK
6
CONTINUOUS
10
0.7490716141732283
20
0.9496114173228346
11
0.7490716141732283
21
0.9531445669291339
0
LINE
8
BLACK
6
CONTINUOUS
10
0.7490716141732283
20
0.9531445669291339
11
0.7504237007874015
21
0.9564087401574803
0
LINE
8
BLACK
6
CONTINUOUS
10
0.7504237007874015
20
0.9564087401574803
11
0.7529220078740158
21
0.9589070472440945
0
LINE
8
BLACK
6
CONTINUOUS
10
0.7529220078740158
20
0.9589070472440945
11
0.7561861811023622
21
0.9602591338582677
0
LINE
8
BLACK
6
CONTINUOUS
10
0.7561861811023622
20
0.9602591338582677
11
0.7597193307086614
21
0.9602591338582677
0
LINE
8
BLACK
6
CONTINUOUS
10
0.7597193307086614
20
0.9602591338582677
11
0.7629835039370079
21
0.9589070472440945
0
LINE
8
BLACK
6
CONTINUOUS
10
0.7879835039370079
20
0.9589070472440945
11
0.790481811023622
21
0.9564087401574803
0
LINE
8
BLACK
6
CONTINUOUS
10
0.790481811023622
20
0.9564087401574803
11
0.7918338976377952
21
0.9531445669291339
0
LINE
8
BLACK
6
CONTINUOUS
10
0.7918338976377952
20
0.9531445669291339
11
0.7918338976377952
21
0.9496114173228346
0
LINE
8
BLACK
6
CONTINUOUS
10
0.7918338976377952
20
0.9496114173228346
11
0.790481811023622
21
0.9463472440944881
0
LINE
8
BLACK
6
CONTINUOUS
10
0.790481811023622
20
0.9463472440944881
11
0.7879835039370079
21
0.943848937007874
0
LINE
8
BLACK
6
CONTINUOUS
10
0.7879835039370079
20
0.943848937007874
11
0.7847193307086614
21
0.9424968503937008
0
LINE
8
BLACK
6
CONTINUOUS
10
0.7847193307086614
20
0.9424968503937008
11
0.7811861811023622
21
0.9424968503937008
0
LINE
8
BLACK
6
CONTINUOUS
10
0.7811861811023622
20
0.9424968503937008
11
0.7779220078740158
21
0.943848937007874
0
LINE
8
BLACK
6
CONTINUOUS
10
0.7779220078740158
20
0.943848937007874
11
0.7754237007874015
21
0.9463472440944881
0
LINE
8
BLACK
6
CONTINUOUS
10
0.7754237007874015
20
0.9463472440944881
11
0.7740716141732283
21
0.9496114173228346
0
LINE
8
BLACK
6
CONTINUOUS
10
0.7740716141732283
20
0.9496114173228346
11
0.7740716141732283
21
0.9531445669291339
0
LINE
8
BLACK
6
CONTINUOUS
10
0.7740716141732283
20
0.9531445669291339
11
0.7754237007874015
21
0.9564087401574803
0
LINE
8
BLACK
6
CONTINUOUS
10
0.7754237007874015
20
0.9564087401574803
11
0.7779220078740158
21
0.9589070472440945
0
LINE
8
BLACK
6
CONTINUOUS
10
0.7779220078740158
20
0.9589070472440945
11
0.7811861811023622
21
0.9602591338582677
0
LINE
8
BLACK
6
CONTINUOUS
10
0.7811861811023622
20
0.9602591338582677
11
0.7847193307086614
21
0.9602591338582677
0
LINE
8
BLACK
6
CONTINUOUS
10
0.7847193307086614
20
0.9602591338582677
11
0.7879835039370079
21
0.9589070472440945
0
LINE
8
BLACK
6
CONTINUOUS
10
0.696
20
1.329
11
0.6759999999999999
21
1.329
0
LINE
8
BLACK
6
CONTINUOUS
10
0.6759999999999999
20
1.329
11
0.6759999999999999
21
1.3089999999999999
0
LINE
8
BLACK
6
CONTINUOUS
10
0.6759999999999999
20
1.3089999999999999
11
0.6979127952755906
21
1.3089999999999999
0
LINE
8
BLACK
6
CONTINUOUS
10
0.6979127952755906
20
1.3089999999999999
11
0.6979132677165354
21
1.3090000393700787
0
LINE
8
BLACK
6
CONTINUOUS
10
0.6979132677165354
20
1.3090000393700787
11
0.700295
21
1.3092561417322834
0
LINE
8
BLACK
6
CONTINUOUS
10
0.700295
20
1.3092561417322834
11
0.7056836220472441
21
1.3112659842519685
0
LINE
8
BLACK
6
CONTINUOUS
10
0.7056836220472441
20
1.3112659842519685
11
0.7056836614173229
21
1.3112659842519685
0
LINE
8
BLACK
6
CONTINUOUS
10
0.7056836614173229
20
1.3112659842519685
11
0.7102875196850393
21
1.3147124409448818
0
LINE
8
BLACK
6
CONTINUOUS
10
0.7102875196850393
20
1.3147124409448818
11
0.7120164566929134
21
1.3170220078740158
0
LINE
8
BLACK
6
CONTINUOUS
10
0.7120164566929134
20
1.3170220078740158
11
0.714254094488189
21
1.3186970866141732
0
LINE
8
BLACK
6
CONTINUOUS
10
0.714254094488189
20
1.3186970866141732
11
0.7170420866141732
21
1.3188965354330708
0
LINE
8
BLACK
6
CONTINUOUS
10
0.7170420866141732
20
1.3188965354330708
11
0.7194953543307087
21
1.317556968503937
0
LINE
8
BLACK
6
CONTINUOUS
10
0.7194953543307087
20
1.317556968503937
11
0.7199588582677166
21
1.3170220472440946
0
LINE
8
BLACK
6
CONTINUOUS
10
0.7199588582677166
20
1.3170220472440946
11
0.721698346456693
21
1.3146983464566928
0
LINE
8
BLACK
6
CONTINUOUS
10
0.721698346456693
20
1.3146983464566928
11
0.7263067716535433
21
1.3112485039370079
0
LINE
8
BLACK
6
CONTINUOUS
10
0.7263067716535433
20
1.3112485039370079
11
0.7263068503937008
21
1.3112484645669291
0
LINE
8
BLACK
6
CONTINUOUS
10
0.7263068503937008
20
1.3112484645669291
11
0.7263069291338583
21
1.3112484251968504
0
LINE
8
BLACK
6
CONTINUOUS
10
0.7263069291338583
20
1.3112484251968504
11
0.7286328740157481
21
1.310380905511811
0
LINE
8
BLACK
6
CONTINUOUS
10
0.7286328740157481
20
1.310380905511811
11
0.7317005905511811
21
1.3092366535433071
0
LINE
8
BLACK
6
CONTINUOUS
10
0.7317005905511811
20
1.3092366535433071
11
0.731700905511811
21
1.3092365748031496
0
LINE
8
BLACK
6
CONTINUOUS
10
0.731700905511811
20
1.3092365748031496
11
0.7340846456692913
21
1.3089803149606298
0
LINE
8
BLACK
6
CONTINUOUS
10
0.7340846456692913
20
1.3089803149606298
11
0.734084842519685
21
1.3089803149606298
0
LINE
8
BLACK
6
CONTINUOUS
10
0.734084842519685
20
1.3089803149606298
11
0.7340851181102362
21
1.3089802755905511
0
LINE
8
BLACK
6
CONTINUOUS
10
0.7340851181102362
20
1.3089802755905511
11
0.7340853543307087
21
1.3089802755905511
0
LINE
8
BLACK
6
CONTINUOUS
10
0.7340853543307087
20
1.3089802755905511
11
0.7979146456692913
21
1.3089802755905511
0
LINE
8
BLACK
6
CONTINUOUS
10
0.7979146456692913
20
1.3089802755905511
11
0.7979148818897638
21
1.3089802755905511
0
LINE
8
BLACK
6
CONTINUOUS
10
0.7979148818897638
20
1.3089802755905511
11
0.7979151574803149
21
1.3089803149606298
0
LINE
8
BLACK
6
CONTINUOUS
10
0.7979151574803149
20
1.3089803149606298
11
0.79791531496063
21
1.3089803149606298
0
LINE
8
BLACK
6
CONTINUOUS
10
0.79791531496063
20
1.3089803149606298
11
0.8002990551181102
21
1.3092365748031496
0
LINE
8
BLACK
6
CONTINUOUS
10
0.8002990551181102
20
1.3092365748031496
11
0.8002991732283464
21
1.3092366141732283
0
LINE
8
BLACK
6
CONTINUOUS
10
0.8002991732283464
20
1.3092366141732283
11
0.8002992519685039
21
1.3092366141732283
0
LINE
8
BLACK
6
CONTINUOUS
10
0.8002992519685039
20
1.3092366141732283
11
0.8056930708661417
21
1.3112484251968504
0
LINE
8
BLACK
6
CONTINUOUS
10
0.8056930708661417
20
1.3112484251968504
11
0.8103016141732283
21
1.3146983464566928
0
LINE
8
BLACK
6
CONTINUOUS
10
0.8103016141732283
20
1.3146983464566928
11
0.8120411023622047
21
1.3170220866141733
0
LINE
8
BLACK
6
CONTINUOUS
10
0.8120411023622047
20
1.3170220866141733
11
0.8142787007874016
21
1.3186970866141732
0
LINE
8
BLACK
6
CONTINUOUS
10
0.8142787007874016
20
1.3186970866141732
11
0.8170666929133859
21
1.3188965354330708
0
LINE
8
BLACK
6
CONTINUOUS
10
0.8170666929133859
20
1.3188965354330708
11
0.8195199606299213
21
1.317556968503937
0
LINE
8
BLACK
6
CONTINUOUS
10
0.8195199606299213
20
1.317556968503937
11
0.8199834645669292
21
1.3170220472440946
0
LINE
8
BLACK
6
CONTINUOUS
10
0.8199834645669292
20
1.3170220472440946
11
0.8217124015748032
21
1.3147124409448818
0
LINE
8
BLACK
6
CONTINUOUS
10
0.8217124015748032
20
1.3147124409448818
11
0.8263162992125984
21
1.3112659842519685
0
LINE
8
BLACK
6
CONTINUOUS
10
0.8263162992125984
20
1.3112659842519685
11
0.8317049606299213
21
1.3092561417322834
0
LINE
8
BLACK
6
CONTINUOUS
10
0.8317049606299213
20
1.3092561417322834
11
0.8340866929133858
21
1.3090000393700787
0
LINE
8
BLACK
6
CONTINUOUS
10
0.8340866929133858
20
1.3090000393700787
11
0.8340872047244094
21
1.3089999999999999
0
LINE
8
BLACK
6
CONTINUOUS
10
0.8340872047244094
20
1.3089999999999999
11
0.856
21
1.3089999999999999
0
LINE
8
BLACK
6
CONTINUOUS
10
0.856
20
1.3089999999999999
11
0.856
21
1.329
0
LINE
8
BLACK
6
CONTINUOUS
10
0.856
20
1.329
11
0.836
21
1.329
0
LINE
8
BLACK
6
CONTINUOUS
10
0.836
20
1.329
11
0.836
21
1.389
0
LINE
8
BLACK
6
CONTINUOUS
10
0.836
20
1.389
11
0.896
21
1.389
0
LINE
8
BLACK
6
CONTINUOUS
10
0.896
20
1.389
11
0.896
21
1.369
0
LINE
8
BLACK
6
CONTINUOUS
10
0.896
20
1.369
11
0.9159999999999999
21
1.369
0
LINE
8
BLACK
6
CONTINUOUS
10
0.9159999999999999
20
1.369
11
0.9159999999999999
21
1.3771456692913386
0
LINE
8
BLACK
6
CONTINUOUS
10
0.9159999999999999
20
1.3771456692913386
11
0.9167874803149606
21
1.3798275984251969
0
LINE
8
BLACK
6
CONTINUOUS
10
0.9167874803149606
20
1.3798275984251969
11
0.9188999212598425
21
1.3816580314960629
0
LINE
8
BLACK
6
CONTINUOUS
10
0.9188999212598425
20
1.3816580314960629
11
0.9209606299212598
21
1.3821062992125983
0
LINE
8
BLACK
6
CONTINUOUS
10
0.9209606299212598
20
1.3821062992125983
11
1.7771456692913385
21
1.3821062992125983
0
LINE
8
BLACK
6
CONTINUOUS
10
1.7771456692913385
20
1.3821062992125983
11
1.7798275984251968
21
1.3813188188976377
0
LINE
8
BLACK
6
CONTINUOUS
10
1.7798275984251968
20
1.3813188188976377
11
1.7816580314960631
21
1.3792063779527559
0
LINE
8
BLACK
6
CONTINUOUS
10
1.7816580314960631
20
1.3792063779527559
11
1.7821062992125984
21
1.3771456692913386
0
LINE
8
BLACK
6
CONTINUOUS
10
1.7821062992125984
20
1.3771456692913386
11
1.7821062992125984
21
0.2228543307086614
0
LINE
8
BLACK
6
CONTINUOUS
10
1.7821062992125984
20
0.2228543307086614
11
1.7813188188976377
21
0.2201724015748031
0
LINE
8
BLACK
6
CONTINUOUS
10
1.7813188188976377
20
0.2201724015748031
11
1.7792063779527558
21
0.218341968503937
0
LINE
8
BLACK
6
CONTINUOUS
10
1.7792063779527558
20
0.218341968503937
11
1.7771456692913385
21
0.2178937007874016
0
LINE
8
BLACK
6
CONTINUOUS
10
1.7771456692913385
20
0.2178937007874016
11
0.2228543307086614
21
0.2178937007874016
0
LINE
8
BLACK
6
CONTINUOUS
10
0.2228543307086614
20
0.2178937007874016
11
0.2201724015748031
21
0.2186811811023622
0
LINE
8
BLACK
6
CONTINUOUS
10
0.2201724015748031
20
0.2186811811023622
11
0.218341968503937
21
0.2207936220472441
0
LINE
8
BLACK
6
CONTINUOUS
10
0.218341968503937
20
0.2207936220472441
11
0.2178937007874016
21
0.2228543307086614
0
LINE
8
BLACK
6
CONTINUOUS
10
0.2178937007874016
20
0.2228543307086614
11
0.2178937007874016
21
0.7036174803149606
0
LINE
8
BLACK
6
CONTINUOUS
10
0.2178937007874016
20
0.7036174803149606
11
0.2178937007874016
21
0.7622417322834646
0
LINE
8
BLACK
6
CONTINUOUS
10
0.2178937007874016
20
0.7622417322834646
11
0.2178937007874016
21
0.8042417322834645
0
LINE
8
BLACK
6
CONTINUOUS
10
0.2178937007874016
20
0.8042417322834645
11
0.2178937007874016
21
0.9542417322834645
0
LINE
8
BLACK
6
CONTINUOUS
10
0.2178937007874016
20
0.9542417322834645
11
0.2178937007874016
21
1.3771456692913386
0
LINE
8
BLACK
6
CONTINUOUS
10
0.2178937007874016
20
1.3771456692913386
11
0.2186811811023622
21
1.3798275984251969
0
LINE
8
BLACK
6
CONTINUOUS
10
0.2186811811023622
20
1.3798275984251969
11
0.2207936220472441
21
1.3816580314960629
0
LINE
8
BLACK
6
CONTINUOUS
10
0.2207936220472441
20
1.3816580314960629
11
0.2228543307086614
21
1.3821062992125983
0
LINE
8
BLACK
6
CONTINUOUS
10
0.2228543307086614
20
1.3821062992125983
11
0.6110393700787401
21
1.3821062992125983
0
LINE
8
BLACK
6
CONTINUOUS
10
0.6110393700787401
20
1.3821062992125983
11
0.6137212992125984
21
1.3813188188976377
0
LINE
8
BLACK
6
CONTINUOUS
10
0.6137212992125984
20
1.3813188188976377
11
0.6155517322834646
21
1.3792063779527559
0
LINE
8
BLACK
6
CONTINUOUS
10
0.6155517322834646
20
1.3792063779527559
11
0.616
21
1.3771456692913386
0
LINE
8
BLACK
6
CONTINUOUS
10
0.616
20
1.3771456692913386
11
0.616
21
1.369
0
LINE
8
BLACK
6
CONTINUOUS
10
0.616
20
1.369
11
0.636
21
1.369
0
LINE
8
BLACK
6
CONTINUOUS
10
0.636
20
1.369
11
0.636
21
1.389
0
LINE
8
BLACK
6
CONTINUOUS
10
0.636
20
1.389
11
0.696
21
1.389
0
LINE
8
BLACK
6
CONTINUOUS
10
0.696
20
1.389
11
0.696
21
1.329
0
LINE
8
BLACK
6
CONTINUOUS
10
1.4867233464566929
20
0.4535053937007874
11
1.4792922440944882
21
0.4497190551181102
0
LINE
8
BLACK
6
CONTINUOUS
10
1.4792922440944882
20
0.4497190551181102
11
1.471360275590551
21
0.447141811023622
0
LINE
8
BLACK
6
CONTINUOUS
10
1.471360275590551
20
0.447141811023622
11
1.4631228346456693
21
0.445837125984252
0
LINE
8
BLACK
6
CONTINUOUS
10
1.4631228346456693
20
0.445837125984252
11
1.4547826771653543
21
0.445837125984252
0
LINE
8
BLACK
6
CONTINUOUS
10
1.4547826771653543
20
0.445837125984252
11
1.4465452362204725
21
0.447141811023622
0
LINE
8
BLACK
6
CONTINUOUS
10
1.4465452362204725
20
0.447141811023622
11
1.4386132677165353
21
0.4497190551181102
0
LINE
8
BLACK
6
CONTINUOUS
10
1.4386132677165353
20
0.4497190551181102
11
1.4311821653543306
21
0.4535053937007874
0
LINE
8
BLACK
6
CONTINUOUS
10
1.4311821653543306
20
0.4535053937007874
11
1.4292100787401574
21
0.4549381889763779
0
LINE
8
BLACK
6
CONTINUOUS
10
1.4292100787401574
20
0.4549381889763779
11
1.4147837795275591
21
0.4405118503937008
0
LINE
8
BLACK
6
CONTINUOUS
10
1.4147837795275591
20
0.4405118503937008
11
1.4147837795275591
21
0.440511811023622
0
LINE
8
BLACK
6
CONTINUOUS
10
1.4147837795275591
20
0.440511811023622
11
1.4182256299212599
21
0.4378707874015748
0
LINE
8
BLACK
6
CONTINUOUS
10
1.4182256299212599
20
0.4378707874015748
11
1.4182259055118109
21
0.4378705905511811
0
LINE
8
BLACK
6
CONTINUOUS
10
1.4182259055118109
20
0.4378705905511811
11
1.4265295669291338
21
0.4330764960629921
0
LINE
8
BLACK
6
CONTINUOUS
10
1.4265295669291338
20
0.4330764960629921
11
1.4265300000000001
21
0.4330762598425197
0
LINE
8
BLACK
6
CONTINUOUS
10
1.4265300000000001
20
0.4330762598425197
11
1.4353891338582676
21
0.4294066929133858
0
LINE
8
BLACK
6
CONTINUOUS
10
1.4353891338582676
20
0.4294066929133858
11
1.4446515748031497
21
0.426924842519685
0
LINE
8
BLACK
6
CONTINUOUS
10
1.4446515748031497
20
0.426924842519685
11
1.4541581496062992
21
0.4256733070866142
0
LINE
8
BLACK
6
CONTINUOUS
10
1.4541581496062992
20
0.4256733070866142
11
1.4541585433070865
21
0.4256732677165354
0
LINE
8
BLACK
6
CONTINUOUS
10
1.4541585433070865
20
0.4256732677165354
11
1.463746968503937
21
0.4256732677165354
0
LINE
8
BLACK
6
CONTINUOUS
10
1.463746968503937
20
0.4256732677165354
11
1.4637473228346456
21
0.4256733070866142
0
LINE
8
BLACK
6
CONTINUOUS
10
1.4637473228346456
20
0.4256733070866142
11
1.4732538976377954
21
0.426924842519685
0
LINE
8
BLACK
6
CONTINUOUS
10
1.4732538976377954
20
0.426924842519685
11
1.4825163385826772
21
0.4294066929133858
0
LINE
8
BLACK
6
CONTINUOUS
10
1.4825163385826772
20
0.4294066929133858
11
1.4860929133858267
21
0.4308881889763779
0
LINE
8
BLACK
6
CONTINUOUS
10
1.4860929133858267
20
0.4308881889763779
11
1.4865058267716535
21
0.432697125984252
0
LINE
8
BLACK
6
CONTINUOUS
10
1.4865058267716535
20
0.432697125984252
11
1.4908803543307085
21
0.4451988188976378
0
LINE
8
BLACK
6
CONTINUOUS
10
1.4908803543307085
20
0.4451988188976378
11
1.4933358267716534
21
0.4502976771653543
0
LINE
8
BLACK
6
CONTINUOUS
10
1.4933358267716534
20
0.4502976771653543
11
1.4886953543307087
21
0.4549381889763779
0
LINE
8
BLACK
6
CONTINUOUS
10
1.4886953543307087
20
0.4549381889763779
11
1.4867233464566929
21
0.4535053937007874
0
LINE
8
BLACK
6
CONTINUOUS
10
1.3980004330708662
20
0.5395497244094488
11
1.3932063385826772
21
0.531246062992126
0
LINE
8
BLACK
6
CONTINUOUS
10
1.3932063385826772
20
0.531246062992126
11
1.3932061023622047
21
0.5312456299212598
0
LINE
8
BLACK
6
CONTINUOUS
10
1.3932061023622047
20
0.5312456299212598
11
1.3895365354330709
21
0.5223864960629921
0
LINE
8
BLACK
6
CONTINUOUS
10
1.3895365354330709
20
0.5223864960629921
11
1.3870546850393701
21
0.5131240551181102
0
LINE
8
BLACK
6
CONTINUOUS
10
1.3870546850393701
20
0.5131240551181102
11
1.3858031496062992
21
0.5036174803149606
0
LINE
8
BLACK
6
CONTINUOUS
10
1.3858031496062992
20
0.5036174803149606
11
1.3858031496062992
21
0.4940283070866142
0
LINE
8
BLACK
6
CONTINUOUS
10
1.3858031496062992
20
0.4940283070866142
11
1.3870546850393701
21
0.4845217322834646
0
LINE
8
BLACK
6
CONTINUOUS
10
1.3870546850393701
20
0.4845217322834646
11
1.3895365354330709
21
0.4752592913385827
0
LINE
8
BLACK
6
CONTINUOUS
10
1.3895365354330709
20
0.4752592913385827
11
1.3932061023622047
21
0.4664001574803149
0
LINE
8
BLACK
6
CONTINUOUS
10
1.3932061023622047
20
0.4664001574803149
11
1.3932063385826772
21
0.4663997244094488
0
LINE
8
BLACK
6
CONTINUOUS
10
1.3932063385826772
20
0.4663997244094488
11
1.3980004330708662
21
0.458096062992126
0
LINE
8
BLACK
6
CONTINUOUS
10
1.3980004330708662
20
0.458096062992126
11
1.398000590551181
21
0.4580958267716536
0
LINE
8
BLACK
6
CONTINUOUS
10
1.398000590551181
20
0.4580958267716536
11
1.4006416141732283
21
0.4546540157480315
0
LINE
8
BLACK
6
CONTINUOUS
10
1.4006416141732283
20
0.4546540157480315
11
1.4006416929133858
21
0.4546539763779527
0
LINE
8
BLACK
6
CONTINUOUS
10
1.4006416929133858
20
0.4546539763779527
11
1.4150679921259841
21
0.4690803149606299
0
LINE
8
BLACK
6
CONTINUOUS
10
1.4150679921259841
20
0.4690803149606299
11
1.4136352755905512
21
0.4710522834645669
0
LINE
8
BLACK
6
CONTINUOUS
10
1.4136352755905512
20
0.4710522834645669
11
1.4098489370078739
21
0.4784833858267716
0
LINE
8
BLACK
6
CONTINUOUS
10
1.4098489370078739
20
0.4784833858267716
11
1.4072716929133857
21
0.4864153543307086
0
LINE
8
BLACK
6
CONTINUOUS
10
1.4072716929133857
20
0.4864153543307086
11
1.4059670078740156
21
0.4946527952755905
0
LINE
8
BLACK
6
CONTINUOUS
10
1.4059670078740156
20
0.4946527952755905
11
1.4059670078740156
21
0.5029929527559055
0
LINE
8
BLACK
6
CONTINUOUS
10
1.4059670078740156
20
0.5029929527559055
11
1.4072716929133857
21
0.5112303937007874
0
LINE
8
BLACK
6
CONTINUOUS
10
1.4072716929133857
20
0.5112303937007874
11
1.4098489370078739
21
0.5191623622047244
0
LINE
8
BLACK
6
CONTINUOUS
10
1.4098489370078739
20
0.5191623622047244
11
1.4136352755905512
21
0.5265934645669291
0
LINE
8
BLACK
6
CONTINUOUS
10
1.4136352755905512
20
0.5265934645669291
11
1.4150679921259841
21
0.5285655118110236
0
LINE
8
BLACK
6
CONTINUOUS
10
1.4150679921259841
20
0.5285655118110236
11
1.4006416535433071
21
0.5429918503937008
0
LINE
8
BLACK
6
CONTINUOUS
10
1.4006416535433071
20
0.5429918503937008
11
1.3980004330708662
21
0.5395497244094488
0
LINE
8
BLACK
6
CONTINUOUS
10
1.7028374409448819
20
0.5285655511811024
11
1.7042702362204725
21
0.5265934645669291
0
LINE
8
BLACK
6
CONTINUOUS
10
1.7042702362204725
20
0.5265934645669291
11
1.7080565748031495
21
0.5191623622047244
0
LINE
8
BLACK
6
CONTINUOUS
10
1.7080565748031495
20
0.5191623622047244
11
1.7106338188976378
21
0.5112303937007874
0
LINE
8
BLACK
6
CONTINUOUS
10
1.7106338188976378
20
0.5112303937007874
11
1.7119385039370079
21
0.5029929527559055
0
LINE
8
BLACK
6
CONTINUOUS
10
1.7119385039370079
20
0.5029929527559055
11
1.7119385039370079
21
0.4946527952755905
0
LINE
8
BLACK
6
CONTINUOUS
10
1.7119385039370079
20
0.4946527952755905
11
1.7106338188976378
21
0.4864153543307086
0
LINE
8
BLACK
6
CONTINUOUS
10
1.7106338188976378
20
0.4864153543307086
11
1.7080565748031495
21
0.4784833858267716
0
LINE
8
BLACK
6
CONTINUOUS
10
1.7080565748031495
20
0.4784833858267716
11
1.7042702362204725
21
0.4710522834645669
0
LINE
8
BLACK
6
CONTINUOUS
10
1.7042702362204725
20
0.4710522834645669
11
1.7028374803149606
21
0.4690802755905512
0
LINE
8
BLACK
6
CONTINUOUS
10
1.7028374803149606
20
0.4690802755905512
11
1.7172637795275589
21
0.4546539763779527
0
LINE
8
BLACK
6
CONTINUOUS
10
1.7172637795275589
20
0.4546539763779527
11
1.7199050393700788
21
0.4580961023622047
0
LINE
8
BLACK
6
CONTINUOUS
10
1.7199050393700788
20
0.4580961023622047
11
1.7246991338582678
21
0.4663997244094488
0
LINE
8
BLACK
6
CONTINUOUS
10
1.7246991338582678
20
0.4663997244094488
11
1.7246993700787401
21
0.4664001574803149
0
LINE
8
BLACK
6
CONTINUOUS
10
1.7246993700787401
20
0.4664001574803149
11
1.7283689370078741
21
0.4752592913385827
0
LINE
8
BLACK
6
CONTINUOUS
10
1.7283689370078741
20
0.4752592913385827
11
1.7308507874015748
21
0.4845217322834646
0
LINE
8
BLACK
6
CONTINUOUS
10
1.7308507874015748
20
0.4845217322834646
11
1.7321023228346457
21
0.4940283070866142
0
LINE
8
BLACK
6
CONTINUOUS
10
1.7321023228346457
20
0.4940283070866142
11
1.7321023622047245
21
0.4940286614173228
0
LINE
8
BLACK
6
CONTINUOUS
10
1.7321023622047245
20
0.4940286614173228
11
1.7321023622047245
21
0.5036170866141733
0
LINE
8
BLACK
6
CONTINUOUS
10
1.7321023622047245
20
0.5036170866141733
11
1.7321023228346457
21
0.5036174803149606
0
LINE
8
BLACK
6
CONTINUOUS
10
1.7321023228346457
20
0.5036174803149606
11
1.7308507874015748
21
0.5131240551181102
0
LINE
8
BLACK
6
CONTINUOUS
10
1.7308507874015748
20
0.5131240551181102
11
1.7283689370078741
21
0.5223864960629921
0
LINE
8
BLACK
6
CONTINUOUS
10
1.7283689370078741
20
0.5223864960629921
11
1.7246993700787401
21
0.5312456299212598
0
LINE
8
BLACK
6
CONTINUOUS
10
1.7246993700787401
20
0.5312456299212598
11
1.7246991338582678
21
0.531246062992126
0
LINE
8
BLACK
6
CONTINUOUS
10
1.7246991338582678
20
0.531246062992126
11
1.7199050393700788
21
0.5395497244094488
0
LINE
8
BLACK
6
CONTINUOUS
10
1.7199050393700788
20
0.5395497244094488
11
1.719904842519685
21
0.53955
0
LINE
8
BLACK
6
CONTINUOUS
10
1.719904842519685
20
0.53955
11
1.7172637795275589
21
0.5429918503937008
0
LINE
8
BLACK
6
CONTINUOUS
10
1.7172637795275589
20
0.5429918503937008
11
1.7028374409448819
21
0.5285655511811024
0
LINE
8
BLACK
6
CONTINUOUS
10
1.5980004330708661
20
0.7395497244094488
11
1.5932063385826771
21
0.731246062992126
0
LINE
8
BLACK
6
CONTINUOUS
10
1.5932063385826771
20
0.731246062992126
11
1.5932061023622046
21
0.7312456299212599
0
LINE
8
BLACK
6
CONTINUOUS
10
1.5932061023622046
20
0.7312456299212599
11
1.5895365354330708
21
0.7223864960629921
0
LINE
8
BLACK
6
CONTINUOUS
10
1.5895365354330708
20
0.7223864960629921
11
1.5870546850393701
21
0.7131240551181102
0
LINE
8
BLACK
6
CONTINUOUS
10
1.5870546850393701
20
0.7131240551181102
11
1.5858031496062992
21
0.7036174803149606
0
LINE
8
BLACK
6
CONTINUOUS
10
1.5858031496062992
20
0.7036174803149606
11
1.5858031496062992
21
0.6940282283464567
0
LINE
8
BLACK
6
CONTINUOUS
10
1.5858031496062992
20
0.6940282283464567
11
1.5862904724409448
21
0.6903265748031496
0
LINE
8
BLACK
6
CONTINUOUS
10
1.5862904724409448
20
0.6903265748031496
11
1.5858597637795275
21
0.6875648031496063
0
LINE
8
BLACK
6
CONTINUOUS
10
1.5858597637795275
20
0.6875648031496063
11
1.5840043307086613
21
0.6854743307086614
0
LINE
8
BLACK
6
CONTINUOUS
10
1.5840043307086613
20
0.6854743307086614
11
1.5813131889763778
21
0.6847188582677165
0
LINE
8
BLACK
6
CONTINUOUS
10
1.5813131889763778
20
0.6847188582677165
11
1.5800884251968503
21
0.6848875196850394
0
LINE
8
BLACK
6
CONTINUOUS
10
1.5800884251968503
20
0.6848875196850394
11
1.5762751181102361
21
0.6859092913385827
0
LINE
8
BLACK
6
CONTINUOUS
10
1.5762751181102361
20
0.6859092913385827
11
1.5647601574803149
21
0.6874252362204725
0
LINE
8
BLACK
6
CONTINUOUS
10
1.5647601574803149
20
0.6874252362204725
11
1.5647600787401574
21
0.6874252362204725
0
LINE
8
BLACK
6
CONTINUOUS
10
1.5647600787401574
20
0.6874252362204725
11
1.5531454330708661
21
0.6874252362204725
0
LINE
8
BLACK
6
CONTINUOUS
10
1.5531454330708661
20
0.6874252362204725
11
1.5531453149606298
21
0.6874252362204725
0
LINE
8
BLACK
6
CONTINUOUS
10
1.5531453149606298
20
0.6874252362204725
11
1.5416303543307086
21
0.6859092913385827
0
LINE
8
BLACK
6
CONTINUOUS
10
1.5416303543307086
20
0.6859092913385827
11
1.5378170472440944
21
0.6848875196850394
0
LINE
8
BLACK
6
CONTINUOUS
10
1.5378170472440944
20
0.6848875196850394
11
1.5350226771653543
21
0.6849540551181102
0
LINE
8
BLACK
6
CONTINUOUS
10
1.5350226771653543
20
0.6849540551181102
11
1.5327079133858268
21
0.6865207874015747
0
LINE
8
BLACK
6
CONTINUOUS
10
1.5327079133858268
20
0.6865207874015747
11
1.5316076377952756
21
0.6890902755905511
0
LINE
8
BLACK
6
CONTINUOUS
10
1.5316076377952756
20
0.6890902755905511
11
1.5316149999999999
21
0.6903266141732284
0
LINE
8
BLACK
6
CONTINUOUS
10
1.5316149999999999
20
0.6903266141732284
11
1.5321023228346455
21
0.6940283464566929
0
LINE
8
BLACK
6
CONTINUOUS
10
1.5321023228346455
20
0.6940283464566929
11
1.5321023622047243
21
0.6940286614173228
0
LINE
8
BLACK
6
CONTINUOUS
10
1.5321023622047243
20
0.6940286614173228
11
1.5321023622047243
21
0.7036170866141732
0
LINE
8
BLACK
6
CONTINUOUS
10
1.5321023622047243
20
0.7036170866141732
11
1.5321023228346455
21
0.7036174803149606
0
LINE
8
BLACK
6
CONTINUOUS
10
1.5321023228346455
20
0.7036174803149606
11
1.5308507874015749
21
0.7131240551181102
0
LINE
8
BLACK
6
CONTINUOUS
10
1.5308507874015749
20
0.7131240551181102
11
1.5283689370078739
21
0.7223864960629921
0
LINE
8
BLACK
6
CONTINUOUS
10
1.5283689370078739
20
0.7223864960629921
11
1.5246993700787401
21
0.7312456299212599
0
LINE
8
BLACK
6
CONTINUOUS
10
1.5246993700787401
20
0.7312456299212599
11
1.5246991338582676
21
0.731246062992126
0
LINE
8
BLACK
6
CONTINUOUS
10
1.5246991338582676
20
0.731246062992126
11
1.5199050393700788
21
0.7395497244094488
0
LINE
8
BLACK
6
CONTINUOUS
10
1.5199050393700788
20
0.7395497244094488
11
1.5199048425196851
21
0.7395499999999999
0
LINE
8
BLACK
6
CONTINUOUS
10
1.5199048425196851
20
0.7395499999999999
11
1.517263779527559
21
0.7429918503937007
0
LINE
8
BLACK
6
CONTINUOUS
10
1.517263779527559
20
0.7429918503937007
11
1.5028374409448819
21
0.7285655511811023
0
LINE
8
BLACK
6
CONTINUOUS
10
1.5028374409448819
20
0.7285655511811023
11
1.5042702362204725
21
0.7265934645669291
0
LINE
8
BLACK
6
CONTINUOUS
10
1.5042702362204725
20
0.7265934645669291
11
1.5080565748031496
21
0.7191623622047244
0
LINE
8
BLACK
6
CONTINUOUS
10
1.5080565748031496
20
0.7191623622047244
11
1.5106338188976378
21
0.7112303937007873
0
LINE
8
BLACK
6
CONTINUOUS
10
1.5106338188976378
20
0.7112303937007873
11
1.5119385039370079
21
0.7029929527559055
0
LINE
8
BLACK
6
CONTINUOUS
10
1.5119385039370079
20
0.7029929527559055
11
1.5119385039370079
21
0.6946527952755905
0
LINE
8
BLACK
6
CONTINUOUS
10
1.5119385039370079
20
0.6946527952755905
11
1.5106338188976378
21
0.6864153543307087
0
LINE
8
BLACK
6
CONTINUOUS
10
1.5106338188976378
20
0.6864153543307087
11
1.5080565748031496
21
0.6784833858267716
0
LINE
8
BLACK
6
CONTINUOUS
10
1.5080565748031496
20
0.6784833858267716
11
1.5042702362204725
21
0.6710522834645669
0
LINE
8
BLACK
6
CONTINUOUS
10
1.5042702362204725
20
0.6710522834645669
11
1.4993680314960629
21
0.6643049606299213
0
LINE
8
BLACK
6
CONTINUOUS
10
1.4993680314960629
20
0.6643049606299213
11
1.4934706692913386
21
0.6584075984251968
0
LINE
8
BLACK
6
CONTINUOUS
10
1.4934706692913386
20
0.6584075984251968
11
1.4867233464566929
21
0.6535053937007874
0
LINE
8
BLACK
6
CONTINUOUS
10
1.4867233464566929
20
0.6535053937007874
11
1.4792922440944882
21
0.6497190551181102
0
LINE
8
BLACK
6
CONTINUOUS
10
1.4792922440944882
20
0.6497190551181102
11
1.471360275590551
21
0.647141811023622
0
LINE
8
BLACK
6
CONTINUOUS
10
1.471360275590551
20
0.647141811023622
11
1.4631228346456693
21
0.6458371259842519
0
LINE
8
BLACK
6
CONTINUOUS
10
1.4631228346456693
20
0.6458371259842519
11
1.4547826771653543
21
0.6458371259842519
0
LINE
8
BLACK
6
CONTINUOUS
10
1.4547826771653543
20
0.6458371259842519
11
1.4465452362204725
21
0.647141811023622
0
LINE
8
BLACK
6
CONTINUOUS
10
1.4465452362204725
20
0.647141811023622
11
1.4386132677165353
21
0.6497190551181102
0
LINE
8
BLACK
6
CONTINUOUS
10
1.4386132677165353
20
0.6497190551181102
11
1.4311821653543306
21
0.6535053937007874
0
LINE
8
BLACK
6
CONTINUOUS
10
1.4311821653543306
20
0.6535053937007874
11
1.4292100787401574
21
0.6549381889763779
0
LINE
8
BLACK
6
CONTINUOUS
10
1.4292100787401574
20
0.6549381889763779
11
1.4147837795275591
21
0.6405118503937007
0
LINE
8
BLACK
6
CONTINUOUS
10
1.4147837795275591
20
0.6405118503937007
11
1.4147837795275591
21
0.640511811023622
0
LINE
8
BLACK
6
CONTINUOUS
10
1.4147837795275591
20
0.640511811023622
11
1.4182256299212599
21
0.6378707874015748
0
LINE
8
BLACK
6
CONTINUOUS
10
1.4182256299212599
20
0.6378707874015748
11
1.4182259055118109
21
0.6378705905511811
0
LINE
8
BLACK
6
CONTINUOUS
10
1.4182259055118109
20
0.6378705905511811
11
1.4265295669291338
21
0.6330764960629921
0
LINE
8
BLACK
6
CONTINUOUS
10
1.4265295669291338
20
0.6330764960629921
11
1.4265300000000001
21
0.6330762598425197
0
LINE
8
BLACK
6
CONTINUOUS
10
1.4265300000000001
20
0.6330762598425197
11
1.4353891338582676
21
0.6294066929133858
0
LINE
8
BLACK
6
CONTINUOUS
10
1.4353891338582676
20
0.6294066929133858
11
1.4446515748031497
21
0.6269248425196851
0
LINE
8
BLACK
6
CONTINUOUS
10
1.4446515748031497
20
0.6269248425196851
11
1.4541581496062992
21
0.6256733070866142
0
LINE
8
BLACK
6
CONTINUOUS
10
1.4541581496062992
20
0.6256733070866142
11
1.4541585433070865
21
0.6256732677165354
0
LINE
8
BLACK
6
CONTINUOUS
10
1.4541585433070865
20
0.6256732677165354
11
1.463746968503937
21
0.6256732677165354
0
LINE
8
BLACK
6
CONTINUOUS
10
1.463746968503937
20
0.6256732677165354
11
1.4637472834645668
21
0.6256733070866142
0
LINE
8
BLACK
6
CONTINUOUS
10
1.4637472834645668
20
0.6256733070866142
11
1.4674490157480315
21
0.6261606299212599
0
LINE
8
BLACK
6
CONTINUOUS
10
1.4674490157480315
20
0.6261606299212599
11
1.4702107480314961
21
0.6257299606299213
0
LINE
8
BLACK
6
CONTINUOUS
10
1.4702107480314961
20
0.6257299606299213
11
1.4723012598425196
21
0.6238745275590551
0
LINE
8
BLACK
6
CONTINUOUS
10
1.4723012598425196
20
0.6238745275590551
11
1.4730567716535432
21
0.6211834251968503
0
LINE
8
BLACK
6
CONTINUOUS
10
1.4730567716535432
20
0.6211834251968503
11
1.4728881102362203
21
0.6199585826771653
0
LINE
8
BLACK
6
CONTINUOUS
10
1.4728881102362203
20
0.6199585826771653
11
1.4718663385826771
21
0.6161452755905512
0
LINE
8
BLACK
6
CONTINUOUS
10
1.4718663385826771
20
0.6161452755905512
11
1.4703503937007874
21
0.6046303149606299
0
LINE
8
BLACK
6
CONTINUOUS
10
1.4703503937007874
20
0.6046303149606299
11
1.4703503937007874
21
0.5930154724409449
0
LINE
8
BLACK
6
CONTINUOUS
10
1.4703503937007874
20
0.5930154724409449
11
1.4718663385826771
21
0.5815005118110236
0
LINE
8
BLACK
6
CONTINUOUS
10
1.4718663385826771
20
0.5815005118110236
11
1.4728881102362203
21
0.5776872047244095
0
LINE
8
BLACK
6
CONTINUOUS
10
1.4728881102362203
20
0.5776872047244095
11
1.4728215748031497
21
0.5748928740157481
0
LINE
8
BLACK
6
CONTINUOUS
10
1.4728215748031497
20
0.5748928740157481
11
1.471254842519685
21
0.5725780708661418
0
LINE
8
BLACK
6
CONTINUOUS
10
1.471254842519685
20
0.5725780708661418
11
1.4686853937007873
21
0.5714777952755905
0
LINE
8
BLACK
6
CONTINUOUS
10
1.4686853937007873
20
0.5714777952755905
11
1.4674490551181103
21
0.5714851574803149
0
LINE
8
BLACK
6
CONTINUOUS
10
1.4674490551181103
20
0.5714851574803149
11
1.4637474015748031
21
0.5719724803149606
0
LINE
8
BLACK
6
CONTINUOUS
10
1.4637474015748031
20
0.5719724803149606
11
1.4541581496062992
21
0.5719724803149606
0
LINE
8
BLACK
6
CONTINUOUS
10
1.4541581496062992
20
0.5719724803149606
11
1.4446515748031497
21
0.5707209448818897
0
LINE
8
BLACK
6
CONTINUOUS
10
1.4446515748031497
20
0.5707209448818897
11
1.4353891338582676
21
0.568239094488189
0
LINE
8
BLACK
6
CONTINUOUS
10
1.4353891338582676
20
0.568239094488189
11
1.4265300000000001
21
0.5645695275590551
0
LINE
8
BLACK
6
CONTINUOUS
10
1.4265300000000001
20
0.5645695275590551
11
1.4265295669291338
21
0.5645692913385827
0
LINE
8
BLACK
6
CONTINUOUS
10
1.4265295669291338
20
0.5645692913385827
11
1.4182259055118109
21
0.5597751968503937
0
LINE
8
BLACK
6
CONTINUOUS
10
1.4182259055118109
20
0.5597751968503937
11
1.4147837795275591
21
0.5571339763779527
0
LINE
8
BLACK
6
CONTINUOUS
10
1.4147837795275591
20
0.5571339763779527
11
1.4292101181102361
21
0.5427076377952755
0
LINE
8
BLACK
6
CONTINUOUS
10
1.4292101181102361
20
0.5427076377952755
11
1.4311821653543306
21
0.5441403543307086
0
LINE
8
BLACK
6
CONTINUOUS
10
1.4311821653543306
20
0.5441403543307086
11
1.4386132677165353
21
0.5479266929133858
0
LINE
8
BLACK
6
CONTINUOUS
10
1.4386132677165353
20
0.5479266929133858
11
1.4465452362204725
21
0.550503937007874
0
LINE
8
BLACK
6
CONTINUOUS
10
1.4465452362204725
20
0.550503937007874
11
1.4547826771653543
21
0.5518086220472441
0
LINE
8
BLACK
6
CONTINUOUS
10
1.4547826771653543
20
0.5518086220472441
11
1.4631228346456693
21
0.5518086220472441
0
LINE
8
BLACK
6
CONTINUOUS
10
1.4631228346456693
20
0.5518086220472441
11
1.471360275590551
21
0.550503937007874
0
LINE
8
BLACK
6
CONTINUOUS
10
1.471360275590551
20
0.550503937007874
11
1.4792922440944882
21
0.5479266929133858
0
LINE
8
BLACK
6
CONTINUOUS
10
1.4792922440944882
20
0.5479266929133858
11
1.4867233464566929
21
0.5441403543307086
0
LINE
8
BLACK
6
CONTINUOUS
10
1.4867233464566929
20
0.5441403543307086
11
1.4934706692913386
21
0.5392381496062992
0
LINE
8
BLACK
6
CONTINUOUS
10
1.4934706692913386
20
0.5392381496062992
11
1.4993680314960629
21
0.5333407874015748
0
LINE
8
BLACK
6
CONTINUOUS
10
1.4993680314960629
20
0.5333407874015748
11
1.5042702362204725
21
0.5265934645669291
0
LINE
8
BLACK
6
CONTINUOUS
10
1.5042702362204725
20
0.5265934645669291
11
1.5080565748031496
21
0.5191623622047244
0
LINE
8
BLACK
6
CONTINUOUS
10
1.5080565748031496
20
0.5191623622047244
11
1.5106338188976378
21
0.5112303937007874
0
LINE
8
BLACK
6
CONTINUOUS
10
1.5106338188976378
20
0.5112303937007874
11
1.5119385039370079
21
0.5029929527559055
0
LINE
8
BLACK
6
CONTINUOUS
10
1.5119385039370079
20
0.5029929527559055
11
1.5119385039370079
21
0.4946527952755905
0
LINE
8
BLACK
6
CONTINUOUS
10
1.5119385039370079
20
0.4946527952755905
11
1.5106338188976378
21
0.4864153543307086
0
LINE
8
BLACK
6
CONTINUOUS
10
1.5106338188976378
20
0.4864153543307086
11
1.5080565748031496
21
0.4784833858267716
0
LINE
8
BLACK
6
CONTINUOUS
10
1.5080565748031496
20
0.4784833858267716
11
1.5042702362204725
21
0.4710522834645669
0
LINE
8
BLACK
6
CONTINUOUS
10
1.5042702362204725
20
0.4710522834645669
11
1.5028374803149607
21
0.4690802755905512
0
LINE
8
BLACK
6
CONTINUOUS
10
1.5028374803149607
20
0.4690802755905512
11
1.503634094488189
21
0.4682836614173228
0
LINE
8
BLACK
6
CONTINUOUS
10
1.503634094488189
20
0.4682836614173228
11
1.5036738976377952
21
0.4683470078740157
0
LINE
8
BLACK
6
CONTINUOUS
10
1.5036738976377952
20
0.4683470078740157
11
1.5119320472440945
21
0.4787023622047244
0
LINE
8
BLACK
6
CONTINUOUS
10
1.5119320472440945
20
0.4787023622047244
11
1.5212976377952756
21
0.4880679527559055
0
LINE
8
BLACK
6
CONTINUOUS
10
1.5212976377952756
20
0.4880679527559055
11
1.5316529921259843
21
0.4963261023622047
0
LINE
8
BLACK
6
CONTINUOUS
10
1.5316529921259843
20
0.4963261023622047
11
1.5321023622047243
21
0.4966084645669291
0
LINE
8
BLACK
6
CONTINUOUS
10
1.5321023622047243
20
0.4966084645669291
11
1.5321023622047243
21
0.5036170866141733
0
LINE
8
BLACK
6
CONTINUOUS
10
1.5321023622047243
20
0.5036170866141733
11
1.5321023228346455
21
0.5036174803149606
0
LINE
8
BLACK
6
CONTINUOUS
10
1.5321023228346455
20
0.5036174803149606
11
1.5316149999999999
21
0.5073191732283464
0
LINE
8
BLACK
6
CONTINUOUS
10
1.5316149999999999
20
0.5073191732283464
11
1.5320456692913385
21
0.5100809448818897
0
LINE
8
BLACK
6
CONTINUOUS
10
1.5320456692913385
20
0.5100809448818897
11
1.5339011417322834
21
0.5121714173228347
0
LINE
8
BLACK
6
CONTINUOUS
10
1.5339011417322834
20
0.5121714173228347
11
1.5365922047244094
21
0.5129269291338583
0
LINE
8
BLACK
6
CONTINUOUS
10
1.5365922047244094
20
0.5129269291338583
11
1.5378169291338581
21
0.5127583070866142
0
LINE
8
BLACK
6
CONTINUOUS
10
1.5378169291338581
20
0.5127583070866142
11
1.5416301968503936
21
0.5117365354330708
0
LINE
8
BLACK
6
CONTINUOUS
10
1.5416301968503936
20
0.5117365354330708
11
1.5416304330708661
21
0.5117365354330708
0
LINE
8
BLACK
6
CONTINUOUS
10
1.5416304330708661
20
0.5117365354330708
11
1.5416304724409449
21
0.5117364960629921
0
LINE
8
BLACK
6
CONTINUOUS
10
1.5416304724409449
20
0.5117364960629921
11
1.5429517322834645
21
0.511562559055118
0
LINE
8
BLACK
6
CONTINUOUS
10
1.5429517322834645
20
0.511562559055118
11
1.5531454330708661
21
0.5102205118110236
0
LINE
8
BLACK
6
CONTINUOUS
10
1.5531454330708661
20
0.5102205118110236
11
1.5531457086614173
21
0.5102205118110236
0
LINE
8
BLACK
6
CONTINUOUS
10
1.5531457086614173
20
0.5102205118110236
11
1.5579472834645669
21
0.5102205118110236
0
LINE
8
BLACK
6
CONTINUOUS
10
1.5579472834645669
20
0.5102205118110236
11
1.567302874015748
21
0.5134941732283465
0
LINE
8
BLACK
6
CONTINUOUS
10
1.567302874015748
20
0.5134941732283465
11
1.5802157874015748
21
0.5164414566929134
0
LINE
8
BLACK
6
CONTINUOUS
10
1.5802157874015748
20
0.5164414566929134
11
1.5933775196850393
21
0.5179244094488189
0
LINE
8
BLACK
6
CONTINUOUS
10
1.5933775196850393
20
0.5179244094488189
11
1.6066224803149607
21
0.5179244094488189
0
LINE
8
BLACK
6
CONTINUOUS
10
1.6066224803149607
20
0.5179244094488189
11
1.6093469291338582
21
0.5176174409448818
0
LINE
8
BLACK
6
CONTINUOUS
10
1.6093469291338582
20
0.5176174409448818
11
1.6098489370078739
21
0.5191623622047244
0
LINE
8
BLACK
6
CONTINUOUS
10
1.6098489370078739
20
0.5191623622047244
11
1.6136352755905512
21
0.5265934645669291
0
LINE
8
BLACK
6
CONTINUOUS
10
1.6136352755905512
20
0.5265934645669291
11
1.6185374803149606
21
0.5333407874015748
0
LINE
8
BLACK
6
CONTINUOUS
10
1.6185374803149606
20
0.5333407874015748
11
1.6244348425196851
21
0.5392381496062992
0
LINE
8
BLACK
6
CONTINUOUS
10
1.6244348425196851
20
0.5392381496062992
11
1.6311821653543306
21
0.5441403543307086
0
LINE
8
BLACK
6
CONTINUOUS
10
1.6311821653543306
20
0.5441403543307086
11
1.6386132677165355
21
0.5479266929133858
0
LINE
8
BLACK
6
CONTINUOUS
10
1.6386132677165355
20
0.5479266929133858
11
1.6465452362204724
21
0.550503937007874
0
LINE
8
BLACK
6
CONTINUOUS
10
1.6465452362204724
20
0.550503937007874
11
1.6547826771653542
21
0.5518086220472441
0
LINE
8
BLACK
6
CONTINUOUS
10
1.6547826771653542
20
0.5518086220472441
11
1.6631228346456692
21
0.5518086220472441
0
LINE
8
BLACK
6
CONTINUOUS
10
1.6631228346456692
20
0.5518086220472441
11
1.6713602755905512
21
0.550503937007874
0
LINE
8
BLACK
6
CONTINUOUS
10
1.6713602755905512
20
0.550503937007874
11
1.6792922440944882
21
0.5479266929133858
0
LINE
8
BLACK
6
CONTINUOUS
10
1.6792922440944882
20
0.5479266929133858
11
1.6867233464566929
21
0.5441403543307086
0
LINE
8
BLACK
6
CONTINUOUS
10
1.6867233464566929
20
0.5441403543307086
11
1.6886953149606299
21
0.5427076771653543
0
LINE
8
BLACK
6
CONTINUOUS
10
1.6886953149606299
20
0.5427076771653543
11
1.7031216535433071
21
0.5571339763779527
0
LINE
8
BLACK
6
CONTINUOUS
10
1.7031216535433071
20
0.5571339763779527
11
1.7031216141732284
21
0.5571340157480315
0
LINE
8
BLACK
6
CONTINUOUS
10
1.7031216141732284
20
0.5571340157480315
11
1.6996798031496063
21
0.5597750393700788
0
LINE
8
BLACK
6
CONTINUOUS
10
1.6996798031496063
20
0.5597750393700788
11
1.6996795669291338
21
0.5597751968503937
0
LINE
8
BLACK
6
CONTINUOUS
10
1.6996795669291338
20
0.5597751968503937
11
1.6913759055118109
21
0.5645692913385827
0
LINE
8
BLACK
6
CONTINUOUS
10
1.6913759055118109
20
0.5645692913385827
11
1.6913754724409449
21
0.5645695275590551
0
LINE
8
BLACK
6
CONTINUOUS
10
1.6913754724409449
20
0.5645695275590551
11
1.6825163385826771
21
0.568239094488189
0
LINE
8
BLACK
6
CONTINUOUS
10
1.6825163385826771
20
0.568239094488189
11
1.6732538976377953
21
0.5707209448818897
0
LINE
8
BLACK
6
CONTINUOUS
10
1.6732538976377953
20
0.5707209448818897
11
1.6637473228346455
21
0.5719724803149606
0
LINE
8
BLACK
6
CONTINUOUS
10
1.6637473228346455
20
0.5719724803149606
11
1.6541580708661416
21
0.5719724803149606
0
LINE
8
BLACK
6
CONTINUOUS
10
1.6541580708661416
20
0.5719724803149606
11
1.6504563779527559
21
0.5714851574803149
0
LINE
8
BLACK
6
CONTINUOUS
10
1.6504563779527559
20
0.5714851574803149
11
1.6476946062992126
21
0.5719158661417323
0
LINE
8
BLACK
6
CONTINUOUS
10
1.6476946062992126
20
0.5719158661417323
11
1.6456041338582676
21
0.5737713385826771
0
LINE
8
BLACK
6
CONTINUOUS
10
1.6456041338582676
20
0.5737713385826771
11
1.6448486614173228
21
0.5764624409448819
0
LINE
8
BLACK
6
CONTINUOUS
10
1.6448486614173228
20
0.5764624409448819
11
1.6450173622047244
21
0.5776872047244095
0
LINE
8
BLACK
6
CONTINUOUS
10
1.6450173622047244
20
0.5776872047244095
11
1.6460390944881889
21
0.5815003149606299
0
LINE
8
BLACK
6
CONTINUOUS
10
1.6460390944881889
20
0.5815003149606299
11
1.6475551181102361
21
0.5930155511811024
0
LINE
8
BLACK
6
CONTINUOUS
10
1.6475551181102361
20
0.5930155511811024
11
1.6475551181102361
21
0.6046301968503937
0
LINE
8
BLACK
6
CONTINUOUS
10
1.6475551181102361
20
0.6046301968503937
11
1.6460390944881889
21
0.6161454330708661
0
LINE
8
BLACK
6
CONTINUOUS
10
1.6460390944881889
20
0.6161454330708661
11
1.6450173622047244
21
0.6199586220472441
0
LINE
8
BLACK
6
CONTINUOUS
10
1.6450173622047244
20
0.6199586220472441
11
1.6450838976377953
21
0.6227529133858267
0
LINE
8
BLACK
6
CONTINUOUS
10
1.6450838976377953
20
0.6227529133858267
11
1.646650590551181
21
0.6250676771653543
0
LINE
8
BLACK
6
CONTINUOUS
10
1.646650590551181
20
0.6250676771653543
11
1.6492200787401574
21
0.6261679921259843
0
LINE
8
BLACK
6
CONTINUOUS
10
1.6492200787401574
20
0.6261679921259843
11
1.6504564566929134
21
0.6261606299212599
0
LINE
8
BLACK
6
CONTINUOUS
10
1.6504564566929134
20
0.6261606299212599
11
1.6541581496062991
21
0.6256733070866142
0
LINE
8
BLACK
6
CONTINUOUS
10
1.6541581496062991
20
0.6256733070866142
11
1.6541585433070867
21
0.6256732677165354
0
LINE
8
BLACK
6
CONTINUOUS
10
1.6541585433070867
20
0.6256732677165354
11
1.663746968503937
21
0.6256732677165354
0
LINE
8
BLACK
6
CONTINUOUS
10
1.663746968503937
20
0.6256732677165354
11
1.6637473228346455
21
0.6256733070866142
0
LINE
8
BLACK
6
CONTINUOUS
10
1.6637473228346455
20
0.6256733070866142
11
1.6732538976377953
21
0.6269248425196851
0
LINE
8
BLACK
6
CONTINUOUS
10
1.6732538976377953
20
0.6269248425196851
11
1.6825163385826771
21
0.6294066929133858
0
LINE
8
BLACK
6
CONTINUOUS
10
1.6825163385826771
20
0.6294066929133858
11
1.6913754724409449
21
0.6330762598425197
0
LINE
8
BLACK
6
CONTINUOUS
10
1.6913754724409449
20
0.6330762598425197
11
1.6913759055118109
21
0.6330764960629921
0
LINE
8
BLACK
6
CONTINUOUS
10
1.6913759055118109
20
0.6330764960629921
11
1.699679527559055
21
0.6378705905511811
0
LINE
8
BLACK
6
CONTINUOUS
10
1.699679527559055
20
0.6378705905511811
11
1.7031216535433071
21
0.6405118503937007
0
LINE
8
BLACK
6
CONTINUOUS
10
1.7031216535433071
20
0.6405118503937007
11
1.6886953543307086
21
0.6549381496062991
0
LINE
8
BLACK
6
CONTINUOUS
10
1.6886953543307086
20
0.6549381496062991
11
1.6867233464566929
21
0.6535053937007874
0
LINE
8
BLACK
6
CONTINUOUS
10
1.6867233464566929
20
0.6535053937007874
11
1.6792922440944882
21
0.6497190551181102
0
LINE
8
BLACK
6
CONTINUOUS
10
1.6792922440944882
20
0.6497190551181102
11
1.6713602755905512
21
0.647141811023622
0
LINE
8
BLACK
6
CONTINUOUS
10
1.6713602755905512
20
0.647141811023622
11
1.6631228346456692
21
0.6458371259842519
0
LINE
8
BLACK
6
CONTINUOUS
10
1.6631228346456692
20
0.6458371259842519
11
1.6547826771653542
21
0.6458371259842519
0
LINE
8
BLACK
6
CONTINUOUS
10
1.6547826771653542
20
0.6458371259842519
11
1.6465452362204724
21
0.647141811023622
0
LINE
8
BLACK
6
CONTINUOUS
10
1.6465452362204724
20
0.647141811023622
11
1.6386132677165355
21
0.6497190551181102
0
LINE
8
BLACK
6
CONTINUOUS
10
1.6386132677165355
20
0.6497190551181102
11
1.6311821653543306
21
0.6535053937007874
0
LINE
8
BLACK
6
CONTINUOUS
10
1.6311821653543306
20
0.6535053937007874
11
1.6244348425196851
21
0.6584075984251968
0
LINE
8
BLACK
6
CONTINUOUS
10
1.6244348425196851
20
0.6584075984251968
11
1.6185374803149606
21
0.6643049606299213
0
LINE
8
BLACK
6
CONTINUOUS
10
1.6185374803149606
20
0.6643049606299213
11
1.6136352755905512
21
0.6710522834645669
0
LINE
8
BLACK
6
CONTINUOUS
10
1.6136352755905512
20
0.6710522834645669
11
1.6098489370078739
21
0.6784833858267716
0
LINE
8
BLACK
6
CONTINUOUS
10
1.6098489370078739
20
0.6784833858267716
11
1.6072716929133859
21
0.6864153543307087
0
LINE
8
BLACK
6
CONTINUOUS
10
1.6072716929133859
20
0.6864153543307087
11
1.6059670078740158
21
0.6946527952755905
0
LINE
8
BLACK
6
CONTINUOUS
10
1.6059670078740158
20
0.6946527952755905
11
1.6059670078740158
21
0.7029929527559055
0
LINE
8
BLACK
6
CONTINUOUS
10
1.6059670078740158
20
0.7029929527559055
11
1.6072716929133859
21
0.7112303937007873
0
LINE
8
BLACK
6
CONTINUOUS
10
1.6072716929133859
20
0.7112303937007873
11
1.6098489370078739
21
0.7191623622047244
0
LINE
8
BLACK
6
CONTINUOUS
10
1.6098489370078739
20
0.7191623622047244
11
1.6136352755905512
21
0.7265934645669291
0
LINE
8
BLACK
6
CONTINUOUS
10
1.6136352755905512
20
0.7265934645669291
11
1.6150679921259843
21
0.7285655118110236
0
LINE
8
BLACK
6
CONTINUOUS
10
1.6150679921259843
20
0.7285655118110236
11
1.600641653543307
21
0.7429918503937007
0
LINE
8
BLACK
6
CONTINUOUS
10
1.600641653543307
20
0.7429918503937007
11
1.5980004330708661
21
0.7395497244094488
0
LINE
8
BLACK
6
CONTINUOUS
10
1.7028374409448819
20
0.7285655511811023
11
1.7042702362204725
21
0.7265934645669291
0
LINE
8
BLACK
6
CONTINUOUS
10
1.7042702362204725
20
0.7265934645669291
11
1.7080565748031495
21
0.7191623622047244
0
LINE
8
BLACK
6
CONTINUOUS
10
1.7080565748031495
20
0.7191623622047244
11
1.7106338188976378
21
0.7112303937007873
0
LINE
8
BLACK
6
CONTINUOUS
10
1.7106338188976378
20
0.7112303937007873
11
1.7119385039370079
21
0.7029929527559055
0
LINE
8
BLACK
6
CONTINUOUS
10
1.7119385039370079
20
0.7029929527559055
11
1.7119385039370079
21
0.6946527952755905
0
LINE
8
BLACK
6
CONTINUOUS
10
1.7119385039370079
20
0.6946527952755905
11
1.7106338188976378
21
0.6864153543307087
0
LINE
8
BLACK
6
CONTINUOUS
10
1.7106338188976378
20
0.6864153543307087
11
1.7080565748031495
21
0.6784833858267716
0
LINE
8
BLACK
6
CONTINUOUS
10
1.7080565748031495
20
0.6784833858267716
11
1.7042702362204725
21
0.6710522834645669
0
LINE
8
BLACK
6
CONTINUOUS
10
1.7042702362204725
20
0.6710522834645669
11
1.7028374803149606
21
0.6690802755905512
0
LINE
8
BLACK
6
CONTINUOUS
10
1.7028374803149606
20
0.6690802755905512
11
1.7172637795275589
21
0.6546539763779528
0
LINE
8
BLACK
6
CONTINUOUS
10
1.7172637795275589
20
0.6546539763779528
11
1.7199050393700788
21
0.6580961023622047
0
LINE
8
BLACK
6
CONTINUOUS
10
1.7199050393700788
20
0.6580961023622047
11
1.7246991338582678
21
0.6663997244094488
0
LINE
8
BLACK
6
CONTINUOUS
10
1.7246991338582678
20
0.6663997244094488
11
1.7246993700787401
21
0.6664001574803149
0
LINE
8
BLACK
6
CONTINUOUS
10
1.7246993700787401
20
0.6664001574803149
11
1.7283689370078741
21
0.6752592913385826
0
LINE
8
BLACK
6
CONTINUOUS
10
1.7283689370078741
20
0.6752592913385826
11
1.7308507874015748
21
0.6845217322834646
0
LINE
8
BLACK
6
CONTINUOUS
10
1.7308507874015748
20
0.6845217322834646
11
1.7321023228346457
21
0.6940283070866141
0
LINE
8
BLACK
6
CONTINUOUS
10
1.7321023228346457
20
0.6940283070866141
11
1.7321023622047245
21
0.6940286614173228
0
LINE
8
BLACK
6
CONTINUOUS
10
1.7321023622047245
20
0.6940286614173228
11
1.7321023622047245
21
0.7036170866141732
0
LINE
8
BLACK
6
CONTINUOUS
10
1.7321023622047245
20
0.7036170866141732
11
1.7321023228346457
21
0.7036174803149606
0
LINE
8
BLACK
6
CONTINUOUS
10
1.7321023228346457
20
0.7036174803149606
11
1.7308507874015748
21
0.7131240551181102
0
LINE
8
BLACK
6
CONTINUOUS
10
1.7308507874015748
20
0.7131240551181102
11
1.7283689370078741
21
0.7223864960629921
0
LINE
8
BLACK
6
CONTINUOUS
10
1.7283689370078741
20
0.7223864960629921
11
1.7246993700787401
21
0.7312456299212599
0
LINE
8
BLACK
6
CONTINUOUS
10
1.7246993700787401
20
0.7312456299212599
11
1.7246991338582678
21
0.731246062992126
0
LINE
8
BLACK
6
CONTINUOUS
10
1.7246991338582678
20
0.731246062992126
11
1.7199050393700788
21
0.7395497244094488
0
LINE
8
BLACK
6
CONTINUOUS
10
1.7199050393700788
20
0.7395497244094488
11
1.719904842519685
21
0.7395499999999999
0
LINE
8
BLACK
6
CONTINUOUS
10
1.719904842519685
20
0.7395499999999999
11
1.7172637795275589
21
0.7429918503937007
0
LINE
8
BLACK
6
CONTINUOUS
10
1.7172637795275589
20
0.7429918503937007
11
1.7028374409448819
21
0.7285655511811023
0
LINE
8
BLACK
6
CONTINUOUS
10
1.0214719291338583
20
0.7873354724409448
11
1.0214717322834646
21
0.7873353937007874
0
LINE
8
BLACK
6
CONTINUOUS
10
1.0214717322834646
20
0.7873353937007874
11
1.0161806692913387
21
0.7851437401574803
0
LINE
8
BLACK
6
CONTINUOUS
10
1.0161806692913387
20
0.7851437401574803
11
1.0114186614173228
21
0.7819618897637796
0
LINE
8
BLACK
6
CONTINUOUS
10
1.0114186614173228
20
0.7819618897637796
11
1.0114184251968503
21
0.7819616929133858
0
LINE
8
BLACK
6
CONTINUOUS
10
1.0114184251968503
20
0.7819616929133858
11
1.0073690551181103
21
0.7779123228346456
0
LINE
8
BLACK
6
CONTINUOUS
10
1.0073690551181103
20
0.7779123228346456
11
1.0073688582677165
21
0.7779120866141732
0
LINE
8
BLACK
6
CONTINUOUS
10
1.0073688582677165
20
0.7779120866141732
11
1.0041870078740158
21
0.7731500787401575
0
LINE
8
BLACK
6
CONTINUOUS
10
1.0041870078740158
20
0.7731500787401575
11
1.0019953543307087
21
0.7678590157480315
0
LINE
8
BLACK
6
CONTINUOUS
10
1.0019953543307087
20
0.7678590157480315
11
1.0019952755905512
21
0.7678588188976377
0
LINE
8
BLACK
6
CONTINUOUS
10
1.0019952755905512
20
0.7678588188976377
11
1.0008779527559055
21
0.7622417322834646
0
LINE
8
BLACK
6
CONTINUOUS
10
1.0008779527559055
20
0.7622417322834646
11
1.0008779527559055
21
0.7622416141732283
0
LINE
8
BLACK
6
CONTINUOUS
10
1.0008779527559055
20
0.7622416141732283
11
1.0008779527559055
21
0.7565143700787401
0
LINE
8
BLACK
6
CONTINUOUS
10
1.0008779527559055
20
0.7565143700787401
11
1.0019952755905512
21
0.7508972047244095
0
LINE
8
BLACK
6
CONTINUOUS
10
1.0019952755905512
20
0.7508972047244095
11
1.0041870078740158
21
0.7456059055118111
0
LINE
8
BLACK
6
CONTINUOUS
10
1.0041870078740158
20
0.7456059055118111
11
1.0059336614173229
21
0.7429918503937007
0
LINE
8
BLACK
6
CONTINUOUS
10
1.0059336614173229
20
0.7429918503937007
11
1.0073688582677165
21
0.740843937007874
0
LINE
8
BLACK
6
CONTINUOUS
10
1.0073688582677165
20
0.740843937007874
11
1.0073690551181103
21
0.7408437007874016
0
LINE
8
BLACK
6
CONTINUOUS
10
1.0073690551181103
20
0.7408437007874016
11
1.0114184251968503
21
0.7367943307086614
0
LINE
8
BLACK
6
CONTINUOUS
10
1.0114184251968503
20
0.7367943307086614
11
1.0114186614173228
21
0.7367941338582678
0
LINE
8
BLACK
6
CONTINUOUS
10
1.0114186614173228
20
0.7367941338582678
11
1.0161806692913387
21
0.7336122440944882
0
LINE
8
BLACK
6
CONTINUOUS
10
1.0161806692913387
20
0.7336122440944882
11
1.0214719685039371
21
0.7314205118110236
0
LINE
8
BLACK
6
CONTINUOUS
10
1.0214719685039371
20
0.7314205118110236
11
1.0270891338582677
21
0.7303031889763779
0
LINE
8
BLACK
6
CONTINUOUS
10
1.0270891338582677
20
0.7303031889763779
11
1.0270891732283465
21
0.7303031889763779
0
LINE
8
BLACK
6
CONTINUOUS
10
1.0270891732283465
20
0.7303031889763779
11
1.0328163385826772
21
0.7303031889763779
0
LINE
8
BLACK
6
CONTINUOUS
10
1.0328163385826772
20
0.7303031889763779
11
1.0328163779527559
21
0.7303031889763779
0
LINE
8
BLACK
6
CONTINUOUS
10
1.0328163779527559
20
0.7303031889763779
11
1.0384335433070866
21
0.7314205118110236
0
LINE
8
BLACK
6
CONTINUOUS
10
1.0384335433070866
20
0.7314205118110236
11
1.043724842519685
21
0.7336122440944882
0
LINE
8
BLACK
6
CONTINUOUS
10
1.043724842519685
20
0.7336122440944882
11
1.0484868503937008
21
0.7367941338582678
0
LINE
8
BLACK
6
CONTINUOUS
10
1.0484868503937008
20
0.7367941338582678
11
1.0525366141732284
21
0.7408438976377952
0
LINE
8
BLACK
6
CONTINUOUS
10
1.0525366141732284
20
0.7408438976377952
11
1.0557185039370078
21
0.7456059055118111
0
LINE
8
BLACK
6
CONTINUOUS
10
1.0557185039370078
20
0.7456059055118111
11
1.0579102362204724
21
0.7508972047244095
0
LINE
8
BLACK
6
CONTINUOUS
10
1.0579102362204724
20
0.7508972047244095
11
1.0590275590551181
21
0.7565143700787401
0
LINE
8
BLACK
6
CONTINUOUS
10
1.0590275590551181
20
0.7565143700787401
11
1.0590275590551181
21
0.7622416141732283
0
LINE
8
BLACK
6
CONTINUOUS
10
1.0590275590551181
20
0.7622416141732283
11
1.0579102362204724
21
0.767858779527559
0
LINE
8
BLACK
6
CONTINUOUS
10
1.0579102362204724
20
0.767858779527559
11
1.0557185039370078
21
0.7731500787401575
0
LINE
8
BLACK
6
CONTINUOUS
10
1.0557185039370078
20
0.7731500787401575
11
1.0525366141732284
21
0.7779120866141732
0
LINE
8
BLACK
6
CONTINUOUS
10
1.0525366141732284
20
0.7779120866141732
11
1.0525364173228346
21
0.7779123228346456
0
LINE
8
BLACK
6
CONTINUOUS
10
1.0525364173228346
20
0.7779123228346456
11
1.0484870472440944
21
0.7819616929133858
0
LINE
8
BLACK
6
CONTINUOUS
10
1.0484870472440944
20
0.7819616929133858
11
1.0484868110236221
21
0.7819618897637796
0
LINE
8
BLACK
6
CONTINUOUS
10
1.0484868110236221
20
0.7819618897637796
11
1.0469066929133859
21
0.7830177165354331
0
LINE
8
BLACK
6
CONTINUOUS
10
1.0469066929133859
20
0.7830177165354331
11
1.043724842519685
21
0.7851437401574803
0
LINE
8
BLACK
6
CONTINUOUS
10
1.043724842519685
20
0.7851437401574803
11
1.0384335433070866
21
0.7873354724409448
0
LINE
8
BLACK
6
CONTINUOUS
10
1.0384335433070866
20
0.7873354724409448
11
1.0328164566929134
21
0.7884527952755905
0
LINE
8
BLACK
6
CONTINUOUS
10
1.0328164566929134
20
0.7884527952755905
11
1.0328163779527559
21
0.7884527952755905
0
LINE
8
BLACK
6
CONTINUOUS
10
1.0328163779527559
20
0.7884527952755905
11
1.0270891338582677
21
0.7884527952755905
0
LINE
8
BLACK
6
CONTINUOUS
10
1.0270891338582677
20
0.7884527952755905
11
1.0270890157480315
21
0.7884527952755905
0
LINE
8
BLACK
6
CONTINUOUS
10
1.0270890157480315
20
0.7884527952755905
11
1.0214719291338583
21
0.7873354724409448
0
LINE
8
BLACK
6
CONTINUOUS
10
1.4446515748031497
20
0.7707209448818897
11
1.4353891338582676
21
0.7682390944881889
0
LINE
8
BLACK
6
CONTINUOUS
10
1.4353891338582676
20
0.7682390944881889
11
1.4265300000000001
21
0.7645695275590551
0
LINE
8
BLACK
6
CONTINUOUS
10
1.4265300000000001
20
0.7645695275590551
11
1.4265295669291338
21
0.7645692913385826
0
LINE
8
BLACK
6
CONTINUOUS
10
1.4265295669291338
20
0.7645692913385826
11
1.4182259055118109
21
0.7597751968503936
0
LINE
8
BLACK
6
CONTINUOUS
10
1.4182259055118109
20
0.7597751968503936
11
1.4147837795275591
21
0.7571339763779528
0
LINE
8
BLACK
6
CONTINUOUS
10
1.4147837795275591
20
0.7571339763779528
11
1.4292101181102361
21
0.7427076377952756
0
LINE
8
BLACK
6
CONTINUOUS
10
1.4292101181102361
20
0.7427076377952756
11
1.4311821653543306
21
0.7441403543307087
0
LINE
8
BLACK
6
CONTINUOUS
10
1.4311821653543306
20
0.7441403543307087
11
1.4386132677165353
21
0.7479266929133858
0
LINE
8
BLACK
6
CONTINUOUS
10
1.4386132677165353
20
0.7479266929133858
11
1.4465452362204725
21
0.750503937007874
0
LINE
8
BLACK
6
CONTINUOUS
10
1.4465452362204725
20
0.750503937007874
11
1.4547826771653543
21
0.7518086220472441
0
LINE
8
BLACK
6
CONTINUOUS
10
1.4547826771653543
20
0.7518086220472441
11
1.4631228346456693
21
0.7518086220472441
0
LINE
8
BLACK
6
CONTINUOUS
10
1.4631228346456693
20
0.7518086220472441
11
1.471360275590551
21
0.750503937007874
0
LINE
8
BLACK
6
CONTINUOUS
10
1.471360275590551
20
0.750503937007874
11
1.4792922440944882
21
0.7479266929133858
0
LINE
8
BLACK
6
CONTINUOUS
10
1.4792922440944882
20
0.7479266929133858
11
1.4867233464566929
21
0.7441403543307087
0
LINE
8
BLACK
6
CONTINUOUS
10
1.4867233464566929
20
0.7441403543307087
11
1.4886953149606299
21
0.7427076377952756
0
LINE
8
BLACK
6
CONTINUOUS
10
1.4886953149606299
20
0.7427076377952756
11
1.503121653543307
21
0.757133937007874
0
LINE
8
BLACK
6
CONTINUOUS
10
1.503121653543307
20
0.757133937007874
11
1.5031216141732282
21
0.7571340157480315
0
LINE
8
BLACK
6
CONTINUOUS
10
1.5031216141732282
20
0.7571340157480315
11
1.4996798031496064
21
0.7597750393700787
0
LINE
8
BLACK
6
CONTINUOUS
10
1.4996798031496064
20
0.7597750393700787
11
1.4996795669291338
21
0.7597751968503936
0
LINE
8
BLACK
6
CONTINUOUS
10
1.4996795669291338
20
0.7597751968503936
11
1.491375905511811
21
0.7645692913385826
0
LINE
8
BLACK
6
CONTINUOUS
10
1.491375905511811
20
0.7645692913385826
11
1.4913754724409449
21
0.7645695275590551
0
LINE
8
BLACK
6
CONTINUOUS
10
1.4913754724409449
20
0.7645695275590551
11
1.4825163385826772
21
0.7682390944881889
0
LINE
8
BLACK
6
CONTINUOUS
10
1.4825163385826772
20
0.7682390944881889
11
1.4732538976377954
21
0.7707209448818897
0
LINE
8
BLACK
6
CONTINUOUS
10
1.4732538976377954
20
0.7707209448818897
11
1.4637473228346456
21
0.7719724803149606
0
LINE
8
BLACK
6
CONTINUOUS
10
1.4637473228346456
20
0.7719724803149606
11
1.4541581496062992
21
0.7719724803149606
0
LINE
8
BLACK
6
CONTINUOUS
10
1.4541581496062992
20
0.7719724803149606
11
1.4446515748031497
21
0.7707209448818897
0
LINE
8
BLACK
6
CONTINUOUS
10
1.6446515748031496
20
0.7707209448818897
11
1.6353891338582678
21
0.7682390944881889
0
LINE
8
BLACK
6
CONTINUOUS
10
1.6353891338582678
20
0.7682390944881889
11
1.62653
21
0.7645695275590551
0
LINE
8
BLACK
6
CONTINUOUS
10
1.62653
20
0.7645695275590551
11
1.6265295669291338
21
0.7645692913385826
0
LINE
8
BLACK
6
CONTINUOUS
10
1.6265295669291338
20
0.7645692913385826
11
1.6182259055118109
21
0.7597751968503936
0
LINE
8
BLACK
6
CONTINUOUS
10
1.6182259055118109
20
0.7597751968503936
11
1.614783779527559
21
0.7571339763779528
0
LINE
8
BLACK
6
CONTINUOUS
10
1.614783779527559
20
0.7571339763779528
11
1.6292101181102361
21
0.7427076377952756
0
LINE
8
BLACK
6
CONTINUOUS
10
1.6292101181102361
20
0.7427076377952756
11
1.6311821653543306
21
0.7441403543307087
0
LINE
8
BLACK
6
CONTINUOUS
10
1.6311821653543306
20
0.7441403543307087
11
1.6386132677165355
21
0.7479266929133858
0
LINE
8
BLACK
6
CONTINUOUS
10
1.6386132677165355
20
0.7479266929133858
11
1.6465452362204724
21
0.750503937007874
0
LINE
8
BLACK
6
CONTINUOUS
10
1.6465452362204724
20
0.750503937007874
11
1.6547826771653542
21
0.7518086220472441
0
LINE
8
BLACK
6
CONTINUOUS
10
1.6547826771653542
20
0.7518086220472441
11
1.6631228346456692
21
0.7518086220472441
0
LINE
8
BLACK
6
CONTINUOUS
10
1.6631228346456692
20
0.7518086220472441
11
1.6713602755905512
21
0.750503937007874
0
LINE
8
BLACK
6
CONTINUOUS
10
1.6713602755905512
20
0.750503937007874
11
1.6792922440944882
21
0.7479266929133858
0
LINE
8
BLACK
6
CONTINUOUS
10
1.6792922440944882
20
0.7479266929133858
11
1.6867233464566929
21
0.7441403543307087
0
LINE
8
BLACK
6
CONTINUOUS
10
1.6867233464566929
20
0.7441403543307087
11
1.6886953149606299
21
0.7427076377952756
0
LINE
8
BLACK
6
CONTINUOUS
10
1.6886953149606299
20
0.7427076377952756
11
1.7031216535433071
21
0.757133937007874
0
LINE
8
BLACK
6
CONTINUOUS
10
1.7031216535433071
20
0.757133937007874
11
1.7031216141732284
21
0.7571340157480315
0
LINE
8
BLACK
6
CONTINUOUS
10
1.7031216141732284
20
0.7571340157480315
11
1.6996798031496063
21
0.7597750393700787
0
LINE
8
BLACK
6
CONTINUOUS
10
1.6996798031496063
20
0.7597750393700787
11
1.6996795669291338
21
0.7597751968503936
0
LINE
8
BLACK
6
CONTINUOUS
10
1.6996795669291338
20
0.7597751968503936
11
1.6913759055118109
21
0.7645692913385826
0
LINE
8
BLACK
6
CONTINUOUS
10
1.6913759055118109
20
0.7645692913385826
11
1.6913754724409449
21
0.7645695275590551
0
LINE
8
BLACK
6
CONTINUOUS
10
1.6913754724409449
20
0.7645695275590551
11
1.6825163385826771
21
0.7682390944881889
0
LINE
8
BLACK
6
CONTINUOUS
10
1.6825163385826771
20
0.7682390944881889
11
1.6732538976377953
21
0.7707209448818897
0
LINE
8
BLACK
6
CONTINUOUS
10
1.6732538976377953
20
0.7707209448818897
11
1.6637473228346455
21
0.7719724803149606
0
LINE
8
BLACK
6
CONTINUOUS
10
1.6637473228346455
20
0.7719724803149606
11
1.6541581496062991
21
0.7719724803149606
0
LINE
8
BLACK
6
CONTINUOUS
10
1.6541581496062991
20
0.7719724803149606
11
1.6446515748031496
21
0.7707209448818897
0
LINE
8
BLACK
6
CONTINUOUS
10
0.5948779527559055
20
0.7985142913385826
11
0.5959087795275591
21
0.7933320866141732
0
LINE
8
BLACK
6
CONTINUOUS
10
0.5959087795275591
20
0.7933320866141732
11
0.5959952755905512
21
0.7928972047244094
0
LINE
8
BLACK
6
CONTINUOUS
10
0.5959952755905512
20
0.7928972047244094
11
0.5981870078740157
21
0.787605905511811
0
LINE
8
BLACK
6
CONTINUOUS
10
0.5981870078740157
20
0.787605905511811
11
0.600313031496063
21
0.7844240551181102
0
LINE
8
BLACK
6
CONTINUOUS
10
0.600313031496063
20
0.7844240551181102
11
0.6013688582677166
21
0.782843937007874
0
LINE
8
BLACK
6
CONTINUOUS
10
0.6013688582677166
20
0.782843937007874
11
0.6013690551181102
21
0.7828437007874015
0
LINE
8
BLACK
6
CONTINUOUS
10
0.6013690551181102
20
0.7828437007874015
11
0.6054184251968504
21
0.7787943307086614
0
LINE
8
BLACK
6
CONTINUOUS
10
0.6054184251968504
20
0.7787943307086614
11
0.6054186614173228
21
0.7787941338582677
0
LINE
8
BLACK
6
CONTINUOUS
10
0.6054186614173228
20
0.7787941338582677
11
0.6101806692913385
21
0.7756122440944881
0
LINE
8
BLACK
6
CONTINUOUS
10
0.6101806692913385
20
0.7756122440944881
11
0.615471968503937
21
0.7734205118110236
0
LINE
8
BLACK
6
CONTINUOUS
10
0.615471968503937
20
0.7734205118110236
11
0.6210891338582677
21
0.772303188976378
0
LINE
8
BLACK
6
CONTINUOUS
10
0.6210891338582677
20
0.772303188976378
11
0.6210891732283464
21
0.772303188976378
0
LINE
8
BLACK
6
CONTINUOUS
10
0.6210891732283464
20
0.772303188976378
11
0.6268163385826772
21
0.772303188976378
0
LINE
8
BLACK
6
CONTINUOUS
10
0.6268163385826772
20
0.772303188976378
11
0.6268163779527559
21
0.772303188976378
0
LINE
8
BLACK
6
CONTINUOUS
10
0.6268163779527559
20
0.772303188976378
11
0.6324335433070866
21
0.7734205118110236
0
LINE
8
BLACK
6
CONTINUOUS
10
0.6324335433070866
20
0.7734205118110236
11
0.637724842519685
21
0.7756122440944881
0
LINE
8
BLACK
6
CONTINUOUS
10
0.637724842519685
20
0.7756122440944881
11
0.6424868503937008
21
0.7787941338582677
0
LINE
8
BLACK
6
CONTINUOUS
10
0.6424868503937008
20
0.7787941338582677
11
0.6431318503937008
21
0.7794391732283464
0
LINE
8
BLACK
6
CONTINUOUS
10
0.6431318503937008
20
0.7794391732283464
11
0.6455850393700787
21
0.780778779527559
0
LINE
8
BLACK
6
CONTINUOUS
10
0.6455850393700787
20
0.780778779527559
11
0.6476073228346456
21
0.7807968503937007
0
LINE
8
BLACK
6
CONTINUOUS
10
0.6476073228346456
20
0.7807968503937007
11
0.6500891338582677
21
0.780303188976378
0
LINE
8
BLACK
6
CONTINUOUS
10
0.6500891338582677
20
0.780303188976378
11
0.6500891732283465
21
0.780303188976378
0
LINE
8
BLACK
6
CONTINUOUS
10
0.6500891732283465
20
0.780303188976378
11
0.6558163385826772
21
0.780303188976378
0
LINE
8
BLACK
6
CONTINUOUS
10
0.6558163385826772
20
0.780303188976378
11
0.6558163779527559
21
0.780303188976378
0
LINE
8
BLACK
6
CONTINUOUS
10
0.6558163779527559
20
0.780303188976378
11
0.6614335433070866
21
0.7814205118110236
0
LINE
8
BLACK
6
CONTINUOUS
10
0.6614335433070866
20
0.7814205118110236
11
0.666724842519685
21
0.7836122440944882
0
LINE
8
BLACK
6
CONTINUOUS
10
0.666724842519685
20
0.7836122440944882
11
0.6714868503937008
21
0.7867941338582677
0
LINE
8
BLACK
6
CONTINUOUS
10
0.6714868503937008
20
0.7867941338582677
11
0.6755366141732283
21
0.7908438976377953
0
LINE
8
BLACK
6
CONTINUOUS
10
0.6755366141732283
20
0.7908438976377953
11
0.6787185039370078
21
0.795605905511811
0
LINE
8
BLACK
6
CONTINUOUS
10
0.6787185039370078
20
0.795605905511811
11
0.6809102362204724
21
0.8008972047244094
0
LINE
8
BLACK
6
CONTINUOUS
10
0.6809102362204724
20
0.8008972047244094
11
0.6820275590551181
21
0.8065143700787402
0
LINE
8
BLACK
6
CONTINUOUS
10
0.6820275590551181
20
0.8065143700787402
11
0.6820275590551181
21
0.8122416141732284
0
LINE
8
BLACK
6
CONTINUOUS
10
0.6820275590551181
20
0.8122416141732284
11
0.6815325984251969
21
0.8147298818897638
0
LINE
8
BLACK
6
CONTINUOUS
10
0.6815325984251969
20
0.8147298818897638
11
0.6809102362204724
21
0.817858779527559
0
LINE
8
BLACK
6
CONTINUOUS
10
0.6809102362204724
20
0.817858779527559
11
0.6787185039370078
21
0.8231500787401574
0
LINE
8
BLACK
6
CONTINUOUS
10
0.6787185039370078
20
0.8231500787401574
11
0.6766240157480314
21
0.8262846456692913
0
LINE
8
BLACK
6
CONTINUOUS
10
0.6766240157480314
20
0.8262846456692913
11
0.6757888188976378
21
0.8289520472440944
0
LINE
8
BLACK
6
CONTINUOUS
10
0.6757888188976378
20
0.8289520472440944
11
0.6765283070866142
21
0.8316475590551181
0
LINE
8
BLACK
6
CONTINUOUS
10
0.6765283070866142
20
0.8316475590551181
11
0.6772408267716535
21
0.8325481496062992
0
LINE
8
BLACK
6
CONTINUOUS
10
0.6772408267716535
20
0.8325481496062992
11
0.6795366141732283
21
0.8348438976377952
0
LINE
8
BLACK
6
CONTINUOUS
10
0.6795366141732283
20
0.8348438976377952
11
0.6827185039370078
21
0.839605905511811
0
LINE
8
BLACK
6
CONTINUOUS
10
0.6827185039370078
20
0.839605905511811
11
0.6849102362204724
21
0.8448972047244094
0
LINE
8
BLACK
6
CONTINUOUS
10
0.6849102362204724
20
0.8448972047244094
11
0.6860275590551181
21
0.8505143700787401
0
LINE
8
BLACK
6
CONTINUOUS
10
0.6860275590551181
20
0.8505143700787401
11
0.6860275590551181
21
0.8562416141732283
0
LINE
8
BLACK
6
CONTINUOUS
10
0.6860275590551181
20
0.8562416141732283
11
0.6849102362204724
21
0.8618587795275591
0
LINE
8
BLACK
6
CONTINUOUS
10
0.6849102362204724
20
0.8618587795275591
11
0.6827185039370078
21
0.8671500787401575
0
LINE
8
BLACK
6
CONTINUOUS
10
0.6827185039370078
20
0.8671500787401575
11
0.6819891732283464
21
0.8682415748031496
0
LINE
8
BLACK
6
CONTINUOUS
10
0.6819891732283464
20
0.8682415748031496
11
0.6819890551181103
21
0.8682417322834646
0
LINE
8
BLACK
6
CONTINUOUS
10
0.6819890551181103
20
0.8682417322834646
11
0.6795366141732283
21
0.8719120866141732
0
LINE
8
BLACK
6
CONTINUOUS
10
0.6795366141732283
20
0.8719120866141732
11
0.6795364173228347
21
0.8719123228346457
0
LINE
8
BLACK
6
CONTINUOUS
10
0.6795364173228347
20
0.8719123228346457
11
0.6754870472440945
21
0.8759616929133858
0
LINE
8
BLACK
6
CONTINUOUS
10
0.6754870472440945
20
0.8759616929133858
11
0.6754868110236221
21
0.8759618897637795
0
LINE
8
BLACK
6
CONTINUOUS
10
0.6754868110236221
20
0.8759618897637795
11
0.6722556692913386
21
0.8781208661417322
0
LINE
8
BLACK
6
CONTINUOUS
10
0.6722556692913386
20
0.8781208661417322
11
0.670724842519685
21
0.8791437401574803
0
LINE
8
BLACK
6
CONTINUOUS
10
0.670724842519685
20
0.8791437401574803
11
0.6654335433070866
21
0.8813354724409449
0
LINE
8
BLACK
6
CONTINUOUS
10
0.6654335433070866
20
0.8813354724409449
11
0.6598164566929133
21
0.8824527952755905
0
LINE
8
BLACK
6
CONTINUOUS
10
0.6598164566929133
20
0.8824527952755905
11
0.6598163779527559
21
0.8824527952755905
0
LINE
8
BLACK
6
CONTINUOUS
10
0.6598163779527559
20
0.8824527952755905
11
0.6540891338582677
21
0.8824527952755905
0
LINE
8
BLACK
6
CONTINUOUS
10
0.6540891338582677
20
0.8824527952755905
11
0.6540890157480315
21
0.8824527952755905
0
LINE
8
BLACK
6
CONTINUOUS
10
0.6540890157480315
20
0.8824527952755905
11
0.6484719291338582
21
0.8813354724409449
0
LINE
8
BLACK
6
CONTINUOUS
10
0.6484719291338582
20
0.8813354724409449
11
0.6484717322834646
21
0.8813353937007874
0
LINE
8
BLACK
6
CONTINUOUS
10
0.6484717322834646
20
0.8813353937007874
11
0.6431806692913385
21
0.8791437401574803
0
LINE
8
BLACK
6
CONTINUOUS
10
0.6431806692913385
20
0.8791437401574803
11
0.6384186614173228
21
0.8759618897637795
0
LINE
8
BLACK
6
CONTINUOUS
10
0.6384186614173228
20
0.8759618897637795
11
0.6384184251968503
21
0.8759616929133858
0
LINE
8
BLACK
6
CONTINUOUS
10
0.6384184251968503
20
0.8759616929133858
11
0.6343690551181103
21
0.8719123228346457
0
LINE
8
BLACK
6
CONTINUOUS
10
0.6343690551181103
20
0.8719123228346457
11
0.6343688582677165
21
0.8719120866141732
0
LINE
8
BLACK
6
CONTINUOUS
10
0.6343688582677165
20
0.8719120866141732
11
0.6311870078740157
21
0.8671500787401575
0
LINE
8
BLACK
6
CONTINUOUS
10
0.6311870078740157
20
0.8671500787401575
11
0.6289953543307086
21
0.8618590157480315
0
LINE
8
BLACK
6
CONTINUOUS
10
0.6289953543307086
20
0.8618590157480315
11
0.6289952755905511
21
0.8618588188976378
0
LINE
8
BLACK
6
CONTINUOUS
10
0.6289952755905511
20
0.8618588188976378
11
0.6278779527559055
21
0.8562417322834646
0
LINE
8
BLACK
6
CONTINUOUS
10
0.6278779527559055
20
0.8562417322834646
11
0.6278779527559055
21
0.8505142913385827
0
LINE
8
BLACK
6
CONTINUOUS
10
0.6278779527559055
20
0.8505142913385827
11
0.6289952755905511
21
0.8448972047244094
0
LINE
8
BLACK
6
CONTINUOUS
10
0.6289952755905511
20
0.8448972047244094
11
0.6289953543307086
21
0.8448970078740158
0
LINE
8
BLACK
6
CONTINUOUS
10
0.6289953543307086
20
0.8448970078740158
11
0.6311870078740157
21
0.839605905511811
0
LINE
8
BLACK
6
CONTINUOUS
10
0.6311870078740157
20
0.839605905511811
11
0.6311870866141732
21
0.839605748031496
0
LINE
8
BLACK
6
CONTINUOUS
10
0.6311870866141732
20
0.839605748031496
11
0.6322567716535433
21
0.838004842519685
0
LINE
8
BLACK
6
CONTINUOUS
10
0.6322567716535433
20
0.838004842519685
11
0.6330920078740158
21
0.8353374015748032
0
LINE
8
BLACK
6
CONTINUOUS
10
0.6330920078740158
20
0.8353374015748032
11
0.6323525196850394
21
0.8326418897637795
0
LINE
8
BLACK
6
CONTINUOUS
10
0.6323525196850394
20
0.8326418897637795
11
0.6302730708661417
21
0.8307740551181102
0
LINE
8
BLACK
6
CONTINUOUS
10
0.6302730708661417
20
0.8307740551181102
11
0.6275139370078741
21
0.8303269291338582
0
LINE
8
BLACK
6
CONTINUOUS
10
0.6275139370078741
20
0.8303269291338582
11
0.6271643700787402
21
0.8303835826771654
0
LINE
8
BLACK
6
CONTINUOUS
10
0.6271643700787402
20
0.8303835826771654
11
0.6268164960629921
21
0.8304527952755906
0
LINE
8
BLACK
6
CONTINUOUS
10
0.6268164960629921
20
0.8304527952755906
11
0.6268163779527559
21
0.8304527952755906
0
LINE
8
BLACK
6
CONTINUOUS
10
0.6268163779527559
20
0.8304527952755906
11
0.6210891338582677
21
0.8304527952755906
0
LINE
8
BLACK
6
CONTINUOUS
10
0.6210891338582677
20
0.8304527952755906
11
0.6210890157480314
21
0.8304527952755906
0
LINE
8
BLACK
6
CONTINUOUS
10
0.6210890157480314
20
0.8304527952755906
11
0.6154719291338583
21
0.8293354724409449
0
LINE
8
BLACK
6
CONTINUOUS
10
0.6154719291338583
20
0.8293354724409449
11
0.6154717322834645
21
0.8293353937007873
0
LINE
8
BLACK
6
CONTINUOUS
10
0.6154717322834645
20
0.8293353937007873
11
0.6101806692913385
21
0.8271437401574803
0
LINE
8
BLACK
6
CONTINUOUS
10
0.6101806692913385
20
0.8271437401574803
11
0.6054186614173228
21
0.8239618897637795
0
LINE
8
BLACK
6
CONTINUOUS
10
0.6054186614173228
20
0.8239618897637795
11
0.6054184251968504
21
0.8239616929133858
0
LINE
8
BLACK
6
CONTINUOUS
10
0.6054184251968504
20
0.8239616929133858
11
0.6013690551181102
21
0.8199123228346457
0
LINE
8
BLACK
6
CONTINUOUS
10
0.6013690551181102
20
0.8199123228346457
11
0.6013688582677166
21
0.8199120866141733
0
LINE
8
BLACK
6
CONTINUOUS
10
0.6013688582677166
20
0.8199120866141733
11
0.5981870078740157
21
0.8151500787401574
0
LINE
8
BLACK
6
CONTINUOUS
10
0.5981870078740157
20
0.8151500787401574
11
0.5959953543307086
21
0.8098590157480314
0
LINE
8
BLACK
6
CONTINUOUS
10
0.5959953543307086
20
0.8098590157480314
11
0.5959952755905512
21
0.8098588188976378
0
LINE
8
BLACK
6
CONTINUOUS
10
0.5959952755905512
20
0.8098588188976378
11
0.5948779527559055
21
0.8042417322834645
0
LINE
8
BLACK
6
CONTINUOUS
10
0.5948779527559055
20
0.8042417322834645
11
0.5948779527559055
21
0.7985142913385826
0
LINE
8
BLACK
6
CONTINUOUS
10
0.7183898031496063
20
0.8090024409448818
11
0.7188847244094488
21
0.8065143700787402
0
LINE
8
BLACK
6
CONTINUOUS
10
0.7188847244094488
20
0.8065143700787402
11
0.7195071259842519
21
0.8033853543307087
0
LINE
8
BLACK
6
CONTINUOUS
10
0.7195071259842519
20
0.8033853543307087
11
0.7216988582677165
21
0.7980940551181103
0
LINE
8
BLACK
6
CONTINUOUS
10
0.7216988582677165
20
0.7980940551181103
11
0.7238248818897638
21
0.7949122047244094
0
LINE
8
BLACK
6
CONTINUOUS
10
0.7238248818897638
20
0.7949122047244094
11
0.7248807086614173
21
0.7933320866141732
0
LINE
8
BLACK
6
CONTINUOUS
10
0.7248807086614173
20
0.7933320866141732
11
0.7248809055118111
21
0.7933318503937008
0
LINE
8
BLACK
6
CONTINUOUS
10
0.7248809055118111
20
0.7933318503937008
11
0.7289302755905511
21
0.7892824803149606
0
LINE
8
BLACK
6
CONTINUOUS
10
0.7289302755905511
20
0.7892824803149606
11
0.7289305118110236
21
0.7892822834645669
0
LINE
8
BLACK
6
CONTINUOUS
10
0.7289305118110236
20
0.7892822834645669
11
0.7336925196850393
21
0.7861003937007874
0
LINE
8
BLACK
6
CONTINUOUS
10
0.7336925196850393
20
0.7861003937007874
11
0.7389838188976378
21
0.7839086614173228
0
LINE
8
BLACK
6
CONTINUOUS
10
0.7389838188976378
20
0.7839086614173228
11
0.7446009842519685
21
0.7827913385826771
0
LINE
8
BLACK
6
CONTINUOUS
10
0.7446009842519685
20
0.7827913385826771
11
0.7446010236220473
21
0.7827913385826771
0
LINE
8
BLACK
6
CONTINUOUS
10
0.7446010236220473
20
0.7827913385826771
11
0.750328188976378
21
0.7827913385826771
0
LINE
8
BLACK
6
CONTINUOUS
10
0.750328188976378
20
0.7827913385826771
11
0.7503282283464566
21
0.7827913385826771
0
LINE
8
BLACK
6
CONTINUOUS
10
0.7503282283464566
20
0.7827913385826771
11
0.7559453937007874
21
0.7839086614173228
0
LINE
8
BLACK
6
CONTINUOUS
10
0.7559453937007874
20
0.7839086614173228
11
0.7612366929133858
21
0.7861003937007874
0
LINE
8
BLACK
6
CONTINUOUS
10
0.7612366929133858
20
0.7861003937007874
11
0.7659987007874015
21
0.7892822834645669
0
LINE
8
BLACK
6
CONTINUOUS
10
0.7659987007874015
20
0.7892822834645669
11
0.7700484645669291
21
0.7933320472440945
0
LINE
8
BLACK
6
CONTINUOUS
10
0.7700484645669291
20
0.7933320472440945
11
0.7732303543307086
21
0.7980940551181103
0
LINE
8
BLACK
6
CONTINUOUS
10
0.7732303543307086
20
0.7980940551181103
11
0.7754220866141732
21
0.8033853543307087
0
LINE
8
BLACK
6
CONTINUOUS
10
0.7754220866141732
20
0.8033853543307087
11
0.7765394094488188
21
0.8090025196850393
0
LINE
8
BLACK
6
CONTINUOUS
10
0.7765394094488188
20
0.8090025196850393
11
0.7765394094488188
21
0.8147297637795275
0
LINE
8
BLACK
6
CONTINUOUS
10
0.7765394094488188
20
0.8147297637795275
11
0.7754220866141732
21
0.8203469291338582
0
LINE
8
BLACK
6
CONTINUOUS
10
0.7754220866141732
20
0.8203469291338582
11
0.7732303543307086
21
0.8256382283464567
0
LINE
8
BLACK
6
CONTINUOUS
10
0.7732303543307086
20
0.8256382283464567
11
0.7700484645669291
21
0.8304002362204724
0
LINE
8
BLACK
6
CONTINUOUS
10
0.7700484645669291
20
0.8304002362204724
11
0.7700482677165355
21
0.8304004724409448
0
LINE
8
BLACK
6
CONTINUOUS
10
0.7700482677165355
20
0.8304004724409448
11
0.7659988976377953
21
0.834449842519685
0
LINE
8
BLACK
6
CONTINUOUS
10
0.7659988976377953
20
0.834449842519685
11
0.7659986614173229
21
0.8344500393700787
0
LINE
8
BLACK
6
CONTINUOUS
10
0.7659986614173229
20
0.8344500393700787
11
0.7644185433070866
21
0.8355058661417323
0
LINE
8
BLACK
6
CONTINUOUS
10
0.7644185433070866
20
0.8355058661417323
11
0.7612366929133858
21
0.8376318897637796
0
LINE
8
BLACK
6
CONTINUOUS
10
0.7612366929133858
20
0.8376318897637796
11
0.7564557086614173
21
0.8396122440944882
0
LINE
8
BLACK
6
CONTINUOUS
10
0.7564557086614173
20
0.8396122440944882
11
0.755945590551181
21
0.8398235433070866
0
LINE
8
BLACK
6
CONTINUOUS
10
0.755945590551181
20
0.8398235433070866
11
0.7559453937007874
21
0.839823622047244
0
LINE
8
BLACK
6
CONTINUOUS
10
0.7559453937007874
20
0.839823622047244
11
0.7503283070866141
21
0.8409409448818898
0
LINE
8
BLACK
6
CONTINUOUS
10
0.7503283070866141
20
0.8409409448818898
11
0.7503282283464566
21
0.8409409448818898
0
LINE
8
BLACK
6
CONTINUOUS
10
0.7503282283464566
20
0.8409409448818898
11
0.7446009842519685
21
0.8409409448818898
0
LINE
8
BLACK
6
CONTINUOUS
10
0.7446009842519685
20
0.8409409448818898
11
0.7446008661417323
21
0.8409409448818898
0
LINE
8
BLACK
6
CONTINUOUS
10
0.7446008661417323
20
0.8409409448818898
11
0.738983779527559
21
0.839823622047244
0
LINE
8
BLACK
6
CONTINUOUS
10
0.738983779527559
20
0.839823622047244
11
0.7389835826771654
21
0.8398235433070866
0
LINE
8
BLACK
6
CONTINUOUS
10
0.7389835826771654
20
0.8398235433070866
11
0.7336925196850393
21
0.8376318897637796
0
LINE
8
BLACK
6
CONTINUOUS
10
0.7336925196850393
20
0.8376318897637796
11
0.7289305118110236
21
0.8344500393700787
0
LINE
8
BLACK
6
CONTINUOUS
10
0.7289305118110236
20
0.8344500393700787
11
0.7289302755905511
21
0.834449842519685
0
LINE
8
BLACK
6
CONTINUOUS
10
0.7289302755905511
20
0.834449842519685
11
0.7248809055118111
21
0.8304004724409448
0
LINE
8
BLACK
6
CONTINUOUS
10
0.7248809055118111
20
0.8304004724409448
11
0.7248807086614173
21
0.8304002362204724
0
LINE
8
BLACK
6
CONTINUOUS
10
0.7248807086614173
20
0.8304002362204724
11
0.7216988582677165
21
0.8256382283464567
0
LINE
8
BLACK
6
CONTINUOUS
10
0.7216988582677165
20
0.8256382283464567
11
0.7195072047244094
21
0.8203471653543307
0
LINE
8
BLACK
6
CONTINUOUS
10
0.7195072047244094
20
0.8203471653543307
11
0.7195071259842519
21
0.820346968503937
0
LINE
8
BLACK
6
CONTINUOUS
10
0.7195071259842519
20
0.820346968503937
11
0.7183898031496063
21
0.8147298818897638
0
LINE
8
BLACK
6
CONTINUOUS
10
0.7183898031496063
20
0.8147298818897638
11
0.7183898031496063
21
0.8090024409448818
0
LINE
8
BLACK
6
CONTINUOUS
10
0.7868779527559054
20
0.8625142913385827
11
0.7875826377952756
21
0.8589716141732283
0
LINE
8
BLACK
6
CONTINUOUS
10
0.7875826377952756
20
0.8589716141732283
11
0.7879952755905512
21
0.8568972047244094
0
LINE
8
BLACK
6
CONTINUOUS
10
0.7879952755905512
20
0.8568972047244094
11
0.7901870078740157
21
0.851605905511811
0
LINE
8
BLACK
6
CONTINUOUS
10
0.7901870078740157
20
0.851605905511811
11
0.7909164173228346
21
0.8505142913385827
0
LINE
8
BLACK
6
CONTINUOUS
10
0.7909164173228346
20
0.8505142913385827
11
0.7933688582677165
21
0.846843937007874
0
LINE
8
BLACK
6
CONTINUOUS
10
0.7933688582677165
20
0.846843937007874
11
0.7933690551181102
21
0.8468437007874016
0
LINE
8
BLACK
6
CONTINUOUS
10
0.7933690551181102
20
0.8468437007874016
11
0.7974184251968504
21
0.8427943307086614
0
LINE
8
BLACK
6
CONTINUOUS
10
0.7974184251968504
20
0.8427943307086614
11
0.7974186614173229
21
0.8427941338582677
0
LINE
8
BLACK
6
CONTINUOUS
10
0.7974186614173229
20
0.8427941338582677
11
0.8021806692913386
21
0.8396122440944882
0
LINE
8
BLACK
6
CONTINUOUS
10
0.8021806692913386
20
0.8396122440944882
11
0.807471968503937
21
0.8374205118110236
0
LINE
8
BLACK
6
CONTINUOUS
10
0.807471968503937
20
0.8374205118110236
11
0.8130891338582676
21
0.8363031889763779
0
LINE
8
BLACK
6
CONTINUOUS
10
0.8130891338582676
20
0.8363031889763779
11
0.8130891732283464
21
0.8363031889763779
0
LINE
8
BLACK
6
CONTINUOUS
10
0.8130891732283464
20
0.8363031889763779
11
0.8188163385826771
21
0.8363031889763779
0
LINE
8
BLACK
6
CONTINUOUS
10
0.8188163385826771
20
0.8363031889763779
11
0.8188163779527559
21
0.8363031889763779
0
LINE
8
BLACK
6
CONTINUOUS
10
0.8188163779527559
20
0.8363031889763779
11
0.8244335433070866
21
0.8374205118110236
0
LINE
8
BLACK
6
CONTINUOUS
10
0.8244335433070866
20
0.8374205118110236
11
0.829724842519685
21
0.8396122440944882
0
LINE
8
BLACK
6
CONTINUOUS
10
0.829724842519685
20
0.8396122440944882
11
0.8344868503937007
21
0.8427941338582677
0
LINE
8
BLACK
6
CONTINUOUS
10
0.8344868503937007
20
0.8427941338582677
11
0.8385366141732283
21
0.8468438976377952
0
LINE
8
BLACK
6
CONTINUOUS
10
0.8385366141732283
20
0.8468438976377952
11
0.8417185039370079
21
0.851605905511811
0
LINE
8
BLACK
6
CONTINUOUS
10
0.8417185039370079
20
0.851605905511811
11
0.8439102362204725
21
0.8568972047244094
0
LINE
8
BLACK
6
CONTINUOUS
10
0.8439102362204725
20
0.8568972047244094
11
0.8450275590551181
21
0.8625143700787401
0
LINE
8
BLACK
6
CONTINUOUS
10
0.8450275590551181
20
0.8625143700787401
11
0.8450275590551181
21
0.8682416141732283
0
LINE
8
BLACK
6
CONTINUOUS
10
0.8450275590551181
20
0.8682416141732283
11
0.8446206692913386
21
0.8702872047244095
0
LINE
8
BLACK
6
CONTINUOUS
10
0.8446206692913386
20
0.8702872047244095
11
0.8439102362204725
21
0.8738587795275591
0
LINE
8
BLACK
6
CONTINUOUS
10
0.8439102362204725
20
0.8738587795275591
11
0.8417185039370079
21
0.8791500787401575
0
LINE
8
BLACK
6
CONTINUOUS
10
0.8417185039370079
20
0.8791500787401575
11
0.8385366141732283
21
0.8839120866141732
0
LINE
8
BLACK
6
CONTINUOUS
10
0.8385366141732283
20
0.8839120866141732
11
0.8385364173228347
21
0.8839123228346456
0
LINE
8
BLACK
6
CONTINUOUS
10
0.8385364173228347
20
0.8839123228346456
11
0.8344870472440945
21
0.8879616929133858
0
LINE
8
BLACK
6
CONTINUOUS
10
0.8344870472440945
20
0.8879616929133858
11
0.834486811023622
21
0.8879618897637795
0
LINE
8
BLACK
6
CONTINUOUS
10
0.834486811023622
20
0.8879618897637795
11
0.8329066929133858
21
0.889017716535433
0
LINE
8
BLACK
6
CONTINUOUS
10
0.8329066929133858
20
0.889017716535433
11
0.829724842519685
21
0.8911437401574803
0
LINE
8
BLACK
6
CONTINUOUS
10
0.829724842519685
20
0.8911437401574803
11
0.8244335433070866
21
0.8933354724409449
0
LINE
8
BLACK
6
CONTINUOUS
10
0.8244335433070866
20
0.8933354724409449
11
0.8188164566929134
21
0.8944527952755905
0
LINE
8
BLACK
6
CONTINUOUS
10
0.8188164566929134
20
0.8944527952755905
11
0.8188163779527559
21
0.8944527952755905
0
LINE
8
BLACK
6
CONTINUOUS
10
0.8188163779527559
20
0.8944527952755905
11
0.8130891338582676
21
0.8944527952755905
0
LINE
8
BLACK
6
CONTINUOUS
10
0.8130891338582676
20
0.8944527952755905
11
0.8130890157480315
21
0.8944527952755905
0
LINE
8
BLACK
6
CONTINUOUS
10
0.8130890157480315
20
0.8944527952755905
11
0.8074719291338582
21
0.8933354724409449
0
LINE
8
BLACK
6
CONTINUOUS
10
0.8074719291338582
20
0.8933354724409449
11
0.8074717322834646
21
0.8933353937007874
0
LINE
8
BLACK
6
CONTINUOUS
10
0.8074717322834646
20
0.8933353937007874
11
0.8021806692913386
21
0.8911437401574803
0
LINE
8
BLACK
6
CONTINUOUS
10
0.8021806692913386
20
0.8911437401574803
11
0.7974186614173229
21
0.8879618897637795
0
LINE
8
BLACK
6
CONTINUOUS
10
0.7974186614173229
20
0.8879618897637795
11
0.7974184251968504
21
0.8879616929133858
0
LINE
8
BLACK
6
CONTINUOUS
10
0.7974184251968504
20
0.8879616929133858
11
0.7933690551181102
21
0.8839123228346456
0
LINE
8
BLACK
6
CONTINUOUS
10
0.7933690551181102
20
0.8839123228346456
11
0.7933688582677165
21
0.8839120866141732
0
LINE
8
BLACK
6
CONTINUOUS
10
0.7933688582677165
20
0.8839120866141732
11
0.7901870078740157
21
0.8791500787401575
0
LINE
8
BLACK
6
CONTINUOUS
10
0.7901870078740157
20
0.8791500787401575
11
0.7879953543307087
21
0.8738590157480315
0
LINE
8
BLACK
6
CONTINUOUS
10
0.7879953543307087
20
0.8738590157480315
11
0.7879952755905512
21
0.8738588188976377
0
LINE
8
BLACK
6
CONTINUOUS
10
0.7879952755905512
20
0.8738588188976377
11
0.7868779527559054
21
0.8682417322834646
0
LINE
8
BLACK
6
CONTINUOUS
10
0.7868779527559054
20
0.8682417322834646
11
0.7868779527559054
21
0.8625142913385827
0
LINE
8
BLACK
6
CONTINUOUS
10
1.3984566929133857
20
0.8702870866141732
11
1.3984566929133857
21
0.8653586614173228
0
LINE
8
BLACK
6
CONTINUOUS
10
1.3984566929133857
20
0.8653586614173228
11
1.3994181889763779
21
0.8605248818897637
0
LINE
8
BLACK
6
CONTINUOUS
10
1.3994181889763779
20
0.8605248818897637
11
1.4013042125984252
21
0.8559716141732283
0
LINE
8
BLACK
6
CONTINUOUS
10
1.4013042125984252
20
0.8559716141732283
11
1.4040423228346457
21
0.8518737401574803
0
LINE
8
BLACK
6
CONTINUOUS
10
1.4040423228346457
20
0.8518737401574803
11
1.4075272440944882
21
0.8483888188976377
0
LINE
8
BLACK
6
CONTINUOUS
10
1.4075272440944882
20
0.8483888188976377
11
1.4116251181102362
21
0.8456507086614173
0
LINE
8
BLACK
6
CONTINUOUS
10
1.4116251181102362
20
0.8456507086614173
11
1.4161783858267716
21
0.8437646850393701
0
LINE
8
BLACK
6
CONTINUOUS
10
1.4161783858267716
20
0.8437646850393701
11
1.4210121653543306
21
0.842803188976378
0
LINE
8
BLACK
6
CONTINUOUS
10
1.4210121653543306
20
0.842803188976378
11
1.4210122047244094
21
0.842803188976378
0
LINE
8
BLACK
6
CONTINUOUS
10
1.4210122047244094
20
0.842803188976378
11
1.4259405511811023
21
0.842803188976378
0
LINE
8
BLACK
6
CONTINUOUS
10
1.4259405511811023
20
0.842803188976378
11
1.4259405905511811
21
0.842803188976378
0
LINE
8
BLACK
6
CONTINUOUS
10
1.4259405905511811
20
0.842803188976378
11
1.4307743700787401
21
0.8437646850393701
0
LINE
8
BLACK
6
CONTINUOUS
10
1.4307743700787401
20
0.8437646850393701
11
1.4353276377952755
21
0.8456507086614173
0
LINE
8
BLACK
6
CONTINUOUS
10
1.4353276377952755
20
0.8456507086614173
11
1.4394255118110235
21
0.8483888188976377
0
LINE
8
BLACK
6
CONTINUOUS
10
1.4394255118110235
20
0.8483888188976377
11
1.4459104330708661
21
0.8548737401574803
0
LINE
8
BLACK
6
CONTINUOUS
10
1.4459104330708661
20
0.8548737401574803
11
1.4486485433070866
21
0.8589716141732283
0
LINE
8
BLACK
6
CONTINUOUS
10
1.4486485433070866
20
0.8589716141732283
11
1.4505345669291339
21
0.8635248818897637
0
LINE
8
BLACK
6
CONTINUOUS
10
1.4505345669291339
20
0.8635248818897637
11
1.4514960629921259
21
0.8683586614173228
0
LINE
8
BLACK
6
CONTINUOUS
10
1.4514960629921259
20
0.8683586614173228
11
1.4514960629921259
21
0.8732870866141732
0
LINE
8
BLACK
6
CONTINUOUS
10
1.4514960629921259
20
0.8732870866141732
11
1.4505345669291339
21
0.8781208661417322
0
LINE
8
BLACK
6
CONTINUOUS
10
1.4505345669291339
20
0.8781208661417322
11
1.4486485433070866
21
0.8826741338582677
0
LINE
8
BLACK
6
CONTINUOUS
10
1.4486485433070866
20
0.8826741338582677
11
1.4459104330708661
21
0.8867720078740158
0
LINE
8
BLACK
6
CONTINUOUS
10
1.4459104330708661
20
0.8867720078740158
11
1.4424255118110236
21
0.8902569291338582
0
LINE
8
BLACK
6
CONTINUOUS
10
1.4424255118110236
20
0.8902569291338582
11
1.4383276377952756
21
0.8929950393700787
0
LINE
8
BLACK
6
CONTINUOUS
10
1.4383276377952756
20
0.8929950393700787
11
1.4337743700787402
21
0.894881062992126
0
LINE
8
BLACK
6
CONTINUOUS
10
1.4337743700787402
20
0.894881062992126
11
1.4289406692913385
21
0.8958425590551181
0
LINE
8
BLACK
6
CONTINUOUS
10
1.4289406692913385
20
0.8958425590551181
11
1.4289405905511812
21
0.8958425590551181
0
LINE
8
BLACK
6
CONTINUOUS
10
1.4289405905511812
20
0.8958425590551181
11
1.4240121653543307
21
0.8958425590551181
0
LINE
8
BLACK
6
CONTINUOUS
10
1.4240121653543307
20
0.8958425590551181
11
1.4240120472440945
21
0.8958425590551181
0
LINE
8
BLACK
6
CONTINUOUS
10
1.4240120472440945
20
0.8958425590551181
11
1.4191783464566929
21
0.894881062992126
0
LINE
8
BLACK
6
CONTINUOUS
10
1.4191783464566929
20
0.894881062992126
11
1.4191781496062992
21
0.8948809842519685
0
LINE
8
BLACK
6
CONTINUOUS
10
1.4191781496062992
20
0.8948809842519685
11
1.4146250787401575
21
0.8929950393700787
0
LINE
8
BLACK
6
CONTINUOUS
10
1.4146250787401575
20
0.8929950393700787
11
1.4105274015748031
21
0.8902570472440945
0
LINE
8
BLACK
6
CONTINUOUS
10
1.4105274015748031
20
0.8902570472440945
11
1.410527125984252
21
0.8902568503937007
0
LINE
8
BLACK
6
CONTINUOUS
10
1.410527125984252
20
0.8902568503937007
11
1.4040424015748032
21
0.8837721259842519
0
LINE
8
BLACK
6
CONTINUOUS
10
1.4040424015748032
20
0.8837721259842519
11
1.4040422047244094
21
0.8837718503937008
0
LINE
8
BLACK
6
CONTINUOUS
10
1.4040422047244094
20
0.8837718503937008
11
1.4013042125984252
21
0.8796741732283464
0
LINE
8
BLACK
6
CONTINUOUS
10
1.4013042125984252
20
0.8796741732283464
11
1.3994182677165354
21
0.8751211023622048
0
LINE
8
BLACK
6
CONTINUOUS
10
1.3994182677165354
20
0.8751211023622048
11
1.3994181889763779
21
0.875120905511811
0
LINE
8
BLACK
6
CONTINUOUS
10
1.3994181889763779
20
0.875120905511811
11
1.3984566929133857
21
0.8702872047244095
0
LINE
8
BLACK
6
CONTINUOUS
10
1.3984566929133857
20
0.8702872047244095
11
1.3984566929133857
21
0.8702870866141732
0
LINE
8
BLACK
6
CONTINUOUS
10
0.7288779527559055
20
0.9542416141732283
11
0.7288779527559055
21
0.9485143700787402
0
LINE
8
BLACK
6
CONTINUOUS
10
0.7288779527559055
20
0.9485143700787402
11
0.7299952755905512
21
0.9428972047244094
0
LINE
8
BLACK
6
CONTINUOUS
10
0.7299952755905512
20
0.9428972047244094
11
0.7321870078740157
21
0.937605905511811
0
LINE
8
BLACK
6
CONTINUOUS
10
0.7321870078740157
20
0.937605905511811
11
0.734313031496063
21
0.9344240551181102
0
LINE
8
BLACK
6
CONTINUOUS
10
0.734313031496063
20
0.9344240551181102
11
0.7353688582677165
21
0.932843937007874
0
LINE
8
BLACK
6
CONTINUOUS
10
0.7353688582677165
20
0.932843937007874
11
0.7353690551181102
21
0.9328437007874015
0
LINE
8
BLACK
6
CONTINUOUS
10
0.7353690551181102
20
0.9328437007874015
11
0.7394184251968504
21
0.9287943307086614
0
LINE
8
BLACK
6
CONTINUOUS
10
0.7394184251968504
20
0.9287943307086614
11
0.7394186614173228
21
0.9287941338582677
0
LINE
8
BLACK
6
CONTINUOUS
10
0.7394186614173228
20
0.9287941338582677
11
0.7441806692913385
21
0.9256122440944882
0
LINE
8
BLACK
6
CONTINUOUS
10
0.7441806692913385
20
0.9256122440944882
11
0.7494719685039369
21
0.9234205118110236
0
LINE
8
BLACK
6
CONTINUOUS
10
0.7494719685039369
20
0.9234205118110236
11
0.7550891338582677
21
0.922303188976378
0
LINE
8
BLACK
6
CONTINUOUS
10
0.7550891338582677
20
0.922303188976378
11
0.7550891732283465
21
0.922303188976378
0
LINE
8
BLACK
6
CONTINUOUS
10
0.7550891732283465
20
0.922303188976378
11
0.7608163385826772
21
0.922303188976378
0
LINE
8
BLACK
6
CONTINUOUS
10
0.7608163385826772
20
0.922303188976378
11
0.7608163779527559
21
0.922303188976378
0
LINE
8
BLACK
6
CONTINUOUS
10
0.7608163779527559
20
0.922303188976378
11
0.7664335433070866
21
0.9234205118110236
0
LINE
8
BLACK
6
CONTINUOUS
10
0.7664335433070866
20
0.9234205118110236
11
0.7685544094488189
21
0.9242990551181102
0
LINE
8
BLACK
6
CONTINUOUS
10
0.7685544094488189
20
0.9242990551181102
11
0.7713334645669291
21
0.9245978346456692
0
LINE
8
BLACK
6
CONTINUOUS
10
0.7713334645669291
20
0.9245978346456692
11
0.772350905511811
21
0.9242990944881889
0
LINE
8
BLACK
6
CONTINUOUS
10
0.772350905511811
20
0.9242990944881889
11
0.774471968503937
21
0.9234205118110236
0
LINE
8
BLACK
6
CONTINUOUS
10
0.774471968503937
20
0.9234205118110236
11
0.7800891338582677
21
0.922303188976378
0
LINE
8
BLACK
6
CONTINUOUS
10
0.7800891338582677
20
0.922303188976378
11
0.7800891732283465
21
0.922303188976378
0
LINE
8
BLACK
6
CONTINUOUS
10
0.7800891732283465
20
0.922303188976378
11
0.7858163385826772
21
0.922303188976378
0
LINE
8
BLACK
6
CONTINUOUS
10
0.7858163385826772
20
0.922303188976378
11
0.7858163779527559
21
0.922303188976378
0
LINE
8
BLACK
6
CONTINUOUS
10
0.7858163779527559
20
0.922303188976378
11
0.7914335433070866
21
0.9234205118110236
0
LINE
8
BLACK
6
CONTINUOUS
10
0.7914335433070866
20
0.9234205118110236
11
0.796724842519685
21
0.9256122440944882
0
LINE
8
BLACK
6
CONTINUOUS
10
0.796724842519685
20
0.9256122440944882
11
0.8014868503937008
21
0.9287941338582677
0
LINE
8
BLACK
6
CONTINUOUS
10
0.8014868503937008
20
0.9287941338582677
11
0.8055366141732283
21
0.9328438976377953
0
LINE
8
BLACK
6
CONTINUOUS
10
0.8055366141732283
20
0.9328438976377953
11
0.8087185039370078
21
0.937605905511811
0
LINE
8
BLACK
6
CONTINUOUS
10
0.8087185039370078
20
0.937605905511811
11
0.8109102362204724
21
0.9428972047244094
0
LINE
8
BLACK
6
CONTINUOUS
10
0.8109102362204724
20
0.9428972047244094
11
0.8120275590551181
21
0.9485143700787402
0
LINE
8
BLACK
6
CONTINUOUS
10
0.8120275590551181
20
0.9485143700787402
11
0.8120275590551181
21
0.9542416141732283
0
LINE
8
BLACK
6
CONTINUOUS
10
0.8120275590551181
20
0.9542416141732283
11
0.8109102362204724
21
0.959858779527559
0
LINE
8
BLACK
6
CONTINUOUS
10
0.8109102362204724
20
0.959858779527559
11
0.8087185039370078
21
0.9651500787401575
0
LINE
8
BLACK
6
CONTINUOUS
10
0.8087185039370078
20
0.9651500787401575
11
0.8055366141732283
21
0.9699120866141732
0
LINE
8
BLACK
6
CONTINUOUS
10
0.8055366141732283
20
0.9699120866141732
11
0.8055364173228347
21
0.9699123228346457
0
LINE
8
BLACK
6
CONTINUOUS
10
0.8055364173228347
20
0.9699123228346457
11
0.8014870472440945
21
0.9739616929133859
0
LINE
8
BLACK
6
CONTINUOUS
10
0.8014870472440945
20
0.9739616929133859
11
0.8014868110236221
21
0.9739618897637795
0
LINE
8
BLACK
6
CONTINUOUS
10
0.8014868110236221
20
0.9739618897637795
11
0.7999066929133858
21
0.975017716535433
0
LINE
8
BLACK
6
CONTINUOUS
10
0.7999066929133858
20
0.975017716535433
11
0.796724842519685
21
0.9771437401574803
0
LINE
8
BLACK
6
CONTINUOUS
10
0.796724842519685
20
0.9771437401574803
11
0.7914335433070866
21
0.9793354724409449
0
LINE
8
BLACK
6
CONTINUOUS
10
0.7914335433070866
20
0.9793354724409449
11
0.7858164566929133
21
0.9804527952755905
0
LINE
8
BLACK
6
CONTINUOUS
10
0.7858164566929133
20
0.9804527952755905
11
0.7858163779527559
21
0.9804527952755905
0
LINE
8
BLACK
6
CONTINUOUS
10
0.7858163779527559
20
0.9804527952755905
11
0.7800891338582677
21
0.9804527952755905
0
LINE
8
BLACK
6
CONTINUOUS
10
0.7800891338582677
20
0.9804527952755905
11
0.7800890157480315
21
0.9804527952755905
0
LINE
8
BLACK
6
CONTINUOUS
10
0.7800890157480315
20
0.9804527952755905
11
0.7744719291338582
21
0.9793354724409449
0
LINE
8
BLACK
6
CONTINUOUS
10
0.7744719291338582
20
0.9793354724409449
11
0.7744715354330709
21
0.9793353543307086
0
LINE
8
BLACK
6
CONTINUOUS
10
0.7744715354330709
20
0.9793353543307086
11
0.772351062992126
21
0.9784570078740157
0
LINE
8
BLACK
6
CONTINUOUS
10
0.772351062992126
20
0.9784570078740157
11
0.7695719291338583
21
0.9781582283464567
0
LINE
8
BLACK
6
CONTINUOUS
10
0.7695719291338583
20
0.9781582283464567
11
0.7685544488188977
21
0.9784570078740157
0
LINE
8
BLACK
6
CONTINUOUS
10
0.7685544488188977
20
0.9784570078740157
11
0.766433937007874
21
0.9793353543307086
0
LINE
8
BLACK
6
CONTINUOUS
10
0.766433937007874
20
0.9793353543307086
11
0.7664335433070866
21
0.9793354724409449
0
LINE
8
BLACK
6
CONTINUOUS
10
0.7664335433070866
20
0.9793354724409449
11
0.7608164566929134
21
0.9804527952755905
0
LINE
8
BLACK
6
CONTINUOUS
10
0.7608164566929134
20
0.9804527952755905
11
0.7608163779527559
21
0.9804527952755905
0
LINE
8
BLACK
6
CONTINUOUS
10
0.7608163779527559
20
0.9804527952755905
11
0.7550891338582677
21
0.9804527952755905
0
LINE
8
BLACK
6
CONTINUOUS
10
0.7550891338582677
20
0.9804527952755905
11
0.7550890157480314
21
0.9804527952755905
0
LINE
8
BLACK
6
CONTINUOUS
10
0.7550890157480314
20
0.9804527952755905
11
0.7494719291338583
21
0.9793354724409449
0
LINE
8
BLACK
6
CONTINUOUS
10
0.7494719291338583
20
0.9793354724409449
11
0.7494717322834645
21
0.9793353937007874
0
LINE
8
BLACK
6
CONTINUOUS
10
0.7494717322834645
20
0.9793353937007874
11
0.7441806692913385
21
0.9771437401574803
0
LINE
8
BLACK
6
CONTINUOUS
10
0.7441806692913385
20
0.9771437401574803
11
0.7394186614173228
21
0.9739618897637795
0
LINE
8
BLACK
6
CONTINUOUS
10
0.7394186614173228
20
0.9739618897637795
11
0.7394184251968504
21
0.9739616929133859
0
LINE
8
BLACK
6
CONTINUOUS
10
0.7394184251968504
20
0.9739616929133859
11
0.7353690551181102
21
0.9699123228346457
0
LINE
8
BLACK
6
CONTINUOUS
10
0.7353690551181102
20
0.9699123228346457
11
0.7353688582677165
21
0.9699120866141732
0
LINE
8
BLACK
6
CONTINUOUS
10
0.7353688582677165
20
0.9699120866141732
11
0.7321870078740157
21
0.9651500787401575
0
LINE
8
BLACK
6
CONTINUOUS
10
0.7321870078740157
20
0.9651500787401575
11
0.7299953543307086
21
0.9598590157480315
0
LINE
8
BLACK
6
CONTINUOUS
10
0.7299953543307086
20
0.9598590157480315
11
0.7299952755905512
21
0.9598588188976378
0
LINE
8
BLACK
6
CONTINUOUS
10
0.7299952755905512
20
0.9598588188976378
11
0.7288779527559055
21
0.9542417322834645
0
LINE
8
BLACK
6
CONTINUOUS
10
0.7288779527559055
20
0.9542417322834645
11
0.7288779527559055
21
0.9542416141732283
0
LINE
8
BLACK
6
CONTINUOUS
10
0.616
20
1.349
11
0.616
21
1.3270867322834645
0
LINE
8
BLACK
6
CONTINUOUS
10
0.616
20
1.3270867322834645
11
0.6162561023622047
21
1.324705
0
LINE
8
BLACK
6
CONTINUOUS
10
0.6162561023622047
20
1.324705
11
0.6182659448818898
21
1.3193163779527559
0
LINE
8
BLACK
6
CONTINUOUS
10
0.6182659448818898
20
1.3193163779527559
11
0.6182659448818898
21
1.3193163385826772
0
LINE
8
BLACK
6
CONTINUOUS
10
0.6182659448818898
20
1.3193163385826772
11
0.6217124015748031
21
1.3147124409448818
0
LINE
8
BLACK
6
CONTINUOUS
10
0.6217124015748031
20
1.3147124409448818
11
0.6263162992125985
21
1.3112659842519685
0
LINE
8
BLACK
6
CONTINUOUS
10
0.6263162992125985
20
1.3112659842519685
11
0.6317049606299212
21
1.3092561417322834
0
LINE
8
BLACK
6
CONTINUOUS
10
0.6317049606299212
20
1.3092561417322834
11
0.6340866929133858
21
1.3090000393700787
0
LINE
8
BLACK
6
CONTINUOUS
10
0.6340866929133858
20
1.3090000393700787
11
0.6340872047244094
21
1.3089999999999999
0
LINE
8
BLACK
6
CONTINUOUS
10
0.6340872047244094
20
1.3089999999999999
11
0.656
21
1.3089999999999999
0
LINE
8
BLACK
6
CONTINUOUS
10
0.656
20
1.3089999999999999
11
0.656
21
1.329
0
LINE
8
BLACK
6
CONTINUOUS
10
0.656
20
1.329
11
0.636
21
1.329
0
LINE
8
BLACK
6
CONTINUOUS
10
0.636
20
1.329
11
0.636
21
1.349
0
LINE
8
BLACK
6
CONTINUOUS
10
0.636
20
1.349
11
0.616
21
1.349
0
LINE
8
BLACK
6
CONTINUOUS
10
0.896
20
1.329
11
0.876
21
1.329
0
LINE
8
BLACK
6
CONTINUOUS
10
0.876
20
1.329
11
0.876
21
1.3089999999999999
0
LINE
8
BLACK
6
CONTINUOUS
10
0.876
20
1.3089999999999999
11
0.8979127952755905
21
1.3089999999999999
0
LINE
8
BLACK
6
CONTINUOUS
10
0.8979127952755905
20
1.3089999999999999
11
0.8979132677165355
21
1.3090000393700787
0
LINE
8
BLACK
6
CONTINUOUS
10
0.8979132677165355
20
1.3090000393700787
11
0.900295
21
1.3092561417322834
0
LINE
8
BLACK
6
CONTINUOUS
10
0.900295
20
1.3092561417322834
11
0.9056836220472441
21
1.3112659842519685
0
LINE
8
BLACK
6
CONTINUOUS
10
0.9056836220472441
20
1.3112659842519685
11
0.9056836614173228
21
1.3112659842519685
0
LINE
8
BLACK
6
CONTINUOUS
10
0.9056836614173228
20
1.3112659842519685
11
0.910287559055118
21
1.3147124409448818
0
LINE
8
BLACK
6
CONTINUOUS
10
0.910287559055118
20
1.3147124409448818
11
0.9137340157480315
21
1.3193163385826772
0
LINE
8
BLACK
6
CONTINUOUS
10
0.9137340157480315
20
1.3193163385826772
11
0.9137340157480315
21
1.3193163779527559
0
LINE
8
BLACK
6
CONTINUOUS
10
0.9137340157480315
20
1.3193163779527559
11
0.9157438582677165
21
1.324705
0
LINE
8
BLACK
6
CONTINUOUS
10
0.9157438582677165
20
1.324705
11
0.9159999606299213
21
1.3270867322834645
0
LINE
8
BLACK
6
CONTINUOUS
10
0.9159999606299213
20
1.3270867322834645
11
0.9159999999999999
21
1.3270872047244093
0
LINE
8
BLACK
6
CONTINUOUS
10
0.9159999999999999
20
1.3270872047244093
11
0.9159999999999999
21
1.349
0
LINE
8
BLACK
6
CONTINUOUS
10
0.9159999999999999
20
1.349
11
0.896
21
1.349
0
LINE
8
BLACK
6
CONTINUOUS
10
0.896
20
1.349
11
0.896
21
1.329
0
LINE
8
BLACK
6
CONTINUOUS
10
1.3858031496062992
20
0.6940283070866141
11
1.3870546850393701
21
0.6845217322834646
0
LINE
8
BLACK
6
CONTINUOUS
10
1.3870546850393701
20
0.6845217322834646
11
1.3895365354330709
21
0.6752592913385826
0
LINE
8
BLACK
6
CONTINUOUS
10
1.3895365354330709
20
0.6752592913385826
11
1.3932061023622047
21
0.6664001574803149
0
LINE
8
BLACK
6
CONTINUOUS
10
1.3932061023622047
20
0.6664001574803149
11
1.3932063385826772
21
0.6663997244094488
0
LINE
8
BLACK
6
CONTINUOUS
10
1.3932063385826772
20
0.6663997244094488
11
1.3980004330708662
21
0.658096062992126
0
LINE
8
BLACK
6
CONTINUOUS
10
1.3980004330708662
20
0.658096062992126
11
1.398000590551181
21
0.6580958267716536
0
LINE
8
BLACK
6
CONTINUOUS
10
1.398000590551181
20
0.6580958267716536
11
1.4006416141732283
21
0.6546540157480315
0
LINE
8
BLACK
6
CONTINUOUS
10
1.4006416141732283
20
0.6546540157480315
11
1.4006416929133858
21
0.6546539763779528
0
LINE
8
BLACK
6
CONTINUOUS
10
1.4006416929133858
20
0.6546539763779528
11
1.4150679921259841
21
0.6690803149606299
0
LINE
8
BLACK
6
CONTINUOUS
10
1.4150679921259841
20
0.6690803149606299
11
1.4136352755905512
21
0.6710522834645669
0
LINE
8
BLACK
6
CONTINUOUS
10
1.4136352755905512
20
0.6710522834645669
11
1.4098489370078739
21
0.6784833858267716
0
LINE
8
BLACK
6
CONTINUOUS
10
1.4098489370078739
20
0.6784833858267716
11
1.4072716929133857
21
0.6864153543307087
0
LINE
8
BLACK
6
CONTINUOUS
10
1.4072716929133857
20
0.6864153543307087
11
1.4059670078740156
21
0.6946527952755905
0
LINE
8
BLACK
6
CONTINUOUS
10
1.4059670078740156
20
0.6946527952755905
11
1.4059670078740156
21
0.7029929527559055
0
LINE
8
BLACK
6
CONTINUOUS
10
1.4059670078740156
20
0.7029929527559055
11
1.4072716929133857
21
0.7112303937007873
0
LINE
8
BLACK
6
CONTINUOUS
10
1.4072716929133857
20
0.7112303937007873
11
1.4098489370078739
21
0.7191623622047244
0
LINE
8
BLACK
6
CONTINUOUS
10
1.4098489370078739
20
0.7191623622047244
11
1.4136352755905512
21
0.7265934645669291
0
LINE
8
BLACK
6
CONTINUOUS
10
1.4136352755905512
20
0.7265934645669291
11
1.4150679921259841
21
0.7285655118110236
0
LINE
8
BLACK
6
CONTINUOUS
10
1.4150679921259841
20
0.7285655118110236
11
1.4006416535433071
21
0.7429918503937007
0
LINE
8
BLACK
6
CONTINUOUS
10
1.4006416535433071
20
0.7429918503937007
11
1.3980004330708662
21
0.7395497244094488
0
LINE
8
BLACK
6
CONTINUOUS
10
1.3980004330708662
20
0.7395497244094488
11
1.3932063385826772
21
0.731246062992126
0
LINE
8
BLACK
6
CONTINUOUS
10
1.3932063385826772
20
0.731246062992126
11
1.3932061023622047
21
0.7312456299212599
0
LINE
8
BLACK
6
CONTINUOUS
10
1.3932061023622047
20
0.7312456299212599
11
1.3895365354330709
21
0.7223864960629921
0
LINE
8
BLACK
6
CONTINUOUS
10
1.3895365354330709
20
0.7223864960629921
11
1.3870546850393701
21
0.7131240551181102
0
LINE
8
BLACK
6
CONTINUOUS
10
1.3870546850393701
20
0.7131240551181102
11
1.3858031496062992
21
0.7036174803149606
0
LINE
8
BLACK
6
CONTINUOUS
10
1.3858031496062992
20
0.7036174803149606
11
1.3858031496062992
21
0.6940283070866141
0
LINE
8
BLACK
6
CONTINUOUS
10
0.7959999999999999
20
1.3289999606299212
11
0.736
21
1.3289999606299212
0
LINE
8
BLACK
6
CONTINUOUS
10
0.736
20
1.3289999606299212
11
0.736
21
1.3889999606299213
0
LINE
8
BLACK
6
CONTINUOUS
10
0.736
20
1.3889999606299213
11
0.7959999999999999
21
1.3889999606299213
0
LINE
8
BLACK
6
CONTINUOUS
10
0.7959999999999999
20
1.3889999606299213
11
0.7959999999999999
21
1.3289999606299212
0
LINE
8
BLACK
6
CONTINUOUS
10
0.696
20
1.429
11
0.636
21
1.429
0
LINE
8
BLACK
6
CONTINUOUS
10
0.636
20
1.429
11
0.636
21
1.4889999999999999
0
LINE
8
BLACK
6
CONTINUOUS
10
0.636
20
1.4889999999999999
11
0.696
21
1.4889999999999999
0
LINE
8
BLACK
6
CONTINUOUS
10
0.696
20
1.4889999999999999
11
0.696
21
1.429
0
LINE
8
BLACK
6
CONTINUOUS
10
0.896
20
1.429
11
0.836
21
1.429
0
LINE
8
BLACK
6
CONTINUOUS
10
0.836
20
1.429
11
0.836
21
1.4889999999999999
0
LINE
8
BLACK
6
CONTINUOUS
10
0.836
20
1.4889999999999999
11
0.896
21
1.4889999999999999
0
LINE
8
BLACK
6
CONTINUOUS
10
0.896
20
1.4889999999999999
11
0.896
21
1.429
0
LINE
8
BLACK
6
CONTINUOUS
10
0.7959999999999999
20
1.4290000393700788
11
0.736
21
1.4290000393700788
0
LINE
8
BLACK
6
CONTINUOUS
10
0.736
20
1.4290000393700788
11
0.736
21
1.4890000393700786
0
LINE
8
BLACK
6
CONTINUOUS
10
0.736
20
1.4890000393700786
11
0.7959999999999999
21
1.4890000393700786
0
LINE
8
BLACK
6
CONTINUOUS
10
0.7959999999999999
20
1.4890000393700786
11
0.7959999999999999
21
1.4290000393700788
0
CIRCLE
8
BLACK
10
1.5589527559055119
20
0.598822874015748
40
0.0068897637795276
0
CIRCLE
8
BLACK
10
1.6589527559055117
20
0.6988228740157481
40
0.0068897637795276
0
CIRCLE
8
BLACK
10
1.4589527559055118
20
0.6988228740157481
40
0.0068897637795276
0
CIRCLE
8
BLACK
10
1.6589527559055117
20
0.498822874015748
40
0.0068897637795276
0
CIRCLE
8
BLACK
10
1.4589527559055118
20
0.498822874015748
40
0.0068897637795276
0
CIRCLE
8
BLACK
10
0.666
20
1.359
40
0.0068897637795276
0
CIRCLE
8
BLACK
10
0.666
20
1.4590000000000001
40
0.0068897637795276
0
CIRCLE
8
BLACK
10
0.766
20
1.3589999606299212
40
0.0068897637795276
0
CIRCLE
8
BLACK
10
0.766
20
1.4590000393700786
40
0.0068897637795276
0
CIRCLE
8
BLACK
10
0.866
20
1.359
40
0.0068897637795276
0
CIRCLE
8
BLACK
10
0.866
20
1.4590000000000001
40
0.0068897637795276
0
CIRCLE
8
BLACK
10
0.4
20
0.4
40
0.0068897637795276
0
CIRCLE
8
BLACK
10
1.5999999999999999
20
1.2
40
0.0068897637795276
0
CIRCLE
8
BLACK
10
1.5999999999999999
20
0.4
40
0.0068897637795276
0
CIRCLE
8
BLACK
10
0.4
20
1.2
40
0.0068897637795276
0
CIRCLE
8
BLACK
10
0.9039527559055118
20
0.6843779921259843
40
0.0039370078740157
0
CIRCLE
8
BLACK
10
0.8619527559055118
20
0.7903779921259843
40
0.0039370078740157
0
CIRCLE
8
BLACK
10
0.8839527559055118
20
0.8143779921259843
40
0.0039370078740157
0
CIRCLE
8
BLACK
10
0.5429527559055118
20
0.7233779921259842
40
0.0039370078740157
0
CIRCLE
8
BLACK
10
0.7799527559055118
20
0.6843779921259843
40
0.0039370078740157
0
CIRCLE
8
BLACK
10
1.2359527559055117
20
0.7843779921259842
40
0.0039370078740157
0
CIRCLE
8
BLACK
10
0.8605511811023622
20
0.7456535826771653
40
0.0039370078740157
0
CIRCLE
8
BLACK
10
0.8399527559055118
20
0.6843779921259843
40
0.0039370078740157
0
CIRCLE
8
BLACK
10
0.9279527559055117
20
0.7863779921259842
40
0.0039370078740157
0
CIRCLE
8
BLACK
10
0.9279527559055117
20
0.7583779921259842
40
0.0039370078740157
0
CIRCLE
8
BLACK
10
1.2269527559055118
20
0.8263779921259843
40
0.0039370078740157
0
CIRCLE
8
BLACK
10
0.7849527559055118
20
0.7663779921259842
40
0.0039370078740157
0
CIRCLE
8
BLACK
10
1.2639527559055117
20
0.7243779921259842
40
0.0039370078740157
0
CIRCLE
8
BLACK
10
1.3129527559055119
20
0.7253779921259842
40
0.0039370078740157
0
CIRCLE
8
BLACK
10
0.8099527559055117
20
0.6843779921259843
40
0.0039370078740157
0
CIRCLE
8
BLACK
10
0.8379527559055118
20
0.7663779921259842
40
0.0039370078740157
0
CIRCLE
8
BLACK
10
0.9479527559055118
20
0.5793779921259843
40
0.0039370078740157
0
CIRCLE
8
BLACK
10
0.8899527559055118
20
0.5573779921259843
40
0.0039370078740157
0
CIRCLE
8
BLACK
10
0.6529527559055118
20
0.9323779921259843
40
0.0039370078740157
0
CIRCLE
8
BLACK
10
0.7859527559055118
20
0.8143779921259843
40
0.0039370078740157
0
CIRCLE
8
BLACK
10
0.9279527559055117
20
0.8423779921259842
40
0.0039370078740157
0
CIRCLE
8
BLACK
10
0.8839527559055118
20
0.7663779921259842
40
0.0039370078740157
0
CIRCLE
8
BLACK
10
0.8709527559055118
20
0.6843779921259843
40
0.0039370078740157
0
CIRCLE
8
BLACK
10
0.8369527559055118
20
0.7263779921259842
40
0.0039370078740157
0
CIRCLE
8
BLACK
10
0.7859527559055118
20
0.7273779921259842
40
0.0039370078740157
0
CIRCLE
8
BLACK
10
0.8389527559055118
20
0.8143779921259843
40
0.0039370078740157
0
CIRCLE
8
BLACK
10
0.7599527559055118
20
1.0203779921259841
40
0.0039370078740157
0
CIRCLE
8
BLACK
10
0.8109527559055117
20
0.7893779921259843
40
0.0039370078740157
0
CIRCLE
8
BLACK
10
0.8849527559055118
20
0.7263779921259842
40
0.0039370078740157
0
CIRCLE
8
BLACK
10
0.9899527559055118
20
0.9823779921259842
40
0.0039370078740157
0
CIRCLE
8
BLACK
10
0.8119527559055117
20
0.7463779921259842
40
0.0039370078740157
0
CIRCLE
8
BLACK
10
0.9279527559055117
20
0.8143779921259843
40
0.0039370078740157
0
CIRCLE
8
BLACK
10
0.9279527559055117
20
0.7303779921259842
40
0.0039370078740157
0
CIRCLE
8
BLACK
10
0.7474646062992126
20
0.8118661417322834
40
0.0039370078740157
0
CIRCLE
8
BLACK
10
0.8159527559055118
20
0.8653779921259842
40
0.0039370078740157
0
CIRCLE
8
BLACK
10
0.7829527559055118
20
0.9513779921259843
40
0.0039370078740157
0
CIRCLE
8
BLACK
10
0.7579527559055118
20
0.9513779921259843
40
0.0039370078740157
0
CIRCLE
8
BLACK
10
0.6569527559055118
20
0.8533779921259842
40
0.0039370078740157
0
CIRCLE
8
BLACK
10
0.6239527559055118
20
0.8013779921259843
40
0.0039370078740157
0
CIRCLE
8
BLACK
10
0.6529527559055118
20
0.8093779921259843
40
0.0039370078740157
0
CIRCLE
8
BLACK
10
1.0299527559055117
20
0.7593779921259842
40
0.0039370078740157
0
CIRCLE
8
WHITE
10
0.9039527559055118
20
0.6843779921259843
40
0.0039370078740157
0
CIRCLE
8
WHITE
10
0.8619527559055118
20
0.7903779921259843
40
0.0039370078740157
0
CIRCLE
8
WHITE
10
0.8839527559055118
20
0.8143779921259843
40
0.0039370078740157
0
CIRCLE
8
WHITE
10
0.5429527559055118
20
0.7233779921259842
40
0.0039370078740157
0
CIRCLE
8
WHITE
10
0.7799527559055118
20
0.6843779921259843
40
0.0039370078740157
0
CIRCLE
8
WHITE
10
1.2359527559055117
20
0.7843779921259842
40
0.0039370078740157
0
CIRCLE
8
WHITE
10
0.8605511811023622
20
0.7456535826771653
40
0.0039370078740157
0
CIRCLE
8
WHITE
10
0.8399527559055118
20
0.6843779921259843
40
0.0039370078740157
0
CIRCLE
8
WHITE
10
0.9279527559055117
20
0.7863779921259842
40
0.0039370078740157
0
CIRCLE
8
WHITE
10
0.9279527559055117
20
0.7583779921259842
40
0.0039370078740157
0
CIRCLE
8
WHITE
10
1.2269527559055118
20
0.8263779921259843
40
0.0039370078740157
0
CIRCLE
8
WHITE
10
0.7849527559055118
20
0.7663779921259842
40
0.0039370078740157
0
CIRCLE
8
WHITE
10
1.2639527559055117
20
0.7243779921259842
40
0.0039370078740157
0
CIRCLE
8
WHITE
10
1.3129527559055119
20
0.7253779921259842
40
0.0039370078740157
0
CIRCLE
8
WHITE
10
0.8099527559055117
20
0.6843779921259843
40
0.0039370078740157
0
CIRCLE
8
WHITE
10
0.8379527559055118
20
0.7663779921259842
40
0.0039370078740157
0
CIRCLE
8
WHITE
10
0.9479527559055118
20
0.5793779921259843
40
0.0039370078740157
0
CIRCLE
8
WHITE
10
0.8899527559055118
20
0.5573779921259843
40
0.0039370078740157
0
CIRCLE
8
WHITE
10
0.6529527559055118
20
0.9323779921259843
40
0.0039370078740157
0
CIRCLE
8
WHITE
10
0.7859527559055118
20
0.8143779921259843
40
0.0039370078740157
0
CIRCLE
8
WHITE
10
0.9279527559055117
20
0.8423779921259842
40
0.0039370078740157
0
CIRCLE
8
WHITE
10
0.8839527559055118
20
0.7663779921259842
40
0.0039370078740157
0
CIRCLE
8
WHITE
10
0.8709527559055118
20
0.6843779921259843
40
0.0039370078740157
0
CIRCLE
8
WHITE
10
0.8369527559055118
20
0.7263779921259842
40
0.0039370078740157
0
CIRCLE
8
WHITE
10
0.7859527559055118
20
0.7273779921259842
40
0.0039370078740157
0
CIRCLE
8
WHITE
10
0.8389527559055118
20
0.8143779921259843
40
0.0039370078740157
0
CIRCLE
8
WHITE
10
0.7599527559055118
20
1.0203779921259841
40
0.0039370078740157
0
CIRCLE
8
WHITE
10
0.8109527559055117
20
0.7893779921259843
40
0.0039370078740157
0
CIRCLE
8
WHITE
10
0.8849527559055118
20
0.7263779921259842
40
0.0039370078740157
0
CIRCLE
8
WHITE
10
0.9899527559055118
20
0.9823779921259842
40
0.0039370078740157
0
CIRCLE
8
WHITE
10
0.8119527559055117
20
0.7463779921259842
40
0.0039370078740157
0
CIRCLE
8
WHITE
10
0.9279527559055117
20
0.8143779921259843
40
0.0039370078740157
0
CIRCLE
8
WHITE
10
0.9279527559055117
20
0.7303779921259842
40
0.0039370078740157
0
CIRCLE
8
WHITE
10
0.7474646062992126
20
0.8118661417322834
40
0.0039370078740157
0
CIRCLE
8
WHITE
10
0.8159527559055118
20
0.8653779921259842
40
0.0039370078740157
0
CIRCLE
8
WHITE
10
0.7829527559055118
20
0.9513779921259843
40
0.0039370078740157
0
CIRCLE
8
WHITE
10
0.7579527559055118
20
0.9513779921259843
40
0.0039370078740157
0
CIRCLE
8
WHITE
10
0.6569527559055118
20
0.8533779921259842
40
0.0039370078740157
0
CIRCLE
8
WHITE
10
0.6239527559055118
20
0.8013779921259843
40
0.0039370078740157
0
CIRCLE
8
WHITE
10
0.6529527559055118
20
0.8093779921259843
40
0.0039370078740157
0
CIRCLE
8
WHITE
10
1.0299527559055117
20
0.7593779921259842
40
0.0039370078740157
0
CIRCLE
8
WHITE
10
1.5589527559055119
20
0.598822874015748
40
0.0068897637795276
0
CIRCLE
8
WHITE
10
1.6589527559055117
20
0.6988228740157481
40
0.0068897637795276
0
CIRCLE
8
WHITE
10
1.4589527559055118
20
0.6988228740157481
40
0.0068897637795276
0
CIRCLE
8
WHITE
10
1.6589527559055117
20
0.498822874015748
40
0.0068897637795276
0
CIRCLE
8
WHITE
10
1.4589527559055118
20
0.498822874015748
40
0.0068897637795276
0
CIRCLE
8
WHITE
10
0.666
20
1.359
40
0.0068897637795276
0
CIRCLE
8
WHITE
10
0.666
20
1.4590000000000001
40
0.0068897637795276
0
CIRCLE
8
WHITE
10
0.766
20
1.3589999606299212
40
0.0068897637795276
0
CIRCLE
8
WHITE
10
0.766
20
1.4590000393700786
40
0.0068897637795276
0
CIRCLE
8
WHITE
10
0.866
20
1.359
40
0.0068897637795276
0
CIRCLE
8
WHITE
10
0.866
20
1.4590000000000001
40
0.0068897637795276
0
CIRCLE
8
WHITE
10
0.4
20
0.4
40
0.0068897637795276
0
CIRCLE
8
WHITE
10
1.5999999999999999
20
1.2
40
0.0068897637795276
0
CIRCLE
8
WHITE
10
1.5999999999999999
20
0.4
40
0.0068897637795276
0
CIRCLE
8
WHITE
10
0.4
20
1.2
40
0.0068897637795276
  0
ENDSEC
  0
EOF
