  0
SECTION
  2
HEADER
  9
$ANGBASE
  50
0.0
  9
$ANGDIR
  70
1
  9
$MEASUREMENT
  70
0
  0
ENDSEC
  0
SECTION
  2
TABLES
  0
TABLE
  2
LTYPE
  70
4
  0
LTYPE
  5
40F
  2
CONTINUOUS
  70
0
  3
Solid line
  72
65
  73
0
  40
0.0
  0
LTYPE
  5
410
  2
DASHDOT
 70
0
  3
Dash Dot ____ _ ____ _
 72
65
 73
4
 40
2.0
 49
1.25
 49
-0.25
 49
0.25
 49
-0.25
  0
LTYPE
  5
411
  2
DASHED
 70
0
  3
Dashed __ __ __ __ __
 72
65
 73
2
 40
0.75
 49
0.5
 49
-0.25
  0
LTYPE
  5
43B
  2
DOTTED
 70
0
  3
Dotted .  .  .  .
 72
65
 73
2
 40
0.2
 49
0.0
 49
-0.2
  0
ENDTAB
  0
TABLE
  2
STYLE
  70
4
  0
STYLE
  2
KICAD
  70
0
  40
0
  41
1
  42
1
  50
0
  71
0
  3
isocp.shx
  0
STYLE
  2
KICADB
  70
0
  40
0
  41
1
  42
1
  50
0
  71
0
  3
isocp.shx
  0
STYLE
  2
KICADI
  70
0
  40
0
  41
1
  42
1
  50
15
  71
0
  3
isocp.shx
  0
STYLE
  2
KICADBI
  70
0
  40
0
  41
1
  42
1
  50
15
  71
0
  3
isocp.shx
  0
ENDTAB
  0
TABLE
  2
LAYER
  70
1
  0
LAYER
  2
BLACK
  70
0
  62
7
  6
CONTINUOUS
  0
ENDTAB
  0
ENDSEC
  0
SECTION
  2
ENTITIES
0
LINE
8
BLACK
6
CONTINUOUS
10
0.4201122047244095
20
0.5183720472440945
11
0.4332392125984252
21
0.515375905511811
0
LINE
8
BLACK
6
CONTINUOUS
10
0.4332392125984252
20
0.515375905511811
11
0.4459482283464567
21
0.5109288188976377
0
LINE
8
BLACK
6
CONTINUOUS
10
0.4459482283464567
20
0.5109288188976377
11
0.4580794094488189
21
0.5050867716535433
0
LINE
8
BLACK
6
CONTINUOUS
10
0.4580794094488189
20
0.5050867716535433
11
0.4694801968503937
21
0.4979231889763779
0
LINE
8
BLACK
6
CONTINUOUS
10
0.4694801968503937
20
0.4979231889763779
11
0.4800072440944882
21
0.4895281496062992
0
LINE
8
BLACK
6
CONTINUOUS
10
0.4800072440944882
20
0.4895281496062992
11
0.4895281496062992
21
0.4800072440944882
0
LINE
8
BLACK
6
CONTINUOUS
10
0.4895281496062992
20
0.4800072440944882
11
0.4979231889763779
21
0.4694801968503937
0
LINE
8
BLACK
6
CONTINUOUS
10
0.4979231889763779
20
0.4694801968503937
11
0.5050867716535433
21
0.4580794094488189
0
LINE
8
BLACK
6
CONTINUOUS
10
0.5050867716535433
20
0.4580794094488189
11
0.5109288188976377
21
0.4459482283464567
0
LINE
8
BLACK
6
CONTINUOUS
10
0.5109288188976377
20
0.4459482283464567
11
0.515375905511811
21
0.4332392125984252
0
LINE
8
BLACK
6
CONTINUOUS
10
0.515375905511811
20
0.4332392125984252
11
0.5183720472440945
21
0.4201122047244095
0
LINE
8
BLACK
6
CONTINUOUS
10
0.5183720472440945
20
0.4201122047244095
11
0.5198796062992126
21
0.4067322834645669
0
LINE
8
BLACK
6
CONTINUOUS
10
0.5198796062992126
20
0.4067322834645669
11
0.5198796062992126
21
0.3932677165354331
0
LINE
8
BLACK
6
CONTINUOUS
10
0.5198796062992126
20
0.3932677165354331
11
0.5183720472440945
21
0.3798877952755905
0
LINE
8
BLACK
6
CONTINUOUS
10
0.5183720472440945
20
0.3798877952755905
11
0.515375905511811
21
0.3667607874015748
0
LINE
8
BLACK
6
CONTINUOUS
10
0.515375905511811
20
0.3667607874015748
11
0.5109288188976377
21
0.3540517716535433
0
LINE
8
BLACK
6
CONTINUOUS
10
0.5109288188976377
20
0.3540517716535433
11
0.5050867716535433
21
0.3419205905511811
0
LINE
8
BLACK
6
CONTINUOUS
10
0.5050867716535433
20
0.3419205905511811
11
0.4979231889763779
21
0.3305198031496063
0
LINE
8
BLACK
6
CONTINUOUS
10
0.4979231889763779
20
0.3305198031496063
11
0.4895281496062992
21
0.3199927559055118
0
LINE
8
BLACK
6
CONTINUOUS
10
0.4895281496062992
20
0.3199927559055118
11
0.4800072440944882
21
0.3104718503937008
0
LINE
8
BLACK
6
CONTINUOUS
10
0.4800072440944882
20
0.3104718503937008
11
0.4694801968503937
21
0.302076811023622
0
LINE
8
BLACK
6
CONTINUOUS
10
0.4694801968503937
20
0.302076811023622
11
0.4580794094488189
21
0.2949132283464567
0
LINE
8
BLACK
6
CONTINUOUS
10
0.4580794094488189
20
0.2949132283464567
11
0.4459482283464567
21
0.2890711811023622
0
LINE
8
BLACK
6
CONTINUOUS
10
0.4459482283464567
20
0.2890711811023622
11
0.4332392125984252
21
0.284624094488189
0
LINE
8
BLACK
6
CONTINUOUS
10
0.4332392125984252
20
0.284624094488189
11
0.4201122047244095
21
0.2816279527559055
0
LINE
8
BLACK
6
CONTINUOUS
10
0.4201122047244095
20
0.2816279527559055
11
0.4067322834645669
21
0.2801203937007874
0
LINE
8
BLACK
6
CONTINUOUS
10
0.4067322834645669
20
0.2801203937007874
11
0.3932677165354331
21
0.2801203937007874
0
LINE
8
BLACK
6
CONTINUOUS
10
0.3932677165354331
20
0.2801203937007874
11
0.3798877952755905
21
0.2816279527559055
0
LINE
8
BLACK
6
CONTINUOUS
10
0.3798877952755905
20
0.2816279527559055
11
0.3667607874015748
21
0.284624094488189
0
LINE
8
BLACK
6
CONTINUOUS
10
0.3667607874015748
20
0.284624094488189
11
0.3540517716535433
21
0.2890711811023622
0
LINE
8
BLACK
6
CONTINUOUS
10
0.3540517716535433
20
0.2890711811023622
11
0.3419205905511811
21
0.2949132283464567
0
LINE
8
BLACK
6
CONTINUOUS
10
0.3419205905511811
20
0.2949132283464567
11
0.3305198031496063
21
0.302076811023622
0
LINE
8
BLACK
6
CONTINUOUS
10
0.3305198031496063
20
0.302076811023622
11
0.3199927559055118
21
0.3104718503937008
0
LINE
8
BLACK
6
CONTINUOUS
10
0.3199927559055118
20
0.3104718503937008
11
0.3104718503937008
21
0.3199927559055118
0
LINE
8
BLACK
6
CONTINUOUS
10
0.3104718503937008
20
0.3199927559055118
11
0.302076811023622
21
0.3305198031496063
0
LINE
8
BLACK
6
CONTINUOUS
10
0.302076811023622
20
0.3305198031496063
11
0.2949132283464567
21
0.3419205905511811
0
LINE
8
BLACK
6
CONTINUOUS
10
0.2949132283464567
20
0.3419205905511811
11
0.2890711811023622
21
0.3540517716535433
0
LINE
8
BLACK
6
CONTINUOUS
10
0.2890711811023622
20
0.3540517716535433
11
0.284624094488189
21
0.3667607874015748
0
LINE
8
BLACK
6
CONTINUOUS
10
0.284624094488189
20
0.3667607874015748
11
0.2816279527559055
21
0.3798877952755905
0
LINE
8
BLACK
6
CONTINUOUS
10
0.2816279527559055
20
0.3798877952755905
11
0.2801203937007874
21
0.3932677165354331
0
LINE
8
BLACK
6
CONTINUOUS
10
0.2801203937007874
20
0.3932677165354331
11
0.2801203937007874
21
0.4065218110236221
0
LINE
8
BLACK
6
CONTINUOUS
10
0.2801203937007874
20
0.4065218110236221
11
0.2801203937007874
21
0.4067322834645669
0
LINE
8
BLACK
6
CONTINUOUS
10
0.2801203937007874
20
0.4067322834645669
11
0.2816279527559055
21
0.4201122047244095
0
LINE
8
BLACK
6
CONTINUOUS
10
0.2816279527559055
20
0.4201122047244095
11
0.284624094488189
21
0.4332392125984252
0
LINE
8
BLACK
6
CONTINUOUS
10
0.284624094488189
20
0.4332392125984252
11
0.2890711811023622
21
0.4459482283464567
0
LINE
8
BLACK
6
CONTINUOUS
10
0.2890711811023622
20
0.4459482283464567
11
0.2949132283464567
21
0.4580794094488189
0
LINE
8
BLACK
6
CONTINUOUS
10
0.2949132283464567
20
0.4580794094488189
11
0.302076811023622
21
0.4694801968503937
0
LINE
8
BLACK
6
CONTINUOUS
10
0.302076811023622
20
0.4694801968503937
11
0.3104718503937008
21
0.4800072440944882
0
LINE
8
BLACK
6
CONTINUOUS
10
0.3104718503937008
20
0.4800072440944882
11
0.3199927559055118
21
0.4895281496062992
0
LINE
8
BLACK
6
CONTINUOUS
10
0.3199927559055118
20
0.4895281496062992
11
0.3305198031496063
21
0.4979231889763779
0
LINE
8
BLACK
6
CONTINUOUS
10
0.3305198031496063
20
0.4979231889763779
11
0.3419205905511811
21
0.5050867716535433
0
LINE
8
BLACK
6
CONTINUOUS
10
0.3419205905511811
20
0.5050867716535433
11
0.3540517716535433
21
0.5109288188976377
0
LINE
8
BLACK
6
CONTINUOUS
10
0.3540517716535433
20
0.5109288188976377
11
0.3667607874015748
21
0.515375905511811
0
LINE
8
BLACK
6
CONTINUOUS
10
0.3667607874015748
20
0.515375905511811
11
0.3798877952755905
21
0.5183720472440945
0
LINE
8
BLACK
6
CONTINUOUS
10
0.3798877952755905
20
0.5183720472440945
11
0.3932677165354331
21
0.5198796062992126
0
LINE
8
BLACK
6
CONTINUOUS
10
0.3932677165354331
20
0.5198796062992126
11
0.4067322834645669
21
0.5198796062992126
0
LINE
8
BLACK
6
CONTINUOUS
10
0.4067322834645669
20
0.5198796062992126
11
0.4201122047244095
21
0.5183720472440945
0
LINE
8
BLACK
6
CONTINUOUS
10
0.2838685039370079
20
0.3934781889763779
11
0.2853288976377953
21
0.3805166141732284
0
LINE
8
BLACK
6
CONTINUOUS
10
0.2853288976377953
20
0.3805166141732284
11
0.2882313779527559
21
0.3678
0
LINE
8
BLACK
6
CONTINUOUS
10
0.2882313779527559
20
0.3678
11
0.2925394094488189
21
0.3554883858267717
0
LINE
8
BLACK
6
CONTINUOUS
10
0.2925394094488189
20
0.3554883858267717
11
0.2981988188976378
21
0.3437364960629921
0
LINE
8
BLACK
6
CONTINUOUS
10
0.2981988188976378
20
0.3437364960629921
11
0.3051384645669291
21
0.332692125984252
0
LINE
8
BLACK
6
CONTINUOUS
10
0.3051384645669291
20
0.332692125984252
11
0.3132710236220472
21
0.322494251968504
0
LINE
8
BLACK
6
CONTINUOUS
10
0.3132710236220472
20
0.322494251968504
11
0.322494251968504
21
0.3132710236220472
0
LINE
8
BLACK
6
CONTINUOUS
10
0.322494251968504
20
0.3132710236220472
11
0.332692125984252
21
0.3051384645669291
0
LINE
8
BLACK
6
CONTINUOUS
10
0.332692125984252
20
0.3051384645669291
11
0.3437364960629921
21
0.2981988188976378
0
LINE
8
BLACK
6
CONTINUOUS
10
0.3437364960629921
20
0.2981988188976378
11
0.3554883858267717
21
0.2925394094488189
0
LINE
8
BLACK
6
CONTINUOUS
10
0.3554883858267717
20
0.2925394094488189
11
0.3678
21
0.2882313779527559
0
LINE
8
BLACK
6
CONTINUOUS
10
0.3678
20
0.2882313779527559
11
0.3805166141732284
21
0.2853288976377953
0
LINE
8
BLACK
6
CONTINUOUS
10
0.3805166141732284
20
0.2853288976377953
11
0.3934781889763779
21
0.2838685039370079
0
LINE
8
BLACK
6
CONTINUOUS
10
0.3934781889763779
20
0.2838685039370079
11
0.4065218110236221
21
0.2838685039370079
0
LINE
8
BLACK
6
CONTINUOUS
10
0.4065218110236221
20
0.2838685039370079
11
0.4194833858267716
21
0.2853288976377953
0
LINE
8
BLACK
6
CONTINUOUS
10
0.4194833858267716
20
0.2853288976377953
11
0.4322
21
0.2882313779527559
0
LINE
8
BLACK
6
CONTINUOUS
10
0.4322
20
0.2882313779527559
11
0.4445116141732283
21
0.2925394094488189
0
LINE
8
BLACK
6
CONTINUOUS
10
0.4445116141732283
20
0.2925394094488189
11
0.4562635039370079
21
0.2981988188976378
0
LINE
8
BLACK
6
CONTINUOUS
10
0.4562635039370079
20
0.2981988188976378
11
0.467307874015748
21
0.3051384645669291
0
LINE
8
BLACK
6
CONTINUOUS
10
0.467307874015748
20
0.3051384645669291
11
0.477505748031496
21
0.3132710236220472
0
LINE
8
BLACK
6
CONTINUOUS
10
0.477505748031496
20
0.3132710236220472
11
0.4867289763779528
21
0.322494251968504
0
LINE
8
BLACK
6
CONTINUOUS
10
0.4867289763779528
20
0.322494251968504
11
0.4948615354330709
21
0.332692125984252
0
LINE
8
BLACK
6
CONTINUOUS
10
0.4948615354330709
20
0.332692125984252
11
0.5018011811023622
21
0.3437364960629921
0
LINE
8
BLACK
6
CONTINUOUS
10
0.5018011811023622
20
0.3437364960629921
11
0.5074605905511811
21
0.3554883858267717
0
LINE
8
BLACK
6
CONTINUOUS
10
0.5074605905511811
20
0.3554883858267717
11
0.511768622047244
21
0.3678
0
LINE
8
BLACK
6
CONTINUOUS
10
0.511768622047244
20
0.3678
11
0.5146711023622047
21
0.3805166141732284
0
LINE
8
BLACK
6
CONTINUOUS
10
0.5146711023622047
20
0.3805166141732284
11
0.5161314960629921
21
0.3934781889763779
0
LINE
8
BLACK
6
CONTINUOUS
10
0.5161314960629921
20
0.3934781889763779
11
0.5161314960629921
21
0.4065218110236221
0
LINE
8
BLACK
6
CONTINUOUS
10
0.5161314960629921
20
0.4065218110236221
11
0.5146711023622047
21
0.4194833858267716
0
LINE
8
BLACK
6
CONTINUOUS
10
0.5146711023622047
20
0.4194833858267716
11
0.511768622047244
21
0.4322
0
LINE
8
BLACK
6
CONTINUOUS
10
0.511768622047244
20
0.4322
11
0.5074605905511811
21
0.4445116141732283
0
LINE
8
BLACK
6
CONTINUOUS
10
0.5074605905511811
20
0.4445116141732283
11
0.5018011811023622
21
0.4562635039370079
0
LINE
8
BLACK
6
CONTINUOUS
10
0.5018011811023622
20
0.4562635039370079
11
0.4948615354330709
21
0.467307874015748
0
LINE
8
BLACK
6
CONTINUOUS
10
0.4948615354330709
20
0.467307874015748
11
0.4867289763779528
21
0.477505748031496
0
LINE
8
BLACK
6
CONTINUOUS
10
0.4867289763779528
20
0.477505748031496
11
0.477505748031496
21
0.4867289763779528
0
LINE
8
BLACK
6
CONTINUOUS
10
0.477505748031496
20
0.4867289763779528
11
0.467307874015748
21
0.4948615354330709
0
LINE
8
BLACK
6
CONTINUOUS
10
0.467307874015748
20
0.4948615354330709
11
0.4562635039370079
21
0.5018011811023622
0
LINE
8
BLACK
6
CONTINUOUS
10
0.4562635039370079
20
0.5018011811023622
11
0.4445116141732283
21
0.5074605905511811
0
LINE
8
BLACK
6
CONTINUOUS
10
0.4445116141732283
20
0.5074605905511811
11
0.4322
21
0.511768622047244
0
LINE
8
BLACK
6
CONTINUOUS
10
0.4322
20
0.511768622047244
11
0.4194833858267716
21
0.5146711023622047
0
LINE
8
BLACK
6
CONTINUOUS
10
0.4194833858267716
20
0.5146711023622047
11
0.4065218110236221
21
0.5161314960629921
0
LINE
8
BLACK
6
CONTINUOUS
10
0.4065218110236221
20
0.5161314960629921
11
0.3934781889763779
21
0.5161314960629921
0
LINE
8
BLACK
6
CONTINUOUS
10
0.3934781889763779
20
0.5161314960629921
11
0.3805166141732284
21
0.5146711023622047
0
LINE
8
BLACK
6
CONTINUOUS
10
0.3805166141732284
20
0.5146711023622047
11
0.3678
21
0.511768622047244
0
LINE
8
BLACK
6
CONTINUOUS
10
0.3678
20
0.511768622047244
11
0.3554883858267717
21
0.5074605905511811
0
LINE
8
BLACK
6
CONTINUOUS
10
0.3554883858267717
20
0.5074605905511811
11
0.3437364960629921
21
0.5018011811023622
0
LINE
8
BLACK
6
CONTINUOUS
10
0.3437364960629921
20
0.5018011811023622
11
0.332692125984252
21
0.4948615354330709
0
LINE
8
BLACK
6
CONTINUOUS
10
0.332692125984252
20
0.4948615354330709
11
0.322494251968504
21
0.4867289763779528
0
LINE
8
BLACK
6
CONTINUOUS
10
0.322494251968504
20
0.4867289763779528
11
0.3132710236220472
21
0.477505748031496
0
LINE
8
BLACK
6
CONTINUOUS
10
0.3132710236220472
20
0.477505748031496
11
0.3051384645669291
21
0.467307874015748
0
LINE
8
BLACK
6
CONTINUOUS
10
0.3051384645669291
20
0.467307874015748
11
0.2981988188976378
21
0.4562635039370079
0
LINE
8
BLACK
6
CONTINUOUS
10
0.2981988188976378
20
0.4562635039370079
11
0.2925394094488189
21
0.4445116141732283
0
LINE
8
BLACK
6
CONTINUOUS
10
0.2925394094488189
20
0.4445116141732283
11
0.2882313779527559
21
0.4322
0
LINE
8
BLACK
6
CONTINUOUS
10
0.2882313779527559
20
0.4322
11
0.2853288976377953
21
0.4194833858267716
0
LINE
8
BLACK
6
CONTINUOUS
10
0.2853288976377953
20
0.4194833858267716
11
0.2838685039370079
21
0.4065218110236221
0
LINE
8
BLACK
6
CONTINUOUS
10
0.2838685039370079
20
0.4065218110236221
11
0.2838685039370079
21
0.3934781889763779
0
LINE
8
BLACK
6
CONTINUOUS
10
1.6201122047244094
20
0.5183720472440945
11
1.6332392125984252
21
0.515375905511811
0
LINE
8
BLACK
6
CONTINUOUS
10
1.6332392125984252
20
0.515375905511811
11
1.6459482283464566
21
0.5109288188976377
0
LINE
8
BLACK
6
CONTINUOUS
10
1.6459482283464566
20
0.5109288188976377
11
1.6580794094488189
21
0.5050867716535433
0
LINE
8
BLACK
6
CONTINUOUS
10
1.6580794094488189
20
0.5050867716535433
11
1.6694801968503936
21
0.4979231889763779
0
LINE
8
BLACK
6
CONTINUOUS
10
1.6694801968503936
20
0.4979231889763779
11
1.6800072440944882
21
0.4895281496062992
0
LINE
8
BLACK
6
CONTINUOUS
10
1.6800072440944882
20
0.4895281496062992
11
1.6895281496062993
21
0.4800072440944882
0
LINE
8
BLACK
6
CONTINUOUS
10
1.6895281496062993
20
0.4800072440944882
11
1.697923188976378
21
0.4694801968503937
0
LINE
8
BLACK
6
CONTINUOUS
10
1.697923188976378
20
0.4694801968503937
11
1.7050867716535432
21
0.4580794094488189
0
LINE
8
BLACK
6
CONTINUOUS
10
1.7050867716535432
20
0.4580794094488189
11
1.7109288188976377
21
0.4459482283464567
0
LINE
8
BLACK
6
CONTINUOUS
10
1.7109288188976377
20
0.4459482283464567
11
1.715375905511811
21
0.4332392125984252
0
LINE
8
BLACK
6
CONTINUOUS
10
1.715375905511811
20
0.4332392125984252
11
1.7183720472440944
21
0.4201122047244095
0
LINE
8
BLACK
6
CONTINUOUS
10
1.7183720472440944
20
0.4201122047244095
11
1.7198796062992125
21
0.4067322834645669
0
LINE
8
BLACK
6
CONTINUOUS
10
1.7198796062992125
20
0.4067322834645669
11
1.7198796062992125
21
0.3932677165354331
0
LINE
8
BLACK
6
CONTINUOUS
10
1.7198796062992125
20
0.3932677165354331
11
1.7183720472440944
21
0.3798877952755905
0
LINE
8
BLACK
6
CONTINUOUS
10
1.7183720472440944
20
0.3798877952755905
11
1.715375905511811
21
0.3667607874015748
0
LINE
8
BLACK
6
CONTINUOUS
10
1.715375905511811
20
0.3667607874015748
11
1.7109288188976377
21
0.3540517716535433
0
LINE
8
BLACK
6
CONTINUOUS
10
1.7109288188976377
20
0.3540517716535433
11
1.7050867716535432
21
0.3419205905511811
0
LINE
8
BLACK
6
CONTINUOUS
10
1.7050867716535432
20
0.3419205905511811
11
1.697923188976378
21
0.3305198031496063
0
LINE
8
BLACK
6
CONTINUOUS
10
1.697923188976378
20
0.3305198031496063
11
1.6895281496062993
21
0.3199927559055118
0
LINE
8
BLACK
6
CONTINUOUS
10
1.6895281496062993
20
0.3199927559055118
11
1.6800072440944882
21
0.3104718503937008
0
LINE
8
BLACK
6
CONTINUOUS
10
1.6800072440944882
20
0.3104718503937008
11
1.6694801968503936
21
0.302076811023622
0
LINE
8
BLACK
6
CONTINUOUS
10
1.6694801968503936
20
0.302076811023622
11
1.6580794094488189
21
0.2949132283464567
0
LINE
8
BLACK
6
CONTINUOUS
10
1.6580794094488189
20
0.2949132283464567
11
1.6459482283464566
21
0.2890711811023622
0
LINE
8
BLACK
6
CONTINUOUS
10
1.6459482283464566
20
0.2890711811023622
11
1.6332392125984252
21
0.284624094488189
0
LINE
8
BLACK
6
CONTINUOUS
10
1.6332392125984252
20
0.284624094488189
11
1.6201122047244094
21
0.2816279527559055
0
LINE
8
BLACK
6
CONTINUOUS
10
1.6201122047244094
20
0.2816279527559055
11
1.606732283464567
21
0.2801203937007874
0
LINE
8
BLACK
6
CONTINUOUS
10
1.606732283464567
20
0.2801203937007874
11
1.593267716535433
21
0.2801203937007874
0
LINE
8
BLACK
6
CONTINUOUS
10
1.593267716535433
20
0.2801203937007874
11
1.5798877952755905
21
0.2816279527559055
0
LINE
8
BLACK
6
CONTINUOUS
10
1.5798877952755905
20
0.2816279527559055
11
1.5667607874015748
21
0.284624094488189
0
LINE
8
BLACK
6
CONTINUOUS
10
1.5667607874015748
20
0.284624094488189
11
1.5540517716535434
21
0.2890711811023622
0
LINE
8
BLACK
6
CONTINUOUS
10
1.5540517716535434
20
0.2890711811023622
11
1.541920590551181
21
0.2949132283464567
0
LINE
8
BLACK
6
CONTINUOUS
10
1.541920590551181
20
0.2949132283464567
11
1.5305198031496063
21
0.302076811023622
0
LINE
8
BLACK
6
CONTINUOUS
10
1.5305198031496063
20
0.302076811023622
11
1.5199927559055117
21
0.3104718503937008
0
LINE
8
BLACK
6
CONTINUOUS
10
1.5199927559055117
20
0.3104718503937008
11
1.5104718503937007
21
0.3199927559055118
0
LINE
8
BLACK
6
CONTINUOUS
10
1.5104718503937007
20
0.3199927559055118
11
1.502076811023622
21
0.3305198031496063
0
LINE
8
BLACK
6
CONTINUOUS
10
1.502076811023622
20
0.3305198031496063
11
1.4949132283464566
21
0.3419205905511811
0
LINE
8
BLACK
6
CONTINUOUS
10
1.4949132283464566
20
0.3419205905511811
11
1.4890711811023623
21
0.3540517716535433
0
LINE
8
BLACK
6
CONTINUOUS
10
1.4890711811023623
20
0.3540517716535433
11
1.484624094488189
21
0.3667607874015748
0
LINE
8
BLACK
6
CONTINUOUS
10
1.484624094488189
20
0.3667607874015748
11
1.4816279527559055
21
0.3798877952755905
0
LINE
8
BLACK
6
CONTINUOUS
10
1.4816279527559055
20
0.3798877952755905
11
1.4801203937007874
21
0.3932677165354331
0
LINE
8
BLACK
6
CONTINUOUS
10
1.4801203937007874
20
0.3932677165354331
11
1.4801203937007874
21
0.4065218110236221
0
LINE
8
BLACK
6
CONTINUOUS
10
1.4801203937007874
20
0.4065218110236221
11
1.4801203937007874
21
0.4067322834645669
0
LINE
8
BLACK
6
CONTINUOUS
10
1.4801203937007874
20
0.4067322834645669
11
1.4816279527559055
21
0.4201122047244095
0
LINE
8
BLACK
6
CONTINUOUS
10
1.4816279527559055
20
0.4201122047244095
11
1.484624094488189
21
0.4332392125984252
0
LINE
8
BLACK
6
CONTINUOUS
10
1.484624094488189
20
0.4332392125984252
11
1.4890711811023623
21
0.4459482283464567
0
LINE
8
BLACK
6
CONTINUOUS
10
1.4890711811023623
20
0.4459482283464567
11
1.4949132283464566
21
0.4580794094488189
0
LINE
8
BLACK
6
CONTINUOUS
10
1.4949132283464566
20
0.4580794094488189
11
1.502076811023622
21
0.4694801968503937
0
LINE
8
BLACK
6
CONTINUOUS
10
1.502076811023622
20
0.4694801968503937
11
1.5104718503937007
21
0.4800072440944882
0
LINE
8
BLACK
6
CONTINUOUS
10
1.5104718503937007
20
0.4800072440944882
11
1.5199927559055117
21
0.4895281496062992
0
LINE
8
BLACK
6
CONTINUOUS
10
1.5199927559055117
20
0.4895281496062992
11
1.5305198031496063
21
0.4979231889763779
0
LINE
8
BLACK
6
CONTINUOUS
10
1.5305198031496063
20
0.4979231889763779
11
1.541920590551181
21
0.5050867716535433
0
LINE
8
BLACK
6
CONTINUOUS
10
1.541920590551181
20
0.5050867716535433
11
1.5540517716535434
21
0.5109288188976377
0
LINE
8
BLACK
6
CONTINUOUS
10
1.5540517716535434
20
0.5109288188976377
11
1.5667607874015748
21
0.515375905511811
0
LINE
8
BLACK
6
CONTINUOUS
10
1.5667607874015748
20
0.515375905511811
11
1.5798877952755905
21
0.5183720472440945
0
LINE
8
BLACK
6
CONTINUOUS
10
1.5798877952755905
20
0.5183720472440945
11
1.593267716535433
21
0.5198796062992126
0
LINE
8
BLACK
6
CONTINUOUS
10
1.593267716535433
20
0.5198796062992126
11
1.606732283464567
21
0.5198796062992126
0
LINE
8
BLACK
6
CONTINUOUS
10
1.606732283464567
20
0.5198796062992126
11
1.6201122047244094
21
0.5183720472440945
0
LINE
8
BLACK
6
CONTINUOUS
10
1.4838685039370079
20
0.3934781889763779
11
1.4853288976377952
21
0.3805166141732284
0
LINE
8
BLACK
6
CONTINUOUS
10
1.4853288976377952
20
0.3805166141732284
11
1.4882313779527558
21
0.3678
0
LINE
8
BLACK
6
CONTINUOUS
10
1.4882313779527558
20
0.3678
11
1.4925394094488189
21
0.3554883858267717
0
LINE
8
BLACK
6
CONTINUOUS
10
1.4925394094488189
20
0.3554883858267717
11
1.4981988188976378
21
0.3437364960629921
0
LINE
8
BLACK
6
CONTINUOUS
10
1.4981988188976378
20
0.3437364960629921
11
1.505138464566929
21
0.332692125984252
0
LINE
8
BLACK
6
CONTINUOUS
10
1.505138464566929
20
0.332692125984252
11
1.5132710236220472
21
0.322494251968504
0
LINE
8
BLACK
6
CONTINUOUS
10
1.5132710236220472
20
0.322494251968504
11
1.5224942519685039
21
0.3132710236220472
0
LINE
8
BLACK
6
CONTINUOUS
10
1.5224942519685039
20
0.3132710236220472
11
1.5326921259842519
21
0.3051384645669291
0
LINE
8
BLACK
6
CONTINUOUS
10
1.5326921259842519
20
0.3051384645669291
11
1.543736496062992
21
0.2981988188976378
0
LINE
8
BLACK
6
CONTINUOUS
10
1.543736496062992
20
0.2981988188976378
11
1.5554883858267716
21
0.2925394094488189
0
LINE
8
BLACK
6
CONTINUOUS
10
1.5554883858267716
20
0.2925394094488189
11
1.5677999999999999
21
0.2882313779527559
0
LINE
8
BLACK
6
CONTINUOUS
10
1.5677999999999999
20
0.2882313779527559
11
1.5805166141732283
21
0.2853288976377953
0
LINE
8
BLACK
6
CONTINUOUS
10
1.5805166141732283
20
0.2853288976377953
11
1.5934781889763778
21
0.2838685039370079
0
LINE
8
BLACK
6
CONTINUOUS
10
1.5934781889763778
20
0.2838685039370079
11
1.6065218110236219
21
0.2838685039370079
0
LINE
8
BLACK
6
CONTINUOUS
10
1.6065218110236219
20
0.2838685039370079
11
1.6194833858267716
21
0.2853288976377953
0
LINE
8
BLACK
6
CONTINUOUS
10
1.6194833858267716
20
0.2853288976377953
11
1.6321999999999999
21
0.2882313779527559
0
LINE
8
BLACK
6
CONTINUOUS
10
1.6321999999999999
20
0.2882313779527559
11
1.6445116141732283
21
0.2925394094488189
0
LINE
8
BLACK
6
CONTINUOUS
10
1.6445116141732283
20
0.2925394094488189
11
1.6562635039370079
21
0.2981988188976378
0
LINE
8
BLACK
6
CONTINUOUS
10
1.6562635039370079
20
0.2981988188976378
11
1.6673078740157481
21
0.3051384645669291
0
LINE
8
BLACK
6
CONTINUOUS
10
1.6673078740157481
20
0.3051384645669291
11
1.6775057480314961
21
0.3132710236220472
0
LINE
8
BLACK
6
CONTINUOUS
10
1.6775057480314961
20
0.3132710236220472
11
1.6867289763779527
21
0.322494251968504
0
LINE
8
BLACK
6
CONTINUOUS
10
1.6867289763779527
20
0.322494251968504
11
1.6948615354330707
21
0.332692125984252
0
LINE
8
BLACK
6
CONTINUOUS
10
1.6948615354330707
20
0.332692125984252
11
1.7018011811023621
21
0.3437364960629921
0
LINE
8
BLACK
6
CONTINUOUS
10
1.7018011811023621
20
0.3437364960629921
11
1.707460590551181
21
0.3554883858267717
0
LINE
8
BLACK
6
CONTINUOUS
10
1.707460590551181
20
0.3554883858267717
11
1.7117686220472441
21
0.3678
0
LINE
8
BLACK
6
CONTINUOUS
10
1.7117686220472441
20
0.3678
11
1.7146711023622048
21
0.3805166141732284
0
LINE
8
BLACK
6
CONTINUOUS
10
1.7146711023622048
20
0.3805166141732284
11
1.7161314960629921
21
0.3934781889763779
0
LINE
8
BLACK
6
CONTINUOUS
10
1.7161314960629921
20
0.3934781889763779
11
1.7161314960629921
21
0.4065218110236221
0
LINE
8
BLACK
6
CONTINUOUS
10
1.7161314960629921
20
0.4065218110236221
11
1.7146711023622048
21
0.4194833858267716
0
LINE
8
BLACK
6
CONTINUOUS
10
1.7146711023622048
20
0.4194833858267716
11
1.7117686220472441
21
0.4322
0
LINE
8
BLACK
6
CONTINUOUS
10
1.7117686220472441
20
0.4322
11
1.707460590551181
21
0.4445116141732283
0
LINE
8
BLACK
6
CONTINUOUS
10
1.707460590551181
20
0.4445116141732283
11
1.7018011811023621
21
0.4562635039370079
0
LINE
8
BLACK
6
CONTINUOUS
10
1.7018011811023621
20
0.4562635039370079
11
1.6948615354330707
21
0.467307874015748
0
LINE
8
BLACK
6
CONTINUOUS
10
1.6948615354330707
20
0.467307874015748
11
1.6867289763779527
21
0.477505748031496
0
LINE
8
BLACK
6
CONTINUOUS
10
1.6867289763779527
20
0.477505748031496
11
1.6775057480314961
21
0.4867289763779528
0
LINE
8
BLACK
6
CONTINUOUS
10
1.6775057480314961
20
0.4867289763779528
11
1.6673078740157481
21
0.4948615354330709
0
LINE
8
BLACK
6
CONTINUOUS
10
1.6673078740157481
20
0.4948615354330709
11
1.6562635039370079
21
0.5018011811023622
0
LINE
8
BLACK
6
CONTINUOUS
10
1.6562635039370079
20
0.5018011811023622
11
1.6445116141732283
21
0.5074605905511811
0
LINE
8
BLACK
6
CONTINUOUS
10
1.6445116141732283
20
0.5074605905511811
11
1.6321999999999999
21
0.511768622047244
0
LINE
8
BLACK
6
CONTINUOUS
10
1.6321999999999999
20
0.511768622047244
11
1.6194833858267716
21
0.5146711023622047
0
LINE
8
BLACK
6
CONTINUOUS
10
1.6194833858267716
20
0.5146711023622047
11
1.6065218110236219
21
0.5161314960629921
0
LINE
8
BLACK
6
CONTINUOUS
10
1.6065218110236219
20
0.5161314960629921
11
1.5934781889763778
21
0.5161314960629921
0
LINE
8
BLACK
6
CONTINUOUS
10
1.5934781889763778
20
0.5161314960629921
11
1.5805166141732283
21
0.5146711023622047
0
LINE
8
BLACK
6
CONTINUOUS
10
1.5805166141732283
20
0.5146711023622047
11
1.5677999999999999
21
0.511768622047244
0
LINE
8
BLACK
6
CONTINUOUS
10
1.5677999999999999
20
0.511768622047244
11
1.5554883858267716
21
0.5074605905511811
0
LINE
8
BLACK
6
CONTINUOUS
10
1.5554883858267716
20
0.5074605905511811
11
1.543736496062992
21
0.5018011811023622
0
LINE
8
BLACK
6
CONTINUOUS
10
1.543736496062992
20
0.5018011811023622
11
1.5326921259842519
21
0.4948615354330709
0
LINE
8
BLACK
6
CONTINUOUS
10
1.5326921259842519
20
0.4948615354330709
11
1.5224942519685039
21
0.4867289763779528
0
LINE
8
BLACK
6
CONTINUOUS
10
1.5224942519685039
20
0.4867289763779528
11
1.5132710236220472
21
0.477505748031496
0
LINE
8
BLACK
6
CONTINUOUS
10
1.5132710236220472
20
0.477505748031496
11
1.505138464566929
21
0.467307874015748
0
LINE
8
BLACK
6
CONTINUOUS
10
1.505138464566929
20
0.467307874015748
11
1.4981988188976378
21
0.4562635039370079
0
LINE
8
BLACK
6
CONTINUOUS
10
1.4981988188976378
20
0.4562635039370079
11
1.4925394094488189
21
0.4445116141732283
0
LINE
8
BLACK
6
CONTINUOUS
10
1.4925394094488189
20
0.4445116141732283
11
1.4882313779527558
21
0.4322
0
LINE
8
BLACK
6
CONTINUOUS
10
1.4882313779527558
20
0.4322
11
1.4853288976377952
21
0.4194833858267716
0
LINE
8
BLACK
6
CONTINUOUS
10
1.4853288976377952
20
0.4194833858267716
11
1.4838685039370079
21
0.4065218110236221
0
LINE
8
BLACK
6
CONTINUOUS
10
1.4838685039370079
20
0.4065218110236221
11
1.4838685039370079
21
0.3934781889763779
0
LINE
8
BLACK
6
CONTINUOUS
10
0.4549067716535433
20
0.9599826377952756
11
0.4559711811023622
21
0.9595417322834645
0
LINE
8
BLACK
6
CONTINUOUS
10
0.4559711811023622
20
0.9595417322834645
11
0.4567858267716535
21
0.9587270866141732
0
LINE
8
BLACK
6
CONTINUOUS
10
0.4567858267716535
20
0.9587270866141732
11
0.4572267322834646
21
0.9576626771653544
0
LINE
8
BLACK
6
CONTINUOUS
10
0.4572267322834646
20
0.9576626771653544
11
0.4572834645669291
21
0.9570866141732284
0
LINE
8
BLACK
6
CONTINUOUS
10
0.4572834645669291
20
0.9570866141732284
11
0.4572834645669291
21
0.6570866141732283
0
LINE
8
BLACK
6
CONTINUOUS
10
0.4572834645669291
20
0.6570866141732283
11
0.4572267322834646
21
0.6565105511811024
0
LINE
8
BLACK
6
CONTINUOUS
10
0.4572267322834646
20
0.6565105511811024
11
0.4567858267716535
21
0.6554461417322834
0
LINE
8
BLACK
6
CONTINUOUS
10
0.4567858267716535
20
0.6554461417322834
11
0.4559711811023622
21
0.6546314960629921
0
LINE
8
BLACK
6
CONTINUOUS
10
0.4559711811023622
20
0.6546314960629921
11
0.4549067716535433
21
0.6541905905511811
0
LINE
8
BLACK
6
CONTINUOUS
10
0.4549067716535433
20
0.6541905905511811
11
0.4543307086614173
21
0.6541338582677165
0
LINE
8
BLACK
6
CONTINUOUS
10
0.4543307086614173
20
0.6541338582677165
11
0.2543307086614173
21
0.6541338582677165
0
LINE
8
BLACK
6
CONTINUOUS
10
0.2543307086614173
20
0.6541338582677165
11
0.2537546456692913
21
0.6541905905511811
0
LINE
8
BLACK
6
CONTINUOUS
10
0.2537546456692913
20
0.6541905905511811
11
0.2526902362204724
21
0.6546314960629921
0
LINE
8
BLACK
6
CONTINUOUS
10
0.2526902362204724
20
0.6546314960629921
11
0.2518755905511811
21
0.6554461417322834
0
LINE
8
BLACK
6
CONTINUOUS
10
0.2518755905511811
20
0.6554461417322834
11
0.2514346850393701
21
0.6565105511811024
0
LINE
8
BLACK
6
CONTINUOUS
10
0.2514346850393701
20
0.6565105511811024
11
0.2513779527559055
21
0.6570866141732283
0
LINE
8
BLACK
6
CONTINUOUS
10
0.2513779527559055
20
0.6570866141732283
11
0.2513779527559055
21
0.9570866141732284
0
LINE
8
BLACK
6
CONTINUOUS
10
0.2513779527559055
20
0.9570866141732284
11
0.2514346850393701
21
0.9576626771653544
0
LINE
8
BLACK
6
CONTINUOUS
10
0.2514346850393701
20
0.9576626771653544
11
0.2518755905511811
21
0.9587270866141732
0
LINE
8
BLACK
6
CONTINUOUS
10
0.2518755905511811
20
0.9587270866141732
11
0.2526902362204724
21
0.9595417322834645
0
LINE
8
BLACK
6
CONTINUOUS
10
0.2526902362204724
20
0.9595417322834645
11
0.2537546456692913
21
0.9599826377952756
0
LINE
8
BLACK
6
CONTINUOUS
10
0.2537546456692913
20
0.9599826377952756
11
0.2543307086614173
21
0.9600393700787402
0
LINE
8
BLACK
6
CONTINUOUS
10
0.2543307086614173
20
0.9600393700787402
11
0.4543307086614173
21
0.9600393700787402
0
LINE
8
BLACK
6
CONTINUOUS
10
0.4543307086614173
20
0.9600393700787402
11
0.4549067716535433
21
0.9599826377952756
0
LINE
8
BLACK
6
CONTINUOUS
10
0.2572834645669291
20
0.9541338582677165
11
0.2572834645669291
21
0.6600393700787401
0
LINE
8
BLACK
6
CONTINUOUS
10
0.2572834645669291
20
0.6600393700787401
11
0.4513779527559055
21
0.6600393700787401
0
LINE
8
BLACK
6
CONTINUOUS
10
0.4513779527559055
20
0.6600393700787401
11
0.4513779527559055
21
0.9541338582677165
0
LINE
8
BLACK
6
CONTINUOUS
10
0.4513779527559055
20
0.9541338582677165
11
0.2572834645669291
21
0.9541338582677165
0
LINE
8
BLACK
6
CONTINUOUS
10
1.6119792913385826
20
0.8063361811023622
11
1.6120570866141732
21
0.8063416929133858
0
LINE
8
BLACK
6
CONTINUOUS
10
1.6120570866141732
20
0.8063416929133858
11
1.6121593307086615
21
0.8063184645669291
0
LINE
8
BLACK
6
CONTINUOUS
10
1.6121593307086615
20
0.8063184645669291
11
1.6122638188976377
21
0.8063081496062992
0
LINE
8
BLACK
6
CONTINUOUS
10
1.6122638188976377
20
0.8063081496062992
11
1.6123358661417322
21
0.8062783070866142
0
LINE
8
BLACK
6
CONTINUOUS
10
1.6123358661417322
20
0.8062783070866142
11
1.6126214960629921
21
0.8062133464566928
0
LINE
8
BLACK
6
CONTINUOUS
10
1.6126214960629921
20
0.8062133464566928
11
1.6197643307086613
21
0.8038323622047244
0
LINE
8
BLACK
6
CONTINUOUS
10
1.6197643307086613
20
0.8038323622047244
11
1.6202929133858268
21
0.8035963779527558
0
LINE
8
BLACK
6
CONTINUOUS
10
1.6202929133858268
20
0.8035963779527558
11
1.6203730314960629
21
0.8035268897637795
0
LINE
8
BLACK
6
CONTINUOUS
10
1.6203730314960629
20
0.8035268897637795
11
1.6204710236220472
21
0.8034862992125984
0
LINE
8
BLACK
6
CONTINUOUS
10
1.6204710236220472
20
0.8034862992125984
11
1.6209185039370078
21
0.8031190551181102
0
LINE
8
BLACK
6
CONTINUOUS
10
1.6209185039370078
20
0.8031190551181102
11
1.6256804330708661
21
0.7983571653543307
0
LINE
8
BLACK
6
CONTINUOUS
10
1.6256804330708661
20
0.7983571653543307
11
1.6260476771653543
21
0.7979097244094489
0
LINE
8
BLACK
6
CONTINUOUS
10
1.6260476771653543
20
0.7979097244094489
11
1.6260883070866141
21
0.7978116141732283
0
LINE
8
BLACK
6
CONTINUOUS
10
1.6260883070866141
20
0.7978116141732283
11
1.6261577559055118
21
0.7977315354330708
0
LINE
8
BLACK
6
CONTINUOUS
10
1.6261577559055118
20
0.7977315354330708
11
1.6263937401574802
21
0.7972029921259842
0
LINE
8
BLACK
6
CONTINUOUS
10
1.6263937401574802
20
0.7972029921259842
11
1.6287746850393701
21
0.7900601181102362
0
LINE
8
BLACK
6
CONTINUOUS
10
1.6287746850393701
20
0.7900601181102362
11
1.6288396062992125
21
0.7897745669291338
0
LINE
8
BLACK
6
CONTINUOUS
10
1.6288396062992125
20
0.7897745669291338
11
1.6288694881889763
21
0.7897024409448818
0
LINE
8
BLACK
6
CONTINUOUS
10
1.6288694881889763
20
0.7897024409448818
11
1.6288797637795276
21
0.7895979527559055
0
LINE
8
BLACK
6
CONTINUOUS
10
1.6288797637795276
20
0.7895979527559055
11
1.6289030314960629
21
0.7894956692913385
0
LINE
8
BLACK
6
CONTINUOUS
10
1.6289030314960629
20
0.7894956692913385
11
1.6288974803149605
21
0.7894179527559055
0
LINE
8
BLACK
6
CONTINUOUS
10
1.6288974803149605
20
0.7894179527559055
11
1.6289262204724408
21
0.7891263779527559
0
LINE
8
BLACK
6
CONTINUOUS
10
1.6289262204724408
20
0.7891263779527559
11
1.6289262204724408
21
0.7843644881889763
0
LINE
8
BLACK
6
CONTINUOUS
10
1.6289262204724408
20
0.7843644881889763
11
1.6288694881889763
21
0.7837884251968503
0
LINE
8
BLACK
6
CONTINUOUS
10
1.6288694881889763
20
0.7837884251968503
11
1.6284285826771654
21
0.7827240157480315
0
LINE
8
BLACK
6
CONTINUOUS
10
1.6284285826771654
20
0.7827240157480315
11
1.6276139370078739
21
0.7819093700787402
0
LINE
8
BLACK
6
CONTINUOUS
10
1.6276139370078739
20
0.7819093700787402
11
1.6265495275590551
21
0.7814684645669291
0
LINE
8
BLACK
6
CONTINUOUS
10
1.6265495275590551
20
0.7814684645669291
11
1.6253974015748032
21
0.7814684645669291
0
LINE
8
BLACK
6
CONTINUOUS
10
1.6253974015748032
20
0.7814684645669291
11
1.6243329921259841
21
0.7819093700787402
0
LINE
8
BLACK
6
CONTINUOUS
10
1.6243329921259841
20
0.7819093700787402
11
1.6235183464566929
21
0.7827240157480315
0
LINE
8
BLACK
6
CONTINUOUS
10
1.6235183464566929
20
0.7827240157480315
11
1.6230774409448818
21
0.7837884251968503
0
LINE
8
BLACK
6
CONTINUOUS
10
1.6230774409448818
20
0.7837884251968503
11
1.6230207086614172
21
0.7843644881889763
0
LINE
8
BLACK
6
CONTINUOUS
10
1.6230207086614172
20
0.7843644881889763
11
1.6230207086614172
21
0.7886472834645669
0
LINE
8
BLACK
6
CONTINUOUS
10
1.6230207086614172
20
0.7886472834645669
11
1.6210117322834645
21
0.7946742125984252
0
LINE
8
BLACK
6
CONTINUOUS
10
1.6210117322834645
20
0.7946742125984252
11
1.6172355511811023
21
0.7984503543307087
0
LINE
8
BLACK
6
CONTINUOUS
10
1.6172355511811023
20
0.7984503543307087
11
1.6112086220472441
21
0.8004593700787401
0
LINE
8
BLACK
6
CONTINUOUS
10
1.6112086220472441
20
0.8004593700787401
11
1.575973464566929
21
0.8004593700787401
0
LINE
8
BLACK
6
CONTINUOUS
10
1.575973464566929
20
0.8004593700787401
11
1.5753974015748031
21
0.8005161023622047
0
LINE
8
BLACK
6
CONTINUOUS
10
1.5753974015748031
20
0.8005161023622047
11
1.5743329921259843
21
0.8009570078740157
0
LINE
8
BLACK
6
CONTINUOUS
10
1.5743329921259843
20
0.8009570078740157
11
1.5735183464566929
21
0.801771653543307
0
LINE
8
BLACK
6
CONTINUOUS
10
1.5735183464566929
20
0.801771653543307
11
1.5730774409448818
21
0.802836062992126
0
LINE
8
BLACK
6
CONTINUOUS
10
1.5730774409448818
20
0.802836062992126
11
1.5730774409448818
21
0.8039881889763779
0
LINE
8
BLACK
6
CONTINUOUS
10
1.5730774409448818
20
0.8039881889763779
11
1.5735183464566929
21
0.8050525984251968
0
LINE
8
BLACK
6
CONTINUOUS
10
1.5735183464566929
20
0.8050525984251968
11
1.5743329921259843
21
0.8058672440944882
0
LINE
8
BLACK
6
CONTINUOUS
10
1.5743329921259843
20
0.8058672440944882
11
1.5753974015748031
21
0.8063081496062992
0
LINE
8
BLACK
6
CONTINUOUS
10
1.5753974015748031
20
0.8063081496062992
11
1.575973464566929
21
0.8063648818897637
0
LINE
8
BLACK
6
CONTINUOUS
10
1.575973464566929
20
0.8063648818897637
11
1.6116877559055118
21
0.8063648818897637
0
LINE
8
BLACK
6
CONTINUOUS
10
1.6116877559055118
20
0.8063648818897637
11
1.6119792913385826
21
0.8063361811023622
0
LINE
8
BLACK
6
CONTINUOUS
10
1.6276139370078739
20
0.8558672440944882
11
1.6284285826771654
21
0.8550525984251969
0
LINE
8
BLACK
6
CONTINUOUS
10
1.6284285826771654
20
0.8550525984251969
11
1.6288694881889763
21
0.853988188976378
0
LINE
8
BLACK
6
CONTINUOUS
10
1.6288694881889763
20
0.853988188976378
11
1.6289262204724408
21
0.853412125984252
0
LINE
8
BLACK
6
CONTINUOUS
10
1.6289262204724408
20
0.853412125984252
11
1.6289262204724408
21
0.8248406692913386
0
LINE
8
BLACK
6
CONTINUOUS
10
1.6289262204724408
20
0.8248406692913386
11
1.6288694881889763
21
0.8242646062992126
0
LINE
8
BLACK
6
CONTINUOUS
10
1.6288694881889763
20
0.8242646062992126
11
1.6284285826771654
21
0.8232001968503937
0
LINE
8
BLACK
6
CONTINUOUS
10
1.6284285826771654
20
0.8232001968503937
11
1.6276139370078739
21
0.8223855511811023
0
LINE
8
BLACK
6
CONTINUOUS
10
1.6276139370078739
20
0.8223855511811023
11
1.6265495275590551
21
0.8219446456692914
0
LINE
8
BLACK
6
CONTINUOUS
10
1.6265495275590551
20
0.8219446456692914
11
1.6253974015748032
21
0.8219446456692914
0
LINE
8
BLACK
6
CONTINUOUS
10
1.6253974015748032
20
0.8219446456692914
11
1.6243329921259841
21
0.8223855511811023
0
LINE
8
BLACK
6
CONTINUOUS
10
1.6243329921259841
20
0.8223855511811023
11
1.6235183464566929
21
0.8232001968503937
0
LINE
8
BLACK
6
CONTINUOUS
10
1.6235183464566929
20
0.8232001968503937
11
1.6230774409448818
21
0.8242646062992126
0
LINE
8
BLACK
6
CONTINUOUS
10
1.6230774409448818
20
0.8242646062992126
11
1.6230207086614172
21
0.8248406692913386
0
LINE
8
BLACK
6
CONTINUOUS
10
1.6230207086614172
20
0.8248406692913386
11
1.6230207086614172
21
0.8361736220472441
0
LINE
8
BLACK
6
CONTINUOUS
10
1.6230207086614172
20
0.8361736220472441
11
1.5854829921259843
21
0.8361736220472441
0
LINE
8
BLACK
6
CONTINUOUS
10
1.5854829921259843
20
0.8361736220472441
11
1.5899661417322835
21
0.8316905118110236
0
LINE
8
BLACK
6
CONTINUOUS
10
1.5899661417322835
20
0.8316905118110236
11
1.5901519685039369
21
0.8314641338582677
0
LINE
8
BLACK
6
CONTINUOUS
10
1.5901519685039369
20
0.8314641338582677
11
1.590210905511811
21
0.8314129921259842
0
LINE
8
BLACK
6
CONTINUOUS
10
1.590210905511811
20
0.8314129921259842
11
1.5902667716535432
21
0.8313242519685039
0
LINE
8
BLACK
6
CONTINUOUS
10
1.5902667716535432
20
0.8313242519685039
11
1.5903333858267716
21
0.8312430708661417
0
LINE
8
BLACK
6
CONTINUOUS
10
1.5903333858267716
20
0.8312430708661417
11
1.5903632283464566
21
0.8311709448818897
0
LINE
8
BLACK
6
CONTINUOUS
10
1.5903632283464566
20
0.8311709448818897
11
1.5905192519685039
21
0.8309231102362205
0
LINE
8
BLACK
6
CONTINUOUS
10
1.5905192519685039
20
0.8309231102362205
11
1.5929001968503937
21
0.8261611811023621
0
LINE
8
BLACK
6
CONTINUOUS
10
1.5929001968503937
20
0.8261611811023621
11
1.5931070866141732
21
0.8256205511811023
0
LINE
8
BLACK
6
CONTINUOUS
10
1.5931070866141732
20
0.8256205511811023
11
1.5931887401574802
21
0.8244713385826772
0
LINE
8
BLACK
6
CONTINUOUS
10
1.5931887401574802
20
0.8244713385826772
11
1.5928244094488189
21
0.8233783858267716
0
LINE
8
BLACK
6
CONTINUOUS
10
1.5928244094488189
20
0.8233783858267716
11
1.5920695275590551
21
0.822508031496063
0
LINE
8
BLACK
6
CONTINUOUS
10
1.5920695275590551
20
0.822508031496063
11
1.5910390551181102
21
0.8219927559055118
0
LINE
8
BLACK
6
CONTINUOUS
10
1.5910390551181102
20
0.8219927559055118
11
1.589889842519685
21
0.8219111023622047
0
LINE
8
BLACK
6
CONTINUOUS
10
1.589889842519685
20
0.8219111023622047
11
1.5887968897637794
21
0.8222754330708661
0
LINE
8
BLACK
6
CONTINUOUS
10
1.5887968897637794
20
0.8222754330708661
11
1.5879264960629922
21
0.8230303149606299
0
LINE
8
BLACK
6
CONTINUOUS
10
1.5879264960629922
20
0.8230303149606299
11
1.5876181496062991
21
0.8235201968503937
0
LINE
8
BLACK
6
CONTINUOUS
10
1.5876181496062991
20
0.8235201968503937
11
1.5854514960629922
21
0.8278535039370079
0
LINE
8
BLACK
6
CONTINUOUS
10
1.5854514960629922
20
0.8278535039370079
11
1.5812351968503937
21
0.8320697637795276
0
LINE
8
BLACK
6
CONTINUOUS
10
1.5812351968503937
20
0.8320697637795276
11
1.5743355511811024
21
0.8366695275590551
0
LINE
8
BLACK
6
CONTINUOUS
10
1.5743355511811024
20
0.8366695275590551
11
1.5743338582677164
21
0.836670905511811
0
LINE
8
BLACK
6
CONTINUOUS
10
1.5743338582677164
20
0.836670905511811
11
1.5743329921259843
21
0.8366712598425197
0
LINE
8
BLACK
6
CONTINUOUS
10
1.5743329921259843
20
0.8366712598425197
11
1.5743309448818896
21
0.8366733070866141
0
LINE
8
BLACK
6
CONTINUOUS
10
1.5743309448818896
20
0.8366733070866141
11
1.573887716535433
21
0.8370362992125984
0
LINE
8
BLACK
6
CONTINUOUS
10
1.573887716535433
20
0.8370362992125984
11
1.5737250393700788
21
0.8372792125984252
0
LINE
8
BLACK
6
CONTINUOUS
10
1.5737250393700788
20
0.8372792125984252
11
1.5735183464566929
21
0.837485905511811
0
LINE
8
BLACK
6
CONTINUOUS
10
1.5735183464566929
20
0.837485905511811
11
1.5734075984251967
21
0.8377532283464567
0
LINE
8
BLACK
6
CONTINUOUS
10
1.5734075984251967
20
0.8377532283464567
11
1.5732466535433069
21
0.8379935826771653
0
LINE
8
BLACK
6
CONTINUOUS
10
1.5732466535433069
20
0.8379935826771653
11
1.5731892913385825
21
0.8382802362204724
0
LINE
8
BLACK
6
CONTINUOUS
10
1.5731892913385825
20
0.8382802362204724
11
1.5730774409448818
21
0.8385503149606299
0
LINE
8
BLACK
6
CONTINUOUS
10
1.5730774409448818
20
0.8385503149606299
11
1.5730774409448818
21
0.8388396456692914
0
LINE
8
BLACK
6
CONTINUOUS
10
1.5730774409448818
20
0.8388396456692914
11
1.5730207086614172
21
0.8391232677165354
0
LINE
8
BLACK
6
CONTINUOUS
10
1.5730207086614172
20
0.8391232677165354
11
1.5730774409448818
21
0.8394100787401575
0
LINE
8
BLACK
6
CONTINUOUS
10
1.5730774409448818
20
0.8394100787401575
11
1.5730774409448818
21
0.8397024409448819
0
LINE
8
BLACK
6
CONTINUOUS
10
1.5730774409448818
20
0.8397024409448819
11
1.5731881496062992
21
0.8399697244094488
0
LINE
8
BLACK
6
CONTINUOUS
10
1.5731881496062992
20
0.8399697244094488
11
1.5732442913385827
21
0.8402535039370078
0
LINE
8
BLACK
6
CONTINUOUS
10
1.5732442913385827
20
0.8402535039370078
11
1.5734064566929133
21
0.8404967716535433
0
LINE
8
BLACK
6
CONTINUOUS
10
1.5734064566929133
20
0.8404967716535433
11
1.5735183464566929
21
0.8407668503937008
0
LINE
8
BLACK
6
CONTINUOUS
10
1.5735183464566929
20
0.8407668503937008
11
1.5737228740157481
21
0.8409714173228346
0
LINE
8
BLACK
6
CONTINUOUS
10
1.5737228740157481
20
0.8409714173228346
11
1.5738833858267716
21
0.841212125984252
0
LINE
8
BLACK
6
CONTINUOUS
10
1.5738833858267716
20
0.841212125984252
11
1.5741262598425196
21
0.8413748031496063
0
LINE
8
BLACK
6
CONTINUOUS
10
1.5741262598425196
20
0.8413748031496063
11
1.5743329921259843
21
0.8415814960629922
0
LINE
8
BLACK
6
CONTINUOUS
10
1.5743329921259843
20
0.8415814960629922
11
1.574600275590551
21
0.8416922440944882
0
LINE
8
BLACK
6
CONTINUOUS
10
1.574600275590551
20
0.8416922440944882
11
1.5748406692913386
21
0.841853188976378
0
LINE
8
BLACK
6
CONTINUOUS
10
1.5748406692913386
20
0.841853188976378
11
1.5751272834645669
21
0.8419105511811024
0
LINE
8
BLACK
6
CONTINUOUS
10
1.5751272834645669
20
0.8419105511811024
11
1.5753974015748031
21
0.8420224015748031
0
LINE
8
BLACK
6
CONTINUOUS
10
1.5753974015748031
20
0.8420224015748031
11
1.5759673228346456
21
0.8420785433070866
0
LINE
8
BLACK
6
CONTINUOUS
10
1.5759673228346456
20
0.8420785433070866
11
1.5759703543307086
21
0.8420791338582677
0
LINE
8
BLACK
6
CONTINUOUS
10
1.5759703543307086
20
0.8420791338582677
11
1.5759713779527558
21
0.842078937007874
0
LINE
8
BLACK
6
CONTINUOUS
10
1.5759713779527558
20
0.842078937007874
11
1.575973464566929
21
0.8420791338582677
0
LINE
8
BLACK
6
CONTINUOUS
10
1.575973464566929
20
0.8420791338582677
11
1.6230207086614172
21
0.8420791338582677
0
LINE
8
BLACK
6
CONTINUOUS
10
1.6230207086614172
20
0.8420791338582677
11
1.6230207086614172
21
0.853412125984252
0
LINE
8
BLACK
6
CONTINUOUS
10
1.6230207086614172
20
0.853412125984252
11
1.6230774409448818
21
0.853988188976378
0
LINE
8
BLACK
6
CONTINUOUS
10
1.6230774409448818
20
0.853988188976378
11
1.6235183464566929
21
0.8550525984251969
0
LINE
8
BLACK
6
CONTINUOUS
10
1.6235183464566929
20
0.8550525984251969
11
1.6243329921259841
21
0.8558672440944882
0
LINE
8
BLACK
6
CONTINUOUS
10
1.6243329921259841
20
0.8558672440944882
11
1.6253974015748032
21
0.8563081496062992
0
LINE
8
BLACK
6
CONTINUOUS
10
1.6253974015748032
20
0.8563081496062992
11
1.6265495275590551
21
0.8563081496062992
0
LINE
8
BLACK
6
CONTINUOUS
10
1.6265495275590551
20
0.8563081496062992
11
1.6276139370078739
21
0.8558672440944882
0
LINE
8
BLACK
6
CONTINUOUS
10
1.6203375196850394
20
0.906488188976378
11
1.6314691732283464
21
0.9035054724409448
0
LINE
8
BLACK
6
CONTINUOUS
10
1.6314691732283464
20
0.9035054724409448
11
1.6421162598425196
21
0.8990953149606299
0
LINE
8
BLACK
6
CONTINUOUS
10
1.6421162598425196
20
0.8990953149606299
11
1.652096653543307
21
0.8933331496062992
0
LINE
8
BLACK
6
CONTINUOUS
10
1.652096653543307
20
0.8933331496062992
11
1.6612394881889763
21
0.8863175590551181
0
LINE
8
BLACK
6
CONTINUOUS
10
1.6612394881889763
20
0.8863175590551181
11
1.6693884251968503
21
0.8781686220472441
0
LINE
8
BLACK
6
CONTINUOUS
10
1.6693884251968503
20
0.8781686220472441
11
1.6764040157480316
21
0.8690257874015748
0
LINE
8
BLACK
6
CONTINUOUS
10
1.6764040157480316
20
0.8690257874015748
11
1.6821661811023623
21
0.8590453937007874
0
LINE
8
BLACK
6
CONTINUOUS
10
1.6821661811023623
20
0.8590453937007874
11
1.6865763385826771
21
0.8483983070866141
0
LINE
8
BLACK
6
CONTINUOUS
10
1.6865763385826771
20
0.8483983070866141
11
1.6895590551181101
21
0.8372666535433071
0
LINE
8
BLACK
6
CONTINUOUS
10
1.6895590551181101
20
0.8372666535433071
11
1.6910633070866141
21
0.825840905511811
0
LINE
8
BLACK
6
CONTINUOUS
10
1.6910633070866141
20
0.825840905511811
11
1.6910633070866141
21
0.8143165748031496
0
LINE
8
BLACK
6
CONTINUOUS
10
1.6910633070866141
20
0.8143165748031496
11
1.6895590551181101
21
0.8028908267716536
0
LINE
8
BLACK
6
CONTINUOUS
10
1.6895590551181101
20
0.8028908267716536
11
1.6865763385826771
21
0.7917591732283464
0
LINE
8
BLACK
6
CONTINUOUS
10
1.6865763385826771
20
0.7917591732283464
11
1.6821661811023623
21
0.7811120866141732
0
LINE
8
BLACK
6
CONTINUOUS
10
1.6821661811023623
20
0.7811120866141732
11
1.6764040157480316
21
0.7711316929133858
0
LINE
8
BLACK
6
CONTINUOUS
10
1.6764040157480316
20
0.7711316929133858
11
1.6693884251968503
21
0.7619888582677166
0
LINE
8
BLACK
6
CONTINUOUS
10
1.6693884251968503
20
0.7619888582677166
11
1.6612394881889763
21
0.7538399212598424
0
LINE
8
BLACK
6
CONTINUOUS
10
1.6612394881889763
20
0.7538399212598424
11
1.652096653543307
21
0.7468243307086614
0
LINE
8
BLACK
6
CONTINUOUS
10
1.652096653543307
20
0.7468243307086614
11
1.6421162598425196
21
0.7410621653543307
0
LINE
8
BLACK
6
CONTINUOUS
10
1.6421162598425196
20
0.7410621653543307
11
1.6314691732283464
21
0.7366520078740157
0
LINE
8
BLACK
6
CONTINUOUS
10
1.6314691732283464
20
0.7366520078740157
11
1.6203375196850394
21
0.7336692913385826
0
LINE
8
BLACK
6
CONTINUOUS
10
1.6203375196850394
20
0.7336692913385826
11
1.6089117716535433
21
0.7321650393700787
0
LINE
8
BLACK
6
CONTINUOUS
10
1.6089117716535433
20
0.7321650393700787
11
1.5973874409448818
21
0.7321650393700787
0
LINE
8
BLACK
6
CONTINUOUS
10
1.5973874409448818
20
0.7321650393700787
11
1.5859616929133857
21
0.7336692913385826
0
LINE
8
BLACK
6
CONTINUOUS
10
1.5859616929133857
20
0.7336692913385826
11
1.5748300393700787
21
0.7366520078740157
0
LINE
8
BLACK
6
CONTINUOUS
10
1.5748300393700787
20
0.7366520078740157
11
1.5641829527559055
21
0.7410621653543307
0
LINE
8
BLACK
6
CONTINUOUS
10
1.5641829527559055
20
0.7410621653543307
11
1.5542025590551181
21
0.7468243307086614
0
LINE
8
BLACK
6
CONTINUOUS
10
1.5542025590551181
20
0.7468243307086614
11
1.5450597244094488
21
0.7538399212598424
0
LINE
8
BLACK
6
CONTINUOUS
10
1.5450597244094488
20
0.7538399212598424
11
1.5369107874015748
21
0.7619888582677166
0
LINE
8
BLACK
6
CONTINUOUS
10
1.5369107874015748
20
0.7619888582677166
11
1.5298951968503938
21
0.7711316929133858
0
LINE
8
BLACK
6
CONTINUOUS
10
1.5298951968503938
20
0.7711316929133858
11
1.5241330314960631
21
0.7811120866141732
0
LINE
8
BLACK
6
CONTINUOUS
10
1.5241330314960631
20
0.7811120866141732
11
1.519722874015748
21
0.7917591732283464
0
LINE
8
BLACK
6
CONTINUOUS
10
1.519722874015748
20
0.7917591732283464
11
1.516740157480315
21
0.8028908267716536
0
LINE
8
BLACK
6
CONTINUOUS
10
1.516740157480315
20
0.8028908267716536
11
1.515235905511811
21
0.8143165748031496
0
LINE
8
BLACK
6
CONTINUOUS
10
1.515235905511811
20
0.8143165748031496
11
1.515235905511811
21
0.8254662204724409
0
LINE
8
BLACK
6
CONTINUOUS
10
1.515235905511811
20
0.8254662204724409
11
1.515235905511811
21
0.825840905511811
0
LINE
8
BLACK
6
CONTINUOUS
10
1.515235905511811
20
0.825840905511811
11
1.516740157480315
21
0.8372666535433071
0
LINE
8
BLACK
6
CONTINUOUS
10
1.516740157480315
20
0.8372666535433071
11
1.519722874015748
21
0.8483983070866141
0
LINE
8
BLACK
6
CONTINUOUS
10
1.519722874015748
20
0.8483983070866141
11
1.5241330314960631
21
0.8590453937007874
0
LINE
8
BLACK
6
CONTINUOUS
10
1.5241330314960631
20
0.8590453937007874
11
1.5298951968503938
21
0.8690257874015748
0
LINE
8
BLACK
6
CONTINUOUS
10
1.5298951968503938
20
0.8690257874015748
11
1.5369107874015748
21
0.8781686220472441
0
LINE
8
BLACK
6
CONTINUOUS
10
1.5369107874015748
20
0.8781686220472441
11
1.5450597244094488
21
0.8863175590551181
0
LINE
8
BLACK
6
CONTINUOUS
10
1.5450597244094488
20
0.8863175590551181
11
1.5542025590551181
21
0.8933331496062992
0
LINE
8
BLACK
6
CONTINUOUS
10
1.5542025590551181
20
0.8933331496062992
11
1.5641829527559055
21
0.8990953149606299
0
LINE
8
BLACK
6
CONTINUOUS
10
1.5641829527559055
20
0.8990953149606299
11
1.5748300393700787
21
0.9035054724409448
0
LINE
8
BLACK
6
CONTINUOUS
10
1.5748300393700787
20
0.9035054724409448
11
1.5859616929133857
21
0.906488188976378
0
LINE
8
BLACK
6
CONTINUOUS
10
1.5859616929133857
20
0.906488188976378
11
1.5973874409448818
21
0.9079924409448819
0
LINE
8
BLACK
6
CONTINUOUS
10
1.5973874409448818
20
0.9079924409448819
11
1.6089117716535433
21
0.9079924409448819
0
LINE
8
BLACK
6
CONTINUOUS
10
1.6089117716535433
20
0.9079924409448819
11
1.6203375196850394
21
0.906488188976378
0
LINE
8
BLACK
6
CONTINUOUS
10
1.5209527952755906
20
0.8146912598425197
11
1.5223592125984251
21
0.8040085433070866
0
LINE
8
BLACK
6
CONTINUOUS
10
1.5223592125984251
20
0.8040085433070866
11
1.5251479527559055
21
0.7936007480314961
0
LINE
8
BLACK
6
CONTINUOUS
10
1.5251479527559055
20
0.7936007480314961
11
1.5292713385826771
21
0.7836460236220473
0
LINE
8
BLACK
6
CONTINUOUS
10
1.5292713385826771
20
0.7836460236220473
11
1.5346588188976378
21
0.7743146456692913
0
LINE
8
BLACK
6
CONTINUOUS
10
1.5346588188976378
20
0.7743146456692913
11
1.5412181496062991
21
0.7657663385826772
0
LINE
8
BLACK
6
CONTINUOUS
10
1.5412181496062991
20
0.7657663385826772
11
1.5488372047244094
21
0.7581472834645669
0
LINE
8
BLACK
6
CONTINUOUS
10
1.5488372047244094
20
0.7581472834645669
11
1.5573855118110236
21
0.7515879527559055
0
LINE
8
BLACK
6
CONTINUOUS
10
1.5573855118110236
20
0.7515879527559055
11
1.5667168897637795
21
0.7462004724409449
0
LINE
8
BLACK
6
CONTINUOUS
10
1.5667168897637795
20
0.7462004724409449
11
1.5766716141732282
21
0.7420770866141733
0
LINE
8
BLACK
6
CONTINUOUS
10
1.5766716141732282
20
0.7420770866141733
11
1.5870794094488188
21
0.7392883464566929
0
LINE
8
BLACK
6
CONTINUOUS
10
1.5870794094488188
20
0.7392883464566929
11
1.5977621259842518
21
0.7378819291338583
0
LINE
8
BLACK
6
CONTINUOUS
10
1.5977621259842518
20
0.7378819291338583
11
1.6085370866141733
21
0.7378819291338583
0
LINE
8
BLACK
6
CONTINUOUS
10
1.6085370866141733
20
0.7378819291338583
11
1.6192198031496063
21
0.7392883464566929
0
LINE
8
BLACK
6
CONTINUOUS
10
1.6192198031496063
20
0.7392883464566929
11
1.6296275984251969
21
0.7420770866141733
0
LINE
8
BLACK
6
CONTINUOUS
10
1.6296275984251969
20
0.7420770866141733
11
1.6395823228346456
21
0.7462004724409449
0
LINE
8
BLACK
6
CONTINUOUS
10
1.6395823228346456
20
0.7462004724409449
11
1.6489137007874015
21
0.7515879527559055
0
LINE
8
BLACK
6
CONTINUOUS
10
1.6489137007874015
20
0.7515879527559055
11
1.6574620078740157
21
0.7581472834645669
0
LINE
8
BLACK
6
CONTINUOUS
10
1.6574620078740157
20
0.7581472834645669
11
1.665081062992126
21
0.7657663385826772
0
LINE
8
BLACK
6
CONTINUOUS
10
1.665081062992126
20
0.7657663385826772
11
1.6716403937007873
21
0.7743146456692913
0
LINE
8
BLACK
6
CONTINUOUS
10
1.6716403937007873
20
0.7743146456692913
11
1.677027874015748
21
0.7836460236220473
0
LINE
8
BLACK
6
CONTINUOUS
10
1.677027874015748
20
0.7836460236220473
11
1.6811512598425196
21
0.7936007480314961
0
LINE
8
BLACK
6
CONTINUOUS
10
1.6811512598425196
20
0.7936007480314961
11
1.68394
21
0.8040085433070866
0
LINE
8
BLACK
6
CONTINUOUS
10
1.68394
20
0.8040085433070866
11
1.6853464173228345
21
0.8146912598425197
0
LINE
8
BLACK
6
CONTINUOUS
10
1.6853464173228345
20
0.8146912598425197
11
1.6853464173228345
21
0.8254662204724409
0
LINE
8
BLACK
6
CONTINUOUS
10
1.6853464173228345
20
0.8254662204724409
11
1.68394
21
0.836148937007874
0
LINE
8
BLACK
6
CONTINUOUS
10
1.68394
20
0.836148937007874
11
1.6811512598425196
21
0.8465567322834645
0
LINE
8
BLACK
6
CONTINUOUS
10
1.6811512598425196
20
0.8465567322834645
11
1.677027874015748
21
0.8565114566929134
0
LINE
8
BLACK
6
CONTINUOUS
10
1.677027874015748
20
0.8565114566929134
11
1.6716403937007873
21
0.8658428346456692
0
LINE
8
BLACK
6
CONTINUOUS
10
1.6716403937007873
20
0.8658428346456692
11
1.665081062992126
21
0.8743911417322835
0
LINE
8
BLACK
6
CONTINUOUS
10
1.665081062992126
20
0.8743911417322835
11
1.6574620078740157
21
0.8820101968503937
0
LINE
8
BLACK
6
CONTINUOUS
10
1.6574620078740157
20
0.8820101968503937
11
1.6489137007874015
21
0.8885695275590551
0
LINE
8
BLACK
6
CONTINUOUS
10
1.6489137007874015
20
0.8885695275590551
11
1.6395823228346456
21
0.8939570078740158
0
LINE
8
BLACK
6
CONTINUOUS
10
1.6395823228346456
20
0.8939570078740158
11
1.6296275984251969
21
0.8980803937007874
0
LINE
8
BLACK
6
CONTINUOUS
10
1.6296275984251969
20
0.8980803937007874
11
1.6192198031496063
21
0.9008691338582677
0
LINE
8
BLACK
6
CONTINUOUS
10
1.6192198031496063
20
0.9008691338582677
11
1.6085370866141733
21
0.9022755511811024
0
LINE
8
BLACK
6
CONTINUOUS
10
1.6085370866141733
20
0.9022755511811024
11
1.5977621259842518
21
0.9022755511811024
0
LINE
8
BLACK
6
CONTINUOUS
10
1.5977621259842518
20
0.9022755511811024
11
1.5870794094488188
21
0.9008691338582677
0
LINE
8
BLACK
6
CONTINUOUS
10
1.5870794094488188
20
0.9008691338582677
11
1.5766716141732282
21
0.8980803937007874
0
LINE
8
BLACK
6
CONTINUOUS
10
1.5766716141732282
20
0.8980803937007874
11
1.5667168897637795
21
0.8939570078740158
0
LINE
8
BLACK
6
CONTINUOUS
10
1.5667168897637795
20
0.8939570078740158
11
1.5573855118110236
21
0.8885695275590551
0
LINE
8
BLACK
6
CONTINUOUS
10
1.5573855118110236
20
0.8885695275590551
11
1.5488372047244094
21
0.8820101968503937
0
LINE
8
BLACK
6
CONTINUOUS
10
1.5488372047244094
20
0.8820101968503937
11
1.5412181496062991
21
0.8743911417322835
0
LINE
8
BLACK
6
CONTINUOUS
10
1.5412181496062991
20
0.8743911417322835
11
1.5346588188976378
21
0.8658428346456692
0
LINE
8
BLACK
6
CONTINUOUS
10
1.5346588188976378
20
0.8658428346456692
11
1.5292713385826771
21
0.8565114566929134
0
LINE
8
BLACK
6
CONTINUOUS
10
1.5292713385826771
20
0.8565114566929134
11
1.5251479527559055
21
0.8465567322834645
0
LINE
8
BLACK
6
CONTINUOUS
10
1.5251479527559055
20
0.8465567322834645
11
1.5223592125984251
21
0.836148937007874
0
LINE
8
BLACK
6
CONTINUOUS
10
1.5223592125984251
20
0.836148937007874
11
1.5209527952755906
21
0.8254662204724409
0
LINE
8
BLACK
6
CONTINUOUS
10
1.5209527952755906
20
0.8254662204724409
11
1.5209527952755906
21
0.8146912598425197
0
LINE
8
BLACK
6
CONTINUOUS
10
1.7415209448818898
20
0.9607700393700788
11
1.7425853543307086
21
0.9603291338582677
0
LINE
8
BLACK
6
CONTINUOUS
10
1.7425853543307086
20
0.9603291338582677
11
1.7434000000000001
21
0.9595144881889763
0
LINE
8
BLACK
6
CONTINUOUS
10
1.7434000000000001
20
0.9595144881889763
11
1.7438409055118109
21
0.9584500787401574
0
LINE
8
BLACK
6
CONTINUOUS
10
1.7438409055118109
20
0.9584500787401574
11
1.7438976377952755
21
0.9578740157480314
0
LINE
8
BLACK
6
CONTINUOUS
10
1.7438976377952755
20
0.9578740157480314
11
1.7438976377952755
21
0.6822834645669291
0
LINE
8
BLACK
6
CONTINUOUS
10
1.7438976377952755
20
0.6822834645669291
11
1.7438409055118109
21
0.6817074015748031
0
LINE
8
BLACK
6
CONTINUOUS
10
1.7438409055118109
20
0.6817074015748031
11
1.7434000000000001
21
0.6806429921259842
0
LINE
8
BLACK
6
CONTINUOUS
10
1.7434000000000001
20
0.6806429921259842
11
1.7425853543307086
21
0.6798283464566929
0
LINE
8
BLACK
6
CONTINUOUS
10
1.7425853543307086
20
0.6798283464566929
11
1.7415209448818898
21
0.6793874409448819
0
LINE
8
BLACK
6
CONTINUOUS
10
1.7415209448818898
20
0.6793874409448819
11
1.7409448818897637
21
0.6793307086614173
0
LINE
8
BLACK
6
CONTINUOUS
10
1.7409448818897637
20
0.6793307086614173
11
1.4653543307086614
21
0.6793307086614173
0
LINE
8
BLACK
6
CONTINUOUS
10
1.4653543307086614
20
0.6793307086614173
11
1.4647782677165353
21
0.6793874409448819
0
LINE
8
BLACK
6
CONTINUOUS
10
1.4647782677165353
20
0.6793874409448819
11
1.4637138582677165
21
0.6798283464566929
0
LINE
8
BLACK
6
CONTINUOUS
10
1.4637138582677165
20
0.6798283464566929
11
1.4628992125984253
21
0.6806429921259842
0
LINE
8
BLACK
6
CONTINUOUS
10
1.4628992125984253
20
0.6806429921259842
11
1.4624583070866142
21
0.6817074015748031
0
LINE
8
BLACK
6
CONTINUOUS
10
1.4624583070866142
20
0.6817074015748031
11
1.4624015748031496
21
0.6822834645669291
0
LINE
8
BLACK
6
CONTINUOUS
10
1.4624015748031496
20
0.6822834645669291
11
1.4624015748031496
21
0.9578740157480314
0
LINE
8
BLACK
6
CONTINUOUS
10
1.4624015748031496
20
0.9578740157480314
11
1.4624583070866142
21
0.9584500787401574
0
LINE
8
BLACK
6
CONTINUOUS
10
1.4624583070866142
20
0.9584500787401574
11
1.4628992125984253
21
0.9595144881889763
0
LINE
8
BLACK
6
CONTINUOUS
10
1.4628992125984253
20
0.9595144881889763
11
1.4637138582677165
21
0.9603291338582677
0
LINE
8
BLACK
6
CONTINUOUS
10
1.4637138582677165
20
0.9603291338582677
11
1.4647782677165353
21
0.9607700393700788
0
LINE
8
BLACK
6
CONTINUOUS
10
1.4647782677165353
20
0.9607700393700788
11
1.4653543307086614
21
0.9608267716535432
0
LINE
8
BLACK
6
CONTINUOUS
10
1.4653543307086614
20
0.9608267716535432
11
1.7409448818897637
21
0.9608267716535432
0
LINE
8
BLACK
6
CONTINUOUS
10
1.7409448818897637
20
0.9608267716535432
11
1.7415209448818898
21
0.9607700393700788
0
LINE
8
BLACK
6
CONTINUOUS
10
1.4683070866141732
20
0.7372047244094488
11
1.4683070866141732
21
0.6852362204724409
0
LINE
8
BLACK
6
CONTINUOUS
10
1.4683070866141732
20
0.6852362204724409
11
1.5202755905511811
21
0.6852362204724409
0
LINE
8
BLACK
6
CONTINUOUS
10
1.5202755905511811
20
0.6852362204724409
11
1.5202755905511811
21
0.6970472440944881
0
LINE
8
BLACK
6
CONTINUOUS
10
1.5202755905511811
20
0.6970472440944881
11
1.4830708661417322
21
0.6970472440944881
0
LINE
8
BLACK
6
CONTINUOUS
10
1.4830708661417322
20
0.6970472440944881
11
1.4824948031496064
21
0.6971039763779527
0
LINE
8
BLACK
6
CONTINUOUS
10
1.4824948031496064
20
0.6971039763779527
11
1.4814303937007873
21
0.6975448818897637
0
LINE
8
BLACK
6
CONTINUOUS
10
1.4814303937007873
20
0.6975448818897637
11
1.4806157480314961
21
0.6983595275590551
0
LINE
8
BLACK
6
CONTINUOUS
10
1.4806157480314961
20
0.6983595275590551
11
1.480174842519685
21
0.699423937007874
0
LINE
8
BLACK
6
CONTINUOUS
10
1.480174842519685
20
0.699423937007874
11
1.4801181102362204
21
0.7
0
LINE
8
BLACK
6
CONTINUOUS
10
1.4801181102362204
20
0.7
11
1.4801181102362204
21
0.7372047244094488
0
LINE
8
BLACK
6
CONTINUOUS
10
1.4801181102362204
20
0.7372047244094488
11
1.4683070866141732
21
0.7372047244094488
0
LINE
8
BLACK
6
CONTINUOUS
10
1.5261811023622047
20
0.9549212598425196
11
1.5261811023622047
21
0.9
0
LINE
8
BLACK
6
CONTINUOUS
10
1.5261811023622047
20
0.9
11
1.5261243700787401
21
0.899423937007874
0
LINE
8
BLACK
6
CONTINUOUS
10
1.5261243700787401
20
0.899423937007874
11
1.525683464566929
21
0.8983595275590551
0
LINE
8
BLACK
6
CONTINUOUS
10
1.525683464566929
20
0.8983595275590551
11
1.5248688188976378
21
0.8975448818897638
0
LINE
8
BLACK
6
CONTINUOUS
10
1.5248688188976378
20
0.8975448818897638
11
1.5238044094488188
21
0.8971039763779527
0
LINE
8
BLACK
6
CONTINUOUS
10
1.5238044094488188
20
0.8971039763779527
11
1.5232283464566929
21
0.8970472440944882
0
LINE
8
BLACK
6
CONTINUOUS
10
1.5232283464566929
20
0.8970472440944882
11
1.4683070866141732
21
0.8970472440944882
0
LINE
8
BLACK
6
CONTINUOUS
10
1.4683070866141732
20
0.8970472440944882
11
1.4683070866141732
21
0.7431102362204725
0
LINE
8
BLACK
6
CONTINUOUS
10
1.4683070866141732
20
0.7431102362204725
11
1.5232283464566929
21
0.7431102362204725
0
LINE
8
BLACK
6
CONTINUOUS
10
1.5232283464566929
20
0.7431102362204725
11
1.5238044094488188
21
0.7430535039370079
0
LINE
8
BLACK
6
CONTINUOUS
10
1.5238044094488188
20
0.7430535039370079
11
1.5248688188976378
21
0.7426125984251968
0
LINE
8
BLACK
6
CONTINUOUS
10
1.5248688188976378
20
0.7426125984251968
11
1.525683464566929
21
0.7417979527559055
0
LINE
8
BLACK
6
CONTINUOUS
10
1.525683464566929
20
0.7417979527559055
11
1.5261243700787401
21
0.7407335433070866
0
LINE
8
BLACK
6
CONTINUOUS
10
1.5261243700787401
20
0.7407335433070866
11
1.5261811023622047
21
0.7401574803149606
0
LINE
8
BLACK
6
CONTINUOUS
10
1.5261811023622047
20
0.7401574803149606
11
1.5261811023622047
21
0.6852362204724409
0
LINE
8
BLACK
6
CONTINUOUS
10
1.5261811023622047
20
0.6852362204724409
11
1.6801181102362204
21
0.6852362204724409
0
LINE
8
BLACK
6
CONTINUOUS
10
1.6801181102362204
20
0.6852362204724409
11
1.6801181102362204
21
0.7401574803149606
0
LINE
8
BLACK
6
CONTINUOUS
10
1.6801181102362204
20
0.7401574803149606
11
1.680174842519685
21
0.7407335433070866
0
LINE
8
BLACK
6
CONTINUOUS
10
1.680174842519685
20
0.7407335433070866
11
1.680615748031496
21
0.7417979527559055
0
LINE
8
BLACK
6
CONTINUOUS
10
1.680615748031496
20
0.7417979527559055
11
1.6814303937007873
21
0.7426125984251968
0
LINE
8
BLACK
6
CONTINUOUS
10
1.6814303937007873
20
0.7426125984251968
11
1.6824948031496063
21
0.7430535039370079
0
LINE
8
BLACK
6
CONTINUOUS
10
1.6824948031496063
20
0.7430535039370079
11
1.6830708661417322
21
0.7431102362204725
0
LINE
8
BLACK
6
CONTINUOUS
10
1.6830708661417322
20
0.7431102362204725
11
1.7379921259842519
21
0.7431102362204725
0
LINE
8
BLACK
6
CONTINUOUS
10
1.7379921259842519
20
0.7431102362204725
11
1.7379921259842519
21
0.8970472440944882
0
LINE
8
BLACK
6
CONTINUOUS
10
1.7379921259842519
20
0.8970472440944882
11
1.6830708661417322
21
0.8970472440944882
0
LINE
8
BLACK
6
CONTINUOUS
10
1.6830708661417322
20
0.8970472440944882
11
1.6824948031496063
21
0.8971039763779527
0
LINE
8
BLACK
6
CONTINUOUS
10
1.6824948031496063
20
0.8971039763779527
11
1.6814303937007873
21
0.8975448818897638
0
LINE
8
BLACK
6
CONTINUOUS
10
1.6814303937007873
20
0.8975448818897638
11
1.680615748031496
21
0.8983595275590551
0
LINE
8
BLACK
6
CONTINUOUS
10
1.680615748031496
20
0.8983595275590551
11
1.680174842519685
21
0.899423937007874
0
LINE
8
BLACK
6
CONTINUOUS
10
1.680174842519685
20
0.899423937007874
11
1.6801181102362204
21
0.9
0
LINE
8
BLACK
6
CONTINUOUS
10
1.6801181102362204
20
0.9
11
1.6801181102362204
21
0.9549212598425196
0
LINE
8
BLACK
6
CONTINUOUS
10
1.6801181102362204
20
0.9549212598425196
11
1.5261811023622047
21
0.9549212598425196
0
LINE
8
BLACK
6
CONTINUOUS
10
1.7261811023622047
20
0.7372047244094488
11
1.7261811023622047
21
0.7
0
LINE
8
BLACK
6
CONTINUOUS
10
1.7261811023622047
20
0.7
11
1.7261243700787401
21
0.699423937007874
0
LINE
8
BLACK
6
CONTINUOUS
10
1.7261243700787401
20
0.699423937007874
11
1.725683464566929
21
0.6983595275590551
0
LINE
8
BLACK
6
CONTINUOUS
10
1.725683464566929
20
0.6983595275590551
11
1.7248688188976378
21
0.6975448818897637
0
LINE
8
BLACK
6
CONTINUOUS
10
1.7248688188976378
20
0.6975448818897637
11
1.723804409448819
21
0.6971039763779527
0
LINE
8
BLACK
6
CONTINUOUS
10
1.723804409448819
20
0.6971039763779527
11
1.7232283464566929
21
0.6970472440944881
0
LINE
8
BLACK
6
CONTINUOUS
10
1.7232283464566929
20
0.6970472440944881
11
1.686023622047244
21
0.6970472440944881
0
LINE
8
BLACK
6
CONTINUOUS
10
1.686023622047244
20
0.6970472440944881
11
1.686023622047244
21
0.6852362204724409
0
LINE
8
BLACK
6
CONTINUOUS
10
1.686023622047244
20
0.6852362204724409
11
1.7379921259842519
21
0.6852362204724409
0
LINE
8
BLACK
6
CONTINUOUS
10
1.7379921259842519
20
0.6852362204724409
11
1.7379921259842519
21
0.7372047244094488
0
LINE
8
BLACK
6
CONTINUOUS
10
1.7379921259842519
20
0.7372047244094488
11
1.7261811023622047
21
0.7372047244094488
0
LINE
8
BLACK
6
CONTINUOUS
10
1.686023622047244
20
0.7372047244094488
11
1.686023622047244
21
0.7029527559055118
0
LINE
8
BLACK
6
CONTINUOUS
10
1.686023622047244
20
0.7029527559055118
11
1.7202755905511811
21
0.7029527559055118
0
LINE
8
BLACK
6
CONTINUOUS
10
1.7202755905511811
20
0.7029527559055118
11
1.7202755905511811
21
0.7372047244094488
0
LINE
8
BLACK
6
CONTINUOUS
10
1.7202755905511811
20
0.7372047244094488
11
1.686023622047244
21
0.7372047244094488
0
LINE
8
BLACK
6
CONTINUOUS
10
1.486023622047244
20
0.7372047244094488
11
1.486023622047244
21
0.7029527559055118
0
LINE
8
BLACK
6
CONTINUOUS
10
1.486023622047244
20
0.7029527559055118
11
1.5202755905511811
21
0.7029527559055118
0
LINE
8
BLACK
6
CONTINUOUS
10
1.5202755905511811
20
0.7029527559055118
11
1.5202755905511811
21
0.7372047244094488
0
LINE
8
BLACK
6
CONTINUOUS
10
1.5202755905511811
20
0.7372047244094488
11
1.486023622047244
21
0.7372047244094488
0
LINE
8
BLACK
6
CONTINUOUS
10
1.686023622047244
20
0.9372047244094488
11
1.686023622047244
21
0.9029527559055118
0
LINE
8
BLACK
6
CONTINUOUS
10
1.686023622047244
20
0.9029527559055118
11
1.7202755905511811
21
0.9029527559055118
0
LINE
8
BLACK
6
CONTINUOUS
10
1.7202755905511811
20
0.9029527559055118
11
1.7202755905511811
21
0.9372047244094488
0
LINE
8
BLACK
6
CONTINUOUS
10
1.7202755905511811
20
0.9372047244094488
11
1.686023622047244
21
0.9372047244094488
0
LINE
8
BLACK
6
CONTINUOUS
10
1.686023622047244
20
0.9549212598425196
11
1.686023622047244
21
0.9431102362204724
0
LINE
8
BLACK
6
CONTINUOUS
10
1.686023622047244
20
0.9431102362204724
11
1.7232283464566929
21
0.9431102362204724
0
LINE
8
BLACK
6
CONTINUOUS
10
1.7232283464566929
20
0.9431102362204724
11
1.723804409448819
21
0.9430535039370078
0
LINE
8
BLACK
6
CONTINUOUS
10
1.723804409448819
20
0.9430535039370078
11
1.7248688188976378
21
0.9426125984251968
0
LINE
8
BLACK
6
CONTINUOUS
10
1.7248688188976378
20
0.9426125984251968
11
1.725683464566929
21
0.9417979527559055
0
LINE
8
BLACK
6
CONTINUOUS
10
1.725683464566929
20
0.9417979527559055
11
1.7261243700787401
21
0.9407335433070866
0
LINE
8
BLACK
6
CONTINUOUS
10
1.7261243700787401
20
0.9407335433070866
11
1.7261811023622047
21
0.9401574803149606
0
LINE
8
BLACK
6
CONTINUOUS
10
1.7261811023622047
20
0.9401574803149606
11
1.7261811023622047
21
0.9029527559055118
0
LINE
8
BLACK
6
CONTINUOUS
10
1.7261811023622047
20
0.9029527559055118
11
1.7379921259842519
21
0.9029527559055118
0
LINE
8
BLACK
6
CONTINUOUS
10
1.7379921259842519
20
0.9029527559055118
11
1.7379921259842519
21
0.9549212598425196
0
LINE
8
BLACK
6
CONTINUOUS
10
1.7379921259842519
20
0.9549212598425196
11
1.686023622047244
21
0.9549212598425196
0
LINE
8
BLACK
6
CONTINUOUS
10
1.4683070866141732
20
0.9549212598425196
11
1.4683070866141732
21
0.9029527559055118
0
LINE
8
BLACK
6
CONTINUOUS
10
1.4683070866141732
20
0.9029527559055118
11
1.4801181102362204
21
0.9029527559055118
0
LINE
8
BLACK
6
CONTINUOUS
10
1.4801181102362204
20
0.9029527559055118
11
1.4801181102362204
21
0.9401574803149606
0
LINE
8
BLACK
6
CONTINUOUS
10
1.4801181102362204
20
0.9401574803149606
11
1.480174842519685
21
0.9407335433070866
0
LINE
8
BLACK
6
CONTINUOUS
10
1.480174842519685
20
0.9407335433070866
11
1.4806157480314961
21
0.9417979527559055
0
LINE
8
BLACK
6
CONTINUOUS
10
1.4806157480314961
20
0.9417979527559055
11
1.4814303937007873
21
0.9426125984251968
0
LINE
8
BLACK
6
CONTINUOUS
10
1.4814303937007873
20
0.9426125984251968
11
1.4824948031496064
21
0.9430535039370078
0
LINE
8
BLACK
6
CONTINUOUS
10
1.4824948031496064
20
0.9430535039370078
11
1.4830708661417322
21
0.9431102362204724
0
LINE
8
BLACK
6
CONTINUOUS
10
1.4830708661417322
20
0.9431102362204724
11
1.5202755905511811
21
0.9431102362204724
0
LINE
8
BLACK
6
CONTINUOUS
10
1.5202755905511811
20
0.9431102362204724
11
1.5202755905511811
21
0.9549212598425196
0
LINE
8
BLACK
6
CONTINUOUS
10
1.5202755905511811
20
0.9549212598425196
11
1.4683070866141732
21
0.9549212598425196
0
LINE
8
BLACK
6
CONTINUOUS
10
1.486023622047244
20
0.9372047244094488
11
1.486023622047244
21
0.9029527559055118
0
LINE
8
BLACK
6
CONTINUOUS
10
1.486023622047244
20
0.9029527559055118
11
1.5202755905511811
21
0.9029527559055118
0
LINE
8
BLACK
6
CONTINUOUS
10
1.5202755905511811
20
0.9029527559055118
11
1.5202755905511811
21
0.9372047244094488
0
LINE
8
BLACK
6
CONTINUOUS
10
1.5202755905511811
20
0.9372047244094488
11
1.486023622047244
21
0.9372047244094488
0
LINE
8
BLACK
6
CONTINUOUS
10
0.4201122047244095
20
1.3183720472440945
11
0.4332392125984252
21
1.315375905511811
0
LINE
8
BLACK
6
CONTINUOUS
10
0.4332392125984252
20
1.315375905511811
11
0.4459482283464567
21
1.3109288188976378
0
LINE
8
BLACK
6
CONTINUOUS
10
0.4459482283464567
20
1.3109288188976378
11
0.4580794094488189
21
1.3050867716535433
0
LINE
8
BLACK
6
CONTINUOUS
10
0.4580794094488189
20
1.3050867716535433
11
0.4694801968503937
21
1.2979231889763778
0
LINE
8
BLACK
6
CONTINUOUS
10
0.4694801968503937
20
1.2979231889763778
11
0.4800072440944882
21
1.2895281496062991
0
LINE
8
BLACK
6
CONTINUOUS
10
0.4800072440944882
20
1.2895281496062991
11
0.4895281496062992
21
1.2800072440944881
0
LINE
8
BLACK
6
CONTINUOUS
10
0.4895281496062992
20
1.2800072440944881
11
0.4979231889763779
21
1.2694801968503937
0
LINE
8
BLACK
6
CONTINUOUS
10
0.4979231889763779
20
1.2694801968503937
11
0.5050867716535433
21
1.2580794094488188
0
LINE
8
BLACK
6
CONTINUOUS
10
0.5050867716535433
20
1.2580794094488188
11
0.5109288188976377
21
1.2459482283464567
0
LINE
8
BLACK
6
CONTINUOUS
10
0.5109288188976377
20
1.2459482283464567
11
0.515375905511811
21
1.2332392125984251
0
LINE
8
BLACK
6
CONTINUOUS
10
0.515375905511811
20
1.2332392125984251
11
0.5183720472440945
21
1.2201122047244095
0
LINE
8
BLACK
6
CONTINUOUS
10
0.5183720472440945
20
1.2201122047244095
11
0.5198796062992126
21
1.2067322834645668
0
LINE
8
BLACK
6
CONTINUOUS
10
0.5198796062992126
20
1.2067322834645668
11
0.5198796062992126
21
1.1932677165354331
0
LINE
8
BLACK
6
CONTINUOUS
10
0.5198796062992126
20
1.1932677165354331
11
0.5183720472440945
21
1.1798877952755906
0
LINE
8
BLACK
6
CONTINUOUS
10
0.5183720472440945
20
1.1798877952755906
11
0.515375905511811
21
1.1667607874015749
0
LINE
8
BLACK
6
CONTINUOUS
10
0.515375905511811
20
1.1667607874015749
11
0.5109288188976377
21
1.1540517716535432
0
LINE
8
BLACK
6
CONTINUOUS
10
0.5109288188976377
20
1.1540517716535432
11
0.5050867716535433
21
1.1419205905511811
0
LINE
8
BLACK
6
CONTINUOUS
10
0.5050867716535433
20
1.1419205905511811
11
0.4979231889763779
21
1.1305198031496062
0
LINE
8
BLACK
6
CONTINUOUS
10
0.4979231889763779
20
1.1305198031496062
11
0.4895281496062992
21
1.1199927559055118
0
LINE
8
BLACK
6
CONTINUOUS
10
0.4895281496062992
20
1.1199927559055118
11
0.4800072440944882
21
1.1104718503937008
0
LINE
8
BLACK
6
CONTINUOUS
10
0.4800072440944882
20
1.1104718503937008
11
0.4694801968503937
21
1.1020768110236221
0
LINE
8
BLACK
6
CONTINUOUS
10
0.4694801968503937
20
1.1020768110236221
11
0.4580794094488189
21
1.0949132283464567
0
LINE
8
BLACK
6
CONTINUOUS
10
0.4580794094488189
20
1.0949132283464567
11
0.4459482283464567
21
1.0890711811023621
0
LINE
8
BLACK
6
CONTINUOUS
10
0.4459482283464567
20
1.0890711811023621
11
0.4332392125984252
21
1.0846240944881889
0
LINE
8
BLACK
6
CONTINUOUS
10
0.4332392125984252
20
1.0846240944881889
11
0.4201122047244095
21
1.0816279527559054
0
LINE
8
BLACK
6
CONTINUOUS
10
0.4201122047244095
20
1.0816279527559054
11
0.4067322834645669
21
1.0801203937007873
0
LINE
8
BLACK
6
CONTINUOUS
10
0.4067322834645669
20
1.0801203937007873
11
0.3932677165354331
21
1.0801203937007873
0
LINE
8
BLACK
6
CONTINUOUS
10
0.3932677165354331
20
1.0801203937007873
11
0.3798877952755905
21
1.0816279527559054
0
LINE
8
BLACK
6
CONTINUOUS
10
0.3798877952755905
20
1.0816279527559054
11
0.3667607874015748
21
1.0846240944881889
0
LINE
8
BLACK
6
CONTINUOUS
10
0.3667607874015748
20
1.0846240944881889
11
0.3540517716535433
21
1.0890711811023621
0
LINE
8
BLACK
6
CONTINUOUS
10
0.3540517716535433
20
1.0890711811023621
11
0.3419205905511811
21
1.0949132283464567
0
LINE
8
BLACK
6
CONTINUOUS
10
0.3419205905511811
20
1.0949132283464567
11
0.3305198031496063
21
1.1020768110236221
0
LINE
8
BLACK
6
CONTINUOUS
10
0.3305198031496063
20
1.1020768110236221
11
0.3199927559055118
21
1.1104718503937008
0
LINE
8
BLACK
6
CONTINUOUS
10
0.3199927559055118
20
1.1104718503937008
11
0.3104718503937008
21
1.1199927559055118
0
LINE
8
BLACK
6
CONTINUOUS
10
0.3104718503937008
20
1.1199927559055118
11
0.302076811023622
21
1.1305198031496062
0
LINE
8
BLACK
6
CONTINUOUS
10
0.302076811023622
20
1.1305198031496062
11
0.2949132283464567
21
1.1419205905511811
0
LINE
8
BLACK
6
CONTINUOUS
10
0.2949132283464567
20
1.1419205905511811
11
0.2890711811023622
21
1.1540517716535432
0
LINE
8
BLACK
6
CONTINUOUS
10
0.2890711811023622
20
1.1540517716535432
11
0.284624094488189
21
1.1667607874015749
0
LINE
8
BLACK
6
CONTINUOUS
10
0.284624094488189
20
1.1667607874015749
11
0.2816279527559055
21
1.1798877952755906
0
LINE
8
BLACK
6
CONTINUOUS
10
0.2816279527559055
20
1.1798877952755906
11
0.2801203937007874
21
1.1932677165354331
0
LINE
8
BLACK
6
CONTINUOUS
10
0.2801203937007874
20
1.1932677165354331
11
0.2801203937007874
21
1.206521811023622
0
LINE
8
BLACK
6
CONTINUOUS
10
0.2801203937007874
20
1.206521811023622
11
0.2801203937007874
21
1.2067322834645668
0
LINE
8
BLACK
6
CONTINUOUS
10
0.2801203937007874
20
1.2067322834645668
11
0.2816279527559055
21
1.2201122047244095
0
LINE
8
BLACK
6
CONTINUOUS
10
0.2816279527559055
20
1.2201122047244095
11
0.284624094488189
21
1.2332392125984251
0
LINE
8
BLACK
6
CONTINUOUS
10
0.284624094488189
20
1.2332392125984251
11
0.2890711811023622
21
1.2459482283464567
0
LINE
8
BLACK
6
CONTINUOUS
10
0.2890711811023622
20
1.2459482283464567
11
0.2949132283464567
21
1.2580794094488188
0
LINE
8
BLACK
6
CONTINUOUS
10
0.2949132283464567
20
1.2580794094488188
11
0.302076811023622
21
1.2694801968503937
0
LINE
8
BLACK
6
CONTINUOUS
10
0.302076811023622
20
1.2694801968503937
11
0.3104718503937008
21
1.2800072440944881
0
LINE
8
BLACK
6
CONTINUOUS
10
0.3104718503937008
20
1.2800072440944881
11
0.3199927559055118
21
1.2895281496062991
0
LINE
8
BLACK
6
CONTINUOUS
10
0.3199927559055118
20
1.2895281496062991
11
0.3305198031496063
21
1.2979231889763778
0
LINE
8
BLACK
6
CONTINUOUS
10
0.3305198031496063
20
1.2979231889763778
11
0.3419205905511811
21
1.3050867716535433
0
LINE
8
BLACK
6
CONTINUOUS
10
0.3419205905511811
20
1.3050867716535433
11
0.3540517716535433
21
1.3109288188976378
0
LINE
8
BLACK
6
CONTINUOUS
10
0.3540517716535433
20
1.3109288188976378
11
0.3667607874015748
21
1.315375905511811
0
LINE
8
BLACK
6
CONTINUOUS
10
0.3667607874015748
20
1.315375905511811
11
0.3798877952755905
21
1.3183720472440945
0
LINE
8
BLACK
6
CONTINUOUS
10
0.3798877952755905
20
1.3183720472440945
11
0.3932677165354331
21
1.3198796062992126
0
LINE
8
BLACK
6
CONTINUOUS
10
0.3932677165354331
20
1.3198796062992126
11
0.4067322834645669
21
1.3198796062992126
0
LINE
8
BLACK
6
CONTINUOUS
10
0.4067322834645669
20
1.3198796062992126
11
0.4201122047244095
21
1.3183720472440945
0
LINE
8
BLACK
6
CONTINUOUS
10
0.2838685039370079
20
1.1934781889763779
11
0.2853288976377953
21
1.1805166141732284
0
LINE
8
BLACK
6
CONTINUOUS
10
0.2853288976377953
20
1.1805166141732284
11
0.2882313779527559
21
1.1677999999999999
0
LINE
8
BLACK
6
CONTINUOUS
10
0.2882313779527559
20
1.1677999999999999
11
0.2925394094488189
21
1.1554883858267717
0
LINE
8
BLACK
6
CONTINUOUS
10
0.2925394094488189
20
1.1554883858267717
11
0.2981988188976378
21
1.1437364960629921
0
LINE
8
BLACK
6
CONTINUOUS
10
0.2981988188976378
20
1.1437364960629921
11
0.3051384645669291
21
1.132692125984252
0
LINE
8
BLACK
6
CONTINUOUS
10
0.3051384645669291
20
1.132692125984252
11
0.3132710236220472
21
1.1224942519685039
0
LINE
8
BLACK
6
CONTINUOUS
10
0.3132710236220472
20
1.1224942519685039
11
0.322494251968504
21
1.1132710236220473
0
LINE
8
BLACK
6
CONTINUOUS
10
0.322494251968504
20
1.1132710236220473
11
0.332692125984252
21
1.1051384645669291
0
LINE
8
BLACK
6
CONTINUOUS
10
0.332692125984252
20
1.1051384645669291
11
0.3437364960629921
21
1.0981988188976377
0
LINE
8
BLACK
6
CONTINUOUS
10
0.3437364960629921
20
1.0981988188976377
11
0.3554883858267717
21
1.0925394094488188
0
LINE
8
BLACK
6
CONTINUOUS
10
0.3554883858267717
20
1.0925394094488188
11
0.3678
21
1.0882313779527559
0
LINE
8
BLACK
6
CONTINUOUS
10
0.3678
20
1.0882313779527559
11
0.3805166141732284
21
1.0853288976377953
0
LINE
8
BLACK
6
CONTINUOUS
10
0.3805166141732284
20
1.0853288976377953
11
0.3934781889763779
21
1.083868503937008
0
LINE
8
BLACK
6
CONTINUOUS
10
0.3934781889763779
20
1.083868503937008
11
0.4065218110236221
21
1.083868503937008
0
LINE
8
BLACK
6
CONTINUOUS
10
0.4065218110236221
20
1.083868503937008
11
0.4194833858267716
21
1.0853288976377953
0
LINE
8
BLACK
6
CONTINUOUS
10
0.4194833858267716
20
1.0853288976377953
11
0.4322
21
1.0882313779527559
0
LINE
8
BLACK
6
CONTINUOUS
10
0.4322
20
1.0882313779527559
11
0.4445116141732283
21
1.0925394094488188
0
LINE
8
BLACK
6
CONTINUOUS
10
0.4445116141732283
20
1.0925394094488188
11
0.4562635039370079
21
1.0981988188976377
0
LINE
8
BLACK
6
CONTINUOUS
10
0.4562635039370079
20
1.0981988188976377
11
0.467307874015748
21
1.1051384645669291
0
LINE
8
BLACK
6
CONTINUOUS
10
0.467307874015748
20
1.1051384645669291
11
0.477505748031496
21
1.1132710236220473
0
LINE
8
BLACK
6
CONTINUOUS
10
0.477505748031496
20
1.1132710236220473
11
0.4867289763779528
21
1.1224942519685039
0
LINE
8
BLACK
6
CONTINUOUS
10
0.4867289763779528
20
1.1224942519685039
11
0.4948615354330709
21
1.132692125984252
0
LINE
8
BLACK
6
CONTINUOUS
10
0.4948615354330709
20
1.132692125984252
11
0.5018011811023622
21
1.1437364960629921
0
LINE
8
BLACK
6
CONTINUOUS
10
0.5018011811023622
20
1.1437364960629921
11
0.5074605905511811
21
1.1554883858267717
0
LINE
8
BLACK
6
CONTINUOUS
10
0.5074605905511811
20
1.1554883858267717
11
0.511768622047244
21
1.1677999999999999
0
LINE
8
BLACK
6
CONTINUOUS
10
0.511768622047244
20
1.1677999999999999
11
0.5146711023622047
21
1.1805166141732284
0
LINE
8
BLACK
6
CONTINUOUS
10
0.5146711023622047
20
1.1805166141732284
11
0.5161314960629921
21
1.1934781889763779
0
LINE
8
BLACK
6
CONTINUOUS
10
0.5161314960629921
20
1.1934781889763779
11
0.5161314960629921
21
1.206521811023622
0
LINE
8
BLACK
6
CONTINUOUS
10
0.5161314960629921
20
1.206521811023622
11
0.5146711023622047
21
1.2194833858267715
0
LINE
8
BLACK
6
CONTINUOUS
10
0.5146711023622047
20
1.2194833858267715
11
0.511768622047244
21
1.2322
0
LINE
8
BLACK
6
CONTINUOUS
10
0.511768622047244
20
1.2322
11
0.5074605905511811
21
1.2445116141732284
0
LINE
8
BLACK
6
CONTINUOUS
10
0.5074605905511811
20
1.2445116141732284
11
0.5018011811023622
21
1.2562635039370078
0
LINE
8
BLACK
6
CONTINUOUS
10
0.5018011811023622
20
1.2562635039370078
11
0.4948615354330709
21
1.267307874015748
0
LINE
8
BLACK
6
CONTINUOUS
10
0.4948615354330709
20
1.267307874015748
11
0.4867289763779528
21
1.277505748031496
0
LINE
8
BLACK
6
CONTINUOUS
10
0.4867289763779528
20
1.277505748031496
11
0.477505748031496
21
1.2867289763779528
0
LINE
8
BLACK
6
CONTINUOUS
10
0.477505748031496
20
1.2867289763779528
11
0.467307874015748
21
1.2948615354330708
0
LINE
8
BLACK
6
CONTINUOUS
10
0.467307874015748
20
1.2948615354330708
11
0.4562635039370079
21
1.3018011811023622
0
LINE
8
BLACK
6
CONTINUOUS
10
0.4562635039370079
20
1.3018011811023622
11
0.4445116141732283
21
1.3074605905511811
0
LINE
8
BLACK
6
CONTINUOUS
10
0.4445116141732283
20
1.3074605905511811
11
0.4322
21
1.311768622047244
0
LINE
8
BLACK
6
CONTINUOUS
10
0.4322
20
1.311768622047244
11
0.4194833858267716
21
1.3146711023622046
0
LINE
8
BLACK
6
CONTINUOUS
10
0.4194833858267716
20
1.3146711023622046
11
0.4065218110236221
21
1.3161314960629922
0
LINE
8
BLACK
6
CONTINUOUS
10
0.4065218110236221
20
1.3161314960629922
11
0.3934781889763779
21
1.3161314960629922
0
LINE
8
BLACK
6
CONTINUOUS
10
0.3934781889763779
20
1.3161314960629922
11
0.3805166141732284
21
1.3146711023622046
0
LINE
8
BLACK
6
CONTINUOUS
10
0.3805166141732284
20
1.3146711023622046
11
0.3678
21
1.311768622047244
0
LINE
8
BLACK
6
CONTINUOUS
10
0.3678
20
1.311768622047244
11
0.3554883858267717
21
1.3074605905511811
0
LINE
8
BLACK
6
CONTINUOUS
10
0.3554883858267717
20
1.3074605905511811
11
0.3437364960629921
21
1.3018011811023622
0
LINE
8
BLACK
6
CONTINUOUS
10
0.3437364960629921
20
1.3018011811023622
11
0.332692125984252
21
1.2948615354330708
0
LINE
8
BLACK
6
CONTINUOUS
10
0.332692125984252
20
1.2948615354330708
11
0.322494251968504
21
1.2867289763779528
0
LINE
8
BLACK
6
CONTINUOUS
10
0.322494251968504
20
1.2867289763779528
11
0.3132710236220472
21
1.277505748031496
0
LINE
8
BLACK
6
CONTINUOUS
10
0.3132710236220472
20
1.277505748031496
11
0.3051384645669291
21
1.267307874015748
0
LINE
8
BLACK
6
CONTINUOUS
10
0.3051384645669291
20
1.267307874015748
11
0.2981988188976378
21
1.2562635039370078
0
LINE
8
BLACK
6
CONTINUOUS
10
0.2981988188976378
20
1.2562635039370078
11
0.2925394094488189
21
1.2445116141732284
0
LINE
8
BLACK
6
CONTINUOUS
10
0.2925394094488189
20
1.2445116141732284
11
0.2882313779527559
21
1.2322
0
LINE
8
BLACK
6
CONTINUOUS
10
0.2882313779527559
20
1.2322
11
0.2853288976377953
21
1.2194833858267715
0
LINE
8
BLACK
6
CONTINUOUS
10
0.2853288976377953
20
1.2194833858267715
11
0.2838685039370079
21
1.206521811023622
0
LINE
8
BLACK
6
CONTINUOUS
10
0.2838685039370079
20
1.206521811023622
11
0.2838685039370079
21
1.1934781889763779
0
LINE
8
BLACK
6
CONTINUOUS
10
1.6201122047244094
20
1.3183720472440945
11
1.6332392125984252
21
1.315375905511811
0
LINE
8
BLACK
6
CONTINUOUS
10
1.6332392125984252
20
1.315375905511811
11
1.6459482283464566
21
1.3109288188976378
0
LINE
8
BLACK
6
CONTINUOUS
10
1.6459482283464566
20
1.3109288188976378
11
1.6580794094488189
21
1.3050867716535433
0
LINE
8
BLACK
6
CONTINUOUS
10
1.6580794094488189
20
1.3050867716535433
11
1.6694801968503936
21
1.2979231889763778
0
LINE
8
BLACK
6
CONTINUOUS
10
1.6694801968503936
20
1.2979231889763778
11
1.6800072440944882
21
1.2895281496062991
0
LINE
8
BLACK
6
CONTINUOUS
10
1.6800072440944882
20
1.2895281496062991
11
1.6895281496062993
21
1.2800072440944881
0
LINE
8
BLACK
6
CONTINUOUS
10
1.6895281496062993
20
1.2800072440944881
11
1.697923188976378
21
1.2694801968503937
0
LINE
8
BLACK
6
CONTINUOUS
10
1.697923188976378
20
1.2694801968503937
11
1.7050867716535432
21
1.2580794094488188
0
LINE
8
BLACK
6
CONTINUOUS
10
1.7050867716535432
20
1.2580794094488188
11
1.7109288188976377
21
1.2459482283464567
0
LINE
8
BLACK
6
CONTINUOUS
10
1.7109288188976377
20
1.2459482283464567
11
1.715375905511811
21
1.2332392125984251
0
LINE
8
BLACK
6
CONTINUOUS
10
1.715375905511811
20
1.2332392125984251
11
1.7183720472440944
21
1.2201122047244095
0
LINE
8
BLACK
6
CONTINUOUS
10
1.7183720472440944
20
1.2201122047244095
11
1.7198796062992125
21
1.2067322834645668
0
LINE
8
BLACK
6
CONTINUOUS
10
1.7198796062992125
20
1.2067322834645668
11
1.7198796062992125
21
1.1932677165354331
0
LINE
8
BLACK
6
CONTINUOUS
10
1.7198796062992125
20
1.1932677165354331
11
1.7183720472440944
21
1.1798877952755906
0
LINE
8
BLACK
6
CONTINUOUS
10
1.7183720472440944
20
1.1798877952755906
11
1.715375905511811
21
1.1667607874015749
0
LINE
8
BLACK
6
CONTINUOUS
10
1.715375905511811
20
1.1667607874015749
11
1.7109288188976377
21
1.1540517716535432
0
LINE
8
BLACK
6
CONTINUOUS
10
1.7109288188976377
20
1.1540517716535432
11
1.7050867716535432
21
1.1419205905511811
0
LINE
8
BLACK
6
CONTINUOUS
10
1.7050867716535432
20
1.1419205905511811
11
1.697923188976378
21
1.1305198031496062
0
LINE
8
BLACK
6
CONTINUOUS
10
1.697923188976378
20
1.1305198031496062
11
1.6895281496062993
21
1.1199927559055118
0
LINE
8
BLACK
6
CONTINUOUS
10
1.6895281496062993
20
1.1199927559055118
11
1.6800072440944882
21
1.1104718503937008
0
LINE
8
BLACK
6
CONTINUOUS
10
1.6800072440944882
20
1.1104718503937008
11
1.6694801968503936
21
1.1020768110236221
0
LINE
8
BLACK
6
CONTINUOUS
10
1.6694801968503936
20
1.1020768110236221
11
1.6580794094488189
21
1.0949132283464567
0
LINE
8
BLACK
6
CONTINUOUS
10
1.6580794094488189
20
1.0949132283464567
11
1.6459482283464566
21
1.0890711811023621
0
LINE
8
BLACK
6
CONTINUOUS
10
1.6459482283464566
20
1.0890711811023621
11
1.6332392125984252
21
1.0846240944881889
0
LINE
8
BLACK
6
CONTINUOUS
10
1.6332392125984252
20
1.0846240944881889
11
1.6201122047244094
21
1.0816279527559054
0
LINE
8
BLACK
6
CONTINUOUS
10
1.6201122047244094
20
1.0816279527559054
11
1.606732283464567
21
1.0801203937007873
0
LINE
8
BLACK
6
CONTINUOUS
10
1.606732283464567
20
1.0801203937007873
11
1.593267716535433
21
1.0801203937007873
0
LINE
8
BLACK
6
CONTINUOUS
10
1.593267716535433
20
1.0801203937007873
11
1.5798877952755905
21
1.0816279527559054
0
LINE
8
BLACK
6
CONTINUOUS
10
1.5798877952755905
20
1.0816279527559054
11
1.5667607874015748
21
1.0846240944881889
0
LINE
8
BLACK
6
CONTINUOUS
10
1.5667607874015748
20
1.0846240944881889
11
1.5540517716535434
21
1.0890711811023621
0
LINE
8
BLACK
6
CONTINUOUS
10
1.5540517716535434
20
1.0890711811023621
11
1.541920590551181
21
1.0949132283464567
0
LINE
8
BLACK
6
CONTINUOUS
10
1.541920590551181
20
1.0949132283464567
11
1.5305198031496063
21
1.1020768110236221
0
LINE
8
BLACK
6
CONTINUOUS
10
1.5305198031496063
20
1.1020768110236221
11
1.5199927559055117
21
1.1104718503937008
0
LINE
8
BLACK
6
CONTINUOUS
10
1.5199927559055117
20
1.1104718503937008
11
1.5104718503937007
21
1.1199927559055118
0
LINE
8
BLACK
6
CONTINUOUS
10
1.5104718503937007
20
1.1199927559055118
11
1.502076811023622
21
1.1305198031496062
0
LINE
8
BLACK
6
CONTINUOUS
10
1.502076811023622
20
1.1305198031496062
11
1.4949132283464566
21
1.1419205905511811
0
LINE
8
BLACK
6
CONTINUOUS
10
1.4949132283464566
20
1.1419205905511811
11
1.4890711811023623
21
1.1540517716535432
0
LINE
8
BLACK
6
CONTINUOUS
10
1.4890711811023623
20
1.1540517716535432
11
1.484624094488189
21
1.1667607874015749
0
LINE
8
BLACK
6
CONTINUOUS
10
1.484624094488189
20
1.1667607874015749
11
1.4816279527559055
21
1.1798877952755906
0
LINE
8
BLACK
6
CONTINUOUS
10
1.4816279527559055
20
1.1798877952755906
11
1.4801203937007874
21
1.1932677165354331
0
LINE
8
BLACK
6
CONTINUOUS
10
1.4801203937007874
20
1.1932677165354331
11
1.4801203937007874
21
1.206521811023622
0
LINE
8
BLACK
6
CONTINUOUS
10
1.4801203937007874
20
1.206521811023622
11
1.4801203937007874
21
1.2067322834645668
0
LINE
8
BLACK
6
CONTINUOUS
10
1.4801203937007874
20
1.2067322834645668
11
1.4816279527559055
21
1.2201122047244095
0
LINE
8
BLACK
6
CONTINUOUS
10
1.4816279527559055
20
1.2201122047244095
11
1.484624094488189
21
1.2332392125984251
0
LINE
8
BLACK
6
CONTINUOUS
10
1.484624094488189
20
1.2332392125984251
11
1.4890711811023623
21
1.2459482283464567
0
LINE
8
BLACK
6
CONTINUOUS
10
1.4890711811023623
20
1.2459482283464567
11
1.4949132283464566
21
1.2580794094488188
0
LINE
8
BLACK
6
CONTINUOUS
10
1.4949132283464566
20
1.2580794094488188
11
1.502076811023622
21
1.2694801968503937
0
LINE
8
BLACK
6
CONTINUOUS
10
1.502076811023622
20
1.2694801968503937
11
1.5104718503937007
21
1.2800072440944881
0
LINE
8
BLACK
6
CONTINUOUS
10
1.5104718503937007
20
1.2800072440944881
11
1.5199927559055117
21
1.2895281496062991
0
LINE
8
BLACK
6
CONTINUOUS
10
1.5199927559055117
20
1.2895281496062991
11
1.5305198031496063
21
1.2979231889763778
0
LINE
8
BLACK
6
CONTINUOUS
10
1.5305198031496063
20
1.2979231889763778
11
1.541920590551181
21
1.3050867716535433
0
LINE
8
BLACK
6
CONTINUOUS
10
1.541920590551181
20
1.3050867716535433
11
1.5540517716535434
21
1.3109288188976378
0
LINE
8
BLACK
6
CONTINUOUS
10
1.5540517716535434
20
1.3109288188976378
11
1.5667607874015748
21
1.315375905511811
0
LINE
8
BLACK
6
CONTINUOUS
10
1.5667607874015748
20
1.315375905511811
11
1.5798877952755905
21
1.3183720472440945
0
LINE
8
BLACK
6
CONTINUOUS
10
1.5798877952755905
20
1.3183720472440945
11
1.593267716535433
21
1.3198796062992126
0
LINE
8
BLACK
6
CONTINUOUS
10
1.593267716535433
20
1.3198796062992126
11
1.606732283464567
21
1.3198796062992126
0
LINE
8
BLACK
6
CONTINUOUS
10
1.606732283464567
20
1.3198796062992126
11
1.6201122047244094
21
1.3183720472440945
0
LINE
8
BLACK
6
CONTINUOUS
10
1.4838685039370079
20
1.1934781889763779
11
1.4853288976377952
21
1.1805166141732284
0
LINE
8
BLACK
6
CONTINUOUS
10
1.4853288976377952
20
1.1805166141732284
11
1.4882313779527558
21
1.1677999999999999
0
LINE
8
BLACK
6
CONTINUOUS
10
1.4882313779527558
20
1.1677999999999999
11
1.4925394094488189
21
1.1554883858267717
0
LINE
8
BLACK
6
CONTINUOUS
10
1.4925394094488189
20
1.1554883858267717
11
1.4981988188976378
21
1.1437364960629921
0
LINE
8
BLACK
6
CONTINUOUS
10
1.4981988188976378
20
1.1437364960629921
11
1.505138464566929
21
1.132692125984252
0
LINE
8
BLACK
6
CONTINUOUS
10
1.505138464566929
20
1.132692125984252
11
1.5132710236220472
21
1.1224942519685039
0
LINE
8
BLACK
6
CONTINUOUS
10
1.5132710236220472
20
1.1224942519685039
11
1.5224942519685039
21
1.1132710236220473
0
LINE
8
BLACK
6
CONTINUOUS
10
1.5224942519685039
20
1.1132710236220473
11
1.5326921259842519
21
1.1051384645669291
0
LINE
8
BLACK
6
CONTINUOUS
10
1.5326921259842519
20
1.1051384645669291
11
1.543736496062992
21
1.0981988188976377
0
LINE
8
BLACK
6
CONTINUOUS
10
1.543736496062992
20
1.0981988188976377
11
1.5554883858267716
21
1.0925394094488188
0
LINE
8
BLACK
6
CONTINUOUS
10
1.5554883858267716
20
1.0925394094488188
11
1.5677999999999999
21
1.0882313779527559
0
LINE
8
BLACK
6
CONTINUOUS
10
1.5677999999999999
20
1.0882313779527559
11
1.5805166141732283
21
1.0853288976377953
0
LINE
8
BLACK
6
CONTINUOUS
10
1.5805166141732283
20
1.0853288976377953
11
1.5934781889763778
21
1.083868503937008
0
LINE
8
BLACK
6
CONTINUOUS
10
1.5934781889763778
20
1.083868503937008
11
1.6065218110236219
21
1.083868503937008
0
LINE
8
BLACK
6
CONTINUOUS
10
1.6065218110236219
20
1.083868503937008
11
1.6194833858267716
21
1.0853288976377953
0
LINE
8
BLACK
6
CONTINUOUS
10
1.6194833858267716
20
1.0853288976377953
11
1.6321999999999999
21
1.0882313779527559
0
LINE
8
BLACK
6
CONTINUOUS
10
1.6321999999999999
20
1.0882313779527559
11
1.6445116141732283
21
1.0925394094488188
0
LINE
8
BLACK
6
CONTINUOUS
10
1.6445116141732283
20
1.0925394094488188
11
1.6562635039370079
21
1.0981988188976377
0
LINE
8
BLACK
6
CONTINUOUS
10
1.6562635039370079
20
1.0981988188976377
11
1.6673078740157481
21
1.1051384645669291
0
LINE
8
BLACK
6
CONTINUOUS
10
1.6673078740157481
20
1.1051384645669291
11
1.6775057480314961
21
1.1132710236220473
0
LINE
8
BLACK
6
CONTINUOUS
10
1.6775057480314961
20
1.1132710236220473
11
1.6867289763779527
21
1.1224942519685039
0
LINE
8
BLACK
6
CONTINUOUS
10
1.6867289763779527
20
1.1224942519685039
11
1.6948615354330707
21
1.132692125984252
0
LINE
8
BLACK
6
CONTINUOUS
10
1.6948615354330707
20
1.132692125984252
11
1.7018011811023621
21
1.1437364960629921
0
LINE
8
BLACK
6
CONTINUOUS
10
1.7018011811023621
20
1.1437364960629921
11
1.707460590551181
21
1.1554883858267717
0
LINE
8
BLACK
6
CONTINUOUS
10
1.707460590551181
20
1.1554883858267717
11
1.7117686220472441
21
1.1677999999999999
0
LINE
8
BLACK
6
CONTINUOUS
10
1.7117686220472441
20
1.1677999999999999
11
1.7146711023622048
21
1.1805166141732284
0
LINE
8
BLACK
6
CONTINUOUS
10
1.7146711023622048
20
1.1805166141732284
11
1.7161314960629921
21
1.1934781889763779
0
LINE
8
BLACK
6
CONTINUOUS
10
1.7161314960629921
20
1.1934781889763779
11
1.7161314960629921
21
1.206521811023622
0
LINE
8
BLACK
6
CONTINUOUS
10
1.7161314960629921
20
1.206521811023622
11
1.7146711023622048
21
1.2194833858267715
0
LINE
8
BLACK
6
CONTINUOUS
10
1.7146711023622048
20
1.2194833858267715
11
1.7117686220472441
21
1.2322
0
LINE
8
BLACK
6
CONTINUOUS
10
1.7117686220472441
20
1.2322
11
1.707460590551181
21
1.2445116141732284
0
LINE
8
BLACK
6
CONTINUOUS
10
1.707460590551181
20
1.2445116141732284
11
1.7018011811023621
21
1.2562635039370078
0
LINE
8
BLACK
6
CONTINUOUS
10
1.7018011811023621
20
1.2562635039370078
11
1.6948615354330707
21
1.267307874015748
0
LINE
8
BLACK
6
CONTINUOUS
10
1.6948615354330707
20
1.267307874015748
11
1.6867289763779527
21
1.277505748031496
0
LINE
8
BLACK
6
CONTINUOUS
10
1.6867289763779527
20
1.277505748031496
11
1.6775057480314961
21
1.2867289763779528
0
LINE
8
BLACK
6
CONTINUOUS
10
1.6775057480314961
20
1.2867289763779528
11
1.6673078740157481
21
1.2948615354330708
0
LINE
8
BLACK
6
CONTINUOUS
10
1.6673078740157481
20
1.2948615354330708
11
1.6562635039370079
21
1.3018011811023622
0
LINE
8
BLACK
6
CONTINUOUS
10
1.6562635039370079
20
1.3018011811023622
11
1.6445116141732283
21
1.3074605905511811
0
LINE
8
BLACK
6
CONTINUOUS
10
1.6445116141732283
20
1.3074605905511811
11
1.6321999999999999
21
1.311768622047244
0
LINE
8
BLACK
6
CONTINUOUS
10
1.6321999999999999
20
1.311768622047244
11
1.6194833858267716
21
1.3146711023622046
0
LINE
8
BLACK
6
CONTINUOUS
10
1.6194833858267716
20
1.3146711023622046
11
1.6065218110236219
21
1.3161314960629922
0
LINE
8
BLACK
6
CONTINUOUS
10
1.6065218110236219
20
1.3161314960629922
11
1.5934781889763778
21
1.3161314960629922
0
LINE
8
BLACK
6
CONTINUOUS
10
1.5934781889763778
20
1.3161314960629922
11
1.5805166141732283
21
1.3146711023622046
0
LINE
8
BLACK
6
CONTINUOUS
10
1.5805166141732283
20
1.3146711023622046
11
1.5677999999999999
21
1.311768622047244
0
LINE
8
BLACK
6
CONTINUOUS
10
1.5677999999999999
20
1.311768622047244
11
1.5554883858267716
21
1.3074605905511811
0
LINE
8
BLACK
6
CONTINUOUS
10
1.5554883858267716
20
1.3074605905511811
11
1.543736496062992
21
1.3018011811023622
0
LINE
8
BLACK
6
CONTINUOUS
10
1.543736496062992
20
1.3018011811023622
11
1.5326921259842519
21
1.2948615354330708
0
LINE
8
BLACK
6
CONTINUOUS
10
1.5326921259842519
20
1.2948615354330708
11
1.5224942519685039
21
1.2867289763779528
0
LINE
8
BLACK
6
CONTINUOUS
10
1.5224942519685039
20
1.2867289763779528
11
1.5132710236220472
21
1.277505748031496
0
LINE
8
BLACK
6
CONTINUOUS
10
1.5132710236220472
20
1.277505748031496
11
1.505138464566929
21
1.267307874015748
0
LINE
8
BLACK
6
CONTINUOUS
10
1.505138464566929
20
1.267307874015748
11
1.4981988188976378
21
1.2562635039370078
0
LINE
8
BLACK
6
CONTINUOUS
10
1.4981988188976378
20
1.2562635039370078
11
1.4925394094488189
21
1.2445116141732284
0
LINE
8
BLACK
6
CONTINUOUS
10
1.4925394094488189
20
1.2445116141732284
11
1.4882313779527558
21
1.2322
0
LINE
8
BLACK
6
CONTINUOUS
10
1.4882313779527558
20
1.2322
11
1.4853288976377952
21
1.2194833858267715
0
LINE
8
BLACK
6
CONTINUOUS
10
1.4853288976377952
20
1.2194833858267715
11
1.4838685039370079
21
1.206521811023622
0
LINE
8
BLACK
6
CONTINUOUS
10
1.4838685039370079
20
1.206521811023622
11
1.4838685039370079
21
1.1934781889763779
0
CIRCLE
8
BLACK
10
0.9129921259842519
20
1.1933070866141733
40
0.0068897637795276
0
CIRCLE
8
BLACK
10
0.9129921259842519
20
1.2933070866141732
40
0.0068897637795276
0
CIRCLE
8
BLACK
10
1.012992125984252
20
1.1933070866141733
40
0.0068897637795276
0
CIRCLE
8
BLACK
10
1.012992125984252
20
1.2933070866141732
40
0.0068897637795276
0
CIRCLE
8
BLACK
10
1.1129921259842519
20
1.1933070866141733
40
0.0068897637795276
0
CIRCLE
8
BLACK
10
1.1129921259842519
20
1.2933070866141732
40
0.0068897637795276
0
CIRCLE
8
BLACK
10
1.212992125984252
20
1.1933070866141733
40
0.0068897637795276
0
CIRCLE
8
BLACK
10
1.212992125984252
20
1.2933070866141732
40
0.0068897637795276
0
CIRCLE
8
BLACK
10
1.6031496062992125
20
0.8200787401574803
40
0.0068897637795276
0
CIRCLE
8
BLACK
10
1.7031496062992126
20
0.9200787401574803
40
0.0068897637795276
0
CIRCLE
8
BLACK
10
1.5031496062992125
20
0.9200787401574803
40
0.0068897637795276
0
CIRCLE
8
BLACK
10
1.7031496062992126
20
0.7200787401574803
40
0.0068897637795276
0
CIRCLE
8
BLACK
10
1.5031496062992125
20
0.7200787401574803
40
0.0068897637795276
0
CIRCLE
8
BLACK
10
0.4
20
0.4
40
0.0068897637795276
0
CIRCLE
8
BLACK
10
1.5999999999999999
20
1.2
40
0.0068897637795276
0
CIRCLE
8
BLACK
10
1.5999999999999999
20
0.4
40
0.0068897637795276
0
CIRCLE
8
BLACK
10
0.4
20
1.2
40
0.0068897637795276
0
CIRCLE
8
BLACK
10
0.3043307086614173
20
0.9070866141732283
40
0.0068897637795276
0
CIRCLE
8
BLACK
10
0.4043307086614173
20
0.9070866141732283
40
0.0068897637795276
0
CIRCLE
8
BLACK
10
0.3043307086614173
20
0.8070866141732284
40
0.0068897637795276
0
CIRCLE
8
BLACK
10
0.4043307086614173
20
0.8070866141732284
40
0.0068897637795276
0
CIRCLE
8
BLACK
10
0.3043307086614173
20
0.7070866141732284
40
0.0068897637795276
0
CIRCLE
8
BLACK
10
0.4043307086614173
20
0.7070866141732284
40
0.0068897637795276
0
CIRCLE
8
BLACK
10
0.9129921259842519
20
0.2989173228346457
40
0.0068897637795276
0
CIRCLE
8
BLACK
10
0.9129921259842519
20
0.3989173228346456
40
0.0068897637795276
0
CIRCLE
8
BLACK
10
1.012992125984252
20
0.2989173228346457
40
0.0068897637795276
0
CIRCLE
8
BLACK
10
1.012992125984252
20
0.3989173228346456
40
0.0068897637795276
0
CIRCLE
8
BLACK
10
1.1129921259842519
20
0.2989173228346457
40
0.0068897637795276
0
CIRCLE
8
BLACK
10
1.1129921259842519
20
0.3989173228346456
40
0.0068897637795276
0
CIRCLE
8
BLACK
10
1.212992125984252
20
0.2989173228346457
40
0.0068897637795276
0
CIRCLE
8
BLACK
10
1.212992125984252
20
0.3989173228346456
40
0.0068897637795276
0
CIRCLE
8
BLACK
10
0.9129921259842519
20
1.1933070866141733
40
0.0068897637795276
0
CIRCLE
8
BLACK
10
0.9129921259842519
20
1.2933070866141732
40
0.0068897637795276
0
CIRCLE
8
BLACK
10
1.012992125984252
20
1.1933070866141733
40
0.0068897637795276
0
CIRCLE
8
BLACK
10
1.012992125984252
20
1.2933070866141732
40
0.0068897637795276
0
CIRCLE
8
BLACK
10
1.1129921259842519
20
1.1933070866141733
40
0.0068897637795276
0
CIRCLE
8
BLACK
10
1.1129921259842519
20
1.2933070866141732
40
0.0068897637795276
0
CIRCLE
8
BLACK
10
1.212992125984252
20
1.1933070866141733
40
0.0068897637795276
0
CIRCLE
8
BLACK
10
1.212992125984252
20
1.2933070866141732
40
0.0068897637795276
0
CIRCLE
8
BLACK
10
1.6031496062992125
20
0.8200787401574803
40
0.0068897637795276
0
CIRCLE
8
BLACK
10
1.7031496062992126
20
0.9200787401574803
40
0.0068897637795276
0
CIRCLE
8
BLACK
10
1.5031496062992125
20
0.9200787401574803
40
0.0068897637795276
0
CIRCLE
8
BLACK
10
1.7031496062992126
20
0.7200787401574803
40
0.0068897637795276
0
CIRCLE
8
BLACK
10
1.5031496062992125
20
0.7200787401574803
40
0.0068897637795276
0
CIRCLE
8
BLACK
10
0.4
20
0.4
40
0.0068897637795276
0
CIRCLE
8
BLACK
10
1.5999999999999999
20
1.2
40
0.0068897637795276
0
CIRCLE
8
BLACK
10
1.5999999999999999
20
0.4
40
0.0068897637795276
0
CIRCLE
8
BLACK
10
0.4
20
1.2
40
0.0068897637795276
0
CIRCLE
8
BLACK
10
0.3043307086614173
20
0.9070866141732283
40
0.0068897637795276
0
CIRCLE
8
BLACK
10
0.4043307086614173
20
0.9070866141732283
40
0.0068897637795276
0
CIRCLE
8
BLACK
10
0.3043307086614173
20
0.8070866141732284
40
0.0068897637795276
0
CIRCLE
8
BLACK
10
0.4043307086614173
20
0.8070866141732284
40
0.0068897637795276
0
CIRCLE
8
BLACK
10
0.3043307086614173
20
0.7070866141732284
40
0.0068897637795276
0
CIRCLE
8
BLACK
10
0.4043307086614173
20
0.7070866141732284
40
0.0068897637795276
0
CIRCLE
8
BLACK
10
0.9129921259842519
20
0.2989173228346457
40
0.0068897637795276
0
CIRCLE
8
BLACK
10
0.9129921259842519
20
0.3989173228346456
40
0.0068897637795276
0
CIRCLE
8
BLACK
10
1.012992125984252
20
0.2989173228346457
40
0.0068897637795276
0
CIRCLE
8
BLACK
10
1.012992125984252
20
0.3989173228346456
40
0.0068897637795276
0
CIRCLE
8
BLACK
10
1.1129921259842519
20
0.2989173228346457
40
0.0068897637795276
0
CIRCLE
8
BLACK
10
1.1129921259842519
20
0.3989173228346456
40
0.0068897637795276
0
CIRCLE
8
BLACK
10
1.212992125984252
20
0.2989173228346457
40
0.0068897637795276
0
CIRCLE
8
BLACK
10
1.212992125984252
20
0.3989173228346456
40
0.0068897637795276
  0
ENDSEC
  0
EOF
