  0
SECTION
  2
HEADER
  9
$ANGBASE
  50
0.0
  9
$ANGDIR
  70
1
  9
$MEASUREMENT
  70
0
  0
ENDSEC
  0
SECTION
  2
TABLES
  0
TABLE
  2
LTYPE
  70
4
  0
LTYPE
  5
40F
  2
CONTINUOUS
  70
0
  3
Solid line
  72
65
  73
0
  40
0.0
  0
LTYPE
  5
410
  2
DASHDOT
 70
0
  3
Dash Dot ____ _ ____ _
 72
65
 73
4
 40
2.0
 49
1.25
 49
-0.25
 49
0.25
 49
-0.25
  0
LTYPE
  5
411
  2
DASHED
 70
0
  3
Dashed __ __ __ __ __
 72
65
 73
2
 40
0.75
 49
0.5
 49
-0.25
  0
LTYPE
  5
43B
  2
DOTTED
 70
0
  3
Dotted .  .  .  .
 72
65
 73
2
 40
0.2
 49
0.0
 49
-0.2
  0
ENDTAB
  0
TABLE
  2
STYLE
  70
4
  0
STYLE
  2
KICAD
  70
0
  40
0
  41
1
  42
1
  50
0
  71
0
  3
isocp.shx
  0
STYLE
  2
KICADB
  70
0
  40
0
  41
1
  42
1
  50
0
  71
0
  3
isocp.shx
  0
STYLE
  2
KICADI
  70
0
  40
0
  41
1
  42
1
  50
15
  71
0
  3
isocp.shx
  0
STYLE
  2
KICADBI
  70
0
  40
0
  41
1
  42
1
  50
15
  71
0
  3
isocp.shx
  0
ENDTAB
  0
TABLE
  2
LAYER
  70
1
  0
LAYER
  2
BLACK
  70
0
  62
7
  6
CONTINUOUS
  0
ENDTAB
  0
ENDSEC
  0
SECTION
  2
ENTITIES
0
LINE
8
BLACK
6
CONTINUOUS
10
0.4201122047244095
20
0.5183720472440945
11
0.4332392125984252
21
0.515375905511811
0
LINE
8
BLACK
6
CONTINUOUS
10
0.4332392125984252
20
0.515375905511811
11
0.4459482283464567
21
0.5109288188976377
0
LINE
8
BLACK
6
CONTINUOUS
10
0.4459482283464567
20
0.5109288188976377
11
0.4580794094488189
21
0.5050867716535433
0
LINE
8
BLACK
6
CONTINUOUS
10
0.4580794094488189
20
0.5050867716535433
11
0.4694801968503937
21
0.4979231889763779
0
LINE
8
BLACK
6
CONTINUOUS
10
0.4694801968503937
20
0.4979231889763779
11
0.4800072440944882
21
0.4895281496062992
0
LINE
8
BLACK
6
CONTINUOUS
10
0.4800072440944882
20
0.4895281496062992
11
0.4895281496062992
21
0.4800072440944882
0
LINE
8
BLACK
6
CONTINUOUS
10
0.4895281496062992
20
0.4800072440944882
11
0.4979231889763779
21
0.4694801968503937
0
LINE
8
BLACK
6
CONTINUOUS
10
0.4979231889763779
20
0.4694801968503937
11
0.5050867716535433
21
0.4580794094488189
0
LINE
8
BLACK
6
CONTINUOUS
10
0.5050867716535433
20
0.4580794094488189
11
0.5109288188976377
21
0.4459482283464567
0
LINE
8
BLACK
6
CONTINUOUS
10
0.5109288188976377
20
0.4459482283464567
11
0.515375905511811
21
0.4332392125984252
0
LINE
8
BLACK
6
CONTINUOUS
10
0.515375905511811
20
0.4332392125984252
11
0.5183720472440945
21
0.4201122047244095
0
LINE
8
BLACK
6
CONTINUOUS
10
0.5183720472440945
20
0.4201122047244095
11
0.5198796062992126
21
0.4067322834645669
0
LINE
8
BLACK
6
CONTINUOUS
10
0.5198796062992126
20
0.4067322834645669
11
0.5198796062992126
21
0.3932677165354331
0
LINE
8
BLACK
6
CONTINUOUS
10
0.5198796062992126
20
0.3932677165354331
11
0.5183720472440945
21
0.3798877952755905
0
LINE
8
BLACK
6
CONTINUOUS
10
0.5183720472440945
20
0.3798877952755905
11
0.515375905511811
21
0.3667607874015748
0
LINE
8
BLACK
6
CONTINUOUS
10
0.515375905511811
20
0.3667607874015748
11
0.5109288188976377
21
0.3540517716535433
0
LINE
8
BLACK
6
CONTINUOUS
10
0.5109288188976377
20
0.3540517716535433
11
0.5050867716535433
21
0.3419205905511811
0
LINE
8
BLACK
6
CONTINUOUS
10
0.5050867716535433
20
0.3419205905511811
11
0.4979231889763779
21
0.3305198031496063
0
LINE
8
BLACK
6
CONTINUOUS
10
0.4979231889763779
20
0.3305198031496063
11
0.4895281496062992
21
0.3199927559055118
0
LINE
8
BLACK
6
CONTINUOUS
10
0.4895281496062992
20
0.3199927559055118
11
0.4800072440944882
21
0.3104718503937008
0
LINE
8
BLACK
6
CONTINUOUS
10
0.4800072440944882
20
0.3104718503937008
11
0.4694801968503937
21
0.302076811023622
0
LINE
8
BLACK
6
CONTINUOUS
10
0.4694801968503937
20
0.302076811023622
11
0.4580794094488189
21
0.2949132283464567
0
LINE
8
BLACK
6
CONTINUOUS
10
0.4580794094488189
20
0.2949132283464567
11
0.4459482283464567
21
0.2890711811023622
0
LINE
8
BLACK
6
CONTINUOUS
10
0.4459482283464567
20
0.2890711811023622
11
0.4332392125984252
21
0.284624094488189
0
LINE
8
BLACK
6
CONTINUOUS
10
0.4332392125984252
20
0.284624094488189
11
0.4201122047244095
21
0.2816279527559055
0
LINE
8
BLACK
6
CONTINUOUS
10
0.4201122047244095
20
0.2816279527559055
11
0.4067322834645669
21
0.2801203937007874
0
LINE
8
BLACK
6
CONTINUOUS
10
0.4067322834645669
20
0.2801203937007874
11
0.3932677165354331
21
0.2801203937007874
0
LINE
8
BLACK
6
CONTINUOUS
10
0.3932677165354331
20
0.2801203937007874
11
0.3798877952755905
21
0.2816279527559055
0
LINE
8
BLACK
6
CONTINUOUS
10
0.3798877952755905
20
0.2816279527559055
11
0.3667607874015748
21
0.284624094488189
0
LINE
8
BLACK
6
CONTINUOUS
10
0.3667607874015748
20
0.284624094488189
11
0.3540517716535433
21
0.2890711811023622
0
LINE
8
BLACK
6
CONTINUOUS
10
0.3540517716535433
20
0.2890711811023622
11
0.3419205905511811
21
0.2949132283464567
0
LINE
8
BLACK
6
CONTINUOUS
10
0.3419205905511811
20
0.2949132283464567
11
0.3305198031496063
21
0.302076811023622
0
LINE
8
BLACK
6
CONTINUOUS
10
0.3305198031496063
20
0.302076811023622
11
0.3199927559055118
21
0.3104718503937008
0
LINE
8
BLACK
6
CONTINUOUS
10
0.3199927559055118
20
0.3104718503937008
11
0.3104718503937008
21
0.3199927559055118
0
LINE
8
BLACK
6
CONTINUOUS
10
0.3104718503937008
20
0.3199927559055118
11
0.302076811023622
21
0.3305198031496063
0
LINE
8
BLACK
6
CONTINUOUS
10
0.302076811023622
20
0.3305198031496063
11
0.2949132283464567
21
0.3419205905511811
0
LINE
8
BLACK
6
CONTINUOUS
10
0.2949132283464567
20
0.3419205905511811
11
0.2890711811023622
21
0.3540517716535433
0
LINE
8
BLACK
6
CONTINUOUS
10
0.2890711811023622
20
0.3540517716535433
11
0.284624094488189
21
0.3667607874015748
0
LINE
8
BLACK
6
CONTINUOUS
10
0.284624094488189
20
0.3667607874015748
11
0.2816279527559055
21
0.3798877952755905
0
LINE
8
BLACK
6
CONTINUOUS
10
0.2816279527559055
20
0.3798877952755905
11
0.2801203937007874
21
0.3932677165354331
0
LINE
8
BLACK
6
CONTINUOUS
10
0.2801203937007874
20
0.3932677165354331
11
0.2801203937007874
21
0.4065218110236221
0
LINE
8
BLACK
6
CONTINUOUS
10
0.2801203937007874
20
0.4065218110236221
11
0.2801203937007874
21
0.4067322834645669
0
LINE
8
BLACK
6
CONTINUOUS
10
0.2801203937007874
20
0.4067322834645669
11
0.2816279527559055
21
0.4201122047244095
0
LINE
8
BLACK
6
CONTINUOUS
10
0.2816279527559055
20
0.4201122047244095
11
0.284624094488189
21
0.4332392125984252
0
LINE
8
BLACK
6
CONTINUOUS
10
0.284624094488189
20
0.4332392125984252
11
0.2890711811023622
21
0.4459482283464567
0
LINE
8
BLACK
6
CONTINUOUS
10
0.2890711811023622
20
0.4459482283464567
11
0.2949132283464567
21
0.4580794094488189
0
LINE
8
BLACK
6
CONTINUOUS
10
0.2949132283464567
20
0.4580794094488189
11
0.302076811023622
21
0.4694801968503937
0
LINE
8
BLACK
6
CONTINUOUS
10
0.302076811023622
20
0.4694801968503937
11
0.3104718503937008
21
0.4800072440944882
0
LINE
8
BLACK
6
CONTINUOUS
10
0.3104718503937008
20
0.4800072440944882
11
0.3199927559055118
21
0.4895281496062992
0
LINE
8
BLACK
6
CONTINUOUS
10
0.3199927559055118
20
0.4895281496062992
11
0.3305198031496063
21
0.4979231889763779
0
LINE
8
BLACK
6
CONTINUOUS
10
0.3305198031496063
20
0.4979231889763779
11
0.3419205905511811
21
0.5050867716535433
0
LINE
8
BLACK
6
CONTINUOUS
10
0.3419205905511811
20
0.5050867716535433
11
0.3540517716535433
21
0.5109288188976377
0
LINE
8
BLACK
6
CONTINUOUS
10
0.3540517716535433
20
0.5109288188976377
11
0.3667607874015748
21
0.515375905511811
0
LINE
8
BLACK
6
CONTINUOUS
10
0.3667607874015748
20
0.515375905511811
11
0.3798877952755905
21
0.5183720472440945
0
LINE
8
BLACK
6
CONTINUOUS
10
0.3798877952755905
20
0.5183720472440945
11
0.3932677165354331
21
0.5198796062992126
0
LINE
8
BLACK
6
CONTINUOUS
10
0.3932677165354331
20
0.5198796062992126
11
0.4067322834645669
21
0.5198796062992126
0
LINE
8
BLACK
6
CONTINUOUS
10
0.4067322834645669
20
0.5198796062992126
11
0.4201122047244095
21
0.5183720472440945
0
LINE
8
BLACK
6
CONTINUOUS
10
0.2838685039370079
20
0.3934781889763779
11
0.2853288976377953
21
0.3805166141732284
0
LINE
8
BLACK
6
CONTINUOUS
10
0.2853288976377953
20
0.3805166141732284
11
0.2882313779527559
21
0.3678
0
LINE
8
BLACK
6
CONTINUOUS
10
0.2882313779527559
20
0.3678
11
0.2925394094488189
21
0.3554883858267717
0
LINE
8
BLACK
6
CONTINUOUS
10
0.2925394094488189
20
0.3554883858267717
11
0.2981988188976378
21
0.3437364960629921
0
LINE
8
BLACK
6
CONTINUOUS
10
0.2981988188976378
20
0.3437364960629921
11
0.3051384645669291
21
0.332692125984252
0
LINE
8
BLACK
6
CONTINUOUS
10
0.3051384645669291
20
0.332692125984252
11
0.3132710236220472
21
0.322494251968504
0
LINE
8
BLACK
6
CONTINUOUS
10
0.3132710236220472
20
0.322494251968504
11
0.322494251968504
21
0.3132710236220472
0
LINE
8
BLACK
6
CONTINUOUS
10
0.322494251968504
20
0.3132710236220472
11
0.332692125984252
21
0.3051384645669291
0
LINE
8
BLACK
6
CONTINUOUS
10
0.332692125984252
20
0.3051384645669291
11
0.3437364960629921
21
0.2981988188976378
0
LINE
8
BLACK
6
CONTINUOUS
10
0.3437364960629921
20
0.2981988188976378
11
0.3554883858267717
21
0.2925394094488189
0
LINE
8
BLACK
6
CONTINUOUS
10
0.3554883858267717
20
0.2925394094488189
11
0.3678
21
0.2882313779527559
0
LINE
8
BLACK
6
CONTINUOUS
10
0.3678
20
0.2882313779527559
11
0.3805166141732284
21
0.2853288976377953
0
LINE
8
BLACK
6
CONTINUOUS
10
0.3805166141732284
20
0.2853288976377953
11
0.3934781889763779
21
0.2838685039370079
0
LINE
8
BLACK
6
CONTINUOUS
10
0.3934781889763779
20
0.2838685039370079
11
0.4065218110236221
21
0.2838685039370079
0
LINE
8
BLACK
6
CONTINUOUS
10
0.4065218110236221
20
0.2838685039370079
11
0.4194833858267716
21
0.2853288976377953
0
LINE
8
BLACK
6
CONTINUOUS
10
0.4194833858267716
20
0.2853288976377953
11
0.4322
21
0.2882313779527559
0
LINE
8
BLACK
6
CONTINUOUS
10
0.4322
20
0.2882313779527559
11
0.4445116141732283
21
0.2925394094488189
0
LINE
8
BLACK
6
CONTINUOUS
10
0.4445116141732283
20
0.2925394094488189
11
0.4562635039370079
21
0.2981988188976378
0
LINE
8
BLACK
6
CONTINUOUS
10
0.4562635039370079
20
0.2981988188976378
11
0.467307874015748
21
0.3051384645669291
0
LINE
8
BLACK
6
CONTINUOUS
10
0.467307874015748
20
0.3051384645669291
11
0.477505748031496
21
0.3132710236220472
0
LINE
8
BLACK
6
CONTINUOUS
10
0.477505748031496
20
0.3132710236220472
11
0.4867289763779528
21
0.322494251968504
0
LINE
8
BLACK
6
CONTINUOUS
10
0.4867289763779528
20
0.322494251968504
11
0.4948615354330709
21
0.332692125984252
0
LINE
8
BLACK
6
CONTINUOUS
10
0.4948615354330709
20
0.332692125984252
11
0.5018011811023622
21
0.3437364960629921
0
LINE
8
BLACK
6
CONTINUOUS
10
0.5018011811023622
20
0.3437364960629921
11
0.5074605905511811
21
0.3554883858267717
0
LINE
8
BLACK
6
CONTINUOUS
10
0.5074605905511811
20
0.3554883858267717
11
0.511768622047244
21
0.3678
0
LINE
8
BLACK
6
CONTINUOUS
10
0.511768622047244
20
0.3678
11
0.5146711023622047
21
0.3805166141732284
0
LINE
8
BLACK
6
CONTINUOUS
10
0.5146711023622047
20
0.3805166141732284
11
0.5161314960629921
21
0.3934781889763779
0
LINE
8
BLACK
6
CONTINUOUS
10
0.5161314960629921
20
0.3934781889763779
11
0.5161314960629921
21
0.4065218110236221
0
LINE
8
BLACK
6
CONTINUOUS
10
0.5161314960629921
20
0.4065218110236221
11
0.5146711023622047
21
0.4194833858267716
0
LINE
8
BLACK
6
CONTINUOUS
10
0.5146711023622047
20
0.4194833858267716
11
0.511768622047244
21
0.4322
0
LINE
8
BLACK
6
CONTINUOUS
10
0.511768622047244
20
0.4322
11
0.5074605905511811
21
0.4445116141732283
0
LINE
8
BLACK
6
CONTINUOUS
10
0.5074605905511811
20
0.4445116141732283
11
0.5018011811023622
21
0.4562635039370079
0
LINE
8
BLACK
6
CONTINUOUS
10
0.5018011811023622
20
0.4562635039370079
11
0.4948615354330709
21
0.467307874015748
0
LINE
8
BLACK
6
CONTINUOUS
10
0.4948615354330709
20
0.467307874015748
11
0.4867289763779528
21
0.477505748031496
0
LINE
8
BLACK
6
CONTINUOUS
10
0.4867289763779528
20
0.477505748031496
11
0.477505748031496
21
0.4867289763779528
0
LINE
8
BLACK
6
CONTINUOUS
10
0.477505748031496
20
0.4867289763779528
11
0.467307874015748
21
0.4948615354330709
0
LINE
8
BLACK
6
CONTINUOUS
10
0.467307874015748
20
0.4948615354330709
11
0.4562635039370079
21
0.5018011811023622
0
LINE
8
BLACK
6
CONTINUOUS
10
0.4562635039370079
20
0.5018011811023622
11
0.4445116141732283
21
0.5074605905511811
0
LINE
8
BLACK
6
CONTINUOUS
10
0.4445116141732283
20
0.5074605905511811
11
0.4322
21
0.511768622047244
0
LINE
8
BLACK
6
CONTINUOUS
10
0.4322
20
0.511768622047244
11
0.4194833858267716
21
0.5146711023622047
0
LINE
8
BLACK
6
CONTINUOUS
10
0.4194833858267716
20
0.5146711023622047
11
0.4065218110236221
21
0.5161314960629921
0
LINE
8
BLACK
6
CONTINUOUS
10
0.4065218110236221
20
0.5161314960629921
11
0.3934781889763779
21
0.5161314960629921
0
LINE
8
BLACK
6
CONTINUOUS
10
0.3934781889763779
20
0.5161314960629921
11
0.3805166141732284
21
0.5146711023622047
0
LINE
8
BLACK
6
CONTINUOUS
10
0.3805166141732284
20
0.5146711023622047
11
0.3678
21
0.511768622047244
0
LINE
8
BLACK
6
CONTINUOUS
10
0.3678
20
0.511768622047244
11
0.3554883858267717
21
0.5074605905511811
0
LINE
8
BLACK
6
CONTINUOUS
10
0.3554883858267717
20
0.5074605905511811
11
0.3437364960629921
21
0.5018011811023622
0
LINE
8
BLACK
6
CONTINUOUS
10
0.3437364960629921
20
0.5018011811023622
11
0.332692125984252
21
0.4948615354330709
0
LINE
8
BLACK
6
CONTINUOUS
10
0.332692125984252
20
0.4948615354330709
11
0.322494251968504
21
0.4867289763779528
0
LINE
8
BLACK
6
CONTINUOUS
10
0.322494251968504
20
0.4867289763779528
11
0.3132710236220472
21
0.477505748031496
0
LINE
8
BLACK
6
CONTINUOUS
10
0.3132710236220472
20
0.477505748031496
11
0.3051384645669291
21
0.467307874015748
0
LINE
8
BLACK
6
CONTINUOUS
10
0.3051384645669291
20
0.467307874015748
11
0.2981988188976378
21
0.4562635039370079
0
LINE
8
BLACK
6
CONTINUOUS
10
0.2981988188976378
20
0.4562635039370079
11
0.2925394094488189
21
0.4445116141732283
0
LINE
8
BLACK
6
CONTINUOUS
10
0.2925394094488189
20
0.4445116141732283
11
0.2882313779527559
21
0.4322
0
LINE
8
BLACK
6
CONTINUOUS
10
0.2882313779527559
20
0.4322
11
0.2853288976377953
21
0.4194833858267716
0
LINE
8
BLACK
6
CONTINUOUS
10
0.2853288976377953
20
0.4194833858267716
11
0.2838685039370079
21
0.4065218110236221
0
LINE
8
BLACK
6
CONTINUOUS
10
0.2838685039370079
20
0.4065218110236221
11
0.2838685039370079
21
0.3934781889763779
0
LINE
8
BLACK
6
CONTINUOUS
10
1.5677824409448819
20
0.58508031496063
11
1.5678602362204723
21
0.5850858267716535
0
LINE
8
BLACK
6
CONTINUOUS
10
1.5678602362204723
20
0.5850858267716535
11
1.5679624803149605
21
0.5850625984251968
0
LINE
8
BLACK
6
CONTINUOUS
10
1.5679624803149605
20
0.5850625984251968
11
1.568066968503937
21
0.5850522834645669
0
LINE
8
BLACK
6
CONTINUOUS
10
1.568066968503937
20
0.5850522834645669
11
1.5681390157480315
21
0.5850224409448819
0
LINE
8
BLACK
6
CONTINUOUS
10
1.5681390157480315
20
0.5850224409448819
11
1.5684246456692914
21
0.5849574803149606
0
LINE
8
BLACK
6
CONTINUOUS
10
1.5684246456692914
20
0.5849574803149606
11
1.5755674803149606
21
0.5825764960629921
0
LINE
8
BLACK
6
CONTINUOUS
10
1.5755674803149606
20
0.5825764960629921
11
1.5760960629921259
21
0.5823405118110236
0
LINE
8
BLACK
6
CONTINUOUS
10
1.5760960629921259
20
0.5823405118110236
11
1.5761761811023622
21
0.5822710236220472
0
LINE
8
BLACK
6
CONTINUOUS
10
1.5761761811023622
20
0.5822710236220472
11
1.5762741732283465
21
0.5822304330708661
0
LINE
8
BLACK
6
CONTINUOUS
10
1.5762741732283465
20
0.5822304330708661
11
1.5767216535433071
21
0.5818631889763779
0
LINE
8
BLACK
6
CONTINUOUS
10
1.5767216535433071
20
0.5818631889763779
11
1.5814835826771654
21
0.5771012992125985
0
LINE
8
BLACK
6
CONTINUOUS
10
1.5814835826771654
20
0.5771012992125985
11
1.5818508267716536
21
0.5766538582677165
0
LINE
8
BLACK
6
CONTINUOUS
10
1.5818508267716536
20
0.5766538582677165
11
1.5818914566929134
21
0.576555748031496
0
LINE
8
BLACK
6
CONTINUOUS
10
1.5818914566929134
20
0.576555748031496
11
1.5819609055118109
21
0.5764756692913385
0
LINE
8
BLACK
6
CONTINUOUS
10
1.5819609055118109
20
0.5764756692913385
11
1.5821968897637795
21
0.5759471259842519
0
LINE
8
BLACK
6
CONTINUOUS
10
1.5821968897637795
20
0.5759471259842519
11
1.5845778346456691
21
0.5688042519685039
0
LINE
8
BLACK
6
CONTINUOUS
10
1.5845778346456691
20
0.5688042519685039
11
1.5846427559055118
21
0.5685187007874015
0
LINE
8
BLACK
6
CONTINUOUS
10
1.5846427559055118
20
0.5685187007874015
11
1.5846726377952756
21
0.5684465748031496
0
LINE
8
BLACK
6
CONTINUOUS
10
1.5846726377952756
20
0.5684465748031496
11
1.5846829133858267
21
0.5683420866141732
0
LINE
8
BLACK
6
CONTINUOUS
10
1.5846829133858267
20
0.5683420866141732
11
1.5847061811023622
21
0.5682398031496063
0
LINE
8
BLACK
6
CONTINUOUS
10
1.5847061811023622
20
0.5682398031496063
11
1.5847006299212598
21
0.5681620866141732
0
LINE
8
BLACK
6
CONTINUOUS
10
1.5847006299212598
20
0.5681620866141732
11
1.5847293700787402
21
0.5678705118110237
0
LINE
8
BLACK
6
CONTINUOUS
10
1.5847293700787402
20
0.5678705118110237
11
1.5847293700787402
21
0.5631086220472441
0
LINE
8
BLACK
6
CONTINUOUS
10
1.5847293700787402
20
0.5631086220472441
11
1.5846726377952756
21
0.5625325590551181
0
LINE
8
BLACK
6
CONTINUOUS
10
1.5846726377952756
20
0.5625325590551181
11
1.5842317322834645
21
0.5614681496062992
0
LINE
8
BLACK
6
CONTINUOUS
10
1.5842317322834645
20
0.5614681496062992
11
1.5834170866141732
21
0.5606535039370079
0
LINE
8
BLACK
6
CONTINUOUS
10
1.5834170866141732
20
0.5606535039370079
11
1.5823526771653542
21
0.5602125984251969
0
LINE
8
BLACK
6
CONTINUOUS
10
1.5823526771653542
20
0.5602125984251969
11
1.5812005511811023
21
0.5602125984251969
0
LINE
8
BLACK
6
CONTINUOUS
10
1.5812005511811023
20
0.5602125984251969
11
1.5801361417322835
21
0.5606535039370079
0
LINE
8
BLACK
6
CONTINUOUS
10
1.5801361417322835
20
0.5606535039370079
11
1.579321496062992
21
0.5614681496062992
0
LINE
8
BLACK
6
CONTINUOUS
10
1.579321496062992
20
0.5614681496062992
11
1.5788805905511811
21
0.5625325590551181
0
LINE
8
BLACK
6
CONTINUOUS
10
1.5788805905511811
20
0.5625325590551181
11
1.5788238582677165
21
0.5631086220472441
0
LINE
8
BLACK
6
CONTINUOUS
10
1.5788238582677165
20
0.5631086220472441
11
1.5788238582677165
21
0.5673914173228346
0
LINE
8
BLACK
6
CONTINUOUS
10
1.5788238582677165
20
0.5673914173228346
11
1.5768148818897638
21
0.5734183464566929
0
LINE
8
BLACK
6
CONTINUOUS
10
1.5768148818897638
20
0.5734183464566929
11
1.5730387007874016
21
0.5771944881889763
0
LINE
8
BLACK
6
CONTINUOUS
10
1.5730387007874016
20
0.5771944881889763
11
1.5670117716535432
21
0.5792035039370078
0
LINE
8
BLACK
6
CONTINUOUS
10
1.5670117716535432
20
0.5792035039370078
11
1.5317766141732283
21
0.5792035039370078
0
LINE
8
BLACK
6
CONTINUOUS
10
1.5317766141732283
20
0.5792035039370078
11
1.5312005511811024
21
0.5792602362204724
0
LINE
8
BLACK
6
CONTINUOUS
10
1.5312005511811024
20
0.5792602362204724
11
1.5301361417322834
21
0.5797011417322835
0
LINE
8
BLACK
6
CONTINUOUS
10
1.5301361417322834
20
0.5797011417322835
11
1.5293214960629922
21
0.5805157874015748
0
LINE
8
BLACK
6
CONTINUOUS
10
1.5293214960629922
20
0.5805157874015748
11
1.5288805905511811
21
0.5815801968503936
0
LINE
8
BLACK
6
CONTINUOUS
10
1.5288805905511811
20
0.5815801968503936
11
1.5288805905511811
21
0.5827323228346457
0
LINE
8
BLACK
6
CONTINUOUS
10
1.5288805905511811
20
0.5827323228346457
11
1.5293214960629922
21
0.5837967322834645
0
LINE
8
BLACK
6
CONTINUOUS
10
1.5293214960629922
20
0.5837967322834645
11
1.5301361417322834
21
0.5846113779527559
0
LINE
8
BLACK
6
CONTINUOUS
10
1.5301361417322834
20
0.5846113779527559
11
1.5312005511811024
21
0.5850522834645669
0
LINE
8
BLACK
6
CONTINUOUS
10
1.5312005511811024
20
0.5850522834645669
11
1.5317766141732283
21
0.5851090157480315
0
LINE
8
BLACK
6
CONTINUOUS
10
1.5317766141732283
20
0.5851090157480315
11
1.5674909055118109
21
0.5851090157480315
0
LINE
8
BLACK
6
CONTINUOUS
10
1.5674909055118109
20
0.5851090157480315
11
1.5677824409448819
21
0.58508031496063
0
LINE
8
BLACK
6
CONTINUOUS
10
1.5834170866141732
20
0.6346113779527559
11
1.5842317322834645
21
0.6337967322834646
0
LINE
8
BLACK
6
CONTINUOUS
10
1.5842317322834645
20
0.6337967322834646
11
1.5846726377952756
21
0.6327323228346456
0
LINE
8
BLACK
6
CONTINUOUS
10
1.5846726377952756
20
0.6327323228346456
11
1.5847293700787402
21
0.6321562598425197
0
LINE
8
BLACK
6
CONTINUOUS
10
1.5847293700787402
20
0.6321562598425197
11
1.5847293700787402
21
0.6035848031496063
0
LINE
8
BLACK
6
CONTINUOUS
10
1.5847293700787402
20
0.6035848031496063
11
1.5846726377952756
21
0.6030087401574803
0
LINE
8
BLACK
6
CONTINUOUS
10
1.5846726377952756
20
0.6030087401574803
11
1.5842317322834645
21
0.6019443307086614
0
LINE
8
BLACK
6
CONTINUOUS
10
1.5842317322834645
20
0.6019443307086614
11
1.5834170866141732
21
0.60112968503937
0
LINE
8
BLACK
6
CONTINUOUS
10
1.5834170866141732
20
0.60112968503937
11
1.5823526771653542
21
0.6006887795275591
0
LINE
8
BLACK
6
CONTINUOUS
10
1.5823526771653542
20
0.6006887795275591
11
1.5812005511811023
21
0.6006887795275591
0
LINE
8
BLACK
6
CONTINUOUS
10
1.5812005511811023
20
0.6006887795275591
11
1.5801361417322835
21
0.60112968503937
0
LINE
8
BLACK
6
CONTINUOUS
10
1.5801361417322835
20
0.60112968503937
11
1.579321496062992
21
0.6019443307086614
0
LINE
8
BLACK
6
CONTINUOUS
10
1.579321496062992
20
0.6019443307086614
11
1.5788805905511811
21
0.6030087401574803
0
LINE
8
BLACK
6
CONTINUOUS
10
1.5788805905511811
20
0.6030087401574803
11
1.5788238582677165
21
0.6035848031496063
0
LINE
8
BLACK
6
CONTINUOUS
10
1.5788238582677165
20
0.6035848031496063
11
1.5788238582677165
21
0.6149177559055118
0
LINE
8
BLACK
6
CONTINUOUS
10
1.5788238582677165
20
0.6149177559055118
11
1.5412861417322834
21
0.6149177559055118
0
LINE
8
BLACK
6
CONTINUOUS
10
1.5412861417322834
20
0.6149177559055118
11
1.5457692913385825
21
0.6104346456692913
0
LINE
8
BLACK
6
CONTINUOUS
10
1.5457692913385825
20
0.6104346456692913
11
1.5459551181102362
21
0.6102082677165355
0
LINE
8
BLACK
6
CONTINUOUS
10
1.5459551181102362
20
0.6102082677165355
11
1.5460140551181103
21
0.610157125984252
0
LINE
8
BLACK
6
CONTINUOUS
10
1.5460140551181103
20
0.610157125984252
11
1.5460699212598426
21
0.6100683858267716
0
LINE
8
BLACK
6
CONTINUOUS
10
1.5460699212598426
20
0.6100683858267716
11
1.5461365354330707
21
0.6099872047244095
0
LINE
8
BLACK
6
CONTINUOUS
10
1.5461365354330707
20
0.6099872047244095
11
1.5461663779527559
21
0.6099150787401575
0
LINE
8
BLACK
6
CONTINUOUS
10
1.5461663779527559
20
0.6099150787401575
11
1.5463224015748032
21
0.6096672440944881
0
LINE
8
BLACK
6
CONTINUOUS
10
1.5463224015748032
20
0.6096672440944881
11
1.5487033464566928
21
0.6049053149606299
0
LINE
8
BLACK
6
CONTINUOUS
10
1.5487033464566928
20
0.6049053149606299
11
1.5489102362204723
21
0.60436468503937
0
LINE
8
BLACK
6
CONTINUOUS
10
1.5489102362204723
20
0.60436468503937
11
1.5489918897637796
21
0.6032154724409449
0
LINE
8
BLACK
6
CONTINUOUS
10
1.5489918897637796
20
0.6032154724409449
11
1.5486275590551182
21
0.6021225196850394
0
LINE
8
BLACK
6
CONTINUOUS
10
1.5486275590551182
20
0.6021225196850394
11
1.5478726771653544
21
0.6012521653543307
0
LINE
8
BLACK
6
CONTINUOUS
10
1.5478726771653544
20
0.6012521653543307
11
1.5468422047244095
21
0.6007368897637795
0
LINE
8
BLACK
6
CONTINUOUS
10
1.5468422047244095
20
0.6007368897637795
11
1.5456929921259843
21
0.6006552362204725
0
LINE
8
BLACK
6
CONTINUOUS
10
1.5456929921259843
20
0.6006552362204725
11
1.5446000393700787
21
0.6010195669291338
0
LINE
8
BLACK
6
CONTINUOUS
10
1.5446000393700787
20
0.6010195669291338
11
1.5437296456692913
21
0.6017744488188976
0
LINE
8
BLACK
6
CONTINUOUS
10
1.5437296456692913
20
0.6017744488188976
11
1.5434212992125984
21
0.6022643307086614
0
LINE
8
BLACK
6
CONTINUOUS
10
1.5434212992125984
20
0.6022643307086614
11
1.5412546456692913
21
0.6065976377952755
0
LINE
8
BLACK
6
CONTINUOUS
10
1.5412546456692913
20
0.6065976377952755
11
1.5370383464566928
21
0.6108138976377953
0
LINE
8
BLACK
6
CONTINUOUS
10
1.5370383464566928
20
0.6108138976377953
11
1.5301387007874014
21
0.6154136614173228
0
LINE
8
BLACK
6
CONTINUOUS
10
1.5301387007874014
20
0.6154136614173228
11
1.5301370078740157
21
0.6154150393700787
0
LINE
8
BLACK
6
CONTINUOUS
10
1.5301370078740157
20
0.6154150393700787
11
1.5301361417322834
21
0.6154153937007873
0
LINE
8
BLACK
6
CONTINUOUS
10
1.5301361417322834
20
0.6154153937007873
11
1.5301340944881889
21
0.6154174409448818
0
LINE
8
BLACK
6
CONTINUOUS
10
1.5301340944881889
20
0.6154174409448818
11
1.5296908661417323
21
0.6157804330708662
0
LINE
8
BLACK
6
CONTINUOUS
10
1.5296908661417323
20
0.6157804330708662
11
1.5295281889763779
21
0.6160233464566929
0
LINE
8
BLACK
6
CONTINUOUS
10
1.5295281889763779
20
0.6160233464566929
11
1.5293214960629922
21
0.6162300393700787
0
LINE
8
BLACK
6
CONTINUOUS
10
1.5293214960629922
20
0.6162300393700787
11
1.529210748031496
21
0.6164973622047244
0
LINE
8
BLACK
6
CONTINUOUS
10
1.529210748031496
20
0.6164973622047244
11
1.5290498031496063
21
0.6167377165354331
0
LINE
8
BLACK
6
CONTINUOUS
10
1.5290498031496063
20
0.6167377165354331
11
1.5289924409448818
21
0.6170243700787401
0
LINE
8
BLACK
6
CONTINUOUS
10
1.5289924409448818
20
0.6170243700787401
11
1.5288805905511811
21
0.6172944488188976
0
LINE
8
BLACK
6
CONTINUOUS
10
1.5288805905511811
20
0.6172944488188976
11
1.5288805905511811
21
0.6175837795275591
0
LINE
8
BLACK
6
CONTINUOUS
10
1.5288805905511811
20
0.6175837795275591
11
1.5288238582677165
21
0.6178674015748031
0
LINE
8
BLACK
6
CONTINUOUS
10
1.5288238582677165
20
0.6178674015748031
11
1.5288805905511811
21
0.6181542125984252
0
LINE
8
BLACK
6
CONTINUOUS
10
1.5288805905511811
20
0.6181542125984252
11
1.5288805905511811
21
0.6184465748031496
0
LINE
8
BLACK
6
CONTINUOUS
10
1.5288805905511811
20
0.6184465748031496
11
1.5289912992125985
21
0.6187138582677165
0
LINE
8
BLACK
6
CONTINUOUS
10
1.5289912992125985
20
0.6187138582677165
11
1.5290474409448818
21
0.6189976377952756
0
LINE
8
BLACK
6
CONTINUOUS
10
1.5290474409448818
20
0.6189976377952756
11
1.5292096062992127
21
0.619240905511811
0
LINE
8
BLACK
6
CONTINUOUS
10
1.5292096062992127
20
0.619240905511811
11
1.5293214960629922
21
0.6195109842519685
0
LINE
8
BLACK
6
CONTINUOUS
10
1.5293214960629922
20
0.6195109842519685
11
1.5295260236220471
21
0.6197155511811023
0
LINE
8
BLACK
6
CONTINUOUS
10
1.5295260236220471
20
0.6197155511811023
11
1.5296865354330709
21
0.6199562598425197
0
LINE
8
BLACK
6
CONTINUOUS
10
1.5296865354330709
20
0.6199562598425197
11
1.5299294094488189
21
0.620118937007874
0
LINE
8
BLACK
6
CONTINUOUS
10
1.5299294094488189
20
0.620118937007874
11
1.5301361417322834
21
0.6203256299212598
0
LINE
8
BLACK
6
CONTINUOUS
10
1.5301361417322834
20
0.6203256299212598
11
1.5304034251968504
21
0.6204363779527559
0
LINE
8
BLACK
6
CONTINUOUS
10
1.5304034251968504
20
0.6204363779527559
11
1.5306438188976377
21
0.6205973228346456
0
LINE
8
BLACK
6
CONTINUOUS
10
1.5306438188976377
20
0.6205973228346456
11
1.5309304330708662
21
0.62065468503937
0
LINE
8
BLACK
6
CONTINUOUS
10
1.5309304330708662
20
0.62065468503937
11
1.5312005511811024
21
0.6207665354330708
0
LINE
8
BLACK
6
CONTINUOUS
10
1.5312005511811024
20
0.6207665354330708
11
1.5317704724409449
21
0.6208226771653543
0
LINE
8
BLACK
6
CONTINUOUS
10
1.5317704724409449
20
0.6208226771653543
11
1.5317735039370077
21
0.6208232677165354
0
LINE
8
BLACK
6
CONTINUOUS
10
1.5317735039370077
20
0.6208232677165354
11
1.5317745275590551
21
0.6208230708661417
0
LINE
8
BLACK
6
CONTINUOUS
10
1.5317745275590551
20
0.6208230708661417
11
1.5317766141732283
21
0.6208232677165354
0
LINE
8
BLACK
6
CONTINUOUS
10
1.5317766141732283
20
0.6208232677165354
11
1.5788238582677165
21
0.6208232677165354
0
LINE
8
BLACK
6
CONTINUOUS
10
1.5788238582677165
20
0.6208232677165354
11
1.5788238582677165
21
0.6321562598425197
0
LINE
8
BLACK
6
CONTINUOUS
10
1.5788238582677165
20
0.6321562598425197
11
1.5788805905511811
21
0.6327323228346456
0
LINE
8
BLACK
6
CONTINUOUS
10
1.5788805905511811
20
0.6327323228346456
11
1.579321496062992
21
0.6337967322834646
0
LINE
8
BLACK
6
CONTINUOUS
10
1.579321496062992
20
0.6337967322834646
11
1.5801361417322835
21
0.6346113779527559
0
LINE
8
BLACK
6
CONTINUOUS
10
1.5801361417322835
20
0.6346113779527559
11
1.5812005511811023
21
0.6350522834645669
0
LINE
8
BLACK
6
CONTINUOUS
10
1.5812005511811023
20
0.6350522834645669
11
1.5823526771653542
21
0.6350522834645669
0
LINE
8
BLACK
6
CONTINUOUS
10
1.5823526771653542
20
0.6350522834645669
11
1.5834170866141732
21
0.6346113779527559
0
LINE
8
BLACK
6
CONTINUOUS
10
1.6973240944881889
20
0.7395141732283464
11
1.6983885039370079
21
0.7390732677165354
0
LINE
8
BLACK
6
CONTINUOUS
10
1.6983885039370079
20
0.7390732677165354
11
1.6992031496062991
21
0.7382586220472441
0
LINE
8
BLACK
6
CONTINUOUS
10
1.6992031496062991
20
0.7382586220472441
11
1.6996440551181102
21
0.7371942125984252
0
LINE
8
BLACK
6
CONTINUOUS
10
1.6996440551181102
20
0.7371942125984252
11
1.6997007874015748
21
0.7366181496062992
0
LINE
8
BLACK
6
CONTINUOUS
10
1.6997007874015748
20
0.7366181496062992
11
1.6997007874015748
21
0.4666511811023622
0
LINE
8
BLACK
6
CONTINUOUS
10
1.6997007874015748
20
0.4666511811023622
11
1.7050867716535432
21
0.4580794094488189
0
LINE
8
BLACK
6
CONTINUOUS
10
1.7050867716535432
20
0.4580794094488189
11
1.7109288188976377
21
0.4459482283464567
0
LINE
8
BLACK
6
CONTINUOUS
10
1.7109288188976377
20
0.4459482283464567
11
1.715375905511811
21
0.4332392125984252
0
LINE
8
BLACK
6
CONTINUOUS
10
1.715375905511811
20
0.4332392125984252
11
1.7183720472440944
21
0.4201122047244095
0
LINE
8
BLACK
6
CONTINUOUS
10
1.7183720472440944
20
0.4201122047244095
11
1.7198796062992125
21
0.4067322834645669
0
LINE
8
BLACK
6
CONTINUOUS
10
1.7198796062992125
20
0.4067322834645669
11
1.7198796062992125
21
0.3932677165354331
0
LINE
8
BLACK
6
CONTINUOUS
10
1.7198796062992125
20
0.3932677165354331
11
1.7183720472440944
21
0.3798877952755905
0
LINE
8
BLACK
6
CONTINUOUS
10
1.7183720472440944
20
0.3798877952755905
11
1.715375905511811
21
0.3667607874015748
0
LINE
8
BLACK
6
CONTINUOUS
10
1.715375905511811
20
0.3667607874015748
11
1.7109288188976377
21
0.3540517716535433
0
LINE
8
BLACK
6
CONTINUOUS
10
1.7109288188976377
20
0.3540517716535433
11
1.7050867716535432
21
0.3419205905511811
0
LINE
8
BLACK
6
CONTINUOUS
10
1.7050867716535432
20
0.3419205905511811
11
1.697923188976378
21
0.3305198031496063
0
LINE
8
BLACK
6
CONTINUOUS
10
1.697923188976378
20
0.3305198031496063
11
1.6895281496062993
21
0.3199927559055118
0
LINE
8
BLACK
6
CONTINUOUS
10
1.6895281496062993
20
0.3199927559055118
11
1.6800072440944882
21
0.3104718503937008
0
LINE
8
BLACK
6
CONTINUOUS
10
1.6800072440944882
20
0.3104718503937008
11
1.6694801968503936
21
0.302076811023622
0
LINE
8
BLACK
6
CONTINUOUS
10
1.6694801968503936
20
0.302076811023622
11
1.6580794094488189
21
0.2949132283464567
0
LINE
8
BLACK
6
CONTINUOUS
10
1.6580794094488189
20
0.2949132283464567
11
1.6459482283464566
21
0.2890711811023622
0
LINE
8
BLACK
6
CONTINUOUS
10
1.6459482283464566
20
0.2890711811023622
11
1.6332392125984252
21
0.284624094488189
0
LINE
8
BLACK
6
CONTINUOUS
10
1.6332392125984252
20
0.284624094488189
11
1.6201122047244094
21
0.2816279527559055
0
LINE
8
BLACK
6
CONTINUOUS
10
1.6201122047244094
20
0.2816279527559055
11
1.606732283464567
21
0.2801203937007874
0
LINE
8
BLACK
6
CONTINUOUS
10
1.606732283464567
20
0.2801203937007874
11
1.593267716535433
21
0.2801203937007874
0
LINE
8
BLACK
6
CONTINUOUS
10
1.593267716535433
20
0.2801203937007874
11
1.5798877952755905
21
0.2816279527559055
0
LINE
8
BLACK
6
CONTINUOUS
10
1.5798877952755905
20
0.2816279527559055
11
1.5667607874015748
21
0.284624094488189
0
LINE
8
BLACK
6
CONTINUOUS
10
1.5667607874015748
20
0.284624094488189
11
1.5540517716535434
21
0.2890711811023622
0
LINE
8
BLACK
6
CONTINUOUS
10
1.5540517716535434
20
0.2890711811023622
11
1.541920590551181
21
0.2949132283464567
0
LINE
8
BLACK
6
CONTINUOUS
10
1.541920590551181
20
0.2949132283464567
11
1.5305198031496063
21
0.302076811023622
0
LINE
8
BLACK
6
CONTINUOUS
10
1.5305198031496063
20
0.302076811023622
11
1.5199927559055117
21
0.3104718503937008
0
LINE
8
BLACK
6
CONTINUOUS
10
1.5199927559055117
20
0.3104718503937008
11
1.5104718503937007
21
0.3199927559055118
0
LINE
8
BLACK
6
CONTINUOUS
10
1.5104718503937007
20
0.3199927559055118
11
1.502076811023622
21
0.3305198031496063
0
LINE
8
BLACK
6
CONTINUOUS
10
1.502076811023622
20
0.3305198031496063
11
1.4949132283464566
21
0.3419205905511811
0
LINE
8
BLACK
6
CONTINUOUS
10
1.4949132283464566
20
0.3419205905511811
11
1.4890711811023623
21
0.3540517716535433
0
LINE
8
BLACK
6
CONTINUOUS
10
1.4890711811023623
20
0.3540517716535433
11
1.484624094488189
21
0.3667607874015748
0
LINE
8
BLACK
6
CONTINUOUS
10
1.484624094488189
20
0.3667607874015748
11
1.4816279527559055
21
0.3798877952755905
0
LINE
8
BLACK
6
CONTINUOUS
10
1.4816279527559055
20
0.3798877952755905
11
1.4801203937007874
21
0.3932677165354331
0
LINE
8
BLACK
6
CONTINUOUS
10
1.4801203937007874
20
0.3932677165354331
11
1.4801203937007874
21
0.4065218110236221
0
LINE
8
BLACK
6
CONTINUOUS
10
1.4801203937007874
20
0.4065218110236221
11
1.4801203937007874
21
0.4067322834645669
0
LINE
8
BLACK
6
CONTINUOUS
10
1.4801203937007874
20
0.4067322834645669
11
1.4816279527559055
21
0.4201122047244095
0
LINE
8
BLACK
6
CONTINUOUS
10
1.4816279527559055
20
0.4201122047244095
11
1.484624094488189
21
0.4332392125984252
0
LINE
8
BLACK
6
CONTINUOUS
10
1.484624094488189
20
0.4332392125984252
11
1.4890711811023623
21
0.4459482283464567
0
LINE
8
BLACK
6
CONTINUOUS
10
1.4890711811023623
20
0.4459482283464567
11
1.4949110236220473
21
0.4580748425196851
0
LINE
8
BLACK
6
CONTINUOUS
10
1.4949110236220473
20
0.4580748425196851
11
1.4211574803149607
21
0.4580748425196851
0
LINE
8
BLACK
6
CONTINUOUS
10
1.4211574803149607
20
0.4580748425196851
11
1.4205814173228346
21
0.4581315748031496
0
LINE
8
BLACK
6
CONTINUOUS
10
1.4205814173228346
20
0.4581315748031496
11
1.4195170078740158
21
0.4585724803149606
0
LINE
8
BLACK
6
CONTINUOUS
10
1.4195170078740158
20
0.4585724803149606
11
1.4187023622047243
21
0.459387125984252
0
LINE
8
BLACK
6
CONTINUOUS
10
1.4187023622047243
20
0.459387125984252
11
1.4182614566929133
21
0.4604515354330709
0
LINE
8
BLACK
6
CONTINUOUS
10
1.4182614566929133
20
0.4604515354330709
11
1.4182047244094489
21
0.4610275984251969
0
LINE
8
BLACK
6
CONTINUOUS
10
1.4182047244094489
20
0.4610275984251969
11
1.4182047244094489
21
0.7366181496062992
0
LINE
8
BLACK
6
CONTINUOUS
10
1.4182047244094489
20
0.7366181496062992
11
1.4182614566929133
21
0.7371942125984252
0
LINE
8
BLACK
6
CONTINUOUS
10
1.4182614566929133
20
0.7371942125984252
11
1.4187023622047243
21
0.7382586220472441
0
LINE
8
BLACK
6
CONTINUOUS
10
1.4187023622047243
20
0.7382586220472441
11
1.4195170078740158
21
0.7390732677165354
0
LINE
8
BLACK
6
CONTINUOUS
10
1.4195170078740158
20
0.7390732677165354
11
1.4205814173228346
21
0.7395141732283464
0
LINE
8
BLACK
6
CONTINUOUS
10
1.4205814173228346
20
0.7395141732283464
11
1.4211574803149607
21
0.739570905511811
0
LINE
8
BLACK
6
CONTINUOUS
10
1.4211574803149607
20
0.739570905511811
11
1.696748031496063
21
0.739570905511811
0
LINE
8
BLACK
6
CONTINUOUS
10
1.696748031496063
20
0.739570905511811
11
1.6973240944881889
21
0.7395141732283464
0
LINE
8
BLACK
6
CONTINUOUS
10
1.4241102362204725
20
0.5159488582677165
11
1.4241102362204725
21
0.4639803543307087
0
LINE
8
BLACK
6
CONTINUOUS
10
1.4241102362204725
20
0.4639803543307087
11
1.4760787401574802
21
0.4639803543307087
0
LINE
8
BLACK
6
CONTINUOUS
10
1.4760787401574802
20
0.4639803543307087
11
1.4760787401574802
21
0.4757913779527559
0
LINE
8
BLACK
6
CONTINUOUS
10
1.4760787401574802
20
0.4757913779527559
11
1.4388740157480315
21
0.4757913779527559
0
LINE
8
BLACK
6
CONTINUOUS
10
1.4388740157480315
20
0.4757913779527559
11
1.4382979527559054
21
0.4758481102362205
0
LINE
8
BLACK
6
CONTINUOUS
10
1.4382979527559054
20
0.4758481102362205
11
1.4372335433070866
21
0.4762890157480315
0
LINE
8
BLACK
6
CONTINUOUS
10
1.4372335433070866
20
0.4762890157480315
11
1.4364188976377952
21
0.4771036614173228
0
LINE
8
BLACK
6
CONTINUOUS
10
1.4364188976377952
20
0.4771036614173228
11
1.4359779921259843
21
0.4781680708661417
0
LINE
8
BLACK
6
CONTINUOUS
10
1.4359779921259843
20
0.4781680708661417
11
1.4359212598425197
21
0.4787441338582677
0
LINE
8
BLACK
6
CONTINUOUS
10
1.4359212598425197
20
0.4787441338582677
11
1.4359212598425197
21
0.5159488582677165
0
LINE
8
BLACK
6
CONTINUOUS
10
1.4359212598425197
20
0.5159488582677165
11
1.4241102362204725
21
0.5159488582677165
0
LINE
8
BLACK
6
CONTINUOUS
10
1.4819842519685038
20
0.7336653937007874
11
1.4819842519685038
21
0.6787441338582677
0
LINE
8
BLACK
6
CONTINUOUS
10
1.4819842519685038
20
0.6787441338582677
11
1.4819275196850394
21
0.6781680708661417
0
LINE
8
BLACK
6
CONTINUOUS
10
1.4819275196850394
20
0.6781680708661417
11
1.4814866141732284
21
0.6771036614173228
0
LINE
8
BLACK
6
CONTINUOUS
10
1.4814866141732284
20
0.6771036614173228
11
1.4806719685039369
21
0.6762890157480315
0
LINE
8
BLACK
6
CONTINUOUS
10
1.4806719685039369
20
0.6762890157480315
11
1.4796075590551181
21
0.6758481102362205
0
LINE
8
BLACK
6
CONTINUOUS
10
1.4796075590551181
20
0.6758481102362205
11
1.479031496062992
21
0.6757913779527559
0
LINE
8
BLACK
6
CONTINUOUS
10
1.479031496062992
20
0.6757913779527559
11
1.4241102362204725
21
0.6757913779527559
0
LINE
8
BLACK
6
CONTINUOUS
10
1.4241102362204725
20
0.6757913779527559
11
1.4241102362204725
21
0.5218543700787401
0
LINE
8
BLACK
6
CONTINUOUS
10
1.4241102362204725
20
0.5218543700787401
11
1.479031496062992
21
0.5218543700787401
0
LINE
8
BLACK
6
CONTINUOUS
10
1.479031496062992
20
0.5218543700787401
11
1.4796075590551181
21
0.5217976377952755
0
LINE
8
BLACK
6
CONTINUOUS
10
1.4796075590551181
20
0.5217976377952755
11
1.4806719685039369
21
0.5213567322834646
0
LINE
8
BLACK
6
CONTINUOUS
10
1.4806719685039369
20
0.5213567322834646
11
1.4814866141732284
21
0.5205420866141732
0
LINE
8
BLACK
6
CONTINUOUS
10
1.4814866141732284
20
0.5205420866141732
11
1.4819275196850394
21
0.5194776771653543
0
LINE
8
BLACK
6
CONTINUOUS
10
1.4819275196850394
20
0.5194776771653543
11
1.4819842519685038
21
0.5189016141732283
0
LINE
8
BLACK
6
CONTINUOUS
10
1.4819842519685038
20
0.5189016141732283
11
1.4819842519685038
21
0.4639803543307087
0
LINE
8
BLACK
6
CONTINUOUS
10
1.4819842519685038
20
0.4639803543307087
11
1.4986210236220472
21
0.4639803543307087
0
LINE
8
BLACK
6
CONTINUOUS
10
1.4986210236220472
20
0.4639803543307087
11
1.502076811023622
21
0.4694801968503937
0
LINE
8
BLACK
6
CONTINUOUS
10
1.502076811023622
20
0.4694801968503937
11
1.5104718503937007
21
0.4800072440944882
0
LINE
8
BLACK
6
CONTINUOUS
10
1.5104718503937007
20
0.4800072440944882
11
1.5199927559055117
21
0.4895281496062992
0
LINE
8
BLACK
6
CONTINUOUS
10
1.5199927559055117
20
0.4895281496062992
11
1.5305198031496063
21
0.4979231889763779
0
LINE
8
BLACK
6
CONTINUOUS
10
1.5305198031496063
20
0.4979231889763779
11
1.541920590551181
21
0.5050867716535433
0
LINE
8
BLACK
6
CONTINUOUS
10
1.541920590551181
20
0.5050867716535433
11
1.5540109842519685
21
0.5109091732283464
0
LINE
8
BLACK
6
CONTINUOUS
10
1.5540109842519685
20
0.5109091732283464
11
1.5531905905511811
21
0.5109091732283464
0
LINE
8
BLACK
6
CONTINUOUS
10
1.5531905905511811
20
0.5109091732283464
11
1.541764842519685
21
0.5124134251968504
0
LINE
8
BLACK
6
CONTINUOUS
10
1.541764842519685
20
0.5124134251968504
11
1.530633188976378
21
0.5153961417322834
0
LINE
8
BLACK
6
CONTINUOUS
10
1.530633188976378
20
0.5153961417322834
11
1.5199861023622048
21
0.5198062992125985
0
LINE
8
BLACK
6
CONTINUOUS
10
1.5199861023622048
20
0.5198062992125985
11
1.5100057086614174
21
0.5255684645669291
0
LINE
8
BLACK
6
CONTINUOUS
10
1.5100057086614174
20
0.5255684645669291
11
1.5008628740157479
21
0.5325840551181102
0
LINE
8
BLACK
6
CONTINUOUS
10
1.5008628740157479
20
0.5325840551181102
11
1.4927139370078739
21
0.5407329921259842
0
LINE
8
BLACK
6
CONTINUOUS
10
1.4927139370078739
20
0.5407329921259842
11
1.4856983464566929
21
0.5498758267716535
0
LINE
8
BLACK
6
CONTINUOUS
10
1.4856983464566929
20
0.5498758267716535
11
1.4799361811023621
21
0.5598562204724409
0
LINE
8
BLACK
6
CONTINUOUS
10
1.4799361811023621
20
0.5598562204724409
11
1.4755260236220471
21
0.5705033070866141
0
LINE
8
BLACK
6
CONTINUOUS
10
1.4755260236220471
20
0.5705033070866141
11
1.4725433070866141
21
0.5816349606299213
0
LINE
8
BLACK
6
CONTINUOUS
10
1.4725433070866141
20
0.5816349606299213
11
1.4710390551181103
21
0.5930607086614174
0
LINE
8
BLACK
6
CONTINUOUS
10
1.4710390551181103
20
0.5930607086614174
11
1.4710390551181103
21
0.6042103543307087
0
LINE
8
BLACK
6
CONTINUOUS
10
1.4710390551181103
20
0.6042103543307087
11
1.4710390551181103
21
0.6045850393700787
0
LINE
8
BLACK
6
CONTINUOUS
10
1.4710390551181103
20
0.6045850393700787
11
1.4725433070866141
21
0.6160107874015748
0
LINE
8
BLACK
6
CONTINUOUS
10
1.4725433070866141
20
0.6160107874015748
11
1.4755260236220471
21
0.6271424409448819
0
LINE
8
BLACK
6
CONTINUOUS
10
1.4755260236220471
20
0.6271424409448819
11
1.4799361811023621
21
0.6377895275590552
0
LINE
8
BLACK
6
CONTINUOUS
10
1.4799361811023621
20
0.6377895275590552
11
1.4856983464566929
21
0.6477699212598425
0
LINE
8
BLACK
6
CONTINUOUS
10
1.4856983464566929
20
0.6477699212598425
11
1.4927139370078739
21
0.6569127559055118
0
LINE
8
BLACK
6
CONTINUOUS
10
1.4927139370078739
20
0.6569127559055118
11
1.5008628740157479
21
0.6650616929133858
0
LINE
8
BLACK
6
CONTINUOUS
10
1.5008628740157479
20
0.6650616929133858
11
1.5100057086614174
21
0.672077283464567
0
LINE
8
BLACK
6
CONTINUOUS
10
1.5100057086614174
20
0.672077283464567
11
1.5199861023622048
21
0.6778394488188976
0
LINE
8
BLACK
6
CONTINUOUS
10
1.5199861023622048
20
0.6778394488188976
11
1.530633188976378
21
0.6822496062992126
0
LINE
8
BLACK
6
CONTINUOUS
10
1.530633188976378
20
0.6822496062992126
11
1.541764842519685
21
0.6852323228346456
0
LINE
8
BLACK
6
CONTINUOUS
10
1.541764842519685
20
0.6852323228346456
11
1.5531905905511811
21
0.6867365748031495
0
LINE
8
BLACK
6
CONTINUOUS
10
1.5531905905511811
20
0.6867365748031495
11
1.5647149212598426
21
0.6867365748031495
0
LINE
8
BLACK
6
CONTINUOUS
10
1.5647149212598426
20
0.6867365748031495
11
1.5761406692913384
21
0.6852323228346456
0
LINE
8
BLACK
6
CONTINUOUS
10
1.5761406692913384
20
0.6852323228346456
11
1.5872723228346457
21
0.6822496062992126
0
LINE
8
BLACK
6
CONTINUOUS
10
1.5872723228346457
20
0.6822496062992126
11
1.5979194094488189
21
0.6778394488188976
0
LINE
8
BLACK
6
CONTINUOUS
10
1.5979194094488189
20
0.6778394488188976
11
1.6078998031496063
21
0.672077283464567
0
LINE
8
BLACK
6
CONTINUOUS
10
1.6078998031496063
20
0.672077283464567
11
1.6170426377952756
21
0.6650616929133858
0
LINE
8
BLACK
6
CONTINUOUS
10
1.6170426377952756
20
0.6650616929133858
11
1.6251915748031496
21
0.6569127559055118
0
LINE
8
BLACK
6
CONTINUOUS
10
1.6251915748031496
20
0.6569127559055118
11
1.6322071653543306
21
0.6477699212598425
0
LINE
8
BLACK
6
CONTINUOUS
10
1.6322071653543306
20
0.6477699212598425
11
1.6379693307086614
21
0.6377895275590552
0
LINE
8
BLACK
6
CONTINUOUS
10
1.6379693307086614
20
0.6377895275590552
11
1.6423794881889764
21
0.6271424409448819
0
LINE
8
BLACK
6
CONTINUOUS
10
1.6423794881889764
20
0.6271424409448819
11
1.6453622047244094
21
0.6160107874015748
0
LINE
8
BLACK
6
CONTINUOUS
10
1.6453622047244094
20
0.6160107874015748
11
1.6468664566929134
21
0.6045850393700787
0
LINE
8
BLACK
6
CONTINUOUS
10
1.6468664566929134
20
0.6045850393700787
11
1.6468664566929134
21
0.5930607086614174
0
LINE
8
BLACK
6
CONTINUOUS
10
1.6468664566929134
20
0.5930607086614174
11
1.6453622047244094
21
0.5816349606299213
0
LINE
8
BLACK
6
CONTINUOUS
10
1.6453622047244094
20
0.5816349606299213
11
1.6423794881889764
21
0.5705033070866141
0
LINE
8
BLACK
6
CONTINUOUS
10
1.6423794881889764
20
0.5705033070866141
11
1.6379693307086614
21
0.5598562204724409
0
LINE
8
BLACK
6
CONTINUOUS
10
1.6379693307086614
20
0.5598562204724409
11
1.6322071653543306
21
0.5498758267716535
0
LINE
8
BLACK
6
CONTINUOUS
10
1.6322071653543306
20
0.5498758267716535
11
1.6251915748031496
21
0.5407329921259842
0
LINE
8
BLACK
6
CONTINUOUS
10
1.6251915748031496
20
0.5407329921259842
11
1.6170426377952756
21
0.5325840551181102
0
LINE
8
BLACK
6
CONTINUOUS
10
1.6170426377952756
20
0.5325840551181102
11
1.6078998031496063
21
0.5255684645669291
0
LINE
8
BLACK
6
CONTINUOUS
10
1.6078998031496063
20
0.5255684645669291
11
1.5980463779527558
21
0.5198796062992126
0
LINE
8
BLACK
6
CONTINUOUS
10
1.5980463779527558
20
0.5198796062992126
11
1.606732283464567
21
0.5198796062992126
0
LINE
8
BLACK
6
CONTINUOUS
10
1.606732283464567
20
0.5198796062992126
11
1.6201122047244094
21
0.5183720472440945
0
LINE
8
BLACK
6
CONTINUOUS
10
1.6201122047244094
20
0.5183720472440945
11
1.6332392125984252
21
0.515375905511811
0
LINE
8
BLACK
6
CONTINUOUS
10
1.6332392125984252
20
0.515375905511811
11
1.6359212598425197
21
0.5144374409448819
0
LINE
8
BLACK
6
CONTINUOUS
10
1.6359212598425197
20
0.5144374409448819
11
1.6359212598425197
21
0.5189016141732283
0
LINE
8
BLACK
6
CONTINUOUS
10
1.6359212598425197
20
0.5189016141732283
11
1.6359779921259843
21
0.5194776771653543
0
LINE
8
BLACK
6
CONTINUOUS
10
1.6359779921259843
20
0.5194776771653543
11
1.6364188976377951
21
0.5205420866141732
0
LINE
8
BLACK
6
CONTINUOUS
10
1.6364188976377951
20
0.5205420866141732
11
1.6372335433070866
21
0.5213567322834646
0
LINE
8
BLACK
6
CONTINUOUS
10
1.6372335433070866
20
0.5213567322834646
11
1.6382979527559054
21
0.5217976377952755
0
LINE
8
BLACK
6
CONTINUOUS
10
1.6382979527559054
20
0.5217976377952755
11
1.6388740157480315
21
0.5218543700787401
0
LINE
8
BLACK
6
CONTINUOUS
10
1.6388740157480315
20
0.5218543700787401
11
1.6937952755905512
21
0.5218543700787401
0
LINE
8
BLACK
6
CONTINUOUS
10
1.6937952755905512
20
0.5218543700787401
11
1.6937952755905512
21
0.6757913779527559
0
LINE
8
BLACK
6
CONTINUOUS
10
1.6937952755905512
20
0.6757913779527559
11
1.6388740157480315
21
0.6757913779527559
0
LINE
8
BLACK
6
CONTINUOUS
10
1.6388740157480315
20
0.6757913779527559
11
1.6382979527559054
21
0.6758481102362205
0
LINE
8
BLACK
6
CONTINUOUS
10
1.6382979527559054
20
0.6758481102362205
11
1.6372335433070866
21
0.6762890157480315
0
LINE
8
BLACK
6
CONTINUOUS
10
1.6372335433070866
20
0.6762890157480315
11
1.6364188976377951
21
0.6771036614173228
0
LINE
8
BLACK
6
CONTINUOUS
10
1.6364188976377951
20
0.6771036614173228
11
1.6359779921259843
21
0.6781680708661417
0
LINE
8
BLACK
6
CONTINUOUS
10
1.6359779921259843
20
0.6781680708661417
11
1.6359212598425197
21
0.6787441338582677
0
LINE
8
BLACK
6
CONTINUOUS
10
1.6359212598425197
20
0.6787441338582677
11
1.6359212598425197
21
0.7336653937007874
0
LINE
8
BLACK
6
CONTINUOUS
10
1.6359212598425197
20
0.7336653937007874
11
1.4819842519685038
21
0.7336653937007874
0
LINE
8
BLACK
6
CONTINUOUS
10
1.5873921259842518
20
0.5154457874015748
11
1.5872723228346457
21
0.5153961417322834
0
LINE
8
BLACK
6
CONTINUOUS
10
1.5872723228346457
20
0.5153961417322834
11
1.5761406692913384
21
0.5124134251968504
0
LINE
8
BLACK
6
CONTINUOUS
10
1.5761406692913384
20
0.5124134251968504
11
1.5657231889763779
21
0.5110419291338583
0
LINE
8
BLACK
6
CONTINUOUS
10
1.5657231889763779
20
0.5110419291338583
11
1.5554883858267716
21
0.5074605905511811
0
LINE
8
BLACK
6
CONTINUOUS
10
1.5554883858267716
20
0.5074605905511811
11
1.543736496062992
21
0.5018011811023622
0
LINE
8
BLACK
6
CONTINUOUS
10
1.543736496062992
20
0.5018011811023622
11
1.5326921259842519
21
0.4948615354330709
0
LINE
8
BLACK
6
CONTINUOUS
10
1.5326921259842519
20
0.4948615354330709
11
1.5224942519685039
21
0.4867289763779528
0
LINE
8
BLACK
6
CONTINUOUS
10
1.5224942519685039
20
0.4867289763779528
11
1.5132710236220472
21
0.477505748031496
0
LINE
8
BLACK
6
CONTINUOUS
10
1.5132710236220472
20
0.477505748031496
11
1.505138464566929
21
0.467307874015748
0
LINE
8
BLACK
6
CONTINUOUS
10
1.505138464566929
20
0.467307874015748
11
1.5030476377952755
21
0.4639803543307087
0
LINE
8
BLACK
6
CONTINUOUS
10
1.5030476377952755
20
0.4639803543307087
11
1.6359212598425197
21
0.4639803543307087
0
LINE
8
BLACK
6
CONTINUOUS
10
1.6359212598425197
20
0.4639803543307087
11
1.6359212598425197
21
0.5104664960629921
0
LINE
8
BLACK
6
CONTINUOUS
10
1.6359212598425197
20
0.5104664960629921
11
1.6321999999999999
21
0.511768622047244
0
LINE
8
BLACK
6
CONTINUOUS
10
1.6321999999999999
20
0.511768622047244
11
1.6194833858267716
21
0.5146711023622047
0
LINE
8
BLACK
6
CONTINUOUS
10
1.6194833858267716
20
0.5146711023622047
11
1.6065218110236219
21
0.5161314960629921
0
LINE
8
BLACK
6
CONTINUOUS
10
1.6065218110236219
20
0.5161314960629921
11
1.5934781889763778
21
0.5161314960629921
0
LINE
8
BLACK
6
CONTINUOUS
10
1.5934781889763778
20
0.5161314960629921
11
1.5873921259842518
21
0.5154457874015748
0
LINE
8
BLACK
6
CONTINUOUS
10
1.681984251968504
20
0.4787441338582677
11
1.6819275196850394
21
0.4781680708661417
0
LINE
8
BLACK
6
CONTINUOUS
10
1.6819275196850394
20
0.4781680708661417
11
1.6814866141732283
21
0.4771036614173228
0
LINE
8
BLACK
6
CONTINUOUS
10
1.6814866141732283
20
0.4771036614173228
11
1.6806719685039371
21
0.4762890157480315
0
LINE
8
BLACK
6
CONTINUOUS
10
1.6806719685039371
20
0.4762890157480315
11
1.679607559055118
21
0.4758481102362205
0
LINE
8
BLACK
6
CONTINUOUS
10
1.679607559055118
20
0.4758481102362205
11
1.6790314960629922
21
0.4757913779527559
0
LINE
8
BLACK
6
CONTINUOUS
10
1.6790314960629922
20
0.4757913779527559
11
1.6418267716535433
21
0.4757913779527559
0
LINE
8
BLACK
6
CONTINUOUS
10
1.6418267716535433
20
0.4757913779527559
11
1.6418267716535433
21
0.4639803543307087
0
LINE
8
BLACK
6
CONTINUOUS
10
1.6418267716535433
20
0.4639803543307087
11
1.6937952755905512
21
0.4639803543307087
0
LINE
8
BLACK
6
CONTINUOUS
10
1.6937952755905512
20
0.4639803543307087
11
1.6937952755905512
21
0.4686449212598425
0
LINE
8
BLACK
6
CONTINUOUS
10
1.6937952755905512
20
0.4686449212598425
11
1.6867289763779527
21
0.477505748031496
0
LINE
8
BLACK
6
CONTINUOUS
10
1.6867289763779527
20
0.477505748031496
11
1.681984251968504
21
0.4822504724409449
0
LINE
8
BLACK
6
CONTINUOUS
10
1.681984251968504
20
0.4822504724409449
11
1.681984251968504
21
0.4787441338582677
0
LINE
8
BLACK
6
CONTINUOUS
10
1.681984251968504
20
0.5159488582677165
11
1.681984251968504
21
0.4875511417322835
0
LINE
8
BLACK
6
CONTINUOUS
10
1.681984251968504
20
0.4875511417322835
11
1.6895281496062993
21
0.4800072440944882
0
LINE
8
BLACK
6
CONTINUOUS
10
1.6895281496062993
20
0.4800072440944882
11
1.6937952755905512
21
0.4746564566929134
0
LINE
8
BLACK
6
CONTINUOUS
10
1.6937952755905512
20
0.4746564566929134
11
1.6937952755905512
21
0.5159488582677165
0
LINE
8
BLACK
6
CONTINUOUS
10
1.6937952755905512
20
0.5159488582677165
11
1.681984251968504
21
0.5159488582677165
0
LINE
8
BLACK
6
CONTINUOUS
10
1.6418267716535433
20
0.4816968897637795
11
1.6760787401574804
21
0.4816968897637795
0
LINE
8
BLACK
6
CONTINUOUS
10
1.6760787401574804
20
0.4816968897637795
11
1.6760787401574804
21
0.4878670078740157
0
LINE
8
BLACK
6
CONTINUOUS
10
1.6760787401574804
20
0.4878670078740157
11
1.6673078740157481
21
0.4948615354330709
0
LINE
8
BLACK
6
CONTINUOUS
10
1.6673078740157481
20
0.4948615354330709
11
1.6562635039370079
21
0.5018011811023622
0
LINE
8
BLACK
6
CONTINUOUS
10
1.6562635039370079
20
0.5018011811023622
11
1.6445116141732283
21
0.5074605905511811
0
LINE
8
BLACK
6
CONTINUOUS
10
1.6445116141732283
20
0.5074605905511811
11
1.6418267716535433
21
0.5084000787401575
0
LINE
8
BLACK
6
CONTINUOUS
10
1.6418267716535433
20
0.5084000787401575
11
1.6418267716535433
21
0.4816968897637795
0
LINE
8
BLACK
6
CONTINUOUS
10
1.4418267716535433
20
0.5159488582677165
11
1.4418267716535433
21
0.4816968897637795
0
LINE
8
BLACK
6
CONTINUOUS
10
1.4418267716535433
20
0.4816968897637795
11
1.4760787401574802
21
0.4816968897637795
0
LINE
8
BLACK
6
CONTINUOUS
10
1.4760787401574802
20
0.4816968897637795
11
1.4760787401574802
21
0.5159488582677165
0
LINE
8
BLACK
6
CONTINUOUS
10
1.4760787401574802
20
0.5159488582677165
11
1.4418267716535433
21
0.5159488582677165
0
LINE
8
BLACK
6
CONTINUOUS
10
1.6418267716535433
20
0.5159488582677165
11
1.6418267716535433
21
0.5123709842519685
0
LINE
8
BLACK
6
CONTINUOUS
10
1.6418267716535433
20
0.5123709842519685
11
1.6459482283464566
21
0.5109288188976377
0
LINE
8
BLACK
6
CONTINUOUS
10
1.6459482283464566
20
0.5109288188976377
11
1.6580794094488189
21
0.5050867716535433
0
LINE
8
BLACK
6
CONTINUOUS
10
1.6580794094488189
20
0.5050867716535433
11
1.6694801968503936
21
0.4979231889763779
0
LINE
8
BLACK
6
CONTINUOUS
10
1.6694801968503936
20
0.4979231889763779
11
1.6760787401574804
21
0.492661062992126
0
LINE
8
BLACK
6
CONTINUOUS
10
1.6760787401574804
20
0.492661062992126
11
1.6760787401574804
21
0.5159488582677165
0
LINE
8
BLACK
6
CONTINUOUS
10
1.6760787401574804
20
0.5159488582677165
11
1.6418267716535433
21
0.5159488582677165
0
LINE
8
BLACK
6
CONTINUOUS
10
1.4767559448818897
20
0.5934353937007874
11
1.4781623622047244
21
0.5827526771653543
0
LINE
8
BLACK
6
CONTINUOUS
10
1.4781623622047244
20
0.5827526771653543
11
1.4809511023622046
21
0.5723448818897637
0
LINE
8
BLACK
6
CONTINUOUS
10
1.4809511023622046
20
0.5723448818897637
11
1.4850744881889764
21
0.562390157480315
0
LINE
8
BLACK
6
CONTINUOUS
10
1.4850744881889764
20
0.562390157480315
11
1.4904619685039371
21
0.553058779527559
0
LINE
8
BLACK
6
CONTINUOUS
10
1.4904619685039371
20
0.553058779527559
11
1.4970212992125984
21
0.5445104724409449
0
LINE
8
BLACK
6
CONTINUOUS
10
1.4970212992125984
20
0.5445104724409449
11
1.5046403543307085
21
0.5368914173228346
0
LINE
8
BLACK
6
CONTINUOUS
10
1.5046403543307085
20
0.5368914173228346
11
1.5131886614173229
21
0.5303320866141732
0
LINE
8
BLACK
6
CONTINUOUS
10
1.5131886614173229
20
0.5303320866141732
11
1.5225200393700786
21
0.5249446062992126
0
LINE
8
BLACK
6
CONTINUOUS
10
1.5225200393700786
20
0.5249446062992126
11
1.5324747637795275
21
0.5208212204724409
0
LINE
8
BLACK
6
CONTINUOUS
10
1.5324747637795275
20
0.5208212204724409
11
1.5428825590551181
21
0.5180324803149606
0
LINE
8
BLACK
6
CONTINUOUS
10
1.5428825590551181
20
0.5180324803149606
11
1.5535652755905511
21
0.516626062992126
0
LINE
8
BLACK
6
CONTINUOUS
10
1.5535652755905511
20
0.516626062992126
11
1.5643402362204724
21
0.516626062992126
0
LINE
8
BLACK
6
CONTINUOUS
10
1.5643402362204724
20
0.516626062992126
11
1.5750229527559054
21
0.5180324803149606
0
LINE
8
BLACK
6
CONTINUOUS
10
1.5750229527559054
20
0.5180324803149606
11
1.585430748031496
21
0.5208212204724409
0
LINE
8
BLACK
6
CONTINUOUS
10
1.585430748031496
20
0.5208212204724409
11
1.5953854724409449
21
0.5249446062992126
0
LINE
8
BLACK
6
CONTINUOUS
10
1.5953854724409449
20
0.5249446062992126
11
1.6047168503937008
21
0.5303320866141732
0
LINE
8
BLACK
6
CONTINUOUS
10
1.6047168503937008
20
0.5303320866141732
11
1.613265157480315
21
0.5368914173228346
0
LINE
8
BLACK
6
CONTINUOUS
10
1.613265157480315
20
0.5368914173228346
11
1.6208842125984251
21
0.5445104724409449
0
LINE
8
BLACK
6
CONTINUOUS
10
1.6208842125984251
20
0.5445104724409449
11
1.6274435433070866
21
0.553058779527559
0
LINE
8
BLACK
6
CONTINUOUS
10
1.6274435433070866
20
0.553058779527559
11
1.6328310236220471
21
0.562390157480315
0
LINE
8
BLACK
6
CONTINUOUS
10
1.6328310236220471
20
0.562390157480315
11
1.6369544094488189
21
0.5723448818897637
0
LINE
8
BLACK
6
CONTINUOUS
10
1.6369544094488189
20
0.5723448818897637
11
1.6397431496062991
21
0.5827526771653543
0
LINE
8
BLACK
6
CONTINUOUS
10
1.6397431496062991
20
0.5827526771653543
11
1.6411495669291338
21
0.5934353937007874
0
LINE
8
BLACK
6
CONTINUOUS
10
1.6411495669291338
20
0.5934353937007874
11
1.6411495669291338
21
0.6042103543307087
0
LINE
8
BLACK
6
CONTINUOUS
10
1.6411495669291338
20
0.6042103543307087
11
1.6397431496062991
21
0.6148930708661418
0
LINE
8
BLACK
6
CONTINUOUS
10
1.6397431496062991
20
0.6148930708661418
11
1.6369544094488189
21
0.6253008661417323
0
LINE
8
BLACK
6
CONTINUOUS
10
1.6369544094488189
20
0.6253008661417323
11
1.6328310236220471
21
0.6352555905511811
0
LINE
8
BLACK
6
CONTINUOUS
10
1.6328310236220471
20
0.6352555905511811
11
1.6274435433070866
21
0.644586968503937
0
LINE
8
BLACK
6
CONTINUOUS
10
1.6274435433070866
20
0.644586968503937
11
1.6208842125984251
21
0.6531352755905512
0
LINE
8
BLACK
6
CONTINUOUS
10
1.6208842125984251
20
0.6531352755905512
11
1.613265157480315
21
0.6607543307086614
0
LINE
8
BLACK
6
CONTINUOUS
10
1.613265157480315
20
0.6607543307086614
11
1.6047168503937008
21
0.6673136614173228
0
LINE
8
BLACK
6
CONTINUOUS
10
1.6047168503937008
20
0.6673136614173228
11
1.5953854724409449
21
0.6727011417322835
0
LINE
8
BLACK
6
CONTINUOUS
10
1.5953854724409449
20
0.6727011417322835
11
1.585430748031496
21
0.6768245275590551
0
LINE
8
BLACK
6
CONTINUOUS
10
1.585430748031496
20
0.6768245275590551
11
1.5750229527559054
21
0.6796132677165354
0
LINE
8
BLACK
6
CONTINUOUS
10
1.5750229527559054
20
0.6796132677165354
11
1.5643402362204724
21
0.68101968503937
0
LINE
8
BLACK
6
CONTINUOUS
10
1.5643402362204724
20
0.68101968503937
11
1.5535652755905511
21
0.68101968503937
0
LINE
8
BLACK
6
CONTINUOUS
10
1.5535652755905511
20
0.68101968503937
11
1.5428825590551181
21
0.6796132677165354
0
LINE
8
BLACK
6
CONTINUOUS
10
1.5428825590551181
20
0.6796132677165354
11
1.5324747637795275
21
0.6768245275590551
0
LINE
8
BLACK
6
CONTINUOUS
10
1.5324747637795275
20
0.6768245275590551
11
1.5225200393700786
21
0.6727011417322835
0
LINE
8
BLACK
6
CONTINUOUS
10
1.5225200393700786
20
0.6727011417322835
11
1.5131886614173229
21
0.6673136614173228
0
LINE
8
BLACK
6
CONTINUOUS
10
1.5131886614173229
20
0.6673136614173228
11
1.5046403543307085
21
0.6607543307086614
0
LINE
8
BLACK
6
CONTINUOUS
10
1.5046403543307085
20
0.6607543307086614
11
1.4970212992125984
21
0.6531352755905512
0
LINE
8
BLACK
6
CONTINUOUS
10
1.4970212992125984
20
0.6531352755905512
11
1.4904619685039371
21
0.644586968503937
0
LINE
8
BLACK
6
CONTINUOUS
10
1.4904619685039371
20
0.644586968503937
11
1.4850744881889764
21
0.6352555905511811
0
LINE
8
BLACK
6
CONTINUOUS
10
1.4850744881889764
20
0.6352555905511811
11
1.4809511023622046
21
0.6253008661417323
0
LINE
8
BLACK
6
CONTINUOUS
10
1.4809511023622046
20
0.6253008661417323
11
1.4781623622047244
21
0.6148930708661418
0
LINE
8
BLACK
6
CONTINUOUS
10
1.4781623622047244
20
0.6148930708661418
11
1.4767559448818897
21
0.6042103543307087
0
LINE
8
BLACK
6
CONTINUOUS
10
1.4767559448818897
20
0.6042103543307087
11
1.4767559448818897
21
0.5934353937007874
0
LINE
8
BLACK
6
CONTINUOUS
10
1.6418267716535433
20
0.7159488582677165
11
1.6418267716535433
21
0.6816968897637795
0
LINE
8
BLACK
6
CONTINUOUS
10
1.6418267716535433
20
0.6816968897637795
11
1.6760787401574804
21
0.6816968897637795
0
LINE
8
BLACK
6
CONTINUOUS
10
1.6760787401574804
20
0.6816968897637795
11
1.6760787401574804
21
0.7159488582677165
0
LINE
8
BLACK
6
CONTINUOUS
10
1.6760787401574804
20
0.7159488582677165
11
1.6418267716535433
21
0.7159488582677165
0
LINE
8
BLACK
6
CONTINUOUS
10
1.6418267716535433
20
0.7336653937007874
11
1.6418267716535433
21
0.7218543700787401
0
LINE
8
BLACK
6
CONTINUOUS
10
1.6418267716535433
20
0.7218543700787401
11
1.6790314960629922
21
0.7218543700787401
0
LINE
8
BLACK
6
CONTINUOUS
10
1.6790314960629922
20
0.7218543700787401
11
1.679607559055118
21
0.7217976377952756
0
LINE
8
BLACK
6
CONTINUOUS
10
1.679607559055118
20
0.7217976377952756
11
1.6806719685039371
21
0.7213567322834645
0
LINE
8
BLACK
6
CONTINUOUS
10
1.6806719685039371
20
0.7213567322834645
11
1.6814866141732283
21
0.7205420866141732
0
LINE
8
BLACK
6
CONTINUOUS
10
1.6814866141732283
20
0.7205420866141732
11
1.6819275196850394
21
0.7194776771653543
0
LINE
8
BLACK
6
CONTINUOUS
10
1.6819275196850394
20
0.7194776771653543
11
1.681984251968504
21
0.7189016141732283
0
LINE
8
BLACK
6
CONTINUOUS
10
1.681984251968504
20
0.7189016141732283
11
1.681984251968504
21
0.6816968897637795
0
LINE
8
BLACK
6
CONTINUOUS
10
1.681984251968504
20
0.6816968897637795
11
1.6937952755905512
21
0.6816968897637795
0
LINE
8
BLACK
6
CONTINUOUS
10
1.6937952755905512
20
0.6816968897637795
11
1.6937952755905512
21
0.7336653937007874
0
LINE
8
BLACK
6
CONTINUOUS
10
1.6937952755905512
20
0.7336653937007874
11
1.6418267716535433
21
0.7336653937007874
0
LINE
8
BLACK
6
CONTINUOUS
10
1.4241102362204725
20
0.7336653937007874
11
1.4241102362204725
21
0.6816968897637795
0
LINE
8
BLACK
6
CONTINUOUS
10
1.4241102362204725
20
0.6816968897637795
11
1.4359212598425197
21
0.6816968897637795
0
LINE
8
BLACK
6
CONTINUOUS
10
1.4359212598425197
20
0.6816968897637795
11
1.4359212598425197
21
0.7189016141732283
0
LINE
8
BLACK
6
CONTINUOUS
10
1.4359212598425197
20
0.7189016141732283
11
1.4359779921259843
21
0.7194776771653543
0
LINE
8
BLACK
6
CONTINUOUS
10
1.4359779921259843
20
0.7194776771653543
11
1.4364188976377952
21
0.7205420866141732
0
LINE
8
BLACK
6
CONTINUOUS
10
1.4364188976377952
20
0.7205420866141732
11
1.4372335433070866
21
0.7213567322834645
0
LINE
8
BLACK
6
CONTINUOUS
10
1.4372335433070866
20
0.7213567322834645
11
1.4382979527559054
21
0.7217976377952756
0
LINE
8
BLACK
6
CONTINUOUS
10
1.4382979527559054
20
0.7217976377952756
11
1.4388740157480315
21
0.7218543700787401
0
LINE
8
BLACK
6
CONTINUOUS
10
1.4388740157480315
20
0.7218543700787401
11
1.4760787401574802
21
0.7218543700787401
0
LINE
8
BLACK
6
CONTINUOUS
10
1.4760787401574802
20
0.7218543700787401
11
1.4760787401574802
21
0.7336653937007874
0
LINE
8
BLACK
6
CONTINUOUS
10
1.4760787401574802
20
0.7336653937007874
11
1.4241102362204725
21
0.7336653937007874
0
LINE
8
BLACK
6
CONTINUOUS
10
1.4418267716535433
20
0.7159488582677165
11
1.4418267716535433
21
0.6816968897637795
0
LINE
8
BLACK
6
CONTINUOUS
10
1.4418267716535433
20
0.6816968897637795
11
1.4760787401574802
21
0.6816968897637795
0
LINE
8
BLACK
6
CONTINUOUS
10
1.4760787401574802
20
0.6816968897637795
11
1.4760787401574802
21
0.7159488582677165
0
LINE
8
BLACK
6
CONTINUOUS
10
1.4760787401574802
20
0.7159488582677165
11
1.4418267716535433
21
0.7159488582677165
0
LINE
8
BLACK
6
CONTINUOUS
10
1.4838685039370079
20
0.3934781889763779
11
1.4853288976377952
21
0.3805166141732284
0
LINE
8
BLACK
6
CONTINUOUS
10
1.4853288976377952
20
0.3805166141732284
11
1.4882313779527558
21
0.3678
0
LINE
8
BLACK
6
CONTINUOUS
10
1.4882313779527558
20
0.3678
11
1.4925394094488189
21
0.3554883858267717
0
LINE
8
BLACK
6
CONTINUOUS
10
1.4925394094488189
20
0.3554883858267717
11
1.4981988188976378
21
0.3437364960629921
0
LINE
8
BLACK
6
CONTINUOUS
10
1.4981988188976378
20
0.3437364960629921
11
1.505138464566929
21
0.332692125984252
0
LINE
8
BLACK
6
CONTINUOUS
10
1.505138464566929
20
0.332692125984252
11
1.5132710236220472
21
0.322494251968504
0
LINE
8
BLACK
6
CONTINUOUS
10
1.5132710236220472
20
0.322494251968504
11
1.5224942519685039
21
0.3132710236220472
0
LINE
8
BLACK
6
CONTINUOUS
10
1.5224942519685039
20
0.3132710236220472
11
1.5326921259842519
21
0.3051384645669291
0
LINE
8
BLACK
6
CONTINUOUS
10
1.5326921259842519
20
0.3051384645669291
11
1.543736496062992
21
0.2981988188976378
0
LINE
8
BLACK
6
CONTINUOUS
10
1.543736496062992
20
0.2981988188976378
11
1.5554883858267716
21
0.2925394094488189
0
LINE
8
BLACK
6
CONTINUOUS
10
1.5554883858267716
20
0.2925394094488189
11
1.5677999999999999
21
0.2882313779527559
0
LINE
8
BLACK
6
CONTINUOUS
10
1.5677999999999999
20
0.2882313779527559
11
1.5805166141732283
21
0.2853288976377953
0
LINE
8
BLACK
6
CONTINUOUS
10
1.5805166141732283
20
0.2853288976377953
11
1.5934781889763778
21
0.2838685039370079
0
LINE
8
BLACK
6
CONTINUOUS
10
1.5934781889763778
20
0.2838685039370079
11
1.6065218110236219
21
0.2838685039370079
0
LINE
8
BLACK
6
CONTINUOUS
10
1.6065218110236219
20
0.2838685039370079
11
1.6194833858267716
21
0.2853288976377953
0
LINE
8
BLACK
6
CONTINUOUS
10
1.6194833858267716
20
0.2853288976377953
11
1.6321999999999999
21
0.2882313779527559
0
LINE
8
BLACK
6
CONTINUOUS
10
1.6321999999999999
20
0.2882313779527559
11
1.6445116141732283
21
0.2925394094488189
0
LINE
8
BLACK
6
CONTINUOUS
10
1.6445116141732283
20
0.2925394094488189
11
1.6562635039370079
21
0.2981988188976378
0
LINE
8
BLACK
6
CONTINUOUS
10
1.6562635039370079
20
0.2981988188976378
11
1.6673078740157481
21
0.3051384645669291
0
LINE
8
BLACK
6
CONTINUOUS
10
1.6673078740157481
20
0.3051384645669291
11
1.6775057480314961
21
0.3132710236220472
0
LINE
8
BLACK
6
CONTINUOUS
10
1.6775057480314961
20
0.3132710236220472
11
1.6867289763779527
21
0.322494251968504
0
LINE
8
BLACK
6
CONTINUOUS
10
1.6867289763779527
20
0.322494251968504
11
1.6948615354330707
21
0.332692125984252
0
LINE
8
BLACK
6
CONTINUOUS
10
1.6948615354330707
20
0.332692125984252
11
1.7018011811023621
21
0.3437364960629921
0
LINE
8
BLACK
6
CONTINUOUS
10
1.7018011811023621
20
0.3437364960629921
11
1.707460590551181
21
0.3554883858267717
0
LINE
8
BLACK
6
CONTINUOUS
10
1.707460590551181
20
0.3554883858267717
11
1.7117686220472441
21
0.3678
0
LINE
8
BLACK
6
CONTINUOUS
10
1.7117686220472441
20
0.3678
11
1.7146711023622048
21
0.3805166141732284
0
LINE
8
BLACK
6
CONTINUOUS
10
1.7146711023622048
20
0.3805166141732284
11
1.7161314960629921
21
0.3934781889763779
0
LINE
8
BLACK
6
CONTINUOUS
10
1.7161314960629921
20
0.3934781889763779
11
1.7161314960629921
21
0.4065218110236221
0
LINE
8
BLACK
6
CONTINUOUS
10
1.7161314960629921
20
0.4065218110236221
11
1.7146711023622048
21
0.4194833858267716
0
LINE
8
BLACK
6
CONTINUOUS
10
1.7146711023622048
20
0.4194833858267716
11
1.7117686220472441
21
0.4322
0
LINE
8
BLACK
6
CONTINUOUS
10
1.7117686220472441
20
0.4322
11
1.707460590551181
21
0.4445116141732283
0
LINE
8
BLACK
6
CONTINUOUS
10
1.707460590551181
20
0.4445116141732283
11
1.7018011811023621
21
0.4562635039370079
0
LINE
8
BLACK
6
CONTINUOUS
10
1.7018011811023621
20
0.4562635039370079
11
1.6994555511811023
21
0.4599965354330708
0
LINE
8
BLACK
6
CONTINUOUS
10
1.6994555511811023
20
0.4599965354330708
11
1.6992031496062991
21
0.459387125984252
0
LINE
8
BLACK
6
CONTINUOUS
10
1.6992031496062991
20
0.459387125984252
11
1.6983885039370079
21
0.4585724803149606
0
LINE
8
BLACK
6
CONTINUOUS
10
1.6983885039370079
20
0.4585724803149606
11
1.6973240944881889
21
0.4581315748031496
0
LINE
8
BLACK
6
CONTINUOUS
10
1.6973240944881889
20
0.4581315748031496
11
1.696748031496063
21
0.4580748425196851
0
LINE
8
BLACK
6
CONTINUOUS
10
1.696748031496063
20
0.4580748425196851
11
1.4993369685039371
21
0.4580748425196851
0
LINE
8
BLACK
6
CONTINUOUS
10
1.4993369685039371
20
0.4580748425196851
11
1.4981988188976378
21
0.4562635039370079
0
LINE
8
BLACK
6
CONTINUOUS
10
1.4981988188976378
20
0.4562635039370079
11
1.4925394094488189
21
0.4445116141732283
0
LINE
8
BLACK
6
CONTINUOUS
10
1.4925394094488189
20
0.4445116141732283
11
1.4882313779527558
21
0.4322
0
LINE
8
BLACK
6
CONTINUOUS
10
1.4882313779527558
20
0.4322
11
1.4853288976377952
21
0.4194833858267716
0
LINE
8
BLACK
6
CONTINUOUS
10
1.4853288976377952
20
0.4194833858267716
11
1.4838685039370079
21
0.4065218110236221
0
LINE
8
BLACK
6
CONTINUOUS
10
1.4838685039370079
20
0.4065218110236221
11
1.4838685039370079
21
0.3934781889763779
0
LINE
8
BLACK
6
CONTINUOUS
10
0.4201122047244095
20
1.3183720472440945
11
0.4332392125984252
21
1.315375905511811
0
LINE
8
BLACK
6
CONTINUOUS
10
0.4332392125984252
20
1.315375905511811
11
0.4459482283464567
21
1.3109288188976378
0
LINE
8
BLACK
6
CONTINUOUS
10
0.4459482283464567
20
1.3109288188976378
11
0.4580794094488189
21
1.3050867716535433
0
LINE
8
BLACK
6
CONTINUOUS
10
0.4580794094488189
20
1.3050867716535433
11
0.4694801968503937
21
1.2979231889763778
0
LINE
8
BLACK
6
CONTINUOUS
10
0.4694801968503937
20
1.2979231889763778
11
0.4800072440944882
21
1.2895281496062991
0
LINE
8
BLACK
6
CONTINUOUS
10
0.4800072440944882
20
1.2895281496062991
11
0.4895281496062992
21
1.2800072440944881
0
LINE
8
BLACK
6
CONTINUOUS
10
0.4895281496062992
20
1.2800072440944881
11
0.4979231889763779
21
1.2694801968503937
0
LINE
8
BLACK
6
CONTINUOUS
10
0.4979231889763779
20
1.2694801968503937
11
0.5050867716535433
21
1.2580794094488188
0
LINE
8
BLACK
6
CONTINUOUS
10
0.5050867716535433
20
1.2580794094488188
11
0.5109288188976377
21
1.2459482283464567
0
LINE
8
BLACK
6
CONTINUOUS
10
0.5109288188976377
20
1.2459482283464567
11
0.515375905511811
21
1.2332392125984251
0
LINE
8
BLACK
6
CONTINUOUS
10
0.515375905511811
20
1.2332392125984251
11
0.5183720472440945
21
1.2201122047244095
0
LINE
8
BLACK
6
CONTINUOUS
10
0.5183720472440945
20
1.2201122047244095
11
0.5198796062992126
21
1.2067322834645668
0
LINE
8
BLACK
6
CONTINUOUS
10
0.5198796062992126
20
1.2067322834645668
11
0.5198796062992126
21
1.1932677165354331
0
LINE
8
BLACK
6
CONTINUOUS
10
0.5198796062992126
20
1.1932677165354331
11
0.5183720472440945
21
1.1798877952755906
0
LINE
8
BLACK
6
CONTINUOUS
10
0.5183720472440945
20
1.1798877952755906
11
0.515375905511811
21
1.1667607874015749
0
LINE
8
BLACK
6
CONTINUOUS
10
0.515375905511811
20
1.1667607874015749
11
0.5109288188976377
21
1.1540517716535432
0
LINE
8
BLACK
6
CONTINUOUS
10
0.5109288188976377
20
1.1540517716535432
11
0.5050867716535433
21
1.1419205905511811
0
LINE
8
BLACK
6
CONTINUOUS
10
0.5050867716535433
20
1.1419205905511811
11
0.4979231889763779
21
1.1305198031496062
0
LINE
8
BLACK
6
CONTINUOUS
10
0.4979231889763779
20
1.1305198031496062
11
0.4895281496062992
21
1.1199927559055118
0
LINE
8
BLACK
6
CONTINUOUS
10
0.4895281496062992
20
1.1199927559055118
11
0.4800072440944882
21
1.1104718503937008
0
LINE
8
BLACK
6
CONTINUOUS
10
0.4800072440944882
20
1.1104718503937008
11
0.4694801968503937
21
1.1020768110236221
0
LINE
8
BLACK
6
CONTINUOUS
10
0.4694801968503937
20
1.1020768110236221
11
0.4580794094488189
21
1.0949132283464567
0
LINE
8
BLACK
6
CONTINUOUS
10
0.4580794094488189
20
1.0949132283464567
11
0.4459482283464567
21
1.0890711811023621
0
LINE
8
BLACK
6
CONTINUOUS
10
0.4459482283464567
20
1.0890711811023621
11
0.4332392125984252
21
1.0846240944881889
0
LINE
8
BLACK
6
CONTINUOUS
10
0.4332392125984252
20
1.0846240944881889
11
0.4201122047244095
21
1.0816279527559054
0
LINE
8
BLACK
6
CONTINUOUS
10
0.4201122047244095
20
1.0816279527559054
11
0.4067322834645669
21
1.0801203937007873
0
LINE
8
BLACK
6
CONTINUOUS
10
0.4067322834645669
20
1.0801203937007873
11
0.3932677165354331
21
1.0801203937007873
0
LINE
8
BLACK
6
CONTINUOUS
10
0.3932677165354331
20
1.0801203937007873
11
0.3798877952755905
21
1.0816279527559054
0
LINE
8
BLACK
6
CONTINUOUS
10
0.3798877952755905
20
1.0816279527559054
11
0.3667607874015748
21
1.0846240944881889
0
LINE
8
BLACK
6
CONTINUOUS
10
0.3667607874015748
20
1.0846240944881889
11
0.3540517716535433
21
1.0890711811023621
0
LINE
8
BLACK
6
CONTINUOUS
10
0.3540517716535433
20
1.0890711811023621
11
0.3419205905511811
21
1.0949132283464567
0
LINE
8
BLACK
6
CONTINUOUS
10
0.3419205905511811
20
1.0949132283464567
11
0.3305198031496063
21
1.1020768110236221
0
LINE
8
BLACK
6
CONTINUOUS
10
0.3305198031496063
20
1.1020768110236221
11
0.3199927559055118
21
1.1104718503937008
0
LINE
8
BLACK
6
CONTINUOUS
10
0.3199927559055118
20
1.1104718503937008
11
0.3104718503937008
21
1.1199927559055118
0
LINE
8
BLACK
6
CONTINUOUS
10
0.3104718503937008
20
1.1199927559055118
11
0.302076811023622
21
1.1305198031496062
0
LINE
8
BLACK
6
CONTINUOUS
10
0.302076811023622
20
1.1305198031496062
11
0.2949132283464567
21
1.1419205905511811
0
LINE
8
BLACK
6
CONTINUOUS
10
0.2949132283464567
20
1.1419205905511811
11
0.2890711811023622
21
1.1540517716535432
0
LINE
8
BLACK
6
CONTINUOUS
10
0.2890711811023622
20
1.1540517716535432
11
0.284624094488189
21
1.1667607874015749
0
LINE
8
BLACK
6
CONTINUOUS
10
0.284624094488189
20
1.1667607874015749
11
0.2816279527559055
21
1.1798877952755906
0
LINE
8
BLACK
6
CONTINUOUS
10
0.2816279527559055
20
1.1798877952755906
11
0.2801203937007874
21
1.1932677165354331
0
LINE
8
BLACK
6
CONTINUOUS
10
0.2801203937007874
20
1.1932677165354331
11
0.2801203937007874
21
1.206521811023622
0
LINE
8
BLACK
6
CONTINUOUS
10
0.2801203937007874
20
1.206521811023622
11
0.2801203937007874
21
1.2067322834645668
0
LINE
8
BLACK
6
CONTINUOUS
10
0.2801203937007874
20
1.2067322834645668
11
0.2816279527559055
21
1.2201122047244095
0
LINE
8
BLACK
6
CONTINUOUS
10
0.2816279527559055
20
1.2201122047244095
11
0.284624094488189
21
1.2332392125984251
0
LINE
8
BLACK
6
CONTINUOUS
10
0.284624094488189
20
1.2332392125984251
11
0.2890711811023622
21
1.2459482283464567
0
LINE
8
BLACK
6
CONTINUOUS
10
0.2890711811023622
20
1.2459482283464567
11
0.2949132283464567
21
1.2580794094488188
0
LINE
8
BLACK
6
CONTINUOUS
10
0.2949132283464567
20
1.2580794094488188
11
0.302076811023622
21
1.2694801968503937
0
LINE
8
BLACK
6
CONTINUOUS
10
0.302076811023622
20
1.2694801968503937
11
0.3104718503937008
21
1.2800072440944881
0
LINE
8
BLACK
6
CONTINUOUS
10
0.3104718503937008
20
1.2800072440944881
11
0.3199927559055118
21
1.2895281496062991
0
LINE
8
BLACK
6
CONTINUOUS
10
0.3199927559055118
20
1.2895281496062991
11
0.3305198031496063
21
1.2979231889763778
0
LINE
8
BLACK
6
CONTINUOUS
10
0.3305198031496063
20
1.2979231889763778
11
0.3419205905511811
21
1.3050867716535433
0
LINE
8
BLACK
6
CONTINUOUS
10
0.3419205905511811
20
1.3050867716535433
11
0.3540517716535433
21
1.3109288188976378
0
LINE
8
BLACK
6
CONTINUOUS
10
0.3540517716535433
20
1.3109288188976378
11
0.3667607874015748
21
1.315375905511811
0
LINE
8
BLACK
6
CONTINUOUS
10
0.3667607874015748
20
1.315375905511811
11
0.3798877952755905
21
1.3183720472440945
0
LINE
8
BLACK
6
CONTINUOUS
10
0.3798877952755905
20
1.3183720472440945
11
0.3932677165354331
21
1.3198796062992126
0
LINE
8
BLACK
6
CONTINUOUS
10
0.3932677165354331
20
1.3198796062992126
11
0.4067322834645669
21
1.3198796062992126
0
LINE
8
BLACK
6
CONTINUOUS
10
0.4067322834645669
20
1.3198796062992126
11
0.4201122047244095
21
1.3183720472440945
0
LINE
8
BLACK
6
CONTINUOUS
10
0.2838685039370079
20
1.1934781889763779
11
0.2853288976377953
21
1.1805166141732284
0
LINE
8
BLACK
6
CONTINUOUS
10
0.2853288976377953
20
1.1805166141732284
11
0.2882313779527559
21
1.1677999999999999
0
LINE
8
BLACK
6
CONTINUOUS
10
0.2882313779527559
20
1.1677999999999999
11
0.2925394094488189
21
1.1554883858267717
0
LINE
8
BLACK
6
CONTINUOUS
10
0.2925394094488189
20
1.1554883858267717
11
0.2981988188976378
21
1.1437364960629921
0
LINE
8
BLACK
6
CONTINUOUS
10
0.2981988188976378
20
1.1437364960629921
11
0.3051384645669291
21
1.132692125984252
0
LINE
8
BLACK
6
CONTINUOUS
10
0.3051384645669291
20
1.132692125984252
11
0.3132710236220472
21
1.1224942519685039
0
LINE
8
BLACK
6
CONTINUOUS
10
0.3132710236220472
20
1.1224942519685039
11
0.322494251968504
21
1.1132710236220473
0
LINE
8
BLACK
6
CONTINUOUS
10
0.322494251968504
20
1.1132710236220473
11
0.332692125984252
21
1.1051384645669291
0
LINE
8
BLACK
6
CONTINUOUS
10
0.332692125984252
20
1.1051384645669291
11
0.3437364960629921
21
1.0981988188976377
0
LINE
8
BLACK
6
CONTINUOUS
10
0.3437364960629921
20
1.0981988188976377
11
0.3554883858267717
21
1.0925394094488188
0
LINE
8
BLACK
6
CONTINUOUS
10
0.3554883858267717
20
1.0925394094488188
11
0.3678
21
1.0882313779527559
0
LINE
8
BLACK
6
CONTINUOUS
10
0.3678
20
1.0882313779527559
11
0.3805166141732284
21
1.0853288976377953
0
LINE
8
BLACK
6
CONTINUOUS
10
0.3805166141732284
20
1.0853288976377953
11
0.3934781889763779
21
1.083868503937008
0
LINE
8
BLACK
6
CONTINUOUS
10
0.3934781889763779
20
1.083868503937008
11
0.4065218110236221
21
1.083868503937008
0
LINE
8
BLACK
6
CONTINUOUS
10
0.4065218110236221
20
1.083868503937008
11
0.4194833858267716
21
1.0853288976377953
0
LINE
8
BLACK
6
CONTINUOUS
10
0.4194833858267716
20
1.0853288976377953
11
0.4322
21
1.0882313779527559
0
LINE
8
BLACK
6
CONTINUOUS
10
0.4322
20
1.0882313779527559
11
0.4445116141732283
21
1.0925394094488188
0
LINE
8
BLACK
6
CONTINUOUS
10
0.4445116141732283
20
1.0925394094488188
11
0.4562635039370079
21
1.0981988188976377
0
LINE
8
BLACK
6
CONTINUOUS
10
0.4562635039370079
20
1.0981988188976377
11
0.467307874015748
21
1.1051384645669291
0
LINE
8
BLACK
6
CONTINUOUS
10
0.467307874015748
20
1.1051384645669291
11
0.477505748031496
21
1.1132710236220473
0
LINE
8
BLACK
6
CONTINUOUS
10
0.477505748031496
20
1.1132710236220473
11
0.4867289763779528
21
1.1224942519685039
0
LINE
8
BLACK
6
CONTINUOUS
10
0.4867289763779528
20
1.1224942519685039
11
0.4948615354330709
21
1.132692125984252
0
LINE
8
BLACK
6
CONTINUOUS
10
0.4948615354330709
20
1.132692125984252
11
0.5018011811023622
21
1.1437364960629921
0
LINE
8
BLACK
6
CONTINUOUS
10
0.5018011811023622
20
1.1437364960629921
11
0.5074605905511811
21
1.1554883858267717
0
LINE
8
BLACK
6
CONTINUOUS
10
0.5074605905511811
20
1.1554883858267717
11
0.511768622047244
21
1.1677999999999999
0
LINE
8
BLACK
6
CONTINUOUS
10
0.511768622047244
20
1.1677999999999999
11
0.5146711023622047
21
1.1805166141732284
0
LINE
8
BLACK
6
CONTINUOUS
10
0.5146711023622047
20
1.1805166141732284
11
0.5161314960629921
21
1.1934781889763779
0
LINE
8
BLACK
6
CONTINUOUS
10
0.5161314960629921
20
1.1934781889763779
11
0.5161314960629921
21
1.206521811023622
0
LINE
8
BLACK
6
CONTINUOUS
10
0.5161314960629921
20
1.206521811023622
11
0.5146711023622047
21
1.2194833858267715
0
LINE
8
BLACK
6
CONTINUOUS
10
0.5146711023622047
20
1.2194833858267715
11
0.511768622047244
21
1.2322
0
LINE
8
BLACK
6
CONTINUOUS
10
0.511768622047244
20
1.2322
11
0.5074605905511811
21
1.2445116141732284
0
LINE
8
BLACK
6
CONTINUOUS
10
0.5074605905511811
20
1.2445116141732284
11
0.5018011811023622
21
1.2562635039370078
0
LINE
8
BLACK
6
CONTINUOUS
10
0.5018011811023622
20
1.2562635039370078
11
0.4948615354330709
21
1.267307874015748
0
LINE
8
BLACK
6
CONTINUOUS
10
0.4948615354330709
20
1.267307874015748
11
0.4867289763779528
21
1.277505748031496
0
LINE
8
BLACK
6
CONTINUOUS
10
0.4867289763779528
20
1.277505748031496
11
0.477505748031496
21
1.2867289763779528
0
LINE
8
BLACK
6
CONTINUOUS
10
0.477505748031496
20
1.2867289763779528
11
0.467307874015748
21
1.2948615354330708
0
LINE
8
BLACK
6
CONTINUOUS
10
0.467307874015748
20
1.2948615354330708
11
0.4562635039370079
21
1.3018011811023622
0
LINE
8
BLACK
6
CONTINUOUS
10
0.4562635039370079
20
1.3018011811023622
11
0.4445116141732283
21
1.3074605905511811
0
LINE
8
BLACK
6
CONTINUOUS
10
0.4445116141732283
20
1.3074605905511811
11
0.4322
21
1.311768622047244
0
LINE
8
BLACK
6
CONTINUOUS
10
0.4322
20
1.311768622047244
11
0.4194833858267716
21
1.3146711023622046
0
LINE
8
BLACK
6
CONTINUOUS
10
0.4194833858267716
20
1.3146711023622046
11
0.4065218110236221
21
1.3161314960629922
0
LINE
8
BLACK
6
CONTINUOUS
10
0.4065218110236221
20
1.3161314960629922
11
0.3934781889763779
21
1.3161314960629922
0
LINE
8
BLACK
6
CONTINUOUS
10
0.3934781889763779
20
1.3161314960629922
11
0.3805166141732284
21
1.3146711023622046
0
LINE
8
BLACK
6
CONTINUOUS
10
0.3805166141732284
20
1.3146711023622046
11
0.3678
21
1.311768622047244
0
LINE
8
BLACK
6
CONTINUOUS
10
0.3678
20
1.311768622047244
11
0.3554883858267717
21
1.3074605905511811
0
LINE
8
BLACK
6
CONTINUOUS
10
0.3554883858267717
20
1.3074605905511811
11
0.3437364960629921
21
1.3018011811023622
0
LINE
8
BLACK
6
CONTINUOUS
10
0.3437364960629921
20
1.3018011811023622
11
0.332692125984252
21
1.2948615354330708
0
LINE
8
BLACK
6
CONTINUOUS
10
0.332692125984252
20
1.2948615354330708
11
0.322494251968504
21
1.2867289763779528
0
LINE
8
BLACK
6
CONTINUOUS
10
0.322494251968504
20
1.2867289763779528
11
0.3132710236220472
21
1.277505748031496
0
LINE
8
BLACK
6
CONTINUOUS
10
0.3132710236220472
20
1.277505748031496
11
0.3051384645669291
21
1.267307874015748
0
LINE
8
BLACK
6
CONTINUOUS
10
0.3051384645669291
20
1.267307874015748
11
0.2981988188976378
21
1.2562635039370078
0
LINE
8
BLACK
6
CONTINUOUS
10
0.2981988188976378
20
1.2562635039370078
11
0.2925394094488189
21
1.2445116141732284
0
LINE
8
BLACK
6
CONTINUOUS
10
0.2925394094488189
20
1.2445116141732284
11
0.2882313779527559
21
1.2322
0
LINE
8
BLACK
6
CONTINUOUS
10
0.2882313779527559
20
1.2322
11
0.2853288976377953
21
1.2194833858267715
0
LINE
8
BLACK
6
CONTINUOUS
10
0.2853288976377953
20
1.2194833858267715
11
0.2838685039370079
21
1.206521811023622
0
LINE
8
BLACK
6
CONTINUOUS
10
0.2838685039370079
20
1.206521811023622
11
0.2838685039370079
21
1.1934781889763779
0
LINE
8
BLACK
6
CONTINUOUS
10
1.6201122047244094
20
1.3183720472440945
11
1.6332392125984252
21
1.315375905511811
0
LINE
8
BLACK
6
CONTINUOUS
10
1.6332392125984252
20
1.315375905511811
11
1.6459482283464566
21
1.3109288188976378
0
LINE
8
BLACK
6
CONTINUOUS
10
1.6459482283464566
20
1.3109288188976378
11
1.6580794094488189
21
1.3050867716535433
0
LINE
8
BLACK
6
CONTINUOUS
10
1.6580794094488189
20
1.3050867716535433
11
1.6694801968503936
21
1.2979231889763778
0
LINE
8
BLACK
6
CONTINUOUS
10
1.6694801968503936
20
1.2979231889763778
11
1.6800072440944882
21
1.2895281496062991
0
LINE
8
BLACK
6
CONTINUOUS
10
1.6800072440944882
20
1.2895281496062991
11
1.6895281496062993
21
1.2800072440944881
0
LINE
8
BLACK
6
CONTINUOUS
10
1.6895281496062993
20
1.2800072440944881
11
1.697923188976378
21
1.2694801968503937
0
LINE
8
BLACK
6
CONTINUOUS
10
1.697923188976378
20
1.2694801968503937
11
1.7050867716535432
21
1.2580794094488188
0
LINE
8
BLACK
6
CONTINUOUS
10
1.7050867716535432
20
1.2580794094488188
11
1.7109288188976377
21
1.2459482283464567
0
LINE
8
BLACK
6
CONTINUOUS
10
1.7109288188976377
20
1.2459482283464567
11
1.715375905511811
21
1.2332392125984251
0
LINE
8
BLACK
6
CONTINUOUS
10
1.715375905511811
20
1.2332392125984251
11
1.7183720472440944
21
1.2201122047244095
0
LINE
8
BLACK
6
CONTINUOUS
10
1.7183720472440944
20
1.2201122047244095
11
1.7198796062992125
21
1.2067322834645668
0
LINE
8
BLACK
6
CONTINUOUS
10
1.7198796062992125
20
1.2067322834645668
11
1.7198796062992125
21
1.1932677165354331
0
LINE
8
BLACK
6
CONTINUOUS
10
1.7198796062992125
20
1.1932677165354331
11
1.7183720472440944
21
1.1798877952755906
0
LINE
8
BLACK
6
CONTINUOUS
10
1.7183720472440944
20
1.1798877952755906
11
1.715375905511811
21
1.1667607874015749
0
LINE
8
BLACK
6
CONTINUOUS
10
1.715375905511811
20
1.1667607874015749
11
1.7109288188976377
21
1.1540517716535432
0
LINE
8
BLACK
6
CONTINUOUS
10
1.7109288188976377
20
1.1540517716535432
11
1.7050867716535432
21
1.1419205905511811
0
LINE
8
BLACK
6
CONTINUOUS
10
1.7050867716535432
20
1.1419205905511811
11
1.697923188976378
21
1.1305198031496062
0
LINE
8
BLACK
6
CONTINUOUS
10
1.697923188976378
20
1.1305198031496062
11
1.6895281496062993
21
1.1199927559055118
0
LINE
8
BLACK
6
CONTINUOUS
10
1.6895281496062993
20
1.1199927559055118
11
1.6800072440944882
21
1.1104718503937008
0
LINE
8
BLACK
6
CONTINUOUS
10
1.6800072440944882
20
1.1104718503937008
11
1.6694801968503936
21
1.1020768110236221
0
LINE
8
BLACK
6
CONTINUOUS
10
1.6694801968503936
20
1.1020768110236221
11
1.6580794094488189
21
1.0949132283464567
0
LINE
8
BLACK
6
CONTINUOUS
10
1.6580794094488189
20
1.0949132283464567
11
1.6459482283464566
21
1.0890711811023621
0
LINE
8
BLACK
6
CONTINUOUS
10
1.6459482283464566
20
1.0890711811023621
11
1.6332392125984252
21
1.0846240944881889
0
LINE
8
BLACK
6
CONTINUOUS
10
1.6332392125984252
20
1.0846240944881889
11
1.6201122047244094
21
1.0816279527559054
0
LINE
8
BLACK
6
CONTINUOUS
10
1.6201122047244094
20
1.0816279527559054
11
1.606732283464567
21
1.0801203937007873
0
LINE
8
BLACK
6
CONTINUOUS
10
1.606732283464567
20
1.0801203937007873
11
1.593267716535433
21
1.0801203937007873
0
LINE
8
BLACK
6
CONTINUOUS
10
1.593267716535433
20
1.0801203937007873
11
1.5798877952755905
21
1.0816279527559054
0
LINE
8
BLACK
6
CONTINUOUS
10
1.5798877952755905
20
1.0816279527559054
11
1.5667607874015748
21
1.0846240944881889
0
LINE
8
BLACK
6
CONTINUOUS
10
1.5667607874015748
20
1.0846240944881889
11
1.5540517716535434
21
1.0890711811023621
0
LINE
8
BLACK
6
CONTINUOUS
10
1.5540517716535434
20
1.0890711811023621
11
1.541920590551181
21
1.0949132283464567
0
LINE
8
BLACK
6
CONTINUOUS
10
1.541920590551181
20
1.0949132283464567
11
1.5305198031496063
21
1.1020768110236221
0
LINE
8
BLACK
6
CONTINUOUS
10
1.5305198031496063
20
1.1020768110236221
11
1.5199927559055117
21
1.1104718503937008
0
LINE
8
BLACK
6
CONTINUOUS
10
1.5199927559055117
20
1.1104718503937008
11
1.5104718503937007
21
1.1199927559055118
0
LINE
8
BLACK
6
CONTINUOUS
10
1.5104718503937007
20
1.1199927559055118
11
1.502076811023622
21
1.1305198031496062
0
LINE
8
BLACK
6
CONTINUOUS
10
1.502076811023622
20
1.1305198031496062
11
1.4949132283464566
21
1.1419205905511811
0
LINE
8
BLACK
6
CONTINUOUS
10
1.4949132283464566
20
1.1419205905511811
11
1.4890711811023623
21
1.1540517716535432
0
LINE
8
BLACK
6
CONTINUOUS
10
1.4890711811023623
20
1.1540517716535432
11
1.484624094488189
21
1.1667607874015749
0
LINE
8
BLACK
6
CONTINUOUS
10
1.484624094488189
20
1.1667607874015749
11
1.4816279527559055
21
1.1798877952755906
0
LINE
8
BLACK
6
CONTINUOUS
10
1.4816279527559055
20
1.1798877952755906
11
1.4801203937007874
21
1.1932677165354331
0
LINE
8
BLACK
6
CONTINUOUS
10
1.4801203937007874
20
1.1932677165354331
11
1.4801203937007874
21
1.206521811023622
0
LINE
8
BLACK
6
CONTINUOUS
10
1.4801203937007874
20
1.206521811023622
11
1.4801203937007874
21
1.2067322834645668
0
LINE
8
BLACK
6
CONTINUOUS
10
1.4801203937007874
20
1.2067322834645668
11
1.4816279527559055
21
1.2201122047244095
0
LINE
8
BLACK
6
CONTINUOUS
10
1.4816279527559055
20
1.2201122047244095
11
1.484624094488189
21
1.2332392125984251
0
LINE
8
BLACK
6
CONTINUOUS
10
1.484624094488189
20
1.2332392125984251
11
1.4890711811023623
21
1.2459482283464567
0
LINE
8
BLACK
6
CONTINUOUS
10
1.4890711811023623
20
1.2459482283464567
11
1.4949132283464566
21
1.2580794094488188
0
LINE
8
BLACK
6
CONTINUOUS
10
1.4949132283464566
20
1.2580794094488188
11
1.502076811023622
21
1.2694801968503937
0
LINE
8
BLACK
6
CONTINUOUS
10
1.502076811023622
20
1.2694801968503937
11
1.5104718503937007
21
1.2800072440944881
0
LINE
8
BLACK
6
CONTINUOUS
10
1.5104718503937007
20
1.2800072440944881
11
1.5199927559055117
21
1.2895281496062991
0
LINE
8
BLACK
6
CONTINUOUS
10
1.5199927559055117
20
1.2895281496062991
11
1.5305198031496063
21
1.2979231889763778
0
LINE
8
BLACK
6
CONTINUOUS
10
1.5305198031496063
20
1.2979231889763778
11
1.541920590551181
21
1.3050867716535433
0
LINE
8
BLACK
6
CONTINUOUS
10
1.541920590551181
20
1.3050867716535433
11
1.5540517716535434
21
1.3109288188976378
0
LINE
8
BLACK
6
CONTINUOUS
10
1.5540517716535434
20
1.3109288188976378
11
1.5667607874015748
21
1.315375905511811
0
LINE
8
BLACK
6
CONTINUOUS
10
1.5667607874015748
20
1.315375905511811
11
1.5798877952755905
21
1.3183720472440945
0
LINE
8
BLACK
6
CONTINUOUS
10
1.5798877952755905
20
1.3183720472440945
11
1.593267716535433
21
1.3198796062992126
0
LINE
8
BLACK
6
CONTINUOUS
10
1.593267716535433
20
1.3198796062992126
11
1.606732283464567
21
1.3198796062992126
0
LINE
8
BLACK
6
CONTINUOUS
10
1.606732283464567
20
1.3198796062992126
11
1.6201122047244094
21
1.3183720472440945
0
LINE
8
BLACK
6
CONTINUOUS
10
1.4838685039370079
20
1.1934781889763779
11
1.4853288976377952
21
1.1805166141732284
0
LINE
8
BLACK
6
CONTINUOUS
10
1.4853288976377952
20
1.1805166141732284
11
1.4882313779527558
21
1.1677999999999999
0
LINE
8
BLACK
6
CONTINUOUS
10
1.4882313779527558
20
1.1677999999999999
11
1.4925394094488189
21
1.1554883858267717
0
LINE
8
BLACK
6
CONTINUOUS
10
1.4925394094488189
20
1.1554883858267717
11
1.4981988188976378
21
1.1437364960629921
0
LINE
8
BLACK
6
CONTINUOUS
10
1.4981988188976378
20
1.1437364960629921
11
1.505138464566929
21
1.132692125984252
0
LINE
8
BLACK
6
CONTINUOUS
10
1.505138464566929
20
1.132692125984252
11
1.5132710236220472
21
1.1224942519685039
0
LINE
8
BLACK
6
CONTINUOUS
10
1.5132710236220472
20
1.1224942519685039
11
1.5224942519685039
21
1.1132710236220473
0
LINE
8
BLACK
6
CONTINUOUS
10
1.5224942519685039
20
1.1132710236220473
11
1.5326921259842519
21
1.1051384645669291
0
LINE
8
BLACK
6
CONTINUOUS
10
1.5326921259842519
20
1.1051384645669291
11
1.543736496062992
21
1.0981988188976377
0
LINE
8
BLACK
6
CONTINUOUS
10
1.543736496062992
20
1.0981988188976377
11
1.5554883858267716
21
1.0925394094488188
0
LINE
8
BLACK
6
CONTINUOUS
10
1.5554883858267716
20
1.0925394094488188
11
1.5677999999999999
21
1.0882313779527559
0
LINE
8
BLACK
6
CONTINUOUS
10
1.5677999999999999
20
1.0882313779527559
11
1.5805166141732283
21
1.0853288976377953
0
LINE
8
BLACK
6
CONTINUOUS
10
1.5805166141732283
20
1.0853288976377953
11
1.5934781889763778
21
1.083868503937008
0
LINE
8
BLACK
6
CONTINUOUS
10
1.5934781889763778
20
1.083868503937008
11
1.6065218110236219
21
1.083868503937008
0
LINE
8
BLACK
6
CONTINUOUS
10
1.6065218110236219
20
1.083868503937008
11
1.6194833858267716
21
1.0853288976377953
0
LINE
8
BLACK
6
CONTINUOUS
10
1.6194833858267716
20
1.0853288976377953
11
1.6321999999999999
21
1.0882313779527559
0
LINE
8
BLACK
6
CONTINUOUS
10
1.6321999999999999
20
1.0882313779527559
11
1.6445116141732283
21
1.0925394094488188
0
LINE
8
BLACK
6
CONTINUOUS
10
1.6445116141732283
20
1.0925394094488188
11
1.6562635039370079
21
1.0981988188976377
0
LINE
8
BLACK
6
CONTINUOUS
10
1.6562635039370079
20
1.0981988188976377
11
1.6673078740157481
21
1.1051384645669291
0
LINE
8
BLACK
6
CONTINUOUS
10
1.6673078740157481
20
1.1051384645669291
11
1.6775057480314961
21
1.1132710236220473
0
LINE
8
BLACK
6
CONTINUOUS
10
1.6775057480314961
20
1.1132710236220473
11
1.6867289763779527
21
1.1224942519685039
0
LINE
8
BLACK
6
CONTINUOUS
10
1.6867289763779527
20
1.1224942519685039
11
1.6948615354330707
21
1.132692125984252
0
LINE
8
BLACK
6
CONTINUOUS
10
1.6948615354330707
20
1.132692125984252
11
1.7018011811023621
21
1.1437364960629921
0
LINE
8
BLACK
6
CONTINUOUS
10
1.7018011811023621
20
1.1437364960629921
11
1.707460590551181
21
1.1554883858267717
0
LINE
8
BLACK
6
CONTINUOUS
10
1.707460590551181
20
1.1554883858267717
11
1.7117686220472441
21
1.1677999999999999
0
LINE
8
BLACK
6
CONTINUOUS
10
1.7117686220472441
20
1.1677999999999999
11
1.7146711023622048
21
1.1805166141732284
0
LINE
8
BLACK
6
CONTINUOUS
10
1.7146711023622048
20
1.1805166141732284
11
1.7161314960629921
21
1.1934781889763779
0
LINE
8
BLACK
6
CONTINUOUS
10
1.7161314960629921
20
1.1934781889763779
11
1.7161314960629921
21
1.206521811023622
0
LINE
8
BLACK
6
CONTINUOUS
10
1.7161314960629921
20
1.206521811023622
11
1.7146711023622048
21
1.2194833858267715
0
LINE
8
BLACK
6
CONTINUOUS
10
1.7146711023622048
20
1.2194833858267715
11
1.7117686220472441
21
1.2322
0
LINE
8
BLACK
6
CONTINUOUS
10
1.7117686220472441
20
1.2322
11
1.707460590551181
21
1.2445116141732284
0
LINE
8
BLACK
6
CONTINUOUS
10
1.707460590551181
20
1.2445116141732284
11
1.7018011811023621
21
1.2562635039370078
0
LINE
8
BLACK
6
CONTINUOUS
10
1.7018011811023621
20
1.2562635039370078
11
1.6948615354330707
21
1.267307874015748
0
LINE
8
BLACK
6
CONTINUOUS
10
1.6948615354330707
20
1.267307874015748
11
1.6867289763779527
21
1.277505748031496
0
LINE
8
BLACK
6
CONTINUOUS
10
1.6867289763779527
20
1.277505748031496
11
1.6775057480314961
21
1.2867289763779528
0
LINE
8
BLACK
6
CONTINUOUS
10
1.6775057480314961
20
1.2867289763779528
11
1.6673078740157481
21
1.2948615354330708
0
LINE
8
BLACK
6
CONTINUOUS
10
1.6673078740157481
20
1.2948615354330708
11
1.6562635039370079
21
1.3018011811023622
0
LINE
8
BLACK
6
CONTINUOUS
10
1.6562635039370079
20
1.3018011811023622
11
1.6445116141732283
21
1.3074605905511811
0
LINE
8
BLACK
6
CONTINUOUS
10
1.6445116141732283
20
1.3074605905511811
11
1.6321999999999999
21
1.311768622047244
0
LINE
8
BLACK
6
CONTINUOUS
10
1.6321999999999999
20
1.311768622047244
11
1.6194833858267716
21
1.3146711023622046
0
LINE
8
BLACK
6
CONTINUOUS
10
1.6194833858267716
20
1.3146711023622046
11
1.6065218110236219
21
1.3161314960629922
0
LINE
8
BLACK
6
CONTINUOUS
10
1.6065218110236219
20
1.3161314960629922
11
1.5934781889763778
21
1.3161314960629922
0
LINE
8
BLACK
6
CONTINUOUS
10
1.5934781889763778
20
1.3161314960629922
11
1.5805166141732283
21
1.3146711023622046
0
LINE
8
BLACK
6
CONTINUOUS
10
1.5805166141732283
20
1.3146711023622046
11
1.5677999999999999
21
1.311768622047244
0
LINE
8
BLACK
6
CONTINUOUS
10
1.5677999999999999
20
1.311768622047244
11
1.5554883858267716
21
1.3074605905511811
0
LINE
8
BLACK
6
CONTINUOUS
10
1.5554883858267716
20
1.3074605905511811
11
1.543736496062992
21
1.3018011811023622
0
LINE
8
BLACK
6
CONTINUOUS
10
1.543736496062992
20
1.3018011811023622
11
1.5326921259842519
21
1.2948615354330708
0
LINE
8
BLACK
6
CONTINUOUS
10
1.5326921259842519
20
1.2948615354330708
11
1.5224942519685039
21
1.2867289763779528
0
LINE
8
BLACK
6
CONTINUOUS
10
1.5224942519685039
20
1.2867289763779528
11
1.5132710236220472
21
1.277505748031496
0
LINE
8
BLACK
6
CONTINUOUS
10
1.5132710236220472
20
1.277505748031496
11
1.505138464566929
21
1.267307874015748
0
LINE
8
BLACK
6
CONTINUOUS
10
1.505138464566929
20
1.267307874015748
11
1.4981988188976378
21
1.2562635039370078
0
LINE
8
BLACK
6
CONTINUOUS
10
1.4981988188976378
20
1.2562635039370078
11
1.4925394094488189
21
1.2445116141732284
0
LINE
8
BLACK
6
CONTINUOUS
10
1.4925394094488189
20
1.2445116141732284
11
1.4882313779527558
21
1.2322
0
LINE
8
BLACK
6
CONTINUOUS
10
1.4882313779527558
20
1.2322
11
1.4853288976377952
21
1.2194833858267715
0
LINE
8
BLACK
6
CONTINUOUS
10
1.4853288976377952
20
1.2194833858267715
11
1.4838685039370079
21
1.206521811023622
0
LINE
8
BLACK
6
CONTINUOUS
10
1.4838685039370079
20
1.206521811023622
11
1.4838685039370079
21
1.1934781889763779
0
LINE
8
BLACK
6
CONTINUOUS
10
0.916576062992126
20
1.5118960236220471
11
0.9176404724409448
21
1.5114551181102363
0
LINE
8
BLACK
6
CONTINUOUS
10
0.9176404724409448
20
1.5114551181102363
11
0.9184551181102362
21
1.5106404724409448
0
LINE
8
BLACK
6
CONTINUOUS
10
0.9184551181102362
20
1.5106404724409448
11
0.9188960236220473
21
1.509576062992126
0
LINE
8
BLACK
6
CONTINUOUS
10
0.9188960236220473
20
1.509576062992126
11
0.9189527559055118
21
1.5089999999999999
0
LINE
8
BLACK
6
CONTINUOUS
10
0.9189527559055118
20
1.5089999999999999
11
0.9189527559055118
21
1.3089999999999999
0
LINE
8
BLACK
6
CONTINUOUS
10
0.9189527559055118
20
1.3089999999999999
11
0.9188960236220473
21
1.3084239370078741
0
LINE
8
BLACK
6
CONTINUOUS
10
0.9188960236220473
20
1.3084239370078741
11
0.9184551181102362
21
1.307359527559055
0
LINE
8
BLACK
6
CONTINUOUS
10
0.9184551181102362
20
1.307359527559055
11
0.9176404724409448
21
1.3065448818897638
0
LINE
8
BLACK
6
CONTINUOUS
10
0.9176404724409448
20
1.3065448818897638
11
0.916576062992126
21
1.3061039763779527
0
LINE
8
BLACK
6
CONTINUOUS
10
0.916576062992126
20
1.3061039763779527
11
0.9159999999999999
21
1.3060472440944881
0
LINE
8
BLACK
6
CONTINUOUS
10
0.9159999999999999
20
1.3060472440944881
11
0.616
21
1.3060472440944881
0
LINE
8
BLACK
6
CONTINUOUS
10
0.616
20
1.3060472440944881
11
0.615423937007874
21
1.3061039763779527
0
LINE
8
BLACK
6
CONTINUOUS
10
0.615423937007874
20
1.3061039763779527
11
0.6143595275590551
21
1.3065448818897638
0
LINE
8
BLACK
6
CONTINUOUS
10
0.6143595275590551
20
1.3065448818897638
11
0.6135448818897637
21
1.307359527559055
0
LINE
8
BLACK
6
CONTINUOUS
10
0.6135448818897637
20
1.307359527559055
11
0.6131039763779528
21
1.3084239370078741
0
LINE
8
BLACK
6
CONTINUOUS
10
0.6131039763779528
20
1.3084239370078741
11
0.6130472440944882
21
1.3089999999999999
0
LINE
8
BLACK
6
CONTINUOUS
10
0.6130472440944882
20
1.3089999999999999
11
0.6130472440944882
21
1.5089999999999999
0
LINE
8
BLACK
6
CONTINUOUS
10
0.6130472440944882
20
1.5089999999999999
11
0.6131039763779528
21
1.509576062992126
0
LINE
8
BLACK
6
CONTINUOUS
10
0.6131039763779528
20
1.509576062992126
11
0.6135448818897637
21
1.5106404724409448
0
LINE
8
BLACK
6
CONTINUOUS
10
0.6135448818897637
20
1.5106404724409448
11
0.6143595275590551
21
1.5114551181102363
0
LINE
8
BLACK
6
CONTINUOUS
10
0.6143595275590551
20
1.5114551181102363
11
0.615423937007874
21
1.5118960236220471
0
LINE
8
BLACK
6
CONTINUOUS
10
0.615423937007874
20
1.5118960236220471
11
0.616
21
1.5119527559055117
0
LINE
8
BLACK
6
CONTINUOUS
10
0.616
20
1.5119527559055117
11
0.9159999999999999
21
1.5119527559055117
0
LINE
8
BLACK
6
CONTINUOUS
10
0.9159999999999999
20
1.5119527559055117
11
0.916576062992126
21
1.5118960236220471
0
LINE
8
BLACK
6
CONTINUOUS
10
0.6189527559055118
20
1.5060472440944881
11
0.6189527559055118
21
1.3119527559055117
0
LINE
8
BLACK
6
CONTINUOUS
10
0.6189527559055118
20
1.3119527559055117
11
0.9130472440944881
21
1.3119527559055117
0
LINE
8
BLACK
6
CONTINUOUS
10
0.9130472440944881
20
1.3119527559055117
11
0.9130472440944881
21
1.5060472440944881
0
LINE
8
BLACK
6
CONTINUOUS
10
0.9130472440944881
20
1.5060472440944881
11
0.6189527559055118
21
1.5060472440944881
0
CIRCLE
8
BLACK
10
1.5589527559055119
20
0.598822874015748
40
0.0068897637795276
0
CIRCLE
8
BLACK
10
1.6589527559055117
20
0.6988228740157481
40
0.0068897637795276
0
CIRCLE
8
BLACK
10
1.4589527559055118
20
0.6988228740157481
40
0.0068897637795276
0
CIRCLE
8
BLACK
10
1.6589527559055117
20
0.498822874015748
40
0.0068897637795276
0
CIRCLE
8
BLACK
10
1.4589527559055118
20
0.498822874015748
40
0.0068897637795276
0
CIRCLE
8
BLACK
10
0.666
20
1.359
40
0.0068897637795276
0
CIRCLE
8
BLACK
10
0.666
20
1.4590000000000001
40
0.0068897637795276
0
CIRCLE
8
BLACK
10
0.766
20
1.3589999606299212
40
0.0068897637795276
0
CIRCLE
8
BLACK
10
0.766
20
1.4590000393700786
40
0.0068897637795276
0
CIRCLE
8
BLACK
10
0.866
20
1.359
40
0.0068897637795276
0
CIRCLE
8
BLACK
10
0.866
20
1.4590000000000001
40
0.0068897637795276
0
CIRCLE
8
BLACK
10
0.4
20
0.4
40
0.0068897637795276
0
CIRCLE
8
BLACK
10
1.5999999999999999
20
1.2
40
0.0068897637795276
0
CIRCLE
8
BLACK
10
1.5999999999999999
20
0.4
40
0.0068897637795276
0
CIRCLE
8
BLACK
10
0.4
20
1.2
40
0.0068897637795276
0
CIRCLE
8
BLACK
10
1.5589527559055119
20
0.598822874015748
40
0.0068897637795276
0
CIRCLE
8
BLACK
10
1.6589527559055117
20
0.6988228740157481
40
0.0068897637795276
0
CIRCLE
8
BLACK
10
1.4589527559055118
20
0.6988228740157481
40
0.0068897637795276
0
CIRCLE
8
BLACK
10
1.6589527559055117
20
0.498822874015748
40
0.0068897637795276
0
CIRCLE
8
BLACK
10
1.4589527559055118
20
0.498822874015748
40
0.0068897637795276
0
CIRCLE
8
BLACK
10
0.666
20
1.359
40
0.0068897637795276
0
CIRCLE
8
BLACK
10
0.666
20
1.4590000000000001
40
0.0068897637795276
0
CIRCLE
8
BLACK
10
0.766
20
1.3589999606299212
40
0.0068897637795276
0
CIRCLE
8
BLACK
10
0.766
20
1.4590000393700786
40
0.0068897637795276
0
CIRCLE
8
BLACK
10
0.866
20
1.359
40
0.0068897637795276
0
CIRCLE
8
BLACK
10
0.866
20
1.4590000000000001
40
0.0068897637795276
0
CIRCLE
8
BLACK
10
0.4
20
0.4
40
0.0068897637795276
0
CIRCLE
8
BLACK
10
1.5999999999999999
20
1.2
40
0.0068897637795276
0
CIRCLE
8
BLACK
10
1.5999999999999999
20
0.4
40
0.0068897637795276
0
CIRCLE
8
BLACK
10
0.4
20
1.2
40
0.0068897637795276
  0
ENDSEC
  0
EOF
