  0
SECTION
  2
HEADER
  9
$ANGBASE
  50
0.0
  9
$ANGDIR
  70
1
  9
$MEASUREMENT
  70
0
  0
ENDSEC
  0
SECTION
  2
TABLES
  0
TABLE
  2
LTYPE
  70
4
  0
LTYPE
  5
40F
  2
CONTINUOUS
  70
0
  3
Solid line
  72
65
  73
0
  40
0.0
  0
LTYPE
  5
410
  2
DASHDOT
 70
0
  3
Dash Dot ____ _ ____ _
 72
65
 73
4
 40
2.0
 49
1.25
 49
-0.25
 49
0.25
 49
-0.25
  0
LTYPE
  5
411
  2
DASHED
 70
0
  3
Dashed __ __ __ __ __
 72
65
 73
2
 40
0.75
 49
0.5
 49
-0.25
  0
LTYPE
  5
43B
  2
DOTTED
 70
0
  3
Dotted .  .  .  .
 72
65
 73
2
 40
0.2
 49
0.0
 49
-0.2
  0
ENDTAB
  0
TABLE
  2
STYLE
  70
4
  0
STYLE
  2
KICAD
  70
0
  40
0
  41
1
  42
1
  50
0
  71
0
  3
isocp.shx
  0
STYLE
  2
KICADB
  70
0
  40
0
  41
1
  42
1
  50
0
  71
0
  3
isocp.shx
  0
STYLE
  2
KICADI
  70
0
  40
0
  41
1
  42
1
  50
15
  71
0
  3
isocp.shx
  0
STYLE
  2
KICADBI
  70
0
  40
0
  41
1
  42
1
  50
15
  71
0
  3
isocp.shx
  0
ENDTAB
  0
TABLE
  2
LAYER
  70
1
  0
LAYER
  2
BLACK
  70
0
  62
7
  6
CONTINUOUS
  0
ENDTAB
  0
ENDSEC
  0
SECTION
  2
ENTITIES
0
LINE
8
BLACK
6
CONTINUOUS
10
0.563293031496063
20
0.3299122834645669
11
0.5707842913385827
21
0.3274781889763779
0
LINE
8
BLACK
6
CONTINUOUS
10
0.5707842913385827
20
0.3274781889763779
11
0.5778025984251969
21
0.3239022047244094
0
LINE
8
BLACK
6
CONTINUOUS
10
0.5778025984251969
20
0.3239022047244094
11
0.5841750393700788
21
0.3192723622047244
0
LINE
8
BLACK
6
CONTINUOUS
10
0.5841750393700788
20
0.3192723622047244
11
0.5897448031496063
21
0.3137025984251968
0
LINE
8
BLACK
6
CONTINUOUS
10
0.5897448031496063
20
0.3137025984251968
11
0.5943746456692913
21
0.3073301574803149
0
LINE
8
BLACK
6
CONTINUOUS
10
0.5943746456692913
20
0.3073301574803149
11
0.5979506299212598
21
0.3003118503937008
0
LINE
8
BLACK
6
CONTINUOUS
10
0.5979506299212598
20
0.3003118503937008
11
0.6003847244094488
21
0.2928205905511811
0
LINE
8
BLACK
6
CONTINUOUS
10
0.6003847244094488
20
0.2928205905511811
11
0.6016169291338582
21
0.285040748031496
0
LINE
8
BLACK
6
CONTINUOUS
10
0.6016169291338582
20
0.285040748031496
11
0.6016169291338582
21
0.2771639763779528
0
LINE
8
BLACK
6
CONTINUOUS
10
0.6016169291338582
20
0.2771639763779528
11
0.6003847244094488
21
0.2693841338582677
0
LINE
8
BLACK
6
CONTINUOUS
10
0.6003847244094488
20
0.2693841338582677
11
0.5979506299212598
21
0.261892874015748
0
LINE
8
BLACK
6
CONTINUOUS
10
0.5979506299212598
20
0.261892874015748
11
0.5943746456692913
21
0.2548745669291339
0
LINE
8
BLACK
6
CONTINUOUS
10
0.5943746456692913
20
0.2548745669291339
11
0.5897448031496063
21
0.248502125984252
0
LINE
8
BLACK
6
CONTINUOUS
10
0.5897448031496063
20
0.248502125984252
11
0.5841750393700788
21
0.2429323622047244
0
LINE
8
BLACK
6
CONTINUOUS
10
0.5841750393700788
20
0.2429323622047244
11
0.5778025984251969
21
0.2383025196850394
0
LINE
8
BLACK
6
CONTINUOUS
10
0.5778025984251969
20
0.2383025196850394
11
0.5707842913385827
21
0.2347265354330709
0
LINE
8
BLACK
6
CONTINUOUS
10
0.5707842913385827
20
0.2347265354330709
11
0.563293031496063
21
0.2322924409448819
0
LINE
8
BLACK
6
CONTINUOUS
10
0.563293031496063
20
0.2322924409448819
11
0.5555131889763779
21
0.2310602362204724
0
LINE
8
BLACK
6
CONTINUOUS
10
0.5555131889763779
20
0.2310602362204724
11
0.5476364173228346
21
0.2310602362204724
0
LINE
8
BLACK
6
CONTINUOUS
10
0.5476364173228346
20
0.2310602362204724
11
0.5398565748031496
21
0.2322924409448819
0
LINE
8
BLACK
6
CONTINUOUS
10
0.5398565748031496
20
0.2322924409448819
11
0.5323653149606299
21
0.2347265354330709
0
LINE
8
BLACK
6
CONTINUOUS
10
0.5323653149606299
20
0.2347265354330709
11
0.5253470078740158
21
0.2383025196850394
0
LINE
8
BLACK
6
CONTINUOUS
10
0.5253470078740158
20
0.2383025196850394
11
0.5189745669291338
21
0.2429323622047244
0
LINE
8
BLACK
6
CONTINUOUS
10
0.5189745669291338
20
0.2429323622047244
11
0.5134048031496062
21
0.248502125984252
0
LINE
8
BLACK
6
CONTINUOUS
10
0.5134048031496062
20
0.248502125984252
11
0.5087749606299212
21
0.2548745669291339
0
LINE
8
BLACK
6
CONTINUOUS
10
0.5087749606299212
20
0.2548745669291339
11
0.5051989763779527
21
0.261892874015748
0
LINE
8
BLACK
6
CONTINUOUS
10
0.5051989763779527
20
0.261892874015748
11
0.5027648818897638
21
0.2693841338582677
0
LINE
8
BLACK
6
CONTINUOUS
10
0.5027648818897638
20
0.2693841338582677
11
0.5015326771653543
21
0.2771639763779528
0
LINE
8
BLACK
6
CONTINUOUS
10
0.5015326771653543
20
0.2771639763779528
11
0.5015326771653543
21
0.284898031496063
0
LINE
8
BLACK
6
CONTINUOUS
10
0.5015326771653543
20
0.284898031496063
11
0.5015326771653543
21
0.285040748031496
0
LINE
8
BLACK
6
CONTINUOUS
10
0.5015326771653543
20
0.285040748031496
11
0.5027648818897638
21
0.2928205905511811
0
LINE
8
BLACK
6
CONTINUOUS
10
0.5027648818897638
20
0.2928205905511811
11
0.5051989763779527
21
0.3003118503937008
0
LINE
8
BLACK
6
CONTINUOUS
10
0.5051989763779527
20
0.3003118503937008
11
0.5087749606299212
21
0.3073301574803149
0
LINE
8
BLACK
6
CONTINUOUS
10
0.5087749606299212
20
0.3073301574803149
11
0.5134048031496062
21
0.3137025984251968
0
LINE
8
BLACK
6
CONTINUOUS
10
0.5134048031496062
20
0.3137025984251968
11
0.5189745669291338
21
0.3192723622047244
0
LINE
8
BLACK
6
CONTINUOUS
10
0.5189745669291338
20
0.3192723622047244
11
0.5253470078740158
21
0.3239022047244094
0
LINE
8
BLACK
6
CONTINUOUS
10
0.5253470078740158
20
0.3239022047244094
11
0.5323653149606299
21
0.3274781889763779
0
LINE
8
BLACK
6
CONTINUOUS
10
0.5323653149606299
20
0.3274781889763779
11
0.5398565748031496
21
0.3299122834645669
0
LINE
8
BLACK
6
CONTINUOUS
10
0.5398565748031496
20
0.3299122834645669
11
0.5476364173228346
21
0.3311444881889763
0
LINE
8
BLACK
6
CONTINUOUS
10
0.5476364173228346
20
0.3311444881889763
11
0.5555131889763779
21
0.3311444881889763
0
LINE
8
BLACK
6
CONTINUOUS
10
0.5555131889763779
20
0.3311444881889763
11
0.563293031496063
21
0.3299122834645669
0
LINE
8
BLACK
6
CONTINUOUS
10
0.5033464566929133
20
0.2773066929133858
11
0.5045340157480315
21
0.2698088582677166
0
LINE
8
BLACK
6
CONTINUOUS
10
0.5045340157480315
20
0.2698088582677166
11
0.506879842519685
21
0.262589094488189
0
LINE
8
BLACK
6
CONTINUOUS
10
0.506879842519685
20
0.262589094488189
11
0.5103262204724409
21
0.2558251968503937
0
LINE
8
BLACK
6
CONTINUOUS
10
0.5103262204724409
20
0.2558251968503937
11
0.5147882677165354
21
0.2496837007874016
0
LINE
8
BLACK
6
CONTINUOUS
10
0.5147882677165354
20
0.2496837007874016
11
0.5201561417322834
21
0.2443158267716535
0
LINE
8
BLACK
6
CONTINUOUS
10
0.5201561417322834
20
0.2443158267716535
11
0.5262976377952756
21
0.239853779527559
0
LINE
8
BLACK
6
CONTINUOUS
10
0.5262976377952756
20
0.239853779527559
11
0.5330615354330709
21
0.2364074015748031
0
LINE
8
BLACK
6
CONTINUOUS
10
0.5330615354330709
20
0.2364074015748031
11
0.5402812992125984
21
0.2340615748031496
0
LINE
8
BLACK
6
CONTINUOUS
10
0.5402812992125984
20
0.2340615748031496
11
0.5477791338582677
21
0.2328740157480315
0
LINE
8
BLACK
6
CONTINUOUS
10
0.5477791338582677
20
0.2328740157480315
11
0.5553704724409448
21
0.2328740157480315
0
LINE
8
BLACK
6
CONTINUOUS
10
0.5553704724409448
20
0.2328740157480315
11
0.5628683070866142
21
0.2340615748031496
0
LINE
8
BLACK
6
CONTINUOUS
10
0.5628683070866142
20
0.2340615748031496
11
0.5700880708661418
21
0.2364074015748031
0
LINE
8
BLACK
6
CONTINUOUS
10
0.5700880708661418
20
0.2364074015748031
11
0.5768519685039369
21
0.239853779527559
0
LINE
8
BLACK
6
CONTINUOUS
10
0.5768519685039369
20
0.239853779527559
11
0.5829934645669291
21
0.2443158267716535
0
LINE
8
BLACK
6
CONTINUOUS
10
0.5829934645669291
20
0.2443158267716535
11
0.5883613385826771
21
0.2496837007874016
0
LINE
8
BLACK
6
CONTINUOUS
10
0.5883613385826771
20
0.2496837007874016
11
0.5928233858267716
21
0.2558251968503937
0
LINE
8
BLACK
6
CONTINUOUS
10
0.5928233858267716
20
0.2558251968503937
11
0.5962697637795276
21
0.262589094488189
0
LINE
8
BLACK
6
CONTINUOUS
10
0.5962697637795276
20
0.262589094488189
11
0.5986155905511811
21
0.2698088582677166
0
LINE
8
BLACK
6
CONTINUOUS
10
0.5986155905511811
20
0.2698088582677166
11
0.5998031496062992
21
0.2773066929133858
0
LINE
8
BLACK
6
CONTINUOUS
10
0.5998031496062992
20
0.2773066929133858
11
0.5998031496062992
21
0.284898031496063
0
LINE
8
BLACK
6
CONTINUOUS
10
0.5998031496062992
20
0.284898031496063
11
0.5986155905511811
21
0.2923958661417323
0
LINE
8
BLACK
6
CONTINUOUS
10
0.5986155905511811
20
0.2923958661417323
11
0.5962697637795276
21
0.2996156299212598
0
LINE
8
BLACK
6
CONTINUOUS
10
0.5962697637795276
20
0.2996156299212598
11
0.5928233858267716
21
0.3063795275590551
0
LINE
8
BLACK
6
CONTINUOUS
10
0.5928233858267716
20
0.3063795275590551
11
0.5883613385826771
21
0.3125210236220473
0
LINE
8
BLACK
6
CONTINUOUS
10
0.5883613385826771
20
0.3125210236220473
11
0.5829934645669291
21
0.3178888976377953
0
LINE
8
BLACK
6
CONTINUOUS
10
0.5829934645669291
20
0.3178888976377953
11
0.5768519685039369
21
0.3223509448818898
0
LINE
8
BLACK
6
CONTINUOUS
10
0.5768519685039369
20
0.3223509448818898
11
0.5700880708661418
21
0.3257973228346457
0
LINE
8
BLACK
6
CONTINUOUS
10
0.5700880708661418
20
0.3257973228346457
11
0.5628683070866142
21
0.3281431496062992
0
LINE
8
BLACK
6
CONTINUOUS
10
0.5628683070866142
20
0.3281431496062992
11
0.5553704724409448
21
0.3293307086614173
0
LINE
8
BLACK
6
CONTINUOUS
10
0.5553704724409448
20
0.3293307086614173
11
0.5477791338582677
21
0.3293307086614173
0
LINE
8
BLACK
6
CONTINUOUS
10
0.5477791338582677
20
0.3293307086614173
11
0.5402812992125984
21
0.3281431496062992
0
LINE
8
BLACK
6
CONTINUOUS
10
0.5402812992125984
20
0.3281431496062992
11
0.5330615354330709
21
0.3257973228346457
0
LINE
8
BLACK
6
CONTINUOUS
10
0.5330615354330709
20
0.3257973228346457
11
0.5262976377952756
21
0.3223509448818898
0
LINE
8
BLACK
6
CONTINUOUS
10
0.5262976377952756
20
0.3223509448818898
11
0.5201561417322834
21
0.3178888976377953
0
LINE
8
BLACK
6
CONTINUOUS
10
0.5201561417322834
20
0.3178888976377953
11
0.5147882677165354
21
0.3125210236220473
0
LINE
8
BLACK
6
CONTINUOUS
10
0.5147882677165354
20
0.3125210236220473
11
0.5103262204724409
21
0.3063795275590551
0
LINE
8
BLACK
6
CONTINUOUS
10
0.5103262204724409
20
0.3063795275590551
11
0.506879842519685
21
0.2996156299212598
0
LINE
8
BLACK
6
CONTINUOUS
10
0.506879842519685
20
0.2996156299212598
11
0.5045340157480315
21
0.2923958661417323
0
LINE
8
BLACK
6
CONTINUOUS
10
0.5045340157480315
20
0.2923958661417323
11
0.5033464566929133
21
0.284898031496063
0
LINE
8
BLACK
6
CONTINUOUS
10
0.5033464566929133
20
0.284898031496063
11
0.5033464566929133
21
0.2773066929133858
0
LINE
8
BLACK
6
CONTINUOUS
10
0.8173057874015748
20
0.5658699606299212
11
0.8178384645669291
21
0.5653372834645669
0
LINE
8
BLACK
6
CONTINUOUS
10
0.8178384645669291
20
0.5653372834645669
11
0.8179133858267716
21
0.5649606299212598
0
LINE
8
BLACK
6
CONTINUOUS
10
0.8179133858267716
20
0.5649606299212598
11
0.8179133858267716
21
0.5108267716535433
0
LINE
8
BLACK
6
CONTINUOUS
10
0.8179133858267716
20
0.5108267716535433
11
0.8307086614173228
21
0.5108267716535433
0
LINE
8
BLACK
6
CONTINUOUS
10
0.8307086614173228
20
0.5108267716535433
11
0.8310853149606299
21
0.5107518503937007
0
LINE
8
BLACK
6
CONTINUOUS
10
0.8310853149606299
20
0.5107518503937007
11
0.8316179921259842
21
0.5102191732283464
0
LINE
8
BLACK
6
CONTINUOUS
10
0.8316179921259842
20
0.5102191732283464
11
0.8316929133858267
21
0.5098425196850394
0
LINE
8
BLACK
6
CONTINUOUS
10
0.8316929133858267
20
0.5098425196850394
11
0.8316929133858267
21
0.3169291338582677
0
LINE
8
BLACK
6
CONTINUOUS
10
0.8316929133858267
20
0.3169291338582677
11
0.8316179921259842
21
0.3165524803149606
0
LINE
8
BLACK
6
CONTINUOUS
10
0.8316179921259842
20
0.3165524803149606
11
0.8310853149606299
21
0.3160198031496063
0
LINE
8
BLACK
6
CONTINUOUS
10
0.8310853149606299
20
0.3160198031496063
11
0.8307086614173228
21
0.3159448818897638
0
LINE
8
BLACK
6
CONTINUOUS
10
0.8307086614173228
20
0.3159448818897638
11
0.8179133858267716
21
0.3159448818897638
0
LINE
8
BLACK
6
CONTINUOUS
10
0.8179133858267716
20
0.3159448818897638
11
0.8179133858267716
21
0.2618110236220472
0
LINE
8
BLACK
6
CONTINUOUS
10
0.8179133858267716
20
0.2618110236220472
11
0.8178384645669291
21
0.2614343700787402
0
LINE
8
BLACK
6
CONTINUOUS
10
0.8178384645669291
20
0.2614343700787402
11
0.8173057874015748
21
0.2609016929133858
0
LINE
8
BLACK
6
CONTINUOUS
10
0.8173057874015748
20
0.2609016929133858
11
0.8169291338582677
21
0.2608267716535433
0
LINE
8
BLACK
6
CONTINUOUS
10
0.8169291338582677
20
0.2608267716535433
11
0.6279527559055118
21
0.2608267716535433
0
LINE
8
BLACK
6
CONTINUOUS
10
0.6279527559055118
20
0.2608267716535433
11
0.6275761023622047
21
0.2609016929133858
0
LINE
8
BLACK
6
CONTINUOUS
10
0.6275761023622047
20
0.2609016929133858
11
0.6270434251968504
21
0.2614343700787402
0
LINE
8
BLACK
6
CONTINUOUS
10
0.6270434251968504
20
0.2614343700787402
11
0.6269685039370079
21
0.2618110236220472
0
LINE
8
BLACK
6
CONTINUOUS
10
0.6269685039370079
20
0.2618110236220472
11
0.6269685039370079
21
0.3159448818897638
0
LINE
8
BLACK
6
CONTINUOUS
10
0.6269685039370079
20
0.3159448818897638
11
0.6141732283464567
21
0.3159448818897638
0
LINE
8
BLACK
6
CONTINUOUS
10
0.6141732283464567
20
0.3159448818897638
11
0.6137965748031496
21
0.3160198031496063
0
LINE
8
BLACK
6
CONTINUOUS
10
0.6137965748031496
20
0.3160198031496063
11
0.6132638976377952
21
0.3165524803149606
0
LINE
8
BLACK
6
CONTINUOUS
10
0.6132638976377952
20
0.3165524803149606
11
0.6131889763779528
21
0.3169291338582677
0
LINE
8
BLACK
6
CONTINUOUS
10
0.6131889763779528
20
0.3169291338582677
11
0.6131889763779528
21
0.5098425196850394
0
LINE
8
BLACK
6
CONTINUOUS
10
0.6131889763779528
20
0.5098425196850394
11
0.6132638976377952
21
0.5102191732283464
0
LINE
8
BLACK
6
CONTINUOUS
10
0.6132638976377952
20
0.5102191732283464
11
0.6137965748031496
21
0.5107518503937007
0
LINE
8
BLACK
6
CONTINUOUS
10
0.6137965748031496
20
0.5107518503937007
11
0.6141732283464567
21
0.5108267716535433
0
LINE
8
BLACK
6
CONTINUOUS
10
0.6141732283464567
20
0.5108267716535433
11
0.6269685039370079
21
0.5108267716535433
0
LINE
8
BLACK
6
CONTINUOUS
10
0.6269685039370079
20
0.5108267716535433
11
0.6269685039370079
21
0.5649606299212598
0
LINE
8
BLACK
6
CONTINUOUS
10
0.6269685039370079
20
0.5649606299212598
11
0.6270434251968504
21
0.5653372834645669
0
LINE
8
BLACK
6
CONTINUOUS
10
0.6270434251968504
20
0.5653372834645669
11
0.6275761023622047
21
0.5658699606299212
0
LINE
8
BLACK
6
CONTINUOUS
10
0.6275761023622047
20
0.5658699606299212
11
0.6279527559055118
21
0.5659448818897638
0
LINE
8
BLACK
6
CONTINUOUS
10
0.6279527559055118
20
0.5659448818897638
11
0.8169291338582677
21
0.5659448818897638
0
LINE
8
BLACK
6
CONTINUOUS
10
0.8169291338582677
20
0.5659448818897638
11
0.8173057874015748
21
0.5658699606299212
0
LINE
8
BLACK
6
CONTINUOUS
10
0.6289370078740157
20
0.5639763779527559
11
0.6289370078740157
21
0.5098425196850394
0
LINE
8
BLACK
6
CONTINUOUS
10
0.6289370078740157
20
0.5098425196850394
11
0.6288620866141732
21
0.5094658661417323
0
LINE
8
BLACK
6
CONTINUOUS
10
0.6288620866141732
20
0.5094658661417323
11
0.6283294094488189
21
0.508933188976378
0
LINE
8
BLACK
6
CONTINUOUS
10
0.6283294094488189
20
0.508933188976378
11
0.6279527559055118
21
0.5088582677165354
0
LINE
8
BLACK
6
CONTINUOUS
10
0.6279527559055118
20
0.5088582677165354
11
0.6151574803149606
21
0.5088582677165354
0
LINE
8
BLACK
6
CONTINUOUS
10
0.6151574803149606
20
0.5088582677165354
11
0.6151574803149606
21
0.3179133858267716
0
LINE
8
BLACK
6
CONTINUOUS
10
0.6151574803149606
20
0.3179133858267716
11
0.6279527559055118
21
0.3179133858267716
0
LINE
8
BLACK
6
CONTINUOUS
10
0.6279527559055118
20
0.3179133858267716
11
0.6283294094488189
21
0.3178384645669291
0
LINE
8
BLACK
6
CONTINUOUS
10
0.6283294094488189
20
0.3178384645669291
11
0.6288620866141732
21
0.3173057874015748
0
LINE
8
BLACK
6
CONTINUOUS
10
0.6288620866141732
20
0.3173057874015748
11
0.6289370078740157
21
0.3169291338582677
0
LINE
8
BLACK
6
CONTINUOUS
10
0.6289370078740157
20
0.3169291338582677
11
0.6289370078740157
21
0.2627952755905512
0
LINE
8
BLACK
6
CONTINUOUS
10
0.6289370078740157
20
0.2627952755905512
11
0.8159448818897638
21
0.2627952755905512
0
LINE
8
BLACK
6
CONTINUOUS
10
0.8159448818897638
20
0.2627952755905512
11
0.8159448818897638
21
0.3169291338582677
0
LINE
8
BLACK
6
CONTINUOUS
10
0.8159448818897638
20
0.3169291338582677
11
0.8160198031496063
21
0.3173057874015748
0
LINE
8
BLACK
6
CONTINUOUS
10
0.8160198031496063
20
0.3173057874015748
11
0.8165524803149606
21
0.3178384645669291
0
LINE
8
BLACK
6
CONTINUOUS
10
0.8165524803149606
20
0.3178384645669291
11
0.8169291338582677
21
0.3179133858267716
0
LINE
8
BLACK
6
CONTINUOUS
10
0.8169291338582677
20
0.3179133858267716
11
0.8297244094488189
21
0.3179133858267716
0
LINE
8
BLACK
6
CONTINUOUS
10
0.8297244094488189
20
0.3179133858267716
11
0.8297244094488189
21
0.5088582677165354
0
LINE
8
BLACK
6
CONTINUOUS
10
0.8297244094488189
20
0.5088582677165354
11
0.8169291338582677
21
0.5088582677165354
0
LINE
8
BLACK
6
CONTINUOUS
10
0.8169291338582677
20
0.5088582677165354
11
0.8165524803149606
21
0.508933188976378
0
LINE
8
BLACK
6
CONTINUOUS
10
0.8165524803149606
20
0.508933188976378
11
0.8160198031496063
21
0.5094658661417323
0
LINE
8
BLACK
6
CONTINUOUS
10
0.8160198031496063
20
0.5094658661417323
11
0.8159448818897638
21
0.5098425196850394
0
LINE
8
BLACK
6
CONTINUOUS
10
0.8159448818897638
20
0.5098425196850394
11
0.8159448818897638
21
0.5639763779527559
0
LINE
8
BLACK
6
CONTINUOUS
10
0.8159448818897638
20
0.5639763779527559
11
0.6289370078740157
21
0.5639763779527559
0
LINE
8
BLACK
6
CONTINUOUS
10
1.422128622047244
20
0.4666573622047244
11
1.4226612992125984
21
0.46612468503937
0
LINE
8
BLACK
6
CONTINUOUS
10
1.4226612992125984
20
0.46612468503937
11
1.422736220472441
21
0.465748031496063
0
LINE
8
BLACK
6
CONTINUOUS
10
1.422736220472441
20
0.465748031496063
11
1.422736220472441
21
0.408267716535433
0
LINE
8
BLACK
6
CONTINUOUS
10
1.422736220472441
20
0.408267716535433
11
1.4226612992125984
21
0.407891062992126
0
LINE
8
BLACK
6
CONTINUOUS
10
1.4226612992125984
20
0.407891062992126
11
1.422128622047244
21
0.4073583858267716
0
LINE
8
BLACK
6
CONTINUOUS
10
1.422128622047244
20
0.4073583858267716
11
1.421751968503937
21
0.4072834645669291
0
LINE
8
BLACK
6
CONTINUOUS
10
1.421751968503937
20
0.4072834645669291
11
1.2918307086614174
21
0.4072834645669291
0
LINE
8
BLACK
6
CONTINUOUS
10
1.2918307086614174
20
0.4072834645669291
11
1.2914540551181102
21
0.4073583858267716
0
LINE
8
BLACK
6
CONTINUOUS
10
1.2914540551181102
20
0.4073583858267716
11
1.290921377952756
21
0.407891062992126
0
LINE
8
BLACK
6
CONTINUOUS
10
1.290921377952756
20
0.407891062992126
11
1.2908464566929134
21
0.408267716535433
0
LINE
8
BLACK
6
CONTINUOUS
10
1.2908464566929134
20
0.408267716535433
11
1.2908464566929134
21
0.465748031496063
0
LINE
8
BLACK
6
CONTINUOUS
10
1.2908464566929134
20
0.465748031496063
11
1.290921377952756
21
0.46612468503937
0
LINE
8
BLACK
6
CONTINUOUS
10
1.290921377952756
20
0.46612468503937
11
1.2914540551181102
21
0.4666573622047244
0
LINE
8
BLACK
6
CONTINUOUS
10
1.2914540551181102
20
0.4666573622047244
11
1.2918307086614174
21
0.4667322834645669
0
LINE
8
BLACK
6
CONTINUOUS
10
1.2918307086614174
20
0.4667322834645669
11
1.421751968503937
21
0.4667322834645669
0
LINE
8
BLACK
6
CONTINUOUS
10
1.421751968503937
20
0.4667322834645669
11
1.422128622047244
21
0.4666573622047244
0
LINE
8
BLACK
6
CONTINUOUS
10
1.2928149606299213
20
0.464763779527559
11
1.2928149606299213
21
0.409251968503937
0
LINE
8
BLACK
6
CONTINUOUS
10
1.2928149606299213
20
0.409251968503937
11
1.4207677165354331
21
0.409251968503937
0
LINE
8
BLACK
6
CONTINUOUS
10
1.4207677165354331
20
0.409251968503937
11
1.4207677165354331
21
0.464763779527559
0
LINE
8
BLACK
6
CONTINUOUS
10
1.4207677165354331
20
0.464763779527559
11
1.2928149606299213
21
0.464763779527559
0
LINE
8
BLACK
6
CONTINUOUS
10
0.9896670078740157
20
0.5256245669291338
11
0.9969756692913385
21
0.5225972047244094
0
LINE
8
BLACK
6
CONTINUOUS
10
0.9969756692913385
20
0.5225972047244094
11
1.0035532677165353
21
0.5182022047244095
0
LINE
8
BLACK
6
CONTINUOUS
10
1.0035532677165353
20
0.5182022047244095
11
1.0091470866141732
21
0.5126083858267716
0
LINE
8
BLACK
6
CONTINUOUS
10
1.0091470866141732
20
0.5126083858267716
11
1.0135420866141731
21
0.5060307874015748
0
LINE
8
BLACK
6
CONTINUOUS
10
1.0135420866141731
20
0.5060307874015748
11
1.0165694488188977
21
0.498722125984252
0
LINE
8
BLACK
6
CONTINUOUS
10
1.0165694488188977
20
0.498722125984252
11
1.0181127559055119
21
0.4909633070866142
0
LINE
8
BLACK
6
CONTINUOUS
10
1.0181127559055119
20
0.4909633070866142
11
1.0181127559055119
21
0.4830524409448819
0
LINE
8
BLACK
6
CONTINUOUS
10
1.0181127559055119
20
0.4830524409448819
11
1.0165694488188977
21
0.4752936220472441
0
LINE
8
BLACK
6
CONTINUOUS
10
1.0165694488188977
20
0.4752936220472441
11
1.0135420866141731
21
0.4679849606299212
0
LINE
8
BLACK
6
CONTINUOUS
10
1.0135420866141731
20
0.4679849606299212
11
1.0091470866141732
21
0.4614073622047244
0
LINE
8
BLACK
6
CONTINUOUS
10
1.0091470866141732
20
0.4614073622047244
11
1.0035532677165353
21
0.4558135433070866
0
LINE
8
BLACK
6
CONTINUOUS
10
1.0035532677165353
20
0.4558135433070866
11
0.9969756692913385
21
0.4514185433070866
0
LINE
8
BLACK
6
CONTINUOUS
10
0.9969756692913385
20
0.4514185433070866
11
0.9896670078740157
21
0.4483911811023622
0
LINE
8
BLACK
6
CONTINUOUS
10
0.9896670078740157
20
0.4483911811023622
11
0.9819081889763779
21
0.446847874015748
0
LINE
8
BLACK
6
CONTINUOUS
10
0.9819081889763779
20
0.446847874015748
11
0.9739973228346457
21
0.446847874015748
0
LINE
8
BLACK
6
CONTINUOUS
10
0.9739973228346457
20
0.446847874015748
11
0.9662385039370078
21
0.4483911811023622
0
LINE
8
BLACK
6
CONTINUOUS
10
0.9662385039370078
20
0.4483911811023622
11
0.958929842519685
21
0.4514185433070866
0
LINE
8
BLACK
6
CONTINUOUS
10
0.958929842519685
20
0.4514185433070866
11
0.9523522440944882
21
0.4558135433070866
0
LINE
8
BLACK
6
CONTINUOUS
10
0.9523522440944882
20
0.4558135433070866
11
0.9467584251968504
21
0.4614073622047244
0
LINE
8
BLACK
6
CONTINUOUS
10
0.9467584251968504
20
0.4614073622047244
11
0.9423634251968503
21
0.4679849606299212
0
LINE
8
BLACK
6
CONTINUOUS
10
0.9423634251968503
20
0.4679849606299212
11
0.9393360629921259
21
0.4752936220472441
0
LINE
8
BLACK
6
CONTINUOUS
10
0.9393360629921259
20
0.4752936220472441
11
0.9377927559055118
21
0.4830524409448819
0
LINE
8
BLACK
6
CONTINUOUS
10
0.9377927559055118
20
0.4830524409448819
11
0.9377927559055118
21
0.4907885433070866
0
LINE
8
BLACK
6
CONTINUOUS
10
0.9377927559055118
20
0.4907885433070866
11
0.9377927559055118
21
0.4909633070866142
0
LINE
8
BLACK
6
CONTINUOUS
10
0.9377927559055118
20
0.4909633070866142
11
0.9393360629921259
21
0.498722125984252
0
LINE
8
BLACK
6
CONTINUOUS
10
0.9393360629921259
20
0.498722125984252
11
0.9423634251968503
21
0.5060307874015748
0
LINE
8
BLACK
6
CONTINUOUS
10
0.9423634251968503
20
0.5060307874015748
11
0.9467584251968504
21
0.5126083858267716
0
LINE
8
BLACK
6
CONTINUOUS
10
0.9467584251968504
20
0.5126083858267716
11
0.9523522440944882
21
0.5182022047244095
0
LINE
8
BLACK
6
CONTINUOUS
10
0.9523522440944882
20
0.5182022047244095
11
0.958929842519685
21
0.5225972047244094
0
LINE
8
BLACK
6
CONTINUOUS
10
0.958929842519685
20
0.5225972047244094
11
0.9662385039370078
21
0.5256245669291338
0
LINE
8
BLACK
6
CONTINUOUS
10
0.9662385039370078
20
0.5256245669291338
11
0.9739973228346457
21
0.5271678740157481
0
LINE
8
BLACK
6
CONTINUOUS
10
0.9739973228346457
20
0.5271678740157481
11
0.9819081889763779
21
0.5271678740157481
0
LINE
8
BLACK
6
CONTINUOUS
10
0.9819081889763779
20
0.5271678740157481
11
0.9896670078740157
21
0.5256245669291338
0
LINE
8
BLACK
6
CONTINUOUS
10
0.9395669291338582
20
0.4832272047244094
11
0.9410420472440945
21
0.4758111417322834
0
LINE
8
BLACK
6
CONTINUOUS
10
0.9410420472440945
20
0.4758111417322834
11
0.9439356692913385
21
0.4688253543307087
0
LINE
8
BLACK
6
CONTINUOUS
10
0.9439356692913385
20
0.4688253543307087
11
0.9481365354330709
21
0.4625383070866141
0
LINE
8
BLACK
6
CONTINUOUS
10
0.9481365354330709
20
0.4625383070866141
11
0.953483188976378
21
0.4571916535433071
0
LINE
8
BLACK
6
CONTINUOUS
10
0.953483188976378
20
0.4571916535433071
11
0.9597702362204724
21
0.4529907874015748
0
LINE
8
BLACK
6
CONTINUOUS
10
0.9597702362204724
20
0.4529907874015748
11
0.9667560236220473
21
0.4500971653543307
0
LINE
8
BLACK
6
CONTINUOUS
10
0.9667560236220473
20
0.4500971653543307
11
0.9741720866141732
21
0.4486220472440945
0
LINE
8
BLACK
6
CONTINUOUS
10
0.9741720866141732
20
0.4486220472440945
11
0.9817334251968504
21
0.4486220472440945
0
LINE
8
BLACK
6
CONTINUOUS
10
0.9817334251968504
20
0.4486220472440945
11
0.9891494881889763
21
0.4500971653543307
0
LINE
8
BLACK
6
CONTINUOUS
10
0.9891494881889763
20
0.4500971653543307
11
0.9961352755905512
21
0.4529907874015748
0
LINE
8
BLACK
6
CONTINUOUS
10
0.9961352755905512
20
0.4529907874015748
11
1.0024223228346456
21
0.4571916535433071
0
LINE
8
BLACK
6
CONTINUOUS
10
1.0024223228346456
20
0.4571916535433071
11
1.0077689763779527
21
0.4625383070866141
0
LINE
8
BLACK
6
CONTINUOUS
10
1.0077689763779527
20
0.4625383070866141
11
1.011969842519685
21
0.4688253543307087
0
LINE
8
BLACK
6
CONTINUOUS
10
1.011969842519685
20
0.4688253543307087
11
1.0148634645669292
21
0.4758111417322834
0
LINE
8
BLACK
6
CONTINUOUS
10
1.0148634645669292
20
0.4758111417322834
11
1.0163385826771654
21
0.4832272047244094
0
LINE
8
BLACK
6
CONTINUOUS
10
1.0163385826771654
20
0.4832272047244094
11
1.0163385826771654
21
0.4907885433070866
0
LINE
8
BLACK
6
CONTINUOUS
10
1.0163385826771654
20
0.4907885433070866
11
1.0148634645669292
21
0.4982046062992126
0
LINE
8
BLACK
6
CONTINUOUS
10
1.0148634645669292
20
0.4982046062992126
11
1.011969842519685
21
0.5051903937007874
0
LINE
8
BLACK
6
CONTINUOUS
10
1.011969842519685
20
0.5051903937007874
11
1.0077689763779527
21
0.5114774409448819
0
LINE
8
BLACK
6
CONTINUOUS
10
1.0077689763779527
20
0.5114774409448819
11
1.0024223228346456
21
0.516824094488189
0
LINE
8
BLACK
6
CONTINUOUS
10
1.0024223228346456
20
0.516824094488189
11
0.9961352755905512
21
0.5210249606299212
0
LINE
8
BLACK
6
CONTINUOUS
10
0.9961352755905512
20
0.5210249606299212
11
0.9891494881889763
21
0.5239185826771653
0
LINE
8
BLACK
6
CONTINUOUS
10
0.9891494881889763
20
0.5239185826771653
11
0.9817334251968504
21
0.5253937007874016
0
LINE
8
BLACK
6
CONTINUOUS
10
0.9817334251968504
20
0.5253937007874016
11
0.9741720866141732
21
0.5253937007874016
0
LINE
8
BLACK
6
CONTINUOUS
10
0.9741720866141732
20
0.5253937007874016
11
0.9667560236220473
21
0.5239185826771653
0
LINE
8
BLACK
6
CONTINUOUS
10
0.9667560236220473
20
0.5239185826771653
11
0.9597702362204724
21
0.5210249606299212
0
LINE
8
BLACK
6
CONTINUOUS
10
0.9597702362204724
20
0.5210249606299212
11
0.953483188976378
21
0.516824094488189
0
LINE
8
BLACK
6
CONTINUOUS
10
0.953483188976378
20
0.516824094488189
11
0.9481365354330709
21
0.5114774409448819
0
LINE
8
BLACK
6
CONTINUOUS
10
0.9481365354330709
20
0.5114774409448819
11
0.9439356692913385
21
0.5051903937007874
0
LINE
8
BLACK
6
CONTINUOUS
10
0.9439356692913385
20
0.5051903937007874
11
0.9410420472440945
21
0.4982046062992126
0
LINE
8
BLACK
6
CONTINUOUS
10
0.9410420472440945
20
0.4982046062992126
11
0.9395669291338582
21
0.4907885433070866
0
LINE
8
BLACK
6
CONTINUOUS
10
0.9395669291338582
20
0.4907885433070866
11
0.9395669291338582
21
0.4832272047244094
0
LINE
8
BLACK
6
CONTINUOUS
10
1.452345157480315
20
0.6052400393700788
11
1.4528778346456692
21
0.6047073622047244
0
LINE
8
BLACK
6
CONTINUOUS
10
1.4528778346456692
20
0.6047073622047244
11
1.4529527559055118
21
0.6043307086614174
0
LINE
8
BLACK
6
CONTINUOUS
10
1.4529527559055118
20
0.6043307086614174
11
1.4529527559055118
21
0.4744094488188976
0
LINE
8
BLACK
6
CONTINUOUS
10
1.4529527559055118
20
0.4744094488188976
11
1.4528778346456692
21
0.4740327952755906
0
LINE
8
BLACK
6
CONTINUOUS
10
1.4528778346456692
20
0.4740327952755906
11
1.452345157480315
21
0.4735001181102362
0
LINE
8
BLACK
6
CONTINUOUS
10
1.452345157480315
20
0.4735001181102362
11
1.4519685039370078
21
0.4734251968503937
0
LINE
8
BLACK
6
CONTINUOUS
10
1.4519685039370078
20
0.4734251968503937
11
1.3944881889763778
21
0.4734251968503937
0
LINE
8
BLACK
6
CONTINUOUS
10
1.3944881889763778
20
0.4734251968503937
11
1.3941115354330709
21
0.4735001181102362
0
LINE
8
BLACK
6
CONTINUOUS
10
1.3941115354330709
20
0.4735001181102362
11
1.3935788582677164
21
0.4740327952755906
0
LINE
8
BLACK
6
CONTINUOUS
10
1.3935788582677164
20
0.4740327952755906
11
1.3935039370078739
21
0.4744094488188976
0
LINE
8
BLACK
6
CONTINUOUS
10
1.3935039370078739
20
0.4744094488188976
11
1.3935039370078739
21
0.6043307086614174
0
LINE
8
BLACK
6
CONTINUOUS
10
1.3935039370078739
20
0.6043307086614174
11
1.3935788582677164
21
0.6047073622047244
0
LINE
8
BLACK
6
CONTINUOUS
10
1.3935788582677164
20
0.6047073622047244
11
1.3941115354330709
21
0.6052400393700788
0
LINE
8
BLACK
6
CONTINUOUS
10
1.3941115354330709
20
0.6052400393700788
11
1.3944881889763778
21
0.6053149606299213
0
LINE
8
BLACK
6
CONTINUOUS
10
1.3944881889763778
20
0.6053149606299213
11
1.4519685039370078
21
0.6053149606299213
0
LINE
8
BLACK
6
CONTINUOUS
10
1.4519685039370078
20
0.6053149606299213
11
1.452345157480315
21
0.6052400393700788
0
LINE
8
BLACK
6
CONTINUOUS
10
1.3954724409448818
20
0.6033464566929134
11
1.3954724409448818
21
0.4753937007874016
0
LINE
8
BLACK
6
CONTINUOUS
10
1.3954724409448818
20
0.4753937007874016
11
1.4509842519685039
21
0.4753937007874016
0
LINE
8
BLACK
6
CONTINUOUS
10
1.4509842519685039
20
0.4753937007874016
11
1.4509842519685039
21
0.6033464566929134
0
LINE
8
BLACK
6
CONTINUOUS
10
1.4509842519685039
20
0.6033464566929134
11
1.3954724409448818
21
0.6033464566929134
0
LINE
8
BLACK
6
CONTINUOUS
10
1.22082937007874
20
0.586028937007874
11
1.2219107874015749
21
0.5855809842519685
0
LINE
8
BLACK
6
CONTINUOUS
10
1.2219107874015749
20
0.5855809842519685
11
1.2227385039370078
21
0.5847532677165355
0
LINE
8
BLACK
6
CONTINUOUS
10
1.2227385039370078
20
0.5847532677165355
11
1.2231864566929134
21
0.5836718503937007
0
LINE
8
BLACK
6
CONTINUOUS
10
1.2231864566929134
20
0.5836718503937007
11
1.223244094488189
21
0.5830865748031496
0
LINE
8
BLACK
6
CONTINUOUS
10
1.223244094488189
20
0.5830865748031496
11
1.223244094488189
21
0.581933031496063
0
LINE
8
BLACK
6
CONTINUOUS
10
1.223244094488189
20
0.581933031496063
11
1.2928976377952757
21
0.581933031496063
0
LINE
8
BLACK
6
CONTINUOUS
10
1.2928976377952757
20
0.581933031496063
11
1.3015905511811023
21
0.581933031496063
0
LINE
8
BLACK
6
CONTINUOUS
10
1.3015905511811023
20
0.581933031496063
11
1.371244094488189
21
0.581933031496063
0
LINE
8
BLACK
6
CONTINUOUS
10
1.371244094488189
20
0.581933031496063
11
1.371244094488189
21
0.5830865748031496
0
LINE
8
BLACK
6
CONTINUOUS
10
1.371244094488189
20
0.5830865748031496
11
1.3713017322834646
21
0.5836718503937007
0
LINE
8
BLACK
6
CONTINUOUS
10
1.3713017322834646
20
0.5836718503937007
11
1.37174968503937
21
0.5847532677165355
0
LINE
8
BLACK
6
CONTINUOUS
10
1.37174968503937
20
0.5847532677165355
11
1.3725774015748031
21
0.5855809842519685
0
LINE
8
BLACK
6
CONTINUOUS
10
1.3725774015748031
20
0.5855809842519685
11
1.3736588188976377
21
0.586028937007874
0
LINE
8
BLACK
6
CONTINUOUS
10
1.3736588188976377
20
0.586028937007874
11
1.3742440944881888
21
0.5860865748031496
0
LINE
8
BLACK
6
CONTINUOUS
10
1.3742440944881888
20
0.5860865748031496
11
1.3782992125984252
21
0.5860865748031496
0
LINE
8
BLACK
6
CONTINUOUS
10
1.3782992125984252
20
0.5860865748031496
11
1.3788844881889764
21
0.586028937007874
0
LINE
8
BLACK
6
CONTINUOUS
10
1.3788844881889764
20
0.586028937007874
11
1.379965905511811
21
0.5855809842519685
0
LINE
8
BLACK
6
CONTINUOUS
10
1.379965905511811
20
0.5855809842519685
11
1.3807936220472441
21
0.5847532677165355
0
LINE
8
BLACK
6
CONTINUOUS
10
1.3807936220472441
20
0.5847532677165355
11
1.3812415748031497
21
0.5836718503937007
0
LINE
8
BLACK
6
CONTINUOUS
10
1.3812415748031497
20
0.5836718503937007
11
1.3812992125984251
21
0.5830865748031496
0
LINE
8
BLACK
6
CONTINUOUS
10
1.3812992125984251
20
0.5830865748031496
11
1.3812992125984251
21
0.4877794881889764
0
LINE
8
BLACK
6
CONTINUOUS
10
1.3812992125984251
20
0.4877794881889764
11
1.3812415748031497
21
0.4871942125984252
0
LINE
8
BLACK
6
CONTINUOUS
10
1.3812415748031497
20
0.4871942125984252
11
1.3807936220472441
21
0.4861127952755905
0
LINE
8
BLACK
6
CONTINUOUS
10
1.3807936220472441
20
0.4861127952755905
11
1.379965905511811
21
0.4852850787401575
0
LINE
8
BLACK
6
CONTINUOUS
10
1.379965905511811
20
0.4852850787401575
11
1.3788844881889764
21
0.4848371259842519
0
LINE
8
BLACK
6
CONTINUOUS
10
1.3788844881889764
20
0.4848371259842519
11
1.3782992125984252
21
0.4847794881889764
0
LINE
8
BLACK
6
CONTINUOUS
10
1.3782992125984252
20
0.4847794881889764
11
1.3742440944881888
21
0.4847794881889764
0
LINE
8
BLACK
6
CONTINUOUS
10
1.3742440944881888
20
0.4847794881889764
11
1.3736588188976377
21
0.4848371259842519
0
LINE
8
BLACK
6
CONTINUOUS
10
1.3736588188976377
20
0.4848371259842519
11
1.3725774015748031
21
0.4852850787401575
0
LINE
8
BLACK
6
CONTINUOUS
10
1.3725774015748031
20
0.4852850787401575
11
1.37174968503937
21
0.4861127952755905
0
LINE
8
BLACK
6
CONTINUOUS
10
1.37174968503937
20
0.4861127952755905
11
1.3713017322834646
21
0.4871942125984252
0
LINE
8
BLACK
6
CONTINUOUS
10
1.3713017322834646
20
0.4871942125984252
11
1.371244094488189
21
0.4877794881889764
0
LINE
8
BLACK
6
CONTINUOUS
10
1.371244094488189
20
0.4877794881889764
11
1.371244094488189
21
0.488933031496063
0
LINE
8
BLACK
6
CONTINUOUS
10
1.371244094488189
20
0.488933031496063
11
1.3015905511811023
21
0.488933031496063
0
LINE
8
BLACK
6
CONTINUOUS
10
1.3015905511811023
20
0.488933031496063
11
1.2928976377952757
21
0.488933031496063
0
LINE
8
BLACK
6
CONTINUOUS
10
1.2928976377952757
20
0.488933031496063
11
1.223244094488189
21
0.488933031496063
0
LINE
8
BLACK
6
CONTINUOUS
10
1.223244094488189
20
0.488933031496063
11
1.223244094488189
21
0.4877794881889764
0
LINE
8
BLACK
6
CONTINUOUS
10
1.223244094488189
20
0.4877794881889764
11
1.2231864566929134
21
0.4871942125984252
0
LINE
8
BLACK
6
CONTINUOUS
10
1.2231864566929134
20
0.4871942125984252
11
1.2227385039370078
21
0.4861127952755905
0
LINE
8
BLACK
6
CONTINUOUS
10
1.2227385039370078
20
0.4861127952755905
11
1.2219107874015749
21
0.4852850787401575
0
LINE
8
BLACK
6
CONTINUOUS
10
1.2219107874015749
20
0.4852850787401575
11
1.22082937007874
21
0.4848371259842519
0
LINE
8
BLACK
6
CONTINUOUS
10
1.22082937007874
20
0.4848371259842519
11
1.2202440944881889
21
0.4847794881889764
0
LINE
8
BLACK
6
CONTINUOUS
10
1.2202440944881889
20
0.4847794881889764
11
1.2161889763779528
21
0.4847794881889764
0
LINE
8
BLACK
6
CONTINUOUS
10
1.2161889763779528
20
0.4847794881889764
11
1.2156037007874017
21
0.4848371259842519
0
LINE
8
BLACK
6
CONTINUOUS
10
1.2156037007874017
20
0.4848371259842519
11
1.2145222834645668
21
0.4852850787401575
0
LINE
8
BLACK
6
CONTINUOUS
10
1.2145222834645668
20
0.4852850787401575
11
1.2136945669291339
21
0.4861127952755905
0
LINE
8
BLACK
6
CONTINUOUS
10
1.2136945669291339
20
0.4861127952755905
11
1.2132466141732283
21
0.4871942125984252
0
LINE
8
BLACK
6
CONTINUOUS
10
1.2132466141732283
20
0.4871942125984252
11
1.2131889763779526
21
0.4877794881889764
0
LINE
8
BLACK
6
CONTINUOUS
10
1.2131889763779526
20
0.4877794881889764
11
1.2131889763779526
21
0.5830865748031496
0
LINE
8
BLACK
6
CONTINUOUS
10
1.2131889763779526
20
0.5830865748031496
11
1.2132466141732283
21
0.5836718503937007
0
LINE
8
BLACK
6
CONTINUOUS
10
1.2132466141732283
20
0.5836718503937007
11
1.2136945669291339
21
0.5847532677165355
0
LINE
8
BLACK
6
CONTINUOUS
10
1.2136945669291339
20
0.5847532677165355
11
1.2145222834645668
21
0.5855809842519685
0
LINE
8
BLACK
6
CONTINUOUS
10
1.2145222834645668
20
0.5855809842519685
11
1.2156037007874017
21
0.586028937007874
0
LINE
8
BLACK
6
CONTINUOUS
10
1.2156037007874017
20
0.586028937007874
11
1.2161889763779528
21
0.5860865748031496
0
LINE
8
BLACK
6
CONTINUOUS
10
1.2161889763779528
20
0.5860865748031496
11
1.2202440944881889
21
0.5860865748031496
0
LINE
8
BLACK
6
CONTINUOUS
10
1.2202440944881889
20
0.5860865748031496
11
1.22082937007874
21
0.586028937007874
0
LINE
8
BLACK
6
CONTINUOUS
10
1.3748293700787402
20
0.5759906692913386
11
1.3742440944881888
21
0.575933031496063
0
LINE
8
BLACK
6
CONTINUOUS
10
1.3742440944881888
20
0.575933031496063
11
1.3015905511811023
21
0.575933031496063
0
LINE
8
BLACK
6
CONTINUOUS
10
1.3015905511811023
20
0.575933031496063
11
1.2928976377952757
21
0.575933031496063
0
LINE
8
BLACK
6
CONTINUOUS
10
1.2928976377952757
20
0.575933031496063
11
1.2202440944881889
21
0.575933031496063
0
LINE
8
BLACK
6
CONTINUOUS
10
1.2202440944881889
20
0.575933031496063
11
1.2196588188976378
21
0.5759906692913386
0
LINE
8
BLACK
6
CONTINUOUS
10
1.2196588188976378
20
0.5759906692913386
11
1.2191889763779526
21
0.5761853149606299
0
LINE
8
BLACK
6
CONTINUOUS
10
1.2191889763779526
20
0.5761853149606299
11
1.2191889763779526
21
0.4946807874015748
0
LINE
8
BLACK
6
CONTINUOUS
10
1.2191889763779526
20
0.4946807874015748
11
1.2196588188976378
21
0.4948753937007874
0
LINE
8
BLACK
6
CONTINUOUS
10
1.2196588188976378
20
0.4948753937007874
11
1.2202440944881889
21
0.494933031496063
0
LINE
8
BLACK
6
CONTINUOUS
10
1.2202440944881889
20
0.494933031496063
11
1.2928976377952757
21
0.494933031496063
0
LINE
8
BLACK
6
CONTINUOUS
10
1.2928976377952757
20
0.494933031496063
11
1.3015905511811023
21
0.494933031496063
0
LINE
8
BLACK
6
CONTINUOUS
10
1.3015905511811023
20
0.494933031496063
11
1.3742440944881888
21
0.494933031496063
0
LINE
8
BLACK
6
CONTINUOUS
10
1.3742440944881888
20
0.494933031496063
11
1.3748293700787402
21
0.4948753937007874
0
LINE
8
BLACK
6
CONTINUOUS
10
1.3748293700787402
20
0.4948753937007874
11
1.3752992125984251
21
0.4946807874015748
0
LINE
8
BLACK
6
CONTINUOUS
10
1.3752992125984251
20
0.4946807874015748
11
1.3752992125984251
21
0.5761853149606299
0
LINE
8
BLACK
6
CONTINUOUS
10
1.3752992125984251
20
0.5761853149606299
11
1.3748293700787402
21
0.5759906692913386
0
LINE
8
BLACK
6
CONTINUOUS
10
1.1521483070866141
20
0.5611455511811023
11
1.1526809842519685
21
0.560612874015748
0
LINE
8
BLACK
6
CONTINUOUS
10
1.1526809842519685
20
0.560612874015748
11
1.1527559055118111
21
0.5602362204724409
0
LINE
8
BLACK
6
CONTINUOUS
10
1.1527559055118111
20
0.5602362204724409
11
1.1527559055118111
21
0.502755905511811
0
LINE
8
BLACK
6
CONTINUOUS
10
1.1527559055118111
20
0.502755905511811
11
1.1526809842519685
21
0.502379251968504
0
LINE
8
BLACK
6
CONTINUOUS
10
1.1526809842519685
20
0.502379251968504
11
1.1521483070866141
21
0.5018465748031496
0
LINE
8
BLACK
6
CONTINUOUS
10
1.1521483070866141
20
0.5018465748031496
11
1.1517716535433071
21
0.5017716535433071
0
LINE
8
BLACK
6
CONTINUOUS
10
1.1517716535433071
20
0.5017716535433071
11
1.035236220472441
21
0.5017716535433071
0
LINE
8
BLACK
6
CONTINUOUS
10
1.035236220472441
20
0.5017716535433071
11
1.0348595669291338
21
0.5018465748031496
0
LINE
8
BLACK
6
CONTINUOUS
10
1.0348595669291338
20
0.5018465748031496
11
1.0343268897637794
21
0.502379251968504
0
LINE
8
BLACK
6
CONTINUOUS
10
1.0343268897637794
20
0.502379251968504
11
1.0342519685039371
21
0.502755905511811
0
LINE
8
BLACK
6
CONTINUOUS
10
1.0342519685039371
20
0.502755905511811
11
1.0342519685039371
21
0.5602362204724409
0
LINE
8
BLACK
6
CONTINUOUS
10
1.0342519685039371
20
0.5602362204724409
11
1.0343268897637794
21
0.560612874015748
0
LINE
8
BLACK
6
CONTINUOUS
10
1.0343268897637794
20
0.560612874015748
11
1.0348595669291338
21
0.5611455511811023
0
LINE
8
BLACK
6
CONTINUOUS
10
1.0348595669291338
20
0.5611455511811023
11
1.035236220472441
21
0.5612204724409449
0
LINE
8
BLACK
6
CONTINUOUS
10
1.035236220472441
20
0.5612204724409449
11
1.1517716535433071
21
0.5612204724409449
0
LINE
8
BLACK
6
CONTINUOUS
10
1.1517716535433071
20
0.5612204724409449
11
1.1521483070866141
21
0.5611455511811023
0
LINE
8
BLACK
6
CONTINUOUS
10
1.036220472440945
20
0.559251968503937
11
1.036220472440945
21
0.503740157480315
0
LINE
8
BLACK
6
CONTINUOUS
10
1.036220472440945
20
0.503740157480315
11
1.1507874015748032
21
0.503740157480315
0
LINE
8
BLACK
6
CONTINUOUS
10
1.1507874015748032
20
0.503740157480315
11
1.1507874015748032
21
0.559251968503937
0
LINE
8
BLACK
6
CONTINUOUS
10
1.1507874015748032
20
0.559251968503937
11
1.036220472440945
21
0.559251968503937
0
LINE
8
BLACK
6
CONTINUOUS
10
1.6751040551181102
20
0.6472351181102362
11
1.6825953149606299
21
0.6448010236220473
0
LINE
8
BLACK
6
CONTINUOUS
10
1.6825953149606299
20
0.6448010236220473
11
1.689613622047244
21
0.6412250393700787
0
LINE
8
BLACK
6
CONTINUOUS
10
1.689613622047244
20
0.6412250393700787
11
1.695986062992126
21
0.6365951968503937
0
LINE
8
BLACK
6
CONTINUOUS
10
1.695986062992126
20
0.6365951968503937
11
1.7015558267716535
21
0.6310254330708661
0
LINE
8
BLACK
6
CONTINUOUS
10
1.7015558267716535
20
0.6310254330708661
11
1.7061856692913386
21
0.6246529921259842
0
LINE
8
BLACK
6
CONTINUOUS
10
1.7061856692913386
20
0.6246529921259842
11
1.7097616535433071
21
0.61763468503937
0
LINE
8
BLACK
6
CONTINUOUS
10
1.7097616535433071
20
0.61763468503937
11
1.712195748031496
21
0.6101434251968504
0
LINE
8
BLACK
6
CONTINUOUS
10
1.712195748031496
20
0.6101434251968504
11
1.7134279527559055
21
0.6023635826771654
0
LINE
8
BLACK
6
CONTINUOUS
10
1.7134279527559055
20
0.6023635826771654
11
1.7134279527559055
21
0.594486811023622
0
LINE
8
BLACK
6
CONTINUOUS
10
1.7134279527559055
20
0.594486811023622
11
1.712195748031496
21
0.586706968503937
0
LINE
8
BLACK
6
CONTINUOUS
10
1.712195748031496
20
0.586706968503937
11
1.7097616535433071
21
0.5792157086614174
0
LINE
8
BLACK
6
CONTINUOUS
10
1.7097616535433071
20
0.5792157086614174
11
1.7061856692913386
21
0.5721974015748031
0
LINE
8
BLACK
6
CONTINUOUS
10
1.7061856692913386
20
0.5721974015748031
11
1.7015558267716535
21
0.5658249606299213
0
LINE
8
BLACK
6
CONTINUOUS
10
1.7015558267716535
20
0.5658249606299213
11
1.695986062992126
21
0.5602551968503937
0
LINE
8
BLACK
6
CONTINUOUS
10
1.695986062992126
20
0.5602551968503937
11
1.689613622047244
21
0.5556253543307087
0
LINE
8
BLACK
6
CONTINUOUS
10
1.689613622047244
20
0.5556253543307087
11
1.6825953149606299
21
0.5520493700787401
0
LINE
8
BLACK
6
CONTINUOUS
10
1.6825953149606299
20
0.5520493700787401
11
1.6751040551181102
21
0.5496152755905511
0
LINE
8
BLACK
6
CONTINUOUS
10
1.6751040551181102
20
0.5496152755905511
11
1.6673242125984251
21
0.5483830708661417
0
LINE
8
BLACK
6
CONTINUOUS
10
1.6673242125984251
20
0.5483830708661417
11
1.6594474409448818
21
0.5483830708661417
0
LINE
8
BLACK
6
CONTINUOUS
10
1.6594474409448818
20
0.5483830708661417
11
1.6516675984251967
21
0.5496152755905511
0
LINE
8
BLACK
6
CONTINUOUS
10
1.6516675984251967
20
0.5496152755905511
11
1.6441763385826771
21
0.5520493700787401
0
LINE
8
BLACK
6
CONTINUOUS
10
1.6441763385826771
20
0.5520493700787401
11
1.637158031496063
21
0.5556253543307087
0
LINE
8
BLACK
6
CONTINUOUS
10
1.637158031496063
20
0.5556253543307087
11
1.630785590551181
21
0.5602551968503937
0
LINE
8
BLACK
6
CONTINUOUS
10
1.630785590551181
20
0.5602551968503937
11
1.6252158267716534
21
0.5658249606299213
0
LINE
8
BLACK
6
CONTINUOUS
10
1.6252158267716534
20
0.5658249606299213
11
1.6205859842519685
21
0.5721974015748031
0
LINE
8
BLACK
6
CONTINUOUS
10
1.6205859842519685
20
0.5721974015748031
11
1.6170100000000001
21
0.5792157086614174
0
LINE
8
BLACK
6
CONTINUOUS
10
1.6170100000000001
20
0.5792157086614174
11
1.614575905511811
21
0.586706968503937
0
LINE
8
BLACK
6
CONTINUOUS
10
1.614575905511811
20
0.586706968503937
11
1.6133437007874016
21
0.594486811023622
0
LINE
8
BLACK
6
CONTINUOUS
10
1.6133437007874016
20
0.594486811023622
11
1.6133437007874016
21
0.6022208661417323
0
LINE
8
BLACK
6
CONTINUOUS
10
1.6133437007874016
20
0.6022208661417323
11
1.6133437007874016
21
0.6023635826771654
0
LINE
8
BLACK
6
CONTINUOUS
10
1.6133437007874016
20
0.6023635826771654
11
1.614575905511811
21
0.6101434251968504
0
LINE
8
BLACK
6
CONTINUOUS
10
1.614575905511811
20
0.6101434251968504
11
1.6170100000000001
21
0.61763468503937
0
LINE
8
BLACK
6
CONTINUOUS
10
1.6170100000000001
20
0.61763468503937
11
1.6205859842519685
21
0.6246529921259842
0
LINE
8
BLACK
6
CONTINUOUS
10
1.6205859842519685
20
0.6246529921259842
11
1.6252158267716534
21
0.6310254330708661
0
LINE
8
BLACK
6
CONTINUOUS
10
1.6252158267716534
20
0.6310254330708661
11
1.630785590551181
21
0.6365951968503937
0
LINE
8
BLACK
6
CONTINUOUS
10
1.630785590551181
20
0.6365951968503937
11
1.637158031496063
21
0.6412250393700787
0
LINE
8
BLACK
6
CONTINUOUS
10
1.637158031496063
20
0.6412250393700787
11
1.6441763385826771
21
0.6448010236220473
0
LINE
8
BLACK
6
CONTINUOUS
10
1.6441763385826771
20
0.6448010236220473
11
1.6516675984251967
21
0.6472351181102362
0
LINE
8
BLACK
6
CONTINUOUS
10
1.6516675984251967
20
0.6472351181102362
11
1.6594474409448818
21
0.6484673228346457
0
LINE
8
BLACK
6
CONTINUOUS
10
1.6594474409448818
20
0.6484673228346457
11
1.6673242125984251
21
0.6484673228346457
0
LINE
8
BLACK
6
CONTINUOUS
10
1.6673242125984251
20
0.6484673228346457
11
1.6751040551181102
21
0.6472351181102362
0
LINE
8
BLACK
6
CONTINUOUS
10
1.6151574803149606
20
0.5946295275590551
11
1.6163450393700787
21
0.5871316929133858
0
LINE
8
BLACK
6
CONTINUOUS
10
1.6163450393700787
20
0.5871316929133858
11
1.6186908661417323
21
0.5799119291338583
0
LINE
8
BLACK
6
CONTINUOUS
10
1.6186908661417323
20
0.5799119291338583
11
1.6221372440944881
21
0.573148031496063
0
LINE
8
BLACK
6
CONTINUOUS
10
1.6221372440944881
20
0.573148031496063
11
1.6265992913385827
21
0.5670065354330709
0
LINE
8
BLACK
6
CONTINUOUS
10
1.6265992913385827
20
0.5670065354330709
11
1.6319671653543306
21
0.5616386614173228
0
LINE
8
BLACK
6
CONTINUOUS
10
1.6319671653543306
20
0.5616386614173228
11
1.6381086614173228
21
0.5571766141732283
0
LINE
8
BLACK
6
CONTINUOUS
10
1.6381086614173228
20
0.5571766141732283
11
1.6448725590551181
21
0.5537302362204725
0
LINE
8
BLACK
6
CONTINUOUS
10
1.6448725590551181
20
0.5537302362204725
11
1.6520923228346456
21
0.5513844094488188
0
LINE
8
BLACK
6
CONTINUOUS
10
1.6520923228346456
20
0.5513844094488188
11
1.6595901574803149
21
0.5501968503937008
0
LINE
8
BLACK
6
CONTINUOUS
10
1.6595901574803149
20
0.5501968503937008
11
1.667181496062992
21
0.5501968503937008
0
LINE
8
BLACK
6
CONTINUOUS
10
1.667181496062992
20
0.5501968503937008
11
1.6746793307086614
21
0.5513844094488188
0
LINE
8
BLACK
6
CONTINUOUS
10
1.6746793307086614
20
0.5513844094488188
11
1.6818990944881889
21
0.5537302362204725
0
LINE
8
BLACK
6
CONTINUOUS
10
1.6818990944881889
20
0.5537302362204725
11
1.6886629921259841
21
0.5571766141732283
0
LINE
8
BLACK
6
CONTINUOUS
10
1.6886629921259841
20
0.5571766141732283
11
1.6948044881889763
21
0.5616386614173228
0
LINE
8
BLACK
6
CONTINUOUS
10
1.6948044881889763
20
0.5616386614173228
11
1.7001723622047245
21
0.5670065354330709
0
LINE
8
BLACK
6
CONTINUOUS
10
1.7001723622047245
20
0.5670065354330709
11
1.7046344094488188
21
0.573148031496063
0
LINE
8
BLACK
6
CONTINUOUS
10
1.7046344094488188
20
0.573148031496063
11
1.7080807874015749
21
0.5799119291338583
0
LINE
8
BLACK
6
CONTINUOUS
10
1.7080807874015749
20
0.5799119291338583
11
1.7104266141732283
21
0.5871316929133858
0
LINE
8
BLACK
6
CONTINUOUS
10
1.7104266141732283
20
0.5871316929133858
11
1.7116141732283465
21
0.5946295275590551
0
LINE
8
BLACK
6
CONTINUOUS
10
1.7116141732283465
20
0.5946295275590551
11
1.7116141732283465
21
0.6022208661417323
0
LINE
8
BLACK
6
CONTINUOUS
10
1.7116141732283465
20
0.6022208661417323
11
1.7104266141732283
21
0.6097187007874015
0
LINE
8
BLACK
6
CONTINUOUS
10
1.7104266141732283
20
0.6097187007874015
11
1.7080807874015749
21
0.6169384645669291
0
LINE
8
BLACK
6
CONTINUOUS
10
1.7080807874015749
20
0.6169384645669291
11
1.7046344094488188
21
0.6237023622047244
0
LINE
8
BLACK
6
CONTINUOUS
10
1.7046344094488188
20
0.6237023622047244
11
1.7001723622047245
21
0.6298438582677165
0
LINE
8
BLACK
6
CONTINUOUS
10
1.7001723622047245
20
0.6298438582677165
11
1.6948044881889763
21
0.6352117322834645
0
LINE
8
BLACK
6
CONTINUOUS
10
1.6948044881889763
20
0.6352117322834645
11
1.6886629921259841
21
0.639673779527559
0
LINE
8
BLACK
6
CONTINUOUS
10
1.6886629921259841
20
0.639673779527559
11
1.6818990944881889
21
0.6431201574803149
0
LINE
8
BLACK
6
CONTINUOUS
10
1.6818990944881889
20
0.6431201574803149
11
1.6746793307086614
21
0.6454659842519684
0
LINE
8
BLACK
6
CONTINUOUS
10
1.6746793307086614
20
0.6454659842519684
11
1.667181496062992
21
0.6466535433070866
0
LINE
8
BLACK
6
CONTINUOUS
10
1.667181496062992
20
0.6466535433070866
11
1.6595901574803149
21
0.6466535433070866
0
LINE
8
BLACK
6
CONTINUOUS
10
1.6595901574803149
20
0.6466535433070866
11
1.6520923228346456
21
0.6454659842519684
0
LINE
8
BLACK
6
CONTINUOUS
10
1.6520923228346456
20
0.6454659842519684
11
1.6448725590551181
21
0.6431201574803149
0
LINE
8
BLACK
6
CONTINUOUS
10
1.6448725590551181
20
0.6431201574803149
11
1.6381086614173228
21
0.639673779527559
0
LINE
8
BLACK
6
CONTINUOUS
10
1.6381086614173228
20
0.639673779527559
11
1.6319671653543306
21
0.6352117322834645
0
LINE
8
BLACK
6
CONTINUOUS
10
1.6319671653543306
20
0.6352117322834645
11
1.6265992913385827
21
0.6298438582677165
0
LINE
8
BLACK
6
CONTINUOUS
10
1.6265992913385827
20
0.6298438582677165
11
1.6221372440944881
21
0.6237023622047244
0
LINE
8
BLACK
6
CONTINUOUS
10
1.6221372440944881
20
0.6237023622047244
11
1.6186908661417323
21
0.6169384645669291
0
LINE
8
BLACK
6
CONTINUOUS
10
1.6186908661417323
20
0.6169384645669291
11
1.6163450393700787
21
0.6097187007874015
0
LINE
8
BLACK
6
CONTINUOUS
10
1.6163450393700787
20
0.6097187007874015
11
1.6151574803149606
21
0.6022208661417323
0
LINE
8
BLACK
6
CONTINUOUS
10
1.6151574803149606
20
0.6022208661417323
11
1.6151574803149606
21
0.5946295275590551
0
LINE
8
BLACK
6
CONTINUOUS
10
0.4590380708661417
20
0.6544526377952756
11
0.4595707480314961
21
0.6539199606299212
0
LINE
8
BLACK
6
CONTINUOUS
10
0.4595707480314961
20
0.6539199606299212
11
0.4596456692913386
21
0.6535433070866141
0
LINE
8
BLACK
6
CONTINUOUS
10
0.4596456692913386
20
0.6535433070866141
11
0.4596456692913386
21
0.5669291338582677
0
LINE
8
BLACK
6
CONTINUOUS
10
0.4596456692913386
20
0.5669291338582677
11
0.4595707480314961
21
0.5665524803149606
0
LINE
8
BLACK
6
CONTINUOUS
10
0.4595707480314961
20
0.5665524803149606
11
0.4590380708661417
21
0.5660198031496063
0
LINE
8
BLACK
6
CONTINUOUS
10
0.4590380708661417
20
0.5660198031496063
11
0.4586614173228346
21
0.5659448818897638
0
LINE
8
BLACK
6
CONTINUOUS
10
0.4586614173228346
20
0.5659448818897638
11
0.25
21
0.5659448818897638
0
LINE
8
BLACK
6
CONTINUOUS
10
0.25
20
0.5659448818897638
11
0.2496233464566929
21
0.5660198031496063
0
LINE
8
BLACK
6
CONTINUOUS
10
0.2496233464566929
20
0.5660198031496063
11
0.2490906692913386
21
0.5665524803149606
0
LINE
8
BLACK
6
CONTINUOUS
10
0.2490906692913386
20
0.5665524803149606
11
0.2490157480314961
21
0.5669291338582677
0
LINE
8
BLACK
6
CONTINUOUS
10
0.2490157480314961
20
0.5669291338582677
11
0.2490157480314961
21
0.6535433070866141
0
LINE
8
BLACK
6
CONTINUOUS
10
0.2490157480314961
20
0.6535433070866141
11
0.2490906692913386
21
0.6539199606299212
0
LINE
8
BLACK
6
CONTINUOUS
10
0.2490906692913386
20
0.6539199606299212
11
0.2496233464566929
21
0.6544526377952756
0
LINE
8
BLACK
6
CONTINUOUS
10
0.2496233464566929
20
0.6544526377952756
11
0.25
21
0.6545275590551181
0
LINE
8
BLACK
6
CONTINUOUS
10
0.25
20
0.6545275590551181
11
0.4586614173228346
21
0.6545275590551181
0
LINE
8
BLACK
6
CONTINUOUS
10
0.4586614173228346
20
0.6545275590551181
11
0.4590380708661417
21
0.6544526377952756
0
LINE
8
BLACK
6
CONTINUOUS
10
0.2509842519685039
20
0.6525590551181102
11
0.2509842519685039
21
0.5679133858267716
0
LINE
8
BLACK
6
CONTINUOUS
10
0.2509842519685039
20
0.5679133858267716
11
0.4576771653543307
21
0.5679133858267716
0
LINE
8
BLACK
6
CONTINUOUS
10
0.4576771653543307
20
0.5679133858267716
11
0.4576771653543307
21
0.6525590551181102
0
LINE
8
BLACK
6
CONTINUOUS
10
0.4576771653543307
20
0.6525590551181102
11
0.2509842519685039
21
0.6525590551181102
0
LINE
8
BLACK
6
CONTINUOUS
10
0.842108937007874
20
0.6379172047244094
11
0.8426416141732284
21
0.6373845275590551
0
LINE
8
BLACK
6
CONTINUOUS
10
0.8426416141732284
20
0.6373845275590551
11
0.8427165354330709
21
0.637007874015748
0
LINE
8
BLACK
6
CONTINUOUS
10
0.8427165354330709
20
0.637007874015748
11
0.8427165354330709
21
0.5795275590551181
0
LINE
8
BLACK
6
CONTINUOUS
10
0.8427165354330709
20
0.5795275590551181
11
0.8426416141732284
21
0.579150905511811
0
LINE
8
BLACK
6
CONTINUOUS
10
0.8426416141732284
20
0.579150905511811
11
0.842108937007874
21
0.5786182283464567
0
LINE
8
BLACK
6
CONTINUOUS
10
0.842108937007874
20
0.5786182283464567
11
0.8417322834645669
21
0.5785433070866142
0
LINE
8
BLACK
6
CONTINUOUS
10
0.8417322834645669
20
0.5785433070866142
11
0.7251968503937007
21
0.5785433070866142
0
LINE
8
BLACK
6
CONTINUOUS
10
0.7251968503937007
20
0.5785433070866142
11
0.7248201968503937
21
0.5786182283464567
0
LINE
8
BLACK
6
CONTINUOUS
10
0.7248201968503937
20
0.5786182283464567
11
0.7242875196850393
21
0.579150905511811
0
LINE
8
BLACK
6
CONTINUOUS
10
0.7242875196850393
20
0.579150905511811
11
0.7242125984251968
21
0.5795275590551181
0
LINE
8
BLACK
6
CONTINUOUS
10
0.7242125984251968
20
0.5795275590551181
11
0.7242125984251968
21
0.637007874015748
0
LINE
8
BLACK
6
CONTINUOUS
10
0.7242125984251968
20
0.637007874015748
11
0.7242875196850393
21
0.6373845275590551
0
LINE
8
BLACK
6
CONTINUOUS
10
0.7242875196850393
20
0.6373845275590551
11
0.7248201968503937
21
0.6379172047244094
0
LINE
8
BLACK
6
CONTINUOUS
10
0.7248201968503937
20
0.6379172047244094
11
0.7251968503937007
21
0.6379921259842519
0
LINE
8
BLACK
6
CONTINUOUS
10
0.7251968503937007
20
0.6379921259842519
11
0.8417322834645669
21
0.6379921259842519
0
LINE
8
BLACK
6
CONTINUOUS
10
0.8417322834645669
20
0.6379921259842519
11
0.842108937007874
21
0.6379172047244094
0
LINE
8
BLACK
6
CONTINUOUS
10
0.7261811023622047
20
0.6360236220472441
11
0.7261811023622047
21
0.580511811023622
0
LINE
8
BLACK
6
CONTINUOUS
10
0.7261811023622047
20
0.580511811023622
11
0.8407480314960629
21
0.580511811023622
0
LINE
8
BLACK
6
CONTINUOUS
10
0.8407480314960629
20
0.580511811023622
11
0.8407480314960629
21
0.6360236220472441
0
LINE
8
BLACK
6
CONTINUOUS
10
0.8407480314960629
20
0.6360236220472441
11
0.7261811023622047
21
0.6360236220472441
0
LINE
8
BLACK
6
CONTINUOUS
10
0.6570695669291339
20
0.6418542125984252
11
0.6576022440944882
21
0.6413215354330708
0
LINE
8
BLACK
6
CONTINUOUS
10
0.6576022440944882
20
0.6413215354330708
11
0.6576771653543307
21
0.6409448818897637
0
LINE
8
BLACK
6
CONTINUOUS
10
0.6576771653543307
20
0.6409448818897637
11
0.6576771653543307
21
0.5834645669291338
0
LINE
8
BLACK
6
CONTINUOUS
10
0.6576771653543307
20
0.5834645669291338
11
0.6576022440944882
21
0.5830879133858268
0
LINE
8
BLACK
6
CONTINUOUS
10
0.6576022440944882
20
0.5830879133858268
11
0.6570695669291339
21
0.5825552362204724
0
LINE
8
BLACK
6
CONTINUOUS
10
0.6570695669291339
20
0.5825552362204724
11
0.6566929133858268
21
0.5824803149606299
0
LINE
8
BLACK
6
CONTINUOUS
10
0.6566929133858268
20
0.5824803149606299
11
0.5401574803149606
21
0.5824803149606299
0
LINE
8
BLACK
6
CONTINUOUS
10
0.5401574803149606
20
0.5824803149606299
11
0.5397808267716535
21
0.5825552362204724
0
LINE
8
BLACK
6
CONTINUOUS
10
0.5397808267716535
20
0.5825552362204724
11
0.5392481496062992
21
0.5830879133858268
0
LINE
8
BLACK
6
CONTINUOUS
10
0.5392481496062992
20
0.5830879133858268
11
0.5391732283464566
21
0.5834645669291338
0
LINE
8
BLACK
6
CONTINUOUS
10
0.5391732283464566
20
0.5834645669291338
11
0.5391732283464566
21
0.6409448818897637
0
LINE
8
BLACK
6
CONTINUOUS
10
0.5391732283464566
20
0.6409448818897637
11
0.5392481496062992
21
0.6413215354330708
0
LINE
8
BLACK
6
CONTINUOUS
10
0.5392481496062992
20
0.6413215354330708
11
0.5397808267716535
21
0.6418542125984252
0
LINE
8
BLACK
6
CONTINUOUS
10
0.5397808267716535
20
0.6418542125984252
11
0.5401574803149606
21
0.6419291338582677
0
LINE
8
BLACK
6
CONTINUOUS
10
0.5401574803149606
20
0.6419291338582677
11
0.6566929133858268
21
0.6419291338582677
0
LINE
8
BLACK
6
CONTINUOUS
10
0.6566929133858268
20
0.6419291338582677
11
0.6570695669291339
21
0.6418542125984252
0
LINE
8
BLACK
6
CONTINUOUS
10
0.5411417322834645
20
0.6399606299212598
11
0.5411417322834645
21
0.5844488188976378
0
LINE
8
BLACK
6
CONTINUOUS
10
0.5411417322834645
20
0.5844488188976378
11
0.6557086614173229
21
0.5844488188976378
0
LINE
8
BLACK
6
CONTINUOUS
10
0.6557086614173229
20
0.5844488188976378
11
0.6557086614173229
21
0.6399606299212598
0
LINE
8
BLACK
6
CONTINUOUS
10
0.6557086614173229
20
0.6399606299212598
11
0.5411417322834645
21
0.6399606299212598
0
LINE
8
BLACK
6
CONTINUOUS
10
0.5212427952755906
20
0.7875235039370079
11
0.5217754724409449
21
0.7869908267716536
0
LINE
8
BLACK
6
CONTINUOUS
10
0.5217754724409449
20
0.7869908267716536
11
0.5218503937007873
21
0.7866141732283465
0
LINE
8
BLACK
6
CONTINUOUS
10
0.5218503937007873
20
0.7866141732283465
11
0.5218503937007873
21
0.6700787401574803
0
LINE
8
BLACK
6
CONTINUOUS
10
0.5218503937007873
20
0.6700787401574803
11
0.5217754724409449
21
0.6697020866141732
0
LINE
8
BLACK
6
CONTINUOUS
10
0.5217754724409449
20
0.6697020866141732
11
0.5212427952755906
21
0.6691694094488189
0
LINE
8
BLACK
6
CONTINUOUS
10
0.5212427952755906
20
0.6691694094488189
11
0.5208661417322834
21
0.6690944881889763
0
LINE
8
BLACK
6
CONTINUOUS
10
0.5208661417322834
20
0.6690944881889763
11
0.4633858267716535
21
0.6690944881889763
0
LINE
8
BLACK
6
CONTINUOUS
10
0.4633858267716535
20
0.6690944881889763
11
0.4630091732283464
21
0.6691694094488189
0
LINE
8
BLACK
6
CONTINUOUS
10
0.4630091732283464
20
0.6691694094488189
11
0.4624764960629921
21
0.6697020866141732
0
LINE
8
BLACK
6
CONTINUOUS
10
0.4624764960629921
20
0.6697020866141732
11
0.4624015748031496
21
0.6700787401574803
0
LINE
8
BLACK
6
CONTINUOUS
10
0.4624015748031496
20
0.6700787401574803
11
0.4624015748031496
21
0.7866141732283465
0
LINE
8
BLACK
6
CONTINUOUS
10
0.4624015748031496
20
0.7866141732283465
11
0.4624764960629921
21
0.7869908267716536
0
LINE
8
BLACK
6
CONTINUOUS
10
0.4624764960629921
20
0.7869908267716536
11
0.4630091732283464
21
0.7875235039370079
0
LINE
8
BLACK
6
CONTINUOUS
10
0.4630091732283464
20
0.7875235039370079
11
0.4633858267716535
21
0.7875984251968504
0
LINE
8
BLACK
6
CONTINUOUS
10
0.4633858267716535
20
0.7875984251968504
11
0.5208661417322834
21
0.7875984251968504
0
LINE
8
BLACK
6
CONTINUOUS
10
0.5208661417322834
20
0.7875984251968504
11
0.5212427952755906
21
0.7875235039370079
0
LINE
8
BLACK
6
CONTINUOUS
10
0.4643700787401575
20
0.7856299212598425
11
0.4643700787401575
21
0.6710629921259842
0
LINE
8
BLACK
6
CONTINUOUS
10
0.4643700787401575
20
0.6710629921259842
11
0.5198818897637795
21
0.6710629921259842
0
LINE
8
BLACK
6
CONTINUOUS
10
0.5198818897637795
20
0.6710629921259842
11
0.5198818897637795
21
0.7856299212598425
0
LINE
8
BLACK
6
CONTINUOUS
10
0.5198818897637795
20
0.7856299212598425
11
0.4643700787401575
21
0.7856299212598425
0
LINE
8
BLACK
6
CONTINUOUS
10
0.5999829527559055
20
0.7875235039370079
11
0.6005156299212598
21
0.7869908267716536
0
LINE
8
BLACK
6
CONTINUOUS
10
0.6005156299212598
20
0.7869908267716536
11
0.6005905511811024
21
0.7866141732283465
0
LINE
8
BLACK
6
CONTINUOUS
10
0.6005905511811024
20
0.7866141732283465
11
0.6005905511811024
21
0.6700787401574803
0
LINE
8
BLACK
6
CONTINUOUS
10
0.6005905511811024
20
0.6700787401574803
11
0.6005156299212598
21
0.6697020866141732
0
LINE
8
BLACK
6
CONTINUOUS
10
0.6005156299212598
20
0.6697020866141732
11
0.5999829527559055
21
0.6691694094488189
0
LINE
8
BLACK
6
CONTINUOUS
10
0.5999829527559055
20
0.6691694094488189
11
0.5996062992125984
21
0.6690944881889763
0
LINE
8
BLACK
6
CONTINUOUS
10
0.5996062992125984
20
0.6690944881889763
11
0.5421259842519685
21
0.6690944881889763
0
LINE
8
BLACK
6
CONTINUOUS
10
0.5421259842519685
20
0.6690944881889763
11
0.5417493307086614
21
0.6691694094488189
0
LINE
8
BLACK
6
CONTINUOUS
10
0.5417493307086614
20
0.6691694094488189
11
0.5412166535433071
21
0.6697020866141732
0
LINE
8
BLACK
6
CONTINUOUS
10
0.5412166535433071
20
0.6697020866141732
11
0.5411417322834645
21
0.6700787401574803
0
LINE
8
BLACK
6
CONTINUOUS
10
0.5411417322834645
20
0.6700787401574803
11
0.5411417322834645
21
0.7866141732283465
0
LINE
8
BLACK
6
CONTINUOUS
10
0.5411417322834645
20
0.7866141732283465
11
0.5412166535433071
21
0.7869908267716536
0
LINE
8
BLACK
6
CONTINUOUS
10
0.5412166535433071
20
0.7869908267716536
11
0.5417493307086614
21
0.7875235039370079
0
LINE
8
BLACK
6
CONTINUOUS
10
0.5417493307086614
20
0.7875235039370079
11
0.5421259842519685
21
0.7875984251968504
0
LINE
8
BLACK
6
CONTINUOUS
10
0.5421259842519685
20
0.7875984251968504
11
0.5996062992125984
21
0.7875984251968504
0
LINE
8
BLACK
6
CONTINUOUS
10
0.5996062992125984
20
0.7875984251968504
11
0.5999829527559055
21
0.7875235039370079
0
LINE
8
BLACK
6
CONTINUOUS
10
0.5431102362204724
20
0.7856299212598425
11
0.5431102362204724
21
0.6710629921259842
0
LINE
8
BLACK
6
CONTINUOUS
10
0.5431102362204724
20
0.6710629921259842
11
0.5986220472440945
21
0.6710629921259842
0
LINE
8
BLACK
6
CONTINUOUS
10
0.5986220472440945
20
0.6710629921259842
11
0.5986220472440945
21
0.7856299212598425
0
LINE
8
BLACK
6
CONTINUOUS
10
0.5986220472440945
20
0.7856299212598425
11
0.5431102362204724
21
0.7856299212598425
0
LINE
8
BLACK
6
CONTINUOUS
10
1.2594317716535433
20
0.7894920078740157
11
1.2599644488188977
21
0.7889593307086614
0
LINE
8
BLACK
6
CONTINUOUS
10
1.2599644488188977
20
0.7889593307086614
11
1.2600393700787402
21
0.7885826771653544
0
LINE
8
BLACK
6
CONTINUOUS
10
1.2600393700787402
20
0.7885826771653544
11
1.2600393700787402
21
0.6720472440944881
0
LINE
8
BLACK
6
CONTINUOUS
10
1.2600393700787402
20
0.6720472440944881
11
1.2599644488188977
21
0.6716705905511811
0
LINE
8
BLACK
6
CONTINUOUS
10
1.2599644488188977
20
0.6716705905511811
11
1.2594317716535433
21
0.6711379133858267
0
LINE
8
BLACK
6
CONTINUOUS
10
1.2594317716535433
20
0.6711379133858267
11
1.2590551181102363
21
0.6710629921259842
0
LINE
8
BLACK
6
CONTINUOUS
10
1.2590551181102363
20
0.6710629921259842
11
1.2015748031496063
21
0.6710629921259842
0
LINE
8
BLACK
6
CONTINUOUS
10
1.2015748031496063
20
0.6710629921259842
11
1.2011981496062991
21
0.6711379133858267
0
LINE
8
BLACK
6
CONTINUOUS
10
1.2011981496062991
20
0.6711379133858267
11
1.2006654724409449
21
0.6716705905511811
0
LINE
8
BLACK
6
CONTINUOUS
10
1.2006654724409449
20
0.6716705905511811
11
1.2005905511811024
21
0.6720472440944881
0
LINE
8
BLACK
6
CONTINUOUS
10
1.2005905511811024
20
0.6720472440944881
11
1.2005905511811024
21
0.7885826771653544
0
LINE
8
BLACK
6
CONTINUOUS
10
1.2005905511811024
20
0.7885826771653544
11
1.2006654724409449
21
0.7889593307086614
0
LINE
8
BLACK
6
CONTINUOUS
10
1.2006654724409449
20
0.7889593307086614
11
1.2011981496062991
21
0.7894920078740157
0
LINE
8
BLACK
6
CONTINUOUS
10
1.2011981496062991
20
0.7894920078740157
11
1.2015748031496063
21
0.7895669291338583
0
LINE
8
BLACK
6
CONTINUOUS
10
1.2015748031496063
20
0.7895669291338583
11
1.2590551181102363
21
0.7895669291338583
0
LINE
8
BLACK
6
CONTINUOUS
10
1.2590551181102363
20
0.7895669291338583
11
1.2594317716535433
21
0.7894920078740157
0
LINE
8
BLACK
6
CONTINUOUS
10
1.2025590551181102
20
0.7875984251968504
11
1.2025590551181102
21
0.6730314960629921
0
LINE
8
BLACK
6
CONTINUOUS
10
1.2025590551181102
20
0.6730314960629921
11
1.2580708661417324
21
0.6730314960629921
0
LINE
8
BLACK
6
CONTINUOUS
10
1.2580708661417324
20
0.6730314960629921
11
1.2580708661417324
21
0.7875984251968504
0
LINE
8
BLACK
6
CONTINUOUS
10
1.2580708661417324
20
0.7875984251968504
11
1.2025590551181102
21
0.7875984251968504
0
LINE
8
BLACK
6
CONTINUOUS
10
1.3204553937007875
20
0.7894920078740157
11
1.3209880708661417
21
0.7889593307086614
0
LINE
8
BLACK
6
CONTINUOUS
10
1.3209880708661417
20
0.7889593307086614
11
1.3210629921259842
21
0.7885826771653544
0
LINE
8
BLACK
6
CONTINUOUS
10
1.3210629921259842
20
0.7885826771653544
11
1.3210629921259842
21
0.6720472440944881
0
LINE
8
BLACK
6
CONTINUOUS
10
1.3210629921259842
20
0.6720472440944881
11
1.3209880708661417
21
0.6716705905511811
0
LINE
8
BLACK
6
CONTINUOUS
10
1.3209880708661417
20
0.6716705905511811
11
1.3204553937007875
21
0.6711379133858267
0
LINE
8
BLACK
6
CONTINUOUS
10
1.3204553937007875
20
0.6711379133858267
11
1.3200787401574803
21
0.6710629921259842
0
LINE
8
BLACK
6
CONTINUOUS
10
1.3200787401574803
20
0.6710629921259842
11
1.2625984251968503
21
0.6710629921259842
0
LINE
8
BLACK
6
CONTINUOUS
10
1.2625984251968503
20
0.6710629921259842
11
1.2622217716535433
21
0.6711379133858267
0
LINE
8
BLACK
6
CONTINUOUS
10
1.2622217716535433
20
0.6711379133858267
11
1.2616890944881889
21
0.6716705905511811
0
LINE
8
BLACK
6
CONTINUOUS
10
1.2616890944881889
20
0.6716705905511811
11
1.2616141732283463
21
0.6720472440944881
0
LINE
8
BLACK
6
CONTINUOUS
10
1.2616141732283463
20
0.6720472440944881
11
1.2616141732283463
21
0.7885826771653544
0
LINE
8
BLACK
6
CONTINUOUS
10
1.2616141732283463
20
0.7885826771653544
11
1.2616890944881889
21
0.7889593307086614
0
LINE
8
BLACK
6
CONTINUOUS
10
1.2616890944881889
20
0.7889593307086614
11
1.2622217716535433
21
0.7894920078740157
0
LINE
8
BLACK
6
CONTINUOUS
10
1.2622217716535433
20
0.7894920078740157
11
1.2625984251968503
21
0.7895669291338583
0
LINE
8
BLACK
6
CONTINUOUS
10
1.2625984251968503
20
0.7895669291338583
11
1.3200787401574803
21
0.7895669291338583
0
LINE
8
BLACK
6
CONTINUOUS
10
1.3200787401574803
20
0.7895669291338583
11
1.3204553937007875
21
0.7894920078740157
0
LINE
8
BLACK
6
CONTINUOUS
10
1.2635826771653542
20
0.7875984251968504
11
1.2635826771653542
21
0.6730314960629921
0
LINE
8
BLACK
6
CONTINUOUS
10
1.2635826771653542
20
0.6730314960629921
11
1.3190944881889763
21
0.6730314960629921
0
LINE
8
BLACK
6
CONTINUOUS
10
1.3190944881889763
20
0.6730314960629921
11
1.3190944881889763
21
0.7875984251968504
0
LINE
8
BLACK
6
CONTINUOUS
10
1.3190944881889763
20
0.7875984251968504
11
1.2635826771653542
21
0.7875984251968504
0
LINE
8
BLACK
6
CONTINUOUS
10
1.4349081102362204
20
0.8703085039370079
11
1.4359895275590551
21
0.8698605511811024
0
LINE
8
BLACK
6
CONTINUOUS
10
1.4359895275590551
20
0.8698605511811024
11
1.4368172440944882
21
0.8690328346456693
0
LINE
8
BLACK
6
CONTINUOUS
10
1.4368172440944882
20
0.8690328346456693
11
1.4372651968503938
21
0.8679514173228347
0
LINE
8
BLACK
6
CONTINUOUS
10
1.4372651968503938
20
0.8679514173228347
11
1.4373228346456692
21
0.8673661417322834
0
LINE
8
BLACK
6
CONTINUOUS
10
1.4373228346456692
20
0.8673661417322834
11
1.4373228346456692
21
0.8613661417322834
0
LINE
8
BLACK
6
CONTINUOUS
10
1.4373228346456692
20
0.8613661417322834
11
1.4698228346456692
21
0.8613661417322834
0
LINE
8
BLACK
6
CONTINUOUS
10
1.4698228346456692
20
0.8613661417322834
11
1.4704081102362205
21
0.8613085039370079
0
LINE
8
BLACK
6
CONTINUOUS
10
1.4704081102362205
20
0.8613085039370079
11
1.4714895275590552
21
0.8608605511811024
0
LINE
8
BLACK
6
CONTINUOUS
10
1.4714895275590552
20
0.8608605511811024
11
1.4723172440944881
21
0.8600328346456693
0
LINE
8
BLACK
6
CONTINUOUS
10
1.4723172440944881
20
0.8600328346456693
11
1.4727651968503936
21
0.8589514173228346
0
LINE
8
BLACK
6
CONTINUOUS
10
1.4727651968503936
20
0.8589514173228346
11
1.4728228346456693
21
0.8583661417322834
0
LINE
8
BLACK
6
CONTINUOUS
10
1.4728228346456693
20
0.8583661417322834
11
1.4728228346456693
21
0.8408661417322835
0
LINE
8
BLACK
6
CONTINUOUS
10
1.4728228346456693
20
0.8408661417322835
11
1.4788228346456693
21
0.8408661417322835
0
LINE
8
BLACK
6
CONTINUOUS
10
1.4788228346456693
20
0.8408661417322835
11
1.4794081102362204
21
0.8408085039370079
0
LINE
8
BLACK
6
CONTINUOUS
10
1.4794081102362204
20
0.8408085039370079
11
1.4804895275590551
21
0.8403605511811023
0
LINE
8
BLACK
6
CONTINUOUS
10
1.4804895275590551
20
0.8403605511811023
11
1.4813172440944882
21
0.8395328346456693
0
LINE
8
BLACK
6
CONTINUOUS
10
1.4813172440944882
20
0.8395328346456693
11
1.4817651968503938
21
0.8384514173228347
0
LINE
8
BLACK
6
CONTINUOUS
10
1.4817651968503938
20
0.8384514173228347
11
1.4818228346456692
21
0.8378661417322835
0
LINE
8
BLACK
6
CONTINUOUS
10
1.4818228346456692
20
0.8378661417322835
11
1.4818228346456692
21
0.8008661417322834
0
LINE
8
BLACK
6
CONTINUOUS
10
1.4818228346456692
20
0.8008661417322834
11
1.4817936614173228
21
0.80057
0
LINE
8
BLACK
6
CONTINUOUS
10
1.4817936614173228
20
0.80057
11
1.4817992913385827
21
0.800490905511811
0
LINE
8
BLACK
6
CONTINUOUS
10
1.4817992913385827
20
0.800490905511811
11
1.4817802362204724
21
0.8004338188976378
0
LINE
8
BLACK
6
CONTINUOUS
10
1.4817802362204724
20
0.8004338188976378
11
1.4817651968503938
21
0.8002808661417322
0
LINE
8
BLACK
6
CONTINUOUS
10
1.4817651968503938
20
0.8002808661417322
11
1.4815812598425198
21
0.7998368503937008
0
LINE
8
BLACK
6
CONTINUOUS
10
1.4815812598425198
20
0.7998368503937008
11
1.4814291338582677
21
0.7993804330708661
0
LINE
8
BLACK
6
CONTINUOUS
10
1.4814291338582677
20
0.7993804330708661
11
1.4813584251968503
21
0.7992989763779528
0
LINE
8
BLACK
6
CONTINUOUS
10
1.4813584251968503
20
0.7992989763779528
11
1.4813172440944882
21
0.7991994488188976
0
LINE
8
BLACK
6
CONTINUOUS
10
1.4813172440944882
20
0.7991994488188976
11
1.4809774409448819
21
0.7988596850393701
0
LINE
8
BLACK
6
CONTINUOUS
10
1.4809774409448819
20
0.7988596850393701
11
1.4806622047244093
21
0.7984961811023622
0
LINE
8
BLACK
6
CONTINUOUS
10
1.4806622047244093
20
0.7984961811023622
11
1.480565748031496
21
0.7984479527559055
0
LINE
8
BLACK
6
CONTINUOUS
10
1.480565748031496
20
0.7984479527559055
11
1.4804895275590551
21
0.7983717322834646
0
LINE
8
BLACK
6
CONTINUOUS
10
1.4804895275590551
20
0.7983717322834646
11
1.4800451968503936
21
0.7981877165354331
0
LINE
8
BLACK
6
CONTINUOUS
10
1.4800451968503936
20
0.7981877165354331
11
1.4796151968503937
21
0.7979726771653544
0
LINE
8
BLACK
6
CONTINUOUS
10
1.4796151968503937
20
0.7979726771653544
11
1.4795076771653544
21
0.7979650393700787
0
LINE
8
BLACK
6
CONTINUOUS
10
1.4795076771653544
20
0.7979650393700787
11
1.4794081102362204
21
0.797923779527559
0
LINE
8
BLACK
6
CONTINUOUS
10
1.4794081102362204
20
0.797923779527559
11
1.4789272834645668
21
0.797923779527559
0
LINE
8
BLACK
6
CONTINUOUS
10
1.4789272834645668
20
0.797923779527559
11
1.4784476377952755
21
0.7978896850393701
0
LINE
8
BLACK
6
CONTINUOUS
10
1.4784476377952755
20
0.7978896850393701
11
1.4782976771653542
21
0.797923779527559
0
LINE
8
BLACK
6
CONTINUOUS
10
1.4782976771653542
20
0.797923779527559
11
1.478237559055118
21
0.797923779527559
0
LINE
8
BLACK
6
CONTINUOUS
10
1.478237559055118
20
0.797923779527559
11
1.4781643700787401
21
0.797954094488189
0
LINE
8
BLACK
6
CONTINUOUS
10
1.4781643700787401
20
0.797954094488189
11
1.4778741732283465
21
0.7980200787401575
0
LINE
8
BLACK
6
CONTINUOUS
10
1.4778741732283465
20
0.7980200787401575
11
1.4728228346456693
21
0.7997038582677165
0
LINE
8
BLACK
6
CONTINUOUS
10
1.4728228346456693
20
0.7997038582677165
11
1.4728228346456693
21
0.7833661417322835
0
LINE
8
BLACK
6
CONTINUOUS
10
1.4728228346456693
20
0.7833661417322835
11
1.4727651968503936
21
0.7827808661417323
0
LINE
8
BLACK
6
CONTINUOUS
10
1.4727651968503936
20
0.7827808661417323
11
1.4723172440944881
21
0.7816994488188976
0
LINE
8
BLACK
6
CONTINUOUS
10
1.4723172440944881
20
0.7816994488188976
11
1.4714895275590552
21
0.7808717322834645
0
LINE
8
BLACK
6
CONTINUOUS
10
1.4714895275590552
20
0.7808717322834645
11
1.4704081102362205
21
0.780423779527559
0
LINE
8
BLACK
6
CONTINUOUS
10
1.4704081102362205
20
0.780423779527559
11
1.4698228346456692
21
0.7803661417322835
0
LINE
8
BLACK
6
CONTINUOUS
10
1.4698228346456692
20
0.7803661417322835
11
1.4373228346456692
21
0.7803661417322835
0
LINE
8
BLACK
6
CONTINUOUS
10
1.4373228346456692
20
0.7803661417322835
11
1.4373228346456692
21
0.7743661417322835
0
LINE
8
BLACK
6
CONTINUOUS
10
1.4373228346456692
20
0.7743661417322835
11
1.4372651968503938
21
0.7737808661417322
0
LINE
8
BLACK
6
CONTINUOUS
10
1.4372651968503938
20
0.7737808661417322
11
1.4368172440944882
21
0.7726994488188976
0
LINE
8
BLACK
6
CONTINUOUS
10
1.4368172440944882
20
0.7726994488188976
11
1.4359895275590551
21
0.7718717322834645
0
LINE
8
BLACK
6
CONTINUOUS
10
1.4359895275590551
20
0.7718717322834645
11
1.4349081102362204
21
0.771423779527559
0
LINE
8
BLACK
6
CONTINUOUS
10
1.4349081102362204
20
0.771423779527559
11
1.4343228346456693
21
0.7713661417322835
0
LINE
8
BLACK
6
CONTINUOUS
10
1.4343228346456693
20
0.7713661417322835
11
1.4003228346456693
21
0.7713661417322835
0
LINE
8
BLACK
6
CONTINUOUS
10
1.4003228346456693
20
0.7713661417322835
11
1.399737559055118
21
0.771423779527559
0
LINE
8
BLACK
6
CONTINUOUS
10
1.399737559055118
20
0.771423779527559
11
1.3986561417322834
21
0.7718717322834645
0
LINE
8
BLACK
6
CONTINUOUS
10
1.3986561417322834
20
0.7718717322834645
11
1.3978284251968505
21
0.7726994488188976
0
LINE
8
BLACK
6
CONTINUOUS
10
1.3978284251968505
20
0.7726994488188976
11
1.3973804724409449
21
0.7737808661417322
0
LINE
8
BLACK
6
CONTINUOUS
10
1.3973804724409449
20
0.7737808661417322
11
1.3973228346456692
21
0.7743661417322835
0
LINE
8
BLACK
6
CONTINUOUS
10
1.3973228346456692
20
0.7743661417322835
11
1.3973228346456692
21
0.7803661417322835
0
LINE
8
BLACK
6
CONTINUOUS
10
1.3973228346456692
20
0.7803661417322835
11
1.3648228346456692
21
0.7803661417322835
0
LINE
8
BLACK
6
CONTINUOUS
10
1.3648228346456692
20
0.7803661417322835
11
1.3642375590551181
21
0.780423779527559
0
LINE
8
BLACK
6
CONTINUOUS
10
1.3642375590551181
20
0.780423779527559
11
1.3631561417322835
21
0.7808717322834645
0
LINE
8
BLACK
6
CONTINUOUS
10
1.3631561417322835
20
0.7808717322834645
11
1.3623284251968504
21
0.7816994488188976
0
LINE
8
BLACK
6
CONTINUOUS
10
1.3623284251968504
20
0.7816994488188976
11
1.3618804724409448
21
0.7827808661417323
0
LINE
8
BLACK
6
CONTINUOUS
10
1.3618804724409448
20
0.7827808661417323
11
1.3618228346456693
21
0.7833661417322835
0
LINE
8
BLACK
6
CONTINUOUS
10
1.3618228346456693
20
0.7833661417322835
11
1.3618228346456693
21
0.8008661417322834
0
LINE
8
BLACK
6
CONTINUOUS
10
1.3618228346456693
20
0.8008661417322834
11
1.3558228346456693
21
0.8008661417322834
0
LINE
8
BLACK
6
CONTINUOUS
10
1.3558228346456693
20
0.8008661417322834
11
1.355237559055118
21
0.800923779527559
0
LINE
8
BLACK
6
CONTINUOUS
10
1.355237559055118
20
0.800923779527559
11
1.3541561417322834
21
0.8013717322834646
0
LINE
8
BLACK
6
CONTINUOUS
10
1.3541561417322834
20
0.8013717322834646
11
1.3533284251968503
21
0.8021994488188976
0
LINE
8
BLACK
6
CONTINUOUS
10
1.3533284251968503
20
0.8021994488188976
11
1.3528804724409449
21
0.8032808661417322
0
LINE
8
BLACK
6
CONTINUOUS
10
1.3528804724409449
20
0.8032808661417322
11
1.3528228346456692
21
0.8038661417322834
0
LINE
8
BLACK
6
CONTINUOUS
10
1.3528228346456692
20
0.8038661417322834
11
1.3528228346456692
21
0.8378661417322835
0
LINE
8
BLACK
6
CONTINUOUS
10
1.3528228346456692
20
0.8378661417322835
11
1.3528804724409449
21
0.8384514173228347
0
LINE
8
BLACK
6
CONTINUOUS
10
1.3528804724409449
20
0.8384514173228347
11
1.3533284251968503
21
0.8395328346456693
0
LINE
8
BLACK
6
CONTINUOUS
10
1.3533284251968503
20
0.8395328346456693
11
1.3541561417322834
21
0.8403605511811023
0
LINE
8
BLACK
6
CONTINUOUS
10
1.3541561417322834
20
0.8403605511811023
11
1.355237559055118
21
0.8408085039370079
0
LINE
8
BLACK
6
CONTINUOUS
10
1.355237559055118
20
0.8408085039370079
11
1.3558228346456693
21
0.8408661417322835
0
LINE
8
BLACK
6
CONTINUOUS
10
1.3558228346456693
20
0.8408661417322835
11
1.3618228346456693
21
0.8408661417322835
0
LINE
8
BLACK
6
CONTINUOUS
10
1.3618228346456693
20
0.8408661417322835
11
1.3618228346456693
21
0.8583661417322834
0
LINE
8
BLACK
6
CONTINUOUS
10
1.3618228346456693
20
0.8583661417322834
11
1.3618804724409448
21
0.8589514173228346
0
LINE
8
BLACK
6
CONTINUOUS
10
1.3618804724409448
20
0.8589514173228346
11
1.3623284251968504
21
0.8600328346456693
0
LINE
8
BLACK
6
CONTINUOUS
10
1.3623284251968504
20
0.8600328346456693
11
1.3631561417322835
21
0.8608605511811024
0
LINE
8
BLACK
6
CONTINUOUS
10
1.3631561417322835
20
0.8608605511811024
11
1.3642375590551181
21
0.8613085039370079
0
LINE
8
BLACK
6
CONTINUOUS
10
1.3642375590551181
20
0.8613085039370079
11
1.3648228346456692
21
0.8613661417322834
0
LINE
8
BLACK
6
CONTINUOUS
10
1.3648228346456692
20
0.8613661417322834
11
1.3973228346456692
21
0.8613661417322834
0
LINE
8
BLACK
6
CONTINUOUS
10
1.3973228346456692
20
0.8613661417322834
11
1.3973228346456692
21
0.8673661417322834
0
LINE
8
BLACK
6
CONTINUOUS
10
1.3973228346456692
20
0.8673661417322834
11
1.3973804724409449
21
0.8679514173228347
0
LINE
8
BLACK
6
CONTINUOUS
10
1.3973804724409449
20
0.8679514173228347
11
1.3978284251968505
21
0.8690328346456693
0
LINE
8
BLACK
6
CONTINUOUS
10
1.3978284251968505
20
0.8690328346456693
11
1.3986561417322834
21
0.8698605511811024
0
LINE
8
BLACK
6
CONTINUOUS
10
1.3986561417322834
20
0.8698605511811024
11
1.399737559055118
21
0.8703085039370079
0
LINE
8
BLACK
6
CONTINUOUS
10
1.399737559055118
20
0.8703085039370079
11
1.4003228346456693
21
0.8703661417322834
0
LINE
8
BLACK
6
CONTINUOUS
10
1.4003228346456693
20
0.8703661417322834
11
1.4343228346456693
21
0.8703661417322834
0
LINE
8
BLACK
6
CONTINUOUS
10
1.4343228346456693
20
0.8703661417322834
11
1.4349081102362204
21
0.8703085039370079
0
LINE
8
BLACK
6
CONTINUOUS
10
1.4033228346456692
20
0.8643661417322834
11
1.4033228346456692
21
0.8583661417322834
0
LINE
8
BLACK
6
CONTINUOUS
10
1.4033228346456692
20
0.8583661417322834
11
1.4032651968503937
21
0.8577808661417322
0
LINE
8
BLACK
6
CONTINUOUS
10
1.4032651968503937
20
0.8577808661417322
11
1.4028172440944882
21
0.8566994488188976
0
LINE
8
BLACK
6
CONTINUOUS
10
1.4028172440944882
20
0.8566994488188976
11
1.401989527559055
21
0.8558717322834646
0
LINE
8
BLACK
6
CONTINUOUS
10
1.401989527559055
20
0.8558717322834646
11
1.4009081102362204
21
0.855423779527559
0
LINE
8
BLACK
6
CONTINUOUS
10
1.4009081102362204
20
0.855423779527559
11
1.4003228346456693
21
0.8553661417322834
0
LINE
8
BLACK
6
CONTINUOUS
10
1.4003228346456693
20
0.8553661417322834
11
1.3678228346456693
21
0.8553661417322834
0
LINE
8
BLACK
6
CONTINUOUS
10
1.3678228346456693
20
0.8553661417322834
11
1.3678228346456693
21
0.8378661417322835
0
LINE
8
BLACK
6
CONTINUOUS
10
1.3678228346456693
20
0.8378661417322835
11
1.3677651968503937
21
0.8372808661417322
0
LINE
8
BLACK
6
CONTINUOUS
10
1.3677651968503937
20
0.8372808661417322
11
1.3673172440944881
21
0.8361994488188976
0
LINE
8
BLACK
6
CONTINUOUS
10
1.3673172440944881
20
0.8361994488188976
11
1.3664895275590552
21
0.8353717322834645
0
LINE
8
BLACK
6
CONTINUOUS
10
1.3664895275590552
20
0.8353717322834645
11
1.3654081102362206
21
0.834923779527559
0
LINE
8
BLACK
6
CONTINUOUS
10
1.3654081102362206
20
0.834923779527559
11
1.3648228346456692
21
0.8348661417322835
0
LINE
8
BLACK
6
CONTINUOUS
10
1.3648228346456692
20
0.8348661417322835
11
1.3588228346456692
21
0.8348661417322835
0
LINE
8
BLACK
6
CONTINUOUS
10
1.3588228346456692
20
0.8348661417322835
11
1.3588228346456692
21
0.8068661417322834
0
LINE
8
BLACK
6
CONTINUOUS
10
1.3588228346456692
20
0.8068661417322834
11
1.3648228346456692
21
0.8068661417322834
0
LINE
8
BLACK
6
CONTINUOUS
10
1.3648228346456692
20
0.8068661417322834
11
1.3654081102362206
21
0.8068085039370079
0
LINE
8
BLACK
6
CONTINUOUS
10
1.3654081102362206
20
0.8068085039370079
11
1.3664895275590552
21
0.8063605511811024
0
LINE
8
BLACK
6
CONTINUOUS
10
1.3664895275590552
20
0.8063605511811024
11
1.3673172440944881
21
0.8055328346456693
0
LINE
8
BLACK
6
CONTINUOUS
10
1.3673172440944881
20
0.8055328346456693
11
1.3677651968503937
21
0.8044514173228346
0
LINE
8
BLACK
6
CONTINUOUS
10
1.3677651968503937
20
0.8044514173228346
11
1.3678228346456693
21
0.8038661417322834
0
LINE
8
BLACK
6
CONTINUOUS
10
1.3678228346456693
20
0.8038661417322834
11
1.3678228346456693
21
0.7863661417322835
0
LINE
8
BLACK
6
CONTINUOUS
10
1.3678228346456693
20
0.7863661417322835
11
1.4003228346456693
21
0.7863661417322835
0
LINE
8
BLACK
6
CONTINUOUS
10
1.4003228346456693
20
0.7863661417322835
11
1.4009081102362204
21
0.7863085039370079
0
LINE
8
BLACK
6
CONTINUOUS
10
1.4009081102362204
20
0.7863085039370079
11
1.401989527559055
21
0.7858605511811023
0
LINE
8
BLACK
6
CONTINUOUS
10
1.401989527559055
20
0.7858605511811023
11
1.4028172440944882
21
0.7850328346456693
0
LINE
8
BLACK
6
CONTINUOUS
10
1.4028172440944882
20
0.7850328346456693
11
1.4032651968503937
21
0.7839514173228346
0
LINE
8
BLACK
6
CONTINUOUS
10
1.4032651968503937
20
0.7839514173228346
11
1.4033228346456692
21
0.7833661417322835
0
LINE
8
BLACK
6
CONTINUOUS
10
1.4033228346456692
20
0.7833661417322835
11
1.4033228346456692
21
0.7773661417322835
0
LINE
8
BLACK
6
CONTINUOUS
10
1.4033228346456692
20
0.7773661417322835
11
1.4313228346456692
21
0.7773661417322835
0
LINE
8
BLACK
6
CONTINUOUS
10
1.4313228346456692
20
0.7773661417322835
11
1.4313228346456692
21
0.7833661417322835
0
LINE
8
BLACK
6
CONTINUOUS
10
1.4313228346456692
20
0.7833661417322835
11
1.4313804724409449
21
0.7839514173228346
0
LINE
8
BLACK
6
CONTINUOUS
10
1.4313804724409449
20
0.7839514173228346
11
1.4318284251968503
21
0.7850328346456693
0
LINE
8
BLACK
6
CONTINUOUS
10
1.4318284251968503
20
0.7850328346456693
11
1.4326561417322834
21
0.7858605511811023
0
LINE
8
BLACK
6
CONTINUOUS
10
1.4326561417322834
20
0.7858605511811023
11
1.433737559055118
21
0.7863085039370079
0
LINE
8
BLACK
6
CONTINUOUS
10
1.433737559055118
20
0.7863085039370079
11
1.4343228346456693
21
0.7863661417322835
0
LINE
8
BLACK
6
CONTINUOUS
10
1.4343228346456693
20
0.7863661417322835
11
1.4668228346456693
21
0.7863661417322835
0
LINE
8
BLACK
6
CONTINUOUS
10
1.4668228346456693
20
0.7863661417322835
11
1.4668228346456693
21
0.8038661417322834
0
LINE
8
BLACK
6
CONTINUOUS
10
1.4668228346456693
20
0.8038661417322834
11
1.466851968503937
21
0.8041622834645669
0
LINE
8
BLACK
6
CONTINUOUS
10
1.466851968503937
20
0.8041622834645669
11
1.4668463779527559
21
0.8042413385826771
0
LINE
8
BLACK
6
CONTINUOUS
10
1.4668463779527559
20
0.8042413385826771
11
1.4668653937007874
21
0.8042984251968504
0
LINE
8
BLACK
6
CONTINUOUS
10
1.4668653937007874
20
0.8042984251968504
11
1.4668804724409448
21
0.8044514173228346
0
LINE
8
BLACK
6
CONTINUOUS
10
1.4668804724409448
20
0.8044514173228346
11
1.4670644094488188
21
0.8048955118110236
0
LINE
8
BLACK
6
CONTINUOUS
10
1.4670644094488188
20
0.8048955118110236
11
1.4672165354330708
21
0.8053518503937007
0
LINE
8
BLACK
6
CONTINUOUS
10
1.4672165354330708
20
0.8053518503937007
11
1.4672872047244094
21
0.8054333464566928
0
LINE
8
BLACK
6
CONTINUOUS
10
1.4672872047244094
20
0.8054333464566928
11
1.4673284251968504
21
0.8055328346456693
0
LINE
8
BLACK
6
CONTINUOUS
10
1.4673284251968504
20
0.8055328346456693
11
1.4676683464566929
21
0.8058727952755905
0
LINE
8
BLACK
6
CONTINUOUS
10
1.4676683464566929
20
0.8058727952755905
11
1.4679835039370079
21
0.8062361023622047
0
LINE
8
BLACK
6
CONTINUOUS
10
1.4679835039370079
20
0.8062361023622047
11
1.4680798818897638
21
0.8062843307086613
0
LINE
8
BLACK
6
CONTINUOUS
10
1.4680798818897638
20
0.8062843307086613
11
1.4681561417322835
21
0.8063605511811024
0
LINE
8
BLACK
6
CONTINUOUS
10
1.4681561417322835
20
0.8063605511811024
11
1.4686005511811022
21
0.8065446456692913
0
LINE
8
BLACK
6
CONTINUOUS
10
1.4686005511811022
20
0.8065446456692913
11
1.4690304724409449
21
0.8067596062992126
0
LINE
8
BLACK
6
CONTINUOUS
10
1.4690304724409449
20
0.8067596062992126
11
1.4691379527559054
21
0.8067672834645669
0
LINE
8
BLACK
6
CONTINUOUS
10
1.4691379527559054
20
0.8067672834645669
11
1.4692375590551181
21
0.8068085039370079
0
LINE
8
BLACK
6
CONTINUOUS
10
1.4692375590551181
20
0.8068085039370079
11
1.4697183858267717
21
0.8068085039370079
0
LINE
8
BLACK
6
CONTINUOUS
10
1.4697183858267717
20
0.8068085039370079
11
1.470198031496063
21
0.8068425984251968
0
LINE
8
BLACK
6
CONTINUOUS
10
1.470198031496063
20
0.8068425984251968
11
1.4703479921259843
21
0.8068085039370079
0
LINE
8
BLACK
6
CONTINUOUS
10
1.4703479921259843
20
0.8068085039370079
11
1.4704081102362205
21
0.8068085039370079
0
LINE
8
BLACK
6
CONTINUOUS
10
1.4704081102362205
20
0.8068085039370079
11
1.4704812598425197
21
0.8067782283464566
0
LINE
8
BLACK
6
CONTINUOUS
10
1.4704812598425197
20
0.8067782283464566
11
1.4707715354330708
21
0.8067122047244094
0
LINE
8
BLACK
6
CONTINUOUS
10
1.4707715354330708
20
0.8067122047244094
11
1.4758228346456692
21
0.8050284645669291
0
LINE
8
BLACK
6
CONTINUOUS
10
1.4758228346456692
20
0.8050284645669291
11
1.4758228346456692
21
0.8348661417322835
0
LINE
8
BLACK
6
CONTINUOUS
10
1.4758228346456692
20
0.8348661417322835
11
1.4698228346456692
21
0.8348661417322835
0
LINE
8
BLACK
6
CONTINUOUS
10
1.4698228346456692
20
0.8348661417322835
11
1.4692375590551181
21
0.834923779527559
0
LINE
8
BLACK
6
CONTINUOUS
10
1.4692375590551181
20
0.834923779527559
11
1.4681561417322835
21
0.8353717322834645
0
LINE
8
BLACK
6
CONTINUOUS
10
1.4681561417322835
20
0.8353717322834645
11
1.4673284251968504
21
0.8361994488188976
0
LINE
8
BLACK
6
CONTINUOUS
10
1.4673284251968504
20
0.8361994488188976
11
1.4668804724409448
21
0.8372808661417322
0
LINE
8
BLACK
6
CONTINUOUS
10
1.4668804724409448
20
0.8372808661417322
11
1.4668228346456693
21
0.8378661417322835
0
LINE
8
BLACK
6
CONTINUOUS
10
1.4668228346456693
20
0.8378661417322835
11
1.4668228346456693
21
0.8553661417322834
0
LINE
8
BLACK
6
CONTINUOUS
10
1.4668228346456693
20
0.8553661417322834
11
1.4343228346456693
21
0.8553661417322834
0
LINE
8
BLACK
6
CONTINUOUS
10
1.4343228346456693
20
0.8553661417322834
11
1.433737559055118
21
0.855423779527559
0
LINE
8
BLACK
6
CONTINUOUS
10
1.433737559055118
20
0.855423779527559
11
1.4326561417322834
21
0.8558717322834646
0
LINE
8
BLACK
6
CONTINUOUS
10
1.4326561417322834
20
0.8558717322834646
11
1.4318284251968503
21
0.8566994488188976
0
LINE
8
BLACK
6
CONTINUOUS
10
1.4318284251968503
20
0.8566994488188976
11
1.4313804724409449
21
0.8577808661417322
0
LINE
8
BLACK
6
CONTINUOUS
10
1.4313804724409449
20
0.8577808661417322
11
1.4313228346456692
21
0.8583661417322834
0
LINE
8
BLACK
6
CONTINUOUS
10
1.4313228346456692
20
0.8583661417322834
11
1.4313228346456692
21
0.8643661417322834
0
LINE
8
BLACK
6
CONTINUOUS
10
1.4313228346456692
20
0.8643661417322834
11
1.4033228346456692
21
0.8643661417322834
0
LINE
8
BLACK
6
CONTINUOUS
10
1.3381719291338583
20
0.8499939763779527
11
1.3387046062992125
21
0.8494612992125984
0
LINE
8
BLACK
6
CONTINUOUS
10
1.3387046062992125
20
0.8494612992125984
11
1.338779527559055
21
0.8490846456692913
0
LINE
8
BLACK
6
CONTINUOUS
10
1.338779527559055
20
0.8490846456692913
11
1.338779527559055
21
0.7916043307086614
0
LINE
8
BLACK
6
CONTINUOUS
10
1.338779527559055
20
0.7916043307086614
11
1.3387046062992125
21
0.7912276771653544
0
LINE
8
BLACK
6
CONTINUOUS
10
1.3387046062992125
20
0.7912276771653544
11
1.3381719291338583
21
0.790695
0
LINE
8
BLACK
6
CONTINUOUS
10
1.3381719291338583
20
0.790695
11
1.3377952755905511
21
0.7906200787401575
0
LINE
8
BLACK
6
CONTINUOUS
10
1.3377952755905511
20
0.7906200787401575
11
1.221259842519685
21
0.7906200787401575
0
LINE
8
BLACK
6
CONTINUOUS
10
1.221259842519685
20
0.7906200787401575
11
1.2208831889763778
21
0.790695
0
LINE
8
BLACK
6
CONTINUOUS
10
1.2208831889763778
20
0.790695
11
1.2203505118110236
21
0.7912276771653544
0
LINE
8
BLACK
6
CONTINUOUS
10
1.2203505118110236
20
0.7912276771653544
11
1.2202755905511811
21
0.7916043307086614
0
LINE
8
BLACK
6
CONTINUOUS
10
1.2202755905511811
20
0.7916043307086614
11
1.2202755905511811
21
0.8490846456692913
0
LINE
8
BLACK
6
CONTINUOUS
10
1.2202755905511811
20
0.8490846456692913
11
1.2203505118110236
21
0.8494612992125984
0
LINE
8
BLACK
6
CONTINUOUS
10
1.2203505118110236
20
0.8494612992125984
11
1.2208831889763778
21
0.8499939763779527
0
LINE
8
BLACK
6
CONTINUOUS
10
1.2208831889763778
20
0.8499939763779527
11
1.221259842519685
21
0.8500688976377953
0
LINE
8
BLACK
6
CONTINUOUS
10
1.221259842519685
20
0.8500688976377953
11
1.3377952755905511
21
0.8500688976377953
0
LINE
8
BLACK
6
CONTINUOUS
10
1.3377952755905511
20
0.8500688976377953
11
1.3381719291338583
21
0.8499939763779527
0
LINE
8
BLACK
6
CONTINUOUS
10
1.2222440944881889
20
0.8481003937007874
11
1.2222440944881889
21
0.7925885826771654
0
LINE
8
BLACK
6
CONTINUOUS
10
1.2222440944881889
20
0.7925885826771654
11
1.3368110236220472
21
0.7925885826771654
0
LINE
8
BLACK
6
CONTINUOUS
10
1.3368110236220472
20
0.7925885826771654
11
1.3368110236220472
21
0.8481003937007874
0
LINE
8
BLACK
6
CONTINUOUS
10
1.3368110236220472
20
0.8481003937007874
11
1.2222440944881889
21
0.8481003937007874
0
LINE
8
BLACK
6
CONTINUOUS
10
0.5405341338582677
20
0.9339801968503937
11
0.5410668110236221
21
0.9334475196850394
0
LINE
8
BLACK
6
CONTINUOUS
10
0.5410668110236221
20
0.9334475196850394
11
0.5411417322834645
21
0.9330708661417323
0
LINE
8
BLACK
6
CONTINUOUS
10
0.5411417322834645
20
0.9330708661417323
11
0.5411417322834645
21
0.7992125984251969
0
LINE
8
BLACK
6
CONTINUOUS
10
0.5411417322834645
20
0.7992125984251969
11
0.5410668110236221
21
0.7988359448818897
0
LINE
8
BLACK
6
CONTINUOUS
10
0.5410668110236221
20
0.7988359448818897
11
0.5405341338582677
21
0.7983032677165354
0
LINE
8
BLACK
6
CONTINUOUS
10
0.5405341338582677
20
0.7983032677165354
11
0.5401574803149606
21
0.7982283464566929
0
LINE
8
BLACK
6
CONTINUOUS
10
0.5401574803149606
20
0.7982283464566929
11
0.4629921259842519
21
0.7982283464566929
0
LINE
8
BLACK
6
CONTINUOUS
10
0.4629921259842519
20
0.7982283464566929
11
0.4626154724409449
21
0.7983032677165354
0
LINE
8
BLACK
6
CONTINUOUS
10
0.4626154724409449
20
0.7983032677165354
11
0.4620827952755905
21
0.7988359448818897
0
LINE
8
BLACK
6
CONTINUOUS
10
0.4620827952755905
20
0.7988359448818897
11
0.462007874015748
21
0.7992125984251969
0
LINE
8
BLACK
6
CONTINUOUS
10
0.462007874015748
20
0.7992125984251969
11
0.462007874015748
21
0.9330708661417323
0
LINE
8
BLACK
6
CONTINUOUS
10
0.462007874015748
20
0.9330708661417323
11
0.4620827952755905
21
0.9334475196850394
0
LINE
8
BLACK
6
CONTINUOUS
10
0.4620827952755905
20
0.9334475196850394
11
0.4626154724409449
21
0.9339801968503937
0
LINE
8
BLACK
6
CONTINUOUS
10
0.4626154724409449
20
0.9339801968503937
11
0.4629921259842519
21
0.9340551181102362
0
LINE
8
BLACK
6
CONTINUOUS
10
0.4629921259842519
20
0.9340551181102362
11
0.5401574803149606
21
0.9340551181102362
0
LINE
8
BLACK
6
CONTINUOUS
10
0.5401574803149606
20
0.9340551181102362
11
0.5405341338582677
21
0.9339801968503937
0
LINE
8
BLACK
6
CONTINUOUS
10
0.4639763779527559
20
0.9320866141732284
11
0.4639763779527559
21
0.8001968503937008
0
LINE
8
BLACK
6
CONTINUOUS
10
0.4639763779527559
20
0.8001968503937008
11
0.5391732283464566
21
0.8001968503937008
0
LINE
8
BLACK
6
CONTINUOUS
10
0.5391732283464566
20
0.8001968503937008
11
0.5391732283464566
21
0.9320866141732284
0
LINE
8
BLACK
6
CONTINUOUS
10
0.5391732283464566
20
0.9320866141732284
11
0.4639763779527559
21
0.9320866141732284
0
LINE
8
BLACK
6
CONTINUOUS
10
0.8539199606299213
20
1.0040589370078741
11
0.8544526377952756
21
1.0035262598425196
0
LINE
8
BLACK
6
CONTINUOUS
10
0.8544526377952756
20
1.0035262598425196
11
0.8545275590551181
21
1.0031496062992127
0
LINE
8
BLACK
6
CONTINUOUS
10
0.8545275590551181
20
1.0031496062992127
11
0.8545275590551181
21
0.8866141732283465
0
LINE
8
BLACK
6
CONTINUOUS
10
0.8545275590551181
20
0.8866141732283465
11
0.8544526377952756
21
0.8862375196850394
0
LINE
8
BLACK
6
CONTINUOUS
10
0.8544526377952756
20
0.8862375196850394
11
0.8539199606299213
21
0.8857048425196851
0
LINE
8
BLACK
6
CONTINUOUS
10
0.8539199606299213
20
0.8857048425196851
11
0.8535433070866142
21
0.8856299212598425
0
LINE
8
BLACK
6
CONTINUOUS
10
0.8535433070866142
20
0.8856299212598425
11
0.7960629921259842
21
0.8856299212598425
0
LINE
8
BLACK
6
CONTINUOUS
10
0.7960629921259842
20
0.8856299212598425
11
0.7956863385826771
21
0.8857048425196851
0
LINE
8
BLACK
6
CONTINUOUS
10
0.7956863385826771
20
0.8857048425196851
11
0.7954724409448819
21
0.8859187401574803
0
LINE
8
BLACK
6
CONTINUOUS
10
0.7954724409448819
20
0.8859187401574803
11
0.7954724409448819
21
0.8078740157480315
0
LINE
8
BLACK
6
CONTINUOUS
10
0.7954724409448819
20
0.8078740157480315
11
0.7953975196850394
21
0.8074973622047243
0
LINE
8
BLACK
6
CONTINUOUS
10
0.7953975196850394
20
0.8074973622047243
11
0.794864842519685
21
0.80696468503937
0
LINE
8
BLACK
6
CONTINUOUS
10
0.794864842519685
20
0.80696468503937
11
0.794488188976378
21
0.8068897637795276
0
LINE
8
BLACK
6
CONTINUOUS
10
0.794488188976378
20
0.8068897637795276
11
0.737007874015748
21
0.8068897637795276
0
LINE
8
BLACK
6
CONTINUOUS
10
0.737007874015748
20
0.8068897637795276
11
0.7366312204724409
21
0.80696468503937
0
LINE
8
BLACK
6
CONTINUOUS
10
0.7366312204724409
20
0.80696468503937
11
0.7360985433070866
21
0.8074973622047243
0
LINE
8
BLACK
6
CONTINUOUS
10
0.7360985433070866
20
0.8074973622047243
11
0.736023622047244
21
0.8078740157480315
0
LINE
8
BLACK
6
CONTINUOUS
10
0.736023622047244
20
0.8078740157480315
11
0.736023622047244
21
0.9244094488188976
0
LINE
8
BLACK
6
CONTINUOUS
10
0.736023622047244
20
0.9244094488188976
11
0.7360985433070866
21
0.9247861023622047
0
LINE
8
BLACK
6
CONTINUOUS
10
0.7360985433070866
20
0.9247861023622047
11
0.7366312204724409
21
0.925318779527559
0
LINE
8
BLACK
6
CONTINUOUS
10
0.7366312204724409
20
0.925318779527559
11
0.737007874015748
21
0.9253937007874016
0
LINE
8
BLACK
6
CONTINUOUS
10
0.737007874015748
20
0.9253937007874016
11
0.794488188976378
21
0.9253937007874016
0
LINE
8
BLACK
6
CONTINUOUS
10
0.794488188976378
20
0.9253937007874016
11
0.794864842519685
21
0.925318779527559
0
LINE
8
BLACK
6
CONTINUOUS
10
0.794864842519685
20
0.925318779527559
11
0.7950787401574803
21
0.9251048818897638
0
LINE
8
BLACK
6
CONTINUOUS
10
0.7950787401574803
20
0.9251048818897638
11
0.7950787401574803
21
1.0031496062992127
0
LINE
8
BLACK
6
CONTINUOUS
10
0.7950787401574803
20
1.0031496062992127
11
0.7951536614173228
21
1.0035262598425196
0
LINE
8
BLACK
6
CONTINUOUS
10
0.7951536614173228
20
1.0035262598425196
11
0.7956863385826771
21
1.0040589370078741
0
LINE
8
BLACK
6
CONTINUOUS
10
0.7956863385826771
20
1.0040589370078741
11
0.7960629921259842
21
1.0041338582677166
0
LINE
8
BLACK
6
CONTINUOUS
10
0.7960629921259842
20
1.0041338582677166
11
0.8535433070866142
21
1.0041338582677166
0
LINE
8
BLACK
6
CONTINUOUS
10
0.8535433070866142
20
1.0041338582677166
11
0.8539199606299213
21
1.0040589370078741
0
LINE
8
BLACK
6
CONTINUOUS
10
0.7379921259842519
20
0.9234251968503937
11
0.7379921259842519
21
0.8088582677165355
0
LINE
8
BLACK
6
CONTINUOUS
10
0.7379921259842519
20
0.8088582677165355
11
0.793503937007874
21
0.8088582677165355
0
LINE
8
BLACK
6
CONTINUOUS
10
0.793503937007874
20
0.8088582677165355
11
0.793503937007874
21
0.9234251968503937
0
LINE
8
BLACK
6
CONTINUOUS
10
0.793503937007874
20
0.9234251968503937
11
0.7379921259842519
21
0.9234251968503937
0
LINE
8
BLACK
6
CONTINUOUS
10
0.7970472440944881
20
1.0021653543307087
11
0.7970472440944881
21
0.8875984251968504
0
LINE
8
BLACK
6
CONTINUOUS
10
0.7970472440944881
20
0.8875984251968504
11
0.8525590551181103
21
0.8875984251968504
0
LINE
8
BLACK
6
CONTINUOUS
10
0.8525590551181103
20
0.8875984251968504
11
0.8525590551181103
21
1.0021653543307087
0
LINE
8
BLACK
6
CONTINUOUS
10
0.8525590551181103
20
1.0021653543307087
11
0.7970472440944881
21
1.0021653543307087
0
LINE
8
BLACK
6
CONTINUOUS
10
0.6787231102362205
20
0.9568148425196851
11
0.6792557874015748
21
0.9562821653543306
0
LINE
8
BLACK
6
CONTINUOUS
10
0.6792557874015748
20
0.9562821653543306
11
0.6793307086614173
21
0.9559055118110236
0
LINE
8
BLACK
6
CONTINUOUS
10
0.6793307086614173
20
0.9559055118110236
11
0.6793307086614173
21
0.8393700787401575
0
LINE
8
BLACK
6
CONTINUOUS
10
0.6793307086614173
20
0.8393700787401575
11
0.6792557874015748
21
0.8389934251968504
0
LINE
8
BLACK
6
CONTINUOUS
10
0.6792557874015748
20
0.8389934251968504
11
0.6787231102362205
21
0.8384607480314961
0
LINE
8
BLACK
6
CONTINUOUS
10
0.6787231102362205
20
0.8384607480314961
11
0.6783464566929134
21
0.8383858267716535
0
LINE
8
BLACK
6
CONTINUOUS
10
0.6783464566929134
20
0.8383858267716535
11
0.6208661417322835
21
0.8383858267716535
0
LINE
8
BLACK
6
CONTINUOUS
10
0.6208661417322835
20
0.8383858267716535
11
0.6204894881889763
21
0.8384607480314961
0
LINE
8
BLACK
6
CONTINUOUS
10
0.6204894881889763
20
0.8384607480314961
11
0.619956811023622
21
0.8389934251968504
0
LINE
8
BLACK
6
CONTINUOUS
10
0.619956811023622
20
0.8389934251968504
11
0.6198818897637796
21
0.8393700787401575
0
LINE
8
BLACK
6
CONTINUOUS
10
0.6198818897637796
20
0.8393700787401575
11
0.6198818897637796
21
0.9559055118110236
0
LINE
8
BLACK
6
CONTINUOUS
10
0.6198818897637796
20
0.9559055118110236
11
0.619956811023622
21
0.9562821653543306
0
LINE
8
BLACK
6
CONTINUOUS
10
0.619956811023622
20
0.9562821653543306
11
0.6204894881889763
21
0.9568148425196851
0
LINE
8
BLACK
6
CONTINUOUS
10
0.6204894881889763
20
0.9568148425196851
11
0.6208661417322835
21
0.9568897637795275
0
LINE
8
BLACK
6
CONTINUOUS
10
0.6208661417322835
20
0.9568897637795275
11
0.6783464566929134
21
0.9568897637795275
0
LINE
8
BLACK
6
CONTINUOUS
10
0.6783464566929134
20
0.9568897637795275
11
0.6787231102362205
21
0.9568148425196851
0
LINE
8
BLACK
6
CONTINUOUS
10
0.6218503937007874
20
0.9549212598425196
11
0.6218503937007874
21
0.8403543307086614
0
LINE
8
BLACK
6
CONTINUOUS
10
0.6218503937007874
20
0.8403543307086614
11
0.6773622047244094
21
0.8403543307086614
0
LINE
8
BLACK
6
CONTINUOUS
10
0.6773622047244094
20
0.8403543307086614
11
0.6773622047244094
21
0.9549212598425196
0
LINE
8
BLACK
6
CONTINUOUS
10
0.6773622047244094
20
0.9549212598425196
11
0.6218503937007874
21
0.9549212598425196
0
LINE
8
BLACK
6
CONTINUOUS
10
0.6176994881889764
20
0.957799094488189
11
0.6182321653543307
21
0.9572664173228346
0
LINE
8
BLACK
6
CONTINUOUS
10
0.6182321653543307
20
0.9572664173228346
11
0.6183070866141732
21
0.9568897637795275
0
LINE
8
BLACK
6
CONTINUOUS
10
0.6183070866141732
20
0.9568897637795275
11
0.6183070866141732
21
0.8403543307086614
0
LINE
8
BLACK
6
CONTINUOUS
10
0.6183070866141732
20
0.8403543307086614
11
0.6182321653543307
21
0.8399776771653543
0
LINE
8
BLACK
6
CONTINUOUS
10
0.6182321653543307
20
0.8399776771653543
11
0.6176994881889764
21
0.839445
0
LINE
8
BLACK
6
CONTINUOUS
10
0.6176994881889764
20
0.839445
11
0.6173228346456693
21
0.8393700787401575
0
LINE
8
BLACK
6
CONTINUOUS
10
0.6173228346456693
20
0.8393700787401575
11
0.5598425196850394
21
0.8393700787401575
0
LINE
8
BLACK
6
CONTINUOUS
10
0.5598425196850394
20
0.8393700787401575
11
0.5594658661417322
21
0.839445
0
LINE
8
BLACK
6
CONTINUOUS
10
0.5594658661417322
20
0.839445
11
0.5589331889763779
21
0.8399776771653543
0
LINE
8
BLACK
6
CONTINUOUS
10
0.5589331889763779
20
0.8399776771653543
11
0.5588582677165355
21
0.8403543307086614
0
LINE
8
BLACK
6
CONTINUOUS
10
0.5588582677165355
20
0.8403543307086614
11
0.5588582677165355
21
0.9568897637795275
0
LINE
8
BLACK
6
CONTINUOUS
10
0.5588582677165355
20
0.9568897637795275
11
0.5589331889763779
21
0.9572664173228346
0
LINE
8
BLACK
6
CONTINUOUS
10
0.5589331889763779
20
0.9572664173228346
11
0.5594658661417322
21
0.957799094488189
0
LINE
8
BLACK
6
CONTINUOUS
10
0.5594658661417322
20
0.957799094488189
11
0.5598425196850394
21
0.9578740157480314
0
LINE
8
BLACK
6
CONTINUOUS
10
0.5598425196850394
20
0.9578740157480314
11
0.6173228346456693
21
0.9578740157480314
0
LINE
8
BLACK
6
CONTINUOUS
10
0.6173228346456693
20
0.9578740157480314
11
0.6176994881889764
21
0.957799094488189
0
LINE
8
BLACK
6
CONTINUOUS
10
0.5608267716535433
20
0.9559055118110236
11
0.5608267716535433
21
0.8413385826771653
0
LINE
8
BLACK
6
CONTINUOUS
10
0.5608267716535433
20
0.8413385826771653
11
0.6163385826771653
21
0.8413385826771653
0
LINE
8
BLACK
6
CONTINUOUS
10
0.6163385826771653
20
0.8413385826771653
11
0.6163385826771653
21
0.9559055118110236
0
LINE
8
BLACK
6
CONTINUOUS
10
0.6163385826771653
20
0.9559055118110236
11
0.5608267716535433
21
0.9559055118110236
0
LINE
8
BLACK
6
CONTINUOUS
10
1.3352191732283465
20
0.9351612992125984
11
1.3357518503937007
21
0.9346286220472441
0
LINE
8
BLACK
6
CONTINUOUS
10
1.3357518503937007
20
0.9346286220472441
11
1.3358267716535432
21
0.934251968503937
0
LINE
8
BLACK
6
CONTINUOUS
10
1.3358267716535432
20
0.934251968503937
11
1.3358267716535432
21
0.8767716535433071
0
LINE
8
BLACK
6
CONTINUOUS
10
1.3358267716535432
20
0.8767716535433071
11
1.3357518503937007
21
0.876395
0
LINE
8
BLACK
6
CONTINUOUS
10
1.3357518503937007
20
0.876395
11
1.3352191732283465
21
0.8758623228346456
0
LINE
8
BLACK
6
CONTINUOUS
10
1.3352191732283465
20
0.8758623228346456
11
1.3348425196850393
21
0.8757874015748032
0
LINE
8
BLACK
6
CONTINUOUS
10
1.3348425196850393
20
0.8757874015748032
11
1.2183070866141732
21
0.8757874015748032
0
LINE
8
BLACK
6
CONTINUOUS
10
1.2183070866141732
20
0.8757874015748032
11
1.217930433070866
21
0.8758623228346456
0
LINE
8
BLACK
6
CONTINUOUS
10
1.217930433070866
20
0.8758623228346456
11
1.2173977559055118
21
0.876395
0
LINE
8
BLACK
6
CONTINUOUS
10
1.2173977559055118
20
0.876395
11
1.2173228346456693
21
0.8767716535433071
0
LINE
8
BLACK
6
CONTINUOUS
10
1.2173228346456693
20
0.8767716535433071
11
1.2173228346456693
21
0.934251968503937
0
LINE
8
BLACK
6
CONTINUOUS
10
1.2173228346456693
20
0.934251968503937
11
1.2173977559055118
21
0.9346286220472441
0
LINE
8
BLACK
6
CONTINUOUS
10
1.2173977559055118
20
0.9346286220472441
11
1.217930433070866
21
0.9351612992125984
0
LINE
8
BLACK
6
CONTINUOUS
10
1.217930433070866
20
0.9351612992125984
11
1.2183070866141732
21
0.9352362204724409
0
LINE
8
BLACK
6
CONTINUOUS
10
1.2183070866141732
20
0.9352362204724409
11
1.3348425196850393
21
0.9352362204724409
0
LINE
8
BLACK
6
CONTINUOUS
10
1.3348425196850393
20
0.9352362204724409
11
1.3352191732283465
21
0.9351612992125984
0
LINE
8
BLACK
6
CONTINUOUS
10
1.2192913385826771
20
0.9332677165354331
11
1.2192913385826771
21
0.877755905511811
0
LINE
8
BLACK
6
CONTINUOUS
10
1.2192913385826771
20
0.877755905511811
11
1.3338582677165354
21
0.877755905511811
0
LINE
8
BLACK
6
CONTINUOUS
10
1.3338582677165354
20
0.877755905511811
11
1.3338582677165354
21
0.9332677165354331
0
LINE
8
BLACK
6
CONTINUOUS
10
1.3338582677165354
20
0.9332677165354331
11
1.2192913385826771
21
0.9332677165354331
0
LINE
8
BLACK
6
CONTINUOUS
10
1.0515577559055118
20
1.0402794094488188
11
1.052090433070866
21
1.0397467322834646
0
LINE
8
BLACK
6
CONTINUOUS
10
1.052090433070866
20
1.0397467322834646
11
1.0521653543307086
21
1.0393700787401574
0
LINE
8
BLACK
6
CONTINUOUS
10
1.0521653543307086
20
1.0393700787401574
11
1.0521653543307086
21
0.9291338582677166
0
LINE
8
BLACK
6
CONTINUOUS
10
1.0521653543307086
20
0.9291338582677166
11
1.052090433070866
21
0.9287572047244095
0
LINE
8
BLACK
6
CONTINUOUS
10
1.052090433070866
20
0.9287572047244095
11
1.0515577559055118
21
0.928224527559055
0
LINE
8
BLACK
6
CONTINUOUS
10
1.0515577559055118
20
0.928224527559055
11
1.0511811023622046
21
0.9281496062992126
0
LINE
8
BLACK
6
CONTINUOUS
10
1.0511811023622046
20
0.9281496062992126
11
0.9173228346456692
21
0.9281496062992126
0
LINE
8
BLACK
6
CONTINUOUS
10
0.9173228346456692
20
0.9281496062992126
11
0.9169461811023621
21
0.928224527559055
0
LINE
8
BLACK
6
CONTINUOUS
10
0.9169461811023621
20
0.928224527559055
11
0.9164135039370078
21
0.9287572047244095
0
LINE
8
BLACK
6
CONTINUOUS
10
0.9164135039370078
20
0.9287572047244095
11
0.9163385826771653
21
0.9291338582677166
0
LINE
8
BLACK
6
CONTINUOUS
10
0.9163385826771653
20
0.9291338582677166
11
0.9163385826771653
21
1.0393700787401574
0
LINE
8
BLACK
6
CONTINUOUS
10
0.9163385826771653
20
1.0393700787401574
11
0.9164135039370078
21
1.0397467322834646
0
LINE
8
BLACK
6
CONTINUOUS
10
0.9164135039370078
20
1.0397467322834646
11
0.9169461811023621
21
1.0402794094488188
0
LINE
8
BLACK
6
CONTINUOUS
10
0.9169461811023621
20
1.0402794094488188
11
0.9173228346456692
21
1.0403543307086613
0
LINE
8
BLACK
6
CONTINUOUS
10
0.9173228346456692
20
1.0403543307086613
11
1.0511811023622046
21
1.0403543307086613
0
LINE
8
BLACK
6
CONTINUOUS
10
1.0511811023622046
20
1.0403543307086613
11
1.0515577559055118
21
1.0402794094488188
0
LINE
8
BLACK
6
CONTINUOUS
10
0.9183070866141733
20
1.0383858267716535
11
0.9183070866141733
21
0.9301181102362205
0
LINE
8
BLACK
6
CONTINUOUS
10
0.9183070866141733
20
0.9301181102362205
11
1.0501968503937007
21
0.9301181102362205
0
LINE
8
BLACK
6
CONTINUOUS
10
1.0501968503937007
20
0.9301181102362205
11
1.0501968503937007
21
1.0383858267716535
0
LINE
8
BLACK
6
CONTINUOUS
10
1.0501968503937007
20
1.0383858267716535
11
0.9183070866141733
21
1.0383858267716535
0
LINE
8
BLACK
6
CONTINUOUS
10
1.1314790157480314
20
1.0631140551181102
11
1.1320116929133859
21
1.062581377952756
0
LINE
8
BLACK
6
CONTINUOUS
10
1.1320116929133859
20
1.062581377952756
11
1.1320866141732284
21
1.0622047244094488
0
LINE
8
BLACK
6
CONTINUOUS
10
1.1320866141732284
20
1.0622047244094488
11
1.1320866141732284
21
0.9456692913385827
0
LINE
8
BLACK
6
CONTINUOUS
10
1.1320866141732284
20
0.9456692913385827
11
1.1320116929133859
21
0.9452926377952756
0
LINE
8
BLACK
6
CONTINUOUS
10
1.1320116929133859
20
0.9452926377952756
11
1.1314790157480314
21
0.9447599606299213
0
LINE
8
BLACK
6
CONTINUOUS
10
1.1314790157480314
20
0.9447599606299213
11
1.1311023622047245
21
0.9446850393700787
0
LINE
8
BLACK
6
CONTINUOUS
10
1.1311023622047245
20
0.9446850393700787
11
1.0736220472440945
21
0.9446850393700787
0
LINE
8
BLACK
6
CONTINUOUS
10
1.0736220472440945
20
0.9446850393700787
11
1.0732453937007873
21
0.9447599606299213
0
LINE
8
BLACK
6
CONTINUOUS
10
1.0732453937007873
20
0.9447599606299213
11
1.0727127165354331
21
0.9452926377952756
0
LINE
8
BLACK
6
CONTINUOUS
10
1.0727127165354331
20
0.9452926377952756
11
1.0726377952755906
21
0.9456692913385827
0
LINE
8
BLACK
6
CONTINUOUS
10
1.0726377952755906
20
0.9456692913385827
11
1.0726377952755906
21
1.0622047244094488
0
LINE
8
BLACK
6
CONTINUOUS
10
1.0726377952755906
20
1.0622047244094488
11
1.0727127165354331
21
1.062581377952756
0
LINE
8
BLACK
6
CONTINUOUS
10
1.0727127165354331
20
1.062581377952756
11
1.0732453937007873
21
1.0631140551181102
0
LINE
8
BLACK
6
CONTINUOUS
10
1.0732453937007873
20
1.0631140551181102
11
1.0736220472440945
21
1.0631889763779527
0
LINE
8
BLACK
6
CONTINUOUS
10
1.0736220472440945
20
1.0631889763779527
11
1.1311023622047245
21
1.0631889763779527
0
LINE
8
BLACK
6
CONTINUOUS
10
1.1311023622047245
20
1.0631889763779527
11
1.1314790157480314
21
1.0631140551181102
0
LINE
8
BLACK
6
CONTINUOUS
10
1.0746062992125984
20
1.0612204724409449
11
1.0746062992125984
21
0.9466535433070866
0
LINE
8
BLACK
6
CONTINUOUS
10
1.0746062992125984
20
0.9466535433070866
11
1.1301181102362206
21
0.9466535433070866
0
LINE
8
BLACK
6
CONTINUOUS
10
1.1301181102362206
20
0.9466535433070866
11
1.1301181102362206
21
1.0612204724409449
0
LINE
8
BLACK
6
CONTINUOUS
10
1.1301181102362206
20
1.0612204724409449
11
1.0746062992125984
21
1.0612204724409449
0
LINE
8
BLACK
6
CONTINUOUS
10
1.2102191732283465
20
1.0631140551181102
11
1.2107518503937007
21
1.062581377952756
0
LINE
8
BLACK
6
CONTINUOUS
10
1.2107518503937007
20
1.062581377952756
11
1.2108267716535432
21
1.0622047244094488
0
LINE
8
BLACK
6
CONTINUOUS
10
1.2108267716535432
20
1.0622047244094488
11
1.2108267716535432
21
0.9456692913385827
0
LINE
8
BLACK
6
CONTINUOUS
10
1.2108267716535432
20
0.9456692913385827
11
1.2107518503937007
21
0.9452926377952756
0
LINE
8
BLACK
6
CONTINUOUS
10
1.2107518503937007
20
0.9452926377952756
11
1.2102191732283465
21
0.9447599606299213
0
LINE
8
BLACK
6
CONTINUOUS
10
1.2102191732283465
20
0.9447599606299213
11
1.2098425196850393
21
0.9446850393700787
0
LINE
8
BLACK
6
CONTINUOUS
10
1.2098425196850393
20
0.9446850393700787
11
1.1523622047244095
21
0.9446850393700787
0
LINE
8
BLACK
6
CONTINUOUS
10
1.1523622047244095
20
0.9446850393700787
11
1.1519855511811024
21
0.9447599606299213
0
LINE
8
BLACK
6
CONTINUOUS
10
1.1519855511811024
20
0.9447599606299213
11
1.1514528740157479
21
0.9452926377952756
0
LINE
8
BLACK
6
CONTINUOUS
10
1.1514528740157479
20
0.9452926377952756
11
1.1513779527559054
21
0.9456692913385827
0
LINE
8
BLACK
6
CONTINUOUS
10
1.1513779527559054
20
0.9456692913385827
11
1.1513779527559054
21
1.0622047244094488
0
LINE
8
BLACK
6
CONTINUOUS
10
1.1513779527559054
20
1.0622047244094488
11
1.1514528740157479
21
1.062581377952756
0
LINE
8
BLACK
6
CONTINUOUS
10
1.1514528740157479
20
1.062581377952756
11
1.1519855511811024
21
1.0631140551181102
0
LINE
8
BLACK
6
CONTINUOUS
10
1.1519855511811024
20
1.0631140551181102
11
1.1523622047244095
21
1.0631889763779527
0
LINE
8
BLACK
6
CONTINUOUS
10
1.1523622047244095
20
1.0631889763779527
11
1.2098425196850393
21
1.0631889763779527
0
LINE
8
BLACK
6
CONTINUOUS
10
1.2098425196850393
20
1.0631889763779527
11
1.2102191732283465
21
1.0631140551181102
0
LINE
8
BLACK
6
CONTINUOUS
10
1.1533464566929135
20
1.0612204724409449
11
1.1533464566929135
21
0.9466535433070866
0
LINE
8
BLACK
6
CONTINUOUS
10
1.1533464566929135
20
0.9466535433070866
11
1.2088582677165354
21
0.9466535433070866
0
LINE
8
BLACK
6
CONTINUOUS
10
1.2088582677165354
20
0.9466535433070866
11
1.2088582677165354
21
1.0612204724409449
0
LINE
8
BLACK
6
CONTINUOUS
10
1.2088582677165354
20
1.0612204724409449
11
1.1533464566929135
21
1.0612204724409449
0
LINE
8
BLACK
6
CONTINUOUS
10
1.2771483070866141
20
1.0631140551181102
11
1.2776809842519685
21
1.062581377952756
0
LINE
8
BLACK
6
CONTINUOUS
10
1.2776809842519685
20
1.062581377952756
11
1.2777559055118111
21
1.0622047244094488
0
LINE
8
BLACK
6
CONTINUOUS
10
1.2777559055118111
20
1.0622047244094488
11
1.2777559055118111
21
0.9456692913385827
0
LINE
8
BLACK
6
CONTINUOUS
10
1.2777559055118111
20
0.9456692913385827
11
1.2776809842519685
21
0.9452926377952756
0
LINE
8
BLACK
6
CONTINUOUS
10
1.2776809842519685
20
0.9452926377952756
11
1.2771483070866141
21
0.9447599606299213
0
LINE
8
BLACK
6
CONTINUOUS
10
1.2771483070866141
20
0.9447599606299213
11
1.2767716535433071
21
0.9446850393700787
0
LINE
8
BLACK
6
CONTINUOUS
10
1.2767716535433071
20
0.9446850393700787
11
1.2192913385826771
21
0.9446850393700787
0
LINE
8
BLACK
6
CONTINUOUS
10
1.2192913385826771
20
0.9446850393700787
11
1.2189146850393699
21
0.9447599606299213
0
LINE
8
BLACK
6
CONTINUOUS
10
1.2189146850393699
20
0.9447599606299213
11
1.2183820078740157
21
0.9452926377952756
0
LINE
8
BLACK
6
CONTINUOUS
10
1.2183820078740157
20
0.9452926377952756
11
1.2183070866141732
21
0.9456692913385827
0
LINE
8
BLACK
6
CONTINUOUS
10
1.2183070866141732
20
0.9456692913385827
11
1.2183070866141732
21
1.0622047244094488
0
LINE
8
BLACK
6
CONTINUOUS
10
1.2183070866141732
20
1.0622047244094488
11
1.2183820078740157
21
1.062581377952756
0
LINE
8
BLACK
6
CONTINUOUS
10
1.2183820078740157
20
1.062581377952756
11
1.2189146850393699
21
1.0631140551181102
0
LINE
8
BLACK
6
CONTINUOUS
10
1.2189146850393699
20
1.0631140551181102
11
1.2192913385826771
21
1.0631889763779527
0
LINE
8
BLACK
6
CONTINUOUS
10
1.2192913385826771
20
1.0631889763779527
11
1.2767716535433071
21
1.0631889763779527
0
LINE
8
BLACK
6
CONTINUOUS
10
1.2767716535433071
20
1.0631889763779527
11
1.2771483070866141
21
1.0631140551181102
0
LINE
8
BLACK
6
CONTINUOUS
10
1.2202755905511811
20
1.0612204724409449
11
1.2202755905511811
21
0.9466535433070866
0
LINE
8
BLACK
6
CONTINUOUS
10
1.2202755905511811
20
0.9466535433070866
11
1.2757874015748032
21
0.9466535433070866
0
LINE
8
BLACK
6
CONTINUOUS
10
1.2757874015748032
20
0.9466535433070866
11
1.2757874015748032
21
1.0612204724409449
0
LINE
8
BLACK
6
CONTINUOUS
10
1.2757874015748032
20
1.0612204724409449
11
1.2202755905511811
21
1.0612204724409449
0
LINE
8
BLACK
6
CONTINUOUS
10
0.420849094488189
20
1.0481534251968503
11
0.4213817716535433
21
1.0476207480314961
0
LINE
8
BLACK
6
CONTINUOUS
10
0.4213817716535433
20
1.0476207480314961
11
0.4214566929133858
21
1.0472440944881889
0
LINE
8
BLACK
6
CONTINUOUS
10
0.4214566929133858
20
1.0472440944881889
11
0.4214566929133858
21
0.9724409448818897
0
LINE
8
BLACK
6
CONTINUOUS
10
0.4214566929133858
20
0.9724409448818897
11
0.4213817716535433
21
0.9720642913385826
0
LINE
8
BLACK
6
CONTINUOUS
10
0.4213817716535433
20
0.9720642913385826
11
0.420849094488189
21
0.9715316141732283
0
LINE
8
BLACK
6
CONTINUOUS
10
0.420849094488189
20
0.9715316141732283
11
0.4204724409448819
21
0.9714566929133858
0
LINE
8
BLACK
6
CONTINUOUS
10
0.4204724409448819
20
0.9714566929133858
11
0.2881889763779528
21
0.9714566929133858
0
LINE
8
BLACK
6
CONTINUOUS
10
0.2881889763779528
20
0.9714566929133858
11
0.2878123228346456
21
0.9715316141732283
0
LINE
8
BLACK
6
CONTINUOUS
10
0.2878123228346456
20
0.9715316141732283
11
0.2872796456692913
21
0.9720642913385826
0
LINE
8
BLACK
6
CONTINUOUS
10
0.2872796456692913
20
0.9720642913385826
11
0.2872047244094488
21
0.9724409448818897
0
LINE
8
BLACK
6
CONTINUOUS
10
0.2872047244094488
20
0.9724409448818897
11
0.2872047244094488
21
1.0472440944881889
0
LINE
8
BLACK
6
CONTINUOUS
10
0.2872047244094488
20
1.0472440944881889
11
0.2872796456692913
21
1.0476207480314961
0
LINE
8
BLACK
6
CONTINUOUS
10
0.2872796456692913
20
1.0476207480314961
11
0.2878123228346456
21
1.0481534251968503
0
LINE
8
BLACK
6
CONTINUOUS
10
0.2878123228346456
20
1.0481534251968503
11
0.2881889763779528
21
1.0482283464566928
0
LINE
8
BLACK
6
CONTINUOUS
10
0.2881889763779528
20
1.0482283464566928
11
0.4204724409448819
21
1.0482283464566928
0
LINE
8
BLACK
6
CONTINUOUS
10
0.4204724409448819
20
1.0482283464566928
11
0.420849094488189
21
1.0481534251968503
0
LINE
8
BLACK
6
CONTINUOUS
10
0.2891732283464567
20
1.046259842519685
11
0.2891732283464567
21
0.9734251968503936
0
LINE
8
BLACK
6
CONTINUOUS
10
0.2891732283464567
20
0.9734251968503936
11
0.419488188976378
21
0.9734251968503936
0
LINE
8
BLACK
6
CONTINUOUS
10
0.419488188976378
20
0.9734251968503936
11
0.419488188976378
21
1.046259842519685
0
LINE
8
BLACK
6
CONTINUOUS
10
0.419488188976378
20
1.046259842519685
11
0.2891732283464567
21
1.046259842519685
0
LINE
8
BLACK
6
CONTINUOUS
10
0.9090380708661417
20
1.1320116929133859
11
0.9095707480314961
21
1.1314790157480314
0
LINE
8
BLACK
6
CONTINUOUS
10
0.9095707480314961
20
1.1314790157480314
11
0.9096456692913386
21
1.1311023622047245
0
LINE
8
BLACK
6
CONTINUOUS
10
0.9096456692913386
20
1.1311023622047245
11
0.9096456692913386
21
1.0145669291338582
0
LINE
8
BLACK
6
CONTINUOUS
10
0.9096456692913386
20
1.0145669291338582
11
0.9095707480314961
21
1.0141902755905512
0
LINE
8
BLACK
6
CONTINUOUS
10
0.9095707480314961
20
1.0141902755905512
11
0.9090380708661417
21
1.0136575984251968
0
LINE
8
BLACK
6
CONTINUOUS
10
0.9090380708661417
20
1.0136575984251968
11
0.9086614173228347
21
1.0135826771653542
0
LINE
8
BLACK
6
CONTINUOUS
10
0.9086614173228347
20
1.0135826771653542
11
0.8511811023622047
21
1.0135826771653542
0
LINE
8
BLACK
6
CONTINUOUS
10
0.8511811023622047
20
1.0135826771653542
11
0.8508044488188976
21
1.0136575984251968
0
LINE
8
BLACK
6
CONTINUOUS
10
0.8508044488188976
20
1.0136575984251968
11
0.8502717716535433
21
1.0141902755905512
0
LINE
8
BLACK
6
CONTINUOUS
10
0.8502717716535433
20
1.0141902755905512
11
0.8501968503937007
21
1.0145669291338582
0
LINE
8
BLACK
6
CONTINUOUS
10
0.8501968503937007
20
1.0145669291338582
11
0.8501968503937007
21
1.1311023622047245
0
LINE
8
BLACK
6
CONTINUOUS
10
0.8501968503937007
20
1.1311023622047245
11
0.8502717716535433
21
1.1314790157480314
0
LINE
8
BLACK
6
CONTINUOUS
10
0.8502717716535433
20
1.1314790157480314
11
0.8508044488188976
21
1.1320116929133859
0
LINE
8
BLACK
6
CONTINUOUS
10
0.8508044488188976
20
1.1320116929133859
11
0.8511811023622047
21
1.1320866141732284
0
LINE
8
BLACK
6
CONTINUOUS
10
0.8511811023622047
20
1.1320866141732284
11
0.9086614173228347
21
1.1320866141732284
0
LINE
8
BLACK
6
CONTINUOUS
10
0.9086614173228347
20
1.1320866141732284
11
0.9090380708661417
21
1.1320116929133859
0
LINE
8
BLACK
6
CONTINUOUS
10
0.8521653543307086
20
1.1301181102362206
11
0.8521653543307086
21
1.0155511811023621
0
LINE
8
BLACK
6
CONTINUOUS
10
0.8521653543307086
20
1.0155511811023621
11
0.9076771653543307
21
1.0155511811023621
0
LINE
8
BLACK
6
CONTINUOUS
10
0.9076771653543307
20
1.0155511811023621
11
0.9076771653543307
21
1.1301181102362206
0
LINE
8
BLACK
6
CONTINUOUS
10
0.9076771653543307
20
1.1301181102362206
11
0.8521653543307086
21
1.1301181102362206
0
LINE
8
BLACK
6
CONTINUOUS
10
0.813368779527559
20
1.3335864960629922
11
0.8139014566929134
21
1.3330538188976377
0
LINE
8
BLACK
6
CONTINUOUS
10
0.8139014566929134
20
1.3330538188976377
11
0.8139763779527559
21
1.3326771653543308
0
LINE
8
BLACK
6
CONTINUOUS
10
0.8139763779527559
20
1.3326771653543308
11
0.8139763779527559
21
1.2785433070866141
0
LINE
8
BLACK
6
CONTINUOUS
10
0.8139763779527559
20
1.2785433070866141
11
0.8267716535433071
21
1.2785433070866141
0
LINE
8
BLACK
6
CONTINUOUS
10
0.8267716535433071
20
1.2785433070866141
11
0.8271483070866141
21
1.2784683858267716
0
LINE
8
BLACK
6
CONTINUOUS
10
0.8271483070866141
20
1.2784683858267716
11
0.8276809842519685
21
1.2779357086614174
0
LINE
8
BLACK
6
CONTINUOUS
10
0.8276809842519685
20
1.2779357086614174
11
0.827755905511811
21
1.2775590551181102
0
LINE
8
BLACK
6
CONTINUOUS
10
0.827755905511811
20
1.2775590551181102
11
0.827755905511811
21
1.0846456692913387
0
LINE
8
BLACK
6
CONTINUOUS
10
0.827755905511811
20
1.0846456692913387
11
0.8276809842519685
21
1.0842690157480315
0
LINE
8
BLACK
6
CONTINUOUS
10
0.8276809842519685
20
1.0842690157480315
11
0.8271483070866141
21
1.083736338582677
0
LINE
8
BLACK
6
CONTINUOUS
10
0.8271483070866141
20
1.083736338582677
11
0.8267716535433071
21
1.0836614173228347
0
LINE
8
BLACK
6
CONTINUOUS
10
0.8267716535433071
20
1.0836614173228347
11
0.8139763779527559
21
1.0836614173228347
0
LINE
8
BLACK
6
CONTINUOUS
10
0.8139763779527559
20
1.0836614173228347
11
0.8139763779527559
21
1.0295275590551181
0
LINE
8
BLACK
6
CONTINUOUS
10
0.8139763779527559
20
1.0295275590551181
11
0.8139014566929134
21
1.0291509055118111
0
LINE
8
BLACK
6
CONTINUOUS
10
0.8139014566929134
20
1.0291509055118111
11
0.813368779527559
21
1.0286182283464567
0
LINE
8
BLACK
6
CONTINUOUS
10
0.813368779527559
20
1.0286182283464567
11
0.812992125984252
21
1.0285433070866141
0
LINE
8
BLACK
6
CONTINUOUS
10
0.812992125984252
20
1.0285433070866141
11
0.6240157480314961
21
1.0285433070866141
0
LINE
8
BLACK
6
CONTINUOUS
10
0.6240157480314961
20
1.0285433070866141
11
0.623639094488189
21
1.0286182283464567
0
LINE
8
BLACK
6
CONTINUOUS
10
0.623639094488189
20
1.0286182283464567
11
0.6231064173228347
21
1.0291509055118111
0
LINE
8
BLACK
6
CONTINUOUS
10
0.6231064173228347
20
1.0291509055118111
11
0.6230314960629921
21
1.0295275590551181
0
LINE
8
BLACK
6
CONTINUOUS
10
0.6230314960629921
20
1.0295275590551181
11
0.6230314960629921
21
1.0836614173228347
0
LINE
8
BLACK
6
CONTINUOUS
10
0.6230314960629921
20
1.0836614173228347
11
0.610236220472441
21
1.0836614173228347
0
LINE
8
BLACK
6
CONTINUOUS
10
0.610236220472441
20
1.0836614173228347
11
0.6098595669291338
21
1.083736338582677
0
LINE
8
BLACK
6
CONTINUOUS
10
0.6098595669291338
20
1.083736338582677
11
0.6093268897637795
21
1.0842690157480315
0
LINE
8
BLACK
6
CONTINUOUS
10
0.6093268897637795
20
1.0842690157480315
11
0.609251968503937
21
1.0846456692913387
0
LINE
8
BLACK
6
CONTINUOUS
10
0.609251968503937
20
1.0846456692913387
11
0.609251968503937
21
1.2775590551181102
0
LINE
8
BLACK
6
CONTINUOUS
10
0.609251968503937
20
1.2775590551181102
11
0.6093268897637795
21
1.2779357086614174
0
LINE
8
BLACK
6
CONTINUOUS
10
0.6093268897637795
20
1.2779357086614174
11
0.6098595669291338
21
1.2784683858267716
0
LINE
8
BLACK
6
CONTINUOUS
10
0.6098595669291338
20
1.2784683858267716
11
0.610236220472441
21
1.2785433070866141
0
LINE
8
BLACK
6
CONTINUOUS
10
0.610236220472441
20
1.2785433070866141
11
0.6230314960629921
21
1.2785433070866141
0
LINE
8
BLACK
6
CONTINUOUS
10
0.6230314960629921
20
1.2785433070866141
11
0.6230314960629921
21
1.3326771653543308
0
LINE
8
BLACK
6
CONTINUOUS
10
0.6230314960629921
20
1.3326771653543308
11
0.6231064173228347
21
1.3330538188976377
0
LINE
8
BLACK
6
CONTINUOUS
10
0.6231064173228347
20
1.3330538188976377
11
0.623639094488189
21
1.3335864960629922
0
LINE
8
BLACK
6
CONTINUOUS
10
0.623639094488189
20
1.3335864960629922
11
0.6240157480314961
21
1.3336614173228347
0
LINE
8
BLACK
6
CONTINUOUS
10
0.6240157480314961
20
1.3336614173228347
11
0.812992125984252
21
1.3336614173228347
0
LINE
8
BLACK
6
CONTINUOUS
10
0.812992125984252
20
1.3336614173228347
11
0.813368779527559
21
1.3335864960629922
0
LINE
8
BLACK
6
CONTINUOUS
10
0.625
20
1.3316929133858268
11
0.625
21
1.2775590551181102
0
LINE
8
BLACK
6
CONTINUOUS
10
0.625
20
1.2775590551181102
11
0.6249250787401575
21
1.2771824015748032
0
LINE
8
BLACK
6
CONTINUOUS
10
0.6249250787401575
20
1.2771824015748032
11
0.6243924015748031
21
1.2766497244094488
0
LINE
8
BLACK
6
CONTINUOUS
10
0.6243924015748031
20
1.2766497244094488
11
0.6240157480314961
21
1.2765748031496063
0
LINE
8
BLACK
6
CONTINUOUS
10
0.6240157480314961
20
1.2765748031496063
11
0.6112204724409449
21
1.2765748031496063
0
LINE
8
BLACK
6
CONTINUOUS
10
0.6112204724409449
20
1.2765748031496063
11
0.6112204724409449
21
1.0856299212598426
0
LINE
8
BLACK
6
CONTINUOUS
10
0.6112204724409449
20
1.0856299212598426
11
0.6240157480314961
21
1.0856299212598426
0
LINE
8
BLACK
6
CONTINUOUS
10
0.6240157480314961
20
1.0856299212598426
11
0.6243924015748031
21
1.085555
0
LINE
8
BLACK
6
CONTINUOUS
10
0.6243924015748031
20
1.085555
11
0.6249250787401575
21
1.0850223228346456
0
LINE
8
BLACK
6
CONTINUOUS
10
0.6249250787401575
20
1.0850223228346456
11
0.625
21
1.0846456692913387
0
LINE
8
BLACK
6
CONTINUOUS
10
0.625
20
1.0846456692913387
11
0.625
21
1.030511811023622
0
LINE
8
BLACK
6
CONTINUOUS
10
0.625
20
1.030511811023622
11
0.812007874015748
21
1.030511811023622
0
LINE
8
BLACK
6
CONTINUOUS
10
0.812007874015748
20
1.030511811023622
11
0.812007874015748
21
1.0846456692913387
0
LINE
8
BLACK
6
CONTINUOUS
10
0.812007874015748
20
1.0846456692913387
11
0.8120827952755906
21
1.0850223228346456
0
LINE
8
BLACK
6
CONTINUOUS
10
0.8120827952755906
20
1.0850223228346456
11
0.8126154724409449
21
1.085555
0
LINE
8
BLACK
6
CONTINUOUS
10
0.8126154724409449
20
1.085555
11
0.812992125984252
21
1.0856299212598426
0
LINE
8
BLACK
6
CONTINUOUS
10
0.812992125984252
20
1.0856299212598426
11
0.8257874015748031
21
1.0856299212598426
0
LINE
8
BLACK
6
CONTINUOUS
10
0.8257874015748031
20
1.0856299212598426
11
0.8257874015748031
21
1.2765748031496063
0
LINE
8
BLACK
6
CONTINUOUS
10
0.8257874015748031
20
1.2765748031496063
11
0.812992125984252
21
1.2765748031496063
0
LINE
8
BLACK
6
CONTINUOUS
10
0.812992125984252
20
1.2765748031496063
11
0.8126154724409449
21
1.2766497244094488
0
LINE
8
BLACK
6
CONTINUOUS
10
0.8126154724409449
20
1.2766497244094488
11
0.8120827952755906
21
1.2771824015748032
0
LINE
8
BLACK
6
CONTINUOUS
10
0.8120827952755906
20
1.2771824015748032
11
0.812007874015748
21
1.2775590551181102
0
LINE
8
BLACK
6
CONTINUOUS
10
0.812007874015748
20
1.2775590551181102
11
0.812007874015748
21
1.3316929133858268
0
LINE
8
BLACK
6
CONTINUOUS
10
0.812007874015748
20
1.3316929133858268
11
0.625
21
1.3316929133858268
0
LINE
8
BLACK
6
CONTINUOUS
10
1.0428963385826771
20
1.1132715354330709
11
1.0434290157480315
21
1.1127388582677165
0
LINE
8
BLACK
6
CONTINUOUS
10
1.0434290157480315
20
1.1127388582677165
11
1.043503937007874
21
1.1123622047244095
0
LINE
8
BLACK
6
CONTINUOUS
10
1.043503937007874
20
1.1123622047244095
11
1.043503937007874
21
1.0548818897637795
0
LINE
8
BLACK
6
CONTINUOUS
10
1.043503937007874
20
1.0548818897637795
11
1.0434290157480315
21
1.0545052362204723
0
LINE
8
BLACK
6
CONTINUOUS
10
1.0434290157480315
20
1.0545052362204723
11
1.0428963385826771
21
1.0539725590551181
0
LINE
8
BLACK
6
CONTINUOUS
10
1.0428963385826771
20
1.0539725590551181
11
1.0425196850393701
21
1.0538976377952756
0
LINE
8
BLACK
6
CONTINUOUS
10
1.0425196850393701
20
1.0538976377952756
11
0.9259842519685039
21
1.0538976377952756
0
LINE
8
BLACK
6
CONTINUOUS
10
0.9259842519685039
20
1.0538976377952756
11
0.9256075984251968
21
1.0539725590551181
0
LINE
8
BLACK
6
CONTINUOUS
10
0.9256075984251968
20
1.0539725590551181
11
0.9250749212598425
21
1.0545052362204723
0
LINE
8
BLACK
6
CONTINUOUS
10
0.9250749212598425
20
1.0545052362204723
11
0.9249999999999999
21
1.0548818897637795
0
LINE
8
BLACK
6
CONTINUOUS
10
0.9249999999999999
20
1.0548818897637795
11
0.9249999999999999
21
1.1123622047244095
0
LINE
8
BLACK
6
CONTINUOUS
10
0.9249999999999999
20
1.1123622047244095
11
0.9250749212598425
21
1.1127388582677165
0
LINE
8
BLACK
6
CONTINUOUS
10
0.9250749212598425
20
1.1127388582677165
11
0.9256075984251968
21
1.1132715354330709
0
LINE
8
BLACK
6
CONTINUOUS
10
0.9256075984251968
20
1.1132715354330709
11
0.9259842519685039
21
1.1133464566929134
0
LINE
8
BLACK
6
CONTINUOUS
10
0.9259842519685039
20
1.1133464566929134
11
1.0425196850393701
21
1.1133464566929134
0
LINE
8
BLACK
6
CONTINUOUS
10
1.0425196850393701
20
1.1133464566929134
11
1.0428963385826771
21
1.1132715354330709
0
LINE
8
BLACK
6
CONTINUOUS
10
0.9269685039370078
20
1.1113779527559056
11
0.9269685039370078
21
1.0558661417322834
0
LINE
8
BLACK
6
CONTINUOUS
10
0.9269685039370078
20
1.0558661417322834
11
1.0415354330708662
21
1.0558661417322834
0
LINE
8
BLACK
6
CONTINUOUS
10
1.0415354330708662
20
1.0558661417322834
11
1.0415354330708662
21
1.1113779527559056
0
LINE
8
BLACK
6
CONTINUOUS
10
1.0415354330708662
20
1.1113779527559056
11
0.9269685039370078
21
1.1113779527559056
0
LINE
8
BLACK
6
CONTINUOUS
10
1.1905341338582678
20
1.130043188976378
11
1.191066811023622
21
1.1295105118110236
0
LINE
8
BLACK
6
CONTINUOUS
10
1.191066811023622
20
1.1295105118110236
11
1.1911417322834645
21
1.1291338582677166
0
LINE
8
BLACK
6
CONTINUOUS
10
1.1911417322834645
20
1.1291338582677166
11
1.1911417322834645
21
1.0716535433070866
0
LINE
8
BLACK
6
CONTINUOUS
10
1.1911417322834645
20
1.0716535433070866
11
1.191066811023622
21
1.0712768897637794
0
LINE
8
BLACK
6
CONTINUOUS
10
1.191066811023622
20
1.0712768897637794
11
1.1905341338582678
21
1.0707442125984252
0
LINE
8
BLACK
6
CONTINUOUS
10
1.1905341338582678
20
1.0707442125984252
11
1.1901574803149606
21
1.0706692913385827
0
LINE
8
BLACK
6
CONTINUOUS
10
1.1901574803149606
20
1.0706692913385827
11
1.0736220472440945
21
1.0706692913385827
0
LINE
8
BLACK
6
CONTINUOUS
10
1.0736220472440945
20
1.0706692913385827
11
1.0732453937007873
21
1.0707442125984252
0
LINE
8
BLACK
6
CONTINUOUS
10
1.0732453937007873
20
1.0707442125984252
11
1.0727127165354331
21
1.0712768897637794
0
LINE
8
BLACK
6
CONTINUOUS
10
1.0727127165354331
20
1.0712768897637794
11
1.0726377952755906
21
1.0716535433070866
0
LINE
8
BLACK
6
CONTINUOUS
10
1.0726377952755906
20
1.0716535433070866
11
1.0726377952755906
21
1.1291338582677166
0
LINE
8
BLACK
6
CONTINUOUS
10
1.0726377952755906
20
1.1291338582677166
11
1.0727127165354331
21
1.1295105118110236
0
LINE
8
BLACK
6
CONTINUOUS
10
1.0727127165354331
20
1.1295105118110236
11
1.0732453937007873
21
1.130043188976378
0
LINE
8
BLACK
6
CONTINUOUS
10
1.0732453937007873
20
1.130043188976378
11
1.0736220472440945
21
1.1301181102362206
0
LINE
8
BLACK
6
CONTINUOUS
10
1.0736220472440945
20
1.1301181102362206
11
1.1901574803149606
21
1.1301181102362206
0
LINE
8
BLACK
6
CONTINUOUS
10
1.1901574803149606
20
1.1301181102362206
11
1.1905341338582678
21
1.130043188976378
0
LINE
8
BLACK
6
CONTINUOUS
10
1.0746062992125984
20
1.1281496062992127
11
1.0746062992125984
21
1.0726377952755906
0
LINE
8
BLACK
6
CONTINUOUS
10
1.0746062992125984
20
1.0726377952755906
11
1.1891732283464567
21
1.0726377952755906
0
LINE
8
BLACK
6
CONTINUOUS
10
1.1891732283464567
20
1.0726377952755906
11
1.1891732283464567
21
1.1281496062992127
0
LINE
8
BLACK
6
CONTINUOUS
10
1.1891732283464567
20
1.1281496062992127
11
1.0746062992125984
21
1.1281496062992127
0
LINE
8
BLACK
6
CONTINUOUS
10
1.3699859448818896
20
1.2921170078740156
11
1.3774772047244095
21
1.2896829133858267
0
LINE
8
BLACK
6
CONTINUOUS
10
1.3774772047244095
20
1.2896829133858267
11
1.3844955118110236
21
1.2861069291338583
0
LINE
8
BLACK
6
CONTINUOUS
10
1.3844955118110236
20
1.2861069291338583
11
1.3908679527559056
21
1.2814770866141731
0
LINE
8
BLACK
6
CONTINUOUS
10
1.3908679527559056
20
1.2814770866141731
11
1.3964377165354331
21
1.2759073228346456
0
LINE
8
BLACK
6
CONTINUOUS
10
1.3964377165354331
20
1.2759073228346456
11
1.401067559055118
21
1.2695348818897638
0
LINE
8
BLACK
6
CONTINUOUS
10
1.401067559055118
20
1.2695348818897638
11
1.4046435433070865
21
1.2625165748031495
0
LINE
8
BLACK
6
CONTINUOUS
10
1.4046435433070865
20
1.2625165748031495
11
1.4070776377952756
21
1.2550253149606299
0
LINE
8
BLACK
6
CONTINUOUS
10
1.4070776377952756
20
1.2550253149606299
11
1.4083098425196849
21
1.2472454724409447
0
LINE
8
BLACK
6
CONTINUOUS
10
1.4083098425196849
20
1.2472454724409447
11
1.4083098425196849
21
1.2393687007874015
0
LINE
8
BLACK
6
CONTINUOUS
10
1.4083098425196849
20
1.2393687007874015
11
1.4070776377952756
21
1.2315888582677166
0
LINE
8
BLACK
6
CONTINUOUS
10
1.4070776377952756
20
1.2315888582677166
11
1.4046435433070865
21
1.2240975984251967
0
LINE
8
BLACK
6
CONTINUOUS
10
1.4046435433070865
20
1.2240975984251967
11
1.401067559055118
21
1.2170792913385826
0
LINE
8
BLACK
6
CONTINUOUS
10
1.401067559055118
20
1.2170792913385826
11
1.3964377165354331
21
1.2107068503937009
0
LINE
8
BLACK
6
CONTINUOUS
10
1.3964377165354331
20
1.2107068503937009
11
1.3908679527559056
21
1.2051370866141733
0
LINE
8
BLACK
6
CONTINUOUS
10
1.3908679527559056
20
1.2051370866141733
11
1.3844955118110236
21
1.2005072440944882
0
LINE
8
BLACK
6
CONTINUOUS
10
1.3844955118110236
20
1.2005072440944882
11
1.3774772047244095
21
1.1969312598425197
0
LINE
8
BLACK
6
CONTINUOUS
10
1.3774772047244095
20
1.1969312598425197
11
1.3699859448818896
21
1.1944971653543306
0
LINE
8
BLACK
6
CONTINUOUS
10
1.3699859448818896
20
1.1944971653543306
11
1.3622061023622047
21
1.1932649606299213
0
LINE
8
BLACK
6
CONTINUOUS
10
1.3622061023622047
20
1.1932649606299213
11
1.3543293307086615
21
1.1932649606299213
0
LINE
8
BLACK
6
CONTINUOUS
10
1.3543293307086615
20
1.1932649606299213
11
1.3465494881889764
21
1.1944971653543306
0
LINE
8
BLACK
6
CONTINUOUS
10
1.3465494881889764
20
1.1944971653543306
11
1.3390582283464567
21
1.1969312598425197
0
LINE
8
BLACK
6
CONTINUOUS
10
1.3390582283464567
20
1.1969312598425197
11
1.3320399212598424
21
1.2005072440944882
0
LINE
8
BLACK
6
CONTINUOUS
10
1.3320399212598424
20
1.2005072440944882
11
1.3256674803149606
21
1.2051370866141733
0
LINE
8
BLACK
6
CONTINUOUS
10
1.3256674803149606
20
1.2051370866141733
11
1.3200977165354331
21
1.2107068503937009
0
LINE
8
BLACK
6
CONTINUOUS
10
1.3200977165354331
20
1.2107068503937009
11
1.3154678740157479
21
1.2170792913385826
0
LINE
8
BLACK
6
CONTINUOUS
10
1.3154678740157479
20
1.2170792913385826
11
1.3118918897637795
21
1.2240975984251967
0
LINE
8
BLACK
6
CONTINUOUS
10
1.3118918897637795
20
1.2240975984251967
11
1.3094577952755906
21
1.2315888582677166
0
LINE
8
BLACK
6
CONTINUOUS
10
1.3094577952755906
20
1.2315888582677166
11
1.308225590551181
21
1.2393687007874015
0
LINE
8
BLACK
6
CONTINUOUS
10
1.308225590551181
20
1.2393687007874015
11
1.308225590551181
21
1.2471027559055117
0
LINE
8
BLACK
6
CONTINUOUS
10
1.308225590551181
20
1.2471027559055117
11
1.308225590551181
21
1.2472454724409447
0
LINE
8
BLACK
6
CONTINUOUS
10
1.308225590551181
20
1.2472454724409447
11
1.3094577952755906
21
1.2550253149606299
0
LINE
8
BLACK
6
CONTINUOUS
10
1.3094577952755906
20
1.2550253149606299
11
1.3118918897637795
21
1.2625165748031495
0
LINE
8
BLACK
6
CONTINUOUS
10
1.3118918897637795
20
1.2625165748031495
11
1.3154678740157479
21
1.2695348818897638
0
LINE
8
BLACK
6
CONTINUOUS
10
1.3154678740157479
20
1.2695348818897638
11
1.3200977165354331
21
1.2759073228346456
0
LINE
8
BLACK
6
CONTINUOUS
10
1.3200977165354331
20
1.2759073228346456
11
1.3256674803149606
21
1.2814770866141731
0
LINE
8
BLACK
6
CONTINUOUS
10
1.3256674803149606
20
1.2814770866141731
11
1.3320399212598424
21
1.2861069291338583
0
LINE
8
BLACK
6
CONTINUOUS
10
1.3320399212598424
20
1.2861069291338583
11
1.3390582283464567
21
1.2896829133858267
0
LINE
8
BLACK
6
CONTINUOUS
10
1.3390582283464567
20
1.2896829133858267
11
1.3465494881889764
21
1.2921170078740156
0
LINE
8
BLACK
6
CONTINUOUS
10
1.3465494881889764
20
1.2921170078740156
11
1.3543293307086615
21
1.2933492125984252
0
LINE
8
BLACK
6
CONTINUOUS
10
1.3543293307086615
20
1.2933492125984252
11
1.3622061023622047
21
1.2933492125984252
0
LINE
8
BLACK
6
CONTINUOUS
10
1.3622061023622047
20
1.2933492125984252
11
1.3699859448818896
21
1.2921170078740156
0
LINE
8
BLACK
6
CONTINUOUS
10
1.3100393700787401
20
1.2395114173228345
11
1.3112269291338583
21
1.2320135826771654
0
LINE
8
BLACK
6
CONTINUOUS
10
1.3112269291338583
20
1.2320135826771654
11
1.3135727559055117
21
1.2247938188976377
0
LINE
8
BLACK
6
CONTINUOUS
10
1.3135727559055117
20
1.2247938188976377
11
1.3170191338582677
21
1.2180299212598424
0
LINE
8
BLACK
6
CONTINUOUS
10
1.3170191338582677
20
1.2180299212598424
11
1.3214811811023621
21
1.2118884251968505
0
LINE
8
BLACK
6
CONTINUOUS
10
1.3214811811023621
20
1.2118884251968505
11
1.3268490551181102
21
1.2065205511811024
0
LINE
8
BLACK
6
CONTINUOUS
10
1.3268490551181102
20
1.2065205511811024
11
1.3329905511811024
21
1.2020585039370077
0
LINE
8
BLACK
6
CONTINUOUS
10
1.3329905511811024
20
1.2020585039370077
11
1.3397544488188977
21
1.1986121259842519
0
LINE
8
BLACK
6
CONTINUOUS
10
1.3397544488188977
20
1.1986121259842519
11
1.3469742125984252
21
1.1962662992125983
0
LINE
8
BLACK
6
CONTINUOUS
10
1.3469742125984252
20
1.1962662992125983
11
1.3544720472440945
21
1.1950787401574803
0
LINE
8
BLACK
6
CONTINUOUS
10
1.3544720472440945
20
1.1950787401574803
11
1.3620633858267717
21
1.1950787401574803
0
LINE
8
BLACK
6
CONTINUOUS
10
1.3620633858267717
20
1.1950787401574803
11
1.369561220472441
21
1.1962662992125983
0
LINE
8
BLACK
6
CONTINUOUS
10
1.369561220472441
20
1.1962662992125983
11
1.3767809842519685
21
1.1986121259842519
0
LINE
8
BLACK
6
CONTINUOUS
10
1.3767809842519685
20
1.1986121259842519
11
1.3835448818897638
21
1.2020585039370077
0
LINE
8
BLACK
6
CONTINUOUS
10
1.3835448818897638
20
1.2020585039370077
11
1.389686377952756
21
1.2065205511811024
0
LINE
8
BLACK
6
CONTINUOUS
10
1.389686377952756
20
1.2065205511811024
11
1.3950542519685039
21
1.2118884251968505
0
LINE
8
BLACK
6
CONTINUOUS
10
1.3950542519685039
20
1.2118884251968505
11
1.3995162992125985
21
1.2180299212598424
0
LINE
8
BLACK
6
CONTINUOUS
10
1.3995162992125985
20
1.2180299212598424
11
1.4029626771653543
21
1.2247938188976377
0
LINE
8
BLACK
6
CONTINUOUS
10
1.4029626771653543
20
1.2247938188976377
11
1.4053085039370079
21
1.2320135826771654
0
LINE
8
BLACK
6
CONTINUOUS
10
1.4053085039370079
20
1.2320135826771654
11
1.4064960629921259
21
1.2395114173228345
0
LINE
8
BLACK
6
CONTINUOUS
10
1.4064960629921259
20
1.2395114173228345
11
1.4064960629921259
21
1.2471027559055117
0
LINE
8
BLACK
6
CONTINUOUS
10
1.4064960629921259
20
1.2471027559055117
11
1.4053085039370079
21
1.254600590551181
0
LINE
8
BLACK
6
CONTINUOUS
10
1.4053085039370079
20
1.254600590551181
11
1.4029626771653543
21
1.2618203543307087
0
LINE
8
BLACK
6
CONTINUOUS
10
1.4029626771653543
20
1.2618203543307087
11
1.3995162992125985
21
1.268584251968504
0
LINE
8
BLACK
6
CONTINUOUS
10
1.3995162992125985
20
1.268584251968504
11
1.3950542519685039
21
1.274725748031496
0
LINE
8
BLACK
6
CONTINUOUS
10
1.3950542519685039
20
1.274725748031496
11
1.389686377952756
21
1.2800936220472441
0
LINE
8
BLACK
6
CONTINUOUS
10
1.389686377952756
20
1.2800936220472441
11
1.3835448818897638
21
1.2845556692913385
0
LINE
8
BLACK
6
CONTINUOUS
10
1.3835448818897638
20
1.2845556692913385
11
1.3767809842519685
21
1.2880020472440945
0
LINE
8
BLACK
6
CONTINUOUS
10
1.3767809842519685
20
1.2880020472440945
11
1.369561220472441
21
1.2903478740157479
0
LINE
8
BLACK
6
CONTINUOUS
10
1.369561220472441
20
1.2903478740157479
11
1.3620633858267717
21
1.2915354330708662
0
LINE
8
BLACK
6
CONTINUOUS
10
1.3620633858267717
20
1.2915354330708662
11
1.3544720472440945
21
1.2915354330708662
0
LINE
8
BLACK
6
CONTINUOUS
10
1.3544720472440945
20
1.2915354330708662
11
1.3469742125984252
21
1.2903478740157479
0
LINE
8
BLACK
6
CONTINUOUS
10
1.3469742125984252
20
1.2903478740157479
11
1.3397544488188977
21
1.2880020472440945
0
LINE
8
BLACK
6
CONTINUOUS
10
1.3397544488188977
20
1.2880020472440945
11
1.3329905511811024
21
1.2845556692913385
0
LINE
8
BLACK
6
CONTINUOUS
10
1.3329905511811024
20
1.2845556692913385
11
1.3268490551181102
21
1.2800936220472441
0
LINE
8
BLACK
6
CONTINUOUS
10
1.3268490551181102
20
1.2800936220472441
11
1.3214811811023621
21
1.274725748031496
0
LINE
8
BLACK
6
CONTINUOUS
10
1.3214811811023621
20
1.274725748031496
11
1.3170191338582677
21
1.268584251968504
0
LINE
8
BLACK
6
CONTINUOUS
10
1.3170191338582677
20
1.268584251968504
11
1.3135727559055117
21
1.2618203543307087
0
LINE
8
BLACK
6
CONTINUOUS
10
1.3135727559055117
20
1.2618203543307087
11
1.3112269291338583
21
1.254600590551181
0
LINE
8
BLACK
6
CONTINUOUS
10
1.3112269291338583
20
1.254600590551181
11
1.3100393700787401
21
1.2471027559055117
0
LINE
8
BLACK
6
CONTINUOUS
10
1.3100393700787401
20
1.2471027559055117
11
1.3100393700787401
21
1.2395114173228345
0
CIRCLE
8
BLACK
10
0.9129921259842519
20
1.1933070866141733
40
0.0068897637795276
0
CIRCLE
8
BLACK
10
0.9129921259842519
20
1.2933070866141732
40
0.0068897637795276
0
CIRCLE
8
BLACK
10
1.012992125984252
20
1.1933070866141733
40
0.0068897637795276
0
CIRCLE
8
BLACK
10
1.012992125984252
20
1.2933070866141732
40
0.0068897637795276
0
CIRCLE
8
BLACK
10
1.1129921259842519
20
1.1933070866141733
40
0.0068897637795276
0
CIRCLE
8
BLACK
10
1.1129921259842519
20
1.2933070866141732
40
0.0068897637795276
0
CIRCLE
8
BLACK
10
1.212992125984252
20
1.1933070866141733
40
0.0068897637795276
0
CIRCLE
8
BLACK
10
1.212992125984252
20
1.2933070866141732
40
0.0068897637795276
0
CIRCLE
8
BLACK
10
1.6031496062992125
20
0.8200787401574803
40
0.0068897637795276
0
CIRCLE
8
BLACK
10
1.7031496062992126
20
0.9200787401574803
40
0.0068897637795276
0
CIRCLE
8
BLACK
10
1.5031496062992125
20
0.9200787401574803
40
0.0068897637795276
0
CIRCLE
8
BLACK
10
1.7031496062992126
20
0.7200787401574803
40
0.0068897637795276
0
CIRCLE
8
BLACK
10
1.5031496062992125
20
0.7200787401574803
40
0.0068897637795276
0
CIRCLE
8
BLACK
10
0.4
20
0.4
40
0.0068897637795276
0
CIRCLE
8
BLACK
10
1.5999999999999999
20
1.2
40
0.0068897637795276
0
CIRCLE
8
BLACK
10
1.5999999999999999
20
0.4
40
0.0068897637795276
0
CIRCLE
8
BLACK
10
0.4
20
1.2
40
0.0068897637795276
0
CIRCLE
8
BLACK
10
0.3043307086614173
20
0.9070866141732283
40
0.0068897637795276
0
CIRCLE
8
BLACK
10
0.4043307086614173
20
0.9070866141732283
40
0.0068897637795276
0
CIRCLE
8
BLACK
10
0.3043307086614173
20
0.8070866141732284
40
0.0068897637795276
0
CIRCLE
8
BLACK
10
0.4043307086614173
20
0.8070866141732284
40
0.0068897637795276
0
CIRCLE
8
BLACK
10
0.3043307086614173
20
0.7070866141732284
40
0.0068897637795276
0
CIRCLE
8
BLACK
10
0.4043307086614173
20
0.7070866141732284
40
0.0068897637795276
0
CIRCLE
8
BLACK
10
0.9129921259842519
20
0.2989173228346457
40
0.0068897637795276
0
CIRCLE
8
BLACK
10
0.9129921259842519
20
0.3989173228346456
40
0.0068897637795276
0
CIRCLE
8
BLACK
10
1.012992125984252
20
0.2989173228346457
40
0.0068897637795276
0
CIRCLE
8
BLACK
10
1.012992125984252
20
0.3989173228346456
40
0.0068897637795276
0
CIRCLE
8
BLACK
10
1.1129921259842519
20
0.2989173228346457
40
0.0068897637795276
0
CIRCLE
8
BLACK
10
1.1129921259842519
20
0.3989173228346456
40
0.0068897637795276
0
CIRCLE
8
BLACK
10
1.212992125984252
20
0.2989173228346457
40
0.0068897637795276
0
CIRCLE
8
BLACK
10
1.212992125984252
20
0.3989173228346456
40
0.0068897637795276
0
CIRCLE
8
BLACK
10
0.9129921259842519
20
1.1933070866141733
40
0.0068897637795276
0
CIRCLE
8
BLACK
10
0.9129921259842519
20
1.2933070866141732
40
0.0068897637795276
0
CIRCLE
8
BLACK
10
1.012992125984252
20
1.1933070866141733
40
0.0068897637795276
0
CIRCLE
8
BLACK
10
1.012992125984252
20
1.2933070866141732
40
0.0068897637795276
0
CIRCLE
8
BLACK
10
1.1129921259842519
20
1.1933070866141733
40
0.0068897637795276
0
CIRCLE
8
BLACK
10
1.1129921259842519
20
1.2933070866141732
40
0.0068897637795276
0
CIRCLE
8
BLACK
10
1.212992125984252
20
1.1933070866141733
40
0.0068897637795276
0
CIRCLE
8
BLACK
10
1.212992125984252
20
1.2933070866141732
40
0.0068897637795276
0
CIRCLE
8
BLACK
10
1.6031496062992125
20
0.8200787401574803
40
0.0068897637795276
0
CIRCLE
8
BLACK
10
1.7031496062992126
20
0.9200787401574803
40
0.0068897637795276
0
CIRCLE
8
BLACK
10
1.5031496062992125
20
0.9200787401574803
40
0.0068897637795276
0
CIRCLE
8
BLACK
10
1.7031496062992126
20
0.7200787401574803
40
0.0068897637795276
0
CIRCLE
8
BLACK
10
1.5031496062992125
20
0.7200787401574803
40
0.0068897637795276
0
CIRCLE
8
BLACK
10
0.4
20
0.4
40
0.0068897637795276
0
CIRCLE
8
BLACK
10
1.5999999999999999
20
1.2
40
0.0068897637795276
0
CIRCLE
8
BLACK
10
1.5999999999999999
20
0.4
40
0.0068897637795276
0
CIRCLE
8
BLACK
10
0.4
20
1.2
40
0.0068897637795276
0
CIRCLE
8
BLACK
10
0.3043307086614173
20
0.9070866141732283
40
0.0068897637795276
0
CIRCLE
8
BLACK
10
0.4043307086614173
20
0.9070866141732283
40
0.0068897637795276
0
CIRCLE
8
BLACK
10
0.3043307086614173
20
0.8070866141732284
40
0.0068897637795276
0
CIRCLE
8
BLACK
10
0.4043307086614173
20
0.8070866141732284
40
0.0068897637795276
0
CIRCLE
8
BLACK
10
0.3043307086614173
20
0.7070866141732284
40
0.0068897637795276
0
CIRCLE
8
BLACK
10
0.4043307086614173
20
0.7070866141732284
40
0.0068897637795276
0
CIRCLE
8
BLACK
10
0.9129921259842519
20
0.2989173228346457
40
0.0068897637795276
0
CIRCLE
8
BLACK
10
0.9129921259842519
20
0.3989173228346456
40
0.0068897637795276
0
CIRCLE
8
BLACK
10
1.012992125984252
20
0.2989173228346457
40
0.0068897637795276
0
CIRCLE
8
BLACK
10
1.012992125984252
20
0.3989173228346456
40
0.0068897637795276
0
CIRCLE
8
BLACK
10
1.1129921259842519
20
0.2989173228346457
40
0.0068897637795276
0
CIRCLE
8
BLACK
10
1.1129921259842519
20
0.3989173228346456
40
0.0068897637795276
0
CIRCLE
8
BLACK
10
1.212992125984252
20
0.2989173228346457
40
0.0068897637795276
0
CIRCLE
8
BLACK
10
1.212992125984252
20
0.3989173228346456
40
0.0068897637795276
  0
ENDSEC
  0
EOF
