  0
SECTION
  2
HEADER
  9
$ANGBASE
  50
0.0
  9
$ANGDIR
  70
1
  9
$MEASUREMENT
  70
0
  0
ENDSEC
  0
SECTION
  2
TABLES
  0
TABLE
  2
LTYPE
  70
4
  0
LTYPE
  5
40F
  2
CONTINUOUS
  70
0
  3
Solid line
  72
65
  73
0
  40
0.0
  0
LTYPE
  5
410
  2
DASHDOT
 70
0
  3
Dash Dot ____ _ ____ _
 72
65
 73
4
 40
2.0
 49
1.25
 49
-0.25
 49
0.25
 49
-0.25
  0
LTYPE
  5
411
  2
DASHED
 70
0
  3
Dashed __ __ __ __ __
 72
65
 73
2
 40
0.75
 49
0.5
 49
-0.25
  0
LTYPE
  5
43B
  2
DOTTED
 70
0
  3
Dotted .  .  .  .
 72
65
 73
2
 40
0.2
 49
0.0
 49
-0.2
  0
ENDTAB
  0
TABLE
  2
STYLE
  70
4
  0
STYLE
  2
KICAD
  70
0
  40
0
  41
1
  42
1
  50
0
  71
0
  3
isocp.shx
  0
STYLE
  2
KICADB
  70
0
  40
0
  41
1
  42
1
  50
0
  71
0
  3
isocp.shx
  0
STYLE
  2
KICADI
  70
0
  40
0
  41
1
  42
1
  50
15
  71
0
  3
isocp.shx
  0
STYLE
  2
KICADBI
  70
0
  40
0
  41
1
  42
1
  50
15
  71
0
  3
isocp.shx
  0
ENDTAB
  0
TABLE
  2
LAYER
  70
1
  0
LAYER
  2
BLACK
  70
0
  62
7
  6
CONTINUOUS
  0
ENDTAB
  0
ENDSEC
  0
SECTION
  2
ENTITIES
0
LINE
8
BLACK
6
CONTINUOUS
10
0.8704475196850393
20
0.5756731496062992
11
0.8709801968503936
21
0.5751404724409449
0
LINE
8
BLACK
6
CONTINUOUS
10
0.8709801968503936
20
0.5751404724409449
11
0.8710551181102362
21
0.5747638188976378
0
LINE
8
BLACK
6
CONTINUOUS
10
0.8710551181102362
20
0.5747638188976378
11
0.8710551181102362
21
0.5385433464566929
0
LINE
8
BLACK
6
CONTINUOUS
10
0.8710551181102362
20
0.5385433464566929
11
0.8709801968503936
21
0.5381666929133858
0
LINE
8
BLACK
6
CONTINUOUS
10
0.8709801968503936
20
0.5381666929133858
11
0.8704475196850393
21
0.5376340157480315
0
LINE
8
BLACK
6
CONTINUOUS
10
0.8704475196850393
20
0.5376340157480315
11
0.8700708661417322
21
0.5375590944881889
0
LINE
8
BLACK
6
CONTINUOUS
10
0.8700708661417322
20
0.5375590944881889
11
0.7850314960629922
21
0.5375590944881889
0
LINE
8
BLACK
6
CONTINUOUS
10
0.7850314960629922
20
0.5375590944881889
11
0.784654842519685
21
0.5376340157480315
0
LINE
8
BLACK
6
CONTINUOUS
10
0.784654842519685
20
0.5376340157480315
11
0.7841221653543307
21
0.5381666929133858
0
LINE
8
BLACK
6
CONTINUOUS
10
0.7841221653543307
20
0.5381666929133858
11
0.7840472440944881
21
0.5385433464566929
0
LINE
8
BLACK
6
CONTINUOUS
10
0.7840472440944881
20
0.5385433464566929
11
0.7840472440944881
21
0.5747638188976378
0
LINE
8
BLACK
6
CONTINUOUS
10
0.7840472440944881
20
0.5747638188976378
11
0.7841221653543307
21
0.5751404724409449
0
LINE
8
BLACK
6
CONTINUOUS
10
0.7841221653543307
20
0.5751404724409449
11
0.784654842519685
21
0.5756731496062992
0
LINE
8
BLACK
6
CONTINUOUS
10
0.784654842519685
20
0.5756731496062992
11
0.7850314960629922
21
0.5757480708661418
0
LINE
8
BLACK
6
CONTINUOUS
10
0.7850314960629922
20
0.5757480708661418
11
0.8700708661417322
21
0.5757480708661418
0
LINE
8
BLACK
6
CONTINUOUS
10
0.8700708661417322
20
0.5757480708661418
11
0.8704475196850393
21
0.5756731496062992
0
LINE
8
BLACK
6
CONTINUOUS
10
0.7860157480314961
20
0.5737795669291339
11
0.7860157480314961
21
0.5395275984251968
0
LINE
8
BLACK
6
CONTINUOUS
10
0.7860157480314961
20
0.5395275984251968
11
0.8690866141732283
21
0.5395275984251968
0
LINE
8
BLACK
6
CONTINUOUS
10
0.8690866141732283
20
0.5395275984251968
11
0.8690866141732283
21
0.5737795669291339
0
LINE
8
BLACK
6
CONTINUOUS
10
0.8690866141732283
20
0.5737795669291339
11
0.7860157480314961
21
0.5737795669291339
0
LINE
8
BLACK
6
CONTINUOUS
10
1.196538031496063
20
0.6508203543307086
11
1.1976194488188976
21
0.6503724015748031
0
LINE
8
BLACK
6
CONTINUOUS
10
1.1976194488188976
20
0.6503724015748031
11
1.1984471653543307
21
0.64954468503937
0
LINE
8
BLACK
6
CONTINUOUS
10
1.1984471653543307
20
0.64954468503937
11
1.1988951181102363
21
0.6484632677165354
0
LINE
8
BLACK
6
CONTINUOUS
10
1.1988951181102363
20
0.6484632677165354
11
1.1989527559055118
21
0.6478779921259843
0
LINE
8
BLACK
6
CONTINUOUS
10
1.1989527559055118
20
0.6478779921259843
11
1.1989527559055118
21
0.6418779921259843
0
LINE
8
BLACK
6
CONTINUOUS
10
1.1989527559055118
20
0.6418779921259843
11
1.2314527559055117
21
0.6418779921259843
0
LINE
8
BLACK
6
CONTINUOUS
10
1.2314527559055117
20
0.6418779921259843
11
1.2320380314960631
21
0.6418203543307086
0
LINE
8
BLACK
6
CONTINUOUS
10
1.2320380314960631
20
0.6418203543307086
11
1.2331194488188977
21
0.6413724015748031
0
LINE
8
BLACK
6
CONTINUOUS
10
1.2331194488188977
20
0.6413724015748031
11
1.2339471653543306
21
0.64054468503937
0
LINE
8
BLACK
6
CONTINUOUS
10
1.2339471653543306
20
0.64054468503937
11
1.2343951181102362
21
0.6394632677165354
0
LINE
8
BLACK
6
CONTINUOUS
10
1.2343951181102362
20
0.6394632677165354
11
1.2344527559055118
21
0.6388779921259843
0
LINE
8
BLACK
6
CONTINUOUS
10
1.2344527559055118
20
0.6388779921259843
11
1.2344527559055118
21
0.6213779921259842
0
LINE
8
BLACK
6
CONTINUOUS
10
1.2344527559055118
20
0.6213779921259842
11
1.2404527559055119
21
0.6213779921259842
0
LINE
8
BLACK
6
CONTINUOUS
10
1.2404527559055119
20
0.6213779921259842
11
1.241038031496063
21
0.6213203543307086
0
LINE
8
BLACK
6
CONTINUOUS
10
1.241038031496063
20
0.6213203543307086
11
1.2421194488188976
21
0.6208724015748032
0
LINE
8
BLACK
6
CONTINUOUS
10
1.2421194488188976
20
0.6208724015748032
11
1.2429471653543307
21
0.62004468503937
0
LINE
8
BLACK
6
CONTINUOUS
10
1.2429471653543307
20
0.62004468503937
11
1.2433951181102363
21
0.6189632677165354
0
LINE
8
BLACK
6
CONTINUOUS
10
1.2433951181102363
20
0.6189632677165354
11
1.2434527559055117
21
0.6183779921259842
0
LINE
8
BLACK
6
CONTINUOUS
10
1.2434527559055117
20
0.6183779921259842
11
1.2434527559055117
21
0.5813779921259843
0
LINE
8
BLACK
6
CONTINUOUS
10
1.2434527559055117
20
0.5813779921259843
11
1.2434235826771654
21
0.5810818503937007
0
LINE
8
BLACK
6
CONTINUOUS
10
1.2434235826771654
20
0.5810818503937007
11
1.2434292125984252
21
0.5810027559055118
0
LINE
8
BLACK
6
CONTINUOUS
10
1.2434292125984252
20
0.5810027559055118
11
1.2434101574803149
21
0.5809456692913386
0
LINE
8
BLACK
6
CONTINUOUS
10
1.2434101574803149
20
0.5809456692913386
11
1.2433951181102363
21
0.5807927165354331
0
LINE
8
BLACK
6
CONTINUOUS
10
1.2433951181102363
20
0.5807927165354331
11
1.2432111811023623
21
0.5803487007874015
0
LINE
8
BLACK
6
CONTINUOUS
10
1.2432111811023623
20
0.5803487007874015
11
1.2430590551181102
21
0.5798922834645669
0
LINE
8
BLACK
6
CONTINUOUS
10
1.2430590551181102
20
0.5798922834645669
11
1.2429883464566929
21
0.5798108267716535
0
LINE
8
BLACK
6
CONTINUOUS
10
1.2429883464566929
20
0.5798108267716535
11
1.2429471653543307
21
0.5797112992125985
0
LINE
8
BLACK
6
CONTINUOUS
10
1.2429471653543307
20
0.5797112992125985
11
1.2426073622047245
21
0.5793715354330709
0
LINE
8
BLACK
6
CONTINUOUS
10
1.2426073622047245
20
0.5793715354330709
11
1.2422921259842519
21
0.5790080314960629
0
LINE
8
BLACK
6
CONTINUOUS
10
1.2422921259842519
20
0.5790080314960629
11
1.2421956692913385
21
0.5789598031496063
0
LINE
8
BLACK
6
CONTINUOUS
10
1.2421956692913385
20
0.5789598031496063
11
1.2421194488188976
21
0.5788835826771653
0
LINE
8
BLACK
6
CONTINUOUS
10
1.2421194488188976
20
0.5788835826771653
11
1.2416751181102361
21
0.5786995669291338
0
LINE
8
BLACK
6
CONTINUOUS
10
1.2416751181102361
20
0.5786995669291338
11
1.2412451181102362
21
0.5784845275590551
0
LINE
8
BLACK
6
CONTINUOUS
10
1.2412451181102362
20
0.5784845275590551
11
1.2411375984251969
21
0.5784768897637795
0
LINE
8
BLACK
6
CONTINUOUS
10
1.2411375984251969
20
0.5784768897637795
11
1.241038031496063
21
0.5784356299212599
0
LINE
8
BLACK
6
CONTINUOUS
10
1.241038031496063
20
0.5784356299212599
11
1.2405572047244093
21
0.5784356299212599
0
LINE
8
BLACK
6
CONTINUOUS
10
1.2405572047244093
20
0.5784356299212599
11
1.2400775590551181
21
0.5784015354330708
0
LINE
8
BLACK
6
CONTINUOUS
10
1.2400775590551181
20
0.5784015354330708
11
1.2399275984251967
21
0.5784356299212599
0
LINE
8
BLACK
6
CONTINUOUS
10
1.2399275984251967
20
0.5784356299212599
11
1.2398674803149605
21
0.5784356299212599
0
LINE
8
BLACK
6
CONTINUOUS
10
1.2398674803149605
20
0.5784356299212599
11
1.2397942913385827
21
0.5784659448818897
0
LINE
8
BLACK
6
CONTINUOUS
10
1.2397942913385827
20
0.5784659448818897
11
1.239504094488189
21
0.5785319291338582
0
LINE
8
BLACK
6
CONTINUOUS
10
1.239504094488189
20
0.5785319291338582
11
1.2344527559055118
21
0.5802157086614174
0
LINE
8
BLACK
6
CONTINUOUS
10
1.2344527559055118
20
0.5802157086614174
11
1.2344527559055118
21
0.5638779921259842
0
LINE
8
BLACK
6
CONTINUOUS
10
1.2344527559055118
20
0.5638779921259842
11
1.2343951181102362
21
0.5632927165354331
0
LINE
8
BLACK
6
CONTINUOUS
10
1.2343951181102362
20
0.5632927165354331
11
1.2339471653543306
21
0.5622112992125984
0
LINE
8
BLACK
6
CONTINUOUS
10
1.2339471653543306
20
0.5622112992125984
11
1.2331194488188977
21
0.5613835826771654
0
LINE
8
BLACK
6
CONTINUOUS
10
1.2331194488188977
20
0.5613835826771654
11
1.2320380314960631
21
0.5609356299212598
0
LINE
8
BLACK
6
CONTINUOUS
10
1.2320380314960631
20
0.5609356299212598
11
1.2314527559055117
21
0.5608779921259842
0
LINE
8
BLACK
6
CONTINUOUS
10
1.2314527559055117
20
0.5608779921259842
11
1.1989527559055118
21
0.5608779921259842
0
LINE
8
BLACK
6
CONTINUOUS
10
1.1989527559055118
20
0.5608779921259842
11
1.1989527559055118
21
0.5548779921259842
0
LINE
8
BLACK
6
CONTINUOUS
10
1.1989527559055118
20
0.5548779921259842
11
1.1988951181102363
21
0.5542927165354331
0
LINE
8
BLACK
6
CONTINUOUS
10
1.1988951181102363
20
0.5542927165354331
11
1.1984471653543307
21
0.5532112992125984
0
LINE
8
BLACK
6
CONTINUOUS
10
1.1984471653543307
20
0.5532112992125984
11
1.1976194488188976
21
0.5523835826771654
0
LINE
8
BLACK
6
CONTINUOUS
10
1.1976194488188976
20
0.5523835826771654
11
1.196538031496063
21
0.5519356299212599
0
LINE
8
BLACK
6
CONTINUOUS
10
1.196538031496063
20
0.5519356299212599
11
1.1959527559055119
21
0.5518779921259842
0
LINE
8
BLACK
6
CONTINUOUS
10
1.1959527559055119
20
0.5518779921259842
11
1.1619527559055118
21
0.5518779921259842
0
LINE
8
BLACK
6
CONTINUOUS
10
1.1619527559055118
20
0.5518779921259842
11
1.1613674803149605
21
0.5519356299212599
0
LINE
8
BLACK
6
CONTINUOUS
10
1.1613674803149605
20
0.5519356299212599
11
1.1602860629921259
21
0.5523835826771654
0
LINE
8
BLACK
6
CONTINUOUS
10
1.1602860629921259
20
0.5523835826771654
11
1.159458346456693
21
0.5532112992125984
0
LINE
8
BLACK
6
CONTINUOUS
10
1.159458346456693
20
0.5532112992125984
11
1.1590103937007874
21
0.5542927165354331
0
LINE
8
BLACK
6
CONTINUOUS
10
1.1590103937007874
20
0.5542927165354331
11
1.1589527559055117
21
0.5548779921259842
0
LINE
8
BLACK
6
CONTINUOUS
10
1.1589527559055117
20
0.5548779921259842
11
1.1589527559055117
21
0.5608779921259842
0
LINE
8
BLACK
6
CONTINUOUS
10
1.1589527559055117
20
0.5608779921259842
11
1.1264527559055117
21
0.5608779921259842
0
LINE
8
BLACK
6
CONTINUOUS
10
1.1264527559055117
20
0.5608779921259842
11
1.1258674803149606
21
0.5609356299212598
0
LINE
8
BLACK
6
CONTINUOUS
10
1.1258674803149606
20
0.5609356299212598
11
1.124786062992126
21
0.5613835826771654
0
LINE
8
BLACK
6
CONTINUOUS
10
1.124786062992126
20
0.5613835826771654
11
1.1239583464566929
21
0.5622112992125984
0
LINE
8
BLACK
6
CONTINUOUS
10
1.1239583464566929
20
0.5622112992125984
11
1.1235103937007873
21
0.5632927165354331
0
LINE
8
BLACK
6
CONTINUOUS
10
1.1235103937007873
20
0.5632927165354331
11
1.1234527559055119
21
0.5638779921259842
0
LINE
8
BLACK
6
CONTINUOUS
10
1.1234527559055119
20
0.5638779921259842
11
1.1234527559055119
21
0.5813779921259843
0
LINE
8
BLACK
6
CONTINUOUS
10
1.1234527559055119
20
0.5813779921259843
11
1.1174527559055119
21
0.5813779921259843
0
LINE
8
BLACK
6
CONTINUOUS
10
1.1174527559055119
20
0.5813779921259843
11
1.1168674803149605
21
0.5814356299212599
0
LINE
8
BLACK
6
CONTINUOUS
10
1.1168674803149605
20
0.5814356299212599
11
1.1157860629921259
21
0.5818835826771653
0
LINE
8
BLACK
6
CONTINUOUS
10
1.1157860629921259
20
0.5818835826771653
11
1.1149583464566928
21
0.5827112992125985
0
LINE
8
BLACK
6
CONTINUOUS
10
1.1149583464566928
20
0.5827112992125985
11
1.1145103937007874
21
0.5837927165354331
0
LINE
8
BLACK
6
CONTINUOUS
10
1.1145103937007874
20
0.5837927165354331
11
1.1144527559055117
21
0.5843779921259843
0
LINE
8
BLACK
6
CONTINUOUS
10
1.1144527559055117
20
0.5843779921259843
11
1.1144527559055117
21
0.6183779921259842
0
LINE
8
BLACK
6
CONTINUOUS
10
1.1144527559055117
20
0.6183779921259842
11
1.1145103937007874
21
0.6189632677165354
0
LINE
8
BLACK
6
CONTINUOUS
10
1.1145103937007874
20
0.6189632677165354
11
1.1149583464566928
21
0.62004468503937
0
LINE
8
BLACK
6
CONTINUOUS
10
1.1149583464566928
20
0.62004468503937
11
1.1157860629921259
21
0.6208724015748032
0
LINE
8
BLACK
6
CONTINUOUS
10
1.1157860629921259
20
0.6208724015748032
11
1.1168674803149605
21
0.6213203543307086
0
LINE
8
BLACK
6
CONTINUOUS
10
1.1168674803149605
20
0.6213203543307086
11
1.1174527559055119
21
0.6213779921259842
0
LINE
8
BLACK
6
CONTINUOUS
10
1.1174527559055119
20
0.6213779921259842
11
1.1234527559055119
21
0.6213779921259842
0
LINE
8
BLACK
6
CONTINUOUS
10
1.1234527559055119
20
0.6213779921259842
11
1.1234527559055119
21
0.6388779921259843
0
LINE
8
BLACK
6
CONTINUOUS
10
1.1234527559055119
20
0.6388779921259843
11
1.1235103937007873
21
0.6394632677165354
0
LINE
8
BLACK
6
CONTINUOUS
10
1.1235103937007873
20
0.6394632677165354
11
1.1239583464566929
21
0.64054468503937
0
LINE
8
BLACK
6
CONTINUOUS
10
1.1239583464566929
20
0.64054468503937
11
1.124786062992126
21
0.6413724015748031
0
LINE
8
BLACK
6
CONTINUOUS
10
1.124786062992126
20
0.6413724015748031
11
1.1258674803149606
21
0.6418203543307086
0
LINE
8
BLACK
6
CONTINUOUS
10
1.1258674803149606
20
0.6418203543307086
11
1.1264527559055117
21
0.6418779921259843
0
LINE
8
BLACK
6
CONTINUOUS
10
1.1264527559055117
20
0.6418779921259843
11
1.1589527559055117
21
0.6418779921259843
0
LINE
8
BLACK
6
CONTINUOUS
10
1.1589527559055117
20
0.6418779921259843
11
1.1589527559055117
21
0.6478779921259843
0
LINE
8
BLACK
6
CONTINUOUS
10
1.1589527559055117
20
0.6478779921259843
11
1.1590103937007874
21
0.6484632677165354
0
LINE
8
BLACK
6
CONTINUOUS
10
1.1590103937007874
20
0.6484632677165354
11
1.159458346456693
21
0.64954468503937
0
LINE
8
BLACK
6
CONTINUOUS
10
1.159458346456693
20
0.64954468503937
11
1.1602860629921259
21
0.6503724015748031
0
LINE
8
BLACK
6
CONTINUOUS
10
1.1602860629921259
20
0.6503724015748031
11
1.1613674803149605
21
0.6508203543307086
0
LINE
8
BLACK
6
CONTINUOUS
10
1.1613674803149605
20
0.6508203543307086
11
1.1619527559055118
21
0.6508779921259842
0
LINE
8
BLACK
6
CONTINUOUS
10
1.1619527559055118
20
0.6508779921259842
11
1.1959527559055119
21
0.6508779921259842
0
LINE
8
BLACK
6
CONTINUOUS
10
1.1959527559055119
20
0.6508779921259842
11
1.196538031496063
21
0.6508203543307086
0
LINE
8
BLACK
6
CONTINUOUS
10
1.1649527559055117
20
0.6448779921259843
11
1.1649527559055117
21
0.6388779921259843
0
LINE
8
BLACK
6
CONTINUOUS
10
1.1649527559055117
20
0.6388779921259843
11
1.1648951181102363
21
0.6382927165354331
0
LINE
8
BLACK
6
CONTINUOUS
10
1.1648951181102363
20
0.6382927165354331
11
1.1644471653543307
21
0.6372112992125984
0
LINE
8
BLACK
6
CONTINUOUS
10
1.1644471653543307
20
0.6372112992125984
11
1.1636194488188976
21
0.6363835826771653
0
LINE
8
BLACK
6
CONTINUOUS
10
1.1636194488188976
20
0.6363835826771653
11
1.1625380314960629
21
0.6359356299212598
0
LINE
8
BLACK
6
CONTINUOUS
10
1.1625380314960629
20
0.6359356299212598
11
1.1619527559055118
21
0.6358779921259843
0
LINE
8
BLACK
6
CONTINUOUS
10
1.1619527559055118
20
0.6358779921259843
11
1.1294527559055119
21
0.6358779921259843
0
LINE
8
BLACK
6
CONTINUOUS
10
1.1294527559055119
20
0.6358779921259843
11
1.1294527559055119
21
0.6183779921259842
0
LINE
8
BLACK
6
CONTINUOUS
10
1.1294527559055119
20
0.6183779921259842
11
1.1293951181102362
21
0.6177927165354331
0
LINE
8
BLACK
6
CONTINUOUS
10
1.1293951181102362
20
0.6177927165354331
11
1.1289471653543306
21
0.6167112992125984
0
LINE
8
BLACK
6
CONTINUOUS
10
1.1289471653543306
20
0.6167112992125984
11
1.1281194488188977
21
0.6158835826771654
0
LINE
8
BLACK
6
CONTINUOUS
10
1.1281194488188977
20
0.6158835826771654
11
1.1270380314960631
21
0.6154356299212598
0
LINE
8
BLACK
6
CONTINUOUS
10
1.1270380314960631
20
0.6154356299212598
11
1.1264527559055117
21
0.6153779921259842
0
LINE
8
BLACK
6
CONTINUOUS
10
1.1264527559055117
20
0.6153779921259842
11
1.1204527559055117
21
0.6153779921259842
0
LINE
8
BLACK
6
CONTINUOUS
10
1.1204527559055117
20
0.6153779921259842
11
1.1204527559055117
21
0.5873779921259843
0
LINE
8
BLACK
6
CONTINUOUS
10
1.1204527559055117
20
0.5873779921259843
11
1.1264527559055117
21
0.5873779921259843
0
LINE
8
BLACK
6
CONTINUOUS
10
1.1264527559055117
20
0.5873779921259843
11
1.1270380314960631
21
0.5873203543307086
0
LINE
8
BLACK
6
CONTINUOUS
10
1.1270380314960631
20
0.5873203543307086
11
1.1281194488188977
21
0.5868724015748031
0
LINE
8
BLACK
6
CONTINUOUS
10
1.1281194488188977
20
0.5868724015748031
11
1.1289471653543306
21
0.58604468503937
0
LINE
8
BLACK
6
CONTINUOUS
10
1.1289471653543306
20
0.58604468503937
11
1.1293951181102362
21
0.5849632677165354
0
LINE
8
BLACK
6
CONTINUOUS
10
1.1293951181102362
20
0.5849632677165354
11
1.1294527559055119
21
0.5843779921259843
0
LINE
8
BLACK
6
CONTINUOUS
10
1.1294527559055119
20
0.5843779921259843
11
1.1294527559055119
21
0.5668779921259842
0
LINE
8
BLACK
6
CONTINUOUS
10
1.1294527559055119
20
0.5668779921259842
11
1.1619527559055118
21
0.5668779921259842
0
LINE
8
BLACK
6
CONTINUOUS
10
1.1619527559055118
20
0.5668779921259842
11
1.1625380314960629
21
0.5668203543307087
0
LINE
8
BLACK
6
CONTINUOUS
10
1.1625380314960629
20
0.5668203543307087
11
1.1636194488188976
21
0.5663724015748032
0
LINE
8
BLACK
6
CONTINUOUS
10
1.1636194488188976
20
0.5663724015748032
11
1.1644471653543307
21
0.5655446850393701
0
LINE
8
BLACK
6
CONTINUOUS
10
1.1644471653543307
20
0.5655446850393701
11
1.1648951181102363
21
0.5644632677165354
0
LINE
8
BLACK
6
CONTINUOUS
10
1.1648951181102363
20
0.5644632677165354
11
1.1649527559055117
21
0.5638779921259842
0
LINE
8
BLACK
6
CONTINUOUS
10
1.1649527559055117
20
0.5638779921259842
11
1.1649527559055117
21
0.5578779921259842
0
LINE
8
BLACK
6
CONTINUOUS
10
1.1649527559055117
20
0.5578779921259842
11
1.1929527559055118
21
0.5578779921259842
0
LINE
8
BLACK
6
CONTINUOUS
10
1.1929527559055118
20
0.5578779921259842
11
1.1929527559055118
21
0.5638779921259842
0
LINE
8
BLACK
6
CONTINUOUS
10
1.1929527559055118
20
0.5638779921259842
11
1.1930103937007874
21
0.5644632677165354
0
LINE
8
BLACK
6
CONTINUOUS
10
1.1930103937007874
20
0.5644632677165354
11
1.1934583464566928
21
0.5655446850393701
0
LINE
8
BLACK
6
CONTINUOUS
10
1.1934583464566928
20
0.5655446850393701
11
1.1942860629921259
21
0.5663724015748032
0
LINE
8
BLACK
6
CONTINUOUS
10
1.1942860629921259
20
0.5663724015748032
11
1.1953674803149605
21
0.5668203543307087
0
LINE
8
BLACK
6
CONTINUOUS
10
1.1953674803149605
20
0.5668203543307087
11
1.1959527559055119
21
0.5668779921259842
0
LINE
8
BLACK
6
CONTINUOUS
10
1.1959527559055119
20
0.5668779921259842
11
1.2284527559055118
21
0.5668779921259842
0
LINE
8
BLACK
6
CONTINUOUS
10
1.2284527559055118
20
0.5668779921259842
11
1.2284527559055118
21
0.5843779921259843
0
LINE
8
BLACK
6
CONTINUOUS
10
1.2284527559055118
20
0.5843779921259843
11
1.2284818897637795
21
0.5846741338582677
0
LINE
8
BLACK
6
CONTINUOUS
10
1.2284818897637795
20
0.5846741338582677
11
1.2284762992125984
21
0.584753188976378
0
LINE
8
BLACK
6
CONTINUOUS
10
1.2284762992125984
20
0.584753188976378
11
1.2284953149606299
21
0.5848102755905512
0
LINE
8
BLACK
6
CONTINUOUS
10
1.2284953149606299
20
0.5848102755905512
11
1.2285103937007873
21
0.5849632677165354
0
LINE
8
BLACK
6
CONTINUOUS
10
1.2285103937007873
20
0.5849632677165354
11
1.2286943307086613
21
0.5854073622047244
0
LINE
8
BLACK
6
CONTINUOUS
10
1.2286943307086613
20
0.5854073622047244
11
1.2288464566929134
21
0.5858637007874016
0
LINE
8
BLACK
6
CONTINUOUS
10
1.2288464566929134
20
0.5858637007874016
11
1.228917125984252
21
0.5859451968503937
0
LINE
8
BLACK
6
CONTINUOUS
10
1.228917125984252
20
0.5859451968503937
11
1.2289583464566929
21
0.58604468503937
0
LINE
8
BLACK
6
CONTINUOUS
10
1.2289583464566929
20
0.58604468503937
11
1.2292982677165354
21
0.5863846456692913
0
LINE
8
BLACK
6
CONTINUOUS
10
1.2292982677165354
20
0.5863846456692913
11
1.2296134251968505
21
0.5867479527559055
0
LINE
8
BLACK
6
CONTINUOUS
10
1.2296134251968505
20
0.5867479527559055
11
1.2297098031496063
21
0.5867961811023622
0
LINE
8
BLACK
6
CONTINUOUS
10
1.2297098031496063
20
0.5867961811023622
11
1.229786062992126
21
0.5868724015748031
0
LINE
8
BLACK
6
CONTINUOUS
10
1.229786062992126
20
0.5868724015748031
11
1.2302304724409447
21
0.5870564960629922
0
LINE
8
BLACK
6
CONTINUOUS
10
1.2302304724409447
20
0.5870564960629922
11
1.2306603937007874
21
0.5872714566929134
0
LINE
8
BLACK
6
CONTINUOUS
10
1.2306603937007874
20
0.5872714566929134
11
1.2307678740157479
21
0.5872791338582677
0
LINE
8
BLACK
6
CONTINUOUS
10
1.2307678740157479
20
0.5872791338582677
11
1.2308674803149606
21
0.5873203543307086
0
LINE
8
BLACK
6
CONTINUOUS
10
1.2308674803149606
20
0.5873203543307086
11
1.2313483070866142
21
0.5873203543307086
0
LINE
8
BLACK
6
CONTINUOUS
10
1.2313483070866142
20
0.5873203543307086
11
1.2318279527559055
21
0.5873544488188976
0
LINE
8
BLACK
6
CONTINUOUS
10
1.2318279527559055
20
0.5873544488188976
11
1.2319779133858269
21
0.5873203543307086
0
LINE
8
BLACK
6
CONTINUOUS
10
1.2319779133858269
20
0.5873203543307086
11
1.2320380314960631
21
0.5873203543307086
0
LINE
8
BLACK
6
CONTINUOUS
10
1.2320380314960631
20
0.5873203543307086
11
1.2321111811023622
21
0.5872900787401575
0
LINE
8
BLACK
6
CONTINUOUS
10
1.2321111811023622
20
0.5872900787401575
11
1.2324014566929133
21
0.5872240551181103
0
LINE
8
BLACK
6
CONTINUOUS
10
1.2324014566929133
20
0.5872240551181103
11
1.2374527559055117
21
0.5855403149606299
0
LINE
8
BLACK
6
CONTINUOUS
10
1.2374527559055117
20
0.5855403149606299
11
1.2374527559055117
21
0.6153779921259842
0
LINE
8
BLACK
6
CONTINUOUS
10
1.2374527559055117
20
0.6153779921259842
11
1.2314527559055117
21
0.6153779921259842
0
LINE
8
BLACK
6
CONTINUOUS
10
1.2314527559055117
20
0.6153779921259842
11
1.2308674803149606
21
0.6154356299212598
0
LINE
8
BLACK
6
CONTINUOUS
10
1.2308674803149606
20
0.6154356299212598
11
1.229786062992126
21
0.6158835826771654
0
LINE
8
BLACK
6
CONTINUOUS
10
1.229786062992126
20
0.6158835826771654
11
1.2289583464566929
21
0.6167112992125984
0
LINE
8
BLACK
6
CONTINUOUS
10
1.2289583464566929
20
0.6167112992125984
11
1.2285103937007873
21
0.6177927165354331
0
LINE
8
BLACK
6
CONTINUOUS
10
1.2285103937007873
20
0.6177927165354331
11
1.2284527559055118
21
0.6183779921259842
0
LINE
8
BLACK
6
CONTINUOUS
10
1.2284527559055118
20
0.6183779921259842
11
1.2284527559055118
21
0.6358779921259843
0
LINE
8
BLACK
6
CONTINUOUS
10
1.2284527559055118
20
0.6358779921259843
11
1.1959527559055119
21
0.6358779921259843
0
LINE
8
BLACK
6
CONTINUOUS
10
1.1959527559055119
20
0.6358779921259843
11
1.1953674803149605
21
0.6359356299212598
0
LINE
8
BLACK
6
CONTINUOUS
10
1.1953674803149605
20
0.6359356299212598
11
1.1942860629921259
21
0.6363835826771653
0
LINE
8
BLACK
6
CONTINUOUS
10
1.1942860629921259
20
0.6363835826771653
11
1.1934583464566928
21
0.6372112992125984
0
LINE
8
BLACK
6
CONTINUOUS
10
1.1934583464566928
20
0.6372112992125984
11
1.1930103937007874
21
0.6382927165354331
0
LINE
8
BLACK
6
CONTINUOUS
10
1.1930103937007874
20
0.6382927165354331
11
1.1929527559055118
21
0.6388779921259843
0
LINE
8
BLACK
6
CONTINUOUS
10
1.1929527559055118
20
0.6388779921259843
11
1.1929527559055118
21
0.6448779921259843
0
LINE
8
BLACK
6
CONTINUOUS
10
1.1929527559055118
20
0.6448779921259843
11
1.1649527559055117
21
0.6448779921259843
0
LINE
8
BLACK
6
CONTINUOUS
10
1.2824396456692913
20
0.7048070078740157
11
1.2829723228346457
21
0.7042743307086614
0
LINE
8
BLACK
6
CONTINUOUS
10
1.2829723228346457
20
0.7042743307086614
11
1.2830472440944882
21
0.7038976771653543
0
LINE
8
BLACK
6
CONTINUOUS
10
1.2830472440944882
20
0.7038976771653543
11
1.2830472440944882
21
0.6198661811023622
0
LINE
8
BLACK
6
CONTINUOUS
10
1.2830472440944882
20
0.6198661811023622
11
1.2948582677165354
21
0.6198661811023622
0
LINE
8
BLACK
6
CONTINUOUS
10
1.2948582677165354
20
0.6198661811023622
11
1.2948582677165354
21
0.7038976771653543
0
LINE
8
BLACK
6
CONTINUOUS
10
1.2948582677165354
20
0.7038976771653543
11
1.294933188976378
21
0.7042743307086614
0
LINE
8
BLACK
6
CONTINUOUS
10
1.294933188976378
20
0.7042743307086614
11
1.2954658661417322
21
0.7048070078740157
0
LINE
8
BLACK
6
CONTINUOUS
10
1.2954658661417322
20
0.7048070078740157
11
1.2958425196850394
21
0.7048819291338583
0
LINE
8
BLACK
6
CONTINUOUS
10
1.2958425196850394
20
0.7048819291338583
11
1.3320629921259841
21
0.7048819291338583
0
LINE
8
BLACK
6
CONTINUOUS
10
1.3320629921259841
20
0.7048819291338583
11
1.3324396456692913
21
0.7048070078740157
0
LINE
8
BLACK
6
CONTINUOUS
10
1.3324396456692913
20
0.7048070078740157
11
1.3329723228346457
21
0.7042743307086614
0
LINE
8
BLACK
6
CONTINUOUS
10
1.3329723228346457
20
0.7042743307086614
11
1.333047244094488
21
0.7038976771653543
0
LINE
8
BLACK
6
CONTINUOUS
10
1.333047244094488
20
0.7038976771653543
11
1.333047244094488
21
0.6193805118110236
0
LINE
8
BLACK
6
CONTINUOUS
10
1.333047244094488
20
0.6193805118110236
11
1.3331691732283464
21
0.6192585826771654
0
LINE
8
BLACK
6
CONTINUOUS
10
1.3331691732283464
20
0.6192585826771654
11
1.3332440944881889
21
0.6188819291338582
0
LINE
8
BLACK
6
CONTINUOUS
10
1.3332440944881889
20
0.6188819291338582
11
1.3332440944881889
21
0.5818740551181102
0
LINE
8
BLACK
6
CONTINUOUS
10
1.3332440944881889
20
0.5818740551181102
11
1.3331691732283464
21
0.5814974015748031
0
LINE
8
BLACK
6
CONTINUOUS
10
1.3331691732283464
20
0.5814974015748031
11
1.3326364960629922
21
0.5809647244094488
0
LINE
8
BLACK
6
CONTINUOUS
10
1.3326364960629922
20
0.5809647244094488
11
1.332259842519685
21
0.5808898031496063
0
LINE
8
BLACK
6
CONTINUOUS
10
1.332259842519685
20
0.5808898031496063
11
1.2456456692913385
21
0.5808898031496063
0
LINE
8
BLACK
6
CONTINUOUS
10
1.2456456692913385
20
0.5808898031496063
11
1.2452690157480315
21
0.5809647244094488
0
LINE
8
BLACK
6
CONTINUOUS
10
1.2452690157480315
20
0.5809647244094488
11
1.2447363385826771
21
0.5814974015748031
0
LINE
8
BLACK
6
CONTINUOUS
10
1.2447363385826771
20
0.5814974015748031
11
1.2446614173228345
21
0.5818740551181102
0
LINE
8
BLACK
6
CONTINUOUS
10
1.2446614173228345
20
0.5818740551181102
11
1.2446614173228345
21
0.6188819291338582
0
LINE
8
BLACK
6
CONTINUOUS
10
1.2446614173228345
20
0.6188819291338582
11
1.2447363385826771
21
0.6192585826771654
0
LINE
8
BLACK
6
CONTINUOUS
10
1.2447363385826771
20
0.6192585826771654
11
1.2448582677165354
21
0.6193805118110236
0
LINE
8
BLACK
6
CONTINUOUS
10
1.2448582677165354
20
0.6193805118110236
11
1.2448582677165354
21
0.7038976771653543
0
LINE
8
BLACK
6
CONTINUOUS
10
1.2448582677165354
20
0.7038976771653543
11
1.2449331889763779
21
0.7042743307086614
0
LINE
8
BLACK
6
CONTINUOUS
10
1.2449331889763779
20
0.7042743307086614
11
1.2454658661417322
21
0.7048070078740157
0
LINE
8
BLACK
6
CONTINUOUS
10
1.2454658661417322
20
0.7048070078740157
11
1.2458425196850393
21
0.7048819291338583
0
LINE
8
BLACK
6
CONTINUOUS
10
1.2458425196850393
20
0.7048819291338583
11
1.2820629921259843
21
0.7048819291338583
0
LINE
8
BLACK
6
CONTINUOUS
10
1.2820629921259843
20
0.7048819291338583
11
1.2824396456692913
21
0.7048070078740157
0
LINE
8
BLACK
6
CONTINUOUS
10
1.2821817322834645
20
0.6178976771653543
11
1.2820629921259843
21
0.6178740551181102
0
LINE
8
BLACK
6
CONTINUOUS
10
1.2820629921259843
20
0.6178740551181102
11
1.2466299212598424
21
0.6178740551181102
0
LINE
8
BLACK
6
CONTINUOUS
10
1.2466299212598424
20
0.6178740551181102
11
1.2466299212598424
21
0.5828583070866141
0
LINE
8
BLACK
6
CONTINUOUS
10
1.2466299212598424
20
0.5828583070866141
11
1.3312755905511811
21
0.5828583070866141
0
LINE
8
BLACK
6
CONTINUOUS
10
1.3312755905511811
20
0.5828583070866141
11
1.3312755905511811
21
0.6178740551181102
0
LINE
8
BLACK
6
CONTINUOUS
10
1.3312755905511811
20
0.6178740551181102
11
1.2958425196850394
21
0.6178740551181102
0
LINE
8
BLACK
6
CONTINUOUS
10
1.2958425196850394
20
0.6178740551181102
11
1.2957237795275591
21
0.6178976771653543
0
LINE
8
BLACK
6
CONTINUOUS
10
1.2957237795275591
20
0.6178976771653543
11
1.2821817322834645
21
0.6178976771653543
0
LINE
8
BLACK
6
CONTINUOUS
10
1.2468267716535433
20
0.7029134251968504
11
1.2468267716535433
21
0.6198661811023622
0
LINE
8
BLACK
6
CONTINUOUS
10
1.2468267716535433
20
0.6198661811023622
11
1.2810787401574804
21
0.6198661811023622
0
LINE
8
BLACK
6
CONTINUOUS
10
1.2810787401574804
20
0.6198661811023622
11
1.2810787401574804
21
0.7029134251968504
0
LINE
8
BLACK
6
CONTINUOUS
10
1.2810787401574804
20
0.7029134251968504
11
1.2468267716535433
21
0.7029134251968504
0
LINE
8
BLACK
6
CONTINUOUS
10
1.2968267716535433
20
0.7029134251968504
11
1.2968267716535433
21
0.6198661811023622
0
LINE
8
BLACK
6
CONTINUOUS
10
1.2968267716535433
20
0.6198661811023622
11
1.3310787401574802
21
0.6198661811023622
0
LINE
8
BLACK
6
CONTINUOUS
10
1.3310787401574802
20
0.6198661811023622
11
1.3310787401574802
21
0.7029134251968504
0
LINE
8
BLACK
6
CONTINUOUS
10
1.3310787401574802
20
0.7029134251968504
11
1.2968267716535433
21
0.7029134251968504
0
LINE
8
BLACK
6
CONTINUOUS
10
1.1058490944881889
20
0.6213975590551181
11
1.1063817716535433
21
0.6208648818897637
0
LINE
8
BLACK
6
CONTINUOUS
10
1.1063817716535433
20
0.6208648818897637
11
1.1064566929133859
21
0.6204882283464567
0
LINE
8
BLACK
6
CONTINUOUS
10
1.1064566929133859
20
0.6204882283464567
11
1.1064566929133859
21
0.5842677559055118
0
LINE
8
BLACK
6
CONTINUOUS
10
1.1064566929133859
20
0.5842677559055118
11
1.1063817716535433
21
0.5838911023622048
0
LINE
8
BLACK
6
CONTINUOUS
10
1.1063817716535433
20
0.5838911023622048
11
1.1058490944881889
21
0.5833584251968503
0
LINE
8
BLACK
6
CONTINUOUS
10
1.1058490944881889
20
0.5833584251968503
11
1.105472440944882
21
0.5832835039370079
0
LINE
8
BLACK
6
CONTINUOUS
10
1.105472440944882
20
0.5832835039370079
11
1.0204330708661418
21
0.5832835039370079
0
LINE
8
BLACK
6
CONTINUOUS
10
1.0204330708661418
20
0.5832835039370079
11
1.0200564173228346
21
0.5833584251968503
0
LINE
8
BLACK
6
CONTINUOUS
10
1.0200564173228346
20
0.5833584251968503
11
1.0195237401574804
21
0.5838911023622048
0
LINE
8
BLACK
6
CONTINUOUS
10
1.0195237401574804
20
0.5838911023622048
11
1.0194488188976378
21
0.5842677559055118
0
LINE
8
BLACK
6
CONTINUOUS
10
1.0194488188976378
20
0.5842677559055118
11
1.0194488188976378
21
0.6204882283464567
0
LINE
8
BLACK
6
CONTINUOUS
10
1.0194488188976378
20
0.6204882283464567
11
1.0195237401574804
21
0.6208648818897637
0
LINE
8
BLACK
6
CONTINUOUS
10
1.0195237401574804
20
0.6208648818897637
11
1.0200564173228346
21
0.6213975590551181
0
LINE
8
BLACK
6
CONTINUOUS
10
1.0200564173228346
20
0.6213975590551181
11
1.0204330708661418
21
0.6214724803149606
0
LINE
8
BLACK
6
CONTINUOUS
10
1.0204330708661418
20
0.6214724803149606
11
1.105472440944882
21
0.6214724803149606
0
LINE
8
BLACK
6
CONTINUOUS
10
1.105472440944882
20
0.6214724803149606
11
1.1058490944881889
21
0.6213975590551181
0
LINE
8
BLACK
6
CONTINUOUS
10
1.0214173228346457
20
0.6195039763779527
11
1.0214173228346457
21
0.5852520078740158
0
LINE
8
BLACK
6
CONTINUOUS
10
1.0214173228346457
20
0.5852520078740158
11
1.104488188976378
21
0.5852520078740158
0
LINE
8
BLACK
6
CONTINUOUS
10
1.104488188976378
20
0.5852520078740158
11
1.104488188976378
21
0.6195039763779527
0
LINE
8
BLACK
6
CONTINUOUS
10
1.104488188976378
20
0.6195039763779527
11
1.0214173228346457
21
0.6195039763779527
0
LINE
8
BLACK
6
CONTINUOUS
10
1.2097909448818898
20
0.7831591338582677
11
1.2101102755905511
21
0.7829457874015748
0
LINE
8
BLACK
6
CONTINUOUS
10
1.2101102755905511
20
0.7829457874015748
11
1.2357220078740156
21
0.7573340157480315
0
LINE
8
BLACK
6
CONTINUOUS
10
1.2357220078740156
20
0.7573340157480315
11
1.2359353543307086
21
0.7570147244094488
0
LINE
8
BLACK
6
CONTINUOUS
10
1.2359353543307086
20
0.7570147244094488
11
1.2359353543307086
21
0.7562614173228346
0
LINE
8
BLACK
6
CONTINUOUS
10
1.2359353543307086
20
0.7562614173228346
11
1.2357220078740156
21
0.7559420866141732
0
LINE
8
BLACK
6
CONTINUOUS
10
1.2357220078740156
20
0.7559420866141732
11
1.1755901181102362
21
0.6958101968503937
0
LINE
8
BLACK
6
CONTINUOUS
10
1.1755901181102362
20
0.6958101968503937
11
1.1752707874015749
21
0.6955968503937008
0
LINE
8
BLACK
6
CONTINUOUS
10
1.1752707874015749
20
0.6955968503937008
11
1.1745174803149605
21
0.6955968503937008
0
LINE
8
BLACK
6
CONTINUOUS
10
1.1745174803149605
20
0.6955968503937008
11
1.174198188976378
21
0.6958101968503937
0
LINE
8
BLACK
6
CONTINUOUS
10
1.174198188976378
20
0.6958101968503937
11
1.1485864173228346
21
0.7214219291338583
0
LINE
8
BLACK
6
CONTINUOUS
10
1.1485864173228346
20
0.7214219291338583
11
1.1483730708661417
21
0.7217412598425197
0
LINE
8
BLACK
6
CONTINUOUS
10
1.1483730708661417
20
0.7217412598425197
11
1.1483730708661417
21
0.7224945669291338
0
LINE
8
BLACK
6
CONTINUOUS
10
1.1483730708661417
20
0.7224945669291338
11
1.1485864173228346
21
0.7228138976377952
0
LINE
8
BLACK
6
CONTINUOUS
10
1.1485864173228346
20
0.7228138976377952
11
1.2087183070866141
21
0.7829457874015748
0
LINE
8
BLACK
6
CONTINUOUS
10
1.2087183070866141
20
0.7829457874015748
11
1.2090376377952756
21
0.7831591338582677
0
LINE
8
BLACK
6
CONTINUOUS
10
1.2090376377952756
20
0.7831591338582677
11
1.2097909448818898
21
0.7831591338582677
0
LINE
8
BLACK
6
CONTINUOUS
10
1.1506743307086613
20
0.7221179133858268
11
1.1748940944881889
21
0.6978981496062991
0
LINE
8
BLACK
6
CONTINUOUS
10
1.1748940944881889
20
0.6978981496062991
11
1.2336340551181102
21
0.7566381102362204
0
LINE
8
BLACK
6
CONTINUOUS
10
1.2336340551181102
20
0.7566381102362204
11
1.2094142913385826
21
0.780857874015748
0
LINE
8
BLACK
6
CONTINUOUS
10
1.2094142913385826
20
0.780857874015748
11
1.1506743307086613
21
0.7221179133858268
0
LINE
8
BLACK
6
CONTINUOUS
10
0.6498490944881889
20
0.7423975590551181
11
0.6503817716535433
21
0.7418648818897637
0
LINE
8
BLACK
6
CONTINUOUS
10
0.6503817716535433
20
0.7418648818897637
11
0.6504566929133858
21
0.7414882283464567
0
LINE
8
BLACK
6
CONTINUOUS
10
0.6504566929133858
20
0.7414882283464567
11
0.6504566929133858
21
0.7052677559055118
0
LINE
8
BLACK
6
CONTINUOUS
10
0.6504566929133858
20
0.7052677559055118
11
0.6503817716535433
21
0.7048911023622048
0
LINE
8
BLACK
6
CONTINUOUS
10
0.6503817716535433
20
0.7048911023622048
11
0.6498490944881889
21
0.7043584251968503
0
LINE
8
BLACK
6
CONTINUOUS
10
0.6498490944881889
20
0.7043584251968503
11
0.6494724409448819
21
0.7042835039370079
0
LINE
8
BLACK
6
CONTINUOUS
10
0.6494724409448819
20
0.7042835039370079
11
0.5644330708661417
21
0.7042835039370079
0
LINE
8
BLACK
6
CONTINUOUS
10
0.5644330708661417
20
0.7042835039370079
11
0.5640564173228346
21
0.7043584251968503
0
LINE
8
BLACK
6
CONTINUOUS
10
0.5640564173228346
20
0.7043584251968503
11
0.5635237401574803
21
0.7048911023622048
0
LINE
8
BLACK
6
CONTINUOUS
10
0.5635237401574803
20
0.7048911023622048
11
0.5634488188976378
21
0.7052677559055118
0
LINE
8
BLACK
6
CONTINUOUS
10
0.5634488188976378
20
0.7052677559055118
11
0.5634488188976378
21
0.7414882283464567
0
LINE
8
BLACK
6
CONTINUOUS
10
0.5634488188976378
20
0.7414882283464567
11
0.5635237401574803
21
0.7418648818897637
0
LINE
8
BLACK
6
CONTINUOUS
10
0.5635237401574803
20
0.7418648818897637
11
0.5640564173228346
21
0.7423975590551181
0
LINE
8
BLACK
6
CONTINUOUS
10
0.5640564173228346
20
0.7423975590551181
11
0.5644330708661417
21
0.7424724803149606
0
LINE
8
BLACK
6
CONTINUOUS
10
0.5644330708661417
20
0.7424724803149606
11
0.6494724409448819
21
0.7424724803149606
0
LINE
8
BLACK
6
CONTINUOUS
10
0.6494724409448819
20
0.7424724803149606
11
0.6498490944881889
21
0.7423975590551181
0
LINE
8
BLACK
6
CONTINUOUS
10
0.5654173228346456
20
0.7405039763779527
11
0.5654173228346456
21
0.7062520078740158
0
LINE
8
BLACK
6
CONTINUOUS
10
0.5654173228346456
20
0.7062520078740158
11
0.6484881889763779
21
0.7062520078740158
0
LINE
8
BLACK
6
CONTINUOUS
10
0.6484881889763779
20
0.7062520078740158
11
0.6484881889763779
21
0.7405039763779527
0
LINE
8
BLACK
6
CONTINUOUS
10
0.6484881889763779
20
0.7405039763779527
11
0.5654173228346456
21
0.7405039763779527
0
LINE
8
BLACK
6
CONTINUOUS
10
1.1134393307086614
20
0.8965877559055118
11
1.1137586614173227
21
0.8963744094488189
0
LINE
8
BLACK
6
CONTINUOUS
10
1.1137586614173227
20
0.8963744094488189
11
1.2084107480314961
21
0.8017223228346456
0
LINE
8
BLACK
6
CONTINUOUS
10
1.2084107480314961
20
0.8017223228346456
11
1.208624094488189
21
0.8014029921259842
0
LINE
8
BLACK
6
CONTINUOUS
10
1.208624094488189
20
0.8014029921259842
11
1.208624094488189
21
0.8006496850393701
0
LINE
8
BLACK
6
CONTINUOUS
10
1.208624094488189
20
0.8006496850393701
11
1.2084107480314961
21
0.8003303543307086
0
LINE
8
BLACK
6
CONTINUOUS
10
1.2084107480314961
20
0.8003303543307086
11
1.130461968503937
21
0.7223815748031496
0
LINE
8
BLACK
6
CONTINUOUS
10
1.130461968503937
20
0.7223815748031496
11
1.1301426377952755
21
0.7221682283464567
0
LINE
8
BLACK
6
CONTINUOUS
10
1.1301426377952755
20
0.7221682283464567
11
1.1293893307086613
21
0.7221682283464567
0
LINE
8
BLACK
6
CONTINUOUS
10
1.1293893307086613
20
0.7221682283464567
11
1.12907
21
0.7223815748031496
0
LINE
8
BLACK
6
CONTINUOUS
10
1.12907
20
0.7223815748031496
11
1.0344179133858267
21
0.8170336614173228
0
LINE
8
BLACK
6
CONTINUOUS
10
1.0344179133858267
20
0.8170336614173228
11
1.0342045669291338
21
0.8173529921259842
0
LINE
8
BLACK
6
CONTINUOUS
10
1.0342045669291338
20
0.8173529921259842
11
1.0342045669291338
21
0.8181062992125984
0
LINE
8
BLACK
6
CONTINUOUS
10
1.0342045669291338
20
0.8181062992125984
11
1.0344179133858267
21
0.8184256299212598
0
LINE
8
BLACK
6
CONTINUOUS
10
1.0344179133858267
20
0.8184256299212598
11
1.1123666929133857
21
0.8963744094488189
0
LINE
8
BLACK
6
CONTINUOUS
10
1.1123666929133857
20
0.8963744094488189
11
1.1126860236220473
21
0.8965877559055118
0
LINE
8
BLACK
6
CONTINUOUS
10
1.1126860236220473
20
0.8965877559055118
11
1.1134393307086614
21
0.8965877559055118
0
LINE
8
BLACK
6
CONTINUOUS
10
1.0365058661417323
20
0.8177296456692913
11
1.1297659842519685
21
0.7244695275590551
0
LINE
8
BLACK
6
CONTINUOUS
10
1.1297659842519685
20
0.7244695275590551
11
1.2063227952755906
21
0.8010263385826771
0
LINE
8
BLACK
6
CONTINUOUS
10
1.2063227952755906
20
0.8010263385826771
11
1.1130626771653542
21
0.8942864566929134
0
LINE
8
BLACK
6
CONTINUOUS
10
1.1130626771653542
20
0.8942864566929134
11
1.0365058661417323
21
0.8177296456692913
0
LINE
8
BLACK
6
CONTINUOUS
10
0.6506364960629921
20
0.7857912598425196
11
0.6511691732283464
21
0.7852585826771653
0
LINE
8
BLACK
6
CONTINUOUS
10
0.6511691732283464
20
0.7852585826771653
11
0.651244094488189
21
0.7848819291338582
0
LINE
8
BLACK
6
CONTINUOUS
10
0.651244094488189
20
0.7848819291338582
11
0.651244094488189
21
0.7478740551181102
0
LINE
8
BLACK
6
CONTINUOUS
10
0.651244094488189
20
0.7478740551181102
11
0.6511691732283464
21
0.7474974015748032
0
LINE
8
BLACK
6
CONTINUOUS
10
0.6511691732283464
20
0.7474974015748032
11
0.6506364960629921
21
0.7469647244094488
0
LINE
8
BLACK
6
CONTINUOUS
10
0.6506364960629921
20
0.7469647244094488
11
0.650259842519685
21
0.7468898031496063
0
LINE
8
BLACK
6
CONTINUOUS
10
0.650259842519685
20
0.7468898031496063
11
0.5636456692913385
21
0.7468898031496063
0
LINE
8
BLACK
6
CONTINUOUS
10
0.5636456692913385
20
0.7468898031496063
11
0.5632690157480315
21
0.7469647244094488
0
LINE
8
BLACK
6
CONTINUOUS
10
0.5632690157480315
20
0.7469647244094488
11
0.5627363385826771
21
0.7474974015748032
0
LINE
8
BLACK
6
CONTINUOUS
10
0.5627363385826771
20
0.7474974015748032
11
0.5626614173228346
21
0.7478740551181102
0
LINE
8
BLACK
6
CONTINUOUS
10
0.5626614173228346
20
0.7478740551181102
11
0.5626614173228346
21
0.7848819291338582
0
LINE
8
BLACK
6
CONTINUOUS
10
0.5626614173228346
20
0.7848819291338582
11
0.5627363385826771
21
0.7852585826771653
0
LINE
8
BLACK
6
CONTINUOUS
10
0.5627363385826771
20
0.7852585826771653
11
0.5632690157480315
21
0.7857912598425196
0
LINE
8
BLACK
6
CONTINUOUS
10
0.5632690157480315
20
0.7857912598425196
11
0.5636456692913385
21
0.7858661811023622
0
LINE
8
BLACK
6
CONTINUOUS
10
0.5636456692913385
20
0.7858661811023622
11
0.650259842519685
21
0.7858661811023622
0
LINE
8
BLACK
6
CONTINUOUS
10
0.650259842519685
20
0.7858661811023622
11
0.6506364960629921
21
0.7857912598425196
0
LINE
8
BLACK
6
CONTINUOUS
10
0.5646299212598425
20
0.7838976771653543
11
0.5646299212598425
21
0.7488583070866142
0
LINE
8
BLACK
6
CONTINUOUS
10
0.5646299212598425
20
0.7488583070866142
11
0.6492755905511811
21
0.7488583070866142
0
LINE
8
BLACK
6
CONTINUOUS
10
0.6492755905511811
20
0.7488583070866142
11
0.6492755905511811
21
0.7838976771653543
0
LINE
8
BLACK
6
CONTINUOUS
10
0.6492755905511811
20
0.7838976771653543
11
0.5646299212598425
21
0.7838976771653543
0
LINE
8
BLACK
6
CONTINUOUS
10
1.1660693307086614
20
0.9131591338582677
11
1.1663886614173229
21
0.9129457874015748
0
LINE
8
BLACK
6
CONTINUOUS
10
1.1663886614173229
20
0.9129457874015748
11
1.2265205511811024
21
0.8528138976377952
0
LINE
8
BLACK
6
CONTINUOUS
10
1.2265205511811024
20
0.8528138976377952
11
1.2267338976377953
21
0.8524945669291338
0
LINE
8
BLACK
6
CONTINUOUS
10
1.2267338976377953
20
0.8524945669291338
11
1.2267338976377953
21
0.8517412598425197
0
LINE
8
BLACK
6
CONTINUOUS
10
1.2267338976377953
20
0.8517412598425197
11
1.2265205511811024
21
0.851421968503937
0
LINE
8
BLACK
6
CONTINUOUS
10
1.2265205511811024
20
0.851421968503937
11
1.2009088188976378
21
0.8258101968503937
0
LINE
8
BLACK
6
CONTINUOUS
10
1.2009088188976378
20
0.8258101968503937
11
1.2005894881889763
21
0.8255968503937008
0
LINE
8
BLACK
6
CONTINUOUS
10
1.2005894881889763
20
0.8255968503937008
11
1.1998361811023621
21
0.8255968503937008
0
LINE
8
BLACK
6
CONTINUOUS
10
1.1998361811023621
20
0.8255968503937008
11
1.1995168503937008
21
0.8258101968503937
0
LINE
8
BLACK
6
CONTINUOUS
10
1.1995168503937008
20
0.8258101968503937
11
1.1393849606299213
21
0.8859420866141732
0
LINE
8
BLACK
6
CONTINUOUS
10
1.1393849606299213
20
0.8859420866141732
11
1.1391716141732284
21
0.8862614173228346
0
LINE
8
BLACK
6
CONTINUOUS
10
1.1391716141732284
20
0.8862614173228346
11
1.1391716141732284
21
0.8870147244094488
0
LINE
8
BLACK
6
CONTINUOUS
10
1.1391716141732284
20
0.8870147244094488
11
1.1393849606299213
21
0.8873340551181103
0
LINE
8
BLACK
6
CONTINUOUS
10
1.1393849606299213
20
0.8873340551181103
11
1.1649967322834645
21
0.9129457874015748
0
LINE
8
BLACK
6
CONTINUOUS
10
1.1649967322834645
20
0.9129457874015748
11
1.1653160236220472
21
0.9131591338582677
0
LINE
8
BLACK
6
CONTINUOUS
10
1.1653160236220472
20
0.9131591338582677
11
1.1660693307086614
21
0.9131591338582677
0
LINE
8
BLACK
6
CONTINUOUS
10
1.141472874015748
20
0.8866381102362204
11
1.2002128346456693
21
0.8278981496062991
0
LINE
8
BLACK
6
CONTINUOUS
10
1.2002128346456693
20
0.8278981496062991
11
1.2244325984251969
21
0.8521179133858268
0
LINE
8
BLACK
6
CONTINUOUS
10
1.2244325984251969
20
0.8521179133858268
11
1.1656926377952757
21
0.910857874015748
0
LINE
8
BLACK
6
CONTINUOUS
10
1.1656926377952757
20
0.910857874015748
11
1.141472874015748
21
0.8866381102362204
0
LINE
8
BLACK
6
CONTINUOUS
10
0.825105
20
0.9996731496062992
11
0.8256376771653543
21
0.9991404724409448
0
LINE
8
BLACK
6
CONTINUOUS
10
0.8256376771653543
20
0.9991404724409448
11
0.8257125984251968
21
0.9987638188976378
0
LINE
8
BLACK
6
CONTINUOUS
10
0.8257125984251968
20
0.9987638188976378
11
0.8257125984251968
21
0.9625433464566929
0
LINE
8
BLACK
6
CONTINUOUS
10
0.8257125984251968
20
0.9625433464566929
11
0.8256376771653543
21
0.9621666929133859
0
LINE
8
BLACK
6
CONTINUOUS
10
0.8256376771653543
20
0.9621666929133859
11
0.825105
21
0.9616340157480314
0
LINE
8
BLACK
6
CONTINUOUS
10
0.825105
20
0.9616340157480314
11
0.8247283464566929
21
0.961559094488189
0
LINE
8
BLACK
6
CONTINUOUS
10
0.8247283464566929
20
0.961559094488189
11
0.7396889763779527
21
0.961559094488189
0
LINE
8
BLACK
6
CONTINUOUS
10
0.7396889763779527
20
0.961559094488189
11
0.7393123228346457
21
0.9616340157480314
0
LINE
8
BLACK
6
CONTINUOUS
10
0.7393123228346457
20
0.9616340157480314
11
0.7387796456692913
21
0.9621666929133859
0
LINE
8
BLACK
6
CONTINUOUS
10
0.7387796456692913
20
0.9621666929133859
11
0.7387047244094488
21
0.9625433464566929
0
LINE
8
BLACK
6
CONTINUOUS
10
0.7387047244094488
20
0.9625433464566929
11
0.7387047244094488
21
0.9987638188976378
0
LINE
8
BLACK
6
CONTINUOUS
10
0.7387047244094488
20
0.9987638188976378
11
0.7387796456692913
21
0.9991404724409448
0
LINE
8
BLACK
6
CONTINUOUS
10
0.7387796456692913
20
0.9991404724409448
11
0.7393123228346457
21
0.9996731496062992
0
LINE
8
BLACK
6
CONTINUOUS
10
0.7393123228346457
20
0.9996731496062992
11
0.7396889763779527
21
0.9997480708661417
0
LINE
8
BLACK
6
CONTINUOUS
10
0.7396889763779527
20
0.9997480708661417
11
0.8247283464566929
21
0.9997480708661417
0
LINE
8
BLACK
6
CONTINUOUS
10
0.8247283464566929
20
0.9997480708661417
11
0.825105
21
0.9996731496062992
0
LINE
8
BLACK
6
CONTINUOUS
10
0.7406732283464567
20
0.9977795669291338
11
0.7406732283464567
21
0.9635275984251969
0
LINE
8
BLACK
6
CONTINUOUS
10
0.7406732283464567
20
0.9635275984251969
11
0.823744094488189
21
0.9635275984251969
0
LINE
8
BLACK
6
CONTINUOUS
10
0.823744094488189
20
0.9635275984251969
11
0.823744094488189
21
0.9977795669291338
0
LINE
8
BLACK
6
CONTINUOUS
10
0.823744094488189
20
0.9977795669291338
11
0.7406732283464567
21
0.9977795669291338
0
LINE
8
BLACK
6
CONTINUOUS
10
0.9684475196850394
20
1.0006731496062993
11
0.9689801968503937
21
1.0001404724409448
0
LINE
8
BLACK
6
CONTINUOUS
10
0.9689801968503937
20
1.0001404724409448
11
0.9690551181102361
21
0.9997638188976378
0
LINE
8
BLACK
6
CONTINUOUS
10
0.9690551181102361
20
0.9997638188976378
11
0.9690551181102361
21
0.9635433464566929
0
LINE
8
BLACK
6
CONTINUOUS
10
0.9690551181102361
20
0.9635433464566929
11
0.9689801968503937
21
0.9631666929133859
0
LINE
8
BLACK
6
CONTINUOUS
10
0.9689801968503937
20
0.9631666929133859
11
0.9684475196850394
21
0.9626340157480314
0
LINE
8
BLACK
6
CONTINUOUS
10
0.9684475196850394
20
0.9626340157480314
11
0.9680708661417322
21
0.962559094488189
0
LINE
8
BLACK
6
CONTINUOUS
10
0.9680708661417322
20
0.962559094488189
11
0.8830314960629921
21
0.962559094488189
0
LINE
8
BLACK
6
CONTINUOUS
10
0.8830314960629921
20
0.962559094488189
11
0.8826548425196851
21
0.9626340157480314
0
LINE
8
BLACK
6
CONTINUOUS
10
0.8826548425196851
20
0.9626340157480314
11
0.8821221653543306
21
0.9631666929133859
0
LINE
8
BLACK
6
CONTINUOUS
10
0.8821221653543306
20
0.9631666929133859
11
0.8820472440944882
21
0.9635433464566929
0
LINE
8
BLACK
6
CONTINUOUS
10
0.8820472440944882
20
0.9635433464566929
11
0.8820472440944882
21
0.9997638188976378
0
LINE
8
BLACK
6
CONTINUOUS
10
0.8820472440944882
20
0.9997638188976378
11
0.8821221653543306
21
1.0001404724409448
0
LINE
8
BLACK
6
CONTINUOUS
10
0.8821221653543306
20
1.0001404724409448
11
0.8826548425196851
21
1.0006731496062993
0
LINE
8
BLACK
6
CONTINUOUS
10
0.8826548425196851
20
1.0006731496062993
11
0.8830314960629921
21
1.0007480708661418
0
LINE
8
BLACK
6
CONTINUOUS
10
0.8830314960629921
20
1.0007480708661418
11
0.9680708661417322
21
1.0007480708661418
0
LINE
8
BLACK
6
CONTINUOUS
10
0.9680708661417322
20
1.0007480708661418
11
0.9684475196850394
21
1.0006731496062993
0
LINE
8
BLACK
6
CONTINUOUS
10
0.8840157480314961
20
0.9987795669291338
11
0.8840157480314961
21
0.9645275984251969
0
LINE
8
BLACK
6
CONTINUOUS
10
0.8840157480314961
20
0.9645275984251969
11
0.9670866141732283
21
0.9645275984251969
0
LINE
8
BLACK
6
CONTINUOUS
10
0.9670866141732283
20
0.9645275984251969
11
0.9670866141732283
21
0.9987795669291338
0
LINE
8
BLACK
6
CONTINUOUS
10
0.9670866141732283
20
0.9987795669291338
11
0.8840157480314961
21
0.9987795669291338
0
LINE
8
BLACK
6
CONTINUOUS
10
1.3219592913385827
20
1.2052479133858267
11
1.3224919685039369
21
1.2047152362204725
0
LINE
8
BLACK
6
CONTINUOUS
10
1.3224919685039369
20
1.2047152362204725
11
1.3225668897637795
21
1.2043385826771653
0
LINE
8
BLACK
6
CONTINUOUS
10
1.3225668897637795
20
1.2043385826771653
11
1.3225668897637795
21
0.9956771653543307
0
LINE
8
BLACK
6
CONTINUOUS
10
1.3225668897637795
20
0.9956771653543307
11
1.3224919685039369
21
0.9953005118110236
0
LINE
8
BLACK
6
CONTINUOUS
10
1.3224919685039369
20
0.9953005118110236
11
1.3219592913385827
21
0.9947678346456693
0
LINE
8
BLACK
6
CONTINUOUS
10
1.3219592913385827
20
0.9947678346456693
11
1.3215826377952755
21
0.9946929133858268
0
LINE
8
BLACK
6
CONTINUOUS
10
1.3215826377952755
20
0.9946929133858268
11
1.2349685433070865
21
0.9946929133858268
0
LINE
8
BLACK
6
CONTINUOUS
10
1.2349685433070865
20
0.9946929133858268
11
1.2345918897637795
21
0.9947678346456693
0
LINE
8
BLACK
6
CONTINUOUS
10
1.2345918897637795
20
0.9947678346456693
11
1.2340592125984251
21
0.9953005118110236
0
LINE
8
BLACK
6
CONTINUOUS
10
1.2340592125984251
20
0.9953005118110236
11
1.2339842913385826
21
0.9956771653543307
0
LINE
8
BLACK
6
CONTINUOUS
10
1.2339842913385826
20
0.9956771653543307
11
1.2339842913385826
21
1.2043385826771653
0
LINE
8
BLACK
6
CONTINUOUS
10
1.2339842913385826
20
1.2043385826771653
11
1.2340592125984251
21
1.2047152362204725
0
LINE
8
BLACK
6
CONTINUOUS
10
1.2340592125984251
20
1.2047152362204725
11
1.2345918897637795
21
1.2052479133858267
0
LINE
8
BLACK
6
CONTINUOUS
10
1.2345918897637795
20
1.2052479133858267
11
1.2349685433070865
21
1.2053228346456692
0
LINE
8
BLACK
6
CONTINUOUS
10
1.2349685433070865
20
1.2053228346456692
11
1.3215826377952755
21
1.2053228346456692
0
LINE
8
BLACK
6
CONTINUOUS
10
1.3215826377952755
20
1.2053228346456692
11
1.3219592913385827
21
1.2052479133858267
0
LINE
8
BLACK
6
CONTINUOUS
10
1.2359527952755904
20
1.2033543307086614
11
1.2359527952755904
21
0.9966614173228346
0
LINE
8
BLACK
6
CONTINUOUS
10
1.2359527952755904
20
0.9966614173228346
11
1.3205983858267716
21
0.9966614173228346
0
LINE
8
BLACK
6
CONTINUOUS
10
1.3205983858267716
20
0.9966614173228346
11
1.3205983858267716
21
1.2033543307086614
0
LINE
8
BLACK
6
CONTINUOUS
10
1.3205983858267716
20
1.2033543307086614
11
1.2359527952755904
21
1.2033543307086614
0
LINE
8
BLACK
6
CONTINUOUS
10
0.7284553937007874
20
1.2684368897637794
11
0.7289880708661417
21
1.2679042125984252
0
LINE
8
BLACK
6
CONTINUOUS
10
0.7289880708661417
20
1.2679042125984252
11
0.7290629921259842
21
1.267527559055118
0
LINE
8
BLACK
6
CONTINUOUS
10
0.7290629921259842
20
1.267527559055118
11
0.7290629921259842
21
1.1336692913385826
0
LINE
8
BLACK
6
CONTINUOUS
10
0.7290629921259842
20
1.1336692913385826
11
0.7289880708661417
21
1.1332926771653542
0
LINE
8
BLACK
6
CONTINUOUS
10
0.7289880708661417
20
1.1332926771653542
11
0.7289880708661417
21
1.1332926377952757
0
LINE
8
BLACK
6
CONTINUOUS
10
0.7289880708661417
20
1.1332926377952757
11
0.7284553937007874
21
1.1327599606299212
0
LINE
8
BLACK
6
CONTINUOUS
10
0.7284553937007874
20
1.1327599606299212
11
0.7280787401574803
21
1.1326850393700787
0
LINE
8
BLACK
6
CONTINUOUS
10
0.7280787401574803
20
1.1326850393700787
11
0.6509133858267716
21
1.1326850393700787
0
LINE
8
BLACK
6
CONTINUOUS
10
0.6509133858267716
20
1.1326850393700787
11
0.6505367322834645
21
1.1327599606299212
0
LINE
8
BLACK
6
CONTINUOUS
10
0.6505367322834645
20
1.1327599606299212
11
0.6500040551181102
21
1.1332926377952757
0
LINE
8
BLACK
6
CONTINUOUS
10
0.6500040551181102
20
1.1332926377952757
11
0.6500040551181102
21
1.1332926771653542
0
LINE
8
BLACK
6
CONTINUOUS
10
0.6500040551181102
20
1.1332926771653542
11
0.6499291338582677
21
1.1336692913385826
0
LINE
8
BLACK
6
CONTINUOUS
10
0.6499291338582677
20
1.1336692913385826
11
0.6499291338582677
21
1.267527559055118
0
LINE
8
BLACK
6
CONTINUOUS
10
0.6499291338582677
20
1.267527559055118
11
0.6500040551181102
21
1.2679042125984252
0
LINE
8
BLACK
6
CONTINUOUS
10
0.6500040551181102
20
1.2679042125984252
11
0.6505367322834645
21
1.2684368897637794
0
LINE
8
BLACK
6
CONTINUOUS
10
0.6505367322834645
20
1.2684368897637794
11
0.6509133858267716
21
1.268511811023622
0
LINE
8
BLACK
6
CONTINUOUS
10
0.6509133858267716
20
1.268511811023622
11
0.7280787401574803
21
1.268511811023622
0
LINE
8
BLACK
6
CONTINUOUS
10
0.7280787401574803
20
1.268511811023622
11
0.7284553937007874
21
1.2684368897637794
0
LINE
8
BLACK
6
CONTINUOUS
10
0.6518976377952755
20
1.2665433070866141
11
0.6518976377952755
21
1.1346535433070866
0
LINE
8
BLACK
6
CONTINUOUS
10
0.6518976377952755
20
1.1346535433070866
11
0.7270944881889764
21
1.1346535433070866
0
LINE
8
BLACK
6
CONTINUOUS
10
0.7270944881889764
20
1.1346535433070866
11
0.7270944881889764
21
1.2665433070866141
0
LINE
8
BLACK
6
CONTINUOUS
10
0.7270944881889764
20
1.2665433070866141
11
0.6518976377952755
21
1.2665433070866141
0
LINE
8
BLACK
6
CONTINUOUS
10
0.8469593307086614
20
1.2684369291338582
11
0.8474920078740157
21
1.267904251968504
0
LINE
8
BLACK
6
CONTINUOUS
10
0.8474920078740157
20
1.267904251968504
11
0.8475669291338582
21
1.2675275984251968
0
LINE
8
BLACK
6
CONTINUOUS
10
0.8475669291338582
20
1.2675275984251968
11
0.8475669291338582
21
1.1336693307086614
0
LINE
8
BLACK
6
CONTINUOUS
10
0.8475669291338582
20
1.1336693307086614
11
0.8474920078740157
21
1.1332926771653542
0
LINE
8
BLACK
6
CONTINUOUS
10
0.8474920078740157
20
1.1332926771653542
11
0.8469593307086614
21
1.13276
0
LINE
8
BLACK
6
CONTINUOUS
10
0.8469593307086614
20
1.13276
11
0.8465826771653543
21
1.1326850787401574
0
LINE
8
BLACK
6
CONTINUOUS
10
0.8465826771653543
20
1.1326850787401574
11
0.7694173228346457
21
1.1326850787401574
0
LINE
8
BLACK
6
CONTINUOUS
10
0.7694173228346457
20
1.1326850787401574
11
0.7690406692913385
21
1.13276
0
LINE
8
BLACK
6
CONTINUOUS
10
0.7690406692913385
20
1.13276
11
0.7685079921259842
21
1.1332926771653542
0
LINE
8
BLACK
6
CONTINUOUS
10
0.7685079921259842
20
1.1332926771653542
11
0.7684330708661418
21
1.1336693307086614
0
LINE
8
BLACK
6
CONTINUOUS
10
0.7684330708661418
20
1.1336693307086614
11
0.7684330708661418
21
1.2675275984251968
0
LINE
8
BLACK
6
CONTINUOUS
10
0.7684330708661418
20
1.2675275984251968
11
0.7685079921259842
21
1.267904251968504
0
LINE
8
BLACK
6
CONTINUOUS
10
0.7685079921259842
20
1.267904251968504
11
0.7690406692913385
21
1.2684369291338582
0
LINE
8
BLACK
6
CONTINUOUS
10
0.7690406692913385
20
1.2684369291338582
11
0.7694173228346457
21
1.2685118503937007
0
LINE
8
BLACK
6
CONTINUOUS
10
0.7694173228346457
20
1.2685118503937007
11
0.8465826771653543
21
1.2685118503937007
0
LINE
8
BLACK
6
CONTINUOUS
10
0.8465826771653543
20
1.2685118503937007
11
0.8469593307086614
21
1.2684369291338582
0
LINE
8
BLACK
6
CONTINUOUS
10
0.7704015748031496
20
1.2665433464566929
11
0.7704015748031496
21
1.1346535826771653
0
LINE
8
BLACK
6
CONTINUOUS
10
0.7704015748031496
20
1.1346535826771653
11
0.8455984251968504
21
1.1346535826771653
0
LINE
8
BLACK
6
CONTINUOUS
10
0.8455984251968504
20
1.1346535826771653
11
0.8455984251968504
21
1.2665433464566929
0
LINE
8
BLACK
6
CONTINUOUS
10
0.8455984251968504
20
1.2665433464566929
11
0.7704015748031496
21
1.2665433464566929
0
LINE
8
BLACK
6
CONTINUOUS
10
-0.1025258661417323
20
1.5655737007874015
11
-0.0950346062992126
21
1.5631396062992127
0
LINE
8
BLACK
6
CONTINUOUS
10
-0.0950346062992126
20
1.5631396062992127
11
-0.0880162992125984
21
1.559563622047244
0
LINE
8
BLACK
6
CONTINUOUS
10
-0.0880162992125984
20
1.559563622047244
11
-0.0816438582677165
21
1.5549337795275591
0
LINE
8
BLACK
6
CONTINUOUS
10
-0.0816438582677165
20
1.5549337795275591
11
-0.076074094488189
21
1.5493640157480315
0
LINE
8
BLACK
6
CONTINUOUS
10
-0.076074094488189
20
1.5493640157480315
11
-0.0714442519685039
21
1.5429915748031495
0
LINE
8
BLACK
6
CONTINUOUS
10
-0.0714442519685039
20
1.5429915748031495
11
-0.0678682677165354
21
1.5359732677165354
0
LINE
8
BLACK
6
CONTINUOUS
10
-0.0678682677165354
20
1.5359732677165354
11
-0.0654341732283465
21
1.5284820078740158
0
LINE
8
BLACK
6
CONTINUOUS
10
-0.0654341732283465
20
1.5284820078740158
11
-0.064201968503937
21
1.5207021653543307
0
LINE
8
BLACK
6
CONTINUOUS
10
-0.064201968503937
20
1.5207021653543307
11
-0.064201968503937
21
1.5128253937007874
0
LINE
8
BLACK
6
CONTINUOUS
10
-0.064201968503937
20
1.5128253937007874
11
-0.0654341732283465
21
1.5050455511811023
0
LINE
8
BLACK
6
CONTINUOUS
10
-0.0654341732283465
20
1.5050455511811023
11
-0.0678682677165354
21
1.4975542913385826
0
LINE
8
BLACK
6
CONTINUOUS
10
-0.0678682677165354
20
1.4975542913385826
11
-0.0714442519685039
21
1.4905359842519685
0
LINE
8
BLACK
6
CONTINUOUS
10
-0.0714442519685039
20
1.4905359842519685
11
-0.076074094488189
21
1.4841635433070866
0
LINE
8
BLACK
6
CONTINUOUS
10
-0.076074094488189
20
1.4841635433070866
11
-0.0816438582677165
21
1.478593779527559
0
LINE
8
BLACK
6
CONTINUOUS
10
-0.0816438582677165
20
1.478593779527559
11
-0.0880162992125984
21
1.4739639370078741
0
LINE
8
BLACK
6
CONTINUOUS
10
-0.0880162992125984
20
1.4739639370078741
11
-0.0950346062992126
21
1.4703879527559054
0
LINE
8
BLACK
6
CONTINUOUS
10
-0.0950346062992126
20
1.4703879527559054
11
-0.1025258661417323
21
1.4679538582677165
0
LINE
8
BLACK
6
CONTINUOUS
10
-0.1025258661417323
20
1.4679538582677165
11
-0.1103057086614173
21
1.466721653543307
0
LINE
8
BLACK
6
CONTINUOUS
10
-0.1103057086614173
20
1.466721653543307
11
-0.1181824803149606
21
1.466721653543307
0
LINE
8
BLACK
6
CONTINUOUS
10
-0.1181824803149606
20
1.466721653543307
11
-0.1259623228346457
21
1.4679538582677165
0
LINE
8
BLACK
6
CONTINUOUS
10
-0.1259623228346457
20
1.4679538582677165
11
-0.1334535826771653
21
1.4703879527559054
0
LINE
8
BLACK
6
CONTINUOUS
10
-0.1334535826771653
20
1.4703879527559054
11
-0.1404718897637795
21
1.4739639370078741
0
LINE
8
BLACK
6
CONTINUOUS
10
-0.1404718897637795
20
1.4739639370078741
11
-0.1468443307086614
21
1.478593779527559
0
LINE
8
BLACK
6
CONTINUOUS
10
-0.1468443307086614
20
1.478593779527559
11
-0.152414094488189
21
1.4841635433070866
0
LINE
8
BLACK
6
CONTINUOUS
10
-0.152414094488189
20
1.4841635433070866
11
-0.157043937007874
21
1.4905359842519685
0
LINE
8
BLACK
6
CONTINUOUS
10
-0.157043937007874
20
1.4905359842519685
11
-0.1606199212598425
21
1.4975542913385826
0
LINE
8
BLACK
6
CONTINUOUS
10
-0.1606199212598425
20
1.4975542913385826
11
-0.1630540157480315
21
1.5050455511811023
0
LINE
8
BLACK
6
CONTINUOUS
10
-0.1630540157480315
20
1.5050455511811023
11
-0.1642862204724409
21
1.5128253937007874
0
LINE
8
BLACK
6
CONTINUOUS
10
-0.1642862204724409
20
1.5128253937007874
11
-0.1642862204724409
21
1.5205594488188976
0
LINE
8
BLACK
6
CONTINUOUS
10
-0.1642862204724409
20
1.5205594488188976
11
-0.1642862204724409
21
1.5207021653543307
0
LINE
8
BLACK
6
CONTINUOUS
10
-0.1642862204724409
20
1.5207021653543307
11
-0.1630540157480315
21
1.5284820078740158
0
LINE
8
BLACK
6
CONTINUOUS
10
-0.1630540157480315
20
1.5284820078740158
11
-0.1606199212598425
21
1.5359732677165354
0
LINE
8
BLACK
6
CONTINUOUS
10
-0.1606199212598425
20
1.5359732677165354
11
-0.157043937007874
21
1.5429915748031495
0
LINE
8
BLACK
6
CONTINUOUS
10
-0.157043937007874
20
1.5429915748031495
11
-0.152414094488189
21
1.5493640157480315
0
LINE
8
BLACK
6
CONTINUOUS
10
-0.152414094488189
20
1.5493640157480315
11
-0.1468443307086614
21
1.5549337795275591
0
LINE
8
BLACK
6
CONTINUOUS
10
-0.1468443307086614
20
1.5549337795275591
11
-0.1404718897637795
21
1.559563622047244
0
LINE
8
BLACK
6
CONTINUOUS
10
-0.1404718897637795
20
1.559563622047244
11
-0.1334535826771653
21
1.5631396062992127
0
LINE
8
BLACK
6
CONTINUOUS
10
-0.1334535826771653
20
1.5631396062992127
11
-0.1259623228346457
21
1.5655737007874015
0
LINE
8
BLACK
6
CONTINUOUS
10
-0.1259623228346457
20
1.5655737007874015
11
-0.1181824803149606
21
1.5668059055118111
0
LINE
8
BLACK
6
CONTINUOUS
10
-0.1181824803149606
20
1.5668059055118111
11
-0.1103057086614173
21
1.5668059055118111
0
LINE
8
BLACK
6
CONTINUOUS
10
-0.1103057086614173
20
1.5668059055118111
11
-0.1025258661417323
21
1.5655737007874015
0
LINE
8
BLACK
6
CONTINUOUS
10
-0.1624724409448819
20
1.5129681102362205
11
-0.1612848818897638
21
1.5054702755905511
0
LINE
8
BLACK
6
CONTINUOUS
10
-0.1612848818897638
20
1.5054702755905511
11
-0.1589390551181102
21
1.4982505118110236
0
LINE
8
BLACK
6
CONTINUOUS
10
-0.1589390551181102
20
1.4982505118110236
11
-0.1554926771653543
21
1.4914866141732284
0
LINE
8
BLACK
6
CONTINUOUS
10
-0.1554926771653543
20
1.4914866141732284
11
-0.1510306299212598
21
1.4853451181102362
0
LINE
8
BLACK
6
CONTINUOUS
10
-0.1510306299212598
20
1.4853451181102362
11
-0.1456627559055118
21
1.4799772440944881
0
LINE
8
BLACK
6
CONTINUOUS
10
-0.1456627559055118
20
1.4799772440944881
11
-0.1395212598425197
21
1.4755151968503937
0
LINE
8
BLACK
6
CONTINUOUS
10
-0.1395212598425197
20
1.4755151968503937
11
-0.1327573622047244
21
1.4720688188976379
0
LINE
8
BLACK
6
CONTINUOUS
10
-0.1327573622047244
20
1.4720688188976379
11
-0.1255375984251969
21
1.4697229921259842
0
LINE
8
BLACK
6
CONTINUOUS
10
-0.1255375984251969
20
1.4697229921259842
11
-0.1180397637795276
21
1.4685354330708662
0
LINE
8
BLACK
6
CONTINUOUS
10
-0.1180397637795276
20
1.4685354330708662
11
-0.1104484251968504
21
1.4685354330708662
0
LINE
8
BLACK
6
CONTINUOUS
10
-0.1104484251968504
20
1.4685354330708662
11
-0.1029505905511811
21
1.4697229921259842
0
LINE
8
BLACK
6
CONTINUOUS
10
-0.1029505905511811
20
1.4697229921259842
11
-0.0957308267716535
21
1.4720688188976379
0
LINE
8
BLACK
6
CONTINUOUS
10
-0.0957308267716535
20
1.4720688188976379
11
-0.0889669291338583
21
1.4755151968503937
0
LINE
8
BLACK
6
CONTINUOUS
10
-0.0889669291338583
20
1.4755151968503937
11
-0.0828254330708661
21
1.4799772440944881
0
LINE
8
BLACK
6
CONTINUOUS
10
-0.0828254330708661
20
1.4799772440944881
11
-0.0774575590551181
21
1.4853451181102362
0
LINE
8
BLACK
6
CONTINUOUS
10
-0.0774575590551181
20
1.4853451181102362
11
-0.0729955118110236
21
1.4914866141732284
0
LINE
8
BLACK
6
CONTINUOUS
10
-0.0729955118110236
20
1.4914866141732284
11
-0.0695491338582677
21
1.4982505118110236
0
LINE
8
BLACK
6
CONTINUOUS
10
-0.0695491338582677
20
1.4982505118110236
11
-0.0672033070866142
21
1.5054702755905511
0
LINE
8
BLACK
6
CONTINUOUS
10
-0.0672033070866142
20
1.5054702755905511
11
-0.0660157480314961
21
1.5129681102362205
0
LINE
8
BLACK
6
CONTINUOUS
10
-0.0660157480314961
20
1.5129681102362205
11
-0.0660157480314961
21
1.5205594488188976
0
LINE
8
BLACK
6
CONTINUOUS
10
-0.0660157480314961
20
1.5205594488188976
11
-0.0672033070866142
21
1.5280572834645669
0
LINE
8
BLACK
6
CONTINUOUS
10
-0.0672033070866142
20
1.5280572834645669
11
-0.0695491338582677
21
1.5352770472440944
0
LINE
8
BLACK
6
CONTINUOUS
10
-0.0695491338582677
20
1.5352770472440944
11
-0.0729955118110236
21
1.5420409448818897
0
LINE
8
BLACK
6
CONTINUOUS
10
-0.0729955118110236
20
1.5420409448818897
11
-0.0774575590551181
21
1.5481824409448819
0
LINE
8
BLACK
6
CONTINUOUS
10
-0.0774575590551181
20
1.5481824409448819
11
-0.0828254330708661
21
1.5535503149606298
0
LINE
8
BLACK
6
CONTINUOUS
10
-0.0828254330708661
20
1.5535503149606298
11
-0.0889669291338583
21
1.5580123622047244
0
LINE
8
BLACK
6
CONTINUOUS
10
-0.0889669291338583
20
1.5580123622047244
11
-0.0957308267716535
21
1.5614587401574802
0
LINE
8
BLACK
6
CONTINUOUS
10
-0.0957308267716535
20
1.5614587401574802
11
-0.1029505905511811
21
1.5638045669291338
0
LINE
8
BLACK
6
CONTINUOUS
10
-0.1029505905511811
20
1.5638045669291338
11
-0.1104484251968504
21
1.5649921259842519
0
LINE
8
BLACK
6
CONTINUOUS
10
-0.1104484251968504
20
1.5649921259842519
11
-0.1180397637795276
21
1.5649921259842519
0
LINE
8
BLACK
6
CONTINUOUS
10
-0.1180397637795276
20
1.5649921259842519
11
-0.1255375984251969
21
1.5638045669291338
0
LINE
8
BLACK
6
CONTINUOUS
10
-0.1255375984251969
20
1.5638045669291338
11
-0.1327573622047244
21
1.5614587401574802
0
LINE
8
BLACK
6
CONTINUOUS
10
-0.1327573622047244
20
1.5614587401574802
11
-0.1395212598425197
21
1.5580123622047244
0
LINE
8
BLACK
6
CONTINUOUS
10
-0.1395212598425197
20
1.5580123622047244
11
-0.1456627559055118
21
1.5535503149606298
0
LINE
8
BLACK
6
CONTINUOUS
10
-0.1456627559055118
20
1.5535503149606298
11
-0.1510306299212598
21
1.5481824409448819
0
LINE
8
BLACK
6
CONTINUOUS
10
-0.1510306299212598
20
1.5481824409448819
11
-0.1554926771653543
21
1.5420409448818897
0
LINE
8
BLACK
6
CONTINUOUS
10
-0.1554926771653543
20
1.5420409448818897
11
-0.1589390551181102
21
1.5352770472440944
0
LINE
8
BLACK
6
CONTINUOUS
10
-0.1589390551181102
20
1.5352770472440944
11
-0.1612848818897638
21
1.5280572834645669
0
LINE
8
BLACK
6
CONTINUOUS
10
-0.1612848818897638
20
1.5280572834645669
11
-0.1624724409448819
21
1.5205594488188976
0
LINE
8
BLACK
6
CONTINUOUS
10
-0.1624724409448819
20
1.5205594488188976
11
-0.1624724409448819
21
1.5129681102362205
0
LINE
8
BLACK
6
CONTINUOUS
10
-0.1025258661417323
20
1.7053374803149606
11
-0.0950346062992126
21
1.7029033858267717
0
LINE
8
BLACK
6
CONTINUOUS
10
-0.0950346062992126
20
1.7029033858267717
11
-0.0880162992125984
21
1.6993274015748032
0
LINE
8
BLACK
6
CONTINUOUS
10
-0.0880162992125984
20
1.6993274015748032
11
-0.0816438582677165
21
1.6946975590551181
0
LINE
8
BLACK
6
CONTINUOUS
10
-0.0816438582677165
20
1.6946975590551181
11
-0.076074094488189
21
1.6891277952755905
0
LINE
8
BLACK
6
CONTINUOUS
10
-0.076074094488189
20
1.6891277952755905
11
-0.0714442519685039
21
1.6827553543307086
0
LINE
8
BLACK
6
CONTINUOUS
10
-0.0714442519685039
20
1.6827553543307086
11
-0.0678682677165354
21
1.6757370472440944
0
LINE
8
BLACK
6
CONTINUOUS
10
-0.0678682677165354
20
1.6757370472440944
11
-0.0654341732283465
21
1.6682457874015748
0
LINE
8
BLACK
6
CONTINUOUS
10
-0.0654341732283465
20
1.6682457874015748
11
-0.064201968503937
21
1.6604659448818897
0
LINE
8
BLACK
6
CONTINUOUS
10
-0.064201968503937
20
1.6604659448818897
11
-0.064201968503937
21
1.6525891732283464
0
LINE
8
BLACK
6
CONTINUOUS
10
-0.064201968503937
20
1.6525891732283464
11
-0.0654341732283465
21
1.6448093307086613
0
LINE
8
BLACK
6
CONTINUOUS
10
-0.0654341732283465
20
1.6448093307086613
11
-0.0678682677165354
21
1.6373180708661417
0
LINE
8
BLACK
6
CONTINUOUS
10
-0.0678682677165354
20
1.6373180708661417
11
-0.0714442519685039
21
1.6302997637795276
0
LINE
8
BLACK
6
CONTINUOUS
10
-0.0714442519685039
20
1.6302997637795276
11
-0.076074094488189
21
1.6239273228346456
0
LINE
8
BLACK
6
CONTINUOUS
10
-0.076074094488189
20
1.6239273228346456
11
-0.0816438582677165
21
1.618357559055118
0
LINE
8
BLACK
6
CONTINUOUS
10
-0.0816438582677165
20
1.618357559055118
11
-0.0880162992125984
21
1.6137277165354331
0
LINE
8
BLACK
6
CONTINUOUS
10
-0.0880162992125984
20
1.6137277165354331
11
-0.0950346062992126
21
1.6101517322834644
0
LINE
8
BLACK
6
CONTINUOUS
10
-0.0950346062992126
20
1.6101517322834644
11
-0.1025258661417323
21
1.6077176377952755
0
LINE
8
BLACK
6
CONTINUOUS
10
-0.1025258661417323
20
1.6077176377952755
11
-0.1103057086614173
21
1.606485433070866
0
LINE
8
BLACK
6
CONTINUOUS
10
-0.1103057086614173
20
1.606485433070866
11
-0.1181824803149606
21
1.606485433070866
0
LINE
8
BLACK
6
CONTINUOUS
10
-0.1181824803149606
20
1.606485433070866
11
-0.1259623228346457
21
1.6077176377952755
0
LINE
8
BLACK
6
CONTINUOUS
10
-0.1259623228346457
20
1.6077176377952755
11
-0.1334535826771653
21
1.6101517322834644
0
LINE
8
BLACK
6
CONTINUOUS
10
-0.1334535826771653
20
1.6101517322834644
11
-0.1404718897637795
21
1.6137277165354331
0
LINE
8
BLACK
6
CONTINUOUS
10
-0.1404718897637795
20
1.6137277165354331
11
-0.1468443307086614
21
1.618357559055118
0
LINE
8
BLACK
6
CONTINUOUS
10
-0.1468443307086614
20
1.618357559055118
11
-0.152414094488189
21
1.6239273228346456
0
LINE
8
BLACK
6
CONTINUOUS
10
-0.152414094488189
20
1.6239273228346456
11
-0.157043937007874
21
1.6302997637795276
0
LINE
8
BLACK
6
CONTINUOUS
10
-0.157043937007874
20
1.6302997637795276
11
-0.1606199212598425
21
1.6373180708661417
0
LINE
8
BLACK
6
CONTINUOUS
10
-0.1606199212598425
20
1.6373180708661417
11
-0.1630540157480315
21
1.6448093307086613
0
LINE
8
BLACK
6
CONTINUOUS
10
-0.1630540157480315
20
1.6448093307086613
11
-0.1642862204724409
21
1.6525891732283464
0
LINE
8
BLACK
6
CONTINUOUS
10
-0.1642862204724409
20
1.6525891732283464
11
-0.1642862204724409
21
1.6603232283464566
0
LINE
8
BLACK
6
CONTINUOUS
10
-0.1642862204724409
20
1.6603232283464566
11
-0.1642862204724409
21
1.6604659448818897
0
LINE
8
BLACK
6
CONTINUOUS
10
-0.1642862204724409
20
1.6604659448818897
11
-0.1630540157480315
21
1.6682457874015748
0
LINE
8
BLACK
6
CONTINUOUS
10
-0.1630540157480315
20
1.6682457874015748
11
-0.1606199212598425
21
1.6757370472440944
0
LINE
8
BLACK
6
CONTINUOUS
10
-0.1606199212598425
20
1.6757370472440944
11
-0.157043937007874
21
1.6827553543307086
0
LINE
8
BLACK
6
CONTINUOUS
10
-0.157043937007874
20
1.6827553543307086
11
-0.152414094488189
21
1.6891277952755905
0
LINE
8
BLACK
6
CONTINUOUS
10
-0.152414094488189
20
1.6891277952755905
11
-0.1468443307086614
21
1.6946975590551181
0
LINE
8
BLACK
6
CONTINUOUS
10
-0.1468443307086614
20
1.6946975590551181
11
-0.1404718897637795
21
1.6993274015748032
0
LINE
8
BLACK
6
CONTINUOUS
10
-0.1404718897637795
20
1.6993274015748032
11
-0.1334535826771653
21
1.7029033858267717
0
LINE
8
BLACK
6
CONTINUOUS
10
-0.1334535826771653
20
1.7029033858267717
11
-0.1259623228346457
21
1.7053374803149606
0
LINE
8
BLACK
6
CONTINUOUS
10
-0.1259623228346457
20
1.7053374803149606
11
-0.1181824803149606
21
1.7065696850393701
0
LINE
8
BLACK
6
CONTINUOUS
10
-0.1181824803149606
20
1.7065696850393701
11
-0.1103057086614173
21
1.7065696850393701
0
LINE
8
BLACK
6
CONTINUOUS
10
-0.1103057086614173
20
1.7065696850393701
11
-0.1025258661417323
21
1.7053374803149606
0
LINE
8
BLACK
6
CONTINUOUS
10
-0.1624724409448819
20
1.6527318897637795
11
-0.1612848818897638
21
1.6452340551181102
0
LINE
8
BLACK
6
CONTINUOUS
10
-0.1612848818897638
20
1.6452340551181102
11
-0.1589390551181102
21
1.6380142913385827
0
LINE
8
BLACK
6
CONTINUOUS
10
-0.1589390551181102
20
1.6380142913385827
11
-0.1554926771653543
21
1.6312503937007874
0
LINE
8
BLACK
6
CONTINUOUS
10
-0.1554926771653543
20
1.6312503937007874
11
-0.1510306299212598
21
1.6251088976377952
0
LINE
8
BLACK
6
CONTINUOUS
10
-0.1510306299212598
20
1.6251088976377952
11
-0.1456627559055118
21
1.6197410236220473
0
LINE
8
BLACK
6
CONTINUOUS
10
-0.1456627559055118
20
1.6197410236220473
11
-0.1395212598425197
21
1.6152789763779527
0
LINE
8
BLACK
6
CONTINUOUS
10
-0.1395212598425197
20
1.6152789763779527
11
-0.1327573622047244
21
1.6118325984251969
0
LINE
8
BLACK
6
CONTINUOUS
10
-0.1327573622047244
20
1.6118325984251969
11
-0.1255375984251969
21
1.6094867716535433
0
LINE
8
BLACK
6
CONTINUOUS
10
-0.1255375984251969
20
1.6094867716535433
11
-0.1180397637795276
21
1.6082992125984252
0
LINE
8
BLACK
6
CONTINUOUS
10
-0.1180397637795276
20
1.6082992125984252
11
-0.1104484251968504
21
1.6082992125984252
0
LINE
8
BLACK
6
CONTINUOUS
10
-0.1104484251968504
20
1.6082992125984252
11
-0.1029505905511811
21
1.6094867716535433
0
LINE
8
BLACK
6
CONTINUOUS
10
-0.1029505905511811
20
1.6094867716535433
11
-0.0957308267716535
21
1.6118325984251969
0
LINE
8
BLACK
6
CONTINUOUS
10
-0.0957308267716535
20
1.6118325984251969
11
-0.0889669291338583
21
1.6152789763779527
0
LINE
8
BLACK
6
CONTINUOUS
10
-0.0889669291338583
20
1.6152789763779527
11
-0.0828254330708661
21
1.6197410236220473
0
LINE
8
BLACK
6
CONTINUOUS
10
-0.0828254330708661
20
1.6197410236220473
11
-0.0774575590551181
21
1.6251088976377952
0
LINE
8
BLACK
6
CONTINUOUS
10
-0.0774575590551181
20
1.6251088976377952
11
-0.0729955118110236
21
1.6312503937007874
0
LINE
8
BLACK
6
CONTINUOUS
10
-0.0729955118110236
20
1.6312503937007874
11
-0.0695491338582677
21
1.6380142913385827
0
LINE
8
BLACK
6
CONTINUOUS
10
-0.0695491338582677
20
1.6380142913385827
11
-0.0672033070866142
21
1.6452340551181102
0
LINE
8
BLACK
6
CONTINUOUS
10
-0.0672033070866142
20
1.6452340551181102
11
-0.0660157480314961
21
1.6527318897637795
0
LINE
8
BLACK
6
CONTINUOUS
10
-0.0660157480314961
20
1.6527318897637795
11
-0.0660157480314961
21
1.6603232283464566
0
LINE
8
BLACK
6
CONTINUOUS
10
-0.0660157480314961
20
1.6603232283464566
11
-0.0672033070866142
21
1.667821062992126
0
LINE
8
BLACK
6
CONTINUOUS
10
-0.0672033070866142
20
1.667821062992126
11
-0.0695491338582677
21
1.6750408267716534
0
LINE
8
BLACK
6
CONTINUOUS
10
-0.0695491338582677
20
1.6750408267716534
11
-0.0729955118110236
21
1.6818047244094487
0
LINE
8
BLACK
6
CONTINUOUS
10
-0.0729955118110236
20
1.6818047244094487
11
-0.0774575590551181
21
1.6879462204724409
0
LINE
8
BLACK
6
CONTINUOUS
10
-0.0774575590551181
20
1.6879462204724409
11
-0.0828254330708661
21
1.693314094488189
0
LINE
8
BLACK
6
CONTINUOUS
10
-0.0828254330708661
20
1.693314094488189
11
-0.0889669291338583
21
1.6977761417322834
0
LINE
8
BLACK
6
CONTINUOUS
10
-0.0889669291338583
20
1.6977761417322834
11
-0.0957308267716535
21
1.7012225196850392
0
LINE
8
BLACK
6
CONTINUOUS
10
-0.0957308267716535
20
1.7012225196850392
11
-0.1029505905511811
21
1.7035683464566929
0
LINE
8
BLACK
6
CONTINUOUS
10
-0.1029505905511811
20
1.7035683464566929
11
-0.1104484251968504
21
1.7047559055118109
0
LINE
8
BLACK
6
CONTINUOUS
10
-0.1104484251968504
20
1.7047559055118109
11
-0.1180397637795276
21
1.7047559055118109
0
LINE
8
BLACK
6
CONTINUOUS
10
-0.1180397637795276
20
1.7047559055118109
11
-0.1255375984251969
21
1.7035683464566929
0
LINE
8
BLACK
6
CONTINUOUS
10
-0.1255375984251969
20
1.7035683464566929
11
-0.1327573622047244
21
1.7012225196850392
0
LINE
8
BLACK
6
CONTINUOUS
10
-0.1327573622047244
20
1.7012225196850392
11
-0.1395212598425197
21
1.6977761417322834
0
LINE
8
BLACK
6
CONTINUOUS
10
-0.1395212598425197
20
1.6977761417322834
11
-0.1456627559055118
21
1.693314094488189
0
LINE
8
BLACK
6
CONTINUOUS
10
-0.1456627559055118
20
1.693314094488189
11
-0.1510306299212598
21
1.6879462204724409
0
LINE
8
BLACK
6
CONTINUOUS
10
-0.1510306299212598
20
1.6879462204724409
11
-0.1554926771653543
21
1.6818047244094487
0
LINE
8
BLACK
6
CONTINUOUS
10
-0.1554926771653543
20
1.6818047244094487
11
-0.1589390551181102
21
1.6750408267716534
0
LINE
8
BLACK
6
CONTINUOUS
10
-0.1589390551181102
20
1.6750408267716534
11
-0.1612848818897638
21
1.667821062992126
0
LINE
8
BLACK
6
CONTINUOUS
10
-0.1612848818897638
20
1.667821062992126
11
-0.1624724409448819
21
1.6603232283464566
0
LINE
8
BLACK
6
CONTINUOUS
10
-0.1624724409448819
20
1.6603232283464566
11
-0.1624724409448819
21
1.6527318897637795
0
LINE
8
BLACK
6
CONTINUOUS
10
-0.1025258661417323
20
1.8451012598425196
11
-0.0950346062992126
21
1.8426671653543307
0
LINE
8
BLACK
6
CONTINUOUS
10
-0.0950346062992126
20
1.8426671653543307
11
-0.0880162992125984
21
1.8390911811023622
0
LINE
8
BLACK
6
CONTINUOUS
10
-0.0880162992125984
20
1.8390911811023622
11
-0.0816438582677165
21
1.8344613385826771
0
LINE
8
BLACK
6
CONTINUOUS
10
-0.0816438582677165
20
1.8344613385826771
11
-0.076074094488189
21
1.8288915748031496
0
LINE
8
BLACK
6
CONTINUOUS
10
-0.076074094488189
20
1.8288915748031496
11
-0.0714442519685039
21
1.8225191338582676
0
LINE
8
BLACK
6
CONTINUOUS
10
-0.0714442519685039
20
1.8225191338582676
11
-0.0678682677165354
21
1.8155008267716535
0
LINE
8
BLACK
6
CONTINUOUS
10
-0.0678682677165354
20
1.8155008267716535
11
-0.0654341732283465
21
1.8080095669291338
0
LINE
8
BLACK
6
CONTINUOUS
10
-0.0654341732283465
20
1.8080095669291338
11
-0.064201968503937
21
1.8002297244094487
0
LINE
8
BLACK
6
CONTINUOUS
10
-0.064201968503937
20
1.8002297244094487
11
-0.064201968503937
21
1.7923529527559054
0
LINE
8
BLACK
6
CONTINUOUS
10
-0.064201968503937
20
1.7923529527559054
11
-0.0654341732283465
21
1.7845731102362203
0
LINE
8
BLACK
6
CONTINUOUS
10
-0.0654341732283465
20
1.7845731102362203
11
-0.0678682677165354
21
1.7770818503937007
0
LINE
8
BLACK
6
CONTINUOUS
10
-0.0678682677165354
20
1.7770818503937007
11
-0.0714442519685039
21
1.7700635433070866
0
LINE
8
BLACK
6
CONTINUOUS
10
-0.0714442519685039
20
1.7700635433070866
11
-0.076074094488189
21
1.7636911023622046
0
LINE
8
BLACK
6
CONTINUOUS
10
-0.076074094488189
20
1.7636911023622046
11
-0.0816438582677165
21
1.7581213385826771
0
LINE
8
BLACK
6
CONTINUOUS
10
-0.0816438582677165
20
1.7581213385826771
11
-0.0880162992125984
21
1.7534914960629921
0
LINE
8
BLACK
6
CONTINUOUS
10
-0.0880162992125984
20
1.7534914960629921
11
-0.0950346062992126
21
1.7499155118110237
0
LINE
8
BLACK
6
CONTINUOUS
10
-0.0950346062992126
20
1.7499155118110237
11
-0.1025258661417323
21
1.7474814173228346
0
LINE
8
BLACK
6
CONTINUOUS
10
-0.1025258661417323
20
1.7474814173228346
11
-0.1103057086614173
21
1.7462492125984252
0
LINE
8
BLACK
6
CONTINUOUS
10
-0.1103057086614173
20
1.7462492125984252
11
-0.1181824803149606
21
1.7462492125984252
0
LINE
8
BLACK
6
CONTINUOUS
10
-0.1181824803149606
20
1.7462492125984252
11
-0.1259623228346457
21
1.7474814173228346
0
LINE
8
BLACK
6
CONTINUOUS
10
-0.1259623228346457
20
1.7474814173228346
11
-0.1334535826771653
21
1.7499155118110237
0
LINE
8
BLACK
6
CONTINUOUS
10
-0.1334535826771653
20
1.7499155118110237
11
-0.1404718897637795
21
1.7534914960629921
0
LINE
8
BLACK
6
CONTINUOUS
10
-0.1404718897637795
20
1.7534914960629921
11
-0.1468443307086614
21
1.7581213385826771
0
LINE
8
BLACK
6
CONTINUOUS
10
-0.1468443307086614
20
1.7581213385826771
11
-0.152414094488189
21
1.7636911023622046
0
LINE
8
BLACK
6
CONTINUOUS
10
-0.152414094488189
20
1.7636911023622046
11
-0.157043937007874
21
1.7700635433070866
0
LINE
8
BLACK
6
CONTINUOUS
10
-0.157043937007874
20
1.7700635433070866
11
-0.1606199212598425
21
1.7770818503937007
0
LINE
8
BLACK
6
CONTINUOUS
10
-0.1606199212598425
20
1.7770818503937007
11
-0.1630540157480315
21
1.7845731102362203
0
LINE
8
BLACK
6
CONTINUOUS
10
-0.1630540157480315
20
1.7845731102362203
11
-0.1642862204724409
21
1.7923529527559054
0
LINE
8
BLACK
6
CONTINUOUS
10
-0.1642862204724409
20
1.7923529527559054
11
-0.1642862204724409
21
1.8000870078740157
0
LINE
8
BLACK
6
CONTINUOUS
10
-0.1642862204724409
20
1.8000870078740157
11
-0.1642862204724409
21
1.8002297244094487
0
LINE
8
BLACK
6
CONTINUOUS
10
-0.1642862204724409
20
1.8002297244094487
11
-0.1630540157480315
21
1.8080095669291338
0
LINE
8
BLACK
6
CONTINUOUS
10
-0.1630540157480315
20
1.8080095669291338
11
-0.1606199212598425
21
1.8155008267716535
0
LINE
8
BLACK
6
CONTINUOUS
10
-0.1606199212598425
20
1.8155008267716535
11
-0.157043937007874
21
1.8225191338582676
0
LINE
8
BLACK
6
CONTINUOUS
10
-0.157043937007874
20
1.8225191338582676
11
-0.152414094488189
21
1.8288915748031496
0
LINE
8
BLACK
6
CONTINUOUS
10
-0.152414094488189
20
1.8288915748031496
11
-0.1468443307086614
21
1.8344613385826771
0
LINE
8
BLACK
6
CONTINUOUS
10
-0.1468443307086614
20
1.8344613385826771
11
-0.1404718897637795
21
1.8390911811023622
0
LINE
8
BLACK
6
CONTINUOUS
10
-0.1404718897637795
20
1.8390911811023622
11
-0.1334535826771653
21
1.8426671653543307
0
LINE
8
BLACK
6
CONTINUOUS
10
-0.1334535826771653
20
1.8426671653543307
11
-0.1259623228346457
21
1.8451012598425196
0
LINE
8
BLACK
6
CONTINUOUS
10
-0.1259623228346457
20
1.8451012598425196
11
-0.1181824803149606
21
1.8463334645669292
0
LINE
8
BLACK
6
CONTINUOUS
10
-0.1181824803149606
20
1.8463334645669292
11
-0.1103057086614173
21
1.8463334645669292
0
LINE
8
BLACK
6
CONTINUOUS
10
-0.1103057086614173
20
1.8463334645669292
11
-0.1025258661417323
21
1.8451012598425196
0
LINE
8
BLACK
6
CONTINUOUS
10
-0.1624724409448819
20
1.7924956692913385
11
-0.1612848818897638
21
1.7849978346456692
0
LINE
8
BLACK
6
CONTINUOUS
10
-0.1612848818897638
20
1.7849978346456692
11
-0.1589390551181102
21
1.7777780708661417
0
LINE
8
BLACK
6
CONTINUOUS
10
-0.1589390551181102
20
1.7777780708661417
11
-0.1554926771653543
21
1.7710141732283464
0
LINE
8
BLACK
6
CONTINUOUS
10
-0.1554926771653543
20
1.7710141732283464
11
-0.1510306299212598
21
1.7648726771653542
0
LINE
8
BLACK
6
CONTINUOUS
10
-0.1510306299212598
20
1.7648726771653542
11
-0.1456627559055118
21
1.7595048031496063
0
LINE
8
BLACK
6
CONTINUOUS
10
-0.1456627559055118
20
1.7595048031496063
11
-0.1395212598425197
21
1.7550427559055117
0
LINE
8
BLACK
6
CONTINUOUS
10
-0.1395212598425197
20
1.7550427559055117
11
-0.1327573622047244
21
1.7515963779527559
0
LINE
8
BLACK
6
CONTINUOUS
10
-0.1327573622047244
20
1.7515963779527559
11
-0.1255375984251969
21
1.7492505511811023
0
LINE
8
BLACK
6
CONTINUOUS
10
-0.1255375984251969
20
1.7492505511811023
11
-0.1180397637795276
21
1.7480629921259843
0
LINE
8
BLACK
6
CONTINUOUS
10
-0.1180397637795276
20
1.7480629921259843
11
-0.1104484251968504
21
1.7480629921259843
0
LINE
8
BLACK
6
CONTINUOUS
10
-0.1104484251968504
20
1.7480629921259843
11
-0.1029505905511811
21
1.7492505511811023
0
LINE
8
BLACK
6
CONTINUOUS
10
-0.1029505905511811
20
1.7492505511811023
11
-0.0957308267716535
21
1.7515963779527559
0
LINE
8
BLACK
6
CONTINUOUS
10
-0.0957308267716535
20
1.7515963779527559
11
-0.0889669291338583
21
1.7550427559055117
0
LINE
8
BLACK
6
CONTINUOUS
10
-0.0889669291338583
20
1.7550427559055117
11
-0.0828254330708661
21
1.7595048031496063
0
LINE
8
BLACK
6
CONTINUOUS
10
-0.0828254330708661
20
1.7595048031496063
11
-0.0774575590551181
21
1.7648726771653542
0
LINE
8
BLACK
6
CONTINUOUS
10
-0.0774575590551181
20
1.7648726771653542
11
-0.0729955118110236
21
1.7710141732283464
0
LINE
8
BLACK
6
CONTINUOUS
10
-0.0729955118110236
20
1.7710141732283464
11
-0.0695491338582677
21
1.7777780708661417
0
LINE
8
BLACK
6
CONTINUOUS
10
-0.0695491338582677
20
1.7777780708661417
11
-0.0672033070866142
21
1.7849978346456692
0
LINE
8
BLACK
6
CONTINUOUS
10
-0.0672033070866142
20
1.7849978346456692
11
-0.0660157480314961
21
1.7924956692913385
0
LINE
8
BLACK
6
CONTINUOUS
10
-0.0660157480314961
20
1.7924956692913385
11
-0.0660157480314961
21
1.8000870078740157
0
LINE
8
BLACK
6
CONTINUOUS
10
-0.0660157480314961
20
1.8000870078740157
11
-0.0672033070866142
21
1.807584842519685
0
LINE
8
BLACK
6
CONTINUOUS
10
-0.0672033070866142
20
1.807584842519685
11
-0.0695491338582677
21
1.8148046062992125
0
LINE
8
BLACK
6
CONTINUOUS
10
-0.0695491338582677
20
1.8148046062992125
11
-0.0729955118110236
21
1.8215685039370078
0
LINE
8
BLACK
6
CONTINUOUS
10
-0.0729955118110236
20
1.8215685039370078
11
-0.0774575590551181
21
1.8277099999999999
0
LINE
8
BLACK
6
CONTINUOUS
10
-0.0774575590551181
20
1.8277099999999999
11
-0.0828254330708661
21
1.8330778740157481
0
LINE
8
BLACK
6
CONTINUOUS
10
-0.0828254330708661
20
1.8330778740157481
11
-0.0889669291338583
21
1.8375399212598424
0
LINE
8
BLACK
6
CONTINUOUS
10
-0.0889669291338583
20
1.8375399212598424
11
-0.0957308267716535
21
1.8409862992125985
0
LINE
8
BLACK
6
CONTINUOUS
10
-0.0957308267716535
20
1.8409862992125985
11
-0.1029505905511811
21
1.8433321259842519
0
LINE
8
BLACK
6
CONTINUOUS
10
-0.1029505905511811
20
1.8433321259842519
11
-0.1104484251968504
21
1.8445196850393701
0
LINE
8
BLACK
6
CONTINUOUS
10
-0.1104484251968504
20
1.8445196850393701
11
-0.1180397637795276
21
1.8445196850393701
0
LINE
8
BLACK
6
CONTINUOUS
10
-0.1180397637795276
20
1.8445196850393701
11
-0.1255375984251969
21
1.8433321259842519
0
LINE
8
BLACK
6
CONTINUOUS
10
-0.1255375984251969
20
1.8433321259842519
11
-0.1327573622047244
21
1.8409862992125985
0
LINE
8
BLACK
6
CONTINUOUS
10
-0.1327573622047244
20
1.8409862992125985
11
-0.1395212598425197
21
1.8375399212598424
0
LINE
8
BLACK
6
CONTINUOUS
10
-0.1395212598425197
20
1.8375399212598424
11
-0.1456627559055118
21
1.8330778740157481
0
LINE
8
BLACK
6
CONTINUOUS
10
-0.1456627559055118
20
1.8330778740157481
11
-0.1510306299212598
21
1.8277099999999999
0
LINE
8
BLACK
6
CONTINUOUS
10
-0.1510306299212598
20
1.8277099999999999
11
-0.1554926771653543
21
1.8215685039370078
0
LINE
8
BLACK
6
CONTINUOUS
10
-0.1554926771653543
20
1.8215685039370078
11
-0.1589390551181102
21
1.8148046062992125
0
LINE
8
BLACK
6
CONTINUOUS
10
-0.1589390551181102
20
1.8148046062992125
11
-0.1612848818897638
21
1.807584842519685
0
LINE
8
BLACK
6
CONTINUOUS
10
-0.1612848818897638
20
1.807584842519685
11
-0.1624724409448819
21
1.8000870078740157
0
LINE
8
BLACK
6
CONTINUOUS
10
-0.1624724409448819
20
1.8000870078740157
11
-0.1624724409448819
21
1.7924956692913385
0
CIRCLE
8
BLACK
10
1.5589527559055119
20
0.598822874015748
40
0.0068897637795276
0
CIRCLE
8
BLACK
10
1.6589527559055117
20
0.6988228740157481
40
0.0068897637795276
0
CIRCLE
8
BLACK
10
1.4589527559055118
20
0.6988228740157481
40
0.0068897637795276
0
CIRCLE
8
BLACK
10
1.6589527559055117
20
0.498822874015748
40
0.0068897637795276
0
CIRCLE
8
BLACK
10
1.4589527559055118
20
0.498822874015748
40
0.0068897637795276
0
CIRCLE
8
BLACK
10
0.666
20
1.359
40
0.0068897637795276
0
CIRCLE
8
BLACK
10
0.666
20
1.4590000000000001
40
0.0068897637795276
0
CIRCLE
8
BLACK
10
0.766
20
1.3589999606299212
40
0.0068897637795276
0
CIRCLE
8
BLACK
10
0.766
20
1.4590000393700786
40
0.0068897637795276
0
CIRCLE
8
BLACK
10
0.866
20
1.359
40
0.0068897637795276
0
CIRCLE
8
BLACK
10
0.866
20
1.4590000000000001
40
0.0068897637795276
0
CIRCLE
8
BLACK
10
0.4
20
0.4
40
0.0068897637795276
0
CIRCLE
8
BLACK
10
1.5999999999999999
20
1.2
40
0.0068897637795276
0
CIRCLE
8
BLACK
10
1.5999999999999999
20
0.4
40
0.0068897637795276
0
CIRCLE
8
BLACK
10
0.4
20
1.2
40
0.0068897637795276
0
CIRCLE
8
BLACK
10
1.5589527559055119
20
0.598822874015748
40
0.0068897637795276
0
CIRCLE
8
BLACK
10
1.6589527559055117
20
0.6988228740157481
40
0.0068897637795276
0
CIRCLE
8
BLACK
10
1.4589527559055118
20
0.6988228740157481
40
0.0068897637795276
0
CIRCLE
8
BLACK
10
1.6589527559055117
20
0.498822874015748
40
0.0068897637795276
0
CIRCLE
8
BLACK
10
1.4589527559055118
20
0.498822874015748
40
0.0068897637795276
0
CIRCLE
8
BLACK
10
0.666
20
1.359
40
0.0068897637795276
0
CIRCLE
8
BLACK
10
0.666
20
1.4590000000000001
40
0.0068897637795276
0
CIRCLE
8
BLACK
10
0.766
20
1.3589999606299212
40
0.0068897637795276
0
CIRCLE
8
BLACK
10
0.766
20
1.4590000393700786
40
0.0068897637795276
0
CIRCLE
8
BLACK
10
0.866
20
1.359
40
0.0068897637795276
0
CIRCLE
8
BLACK
10
0.866
20
1.4590000000000001
40
0.0068897637795276
0
CIRCLE
8
BLACK
10
0.4
20
0.4
40
0.0068897637795276
0
CIRCLE
8
BLACK
10
1.5999999999999999
20
1.2
40
0.0068897637795276
0
CIRCLE
8
BLACK
10
1.5999999999999999
20
0.4
40
0.0068897637795276
0
CIRCLE
8
BLACK
10
0.4
20
1.2
40
0.0068897637795276
  0
ENDSEC
  0
EOF
