  0
SECTION
  2
HEADER
  9
$ANGBASE
  50
0.0
  9
$ANGDIR
  70
1
  9
$MEASUREMENT
  70
0
  0
ENDSEC
  0
SECTION
  2
TABLES
  0
TABLE
  2
LTYPE
  70
4
  0
LTYPE
  5
40F
  2
CONTINUOUS
  70
0
  3
Solid line
  72
65
  73
0
  40
0.0
  0
LTYPE
  5
410
  2
DASHDOT
 70
0
  3
Dash Dot ____ _ ____ _
 72
65
 73
4
 40
2.0
 49
1.25
 49
-0.25
 49
0.25
 49
-0.25
  0
LTYPE
  5
411
  2
DASHED
 70
0
  3
Dashed __ __ __ __ __
 72
65
 73
2
 40
0.75
 49
0.5
 49
-0.25
  0
LTYPE
  5
43B
  2
DOTTED
 70
0
  3
Dotted .  .  .  .
 72
65
 73
2
 40
0.2
 49
0.0
 49
-0.2
  0
ENDTAB
  0
TABLE
  2
STYLE
  70
4
  0
STYLE
  2
KICAD
  70
0
  40
0
  41
1
  42
1
  50
0
  71
0
  3
isocp.shx
  0
STYLE
  2
KICADB
  70
0
  40
0
  41
1
  42
1
  50
0
  71
0
  3
isocp.shx
  0
STYLE
  2
KICADI
  70
0
  40
0
  41
1
  42
1
  50
15
  71
0
  3
isocp.shx
  0
STYLE
  2
KICADBI
  70
0
  40
0
  41
1
  42
1
  50
15
  71
0
  3
isocp.shx
  0
ENDTAB
  0
TABLE
  2
LAYER
  70
1
  0
LAYER
  2
BLACK
  70
0
  62
7
  6
CONTINUOUS
  0
ENDTAB
  0
ENDSEC
  0
SECTION
  2
ENTITIES
0
LINE
8
BLACK
6
CONTINUOUS
10
0.4197842125984252
20
0.5164414566929134
11
0.432697125984252
21
0.5134941732283465
0
LINE
8
BLACK
6
CONTINUOUS
10
0.432697125984252
20
0.5134941732283465
11
0.4451988188976378
21
0.5091196456692914
0
LINE
8
BLACK
6
CONTINUOUS
10
0.4451988188976378
20
0.5091196456692914
11
0.4571321653543307
21
0.5033728346456693
0
LINE
8
BLACK
6
CONTINUOUS
10
0.4571321653543307
20
0.5033728346456693
11
0.4683470078740157
21
0.4963261023622047
0
LINE
8
BLACK
6
CONTINUOUS
10
0.4683470078740157
20
0.4963261023622047
11
0.4787023622047244
21
0.4880679527559055
0
LINE
8
BLACK
6
CONTINUOUS
10
0.4787023622047244
20
0.4880679527559055
11
0.4880679527559055
21
0.4787023622047244
0
LINE
8
BLACK
6
CONTINUOUS
10
0.4880679527559055
20
0.4787023622047244
11
0.4963261023622047
21
0.4683470078740157
0
LINE
8
BLACK
6
CONTINUOUS
10
0.4963261023622047
20
0.4683470078740157
11
0.5033728346456693
21
0.4571321653543307
0
LINE
8
BLACK
6
CONTINUOUS
10
0.5033728346456693
20
0.4571321653543307
11
0.5091196456692914
21
0.4451988188976378
0
LINE
8
BLACK
6
CONTINUOUS
10
0.5091196456692914
20
0.4451988188976378
11
0.5134941732283465
21
0.432697125984252
0
LINE
8
BLACK
6
CONTINUOUS
10
0.5134941732283465
20
0.432697125984252
11
0.5164414566929134
21
0.4197842125984252
0
LINE
8
BLACK
6
CONTINUOUS
10
0.5164414566929134
20
0.4197842125984252
11
0.5179244094488189
21
0.4066224803149606
0
LINE
8
BLACK
6
CONTINUOUS
10
0.5179244094488189
20
0.4066224803149606
11
0.5179244094488189
21
0.3933775196850394
0
LINE
8
BLACK
6
CONTINUOUS
10
0.5179244094488189
20
0.3933775196850394
11
0.5164414566929134
21
0.3802157874015748
0
LINE
8
BLACK
6
CONTINUOUS
10
0.5164414566929134
20
0.3802157874015748
11
0.5134941732283465
21
0.367302874015748
0
LINE
8
BLACK
6
CONTINUOUS
10
0.5134941732283465
20
0.367302874015748
11
0.5091196456692914
21
0.3548011811023622
0
LINE
8
BLACK
6
CONTINUOUS
10
0.5091196456692914
20
0.3548011811023622
11
0.5033728346456693
21
0.3428678346456693
0
LINE
8
BLACK
6
CONTINUOUS
10
0.5033728346456693
20
0.3428678346456693
11
0.4963261023622047
21
0.3316529921259843
0
LINE
8
BLACK
6
CONTINUOUS
10
0.4963261023622047
20
0.3316529921259843
11
0.4880679527559055
21
0.3212976377952756
0
LINE
8
BLACK
6
CONTINUOUS
10
0.4880679527559055
20
0.3212976377952756
11
0.4787023622047244
21
0.3119320472440945
0
LINE
8
BLACK
6
CONTINUOUS
10
0.4787023622047244
20
0.3119320472440945
11
0.4683470078740157
21
0.3036738976377953
0
LINE
8
BLACK
6
CONTINUOUS
10
0.4683470078740157
20
0.3036738976377953
11
0.4571321653543307
21
0.2966271653543307
0
LINE
8
BLACK
6
CONTINUOUS
10
0.4571321653543307
20
0.2966271653543307
11
0.4451988188976378
21
0.2908803543307086
0
LINE
8
BLACK
6
CONTINUOUS
10
0.4451988188976378
20
0.2908803543307086
11
0.432697125984252
21
0.2865058267716535
0
LINE
8
BLACK
6
CONTINUOUS
10
0.432697125984252
20
0.2865058267716535
11
0.4197842125984252
21
0.2835585433070866
0
LINE
8
BLACK
6
CONTINUOUS
10
0.4197842125984252
20
0.2835585433070866
11
0.4066224803149606
21
0.2820755905511811
0
LINE
8
BLACK
6
CONTINUOUS
10
0.4066224803149606
20
0.2820755905511811
11
0.3933775196850394
21
0.2820755905511811
0
LINE
8
BLACK
6
CONTINUOUS
10
0.3933775196850394
20
0.2820755905511811
11
0.3802157874015748
21
0.2835585433070866
0
LINE
8
BLACK
6
CONTINUOUS
10
0.3802157874015748
20
0.2835585433070866
11
0.367302874015748
21
0.2865058267716535
0
LINE
8
BLACK
6
CONTINUOUS
10
0.367302874015748
20
0.2865058267716535
11
0.3548011811023622
21
0.2908803543307086
0
LINE
8
BLACK
6
CONTINUOUS
10
0.3548011811023622
20
0.2908803543307086
11
0.3428678346456693
21
0.2966271653543307
0
LINE
8
BLACK
6
CONTINUOUS
10
0.3428678346456693
20
0.2966271653543307
11
0.3316529921259843
21
0.3036738976377953
0
LINE
8
BLACK
6
CONTINUOUS
10
0.3316529921259843
20
0.3036738976377953
11
0.3212976377952756
21
0.3119320472440945
0
LINE
8
BLACK
6
CONTINUOUS
10
0.3212976377952756
20
0.3119320472440945
11
0.3119320472440945
21
0.3212976377952756
0
LINE
8
BLACK
6
CONTINUOUS
10
0.3119320472440945
20
0.3212976377952756
11
0.3036738976377953
21
0.3316529921259843
0
LINE
8
BLACK
6
CONTINUOUS
10
0.3036738976377953
20
0.3316529921259843
11
0.2966271653543307
21
0.3428678346456693
0
LINE
8
BLACK
6
CONTINUOUS
10
0.2966271653543307
20
0.3428678346456693
11
0.2908803543307086
21
0.3548011811023622
0
LINE
8
BLACK
6
CONTINUOUS
10
0.2908803543307086
20
0.3548011811023622
11
0.2865058267716535
21
0.367302874015748
0
LINE
8
BLACK
6
CONTINUOUS
10
0.2865058267716535
20
0.367302874015748
11
0.2835585433070866
21
0.3802157874015748
0
LINE
8
BLACK
6
CONTINUOUS
10
0.2835585433070866
20
0.3802157874015748
11
0.2820755905511811
21
0.3933775196850394
0
LINE
8
BLACK
6
CONTINUOUS
10
0.2820755905511811
20
0.3933775196850394
11
0.2820755905511811
21
0.4066224803149606
0
LINE
8
BLACK
6
CONTINUOUS
10
0.2820755905511811
20
0.4066224803149606
11
0.2835585433070866
21
0.4197842125984252
0
LINE
8
BLACK
6
CONTINUOUS
10
0.2835585433070866
20
0.4197842125984252
11
0.2865058267716535
21
0.432697125984252
0
LINE
8
BLACK
6
CONTINUOUS
10
0.2865058267716535
20
0.432697125984252
11
0.2908803543307086
21
0.4451988188976378
0
LINE
8
BLACK
6
CONTINUOUS
10
0.2908803543307086
20
0.4451988188976378
11
0.2966271653543307
21
0.4571321653543307
0
LINE
8
BLACK
6
CONTINUOUS
10
0.2966271653543307
20
0.4571321653543307
11
0.3036738976377953
21
0.4683470078740157
0
LINE
8
BLACK
6
CONTINUOUS
10
0.3036738976377953
20
0.4683470078740157
11
0.3119320472440945
21
0.4787023622047244
0
LINE
8
BLACK
6
CONTINUOUS
10
0.3119320472440945
20
0.4787023622047244
11
0.3212976377952756
21
0.4880679527559055
0
LINE
8
BLACK
6
CONTINUOUS
10
0.3212976377952756
20
0.4880679527559055
11
0.3316529921259843
21
0.4963261023622047
0
LINE
8
BLACK
6
CONTINUOUS
10
0.3316529921259843
20
0.4963261023622047
11
0.3428678346456693
21
0.5033728346456693
0
LINE
8
BLACK
6
CONTINUOUS
10
0.3428678346456693
20
0.5033728346456693
11
0.3548011811023622
21
0.5091196456692914
0
LINE
8
BLACK
6
CONTINUOUS
10
0.3548011811023622
20
0.5091196456692914
11
0.367302874015748
21
0.5134941732283465
0
LINE
8
BLACK
6
CONTINUOUS
10
0.367302874015748
20
0.5134941732283465
11
0.3802157874015748
21
0.5164414566929134
0
LINE
8
BLACK
6
CONTINUOUS
10
0.3802157874015748
20
0.5164414566929134
11
0.3933775196850394
21
0.5179244094488189
0
LINE
8
BLACK
6
CONTINUOUS
10
0.3933775196850394
20
0.5179244094488189
11
0.4066224803149606
21
0.5179244094488189
0
LINE
8
BLACK
6
CONTINUOUS
10
0.4066224803149606
20
0.5179244094488189
11
0.4197842125984252
21
0.5164414566929134
0
LINE
8
BLACK
6
CONTINUOUS
10
1.6713602755905512
20
0.550503937007874
11
1.6792922440944882
21
0.5479266929133858
0
LINE
8
BLACK
6
CONTINUOUS
10
1.6792922440944882
20
0.5479266929133858
11
1.6867233464566929
21
0.5441403543307086
0
LINE
8
BLACK
6
CONTINUOUS
10
1.6867233464566929
20
0.5441403543307086
11
1.6934706692913386
21
0.5392381496062992
0
LINE
8
BLACK
6
CONTINUOUS
10
1.6934706692913386
20
0.5392381496062992
11
1.6993680314960629
21
0.5333407874015748
0
LINE
8
BLACK
6
CONTINUOUS
10
1.6993680314960629
20
0.5333407874015748
11
1.7042702362204725
21
0.5265934645669291
0
LINE
8
BLACK
6
CONTINUOUS
10
1.7042702362204725
20
0.5265934645669291
11
1.7080565748031495
21
0.5191623622047244
0
LINE
8
BLACK
6
CONTINUOUS
10
1.7080565748031495
20
0.5191623622047244
11
1.7106338188976378
21
0.5112303937007874
0
LINE
8
BLACK
6
CONTINUOUS
10
1.7106338188976378
20
0.5112303937007874
11
1.7119385039370079
21
0.5029929527559055
0
LINE
8
BLACK
6
CONTINUOUS
10
1.7119385039370079
20
0.5029929527559055
11
1.7119385039370079
21
0.4946527952755905
0
LINE
8
BLACK
6
CONTINUOUS
10
1.7119385039370079
20
0.4946527952755905
11
1.7106338188976378
21
0.4864153543307086
0
LINE
8
BLACK
6
CONTINUOUS
10
1.7106338188976378
20
0.4864153543307086
11
1.7080565748031495
21
0.4784833858267716
0
LINE
8
BLACK
6
CONTINUOUS
10
1.7080565748031495
20
0.4784833858267716
11
1.7042702362204725
21
0.4710522834645669
0
LINE
8
BLACK
6
CONTINUOUS
10
1.7042702362204725
20
0.4710522834645669
11
1.6993680314960629
21
0.4643049606299213
0
LINE
8
BLACK
6
CONTINUOUS
10
1.6993680314960629
20
0.4643049606299213
11
1.6990596456692912
21
0.4639966141732283
0
LINE
8
BLACK
6
CONTINUOUS
10
1.6990596456692912
20
0.4639966141732283
11
1.7033728346456694
21
0.4571321653543307
0
LINE
8
BLACK
6
CONTINUOUS
10
1.7033728346456694
20
0.4571321653543307
11
1.7091196456692912
21
0.4451988188976378
0
LINE
8
BLACK
6
CONTINUOUS
10
1.7091196456692912
20
0.4451988188976378
11
1.7134941732283464
21
0.432697125984252
0
LINE
8
BLACK
6
CONTINUOUS
10
1.7134941732283464
20
0.432697125984252
11
1.7164414566929134
21
0.4197842125984252
0
LINE
8
BLACK
6
CONTINUOUS
10
1.7164414566929134
20
0.4197842125984252
11
1.7179244094488189
21
0.4066224803149606
0
LINE
8
BLACK
6
CONTINUOUS
10
1.7179244094488189
20
0.4066224803149606
11
1.7179244094488189
21
0.3933775196850394
0
LINE
8
BLACK
6
CONTINUOUS
10
1.7179244094488189
20
0.3933775196850394
11
1.7164414566929134
21
0.3802157874015748
0
LINE
8
BLACK
6
CONTINUOUS
10
1.7164414566929134
20
0.3802157874015748
11
1.7134941732283464
21
0.367302874015748
0
LINE
8
BLACK
6
CONTINUOUS
10
1.7134941732283464
20
0.367302874015748
11
1.7091196456692912
21
0.3548011811023622
0
LINE
8
BLACK
6
CONTINUOUS
10
1.7091196456692912
20
0.3548011811023622
11
1.7033728346456694
21
0.3428678346456693
0
LINE
8
BLACK
6
CONTINUOUS
10
1.7033728346456694
20
0.3428678346456693
11
1.6963261023622047
21
0.3316529921259843
0
LINE
8
BLACK
6
CONTINUOUS
10
1.6963261023622047
20
0.3316529921259843
11
1.6880679527559055
21
0.3212976377952756
0
LINE
8
BLACK
6
CONTINUOUS
10
1.6880679527559055
20
0.3212976377952756
11
1.6787023622047244
21
0.3119320472440945
0
LINE
8
BLACK
6
CONTINUOUS
10
1.6787023622047244
20
0.3119320472440945
11
1.6683470078740157
21
0.3036738976377953
0
LINE
8
BLACK
6
CONTINUOUS
10
1.6683470078740157
20
0.3036738976377953
11
1.6571321653543307
21
0.2966271653543307
0
LINE
8
BLACK
6
CONTINUOUS
10
1.6571321653543307
20
0.2966271653543307
11
1.6451988188976379
21
0.2908803543307086
0
LINE
8
BLACK
6
CONTINUOUS
10
1.6451988188976379
20
0.2908803543307086
11
1.632697125984252
21
0.2865058267716535
0
LINE
8
BLACK
6
CONTINUOUS
10
1.632697125984252
20
0.2865058267716535
11
1.6197842125984252
21
0.2835585433070866
0
LINE
8
BLACK
6
CONTINUOUS
10
1.6197842125984252
20
0.2835585433070866
11
1.6066224803149607
21
0.2820755905511811
0
LINE
8
BLACK
6
CONTINUOUS
10
1.6066224803149607
20
0.2820755905511811
11
1.5933775196850393
21
0.2820755905511811
0
LINE
8
BLACK
6
CONTINUOUS
10
1.5933775196850393
20
0.2820755905511811
11
1.5802157874015748
21
0.2835585433070866
0
LINE
8
BLACK
6
CONTINUOUS
10
1.5802157874015748
20
0.2835585433070866
11
1.567302874015748
21
0.2865058267716535
0
LINE
8
BLACK
6
CONTINUOUS
10
1.567302874015748
20
0.2865058267716535
11
1.5548011811023621
21
0.2908803543307086
0
LINE
8
BLACK
6
CONTINUOUS
10
1.5548011811023621
20
0.2908803543307086
11
1.5428678346456692
21
0.2966271653543307
0
LINE
8
BLACK
6
CONTINUOUS
10
1.5428678346456692
20
0.2966271653543307
11
1.5316529921259843
21
0.3036738976377953
0
LINE
8
BLACK
6
CONTINUOUS
10
1.5316529921259843
20
0.3036738976377953
11
1.5212976377952756
21
0.3119320472440945
0
LINE
8
BLACK
6
CONTINUOUS
10
1.5212976377952756
20
0.3119320472440945
11
1.5119320472440945
21
0.3212976377952756
0
LINE
8
BLACK
6
CONTINUOUS
10
1.5119320472440945
20
0.3212976377952756
11
1.5036738976377952
21
0.3316529921259843
0
LINE
8
BLACK
6
CONTINUOUS
10
1.5036738976377952
20
0.3316529921259843
11
1.4966271653543306
21
0.3428678346456693
0
LINE
8
BLACK
6
CONTINUOUS
10
1.4966271653543306
20
0.3428678346456693
11
1.4908803543307085
21
0.3548011811023622
0
LINE
8
BLACK
6
CONTINUOUS
10
1.4908803543307085
20
0.3548011811023622
11
1.4865058267716535
21
0.367302874015748
0
LINE
8
BLACK
6
CONTINUOUS
10
1.4865058267716535
20
0.367302874015748
11
1.4835585433070866
21
0.3802157874015748
0
LINE
8
BLACK
6
CONTINUOUS
10
1.4835585433070866
20
0.3802157874015748
11
1.4820755905511811
21
0.3933775196850394
0
LINE
8
BLACK
6
CONTINUOUS
10
1.4820755905511811
20
0.3933775196850394
11
1.4820755905511811
21
0.4066224803149606
0
LINE
8
BLACK
6
CONTINUOUS
10
1.4820755905511811
20
0.4066224803149606
11
1.4835585433070866
21
0.4197842125984252
0
LINE
8
BLACK
6
CONTINUOUS
10
1.4835585433070866
20
0.4197842125984252
11
1.4865058267716535
21
0.432697125984252
0
LINE
8
BLACK
6
CONTINUOUS
10
1.4865058267716535
20
0.432697125984252
11
1.4908803543307085
21
0.4451988188976378
0
LINE
8
BLACK
6
CONTINUOUS
10
1.4908803543307085
20
0.4451988188976378
11
1.4966271653543306
21
0.4571321653543307
0
LINE
8
BLACK
6
CONTINUOUS
10
1.4966271653543306
20
0.4571321653543307
11
1.5036738976377952
21
0.4683470078740157
0
LINE
8
BLACK
6
CONTINUOUS
10
1.5036738976377952
20
0.4683470078740157
11
1.5119320472440945
21
0.4787023622047244
0
LINE
8
BLACK
6
CONTINUOUS
10
1.5119320472440945
20
0.4787023622047244
11
1.5212976377952756
21
0.4880679527559055
0
LINE
8
BLACK
6
CONTINUOUS
10
1.5212976377952756
20
0.4880679527559055
11
1.5316529921259843
21
0.4963261023622047
0
LINE
8
BLACK
6
CONTINUOUS
10
1.5316529921259843
20
0.4963261023622047
11
1.5428678346456692
21
0.5033728346456693
0
LINE
8
BLACK
6
CONTINUOUS
10
1.5428678346456692
20
0.5033728346456693
11
1.5548011811023621
21
0.5091196456692914
0
LINE
8
BLACK
6
CONTINUOUS
10
1.5548011811023621
20
0.5091196456692914
11
1.567302874015748
21
0.5134941732283465
0
LINE
8
BLACK
6
CONTINUOUS
10
1.567302874015748
20
0.5134941732283465
11
1.5802157874015748
21
0.5164414566929134
0
LINE
8
BLACK
6
CONTINUOUS
10
1.5802157874015748
20
0.5164414566929134
11
1.5933775196850393
21
0.5179244094488189
0
LINE
8
BLACK
6
CONTINUOUS
10
1.5933775196850393
20
0.5179244094488189
11
1.6066224803149607
21
0.5179244094488189
0
LINE
8
BLACK
6
CONTINUOUS
10
1.6066224803149607
20
0.5179244094488189
11
1.6093469291338582
21
0.5176174409448818
0
LINE
8
BLACK
6
CONTINUOUS
10
1.6093469291338582
20
0.5176174409448818
11
1.6098489370078739
21
0.5191623622047244
0
LINE
8
BLACK
6
CONTINUOUS
10
1.6098489370078739
20
0.5191623622047244
11
1.6136352755905512
21
0.5265934645669291
0
LINE
8
BLACK
6
CONTINUOUS
10
1.6136352755905512
20
0.5265934645669291
11
1.6185374803149606
21
0.5333407874015748
0
LINE
8
BLACK
6
CONTINUOUS
10
1.6185374803149606
20
0.5333407874015748
11
1.6244348425196851
21
0.5392381496062992
0
LINE
8
BLACK
6
CONTINUOUS
10
1.6244348425196851
20
0.5392381496062992
11
1.6311821653543306
21
0.5441403543307086
0
LINE
8
BLACK
6
CONTINUOUS
10
1.6311821653543306
20
0.5441403543307086
11
1.6386132677165355
21
0.5479266929133858
0
LINE
8
BLACK
6
CONTINUOUS
10
1.6386132677165355
20
0.5479266929133858
11
1.6465452362204724
21
0.550503937007874
0
LINE
8
BLACK
6
CONTINUOUS
10
1.6465452362204724
20
0.550503937007874
11
1.6547826771653542
21
0.5518086220472441
0
LINE
8
BLACK
6
CONTINUOUS
10
1.6547826771653542
20
0.5518086220472441
11
1.6631228346456692
21
0.5518086220472441
0
LINE
8
BLACK
6
CONTINUOUS
10
1.6631228346456692
20
0.5518086220472441
11
1.6713602755905512
21
0.550503937007874
0
LINE
8
BLACK
6
CONTINUOUS
10
1.471360275590551
20
0.550503937007874
11
1.4792922440944882
21
0.5479266929133858
0
LINE
8
BLACK
6
CONTINUOUS
10
1.4792922440944882
20
0.5479266929133858
11
1.4867233464566929
21
0.5441403543307086
0
LINE
8
BLACK
6
CONTINUOUS
10
1.4867233464566929
20
0.5441403543307086
11
1.4934706692913386
21
0.5392381496062992
0
LINE
8
BLACK
6
CONTINUOUS
10
1.4934706692913386
20
0.5392381496062992
11
1.4993680314960629
21
0.5333407874015748
0
LINE
8
BLACK
6
CONTINUOUS
10
1.4993680314960629
20
0.5333407874015748
11
1.5042702362204725
21
0.5265934645669291
0
LINE
8
BLACK
6
CONTINUOUS
10
1.5042702362204725
20
0.5265934645669291
11
1.5080565748031496
21
0.5191623622047244
0
LINE
8
BLACK
6
CONTINUOUS
10
1.5080565748031496
20
0.5191623622047244
11
1.5106338188976378
21
0.5112303937007874
0
LINE
8
BLACK
6
CONTINUOUS
10
1.5106338188976378
20
0.5112303937007874
11
1.5119385039370079
21
0.5029929527559055
0
LINE
8
BLACK
6
CONTINUOUS
10
1.5119385039370079
20
0.5029929527559055
11
1.5119385039370079
21
0.4946527952755905
0
LINE
8
BLACK
6
CONTINUOUS
10
1.5119385039370079
20
0.4946527952755905
11
1.5106338188976378
21
0.4864153543307086
0
LINE
8
BLACK
6
CONTINUOUS
10
1.5106338188976378
20
0.4864153543307086
11
1.5080565748031496
21
0.4784833858267716
0
LINE
8
BLACK
6
CONTINUOUS
10
1.5080565748031496
20
0.4784833858267716
11
1.5042702362204725
21
0.4710522834645669
0
LINE
8
BLACK
6
CONTINUOUS
10
1.5042702362204725
20
0.4710522834645669
11
1.4993680314960629
21
0.4643049606299213
0
LINE
8
BLACK
6
CONTINUOUS
10
1.4993680314960629
20
0.4643049606299213
11
1.4934706692913386
21
0.4584075984251968
0
LINE
8
BLACK
6
CONTINUOUS
10
1.4934706692913386
20
0.4584075984251968
11
1.4867233464566929
21
0.4535053937007874
0
LINE
8
BLACK
6
CONTINUOUS
10
1.4867233464566929
20
0.4535053937007874
11
1.4792922440944882
21
0.4497190551181102
0
LINE
8
BLACK
6
CONTINUOUS
10
1.4792922440944882
20
0.4497190551181102
11
1.471360275590551
21
0.447141811023622
0
LINE
8
BLACK
6
CONTINUOUS
10
1.471360275590551
20
0.447141811023622
11
1.4631228346456693
21
0.445837125984252
0
LINE
8
BLACK
6
CONTINUOUS
10
1.4631228346456693
20
0.445837125984252
11
1.4547826771653543
21
0.445837125984252
0
LINE
8
BLACK
6
CONTINUOUS
10
1.4547826771653543
20
0.445837125984252
11
1.4465452362204725
21
0.447141811023622
0
LINE
8
BLACK
6
CONTINUOUS
10
1.4465452362204725
20
0.447141811023622
11
1.4386132677165353
21
0.4497190551181102
0
LINE
8
BLACK
6
CONTINUOUS
10
1.4386132677165353
20
0.4497190551181102
11
1.4311821653543306
21
0.4535053937007874
0
LINE
8
BLACK
6
CONTINUOUS
10
1.4311821653543306
20
0.4535053937007874
11
1.4244348425196851
21
0.4584075984251968
0
LINE
8
BLACK
6
CONTINUOUS
10
1.4244348425196851
20
0.4584075984251968
11
1.4185374803149606
21
0.4643049606299213
0
LINE
8
BLACK
6
CONTINUOUS
10
1.4185374803149606
20
0.4643049606299213
11
1.4136352755905512
21
0.4710522834645669
0
LINE
8
BLACK
6
CONTINUOUS
10
1.4136352755905512
20
0.4710522834645669
11
1.4098489370078739
21
0.4784833858267716
0
LINE
8
BLACK
6
CONTINUOUS
10
1.4098489370078739
20
0.4784833858267716
11
1.4072716929133857
21
0.4864153543307086
0
LINE
8
BLACK
6
CONTINUOUS
10
1.4072716929133857
20
0.4864153543307086
11
1.4059670078740156
21
0.4946527952755905
0
LINE
8
BLACK
6
CONTINUOUS
10
1.4059670078740156
20
0.4946527952755905
11
1.4059670078740156
21
0.5029929527559055
0
LINE
8
BLACK
6
CONTINUOUS
10
1.4059670078740156
20
0.5029929527559055
11
1.4072716929133857
21
0.5112303937007874
0
LINE
8
BLACK
6
CONTINUOUS
10
1.4072716929133857
20
0.5112303937007874
11
1.4098489370078739
21
0.5191623622047244
0
LINE
8
BLACK
6
CONTINUOUS
10
1.4098489370078739
20
0.5191623622047244
11
1.4136352755905512
21
0.5265934645669291
0
LINE
8
BLACK
6
CONTINUOUS
10
1.4136352755905512
20
0.5265934645669291
11
1.4185374803149606
21
0.5333407874015748
0
LINE
8
BLACK
6
CONTINUOUS
10
1.4185374803149606
20
0.5333407874015748
11
1.4244348425196851
21
0.5392381496062992
0
LINE
8
BLACK
6
CONTINUOUS
10
1.4244348425196851
20
0.5392381496062992
11
1.4311821653543306
21
0.5441403543307086
0
LINE
8
BLACK
6
CONTINUOUS
10
1.4311821653543306
20
0.5441403543307086
11
1.4386132677165353
21
0.5479266929133858
0
LINE
8
BLACK
6
CONTINUOUS
10
1.4386132677165353
20
0.5479266929133858
11
1.4465452362204725
21
0.550503937007874
0
LINE
8
BLACK
6
CONTINUOUS
10
1.4465452362204725
20
0.550503937007874
11
1.4547826771653543
21
0.5518086220472441
0
LINE
8
BLACK
6
CONTINUOUS
10
1.4547826771653543
20
0.5518086220472441
11
1.4631228346456693
21
0.5518086220472441
0
LINE
8
BLACK
6
CONTINUOUS
10
1.4631228346456693
20
0.5518086220472441
11
1.471360275590551
21
0.550503937007874
0
LINE
8
BLACK
6
CONTINUOUS
10
1.5704412204724409
20
0.6466757086614173
11
1.5777855905511811
21
0.6442893700787401
0
LINE
8
BLACK
6
CONTINUOUS
10
1.5777855905511811
20
0.6442893700787401
11
1.5846662598425196
21
0.6407835039370079
0
LINE
8
BLACK
6
CONTINUOUS
10
1.5846662598425196
20
0.6407835039370079
11
1.590913779527559
21
0.6362444094488189
0
LINE
8
BLACK
6
CONTINUOUS
10
1.590913779527559
20
0.6362444094488189
11
1.5963742913385826
21
0.6307838976377953
0
LINE
8
BLACK
6
CONTINUOUS
10
1.5963742913385826
20
0.6307838976377953
11
1.6009133858267717
21
0.6245363779527559
0
LINE
8
BLACK
6
CONTINUOUS
10
1.6009133858267717
20
0.6245363779527559
11
1.6044192519685039
21
0.6176557086614173
0
LINE
8
BLACK
6
CONTINUOUS
10
1.6044192519685039
20
0.6176557086614173
11
1.6068055905511811
21
0.6103113385826772
0
LINE
8
BLACK
6
CONTINUOUS
10
1.6068055905511811
20
0.6103113385826772
11
1.6080136614173228
21
0.6026840551181102
0
LINE
8
BLACK
6
CONTINUOUS
10
1.6080136614173228
20
0.6026840551181102
11
1.6080136614173228
21
0.5949616929133859
0
LINE
8
BLACK
6
CONTINUOUS
10
1.6080136614173228
20
0.5949616929133859
11
1.6068055905511811
21
0.5873344094488189
0
LINE
8
BLACK
6
CONTINUOUS
10
1.6068055905511811
20
0.5873344094488189
11
1.6044192519685039
21
0.5799900393700788
0
LINE
8
BLACK
6
CONTINUOUS
10
1.6044192519685039
20
0.5799900393700788
11
1.6009133858267717
21
0.5731093700787402
0
LINE
8
BLACK
6
CONTINUOUS
10
1.6009133858267717
20
0.5731093700787402
11
1.5963742913385826
21
0.5668618503937007
0
LINE
8
BLACK
6
CONTINUOUS
10
1.5963742913385826
20
0.5668618503937007
11
1.590913779527559
21
0.5614013385826772
0
LINE
8
BLACK
6
CONTINUOUS
10
1.590913779527559
20
0.5614013385826772
11
1.5846662598425196
21
0.5568622440944881
0
LINE
8
BLACK
6
CONTINUOUS
10
1.5846662598425196
20
0.5568622440944881
11
1.5777855905511811
21
0.5533563779527559
0
LINE
8
BLACK
6
CONTINUOUS
10
1.5777855905511811
20
0.5533563779527559
11
1.5704412204724409
21
0.5509700393700787
0
LINE
8
BLACK
6
CONTINUOUS
10
1.5704412204724409
20
0.5509700393700787
11
1.562813937007874
21
0.549761968503937
0
LINE
8
BLACK
6
CONTINUOUS
10
1.562813937007874
20
0.549761968503937
11
1.5550915748031495
21
0.549761968503937
0
LINE
8
BLACK
6
CONTINUOUS
10
1.5550915748031495
20
0.549761968503937
11
1.5474642913385825
21
0.5509700393700787
0
LINE
8
BLACK
6
CONTINUOUS
10
1.5474642913385825
20
0.5509700393700787
11
1.5401199212598424
21
0.5533563779527559
0
LINE
8
BLACK
6
CONTINUOUS
10
1.5401199212598424
20
0.5533563779527559
11
1.5332392519685039
21
0.5568622440944881
0
LINE
8
BLACK
6
CONTINUOUS
10
1.5332392519685039
20
0.5568622440944881
11
1.5269917322834645
21
0.5614013385826772
0
LINE
8
BLACK
6
CONTINUOUS
10
1.5269917322834645
20
0.5614013385826772
11
1.5215312204724409
21
0.5668618503937007
0
LINE
8
BLACK
6
CONTINUOUS
10
1.5215312204724409
20
0.5668618503937007
11
1.516992125984252
21
0.5731093700787402
0
LINE
8
BLACK
6
CONTINUOUS
10
1.516992125984252
20
0.5731093700787402
11
1.5134862598425196
21
0.5799900393700788
0
LINE
8
BLACK
6
CONTINUOUS
10
1.5134862598425196
20
0.5799900393700788
11
1.5110999212598424
21
0.5873344094488189
0
LINE
8
BLACK
6
CONTINUOUS
10
1.5110999212598424
20
0.5873344094488189
11
1.5098918503937007
21
0.5949616929133859
0
LINE
8
BLACK
6
CONTINUOUS
10
1.5098918503937007
20
0.5949616929133859
11
1.5098918503937007
21
0.6026840551181102
0
LINE
8
BLACK
6
CONTINUOUS
10
1.5098918503937007
20
0.6026840551181102
11
1.5110999212598424
21
0.6103113385826772
0
LINE
8
BLACK
6
CONTINUOUS
10
1.5110999212598424
20
0.6103113385826772
11
1.5134862598425196
21
0.6176557086614173
0
LINE
8
BLACK
6
CONTINUOUS
10
1.5134862598425196
20
0.6176557086614173
11
1.516992125984252
21
0.6245363779527559
0
LINE
8
BLACK
6
CONTINUOUS
10
1.516992125984252
20
0.6245363779527559
11
1.5215312204724409
21
0.6307838976377953
0
LINE
8
BLACK
6
CONTINUOUS
10
1.5215312204724409
20
0.6307838976377953
11
1.5269917322834645
21
0.6362444094488189
0
LINE
8
BLACK
6
CONTINUOUS
10
1.5269917322834645
20
0.6362444094488189
11
1.5332392519685039
21
0.6407835039370079
0
LINE
8
BLACK
6
CONTINUOUS
10
1.5332392519685039
20
0.6407835039370079
11
1.5401199212598424
21
0.6442893700787401
0
LINE
8
BLACK
6
CONTINUOUS
10
1.5401199212598424
20
0.6442893700787401
11
1.5474642913385825
21
0.6466757086614173
0
LINE
8
BLACK
6
CONTINUOUS
10
1.5474642913385825
20
0.6466757086614173
11
1.5550915748031495
21
0.647883779527559
0
LINE
8
BLACK
6
CONTINUOUS
10
1.5550915748031495
20
0.647883779527559
11
1.562813937007874
21
0.647883779527559
0
LINE
8
BLACK
6
CONTINUOUS
10
1.562813937007874
20
0.647883779527559
11
1.5704412204724409
21
0.6466757086614173
0
LINE
8
BLACK
6
CONTINUOUS
10
1.471360275590551
20
0.750503937007874
11
1.4792922440944882
21
0.7479266929133858
0
LINE
8
BLACK
6
CONTINUOUS
10
1.4792922440944882
20
0.7479266929133858
11
1.4867233464566929
21
0.7441403543307087
0
LINE
8
BLACK
6
CONTINUOUS
10
1.4867233464566929
20
0.7441403543307087
11
1.4934706692913386
21
0.7392381496062992
0
LINE
8
BLACK
6
CONTINUOUS
10
1.4934706692913386
20
0.7392381496062992
11
1.4993680314960629
21
0.7333407874015748
0
LINE
8
BLACK
6
CONTINUOUS
10
1.4993680314960629
20
0.7333407874015748
11
1.5042702362204725
21
0.7265934645669291
0
LINE
8
BLACK
6
CONTINUOUS
10
1.5042702362204725
20
0.7265934645669291
11
1.5080565748031496
21
0.7191623622047244
0
LINE
8
BLACK
6
CONTINUOUS
10
1.5080565748031496
20
0.7191623622047244
11
1.5106338188976378
21
0.7112303937007873
0
LINE
8
BLACK
6
CONTINUOUS
10
1.5106338188976378
20
0.7112303937007873
11
1.5119385039370079
21
0.7029929527559055
0
LINE
8
BLACK
6
CONTINUOUS
10
1.5119385039370079
20
0.7029929527559055
11
1.5119385039370079
21
0.6946527952755905
0
LINE
8
BLACK
6
CONTINUOUS
10
1.5119385039370079
20
0.6946527952755905
11
1.5106338188976378
21
0.6864153543307087
0
LINE
8
BLACK
6
CONTINUOUS
10
1.5106338188976378
20
0.6864153543307087
11
1.5080565748031496
21
0.6784833858267716
0
LINE
8
BLACK
6
CONTINUOUS
10
1.5080565748031496
20
0.6784833858267716
11
1.5042702362204725
21
0.6710522834645669
0
LINE
8
BLACK
6
CONTINUOUS
10
1.5042702362204725
20
0.6710522834645669
11
1.4993680314960629
21
0.6643049606299213
0
LINE
8
BLACK
6
CONTINUOUS
10
1.4993680314960629
20
0.6643049606299213
11
1.4934706692913386
21
0.6584075984251968
0
LINE
8
BLACK
6
CONTINUOUS
10
1.4934706692913386
20
0.6584075984251968
11
1.4867233464566929
21
0.6535053937007874
0
LINE
8
BLACK
6
CONTINUOUS
10
1.4867233464566929
20
0.6535053937007874
11
1.4792922440944882
21
0.6497190551181102
0
LINE
8
BLACK
6
CONTINUOUS
10
1.4792922440944882
20
0.6497190551181102
11
1.471360275590551
21
0.647141811023622
0
LINE
8
BLACK
6
CONTINUOUS
10
1.471360275590551
20
0.647141811023622
11
1.4631228346456693
21
0.6458371259842519
0
LINE
8
BLACK
6
CONTINUOUS
10
1.4631228346456693
20
0.6458371259842519
11
1.4547826771653543
21
0.6458371259842519
0
LINE
8
BLACK
6
CONTINUOUS
10
1.4547826771653543
20
0.6458371259842519
11
1.4465452362204725
21
0.647141811023622
0
LINE
8
BLACK
6
CONTINUOUS
10
1.4465452362204725
20
0.647141811023622
11
1.4386132677165353
21
0.6497190551181102
0
LINE
8
BLACK
6
CONTINUOUS
10
1.4386132677165353
20
0.6497190551181102
11
1.4311821653543306
21
0.6535053937007874
0
LINE
8
BLACK
6
CONTINUOUS
10
1.4311821653543306
20
0.6535053937007874
11
1.4244348425196851
21
0.6584075984251968
0
LINE
8
BLACK
6
CONTINUOUS
10
1.4244348425196851
20
0.6584075984251968
11
1.4185374803149606
21
0.6643049606299213
0
LINE
8
BLACK
6
CONTINUOUS
10
1.4185374803149606
20
0.6643049606299213
11
1.4136352755905512
21
0.6710522834645669
0
LINE
8
BLACK
6
CONTINUOUS
10
1.4136352755905512
20
0.6710522834645669
11
1.4098489370078739
21
0.6784833858267716
0
LINE
8
BLACK
6
CONTINUOUS
10
1.4098489370078739
20
0.6784833858267716
11
1.4072716929133857
21
0.6864153543307087
0
LINE
8
BLACK
6
CONTINUOUS
10
1.4072716929133857
20
0.6864153543307087
11
1.4059670078740156
21
0.6946527952755905
0
LINE
8
BLACK
6
CONTINUOUS
10
1.4059670078740156
20
0.6946527952755905
11
1.4059670078740156
21
0.7029929527559055
0
LINE
8
BLACK
6
CONTINUOUS
10
1.4059670078740156
20
0.7029929527559055
11
1.4072716929133857
21
0.7112303937007873
0
LINE
8
BLACK
6
CONTINUOUS
10
1.4072716929133857
20
0.7112303937007873
11
1.4098489370078739
21
0.7191623622047244
0
LINE
8
BLACK
6
CONTINUOUS
10
1.4098489370078739
20
0.7191623622047244
11
1.4136352755905512
21
0.7265934645669291
0
LINE
8
BLACK
6
CONTINUOUS
10
1.4136352755905512
20
0.7265934645669291
11
1.4185374803149606
21
0.7333407874015748
0
LINE
8
BLACK
6
CONTINUOUS
10
1.4185374803149606
20
0.7333407874015748
11
1.4244348425196851
21
0.7392381496062992
0
LINE
8
BLACK
6
CONTINUOUS
10
1.4244348425196851
20
0.7392381496062992
11
1.4311821653543306
21
0.7441403543307087
0
LINE
8
BLACK
6
CONTINUOUS
10
1.4311821653543306
20
0.7441403543307087
11
1.4386132677165353
21
0.7479266929133858
0
LINE
8
BLACK
6
CONTINUOUS
10
1.4386132677165353
20
0.7479266929133858
11
1.4465452362204725
21
0.750503937007874
0
LINE
8
BLACK
6
CONTINUOUS
10
1.4465452362204725
20
0.750503937007874
11
1.4547826771653543
21
0.7518086220472441
0
LINE
8
BLACK
6
CONTINUOUS
10
1.4547826771653543
20
0.7518086220472441
11
1.4631228346456693
21
0.7518086220472441
0
LINE
8
BLACK
6
CONTINUOUS
10
1.4631228346456693
20
0.7518086220472441
11
1.471360275590551
21
0.750503937007874
0
LINE
8
BLACK
6
CONTINUOUS
10
1.6713602755905512
20
0.750503937007874
11
1.6792922440944882
21
0.7479266929133858
0
LINE
8
BLACK
6
CONTINUOUS
10
1.6792922440944882
20
0.7479266929133858
11
1.6867233464566929
21
0.7441403543307087
0
LINE
8
BLACK
6
CONTINUOUS
10
1.6867233464566929
20
0.7441403543307087
11
1.6934706692913386
21
0.7392381496062992
0
LINE
8
BLACK
6
CONTINUOUS
10
1.6934706692913386
20
0.7392381496062992
11
1.6993680314960629
21
0.7333407874015748
0
LINE
8
BLACK
6
CONTINUOUS
10
1.6993680314960629
20
0.7333407874015748
11
1.7042702362204725
21
0.7265934645669291
0
LINE
8
BLACK
6
CONTINUOUS
10
1.7042702362204725
20
0.7265934645669291
11
1.7080565748031495
21
0.7191623622047244
0
LINE
8
BLACK
6
CONTINUOUS
10
1.7080565748031495
20
0.7191623622047244
11
1.7106338188976378
21
0.7112303937007873
0
LINE
8
BLACK
6
CONTINUOUS
10
1.7106338188976378
20
0.7112303937007873
11
1.7119385039370079
21
0.7029929527559055
0
LINE
8
BLACK
6
CONTINUOUS
10
1.7119385039370079
20
0.7029929527559055
11
1.7119385039370079
21
0.6946527952755905
0
LINE
8
BLACK
6
CONTINUOUS
10
1.7119385039370079
20
0.6946527952755905
11
1.7106338188976378
21
0.6864153543307087
0
LINE
8
BLACK
6
CONTINUOUS
10
1.7106338188976378
20
0.6864153543307087
11
1.7080565748031495
21
0.6784833858267716
0
LINE
8
BLACK
6
CONTINUOUS
10
1.7080565748031495
20
0.6784833858267716
11
1.7042702362204725
21
0.6710522834645669
0
LINE
8
BLACK
6
CONTINUOUS
10
1.7042702362204725
20
0.6710522834645669
11
1.6993680314960629
21
0.6643049606299213
0
LINE
8
BLACK
6
CONTINUOUS
10
1.6993680314960629
20
0.6643049606299213
11
1.6934706692913386
21
0.6584075984251968
0
LINE
8
BLACK
6
CONTINUOUS
10
1.6934706692913386
20
0.6584075984251968
11
1.6867233464566929
21
0.6535053937007874
0
LINE
8
BLACK
6
CONTINUOUS
10
1.6867233464566929
20
0.6535053937007874
11
1.6792922440944882
21
0.6497190551181102
0
LINE
8
BLACK
6
CONTINUOUS
10
1.6792922440944882
20
0.6497190551181102
11
1.6713602755905512
21
0.647141811023622
0
LINE
8
BLACK
6
CONTINUOUS
10
1.6713602755905512
20
0.647141811023622
11
1.6631228346456692
21
0.6458371259842519
0
LINE
8
BLACK
6
CONTINUOUS
10
1.6631228346456692
20
0.6458371259842519
11
1.6547826771653542
21
0.6458371259842519
0
LINE
8
BLACK
6
CONTINUOUS
10
1.6547826771653542
20
0.6458371259842519
11
1.6465452362204724
21
0.647141811023622
0
LINE
8
BLACK
6
CONTINUOUS
10
1.6465452362204724
20
0.647141811023622
11
1.6386132677165355
21
0.6497190551181102
0
LINE
8
BLACK
6
CONTINUOUS
10
1.6386132677165355
20
0.6497190551181102
11
1.6311821653543306
21
0.6535053937007874
0
LINE
8
BLACK
6
CONTINUOUS
10
1.6311821653543306
20
0.6535053937007874
11
1.6244348425196851
21
0.6584075984251968
0
LINE
8
BLACK
6
CONTINUOUS
10
1.6244348425196851
20
0.6584075984251968
11
1.6185374803149606
21
0.6643049606299213
0
LINE
8
BLACK
6
CONTINUOUS
10
1.6185374803149606
20
0.6643049606299213
11
1.6136352755905512
21
0.6710522834645669
0
LINE
8
BLACK
6
CONTINUOUS
10
1.6136352755905512
20
0.6710522834645669
11
1.6098489370078739
21
0.6784833858267716
0
LINE
8
BLACK
6
CONTINUOUS
10
1.6098489370078739
20
0.6784833858267716
11
1.6072716929133859
21
0.6864153543307087
0
LINE
8
BLACK
6
CONTINUOUS
10
1.6072716929133859
20
0.6864153543307087
11
1.6059670078740158
21
0.6946527952755905
0
LINE
8
BLACK
6
CONTINUOUS
10
1.6059670078740158
20
0.6946527952755905
11
1.6059670078740158
21
0.7029929527559055
0
LINE
8
BLACK
6
CONTINUOUS
10
1.6059670078740158
20
0.7029929527559055
11
1.6072716929133859
21
0.7112303937007873
0
LINE
8
BLACK
6
CONTINUOUS
10
1.6072716929133859
20
0.7112303937007873
11
1.6098489370078739
21
0.7191623622047244
0
LINE
8
BLACK
6
CONTINUOUS
10
1.6098489370078739
20
0.7191623622047244
11
1.6136352755905512
21
0.7265934645669291
0
LINE
8
BLACK
6
CONTINUOUS
10
1.6136352755905512
20
0.7265934645669291
11
1.6185374803149606
21
0.7333407874015748
0
LINE
8
BLACK
6
CONTINUOUS
10
1.6185374803149606
20
0.7333407874015748
11
1.6244348425196851
21
0.7392381496062992
0
LINE
8
BLACK
6
CONTINUOUS
10
1.6244348425196851
20
0.7392381496062992
11
1.6311821653543306
21
0.7441403543307087
0
LINE
8
BLACK
6
CONTINUOUS
10
1.6311821653543306
20
0.7441403543307087
11
1.6386132677165355
21
0.7479266929133858
0
LINE
8
BLACK
6
CONTINUOUS
10
1.6386132677165355
20
0.7479266929133858
11
1.6465452362204724
21
0.750503937007874
0
LINE
8
BLACK
6
CONTINUOUS
10
1.6465452362204724
20
0.750503937007874
11
1.6547826771653542
21
0.7518086220472441
0
LINE
8
BLACK
6
CONTINUOUS
10
1.6547826771653542
20
0.7518086220472441
11
1.6631228346456692
21
0.7518086220472441
0
LINE
8
BLACK
6
CONTINUOUS
10
1.6631228346456692
20
0.7518086220472441
11
1.6713602755905512
21
0.750503937007874
0
LINE
8
BLACK
6
CONTINUOUS
10
0.4197842125984252
20
1.3164414566929135
11
0.432697125984252
21
1.3134941732283465
0
LINE
8
BLACK
6
CONTINUOUS
10
0.432697125984252
20
1.3134941732283465
11
0.4451988188976378
21
1.3091196456692913
0
LINE
8
BLACK
6
CONTINUOUS
10
0.4451988188976378
20
1.3091196456692913
11
0.4571321653543307
21
1.3033728346456692
0
LINE
8
BLACK
6
CONTINUOUS
10
0.4571321653543307
20
1.3033728346456692
11
0.4683470078740157
21
1.2963261023622048
0
LINE
8
BLACK
6
CONTINUOUS
10
0.4683470078740157
20
1.2963261023622048
11
0.4787023622047244
21
1.2880679527559056
0
LINE
8
BLACK
6
CONTINUOUS
10
0.4787023622047244
20
1.2880679527559056
11
0.4880679527559055
21
1.2787023622047244
0
LINE
8
BLACK
6
CONTINUOUS
10
0.4880679527559055
20
1.2787023622047244
11
0.4963261023622047
21
1.2683470078740158
0
LINE
8
BLACK
6
CONTINUOUS
10
0.4963261023622047
20
1.2683470078740158
11
0.5033728346456693
21
1.2571321653543306
0
LINE
8
BLACK
6
CONTINUOUS
10
0.5033728346456693
20
1.2571321653543306
11
0.5091196456692914
21
1.2451988188976377
0
LINE
8
BLACK
6
CONTINUOUS
10
0.5091196456692914
20
1.2451988188976377
11
0.5134941732283465
21
1.2326971259842519
0
LINE
8
BLACK
6
CONTINUOUS
10
0.5134941732283465
20
1.2326971259842519
11
0.5164414566929134
21
1.2197842125984251
0
LINE
8
BLACK
6
CONTINUOUS
10
0.5164414566929134
20
1.2197842125984251
11
0.5179244094488189
21
1.2066224803149606
0
LINE
8
BLACK
6
CONTINUOUS
10
0.5179244094488189
20
1.2066224803149606
11
0.5179244094488189
21
1.1933775196850394
0
LINE
8
BLACK
6
CONTINUOUS
10
0.5179244094488189
20
1.1933775196850394
11
0.5164414566929134
21
1.1802157874015748
0
LINE
8
BLACK
6
CONTINUOUS
10
0.5164414566929134
20
1.1802157874015748
11
0.5134941732283465
21
1.1673028740157481
0
LINE
8
BLACK
6
CONTINUOUS
10
0.5134941732283465
20
1.1673028740157481
11
0.5091196456692914
21
1.1548011811023622
0
LINE
8
BLACK
6
CONTINUOUS
10
0.5091196456692914
20
1.1548011811023622
11
0.5033728346456693
21
1.1428678346456693
0
LINE
8
BLACK
6
CONTINUOUS
10
0.5033728346456693
20
1.1428678346456693
11
0.4963261023622047
21
1.1316529921259841
0
LINE
8
BLACK
6
CONTINUOUS
10
0.4963261023622047
20
1.1316529921259841
11
0.4880679527559055
21
1.1212976377952755
0
LINE
8
BLACK
6
CONTINUOUS
10
0.4880679527559055
20
1.1212976377952755
11
0.4787023622047244
21
1.1119320472440946
0
LINE
8
BLACK
6
CONTINUOUS
10
0.4787023622047244
20
1.1119320472440946
11
0.4683470078740157
21
1.1036738976377953
0
LINE
8
BLACK
6
CONTINUOUS
10
0.4683470078740157
20
1.1036738976377953
11
0.4571321653543307
21
1.0966271653543307
0
LINE
8
BLACK
6
CONTINUOUS
10
0.4571321653543307
20
1.0966271653543307
11
0.4451988188976378
21
1.0908803543307086
0
LINE
8
BLACK
6
CONTINUOUS
10
0.4451988188976378
20
1.0908803543307086
11
0.432697125984252
21
1.0865058267716534
0
LINE
8
BLACK
6
CONTINUOUS
10
0.432697125984252
20
1.0865058267716534
11
0.4197842125984252
21
1.0835585433070867
0
LINE
8
BLACK
6
CONTINUOUS
10
0.4197842125984252
20
1.0835585433070867
11
0.4066224803149606
21
1.0820755905511812
0
LINE
8
BLACK
6
CONTINUOUS
10
0.4066224803149606
20
1.0820755905511812
11
0.3933775196850394
21
1.0820755905511812
0
LINE
8
BLACK
6
CONTINUOUS
10
0.3933775196850394
20
1.0820755905511812
11
0.3802157874015748
21
1.0835585433070867
0
LINE
8
BLACK
6
CONTINUOUS
10
0.3802157874015748
20
1.0835585433070867
11
0.367302874015748
21
1.0865058267716534
0
LINE
8
BLACK
6
CONTINUOUS
10
0.367302874015748
20
1.0865058267716534
11
0.3548011811023622
21
1.0908803543307086
0
LINE
8
BLACK
6
CONTINUOUS
10
0.3548011811023622
20
1.0908803543307086
11
0.3428678346456693
21
1.0966271653543307
0
LINE
8
BLACK
6
CONTINUOUS
10
0.3428678346456693
20
1.0966271653543307
11
0.3316529921259843
21
1.1036738976377953
0
LINE
8
BLACK
6
CONTINUOUS
10
0.3316529921259843
20
1.1036738976377953
11
0.3212976377952756
21
1.1119320472440946
0
LINE
8
BLACK
6
CONTINUOUS
10
0.3212976377952756
20
1.1119320472440946
11
0.3119320472440945
21
1.1212976377952755
0
LINE
8
BLACK
6
CONTINUOUS
10
0.3119320472440945
20
1.1212976377952755
11
0.3036738976377953
21
1.1316529921259841
0
LINE
8
BLACK
6
CONTINUOUS
10
0.3036738976377953
20
1.1316529921259841
11
0.2966271653543307
21
1.1428678346456693
0
LINE
8
BLACK
6
CONTINUOUS
10
0.2966271653543307
20
1.1428678346456693
11
0.2908803543307086
21
1.1548011811023622
0
LINE
8
BLACK
6
CONTINUOUS
10
0.2908803543307086
20
1.1548011811023622
11
0.2865058267716535
21
1.1673028740157481
0
LINE
8
BLACK
6
CONTINUOUS
10
0.2865058267716535
20
1.1673028740157481
11
0.2835585433070866
21
1.1802157874015748
0
LINE
8
BLACK
6
CONTINUOUS
10
0.2835585433070866
20
1.1802157874015748
11
0.2820755905511811
21
1.1933775196850394
0
LINE
8
BLACK
6
CONTINUOUS
10
0.2820755905511811
20
1.1933775196850394
11
0.2820755905511811
21
1.2066224803149606
0
LINE
8
BLACK
6
CONTINUOUS
10
0.2820755905511811
20
1.2066224803149606
11
0.2835585433070866
21
1.2197842125984251
0
LINE
8
BLACK
6
CONTINUOUS
10
0.2835585433070866
20
1.2197842125984251
11
0.2865058267716535
21
1.2326971259842519
0
LINE
8
BLACK
6
CONTINUOUS
10
0.2865058267716535
20
1.2326971259842519
11
0.2908803543307086
21
1.2451988188976377
0
LINE
8
BLACK
6
CONTINUOUS
10
0.2908803543307086
20
1.2451988188976377
11
0.2966271653543307
21
1.2571321653543306
0
LINE
8
BLACK
6
CONTINUOUS
10
0.2966271653543307
20
1.2571321653543306
11
0.3036738976377953
21
1.2683470078740158
0
LINE
8
BLACK
6
CONTINUOUS
10
0.3036738976377953
20
1.2683470078740158
11
0.3119320472440945
21
1.2787023622047244
0
LINE
8
BLACK
6
CONTINUOUS
10
0.3119320472440945
20
1.2787023622047244
11
0.3212976377952756
21
1.2880679527559056
0
LINE
8
BLACK
6
CONTINUOUS
10
0.3212976377952756
20
1.2880679527559056
11
0.3316529921259843
21
1.2963261023622048
0
LINE
8
BLACK
6
CONTINUOUS
10
0.3316529921259843
20
1.2963261023622048
11
0.3428678346456693
21
1.3033728346456692
0
LINE
8
BLACK
6
CONTINUOUS
10
0.3428678346456693
20
1.3033728346456692
11
0.3548011811023622
21
1.3091196456692913
0
LINE
8
BLACK
6
CONTINUOUS
10
0.3548011811023622
20
1.3091196456692913
11
0.367302874015748
21
1.3134941732283465
0
LINE
8
BLACK
6
CONTINUOUS
10
0.367302874015748
20
1.3134941732283465
11
0.3802157874015748
21
1.3164414566929135
0
LINE
8
BLACK
6
CONTINUOUS
10
0.3802157874015748
20
1.3164414566929135
11
0.3933775196850394
21
1.3179244094488189
0
LINE
8
BLACK
6
CONTINUOUS
10
0.3933775196850394
20
1.3179244094488189
11
0.4066224803149606
21
1.3179244094488189
0
LINE
8
BLACK
6
CONTINUOUS
10
0.4066224803149606
20
1.3179244094488189
11
0.4197842125984252
21
1.3164414566929135
0
LINE
8
BLACK
6
CONTINUOUS
10
1.6197842125984252
20
1.3164414566929135
11
1.632697125984252
21
1.3134941732283465
0
LINE
8
BLACK
6
CONTINUOUS
10
1.632697125984252
20
1.3134941732283465
11
1.6451988188976379
21
1.3091196456692913
0
LINE
8
BLACK
6
CONTINUOUS
10
1.6451988188976379
20
1.3091196456692913
11
1.6571321653543307
21
1.3033728346456692
0
LINE
8
BLACK
6
CONTINUOUS
10
1.6571321653543307
20
1.3033728346456692
11
1.6683470078740157
21
1.2963261023622048
0
LINE
8
BLACK
6
CONTINUOUS
10
1.6683470078740157
20
1.2963261023622048
11
1.6787023622047244
21
1.2880679527559056
0
LINE
8
BLACK
6
CONTINUOUS
10
1.6787023622047244
20
1.2880679527559056
11
1.6880679527559055
21
1.2787023622047244
0
LINE
8
BLACK
6
CONTINUOUS
10
1.6880679527559055
20
1.2787023622047244
11
1.6963261023622047
21
1.2683470078740158
0
LINE
8
BLACK
6
CONTINUOUS
10
1.6963261023622047
20
1.2683470078740158
11
1.7033728346456694
21
1.2571321653543306
0
LINE
8
BLACK
6
CONTINUOUS
10
1.7033728346456694
20
1.2571321653543306
11
1.7091196456692912
21
1.2451988188976377
0
LINE
8
BLACK
6
CONTINUOUS
10
1.7091196456692912
20
1.2451988188976377
11
1.7134941732283464
21
1.2326971259842519
0
LINE
8
BLACK
6
CONTINUOUS
10
1.7134941732283464
20
1.2326971259842519
11
1.7164414566929134
21
1.2197842125984251
0
LINE
8
BLACK
6
CONTINUOUS
10
1.7164414566929134
20
1.2197842125984251
11
1.7179244094488189
21
1.2066224803149606
0
LINE
8
BLACK
6
CONTINUOUS
10
1.7179244094488189
20
1.2066224803149606
11
1.7179244094488189
21
1.1933775196850394
0
LINE
8
BLACK
6
CONTINUOUS
10
1.7179244094488189
20
1.1933775196850394
11
1.7164414566929134
21
1.1802157874015748
0
LINE
8
BLACK
6
CONTINUOUS
10
1.7164414566929134
20
1.1802157874015748
11
1.7134941732283464
21
1.1673028740157481
0
LINE
8
BLACK
6
CONTINUOUS
10
1.7134941732283464
20
1.1673028740157481
11
1.7091196456692912
21
1.1548011811023622
0
LINE
8
BLACK
6
CONTINUOUS
10
1.7091196456692912
20
1.1548011811023622
11
1.7033728346456694
21
1.1428678346456693
0
LINE
8
BLACK
6
CONTINUOUS
10
1.7033728346456694
20
1.1428678346456693
11
1.6963261023622047
21
1.1316529921259841
0
LINE
8
BLACK
6
CONTINUOUS
10
1.6963261023622047
20
1.1316529921259841
11
1.6880679527559055
21
1.1212976377952755
0
LINE
8
BLACK
6
CONTINUOUS
10
1.6880679527559055
20
1.1212976377952755
11
1.6787023622047244
21
1.1119320472440946
0
LINE
8
BLACK
6
CONTINUOUS
10
1.6787023622047244
20
1.1119320472440946
11
1.6683470078740157
21
1.1036738976377953
0
LINE
8
BLACK
6
CONTINUOUS
10
1.6683470078740157
20
1.1036738976377953
11
1.6571321653543307
21
1.0966271653543307
0
LINE
8
BLACK
6
CONTINUOUS
10
1.6571321653543307
20
1.0966271653543307
11
1.6451988188976379
21
1.0908803543307086
0
LINE
8
BLACK
6
CONTINUOUS
10
1.6451988188976379
20
1.0908803543307086
11
1.632697125984252
21
1.0865058267716534
0
LINE
8
BLACK
6
CONTINUOUS
10
1.632697125984252
20
1.0865058267716534
11
1.6197842125984252
21
1.0835585433070867
0
LINE
8
BLACK
6
CONTINUOUS
10
1.6197842125984252
20
1.0835585433070867
11
1.6066224803149607
21
1.0820755905511812
0
LINE
8
BLACK
6
CONTINUOUS
10
1.6066224803149607
20
1.0820755905511812
11
1.5933775196850393
21
1.0820755905511812
0
LINE
8
BLACK
6
CONTINUOUS
10
1.5933775196850393
20
1.0820755905511812
11
1.5802157874015748
21
1.0835585433070867
0
LINE
8
BLACK
6
CONTINUOUS
10
1.5802157874015748
20
1.0835585433070867
11
1.567302874015748
21
1.0865058267716534
0
LINE
8
BLACK
6
CONTINUOUS
10
1.567302874015748
20
1.0865058267716534
11
1.5548011811023621
21
1.0908803543307086
0
LINE
8
BLACK
6
CONTINUOUS
10
1.5548011811023621
20
1.0908803543307086
11
1.5428678346456692
21
1.0966271653543307
0
LINE
8
BLACK
6
CONTINUOUS
10
1.5428678346456692
20
1.0966271653543307
11
1.5316529921259843
21
1.1036738976377953
0
LINE
8
BLACK
6
CONTINUOUS
10
1.5316529921259843
20
1.1036738976377953
11
1.5212976377952756
21
1.1119320472440946
0
LINE
8
BLACK
6
CONTINUOUS
10
1.5212976377952756
20
1.1119320472440946
11
1.5119320472440945
21
1.1212976377952755
0
LINE
8
BLACK
6
CONTINUOUS
10
1.5119320472440945
20
1.1212976377952755
11
1.5036738976377952
21
1.1316529921259841
0
LINE
8
BLACK
6
CONTINUOUS
10
1.5036738976377952
20
1.1316529921259841
11
1.4966271653543306
21
1.1428678346456693
0
LINE
8
BLACK
6
CONTINUOUS
10
1.4966271653543306
20
1.1428678346456693
11
1.4908803543307085
21
1.1548011811023622
0
LINE
8
BLACK
6
CONTINUOUS
10
1.4908803543307085
20
1.1548011811023622
11
1.4865058267716535
21
1.1673028740157481
0
LINE
8
BLACK
6
CONTINUOUS
10
1.4865058267716535
20
1.1673028740157481
11
1.4835585433070866
21
1.1802157874015748
0
LINE
8
BLACK
6
CONTINUOUS
10
1.4835585433070866
20
1.1802157874015748
11
1.4820755905511811
21
1.1933775196850394
0
LINE
8
BLACK
6
CONTINUOUS
10
1.4820755905511811
20
1.1933775196850394
11
1.4820755905511811
21
1.2066224803149606
0
LINE
8
BLACK
6
CONTINUOUS
10
1.4820755905511811
20
1.2066224803149606
11
1.4835585433070866
21
1.2197842125984251
0
LINE
8
BLACK
6
CONTINUOUS
10
1.4835585433070866
20
1.2197842125984251
11
1.4865058267716535
21
1.2326971259842519
0
LINE
8
BLACK
6
CONTINUOUS
10
1.4865058267716535
20
1.2326971259842519
11
1.4908803543307085
21
1.2451988188976377
0
LINE
8
BLACK
6
CONTINUOUS
10
1.4908803543307085
20
1.2451988188976377
11
1.4966271653543306
21
1.2571321653543306
0
LINE
8
BLACK
6
CONTINUOUS
10
1.4966271653543306
20
1.2571321653543306
11
1.5036738976377952
21
1.2683470078740158
0
LINE
8
BLACK
6
CONTINUOUS
10
1.5036738976377952
20
1.2683470078740158
11
1.5119320472440945
21
1.2787023622047244
0
LINE
8
BLACK
6
CONTINUOUS
10
1.5119320472440945
20
1.2787023622047244
11
1.5212976377952756
21
1.2880679527559056
0
LINE
8
BLACK
6
CONTINUOUS
10
1.5212976377952756
20
1.2880679527559056
11
1.5316529921259843
21
1.2963261023622048
0
LINE
8
BLACK
6
CONTINUOUS
10
1.5316529921259843
20
1.2963261023622048
11
1.5428678346456692
21
1.3033728346456692
0
LINE
8
BLACK
6
CONTINUOUS
10
1.5428678346456692
20
1.3033728346456692
11
1.5548011811023621
21
1.3091196456692913
0
LINE
8
BLACK
6
CONTINUOUS
10
1.5548011811023621
20
1.3091196456692913
11
1.567302874015748
21
1.3134941732283465
0
LINE
8
BLACK
6
CONTINUOUS
10
1.567302874015748
20
1.3134941732283465
11
1.5802157874015748
21
1.3164414566929135
0
LINE
8
BLACK
6
CONTINUOUS
10
1.5802157874015748
20
1.3164414566929135
11
1.5933775196850393
21
1.3179244094488189
0
LINE
8
BLACK
6
CONTINUOUS
10
1.5933775196850393
20
1.3179244094488189
11
1.6066224803149607
21
1.3179244094488189
0
LINE
8
BLACK
6
CONTINUOUS
10
1.6066224803149607
20
1.3179244094488189
11
1.6197842125984252
21
1.3164414566929135
0
LINE
8
BLACK
6
CONTINUOUS
10
0.7959999999999999
20
1.3289999606299212
11
0.736
21
1.3289999606299212
0
LINE
8
BLACK
6
CONTINUOUS
10
0.736
20
1.3289999606299212
11
0.736
21
1.3889999606299213
0
LINE
8
BLACK
6
CONTINUOUS
10
0.736
20
1.3889999606299213
11
0.7959999999999999
21
1.3889999606299213
0
LINE
8
BLACK
6
CONTINUOUS
10
0.7959999999999999
20
1.3889999606299213
11
0.7959999999999999
21
1.3289999606299212
0
LINE
8
BLACK
6
CONTINUOUS
10
0.696
20
1.329
11
0.636
21
1.329
0
LINE
8
BLACK
6
CONTINUOUS
10
0.636
20
1.329
11
0.636
21
1.389
0
LINE
8
BLACK
6
CONTINUOUS
10
0.636
20
1.389
11
0.696
21
1.389
0
LINE
8
BLACK
6
CONTINUOUS
10
0.696
20
1.389
11
0.696
21
1.329
0
LINE
8
BLACK
6
CONTINUOUS
10
0.896
20
1.329
11
0.836
21
1.329
0
LINE
8
BLACK
6
CONTINUOUS
10
0.836
20
1.329
11
0.836
21
1.389
0
LINE
8
BLACK
6
CONTINUOUS
10
0.836
20
1.389
11
0.896
21
1.389
0
LINE
8
BLACK
6
CONTINUOUS
10
0.896
20
1.389
11
0.896
21
1.329
0
LINE
8
BLACK
6
CONTINUOUS
10
0.696
20
1.429
11
0.636
21
1.429
0
LINE
8
BLACK
6
CONTINUOUS
10
0.636
20
1.429
11
0.636
21
1.4889999999999999
0
LINE
8
BLACK
6
CONTINUOUS
10
0.636
20
1.4889999999999999
11
0.696
21
1.4889999999999999
0
LINE
8
BLACK
6
CONTINUOUS
10
0.696
20
1.4889999999999999
11
0.696
21
1.429
0
LINE
8
BLACK
6
CONTINUOUS
10
0.896
20
1.429
11
0.836
21
1.429
0
LINE
8
BLACK
6
CONTINUOUS
10
0.836
20
1.429
11
0.836
21
1.4889999999999999
0
LINE
8
BLACK
6
CONTINUOUS
10
0.836
20
1.4889999999999999
11
0.896
21
1.4889999999999999
0
LINE
8
BLACK
6
CONTINUOUS
10
0.896
20
1.4889999999999999
11
0.896
21
1.429
0
LINE
8
BLACK
6
CONTINUOUS
10
0.7959999999999999
20
1.4290000393700788
11
0.736
21
1.4290000393700788
0
LINE
8
BLACK
6
CONTINUOUS
10
0.736
20
1.4290000393700788
11
0.736
21
1.4890000393700786
0
LINE
8
BLACK
6
CONTINUOUS
10
0.736
20
1.4890000393700786
11
0.7959999999999999
21
1.4890000393700786
0
LINE
8
BLACK
6
CONTINUOUS
10
0.7959999999999999
20
1.4890000393700786
11
0.7959999999999999
21
1.4290000393700788
0
CIRCLE
8
BLACK
10
1.5589527559055119
20
0.598822874015748
40
0.0068897637795276
0
CIRCLE
8
BLACK
10
1.6589527559055117
20
0.6988228740157481
40
0.0068897637795276
0
CIRCLE
8
BLACK
10
1.4589527559055118
20
0.6988228740157481
40
0.0068897637795276
0
CIRCLE
8
BLACK
10
1.6589527559055117
20
0.498822874015748
40
0.0068897637795276
0
CIRCLE
8
BLACK
10
1.4589527559055118
20
0.498822874015748
40
0.0068897637795276
0
CIRCLE
8
BLACK
10
0.666
20
1.359
40
0.0068897637795276
0
CIRCLE
8
BLACK
10
0.666
20
1.4590000000000001
40
0.0068897637795276
0
CIRCLE
8
BLACK
10
0.766
20
1.3589999606299212
40
0.0068897637795276
0
CIRCLE
8
BLACK
10
0.766
20
1.4590000393700786
40
0.0068897637795276
0
CIRCLE
8
BLACK
10
0.866
20
1.359
40
0.0068897637795276
0
CIRCLE
8
BLACK
10
0.866
20
1.4590000000000001
40
0.0068897637795276
0
CIRCLE
8
BLACK
10
0.4
20
0.4
40
0.0068897637795276
0
CIRCLE
8
BLACK
10
1.5999999999999999
20
1.2
40
0.0068897637795276
0
CIRCLE
8
BLACK
10
1.5999999999999999
20
0.4
40
0.0068897637795276
0
CIRCLE
8
BLACK
10
0.4
20
1.2
40
0.0068897637795276
0
CIRCLE
8
WHITE
10
1.5589527559055119
20
0.598822874015748
40
0.0068897637795276
0
CIRCLE
8
WHITE
10
1.6589527559055117
20
0.6988228740157481
40
0.0068897637795276
0
CIRCLE
8
WHITE
10
1.4589527559055118
20
0.6988228740157481
40
0.0068897637795276
0
CIRCLE
8
WHITE
10
1.6589527559055117
20
0.498822874015748
40
0.0068897637795276
0
CIRCLE
8
WHITE
10
1.4589527559055118
20
0.498822874015748
40
0.0068897637795276
0
CIRCLE
8
WHITE
10
0.666
20
1.359
40
0.0068897637795276
0
CIRCLE
8
WHITE
10
0.666
20
1.4590000000000001
40
0.0068897637795276
0
CIRCLE
8
WHITE
10
0.766
20
1.3589999606299212
40
0.0068897637795276
0
CIRCLE
8
WHITE
10
0.766
20
1.4590000393700786
40
0.0068897637795276
0
CIRCLE
8
WHITE
10
0.866
20
1.359
40
0.0068897637795276
0
CIRCLE
8
WHITE
10
0.866
20
1.4590000000000001
40
0.0068897637795276
0
CIRCLE
8
WHITE
10
0.4
20
0.4
40
0.0068897637795276
0
CIRCLE
8
WHITE
10
1.5999999999999999
20
1.2
40
0.0068897637795276
0
CIRCLE
8
WHITE
10
1.5999999999999999
20
0.4
40
0.0068897637795276
0
CIRCLE
8
WHITE
10
0.4
20
1.2
40
0.0068897637795276
  0
ENDSEC
  0
EOF
