  0
SECTION
  2
HEADER
  9
$ANGBASE
  50
0.0
  9
$ANGDIR
  70
1
  9
$MEASUREMENT
  70
0
  0
ENDSEC
  0
SECTION
  2
TABLES
  0
TABLE
  2
LTYPE
  70
4
  0
LTYPE
  5
40F
  2
CONTINUOUS
  70
0
  3
Solid line
  72
65
  73
0
  40
0.0
  0
LTYPE
  5
410
  2
DASHDOT
 70
0
  3
Dash Dot ____ _ ____ _
 72
65
 73
4
 40
2.0
 49
1.25
 49
-0.25
 49
0.25
 49
-0.25
  0
LTYPE
  5
411
  2
DASHED
 70
0
  3
Dashed __ __ __ __ __
 72
65
 73
2
 40
0.75
 49
0.5
 49
-0.25
  0
LTYPE
  5
43B
  2
DOTTED
 70
0
  3
Dotted .  .  .  .
 72
65
 73
2
 40
0.2
 49
0.0
 49
-0.2
  0
ENDTAB
  0
TABLE
  2
STYLE
  70
4
  0
STYLE
  2
KICAD
  70
0
  40
0
  41
1
  42
1
  50
0
  71
0
  3
isocp.shx
  0
STYLE
  2
KICADB
  70
0
  40
0
  41
1
  42
1
  50
0
  71
0
  3
isocp.shx
  0
STYLE
  2
KICADI
  70
0
  40
0
  41
1
  42
1
  50
15
  71
0
  3
isocp.shx
  0
STYLE
  2
KICADBI
  70
0
  40
0
  41
1
  42
1
  50
15
  71
0
  3
isocp.shx
  0
ENDTAB
  0
TABLE
  2
LAYER
  70
1
  0
LAYER
  2
BLACK
  70
0
  62
7
  6
CONTINUOUS
  0
ENDTAB
  0
ENDSEC
  0
SECTION
  2
ENTITIES
0
LINE
8
BLACK
6
CONTINUOUS
10
0.6511129133858268
20
0.3294247244094488
11
0.6523901968503937
21
0.3285712992125984
0
LINE
8
BLACK
6
CONTINUOUS
10
0.6523901968503937
20
0.3285712992125984
11
0.6532436220472441
21
0.3272940157480315
0
LINE
8
BLACK
6
CONTINUOUS
10
0.6532436220472441
20
0.3272940157480315
11
0.6535433070866141
21
0.3257874015748031
0
LINE
8
BLACK
6
CONTINUOUS
10
0.6535433070866141
20
0.3257874015748031
11
0.6535433070866141
21
0.2755905511811024
0
LINE
8
BLACK
6
CONTINUOUS
10
0.6535433070866141
20
0.2755905511811024
11
0.6532436220472441
21
0.274083937007874
0
LINE
8
BLACK
6
CONTINUOUS
10
0.6532436220472441
20
0.274083937007874
11
0.6523901968503937
21
0.2728066535433071
0
LINE
8
BLACK
6
CONTINUOUS
10
0.6523901968503937
20
0.2728066535433071
11
0.6511129133858268
21
0.2719532283464567
0
LINE
8
BLACK
6
CONTINUOUS
10
0.6511129133858268
20
0.2719532283464567
11
0.6496062992125984
21
0.2716535433070866
0
LINE
8
BLACK
6
CONTINUOUS
10
0.6496062992125984
20
0.2716535433070866
11
0.6417322834645669
21
0.2716535433070866
0
LINE
8
BLACK
6
CONTINUOUS
10
0.6417322834645669
20
0.2716535433070866
11
0.6402256692913386
21
0.2719532283464567
0
LINE
8
BLACK
6
CONTINUOUS
10
0.6402256692913386
20
0.2719532283464567
11
0.6389483858267716
21
0.2728066535433071
0
LINE
8
BLACK
6
CONTINUOUS
10
0.6389483858267716
20
0.2728066535433071
11
0.6380949606299212
21
0.274083937007874
0
LINE
8
BLACK
6
CONTINUOUS
10
0.6380949606299212
20
0.274083937007874
11
0.6377952755905512
21
0.2755905511811024
0
LINE
8
BLACK
6
CONTINUOUS
10
0.6377952755905512
20
0.2755905511811024
11
0.6377952755905512
21
0.3257874015748031
0
LINE
8
BLACK
6
CONTINUOUS
10
0.6377952755905512
20
0.3257874015748031
11
0.6380949606299212
21
0.3272940157480315
0
LINE
8
BLACK
6
CONTINUOUS
10
0.6380949606299212
20
0.3272940157480315
11
0.6389483858267716
21
0.3285712992125984
0
LINE
8
BLACK
6
CONTINUOUS
10
0.6389483858267716
20
0.3285712992125984
11
0.6402256692913386
21
0.3294247244094488
0
LINE
8
BLACK
6
CONTINUOUS
10
0.6402256692913386
20
0.3294247244094488
11
0.6417322834645669
21
0.3297244094488189
0
LINE
8
BLACK
6
CONTINUOUS
10
0.6417322834645669
20
0.3297244094488189
11
0.6496062992125984
21
0.3297244094488189
0
LINE
8
BLACK
6
CONTINUOUS
10
0.6496062992125984
20
0.3297244094488189
11
0.6511129133858268
21
0.3294247244094488
0
LINE
8
BLACK
6
CONTINUOUS
10
0.6767034645669291
20
0.3294247244094488
11
0.677980748031496
21
0.3285712992125984
0
LINE
8
BLACK
6
CONTINUOUS
10
0.677980748031496
20
0.3285712992125984
11
0.6788341732283465
21
0.3272940157480315
0
LINE
8
BLACK
6
CONTINUOUS
10
0.6788341732283465
20
0.3272940157480315
11
0.6791338582677166
21
0.3257874015748031
0
LINE
8
BLACK
6
CONTINUOUS
10
0.6791338582677166
20
0.3257874015748031
11
0.6791338582677166
21
0.2755905511811024
0
LINE
8
BLACK
6
CONTINUOUS
10
0.6791338582677166
20
0.2755905511811024
11
0.6788341732283465
21
0.274083937007874
0
LINE
8
BLACK
6
CONTINUOUS
10
0.6788341732283465
20
0.274083937007874
11
0.677980748031496
21
0.2728066535433071
0
LINE
8
BLACK
6
CONTINUOUS
10
0.677980748031496
20
0.2728066535433071
11
0.6767034645669291
21
0.2719532283464567
0
LINE
8
BLACK
6
CONTINUOUS
10
0.6767034645669291
20
0.2719532283464567
11
0.6751968503937008
21
0.2716535433070866
0
LINE
8
BLACK
6
CONTINUOUS
10
0.6751968503937008
20
0.2716535433070866
11
0.6673228346456693
21
0.2716535433070866
0
LINE
8
BLACK
6
CONTINUOUS
10
0.6673228346456693
20
0.2716535433070866
11
0.6658162204724409
21
0.2719532283464567
0
LINE
8
BLACK
6
CONTINUOUS
10
0.6658162204724409
20
0.2719532283464567
11
0.664538937007874
21
0.2728066535433071
0
LINE
8
BLACK
6
CONTINUOUS
10
0.664538937007874
20
0.2728066535433071
11
0.6636855118110236
21
0.274083937007874
0
LINE
8
BLACK
6
CONTINUOUS
10
0.6636855118110236
20
0.274083937007874
11
0.6633858267716535
21
0.2755905511811024
0
LINE
8
BLACK
6
CONTINUOUS
10
0.6633858267716535
20
0.2755905511811024
11
0.6633858267716535
21
0.3257874015748031
0
LINE
8
BLACK
6
CONTINUOUS
10
0.6633858267716535
20
0.3257874015748031
11
0.6636855118110236
21
0.3272940157480315
0
LINE
8
BLACK
6
CONTINUOUS
10
0.6636855118110236
20
0.3272940157480315
11
0.664538937007874
21
0.3285712992125984
0
LINE
8
BLACK
6
CONTINUOUS
10
0.664538937007874
20
0.3285712992125984
11
0.6658162204724409
21
0.3294247244094488
0
LINE
8
BLACK
6
CONTINUOUS
10
0.6658162204724409
20
0.3294247244094488
11
0.6673228346456693
21
0.3297244094488189
0
LINE
8
BLACK
6
CONTINUOUS
10
0.6673228346456693
20
0.3297244094488189
11
0.6751968503937008
21
0.3297244094488189
0
LINE
8
BLACK
6
CONTINUOUS
10
0.6751968503937008
20
0.3297244094488189
11
0.6767034645669291
21
0.3294247244094488
0
LINE
8
BLACK
6
CONTINUOUS
10
0.7022940157480315
20
0.3294247244094488
11
0.7035712992125984
21
0.3285712992125984
0
LINE
8
BLACK
6
CONTINUOUS
10
0.7035712992125984
20
0.3285712992125984
11
0.7044247244094488
21
0.3272940157480315
0
LINE
8
BLACK
6
CONTINUOUS
10
0.7044247244094488
20
0.3272940157480315
11
0.7047244094488189
21
0.3257874015748031
0
LINE
8
BLACK
6
CONTINUOUS
10
0.7047244094488189
20
0.3257874015748031
11
0.7047244094488189
21
0.2755905511811024
0
LINE
8
BLACK
6
CONTINUOUS
10
0.7047244094488189
20
0.2755905511811024
11
0.7044247244094488
21
0.274083937007874
0
LINE
8
BLACK
6
CONTINUOUS
10
0.7044247244094488
20
0.274083937007874
11
0.7035712992125984
21
0.2728066535433071
0
LINE
8
BLACK
6
CONTINUOUS
10
0.7035712992125984
20
0.2728066535433071
11
0.7022940157480315
21
0.2719532283464567
0
LINE
8
BLACK
6
CONTINUOUS
10
0.7022940157480315
20
0.2719532283464567
11
0.7007874015748031
21
0.2716535433070866
0
LINE
8
BLACK
6
CONTINUOUS
10
0.7007874015748031
20
0.2716535433070866
11
0.6929133858267716
21
0.2716535433070866
0
LINE
8
BLACK
6
CONTINUOUS
10
0.6929133858267716
20
0.2716535433070866
11
0.6914067716535433
21
0.2719532283464567
0
LINE
8
BLACK
6
CONTINUOUS
10
0.6914067716535433
20
0.2719532283464567
11
0.6901294881889763
21
0.2728066535433071
0
LINE
8
BLACK
6
CONTINUOUS
10
0.6901294881889763
20
0.2728066535433071
11
0.689276062992126
21
0.274083937007874
0
LINE
8
BLACK
6
CONTINUOUS
10
0.689276062992126
20
0.274083937007874
11
0.6889763779527559
21
0.2755905511811024
0
LINE
8
BLACK
6
CONTINUOUS
10
0.6889763779527559
20
0.2755905511811024
11
0.6889763779527559
21
0.3257874015748031
0
LINE
8
BLACK
6
CONTINUOUS
10
0.6889763779527559
20
0.3257874015748031
11
0.689276062992126
21
0.3272940157480315
0
LINE
8
BLACK
6
CONTINUOUS
10
0.689276062992126
20
0.3272940157480315
11
0.6901294881889763
21
0.3285712992125984
0
LINE
8
BLACK
6
CONTINUOUS
10
0.6901294881889763
20
0.3285712992125984
11
0.6914067716535433
21
0.3294247244094488
0
LINE
8
BLACK
6
CONTINUOUS
10
0.6914067716535433
20
0.3294247244094488
11
0.6929133858267716
21
0.3297244094488189
0
LINE
8
BLACK
6
CONTINUOUS
10
0.6929133858267716
20
0.3297244094488189
11
0.7007874015748031
21
0.3297244094488189
0
LINE
8
BLACK
6
CONTINUOUS
10
0.7007874015748031
20
0.3297244094488189
11
0.7022940157480315
21
0.3294247244094488
0
LINE
8
BLACK
6
CONTINUOUS
10
0.7278845669291338
20
0.3294247244094488
11
0.7291618503937007
21
0.3285712992125984
0
LINE
8
BLACK
6
CONTINUOUS
10
0.7291618503937007
20
0.3285712992125984
11
0.7300152755905511
21
0.3272940157480315
0
LINE
8
BLACK
6
CONTINUOUS
10
0.7300152755905511
20
0.3272940157480315
11
0.7303149606299213
21
0.3257874015748031
0
LINE
8
BLACK
6
CONTINUOUS
10
0.7303149606299213
20
0.3257874015748031
11
0.7303149606299213
21
0.2755905511811024
0
LINE
8
BLACK
6
CONTINUOUS
10
0.7303149606299213
20
0.2755905511811024
11
0.7300152755905511
21
0.274083937007874
0
LINE
8
BLACK
6
CONTINUOUS
10
0.7300152755905511
20
0.274083937007874
11
0.7291618503937007
21
0.2728066535433071
0
LINE
8
BLACK
6
CONTINUOUS
10
0.7291618503937007
20
0.2728066535433071
11
0.7278845669291338
21
0.2719532283464567
0
LINE
8
BLACK
6
CONTINUOUS
10
0.7278845669291338
20
0.2719532283464567
11
0.7263779527559054
21
0.2716535433070866
0
LINE
8
BLACK
6
CONTINUOUS
10
0.7263779527559054
20
0.2716535433070866
11
0.718503937007874
21
0.2716535433070866
0
LINE
8
BLACK
6
CONTINUOUS
10
0.718503937007874
20
0.2716535433070866
11
0.7169973228346457
21
0.2719532283464567
0
LINE
8
BLACK
6
CONTINUOUS
10
0.7169973228346457
20
0.2719532283464567
11
0.7157200393700788
21
0.2728066535433071
0
LINE
8
BLACK
6
CONTINUOUS
10
0.7157200393700788
20
0.2728066535433071
11
0.7148666141732283
21
0.274083937007874
0
LINE
8
BLACK
6
CONTINUOUS
10
0.7148666141732283
20
0.274083937007874
11
0.7145669291338582
21
0.2755905511811024
0
LINE
8
BLACK
6
CONTINUOUS
10
0.7145669291338582
20
0.2755905511811024
11
0.7145669291338582
21
0.3257874015748031
0
LINE
8
BLACK
6
CONTINUOUS
10
0.7145669291338582
20
0.3257874015748031
11
0.7148666141732283
21
0.3272940157480315
0
LINE
8
BLACK
6
CONTINUOUS
10
0.7148666141732283
20
0.3272940157480315
11
0.7157200393700788
21
0.3285712992125984
0
LINE
8
BLACK
6
CONTINUOUS
10
0.7157200393700788
20
0.3285712992125984
11
0.7169973228346457
21
0.3294247244094488
0
LINE
8
BLACK
6
CONTINUOUS
10
0.7169973228346457
20
0.3294247244094488
11
0.718503937007874
21
0.3297244094488189
0
LINE
8
BLACK
6
CONTINUOUS
10
0.718503937007874
20
0.3297244094488189
11
0.7263779527559054
21
0.3297244094488189
0
LINE
8
BLACK
6
CONTINUOUS
10
0.7263779527559054
20
0.3297244094488189
11
0.7278845669291338
21
0.3294247244094488
0
LINE
8
BLACK
6
CONTINUOUS
10
0.7534751181102362
20
0.3294247244094488
11
0.7547524015748032
21
0.3285712992125984
0
LINE
8
BLACK
6
CONTINUOUS
10
0.7547524015748032
20
0.3285712992125984
11
0.7556058267716536
21
0.3272940157480315
0
LINE
8
BLACK
6
CONTINUOUS
10
0.7556058267716536
20
0.3272940157480315
11
0.7559055118110236
21
0.3257874015748031
0
LINE
8
BLACK
6
CONTINUOUS
10
0.7559055118110236
20
0.3257874015748031
11
0.7559055118110236
21
0.2755905511811024
0
LINE
8
BLACK
6
CONTINUOUS
10
0.7559055118110236
20
0.2755905511811024
11
0.7556058267716536
21
0.274083937007874
0
LINE
8
BLACK
6
CONTINUOUS
10
0.7556058267716536
20
0.274083937007874
11
0.7547524015748032
21
0.2728066535433071
0
LINE
8
BLACK
6
CONTINUOUS
10
0.7547524015748032
20
0.2728066535433071
11
0.7534751181102362
21
0.2719532283464567
0
LINE
8
BLACK
6
CONTINUOUS
10
0.7534751181102362
20
0.2719532283464567
11
0.7519685039370079
21
0.2716535433070866
0
LINE
8
BLACK
6
CONTINUOUS
10
0.7519685039370079
20
0.2716535433070866
11
0.7440944881889764
21
0.2716535433070866
0
LINE
8
BLACK
6
CONTINUOUS
10
0.7440944881889764
20
0.2716535433070866
11
0.742587874015748
21
0.2719532283464567
0
LINE
8
BLACK
6
CONTINUOUS
10
0.742587874015748
20
0.2719532283464567
11
0.7413105905511811
21
0.2728066535433071
0
LINE
8
BLACK
6
CONTINUOUS
10
0.7413105905511811
20
0.2728066535433071
11
0.7404571653543307
21
0.274083937007874
0
LINE
8
BLACK
6
CONTINUOUS
10
0.7404571653543307
20
0.274083937007874
11
0.7401574803149606
21
0.2755905511811024
0
LINE
8
BLACK
6
CONTINUOUS
10
0.7401574803149606
20
0.2755905511811024
11
0.7401574803149606
21
0.3257874015748031
0
LINE
8
BLACK
6
CONTINUOUS
10
0.7401574803149606
20
0.3257874015748031
11
0.7404571653543307
21
0.3272940157480315
0
LINE
8
BLACK
6
CONTINUOUS
10
0.7404571653543307
20
0.3272940157480315
11
0.7413105905511811
21
0.3285712992125984
0
LINE
8
BLACK
6
CONTINUOUS
10
0.7413105905511811
20
0.3285712992125984
11
0.742587874015748
21
0.3294247244094488
0
LINE
8
BLACK
6
CONTINUOUS
10
0.742587874015748
20
0.3294247244094488
11
0.7440944881889764
21
0.3297244094488189
0
LINE
8
BLACK
6
CONTINUOUS
10
0.7440944881889764
20
0.3297244094488189
11
0.7519685039370079
21
0.3297244094488189
0
LINE
8
BLACK
6
CONTINUOUS
10
0.7519685039370079
20
0.3297244094488189
11
0.7534751181102362
21
0.3294247244094488
0
LINE
8
BLACK
6
CONTINUOUS
10
0.7790656692913386
20
0.3294247244094488
11
0.7803429527559055
21
0.3285712992125984
0
LINE
8
BLACK
6
CONTINUOUS
10
0.7803429527559055
20
0.3285712992125984
11
0.7811963779527559
21
0.3272940157480315
0
LINE
8
BLACK
6
CONTINUOUS
10
0.7811963779527559
20
0.3272940157480315
11
0.7814960629921259
21
0.3257874015748031
0
LINE
8
BLACK
6
CONTINUOUS
10
0.7814960629921259
20
0.3257874015748031
11
0.7814960629921259
21
0.2755905511811024
0
LINE
8
BLACK
6
CONTINUOUS
10
0.7814960629921259
20
0.2755905511811024
11
0.7811963779527559
21
0.274083937007874
0
LINE
8
BLACK
6
CONTINUOUS
10
0.7811963779527559
20
0.274083937007874
11
0.7803429527559055
21
0.2728066535433071
0
LINE
8
BLACK
6
CONTINUOUS
10
0.7803429527559055
20
0.2728066535433071
11
0.7790656692913386
21
0.2719532283464567
0
LINE
8
BLACK
6
CONTINUOUS
10
0.7790656692913386
20
0.2719532283464567
11
0.7775590551181102
21
0.2716535433070866
0
LINE
8
BLACK
6
CONTINUOUS
10
0.7775590551181102
20
0.2716535433070866
11
0.7696850393700787
21
0.2716535433070866
0
LINE
8
BLACK
6
CONTINUOUS
10
0.7696850393700787
20
0.2716535433070866
11
0.7681784251968504
21
0.2719532283464567
0
LINE
8
BLACK
6
CONTINUOUS
10
0.7681784251968504
20
0.2719532283464567
11
0.7669011417322834
21
0.2728066535433071
0
LINE
8
BLACK
6
CONTINUOUS
10
0.7669011417322834
20
0.2728066535433071
11
0.766047716535433
21
0.274083937007874
0
LINE
8
BLACK
6
CONTINUOUS
10
0.766047716535433
20
0.274083937007874
11
0.765748031496063
21
0.2755905511811024
0
LINE
8
BLACK
6
CONTINUOUS
10
0.765748031496063
20
0.2755905511811024
11
0.765748031496063
21
0.3257874015748031
0
LINE
8
BLACK
6
CONTINUOUS
10
0.765748031496063
20
0.3257874015748031
11
0.766047716535433
21
0.3272940157480315
0
LINE
8
BLACK
6
CONTINUOUS
10
0.766047716535433
20
0.3272940157480315
11
0.7669011417322834
21
0.3285712992125984
0
LINE
8
BLACK
6
CONTINUOUS
10
0.7669011417322834
20
0.3285712992125984
11
0.7681784251968504
21
0.3294247244094488
0
LINE
8
BLACK
6
CONTINUOUS
10
0.7681784251968504
20
0.3294247244094488
11
0.7696850393700787
21
0.3297244094488189
0
LINE
8
BLACK
6
CONTINUOUS
10
0.7696850393700787
20
0.3297244094488189
11
0.7775590551181102
21
0.3297244094488189
0
LINE
8
BLACK
6
CONTINUOUS
10
0.7775590551181102
20
0.3297244094488189
11
0.7790656692913386
21
0.3294247244094488
0
LINE
8
BLACK
6
CONTINUOUS
10
0.8046562204724409
20
0.3294247244094488
11
0.8059335039370078
21
0.3285712992125984
0
LINE
8
BLACK
6
CONTINUOUS
10
0.8059335039370078
20
0.3285712992125984
11
0.8067869291338583
21
0.3272940157480315
0
LINE
8
BLACK
6
CONTINUOUS
10
0.8067869291338583
20
0.3272940157480315
11
0.8070866141732284
21
0.3257874015748031
0
LINE
8
BLACK
6
CONTINUOUS
10
0.8070866141732284
20
0.3257874015748031
11
0.8070866141732284
21
0.2755905511811024
0
LINE
8
BLACK
6
CONTINUOUS
10
0.8070866141732284
20
0.2755905511811024
11
0.8067869291338583
21
0.274083937007874
0
LINE
8
BLACK
6
CONTINUOUS
10
0.8067869291338583
20
0.274083937007874
11
0.8059335039370078
21
0.2728066535433071
0
LINE
8
BLACK
6
CONTINUOUS
10
0.8059335039370078
20
0.2728066535433071
11
0.8046562204724409
21
0.2719532283464567
0
LINE
8
BLACK
6
CONTINUOUS
10
0.8046562204724409
20
0.2719532283464567
11
0.8031496062992126
21
0.2716535433070866
0
LINE
8
BLACK
6
CONTINUOUS
10
0.8031496062992126
20
0.2716535433070866
11
0.7952755905511811
21
0.2716535433070866
0
LINE
8
BLACK
6
CONTINUOUS
10
0.7952755905511811
20
0.2716535433070866
11
0.7937689763779527
21
0.2719532283464567
0
LINE
8
BLACK
6
CONTINUOUS
10
0.7937689763779527
20
0.2719532283464567
11
0.7924916929133858
21
0.2728066535433071
0
LINE
8
BLACK
6
CONTINUOUS
10
0.7924916929133858
20
0.2728066535433071
11
0.7916382677165354
21
0.274083937007874
0
LINE
8
BLACK
6
CONTINUOUS
10
0.7916382677165354
20
0.274083937007874
11
0.7913385826771653
21
0.2755905511811024
0
LINE
8
BLACK
6
CONTINUOUS
10
0.7913385826771653
20
0.2755905511811024
11
0.7913385826771653
21
0.3257874015748031
0
LINE
8
BLACK
6
CONTINUOUS
10
0.7913385826771653
20
0.3257874015748031
11
0.7916382677165354
21
0.3272940157480315
0
LINE
8
BLACK
6
CONTINUOUS
10
0.7916382677165354
20
0.3272940157480315
11
0.7924916929133858
21
0.3285712992125984
0
LINE
8
BLACK
6
CONTINUOUS
10
0.7924916929133858
20
0.3285712992125984
11
0.7937689763779527
21
0.3294247244094488
0
LINE
8
BLACK
6
CONTINUOUS
10
0.7937689763779527
20
0.3294247244094488
11
0.7952755905511811
21
0.3297244094488189
0
LINE
8
BLACK
6
CONTINUOUS
10
0.7952755905511811
20
0.3297244094488189
11
0.8031496062992126
21
0.3297244094488189
0
LINE
8
BLACK
6
CONTINUOUS
10
0.8031496062992126
20
0.3297244094488189
11
0.8046562204724409
21
0.3294247244094488
0
LINE
8
BLACK
6
CONTINUOUS
10
0.6511129133858268
20
0.5548184251968504
11
0.6523901968503937
21
0.553965
0
LINE
8
BLACK
6
CONTINUOUS
10
0.6523901968503937
20
0.553965
11
0.6532436220472441
21
0.552687716535433
0
LINE
8
BLACK
6
CONTINUOUS
10
0.6532436220472441
20
0.552687716535433
11
0.6535433070866141
21
0.5511811023622047
0
LINE
8
BLACK
6
CONTINUOUS
10
0.6535433070866141
20
0.5511811023622047
11
0.6535433070866141
21
0.5009842519685039
0
LINE
8
BLACK
6
CONTINUOUS
10
0.6535433070866141
20
0.5009842519685039
11
0.6532436220472441
21
0.4994776377952756
0
LINE
8
BLACK
6
CONTINUOUS
10
0.6532436220472441
20
0.4994776377952756
11
0.6523901968503937
21
0.4982003543307086
0
LINE
8
BLACK
6
CONTINUOUS
10
0.6523901968503937
20
0.4982003543307086
11
0.6511129133858268
21
0.4973469291338583
0
LINE
8
BLACK
6
CONTINUOUS
10
0.6511129133858268
20
0.4973469291338583
11
0.6496062992125984
21
0.4970472440944882
0
LINE
8
BLACK
6
CONTINUOUS
10
0.6496062992125984
20
0.4970472440944882
11
0.6417322834645669
21
0.4970472440944882
0
LINE
8
BLACK
6
CONTINUOUS
10
0.6417322834645669
20
0.4970472440944882
11
0.6402256692913386
21
0.4973469291338583
0
LINE
8
BLACK
6
CONTINUOUS
10
0.6402256692913386
20
0.4973469291338583
11
0.6389483858267716
21
0.4982003543307086
0
LINE
8
BLACK
6
CONTINUOUS
10
0.6389483858267716
20
0.4982003543307086
11
0.6380949606299212
21
0.4994776377952756
0
LINE
8
BLACK
6
CONTINUOUS
10
0.6380949606299212
20
0.4994776377952756
11
0.6377952755905512
21
0.5009842519685039
0
LINE
8
BLACK
6
CONTINUOUS
10
0.6377952755905512
20
0.5009842519685039
11
0.6377952755905512
21
0.5511811023622047
0
LINE
8
BLACK
6
CONTINUOUS
10
0.6377952755905512
20
0.5511811023622047
11
0.6380949606299212
21
0.552687716535433
0
LINE
8
BLACK
6
CONTINUOUS
10
0.6380949606299212
20
0.552687716535433
11
0.6389483858267716
21
0.553965
0
LINE
8
BLACK
6
CONTINUOUS
10
0.6389483858267716
20
0.553965
11
0.6402256692913386
21
0.5548184251968504
0
LINE
8
BLACK
6
CONTINUOUS
10
0.6402256692913386
20
0.5548184251968504
11
0.6417322834645669
21
0.5551181102362205
0
LINE
8
BLACK
6
CONTINUOUS
10
0.6417322834645669
20
0.5551181102362205
11
0.6496062992125984
21
0.5551181102362205
0
LINE
8
BLACK
6
CONTINUOUS
10
0.6496062992125984
20
0.5551181102362205
11
0.6511129133858268
21
0.5548184251968504
0
LINE
8
BLACK
6
CONTINUOUS
10
0.6767034645669291
20
0.5548184251968504
11
0.677980748031496
21
0.553965
0
LINE
8
BLACK
6
CONTINUOUS
10
0.677980748031496
20
0.553965
11
0.6788341732283465
21
0.552687716535433
0
LINE
8
BLACK
6
CONTINUOUS
10
0.6788341732283465
20
0.552687716535433
11
0.6791338582677166
21
0.5511811023622047
0
LINE
8
BLACK
6
CONTINUOUS
10
0.6791338582677166
20
0.5511811023622047
11
0.6791338582677166
21
0.5009842519685039
0
LINE
8
BLACK
6
CONTINUOUS
10
0.6791338582677166
20
0.5009842519685039
11
0.6788341732283465
21
0.4994776377952756
0
LINE
8
BLACK
6
CONTINUOUS
10
0.6788341732283465
20
0.4994776377952756
11
0.677980748031496
21
0.4982003543307086
0
LINE
8
BLACK
6
CONTINUOUS
10
0.677980748031496
20
0.4982003543307086
11
0.6767034645669291
21
0.4973469291338583
0
LINE
8
BLACK
6
CONTINUOUS
10
0.6767034645669291
20
0.4973469291338583
11
0.6751968503937008
21
0.4970472440944882
0
LINE
8
BLACK
6
CONTINUOUS
10
0.6751968503937008
20
0.4970472440944882
11
0.6673228346456693
21
0.4970472440944882
0
LINE
8
BLACK
6
CONTINUOUS
10
0.6673228346456693
20
0.4970472440944882
11
0.6658162204724409
21
0.4973469291338583
0
LINE
8
BLACK
6
CONTINUOUS
10
0.6658162204724409
20
0.4973469291338583
11
0.664538937007874
21
0.4982003543307086
0
LINE
8
BLACK
6
CONTINUOUS
10
0.664538937007874
20
0.4982003543307086
11
0.6636855118110236
21
0.4994776377952756
0
LINE
8
BLACK
6
CONTINUOUS
10
0.6636855118110236
20
0.4994776377952756
11
0.6633858267716535
21
0.5009842519685039
0
LINE
8
BLACK
6
CONTINUOUS
10
0.6633858267716535
20
0.5009842519685039
11
0.6633858267716535
21
0.5511811023622047
0
LINE
8
BLACK
6
CONTINUOUS
10
0.6633858267716535
20
0.5511811023622047
11
0.6636855118110236
21
0.552687716535433
0
LINE
8
BLACK
6
CONTINUOUS
10
0.6636855118110236
20
0.552687716535433
11
0.664538937007874
21
0.553965
0
LINE
8
BLACK
6
CONTINUOUS
10
0.664538937007874
20
0.553965
11
0.6658162204724409
21
0.5548184251968504
0
LINE
8
BLACK
6
CONTINUOUS
10
0.6658162204724409
20
0.5548184251968504
11
0.6673228346456693
21
0.5551181102362205
0
LINE
8
BLACK
6
CONTINUOUS
10
0.6673228346456693
20
0.5551181102362205
11
0.6751968503937008
21
0.5551181102362205
0
LINE
8
BLACK
6
CONTINUOUS
10
0.6751968503937008
20
0.5551181102362205
11
0.6767034645669291
21
0.5548184251968504
0
LINE
8
BLACK
6
CONTINUOUS
10
0.7022940157480315
20
0.5548184251968504
11
0.7035712992125984
21
0.553965
0
LINE
8
BLACK
6
CONTINUOUS
10
0.7035712992125984
20
0.553965
11
0.7044247244094488
21
0.552687716535433
0
LINE
8
BLACK
6
CONTINUOUS
10
0.7044247244094488
20
0.552687716535433
11
0.7047244094488189
21
0.5511811023622047
0
LINE
8
BLACK
6
CONTINUOUS
10
0.7047244094488189
20
0.5511811023622047
11
0.7047244094488189
21
0.5009842519685039
0
LINE
8
BLACK
6
CONTINUOUS
10
0.7047244094488189
20
0.5009842519685039
11
0.7044247244094488
21
0.4994776377952756
0
LINE
8
BLACK
6
CONTINUOUS
10
0.7044247244094488
20
0.4994776377952756
11
0.7035712992125984
21
0.4982003543307086
0
LINE
8
BLACK
6
CONTINUOUS
10
0.7035712992125984
20
0.4982003543307086
11
0.7022940157480315
21
0.4973469291338583
0
LINE
8
BLACK
6
CONTINUOUS
10
0.7022940157480315
20
0.4973469291338583
11
0.7007874015748031
21
0.4970472440944882
0
LINE
8
BLACK
6
CONTINUOUS
10
0.7007874015748031
20
0.4970472440944882
11
0.6929133858267716
21
0.4970472440944882
0
LINE
8
BLACK
6
CONTINUOUS
10
0.6929133858267716
20
0.4970472440944882
11
0.6914067716535433
21
0.4973469291338583
0
LINE
8
BLACK
6
CONTINUOUS
10
0.6914067716535433
20
0.4973469291338583
11
0.6901294881889763
21
0.4982003543307086
0
LINE
8
BLACK
6
CONTINUOUS
10
0.6901294881889763
20
0.4982003543307086
11
0.689276062992126
21
0.4994776377952756
0
LINE
8
BLACK
6
CONTINUOUS
10
0.689276062992126
20
0.4994776377952756
11
0.6889763779527559
21
0.5009842519685039
0
LINE
8
BLACK
6
CONTINUOUS
10
0.6889763779527559
20
0.5009842519685039
11
0.6889763779527559
21
0.5511811023622047
0
LINE
8
BLACK
6
CONTINUOUS
10
0.6889763779527559
20
0.5511811023622047
11
0.689276062992126
21
0.552687716535433
0
LINE
8
BLACK
6
CONTINUOUS
10
0.689276062992126
20
0.552687716535433
11
0.6901294881889763
21
0.553965
0
LINE
8
BLACK
6
CONTINUOUS
10
0.6901294881889763
20
0.553965
11
0.6914067716535433
21
0.5548184251968504
0
LINE
8
BLACK
6
CONTINUOUS
10
0.6914067716535433
20
0.5548184251968504
11
0.6929133858267716
21
0.5551181102362205
0
LINE
8
BLACK
6
CONTINUOUS
10
0.6929133858267716
20
0.5551181102362205
11
0.7007874015748031
21
0.5551181102362205
0
LINE
8
BLACK
6
CONTINUOUS
10
0.7007874015748031
20
0.5551181102362205
11
0.7022940157480315
21
0.5548184251968504
0
LINE
8
BLACK
6
CONTINUOUS
10
0.7278845669291338
20
0.5548184251968504
11
0.7291618503937007
21
0.553965
0
LINE
8
BLACK
6
CONTINUOUS
10
0.7291618503937007
20
0.553965
11
0.7300152755905511
21
0.552687716535433
0
LINE
8
BLACK
6
CONTINUOUS
10
0.7300152755905511
20
0.552687716535433
11
0.7303149606299213
21
0.5511811023622047
0
LINE
8
BLACK
6
CONTINUOUS
10
0.7303149606299213
20
0.5511811023622047
11
0.7303149606299213
21
0.5009842519685039
0
LINE
8
BLACK
6
CONTINUOUS
10
0.7303149606299213
20
0.5009842519685039
11
0.7300152755905511
21
0.4994776377952756
0
LINE
8
BLACK
6
CONTINUOUS
10
0.7300152755905511
20
0.4994776377952756
11
0.7291618503937007
21
0.4982003543307086
0
LINE
8
BLACK
6
CONTINUOUS
10
0.7291618503937007
20
0.4982003543307086
11
0.7278845669291338
21
0.4973469291338583
0
LINE
8
BLACK
6
CONTINUOUS
10
0.7278845669291338
20
0.4973469291338583
11
0.7263779527559054
21
0.4970472440944882
0
LINE
8
BLACK
6
CONTINUOUS
10
0.7263779527559054
20
0.4970472440944882
11
0.718503937007874
21
0.4970472440944882
0
LINE
8
BLACK
6
CONTINUOUS
10
0.718503937007874
20
0.4970472440944882
11
0.7169973228346457
21
0.4973469291338583
0
LINE
8
BLACK
6
CONTINUOUS
10
0.7169973228346457
20
0.4973469291338583
11
0.7157200393700788
21
0.4982003543307086
0
LINE
8
BLACK
6
CONTINUOUS
10
0.7157200393700788
20
0.4982003543307086
11
0.7148666141732283
21
0.4994776377952756
0
LINE
8
BLACK
6
CONTINUOUS
10
0.7148666141732283
20
0.4994776377952756
11
0.7145669291338582
21
0.5009842519685039
0
LINE
8
BLACK
6
CONTINUOUS
10
0.7145669291338582
20
0.5009842519685039
11
0.7145669291338582
21
0.5511811023622047
0
LINE
8
BLACK
6
CONTINUOUS
10
0.7145669291338582
20
0.5511811023622047
11
0.7148666141732283
21
0.552687716535433
0
LINE
8
BLACK
6
CONTINUOUS
10
0.7148666141732283
20
0.552687716535433
11
0.7157200393700788
21
0.553965
0
LINE
8
BLACK
6
CONTINUOUS
10
0.7157200393700788
20
0.553965
11
0.7169973228346457
21
0.5548184251968504
0
LINE
8
BLACK
6
CONTINUOUS
10
0.7169973228346457
20
0.5548184251968504
11
0.718503937007874
21
0.5551181102362205
0
LINE
8
BLACK
6
CONTINUOUS
10
0.718503937007874
20
0.5551181102362205
11
0.7263779527559054
21
0.5551181102362205
0
LINE
8
BLACK
6
CONTINUOUS
10
0.7263779527559054
20
0.5551181102362205
11
0.7278845669291338
21
0.5548184251968504
0
LINE
8
BLACK
6
CONTINUOUS
10
0.7534751181102362
20
0.5548184251968504
11
0.7547524015748032
21
0.553965
0
LINE
8
BLACK
6
CONTINUOUS
10
0.7547524015748032
20
0.553965
11
0.7556058267716536
21
0.552687716535433
0
LINE
8
BLACK
6
CONTINUOUS
10
0.7556058267716536
20
0.552687716535433
11
0.7559055118110236
21
0.5511811023622047
0
LINE
8
BLACK
6
CONTINUOUS
10
0.7559055118110236
20
0.5511811023622047
11
0.7559055118110236
21
0.5009842519685039
0
LINE
8
BLACK
6
CONTINUOUS
10
0.7559055118110236
20
0.5009842519685039
11
0.7556058267716536
21
0.4994776377952756
0
LINE
8
BLACK
6
CONTINUOUS
10
0.7556058267716536
20
0.4994776377952756
11
0.7547524015748032
21
0.4982003543307086
0
LINE
8
BLACK
6
CONTINUOUS
10
0.7547524015748032
20
0.4982003543307086
11
0.7534751181102362
21
0.4973469291338583
0
LINE
8
BLACK
6
CONTINUOUS
10
0.7534751181102362
20
0.4973469291338583
11
0.7519685039370079
21
0.4970472440944882
0
LINE
8
BLACK
6
CONTINUOUS
10
0.7519685039370079
20
0.4970472440944882
11
0.7440944881889764
21
0.4970472440944882
0
LINE
8
BLACK
6
CONTINUOUS
10
0.7440944881889764
20
0.4970472440944882
11
0.742587874015748
21
0.4973469291338583
0
LINE
8
BLACK
6
CONTINUOUS
10
0.742587874015748
20
0.4973469291338583
11
0.7413105905511811
21
0.4982003543307086
0
LINE
8
BLACK
6
CONTINUOUS
10
0.7413105905511811
20
0.4982003543307086
11
0.7404571653543307
21
0.4994776377952756
0
LINE
8
BLACK
6
CONTINUOUS
10
0.7404571653543307
20
0.4994776377952756
11
0.7401574803149606
21
0.5009842519685039
0
LINE
8
BLACK
6
CONTINUOUS
10
0.7401574803149606
20
0.5009842519685039
11
0.7401574803149606
21
0.5511811023622047
0
LINE
8
BLACK
6
CONTINUOUS
10
0.7401574803149606
20
0.5511811023622047
11
0.7404571653543307
21
0.552687716535433
0
LINE
8
BLACK
6
CONTINUOUS
10
0.7404571653543307
20
0.552687716535433
11
0.7413105905511811
21
0.553965
0
LINE
8
BLACK
6
CONTINUOUS
10
0.7413105905511811
20
0.553965
11
0.742587874015748
21
0.5548184251968504
0
LINE
8
BLACK
6
CONTINUOUS
10
0.742587874015748
20
0.5548184251968504
11
0.7440944881889764
21
0.5551181102362205
0
LINE
8
BLACK
6
CONTINUOUS
10
0.7440944881889764
20
0.5551181102362205
11
0.7519685039370079
21
0.5551181102362205
0
LINE
8
BLACK
6
CONTINUOUS
10
0.7519685039370079
20
0.5551181102362205
11
0.7534751181102362
21
0.5548184251968504
0
LINE
8
BLACK
6
CONTINUOUS
10
0.7790656692913386
20
0.5548184251968504
11
0.7803429527559055
21
0.553965
0
LINE
8
BLACK
6
CONTINUOUS
10
0.7803429527559055
20
0.553965
11
0.7811963779527559
21
0.552687716535433
0
LINE
8
BLACK
6
CONTINUOUS
10
0.7811963779527559
20
0.552687716535433
11
0.7814960629921259
21
0.5511811023622047
0
LINE
8
BLACK
6
CONTINUOUS
10
0.7814960629921259
20
0.5511811023622047
11
0.7814960629921259
21
0.5009842519685039
0
LINE
8
BLACK
6
CONTINUOUS
10
0.7814960629921259
20
0.5009842519685039
11
0.7811963779527559
21
0.4994776377952756
0
LINE
8
BLACK
6
CONTINUOUS
10
0.7811963779527559
20
0.4994776377952756
11
0.7803429527559055
21
0.4982003543307086
0
LINE
8
BLACK
6
CONTINUOUS
10
0.7803429527559055
20
0.4982003543307086
11
0.7790656692913386
21
0.4973469291338583
0
LINE
8
BLACK
6
CONTINUOUS
10
0.7790656692913386
20
0.4973469291338583
11
0.7775590551181102
21
0.4970472440944882
0
LINE
8
BLACK
6
CONTINUOUS
10
0.7775590551181102
20
0.4970472440944882
11
0.7696850393700787
21
0.4970472440944882
0
LINE
8
BLACK
6
CONTINUOUS
10
0.7696850393700787
20
0.4970472440944882
11
0.7681784251968504
21
0.4973469291338583
0
LINE
8
BLACK
6
CONTINUOUS
10
0.7681784251968504
20
0.4973469291338583
11
0.7669011417322834
21
0.4982003543307086
0
LINE
8
BLACK
6
CONTINUOUS
10
0.7669011417322834
20
0.4982003543307086
11
0.766047716535433
21
0.4994776377952756
0
LINE
8
BLACK
6
CONTINUOUS
10
0.766047716535433
20
0.4994776377952756
11
0.765748031496063
21
0.5009842519685039
0
LINE
8
BLACK
6
CONTINUOUS
10
0.765748031496063
20
0.5009842519685039
11
0.765748031496063
21
0.5511811023622047
0
LINE
8
BLACK
6
CONTINUOUS
10
0.765748031496063
20
0.5511811023622047
11
0.766047716535433
21
0.552687716535433
0
LINE
8
BLACK
6
CONTINUOUS
10
0.766047716535433
20
0.552687716535433
11
0.7669011417322834
21
0.553965
0
LINE
8
BLACK
6
CONTINUOUS
10
0.7669011417322834
20
0.553965
11
0.7681784251968504
21
0.5548184251968504
0
LINE
8
BLACK
6
CONTINUOUS
10
0.7681784251968504
20
0.5548184251968504
11
0.7696850393700787
21
0.5551181102362205
0
LINE
8
BLACK
6
CONTINUOUS
10
0.7696850393700787
20
0.5551181102362205
11
0.7775590551181102
21
0.5551181102362205
0
LINE
8
BLACK
6
CONTINUOUS
10
0.7775590551181102
20
0.5551181102362205
11
0.7790656692913386
21
0.5548184251968504
0
LINE
8
BLACK
6
CONTINUOUS
10
0.8046562204724409
20
0.5548184251968504
11
0.8059335039370078
21
0.553965
0
LINE
8
BLACK
6
CONTINUOUS
10
0.8059335039370078
20
0.553965
11
0.8067869291338583
21
0.552687716535433
0
LINE
8
BLACK
6
CONTINUOUS
10
0.8067869291338583
20
0.552687716535433
11
0.8070866141732284
21
0.5511811023622047
0
LINE
8
BLACK
6
CONTINUOUS
10
0.8070866141732284
20
0.5511811023622047
11
0.8070866141732284
21
0.5009842519685039
0
LINE
8
BLACK
6
CONTINUOUS
10
0.8070866141732284
20
0.5009842519685039
11
0.8067869291338583
21
0.4994776377952756
0
LINE
8
BLACK
6
CONTINUOUS
10
0.8067869291338583
20
0.4994776377952756
11
0.8059335039370078
21
0.4982003543307086
0
LINE
8
BLACK
6
CONTINUOUS
10
0.8059335039370078
20
0.4982003543307086
11
0.8046562204724409
21
0.4973469291338583
0
LINE
8
BLACK
6
CONTINUOUS
10
0.8046562204724409
20
0.4973469291338583
11
0.8031496062992126
21
0.4970472440944882
0
LINE
8
BLACK
6
CONTINUOUS
10
0.8031496062992126
20
0.4970472440944882
11
0.7952755905511811
21
0.4970472440944882
0
LINE
8
BLACK
6
CONTINUOUS
10
0.7952755905511811
20
0.4970472440944882
11
0.7937689763779527
21
0.4973469291338583
0
LINE
8
BLACK
6
CONTINUOUS
10
0.7937689763779527
20
0.4973469291338583
11
0.7924916929133858
21
0.4982003543307086
0
LINE
8
BLACK
6
CONTINUOUS
10
0.7924916929133858
20
0.4982003543307086
11
0.7916382677165354
21
0.4994776377952756
0
LINE
8
BLACK
6
CONTINUOUS
10
0.7916382677165354
20
0.4994776377952756
11
0.7913385826771653
21
0.5009842519685039
0
LINE
8
BLACK
6
CONTINUOUS
10
0.7913385826771653
20
0.5009842519685039
11
0.7913385826771653
21
0.5511811023622047
0
LINE
8
BLACK
6
CONTINUOUS
10
0.7913385826771653
20
0.5511811023622047
11
0.7916382677165354
21
0.552687716535433
0
LINE
8
BLACK
6
CONTINUOUS
10
0.7916382677165354
20
0.552687716535433
11
0.7924916929133858
21
0.553965
0
LINE
8
BLACK
6
CONTINUOUS
10
0.7924916929133858
20
0.553965
11
0.7937689763779527
21
0.5548184251968504
0
LINE
8
BLACK
6
CONTINUOUS
10
0.7937689763779527
20
0.5548184251968504
11
0.7952755905511811
21
0.5551181102362205
0
LINE
8
BLACK
6
CONTINUOUS
10
0.7952755905511811
20
0.5551181102362205
11
0.8031496062992126
21
0.5551181102362205
0
LINE
8
BLACK
6
CONTINUOUS
10
0.8031496062992126
20
0.5551181102362205
11
0.8046562204724409
21
0.5548184251968504
0
LINE
8
BLACK
6
CONTINUOUS
10
0.8616576377952756
20
0.5573965748031496
11
0.8645314566929133
21
0.5554763385826772
0
LINE
8
BLACK
6
CONTINUOUS
10
0.8645314566929133
20
0.5554763385826772
11
0.8664516929133859
21
0.5526025196850394
0
LINE
8
BLACK
6
CONTINUOUS
10
0.8664516929133859
20
0.5526025196850394
11
0.8671259842519685
21
0.5492125984251969
0
LINE
8
BLACK
6
CONTINUOUS
10
0.8671259842519685
20
0.5492125984251969
11
0.8671259842519685
21
0.5295275590551181
0
LINE
8
BLACK
6
CONTINUOUS
10
0.8671259842519685
20
0.5295275590551181
11
0.8664516929133859
21
0.5261376377952756
0
LINE
8
BLACK
6
CONTINUOUS
10
0.8664516929133859
20
0.5261376377952756
11
0.8645314566929133
21
0.5232638188976377
0
LINE
8
BLACK
6
CONTINUOUS
10
0.8645314566929133
20
0.5232638188976377
11
0.8616576377952756
21
0.5213435826771653
0
LINE
8
BLACK
6
CONTINUOUS
10
0.8616576377952756
20
0.5213435826771653
11
0.8582677165354331
21
0.5206692913385826
0
LINE
8
BLACK
6
CONTINUOUS
10
0.8582677165354331
20
0.5206692913385826
11
0.8405511811023622
21
0.5206692913385826
0
LINE
8
BLACK
6
CONTINUOUS
10
0.8405511811023622
20
0.5206692913385826
11
0.8371612598425197
21
0.5213435826771653
0
LINE
8
BLACK
6
CONTINUOUS
10
0.8371612598425197
20
0.5213435826771653
11
0.8342874409448818
21
0.5232638188976377
0
LINE
8
BLACK
6
CONTINUOUS
10
0.8342874409448818
20
0.5232638188976377
11
0.8323672047244094
21
0.5261376377952756
0
LINE
8
BLACK
6
CONTINUOUS
10
0.8323672047244094
20
0.5261376377952756
11
0.8316929133858267
21
0.5295275590551181
0
LINE
8
BLACK
6
CONTINUOUS
10
0.8316929133858267
20
0.5295275590551181
11
0.8316929133858267
21
0.5492125984251969
0
LINE
8
BLACK
6
CONTINUOUS
10
0.8316929133858267
20
0.5492125984251969
11
0.8323672047244094
21
0.5526025196850394
0
LINE
8
BLACK
6
CONTINUOUS
10
0.8323672047244094
20
0.5526025196850394
11
0.8342874409448818
21
0.5554763385826772
0
LINE
8
BLACK
6
CONTINUOUS
10
0.8342874409448818
20
0.5554763385826772
11
0.8371612598425197
21
0.5573965748031496
0
LINE
8
BLACK
6
CONTINUOUS
10
0.8371612598425197
20
0.5573965748031496
11
0.8405511811023622
21
0.5580708661417323
0
LINE
8
BLACK
6
CONTINUOUS
10
0.8405511811023622
20
0.5580708661417323
11
0.8582677165354331
21
0.5580708661417323
0
LINE
8
BLACK
6
CONTINUOUS
10
0.8582677165354331
20
0.5580708661417323
11
0.8616576377952756
21
0.5573965748031496
0
LINE
8
BLACK
6
CONTINUOUS
10
0.9226812598425197
20
0.5573965748031496
11
0.9255550787401574
21
0.5554763385826772
0
LINE
8
BLACK
6
CONTINUOUS
10
0.9255550787401574
20
0.5554763385826772
11
0.9274753149606298
21
0.5526025196850394
0
LINE
8
BLACK
6
CONTINUOUS
10
0.9274753149606298
20
0.5526025196850394
11
0.9281496062992126
21
0.5492125984251969
0
LINE
8
BLACK
6
CONTINUOUS
10
0.9281496062992126
20
0.5492125984251969
11
0.9281496062992126
21
0.5295275590551181
0
LINE
8
BLACK
6
CONTINUOUS
10
0.9281496062992126
20
0.5295275590551181
11
0.9274753149606298
21
0.5261376377952756
0
LINE
8
BLACK
6
CONTINUOUS
10
0.9274753149606298
20
0.5261376377952756
11
0.9255550787401574
21
0.5232638188976377
0
LINE
8
BLACK
6
CONTINUOUS
10
0.9255550787401574
20
0.5232638188976377
11
0.9226812598425197
21
0.5213435826771653
0
LINE
8
BLACK
6
CONTINUOUS
10
0.9226812598425197
20
0.5213435826771653
11
0.9192913385826772
21
0.5206692913385826
0
LINE
8
BLACK
6
CONTINUOUS
10
0.9192913385826772
20
0.5206692913385826
11
0.9015748031496063
21
0.5206692913385826
0
LINE
8
BLACK
6
CONTINUOUS
10
0.9015748031496063
20
0.5206692913385826
11
0.8981848818897638
21
0.5213435826771653
0
LINE
8
BLACK
6
CONTINUOUS
10
0.8981848818897638
20
0.5213435826771653
11
0.8953110629921259
21
0.5232638188976377
0
LINE
8
BLACK
6
CONTINUOUS
10
0.8953110629921259
20
0.5232638188976377
11
0.8933908267716535
21
0.5261376377952756
0
LINE
8
BLACK
6
CONTINUOUS
10
0.8933908267716535
20
0.5261376377952756
11
0.8927165354330708
21
0.5295275590551181
0
LINE
8
BLACK
6
CONTINUOUS
10
0.8927165354330708
20
0.5295275590551181
11
0.8927165354330708
21
0.5492125984251969
0
LINE
8
BLACK
6
CONTINUOUS
10
0.8927165354330708
20
0.5492125984251969
11
0.8933908267716535
21
0.5526025196850394
0
LINE
8
BLACK
6
CONTINUOUS
10
0.8933908267716535
20
0.5526025196850394
11
0.8953110629921259
21
0.5554763385826772
0
LINE
8
BLACK
6
CONTINUOUS
10
0.8953110629921259
20
0.5554763385826772
11
0.8981848818897638
21
0.5573965748031496
0
LINE
8
BLACK
6
CONTINUOUS
10
0.8981848818897638
20
0.5573965748031496
11
0.9015748031496063
21
0.5580708661417323
0
LINE
8
BLACK
6
CONTINUOUS
10
0.9015748031496063
20
0.5580708661417323
11
0.9192913385826772
21
0.5580708661417323
0
LINE
8
BLACK
6
CONTINUOUS
10
0.9192913385826772
20
0.5580708661417323
11
0.9226812598425197
21
0.5573965748031496
0
LINE
8
BLACK
6
CONTINUOUS
10
0.3049476771653543
20
0.6429515748031496
11
0.3081408267716536
21
0.6408179921259842
0
LINE
8
BLACK
6
CONTINUOUS
10
0.3081408267716536
20
0.6408179921259842
11
0.3102744094488189
21
0.637624842519685
0
LINE
8
BLACK
6
CONTINUOUS
10
0.3102744094488189
20
0.637624842519685
11
0.3110236220472441
21
0.6338582677165354
0
LINE
8
BLACK
6
CONTINUOUS
10
0.3110236220472441
20
0.6338582677165354
11
0.3110236220472441
21
0.5866141732283464
0
LINE
8
BLACK
6
CONTINUOUS
10
0.3110236220472441
20
0.5866141732283464
11
0.3102744094488189
21
0.5828475984251968
0
LINE
8
BLACK
6
CONTINUOUS
10
0.3102744094488189
20
0.5828475984251968
11
0.3081408267716536
21
0.5796544488188976
0
LINE
8
BLACK
6
CONTINUOUS
10
0.3081408267716536
20
0.5796544488188976
11
0.3049476771653543
21
0.5775208661417323
0
LINE
8
BLACK
6
CONTINUOUS
10
0.3049476771653543
20
0.5775208661417323
11
0.3011811023622047
21
0.5767716535433071
0
LINE
8
BLACK
6
CONTINUOUS
10
0.3011811023622047
20
0.5767716535433071
11
0.2696850393700788
21
0.5767716535433071
0
LINE
8
BLACK
6
CONTINUOUS
10
0.2696850393700788
20
0.5767716535433071
11
0.2659184645669291
21
0.5775208661417323
0
LINE
8
BLACK
6
CONTINUOUS
10
0.2659184645669291
20
0.5775208661417323
11
0.2627253149606299
21
0.5796544488188976
0
LINE
8
BLACK
6
CONTINUOUS
10
0.2627253149606299
20
0.5796544488188976
11
0.2605917322834645
21
0.5828475984251968
0
LINE
8
BLACK
6
CONTINUOUS
10
0.2605917322834645
20
0.5828475984251968
11
0.2598425196850394
21
0.5866141732283464
0
LINE
8
BLACK
6
CONTINUOUS
10
0.2598425196850394
20
0.5866141732283464
11
0.2598425196850394
21
0.6338582677165354
0
LINE
8
BLACK
6
CONTINUOUS
10
0.2598425196850394
20
0.6338582677165354
11
0.2605917322834645
21
0.637624842519685
0
LINE
8
BLACK
6
CONTINUOUS
10
0.2605917322834645
20
0.637624842519685
11
0.2627253149606299
21
0.6408179921259842
0
LINE
8
BLACK
6
CONTINUOUS
10
0.2627253149606299
20
0.6408179921259842
11
0.2659184645669291
21
0.6429515748031496
0
LINE
8
BLACK
6
CONTINUOUS
10
0.2659184645669291
20
0.6429515748031496
11
0.2696850393700788
21
0.6437007874015748
0
LINE
8
BLACK
6
CONTINUOUS
10
0.2696850393700788
20
0.6437007874015748
11
0.3011811023622047
21
0.6437007874015748
0
LINE
8
BLACK
6
CONTINUOUS
10
0.3011811023622047
20
0.6437007874015748
11
0.3049476771653543
21
0.6429515748031496
0
LINE
8
BLACK
6
CONTINUOUS
10
0.4427429527559055
20
0.6429515748031496
11
0.4459361023622047
21
0.6408179921259842
0
LINE
8
BLACK
6
CONTINUOUS
10
0.4459361023622047
20
0.6408179921259842
11
0.4480696850393701
21
0.637624842519685
0
LINE
8
BLACK
6
CONTINUOUS
10
0.4480696850393701
20
0.637624842519685
11
0.4488188976377953
21
0.6338582677165354
0
LINE
8
BLACK
6
CONTINUOUS
10
0.4488188976377953
20
0.6338582677165354
11
0.4488188976377953
21
0.5866141732283464
0
LINE
8
BLACK
6
CONTINUOUS
10
0.4488188976377953
20
0.5866141732283464
11
0.4480696850393701
21
0.5828475984251968
0
LINE
8
BLACK
6
CONTINUOUS
10
0.4480696850393701
20
0.5828475984251968
11
0.4459361023622047
21
0.5796544488188976
0
LINE
8
BLACK
6
CONTINUOUS
10
0.4459361023622047
20
0.5796544488188976
11
0.4427429527559055
21
0.5775208661417323
0
LINE
8
BLACK
6
CONTINUOUS
10
0.4427429527559055
20
0.5775208661417323
11
0.4389763779527559
21
0.5767716535433071
0
LINE
8
BLACK
6
CONTINUOUS
10
0.4389763779527559
20
0.5767716535433071
11
0.4074803149606299
21
0.5767716535433071
0
LINE
8
BLACK
6
CONTINUOUS
10
0.4074803149606299
20
0.5767716535433071
11
0.4037137401574803
21
0.5775208661417323
0
LINE
8
BLACK
6
CONTINUOUS
10
0.4037137401574803
20
0.5775208661417323
11
0.4005205905511811
21
0.5796544488188976
0
LINE
8
BLACK
6
CONTINUOUS
10
0.4005205905511811
20
0.5796544488188976
11
0.3983870078740158
21
0.5828475984251968
0
LINE
8
BLACK
6
CONTINUOUS
10
0.3983870078740158
20
0.5828475984251968
11
0.3976377952755906
21
0.5866141732283464
0
LINE
8
BLACK
6
CONTINUOUS
10
0.3976377952755906
20
0.5866141732283464
11
0.3976377952755906
21
0.6338582677165354
0
LINE
8
BLACK
6
CONTINUOUS
10
0.3976377952755906
20
0.6338582677165354
11
0.3983870078740158
21
0.637624842519685
0
LINE
8
BLACK
6
CONTINUOUS
10
0.3983870078740158
20
0.637624842519685
11
0.4005205905511811
21
0.6408179921259842
0
LINE
8
BLACK
6
CONTINUOUS
10
0.4005205905511811
20
0.6408179921259842
11
0.4037137401574803
21
0.6429515748031496
0
LINE
8
BLACK
6
CONTINUOUS
10
0.4037137401574803
20
0.6429515748031496
11
0.4074803149606299
21
0.6437007874015748
0
LINE
8
BLACK
6
CONTINUOUS
10
0.4074803149606299
20
0.6437007874015748
11
0.4389763779527559
21
0.6437007874015748
0
LINE
8
BLACK
6
CONTINUOUS
10
0.4389763779527559
20
0.6437007874015748
11
0.4427429527559055
21
0.6429515748031496
0
LINE
8
BLACK
6
CONTINUOUS
10
0.5132324409448819
20
0.6282627165354331
11
0.5161062598425197
21
0.6263424803149606
0
LINE
8
BLACK
6
CONTINUOUS
10
0.5161062598425197
20
0.6263424803149606
11
0.5180264960629921
21
0.6234686614173228
0
LINE
8
BLACK
6
CONTINUOUS
10
0.5180264960629921
20
0.6234686614173228
11
0.5187007874015748
21
0.6200787401574803
0
LINE
8
BLACK
6
CONTINUOUS
10
0.5187007874015748
20
0.6200787401574803
11
0.5187007874015748
21
0.6003937007874015
0
LINE
8
BLACK
6
CONTINUOUS
10
0.5187007874015748
20
0.6003937007874015
11
0.5180264960629921
21
0.597003779527559
0
LINE
8
BLACK
6
CONTINUOUS
10
0.5180264960629921
20
0.597003779527559
11
0.5161062598425197
21
0.5941299606299213
0
LINE
8
BLACK
6
CONTINUOUS
10
0.5161062598425197
20
0.5941299606299213
11
0.5132324409448819
21
0.5922097244094489
0
LINE
8
BLACK
6
CONTINUOUS
10
0.5132324409448819
20
0.5922097244094489
11
0.5098425196850394
21
0.5915354330708661
0
LINE
8
BLACK
6
CONTINUOUS
10
0.5098425196850394
20
0.5915354330708661
11
0.4921259842519685
21
0.5915354330708661
0
LINE
8
BLACK
6
CONTINUOUS
10
0.4921259842519685
20
0.5915354330708661
11
0.488736062992126
21
0.5922097244094489
0
LINE
8
BLACK
6
CONTINUOUS
10
0.488736062992126
20
0.5922097244094489
11
0.4858622440944882
21
0.5941299606299213
0
LINE
8
BLACK
6
CONTINUOUS
10
0.4858622440944882
20
0.5941299606299213
11
0.4839420078740158
21
0.597003779527559
0
LINE
8
BLACK
6
CONTINUOUS
10
0.4839420078740158
20
0.597003779527559
11
0.483267716535433
21
0.6003937007874015
0
LINE
8
BLACK
6
CONTINUOUS
10
0.483267716535433
20
0.6003937007874015
11
0.483267716535433
21
0.6200787401574803
0
LINE
8
BLACK
6
CONTINUOUS
10
0.483267716535433
20
0.6200787401574803
11
0.4839420078740158
21
0.6234686614173228
0
LINE
8
BLACK
6
CONTINUOUS
10
0.4839420078740158
20
0.6234686614173228
11
0.4858622440944882
21
0.6263424803149606
0
LINE
8
BLACK
6
CONTINUOUS
10
0.4858622440944882
20
0.6263424803149606
11
0.488736062992126
21
0.6282627165354331
0
LINE
8
BLACK
6
CONTINUOUS
10
0.488736062992126
20
0.6282627165354331
11
0.4921259842519685
21
0.6289370078740157
0
LINE
8
BLACK
6
CONTINUOUS
10
0.4921259842519685
20
0.6289370078740157
11
0.5098425196850394
21
0.6289370078740157
0
LINE
8
BLACK
6
CONTINUOUS
10
0.5098425196850394
20
0.6289370078740157
11
0.5132324409448819
21
0.6282627165354331
0
LINE
8
BLACK
6
CONTINUOUS
10
0.5742560629921259
20
0.6282627165354331
11
0.5771298818897638
21
0.6263424803149606
0
LINE
8
BLACK
6
CONTINUOUS
10
0.5771298818897638
20
0.6263424803149606
11
0.5790501181102362
21
0.6234686614173228
0
LINE
8
BLACK
6
CONTINUOUS
10
0.5790501181102362
20
0.6234686614173228
11
0.5797244094488189
21
0.6200787401574803
0
LINE
8
BLACK
6
CONTINUOUS
10
0.5797244094488189
20
0.6200787401574803
11
0.5797244094488189
21
0.6003937007874015
0
LINE
8
BLACK
6
CONTINUOUS
10
0.5797244094488189
20
0.6003937007874015
11
0.5790501181102362
21
0.597003779527559
0
LINE
8
BLACK
6
CONTINUOUS
10
0.5790501181102362
20
0.597003779527559
11
0.5771298818897638
21
0.5941299606299213
0
LINE
8
BLACK
6
CONTINUOUS
10
0.5771298818897638
20
0.5941299606299213
11
0.5742560629921259
21
0.5922097244094489
0
LINE
8
BLACK
6
CONTINUOUS
10
0.5742560629921259
20
0.5922097244094489
11
0.5708661417322834
21
0.5915354330708661
0
LINE
8
BLACK
6
CONTINUOUS
10
0.5708661417322834
20
0.5915354330708661
11
0.5531496062992126
21
0.5915354330708661
0
LINE
8
BLACK
6
CONTINUOUS
10
0.5531496062992126
20
0.5915354330708661
11
0.5497596850393701
21
0.5922097244094489
0
LINE
8
BLACK
6
CONTINUOUS
10
0.5497596850393701
20
0.5922097244094489
11
0.5468858661417323
21
0.5941299606299213
0
LINE
8
BLACK
6
CONTINUOUS
10
0.5468858661417323
20
0.5941299606299213
11
0.5449656299212599
21
0.597003779527559
0
LINE
8
BLACK
6
CONTINUOUS
10
0.5449656299212599
20
0.597003779527559
11
0.5442913385826772
21
0.6003937007874015
0
LINE
8
BLACK
6
CONTINUOUS
10
0.5442913385826772
20
0.6003937007874015
11
0.5442913385826772
21
0.6200787401574803
0
LINE
8
BLACK
6
CONTINUOUS
10
0.5442913385826772
20
0.6200787401574803
11
0.5449656299212599
21
0.6234686614173228
0
LINE
8
BLACK
6
CONTINUOUS
10
0.5449656299212599
20
0.6234686614173228
11
0.5468858661417323
21
0.6263424803149606
0
LINE
8
BLACK
6
CONTINUOUS
10
0.5468858661417323
20
0.6263424803149606
11
0.5497596850393701
21
0.6282627165354331
0
LINE
8
BLACK
6
CONTINUOUS
10
0.5497596850393701
20
0.6282627165354331
11
0.5531496062992126
21
0.6289370078740157
0
LINE
8
BLACK
6
CONTINUOUS
10
0.5531496062992126
20
0.6289370078740157
11
0.5708661417322834
21
0.6289370078740157
0
LINE
8
BLACK
6
CONTINUOUS
10
0.5708661417322834
20
0.6289370078740157
11
0.5742560629921259
21
0.6282627165354331
0
LINE
8
BLACK
6
CONTINUOUS
10
1.0106463779527559
20
0.6474701181102362
11
1.0135201968503937
21
0.6455498818897638
0
LINE
8
BLACK
6
CONTINUOUS
10
1.0135201968503937
20
0.6455498818897638
11
1.0274396456692914
21
0.6316304330708661
0
LINE
8
BLACK
6
CONTINUOUS
10
1.0274396456692914
20
0.6316304330708661
11
1.0293598818897638
21
0.6287566141732284
0
LINE
8
BLACK
6
CONTINUOUS
10
1.0293598818897638
20
0.6287566141732284
11
1.0300341732283465
21
0.6253666929133858
0
LINE
8
BLACK
6
CONTINUOUS
10
1.0300341732283465
20
0.6253666929133858
11
1.0293598818897638
21
0.621976811023622
0
LINE
8
BLACK
6
CONTINUOUS
10
1.0293598818897638
20
0.621976811023622
11
1.0274396456692914
21
0.6191029527559055
0
LINE
8
BLACK
6
CONTINUOUS
10
1.0274396456692914
20
0.6191029527559055
11
1.0149121653543307
21
0.6065754724409449
0
LINE
8
BLACK
6
CONTINUOUS
10
1.0149121653543307
20
0.6065754724409449
11
1.0120383070866141
21
0.6046552362204725
0
LINE
8
BLACK
6
CONTINUOUS
10
1.0120383070866141
20
0.6046552362204725
11
1.0086484251968504
21
0.6039809448818898
0
LINE
8
BLACK
6
CONTINUOUS
10
1.0086484251968504
20
0.6039809448818898
11
1.0052585039370079
21
0.6046552362204725
0
LINE
8
BLACK
6
CONTINUOUS
10
1.0052585039370079
20
0.6046552362204725
11
1.0023846850393701
21
0.6065754724409449
0
LINE
8
BLACK
6
CONTINUOUS
10
1.0023846850393701
20
0.6065754724409449
11
0.9884652362204724
21
0.6204949212598425
0
LINE
8
BLACK
6
CONTINUOUS
10
0.9884652362204724
20
0.6204949212598425
11
0.986545
21
0.6233687401574803
0
LINE
8
BLACK
6
CONTINUOUS
10
0.986545
20
0.6233687401574803
11
0.9858707086614173
21
0.6267586614173228
0
LINE
8
BLACK
6
CONTINUOUS
10
0.9858707086614173
20
0.6267586614173228
11
0.986545
21
0.6301485433070866
0
LINE
8
BLACK
6
CONTINUOUS
10
0.986545
20
0.6301485433070866
11
0.9884652362204724
21
0.6330224015748032
0
LINE
8
BLACK
6
CONTINUOUS
10
0.9884652362204724
20
0.6330224015748032
11
1.0009927165354331
21
0.6455498818897638
0
LINE
8
BLACK
6
CONTINUOUS
10
1.0009927165354331
20
0.6455498818897638
11
1.0038665748031497
21
0.6474701181102362
0
LINE
8
BLACK
6
CONTINUOUS
10
1.0038665748031497
20
0.6474701181102362
11
1.0072564566929134
21
0.6481444094488189
0
LINE
8
BLACK
6
CONTINUOUS
10
1.0072564566929134
20
0.6481444094488189
11
1.0106463779527559
21
0.6474701181102362
0
LINE
8
BLACK
6
CONTINUOUS
10
0.8551433070866141
20
0.6370477952755905
11
0.83844
21
0.6203444881889764
0
LINE
8
BLACK
6
CONTINUOUS
10
0.83844
20
0.6203444881889764
11
0.8328722047244095
21
0.625912283464567
0
LINE
8
BLACK
6
CONTINUOUS
10
0.8328722047244095
20
0.625912283464567
11
0.8495755118110236
21
0.6426155905511811
0
LINE
8
BLACK
6
CONTINUOUS
10
0.8495755118110236
20
0.6426155905511811
11
0.8551433070866141
21
0.6370477952755905
0
LINE
8
BLACK
6
CONTINUOUS
10
0.9219565354330709
20
0.625912283464567
11
0.9163887401574803
21
0.6203444881889764
0
LINE
8
BLACK
6
CONTINUOUS
10
0.9163887401574803
20
0.6203444881889764
11
0.8996854330708661
21
0.6370477952755905
0
LINE
8
BLACK
6
CONTINUOUS
10
0.8996854330708661
20
0.6370477952755905
11
0.9052532283464567
21
0.6426155905511811
0
LINE
8
BLACK
6
CONTINUOUS
10
0.9052532283464567
20
0.6426155905511811
11
0.9219565354330709
21
0.625912283464567
0
LINE
8
BLACK
6
CONTINUOUS
10
0.8384399212598425
20
0.6537511811023622
11
0.8217366141732283
21
0.637047874015748
0
LINE
8
BLACK
6
CONTINUOUS
10
0.8217366141732283
20
0.637047874015748
11
0.8161688188976378
21
0.6426156692913386
0
LINE
8
BLACK
6
CONTINUOUS
10
0.8161688188976378
20
0.6426156692913386
11
0.832872125984252
21
0.6593189763779528
0
LINE
8
BLACK
6
CONTINUOUS
10
0.832872125984252
20
0.6593189763779528
11
0.8384399212598425
21
0.6537511811023622
0
LINE
8
BLACK
6
CONTINUOUS
10
0.9386599212598425
20
0.6426156692913386
11
0.933092125984252
21
0.637047874015748
0
LINE
8
BLACK
6
CONTINUOUS
10
0.933092125984252
20
0.637047874015748
11
0.9163888188976378
21
0.6537511811023622
0
LINE
8
BLACK
6
CONTINUOUS
10
0.9163888188976378
20
0.6537511811023622
11
0.9219566141732283
21
0.6593189763779528
0
LINE
8
BLACK
6
CONTINUOUS
10
0.9219566141732283
20
0.6593189763779528
11
0.9386599212598425
21
0.6426156692913386
0
LINE
8
BLACK
6
CONTINUOUS
10
1.0537966141732282
20
0.6906203543307087
11
1.0566704330708661
21
0.6887001181102362
0
LINE
8
BLACK
6
CONTINUOUS
10
1.0566704330708661
20
0.6887001181102362
11
1.0705898818897637
21
0.6747806692913386
0
LINE
8
BLACK
6
CONTINUOUS
10
1.0705898818897637
20
0.6747806692913386
11
1.0725101181102361
21
0.6719068503937008
0
LINE
8
BLACK
6
CONTINUOUS
10
1.0725101181102361
20
0.6719068503937008
11
1.0731844094488188
21
0.6685169291338583
0
LINE
8
BLACK
6
CONTINUOUS
10
1.0731844094488188
20
0.6685169291338583
11
1.0725101181102361
21
0.6651270472440944
0
LINE
8
BLACK
6
CONTINUOUS
10
1.0725101181102361
20
0.6651270472440944
11
1.0705898818897637
21
0.662253188976378
0
LINE
8
BLACK
6
CONTINUOUS
10
1.0705898818897637
20
0.662253188976378
11
1.058062401574803
21
0.6497257086614173
0
LINE
8
BLACK
6
CONTINUOUS
10
1.058062401574803
20
0.6497257086614173
11
1.0551885433070867
21
0.6478054724409449
0
LINE
8
BLACK
6
CONTINUOUS
10
1.0551885433070867
20
0.6478054724409449
11
1.0517986614173227
21
0.6471311811023622
0
LINE
8
BLACK
6
CONTINUOUS
10
1.0517986614173227
20
0.6471311811023622
11
1.0484087401574802
21
0.6478054724409449
0
LINE
8
BLACK
6
CONTINUOUS
10
1.0484087401574802
20
0.6478054724409449
11
1.0455349212598426
21
0.6497257086614173
0
LINE
8
BLACK
6
CONTINUOUS
10
1.0455349212598426
20
0.6497257086614173
11
1.0316154724409448
21
0.6636451574803149
0
LINE
8
BLACK
6
CONTINUOUS
10
1.0316154724409448
20
0.6636451574803149
11
1.0296952362204723
21
0.6665189763779528
0
LINE
8
BLACK
6
CONTINUOUS
10
1.0296952362204723
20
0.6665189763779528
11
1.0290209448818897
21
0.6699088976377953
0
LINE
8
BLACK
6
CONTINUOUS
10
1.0290209448818897
20
0.6699088976377953
11
1.0296952362204723
21
0.673298779527559
0
LINE
8
BLACK
6
CONTINUOUS
10
1.0296952362204723
20
0.673298779527559
11
1.0316154724409448
21
0.6761726377952756
0
LINE
8
BLACK
6
CONTINUOUS
10
1.0316154724409448
20
0.6761726377952756
11
1.0441429527559054
21
0.6887001181102362
0
LINE
8
BLACK
6
CONTINUOUS
10
1.0441429527559054
20
0.6887001181102362
11
1.047016811023622
21
0.6906203543307087
0
LINE
8
BLACK
6
CONTINUOUS
10
1.047016811023622
20
0.6906203543307087
11
1.0504066929133857
21
0.6912946456692913
0
LINE
8
BLACK
6
CONTINUOUS
10
1.0504066929133857
20
0.6912946456692913
11
1.0537966141732282
21
0.6906203543307087
0
LINE
8
BLACK
6
CONTINUOUS
10
0.8217366929133858
20
0.6704544094488188
11
0.8050333858267716
21
0.6537511023622047
0
LINE
8
BLACK
6
CONTINUOUS
10
0.8050333858267716
20
0.6537511023622047
11
0.799465590551181
21
0.6593188976377953
0
LINE
8
BLACK
6
CONTINUOUS
10
0.799465590551181
20
0.6593188976377953
11
0.8161688976377952
21
0.6760222047244094
0
LINE
8
BLACK
6
CONTINUOUS
10
0.8161688976377952
20
0.6760222047244094
11
0.8217366929133858
21
0.6704544094488188
0
LINE
8
BLACK
6
CONTINUOUS
10
0.9553631496062992
20
0.6593188976377953
11
0.9497953543307086
21
0.6537511023622047
0
LINE
8
BLACK
6
CONTINUOUS
10
0.9497953543307086
20
0.6537511023622047
11
0.9330920472440944
21
0.6704544094488188
0
LINE
8
BLACK
6
CONTINUOUS
10
0.9330920472440944
20
0.6704544094488188
11
0.938659842519685
21
0.6760222047244094
0
LINE
8
BLACK
6
CONTINUOUS
10
0.938659842519685
20
0.6760222047244094
11
0.9553631496062992
21
0.6593188976377953
0
LINE
8
BLACK
6
CONTINUOUS
10
0.8662788582677166
20
0.6648866929133858
11
0.8551433070866141
21
0.6537511417322834
0
LINE
8
BLACK
6
CONTINUOUS
10
0.8551433070866141
20
0.6537511417322834
11
0.8495755511811024
21
0.6593188976377953
0
LINE
8
BLACK
6
CONTINUOUS
10
0.8495755511811024
20
0.6593188976377953
11
0.8607111023622047
21
0.6704544488188976
0
LINE
8
BLACK
6
CONTINUOUS
10
0.8607111023622047
20
0.6704544488188976
11
0.8662788582677166
21
0.6648866929133858
0
LINE
8
BLACK
6
CONTINUOUS
10
0.905253188976378
20
0.6593188976377953
11
0.8996854330708661
21
0.6537511417322834
0
LINE
8
BLACK
6
CONTINUOUS
10
0.8996854330708661
20
0.6537511417322834
11
0.8885498818897638
21
0.6648866929133858
0
LINE
8
BLACK
6
CONTINUOUS
10
0.8885498818897638
20
0.6648866929133858
11
0.8941176377952755
21
0.6704544488188976
0
LINE
8
BLACK
6
CONTINUOUS
10
0.8941176377952755
20
0.6704544488188976
11
0.905253188976378
21
0.6593188976377953
0
LINE
8
BLACK
6
CONTINUOUS
10
0.849575590551181
20
0.68159
11
0.8384400393700787
21
0.6704544488188976
0
LINE
8
BLACK
6
CONTINUOUS
10
0.8384400393700787
20
0.6704544488188976
11
0.8328722834645669
21
0.6760222047244094
0
LINE
8
BLACK
6
CONTINUOUS
10
0.8328722834645669
20
0.6760222047244094
11
0.8440078346456693
21
0.6871577559055118
0
LINE
8
BLACK
6
CONTINUOUS
10
0.8440078346456693
20
0.6871577559055118
11
0.849575590551181
21
0.68159
0
LINE
8
BLACK
6
CONTINUOUS
10
0.8050333070866141
20
0.6871577952755905
11
0.78833
21
0.6704544881889763
0
LINE
8
BLACK
6
CONTINUOUS
10
0.78833
20
0.6704544881889763
11
0.7827622047244094
21
0.6760222834645669
0
LINE
8
BLACK
6
CONTINUOUS
10
0.7827622047244094
20
0.6760222834645669
11
0.7994655118110237
21
0.6927255905511811
0
LINE
8
BLACK
6
CONTINUOUS
10
0.7994655118110237
20
0.6927255905511811
11
0.8050333070866141
21
0.6871577952755905
0
LINE
8
BLACK
6
CONTINUOUS
10
0.9219565354330709
20
0.6760222440944882
11
0.916388779527559
21
0.6704544881889763
0
LINE
8
BLACK
6
CONTINUOUS
10
0.916388779527559
20
0.6704544881889763
11
0.9052532283464567
21
0.6815900393700787
0
LINE
8
BLACK
6
CONTINUOUS
10
0.9052532283464567
20
0.6815900393700787
11
0.9108209842519684
21
0.6871577952755905
0
LINE
8
BLACK
6
CONTINUOUS
10
0.9108209842519684
20
0.6871577952755905
11
0.9219565354330709
21
0.6760222440944882
0
LINE
8
BLACK
6
CONTINUOUS
10
0.9720665354330709
20
0.6760222834645669
11
0.9664987401574803
21
0.6704544881889763
0
LINE
8
BLACK
6
CONTINUOUS
10
0.9664987401574803
20
0.6704544881889763
11
0.9497954330708661
21
0.6871577952755905
0
LINE
8
BLACK
6
CONTINUOUS
10
0.9497954330708661
20
0.6871577952755905
11
0.9553632283464567
21
0.6927255905511811
0
LINE
8
BLACK
6
CONTINUOUS
10
0.9553632283464567
20
0.6927255905511811
11
0.9720665354330709
21
0.6760222834645669
0
LINE
8
BLACK
6
CONTINUOUS
10
0.7883300393700787
20
0.7038610629921259
11
0.7716267322834646
21
0.6871577559055118
0
LINE
8
BLACK
6
CONTINUOUS
10
0.7716267322834646
20
0.6871577559055118
11
0.766058937007874
21
0.6927255511811024
0
LINE
8
BLACK
6
CONTINUOUS
10
0.766058937007874
20
0.6927255511811024
11
0.7827622440944881
21
0.7094288582677165
0
LINE
8
BLACK
6
CONTINUOUS
10
0.7827622440944881
20
0.7094288582677165
11
0.7883300393700787
21
0.7038610629921259
0
LINE
8
BLACK
6
CONTINUOUS
10
0.9887698031496063
20
0.6927255511811024
11
0.9832020078740157
21
0.6871577559055118
0
LINE
8
BLACK
6
CONTINUOUS
10
0.9832020078740157
20
0.6871577559055118
11
0.9664987007874015
21
0.7038610629921259
0
LINE
8
BLACK
6
CONTINUOUS
10
0.9664987007874015
20
0.7038610629921259
11
0.9720664960629921
21
0.7094288582677165
0
LINE
8
BLACK
6
CONTINUOUS
10
0.9720664960629921
20
0.7094288582677165
11
0.9887698031496063
21
0.6927255511811024
0
LINE
8
BLACK
6
CONTINUOUS
10
0.8328722440944881
20
0.6982933464566929
11
0.8217366929133858
21
0.6871577952755905
0
LINE
8
BLACK
6
CONTINUOUS
10
0.8217366929133858
20
0.6871577952755905
11
0.816168937007874
21
0.6927255511811024
0
LINE
8
BLACK
6
CONTINUOUS
10
0.816168937007874
20
0.6927255511811024
11
0.8273044881889764
21
0.7038611023622047
0
LINE
8
BLACK
6
CONTINUOUS
10
0.8273044881889764
20
0.7038611023622047
11
0.8328722440944881
21
0.6982933464566929
0
LINE
8
BLACK
6
CONTINUOUS
10
0.9386598031496063
20
0.6927255511811024
11
0.9330920472440944
21
0.6871577952755905
0
LINE
8
BLACK
6
CONTINUOUS
10
0.9330920472440944
20
0.6871577952755905
11
0.9219564960629921
21
0.6982933464566929
0
LINE
8
BLACK
6
CONTINUOUS
10
0.9219564960629921
20
0.6982933464566929
11
0.927524251968504
21
0.7038611023622047
0
LINE
8
BLACK
6
CONTINUOUS
10
0.927524251968504
20
0.7038611023622047
11
0.9386598031496063
21
0.6927255511811024
0
LINE
8
BLACK
6
CONTINUOUS
10
0.816168937007874
20
0.7149966141732284
11
0.8050333858267716
21
0.7038610629921259
0
LINE
8
BLACK
6
CONTINUOUS
10
0.8050333858267716
20
0.7038610629921259
11
0.7994656299212598
21
0.7094288188976378
0
LINE
8
BLACK
6
CONTINUOUS
10
0.7994656299212598
20
0.7094288188976378
11
0.8106011811023622
21
0.7205643700787402
0
LINE
8
BLACK
6
CONTINUOUS
10
0.8106011811023622
20
0.7205643700787402
11
0.816168937007874
21
0.7149966141732284
0
LINE
8
BLACK
6
CONTINUOUS
10
0.7716266929133858
20
0.7205644094488188
11
0.7549233858267717
21
0.7038611023622047
0
LINE
8
BLACK
6
CONTINUOUS
10
0.7549233858267717
20
0.7038611023622047
11
0.7493555905511811
21
0.7094288976377953
0
LINE
8
BLACK
6
CONTINUOUS
10
0.7493555905511811
20
0.7094288976377953
11
0.7660588976377952
21
0.7261322047244094
0
LINE
8
BLACK
6
CONTINUOUS
10
0.7660588976377952
20
0.7261322047244094
11
0.7716266929133858
21
0.7205644094488188
0
LINE
8
BLACK
6
CONTINUOUS
10
0.9553631496062992
20
0.7094288582677165
11
0.9497953937007874
21
0.7038611023622047
0
LINE
8
BLACK
6
CONTINUOUS
10
0.9497953937007874
20
0.7038611023622047
11
0.938659842519685
21
0.7149966535433071
0
LINE
8
BLACK
6
CONTINUOUS
10
0.938659842519685
20
0.7149966535433071
11
0.9442275984251969
21
0.7205644094488188
0
LINE
8
BLACK
6
CONTINUOUS
10
0.9442275984251969
20
0.7205644094488188
11
0.9553631496062992
21
0.7094288582677165
0
LINE
8
BLACK
6
CONTINUOUS
10
1.0054731496062992
20
0.7094288976377953
11
0.9999053543307086
21
0.7038611023622047
0
LINE
8
BLACK
6
CONTINUOUS
10
0.9999053543307086
20
0.7038611023622047
11
0.9832020472440944
21
0.7205644094488188
0
LINE
8
BLACK
6
CONTINUOUS
10
0.9832020472440944
20
0.7205644094488188
11
0.988769842519685
21
0.7261322047244094
0
LINE
8
BLACK
6
CONTINUOUS
10
0.988769842519685
20
0.7261322047244094
11
1.0054731496062992
21
0.7094288976377953
0
LINE
8
BLACK
6
CONTINUOUS
10
0.7549234251968504
20
0.7372676771653544
11
0.7382201181102362
21
0.7205643700787402
0
LINE
8
BLACK
6
CONTINUOUS
10
0.7382201181102362
20
0.7205643700787402
11
0.7326523228346457
21
0.7261321653543307
0
LINE
8
BLACK
6
CONTINUOUS
10
0.7326523228346457
20
0.7261321653543307
11
0.7493556299212598
21
0.7428354724409448
0
LINE
8
BLACK
6
CONTINUOUS
10
0.7493556299212598
20
0.7428354724409448
11
0.7549234251968504
21
0.7372676771653544
0
LINE
8
BLACK
6
CONTINUOUS
10
1.0221764173228347
20
0.7261321653543307
11
1.0166086220472441
21
0.7205643700787402
0
LINE
8
BLACK
6
CONTINUOUS
10
1.0166086220472441
20
0.7205643700787402
11
0.99990531496063
21
0.7372676771653544
0
LINE
8
BLACK
6
CONTINUOUS
10
0.99990531496063
20
0.7372676771653544
11
1.0054731102362204
21
0.7428354724409448
0
LINE
8
BLACK
6
CONTINUOUS
10
1.0054731102362204
20
0.7428354724409448
11
1.0221764173228347
21
0.7261321653543307
0
LINE
8
BLACK
6
CONTINUOUS
10
0.7994656299212598
20
0.7316999606299213
11
0.7883300787401575
21
0.7205644094488188
0
LINE
8
BLACK
6
CONTINUOUS
10
0.7883300787401575
20
0.7205644094488188
11
0.7827623228346456
21
0.7261321653543307
0
LINE
8
BLACK
6
CONTINUOUS
10
0.7827623228346456
20
0.7261321653543307
11
0.793897874015748
21
0.7372677165354331
0
LINE
8
BLACK
6
CONTINUOUS
10
0.793897874015748
20
0.7372677165354331
11
0.7994656299212598
21
0.7316999606299213
0
LINE
8
BLACK
6
CONTINUOUS
10
0.9720664173228346
20
0.7261321653543307
11
0.9664986614173228
21
0.7205644094488188
0
LINE
8
BLACK
6
CONTINUOUS
10
0.9664986614173228
20
0.7205644094488188
11
0.9553631102362204
21
0.7316999606299213
0
LINE
8
BLACK
6
CONTINUOUS
10
0.9553631102362204
20
0.7316999606299213
11
0.9609308661417323
21
0.7372677165354331
0
LINE
8
BLACK
6
CONTINUOUS
10
0.9609308661417323
20
0.7372677165354331
11
0.9720664173228346
21
0.7261321653543307
0
LINE
8
BLACK
6
CONTINUOUS
10
0.8730842519685039
20
0.8040218897637795
11
0.8734712598425197
21
0.8039045669291338
0
LINE
8
BLACK
6
CONTINUOUS
10
0.8734712598425197
20
0.8039045669291338
11
0.8738279133858268
21
0.8037139763779527
0
LINE
8
BLACK
6
CONTINUOUS
10
0.8738279133858268
20
0.8037139763779527
11
0.8741405511811023
21
0.8034573622047244
0
LINE
8
BLACK
6
CONTINUOUS
10
0.8741405511811023
20
0.8034573622047244
11
0.9076919291338582
21
0.7699059842519684
0
LINE
8
BLACK
6
CONTINUOUS
10
0.9076919291338582
20
0.7699059842519684
11
0.9079485039370079
21
0.7695933858267716
0
LINE
8
BLACK
6
CONTINUOUS
10
0.9079485039370079
20
0.7695933858267716
11
0.9081391732283465
21
0.7692366929133858
0
LINE
8
BLACK
6
CONTINUOUS
10
0.9081391732283465
20
0.7692366929133858
11
0.9082564566929133
21
0.7688497244094488
0
LINE
8
BLACK
6
CONTINUOUS
10
0.9082564566929133
20
0.7688497244094488
11
0.908296220472441
21
0.7684472047244094
0
LINE
8
BLACK
6
CONTINUOUS
10
0.908296220472441
20
0.7684472047244094
11
0.9082564566929133
21
0.7680447244094488
0
LINE
8
BLACK
6
CONTINUOUS
10
0.9082564566929133
20
0.7680447244094488
11
0.9081391732283465
21
0.767657716535433
0
LINE
8
BLACK
6
CONTINUOUS
10
0.9081391732283465
20
0.767657716535433
11
0.9079485039370079
21
0.767301062992126
0
LINE
8
BLACK
6
CONTINUOUS
10
0.9079485039370079
20
0.767301062992126
11
0.9076918897637795
21
0.7669884251968504
0
LINE
8
BLACK
6
CONTINUOUS
10
0.9076918897637795
20
0.7669884251968504
11
0.8707998818897638
21
0.7300964173228346
0
LINE
8
BLACK
6
CONTINUOUS
10
0.8707998818897638
20
0.7300964173228346
11
0.8704872834645669
21
0.729839842519685
0
LINE
8
BLACK
6
CONTINUOUS
10
0.8704872834645669
20
0.729839842519685
11
0.8701306299212598
21
0.7296491732283464
0
LINE
8
BLACK
6
CONTINUOUS
10
0.8701306299212598
20
0.7296491732283464
11
0.8697435826771653
21
0.7295318897637795
0
LINE
8
BLACK
6
CONTINUOUS
10
0.8697435826771653
20
0.7295318897637795
11
0.8693411417322835
21
0.7294921653543307
0
LINE
8
BLACK
6
CONTINUOUS
10
0.8693411417322835
20
0.7294921653543307
11
0.868938622047244
21
0.7295318897637795
0
LINE
8
BLACK
6
CONTINUOUS
10
0.868938622047244
20
0.7295318897637795
11
0.8685516535433071
21
0.7296491732283464
0
LINE
8
BLACK
6
CONTINUOUS
10
0.8685516535433071
20
0.7296491732283464
11
0.8681949606299212
21
0.729839842519685
0
LINE
8
BLACK
6
CONTINUOUS
10
0.8681949606299212
20
0.729839842519685
11
0.8678823622047244
21
0.7300964173228346
0
LINE
8
BLACK
6
CONTINUOUS
10
0.8678823622047244
20
0.7300964173228346
11
0.8343309842519685
21
0.7636477952755906
0
LINE
8
BLACK
6
CONTINUOUS
10
0.8343309842519685
20
0.7636477952755906
11
0.8340743700787402
21
0.7639604330708661
0
LINE
8
BLACK
6
CONTINUOUS
10
0.8340743700787402
20
0.7639604330708661
11
0.833883779527559
21
0.7643170866141732
0
LINE
8
BLACK
6
CONTINUOUS
10
0.833883779527559
20
0.7643170866141732
11
0.8337664173228346
21
0.7647040551181102
0
LINE
8
BLACK
6
CONTINUOUS
10
0.8337664173228346
20
0.7647040551181102
11
0.8337266929133859
21
0.7651065748031496
0
LINE
8
BLACK
6
CONTINUOUS
10
0.8337266929133859
20
0.7651065748031496
11
0.8337664173228346
21
0.7655090551181102
0
LINE
8
BLACK
6
CONTINUOUS
10
0.8337664173228346
20
0.7655090551181102
11
0.833883779527559
21
0.7658960236220472
0
LINE
8
BLACK
6
CONTINUOUS
10
0.833883779527559
20
0.7658960236220472
11
0.8340744094488188
21
0.766252716535433
0
LINE
8
BLACK
6
CONTINUOUS
10
0.8340744094488188
20
0.766252716535433
11
0.8343309842519685
21
0.7665653149606299
0
LINE
8
BLACK
6
CONTINUOUS
10
0.8343309842519685
20
0.7665653149606299
11
0.8712229921259842
21
0.8034573228346457
0
LINE
8
BLACK
6
CONTINUOUS
10
0.8712229921259842
20
0.8034573228346457
11
0.8715356299212598
21
0.803713937007874
0
LINE
8
BLACK
6
CONTINUOUS
10
0.8715356299212598
20
0.803713937007874
11
0.8718923228346457
21
0.8039045669291338
0
LINE
8
BLACK
6
CONTINUOUS
10
0.8718923228346457
20
0.8039045669291338
11
0.8722792519685039
21
0.8040218897637795
0
LINE
8
BLACK
6
CONTINUOUS
10
0.8722792519685039
20
0.8040218897637795
11
0.8726817716535433
21
0.8040616535433071
0
LINE
8
BLACK
6
CONTINUOUS
10
0.8726817716535433
20
0.8040616535433071
11
0.8730842519685039
21
0.8040218897637795
0
LINE
8
BLACK
6
CONTINUOUS
10
0.7827623228346456
20
0.7484032283464567
11
0.7716267716535433
21
0.7372676771653544
0
LINE
8
BLACK
6
CONTINUOUS
10
0.7716267716535433
20
0.7372676771653544
11
0.7660590157480315
21
0.7428354330708661
0
LINE
8
BLACK
6
CONTINUOUS
10
0.7660590157480315
20
0.7428354330708661
11
0.7771945669291338
21
0.7539709842519685
0
LINE
8
BLACK
6
CONTINUOUS
10
0.7771945669291338
20
0.7539709842519685
11
0.7827623228346456
21
0.7484032283464567
0
LINE
8
BLACK
6
CONTINUOUS
10
0.7382200787401575
20
0.7539710236220473
11
0.7215167716535433
21
0.7372677165354331
0
LINE
8
BLACK
6
CONTINUOUS
10
0.7215167716535433
20
0.7372677165354331
11
0.7159489763779527
21
0.7428355118110236
0
LINE
8
BLACK
6
CONTINUOUS
10
0.7159489763779527
20
0.7428355118110236
11
0.7326522834645669
21
0.7595388188976377
0
LINE
8
BLACK
6
CONTINUOUS
10
0.7326522834645669
20
0.7595388188976377
11
0.7382200787401575
21
0.7539710236220473
0
LINE
8
BLACK
6
CONTINUOUS
10
0.9887697637795275
20
0.7428354724409448
11
0.9832020078740157
21
0.7372677165354331
0
LINE
8
BLACK
6
CONTINUOUS
10
0.9832020078740157
20
0.7372677165354331
11
0.9720664566929134
21
0.7484032677165354
0
LINE
8
BLACK
6
CONTINUOUS
10
0.9720664566929134
20
0.7484032677165354
11
0.9776342125984252
21
0.7539710236220473
0
LINE
8
BLACK
6
CONTINUOUS
10
0.9776342125984252
20
0.7539710236220473
11
0.9887697637795275
21
0.7428354724409448
0
LINE
8
BLACK
6
CONTINUOUS
10
1.0388797637795275
20
0.7428355118110236
11
1.0333119685039369
21
0.7372677165354331
0
LINE
8
BLACK
6
CONTINUOUS
10
1.0333119685039369
20
0.7372677165354331
11
1.0166086614173229
21
0.7539710236220473
0
LINE
8
BLACK
6
CONTINUOUS
10
1.0166086614173229
20
0.7539710236220473
11
1.0221764566929135
21
0.7595388188976377
0
LINE
8
BLACK
6
CONTINUOUS
10
1.0221764566929135
20
0.7595388188976377
11
1.0388797637795275
21
0.7428355118110236
0
LINE
8
BLACK
6
CONTINUOUS
10
0.7215168110236221
20
0.7706743307086614
11
0.7048135039370078
21
0.7539710236220473
0
LINE
8
BLACK
6
CONTINUOUS
10
0.7048135039370078
20
0.7539710236220473
11
0.6992457086614173
21
0.7595388188976377
0
LINE
8
BLACK
6
CONTINUOUS
10
0.6992457086614173
20
0.7595388188976377
11
0.7159490157480315
21
0.7762421259842519
0
LINE
8
BLACK
6
CONTINUOUS
10
0.7159490157480315
20
0.7762421259842519
11
0.7215168110236221
21
0.7706743307086614
0
LINE
8
BLACK
6
CONTINUOUS
10
0.7660590157480315
20
0.7651065748031496
11
0.7549234645669292
21
0.7539710236220473
0
LINE
8
BLACK
6
CONTINUOUS
10
0.7549234645669292
20
0.7539710236220473
11
0.7493557086614173
21
0.759538779527559
0
LINE
8
BLACK
6
CONTINUOUS
10
0.7493557086614173
20
0.759538779527559
11
0.7604912598425196
21
0.7706743307086614
0
LINE
8
BLACK
6
CONTINUOUS
10
0.7604912598425196
20
0.7706743307086614
11
0.7660590157480315
21
0.7651065748031496
0
LINE
8
BLACK
6
CONTINUOUS
10
1.0054730314960629
20
0.759538779527559
11
0.9999052755905512
21
0.7539710236220473
0
LINE
8
BLACK
6
CONTINUOUS
10
0.9999052755905512
20
0.7539710236220473
11
0.9887697244094488
21
0.7651065748031496
0
LINE
8
BLACK
6
CONTINUOUS
10
0.9887697244094488
20
0.7651065748031496
11
0.9943374803149606
21
0.7706743307086614
0
LINE
8
BLACK
6
CONTINUOUS
10
0.9943374803149606
20
0.7706743307086614
11
1.0054730314960629
21
0.759538779527559
0
LINE
8
BLACK
6
CONTINUOUS
10
1.055583031496063
20
0.7595388188976377
11
1.0500152362204724
21
0.7539710236220473
0
LINE
8
BLACK
6
CONTINUOUS
10
1.0500152362204724
20
0.7539710236220473
11
1.0333119291338582
21
0.7706743307086614
0
LINE
8
BLACK
6
CONTINUOUS
10
1.0333119291338582
20
0.7706743307086614
11
1.0388797244094488
21
0.7762421259842519
0
LINE
8
BLACK
6
CONTINUOUS
10
1.0388797244094488
20
0.7762421259842519
11
1.055583031496063
21
0.7595388188976377
0
LINE
8
BLACK
6
CONTINUOUS
10
0.7493557086614173
20
0.781809842519685
11
0.738220157480315
21
0.7706742913385827
0
LINE
8
BLACK
6
CONTINUOUS
10
0.738220157480315
20
0.7706742913385827
11
0.7326524015748032
21
0.7762420472440945
0
LINE
8
BLACK
6
CONTINUOUS
10
0.7326524015748032
20
0.7762420472440945
11
0.7437879527559055
21
0.7873775984251968
0
LINE
8
BLACK
6
CONTINUOUS
10
0.7437879527559055
20
0.7873775984251968
11
0.7493557086614173
21
0.781809842519685
0
LINE
8
BLACK
6
CONTINUOUS
10
0.7048134645669292
20
0.7873776377952756
11
0.6881101574803149
21
0.7706743307086614
0
LINE
8
BLACK
6
CONTINUOUS
10
0.6881101574803149
20
0.7706743307086614
11
0.6825423622047244
21
0.7762421259842519
0
LINE
8
BLACK
6
CONTINUOUS
10
0.6825423622047244
20
0.7762421259842519
11
0.6992456692913386
21
0.7929454330708662
0
LINE
8
BLACK
6
CONTINUOUS
10
0.6992456692913386
20
0.7929454330708662
11
0.7048134645669292
21
0.7873776377952756
0
LINE
8
BLACK
6
CONTINUOUS
10
1.0722863779527558
20
0.7762421259842519
11
1.0667185826771652
21
0.7706743307086614
0
LINE
8
BLACK
6
CONTINUOUS
10
1.0667185826771652
20
0.7706743307086614
11
1.0500152755905512
21
0.7873776377952756
0
LINE
8
BLACK
6
CONTINUOUS
10
1.0500152755905512
20
0.7873776377952756
11
1.0555830708661418
21
0.7929454330708662
0
LINE
8
BLACK
6
CONTINUOUS
10
1.0555830708661418
20
0.7929454330708662
11
1.0722863779527558
21
0.7762421259842519
0
LINE
8
BLACK
6
CONTINUOUS
10
1.022176377952756
20
0.7762421259842519
11
1.0166086220472441
21
0.7706743700787402
0
LINE
8
BLACK
6
CONTINUOUS
10
1.0166086220472441
20
0.7706743700787402
11
1.0054730708661417
21
0.7818099212598425
0
LINE
8
BLACK
6
CONTINUOUS
10
1.0054730708661417
20
0.7818099212598425
11
1.0110408267716535
21
0.7873776771653543
0
LINE
8
BLACK
6
CONTINUOUS
10
1.0110408267716535
20
0.7873776771653543
11
1.022176377952756
21
0.7762421259842519
0
LINE
8
BLACK
6
CONTINUOUS
10
0.8310476377952756
20
0.8460585433070866
11
0.8314346062992126
21
0.8459412598425197
0
LINE
8
BLACK
6
CONTINUOUS
10
0.8314346062992126
20
0.8459412598425197
11
0.8317912992125984
21
0.8457505905511811
0
LINE
8
BLACK
6
CONTINUOUS
10
0.8317912992125984
20
0.8457505905511811
11
0.8321038976377952
21
0.8454940157480315
0
LINE
8
BLACK
6
CONTINUOUS
10
0.8321038976377952
20
0.8454940157480315
11
0.8656552755905511
21
0.8119426377952755
0
LINE
8
BLACK
6
CONTINUOUS
10
0.8656552755905511
20
0.8119426377952755
11
0.8659118897637795
21
0.81163
0
LINE
8
BLACK
6
CONTINUOUS
10
0.8659118897637795
20
0.81163
11
0.8661024803149606
21
0.8112733464566929
0
LINE
8
BLACK
6
CONTINUOUS
10
0.8661024803149606
20
0.8112733464566929
11
0.8662198031496062
21
0.8108863385826771
0
LINE
8
BLACK
6
CONTINUOUS
10
0.8662198031496062
20
0.8108863385826771
11
0.8662595669291339
21
0.8104838582677165
0
LINE
8
BLACK
6
CONTINUOUS
10
0.8662595669291339
20
0.8104838582677165
11
0.8662198031496062
21
0.8100813385826772
0
LINE
8
BLACK
6
CONTINUOUS
10
0.8662198031496062
20
0.8100813385826772
11
0.8661024803149606
21
0.8096944094488189
0
LINE
8
BLACK
6
CONTINUOUS
10
0.8661024803149606
20
0.8096944094488189
11
0.8659118503937008
21
0.8093377165354331
0
LINE
8
BLACK
6
CONTINUOUS
10
0.8659118503937008
20
0.8093377165354331
11
0.8656552362204725
21
0.8090250787401575
0
LINE
8
BLACK
6
CONTINUOUS
10
0.8656552362204725
20
0.8090250787401575
11
0.8287632283464567
21
0.7721330708661417
0
LINE
8
BLACK
6
CONTINUOUS
10
0.8287632283464567
20
0.7721330708661417
11
0.8284506299212598
21
0.7718764960629921
0
LINE
8
BLACK
6
CONTINUOUS
10
0.8284506299212598
20
0.7718764960629921
11
0.828093937007874
21
0.7716858661417323
0
LINE
8
BLACK
6
CONTINUOUS
10
0.828093937007874
20
0.7716858661417323
11
0.827706968503937
21
0.7715685039370078
0
LINE
8
BLACK
6
CONTINUOUS
10
0.827706968503937
20
0.7715685039370078
11
0.8273044881889764
21
0.771528779527559
0
LINE
8
BLACK
6
CONTINUOUS
10
0.8273044881889764
20
0.771528779527559
11
0.8269019685039369
21
0.7715685039370078
0
LINE
8
BLACK
6
CONTINUOUS
10
0.8269019685039369
20
0.7715685039370078
11
0.826515
21
0.7716858661417323
0
LINE
8
BLACK
6
CONTINUOUS
10
0.826515
20
0.7716858661417323
11
0.8261583464566929
21
0.7718764566929134
0
LINE
8
BLACK
6
CONTINUOUS
10
0.8261583464566929
20
0.7718764566929134
11
0.8258457086614173
21
0.7721330708661417
0
LINE
8
BLACK
6
CONTINUOUS
10
0.8258457086614173
20
0.7721330708661417
11
0.7922943307086614
21
0.8056844488188977
0
LINE
8
BLACK
6
CONTINUOUS
10
0.7922943307086614
20
0.8056844488188977
11
0.7920377559055118
21
0.8059970472440945
0
LINE
8
BLACK
6
CONTINUOUS
10
0.7920377559055118
20
0.8059970472440945
11
0.7918470866141732
21
0.8063537401574803
0
LINE
8
BLACK
6
CONTINUOUS
10
0.7918470866141732
20
0.8063537401574803
11
0.7917298031496063
21
0.8067407086614173
0
LINE
8
BLACK
6
CONTINUOUS
10
0.7917298031496063
20
0.8067407086614173
11
0.7916900787401575
21
0.8071432283464567
0
LINE
8
BLACK
6
CONTINUOUS
10
0.7916900787401575
20
0.8071432283464567
11
0.7917298031496063
21
0.8075456692913385
0
LINE
8
BLACK
6
CONTINUOUS
10
0.7917298031496063
20
0.8075456692913385
11
0.7918470866141732
21
0.8079327165354331
0
LINE
8
BLACK
6
CONTINUOUS
10
0.7918470866141732
20
0.8079327165354331
11
0.7920377559055118
21
0.8082893700787401
0
LINE
8
BLACK
6
CONTINUOUS
10
0.7920377559055118
20
0.8082893700787401
11
0.7922943307086614
21
0.808601968503937
0
LINE
8
BLACK
6
CONTINUOUS
10
0.7922943307086614
20
0.808601968503937
11
0.8291863385826771
21
0.8454939763779528
0
LINE
8
BLACK
6
CONTINUOUS
10
0.8291863385826771
20
0.8454939763779528
11
0.8294989763779528
21
0.8457505905511811
0
LINE
8
BLACK
6
CONTINUOUS
10
0.8294989763779528
20
0.8457505905511811
11
0.8298556299212598
21
0.8459412598425197
0
LINE
8
BLACK
6
CONTINUOUS
10
0.8298556299212598
20
0.8459412598425197
11
0.8302426377952755
21
0.8460585433070866
0
LINE
8
BLACK
6
CONTINUOUS
10
0.8302426377952755
20
0.8460585433070866
11
0.8306451181102362
21
0.8460983070866142
0
LINE
8
BLACK
6
CONTINUOUS
10
0.8306451181102362
20
0.8460983070866142
11
0.8310476377952756
21
0.8460585433070866
0
LINE
8
BLACK
6
CONTINUOUS
10
0.9184615748031496
20
0.8493992125984252
11
0.9188485826771653
21
0.8492818897637795
0
LINE
8
BLACK
6
CONTINUOUS
10
0.9188485826771653
20
0.8492818897637795
11
0.9192051968503937
21
0.8490912598425197
0
LINE
8
BLACK
6
CONTINUOUS
10
0.9192051968503937
20
0.8490912598425197
11
0.9195178346456693
21
0.8488346456692913
0
LINE
8
BLACK
6
CONTINUOUS
10
0.9195178346456693
20
0.8488346456692913
11
0.9530692125984251
21
0.8152832677165354
0
LINE
8
BLACK
6
CONTINUOUS
10
0.9530692125984251
20
0.8152832677165354
11
0.9533258267716536
21
0.8149706692913385
0
LINE
8
BLACK
6
CONTINUOUS
10
0.9533258267716536
20
0.8149706692913385
11
0.9535164566929134
21
0.8146140157480315
0
LINE
8
BLACK
6
CONTINUOUS
10
0.9535164566929134
20
0.8146140157480315
11
0.9536337401574803
21
0.8142270078740157
0
LINE
8
BLACK
6
CONTINUOUS
10
0.9536337401574803
20
0.8142270078740157
11
0.9536735039370079
21
0.8138245275590551
0
LINE
8
BLACK
6
CONTINUOUS
10
0.9536735039370079
20
0.8138245275590551
11
0.953633779527559
21
0.8134220472440945
0
LINE
8
BLACK
6
CONTINUOUS
10
0.953633779527559
20
0.8134220472440945
11
0.9535164566929134
21
0.8130350393700787
0
LINE
8
BLACK
6
CONTINUOUS
10
0.9535164566929134
20
0.8130350393700787
11
0.9533258267716536
21
0.8126783464566929
0
LINE
8
BLACK
6
CONTINUOUS
10
0.9533258267716536
20
0.8126783464566929
11
0.9530692125984251
21
0.8123657480314961
0
LINE
8
BLACK
6
CONTINUOUS
10
0.9530692125984251
20
0.8123657480314961
11
0.9161771653543307
21
0.7754737007874015
0
LINE
8
BLACK
6
CONTINUOUS
10
0.9161771653543307
20
0.7754737007874015
11
0.9158645669291339
21
0.775217125984252
0
LINE
8
BLACK
6
CONTINUOUS
10
0.9158645669291339
20
0.775217125984252
11
0.9155079133858267
21
0.7750264960629921
0
LINE
8
BLACK
6
CONTINUOUS
10
0.9155079133858267
20
0.7750264960629921
11
0.915120905511811
21
0.7749091732283464
0
LINE
8
BLACK
6
CONTINUOUS
10
0.915120905511811
20
0.7749091732283464
11
0.9147184251968504
21
0.7748694488188976
0
LINE
8
BLACK
6
CONTINUOUS
10
0.9147184251968504
20
0.7748694488188976
11
0.9143159448818897
21
0.7749092125984252
0
LINE
8
BLACK
6
CONTINUOUS
10
0.9143159448818897
20
0.7749092125984252
11
0.913928937007874
21
0.7750264960629921
0
LINE
8
BLACK
6
CONTINUOUS
10
0.913928937007874
20
0.7750264960629921
11
0.9135722834645669
21
0.775217125984252
0
LINE
8
BLACK
6
CONTINUOUS
10
0.9135722834645669
20
0.775217125984252
11
0.9132596850393701
21
0.7754737007874015
0
LINE
8
BLACK
6
CONTINUOUS
10
0.9132596850393701
20
0.7754737007874015
11
0.8797083070866142
21
0.8090250787401575
0
LINE
8
BLACK
6
CONTINUOUS
10
0.8797083070866142
20
0.8090250787401575
11
0.8794516535433071
21
0.8093377165354331
0
LINE
8
BLACK
6
CONTINUOUS
10
0.8794516535433071
20
0.8093377165354331
11
0.8792610629921259
21
0.8096943700787401
0
LINE
8
BLACK
6
CONTINUOUS
10
0.8792610629921259
20
0.8096943700787401
11
0.8791437401574803
21
0.8100813779527559
0
LINE
8
BLACK
6
CONTINUOUS
10
0.8791437401574803
20
0.8100813779527559
11
0.8791039763779528
21
0.8104838976377953
0
LINE
8
BLACK
6
CONTINUOUS
10
0.8791039763779528
20
0.8104838976377953
11
0.8791437007874016
21
0.8108863385826771
0
LINE
8
BLACK
6
CONTINUOUS
10
0.8791437007874016
20
0.8108863385826771
11
0.8792610629921259
21
0.8112733464566929
0
LINE
8
BLACK
6
CONTINUOUS
10
0.8792610629921259
20
0.8112733464566929
11
0.8794516929133858
21
0.81163
0
LINE
8
BLACK
6
CONTINUOUS
10
0.8794516929133858
20
0.81163
11
0.8797083070866142
21
0.8119425984251968
0
LINE
8
BLACK
6
CONTINUOUS
10
0.8797083070866142
20
0.8119425984251968
11
0.9166003543307086
21
0.8488346456692913
0
LINE
8
BLACK
6
CONTINUOUS
10
0.9166003543307086
20
0.8488346456692913
11
0.9169129527559055
21
0.8490912598425197
0
LINE
8
BLACK
6
CONTINUOUS
10
0.9169129527559055
20
0.8490912598425197
11
0.9172696062992126
21
0.8492818897637795
0
LINE
8
BLACK
6
CONTINUOUS
10
0.9172696062992126
20
0.8492818897637795
11
0.9176566141732283
21
0.8493992125984252
0
LINE
8
BLACK
6
CONTINUOUS
10
0.9176566141732283
20
0.8493992125984252
11
0.9180590551181103
21
0.849438937007874
0
LINE
8
BLACK
6
CONTINUOUS
10
0.9180590551181103
20
0.849438937007874
11
0.9184615748031496
21
0.8493992125984252
0
LINE
8
BLACK
6
CONTINUOUS
10
1.3059960629921259
20
0.7843661417322835
11
1.256996062992126
21
0.7843661417322835
0
LINE
8
BLACK
6
CONTINUOUS
10
1.256996062992126
20
0.7843661417322835
11
1.256996062992126
21
0.8063661417322835
0
LINE
8
BLACK
6
CONTINUOUS
10
1.256996062992126
20
0.8063661417322835
11
1.3059960629921259
21
0.8063661417322835
0
LINE
8
BLACK
6
CONTINUOUS
10
1.3059960629921259
20
0.8063661417322835
11
1.3059960629921259
21
0.7843661417322835
0
LINE
8
BLACK
6
CONTINUOUS
10
0.7326523622047244
20
0.7985131889763779
11
0.7215168110236221
21
0.7873776377952756
0
LINE
8
BLACK
6
CONTINUOUS
10
0.7215168110236221
20
0.7873776377952756
11
0.7159490551181102
21
0.7929453937007874
0
LINE
8
BLACK
6
CONTINUOUS
10
0.7159490551181102
20
0.7929453937007874
11
0.7270846062992126
21
0.8040809448818897
0
LINE
8
BLACK
6
CONTINUOUS
10
0.7270846062992126
20
0.8040809448818897
11
0.7326523622047244
21
0.7985131889763779
0
LINE
8
BLACK
6
CONTINUOUS
10
1.03887968503937
20
0.7929453937007874
11
1.0333119291338582
21
0.7873776377952756
0
LINE
8
BLACK
6
CONTINUOUS
10
1.0333119291338582
20
0.7873776377952756
11
1.022176377952756
21
0.7985131889763779
0
LINE
8
BLACK
6
CONTINUOUS
10
1.022176377952756
20
0.7985131889763779
11
1.0277441338582678
21
0.8040809448818897
0
LINE
8
BLACK
6
CONTINUOUS
10
1.0277441338582678
20
0.8040809448818897
11
1.03887968503937
21
0.7929453937007874
0
LINE
8
BLACK
6
CONTINUOUS
10
1.1490592125984251
20
0.8383709842519684
11
1.151933031496063
21
0.836450748031496
0
LINE
8
BLACK
6
CONTINUOUS
10
1.151933031496063
20
0.836450748031496
11
1.1538532677165354
21
0.8335769291338583
0
LINE
8
BLACK
6
CONTINUOUS
10
1.1538532677165354
20
0.8335769291338583
11
1.1545275590551181
21
0.8301870078740158
0
LINE
8
BLACK
6
CONTINUOUS
10
1.1545275590551181
20
0.8301870078740158
11
1.1545275590551181
21
0.810501968503937
0
LINE
8
BLACK
6
CONTINUOUS
10
1.1545275590551181
20
0.810501968503937
11
1.1538532677165354
21
0.8071120472440945
0
LINE
8
BLACK
6
CONTINUOUS
10
1.1538532677165354
20
0.8071120472440945
11
1.151933031496063
21
0.8042382283464566
0
LINE
8
BLACK
6
CONTINUOUS
10
1.151933031496063
20
0.8042382283464566
11
1.1490592125984251
21
0.8023179921259842
0
LINE
8
BLACK
6
CONTINUOUS
10
1.1490592125984251
20
0.8023179921259842
11
1.1456692913385826
21
0.8016437007874015
0
LINE
8
BLACK
6
CONTINUOUS
10
1.1456692913385826
20
0.8016437007874015
11
1.1279527559055118
21
0.8016437007874015
0
LINE
8
BLACK
6
CONTINUOUS
10
1.1279527559055118
20
0.8016437007874015
11
1.1245628346456693
21
0.8023179921259842
0
LINE
8
BLACK
6
CONTINUOUS
10
1.1245628346456693
20
0.8023179921259842
11
1.1216890157480315
21
0.8042382283464566
0
LINE
8
BLACK
6
CONTINUOUS
10
1.1216890157480315
20
0.8042382283464566
11
1.119768779527559
21
0.8071120472440945
0
LINE
8
BLACK
6
CONTINUOUS
10
1.119768779527559
20
0.8071120472440945
11
1.1190944881889764
21
0.810501968503937
0
LINE
8
BLACK
6
CONTINUOUS
10
1.1190944881889764
20
0.810501968503937
11
1.1190944881889764
21
0.8301870078740158
0
LINE
8
BLACK
6
CONTINUOUS
10
1.1190944881889764
20
0.8301870078740158
11
1.119768779527559
21
0.8335769291338583
0
LINE
8
BLACK
6
CONTINUOUS
10
1.119768779527559
20
0.8335769291338583
11
1.1216890157480315
21
0.836450748031496
0
LINE
8
BLACK
6
CONTINUOUS
10
1.1216890157480315
20
0.836450748031496
11
1.1245628346456693
21
0.8383709842519684
0
LINE
8
BLACK
6
CONTINUOUS
10
1.1245628346456693
20
0.8383709842519684
11
1.1279527559055118
21
0.8390452755905512
0
LINE
8
BLACK
6
CONTINUOUS
10
1.1279527559055118
20
0.8390452755905512
11
1.1456692913385826
21
0.8390452755905512
0
LINE
8
BLACK
6
CONTINUOUS
10
1.1456692913385826
20
0.8390452755905512
11
1.1490592125984251
21
0.8383709842519684
0
LINE
8
BLACK
6
CONTINUOUS
10
1.2100828346456693
20
0.8383709842519684
11
1.212956653543307
21
0.836450748031496
0
LINE
8
BLACK
6
CONTINUOUS
10
1.212956653543307
20
0.836450748031496
11
1.2148768897637796
21
0.8335769291338583
0
LINE
8
BLACK
6
CONTINUOUS
10
1.2148768897637796
20
0.8335769291338583
11
1.2155511811023623
21
0.8301870078740158
0
LINE
8
BLACK
6
CONTINUOUS
10
1.2155511811023623
20
0.8301870078740158
11
1.2155511811023623
21
0.810501968503937
0
LINE
8
BLACK
6
CONTINUOUS
10
1.2155511811023623
20
0.810501968503937
11
1.2148768897637796
21
0.8071120472440945
0
LINE
8
BLACK
6
CONTINUOUS
10
1.2148768897637796
20
0.8071120472440945
11
1.212956653543307
21
0.8042382283464566
0
LINE
8
BLACK
6
CONTINUOUS
10
1.212956653543307
20
0.8042382283464566
11
1.2100828346456693
21
0.8023179921259842
0
LINE
8
BLACK
6
CONTINUOUS
10
1.2100828346456693
20
0.8023179921259842
11
1.2066929133858268
21
0.8016437007874015
0
LINE
8
BLACK
6
CONTINUOUS
10
1.2066929133858268
20
0.8016437007874015
11
1.1889763779527558
21
0.8016437007874015
0
LINE
8
BLACK
6
CONTINUOUS
10
1.1889763779527558
20
0.8016437007874015
11
1.1855864566929133
21
0.8023179921259842
0
LINE
8
BLACK
6
CONTINUOUS
10
1.1855864566929133
20
0.8023179921259842
11
1.1827126377952755
21
0.8042382283464566
0
LINE
8
BLACK
6
CONTINUOUS
10
1.1827126377952755
20
0.8042382283464566
11
1.180792401574803
21
0.8071120472440945
0
LINE
8
BLACK
6
CONTINUOUS
10
1.180792401574803
20
0.8071120472440945
11
1.1801181102362204
21
0.810501968503937
0
LINE
8
BLACK
6
CONTINUOUS
10
1.1801181102362204
20
0.810501968503937
11
1.1801181102362204
21
0.8301870078740158
0
LINE
8
BLACK
6
CONTINUOUS
10
1.1801181102362204
20
0.8301870078740158
11
1.180792401574803
21
0.8335769291338583
0
LINE
8
BLACK
6
CONTINUOUS
10
1.180792401574803
20
0.8335769291338583
11
1.1827126377952755
21
0.836450748031496
0
LINE
8
BLACK
6
CONTINUOUS
10
1.1827126377952755
20
0.836450748031496
11
1.1855864566929133
21
0.8383709842519684
0
LINE
8
BLACK
6
CONTINUOUS
10
1.1855864566929133
20
0.8383709842519684
11
1.1889763779527558
21
0.8390452755905512
0
LINE
8
BLACK
6
CONTINUOUS
10
1.1889763779527558
20
0.8390452755905512
11
1.2066929133858268
21
0.8390452755905512
0
LINE
8
BLACK
6
CONTINUOUS
10
1.2066929133858268
20
0.8390452755905512
11
1.2100828346456693
21
0.8383709842519684
0
LINE
8
BLACK
6
CONTINUOUS
10
1.2519960629921258
20
0.8138661417322834
11
1.229996062992126
21
0.8138661417322834
0
LINE
8
BLACK
6
CONTINUOUS
10
1.229996062992126
20
0.8138661417322834
11
1.229996062992126
21
0.8278661417322835
0
LINE
8
BLACK
6
CONTINUOUS
10
1.229996062992126
20
0.8278661417322835
11
1.2519960629921258
21
0.8278661417322835
0
LINE
8
BLACK
6
CONTINUOUS
10
1.2519960629921258
20
0.8278661417322835
11
1.2519960629921258
21
0.8138661417322834
0
LINE
8
BLACK
6
CONTINUOUS
10
1.332996062992126
20
0.8138661417322834
11
1.310996062992126
21
0.8138661417322834
0
LINE
8
BLACK
6
CONTINUOUS
10
1.310996062992126
20
0.8138661417322834
11
1.310996062992126
21
0.8278661417322835
0
LINE
8
BLACK
6
CONTINUOUS
10
1.310996062992126
20
0.8278661417322835
11
1.332996062992126
21
0.8278661417322835
0
LINE
8
BLACK
6
CONTINUOUS
10
1.332996062992126
20
0.8278661417322835
11
1.332996062992126
21
0.8138661417322834
0
LINE
8
BLACK
6
CONTINUOUS
10
0.8764249212598425
20
0.8914358267716536
11
0.8768119291338583
21
0.8913185433070866
0
LINE
8
BLACK
6
CONTINUOUS
10
0.8768119291338583
20
0.8913185433070866
11
0.8771685826771654
21
0.8911279133858268
0
LINE
8
BLACK
6
CONTINUOUS
10
0.8771685826771654
20
0.8911279133858268
11
0.8774811811023622
21
0.8908712992125984
0
LINE
8
BLACK
6
CONTINUOUS
10
0.8774811811023622
20
0.8908712992125984
11
0.911032559055118
21
0.8573199212598425
0
LINE
8
BLACK
6
CONTINUOUS
10
0.911032559055118
20
0.8573199212598425
11
0.9112891732283465
21
0.8570072834645669
0
LINE
8
BLACK
6
CONTINUOUS
10
0.9112891732283465
20
0.8570072834645669
11
0.9114798031496063
21
0.8566506692913386
0
LINE
8
BLACK
6
CONTINUOUS
10
0.9114798031496063
20
0.8566506692913386
11
0.9115971259842519
21
0.8562636614173228
0
LINE
8
BLACK
6
CONTINUOUS
10
0.9115971259842519
20
0.8562636614173228
11
0.9116368503937008
21
0.8558611417322834
0
LINE
8
BLACK
6
CONTINUOUS
10
0.9116368503937008
20
0.8558611417322834
11
0.9115971259842519
21
0.8554587007874016
0
LINE
8
BLACK
6
CONTINUOUS
10
0.9115971259842519
20
0.8554587007874016
11
0.9114798031496063
21
0.8550716929133858
0
LINE
8
BLACK
6
CONTINUOUS
10
0.9114798031496063
20
0.8550716929133858
11
0.9112891732283465
21
0.8547150393700788
0
LINE
8
BLACK
6
CONTINUOUS
10
0.9112891732283465
20
0.8547150393700788
11
0.911032559055118
21
0.8544024409448818
0
LINE
8
BLACK
6
CONTINUOUS
10
0.911032559055118
20
0.8544024409448818
11
0.8741405118110236
21
0.8175103937007874
0
LINE
8
BLACK
6
CONTINUOUS
10
0.8741405118110236
20
0.8175103937007874
11
0.8738279133858268
21
0.8172537795275591
0
LINE
8
BLACK
6
CONTINUOUS
10
0.8738279133858268
20
0.8172537795275591
11
0.8734712598425197
21
0.8170631496062992
0
LINE
8
BLACK
6
CONTINUOUS
10
0.8734712598425197
20
0.8170631496062992
11
0.8730842519685039
21
0.8169457874015748
0
LINE
8
BLACK
6
CONTINUOUS
10
0.8730842519685039
20
0.8169457874015748
11
0.8726818110236221
21
0.816906062992126
0
LINE
8
BLACK
6
CONTINUOUS
10
0.8726818110236221
20
0.816906062992126
11
0.8722792913385826
21
0.8169458267716535
0
LINE
8
BLACK
6
CONTINUOUS
10
0.8722792913385826
20
0.8169458267716535
11
0.8718922834645669
21
0.8170631496062992
0
LINE
8
BLACK
6
CONTINUOUS
10
0.8718922834645669
20
0.8170631496062992
11
0.8715356299212598
21
0.8172537401574803
0
LINE
8
BLACK
6
CONTINUOUS
10
0.8715356299212598
20
0.8172537401574803
11
0.8712229921259842
21
0.8175103937007874
0
LINE
8
BLACK
6
CONTINUOUS
10
0.8712229921259842
20
0.8175103937007874
11
0.8376716141732283
21
0.8510617716535432
0
LINE
8
BLACK
6
CONTINUOUS
10
0.8376716141732283
20
0.8510617716535432
11
0.8374150393700788
21
0.8513743700787402
0
LINE
8
BLACK
6
CONTINUOUS
10
0.8374150393700788
20
0.8513743700787402
11
0.8372244094488189
21
0.8517310236220472
0
LINE
8
BLACK
6
CONTINUOUS
10
0.8372244094488189
20
0.8517310236220472
11
0.837107125984252
21
0.852118031496063
0
LINE
8
BLACK
6
CONTINUOUS
10
0.837107125984252
20
0.852118031496063
11
0.8370673622047244
21
0.8525205118110236
0
LINE
8
BLACK
6
CONTINUOUS
10
0.8370673622047244
20
0.8525205118110236
11
0.8371070866141732
21
0.8529229921259842
0
LINE
8
BLACK
6
CONTINUOUS
10
0.8371070866141732
20
0.8529229921259842
11
0.8372244094488189
21
0.85331
0
LINE
8
BLACK
6
CONTINUOUS
10
0.8372244094488189
20
0.85331
11
0.8374150393700788
21
0.8536666535433071
0
LINE
8
BLACK
6
CONTINUOUS
10
0.8374150393700788
20
0.8536666535433071
11
0.8376716141732283
21
0.8539792519685039
0
LINE
8
BLACK
6
CONTINUOUS
10
0.8376716141732283
20
0.8539792519685039
11
0.8745636614173228
21
0.8908712992125984
0
LINE
8
BLACK
6
CONTINUOUS
10
0.8745636614173228
20
0.8908712992125984
11
0.8748762598425197
21
0.8911279133858268
0
LINE
8
BLACK
6
CONTINUOUS
10
0.8748762598425197
20
0.8911279133858268
11
0.8752329527559055
21
0.8913185433070866
0
LINE
8
BLACK
6
CONTINUOUS
10
0.8752329527559055
20
0.8913185433070866
11
0.8756199606299212
21
0.8914358661417323
0
LINE
8
BLACK
6
CONTINUOUS
10
0.8756199606299212
20
0.8914358661417323
11
0.8760224409448819
21
0.8914755905511811
0
LINE
8
BLACK
6
CONTINUOUS
10
0.8760224409448819
20
0.8914755905511811
11
0.8764249212598425
21
0.8914358267716536
0
LINE
8
BLACK
6
CONTINUOUS
10
0.7326523622047244
20
0.8319197244094488
11
0.7270846062992126
21
0.826351968503937
0
LINE
8
BLACK
6
CONTINUOUS
10
0.7270846062992126
20
0.826351968503937
11
0.7159490551181102
21
0.8374875196850393
0
LINE
8
BLACK
6
CONTINUOUS
10
0.7159490551181102
20
0.8374875196850393
11
0.7215168110236221
21
0.8430552755905512
0
LINE
8
BLACK
6
CONTINUOUS
10
0.7215168110236221
20
0.8430552755905512
11
0.7326523622047244
21
0.8319197244094488
0
LINE
8
BLACK
6
CONTINUOUS
10
1.03887968503937
20
0.8374875196850393
11
1.0277441338582678
21
0.826351968503937
0
LINE
8
BLACK
6
CONTINUOUS
10
1.0277441338582678
20
0.826351968503937
11
1.022176377952756
21
0.8319197244094488
0
LINE
8
BLACK
6
CONTINUOUS
10
1.022176377952756
20
0.8319197244094488
11
1.0333119291338582
21
0.8430552755905512
0
LINE
8
BLACK
6
CONTINUOUS
10
1.0333119291338582
20
0.8430552755905512
11
1.03887968503937
21
0.8374875196850393
0
LINE
8
BLACK
6
CONTINUOUS
10
1.3059960629921259
20
0.8353661417322834
11
1.256996062992126
21
0.8353661417322834
0
LINE
8
BLACK
6
CONTINUOUS
10
1.256996062992126
20
0.8353661417322834
11
1.256996062992126
21
0.8573661417322834
0
LINE
8
BLACK
6
CONTINUOUS
10
1.256996062992126
20
0.8573661417322834
11
1.3059960629921259
21
0.8573661417322834
0
LINE
8
BLACK
6
CONTINUOUS
10
1.3059960629921259
20
0.8573661417322834
11
1.3059960629921259
21
0.8353661417322834
0
LINE
8
BLACK
6
CONTINUOUS
10
0.7048135039370078
20
0.8430553149606299
11
0.6992457086614173
21
0.8374875196850393
0
LINE
8
BLACK
6
CONTINUOUS
10
0.6992457086614173
20
0.8374875196850393
11
0.6825424015748032
21
0.8541908267716535
0
LINE
8
BLACK
6
CONTINUOUS
10
0.6825424015748032
20
0.8541908267716535
11
0.6881101968503937
21
0.8597586220472441
0
LINE
8
BLACK
6
CONTINUOUS
10
0.6881101968503937
20
0.8597586220472441
11
0.7048135039370078
21
0.8430553149606299
0
LINE
8
BLACK
6
CONTINUOUS
10
1.0722863385826771
20
0.8541908267716535
11
1.055583031496063
21
0.8374875196850393
0
LINE
8
BLACK
6
CONTINUOUS
10
1.055583031496063
20
0.8374875196850393
11
1.0500152362204724
21
0.8430553149606299
0
LINE
8
BLACK
6
CONTINUOUS
10
1.0500152362204724
20
0.8430553149606299
11
1.0667185433070865
21
0.8597586220472441
0
LINE
8
BLACK
6
CONTINUOUS
10
1.0667185433070865
20
0.8597586220472441
11
1.0722863385826771
21
0.8541908267716535
0
LINE
8
BLACK
6
CONTINUOUS
10
0.7493556692913386
20
0.8486229921259842
11
0.7437879133858267
21
0.8430552362204724
0
LINE
8
BLACK
6
CONTINUOUS
10
0.7437879133858267
20
0.8430552362204724
11
0.7326523622047244
21
0.8541907874015748
0
LINE
8
BLACK
6
CONTINUOUS
10
0.7326523622047244
20
0.8541907874015748
11
0.7382201181102362
21
0.8597585433070866
0
LINE
8
BLACK
6
CONTINUOUS
10
0.7382201181102362
20
0.8597585433070866
11
0.7493556692913386
21
0.8486229921259842
0
LINE
8
BLACK
6
CONTINUOUS
10
1.0221763385826772
20
0.8541908661417322
11
1.0110407874015748
21
0.8430553149606299
0
LINE
8
BLACK
6
CONTINUOUS
10
1.0110407874015748
20
0.8430553149606299
11
1.0054730314960629
21
0.8486230708661417
0
LINE
8
BLACK
6
CONTINUOUS
10
1.0054730314960629
20
0.8486230708661417
11
1.0166085826771654
21
0.8597586220472441
0
LINE
8
BLACK
6
CONTINUOUS
10
1.0166085826771654
20
0.8597586220472441
11
1.0221763385826772
21
0.8541908661417322
0
LINE
8
BLACK
6
CONTINUOUS
10
1.055583031496063
20
0.870894094488189
11
1.0388797244094488
21
0.8541907874015748
0
LINE
8
BLACK
6
CONTINUOUS
10
1.0388797244094488
20
0.8541907874015748
11
1.0333119291338582
21
0.8597585826771653
0
LINE
8
BLACK
6
CONTINUOUS
10
1.0333119291338582
20
0.8597585826771653
11
1.0500152362204724
21
0.8764618897637795
0
LINE
8
BLACK
6
CONTINUOUS
10
1.0500152362204724
20
0.8764618897637795
11
1.055583031496063
21
0.870894094488189
0
LINE
8
BLACK
6
CONTINUOUS
10
0.7215168897637795
20
0.8597587007874016
11
0.715949094488189
21
0.854190905511811
0
LINE
8
BLACK
6
CONTINUOUS
10
0.715949094488189
20
0.854190905511811
11
0.6992457874015748
21
0.8708942125984251
0
LINE
8
BLACK
6
CONTINUOUS
10
0.6992457874015748
20
0.8708942125984251
11
0.7048135826771653
21
0.8764620078740157
0
LINE
8
BLACK
6
CONTINUOUS
10
0.7048135826771653
20
0.8764620078740157
11
0.7215168897637795
21
0.8597587007874016
0
LINE
8
BLACK
6
CONTINUOUS
10
0.7660590157480315
20
0.8653263385826772
11
0.7604912598425196
21
0.8597585826771653
0
LINE
8
BLACK
6
CONTINUOUS
10
0.7604912598425196
20
0.8597585826771653
11
0.7493557086614173
21
0.8708941338582677
0
LINE
8
BLACK
6
CONTINUOUS
10
0.7493557086614173
20
0.8708941338582677
11
0.7549234645669292
21
0.8764618897637795
0
LINE
8
BLACK
6
CONTINUOUS
10
0.7549234645669292
20
0.8764618897637795
11
0.7660590157480315
21
0.8653263385826772
0
LINE
8
BLACK
6
CONTINUOUS
10
1.0054730314960629
20
0.8708941338582677
11
0.9943374803149606
21
0.8597585826771653
0
LINE
8
BLACK
6
CONTINUOUS
10
0.9943374803149606
20
0.8597585826771653
11
0.9887697244094488
21
0.8653263385826772
0
LINE
8
BLACK
6
CONTINUOUS
10
0.9887697244094488
20
0.8653263385826772
11
0.9999052755905512
21
0.8764618897637795
0
LINE
8
BLACK
6
CONTINUOUS
10
0.9999052755905512
20
0.8764618897637795
11
1.0054730314960629
21
0.8708941338582677
0
LINE
8
BLACK
6
CONTINUOUS
10
0.7382201181102362
20
0.8764619291338582
11
0.7326523228346457
21
0.8708941338582677
0
LINE
8
BLACK
6
CONTINUOUS
10
0.7326523228346457
20
0.8708941338582677
11
0.7159490157480315
21
0.8875974409448819
0
LINE
8
BLACK
6
CONTINUOUS
10
0.7159490157480315
20
0.8875974409448819
11
0.7215168110236221
21
0.8931652362204724
0
LINE
8
BLACK
6
CONTINUOUS
10
0.7215168110236221
20
0.8931652362204724
11
0.7382201181102362
21
0.8764619291338582
0
LINE
8
BLACK
6
CONTINUOUS
10
1.0388797244094488
20
0.8875974409448819
11
1.0221764173228347
21
0.8708941338582677
0
LINE
8
BLACK
6
CONTINUOUS
10
1.0221764173228347
20
0.8708941338582677
11
1.0166086220472441
21
0.8764619291338582
0
LINE
8
BLACK
6
CONTINUOUS
10
1.0166086220472441
20
0.8764619291338582
11
1.0333119291338582
21
0.8931652362204724
0
LINE
8
BLACK
6
CONTINUOUS
10
1.0333119291338582
20
0.8931652362204724
11
1.0388797244094488
21
0.8875974409448819
0
LINE
8
BLACK
6
CONTINUOUS
10
0.7827622834645669
20
0.8820296456692913
11
0.777194527559055
21
0.8764618897637795
0
LINE
8
BLACK
6
CONTINUOUS
10
0.777194527559055
20
0.8764618897637795
11
0.7660589763779527
21
0.8875974409448819
0
LINE
8
BLACK
6
CONTINUOUS
10
0.7660589763779527
20
0.8875974409448819
11
0.7716267322834646
21
0.8931651968503936
0
LINE
8
BLACK
6
CONTINUOUS
10
0.7716267322834646
20
0.8931651968503936
11
0.7827622834645669
21
0.8820296456692913
0
LINE
8
BLACK
6
CONTINUOUS
10
0.9887697244094488
20
0.8875974803149607
11
0.9776341732283464
21
0.8764619291338582
0
LINE
8
BLACK
6
CONTINUOUS
10
0.9776341732283464
20
0.8764619291338582
11
0.9720664173228346
21
0.8820296850393701
0
LINE
8
BLACK
6
CONTINUOUS
10
0.9720664173228346
20
0.8820296850393701
11
0.983201968503937
21
0.8931652362204724
0
LINE
8
BLACK
6
CONTINUOUS
10
0.983201968503937
20
0.8931652362204724
11
0.9887697244094488
21
0.8875974803149607
0
LINE
8
BLACK
6
CONTINUOUS
10
1.0221764173228347
20
0.9043007480314961
11
1.0054731102362204
21
0.8875974409448819
0
LINE
8
BLACK
6
CONTINUOUS
10
1.0054731102362204
20
0.8875974409448819
11
0.99990531496063
21
0.8931652362204724
0
LINE
8
BLACK
6
CONTINUOUS
10
0.99990531496063
20
0.8931652362204724
11
1.0166086220472441
21
0.9098685433070866
0
LINE
8
BLACK
6
CONTINUOUS
10
1.0166086220472441
20
0.9098685433070866
11
1.0221764173228347
21
0.9043007480314961
0
LINE
8
BLACK
6
CONTINUOUS
10
0.7549235039370079
20
0.8931653149606299
11
0.7493557086614173
21
0.8875975196850393
0
LINE
8
BLACK
6
CONTINUOUS
10
0.7493557086614173
20
0.8875975196850393
11
0.7326524015748032
21
0.9043008267716536
0
LINE
8
BLACK
6
CONTINUOUS
10
0.7326524015748032
20
0.9043008267716536
11
0.7382201968503936
21
0.9098686220472441
0
LINE
8
BLACK
6
CONTINUOUS
10
0.7382201968503936
20
0.9098686220472441
11
0.7549235039370079
21
0.8931653149606299
0
LINE
8
BLACK
6
CONTINUOUS
10
0.7994656299212598
20
0.8987329527559055
11
0.793897874015748
21
0.8931651968503936
0
LINE
8
BLACK
6
CONTINUOUS
10
0.793897874015748
20
0.8931651968503936
11
0.7827623228346456
21
0.9043007480314961
0
LINE
8
BLACK
6
CONTINUOUS
10
0.7827623228346456
20
0.9043007480314961
11
0.7883300787401575
21
0.9098685039370078
0
LINE
8
BLACK
6
CONTINUOUS
10
0.7883300787401575
20
0.9098685039370078
11
0.7994656299212598
21
0.8987329527559055
0
LINE
8
BLACK
6
CONTINUOUS
10
0.9720664173228346
20
0.9043007480314961
11
0.9609308661417323
21
0.8931651968503936
0
LINE
8
BLACK
6
CONTINUOUS
10
0.9609308661417323
20
0.8931651968503936
11
0.9553631102362204
21
0.8987329527559055
0
LINE
8
BLACK
6
CONTINUOUS
10
0.9553631102362204
20
0.8987329527559055
11
0.9664986614173228
21
0.9098685039370078
0
LINE
8
BLACK
6
CONTINUOUS
10
0.9664986614173228
20
0.9098685039370078
11
0.9720664173228346
21
0.9043007480314961
0
LINE
8
BLACK
6
CONTINUOUS
10
0.7716267716535433
20
0.9098685826771653
11
0.7660589763779527
21
0.9043007874015748
0
LINE
8
BLACK
6
CONTINUOUS
10
0.7660589763779527
20
0.9043007874015748
11
0.7493556692913386
21
0.921004094488189
0
LINE
8
BLACK
6
CONTINUOUS
10
0.7493556692913386
20
0.921004094488189
11
0.7549234645669292
21
0.9265718897637795
0
LINE
8
BLACK
6
CONTINUOUS
10
0.7549234645669292
20
0.9265718897637795
11
0.7716267716535433
21
0.9098685826771653
0
LINE
8
BLACK
6
CONTINUOUS
10
1.0054730708661417
20
0.921004094488189
11
0.9887697637795275
21
0.9043007874015748
0
LINE
8
BLACK
6
CONTINUOUS
10
0.9887697637795275
20
0.9043007874015748
11
0.983201968503937
21
0.9098685826771653
0
LINE
8
BLACK
6
CONTINUOUS
10
0.983201968503937
20
0.9098685826771653
11
0.9999052755905512
21
0.9265718897637795
0
LINE
8
BLACK
6
CONTINUOUS
10
0.9999052755905512
20
0.9265718897637795
11
1.0054730708661417
21
0.921004094488189
0
LINE
8
BLACK
6
CONTINUOUS
10
0.6143151181102362
20
0.9412548425196851
11
0.617188937007874
21
0.9393346062992126
0
LINE
8
BLACK
6
CONTINUOUS
10
0.617188937007874
20
0.9393346062992126
11
0.6191091732283465
21
0.9364607874015748
0
LINE
8
BLACK
6
CONTINUOUS
10
0.6191091732283465
20
0.9364607874015748
11
0.6197834645669291
21
0.9330708661417323
0
LINE
8
BLACK
6
CONTINUOUS
10
0.6197834645669291
20
0.9330708661417323
11
0.6197834645669291
21
0.9133858267716535
0
LINE
8
BLACK
6
CONTINUOUS
10
0.6197834645669291
20
0.9133858267716535
11
0.6191091732283465
21
0.909995905511811
0
LINE
8
BLACK
6
CONTINUOUS
10
0.6191091732283465
20
0.909995905511811
11
0.617188937007874
21
0.9071220866141733
0
LINE
8
BLACK
6
CONTINUOUS
10
0.617188937007874
20
0.9071220866141733
11
0.6143151181102362
21
0.9052018503937007
0
LINE
8
BLACK
6
CONTINUOUS
10
0.6143151181102362
20
0.9052018503937007
11
0.6109251968503937
21
0.9045275590551181
0
LINE
8
BLACK
6
CONTINUOUS
10
0.6109251968503937
20
0.9045275590551181
11
0.5932086614173229
21
0.9045275590551181
0
LINE
8
BLACK
6
CONTINUOUS
10
0.5932086614173229
20
0.9045275590551181
11
0.5898187401574803
21
0.9052018503937007
0
LINE
8
BLACK
6
CONTINUOUS
10
0.5898187401574803
20
0.9052018503937007
11
0.5869449212598425
21
0.9071220866141733
0
LINE
8
BLACK
6
CONTINUOUS
10
0.5869449212598425
20
0.9071220866141733
11
0.5850246850393701
21
0.909995905511811
0
LINE
8
BLACK
6
CONTINUOUS
10
0.5850246850393701
20
0.909995905511811
11
0.5843503937007873
21
0.9133858267716535
0
LINE
8
BLACK
6
CONTINUOUS
10
0.5843503937007873
20
0.9133858267716535
11
0.5843503937007873
21
0.9330708661417323
0
LINE
8
BLACK
6
CONTINUOUS
10
0.5843503937007873
20
0.9330708661417323
11
0.5850246850393701
21
0.9364607874015748
0
LINE
8
BLACK
6
CONTINUOUS
10
0.5850246850393701
20
0.9364607874015748
11
0.5869449212598425
21
0.9393346062992126
0
LINE
8
BLACK
6
CONTINUOUS
10
0.5869449212598425
20
0.9393346062992126
11
0.5898187401574803
21
0.9412548425196851
0
LINE
8
BLACK
6
CONTINUOUS
10
0.5898187401574803
20
0.9412548425196851
11
0.5932086614173229
21
0.9419291338582677
0
LINE
8
BLACK
6
CONTINUOUS
10
0.5932086614173229
20
0.9419291338582677
11
0.6109251968503937
21
0.9419291338582677
0
LINE
8
BLACK
6
CONTINUOUS
10
0.6109251968503937
20
0.9419291338582677
11
0.6143151181102362
21
0.9412548425196851
0
LINE
8
BLACK
6
CONTINUOUS
10
0.6753387401574803
20
0.9412548425196851
11
0.6782125590551181
21
0.9393346062992126
0
LINE
8
BLACK
6
CONTINUOUS
10
0.6782125590551181
20
0.9393346062992126
11
0.6801327952755906
21
0.9364607874015748
0
LINE
8
BLACK
6
CONTINUOUS
10
0.6801327952755906
20
0.9364607874015748
11
0.6808070866141732
21
0.9330708661417323
0
LINE
8
BLACK
6
CONTINUOUS
10
0.6808070866141732
20
0.9330708661417323
11
0.6808070866141732
21
0.9133858267716535
0
LINE
8
BLACK
6
CONTINUOUS
10
0.6808070866141732
20
0.9133858267716535
11
0.6801327952755906
21
0.909995905511811
0
LINE
8
BLACK
6
CONTINUOUS
10
0.6801327952755906
20
0.909995905511811
11
0.6782125590551181
21
0.9071220866141733
0
LINE
8
BLACK
6
CONTINUOUS
10
0.6782125590551181
20
0.9071220866141733
11
0.6753387401574803
21
0.9052018503937007
0
LINE
8
BLACK
6
CONTINUOUS
10
0.6753387401574803
20
0.9052018503937007
11
0.6719488188976378
21
0.9045275590551181
0
LINE
8
BLACK
6
CONTINUOUS
10
0.6719488188976378
20
0.9045275590551181
11
0.654232283464567
21
0.9045275590551181
0
LINE
8
BLACK
6
CONTINUOUS
10
0.654232283464567
20
0.9045275590551181
11
0.6508423622047244
21
0.9052018503937007
0
LINE
8
BLACK
6
CONTINUOUS
10
0.6508423622047244
20
0.9052018503937007
11
0.6479685433070866
21
0.9071220866141733
0
LINE
8
BLACK
6
CONTINUOUS
10
0.6479685433070866
20
0.9071220866141733
11
0.6460483070866142
21
0.909995905511811
0
LINE
8
BLACK
6
CONTINUOUS
10
0.6460483070866142
20
0.909995905511811
11
0.6453740157480314
21
0.9133858267716535
0
LINE
8
BLACK
6
CONTINUOUS
10
0.6453740157480314
20
0.9133858267716535
11
0.6453740157480314
21
0.9330708661417323
0
LINE
8
BLACK
6
CONTINUOUS
10
0.6453740157480314
20
0.9330708661417323
11
0.6460483070866142
21
0.9364607874015748
0
LINE
8
BLACK
6
CONTINUOUS
10
0.6460483070866142
20
0.9364607874015748
11
0.6479685433070866
21
0.9393346062992126
0
LINE
8
BLACK
6
CONTINUOUS
10
0.6479685433070866
20
0.9393346062992126
11
0.6508423622047244
21
0.9412548425196851
0
LINE
8
BLACK
6
CONTINUOUS
10
0.6508423622047244
20
0.9412548425196851
11
0.654232283464567
21
0.9419291338582677
0
LINE
8
BLACK
6
CONTINUOUS
10
0.654232283464567
20
0.9419291338582677
11
0.6719488188976378
21
0.9419291338582677
0
LINE
8
BLACK
6
CONTINUOUS
10
0.6719488188976378
20
0.9419291338582677
11
0.6753387401574803
21
0.9412548425196851
0
LINE
8
BLACK
6
CONTINUOUS
10
0.8161688976377952
20
0.9154362598425196
11
0.8106011417322835
21
0.9098685039370078
0
LINE
8
BLACK
6
CONTINUOUS
10
0.8106011417322835
20
0.9098685039370078
11
0.799465590551181
21
0.9210040551181102
0
LINE
8
BLACK
6
CONTINUOUS
10
0.799465590551181
20
0.9210040551181102
11
0.8050333464566929
21
0.9265718110236221
0
LINE
8
BLACK
6
CONTINUOUS
10
0.8050333464566929
20
0.9265718110236221
11
0.8161688976377952
21
0.9154362598425196
0
LINE
8
BLACK
6
CONTINUOUS
10
0.9553631102362204
20
0.921004094488189
11
0.9442275590551181
21
0.9098685433070866
0
LINE
8
BLACK
6
CONTINUOUS
10
0.9442275590551181
20
0.9098685433070866
11
0.9386598031496063
21
0.9154362992125984
0
LINE
8
BLACK
6
CONTINUOUS
10
0.9386598031496063
20
0.9154362992125984
11
0.9497953543307086
21
0.9265718503937007
0
LINE
8
BLACK
6
CONTINUOUS
10
0.9497953543307086
20
0.9265718503937007
11
0.9553631102362204
21
0.921004094488189
0
LINE
8
BLACK
6
CONTINUOUS
10
0.9887698031496063
20
0.9377073622047244
11
0.9720664960629921
21
0.9210040551181102
0
LINE
8
BLACK
6
CONTINUOUS
10
0.9720664960629921
20
0.9210040551181102
11
0.9664987007874015
21
0.9265718503937007
0
LINE
8
BLACK
6
CONTINUOUS
10
0.9664987007874015
20
0.9265718503937007
11
0.9832020078740157
21
0.943275157480315
0
LINE
8
BLACK
6
CONTINUOUS
10
0.9832020078740157
20
0.943275157480315
11
0.9887698031496063
21
0.9377073622047244
0
LINE
8
BLACK
6
CONTINUOUS
10
0.7883301181102362
20
0.9265719291338582
11
0.7827623228346456
21
0.9210041338582677
0
LINE
8
BLACK
6
CONTINUOUS
10
0.7827623228346456
20
0.9210041338582677
11
0.7660590157480315
21
0.9377074409448819
0
LINE
8
BLACK
6
CONTINUOUS
10
0.7660590157480315
20
0.9377074409448819
11
0.7716268110236221
21
0.9432752362204724
0
LINE
8
BLACK
6
CONTINUOUS
10
0.7716268110236221
20
0.9432752362204724
11
0.7883301181102362
21
0.9265719291338582
0
LINE
8
BLACK
6
CONTINUOUS
10
0.8328722440944881
20
0.9321395669291338
11
0.8273044881889764
21
0.9265718110236221
0
LINE
8
BLACK
6
CONTINUOUS
10
0.8273044881889764
20
0.9265718110236221
11
0.816168937007874
21
0.9377073622047244
0
LINE
8
BLACK
6
CONTINUOUS
10
0.816168937007874
20
0.9377073622047244
11
0.8217366929133858
21
0.9432751181102362
0
LINE
8
BLACK
6
CONTINUOUS
10
0.8217366929133858
20
0.9432751181102362
11
0.8328722440944881
21
0.9321395669291338
0
LINE
8
BLACK
6
CONTINUOUS
10
0.9386598031496063
20
0.9377073622047244
11
0.927524251968504
21
0.9265718110236221
0
LINE
8
BLACK
6
CONTINUOUS
10
0.927524251968504
20
0.9265718110236221
11
0.9219564960629921
21
0.9321395669291338
0
LINE
8
BLACK
6
CONTINUOUS
10
0.9219564960629921
20
0.9321395669291338
11
0.9330920472440944
21
0.9432751181102362
0
LINE
8
BLACK
6
CONTINUOUS
10
0.9330920472440944
20
0.9432751181102362
11
0.9386598031496063
21
0.9377073622047244
0
LINE
8
BLACK
6
CONTINUOUS
10
0.5145933464566929
20
0.9657862204724409
11
0.5177864960629921
21
0.9636526377952755
0
LINE
8
BLACK
6
CONTINUOUS
10
0.5177864960629921
20
0.9636526377952755
11
0.5199200787401574
21
0.9604594881889763
0
LINE
8
BLACK
6
CONTINUOUS
10
0.5199200787401574
20
0.9604594881889763
11
0.5206692913385826
21
0.9566929133858267
0
LINE
8
BLACK
6
CONTINUOUS
10
0.5206692913385826
20
0.9566929133858267
11
0.5206692913385826
21
0.937007874015748
0
LINE
8
BLACK
6
CONTINUOUS
10
0.5206692913385826
20
0.937007874015748
11
0.5199200787401574
21
0.9332412992125984
0
LINE
8
BLACK
6
CONTINUOUS
10
0.5199200787401574
20
0.9332412992125984
11
0.5177864960629921
21
0.9300481496062992
0
LINE
8
BLACK
6
CONTINUOUS
10
0.5177864960629921
20
0.9300481496062992
11
0.5145933464566929
21
0.9279145669291339
0
LINE
8
BLACK
6
CONTINUOUS
10
0.5145933464566929
20
0.9279145669291339
11
0.5108267716535433
21
0.9271653543307087
0
LINE
8
BLACK
6
CONTINUOUS
10
0.5108267716535433
20
0.9271653543307087
11
0.4734251968503937
21
0.9271653543307087
0
LINE
8
BLACK
6
CONTINUOUS
10
0.4734251968503937
20
0.9271653543307087
11
0.4696586220472441
21
0.9279145669291339
0
LINE
8
BLACK
6
CONTINUOUS
10
0.4696586220472441
20
0.9279145669291339
11
0.4664654724409449
21
0.9300481496062992
0
LINE
8
BLACK
6
CONTINUOUS
10
0.4664654724409449
20
0.9300481496062992
11
0.4643318897637795
21
0.9332412992125984
0
LINE
8
BLACK
6
CONTINUOUS
10
0.4643318897637795
20
0.9332412992125984
11
0.4635826771653543
21
0.937007874015748
0
LINE
8
BLACK
6
CONTINUOUS
10
0.4635826771653543
20
0.937007874015748
11
0.4635826771653543
21
0.9566929133858267
0
LINE
8
BLACK
6
CONTINUOUS
10
0.4635826771653543
20
0.9566929133858267
11
0.4643318897637795
21
0.9604594881889763
0
LINE
8
BLACK
6
CONTINUOUS
10
0.4643318897637795
20
0.9604594881889763
11
0.4664654724409449
21
0.9636526377952755
0
LINE
8
BLACK
6
CONTINUOUS
10
0.4664654724409449
20
0.9636526377952755
11
0.4696586220472441
21
0.9657862204724409
0
LINE
8
BLACK
6
CONTINUOUS
10
0.4696586220472441
20
0.9657862204724409
11
0.4734251968503937
21
0.9665354330708661
0
LINE
8
BLACK
6
CONTINUOUS
10
0.4734251968503937
20
0.9665354330708661
11
0.5108267716535433
21
0.9665354330708661
0
LINE
8
BLACK
6
CONTINUOUS
10
0.5108267716535433
20
0.9665354330708661
11
0.5145933464566929
21
0.9657862204724409
0
LINE
8
BLACK
6
CONTINUOUS
10
0.8050333858267716
20
0.9432751968503936
11
0.799465590551181
21
0.9377074015748031
0
LINE
8
BLACK
6
CONTINUOUS
10
0.799465590551181
20
0.9377074015748031
11
0.7827622834645669
21
0.9544107086614173
0
LINE
8
BLACK
6
CONTINUOUS
10
0.7827622834645669
20
0.9544107086614173
11
0.7883300787401575
21
0.9599785039370079
0
LINE
8
BLACK
6
CONTINUOUS
10
0.7883300787401575
20
0.9599785039370079
11
0.8050333858267716
21
0.9432751968503936
0
LINE
8
BLACK
6
CONTINUOUS
10
0.9720664566929134
20
0.9544107086614173
11
0.9553631496062992
21
0.9377074015748031
0
LINE
8
BLACK
6
CONTINUOUS
10
0.9553631496062992
20
0.9377074015748031
11
0.9497953543307086
21
0.9432751968503936
0
LINE
8
BLACK
6
CONTINUOUS
10
0.9497953543307086
20
0.9432751968503936
11
0.9664986614173228
21
0.9599785039370079
0
LINE
8
BLACK
6
CONTINUOUS
10
0.9664986614173228
20
0.9599785039370079
11
0.9720664566929134
21
0.9544107086614173
0
LINE
8
BLACK
6
CONTINUOUS
10
0.8495755118110236
20
0.948842874015748
11
0.8440077559055118
21
0.9432751181102362
0
LINE
8
BLACK
6
CONTINUOUS
10
0.8440077559055118
20
0.9432751181102362
11
0.8328722047244095
21
0.9544106692913386
0
LINE
8
BLACK
6
CONTINUOUS
10
0.8328722047244095
20
0.9544106692913386
11
0.8384399606299212
21
0.9599784251968504
0
LINE
8
BLACK
6
CONTINUOUS
10
0.8384399606299212
20
0.9599784251968504
11
0.8495755118110236
21
0.948842874015748
0
LINE
8
BLACK
6
CONTINUOUS
10
0.9219564566929134
20
0.9544107086614173
11
0.9108209055118111
21
0.943275157480315
0
LINE
8
BLACK
6
CONTINUOUS
10
0.9108209055118111
20
0.943275157480315
11
0.9052531496062992
21
0.9488429133858267
0
LINE
8
BLACK
6
CONTINUOUS
10
0.9052531496062992
20
0.9488429133858267
11
0.9163887007874015
21
0.9599784645669291
0
LINE
8
BLACK
6
CONTINUOUS
10
0.9163887007874015
20
0.9599784645669291
11
0.9219564566929134
21
0.9544107086614173
0
LINE
8
BLACK
6
CONTINUOUS
10
0.9553631496062992
20
0.9711140157480315
11
0.938659842519685
21
0.9544107086614173
0
LINE
8
BLACK
6
CONTINUOUS
10
0.938659842519685
20
0.9544107086614173
11
0.9330920472440944
21
0.9599785039370079
0
LINE
8
BLACK
6
CONTINUOUS
10
0.9330920472440944
20
0.9599785039370079
11
0.9497953543307086
21
0.9766818110236221
0
LINE
8
BLACK
6
CONTINUOUS
10
0.9497953543307086
20
0.9766818110236221
11
0.9553631496062992
21
0.9711140157480315
0
LINE
8
BLACK
6
CONTINUOUS
10
0.8217367322834646
20
0.9599785433070865
11
0.816168937007874
21
0.9544107480314961
0
LINE
8
BLACK
6
CONTINUOUS
10
0.816168937007874
20
0.9544107480314961
11
0.7994656299212598
21
0.9711140551181102
0
LINE
8
BLACK
6
CONTINUOUS
10
0.7994656299212598
20
0.9711140551181102
11
0.8050334251968504
21
0.9766818503937008
0
LINE
8
BLACK
6
CONTINUOUS
10
0.8050334251968504
20
0.9766818503937008
11
0.8217367322834646
21
0.9599785433070865
0
LINE
8
BLACK
6
CONTINUOUS
10
0.8662788582677166
20
0.9655462204724409
11
0.8607111023622047
21
0.9599784645669291
0
LINE
8
BLACK
6
CONTINUOUS
10
0.8607111023622047
20
0.9599784645669291
11
0.8495755511811024
21
0.9711140157480315
0
LINE
8
BLACK
6
CONTINUOUS
10
0.8495755511811024
20
0.9711140157480315
11
0.8551433070866141
21
0.9766817716535433
0
LINE
8
BLACK
6
CONTINUOUS
10
0.8551433070866141
20
0.9766817716535433
11
0.8662788582677166
21
0.9655462204724409
0
LINE
8
BLACK
6
CONTINUOUS
10
0.905253188976378
20
0.9711140157480315
11
0.8941176377952755
21
0.9599784645669291
0
LINE
8
BLACK
6
CONTINUOUS
10
0.8941176377952755
20
0.9599784645669291
11
0.8885498818897638
21
0.9655462204724409
0
LINE
8
BLACK
6
CONTINUOUS
10
0.8885498818897638
20
0.9655462204724409
11
0.8996854330708661
21
0.9766817716535433
0
LINE
8
BLACK
6
CONTINUOUS
10
0.8996854330708661
20
0.9766817716535433
11
0.905253188976378
21
0.9711140157480315
0
LINE
8
BLACK
6
CONTINUOUS
10
0.8384400393700787
20
0.9766818110236221
11
0.8328722440944881
21
0.9711140157480315
0
LINE
8
BLACK
6
CONTINUOUS
10
0.8328722440944881
20
0.9711140157480315
11
0.816168937007874
21
0.9878173228346456
0
LINE
8
BLACK
6
CONTINUOUS
10
0.816168937007874
20
0.9878173228346456
11
0.8217367322834646
21
0.9933851181102362
0
LINE
8
BLACK
6
CONTINUOUS
10
0.8217367322834646
20
0.9933851181102362
11
0.8384400393700787
21
0.9766818110236221
0
LINE
8
BLACK
6
CONTINUOUS
10
0.9386598031496063
20
0.9878173228346456
11
0.9219564960629921
21
0.9711140157480315
0
LINE
8
BLACK
6
CONTINUOUS
10
0.9219564960629921
20
0.9711140157480315
11
0.9163887007874015
21
0.9766818110236221
0
LINE
8
BLACK
6
CONTINUOUS
10
0.9163887007874015
20
0.9766818110236221
11
0.9330920078740157
21
0.9933851181102362
0
LINE
8
BLACK
6
CONTINUOUS
10
0.9330920078740157
20
0.9933851181102362
11
0.9386598031496063
21
0.9878173228346456
0
LINE
8
BLACK
6
CONTINUOUS
10
0.9219565354330709
20
1.0045206299212599
11
0.9052532283464567
21
0.9878173228346456
0
LINE
8
BLACK
6
CONTINUOUS
10
0.9052532283464567
20
0.9878173228346456
11
0.8996854330708661
21
0.9933851181102362
0
LINE
8
BLACK
6
CONTINUOUS
10
0.8996854330708661
20
0.9933851181102362
11
0.9163887401574803
21
1.0100884251968503
0
LINE
8
BLACK
6
CONTINUOUS
10
0.9163887401574803
20
1.0100884251968503
11
0.9219565354330709
21
1.0045206299212599
0
LINE
8
BLACK
6
CONTINUOUS
10
0.8551433464566929
20
0.993385157480315
11
0.8495755511811024
21
0.9878173622047244
0
LINE
8
BLACK
6
CONTINUOUS
10
0.8495755511811024
20
0.9878173622047244
11
0.8328722440944881
21
1.0045206692913387
0
LINE
8
BLACK
6
CONTINUOUS
10
0.8328722440944881
20
1.0045206692913387
11
0.8384400393700787
21
1.010088464566929
0
LINE
8
BLACK
6
CONTINUOUS
10
0.8384400393700787
20
1.010088464566929
11
0.8551433464566929
21
0.993385157480315
0
LINE
8
BLACK
6
CONTINUOUS
10
0.5145933464566929
20
1.0405893700787401
11
0.5177864960629921
21
1.0384557874015747
0
LINE
8
BLACK
6
CONTINUOUS
10
0.5177864960629921
20
1.0384557874015747
11
0.5199200787401574
21
1.0352626377952756
0
LINE
8
BLACK
6
CONTINUOUS
10
0.5199200787401574
20
1.0352626377952756
11
0.5206692913385826
21
1.0314960629921259
0
LINE
8
BLACK
6
CONTINUOUS
10
0.5206692913385826
20
1.0314960629921259
11
0.5206692913385826
21
1.0118110236220472
0
LINE
8
BLACK
6
CONTINUOUS
10
0.5206692913385826
20
1.0118110236220472
11
0.5199200787401574
21
1.0080444488188975
0
LINE
8
BLACK
6
CONTINUOUS
10
0.5199200787401574
20
1.0080444488188975
11
0.5177864960629921
21
1.0048512992125984
0
LINE
8
BLACK
6
CONTINUOUS
10
0.5177864960629921
20
1.0048512992125984
11
0.5145933464566929
21
1.0027177165354331
0
LINE
8
BLACK
6
CONTINUOUS
10
0.5145933464566929
20
1.0027177165354331
11
0.5108267716535433
21
1.0019685039370079
0
LINE
8
BLACK
6
CONTINUOUS
10
0.5108267716535433
20
1.0019685039370079
11
0.4734251968503937
21
1.0019685039370079
0
LINE
8
BLACK
6
CONTINUOUS
10
0.4734251968503937
20
1.0019685039370079
11
0.4696586220472441
21
1.0027177165354331
0
LINE
8
BLACK
6
CONTINUOUS
10
0.4696586220472441
20
1.0027177165354331
11
0.4664654724409449
21
1.0048512992125984
0
LINE
8
BLACK
6
CONTINUOUS
10
0.4664654724409449
20
1.0048512992125984
11
0.4643318897637795
21
1.0080444488188975
0
LINE
8
BLACK
6
CONTINUOUS
10
0.4643318897637795
20
1.0080444488188975
11
0.4635826771653543
21
1.0118110236220472
0
LINE
8
BLACK
6
CONTINUOUS
10
0.4635826771653543
20
1.0118110236220472
11
0.4635826771653543
21
1.0314960629921259
0
LINE
8
BLACK
6
CONTINUOUS
10
0.4635826771653543
20
1.0314960629921259
11
0.4643318897637795
21
1.0352626377952756
0
LINE
8
BLACK
6
CONTINUOUS
10
0.4643318897637795
20
1.0352626377952756
11
0.4664654724409449
21
1.0384557874015747
0
LINE
8
BLACK
6
CONTINUOUS
10
0.4664654724409449
20
1.0384557874015747
11
0.4696586220472441
21
1.0405893700787401
0
LINE
8
BLACK
6
CONTINUOUS
10
0.4696586220472441
20
1.0405893700787401
11
0.4734251968503937
21
1.0413385826771653
0
LINE
8
BLACK
6
CONTINUOUS
10
0.4734251968503937
20
1.0413385826771653
11
0.5108267716535433
21
1.0413385826771653
0
LINE
8
BLACK
6
CONTINUOUS
10
0.5108267716535433
20
1.0413385826771653
11
0.5145933464566929
21
1.0405893700787401
0
LINE
8
BLACK
6
CONTINUOUS
10
0.647175905511811
20
1.1333617322834646
11
0.6484531889763779
21
1.1325083070866142
0
LINE
8
BLACK
6
CONTINUOUS
10
0.6484531889763779
20
1.1325083070866142
11
0.6493066141732283
21
1.1312310236220473
0
LINE
8
BLACK
6
CONTINUOUS
10
0.6493066141732283
20
1.1312310236220473
11
0.6496062992125984
21
1.1297244094488188
0
LINE
8
BLACK
6
CONTINUOUS
10
0.6496062992125984
20
1.1297244094488188
11
0.6496062992125984
21
1.0795275590551181
0
LINE
8
BLACK
6
CONTINUOUS
10
0.6496062992125984
20
1.0795275590551181
11
0.6493066141732283
21
1.0780209448818898
0
LINE
8
BLACK
6
CONTINUOUS
10
0.6493066141732283
20
1.0780209448818898
11
0.6484531889763779
21
1.0767436614173229
0
LINE
8
BLACK
6
CONTINUOUS
10
0.6484531889763779
20
1.0767436614173229
11
0.647175905511811
21
1.0758902362204723
0
LINE
8
BLACK
6
CONTINUOUS
10
0.647175905511811
20
1.0758902362204723
11
0.6456692913385826
21
1.0755905511811024
0
LINE
8
BLACK
6
CONTINUOUS
10
0.6456692913385826
20
1.0755905511811024
11
0.6377952755905512
21
1.0755905511811024
0
LINE
8
BLACK
6
CONTINUOUS
10
0.6377952755905512
20
1.0755905511811024
11
0.6362886614173228
21
1.0758902362204723
0
LINE
8
BLACK
6
CONTINUOUS
10
0.6362886614173228
20
1.0758902362204723
11
0.6350113779527559
21
1.0767436614173229
0
LINE
8
BLACK
6
CONTINUOUS
10
0.6350113779527559
20
1.0767436614173229
11
0.6341579527559055
21
1.0780209448818898
0
LINE
8
BLACK
6
CONTINUOUS
10
0.6341579527559055
20
1.0780209448818898
11
0.6338582677165354
21
1.0795275590551181
0
LINE
8
BLACK
6
CONTINUOUS
10
0.6338582677165354
20
1.0795275590551181
11
0.6338582677165354
21
1.1297244094488188
0
LINE
8
BLACK
6
CONTINUOUS
10
0.6338582677165354
20
1.1297244094488188
11
0.6341579527559055
21
1.1312310236220473
0
LINE
8
BLACK
6
CONTINUOUS
10
0.6341579527559055
20
1.1312310236220473
11
0.6350113779527559
21
1.1325083070866142
0
LINE
8
BLACK
6
CONTINUOUS
10
0.6350113779527559
20
1.1325083070866142
11
0.6362886614173228
21
1.1333617322834646
0
LINE
8
BLACK
6
CONTINUOUS
10
0.6362886614173228
20
1.1333617322834646
11
0.6377952755905512
21
1.1336614173228345
0
LINE
8
BLACK
6
CONTINUOUS
10
0.6377952755905512
20
1.1336614173228345
11
0.6456692913385826
21
1.1336614173228345
0
LINE
8
BLACK
6
CONTINUOUS
10
0.6456692913385826
20
1.1336614173228345
11
0.647175905511811
21
1.1333617322834646
0
LINE
8
BLACK
6
CONTINUOUS
10
0.6727664566929134
20
1.1333617322834646
11
0.6740437401574803
21
1.1325083070866142
0
LINE
8
BLACK
6
CONTINUOUS
10
0.6740437401574803
20
1.1325083070866142
11
0.6748971653543306
21
1.1312310236220473
0
LINE
8
BLACK
6
CONTINUOUS
10
0.6748971653543306
20
1.1312310236220473
11
0.6751968503937008
21
1.1297244094488188
0
LINE
8
BLACK
6
CONTINUOUS
10
0.6751968503937008
20
1.1297244094488188
11
0.6751968503937008
21
1.0795275590551181
0
LINE
8
BLACK
6
CONTINUOUS
10
0.6751968503937008
20
1.0795275590551181
11
0.6748971653543306
21
1.0780209448818898
0
LINE
8
BLACK
6
CONTINUOUS
10
0.6748971653543306
20
1.0780209448818898
11
0.6740437401574803
21
1.0767436614173229
0
LINE
8
BLACK
6
CONTINUOUS
10
0.6740437401574803
20
1.0767436614173229
11
0.6727664566929134
21
1.0758902362204723
0
LINE
8
BLACK
6
CONTINUOUS
10
0.6727664566929134
20
1.0758902362204723
11
0.6712598425196851
21
1.0755905511811024
0
LINE
8
BLACK
6
CONTINUOUS
10
0.6712598425196851
20
1.0755905511811024
11
0.6633858267716535
21
1.0755905511811024
0
LINE
8
BLACK
6
CONTINUOUS
10
0.6633858267716535
20
1.0755905511811024
11
0.6618792125984252
21
1.0758902362204723
0
LINE
8
BLACK
6
CONTINUOUS
10
0.6618792125984252
20
1.0758902362204723
11
0.6606019291338583
21
1.0767436614173229
0
LINE
8
BLACK
6
CONTINUOUS
10
0.6606019291338583
20
1.0767436614173229
11
0.6597485039370079
21
1.0780209448818898
0
LINE
8
BLACK
6
CONTINUOUS
10
0.6597485039370079
20
1.0780209448818898
11
0.6594488188976377
21
1.0795275590551181
0
LINE
8
BLACK
6
CONTINUOUS
10
0.6594488188976377
20
1.0795275590551181
11
0.6594488188976377
21
1.1297244094488188
0
LINE
8
BLACK
6
CONTINUOUS
10
0.6594488188976377
20
1.1297244094488188
11
0.6597485039370079
21
1.1312310236220473
0
LINE
8
BLACK
6
CONTINUOUS
10
0.6597485039370079
20
1.1312310236220473
11
0.6606019291338583
21
1.1325083070866142
0
LINE
8
BLACK
6
CONTINUOUS
10
0.6606019291338583
20
1.1325083070866142
11
0.6618792125984252
21
1.1333617322834646
0
LINE
8
BLACK
6
CONTINUOUS
10
0.6618792125984252
20
1.1333617322834646
11
0.6633858267716535
21
1.1336614173228345
0
LINE
8
BLACK
6
CONTINUOUS
10
0.6633858267716535
20
1.1336614173228345
11
0.6712598425196851
21
1.1336614173228345
0
LINE
8
BLACK
6
CONTINUOUS
10
0.6712598425196851
20
1.1336614173228345
11
0.6727664566929134
21
1.1333617322834646
0
LINE
8
BLACK
6
CONTINUOUS
10
0.6983570078740158
20
1.1333617322834646
11
0.6996342913385827
21
1.1325083070866142
0
LINE
8
BLACK
6
CONTINUOUS
10
0.6996342913385827
20
1.1325083070866142
11
0.7004877165354331
21
1.1312310236220473
0
LINE
8
BLACK
6
CONTINUOUS
10
0.7004877165354331
20
1.1312310236220473
11
0.7007874015748031
21
1.1297244094488188
0
LINE
8
BLACK
6
CONTINUOUS
10
0.7007874015748031
20
1.1297244094488188
11
0.7007874015748031
21
1.0795275590551181
0
LINE
8
BLACK
6
CONTINUOUS
10
0.7007874015748031
20
1.0795275590551181
11
0.7004877165354331
21
1.0780209448818898
0
LINE
8
BLACK
6
CONTINUOUS
10
0.7004877165354331
20
1.0780209448818898
11
0.6996342913385827
21
1.0767436614173229
0
LINE
8
BLACK
6
CONTINUOUS
10
0.6996342913385827
20
1.0767436614173229
11
0.6983570078740158
21
1.0758902362204723
0
LINE
8
BLACK
6
CONTINUOUS
10
0.6983570078740158
20
1.0758902362204723
11
0.6968503937007874
21
1.0755905511811024
0
LINE
8
BLACK
6
CONTINUOUS
10
0.6968503937007874
20
1.0755905511811024
11
0.6889763779527559
21
1.0755905511811024
0
LINE
8
BLACK
6
CONTINUOUS
10
0.6889763779527559
20
1.0755905511811024
11
0.6874697637795275
21
1.0758902362204723
0
LINE
8
BLACK
6
CONTINUOUS
10
0.6874697637795275
20
1.0758902362204723
11
0.6861924803149606
21
1.0767436614173229
0
LINE
8
BLACK
6
CONTINUOUS
10
0.6861924803149606
20
1.0767436614173229
11
0.6853390551181102
21
1.0780209448818898
0
LINE
8
BLACK
6
CONTINUOUS
10
0.6853390551181102
20
1.0780209448818898
11
0.6850393700787402
21
1.0795275590551181
0
LINE
8
BLACK
6
CONTINUOUS
10
0.6850393700787402
20
1.0795275590551181
11
0.6850393700787402
21
1.1297244094488188
0
LINE
8
BLACK
6
CONTINUOUS
10
0.6850393700787402
20
1.1297244094488188
11
0.6853390551181102
21
1.1312310236220473
0
LINE
8
BLACK
6
CONTINUOUS
10
0.6853390551181102
20
1.1312310236220473
11
0.6861924803149606
21
1.1325083070866142
0
LINE
8
BLACK
6
CONTINUOUS
10
0.6861924803149606
20
1.1325083070866142
11
0.6874697637795275
21
1.1333617322834646
0
LINE
8
BLACK
6
CONTINUOUS
10
0.6874697637795275
20
1.1333617322834646
11
0.6889763779527559
21
1.1336614173228345
0
LINE
8
BLACK
6
CONTINUOUS
10
0.6889763779527559
20
1.1336614173228345
11
0.6968503937007874
21
1.1336614173228345
0
LINE
8
BLACK
6
CONTINUOUS
10
0.6968503937007874
20
1.1336614173228345
11
0.6983570078740158
21
1.1333617322834646
0
LINE
8
BLACK
6
CONTINUOUS
10
0.7239475590551181
20
1.1333617322834646
11
0.725224842519685
21
1.1325083070866142
0
LINE
8
BLACK
6
CONTINUOUS
10
0.725224842519685
20
1.1325083070866142
11
0.7260782677165354
21
1.1312310236220473
0
LINE
8
BLACK
6
CONTINUOUS
10
0.7260782677165354
20
1.1312310236220473
11
0.7263779527559054
21
1.1297244094488188
0
LINE
8
BLACK
6
CONTINUOUS
10
0.7263779527559054
20
1.1297244094488188
11
0.7263779527559054
21
1.0795275590551181
0
LINE
8
BLACK
6
CONTINUOUS
10
0.7263779527559054
20
1.0795275590551181
11
0.7260782677165354
21
1.0780209448818898
0
LINE
8
BLACK
6
CONTINUOUS
10
0.7260782677165354
20
1.0780209448818898
11
0.725224842519685
21
1.0767436614173229
0
LINE
8
BLACK
6
CONTINUOUS
10
0.725224842519685
20
1.0767436614173229
11
0.7239475590551181
21
1.0758902362204723
0
LINE
8
BLACK
6
CONTINUOUS
10
0.7239475590551181
20
1.0758902362204723
11
0.7224409448818897
21
1.0755905511811024
0
LINE
8
BLACK
6
CONTINUOUS
10
0.7224409448818897
20
1.0755905511811024
11
0.7145669291338582
21
1.0755905511811024
0
LINE
8
BLACK
6
CONTINUOUS
10
0.7145669291338582
20
1.0755905511811024
11
0.7130603149606299
21
1.0758902362204723
0
LINE
8
BLACK
6
CONTINUOUS
10
0.7130603149606299
20
1.0758902362204723
11
0.7117830314960629
21
1.0767436614173229
0
LINE
8
BLACK
6
CONTINUOUS
10
0.7117830314960629
20
1.0767436614173229
11
0.7109296062992125
21
1.0780209448818898
0
LINE
8
BLACK
6
CONTINUOUS
10
0.7109296062992125
20
1.0780209448818898
11
0.7106299212598425
21
1.0795275590551181
0
LINE
8
BLACK
6
CONTINUOUS
10
0.7106299212598425
20
1.0795275590551181
11
0.7106299212598425
21
1.1297244094488188
0
LINE
8
BLACK
6
CONTINUOUS
10
0.7106299212598425
20
1.1297244094488188
11
0.7109296062992125
21
1.1312310236220473
0
LINE
8
BLACK
6
CONTINUOUS
10
0.7109296062992125
20
1.1312310236220473
11
0.7117830314960629
21
1.1325083070866142
0
LINE
8
BLACK
6
CONTINUOUS
10
0.7117830314960629
20
1.1325083070866142
11
0.7130603149606299
21
1.1333617322834646
0
LINE
8
BLACK
6
CONTINUOUS
10
0.7130603149606299
20
1.1333617322834646
11
0.7145669291338582
21
1.1336614173228345
0
LINE
8
BLACK
6
CONTINUOUS
10
0.7145669291338582
20
1.1336614173228345
11
0.7224409448818897
21
1.1336614173228345
0
LINE
8
BLACK
6
CONTINUOUS
10
0.7224409448818897
20
1.1336614173228345
11
0.7239475590551181
21
1.1333617322834646
0
LINE
8
BLACK
6
CONTINUOUS
10
0.7495381102362204
20
1.1333617322834646
11
0.7508153937007874
21
1.1325083070866142
0
LINE
8
BLACK
6
CONTINUOUS
10
0.7508153937007874
20
1.1325083070866142
11
0.7516688188976378
21
1.1312310236220473
0
LINE
8
BLACK
6
CONTINUOUS
10
0.7516688188976378
20
1.1312310236220473
11
0.7519685039370079
21
1.1297244094488188
0
LINE
8
BLACK
6
CONTINUOUS
10
0.7519685039370079
20
1.1297244094488188
11
0.7519685039370079
21
1.0795275590551181
0
LINE
8
BLACK
6
CONTINUOUS
10
0.7519685039370079
20
1.0795275590551181
11
0.7516688188976378
21
1.0780209448818898
0
LINE
8
BLACK
6
CONTINUOUS
10
0.7516688188976378
20
1.0780209448818898
11
0.7508153937007874
21
1.0767436614173229
0
LINE
8
BLACK
6
CONTINUOUS
10
0.7508153937007874
20
1.0767436614173229
11
0.7495381102362204
21
1.0758902362204723
0
LINE
8
BLACK
6
CONTINUOUS
10
0.7495381102362204
20
1.0758902362204723
11
0.7480314960629921
21
1.0755905511811024
0
LINE
8
BLACK
6
CONTINUOUS
10
0.7480314960629921
20
1.0755905511811024
11
0.7401574803149606
21
1.0755905511811024
0
LINE
8
BLACK
6
CONTINUOUS
10
0.7401574803149606
20
1.0755905511811024
11
0.7386508661417323
21
1.0758902362204723
0
LINE
8
BLACK
6
CONTINUOUS
10
0.7386508661417323
20
1.0758902362204723
11
0.7373735826771654
21
1.0767436614173229
0
LINE
8
BLACK
6
CONTINUOUS
10
0.7373735826771654
20
1.0767436614173229
11
0.736520157480315
21
1.0780209448818898
0
LINE
8
BLACK
6
CONTINUOUS
10
0.736520157480315
20
1.0780209448818898
11
0.7362204724409449
21
1.0795275590551181
0
LINE
8
BLACK
6
CONTINUOUS
10
0.7362204724409449
20
1.0795275590551181
11
0.7362204724409449
21
1.1297244094488188
0
LINE
8
BLACK
6
CONTINUOUS
10
0.7362204724409449
20
1.1297244094488188
11
0.736520157480315
21
1.1312310236220473
0
LINE
8
BLACK
6
CONTINUOUS
10
0.736520157480315
20
1.1312310236220473
11
0.7373735826771654
21
1.1325083070866142
0
LINE
8
BLACK
6
CONTINUOUS
10
0.7373735826771654
20
1.1325083070866142
11
0.7386508661417323
21
1.1333617322834646
0
LINE
8
BLACK
6
CONTINUOUS
10
0.7386508661417323
20
1.1333617322834646
11
0.7401574803149606
21
1.1336614173228345
0
LINE
8
BLACK
6
CONTINUOUS
10
0.7401574803149606
20
1.1336614173228345
11
0.7480314960629921
21
1.1336614173228345
0
LINE
8
BLACK
6
CONTINUOUS
10
0.7480314960629921
20
1.1336614173228345
11
0.7495381102362204
21
1.1333617322834646
0
LINE
8
BLACK
6
CONTINUOUS
10
0.7751286614173228
20
1.1333617322834646
11
0.7764059448818897
21
1.1325083070866142
0
LINE
8
BLACK
6
CONTINUOUS
10
0.7764059448818897
20
1.1325083070866142
11
0.7772593700787401
21
1.1312310236220473
0
LINE
8
BLACK
6
CONTINUOUS
10
0.7772593700787401
20
1.1312310236220473
11
0.7775590551181102
21
1.1297244094488188
0
LINE
8
BLACK
6
CONTINUOUS
10
0.7775590551181102
20
1.1297244094488188
11
0.7775590551181102
21
1.0795275590551181
0
LINE
8
BLACK
6
CONTINUOUS
10
0.7775590551181102
20
1.0795275590551181
11
0.7772593700787401
21
1.0780209448818898
0
LINE
8
BLACK
6
CONTINUOUS
10
0.7772593700787401
20
1.0780209448818898
11
0.7764059448818897
21
1.0767436614173229
0
LINE
8
BLACK
6
CONTINUOUS
10
0.7764059448818897
20
1.0767436614173229
11
0.7751286614173228
21
1.0758902362204723
0
LINE
8
BLACK
6
CONTINUOUS
10
0.7751286614173228
20
1.0758902362204723
11
0.7736220472440944
21
1.0755905511811024
0
LINE
8
BLACK
6
CONTINUOUS
10
0.7736220472440944
20
1.0755905511811024
11
0.765748031496063
21
1.0755905511811024
0
LINE
8
BLACK
6
CONTINUOUS
10
0.765748031496063
20
1.0755905511811024
11
0.7642414173228347
21
1.0758902362204723
0
LINE
8
BLACK
6
CONTINUOUS
10
0.7642414173228347
20
1.0758902362204723
11
0.7629641338582677
21
1.0767436614173229
0
LINE
8
BLACK
6
CONTINUOUS
10
0.7629641338582677
20
1.0767436614173229
11
0.7621107086614173
21
1.0780209448818898
0
LINE
8
BLACK
6
CONTINUOUS
10
0.7621107086614173
20
1.0780209448818898
11
0.7618110236220472
21
1.0795275590551181
0
LINE
8
BLACK
6
CONTINUOUS
10
0.7618110236220472
20
1.0795275590551181
11
0.7618110236220472
21
1.1297244094488188
0
LINE
8
BLACK
6
CONTINUOUS
10
0.7618110236220472
20
1.1297244094488188
11
0.7621107086614173
21
1.1312310236220473
0
LINE
8
BLACK
6
CONTINUOUS
10
0.7621107086614173
20
1.1312310236220473
11
0.7629641338582677
21
1.1325083070866142
0
LINE
8
BLACK
6
CONTINUOUS
10
0.7629641338582677
20
1.1325083070866142
11
0.7642414173228347
21
1.1333617322834646
0
LINE
8
BLACK
6
CONTINUOUS
10
0.7642414173228347
20
1.1333617322834646
11
0.765748031496063
21
1.1336614173228345
0
LINE
8
BLACK
6
CONTINUOUS
10
0.765748031496063
20
1.1336614173228345
11
0.7736220472440944
21
1.1336614173228345
0
LINE
8
BLACK
6
CONTINUOUS
10
0.7736220472440944
20
1.1336614173228345
11
0.7751286614173228
21
1.1333617322834646
0
LINE
8
BLACK
6
CONTINUOUS
10
0.8007192125984252
20
1.1333617322834646
11
0.8019964960629921
21
1.1325083070866142
0
LINE
8
BLACK
6
CONTINUOUS
10
0.8019964960629921
20
1.1325083070866142
11
0.8028499212598424
21
1.1312310236220473
0
LINE
8
BLACK
6
CONTINUOUS
10
0.8028499212598424
20
1.1312310236220473
11
0.8031496062992126
21
1.1297244094488188
0
LINE
8
BLACK
6
CONTINUOUS
10
0.8031496062992126
20
1.1297244094488188
11
0.8031496062992126
21
1.0795275590551181
0
LINE
8
BLACK
6
CONTINUOUS
10
0.8031496062992126
20
1.0795275590551181
11
0.8028499212598424
21
1.0780209448818898
0
LINE
8
BLACK
6
CONTINUOUS
10
0.8028499212598424
20
1.0780209448818898
11
0.8019964960629921
21
1.0767436614173229
0
LINE
8
BLACK
6
CONTINUOUS
10
0.8019964960629921
20
1.0767436614173229
11
0.8007192125984252
21
1.0758902362204723
0
LINE
8
BLACK
6
CONTINUOUS
10
0.8007192125984252
20
1.0758902362204723
11
0.7992125984251969
21
1.0755905511811024
0
LINE
8
BLACK
6
CONTINUOUS
10
0.7992125984251969
20
1.0755905511811024
11
0.7913385826771653
21
1.0755905511811024
0
LINE
8
BLACK
6
CONTINUOUS
10
0.7913385826771653
20
1.0755905511811024
11
0.789831968503937
21
1.0758902362204723
0
LINE
8
BLACK
6
CONTINUOUS
10
0.789831968503937
20
1.0758902362204723
11
0.7885546850393701
21
1.0767436614173229
0
LINE
8
BLACK
6
CONTINUOUS
10
0.7885546850393701
20
1.0767436614173229
11
0.7877012598425197
21
1.0780209448818898
0
LINE
8
BLACK
6
CONTINUOUS
10
0.7877012598425197
20
1.0780209448818898
11
0.7874015748031495
21
1.0795275590551181
0
LINE
8
BLACK
6
CONTINUOUS
10
0.7874015748031495
20
1.0795275590551181
11
0.7874015748031495
21
1.1297244094488188
0
LINE
8
BLACK
6
CONTINUOUS
10
0.7874015748031495
20
1.1297244094488188
11
0.7877012598425197
21
1.1312310236220473
0
LINE
8
BLACK
6
CONTINUOUS
10
0.7877012598425197
20
1.1312310236220473
11
0.7885546850393701
21
1.1325083070866142
0
LINE
8
BLACK
6
CONTINUOUS
10
0.7885546850393701
20
1.1325083070866142
11
0.789831968503937
21
1.1333617322834646
0
LINE
8
BLACK
6
CONTINUOUS
10
0.789831968503937
20
1.1333617322834646
11
0.7913385826771653
21
1.1336614173228345
0
LINE
8
BLACK
6
CONTINUOUS
10
0.7913385826771653
20
1.1336614173228345
11
0.7992125984251969
21
1.1336614173228345
0
LINE
8
BLACK
6
CONTINUOUS
10
0.7992125984251969
20
1.1336614173228345
11
0.8007192125984252
21
1.1333617322834646
0
LINE
8
BLACK
6
CONTINUOUS
10
0.647175905511811
20
1.3587554330708662
11
0.6484531889763779
21
1.3579020078740158
0
LINE
8
BLACK
6
CONTINUOUS
10
0.6484531889763779
20
1.3579020078740158
11
0.6493066141732283
21
1.3566247244094487
0
LINE
8
BLACK
6
CONTINUOUS
10
0.6493066141732283
20
1.3566247244094487
11
0.6496062992125984
21
1.3551181102362204
0
LINE
8
BLACK
6
CONTINUOUS
10
0.6496062992125984
20
1.3551181102362204
11
0.6496062992125984
21
1.3049212598425197
0
LINE
8
BLACK
6
CONTINUOUS
10
0.6496062992125984
20
1.3049212598425197
11
0.6493066141732283
21
1.3034146456692912
0
LINE
8
BLACK
6
CONTINUOUS
10
0.6493066141732283
20
1.3034146456692912
11
0.6484531889763779
21
1.3021373622047243
0
LINE
8
BLACK
6
CONTINUOUS
10
0.6484531889763779
20
1.3021373622047243
11
0.647175905511811
21
1.3012839370078739
0
LINE
8
BLACK
6
CONTINUOUS
10
0.647175905511811
20
1.3012839370078739
11
0.6456692913385826
21
1.300984251968504
0
LINE
8
BLACK
6
CONTINUOUS
10
0.6456692913385826
20
1.300984251968504
11
0.6377952755905512
21
1.300984251968504
0
LINE
8
BLACK
6
CONTINUOUS
10
0.6377952755905512
20
1.300984251968504
11
0.6362886614173228
21
1.3012839370078739
0
LINE
8
BLACK
6
CONTINUOUS
10
0.6362886614173228
20
1.3012839370078739
11
0.6350113779527559
21
1.3021373622047243
0
LINE
8
BLACK
6
CONTINUOUS
10
0.6350113779527559
20
1.3021373622047243
11
0.6341579527559055
21
1.3034146456692912
0
LINE
8
BLACK
6
CONTINUOUS
10
0.6341579527559055
20
1.3034146456692912
11
0.6338582677165354
21
1.3049212598425197
0
LINE
8
BLACK
6
CONTINUOUS
10
0.6338582677165354
20
1.3049212598425197
11
0.6338582677165354
21
1.3551181102362204
0
LINE
8
BLACK
6
CONTINUOUS
10
0.6338582677165354
20
1.3551181102362204
11
0.6341579527559055
21
1.3566247244094487
0
LINE
8
BLACK
6
CONTINUOUS
10
0.6341579527559055
20
1.3566247244094487
11
0.6350113779527559
21
1.3579020078740158
0
LINE
8
BLACK
6
CONTINUOUS
10
0.6350113779527559
20
1.3579020078740158
11
0.6362886614173228
21
1.3587554330708662
0
LINE
8
BLACK
6
CONTINUOUS
10
0.6362886614173228
20
1.3587554330708662
11
0.6377952755905512
21
1.3590551181102362
0
LINE
8
BLACK
6
CONTINUOUS
10
0.6377952755905512
20
1.3590551181102362
11
0.6456692913385826
21
1.3590551181102362
0
LINE
8
BLACK
6
CONTINUOUS
10
0.6456692913385826
20
1.3590551181102362
11
0.647175905511811
21
1.3587554330708662
0
LINE
8
BLACK
6
CONTINUOUS
10
0.6727664566929134
20
1.3587554330708662
11
0.6740437401574803
21
1.3579020078740158
0
LINE
8
BLACK
6
CONTINUOUS
10
0.6740437401574803
20
1.3579020078740158
11
0.6748971653543306
21
1.3566247244094487
0
LINE
8
BLACK
6
CONTINUOUS
10
0.6748971653543306
20
1.3566247244094487
11
0.6751968503937008
21
1.3551181102362204
0
LINE
8
BLACK
6
CONTINUOUS
10
0.6751968503937008
20
1.3551181102362204
11
0.6751968503937008
21
1.3049212598425197
0
LINE
8
BLACK
6
CONTINUOUS
10
0.6751968503937008
20
1.3049212598425197
11
0.6748971653543306
21
1.3034146456692912
0
LINE
8
BLACK
6
CONTINUOUS
10
0.6748971653543306
20
1.3034146456692912
11
0.6740437401574803
21
1.3021373622047243
0
LINE
8
BLACK
6
CONTINUOUS
10
0.6740437401574803
20
1.3021373622047243
11
0.6727664566929134
21
1.3012839370078739
0
LINE
8
BLACK
6
CONTINUOUS
10
0.6727664566929134
20
1.3012839370078739
11
0.6712598425196851
21
1.300984251968504
0
LINE
8
BLACK
6
CONTINUOUS
10
0.6712598425196851
20
1.300984251968504
11
0.6633858267716535
21
1.300984251968504
0
LINE
8
BLACK
6
CONTINUOUS
10
0.6633858267716535
20
1.300984251968504
11
0.6618792125984252
21
1.3012839370078739
0
LINE
8
BLACK
6
CONTINUOUS
10
0.6618792125984252
20
1.3012839370078739
11
0.6606019291338583
21
1.3021373622047243
0
LINE
8
BLACK
6
CONTINUOUS
10
0.6606019291338583
20
1.3021373622047243
11
0.6597485039370079
21
1.3034146456692912
0
LINE
8
BLACK
6
CONTINUOUS
10
0.6597485039370079
20
1.3034146456692912
11
0.6594488188976377
21
1.3049212598425197
0
LINE
8
BLACK
6
CONTINUOUS
10
0.6594488188976377
20
1.3049212598425197
11
0.6594488188976377
21
1.3551181102362204
0
LINE
8
BLACK
6
CONTINUOUS
10
0.6594488188976377
20
1.3551181102362204
11
0.6597485039370079
21
1.3566247244094487
0
LINE
8
BLACK
6
CONTINUOUS
10
0.6597485039370079
20
1.3566247244094487
11
0.6606019291338583
21
1.3579020078740158
0
LINE
8
BLACK
6
CONTINUOUS
10
0.6606019291338583
20
1.3579020078740158
11
0.6618792125984252
21
1.3587554330708662
0
LINE
8
BLACK
6
CONTINUOUS
10
0.6618792125984252
20
1.3587554330708662
11
0.6633858267716535
21
1.3590551181102362
0
LINE
8
BLACK
6
CONTINUOUS
10
0.6633858267716535
20
1.3590551181102362
11
0.6712598425196851
21
1.3590551181102362
0
LINE
8
BLACK
6
CONTINUOUS
10
0.6712598425196851
20
1.3590551181102362
11
0.6727664566929134
21
1.3587554330708662
0
LINE
8
BLACK
6
CONTINUOUS
10
0.6983570078740158
20
1.3587554330708662
11
0.6996342913385827
21
1.3579020078740158
0
LINE
8
BLACK
6
CONTINUOUS
10
0.6996342913385827
20
1.3579020078740158
11
0.7004877165354331
21
1.3566247244094487
0
LINE
8
BLACK
6
CONTINUOUS
10
0.7004877165354331
20
1.3566247244094487
11
0.7007874015748031
21
1.3551181102362204
0
LINE
8
BLACK
6
CONTINUOUS
10
0.7007874015748031
20
1.3551181102362204
11
0.7007874015748031
21
1.3049212598425197
0
LINE
8
BLACK
6
CONTINUOUS
10
0.7007874015748031
20
1.3049212598425197
11
0.7004877165354331
21
1.3034146456692912
0
LINE
8
BLACK
6
CONTINUOUS
10
0.7004877165354331
20
1.3034146456692912
11
0.6996342913385827
21
1.3021373622047243
0
LINE
8
BLACK
6
CONTINUOUS
10
0.6996342913385827
20
1.3021373622047243
11
0.6983570078740158
21
1.3012839370078739
0
LINE
8
BLACK
6
CONTINUOUS
10
0.6983570078740158
20
1.3012839370078739
11
0.6968503937007874
21
1.300984251968504
0
LINE
8
BLACK
6
CONTINUOUS
10
0.6968503937007874
20
1.300984251968504
11
0.6889763779527559
21
1.300984251968504
0
LINE
8
BLACK
6
CONTINUOUS
10
0.6889763779527559
20
1.300984251968504
11
0.6874697637795275
21
1.3012839370078739
0
LINE
8
BLACK
6
CONTINUOUS
10
0.6874697637795275
20
1.3012839370078739
11
0.6861924803149606
21
1.3021373622047243
0
LINE
8
BLACK
6
CONTINUOUS
10
0.6861924803149606
20
1.3021373622047243
11
0.6853390551181102
21
1.3034146456692912
0
LINE
8
BLACK
6
CONTINUOUS
10
0.6853390551181102
20
1.3034146456692912
11
0.6850393700787402
21
1.3049212598425197
0
LINE
8
BLACK
6
CONTINUOUS
10
0.6850393700787402
20
1.3049212598425197
11
0.6850393700787402
21
1.3551181102362204
0
LINE
8
BLACK
6
CONTINUOUS
10
0.6850393700787402
20
1.3551181102362204
11
0.6853390551181102
21
1.3566247244094487
0
LINE
8
BLACK
6
CONTINUOUS
10
0.6853390551181102
20
1.3566247244094487
11
0.6861924803149606
21
1.3579020078740158
0
LINE
8
BLACK
6
CONTINUOUS
10
0.6861924803149606
20
1.3579020078740158
11
0.6874697637795275
21
1.3587554330708662
0
LINE
8
BLACK
6
CONTINUOUS
10
0.6874697637795275
20
1.3587554330708662
11
0.6889763779527559
21
1.3590551181102362
0
LINE
8
BLACK
6
CONTINUOUS
10
0.6889763779527559
20
1.3590551181102362
11
0.6968503937007874
21
1.3590551181102362
0
LINE
8
BLACK
6
CONTINUOUS
10
0.6968503937007874
20
1.3590551181102362
11
0.6983570078740158
21
1.3587554330708662
0
LINE
8
BLACK
6
CONTINUOUS
10
0.7239475590551181
20
1.3587554330708662
11
0.725224842519685
21
1.3579020078740158
0
LINE
8
BLACK
6
CONTINUOUS
10
0.725224842519685
20
1.3579020078740158
11
0.7260782677165354
21
1.3566247244094487
0
LINE
8
BLACK
6
CONTINUOUS
10
0.7260782677165354
20
1.3566247244094487
11
0.7263779527559054
21
1.3551181102362204
0
LINE
8
BLACK
6
CONTINUOUS
10
0.7263779527559054
20
1.3551181102362204
11
0.7263779527559054
21
1.3049212598425197
0
LINE
8
BLACK
6
CONTINUOUS
10
0.7263779527559054
20
1.3049212598425197
11
0.7260782677165354
21
1.3034146456692912
0
LINE
8
BLACK
6
CONTINUOUS
10
0.7260782677165354
20
1.3034146456692912
11
0.725224842519685
21
1.3021373622047243
0
LINE
8
BLACK
6
CONTINUOUS
10
0.725224842519685
20
1.3021373622047243
11
0.7239475590551181
21
1.3012839370078739
0
LINE
8
BLACK
6
CONTINUOUS
10
0.7239475590551181
20
1.3012839370078739
11
0.7224409448818897
21
1.300984251968504
0
LINE
8
BLACK
6
CONTINUOUS
10
0.7224409448818897
20
1.300984251968504
11
0.7145669291338582
21
1.300984251968504
0
LINE
8
BLACK
6
CONTINUOUS
10
0.7145669291338582
20
1.300984251968504
11
0.7130603149606299
21
1.3012839370078739
0
LINE
8
BLACK
6
CONTINUOUS
10
0.7130603149606299
20
1.3012839370078739
11
0.7117830314960629
21
1.3021373622047243
0
LINE
8
BLACK
6
CONTINUOUS
10
0.7117830314960629
20
1.3021373622047243
11
0.7109296062992125
21
1.3034146456692912
0
LINE
8
BLACK
6
CONTINUOUS
10
0.7109296062992125
20
1.3034146456692912
11
0.7106299212598425
21
1.3049212598425197
0
LINE
8
BLACK
6
CONTINUOUS
10
0.7106299212598425
20
1.3049212598425197
11
0.7106299212598425
21
1.3551181102362204
0
LINE
8
BLACK
6
CONTINUOUS
10
0.7106299212598425
20
1.3551181102362204
11
0.7109296062992125
21
1.3566247244094487
0
LINE
8
BLACK
6
CONTINUOUS
10
0.7109296062992125
20
1.3566247244094487
11
0.7117830314960629
21
1.3579020078740158
0
LINE
8
BLACK
6
CONTINUOUS
10
0.7117830314960629
20
1.3579020078740158
11
0.7130603149606299
21
1.3587554330708662
0
LINE
8
BLACK
6
CONTINUOUS
10
0.7130603149606299
20
1.3587554330708662
11
0.7145669291338582
21
1.3590551181102362
0
LINE
8
BLACK
6
CONTINUOUS
10
0.7145669291338582
20
1.3590551181102362
11
0.7224409448818897
21
1.3590551181102362
0
LINE
8
BLACK
6
CONTINUOUS
10
0.7224409448818897
20
1.3590551181102362
11
0.7239475590551181
21
1.3587554330708662
0
LINE
8
BLACK
6
CONTINUOUS
10
0.7495381102362204
20
1.3587554330708662
11
0.7508153937007874
21
1.3579020078740158
0
LINE
8
BLACK
6
CONTINUOUS
10
0.7508153937007874
20
1.3579020078740158
11
0.7516688188976378
21
1.3566247244094487
0
LINE
8
BLACK
6
CONTINUOUS
10
0.7516688188976378
20
1.3566247244094487
11
0.7519685039370079
21
1.3551181102362204
0
LINE
8
BLACK
6
CONTINUOUS
10
0.7519685039370079
20
1.3551181102362204
11
0.7519685039370079
21
1.3049212598425197
0
LINE
8
BLACK
6
CONTINUOUS
10
0.7519685039370079
20
1.3049212598425197
11
0.7516688188976378
21
1.3034146456692912
0
LINE
8
BLACK
6
CONTINUOUS
10
0.7516688188976378
20
1.3034146456692912
11
0.7508153937007874
21
1.3021373622047243
0
LINE
8
BLACK
6
CONTINUOUS
10
0.7508153937007874
20
1.3021373622047243
11
0.7495381102362204
21
1.3012839370078739
0
LINE
8
BLACK
6
CONTINUOUS
10
0.7495381102362204
20
1.3012839370078739
11
0.7480314960629921
21
1.300984251968504
0
LINE
8
BLACK
6
CONTINUOUS
10
0.7480314960629921
20
1.300984251968504
11
0.7401574803149606
21
1.300984251968504
0
LINE
8
BLACK
6
CONTINUOUS
10
0.7401574803149606
20
1.300984251968504
11
0.7386508661417323
21
1.3012839370078739
0
LINE
8
BLACK
6
CONTINUOUS
10
0.7386508661417323
20
1.3012839370078739
11
0.7373735826771654
21
1.3021373622047243
0
LINE
8
BLACK
6
CONTINUOUS
10
0.7373735826771654
20
1.3021373622047243
11
0.736520157480315
21
1.3034146456692912
0
LINE
8
BLACK
6
CONTINUOUS
10
0.736520157480315
20
1.3034146456692912
11
0.7362204724409449
21
1.3049212598425197
0
LINE
8
BLACK
6
CONTINUOUS
10
0.7362204724409449
20
1.3049212598425197
11
0.7362204724409449
21
1.3551181102362204
0
LINE
8
BLACK
6
CONTINUOUS
10
0.7362204724409449
20
1.3551181102362204
11
0.736520157480315
21
1.3566247244094487
0
LINE
8
BLACK
6
CONTINUOUS
10
0.736520157480315
20
1.3566247244094487
11
0.7373735826771654
21
1.3579020078740158
0
LINE
8
BLACK
6
CONTINUOUS
10
0.7373735826771654
20
1.3579020078740158
11
0.7386508661417323
21
1.3587554330708662
0
LINE
8
BLACK
6
CONTINUOUS
10
0.7386508661417323
20
1.3587554330708662
11
0.7401574803149606
21
1.3590551181102362
0
LINE
8
BLACK
6
CONTINUOUS
10
0.7401574803149606
20
1.3590551181102362
11
0.7480314960629921
21
1.3590551181102362
0
LINE
8
BLACK
6
CONTINUOUS
10
0.7480314960629921
20
1.3590551181102362
11
0.7495381102362204
21
1.3587554330708662
0
LINE
8
BLACK
6
CONTINUOUS
10
0.7751286614173228
20
1.3587554330708662
11
0.7764059448818897
21
1.3579020078740158
0
LINE
8
BLACK
6
CONTINUOUS
10
0.7764059448818897
20
1.3579020078740158
11
0.7772593700787401
21
1.3566247244094487
0
LINE
8
BLACK
6
CONTINUOUS
10
0.7772593700787401
20
1.3566247244094487
11
0.7775590551181102
21
1.3551181102362204
0
LINE
8
BLACK
6
CONTINUOUS
10
0.7775590551181102
20
1.3551181102362204
11
0.7775590551181102
21
1.3049212598425197
0
LINE
8
BLACK
6
CONTINUOUS
10
0.7775590551181102
20
1.3049212598425197
11
0.7772593700787401
21
1.3034146456692912
0
LINE
8
BLACK
6
CONTINUOUS
10
0.7772593700787401
20
1.3034146456692912
11
0.7764059448818897
21
1.3021373622047243
0
LINE
8
BLACK
6
CONTINUOUS
10
0.7764059448818897
20
1.3021373622047243
11
0.7751286614173228
21
1.3012839370078739
0
LINE
8
BLACK
6
CONTINUOUS
10
0.7751286614173228
20
1.3012839370078739
11
0.7736220472440944
21
1.300984251968504
0
LINE
8
BLACK
6
CONTINUOUS
10
0.7736220472440944
20
1.300984251968504
11
0.765748031496063
21
1.300984251968504
0
LINE
8
BLACK
6
CONTINUOUS
10
0.765748031496063
20
1.300984251968504
11
0.7642414173228347
21
1.3012839370078739
0
LINE
8
BLACK
6
CONTINUOUS
10
0.7642414173228347
20
1.3012839370078739
11
0.7629641338582677
21
1.3021373622047243
0
LINE
8
BLACK
6
CONTINUOUS
10
0.7629641338582677
20
1.3021373622047243
11
0.7621107086614173
21
1.3034146456692912
0
LINE
8
BLACK
6
CONTINUOUS
10
0.7621107086614173
20
1.3034146456692912
11
0.7618110236220472
21
1.3049212598425197
0
LINE
8
BLACK
6
CONTINUOUS
10
0.7618110236220472
20
1.3049212598425197
11
0.7618110236220472
21
1.3551181102362204
0
LINE
8
BLACK
6
CONTINUOUS
10
0.7618110236220472
20
1.3551181102362204
11
0.7621107086614173
21
1.3566247244094487
0
LINE
8
BLACK
6
CONTINUOUS
10
0.7621107086614173
20
1.3566247244094487
11
0.7629641338582677
21
1.3579020078740158
0
LINE
8
BLACK
6
CONTINUOUS
10
0.7629641338582677
20
1.3579020078740158
11
0.7642414173228347
21
1.3587554330708662
0
LINE
8
BLACK
6
CONTINUOUS
10
0.7642414173228347
20
1.3587554330708662
11
0.765748031496063
21
1.3590551181102362
0
LINE
8
BLACK
6
CONTINUOUS
10
0.765748031496063
20
1.3590551181102362
11
0.7736220472440944
21
1.3590551181102362
0
LINE
8
BLACK
6
CONTINUOUS
10
0.7736220472440944
20
1.3590551181102362
11
0.7751286614173228
21
1.3587554330708662
0
LINE
8
BLACK
6
CONTINUOUS
10
0.8007192125984252
20
1.3587554330708662
11
0.8019964960629921
21
1.3579020078740158
0
LINE
8
BLACK
6
CONTINUOUS
10
0.8019964960629921
20
1.3579020078740158
11
0.8028499212598424
21
1.3566247244094487
0
LINE
8
BLACK
6
CONTINUOUS
10
0.8028499212598424
20
1.3566247244094487
11
0.8031496062992126
21
1.3551181102362204
0
LINE
8
BLACK
6
CONTINUOUS
10
0.8031496062992126
20
1.3551181102362204
11
0.8031496062992126
21
1.3049212598425197
0
LINE
8
BLACK
6
CONTINUOUS
10
0.8031496062992126
20
1.3049212598425197
11
0.8028499212598424
21
1.3034146456692912
0
LINE
8
BLACK
6
CONTINUOUS
10
0.8028499212598424
20
1.3034146456692912
11
0.8019964960629921
21
1.3021373622047243
0
LINE
8
BLACK
6
CONTINUOUS
10
0.8019964960629921
20
1.3021373622047243
11
0.8007192125984252
21
1.3012839370078739
0
LINE
8
BLACK
6
CONTINUOUS
10
0.8007192125984252
20
1.3012839370078739
11
0.7992125984251969
21
1.300984251968504
0
LINE
8
BLACK
6
CONTINUOUS
10
0.7992125984251969
20
1.300984251968504
11
0.7913385826771653
21
1.300984251968504
0
LINE
8
BLACK
6
CONTINUOUS
10
0.7913385826771653
20
1.300984251968504
11
0.789831968503937
21
1.3012839370078739
0
LINE
8
BLACK
6
CONTINUOUS
10
0.789831968503937
20
1.3012839370078739
11
0.7885546850393701
21
1.3021373622047243
0
LINE
8
BLACK
6
CONTINUOUS
10
0.7885546850393701
20
1.3021373622047243
11
0.7877012598425197
21
1.3034146456692912
0
LINE
8
BLACK
6
CONTINUOUS
10
0.7877012598425197
20
1.3034146456692912
11
0.7874015748031495
21
1.3049212598425197
0
LINE
8
BLACK
6
CONTINUOUS
10
0.7874015748031495
20
1.3049212598425197
11
0.7874015748031495
21
1.3551181102362204
0
LINE
8
BLACK
6
CONTINUOUS
10
0.7874015748031495
20
1.3551181102362204
11
0.7877012598425197
21
1.3566247244094487
0
LINE
8
BLACK
6
CONTINUOUS
10
0.7877012598425197
20
1.3566247244094487
11
0.7885546850393701
21
1.3579020078740158
0
LINE
8
BLACK
6
CONTINUOUS
10
0.7885546850393701
20
1.3579020078740158
11
0.789831968503937
21
1.3587554330708662
0
LINE
8
BLACK
6
CONTINUOUS
10
0.789831968503937
20
1.3587554330708662
11
0.7913385826771653
21
1.3590551181102362
0
LINE
8
BLACK
6
CONTINUOUS
10
0.7913385826771653
20
1.3590551181102362
11
0.7992125984251969
21
1.3590551181102362
0
LINE
8
BLACK
6
CONTINUOUS
10
0.7992125984251969
20
1.3590551181102362
11
0.8007192125984252
21
1.3587554330708662
0
LINE
8
BLACK
6
CONTINUOUS
10
1.0888405905511811
20
1.48854968503937
11
1.0917144094488189
21
1.4866294488188976
0
LINE
8
BLACK
6
CONTINUOUS
10
1.0917144094488189
20
1.4866294488188976
11
1.1056338582677165
21
1.47271
0
LINE
8
BLACK
6
CONTINUOUS
10
1.1056338582677165
20
1.47271
11
1.107554094488189
21
1.4698361811023621
0
LINE
8
BLACK
6
CONTINUOUS
10
1.107554094488189
20
1.4698361811023621
11
1.1082283858267716
21
1.4664462598425196
0
LINE
8
BLACK
6
CONTINUOUS
10
1.1082283858267716
20
1.4664462598425196
11
1.107554094488189
21
1.4630563779527559
0
LINE
8
BLACK
6
CONTINUOUS
10
1.107554094488189
20
1.4630563779527559
11
1.1056338582677165
21
1.4601825196850393
0
LINE
8
BLACK
6
CONTINUOUS
10
1.1056338582677165
20
1.4601825196850393
11
1.0931063779527559
21
1.4476550393700787
0
LINE
8
BLACK
6
CONTINUOUS
10
1.0931063779527559
20
1.4476550393700787
11
1.0902325196850393
21
1.4457348031496062
0
LINE
8
BLACK
6
CONTINUOUS
10
1.0902325196850393
20
1.4457348031496062
11
1.0868426377952756
21
1.4450605118110236
0
LINE
8
BLACK
6
CONTINUOUS
10
1.0868426377952756
20
1.4450605118110236
11
1.0834527165354331
21
1.4457348031496062
0
LINE
8
BLACK
6
CONTINUOUS
10
1.0834527165354331
20
1.4457348031496062
11
1.0805788976377952
21
1.4476550393700787
0
LINE
8
BLACK
6
CONTINUOUS
10
1.0805788976377952
20
1.4476550393700787
11
1.0666594488188976
21
1.4615744881889763
0
LINE
8
BLACK
6
CONTINUOUS
10
1.0666594488188976
20
1.4615744881889763
11
1.0647392125984252
21
1.4644483070866141
0
LINE
8
BLACK
6
CONTINUOUS
10
1.0647392125984252
20
1.4644483070866141
11
1.0640649212598425
21
1.4678382283464566
0
LINE
8
BLACK
6
CONTINUOUS
10
1.0640649212598425
20
1.4678382283464566
11
1.0647392125984252
21
1.4712281102362204
0
LINE
8
BLACK
6
CONTINUOUS
10
1.0647392125984252
20
1.4712281102362204
11
1.0666594488188976
21
1.4741019685039369
0
LINE
8
BLACK
6
CONTINUOUS
10
1.0666594488188976
20
1.4741019685039369
11
1.0791869291338583
21
1.4866294488188976
0
LINE
8
BLACK
6
CONTINUOUS
10
1.0791869291338583
20
1.4866294488188976
11
1.0820607874015749
21
1.48854968503937
0
LINE
8
BLACK
6
CONTINUOUS
10
1.0820607874015749
20
1.48854968503937
11
1.0854506692913386
21
1.4892239763779527
0
LINE
8
BLACK
6
CONTINUOUS
10
1.0854506692913386
20
1.4892239763779527
11
1.0888405905511811
21
1.48854968503937
0
LINE
8
BLACK
6
CONTINUOUS
10
1.0731723622047245
20
1.5141751968503936
11
1.0453335433070865
21
1.4863363779527559
0
LINE
8
BLACK
6
CONTINUOUS
10
1.0453335433070865
20
1.4863363779527559
11
1.0119269291338582
21
1.5197429921259842
0
LINE
8
BLACK
6
CONTINUOUS
10
1.0119269291338582
20
1.5197429921259842
11
1.0397657480314961
21
1.5475818110236219
0
LINE
8
BLACK
6
CONTINUOUS
10
1.0397657480314961
20
1.5475818110236219
11
1.0731723622047245
21
1.5141751968503936
0
LINE
8
BLACK
6
CONTINUOUS
10
1.1319908267716534
20
1.5316999212598426
11
1.1348646456692912
21
1.5297796850393701
0
LINE
8
BLACK
6
CONTINUOUS
10
1.1348646456692912
20
1.5297796850393701
11
1.1487840944881889
21
1.5158602362204725
0
LINE
8
BLACK
6
CONTINUOUS
10
1.1487840944881889
20
1.5158602362204725
11
1.1507043307086613
21
1.5129864173228347
0
LINE
8
BLACK
6
CONTINUOUS
10
1.1507043307086613
20
1.5129864173228347
11
1.1513786220472442
21
1.5095964960629922
0
LINE
8
BLACK
6
CONTINUOUS
10
1.1513786220472442
20
1.5095964960629922
11
1.1507043307086613
21
1.5062066141732282
0
LINE
8
BLACK
6
CONTINUOUS
10
1.1507043307086613
20
1.5062066141732282
11
1.1487840944881889
21
1.5033327559055119
0
LINE
8
BLACK
6
CONTINUOUS
10
1.1487840944881889
20
1.5033327559055119
11
1.1362566141732284
21
1.4908052755905512
0
LINE
8
BLACK
6
CONTINUOUS
10
1.1362566141732284
20
1.4908052755905512
11
1.1333827559055119
21
1.4888850393700788
0
LINE
8
BLACK
6
CONTINUOUS
10
1.1333827559055119
20
1.4888850393700788
11
1.1299928740157481
21
1.4882107480314961
0
LINE
8
BLACK
6
CONTINUOUS
10
1.1299928740157481
20
1.4882107480314961
11
1.1266029527559054
21
1.4888850393700788
0
LINE
8
BLACK
6
CONTINUOUS
10
1.1266029527559054
20
1.4888850393700788
11
1.1237291338582678
21
1.4908052755905512
0
LINE
8
BLACK
6
CONTINUOUS
10
1.1237291338582678
20
1.4908052755905512
11
1.1098096850393702
21
1.5047247244094488
0
LINE
8
BLACK
6
CONTINUOUS
10
1.1098096850393702
20
1.5047247244094488
11
1.1078894488188975
21
1.5075985433070866
0
LINE
8
BLACK
6
CONTINUOUS
10
1.1078894488188975
20
1.5075985433070866
11
1.1072151574803148
21
1.5109884645669291
0
LINE
8
BLACK
6
CONTINUOUS
10
1.1072151574803148
20
1.5109884645669291
11
1.1078894488188975
21
1.5143783464566929
0
LINE
8
BLACK
6
CONTINUOUS
10
1.1078894488188975
20
1.5143783464566929
11
1.1098096850393702
21
1.5172522047244095
0
LINE
8
BLACK
6
CONTINUOUS
10
1.1098096850393702
20
1.5172522047244095
11
1.1223371653543306
21
1.5297796850393701
0
LINE
8
BLACK
6
CONTINUOUS
10
1.1223371653543306
20
1.5297796850393701
11
1.1252110236220472
21
1.5316999212598426
0
LINE
8
BLACK
6
CONTINUOUS
10
1.1252110236220472
20
1.5316999212598426
11
1.1286009055118109
21
1.5323742125984252
0
LINE
8
BLACK
6
CONTINUOUS
10
1.1286009055118109
20
1.5323742125984252
11
1.1319908267716534
21
1.5316999212598426
0
LINE
8
BLACK
6
CONTINUOUS
10
1.5236825590551182
20
1.5338494488188976
11
1.5262370472440945
21
1.5321425590551181
0
LINE
8
BLACK
6
CONTINUOUS
10
1.5262370472440945
20
1.5321425590551181
11
1.527943937007874
21
1.5295880708661418
0
LINE
8
BLACK
6
CONTINUOUS
10
1.527943937007874
20
1.5295880708661418
11
1.5285433070866141
21
1.5265748031496063
0
LINE
8
BLACK
6
CONTINUOUS
10
1.5285433070866141
20
1.5265748031496063
11
1.5285433070866141
21
1.5049212598425197
0
LINE
8
BLACK
6
CONTINUOUS
10
1.5285433070866141
20
1.5049212598425197
11
1.527943937007874
21
1.5019079921259841
0
LINE
8
BLACK
6
CONTINUOUS
10
1.527943937007874
20
1.5019079921259841
11
1.5262370472440945
21
1.4993535039370078
0
LINE
8
BLACK
6
CONTINUOUS
10
1.5262370472440945
20
1.4993535039370078
11
1.5236825590551182
21
1.4976466141732283
0
LINE
8
BLACK
6
CONTINUOUS
10
1.5236825590551182
20
1.4976466141732283
11
1.5206692913385826
21
1.4970472440944882
0
LINE
8
BLACK
6
CONTINUOUS
10
1.5206692913385826
20
1.4970472440944882
11
1.5049212598425197
21
1.4970472440944882
0
LINE
8
BLACK
6
CONTINUOUS
10
1.5049212598425197
20
1.4970472440944882
11
1.5019079921259841
21
1.4976466141732283
0
LINE
8
BLACK
6
CONTINUOUS
10
1.5019079921259841
20
1.4976466141732283
11
1.4993535039370078
21
1.4993535039370078
0
LINE
8
BLACK
6
CONTINUOUS
10
1.4993535039370078
20
1.4993535039370078
11
1.4976466141732283
21
1.5019079921259841
0
LINE
8
BLACK
6
CONTINUOUS
10
1.4976466141732283
20
1.5019079921259841
11
1.4970472440944882
21
1.5049212598425197
0
LINE
8
BLACK
6
CONTINUOUS
10
1.4970472440944882
20
1.5049212598425197
11
1.4970472440944882
21
1.5265748031496063
0
LINE
8
BLACK
6
CONTINUOUS
10
1.4970472440944882
20
1.5265748031496063
11
1.4976466141732283
21
1.5295880708661418
0
LINE
8
BLACK
6
CONTINUOUS
10
1.4976466141732283
20
1.5295880708661418
11
1.4993535039370078
21
1.5321425590551181
0
LINE
8
BLACK
6
CONTINUOUS
10
1.4993535039370078
20
1.5321425590551181
11
1.5019079921259841
21
1.5338494488188976
0
LINE
8
BLACK
6
CONTINUOUS
10
1.5019079921259841
20
1.5338494488188976
11
1.5049212598425197
21
1.5344488188976377
0
LINE
8
BLACK
6
CONTINUOUS
10
1.5049212598425197
20
1.5344488188976377
11
1.5206692913385826
21
1.5344488188976377
0
LINE
8
BLACK
6
CONTINUOUS
10
1.5206692913385826
20
1.5344488188976377
11
1.5236825590551182
21
1.5338494488188976
0
LINE
8
BLACK
6
CONTINUOUS
10
1.5886431889763779
20
1.5338494488188976
11
1.5911976771653542
21
1.5321425590551181
0
LINE
8
BLACK
6
CONTINUOUS
10
1.5911976771653542
20
1.5321425590551181
11
1.5929045669291337
21
1.5295880708661418
0
LINE
8
BLACK
6
CONTINUOUS
10
1.5929045669291337
20
1.5295880708661418
11
1.5935039370078741
21
1.5265748031496063
0
LINE
8
BLACK
6
CONTINUOUS
10
1.5935039370078741
20
1.5265748031496063
11
1.5935039370078741
21
1.5049212598425197
0
LINE
8
BLACK
6
CONTINUOUS
10
1.5935039370078741
20
1.5049212598425197
11
1.5929045669291337
21
1.5019079921259841
0
LINE
8
BLACK
6
CONTINUOUS
10
1.5929045669291337
20
1.5019079921259841
11
1.5911976771653542
21
1.4993535039370078
0
LINE
8
BLACK
6
CONTINUOUS
10
1.5911976771653542
20
1.4993535039370078
11
1.5886431889763779
21
1.4976466141732283
0
LINE
8
BLACK
6
CONTINUOUS
10
1.5886431889763779
20
1.4976466141732283
11
1.5856299212598426
21
1.4970472440944882
0
LINE
8
BLACK
6
CONTINUOUS
10
1.5856299212598426
20
1.4970472440944882
11
1.5698818897637794
21
1.4970472440944882
0
LINE
8
BLACK
6
CONTINUOUS
10
1.5698818897637794
20
1.4970472440944882
11
1.5668686220472441
21
1.4976466141732283
0
LINE
8
BLACK
6
CONTINUOUS
10
1.5668686220472441
20
1.4976466141732283
11
1.5643141338582678
21
1.4993535039370078
0
LINE
8
BLACK
6
CONTINUOUS
10
1.5643141338582678
20
1.4993535039370078
11
1.5626072440944883
21
1.5019079921259841
0
LINE
8
BLACK
6
CONTINUOUS
10
1.5626072440944883
20
1.5019079921259841
11
1.5620078740157479
21
1.5049212598425197
0
LINE
8
BLACK
6
CONTINUOUS
10
1.5620078740157479
20
1.5049212598425197
11
1.5620078740157479
21
1.5265748031496063
0
LINE
8
BLACK
6
CONTINUOUS
10
1.5620078740157479
20
1.5265748031496063
11
1.5626072440944883
21
1.5295880708661418
0
LINE
8
BLACK
6
CONTINUOUS
10
1.5626072440944883
20
1.5295880708661418
11
1.5643141338582678
21
1.5321425590551181
0
LINE
8
BLACK
6
CONTINUOUS
10
1.5643141338582678
20
1.5321425590551181
11
1.5668686220472441
21
1.5338494488188976
0
LINE
8
BLACK
6
CONTINUOUS
10
1.5668686220472441
20
1.5338494488188976
11
1.5698818897637794
21
1.5344488188976377
0
LINE
8
BLACK
6
CONTINUOUS
10
1.5698818897637794
20
1.5344488188976377
11
1.5856299212598426
21
1.5344488188976377
0
LINE
8
BLACK
6
CONTINUOUS
10
1.5856299212598426
20
1.5344488188976377
11
1.5886431889763779
21
1.5338494488188976
0
LINE
8
BLACK
6
CONTINUOUS
10
1.109362874015748
20
1.5503657086614173
11
1.0815240551181102
21
1.5225268897637796
0
LINE
8
BLACK
6
CONTINUOUS
10
1.0815240551181102
20
1.5225268897637796
11
1.0481174409448819
21
1.5559335039370079
0
LINE
8
BLACK
6
CONTINUOUS
10
1.0481174409448819
20
1.5559335039370079
11
1.0759562598425196
21
1.5837723228346456
0
LINE
8
BLACK
6
CONTINUOUS
10
1.0759562598425196
20
1.5837723228346456
11
1.109362874015748
21
1.5503657086614173
0
LINE
8
BLACK
6
CONTINUOUS
10
1.025846338582677
20
1.561501220472441
11
0.9980075196850393
21
1.533662401574803
0
LINE
8
BLACK
6
CONTINUOUS
10
0.9980075196850393
20
1.533662401574803
11
0.964600905511811
21
1.5670690157480314
0
LINE
8
BLACK
6
CONTINUOUS
10
0.964600905511811
20
1.5670690157480314
11
0.9924397244094488
21
1.5949078346456693
0
LINE
8
BLACK
6
CONTINUOUS
10
0.9924397244094488
20
1.5949078346456693
11
1.025846338582677
21
1.561501220472441
0
LINE
8
BLACK
6
CONTINUOUS
10
1.0620368503937008
20
1.5976917322834645
11
1.034198031496063
21
1.5698529133858268
0
LINE
8
BLACK
6
CONTINUOUS
10
1.034198031496063
20
1.5698529133858268
11
1.0007914173228347
21
1.6032595275590551
0
LINE
8
BLACK
6
CONTINUOUS
10
1.0007914173228347
20
1.6032595275590551
11
1.0286302362204724
21
1.6310983464566928
0
LINE
8
BLACK
6
CONTINUOUS
10
1.0286302362204724
20
1.6310983464566928
11
1.0620368503937008
21
1.5976917322834645
0
LINE
8
BLACK
6
CONTINUOUS
10
1.1241812992125984
20
1.6185496850393701
11
1.1270551574803149
21
1.6166294488188977
0
LINE
8
BLACK
6
CONTINUOUS
10
1.1270551574803149
20
1.6166294488188977
11
1.1395826377952756
21
1.604101968503937
0
LINE
8
BLACK
6
CONTINUOUS
10
1.1395826377952756
20
1.604101968503937
11
1.141502874015748
21
1.6012281102362205
0
LINE
8
BLACK
6
CONTINUOUS
10
1.141502874015748
20
1.6012281102362205
11
1.1421771653543307
21
1.5978382283464567
0
LINE
8
BLACK
6
CONTINUOUS
10
1.1421771653543307
20
1.5978382283464567
11
1.141502874015748
21
1.5944483070866142
0
LINE
8
BLACK
6
CONTINUOUS
10
1.141502874015748
20
1.5944483070866142
11
1.1395826377952756
21
1.5915744881889764
0
LINE
8
BLACK
6
CONTINUOUS
10
1.1395826377952756
20
1.5915744881889764
11
1.125663188976378
21
1.5776550393700788
0
LINE
8
BLACK
6
CONTINUOUS
10
1.125663188976378
20
1.5776550393700788
11
1.1227893700787401
21
1.5757348031496063
0
LINE
8
BLACK
6
CONTINUOUS
10
1.1227893700787401
20
1.5757348031496063
11
1.1193994488188976
21
1.5750605118110237
0
LINE
8
BLACK
6
CONTINUOUS
10
1.1193994488188976
20
1.5750605118110237
11
1.1160095669291339
21
1.5757348031496063
0
LINE
8
BLACK
6
CONTINUOUS
10
1.1160095669291339
20
1.5757348031496063
11
1.1131357086614173
21
1.5776550393700788
0
LINE
8
BLACK
6
CONTINUOUS
10
1.1131357086614173
20
1.5776550393700788
11
1.1006082283464567
21
1.5901825196850394
0
LINE
8
BLACK
6
CONTINUOUS
10
1.1006082283464567
20
1.5901825196850394
11
1.0986879921259842
21
1.5930563779527558
0
LINE
8
BLACK
6
CONTINUOUS
10
1.0986879921259842
20
1.5930563779527558
11
1.0980137007874016
21
1.5964462598425198
0
LINE
8
BLACK
6
CONTINUOUS
10
1.0980137007874016
20
1.5964462598425198
11
1.0986879921259842
21
1.5998361811023623
0
LINE
8
BLACK
6
CONTINUOUS
10
1.0986879921259842
20
1.5998361811023623
11
1.1006082283464567
21
1.6027099999999999
0
LINE
8
BLACK
6
CONTINUOUS
10
1.1006082283464567
20
1.6027099999999999
11
1.1145276771653543
21
1.6166294488188977
0
LINE
8
BLACK
6
CONTINUOUS
10
1.1145276771653543
20
1.6166294488188977
11
1.1174014960629921
21
1.6185496850393701
0
LINE
8
BLACK
6
CONTINUOUS
10
1.1174014960629921
20
1.6185496850393701
11
1.1207914173228346
21
1.6192239763779528
0
LINE
8
BLACK
6
CONTINUOUS
10
1.1207914173228346
20
1.6192239763779528
11
1.1241812992125984
21
1.6185496850393701
0
LINE
8
BLACK
6
CONTINUOUS
10
1.081031062992126
20
1.6616999212598424
11
1.0839049212598424
21
1.65977968503937
0
LINE
8
BLACK
6
CONTINUOUS
10
1.0839049212598424
20
1.65977968503937
11
1.096432401574803
21
1.6472522047244094
0
LINE
8
BLACK
6
CONTINUOUS
10
1.096432401574803
20
1.6472522047244094
11
1.0983526377952755
21
1.6443783464566928
0
LINE
8
BLACK
6
CONTINUOUS
10
1.0983526377952755
20
1.6443783464566928
11
1.0990269291338581
21
1.640988464566929
0
LINE
8
BLACK
6
CONTINUOUS
10
1.0990269291338581
20
1.640988464566929
11
1.0983526377952755
21
1.6375985433070865
0
LINE
8
BLACK
6
CONTINUOUS
10
1.0983526377952755
20
1.6375985433070865
11
1.096432401574803
21
1.6347247244094487
0
LINE
8
BLACK
6
CONTINUOUS
10
1.096432401574803
20
1.6347247244094487
11
1.0825129527559054
21
1.6208052755905511
0
LINE
8
BLACK
6
CONTINUOUS
10
1.0825129527559054
20
1.6208052755905511
11
1.0796391338582676
21
1.6188850393700787
0
LINE
8
BLACK
6
CONTINUOUS
10
1.0796391338582676
20
1.6188850393700787
11
1.0762492125984251
21
1.618210748031496
0
LINE
8
BLACK
6
CONTINUOUS
10
1.0762492125984251
20
1.618210748031496
11
1.0728593307086614
21
1.6188850393700787
0
LINE
8
BLACK
6
CONTINUOUS
10
1.0728593307086614
20
1.6188850393700787
11
1.0699854724409448
21
1.6208052755905511
0
LINE
8
BLACK
6
CONTINUOUS
10
1.0699854724409448
20
1.6208052755905511
11
1.0574579921259841
21
1.6333327559055117
0
LINE
8
BLACK
6
CONTINUOUS
10
1.0574579921259841
20
1.6333327559055117
11
1.0555377559055117
21
1.6362066141732283
0
LINE
8
BLACK
6
CONTINUOUS
10
1.0555377559055117
20
1.6362066141732283
11
1.054863464566929
21
1.6395964960629921
0
LINE
8
BLACK
6
CONTINUOUS
10
1.054863464566929
20
1.6395964960629921
11
1.0555377559055117
21
1.6429864173228346
0
LINE
8
BLACK
6
CONTINUOUS
10
1.0555377559055117
20
1.6429864173228346
11
1.0574579921259841
21
1.6458602362204724
0
LINE
8
BLACK
6
CONTINUOUS
10
1.0574579921259841
20
1.6458602362204724
11
1.071377440944882
21
1.65977968503937
0
LINE
8
BLACK
6
CONTINUOUS
10
1.071377440944882
20
1.65977968503937
11
1.0742512598425196
21
1.6616999212598424
0
LINE
8
BLACK
6
CONTINUOUS
10
1.0742512598425196
20
1.6616999212598424
11
1.0776411811023623
21
1.6623742125984251
0
LINE
8
BLACK
6
CONTINUOUS
10
1.0776411811023623
20
1.6623742125984251
11
1.081031062992126
21
1.6616999212598424
0
LINE
8
BLACK
6
CONTINUOUS
10
0.4160867716535433
20
1.6636957874015748
11
0.4189605905511811
21
1.6617755511811023
0
LINE
8
BLACK
6
CONTINUOUS
10
0.4189605905511811
20
1.6617755511811023
11
0.4208808267716536
21
1.6589017322834645
0
LINE
8
BLACK
6
CONTINUOUS
10
0.4208808267716536
20
1.6589017322834645
11
0.4215551181102362
21
1.655511811023622
0
LINE
8
BLACK
6
CONTINUOUS
10
0.4215551181102362
20
1.655511811023622
11
0.4215551181102362
21
1.6358267716535433
0
LINE
8
BLACK
6
CONTINUOUS
10
0.4215551181102362
20
1.6358267716535433
11
0.4208808267716536
21
1.6324368503937008
0
LINE
8
BLACK
6
CONTINUOUS
10
0.4208808267716536
20
1.6324368503937008
11
0.4189605905511811
21
1.629563031496063
0
LINE
8
BLACK
6
CONTINUOUS
10
0.4189605905511811
20
1.629563031496063
11
0.4160867716535433
21
1.6276427952755905
0
LINE
8
BLACK
6
CONTINUOUS
10
0.4160867716535433
20
1.6276427952755905
11
0.4126968503937008
21
1.6269685039370079
0
LINE
8
BLACK
6
CONTINUOUS
10
0.4126968503937008
20
1.6269685039370079
11
0.3949803149606299
21
1.6269685039370079
0
LINE
8
BLACK
6
CONTINUOUS
10
0.3949803149606299
20
1.6269685039370079
11
0.3915903937007874
21
1.6276427952755905
0
LINE
8
BLACK
6
CONTINUOUS
10
0.3915903937007874
20
1.6276427952755905
11
0.3887165748031496
21
1.629563031496063
0
LINE
8
BLACK
6
CONTINUOUS
10
0.3887165748031496
20
1.629563031496063
11
0.3867963385826771
21
1.6324368503937008
0
LINE
8
BLACK
6
CONTINUOUS
10
0.3867963385826771
20
1.6324368503937008
11
0.3861220472440945
21
1.6358267716535433
0
LINE
8
BLACK
6
CONTINUOUS
10
0.3861220472440945
20
1.6358267716535433
11
0.3861220472440945
21
1.655511811023622
0
LINE
8
BLACK
6
CONTINUOUS
10
0.3861220472440945
20
1.655511811023622
11
0.3867963385826771
21
1.6589017322834645
0
LINE
8
BLACK
6
CONTINUOUS
10
0.3867963385826771
20
1.6589017322834645
11
0.3887165748031496
21
1.6617755511811023
0
LINE
8
BLACK
6
CONTINUOUS
10
0.3887165748031496
20
1.6617755511811023
11
0.3915903937007874
21
1.6636957874015748
0
LINE
8
BLACK
6
CONTINUOUS
10
0.3915903937007874
20
1.6636957874015748
11
0.3949803149606299
21
1.6643700787401574
0
LINE
8
BLACK
6
CONTINUOUS
10
0.3949803149606299
20
1.6643700787401574
11
0.4126968503937008
21
1.6643700787401574
0
LINE
8
BLACK
6
CONTINUOUS
10
0.4126968503937008
20
1.6643700787401574
11
0.4160867716535433
21
1.6636957874015748
0
LINE
8
BLACK
6
CONTINUOUS
10
0.4771103937007874
20
1.6636957874015748
11
0.4799842125984252
21
1.6617755511811023
0
LINE
8
BLACK
6
CONTINUOUS
10
0.4799842125984252
20
1.6617755511811023
11
0.4819044488188976
21
1.6589017322834645
0
LINE
8
BLACK
6
CONTINUOUS
10
0.4819044488188976
20
1.6589017322834645
11
0.4825787401574803
21
1.655511811023622
0
LINE
8
BLACK
6
CONTINUOUS
10
0.4825787401574803
20
1.655511811023622
11
0.4825787401574803
21
1.6358267716535433
0
LINE
8
BLACK
6
CONTINUOUS
10
0.4825787401574803
20
1.6358267716535433
11
0.4819044488188976
21
1.6324368503937008
0
LINE
8
BLACK
6
CONTINUOUS
10
0.4819044488188976
20
1.6324368503937008
11
0.4799842125984252
21
1.629563031496063
0
LINE
8
BLACK
6
CONTINUOUS
10
0.4799842125984252
20
1.629563031496063
11
0.4771103937007874
21
1.6276427952755905
0
LINE
8
BLACK
6
CONTINUOUS
10
0.4771103937007874
20
1.6276427952755905
11
0.4737204724409449
21
1.6269685039370079
0
LINE
8
BLACK
6
CONTINUOUS
10
0.4737204724409449
20
1.6269685039370079
11
0.456003937007874
21
1.6269685039370079
0
LINE
8
BLACK
6
CONTINUOUS
10
0.456003937007874
20
1.6269685039370079
11
0.4526140157480315
21
1.6276427952755905
0
LINE
8
BLACK
6
CONTINUOUS
10
0.4526140157480315
20
1.6276427952755905
11
0.4497401968503937
21
1.629563031496063
0
LINE
8
BLACK
6
CONTINUOUS
10
0.4497401968503937
20
1.629563031496063
11
0.4478199606299212
21
1.6324368503937008
0
LINE
8
BLACK
6
CONTINUOUS
10
0.4478199606299212
20
1.6324368503937008
11
0.4471456692913386
21
1.6358267716535433
0
LINE
8
BLACK
6
CONTINUOUS
10
0.4471456692913386
20
1.6358267716535433
11
0.4471456692913386
21
1.655511811023622
0
LINE
8
BLACK
6
CONTINUOUS
10
0.4471456692913386
20
1.655511811023622
11
0.4478199606299212
21
1.6589017322834645
0
LINE
8
BLACK
6
CONTINUOUS
10
0.4478199606299212
20
1.6589017322834645
11
0.4497401968503937
21
1.6617755511811023
0
LINE
8
BLACK
6
CONTINUOUS
10
0.4497401968503937
20
1.6617755511811023
11
0.4526140157480315
21
1.6636957874015748
0
LINE
8
BLACK
6
CONTINUOUS
10
0.4526140157480315
20
1.6636957874015748
11
0.456003937007874
21
1.6643700787401574
0
LINE
8
BLACK
6
CONTINUOUS
10
0.456003937007874
20
1.6643700787401574
11
0.4737204724409449
21
1.6643700787401574
0
LINE
8
BLACK
6
CONTINUOUS
10
0.4737204724409449
20
1.6643700787401574
11
0.4771103937007874
21
1.6636957874015748
0
CIRCLE
8
BLACK
10
1.05
20
1.1933070866141733
40
0.0068897637795276
0
CIRCLE
8
BLACK
10
1.05
20
1.2933070866141732
40
0.0068897637795276
0
CIRCLE
8
BLACK
10
1.1499999999999999
20
1.1933070866141733
40
0.0068897637795276
0
CIRCLE
8
BLACK
10
1.1499999999999999
20
1.2933070866141732
40
0.0068897637795276
0
CIRCLE
8
BLACK
10
1.25
20
1.1933070866141733
40
0.0068897637795276
0
CIRCLE
8
BLACK
10
1.25
20
1.2933070866141732
40
0.0068897637795276
0
CIRCLE
8
BLACK
10
1.3499999999999999
20
1.1933070866141733
40
0.0068897637795276
0
CIRCLE
8
BLACK
10
1.3499999999999999
20
1.2933070866141732
40
0.0068897637795276
0
CIRCLE
8
BLACK
10
1.6141732283464567
20
0.8267716535433071
40
0.0068897637795276
0
CIRCLE
8
BLACK
10
1.7141732283464566
20
0.926771653543307
40
0.0068897637795276
0
CIRCLE
8
BLACK
10
1.5141732283464566
20
0.926771653543307
40
0.0068897637795276
0
CIRCLE
8
BLACK
10
1.7141732283464566
20
0.7267716535433071
40
0.0068897637795276
0
CIRCLE
8
BLACK
10
1.5141732283464566
20
0.7267716535433071
40
0.0068897637795276
0
CIRCLE
8
BLACK
10
0.4
20
0.4
40
0.0068897637795276
0
CIRCLE
8
BLACK
10
1.5999999999999999
20
1.2
40
0.0068897637795276
0
CIRCLE
8
BLACK
10
1.5999999999999999
20
0.4
40
0.0068897637795276
0
CIRCLE
8
BLACK
10
0.4
20
1.2
40
0.0068897637795276
0
CIRCLE
8
BLACK
10
0.3043307086614173
20
0.9070866141732283
40
0.0068897637795276
0
CIRCLE
8
BLACK
10
0.4043307086614173
20
0.9070866141732283
40
0.0068897637795276
0
CIRCLE
8
BLACK
10
0.3043307086614173
20
0.8070866141732284
40
0.0068897637795276
0
CIRCLE
8
BLACK
10
0.4043307086614173
20
0.8070866141732284
40
0.0068897637795276
0
CIRCLE
8
BLACK
10
0.3043307086614173
20
0.7070866141732284
40
0.0068897637795276
0
CIRCLE
8
BLACK
10
0.4043307086614173
20
0.7070866141732284
40
0.0068897637795276
0
CIRCLE
8
BLACK
10
0.987007874015748
20
0.2989173228346457
40
0.0068897637795276
0
CIRCLE
8
BLACK
10
0.987007874015748
20
0.3989173228346456
40
0.0068897637795276
0
CIRCLE
8
BLACK
10
1.0870078740157481
20
0.2989173228346457
40
0.0068897637795276
0
CIRCLE
8
BLACK
10
1.0870078740157481
20
0.3989173228346456
40
0.0068897637795276
0
CIRCLE
8
BLACK
10
1.1870078740157479
20
0.2989173228346457
40
0.0068897637795276
0
CIRCLE
8
BLACK
10
1.1870078740157479
20
0.3989173228346456
40
0.0068897637795276
0
CIRCLE
8
BLACK
10
1.287007874015748
20
0.2989173228346457
40
0.0068897637795276
0
CIRCLE
8
BLACK
10
1.287007874015748
20
0.3989173228346456
40
0.0068897637795276
0
CIRCLE
8
BLACK
10
0.9116561417322835
20
0.8494582283464567
40
0.004
0
CIRCLE
8
BLACK
10
0.9074803149606299
20
0.7756852755905511
40
0.004
0
CIRCLE
8
BLACK
10
0.8726817716535433
20
0.8104838582677165
40
0.004
0
CIRCLE
8
BLACK
10
0.8378831889763779
20
0.8452824015748032
40
0.004
0
CIRCLE
8
BLACK
10
0.8337074015748032
20
0.7715094881889764
40
0.004
  0
ENDSEC
  0
EOF
