<!DOCTYPE svg PUBLIC "-//W3C//DTD SVG 1.1//EN" "http://www.w3.org/Graphics/SVG/1.1/DTD/svg11.dtd">
<svg xmlns="http://www.w3.org/2000/svg" version="1.1" width="50.282mm" height="40.122mm" viewBox="123.35900000000001 84.939 50.28200000000001 40.122">
            <title>Picture generated by PcbDraw </title>
            <desc>Picture generated by PcbDraw</desc>
        <defs><clipPath id="cut-off"><path d="M128.4340 119.9860 L128.4340 90.0140 M 168.566 90.014 L 168.566 119.986 L 128.434 119.986 L 128.434 90.014 L 168.566 90.014 " style="fill-rule: evenodd;"/></clipPath><mask id="pads-mask"><g style="fill:#ffffff; fill-opacity:1.0000; stroke:none;">
<circle cx="162.6974" cy="110.1099" r="1.2500"/> 
</g>
<g style="fill:#ffffff; fill-opacity:1.0000; stroke:none;">
<circle cx="165.2374" cy="107.5699" r="1.3500"/> 
</g>
<g style="fill:#ffffff; fill-opacity:1.0000; stroke:none;">
<circle cx="160.1574" cy="107.5699" r="1.3500"/> 
</g>
<g style="fill:#ffffff; fill-opacity:1.0000; stroke:none;">
<circle cx="165.2374" cy="112.6499" r="1.3500"/> 
</g>
<g style="fill:#ffffff; fill-opacity:1.0000; stroke:none;">
<circle cx="160.1574" cy="112.6499" r="1.3500"/> 
<path style="fill:#ffffff; fill-opacity:1.0000; stroke:none;fill-rule:evenodd;" d="M 140.7784,91.5634 139.2544,91.5634 139.2544,90.0394 140.7784,90.0394 Z"/> 
<path style="fill:#ffffff; fill-opacity:1.0000; stroke:none;fill-rule:evenodd;" d="M 140.7784,89.0234 139.2544,89.0234 139.2544,87.4994 140.7784,87.4994 Z"/> 
<path style="fill:#ffffff; fill-opacity:1.0000; stroke:none;fill-rule:evenodd;" d="M 143.3184,91.5634 141.7944,91.5634 141.7944,90.0394 143.3184,90.0394 Z"/> 
<path style="fill:#ffffff; fill-opacity:1.0000; stroke:none;fill-rule:evenodd;" d="M 143.3184,89.0234 141.7944,89.0234 141.7944,87.4994 143.3184,87.4994 Z"/> 
<path style="fill:#ffffff; fill-opacity:1.0000; stroke:none;fill-rule:evenodd;" d="M 145.8584,91.5634 144.3344,91.5634 144.3344,90.0394 145.8584,90.0394 Z"/> 
<path style="fill:#ffffff; fill-opacity:1.0000; stroke:none;fill-rule:evenodd;" d="M 145.8584,89.0234 144.3344,89.0234 144.3344,87.4994 145.8584,87.4994 Z"/> 
</g>
<g style="fill:#ffffff; fill-opacity:1.0000; stroke:none;">
<circle cx="133.2600" cy="115.1600" r="3.0000"/> 
</g>
<g style="fill:#ffffff; fill-opacity:1.0000; stroke:none;">
<circle cx="163.7400" cy="94.8400" r="3.0000"/> 
</g>
<g style="fill:#ffffff; fill-opacity:1.0000; stroke:none;">
<circle cx="163.7400" cy="115.1600" r="3.0000"/> 
</g>
<g style="fill:#ffffff; fill-opacity:1.0000; stroke:none;">
<circle cx="133.2600" cy="94.8400" r="3.0000"/> 
</g> 
</mask><mask id="pads-mask-silkscreen"><rect x="128.359" y="89.939" width="40.282" height="30.122" fill="white"/><g style="fill:#000000; fill-opacity:1.0000; stroke:none;">
<circle cx="162.6974" cy="110.1099" r="1.2500"/> 
</g>
<g style="fill:#000000; fill-opacity:1.0000; stroke:none;">
<circle cx="165.2374" cy="107.5699" r="1.3500"/> 
</g>
<g style="fill:#000000; fill-opacity:1.0000; stroke:none;">
<circle cx="160.1574" cy="107.5699" r="1.3500"/> 
</g>
<g style="fill:#000000; fill-opacity:1.0000; stroke:none;">
<circle cx="165.2374" cy="112.6499" r="1.3500"/> 
</g>
<g style="fill:#000000; fill-opacity:1.0000; stroke:none;">
<circle cx="160.1574" cy="112.6499" r="1.3500"/> 
<path style="fill:#000000; fill-opacity:1.0000; stroke:none;fill-rule:evenodd;" d="M 140.7784,91.5634 139.2544,91.5634 139.2544,90.0394 140.7784,90.0394 Z"/> 
<path style="fill:#000000; fill-opacity:1.0000; stroke:none;fill-rule:evenodd;" d="M 140.7784,89.0234 139.2544,89.0234 139.2544,87.4994 140.7784,87.4994 Z"/> 
<path style="fill:#000000; fill-opacity:1.0000; stroke:none;fill-rule:evenodd;" d="M 143.3184,91.5634 141.7944,91.5634 141.7944,90.0394 143.3184,90.0394 Z"/> 
<path style="fill:#000000; fill-opacity:1.0000; stroke:none;fill-rule:evenodd;" d="M 143.3184,89.0234 141.7944,89.0234 141.7944,87.4994 143.3184,87.4994 Z"/> 
<path style="fill:#000000; fill-opacity:1.0000; stroke:none;fill-rule:evenodd;" d="M 145.8584,91.5634 144.3344,91.5634 144.3344,90.0394 145.8584,90.0394 Z"/> 
<path style="fill:#000000; fill-opacity:1.0000; stroke:none;fill-rule:evenodd;" d="M 145.8584,89.0234 144.3344,89.0234 144.3344,87.4994 145.8584,87.4994 Z"/> 
</g>
<g style="fill:#000000; fill-opacity:1.0000; stroke:none;">
<circle cx="133.2600" cy="115.1600" r="3.0000"/> 
</g>
<g style="fill:#000000; fill-opacity:1.0000; stroke:none;">
<circle cx="163.7400" cy="94.8400" r="3.0000"/> 
</g>
<g style="fill:#000000; fill-opacity:1.0000; stroke:none;">
<circle cx="163.7400" cy="115.1600" r="3.0000"/> 
</g>
<g style="fill:#000000; fill-opacity:1.0000; stroke:none;">
<circle cx="133.2600" cy="94.8400" r="3.0000"/> 
</g> 
</mask><mask id="hole-mask"><g><rect x="128.359" y="89.939" fill="white" width="40.282" height="30.122"/><polyline stroke-linecap="round" stroke="black" stroke-width="1.5" points="-0.0 0 0.0 0" transform="translate(162.6974 110.109899) rotate(-90.0)"/><polyline stroke-linecap="round" stroke="black" stroke-width="1.7" points="-0.0 0 0.0 0" transform="translate(165.2374 107.569899) rotate(-90.0)"/><polyline stroke-linecap="round" stroke="black" stroke-width="1.7" points="-0.0 0 0.0 0" transform="translate(160.1574 107.569899) rotate(-90.0)"/><polyline stroke-linecap="round" stroke="black" stroke-width="1.7" points="-0.0 0 0.0 0" transform="translate(165.2374 112.649899) rotate(-90.0)"/><polyline stroke-linecap="round" stroke="black" stroke-width="1.7" points="-0.0 0 0.0 0" transform="translate(160.1574 112.649899) rotate(-90.0)"/><polyline stroke-linecap="round" stroke="black" stroke-width="0.889" points="-0.0 0 0.0 0" transform="translate(140.0164 90.8014) rotate(-90.0)"/><polyline stroke-linecap="round" stroke="black" stroke-width="0.889" points="-0.0 0 0.0 0" transform="translate(140.0164 88.2614) rotate(-90.0)"/><polyline stroke-linecap="round" stroke="black" stroke-width="0.889" points="-0.0 0 0.0 0" transform="translate(142.5564 90.801401) rotate(-90.0)"/><polyline stroke-linecap="round" stroke="black" stroke-width="0.889" points="-0.0 0 0.0 0" transform="translate(142.5564 88.261399) rotate(-90.0)"/><polyline stroke-linecap="round" stroke="black" stroke-width="0.889" points="-0.0 0 0.0 0" transform="translate(145.0964 90.8014) rotate(-90.0)"/><polyline stroke-linecap="round" stroke="black" stroke-width="0.889" points="-0.0 0 0.0 0" transform="translate(145.0964 88.2614) rotate(-90.0)"/><polyline stroke-linecap="round" stroke="black" stroke-width="3.0" points="-0.0 0 0.0 0" transform="translate(133.26 115.16) rotate(-0.0)"/><polyline stroke-linecap="round" stroke="black" stroke-width="3.0" points="-0.0 0 0.0 0" transform="translate(163.74 94.84) rotate(-0.0)"/><polyline stroke-linecap="round" stroke="black" stroke-width="3.0" points="-0.0 0 0.0 0" transform="translate(163.74 115.16) rotate(-0.0)"/><polyline stroke-linecap="round" stroke="black" stroke-width="3.0" points="-0.0 0 0.0 0" transform="translate(133.26 94.84) rotate(-0.0)"/><polyline stroke-linecap="round" stroke="black" stroke-width="0.2" points="-0.0 0 0.0 0" transform="translate(146.0604 107.936799) rotate(-0.0)"/><polyline stroke-linecap="round" stroke="black" stroke-width="0.2" points="-0.0 0 0.0 0" transform="translate(144.9936 105.244399) rotate(-0.0)"/><polyline stroke-linecap="round" stroke="black" stroke-width="0.2" points="-0.0 0 0.0 0" transform="translate(145.5524 104.634799) rotate(-0.0)"/><polyline stroke-linecap="round" stroke="black" stroke-width="0.2" points="-0.0 0 0.0 0" transform="translate(136.891 106.946199) rotate(-0.0)"/><polyline stroke-linecap="round" stroke="black" stroke-width="0.2" points="-0.0 0 0.0 0" transform="translate(142.9108 107.936799) rotate(-0.0)"/><polyline stroke-linecap="round" stroke="black" stroke-width="0.2" points="-0.0 0 0.0 0" transform="translate(154.4932 105.396799) rotate(-0.0)"/><polyline stroke-linecap="round" stroke="black" stroke-width="0.2" points="-0.0 0 0.0 0" transform="translate(144.958 106.380399) rotate(-0.0)"/><polyline stroke-linecap="round" stroke="black" stroke-width="0.2" points="-0.0 0 0.0 0" transform="translate(144.4348 107.936799) rotate(-0.0)"/><polyline stroke-linecap="round" stroke="black" stroke-width="0.2" points="-0.0 0 0.0 0" transform="translate(146.67 105.345999) rotate(-0.0)"/><polyline stroke-linecap="round" stroke="black" stroke-width="0.2" points="-0.0 0 0.0 0" transform="translate(146.67 106.057199) rotate(-0.0)"/><polyline stroke-linecap="round" stroke="black" stroke-width="0.2" points="-0.0 0 0.0 0" transform="translate(154.2646 104.329999) rotate(-0.0)"/><polyline stroke-linecap="round" stroke="black" stroke-width="0.2" points="-0.0 0 0.0 0" transform="translate(143.0378 105.853999) rotate(-0.0)"/><polyline stroke-linecap="round" stroke="black" stroke-width="0.2" points="-0.0 0 0.0 0" transform="translate(155.2044 106.920799) rotate(-0.0)"/><polyline stroke-linecap="round" stroke="black" stroke-width="0.2" points="-0.0 0 0.0 0" transform="translate(156.449 106.895399) rotate(-0.0)"/><polyline stroke-linecap="round" stroke="black" stroke-width="0.2" points="-0.0 0 0.0 0" transform="translate(143.6728 107.936799) rotate(-0.0)"/><polyline stroke-linecap="round" stroke="black" stroke-width="0.2" points="-0.0 0 0.0 0" transform="translate(144.384 105.853999) rotate(-0.0)"/><polyline stroke-linecap="round" stroke="black" stroke-width="0.2" points="-0.0 0 0.0 0" transform="translate(147.178 110.603799) rotate(-0.0)"/><polyline stroke-linecap="round" stroke="black" stroke-width="0.2" points="-0.0 0 0.0 0" transform="translate(145.7048 111.162599) rotate(-0.0)"/><polyline stroke-linecap="round" stroke="black" stroke-width="0.2" points="-0.0 0 0.0 0" transform="translate(139.685 101.637599) rotate(-0.0)"/><polyline stroke-linecap="round" stroke="black" stroke-width="0.2" points="-0.0 0 0.0 0" transform="translate(143.0632 104.634799) rotate(-0.0)"/><polyline stroke-linecap="round" stroke="black" stroke-width="0.2" points="-0.0 0 0.0 0" transform="translate(146.67 103.923599) rotate(-0.0)"/><polyline stroke-linecap="round" stroke="black" stroke-width="0.2" points="-0.0 0 0.0 0" transform="translate(145.5524 105.853999) rotate(-0.0)"/><polyline stroke-linecap="round" stroke="black" stroke-width="0.2" points="-0.0 0 0.0 0" transform="translate(145.2222 107.936799) rotate(-0.0)"/><polyline stroke-linecap="round" stroke="black" stroke-width="0.2" points="-0.0 0 0.0 0" transform="translate(144.3586 106.869999) rotate(-0.0)"/><polyline stroke-linecap="round" stroke="black" stroke-width="0.2" points="-0.0 0 0.0 0" transform="translate(143.0632 106.844599) rotate(-0.0)"/><polyline stroke-linecap="round" stroke="black" stroke-width="0.2" points="-0.0 0 0.0 0" transform="translate(144.4094 104.634799) rotate(-0.0)"/><polyline stroke-linecap="round" stroke="black" stroke-width="0.2" points="-0.0 0 0.0 0" transform="translate(142.4028 99.402399) rotate(-0.0)"/><polyline stroke-linecap="round" stroke="black" stroke-width="0.2" points="-0.0 0 0.0 0" transform="translate(143.6982 105.269799) rotate(-0.0)"/><polyline stroke-linecap="round" stroke="black" stroke-width="0.2" points="-0.0 0 0.0 0" transform="translate(145.5778 106.869999) rotate(-0.0)"/><polyline stroke-linecap="round" stroke="black" stroke-width="0.2" points="-0.0 0 0.0 0" transform="translate(148.2448 100.367599) rotate(-0.0)"/><polyline stroke-linecap="round" stroke="black" stroke-width="0.2" points="-0.0 0 0.0 0" transform="translate(143.7236 106.361999) rotate(-0.0)"/><polyline stroke-linecap="round" stroke="black" stroke-width="0.2" points="-0.0 0 0.0 0" transform="translate(146.67 104.634799) rotate(-0.0)"/><polyline stroke-linecap="round" stroke="black" stroke-width="0.2" points="-0.0 0 0.0 0" transform="translate(146.67 106.768399) rotate(-0.0)"/><polyline stroke-linecap="round" stroke="black" stroke-width="0.2" points="-0.0 0 0.0 0" transform="translate(142.085601 104.6986) rotate(-0.0)"/><polyline stroke-linecap="round" stroke="black" stroke-width="0.2" points="-0.0 0 0.0 0" transform="translate(143.8252 103.339399) rotate(-0.0)"/><polyline stroke-linecap="round" stroke="black" stroke-width="0.2" points="-0.0 0 0.0 0" transform="translate(142.987 101.154999) rotate(-0.0)"/><polyline stroke-linecap="round" stroke="black" stroke-width="0.2" points="-0.0 0 0.0 0" transform="translate(142.352 101.154999) rotate(-0.0)"/><polyline stroke-linecap="round" stroke="black" stroke-width="0.2" points="-0.0 0 0.0 0" transform="translate(139.7866 103.644199) rotate(-0.0)"/><polyline stroke-linecap="round" stroke="black" stroke-width="0.2" points="-0.0 0 0.0 0" transform="translate(138.9484 104.964999) rotate(-0.0)"/><polyline stroke-linecap="round" stroke="black" stroke-width="0.2" points="-0.0 0 0.0 0" transform="translate(139.685 104.761799) rotate(-0.0)"/><polyline stroke-linecap="round" stroke="black" stroke-width="0.2" points="-0.0 0 0.0 0" transform="translate(149.2608 106.031799) rotate(-0.0)"/></g></mask></defs><g transform="" id="boardContainer"><g id="substrate" clip-path="url(#cut-off)" mask="url(#hole-mask)"><g id="substrate-board" style="fill:#f1f4f3; stroke:#f1f4f3;"><path d="M128.4340 119.9860 L128.4340 90.0140 M 168.566 90.014 L 168.566 119.986 L 128.434 119.986 L 128.434 90.014 L 168.566 90.014 " style="fill-rule: evenodd;"/><g style="fill: #f1f4f3;fill-opacity: 1.0000;stroke: #f1f4f3;stroke-opacity: 1.0000;stroke-linecap: round;stroke-linejoin: round" transform="translate(0 0) scale(1 1)">
<path style="fill: none;stroke: #f1f4f3;stroke-width: 0.1500;stroke-opacity: 1;stroke-linecap: round;stroke-linejoin: round" d="M 128.4340,90.0140 168.5660,90.0140 168.5660,119.9860 128.4340,119.9860 Z"/> 
</g> 
</g><g id="substrate-clad" style="fill:#72786c; stroke:#72786c;"><g style="fill: #72786c;fill-opacity: 1.0000;stroke: none">
<circle cx="162.6974" cy="110.1099" r="1.2500"/> 
</g>
<g style="fill: #72786c;fill-opacity: 1.0000;stroke: none">
<circle cx="165.2374" cy="107.5699" r="1.3500"/> 
</g>
<g style="fill: #72786c;fill-opacity: 1.0000;stroke: none">
<circle cx="160.1574" cy="107.5699" r="1.3500"/> 
</g>
<g style="fill: #72786c;fill-opacity: 1.0000;stroke: none">
<circle cx="165.2374" cy="112.6499" r="1.3500"/> 
</g>
<g style="fill: #72786c;fill-opacity: 1.0000;stroke: none">
<circle cx="160.1574" cy="112.6499" r="1.3500"/> 
<path style="fill: #72786c;fill-opacity: 1.0000;stroke: none;fill-rule: evenodd" d="M 140.7784,91.5634 139.2544,91.5634 139.2544,90.0394 140.7784,90.0394 Z"/> 
<path style="fill: #72786c;fill-opacity: 1.0000;stroke: none;fill-rule: evenodd" d="M 140.7784,89.0234 139.2544,89.0234 139.2544,87.4994 140.7784,87.4994 Z"/> 
<path style="fill: #72786c;fill-opacity: 1.0000;stroke: none;fill-rule: evenodd" d="M 143.3184,91.5634 141.7944,91.5634 141.7944,90.0394 143.3184,90.0394 Z"/> 
<path style="fill: #72786c;fill-opacity: 1.0000;stroke: none;fill-rule: evenodd" d="M 143.3184,89.0234 141.7944,89.0234 141.7944,87.4994 143.3184,87.4994 Z"/> 
<path style="fill: #72786c;fill-opacity: 1.0000;stroke: none;fill-rule: evenodd" d="M 145.8584,91.5634 144.3344,91.5634 144.3344,90.0394 145.8584,90.0394 Z"/> 
<path style="fill: #72786c;fill-opacity: 1.0000;stroke: none;fill-rule: evenodd" d="M 145.8584,89.0234 144.3344,89.0234 144.3344,87.4994 145.8584,87.4994 Z"/> 
</g>
<g style="fill: #72786c;fill-opacity: 1.0000;stroke: none">
<circle cx="133.2600" cy="115.1600" r="3.0000"/> 
</g>
<g style="fill: #72786c;fill-opacity: 1.0000;stroke: none">
<circle cx="163.7400" cy="94.8400" r="3.0000"/> 
</g>
<g style="fill: #72786c;fill-opacity: 1.0000;stroke: none">
<circle cx="163.7400" cy="115.1600" r="3.0000"/> 
</g>
<g style="fill: #72786c;fill-opacity: 1.0000;stroke: none">
<circle cx="133.2600" cy="94.8400" r="3.0000"/> 
</g> 
</g><g id="substrate-copper" style="fill:#f8f8f7; stroke:#f8f8f7;"><g style="fill: #f8f8f7;fill-opacity: 1.0000;stroke: none">
<circle cx="162.6974" cy="110.1099" r="1.2500"/> 
</g>
<g style="fill: #f8f8f7;fill-opacity: 1.0000;stroke: none">
<circle cx="165.2374" cy="107.5699" r="1.3500"/> 
</g>
<g style="fill: #f8f8f7;fill-opacity: 1.0000;stroke: none">
<circle cx="160.1574" cy="107.5699" r="1.3500"/> 
</g>
<g style="fill: #f8f8f7;fill-opacity: 1.0000;stroke: none">
<circle cx="165.2374" cy="112.6499" r="1.3500"/> 
</g>
<g style="fill: #f8f8f7;fill-opacity: 1.0000;stroke: none">
<circle cx="160.1574" cy="112.6499" r="1.3500"/> 
<path style="fill: #f8f8f7;fill-opacity: 1.0000;stroke: none;fill-rule: evenodd" d="M 140.7784,91.5634 139.2544,91.5634 139.2544,90.0394 140.7784,90.0394 Z"/> 
<path style="fill: #f8f8f7;fill-opacity: 1.0000;stroke: none;fill-rule: evenodd" d="M 140.7784,89.0234 139.2544,89.0234 139.2544,87.4994 140.7784,87.4994 Z"/> 
<path style="fill: #f8f8f7;fill-opacity: 1.0000;stroke: none;fill-rule: evenodd" d="M 143.3184,91.5634 141.7944,91.5634 141.7944,90.0394 143.3184,90.0394 Z"/> 
<path style="fill: #f8f8f7;fill-opacity: 1.0000;stroke: none;fill-rule: evenodd" d="M 143.3184,89.0234 141.7944,89.0234 141.7944,87.4994 143.3184,87.4994 Z"/> 
<path style="fill: #f8f8f7;fill-opacity: 1.0000;stroke: none;fill-rule: evenodd" d="M 145.8584,91.5634 144.3344,91.5634 144.3344,90.0394 145.8584,90.0394 Z"/> 
<path style="fill: #f8f8f7;fill-opacity: 1.0000;stroke: none;fill-rule: evenodd" d="M 145.8584,89.0234 144.3344,89.0234 144.3344,87.4994 145.8584,87.4994 Z"/> 
</g>
<g style="fill: #f8f8f7;fill-opacity: 1.0000;stroke: none">
<circle cx="133.2600" cy="115.1600" r="3.0000"/> 
</g>
<g style="fill: #f8f8f7;fill-opacity: 1.0000;stroke: none">
<circle cx="163.7400" cy="94.8400" r="3.0000"/> 
</g>
<g style="fill: #f8f8f7;fill-opacity: 1.0000;stroke: none">
<circle cx="163.7400" cy="115.1600" r="3.0000"/> 
</g>
<g style="fill: #f8f8f7;fill-opacity: 1.0000;stroke: none">
<circle cx="133.2600" cy="94.8400" r="3.0000"/> 
</g>
<g style="fill: #f8f8f7;fill-opacity: 1.0000;stroke: none">
<circle cx="146.0604" cy="107.9368" r="0.2300"/> 
</g>
<g style="fill: #f8f8f7;fill-opacity: 1.0000;stroke: none">
<circle cx="144.9936" cy="105.2444" r="0.2300"/> 
</g>
<g style="fill: #f8f8f7;fill-opacity: 1.0000;stroke: none">
<circle cx="145.5524" cy="104.6348" r="0.2300"/> 
</g>
<g style="fill: #f8f8f7;fill-opacity: 1.0000;stroke: none">
<circle cx="136.8910" cy="106.9462" r="0.4000"/> 
</g>
<g style="fill: #f8f8f7;fill-opacity: 1.0000;stroke: none">
<circle cx="142.9108" cy="107.9368" r="0.2300"/> 
</g>
<g style="fill: #f8f8f7;fill-opacity: 1.0000;stroke: none">
<circle cx="154.4932" cy="105.3968" r="0.4000"/> 
</g>
<g style="fill: #f8f8f7;fill-opacity: 1.0000;stroke: none">
<circle cx="144.9580" cy="106.3804" r="0.2300"/> 
</g>
<g style="fill: #f8f8f7;fill-opacity: 1.0000;stroke: none">
<circle cx="144.4348" cy="107.9368" r="0.2300"/> 
</g>
<g style="fill: #f8f8f7;fill-opacity: 1.0000;stroke: none">
<circle cx="146.6700" cy="105.3460" r="0.2300"/> 
</g>
<g style="fill: #f8f8f7;fill-opacity: 1.0000;stroke: none">
<circle cx="146.6700" cy="106.0572" r="0.2300"/> 
</g>
<g style="fill: #f8f8f7;fill-opacity: 1.0000;stroke: none">
<circle cx="154.2646" cy="104.3300" r="0.4000"/> 
</g>
<g style="fill: #f8f8f7;fill-opacity: 1.0000;stroke: none">
<circle cx="143.0378" cy="105.8540" r="0.2300"/> 
</g>
<g style="fill: #f8f8f7;fill-opacity: 1.0000;stroke: none">
<circle cx="155.2044" cy="106.9208" r="0.4000"/> 
</g>
<g style="fill: #f8f8f7;fill-opacity: 1.0000;stroke: none">
<circle cx="156.4490" cy="106.8954" r="0.4000"/> 
</g>
<g style="fill: #f8f8f7;fill-opacity: 1.0000;stroke: none">
<circle cx="143.6728" cy="107.9368" r="0.2300"/> 
</g>
<g style="fill: #f8f8f7;fill-opacity: 1.0000;stroke: none">
<circle cx="144.3840" cy="105.8540" r="0.2300"/> 
</g>
<g style="fill: #f8f8f7;fill-opacity: 1.0000;stroke: none">
<circle cx="147.1780" cy="110.6038" r="0.4000"/> 
</g>
<g style="fill: #f8f8f7;fill-opacity: 1.0000;stroke: none">
<circle cx="145.7048" cy="111.1626" r="0.4000"/> 
</g>
<g style="fill: #f8f8f7;fill-opacity: 1.0000;stroke: none">
<circle cx="139.6850" cy="101.6376" r="0.4000"/> 
</g>
<g style="fill: #f8f8f7;fill-opacity: 1.0000;stroke: none">
<circle cx="143.0632" cy="104.6348" r="0.2300"/> 
</g>
<g style="fill: #f8f8f7;fill-opacity: 1.0000;stroke: none">
<circle cx="146.6700" cy="103.9236" r="0.2300"/> 
</g>
<g style="fill: #f8f8f7;fill-opacity: 1.0000;stroke: none">
<circle cx="145.5524" cy="105.8540" r="0.2300"/> 
</g>
<g style="fill: #f8f8f7;fill-opacity: 1.0000;stroke: none">
<circle cx="145.2222" cy="107.9368" r="0.2300"/> 
</g>
<g style="fill: #f8f8f7;fill-opacity: 1.0000;stroke: none">
<circle cx="144.3586" cy="106.8700" r="0.2300"/> 
</g>
<g style="fill: #f8f8f7;fill-opacity: 1.0000;stroke: none">
<circle cx="143.0632" cy="106.8446" r="0.2300"/> 
</g>
<g style="fill: #f8f8f7;fill-opacity: 1.0000;stroke: none">
<circle cx="144.4094" cy="104.6348" r="0.2300"/> 
</g>
<g style="fill: #f8f8f7;fill-opacity: 1.0000;stroke: none">
<circle cx="142.4028" cy="99.4024" r="0.4000"/> 
</g>
<g style="fill: #f8f8f7;fill-opacity: 1.0000;stroke: none">
<circle cx="143.6982" cy="105.2698" r="0.2300"/> 
</g>
<g style="fill: #f8f8f7;fill-opacity: 1.0000;stroke: none">
<circle cx="145.5778" cy="106.8700" r="0.2300"/> 
</g>
<g style="fill: #f8f8f7;fill-opacity: 1.0000;stroke: none">
<circle cx="148.2448" cy="100.3676" r="0.4000"/> 
</g>
<g style="fill: #f8f8f7;fill-opacity: 1.0000;stroke: none">
<circle cx="143.7236" cy="106.3620" r="0.2300"/> 
</g>
<g style="fill: #f8f8f7;fill-opacity: 1.0000;stroke: none">
<circle cx="146.6700" cy="104.6348" r="0.2300"/> 
</g>
<g style="fill: #f8f8f7;fill-opacity: 1.0000;stroke: none">
<circle cx="146.6700" cy="106.7684" r="0.2300"/> 
</g>
<g style="fill: #f8f8f7;fill-opacity: 1.0000;stroke: none">
<circle cx="142.0856" cy="104.6986" r="0.2300"/> 
</g>
<g style="fill: #f8f8f7;fill-opacity: 1.0000;stroke: none">
<circle cx="143.8252" cy="103.3394" r="0.2300"/> 
</g>
<g style="fill: #f8f8f7;fill-opacity: 1.0000;stroke: none">
<circle cx="142.9870" cy="101.1550" r="0.2300"/> 
</g>
<g style="fill: #f8f8f7;fill-opacity: 1.0000;stroke: none">
<circle cx="142.3520" cy="101.1550" r="0.2300"/> 
</g>
<g style="fill: #f8f8f7;fill-opacity: 1.0000;stroke: none">
<circle cx="139.7866" cy="103.6442" r="0.2300"/> 
</g>
<g style="fill: #f8f8f7;fill-opacity: 1.0000;stroke: none">
<circle cx="138.9484" cy="104.9650" r="0.2300"/> 
</g>
<g style="fill: #f8f8f7;fill-opacity: 1.0000;stroke: none">
<circle cx="139.6850" cy="104.7618" r="0.2300"/> 
</g>
<g style="fill: #f8f8f7;fill-opacity: 1.0000;stroke: none">
<circle cx="149.2608" cy="106.0318" r="0.2300"/> 
</g>
<g style="fill: none;stroke: #f8f8f7;stroke-width: 0.2540;stroke-opacity: 1;stroke-linecap: round;stroke-linejoin: round">
<path d="M159.2563 103.2773 L159.3325 103.2011 "/>
<path d="M160.7498 101.1183 L160.7670 101.1011 "/>
<path style="fill: #f8f8f7;fill-opacity: 1.0000;stroke: none;fill-rule: evenodd" d="M 138.6885,90.2345 138.7350,90.2882 138.7464,90.3405 138.7464,90.5474 139.6498,90.5474 139.6022,90.6298 139.5719,90.7429 139.5719,90.8599 139.6022,90.9730 139.6498,91.0554 138.7464,91.0554 138.7464,91.6120 138.7529,91.6725 138.8040,91.8094 138.8040,91.8094 138.8915,91.9263 139.0084,92.0138 139.1453,92.0649 139.2058,92.0714 139.2058,92.0714 139.7624,92.0714 139.7624,91.1680 139.8448,91.2156 139.9579,91.2459 140.0749,91.2459 140.1880,91.2156 140.2704,91.1680 140.2704,92.0714 140.8270,92.0714 140.8270,92.0714 140.8875,92.0649 141.0244,92.0138 141.0244,92.0138 141.1413,91.9263 141.1852,91.8676 141.2421,91.8251 141.3129,91.8200 141.3752,91.8541 141.3870,91.8676 141.4311,91.9267 141.5482,92.0143 141.5482,92.0143 141.5482,92.0143 141.6073,92.0363 141.6852,92.0654 141.6852,92.0654 141.7457,92.0719 141.7458,92.0719 141.7458,92.0719 141.7458,92.0719 143.3670,92.0719 143.3670,92.0719 143.3670,92.0719 143.3670,92.0719 143.4276,92.0654 143.4276,92.0654 143.4276,92.0654 143.5646,92.0143 143.6817,91.9267 143.7258,91.8676 143.7827,91.8251 143.8535,91.8200 143.9158,91.8541 143.9276,91.8676 143.9715,91.9263 144.0884,92.0138 144.2253,92.0649 144.2858,92.0714 144.2858,92.0714 144.8424,92.0714 144.8424,91.1680 144.9248,91.2156 145.0379,91.2459 145.1549,91.2459 145.2680,91.2156 145.3504,91.1680 145.3504,92.0714 145.9070,92.0714 145.9070,92.0714 145.9675,92.0649 146.1044,92.0138 146.1044,92.0138 146.2213,91.9263 146.3088,91.8094 146.3088,91.8094 146.3599,91.6725 146.3664,91.6120 146.3664,91.6120 146.3664,91.0554 145.4630,91.0554 145.5106,90.9730 145.5409,90.8599 145.5409,90.7429 145.5106,90.6298 145.4630,90.5474 146.3664,90.5474 146.3664,90.3405 146.3864,90.2724 146.4401,90.2259 146.4924,90.2145 168.2395,90.2145 168.3076,90.2345 168.3541,90.2882 168.3655,90.3405 168.3655,119.6595 168.3455,119.7276 168.2918,119.7741 168.2395,119.7855 128.7605,119.7855 128.6924,119.7655 128.6459,119.7118 128.6345,119.6595 128.6345,107.4481 158.2994,107.4481 158.2994,107.6917 158.3312,107.9331 158.3942,108.1684 158.4874,108.3934 158.4874,108.3934 158.6092,108.6044 158.6092,108.6044 158.6763,108.6918 158.6763,108.6918 159.4016,107.9665 159.4041,107.9725 159.4972,108.1117 159.6156,108.2301 159.7548,108.3232 159.7608,108.3257 159.0355,109.0510 159.0355,109.0510 159.1229,109.1181 159.1229,109.1181 159.3339,109.2399 159.3339,109.2399 159.5589,109.3331 159.7942,109.3961 160.0356,109.4279 160.0356,109.4279 160.2792,109.4279 160.2792,109.4279 160.3732,109.4155 160.4434,109.4265 160.4965,109.4736 160.5156,109.5419 160.5114,109.5731 160.4854,109.6699 160.4469,109.9624 160.4469,110.2574 160.4854,110.5499 160.5114,110.6467 160.5097,110.7177 160.4699,110.7765 160.4046,110.8045 160.3732,110.8043 160.2792,110.7919 160.0356,110.7919 159.7942,110.8237 159.5589,110.8867 159.3339,110.9799 159.3339,110.9799 159.1229,111.1017 159.0355,111.1688 159.7608,111.8941 159.7548,111.8966 159.6156,111.9897 159.4972,112.1081 159.4041,112.2473 159.4016,112.2533 158.6763,111.5280 158.6092,111.6154 158.4874,111.8263 158.4874,111.8264 158.3942,112.0514 158.3312,112.2866 158.2994,112.5281 158.2994,112.7717 158.3312,113.0131 158.3942,113.2484 158.4874,113.4734 158.4874,113.4734 158.6092,113.6844 158.6092,113.6844 158.6763,113.7718 158.6763,113.7718 159.4016,113.0465 159.4041,113.0525 159.4972,113.1917 159.6156,113.3101 159.7548,113.4032 159.7608,113.4057 159.0355,114.1310 159.0355,114.1310 159.1229,114.1981 159.1229,114.1981 159.3339,114.3199 159.3339,114.3199 159.5589,114.4131 159.7942,114.4761 160.0356,114.5079 160.0356,114.5079 160.2792,114.5079 160.2792,114.5079 160.5206,114.4761 160.7559,114.4131 160.9809,114.3199 160.9809,114.3199 161.1919,114.1981 161.2793,114.1310 160.5540,113.4057 160.5600,113.4032 160.6992,113.3101 160.8176,113.1917 160.9107,113.0525 160.9132,113.0465 161.6385,113.7718 161.7056,113.6844 161.8274,113.4734 161.8274,113.4734 161.9206,113.2484 161.9836,113.0131 162.0154,112.7717 162.0154,112.7717 162.0154,112.5281 162.0154,112.5281 162.0030,112.4341 162.0140,112.3639 162.0611,112.3108 162.1294,112.2917 162.1606,112.2959 162.2574,112.3219 162.2574,112.3219 162.2574,112.3219 162.2910,112.3263 162.5499,112.3604 162.5499,112.3604 162.8449,112.3604 162.8449,112.3604 163.1374,112.3219 163.2342,112.2959 163.3052,112.2976 163.3640,112.3374 163.3920,112.4027 163.3918,112.4341 163.3794,112.5281 163.3794,112.7717 163.4112,113.0131 163.4742,113.2484 163.5674,113.4734 163.5674,113.4734 163.6892,113.6844 163.6892,113.6844 163.7563,113.7718 163.7563,113.7718 164.4816,113.0465 164.4841,113.0525 164.5772,113.1917 164.6956,113.3101 164.8348,113.4032 164.8408,113.4057 164.1155,114.1310 164.1155,114.1310 164.2029,114.1981 164.2029,114.1981 164.4139,114.3199 164.4139,114.3199 164.6389,114.4131 164.8741,114.4761 165.1156,114.5079 165.1156,114.5079 165.3592,114.5079 165.3592,114.5079 165.6006,114.4761 165.8359,114.4131 166.0609,114.3199 166.0609,114.3199 166.2719,114.1981 166.3593,114.1310 165.6340,113.4057 165.6400,113.4032 165.7792,113.3101 165.8976,113.1917 165.9907,113.0525 165.9932,113.0465 166.7185,113.7718 166.7856,113.6844 166.9074,113.4734 166.9074,113.4734 167.0006,113.2484 167.0636,113.0131 167.0954,112.7717 167.0954,112.7717 167.0954,112.5281 167.0954,112.5281 167.0636,112.2866 167.0006,112.0514 166.9074,111.8264 166.9074,111.8263 166.7856,111.6154 166.7856,111.6154 166.7185,111.5280 165.9932,112.2533 165.9907,112.2473 165.8976,112.1081 165.7792,111.9897 165.6400,111.8966 165.6340,111.8941 166.3593,111.1688 166.3593,111.1688 166.2719,111.1017 166.2719,111.1017 166.0609,110.9799 166.0609,110.9799 165.8359,110.8867 165.6006,110.8237 165.3592,110.7919 165.1156,110.7919 165.0216,110.8043 164.9514,110.7933 164.8983,110.7462 164.8792,110.6779 164.8834,110.6467 164.9094,110.5499 164.9479,110.2574 164.9479,109.9624 164.9094,109.6699 164.8834,109.5731 164.8851,109.5021 164.9249,109.4433 164.9902,109.4153 165.0216,109.4155 165.1156,109.4279 165.1156,109.4279 165.3592,109.4279 165.3592,109.4279 165.6006,109.3961 165.8359,109.3331 166.0609,109.2399 166.0609,109.2399 166.2719,109.1181 166.3593,109.0510 165.6340,108.3257 165.6400,108.3232 165.7792,108.2301 165.8976,108.1117 165.9907,107.9725 165.9932,107.9665 166.7185,108.6918 166.7856,108.6044 166.9074,108.3934 166.9074,108.3934 167.0006,108.1684 167.0636,107.9331 167.0954,107.6917 167.0954,107.6917 167.0954,107.4481 167.0954,107.4481 167.0636,107.2066 167.0006,106.9714 166.9074,106.7464 166.9074,106.7463 166.7856,106.5354 166.7856,106.5354 166.7185,106.4480 165.9932,107.1733 165.9907,107.1673 165.8976,107.0281 165.7792,106.9097 165.6400,106.8166 165.6340,106.8141 166.3593,106.0888 166.3593,106.0888 166.2719,106.0217 166.2719,106.0217 166.0609,105.8999 166.0609,105.8999 165.8359,105.8067 165.6006,105.7437 165.3592,105.7119 165.1156,105.7119 164.8741,105.7437 164.6389,105.8067 164.4139,105.8999 164.4139,105.8999 164.2029,106.0217 164.1155,106.0888 164.8408,106.8141 164.8348,106.8166 164.6956,106.9097 164.5772,107.0281 164.4841,107.1673 164.4816,107.1733 163.7563,106.4480 163.6892,106.5354 163.5674,106.7463 163.5674,106.7464 163.4742,106.9714 163.4112,107.2066 163.3794,107.4481 163.3794,107.6917 163.3918,107.7857 163.3808,107.8559 163.3337,107.9090 163.2654,107.9281 163.2342,107.9239 163.1374,107.8979 162.8449,107.8594 162.8449,107.8594 162.5499,107.8594 162.5499,107.8594 162.2574,107.8979 162.1606,107.9239 162.0896,107.9222 162.0308,107.8824 162.0028,107.8171 162.0030,107.7857 162.0154,107.6917 162.0154,107.6917 162.0154,107.4481 162.0154,107.4481 161.9836,107.2066 161.9206,106.9714 161.8274,106.7464 161.8274,106.7463 161.7056,106.5354 161.7056,106.5354 161.6385,106.4480 160.9132,107.1733 160.9107,107.1673 160.8176,107.0281 160.6992,106.9097 160.5600,106.8166 160.5540,106.8141 161.2793,106.0888 161.2793,106.0888 161.1919,106.0217 161.1919,106.0217 160.9809,105.8999 160.9809,105.8999 160.7559,105.8067 160.5206,105.7437 160.2792,105.7119 160.0356,105.7119 159.7942,105.7437 159.5589,105.8067 159.3339,105.8999 159.3339,105.8999 159.1229,106.0217 159.0355,106.0888 159.7608,106.8141 159.7548,106.8166 159.6156,106.9097 159.4972,107.0281 159.4041,107.1673 159.4016,107.1733 158.6763,106.4480 158.6092,106.5354 158.4874,106.7463 158.4874,106.7464 158.3942,106.9714 158.3312,107.2066 158.2994,107.4481 128.6345,107.4481 128.6345,105.9591 148.5223,105.9591 148.5223,105.9591 148.5223,106.1045 148.5507,106.2472 148.6063,106.3816 148.6507,106.4480 148.6872,106.5026 148.6872,106.5026 148.7900,106.6054 148.7900,106.6054 148.9110,106.6862 149.0454,106.7419 149.1881,106.7703 149.1881,106.7703 149.3335,106.7703 149.3335,106.7703 149.4762,106.7419 149.6106,106.6862 149.7316,106.6054 149.8344,106.5026 149.9152,106.3816 149.9709,106.2472 149.9993,106.1045 149.9993,105.9591 149.9709,105.8164 149.9152,105.6820 149.8344,105.5610 149.8344,105.5610 149.7316,105.4582 149.7316,105.4582 149.6914,105.4313 149.6106,105.3773 149.4762,105.3217 149.3335,105.2933 149.3335,105.2933 149.1881,105.2933 149.1881,105.2933 149.0454,105.3217 149.0454,105.3217 148.9110,105.3773 148.7900,105.4582 148.7900,105.4582 148.6872,105.5610 148.6872,105.5610 148.6063,105.6820 148.5507,105.8164 148.5507,105.8164 148.5223,105.9591 128.6345,105.9591 128.6345,104.8923 138.2099,104.8923 138.2099,105.0377 138.2361,105.1694 138.2383,105.1804 138.2939,105.3148 138.3480,105.3956 138.3748,105.4358 138.3748,105.4358 138.4776,105.5386 138.4776,105.5386 138.5986,105.6194 138.7330,105.6751 138.8757,105.7035 138.8757,105.7035 139.0211,105.7035 139.0211,105.7035 139.1638,105.6751 139.2982,105.6194 139.4192,105.5386 139.4355,105.5222 139.4979,105.4882 139.5492,105.4878 139.6123,105.5003 139.6123,105.5003 139.7577,105.5003 139.7577,105.5003 139.9004,105.4719 140.0348,105.4162 140.1558,105.3354 140.2586,105.2326 140.3394,105.1116 140.3951,104.9772 140.4235,104.8345 140.4235,104.6891 140.4109,104.6259 141.3471,104.6259 141.3471,104.7713 141.3597,104.8345 141.3755,104.9140 141.4312,105.0484 141.4852,105.1292 141.5120,105.1694 141.5120,105.1694 141.6148,105.2722 141.6148,105.2722 141.7358,105.3530 141.8702,105.4087 142.0129,105.4371 142.0129,105.4371 142.1583,105.4371 142.1583,105.4371 142.3010,105.4087 142.4354,105.3530 142.5564,105.2722 142.6592,105.1694 142.7401,105.0484 142.7957,104.9140 142.8241,104.7713 142.8241,104.6259 142.7957,104.4832 142.7401,104.3488 142.6592,104.2278 142.6592,104.2278 142.5564,104.1250 142.5564,104.1250 142.5162,104.0982 142.4354,104.0442 142.3140,103.9938 142.3010,103.9885 142.3010,103.9885 142.1583,103.9601 142.1583,103.9601 142.0129,103.9601 142.0129,103.9601 141.8702,103.9885 141.8702,103.9885 141.7358,104.0442 141.6148,104.1250 141.6148,104.1250 141.5120,104.2278 141.5120,104.2278 141.4312,104.3488 141.3755,104.4832 141.3755,104.4832 141.3471,104.6259 140.4109,104.6259 140.3951,104.5464 140.3394,104.4120 140.2862,104.3324 140.2650,104.2646 140.2838,104.1962 140.3019,104.1733 140.3602,104.1150 140.4410,103.9940 140.4967,103.8596 140.5251,103.7169 140.5251,103.5715 140.4967,103.4288 140.4410,103.2944 140.4225,103.2667 140.4225,103.2667 143.0867,103.2667 143.0867,103.4121 143.1046,103.5021 143.1151,103.5548 143.1707,103.6892 143.1893,103.7169 143.2516,103.8102 143.2516,103.8102 143.3544,103.9130 143.3544,103.9130 143.4754,103.9938 143.6098,104.0495 143.7525,104.0779 143.7525,104.0779 143.8979,104.0779 143.8979,104.0779 144.0406,104.0495 144.1750,103.9938 144.2960,103.9130 144.3988,103.8102 144.4796,103.6892 144.5353,103.5548 144.5637,103.4121 144.5637,103.2667 144.5534,103.2147 158.6208,103.2147 158.6208,103.2147 158.6208,103.3399 158.6452,103.4627 158.6931,103.5783 158.7627,103.6824 158.8512,103.7709 158.9553,103.8405 159.0709,103.8884 159.1937,103.9128 159.1937,103.9128 159.3189,103.9128 159.3189,103.9128 159.4417,103.8884 159.5573,103.8405 159.6614,103.7709 159.8261,103.6062 159.8957,103.5021 159.9436,103.3865 159.9680,103.2637 159.9680,103.1385 159.9436,103.0157 159.8957,102.9001 159.8261,102.7960 159.7376,102.7075 159.6335,102.6379 159.5179,102.5900 159.3951,102.5656 159.3951,102.5656 159.2699,102.5656 159.2699,102.5656 159.1471,102.5900 159.1471,102.5900 159.0315,102.6379 158.9274,102.7075 158.9274,102.7075 158.7627,102.8722 158.7627,102.8722 158.6931,102.9763 158.6452,103.0919 158.6452,103.0919 158.6208,103.2147 144.5534,103.2147 144.5353,103.1240 144.4796,102.9896 144.3988,102.8686 144.3988,102.8686 144.2960,102.7658 144.2960,102.7658 144.2558,102.7389 144.1750,102.6849 144.0406,102.6293 143.8979,102.6009 143.8979,102.6009 143.7525,102.6009 143.7525,102.6009 143.6098,102.6293 143.6098,102.6293 143.4754,102.6849 143.3544,102.7658 143.3544,102.7658 143.2516,102.8686 143.2516,102.8686 143.1707,102.9896 143.1151,103.1240 143.1151,103.1240 143.0867,103.2667 140.4225,103.2667 140.3602,103.1734 140.3602,103.1734 140.2574,103.0706 140.2574,103.0706 140.1753,103.0157 140.1364,102.9897 140.0020,102.9341 139.8593,102.9057 139.8593,102.9057 139.7139,102.9057 139.7139,102.9057 139.5712,102.9341 139.5712,102.9341 139.4368,102.9897 139.3158,103.0706 139.3158,103.0706 139.2130,103.1734 139.2130,103.1734 139.1321,103.2944 139.0765,103.4288 139.0765,103.4288 139.0481,103.5715 139.0481,103.7169 139.0765,103.8596 139.0765,103.8596 139.1321,103.9940 139.1322,103.9940 139.1593,104.0347 139.1805,104.1024 139.1618,104.1709 139.1089,104.2183 139.0389,104.2297 139.0300,104.2283 139.0211,104.2265 139.0211,104.2265 138.8757,104.2265 138.8757,104.2265 138.7330,104.2549 138.7330,104.2549 138.5986,104.3105 138.4776,104.3914 138.4776,104.3914 138.3748,104.4942 138.3748,104.4942 138.2939,104.6152 138.2383,104.7496 138.2383,104.7496 138.2099,104.8923 128.6345,104.8923 128.6345,101.0823 141.6135,101.0823 141.6135,101.0823 141.6135,101.2277 141.6419,101.3704 141.6976,101.5048 141.7516,101.5856 141.7784,101.6258 141.7784,101.6258 141.8812,101.7286 141.8812,101.7286 142.0022,101.8094 142.1366,101.8651 142.2793,101.8935 142.2793,101.8935 142.4247,101.8935 142.4247,101.8935 142.5674,101.8651 142.6213,101.8428 142.6919,101.8352 142.7177,101.8428 142.7716,101.8651 142.9143,101.8935 142.9143,101.8935 143.0597,101.8935 143.0597,101.8935 143.2024,101.8651 143.3368,101.8094 143.4578,101.7286 143.5606,101.6258 143.6414,101.5048 143.6971,101.3704 143.7255,101.2277 143.7255,101.0823 143.6971,100.9396 143.6414,100.8052 143.5606,100.6842 143.5606,100.6842 143.4578,100.5814 143.4578,100.5814 143.4176,100.5545 143.3368,100.5005 143.2024,100.4449 143.0597,100.4165 143.0597,100.4165 142.9143,100.4165 142.9143,100.4165 142.7716,100.4449 142.7716,100.4449 142.7177,100.4672 142.6471,100.4748 142.6213,100.4672 142.5674,100.4449 142.5674,100.4449 142.4247,100.4165 142.4247,100.4165 142.2793,100.4165 142.2793,100.4165 142.1366,100.4449 142.1366,100.4449 142.0022,100.5005 141.8812,100.5814 141.8812,100.5814 141.7784,100.6842 141.7784,100.6842 141.6976,100.8052 141.6419,100.9396 141.6419,100.9396 141.6135,101.0823 128.6345,101.0823 128.6345,90.3405 128.6545,90.2724 128.7082,90.2259 128.7605,90.2145 138.6204,90.2145 Z"/> 
</g> 
</g><g id="substrate-pads" style="fill:#c4c1ba; stroke:#c4c1ba;" mask="url(#pads-mask)"><g style="fill: #c4c1ba;fill-opacity: 1.0000;stroke: none">
<circle cx="162.6974" cy="110.1099" r="1.2500"/> 
</g>
<g style="fill: #c4c1ba;fill-opacity: 1.0000;stroke: none">
<circle cx="165.2374" cy="107.5699" r="1.3500"/> 
</g>
<g style="fill: #c4c1ba;fill-opacity: 1.0000;stroke: none">
<circle cx="160.1574" cy="107.5699" r="1.3500"/> 
</g>
<g style="fill: #c4c1ba;fill-opacity: 1.0000;stroke: none">
<circle cx="165.2374" cy="112.6499" r="1.3500"/> 
</g>
<g style="fill: #c4c1ba;fill-opacity: 1.0000;stroke: none">
<circle cx="160.1574" cy="112.6499" r="1.3500"/> 
<path style="fill: #c4c1ba;fill-opacity: 1.0000;stroke: none;fill-rule: evenodd" d="M 140.7784,91.5634 139.2544,91.5634 139.2544,90.0394 140.7784,90.0394 Z"/> 
<path style="fill: #c4c1ba;fill-opacity: 1.0000;stroke: none;fill-rule: evenodd" d="M 140.7784,89.0234 139.2544,89.0234 139.2544,87.4994 140.7784,87.4994 Z"/> 
<path style="fill: #c4c1ba;fill-opacity: 1.0000;stroke: none;fill-rule: evenodd" d="M 143.3184,91.5634 141.7944,91.5634 141.7944,90.0394 143.3184,90.0394 Z"/> 
<path style="fill: #c4c1ba;fill-opacity: 1.0000;stroke: none;fill-rule: evenodd" d="M 143.3184,89.0234 141.7944,89.0234 141.7944,87.4994 143.3184,87.4994 Z"/> 
<path style="fill: #c4c1ba;fill-opacity: 1.0000;stroke: none;fill-rule: evenodd" d="M 145.8584,91.5634 144.3344,91.5634 144.3344,90.0394 145.8584,90.0394 Z"/> 
<path style="fill: #c4c1ba;fill-opacity: 1.0000;stroke: none;fill-rule: evenodd" d="M 145.8584,89.0234 144.3344,89.0234 144.3344,87.4994 145.8584,87.4994 Z"/> 
</g>
<g style="fill: #c4c1ba;fill-opacity: 1.0000;stroke: none">
<circle cx="133.2600" cy="115.1600" r="3.0000"/> 
</g>
<g style="fill: #c4c1ba;fill-opacity: 1.0000;stroke: none">
<circle cx="163.7400" cy="94.8400" r="3.0000"/> 
</g>
<g style="fill: #c4c1ba;fill-opacity: 1.0000;stroke: none">
<circle cx="163.7400" cy="115.1600" r="3.0000"/> 
</g>
<g style="fill: #c4c1ba;fill-opacity: 1.0000;stroke: none">
<circle cx="133.2600" cy="94.8400" r="3.0000"/> 
</g>
<g style="fill: #c4c1ba;fill-opacity: 1.0000;stroke: none">
<circle cx="146.0604" cy="107.9368" r="0.2300"/> 
</g>
<g style="fill: #c4c1ba;fill-opacity: 1.0000;stroke: none">
<circle cx="144.9936" cy="105.2444" r="0.2300"/> 
</g>
<g style="fill: #c4c1ba;fill-opacity: 1.0000;stroke: none">
<circle cx="145.5524" cy="104.6348" r="0.2300"/> 
</g>
<g style="fill: #c4c1ba;fill-opacity: 1.0000;stroke: none">
<circle cx="136.8910" cy="106.9462" r="0.4000"/> 
</g>
<g style="fill: #c4c1ba;fill-opacity: 1.0000;stroke: none">
<circle cx="142.9108" cy="107.9368" r="0.2300"/> 
</g>
<g style="fill: #c4c1ba;fill-opacity: 1.0000;stroke: none">
<circle cx="154.4932" cy="105.3968" r="0.4000"/> 
</g>
<g style="fill: #c4c1ba;fill-opacity: 1.0000;stroke: none">
<circle cx="144.9580" cy="106.3804" r="0.2300"/> 
</g>
<g style="fill: #c4c1ba;fill-opacity: 1.0000;stroke: none">
<circle cx="144.4348" cy="107.9368" r="0.2300"/> 
</g>
<g style="fill: #c4c1ba;fill-opacity: 1.0000;stroke: none">
<circle cx="146.6700" cy="105.3460" r="0.2300"/> 
</g>
<g style="fill: #c4c1ba;fill-opacity: 1.0000;stroke: none">
<circle cx="146.6700" cy="106.0572" r="0.2300"/> 
</g>
<g style="fill: #c4c1ba;fill-opacity: 1.0000;stroke: none">
<circle cx="154.2646" cy="104.3300" r="0.4000"/> 
</g>
<g style="fill: #c4c1ba;fill-opacity: 1.0000;stroke: none">
<circle cx="143.0378" cy="105.8540" r="0.2300"/> 
</g>
<g style="fill: #c4c1ba;fill-opacity: 1.0000;stroke: none">
<circle cx="155.2044" cy="106.9208" r="0.4000"/> 
</g>
<g style="fill: #c4c1ba;fill-opacity: 1.0000;stroke: none">
<circle cx="156.4490" cy="106.8954" r="0.4000"/> 
</g>
<g style="fill: #c4c1ba;fill-opacity: 1.0000;stroke: none">
<circle cx="143.6728" cy="107.9368" r="0.2300"/> 
</g>
<g style="fill: #c4c1ba;fill-opacity: 1.0000;stroke: none">
<circle cx="144.3840" cy="105.8540" r="0.2300"/> 
</g>
<g style="fill: #c4c1ba;fill-opacity: 1.0000;stroke: none">
<circle cx="147.1780" cy="110.6038" r="0.4000"/> 
</g>
<g style="fill: #c4c1ba;fill-opacity: 1.0000;stroke: none">
<circle cx="145.7048" cy="111.1626" r="0.4000"/> 
</g>
<g style="fill: #c4c1ba;fill-opacity: 1.0000;stroke: none">
<circle cx="139.6850" cy="101.6376" r="0.4000"/> 
</g>
<g style="fill: #c4c1ba;fill-opacity: 1.0000;stroke: none">
<circle cx="143.0632" cy="104.6348" r="0.2300"/> 
</g>
<g style="fill: #c4c1ba;fill-opacity: 1.0000;stroke: none">
<circle cx="146.6700" cy="103.9236" r="0.2300"/> 
</g>
<g style="fill: #c4c1ba;fill-opacity: 1.0000;stroke: none">
<circle cx="145.5524" cy="105.8540" r="0.2300"/> 
</g>
<g style="fill: #c4c1ba;fill-opacity: 1.0000;stroke: none">
<circle cx="145.2222" cy="107.9368" r="0.2300"/> 
</g>
<g style="fill: #c4c1ba;fill-opacity: 1.0000;stroke: none">
<circle cx="144.3586" cy="106.8700" r="0.2300"/> 
</g>
<g style="fill: #c4c1ba;fill-opacity: 1.0000;stroke: none">
<circle cx="143.0632" cy="106.8446" r="0.2300"/> 
</g>
<g style="fill: #c4c1ba;fill-opacity: 1.0000;stroke: none">
<circle cx="144.4094" cy="104.6348" r="0.2300"/> 
</g>
<g style="fill: #c4c1ba;fill-opacity: 1.0000;stroke: none">
<circle cx="142.4028" cy="99.4024" r="0.4000"/> 
</g>
<g style="fill: #c4c1ba;fill-opacity: 1.0000;stroke: none">
<circle cx="143.6982" cy="105.2698" r="0.2300"/> 
</g>
<g style="fill: #c4c1ba;fill-opacity: 1.0000;stroke: none">
<circle cx="145.5778" cy="106.8700" r="0.2300"/> 
</g>
<g style="fill: #c4c1ba;fill-opacity: 1.0000;stroke: none">
<circle cx="148.2448" cy="100.3676" r="0.4000"/> 
</g>
<g style="fill: #c4c1ba;fill-opacity: 1.0000;stroke: none">
<circle cx="143.7236" cy="106.3620" r="0.2300"/> 
</g>
<g style="fill: #c4c1ba;fill-opacity: 1.0000;stroke: none">
<circle cx="146.6700" cy="104.6348" r="0.2300"/> 
</g>
<g style="fill: #c4c1ba;fill-opacity: 1.0000;stroke: none">
<circle cx="146.6700" cy="106.7684" r="0.2300"/> 
</g>
<g style="fill: #c4c1ba;fill-opacity: 1.0000;stroke: none">
<circle cx="142.0856" cy="104.6986" r="0.2300"/> 
</g>
<g style="fill: #c4c1ba;fill-opacity: 1.0000;stroke: none">
<circle cx="143.8252" cy="103.3394" r="0.2300"/> 
</g>
<g style="fill: #c4c1ba;fill-opacity: 1.0000;stroke: none">
<circle cx="142.9870" cy="101.1550" r="0.2300"/> 
</g>
<g style="fill: #c4c1ba;fill-opacity: 1.0000;stroke: none">
<circle cx="142.3520" cy="101.1550" r="0.2300"/> 
</g>
<g style="fill: #c4c1ba;fill-opacity: 1.0000;stroke: none">
<circle cx="139.7866" cy="103.6442" r="0.2300"/> 
</g>
<g style="fill: #c4c1ba;fill-opacity: 1.0000;stroke: none">
<circle cx="138.9484" cy="104.9650" r="0.2300"/> 
</g>
<g style="fill: #c4c1ba;fill-opacity: 1.0000;stroke: none">
<circle cx="139.6850" cy="104.7618" r="0.2300"/> 
</g>
<g style="fill: #c4c1ba;fill-opacity: 1.0000;stroke: none">
<circle cx="149.2608" cy="106.0318" r="0.2300"/> 
</g>
<g style="fill: none;stroke: #c4c1ba;stroke-width: 0.2540;stroke-opacity: 1;stroke-linecap: round;stroke-linejoin: round">
<path d="M159.2563 103.2773 L159.3325 103.2011 "/>
<path d="M160.7498 101.1183 L160.7670 101.1011 "/>
<path style="fill: #c4c1ba;fill-opacity: 1.0000;stroke: none;fill-rule: evenodd" d="M 138.6885,90.2345 138.7350,90.2882 138.7464,90.3405 138.7464,90.5474 139.6498,90.5474 139.6022,90.6298 139.5719,90.7429 139.5719,90.8599 139.6022,90.9730 139.6498,91.0554 138.7464,91.0554 138.7464,91.6120 138.7529,91.6725 138.8040,91.8094 138.8040,91.8094 138.8915,91.9263 139.0084,92.0138 139.1453,92.0649 139.2058,92.0714 139.2058,92.0714 139.7624,92.0714 139.7624,91.1680 139.8448,91.2156 139.9579,91.2459 140.0749,91.2459 140.1880,91.2156 140.2704,91.1680 140.2704,92.0714 140.8270,92.0714 140.8270,92.0714 140.8875,92.0649 141.0244,92.0138 141.0244,92.0138 141.1413,91.9263 141.1852,91.8676 141.2421,91.8251 141.3129,91.8200 141.3752,91.8541 141.3870,91.8676 141.4311,91.9267 141.5482,92.0143 141.5482,92.0143 141.5482,92.0143 141.6073,92.0363 141.6852,92.0654 141.6852,92.0654 141.7457,92.0719 141.7458,92.0719 141.7458,92.0719 141.7458,92.0719 143.3670,92.0719 143.3670,92.0719 143.3670,92.0719 143.3670,92.0719 143.4276,92.0654 143.4276,92.0654 143.4276,92.0654 143.5646,92.0143 143.6817,91.9267 143.7258,91.8676 143.7827,91.8251 143.8535,91.8200 143.9158,91.8541 143.9276,91.8676 143.9715,91.9263 144.0884,92.0138 144.2253,92.0649 144.2858,92.0714 144.2858,92.0714 144.8424,92.0714 144.8424,91.1680 144.9248,91.2156 145.0379,91.2459 145.1549,91.2459 145.2680,91.2156 145.3504,91.1680 145.3504,92.0714 145.9070,92.0714 145.9070,92.0714 145.9675,92.0649 146.1044,92.0138 146.1044,92.0138 146.2213,91.9263 146.3088,91.8094 146.3088,91.8094 146.3599,91.6725 146.3664,91.6120 146.3664,91.6120 146.3664,91.0554 145.4630,91.0554 145.5106,90.9730 145.5409,90.8599 145.5409,90.7429 145.5106,90.6298 145.4630,90.5474 146.3664,90.5474 146.3664,90.3405 146.3864,90.2724 146.4401,90.2259 146.4924,90.2145 168.2395,90.2145 168.3076,90.2345 168.3541,90.2882 168.3655,90.3405 168.3655,119.6595 168.3455,119.7276 168.2918,119.7741 168.2395,119.7855 128.7605,119.7855 128.6924,119.7655 128.6459,119.7118 128.6345,119.6595 128.6345,107.4481 158.2994,107.4481 158.2994,107.6917 158.3312,107.9331 158.3942,108.1684 158.4874,108.3934 158.4874,108.3934 158.6092,108.6044 158.6092,108.6044 158.6763,108.6918 158.6763,108.6918 159.4016,107.9665 159.4041,107.9725 159.4972,108.1117 159.6156,108.2301 159.7548,108.3232 159.7608,108.3257 159.0355,109.0510 159.0355,109.0510 159.1229,109.1181 159.1229,109.1181 159.3339,109.2399 159.3339,109.2399 159.5589,109.3331 159.7942,109.3961 160.0356,109.4279 160.0356,109.4279 160.2792,109.4279 160.2792,109.4279 160.3732,109.4155 160.4434,109.4265 160.4965,109.4736 160.5156,109.5419 160.5114,109.5731 160.4854,109.6699 160.4469,109.9624 160.4469,110.2574 160.4854,110.5499 160.5114,110.6467 160.5097,110.7177 160.4699,110.7765 160.4046,110.8045 160.3732,110.8043 160.2792,110.7919 160.0356,110.7919 159.7942,110.8237 159.5589,110.8867 159.3339,110.9799 159.3339,110.9799 159.1229,111.1017 159.0355,111.1688 159.7608,111.8941 159.7548,111.8966 159.6156,111.9897 159.4972,112.1081 159.4041,112.2473 159.4016,112.2533 158.6763,111.5280 158.6092,111.6154 158.4874,111.8263 158.4874,111.8264 158.3942,112.0514 158.3312,112.2866 158.2994,112.5281 158.2994,112.7717 158.3312,113.0131 158.3942,113.2484 158.4874,113.4734 158.4874,113.4734 158.6092,113.6844 158.6092,113.6844 158.6763,113.7718 158.6763,113.7718 159.4016,113.0465 159.4041,113.0525 159.4972,113.1917 159.6156,113.3101 159.7548,113.4032 159.7608,113.4057 159.0355,114.1310 159.0355,114.1310 159.1229,114.1981 159.1229,114.1981 159.3339,114.3199 159.3339,114.3199 159.5589,114.4131 159.7942,114.4761 160.0356,114.5079 160.0356,114.5079 160.2792,114.5079 160.2792,114.5079 160.5206,114.4761 160.7559,114.4131 160.9809,114.3199 160.9809,114.3199 161.1919,114.1981 161.2793,114.1310 160.5540,113.4057 160.5600,113.4032 160.6992,113.3101 160.8176,113.1917 160.9107,113.0525 160.9132,113.0465 161.6385,113.7718 161.7056,113.6844 161.8274,113.4734 161.8274,113.4734 161.9206,113.2484 161.9836,113.0131 162.0154,112.7717 162.0154,112.7717 162.0154,112.5281 162.0154,112.5281 162.0030,112.4341 162.0140,112.3639 162.0611,112.3108 162.1294,112.2917 162.1606,112.2959 162.2574,112.3219 162.2574,112.3219 162.2574,112.3219 162.2910,112.3263 162.5499,112.3604 162.5499,112.3604 162.8449,112.3604 162.8449,112.3604 163.1374,112.3219 163.2342,112.2959 163.3052,112.2976 163.3640,112.3374 163.3920,112.4027 163.3918,112.4341 163.3794,112.5281 163.3794,112.7717 163.4112,113.0131 163.4742,113.2484 163.5674,113.4734 163.5674,113.4734 163.6892,113.6844 163.6892,113.6844 163.7563,113.7718 163.7563,113.7718 164.4816,113.0465 164.4841,113.0525 164.5772,113.1917 164.6956,113.3101 164.8348,113.4032 164.8408,113.4057 164.1155,114.1310 164.1155,114.1310 164.2029,114.1981 164.2029,114.1981 164.4139,114.3199 164.4139,114.3199 164.6389,114.4131 164.8741,114.4761 165.1156,114.5079 165.1156,114.5079 165.3592,114.5079 165.3592,114.5079 165.6006,114.4761 165.8359,114.4131 166.0609,114.3199 166.0609,114.3199 166.2719,114.1981 166.3593,114.1310 165.6340,113.4057 165.6400,113.4032 165.7792,113.3101 165.8976,113.1917 165.9907,113.0525 165.9932,113.0465 166.7185,113.7718 166.7856,113.6844 166.9074,113.4734 166.9074,113.4734 167.0006,113.2484 167.0636,113.0131 167.0954,112.7717 167.0954,112.7717 167.0954,112.5281 167.0954,112.5281 167.0636,112.2866 167.0006,112.0514 166.9074,111.8264 166.9074,111.8263 166.7856,111.6154 166.7856,111.6154 166.7185,111.5280 165.9932,112.2533 165.9907,112.2473 165.8976,112.1081 165.7792,111.9897 165.6400,111.8966 165.6340,111.8941 166.3593,111.1688 166.3593,111.1688 166.2719,111.1017 166.2719,111.1017 166.0609,110.9799 166.0609,110.9799 165.8359,110.8867 165.6006,110.8237 165.3592,110.7919 165.1156,110.7919 165.0216,110.8043 164.9514,110.7933 164.8983,110.7462 164.8792,110.6779 164.8834,110.6467 164.9094,110.5499 164.9479,110.2574 164.9479,109.9624 164.9094,109.6699 164.8834,109.5731 164.8851,109.5021 164.9249,109.4433 164.9902,109.4153 165.0216,109.4155 165.1156,109.4279 165.1156,109.4279 165.3592,109.4279 165.3592,109.4279 165.6006,109.3961 165.8359,109.3331 166.0609,109.2399 166.0609,109.2399 166.2719,109.1181 166.3593,109.0510 165.6340,108.3257 165.6400,108.3232 165.7792,108.2301 165.8976,108.1117 165.9907,107.9725 165.9932,107.9665 166.7185,108.6918 166.7856,108.6044 166.9074,108.3934 166.9074,108.3934 167.0006,108.1684 167.0636,107.9331 167.0954,107.6917 167.0954,107.6917 167.0954,107.4481 167.0954,107.4481 167.0636,107.2066 167.0006,106.9714 166.9074,106.7464 166.9074,106.7463 166.7856,106.5354 166.7856,106.5354 166.7185,106.4480 165.9932,107.1733 165.9907,107.1673 165.8976,107.0281 165.7792,106.9097 165.6400,106.8166 165.6340,106.8141 166.3593,106.0888 166.3593,106.0888 166.2719,106.0217 166.2719,106.0217 166.0609,105.8999 166.0609,105.8999 165.8359,105.8067 165.6006,105.7437 165.3592,105.7119 165.1156,105.7119 164.8741,105.7437 164.6389,105.8067 164.4139,105.8999 164.4139,105.8999 164.2029,106.0217 164.1155,106.0888 164.8408,106.8141 164.8348,106.8166 164.6956,106.9097 164.5772,107.0281 164.4841,107.1673 164.4816,107.1733 163.7563,106.4480 163.6892,106.5354 163.5674,106.7463 163.5674,106.7464 163.4742,106.9714 163.4112,107.2066 163.3794,107.4481 163.3794,107.6917 163.3918,107.7857 163.3808,107.8559 163.3337,107.9090 163.2654,107.9281 163.2342,107.9239 163.1374,107.8979 162.8449,107.8594 162.8449,107.8594 162.5499,107.8594 162.5499,107.8594 162.2574,107.8979 162.1606,107.9239 162.0896,107.9222 162.0308,107.8824 162.0028,107.8171 162.0030,107.7857 162.0154,107.6917 162.0154,107.6917 162.0154,107.4481 162.0154,107.4481 161.9836,107.2066 161.9206,106.9714 161.8274,106.7464 161.8274,106.7463 161.7056,106.5354 161.7056,106.5354 161.6385,106.4480 160.9132,107.1733 160.9107,107.1673 160.8176,107.0281 160.6992,106.9097 160.5600,106.8166 160.5540,106.8141 161.2793,106.0888 161.2793,106.0888 161.1919,106.0217 161.1919,106.0217 160.9809,105.8999 160.9809,105.8999 160.7559,105.8067 160.5206,105.7437 160.2792,105.7119 160.0356,105.7119 159.7942,105.7437 159.5589,105.8067 159.3339,105.8999 159.3339,105.8999 159.1229,106.0217 159.0355,106.0888 159.7608,106.8141 159.7548,106.8166 159.6156,106.9097 159.4972,107.0281 159.4041,107.1673 159.4016,107.1733 158.6763,106.4480 158.6092,106.5354 158.4874,106.7463 158.4874,106.7464 158.3942,106.9714 158.3312,107.2066 158.2994,107.4481 128.6345,107.4481 128.6345,105.9591 148.5223,105.9591 148.5223,105.9591 148.5223,106.1045 148.5507,106.2472 148.6063,106.3816 148.6507,106.4480 148.6872,106.5026 148.6872,106.5026 148.7900,106.6054 148.7900,106.6054 148.9110,106.6862 149.0454,106.7419 149.1881,106.7703 149.1881,106.7703 149.3335,106.7703 149.3335,106.7703 149.4762,106.7419 149.6106,106.6862 149.7316,106.6054 149.8344,106.5026 149.9152,106.3816 149.9709,106.2472 149.9993,106.1045 149.9993,105.9591 149.9709,105.8164 149.9152,105.6820 149.8344,105.5610 149.8344,105.5610 149.7316,105.4582 149.7316,105.4582 149.6914,105.4313 149.6106,105.3773 149.4762,105.3217 149.3335,105.2933 149.3335,105.2933 149.1881,105.2933 149.1881,105.2933 149.0454,105.3217 149.0454,105.3217 148.9110,105.3773 148.7900,105.4582 148.7900,105.4582 148.6872,105.5610 148.6872,105.5610 148.6063,105.6820 148.5507,105.8164 148.5507,105.8164 148.5223,105.9591 128.6345,105.9591 128.6345,104.8923 138.2099,104.8923 138.2099,105.0377 138.2361,105.1694 138.2383,105.1804 138.2939,105.3148 138.3480,105.3956 138.3748,105.4358 138.3748,105.4358 138.4776,105.5386 138.4776,105.5386 138.5986,105.6194 138.7330,105.6751 138.8757,105.7035 138.8757,105.7035 139.0211,105.7035 139.0211,105.7035 139.1638,105.6751 139.2982,105.6194 139.4192,105.5386 139.4355,105.5222 139.4979,105.4882 139.5492,105.4878 139.6123,105.5003 139.6123,105.5003 139.7577,105.5003 139.7577,105.5003 139.9004,105.4719 140.0348,105.4162 140.1558,105.3354 140.2586,105.2326 140.3394,105.1116 140.3951,104.9772 140.4235,104.8345 140.4235,104.6891 140.4109,104.6259 141.3471,104.6259 141.3471,104.7713 141.3597,104.8345 141.3755,104.9140 141.4312,105.0484 141.4852,105.1292 141.5120,105.1694 141.5120,105.1694 141.6148,105.2722 141.6148,105.2722 141.7358,105.3530 141.8702,105.4087 142.0129,105.4371 142.0129,105.4371 142.1583,105.4371 142.1583,105.4371 142.3010,105.4087 142.4354,105.3530 142.5564,105.2722 142.6592,105.1694 142.7401,105.0484 142.7957,104.9140 142.8241,104.7713 142.8241,104.6259 142.7957,104.4832 142.7401,104.3488 142.6592,104.2278 142.6592,104.2278 142.5564,104.1250 142.5564,104.1250 142.5162,104.0982 142.4354,104.0442 142.3140,103.9938 142.3010,103.9885 142.3010,103.9885 142.1583,103.9601 142.1583,103.9601 142.0129,103.9601 142.0129,103.9601 141.8702,103.9885 141.8702,103.9885 141.7358,104.0442 141.6148,104.1250 141.6148,104.1250 141.5120,104.2278 141.5120,104.2278 141.4312,104.3488 141.3755,104.4832 141.3755,104.4832 141.3471,104.6259 140.4109,104.6259 140.3951,104.5464 140.3394,104.4120 140.2862,104.3324 140.2650,104.2646 140.2838,104.1962 140.3019,104.1733 140.3602,104.1150 140.4410,103.9940 140.4967,103.8596 140.5251,103.7169 140.5251,103.5715 140.4967,103.4288 140.4410,103.2944 140.4225,103.2667 140.4225,103.2667 143.0867,103.2667 143.0867,103.4121 143.1046,103.5021 143.1151,103.5548 143.1707,103.6892 143.1893,103.7169 143.2516,103.8102 143.2516,103.8102 143.3544,103.9130 143.3544,103.9130 143.4754,103.9938 143.6098,104.0495 143.7525,104.0779 143.7525,104.0779 143.8979,104.0779 143.8979,104.0779 144.0406,104.0495 144.1750,103.9938 144.2960,103.9130 144.3988,103.8102 144.4796,103.6892 144.5353,103.5548 144.5637,103.4121 144.5637,103.2667 144.5534,103.2147 158.6208,103.2147 158.6208,103.2147 158.6208,103.3399 158.6452,103.4627 158.6931,103.5783 158.7627,103.6824 158.8512,103.7709 158.9553,103.8405 159.0709,103.8884 159.1937,103.9128 159.1937,103.9128 159.3189,103.9128 159.3189,103.9128 159.4417,103.8884 159.5573,103.8405 159.6614,103.7709 159.8261,103.6062 159.8957,103.5021 159.9436,103.3865 159.9680,103.2637 159.9680,103.1385 159.9436,103.0157 159.8957,102.9001 159.8261,102.7960 159.7376,102.7075 159.6335,102.6379 159.5179,102.5900 159.3951,102.5656 159.3951,102.5656 159.2699,102.5656 159.2699,102.5656 159.1471,102.5900 159.1471,102.5900 159.0315,102.6379 158.9274,102.7075 158.9274,102.7075 158.7627,102.8722 158.7627,102.8722 158.6931,102.9763 158.6452,103.0919 158.6452,103.0919 158.6208,103.2147 144.5534,103.2147 144.5353,103.1240 144.4796,102.9896 144.3988,102.8686 144.3988,102.8686 144.2960,102.7658 144.2960,102.7658 144.2558,102.7389 144.1750,102.6849 144.0406,102.6293 143.8979,102.6009 143.8979,102.6009 143.7525,102.6009 143.7525,102.6009 143.6098,102.6293 143.6098,102.6293 143.4754,102.6849 143.3544,102.7658 143.3544,102.7658 143.2516,102.8686 143.2516,102.8686 143.1707,102.9896 143.1151,103.1240 143.1151,103.1240 143.0867,103.2667 140.4225,103.2667 140.3602,103.1734 140.3602,103.1734 140.2574,103.0706 140.2574,103.0706 140.1753,103.0157 140.1364,102.9897 140.0020,102.9341 139.8593,102.9057 139.8593,102.9057 139.7139,102.9057 139.7139,102.9057 139.5712,102.9341 139.5712,102.9341 139.4368,102.9897 139.3158,103.0706 139.3158,103.0706 139.2130,103.1734 139.2130,103.1734 139.1321,103.2944 139.0765,103.4288 139.0765,103.4288 139.0481,103.5715 139.0481,103.7169 139.0765,103.8596 139.0765,103.8596 139.1321,103.9940 139.1322,103.9940 139.1593,104.0347 139.1805,104.1024 139.1618,104.1709 139.1089,104.2183 139.0389,104.2297 139.0300,104.2283 139.0211,104.2265 139.0211,104.2265 138.8757,104.2265 138.8757,104.2265 138.7330,104.2549 138.7330,104.2549 138.5986,104.3105 138.4776,104.3914 138.4776,104.3914 138.3748,104.4942 138.3748,104.4942 138.2939,104.6152 138.2383,104.7496 138.2383,104.7496 138.2099,104.8923 128.6345,104.8923 128.6345,101.0823 141.6135,101.0823 141.6135,101.0823 141.6135,101.2277 141.6419,101.3704 141.6976,101.5048 141.7516,101.5856 141.7784,101.6258 141.7784,101.6258 141.8812,101.7286 141.8812,101.7286 142.0022,101.8094 142.1366,101.8651 142.2793,101.8935 142.2793,101.8935 142.4247,101.8935 142.4247,101.8935 142.5674,101.8651 142.6213,101.8428 142.6919,101.8352 142.7177,101.8428 142.7716,101.8651 142.9143,101.8935 142.9143,101.8935 143.0597,101.8935 143.0597,101.8935 143.2024,101.8651 143.3368,101.8094 143.4578,101.7286 143.5606,101.6258 143.6414,101.5048 143.6971,101.3704 143.7255,101.2277 143.7255,101.0823 143.6971,100.9396 143.6414,100.8052 143.5606,100.6842 143.5606,100.6842 143.4578,100.5814 143.4578,100.5814 143.4176,100.5545 143.3368,100.5005 143.2024,100.4449 143.0597,100.4165 143.0597,100.4165 142.9143,100.4165 142.9143,100.4165 142.7716,100.4449 142.7716,100.4449 142.7177,100.4672 142.6471,100.4748 142.6213,100.4672 142.5674,100.4449 142.5674,100.4449 142.4247,100.4165 142.4247,100.4165 142.2793,100.4165 142.2793,100.4165 142.1366,100.4449 142.1366,100.4449 142.0022,100.5005 141.8812,100.5814 141.8812,100.5814 141.7784,100.6842 141.7784,100.6842 141.6976,100.8052 141.6419,100.9396 141.6419,100.9396 141.6135,101.0823 128.6345,101.0823 128.6345,90.3405 128.6545,90.2724 128.7082,90.2259 128.7605,90.2145 138.6204,90.2145 Z"/> 
</g> 
</g><g id="substrate-silk" style="fill:#0b1013; stroke:#0b1013;" mask="url(#pads-mask-silkscreen)"><g style="fill: #0b1013;fill-opacity: 1.0000;stroke: #0b1013;stroke-opacity: 1.0000;stroke-linecap: round;stroke-linejoin: round" transform="translate(0 0) scale(1 1)">
<path style="fill: #0b1013;fill-opacity: 1.0000;stroke: none;fill-rule: evenodd" d="M 168.0554,110.5299 168.0624,110.5306 168.0640,110.5305 168.0654,110.5306 168.0677,110.5311 168.0701,110.5314 168.0715,110.5317 168.0729,110.5323 168.0798,110.5339 168.0803,110.5340 168.2945,110.6054 168.2950,110.6056 168.3084,110.6116 168.3097,110.6124 168.3111,110.6136 168.3128,110.6143 168.3141,110.6151 168.3254,110.6244 168.3258,110.6248 168.4687,110.7676 168.4690,110.7680 168.4783,110.7793 168.4791,110.7806 168.4798,110.7823 168.4810,110.7838 168.4818,110.7850 168.4878,110.7984 168.4880,110.7989 168.5594,111.0132 168.5596,111.0136 168.5611,111.0205 168.5617,111.0219 168.5621,111.0233 168.5623,111.0257 168.5628,111.0280 168.5629,111.0294 168.5628,111.0310 168.5635,111.0380 168.5635,111.0385 168.5635,111.1813 168.5635,111.1818 168.5621,111.1964 168.5617,111.1979 168.5505,111.2249 168.5494,111.2265 168.5287,111.2472 168.5271,111.2483 168.5001,111.2595 168.4982,111.2599 168.4689,111.2599 168.4670,111.2595 168.4399,111.2483 168.4383,111.2472 168.4176,111.2265 168.4165,111.2249 168.4053,111.1979 168.4050,111.1964 168.4036,111.1818 168.4035,111.1813 168.4035,111.0514 168.3422,110.8674 168.2260,110.7512 168.0420,110.6899 166.9835,110.6899 166.9830,110.6899 166.9684,110.6884 166.9670,110.6881 166.9399,110.6769 166.9383,110.6758 166.9176,110.6551 166.9165,110.6535 166.9053,110.6264 166.9050,110.6245 166.9050,110.5953 166.9053,110.5934 166.9165,110.5663 166.9176,110.5647 166.9383,110.5440 166.9399,110.5429 166.9670,110.5317 166.9684,110.5314 166.9830,110.5299 166.9835,110.5299 168.0550,110.5299 Z"/> 
<path style="fill: #0b1013;fill-opacity: 1.0000;stroke: none;fill-rule: evenodd" d="M 159.2645,109.0315 159.2852,109.0522 159.2964,109.0793 159.2978,109.0939 159.2978,111.1259 159.2964,111.1405 159.2852,111.1676 159.2645,111.1883 159.2374,111.1995 159.2082,111.1995 159.1811,111.1883 159.1604,111.1676 159.1492,111.1405 159.1478,111.1259 159.1478,109.0939 159.1492,109.0793 159.1604,109.0522 159.1811,109.0315 159.2082,109.0203 159.2374,109.0203 Z"/> 
<path style="fill: #0b1013;fill-opacity: 1.0000;stroke: none;fill-rule: evenodd" d="M 166.2391,109.0315 166.2598,109.0522 166.2710,109.0793 166.2724,109.0939 166.2724,111.1259 166.2710,111.1405 166.2598,111.1676 166.2391,111.1883 166.2120,111.1995 166.1828,111.1995 166.1557,111.1883 166.1350,111.1676 166.1238,111.1405 166.1224,111.1259 166.1224,109.0939 166.1238,109.0793 166.1350,109.0522 166.1557,109.0315 166.1828,109.0203 166.2120,109.0203 Z"/> 
<path style="fill: #0b1013;fill-opacity: 1.0000;stroke: none;fill-rule: evenodd" d="M 168.5001,109.0317 168.5271,109.0429 168.5287,109.0440 168.5494,109.0647 168.5505,109.0663 168.5617,109.0934 168.5621,109.0948 168.5635,109.1094 168.5635,109.1099 168.5635,109.9670 168.5635,109.9675 168.5621,109.9822 168.5617,109.9836 168.5505,110.0106 168.5494,110.0122 168.5287,110.0329 168.5271,110.0340 168.5001,110.0452 168.4982,110.0456 168.4689,110.0456 168.4670,110.0452 168.4399,110.0340 168.4383,110.0329 168.4176,110.0122 168.4165,110.0106 168.4053,109.9836 168.4050,109.9822 168.4036,109.9675 168.4035,109.9670 168.4035,109.6185 167.2468,109.6185 167.2481,109.6196 167.2540,109.6244 167.2540,109.6244 167.2540,109.6244 167.2540,109.6244 167.2544,109.6248 167.3972,109.7676 167.3976,109.7680 167.4020,109.7734 167.4032,109.7744 167.4042,109.7755 167.4054,109.7775 167.4069,109.7793 167.4076,109.7806 167.4082,109.7820 167.4120,109.7880 167.4122,109.7884 167.4837,109.9313 167.4839,109.9317 167.4891,109.9454 167.4894,109.9469 167.4915,109.9761 167.4913,109.9780 167.4820,110.0058 167.4810,110.0075 167.4619,110.0296 167.4603,110.0308 167.4341,110.0438 167.4323,110.0444 167.4031,110.0464 167.4011,110.0462 167.3734,110.0369 167.3717,110.0360 167.3496,110.0168 167.3486,110.0157 167.3408,110.0032 167.3405,110.0028 167.2749,109.8716 167.1468,109.7435 166.9392,109.6050 166.9388,109.6048 166.9387,109.6047 166.9388,109.6047 166.9387,109.6046 166.9386,109.6046 166.9274,109.5954 166.9264,109.5943 166.9225,109.5886 166.9176,109.5837 166.9165,109.5821 166.9139,109.5757 166.9101,109.5700 166.9094,109.5682 166.9080,109.5614 166.9053,109.5550 166.9050,109.5531 166.9050,109.5462 166.9036,109.5395 166.9036,109.5376 166.9050,109.5308 166.9050,109.5238 166.9053,109.5219 166.9080,109.5156 166.9093,109.5089 166.9100,109.5071 166.9139,109.5013 166.9165,109.4949 166.9176,109.4933 166.9225,109.4884 166.9263,109.4827 166.9277,109.4813 166.9334,109.4775 166.9383,109.4726 166.9399,109.4715 166.9463,109.4689 166.9520,109.4651 166.9538,109.4643 166.9606,109.4629 166.9670,109.4603 166.9684,109.4599 166.9829,109.4585 166.9829,109.4586 166.9830,109.4586 166.9830,109.4585 166.9831,109.4585 166.9835,109.4585 168.4035,109.4585 168.4035,109.1099 168.4036,109.1094 168.4050,109.0948 168.4053,109.0934 168.4165,109.0663 168.4176,109.0647 168.4383,109.0440 168.4399,109.0429 168.4670,109.0317 168.4689,109.0313 168.4982,109.0313 Z"/> 
<path style="fill: #0b1013;fill-opacity: 1.0000;stroke: none;fill-rule: evenodd" d="M 163.7280,106.5363 163.7551,106.5475 163.7758,106.5682 163.7870,106.5953 163.7870,106.6245 163.7758,106.6516 163.7551,106.6723 163.7280,106.6835 163.7134,106.6849 161.6814,106.6849 161.6668,106.6835 161.6397,106.6723 161.6190,106.6516 161.6078,106.6245 161.6078,106.5953 161.6190,106.5682 161.6397,106.5475 161.6668,106.5363 161.6814,106.5349 163.7134,106.5349 Z"/> 
<path style="fill: #0b1013;fill-opacity: 1.0000;stroke: none;fill-rule: evenodd" d="M 146.3810,86.9178 146.4081,86.9290 146.4288,86.9497 146.4400,86.9768 146.4414,86.9914 146.4414,92.0714 146.4400,92.0860 146.4288,92.1131 146.4081,92.1338 146.3810,92.1450 146.3664,92.1464 138.7464,92.1464 138.7318,92.1450 138.7047,92.1338 138.6840,92.1131 138.6728,92.0860 138.6714,92.0714 138.6714,91.9964 138.8214,91.9964 146.2914,91.9964 146.2914,87.0664 138.8214,87.0664 138.8214,91.9964 138.6714,91.9964 138.6714,86.9914 138.6728,86.9768 138.6840,86.9497 138.7047,86.9290 138.7318,86.9178 138.7464,86.9164 146.3664,86.9164 Z"/> 
</g> 
</g><g id="substrate-outline" style="fill:#000000; stroke:#000000; stroke-width: 0.15"><g style="fill: #000000;fill-opacity: 1.0000;stroke: #000000;stroke-opacity: 1.0000;stroke-linecap: round;stroke-linejoin: round" transform="translate(0 0) scale(1 1)">
<path style="fill: none;stroke: #000000;stroke-width: #000000;stroke-opacity: 1;stroke-linecap: round;stroke-linejoin: round" d="M 128.4340,90.0140 168.5660,90.0140 168.5660,119.9860 128.4340,119.9860 Z"/> 
</g> 
<path d="M -0.75 0.0 A 0.75 0.75 0 1 1 0.75 0.0 L 0.75 -0.0 A 0.75 0.75 0 1 1 -0.75 -0.0 Z" transform="translate(162.6974 110.109899) rotate(-90.0)"/><path d="M -0.85 0.0 A 0.85 0.85 0 1 1 0.85 0.0 L 0.85 -0.0 A 0.85 0.85 0 1 1 -0.85 -0.0 Z" transform="translate(165.2374 107.569899) rotate(-90.0)"/><path d="M -0.85 0.0 A 0.85 0.85 0 1 1 0.85 0.0 L 0.85 -0.0 A 0.85 0.85 0 1 1 -0.85 -0.0 Z" transform="translate(160.1574 107.569899) rotate(-90.0)"/><path d="M -0.85 0.0 A 0.85 0.85 0 1 1 0.85 0.0 L 0.85 -0.0 A 0.85 0.85 0 1 1 -0.85 -0.0 Z" transform="translate(165.2374 112.649899) rotate(-90.0)"/><path d="M -0.85 0.0 A 0.85 0.85 0 1 1 0.85 0.0 L 0.85 -0.0 A 0.85 0.85 0 1 1 -0.85 -0.0 Z" transform="translate(160.1574 112.649899) rotate(-90.0)"/><path d="M -0.4445 0.0 A 0.4445 0.4445 0 1 1 0.4445 0.0 L 0.4445 -0.0 A 0.4445 0.4445 0 1 1 -0.4445 -0.0 Z" transform="translate(140.0164 90.8014) rotate(-90.0)"/><path d="M -0.4445 0.0 A 0.4445 0.4445 0 1 1 0.4445 0.0 L 0.4445 -0.0 A 0.4445 0.4445 0 1 1 -0.4445 -0.0 Z" transform="translate(140.0164 88.2614) rotate(-90.0)"/><path d="M -0.4445 0.0 A 0.4445 0.4445 0 1 1 0.4445 0.0 L 0.4445 -0.0 A 0.4445 0.4445 0 1 1 -0.4445 -0.0 Z" transform="translate(142.5564 90.801401) rotate(-90.0)"/><path d="M -0.4445 0.0 A 0.4445 0.4445 0 1 1 0.4445 0.0 L 0.4445 -0.0 A 0.4445 0.4445 0 1 1 -0.4445 -0.0 Z" transform="translate(142.5564 88.261399) rotate(-90.0)"/><path d="M -0.4445 0.0 A 0.4445 0.4445 0 1 1 0.4445 0.0 L 0.4445 -0.0 A 0.4445 0.4445 0 1 1 -0.4445 -0.0 Z" transform="translate(145.0964 90.8014) rotate(-90.0)"/><path d="M -0.4445 0.0 A 0.4445 0.4445 0 1 1 0.4445 0.0 L 0.4445 -0.0 A 0.4445 0.4445 0 1 1 -0.4445 -0.0 Z" transform="translate(145.0964 88.2614) rotate(-90.0)"/><path d="M -1.5 0.0 A 1.5 1.5 0 1 1 1.5 0.0 L 1.5 -0.0 A 1.5 1.5 0 1 1 -1.5 -0.0 Z" transform="translate(133.26 115.16) rotate(-0.0)"/><path d="M -1.5 0.0 A 1.5 1.5 0 1 1 1.5 0.0 L 1.5 -0.0 A 1.5 1.5 0 1 1 -1.5 -0.0 Z" transform="translate(163.74 94.84) rotate(-0.0)"/><path d="M -1.5 0.0 A 1.5 1.5 0 1 1 1.5 0.0 L 1.5 -0.0 A 1.5 1.5 0 1 1 -1.5 -0.0 Z" transform="translate(163.74 115.16) rotate(-0.0)"/><path d="M -1.5 0.0 A 1.5 1.5 0 1 1 1.5 0.0 L 1.5 -0.0 A 1.5 1.5 0 1 1 -1.5 -0.0 Z" transform="translate(133.26 94.84) rotate(-0.0)"/><path d="M -0.1 0.0 A 0.1 0.1 0 1 1 0.1 0.0 L 0.1 -0.0 A 0.1 0.1 0 1 1 -0.1 -0.0 Z" transform="translate(146.0604 107.936799) rotate(-0.0)"/><path d="M -0.1 0.0 A 0.1 0.1 0 1 1 0.1 0.0 L 0.1 -0.0 A 0.1 0.1 0 1 1 -0.1 -0.0 Z" transform="translate(144.9936 105.244399) rotate(-0.0)"/><path d="M -0.1 0.0 A 0.1 0.1 0 1 1 0.1 0.0 L 0.1 -0.0 A 0.1 0.1 0 1 1 -0.1 -0.0 Z" transform="translate(145.5524 104.634799) rotate(-0.0)"/><path d="M -0.1 0.0 A 0.1 0.1 0 1 1 0.1 0.0 L 0.1 -0.0 A 0.1 0.1 0 1 1 -0.1 -0.0 Z" transform="translate(136.891 106.946199) rotate(-0.0)"/><path d="M -0.1 0.0 A 0.1 0.1 0 1 1 0.1 0.0 L 0.1 -0.0 A 0.1 0.1 0 1 1 -0.1 -0.0 Z" transform="translate(142.9108 107.936799) rotate(-0.0)"/><path d="M -0.1 0.0 A 0.1 0.1 0 1 1 0.1 0.0 L 0.1 -0.0 A 0.1 0.1 0 1 1 -0.1 -0.0 Z" transform="translate(154.4932 105.396799) rotate(-0.0)"/><path d="M -0.1 0.0 A 0.1 0.1 0 1 1 0.1 0.0 L 0.1 -0.0 A 0.1 0.1 0 1 1 -0.1 -0.0 Z" transform="translate(144.958 106.380399) rotate(-0.0)"/><path d="M -0.1 0.0 A 0.1 0.1 0 1 1 0.1 0.0 L 0.1 -0.0 A 0.1 0.1 0 1 1 -0.1 -0.0 Z" transform="translate(144.4348 107.936799) rotate(-0.0)"/><path d="M -0.1 0.0 A 0.1 0.1 0 1 1 0.1 0.0 L 0.1 -0.0 A 0.1 0.1 0 1 1 -0.1 -0.0 Z" transform="translate(146.67 105.345999) rotate(-0.0)"/><path d="M -0.1 0.0 A 0.1 0.1 0 1 1 0.1 0.0 L 0.1 -0.0 A 0.1 0.1 0 1 1 -0.1 -0.0 Z" transform="translate(146.67 106.057199) rotate(-0.0)"/><path d="M -0.1 0.0 A 0.1 0.1 0 1 1 0.1 0.0 L 0.1 -0.0 A 0.1 0.1 0 1 1 -0.1 -0.0 Z" transform="translate(154.2646 104.329999) rotate(-0.0)"/><path d="M -0.1 0.0 A 0.1 0.1 0 1 1 0.1 0.0 L 0.1 -0.0 A 0.1 0.1 0 1 1 -0.1 -0.0 Z" transform="translate(143.0378 105.853999) rotate(-0.0)"/><path d="M -0.1 0.0 A 0.1 0.1 0 1 1 0.1 0.0 L 0.1 -0.0 A 0.1 0.1 0 1 1 -0.1 -0.0 Z" transform="translate(155.2044 106.920799) rotate(-0.0)"/><path d="M -0.1 0.0 A 0.1 0.1 0 1 1 0.1 0.0 L 0.1 -0.0 A 0.1 0.1 0 1 1 -0.1 -0.0 Z" transform="translate(156.449 106.895399) rotate(-0.0)"/><path d="M -0.1 0.0 A 0.1 0.1 0 1 1 0.1 0.0 L 0.1 -0.0 A 0.1 0.1 0 1 1 -0.1 -0.0 Z" transform="translate(143.6728 107.936799) rotate(-0.0)"/><path d="M -0.1 0.0 A 0.1 0.1 0 1 1 0.1 0.0 L 0.1 -0.0 A 0.1 0.1 0 1 1 -0.1 -0.0 Z" transform="translate(144.384 105.853999) rotate(-0.0)"/><path d="M -0.1 0.0 A 0.1 0.1 0 1 1 0.1 0.0 L 0.1 -0.0 A 0.1 0.1 0 1 1 -0.1 -0.0 Z" transform="translate(147.178 110.603799) rotate(-0.0)"/><path d="M -0.1 0.0 A 0.1 0.1 0 1 1 0.1 0.0 L 0.1 -0.0 A 0.1 0.1 0 1 1 -0.1 -0.0 Z" transform="translate(145.7048 111.162599) rotate(-0.0)"/><path d="M -0.1 0.0 A 0.1 0.1 0 1 1 0.1 0.0 L 0.1 -0.0 A 0.1 0.1 0 1 1 -0.1 -0.0 Z" transform="translate(139.685 101.637599) rotate(-0.0)"/><path d="M -0.1 0.0 A 0.1 0.1 0 1 1 0.1 0.0 L 0.1 -0.0 A 0.1 0.1 0 1 1 -0.1 -0.0 Z" transform="translate(143.0632 104.634799) rotate(-0.0)"/><path d="M -0.1 0.0 A 0.1 0.1 0 1 1 0.1 0.0 L 0.1 -0.0 A 0.1 0.1 0 1 1 -0.1 -0.0 Z" transform="translate(146.67 103.923599) rotate(-0.0)"/><path d="M -0.1 0.0 A 0.1 0.1 0 1 1 0.1 0.0 L 0.1 -0.0 A 0.1 0.1 0 1 1 -0.1 -0.0 Z" transform="translate(145.5524 105.853999) rotate(-0.0)"/><path d="M -0.1 0.0 A 0.1 0.1 0 1 1 0.1 0.0 L 0.1 -0.0 A 0.1 0.1 0 1 1 -0.1 -0.0 Z" transform="translate(145.2222 107.936799) rotate(-0.0)"/><path d="M -0.1 0.0 A 0.1 0.1 0 1 1 0.1 0.0 L 0.1 -0.0 A 0.1 0.1 0 1 1 -0.1 -0.0 Z" transform="translate(144.3586 106.869999) rotate(-0.0)"/><path d="M -0.1 0.0 A 0.1 0.1 0 1 1 0.1 0.0 L 0.1 -0.0 A 0.1 0.1 0 1 1 -0.1 -0.0 Z" transform="translate(143.0632 106.844599) rotate(-0.0)"/><path d="M -0.1 0.0 A 0.1 0.1 0 1 1 0.1 0.0 L 0.1 -0.0 A 0.1 0.1 0 1 1 -0.1 -0.0 Z" transform="translate(144.4094 104.634799) rotate(-0.0)"/><path d="M -0.1 0.0 A 0.1 0.1 0 1 1 0.1 0.0 L 0.1 -0.0 A 0.1 0.1 0 1 1 -0.1 -0.0 Z" transform="translate(142.4028 99.402399) rotate(-0.0)"/><path d="M -0.1 0.0 A 0.1 0.1 0 1 1 0.1 0.0 L 0.1 -0.0 A 0.1 0.1 0 1 1 -0.1 -0.0 Z" transform="translate(143.6982 105.269799) rotate(-0.0)"/><path d="M -0.1 0.0 A 0.1 0.1 0 1 1 0.1 0.0 L 0.1 -0.0 A 0.1 0.1 0 1 1 -0.1 -0.0 Z" transform="translate(145.5778 106.869999) rotate(-0.0)"/><path d="M -0.1 0.0 A 0.1 0.1 0 1 1 0.1 0.0 L 0.1 -0.0 A 0.1 0.1 0 1 1 -0.1 -0.0 Z" transform="translate(148.2448 100.367599) rotate(-0.0)"/><path d="M -0.1 0.0 A 0.1 0.1 0 1 1 0.1 0.0 L 0.1 -0.0 A 0.1 0.1 0 1 1 -0.1 -0.0 Z" transform="translate(143.7236 106.361999) rotate(-0.0)"/><path d="M -0.1 0.0 A 0.1 0.1 0 1 1 0.1 0.0 L 0.1 -0.0 A 0.1 0.1 0 1 1 -0.1 -0.0 Z" transform="translate(146.67 104.634799) rotate(-0.0)"/><path d="M -0.1 0.0 A 0.1 0.1 0 1 1 0.1 0.0 L 0.1 -0.0 A 0.1 0.1 0 1 1 -0.1 -0.0 Z" transform="translate(146.67 106.768399) rotate(-0.0)"/><path d="M -0.1 0.0 A 0.1 0.1 0 1 1 0.1 0.0 L 0.1 -0.0 A 0.1 0.1 0 1 1 -0.1 -0.0 Z" transform="translate(142.085601 104.6986) rotate(-0.0)"/><path d="M -0.1 0.0 A 0.1 0.1 0 1 1 0.1 0.0 L 0.1 -0.0 A 0.1 0.1 0 1 1 -0.1 -0.0 Z" transform="translate(143.8252 103.339399) rotate(-0.0)"/><path d="M -0.1 0.0 A 0.1 0.1 0 1 1 0.1 0.0 L 0.1 -0.0 A 0.1 0.1 0 1 1 -0.1 -0.0 Z" transform="translate(142.987 101.154999) rotate(-0.0)"/><path d="M -0.1 0.0 A 0.1 0.1 0 1 1 0.1 0.0 L 0.1 -0.0 A 0.1 0.1 0 1 1 -0.1 -0.0 Z" transform="translate(142.352 101.154999) rotate(-0.0)"/><path d="M -0.1 0.0 A 0.1 0.1 0 1 1 0.1 0.0 L 0.1 -0.0 A 0.1 0.1 0 1 1 -0.1 -0.0 Z" transform="translate(139.7866 103.644199) rotate(-0.0)"/><path d="M -0.1 0.0 A 0.1 0.1 0 1 1 0.1 0.0 L 0.1 -0.0 A 0.1 0.1 0 1 1 -0.1 -0.0 Z" transform="translate(138.9484 104.964999) rotate(-0.0)"/><path d="M -0.1 0.0 A 0.1 0.1 0 1 1 0.1 0.0 L 0.1 -0.0 A 0.1 0.1 0 1 1 -0.1 -0.0 Z" transform="translate(139.685 104.761799) rotate(-0.0)"/><path d="M -0.1 0.0 A 0.1 0.1 0 1 1 0.1 0.0 L 0.1 -0.0 A 0.1 0.1 0 1 1 -0.1 -0.0 Z" transform="translate(149.2608 106.031799) rotate(-0.0)"/></g></g></g><g transform="" id="componentContainer"><!--Mlab_CON:MCX:J1--><g transform="translate(162.6974 110.109899) scale(0.9999998632218824, 0.9999998632218824) rotate(90.0) translate(-3.2888322 -3.2875302)"><g id="pref_12_Mlab_CON__MCX_Conn_Coaxial"><defs xmlns:xlink="http://www.w3.org/1999/xlink" id="pref_13defs13">
    <linearGradient id="pref_13linearGradient1596">
      <stop style="stop-color:#ffd700;stop-opacity:1" offset="0" id="pref_13stop1592"/>
      <stop style="stop-color:#c1af41;stop-opacity:1;" offset="0.19890898" id="pref_13stop1926"/>
      <stop style="stop-color:#5e5000;stop-opacity:1" offset="0.25482321" id="pref_13stop1924"/>
      <stop style="stop-color:#665600;stop-opacity:1" offset="0.80038273" id="pref_13stop1858"/>
      <stop style="stop-color:#e5c100;stop-opacity:1" offset="0.91146892" id="pref_13stop1728"/>
      <stop style="stop-color:#99a426;stop-opacity:1" offset="1" id="pref_13stop1594"/>
    </linearGradient>
    <radialGradient xlink:href="#pref_13linearGradient1596" id="pref_13radialGradient1598" cx="1.5011679" cy="1.5024699" fx="1.5011679" fy="1.5024699" r="2.25" gradientUnits="userSpaceOnUse" gradientTransform="translate(1.7888321,1.7875301)"/>
  </defs>
  <g id="pref_13g4788" transform="translate(10,-10)" style="fill:#f1cb00;fill-opacity:1">
    <circle style="fill:#f1cb00;fill-opacity:1;stroke-width:0.497612" id="pref_13circle4696" cx="-9.25" cy="10.75" r="0.75"/>
    <circle style="fill:#f1cb00;fill-opacity:1;stroke-width:0.497612" id="pref_13circle4778" cx="-4.1700001" cy="10.75" r="0.75"/>
    <circle style="fill:#f1cb00;fill-opacity:1;stroke-width:0.497612" id="pref_13circle4780" cx="-9.25" cy="15.83" r="0.75"/>
    <circle style="fill:#f1cb00;fill-opacity:1;stroke-width:0.497612" id="pref_13circle4782" cx="-4.1700001" cy="15.83" r="0.75"/>
  </g>
  <g id="pref_13g1568" transform="translate(5.27142,2.5913308)">
    <rect style="fill:#d8b600;fill-opacity:1;fill-rule:evenodd;stroke-width:0.531641" id="pref_13rect30-3" width="6" height="6" x="-4.98142" y="-2.3013308"/>
    <rect style="fill:#ffd700;fill-opacity:1;fill-rule:evenodd;stroke-width:0.513919" id="pref_13rect30" width="5.8000002" height="5.8000002" x="-4.98142" y="-2.3013308"/>
  </g>
  <circle r="2.25" cy="3.29" cx="3.29" id="pref_13mask" style="opacity:0.95;fill:url(#pref_13radialGradient1598);fill-opacity:1;fill-rule:nonzero;stroke:url(#radialGradient4909);stroke-width:140.153;stroke-linecap:round;stroke-linejoin:round;stroke-miterlimit:4;stroke-dasharray:none;stroke-opacity:1"/>
  </g></g><!--Mlab_Pin_Headers:Straight_2x03:J2--><g transform="translate(142.5564 89.5314) scale(0.9999998832685189, 0.9999999479166897) rotate(-90.0) translate(-2.5699999 -3.8399999)"><g id="pref_12_Mlab_Pin_Headers__Straight_2x03_335V"><g id="pref_14pin" style="display:inline">
    <rect style="opacity:1;fill:#000000;fill-opacity:1;fill-rule:nonzero;stroke:#141414;stroke-width:1.15387;stroke-linecap:round;stroke-linejoin:bevel;stroke-miterlimit:4;stroke-dasharray:none;stroke-opacity:1" id="pref_14rect4686" width="1.4461316" height="1.4461316" x="0.57693499" y="0.57693422"/>
    <rect y="1.0419546" x="1.0419546" height="0.51612419" width="0.51612419" id="pref_14rect156830" style="opacity:1;fill:#fcf23a;fill-opacity:1;fill-rule:nonzero;stroke:#eb9d02;stroke-width:0.123876;stroke-linecap:round;stroke-linejoin:bevel;stroke-miterlimit:4;stroke-dasharray:none;stroke-opacity:1"/>
  </g>
  <g transform="translate(0,2.5400024)" id="pref_14g13" style="display:inline">
    <rect style="opacity:1;fill:#000000;fill-opacity:1;fill-rule:nonzero;stroke:#141414;stroke-width:1.15387;stroke-linecap:round;stroke-linejoin:bevel;stroke-miterlimit:4;stroke-dasharray:none;stroke-opacity:1" id="pref_14rect9" width="1.4461316" height="1.4461316" x="0.57693499" y="0.57693422"/>
    <rect y="1.0419546" x="1.0419546" height="0.51612419" width="0.51612419" id="pref_14rect11" style="opacity:1;fill:#fcf23a;fill-opacity:1;fill-rule:nonzero;stroke:#eb9d02;stroke-width:0.123876;stroke-linecap:round;stroke-linejoin:bevel;stroke-miterlimit:4;stroke-dasharray:none;stroke-opacity:1"/>
  </g>
  <g transform="translate(0,5.0800024)" id="pref_14g19">
    <rect style="opacity:1;fill:#000000;fill-opacity:1;fill-rule:nonzero;stroke:#141414;stroke-width:1.15387;stroke-linecap:round;stroke-linejoin:bevel;stroke-miterlimit:4;stroke-dasharray:none;stroke-opacity:1" id="pref_14rect15" width="1.4461316" height="1.4461316" x="0.57693499" y="0.57693422"/>
    <rect y="1.0419546" x="1.0419546" height="0.51612419" width="0.51612419" id="pref_14rect17" style="opacity:1;fill:#fcf23a;fill-opacity:1;fill-rule:nonzero;stroke:#eb9d02;stroke-width:0.123876;stroke-linecap:round;stroke-linejoin:bevel;stroke-miterlimit:4;stroke-dasharray:none;stroke-opacity:1"/>
  </g>
  <g transform="translate(0,99.060003)" id="pref_14g241" style="display:inline">
    <rect style="display:inline;fill:#000000;fill-opacity:1;fill-rule:nonzero;stroke:#141414;stroke-width:1.15387;stroke-linecap:round;stroke-linejoin:bevel;stroke-miterlimit:4;stroke-dasharray:none;stroke-opacity:1" id="pref_14rect4686-3" width="1.4461316" height="1.4461316" x="3.116935" y="-98.483063"/>
    <rect y="-98.018044" x="3.5819547" height="0.51612419" width="0.51612419" id="pref_14rect156830-6" style="display:inline;fill:#fcf23a;fill-opacity:1;fill-rule:nonzero;stroke:#eb9d02;stroke-width:0.123876;stroke-linecap:round;stroke-linejoin:bevel;stroke-miterlimit:4;stroke-dasharray:none;stroke-opacity:1"/>
    <rect style="display:inline;fill:#000000;fill-opacity:1;fill-rule:nonzero;stroke:#141414;stroke-width:1.15387;stroke-linecap:round;stroke-linejoin:bevel;stroke-miterlimit:4;stroke-dasharray:none;stroke-opacity:1" id="pref_14rect9-5" width="1.4461316" height="1.4461316" x="3.116935" y="-95.943069"/>
    <rect y="-95.478043" x="3.5819547" height="0.51612419" width="0.51612419" id="pref_14rect11-3" style="display:inline;fill:#fcf23a;fill-opacity:1;fill-rule:nonzero;stroke:#eb9d02;stroke-width:0.123876;stroke-linecap:round;stroke-linejoin:bevel;stroke-miterlimit:4;stroke-dasharray:none;stroke-opacity:1"/>
    <rect style="fill:#000000;fill-opacity:1;fill-rule:nonzero;stroke:#141414;stroke-width:1.15387;stroke-linecap:round;stroke-linejoin:bevel;stroke-miterlimit:4;stroke-dasharray:none;stroke-opacity:1" id="pref_14rect15-5" width="1.4461316" height="1.4461316" x="3.116935" y="-93.403069"/>
    <rect y="-92.938042" x="3.5819547" height="0.51612419" width="0.51612419" id="pref_14rect17-6" style="fill:#fcf23a;fill-opacity:1;fill-rule:nonzero;stroke:#eb9d02;stroke-width:0.123876;stroke-linecap:round;stroke-linejoin:bevel;stroke-miterlimit:4;stroke-dasharray:none;stroke-opacity:1"/>
  </g>
  </g></g><!--Mlab_Mechanical:MountingHole_3mm:M3--><g transform="translate(133.26 115.16) scale(1.0, 1.0) rotate(-0.0) translate(-0.75 -0.75)"><g id="pref_12_Mlab_Mechanical__MountingHole_3mm_HOLE"><defs xmlns:xlink="http://www.w3.org/1999/xlink" id="pref_15defs13">
    <linearGradient id="pref_15linearGradient13300">
      <stop style="stop-color:#e5e5e5;stop-opacity:1;" offset="0" id="pref_15stop13298"/>
    </linearGradient>
    <linearGradient id="pref_15linearGradient10336">
      <stop style="stop-color:#cfcfcf;stop-opacity:1" offset="0" id="pref_15stop10332"/>
      <stop style="stop-color:#cdcdcd;stop-opacity:0" offset="1" id="pref_15stop10334"/>
    </linearGradient>
    <linearGradient id="pref_15linearGradient9067">
      <stop style="stop-color:#d3d3d3;stop-opacity:1;" offset="0" id="pref_15stop9051"/>
      <stop style="stop-color:#c8c8c8;stop-opacity:1;" offset="0.1656336" id="pref_15stop9053"/>
      <stop style="stop-color:#d8d8d8;stop-opacity:0.52030832" offset="0.29162589" id="pref_15stop9055"/>
      <stop style="stop-color:#c6c6c6;stop-opacity:0.51711833" offset="0.38067153" id="pref_15stop9057"/>
      <stop style="stop-color:#bbbbbb;stop-opacity:0.45933419" offset="0.51505035" id="pref_15stop9059"/>
      <stop style="stop-color:#8e8e8e;stop-opacity:0.47450981" offset="0.5970481" id="pref_15stop9061"/>
      <stop style="stop-color:#656565;stop-opacity:0.56470591" offset="0.7681157" id="pref_15stop9063"/>
      <stop style="stop-color:#606060;stop-opacity:0.28235294;" offset="0.95913506" id="pref_15stop9743"/>
      <stop style="stop-color:#b5b5b5;stop-opacity:0.21568628" offset="1" id="pref_15stop9065"/>
    </linearGradient>
    <linearGradient id="pref_15linearGradient3692">
      <stop style="stop-color:#e4e4e4;stop-opacity:1" offset="0" id="pref_15stop6926"/>
      <stop style="stop-color:#e5e5e5;stop-opacity:1" offset="0.1656336" id="pref_15stop6928"/>
      <stop style="stop-color:#f5f5f5;stop-opacity:1" offset="0.29162589" id="pref_15stop6930"/>
      <stop style="stop-color:#c6c6c6;stop-opacity:1;" offset="0.38067153" id="pref_15stop6932"/>
      <stop style="stop-color:#dddddd;stop-opacity:1" offset="0.57577699" id="pref_15stop6934"/>
      <stop style="stop-color:#f2f2f2;stop-opacity:1" offset="0.66836077" id="pref_15stop6936"/>
      <stop style="stop-color:#ebebeb;stop-opacity:1" offset="0.79280978" id="pref_15stop6938"/>
      <stop style="stop-color:#efefef;stop-opacity:1" offset="1" id="pref_15stop6940"/>
    </linearGradient>
    <linearGradient id="pref_15linearGradient5758">
      <stop style="stop-color:#f6f6f6;stop-opacity:0.89019608" offset="0" id="pref_15stop5754"/>
      <stop style="stop-color:#646464;stop-opacity:0.9921568" offset="1" id="pref_15stop5756"/>
    </linearGradient>
    <linearGradient id="pref_15linearGradient3692-7">
      <stop style="stop-color:#d3d3d3;stop-opacity:1;" offset="0" id="pref_15stop3688"/>
      <stop style="stop-color:#c8c8c8;stop-opacity:1;" offset="0.1656336" id="pref_15stop4378"/>
      <stop style="stop-color:#ededed;stop-opacity:1" offset="0.29162589" id="pref_15stop4444"/>
      <stop style="stop-color:#c6c6c6;stop-opacity:1;" offset="0.38067153" id="pref_15stop4376"/>
      <stop style="stop-color:#dbdbdb;stop-opacity:1" offset="0.57577699" id="pref_15stop4308"/>
      <stop style="stop-color:#c8c8c8;stop-opacity:1" offset="0.66836077" id="pref_15stop4242"/>
      <stop style="stop-color:#b8b8b8;stop-opacity:1;" offset="0.79280978" id="pref_15stop4310"/>
      <stop style="stop-color:#aeaeae;stop-opacity:1" offset="1" id="pref_15stop3690"/>
    </linearGradient>
    <linearGradient id="pref_15linearGradient3156">
      <stop style="stop-color:#d3d3d3;stop-opacity:1;" offset="0" id="pref_15stop3152"/>
      <stop style="stop-color:#d3d3d3;stop-opacity:0.89019608;" offset="0.93029171" id="pref_15stop3290"/>
      <stop style="stop-color:#757575;stop-opacity:1" offset="1" id="pref_15stop3154"/>
    </linearGradient>
    <radialGradient xlink:href="#pref_15linearGradient3156" id="pref_15radialGradient3160" cx="0.75" cy="0.75" fx="0.75" fy="0.75" r="2.75" gradientUnits="userSpaceOnUse" gradientTransform="matrix(0.96363636,0,0,0.96363636,0.02727275,0.02727275)"/>
    <linearGradient xlink:href="#pref_15linearGradient3692-7" id="pref_15linearGradient3694" x1="-0.69187778" y1="-1.1810942" x2="2.8737183" y2="2.1900826" gradientUnits="userSpaceOnUse" gradientTransform="matrix(0.92592591,0,0,0.92592591,0.05555555,0.05555555)"/>
    <linearGradient xlink:href="#pref_15linearGradient5758" id="pref_15linearGradient5760" x1="-15.456677" y1="-15.474042" x2="-4.6413889" y2="-6.7602329" gradientUnits="userSpaceOnUse"/>
    <linearGradient xlink:href="#pref_15linearGradient3692" id="pref_15linearGradient6924" gradientUnits="userSpaceOnUse" x1="1.4987922" y1="4.3924975" x2="-1.0811033" y2="-3.0084407"/>
    <radialGradient xlink:href="#pref_15linearGradient9067" id="pref_15radialGradient8763" cx="0.75" cy="0.75" fx="0.75" fy="0.75" r="2.5" gradientUnits="userSpaceOnUse"/>
    <radialGradient xlink:href="#pref_15linearGradient10336" id="pref_15radialGradient10338" cx="-9.3072596" cy="-12.247526" fx="-9.3072596" fy="-12.247526" r="5.7490053" gradientTransform="matrix(0.25618062,-0.83918687,0.82829029,0.2528542,1.5718983,-16.37084)" gradientUnits="userSpaceOnUse"/>
  </defs>
  <circle style="opacity:1;fill:url(#pref_15linearGradient6924);fill-opacity:1;stroke:#cecece;stroke-width:0.05;stroke-miterlimit:4;stroke-dasharray:none;stroke-opacity:1" id="pref_15path6642" cx="0.75" cy="0.75" r="3.5"/>
  <circle style="fill:url(#pref_15radialGradient3160);fill-opacity:1;stroke-width:0.0358194" id="pref_15path1030-6" cx="0.75" cy="0.75" r="2.6500001"/>
  <circle style="opacity:1;fill:url(#pref_15linearGradient3694);fill-opacity:1;stroke-width:0.033792" id="pref_15path1030" cx="0.75" cy="0.75" r="2.5"/>
  <circle style="fill:url(#pref_15radialGradient8763);fill-opacity:1;stroke-width:0.034;stroke-miterlimit:4;stroke-dasharray:none" id="pref_15path1030-7" cx="0.75" cy="0.75" r="2.5"/>
  <path xmlns:sodipodi="http://sodipodi.sourceforge.net/DTD/sodipodi-0.dtd" sodipodi:type="star" style="opacity:1;fill:#b6b6b6;fill-opacity:1;stroke:url(#pref_15linearGradient5760);stroke-width:0.398303;stroke-miterlimit:4;stroke-dasharray:none;stroke-opacity:1" id="pref_15path1288-3" sodipodi:sides="6" sodipodi:cx="-9.9017067" sodipodi:cy="-10.789671" sodipodi:r1="5.7490053" sodipodi:r2="4.9787846" sodipodi:arg1="1.0471976" sodipodi:arg2="1.5707963" transform="matrix(0.24392497,0.05945068,-0.05945068,0.24392497,2.5238203,3.9705334)" d="m -7.0272043,-5.8108862 -5.7490057,-2e-7 -2.874502,-4.9787846 2.874503,-4.978785 5.7490052,1e-6 2.8745024,4.978784 z"/>
  <path xmlns:sodipodi="http://sodipodi.sourceforge.net/DTD/sodipodi-0.dtd" sodipodi:type="star" style="opacity:1;fill:url(#pref_15radialGradient10338);fill-opacity:1;stroke:none;stroke-width:0.398303;stroke-miterlimit:4;stroke-dasharray:none;stroke-opacity:1" id="pref_15path1288-3-6" sodipodi:sides="6" sodipodi:cx="-9.9017067" sodipodi:cy="-10.789671" sodipodi:r1="5.7490053" sodipodi:r2="4.9787846" sodipodi:arg1="1.0471976" sodipodi:arg2="1.5707963" transform="matrix(0.24487282,0.0596817,-0.0596817,0.24487282,2.5307131,3.9830479)" d="m -7.0272043,-5.8108862 -5.7490057,-2e-7 -2.874502,-4.9787846 2.874503,-4.978785 5.7490052,1e-6 2.8745024,4.978784 z"/>
</g></g><!--Mlab_Mechanical:MountingHole_3mm:M2--><g transform="translate(163.74 94.84) scale(1.0, 1.0) rotate(-0.0) translate(-0.75 -0.75)"><use xmlns:xlink="http://www.w3.org/1999/xlink" xlink:href="#pref_12_Mlab_Mechanical__MountingHole_3mm_HOLE"/></g><!--Mlab_Mechanical:MountingHole_3mm:M4--><g transform="translate(163.74 115.16) scale(1.0, 1.0) rotate(-0.0) translate(-0.75 -0.75)"><use xmlns:xlink="http://www.w3.org/1999/xlink" xlink:href="#pref_12_Mlab_Mechanical__MountingHole_3mm_HOLE"/></g><!--Mlab_Mechanical:MountingHole_3mm:M1--><g transform="translate(133.26 94.84) scale(1.0, 1.0) rotate(-0.0) translate(-0.75 -0.75)"><use xmlns:xlink="http://www.w3.org/1999/xlink" xlink:href="#pref_12_Mlab_Mechanical__MountingHole_3mm_HOLE"/></g><!--Fiducial:Fiducial_1mm_Mask2mm.back:FID3--><!--Fiducial:Fiducial_1mm_Mask2mm.back:FID1--><g transform="translate(120.1982 86.7942) scale(0.9999995454526861, 0.9999995454675615) rotate(-0.0) translate(-0.099995501 -0.10003144)"><use xmlns:xlink="http://www.w3.org/1999/xlink" xlink:href="#pref_12_Fiducial__Fiducial_1mm_Mask2mmback_Fiducial"/></g><!--Fiducial:Fiducial_1mm_Mask2mm.back:FID2--><g transform="translate(120.1982 83.2442) scale(0.9999995454526861, 0.9999995454675615) rotate(-0.0) translate(-0.099995501 -0.10003144)"><use xmlns:xlink="http://www.w3.org/1999/xlink" xlink:href="#pref_12_Fiducial__Fiducial_1mm_Mask2mmback_Fiducial"/></g><!--Capacitor_SMD:C_0805_2012Metric.back:C17--><!--Capacitor_SMD:C_0805_2012Metric.back:C16--></g></svg>