%TF.GenerationSoftware,KiCad,Pcbnew,9.0.6+1*%
%TF.CreationDate,2026-02-08T13:26:48+00:00*%
%TF.ProjectId,BLE02,424c4530-322e-46b6-9963-61645f706362,rev?*%
%TF.SameCoordinates,Original*%
%TF.FileFunction,Copper,L1,Top*%
%TF.FilePolarity,Positive*%
%FSLAX46Y46*%
G04 Gerber Fmt 4.6, Leading zero omitted, Abs format (unit mm)*
G04 Created by KiCad (PCBNEW 9.0.6+1) date 2026-02-08 13:26:48*
%MOMM*%
%LPD*%
G01*
G04 APERTURE LIST*
%TA.AperFunction,ComponentPad*%
%ADD10R,1.524000X1.524000*%
%TD*%
%TA.AperFunction,ComponentPad*%
%ADD11C,2.500000*%
%TD*%
%TA.AperFunction,ComponentPad*%
%ADD12C,2.700000*%
%TD*%
%TA.AperFunction,ComponentPad*%
%ADD13C,6.000000*%
%TD*%
%TA.AperFunction,ComponentPad*%
%ADD14C,0.499999*%
%TD*%
%TA.AperFunction,ViaPad*%
%ADD15C,0.800000*%
%TD*%
%TA.AperFunction,ViaPad*%
%ADD16C,0.460000*%
%TD*%
%TA.AperFunction,Conductor*%
%ADD17C,0.254000*%
%TD*%
%TA.AperFunction,Conductor*%
%ADD18C,0.200000*%
%TD*%
G04 APERTURE END LIST*
D10*
%TO.P,J4,1,2*%
%TO.N,Net-(J4-2-Pad1)*%
X23750000Y30310000D03*
%TO.P,J4,2,2*%
X23750000Y32850000D03*
%TO.P,J4,3,4*%
%TO.N,Net-(U1-B4)*%
X26290000Y30310000D03*
%TO.P,J4,4,4*%
X26290000Y32850000D03*
%TO.P,J4,5,6*%
%TO.N,Net-(U1-B3)*%
X28830000Y30310000D03*
%TO.P,J4,6,6*%
X28830000Y32850000D03*
%TO.P,J4,7,7*%
%TO.N,Net-(U1-B2)*%
X31370000Y30310000D03*
%TO.P,J4,8,7*%
X31370000Y32850000D03*
%TO.P,J4,9,10*%
%TO.N,Net-(U1-B1)*%
X33910000Y30310000D03*
%TO.P,J4,10,10*%
X33910000Y32850000D03*
%TD*%
D11*
%TO.P,J1,1,In*%
%TO.N,Net-(J1-In)*%
X41000000Y21000000D03*
D12*
%TO.P,J1,2,Ext*%
%TO.N,GND*%
X43540000Y23540000D03*
X38460000Y23540000D03*
X43540000Y18460000D03*
X38460000Y18460000D03*
%TD*%
D13*
%TO.P,M3,1*%
%TO.N,GND*%
X10160000Y10160000D03*
%TD*%
%TO.P,M2,1*%
%TO.N,GND*%
X40640000Y30480000D03*
%TD*%
%TO.P,M4,1*%
%TO.N,GND*%
X40640000Y10160000D03*
%TD*%
%TO.P,M1,1*%
%TO.N,GND*%
X10160000Y30480000D03*
%TD*%
D10*
%TO.P,J2,1,2*%
%TO.N,GND*%
X7730000Y23040000D03*
%TO.P,J2,2,2*%
X10270000Y23040000D03*
%TO.P,J2,3,4*%
%TO.N,VCC*%
X7730000Y20500000D03*
%TO.P,J2,4,4*%
X10270000Y20500000D03*
%TO.P,J2,5,6*%
%TO.N,GND*%
X7730000Y17960000D03*
%TO.P,J2,6,6*%
X10270000Y17960000D03*
%TD*%
%TO.P,J3,1,2*%
%TO.N,Net-(J3-2-Pad1)*%
X23800000Y7592500D03*
%TO.P,J3,2,2*%
X23800000Y10132500D03*
%TO.P,J3,3,4*%
%TO.N,Net-(U3-B4)*%
X26340000Y7592500D03*
%TO.P,J3,4,4*%
X26340000Y10132500D03*
%TO.P,J3,5,6*%
%TO.N,Net-(U3-B3)*%
X28880000Y7592500D03*
%TO.P,J3,6,6*%
X28880000Y10132500D03*
%TO.P,J3,7,7*%
%TO.N,Net-(U3-B2)*%
X31420000Y7592500D03*
%TO.P,J3,8,7*%
X31420000Y10132500D03*
%TO.P,J3,9,10*%
%TO.N,Net-(U3-B1)*%
X33960000Y7592500D03*
%TO.P,J3,10,10*%
X33960000Y10132500D03*
%TD*%
D14*
%TO.P,U2,V*%
%TO.N,N/C*%
X23156066Y21576239D03*
X23050000Y19702406D03*
X22166117Y20586290D03*
X21282233Y21470173D03*
X21176168Y19596341D03*
%TD*%
D15*
%TO.N,GND*%
X13791000Y18373801D03*
X29248616Y38956421D03*
X29020016Y40023221D03*
X12617500Y41818400D03*
D16*
%TO.N,NSHUTDOWN_1V8*%
X24016216Y38321421D03*
%TO.N,unconnected-(U1-V_{CCB}-Pad14)*%
X20750000Y33080000D03*
%TD*%
D17*
%TO.N,GND*%
X37649800Y24201701D02*
X37667000Y24218901D01*
D18*
%TO.N,Net-(J3-2-Pad1)*%
X23800000Y7592500D02*
X23800000Y10132500D01*
%TO.N,Net-(U3-B4)*%
X26340000Y7592500D02*
X26340000Y10132500D01*
%TO.N,Net-(J4-2-Pad1)*%
X23750000Y32850000D02*
X23750000Y30310000D01*
%TO.N,Net-(U1-B4)*%
X26290000Y32850000D02*
X26290000Y30310000D01*
%TD*%
%TA.AperFunction,Conductor*%
%TO.N,GND*%
G36*
X9855792Y18131571D02*
G01*
X9825500Y18018520D01*
X9825500Y17901480D01*
X9855792Y17788429D01*
X9903382Y17706000D01*
X8096618Y17706000D01*
X8144208Y17788429D01*
X8174500Y17901480D01*
X8174500Y18018520D01*
X8144208Y18131571D01*
X8096618Y18214000D01*
X9903382Y18214000D01*
X9855792Y18131571D01*
G37*
%TD.AperFunction*%
%TA.AperFunction,Conductor*%
G36*
X9855792Y23211571D02*
G01*
X9825500Y23098520D01*
X9825500Y22981480D01*
X9855792Y22868429D01*
X9903382Y22786000D01*
X8096618Y22786000D01*
X8144208Y22868429D01*
X8174500Y22981480D01*
X8174500Y23098520D01*
X8144208Y23211571D01*
X8096618Y23294000D01*
X9903382Y23294000D01*
X9855792Y23211571D01*
G37*
%TD.AperFunction*%
%TA.AperFunction,Conductor*%
G36*
X45207621Y35085498D02*
G01*
X45254114Y35031842D01*
X45265500Y34979500D01*
X45265500Y24714569D01*
X45245498Y24646448D01*
X45191842Y24599955D01*
X45121568Y24589851D01*
X45056988Y24619345D01*
X45039538Y24637864D01*
X45021100Y24661892D01*
X44295771Y23936563D01*
X44293260Y23942626D01*
X44200238Y24081844D01*
X44081844Y24200238D01*
X43942626Y24293260D01*
X43936561Y24295772D01*
X44661890Y25021101D01*
X44661889Y25021103D01*
X44574467Y25088185D01*
X44574461Y25088189D01*
X44363548Y25209959D01*
X44363537Y25209965D01*
X44138515Y25303172D01*
X43903249Y25366211D01*
X43661782Y25398000D01*
X43418217Y25398000D01*
X43176750Y25366211D01*
X42941484Y25303172D01*
X42716462Y25209965D01*
X42716451Y25209959D01*
X42505538Y25088189D01*
X42418108Y25021102D01*
X43143438Y24295772D01*
X43137374Y24293260D01*
X42998156Y24200238D01*
X42879762Y24081844D01*
X42786740Y23942626D01*
X42784228Y23936562D01*
X42058898Y24661892D01*
X41991811Y24574462D01*
X41870041Y24363549D01*
X41870035Y24363538D01*
X41776828Y24138516D01*
X41713789Y23903250D01*
X41682000Y23661783D01*
X41682000Y23418216D01*
X41694378Y23324194D01*
X41683438Y23254045D01*
X41636310Y23200947D01*
X41567955Y23181758D01*
X41536846Y23186042D01*
X41439988Y23211995D01*
X41147508Y23250500D01*
X41147506Y23250500D01*
X40852494Y23250500D01*
X40852491Y23250500D01*
X40560011Y23211995D01*
X40463153Y23186042D01*
X40392176Y23187732D01*
X40333381Y23227527D01*
X40305434Y23292792D01*
X40305621Y23324195D01*
X40317999Y23418219D01*
X40318000Y23418227D01*
X40318000Y23661773D01*
X40317999Y23661783D01*
X40286210Y23903250D01*
X40223171Y24138516D01*
X40129964Y24363538D01*
X40129958Y24363549D01*
X40008188Y24574462D01*
X40008183Y24574469D01*
X39941100Y24661892D01*
X39215771Y23936563D01*
X39213260Y23942626D01*
X39120238Y24081844D01*
X39001844Y24200238D01*
X38862626Y24293260D01*
X38856561Y24295772D01*
X39581890Y25021101D01*
X39581889Y25021103D01*
X39494467Y25088185D01*
X39494461Y25088189D01*
X39283548Y25209959D01*
X39283537Y25209965D01*
X39058515Y25303172D01*
X38823249Y25366211D01*
X38581782Y25398000D01*
X38338217Y25398000D01*
X38096750Y25366211D01*
X37861484Y25303172D01*
X37636462Y25209965D01*
X37636451Y25209959D01*
X37425538Y25088189D01*
X37338108Y25021102D01*
X38063438Y24295772D01*
X38057374Y24293260D01*
X37918156Y24200238D01*
X37799762Y24081844D01*
X37706740Y23942626D01*
X37704228Y23936562D01*
X36978898Y24661892D01*
X36911811Y24574462D01*
X36790041Y24363549D01*
X36790035Y24363538D01*
X36696828Y24138516D01*
X36633789Y23903250D01*
X36602000Y23661783D01*
X36602000Y23418218D01*
X36633789Y23176751D01*
X36696828Y22941485D01*
X36790035Y22716463D01*
X36790041Y22716452D01*
X36911811Y22505539D01*
X36911815Y22505533D01*
X36978897Y22418111D01*
X36978899Y22418110D01*
X37704227Y23143439D01*
X37706740Y23137374D01*
X37799762Y22998156D01*
X37918156Y22879762D01*
X38057374Y22786740D01*
X38063437Y22784229D01*
X37338108Y22058900D01*
X37338108Y22058899D01*
X37425531Y21991817D01*
X37425538Y21991812D01*
X37636451Y21870042D01*
X37636462Y21870036D01*
X37861484Y21776829D01*
X38096750Y21713790D01*
X38338217Y21682001D01*
X38338227Y21682000D01*
X38581773Y21682000D01*
X38581781Y21682001D01*
X38675805Y21694379D01*
X38745953Y21683440D01*
X38799052Y21636312D01*
X38818242Y21567958D01*
X38813958Y21536847D01*
X38788005Y21439989D01*
X38749500Y21147509D01*
X38749500Y20852492D01*
X38788005Y20560012D01*
X38813958Y20463154D01*
X38812268Y20392178D01*
X38772473Y20333382D01*
X38707209Y20305435D01*
X38675806Y20305622D01*
X38581784Y20318000D01*
X38338217Y20318000D01*
X38096750Y20286211D01*
X37861484Y20223172D01*
X37636462Y20129965D01*
X37636451Y20129959D01*
X37425538Y20008189D01*
X37338108Y19941102D01*
X38063438Y19215772D01*
X38057374Y19213260D01*
X37918156Y19120238D01*
X37799762Y19001844D01*
X37706740Y18862626D01*
X37704228Y18856562D01*
X36978898Y19581892D01*
X36911811Y19494462D01*
X36790041Y19283549D01*
X36790035Y19283538D01*
X36696828Y19058516D01*
X36633789Y18823250D01*
X36602000Y18581783D01*
X36602000Y18338218D01*
X36633789Y18096751D01*
X36696828Y17861485D01*
X36790035Y17636463D01*
X36790041Y17636452D01*
X36911811Y17425539D01*
X36911815Y17425533D01*
X36978897Y17338111D01*
X36978899Y17338110D01*
X37704227Y18063439D01*
X37706740Y18057374D01*
X37799762Y17918156D01*
X37918156Y17799762D01*
X38057374Y17706740D01*
X38063437Y17704229D01*
X37338108Y16978900D01*
X37338108Y16978899D01*
X37425531Y16911817D01*
X37425538Y16911812D01*
X37636451Y16790042D01*
X37636462Y16790036D01*
X37861484Y16696829D01*
X38096750Y16633790D01*
X38338217Y16602001D01*
X38338227Y16602000D01*
X38581773Y16602000D01*
X38581782Y16602001D01*
X38823249Y16633790D01*
X39058515Y16696829D01*
X39283537Y16790036D01*
X39283548Y16790042D01*
X39494460Y16911812D01*
X39581890Y16978900D01*
X38856562Y17704229D01*
X38862626Y17706740D01*
X39001844Y17799762D01*
X39120238Y17918156D01*
X39213260Y18057374D01*
X39215771Y18063439D01*
X39941100Y17338110D01*
X40008188Y17425540D01*
X40129958Y17636452D01*
X40129964Y17636463D01*
X40223171Y17861485D01*
X40286210Y18096751D01*
X40317999Y18338218D01*
X40318000Y18338227D01*
X40318000Y18581773D01*
X40317999Y18581783D01*
X40305621Y18675806D01*
X40316560Y18745955D01*
X40363689Y18799053D01*
X40432042Y18818243D01*
X40463150Y18813960D01*
X40560007Y18788007D01*
X40560013Y18788007D01*
X40560014Y18788006D01*
X40593574Y18783588D01*
X40852494Y18749500D01*
X40852501Y18749500D01*
X41147499Y18749500D01*
X41147506Y18749500D01*
X41439993Y18788007D01*
X41536847Y18813959D01*
X41607820Y18812270D01*
X41666616Y18772477D01*
X41694565Y18707213D01*
X41694378Y18675808D01*
X41682000Y18581785D01*
X41682000Y18338218D01*
X41713789Y18096751D01*
X41776828Y17861485D01*
X41870035Y17636463D01*
X41870041Y17636452D01*
X41991811Y17425539D01*
X41991815Y17425533D01*
X42058897Y17338111D01*
X42058898Y17338110D01*
X42784227Y18063439D01*
X42786740Y18057374D01*
X42879762Y17918156D01*
X42998156Y17799762D01*
X43137374Y17706740D01*
X43143437Y17704229D01*
X42418108Y16978900D01*
X42418108Y16978899D01*
X42505531Y16911817D01*
X42505538Y16911812D01*
X42716451Y16790042D01*
X42716462Y16790036D01*
X42941484Y16696829D01*
X43176750Y16633790D01*
X43418217Y16602001D01*
X43418227Y16602000D01*
X43661773Y16602000D01*
X43661782Y16602001D01*
X43903249Y16633790D01*
X44138515Y16696829D01*
X44363537Y16790036D01*
X44363548Y16790042D01*
X44574460Y16911812D01*
X44661890Y16978900D01*
X43936562Y17704229D01*
X43942626Y17706740D01*
X44081844Y17799762D01*
X44200238Y17918156D01*
X44293260Y18057374D01*
X44295771Y18063439D01*
X45021100Y17338110D01*
X45039538Y17362138D01*
X45096876Y17404005D01*
X45167747Y17408226D01*
X45229650Y17373461D01*
X45262931Y17310748D01*
X45265500Y17285433D01*
X45265500Y5660500D01*
X45245498Y5592379D01*
X45191842Y5545886D01*
X45139500Y5534500D01*
X5660500Y5534500D01*
X5592379Y5554502D01*
X5545886Y5608158D01*
X5534500Y5660500D01*
X5534500Y10943150D01*
X22529500Y10943150D01*
X22529500Y9321851D01*
X22536009Y9261304D01*
X22536011Y9261296D01*
X22587110Y9124298D01*
X22587112Y9124293D01*
X22674739Y9007239D01*
X22733343Y8963367D01*
X22775889Y8906531D01*
X22780953Y8835716D01*
X22746928Y8773404D01*
X22733343Y8761633D01*
X22674739Y8717762D01*
X22587112Y8600708D01*
X22587110Y8600703D01*
X22536011Y8463705D01*
X22536009Y8463697D01*
X22529500Y8403150D01*
X22529500Y6781851D01*
X22536009Y6721304D01*
X22536011Y6721296D01*
X22587110Y6584298D01*
X22587112Y6584293D01*
X22674738Y6467239D01*
X22791792Y6379613D01*
X22791794Y6379612D01*
X22791796Y6379611D01*
X22850875Y6357576D01*
X22928795Y6328512D01*
X22928803Y6328510D01*
X22989350Y6322001D01*
X22989355Y6322001D01*
X22989362Y6322000D01*
X22989368Y6322000D01*
X24610632Y6322000D01*
X24610638Y6322000D01*
X24610645Y6322001D01*
X24610649Y6322001D01*
X24671196Y6328510D01*
X24671199Y6328511D01*
X24671201Y6328511D01*
X24808204Y6379611D01*
X24925261Y6467239D01*
X24969132Y6525843D01*
X25025968Y6568390D01*
X25096784Y6573454D01*
X25159096Y6539429D01*
X25170868Y6525843D01*
X25214738Y6467239D01*
X25331792Y6379613D01*
X25331794Y6379612D01*
X25331796Y6379611D01*
X25390875Y6357576D01*
X25468795Y6328512D01*
X25468803Y6328510D01*
X25529350Y6322001D01*
X25529355Y6322001D01*
X25529362Y6322000D01*
X25529368Y6322000D01*
X27150632Y6322000D01*
X27150638Y6322000D01*
X27150645Y6322001D01*
X27150649Y6322001D01*
X27211196Y6328510D01*
X27211199Y6328511D01*
X27211201Y6328511D01*
X27348204Y6379611D01*
X27465261Y6467239D01*
X27509132Y6525843D01*
X27565968Y6568390D01*
X27636784Y6573454D01*
X27699096Y6539429D01*
X27710868Y6525843D01*
X27754738Y6467239D01*
X27871792Y6379613D01*
X27871794Y6379612D01*
X27871796Y6379611D01*
X27930875Y6357576D01*
X28008795Y6328512D01*
X28008803Y6328510D01*
X28069350Y6322001D01*
X28069355Y6322001D01*
X28069362Y6322000D01*
X28069368Y6322000D01*
X29690632Y6322000D01*
X29690638Y6322000D01*
X29690645Y6322001D01*
X29690649Y6322001D01*
X29751196Y6328510D01*
X29751199Y6328511D01*
X29751201Y6328511D01*
X29888204Y6379611D01*
X30005261Y6467239D01*
X30049132Y6525843D01*
X30105968Y6568390D01*
X30176784Y6573454D01*
X30239096Y6539429D01*
X30250868Y6525843D01*
X30294738Y6467239D01*
X30411792Y6379613D01*
X30411794Y6379612D01*
X30411796Y6379611D01*
X30470875Y6357576D01*
X30548795Y6328512D01*
X30548803Y6328510D01*
X30609350Y6322001D01*
X30609355Y6322001D01*
X30609362Y6322000D01*
X30609368Y6322000D01*
X32230632Y6322000D01*
X32230638Y6322000D01*
X32230645Y6322001D01*
X32230649Y6322001D01*
X32291196Y6328510D01*
X32291199Y6328511D01*
X32291201Y6328511D01*
X32428204Y6379611D01*
X32545261Y6467239D01*
X32589132Y6525843D01*
X32645968Y6568390D01*
X32716784Y6573454D01*
X32779096Y6539429D01*
X32790868Y6525843D01*
X32834738Y6467239D01*
X32951792Y6379613D01*
X32951794Y6379612D01*
X32951796Y6379611D01*
X33010875Y6357576D01*
X33088795Y6328512D01*
X33088803Y6328510D01*
X33149350Y6322001D01*
X33149355Y6322001D01*
X33149362Y6322000D01*
X33149368Y6322000D01*
X34770632Y6322000D01*
X34770638Y6322000D01*
X34770645Y6322001D01*
X34770649Y6322001D01*
X34831196Y6328510D01*
X34831199Y6328511D01*
X34831201Y6328511D01*
X34968204Y6379611D01*
X35085261Y6467239D01*
X35172889Y6584296D01*
X35223989Y6721299D01*
X35230500Y6781862D01*
X35230500Y8403138D01*
X35230000Y8407789D01*
X35223990Y8463697D01*
X35223988Y8463705D01*
X35172889Y8600703D01*
X35172887Y8600708D01*
X35085261Y8717762D01*
X35026657Y8761632D01*
X34984110Y8818468D01*
X34979046Y8889284D01*
X35013071Y8951596D01*
X35026657Y8963368D01*
X35085261Y9007239D01*
X35172887Y9124293D01*
X35172887Y9124294D01*
X35172889Y9124296D01*
X35223989Y9261299D01*
X35230500Y9321862D01*
X35230500Y10943138D01*
X35230000Y10947789D01*
X35223990Y11003697D01*
X35223988Y11003705D01*
X35172889Y11140703D01*
X35172887Y11140708D01*
X35085261Y11257762D01*
X34968207Y11345388D01*
X34968202Y11345390D01*
X34831204Y11396489D01*
X34831196Y11396491D01*
X34770649Y11403000D01*
X34770638Y11403000D01*
X33149362Y11403000D01*
X33149350Y11403000D01*
X33088803Y11396491D01*
X33088795Y11396489D01*
X32951797Y11345390D01*
X32951792Y11345388D01*
X32834738Y11257761D01*
X32790867Y11199157D01*
X32734031Y11156611D01*
X32663216Y11151547D01*
X32600904Y11185572D01*
X32589133Y11199157D01*
X32545261Y11257761D01*
X32428207Y11345388D01*
X32428202Y11345390D01*
X32291204Y11396489D01*
X32291196Y11396491D01*
X32230649Y11403000D01*
X32230638Y11403000D01*
X30609362Y11403000D01*
X30609350Y11403000D01*
X30548803Y11396491D01*
X30548795Y11396489D01*
X30411797Y11345390D01*
X30411792Y11345388D01*
X30294738Y11257761D01*
X30250867Y11199157D01*
X30194031Y11156611D01*
X30123216Y11151547D01*
X30060904Y11185572D01*
X30049133Y11199157D01*
X30005261Y11257761D01*
X29888207Y11345388D01*
X29888202Y11345390D01*
X29751204Y11396489D01*
X29751196Y11396491D01*
X29690649Y11403000D01*
X29690638Y11403000D01*
X28069362Y11403000D01*
X28069350Y11403000D01*
X28008803Y11396491D01*
X28008795Y11396489D01*
X27871797Y11345390D01*
X27871792Y11345388D01*
X27754738Y11257761D01*
X27710867Y11199157D01*
X27654031Y11156611D01*
X27583216Y11151547D01*
X27520904Y11185572D01*
X27509133Y11199157D01*
X27465261Y11257761D01*
X27348207Y11345388D01*
X27348202Y11345390D01*
X27211204Y11396489D01*
X27211196Y11396491D01*
X27150649Y11403000D01*
X27150638Y11403000D01*
X25529362Y11403000D01*
X25529350Y11403000D01*
X25468803Y11396491D01*
X25468795Y11396489D01*
X25331797Y11345390D01*
X25331792Y11345388D01*
X25214738Y11257761D01*
X25170867Y11199157D01*
X25114031Y11156611D01*
X25043216Y11151547D01*
X24980904Y11185572D01*
X24969133Y11199157D01*
X24925261Y11257761D01*
X24808207Y11345388D01*
X24808202Y11345390D01*
X24671204Y11396489D01*
X24671196Y11396491D01*
X24610649Y11403000D01*
X24610638Y11403000D01*
X22989362Y11403000D01*
X22989350Y11403000D01*
X22928803Y11396491D01*
X22928795Y11396489D01*
X22791797Y11345390D01*
X22791792Y11345388D01*
X22674738Y11257762D01*
X22587112Y11140708D01*
X22587110Y11140703D01*
X22536011Y11003705D01*
X22536009Y11003697D01*
X22529500Y10943150D01*
X5534500Y10943150D01*
X5534500Y21310650D01*
X6459500Y21310650D01*
X6459500Y19689351D01*
X6466009Y19628804D01*
X6466011Y19628796D01*
X6517110Y19491798D01*
X6517112Y19491793D01*
X6604737Y19374741D01*
X6604738Y19374741D01*
X6604739Y19374739D01*
X6640886Y19347680D01*
X6663760Y19330556D01*
X6706306Y19273720D01*
X6711370Y19202904D01*
X6677345Y19140592D01*
X6663760Y19128821D01*
X6605096Y19084905D01*
X6517555Y18967966D01*
X6517555Y18967965D01*
X6466505Y18831094D01*
X6460000Y18770598D01*
X6460000Y18214000D01*
X7363382Y18214000D01*
X7315792Y18131571D01*
X7285500Y18018520D01*
X7285500Y17901480D01*
X7315792Y17788429D01*
X7363382Y17706000D01*
X6460000Y17706000D01*
X6460000Y17149403D01*
X6466505Y17088907D01*
X6517555Y16952036D01*
X6517555Y16952035D01*
X6605095Y16835096D01*
X6722034Y16747556D01*
X6858906Y16696506D01*
X6919402Y16690001D01*
X6919415Y16690000D01*
X7476000Y16690000D01*
X7476000Y17593382D01*
X7558429Y17545792D01*
X7671480Y17515500D01*
X7788520Y17515500D01*
X7901571Y17545792D01*
X7984000Y17593382D01*
X7984000Y16690000D01*
X8540585Y16690000D01*
X8540597Y16690001D01*
X8601093Y16696506D01*
X8737964Y16747556D01*
X8737965Y16747556D01*
X8854904Y16835096D01*
X8899132Y16894177D01*
X8955968Y16936724D01*
X9026783Y16941788D01*
X9089096Y16907763D01*
X9100868Y16894177D01*
X9145095Y16835096D01*
X9262034Y16747556D01*
X9398906Y16696506D01*
X9459402Y16690001D01*
X9459415Y16690000D01*
X10016000Y16690000D01*
X10016000Y17593382D01*
X10098429Y17545792D01*
X10211480Y17515500D01*
X10328520Y17515500D01*
X10441571Y17545792D01*
X10524000Y17593382D01*
X10524000Y16690000D01*
X11080585Y16690000D01*
X11080597Y16690001D01*
X11141093Y16696506D01*
X11277964Y16747556D01*
X11277965Y16747556D01*
X11394904Y16835096D01*
X11482444Y16952035D01*
X11527061Y17071658D01*
X11527062Y17071660D01*
X11533494Y17088906D01*
X11539999Y17149403D01*
X11540000Y17149415D01*
X11540000Y17706000D01*
X10636618Y17706000D01*
X10684208Y17788429D01*
X10714500Y17901480D01*
X10714500Y18018520D01*
X10684208Y18131571D01*
X10636618Y18214000D01*
X11540000Y18214000D01*
X11540000Y18770586D01*
X11539999Y18770598D01*
X11533494Y18831094D01*
X11482444Y18967965D01*
X11482444Y18967966D01*
X11394904Y19084905D01*
X11336240Y19128820D01*
X11293693Y19185656D01*
X11288629Y19256472D01*
X11322654Y19318784D01*
X11336240Y19330556D01*
X11395261Y19374739D01*
X11482887Y19491793D01*
X11482887Y19491794D01*
X11482889Y19491796D01*
X11533989Y19628799D01*
X11534610Y19634569D01*
X11538532Y19671051D01*
X20417669Y19671051D01*
X20417669Y19521632D01*
X20446818Y19375095D01*
X20446819Y19375092D01*
X20446965Y19374739D01*
X20503995Y19237057D01*
X20587003Y19112826D01*
X20692653Y19007176D01*
X20816884Y18924168D01*
X20954922Y18866991D01*
X21101462Y18837842D01*
X21250874Y18837842D01*
X21397414Y18866991D01*
X21535452Y18924168D01*
X21659683Y19007176D01*
X21765333Y19112826D01*
X21848341Y19237057D01*
X21905518Y19375095D01*
X21934667Y19521635D01*
X21934667Y19671047D01*
X21932536Y19681761D01*
X21938863Y19752474D01*
X21982417Y19808542D01*
X22049369Y19832162D01*
X22061354Y19832234D01*
X22071117Y19831828D01*
X22091411Y19827791D01*
X22168121Y19827791D01*
X22170740Y19827682D01*
X22201972Y19817082D01*
X22233622Y19807789D01*
X22235399Y19805738D01*
X22237970Y19804865D01*
X22258515Y19779061D01*
X22280115Y19754133D01*
X22280773Y19751105D01*
X22282192Y19749323D01*
X22283094Y19740437D01*
X22291501Y19701791D01*
X22291501Y19627697D01*
X22320650Y19481160D01*
X22320651Y19481157D01*
X22335966Y19444184D01*
X22377827Y19343122D01*
X22460835Y19218891D01*
X22566485Y19113241D01*
X22690716Y19030233D01*
X22828754Y18973056D01*
X22975294Y18943907D01*
X23124706Y18943907D01*
X23271246Y18973056D01*
X23409284Y19030233D01*
X23533515Y19113241D01*
X23639165Y19218891D01*
X23722173Y19343122D01*
X23779350Y19481160D01*
X23808499Y19627700D01*
X23808499Y19777112D01*
X23779350Y19923652D01*
X23722173Y20061690D01*
X23639165Y20185921D01*
X23533515Y20291571D01*
X23409284Y20374579D01*
X23317413Y20412633D01*
X23271249Y20431755D01*
X23271246Y20431756D01*
X23124709Y20460905D01*
X23124706Y20460905D01*
X23050616Y20460905D01*
X23044327Y20462752D01*
X23037885Y20461550D01*
X23010680Y20472631D01*
X22982495Y20480907D01*
X22978203Y20485860D01*
X22972134Y20488332D01*
X22955238Y20512363D01*
X22936002Y20534563D01*
X22934128Y20542388D01*
X22931300Y20546411D01*
X22927158Y20571502D01*
X22924725Y20581666D01*
X22924616Y20584286D01*
X22924616Y20660996D01*
X22920579Y20681290D01*
X22920173Y20691053D01*
X22926483Y20716402D01*
X22928812Y20742423D01*
X22934919Y20750286D01*
X22937325Y20759947D01*
X22956339Y20777861D01*
X22972366Y20798491D01*
X22981755Y20801804D01*
X22989002Y20808630D01*
X23014681Y20813420D01*
X23039318Y20822111D01*
X23055195Y20820976D01*
X23058795Y20821647D01*
X23061560Y20820521D01*
X23070646Y20819872D01*
X23081360Y20817740D01*
X23230772Y20817740D01*
X23377312Y20846889D01*
X23515350Y20904066D01*
X23639581Y20987074D01*
X23745231Y21092724D01*
X23828239Y21216955D01*
X23885416Y21354993D01*
X23914565Y21501533D01*
X23914565Y21650945D01*
X23885416Y21797485D01*
X23828239Y21935523D01*
X23745231Y22059754D01*
X23639581Y22165404D01*
X23515350Y22248412D01*
X23428304Y22284468D01*
X23377315Y22305588D01*
X23377312Y22305589D01*
X23230775Y22334738D01*
X23230772Y22334738D01*
X23081360Y22334738D01*
X23081356Y22334738D01*
X22934819Y22305589D01*
X22934816Y22305588D01*
X22796782Y22248412D01*
X22672552Y22165405D01*
X22672546Y22165400D01*
X22566905Y22059759D01*
X22566900Y22059753D01*
X22483893Y21935523D01*
X22426717Y21797489D01*
X22426716Y21797486D01*
X22397567Y21650949D01*
X22397567Y21501530D01*
X22399698Y21490816D01*
X22393367Y21420102D01*
X22349811Y21364036D01*
X22282858Y21340418D01*
X22270880Y21340347D01*
X22261110Y21340754D01*
X22240823Y21344789D01*
X22164114Y21344789D01*
X22161494Y21344898D01*
X22130257Y21355499D01*
X22098611Y21364791D01*
X22096833Y21366842D01*
X22094264Y21367714D01*
X22073720Y21393517D01*
X22052118Y21418447D01*
X22051459Y21421477D01*
X22050042Y21423256D01*
X22049139Y21432138D01*
X22040732Y21470789D01*
X22040732Y21544880D01*
X22040731Y21544883D01*
X22011583Y21691419D01*
X21954406Y21829457D01*
X21871398Y21953688D01*
X21765748Y22059338D01*
X21641517Y22142346D01*
X21554471Y22178402D01*
X21503482Y22199522D01*
X21503479Y22199523D01*
X21356942Y22228672D01*
X21356939Y22228672D01*
X21207527Y22228672D01*
X21207523Y22228672D01*
X21060986Y22199523D01*
X21060983Y22199522D01*
X20922949Y22142346D01*
X20798719Y22059339D01*
X20798713Y22059334D01*
X20693072Y21953693D01*
X20693067Y21953687D01*
X20610060Y21829457D01*
X20552884Y21691423D01*
X20552883Y21691420D01*
X20523734Y21544883D01*
X20523734Y21395464D01*
X20540605Y21310650D01*
X20552883Y21248927D01*
X20610060Y21110889D01*
X20693068Y20986658D01*
X20798718Y20881008D01*
X20922949Y20798000D01*
X21060987Y20740823D01*
X21207527Y20711674D01*
X21281618Y20711674D01*
X21287906Y20709828D01*
X21294350Y20711029D01*
X21321553Y20699949D01*
X21349739Y20691672D01*
X21354031Y20686719D01*
X21360101Y20684246D01*
X21376994Y20660217D01*
X21396232Y20638016D01*
X21398105Y20630190D01*
X21400934Y20626167D01*
X21405075Y20601077D01*
X21407509Y20590912D01*
X21407618Y20588293D01*
X21407618Y20511584D01*
X21411653Y20491297D01*
X21412060Y20481527D01*
X21405747Y20456174D01*
X21403418Y20430153D01*
X21397312Y20422294D01*
X21394907Y20412633D01*
X21375887Y20394716D01*
X21359862Y20374087D01*
X21350475Y20370776D01*
X21343230Y20363950D01*
X21317547Y20359161D01*
X21292909Y20350469D01*
X21277032Y20351605D01*
X21273437Y20350934D01*
X21270674Y20352060D01*
X21261591Y20352709D01*
X21250877Y20354840D01*
X21250874Y20354840D01*
X21101462Y20354840D01*
X21101458Y20354840D01*
X20954921Y20325691D01*
X20954918Y20325690D01*
X20816884Y20268514D01*
X20692654Y20185507D01*
X20692648Y20185502D01*
X20587007Y20079861D01*
X20587002Y20079855D01*
X20503995Y19955625D01*
X20446819Y19817591D01*
X20446818Y19817588D01*
X20417669Y19671051D01*
X11538532Y19671051D01*
X11540498Y19689345D01*
X11540499Y19689351D01*
X11540500Y19689362D01*
X11540500Y21310638D01*
X11540000Y21315289D01*
X11533990Y21371197D01*
X11533988Y21371205D01*
X11482889Y21508203D01*
X11482887Y21508208D01*
X11395260Y21625262D01*
X11336239Y21669446D01*
X11293693Y21726282D01*
X11288629Y21797098D01*
X11322654Y21859409D01*
X11336241Y21871182D01*
X11394904Y21915097D01*
X11482444Y22032035D01*
X11482444Y22032036D01*
X11533494Y22168907D01*
X11539999Y22229403D01*
X11540000Y22229415D01*
X11540000Y22786000D01*
X10636618Y22786000D01*
X10684208Y22868429D01*
X10714500Y22981480D01*
X10714500Y23098520D01*
X10684208Y23211571D01*
X10636618Y23294000D01*
X11540000Y23294000D01*
X11540000Y23850586D01*
X11539999Y23850598D01*
X11533494Y23911094D01*
X11482444Y24047965D01*
X11482444Y24047966D01*
X11394904Y24164905D01*
X11277965Y24252445D01*
X11141093Y24303495D01*
X11080597Y24310000D01*
X10524000Y24310000D01*
X10524000Y23406619D01*
X10441571Y23454208D01*
X10328520Y23484500D01*
X10211480Y23484500D01*
X10098429Y23454208D01*
X10016000Y23406619D01*
X10016000Y24310000D01*
X9459402Y24310000D01*
X9398906Y24303495D01*
X9262035Y24252445D01*
X9262034Y24252445D01*
X9145097Y24164906D01*
X9100868Y24105823D01*
X9044031Y24063277D01*
X8973216Y24058213D01*
X8910904Y24092238D01*
X8899132Y24105823D01*
X8854902Y24164906D01*
X8737965Y24252445D01*
X8601093Y24303495D01*
X8540597Y24310000D01*
X7984000Y24310000D01*
X7984000Y23406619D01*
X7901571Y23454208D01*
X7788520Y23484500D01*
X7671480Y23484500D01*
X7558429Y23454208D01*
X7476000Y23406619D01*
X7476000Y24310000D01*
X6919402Y24310000D01*
X6858906Y24303495D01*
X6722035Y24252445D01*
X6722034Y24252445D01*
X6605095Y24164905D01*
X6517555Y24047966D01*
X6517555Y24047965D01*
X6466505Y23911094D01*
X6460000Y23850598D01*
X6460000Y23294000D01*
X7363382Y23294000D01*
X7315792Y23211571D01*
X7285500Y23098520D01*
X7285500Y22981480D01*
X7315792Y22868429D01*
X7363382Y22786000D01*
X6460000Y22786000D01*
X6460000Y22229403D01*
X6466505Y22168907D01*
X6517555Y22032036D01*
X6517555Y22032035D01*
X6605095Y21915096D01*
X6663759Y21871181D01*
X6706306Y21814345D01*
X6711370Y21743530D01*
X6677345Y21681217D01*
X6663761Y21669446D01*
X6604738Y21625261D01*
X6517112Y21508208D01*
X6517110Y21508203D01*
X6466011Y21371205D01*
X6466009Y21371197D01*
X6459500Y21310650D01*
X5534500Y21310650D01*
X5534500Y33152739D01*
X20011500Y33152739D01*
X20011500Y33152736D01*
X20011500Y33007264D01*
X20039880Y32864588D01*
X20095550Y32730189D01*
X20149551Y32649370D01*
X20176369Y32609235D01*
X20176374Y32609229D01*
X20279228Y32506375D01*
X20279234Y32506370D01*
X20400189Y32425550D01*
X20534588Y32369880D01*
X20677264Y32341500D01*
X20677265Y32341500D01*
X20822735Y32341500D01*
X20822736Y32341500D01*
X20965412Y32369880D01*
X21099811Y32425550D01*
X21220766Y32506370D01*
X21323630Y32609234D01*
X21404450Y32730189D01*
X21460120Y32864588D01*
X21488500Y33007264D01*
X21488500Y33152736D01*
X21460120Y33295412D01*
X21404450Y33429811D01*
X21323630Y33550766D01*
X21323625Y33550772D01*
X21220771Y33653626D01*
X21220765Y33653631D01*
X21210260Y33660650D01*
X22479500Y33660650D01*
X22479500Y32039351D01*
X22486009Y31978804D01*
X22486011Y31978796D01*
X22537110Y31841798D01*
X22537112Y31841793D01*
X22624739Y31724739D01*
X22683343Y31680867D01*
X22725889Y31624031D01*
X22730953Y31553216D01*
X22696928Y31490904D01*
X22683343Y31479133D01*
X22624739Y31435262D01*
X22537112Y31318208D01*
X22537110Y31318203D01*
X22486011Y31181205D01*
X22486009Y31181197D01*
X22479500Y31120650D01*
X22479500Y29499351D01*
X22486009Y29438804D01*
X22486011Y29438796D01*
X22537110Y29301798D01*
X22537112Y29301793D01*
X22624738Y29184739D01*
X22741792Y29097113D01*
X22741794Y29097112D01*
X22741796Y29097111D01*
X22800875Y29075076D01*
X22878795Y29046012D01*
X22878803Y29046010D01*
X22939350Y29039501D01*
X22939355Y29039501D01*
X22939362Y29039500D01*
X22939368Y29039500D01*
X24560632Y29039500D01*
X24560638Y29039500D01*
X24560645Y29039501D01*
X24560649Y29039501D01*
X24621196Y29046010D01*
X24621199Y29046011D01*
X24621201Y29046011D01*
X24758204Y29097111D01*
X24875261Y29184739D01*
X24919132Y29243343D01*
X24975968Y29285890D01*
X25046784Y29290954D01*
X25109096Y29256929D01*
X25120868Y29243343D01*
X25164738Y29184739D01*
X25281792Y29097113D01*
X25281794Y29097112D01*
X25281796Y29097111D01*
X25340875Y29075076D01*
X25418795Y29046012D01*
X25418803Y29046010D01*
X25479350Y29039501D01*
X25479355Y29039501D01*
X25479362Y29039500D01*
X25479368Y29039500D01*
X27100632Y29039500D01*
X27100638Y29039500D01*
X27100645Y29039501D01*
X27100649Y29039501D01*
X27161196Y29046010D01*
X27161199Y29046011D01*
X27161201Y29046011D01*
X27298204Y29097111D01*
X27415261Y29184739D01*
X27459132Y29243343D01*
X27515968Y29285890D01*
X27586784Y29290954D01*
X27649096Y29256929D01*
X27660868Y29243343D01*
X27704738Y29184739D01*
X27821792Y29097113D01*
X27821794Y29097112D01*
X27821796Y29097111D01*
X27880875Y29075076D01*
X27958795Y29046012D01*
X27958803Y29046010D01*
X28019350Y29039501D01*
X28019355Y29039501D01*
X28019362Y29039500D01*
X28019368Y29039500D01*
X29640632Y29039500D01*
X29640638Y29039500D01*
X29640645Y29039501D01*
X29640649Y29039501D01*
X29701196Y29046010D01*
X29701199Y29046011D01*
X29701201Y29046011D01*
X29838204Y29097111D01*
X29955261Y29184739D01*
X29999132Y29243343D01*
X30055968Y29285890D01*
X30126784Y29290954D01*
X30189096Y29256929D01*
X30200868Y29243343D01*
X30244738Y29184739D01*
X30361792Y29097113D01*
X30361794Y29097112D01*
X30361796Y29097111D01*
X30420875Y29075076D01*
X30498795Y29046012D01*
X30498803Y29046010D01*
X30559350Y29039501D01*
X30559355Y29039501D01*
X30559362Y29039500D01*
X30559368Y29039500D01*
X32180632Y29039500D01*
X32180638Y29039500D01*
X32180645Y29039501D01*
X32180649Y29039501D01*
X32241196Y29046010D01*
X32241199Y29046011D01*
X32241201Y29046011D01*
X32378204Y29097111D01*
X32495261Y29184739D01*
X32539132Y29243343D01*
X32595968Y29285890D01*
X32666784Y29290954D01*
X32729096Y29256929D01*
X32740868Y29243343D01*
X32784738Y29184739D01*
X32901792Y29097113D01*
X32901794Y29097112D01*
X32901796Y29097111D01*
X32960875Y29075076D01*
X33038795Y29046012D01*
X33038803Y29046010D01*
X33099350Y29039501D01*
X33099355Y29039501D01*
X33099362Y29039500D01*
X33099368Y29039500D01*
X34720632Y29039500D01*
X34720638Y29039500D01*
X34720645Y29039501D01*
X34720649Y29039501D01*
X34781196Y29046010D01*
X34781199Y29046011D01*
X34781201Y29046011D01*
X34918204Y29097111D01*
X35035261Y29184739D01*
X35122889Y29301796D01*
X35173989Y29438799D01*
X35180500Y29499362D01*
X35180500Y31120638D01*
X35180000Y31125289D01*
X35173990Y31181197D01*
X35173988Y31181205D01*
X35122889Y31318203D01*
X35122887Y31318208D01*
X35035261Y31435262D01*
X34976657Y31479132D01*
X34934110Y31535968D01*
X34929046Y31606784D01*
X34963071Y31669096D01*
X34976657Y31680868D01*
X35035261Y31724739D01*
X35122887Y31841793D01*
X35122887Y31841794D01*
X35122889Y31841796D01*
X35173989Y31978799D01*
X35180500Y32039362D01*
X35180500Y33660638D01*
X35180000Y33665289D01*
X35173990Y33721197D01*
X35173988Y33721205D01*
X35122889Y33858203D01*
X35122887Y33858208D01*
X35035261Y33975262D01*
X34918207Y34062888D01*
X34918202Y34062890D01*
X34781204Y34113989D01*
X34781196Y34113991D01*
X34720649Y34120500D01*
X34720638Y34120500D01*
X33099362Y34120500D01*
X33099350Y34120500D01*
X33038803Y34113991D01*
X33038795Y34113989D01*
X32901797Y34062890D01*
X32901792Y34062888D01*
X32784738Y33975261D01*
X32740867Y33916657D01*
X32684031Y33874111D01*
X32613216Y33869047D01*
X32550904Y33903072D01*
X32539133Y33916657D01*
X32495261Y33975261D01*
X32378207Y34062888D01*
X32378202Y34062890D01*
X32241204Y34113989D01*
X32241196Y34113991D01*
X32180649Y34120500D01*
X32180638Y34120500D01*
X30559362Y34120500D01*
X30559350Y34120500D01*
X30498803Y34113991D01*
X30498795Y34113989D01*
X30361797Y34062890D01*
X30361792Y34062888D01*
X30244738Y33975261D01*
X30200867Y33916657D01*
X30144031Y33874111D01*
X30073216Y33869047D01*
X30010904Y33903072D01*
X29999133Y33916657D01*
X29955261Y33975261D01*
X29838207Y34062888D01*
X29838202Y34062890D01*
X29701204Y34113989D01*
X29701196Y34113991D01*
X29640649Y34120500D01*
X29640638Y34120500D01*
X28019362Y34120500D01*
X28019350Y34120500D01*
X27958803Y34113991D01*
X27958795Y34113989D01*
X27821797Y34062890D01*
X27821792Y34062888D01*
X27704738Y33975261D01*
X27660867Y33916657D01*
X27604031Y33874111D01*
X27533216Y33869047D01*
X27470904Y33903072D01*
X27459133Y33916657D01*
X27415261Y33975261D01*
X27298207Y34062888D01*
X27298202Y34062890D01*
X27161204Y34113989D01*
X27161196Y34113991D01*
X27100649Y34120500D01*
X27100638Y34120500D01*
X25479362Y34120500D01*
X25479350Y34120500D01*
X25418803Y34113991D01*
X25418795Y34113989D01*
X25281797Y34062890D01*
X25281792Y34062888D01*
X25164738Y33975261D01*
X25120867Y33916657D01*
X25064031Y33874111D01*
X24993216Y33869047D01*
X24930904Y33903072D01*
X24919133Y33916657D01*
X24875261Y33975261D01*
X24758207Y34062888D01*
X24758202Y34062890D01*
X24621204Y34113989D01*
X24621196Y34113991D01*
X24560649Y34120500D01*
X24560638Y34120500D01*
X22939362Y34120500D01*
X22939350Y34120500D01*
X22878803Y34113991D01*
X22878795Y34113989D01*
X22741797Y34062890D01*
X22741792Y34062888D01*
X22624738Y33975262D01*
X22537112Y33858208D01*
X22537110Y33858203D01*
X22486011Y33721205D01*
X22486009Y33721197D01*
X22479500Y33660650D01*
X21210260Y33660650D01*
X21119633Y33721205D01*
X21099811Y33734450D01*
X20965412Y33790120D01*
X20822738Y33818500D01*
X20822736Y33818500D01*
X20677264Y33818500D01*
X20677261Y33818500D01*
X20534587Y33790120D01*
X20534582Y33790118D01*
X20400189Y33734450D01*
X20279234Y33653631D01*
X20279228Y33653626D01*
X20176374Y33550772D01*
X20176369Y33550766D01*
X20095550Y33429811D01*
X20039882Y33295418D01*
X20039880Y33295413D01*
X20011500Y33152739D01*
X5534500Y33152739D01*
X5534500Y34979500D01*
X5554502Y35047621D01*
X5608158Y35094114D01*
X5660500Y35105500D01*
X45139500Y35105500D01*
X45207621Y35085498D01*
G37*
%TD.AperFunction*%
%TA.AperFunction,Conductor*%
G36*
X45021100Y22418110D02*
G01*
X45039538Y22442138D01*
X45096876Y22484005D01*
X45167747Y22488226D01*
X45229650Y22453461D01*
X45262931Y22390748D01*
X45265500Y22365433D01*
X45265500Y19634569D01*
X45245498Y19566448D01*
X45191842Y19519955D01*
X45121568Y19509851D01*
X45056988Y19539345D01*
X45039538Y19557864D01*
X45021100Y19581892D01*
X44295771Y18856563D01*
X44293260Y18862626D01*
X44200238Y19001844D01*
X44081844Y19120238D01*
X43942626Y19213260D01*
X43936561Y19215773D01*
X44661890Y19941102D01*
X44661889Y19941103D01*
X44574467Y20008185D01*
X44574461Y20008189D01*
X44363548Y20129959D01*
X44363537Y20129965D01*
X44138515Y20223172D01*
X43903249Y20286211D01*
X43661782Y20318000D01*
X43418215Y20318000D01*
X43324192Y20305622D01*
X43254043Y20316562D01*
X43200945Y20363691D01*
X43181756Y20432045D01*
X43186041Y20463154D01*
X43211993Y20560007D01*
X43250500Y20852494D01*
X43250500Y21147506D01*
X43214431Y21421477D01*
X43211994Y21439986D01*
X43211993Y21439987D01*
X43211993Y21439993D01*
X43186041Y21536848D01*
X43187731Y21607823D01*
X43227525Y21666618D01*
X43292790Y21694566D01*
X43324194Y21694379D01*
X43418217Y21682001D01*
X43418227Y21682000D01*
X43661773Y21682000D01*
X43661782Y21682001D01*
X43903249Y21713790D01*
X44138515Y21776829D01*
X44363537Y21870036D01*
X44363548Y21870042D01*
X44574460Y21991812D01*
X44661890Y22058900D01*
X43936561Y22784229D01*
X43942626Y22786740D01*
X44081844Y22879762D01*
X44200238Y22998156D01*
X44293260Y23137374D01*
X44295771Y23143439D01*
X45021100Y22418110D01*
G37*
%TD.AperFunction*%
%TD*%
M02*
