M48
; DRILL file {KiCad 9.0.6+1} date 2026-02-08T13:26:48+0000
; FORMAT={3:3/ absolute / metric / suppress leading zeros}
; #@! TF.CreationDate,2026-02-08T13:26:48+00:00
; #@! TF.GenerationSoftware,Kicad,Pcbnew,9.0.6+1
; #@! TF.FileFunction,Plated,1,2,PTH
FMAT,2
METRIC,TZ
; #@! TA.AperFunction,Plated,PTH,ViaDrill
T1C0.200
; #@! TA.AperFunction,Plated,PTH,ComponentDrill
T2C0.203
; #@! TA.AperFunction,Plated,PTH,ComponentDrill
T3C0.889
; #@! TA.AperFunction,Plated,PTH,ComponentDrill
T4C1.500
; #@! TA.AperFunction,Plated,PTH,ComponentDrill
T5C1.700
; #@! TA.AperFunction,Plated,PTH,ComponentDrill
T6C3.000
%
G90
G05
T1
X12618Y41818
X13791Y18374
X20750Y33080
X24016Y38321
X29020Y40023
X29249Y38956
T2
X21176Y19596
X21282Y21470
X22166Y20586
X23050Y19702
X23156Y21576
T3
X7730Y23040
X7730Y20500
X7730Y17960
X10270Y23040
X10270Y20500
X10270Y17960
X23750Y32850
X23750Y30310
X23800Y10133
X23800Y7593
X26290Y32850
X26290Y30310
X26340Y10133
X26340Y7593
X28830Y32850
X28830Y30310
X28880Y10133
X28880Y7593
X31370Y32850
X31370Y30310
X31420Y10133
X31420Y7593
X33910Y32850
X33910Y30310
X33960Y10133
X33960Y7593
T4
X41000Y21000
T5
X38460Y23540
X38460Y18460
X43540Y23540
X43540Y18460
T6
X10160Y30480
X10160Y10160
X40640Y30480
X40640Y10160
M30
