%TF.GenerationSoftware,KiCad,Pcbnew,9.0.6+1*%
%TF.CreationDate,2026-02-08T13:33:50+00:00*%
%TF.ProjectId,BLE02,424c4530-322e-46b6-9963-61645f706362,rev?*%
%TF.SameCoordinates,Original*%
%TF.FileFunction,Legend,Bot*%
%TF.FilePolarity,Positive*%
%FSLAX46Y46*%
G04 Gerber Fmt 4.6, Leading zero omitted, Abs format (unit mm)*
G04 Created by KiCad (PCBNEW 9.0.6+1) date 2026-02-08 13:33:50*
%MOMM*%
%LPD*%
G01*
G04 APERTURE LIST*
%ADD10C,0.150000*%
%ADD11C,0.015000*%
%ADD12C,0.120000*%
%ADD13C,0.127000*%
%ADD14C,0.200000*%
%ADD15C,0.152400*%
G04 APERTURE END LIST*
D10*
X-1830372Y43744791D02*
X-1497039Y43744791D01*
X-1497039Y43220981D02*
X-1497039Y44220981D01*
X-1497039Y44220981D02*
X-1973229Y44220981D01*
X-2354182Y43220981D02*
X-2354182Y44220981D01*
X-2830372Y43220981D02*
X-2830372Y44220981D01*
X-2830372Y44220981D02*
X-3068467Y44220981D01*
X-3068467Y44220981D02*
X-3211324Y44173362D01*
X-3211324Y44173362D02*
X-3306562Y44078124D01*
X-3306562Y44078124D02*
X-3354181Y43982886D01*
X-3354181Y43982886D02*
X-3401800Y43792410D01*
X-3401800Y43792410D02*
X-3401800Y43649553D01*
X-3401800Y43649553D02*
X-3354181Y43459077D01*
X-3354181Y43459077D02*
X-3306562Y43363839D01*
X-3306562Y43363839D02*
X-3211324Y43268600D01*
X-3211324Y43268600D02*
X-3068467Y43220981D01*
X-3068467Y43220981D02*
X-2830372Y43220981D01*
X-3735134Y44220981D02*
X-4354181Y44220981D01*
X-4354181Y44220981D02*
X-4020848Y43840029D01*
X-4020848Y43840029D02*
X-4163705Y43840029D01*
X-4163705Y43840029D02*
X-4258943Y43792410D01*
X-4258943Y43792410D02*
X-4306562Y43744791D01*
X-4306562Y43744791D02*
X-4354181Y43649553D01*
X-4354181Y43649553D02*
X-4354181Y43411458D01*
X-4354181Y43411458D02*
X-4306562Y43316220D01*
X-4306562Y43316220D02*
X-4258943Y43268600D01*
X-4258943Y43268600D02*
X-4163705Y43220981D01*
X-4163705Y43220981D02*
X-3877991Y43220981D01*
X-3877991Y43220981D02*
X-3782753Y43268600D01*
X-3782753Y43268600D02*
X-3735134Y43316220D01*
X29113885Y41417754D02*
X29113885Y41350410D01*
X29113885Y41350410D02*
X29181229Y41215723D01*
X29181229Y41215723D02*
X29248572Y41148380D01*
X29248572Y41148380D02*
X29383259Y41081036D01*
X29383259Y41081036D02*
X29517946Y41081036D01*
X29517946Y41081036D02*
X29618961Y41114708D01*
X29618961Y41114708D02*
X29787320Y41215723D01*
X29787320Y41215723D02*
X29888335Y41316738D01*
X29888335Y41316738D02*
X29989351Y41485097D01*
X29989351Y41485097D02*
X30023022Y41586112D01*
X30023022Y41586112D02*
X30023022Y41720799D01*
X30023022Y41720799D02*
X29955679Y41855486D01*
X29955679Y41855486D02*
X29888335Y41922830D01*
X29888335Y41922830D02*
X29753648Y41990173D01*
X29753648Y41990173D02*
X29686305Y41990173D01*
X29416931Y42259547D02*
X29416931Y42326891D01*
X29416931Y42326891D02*
X29383259Y42427906D01*
X29383259Y42427906D02*
X29214900Y42596265D01*
X29214900Y42596265D02*
X29113885Y42629937D01*
X29113885Y42629937D02*
X29046542Y42629937D01*
X29046542Y42629937D02*
X28945526Y42596265D01*
X28945526Y42596265D02*
X28878183Y42528921D01*
X28878183Y42528921D02*
X28810839Y42394234D01*
X28810839Y42394234D02*
X28810839Y41586112D01*
X28810839Y41586112D02*
X28373107Y42023845D01*
X28474122Y43337044D02*
X28608809Y43202357D01*
X28608809Y43202357D02*
X28642480Y43101341D01*
X28642480Y43101341D02*
X28642480Y43033998D01*
X28642480Y43033998D02*
X28608809Y42865639D01*
X28608809Y42865639D02*
X28507793Y42697280D01*
X28507793Y42697280D02*
X28238419Y42427906D01*
X28238419Y42427906D02*
X28137404Y42394235D01*
X28137404Y42394235D02*
X28070061Y42394235D01*
X28070061Y42394235D02*
X27969045Y42427906D01*
X27969045Y42427906D02*
X27834358Y42562593D01*
X27834358Y42562593D02*
X27800687Y42663609D01*
X27800687Y42663609D02*
X27800687Y42730952D01*
X27800687Y42730952D02*
X27834358Y42831967D01*
X27834358Y42831967D02*
X28002717Y43000326D01*
X28002717Y43000326D02*
X28103732Y43033998D01*
X28103732Y43033998D02*
X28171076Y43033998D01*
X28171076Y43033998D02*
X28272091Y43000326D01*
X28272091Y43000326D02*
X28406778Y42865639D01*
X28406778Y42865639D02*
X28440450Y42764624D01*
X28440450Y42764624D02*
X28440450Y42697280D01*
X28440450Y42697280D02*
X28406778Y42596265D01*
X-1830372Y36644791D02*
X-1497039Y36644791D01*
X-1497039Y36120981D02*
X-1497039Y37120981D01*
X-1497039Y37120981D02*
X-1973229Y37120981D01*
X-2354182Y36120981D02*
X-2354182Y37120981D01*
X-2830372Y36120981D02*
X-2830372Y37120981D01*
X-2830372Y37120981D02*
X-3068467Y37120981D01*
X-3068467Y37120981D02*
X-3211324Y37073362D01*
X-3211324Y37073362D02*
X-3306562Y36978124D01*
X-3306562Y36978124D02*
X-3354181Y36882886D01*
X-3354181Y36882886D02*
X-3401800Y36692410D01*
X-3401800Y36692410D02*
X-3401800Y36549553D01*
X-3401800Y36549553D02*
X-3354181Y36359077D01*
X-3354181Y36359077D02*
X-3306562Y36263839D01*
X-3306562Y36263839D02*
X-3211324Y36168600D01*
X-3211324Y36168600D02*
X-3068467Y36120981D01*
X-3068467Y36120981D02*
X-2830372Y36120981D01*
X-4354181Y36120981D02*
X-3782753Y36120981D01*
X-4068467Y36120981D02*
X-4068467Y37120981D01*
X-4068467Y37120981D02*
X-3973229Y36978124D01*
X-3973229Y36978124D02*
X-3877991Y36882886D01*
X-3877991Y36882886D02*
X-3782753Y36835267D01*
X16710357Y24520420D02*
X16757976Y24472800D01*
X16757976Y24472800D02*
X16900833Y24425181D01*
X16900833Y24425181D02*
X16996071Y24425181D01*
X16996071Y24425181D02*
X17138928Y24472800D01*
X17138928Y24472800D02*
X17234166Y24568039D01*
X17234166Y24568039D02*
X17281785Y24663277D01*
X17281785Y24663277D02*
X17329404Y24853753D01*
X17329404Y24853753D02*
X17329404Y24996610D01*
X17329404Y24996610D02*
X17281785Y25187086D01*
X17281785Y25187086D02*
X17234166Y25282324D01*
X17234166Y25282324D02*
X17138928Y25377562D01*
X17138928Y25377562D02*
X16996071Y25425181D01*
X16996071Y25425181D02*
X16900833Y25425181D01*
X16900833Y25425181D02*
X16757976Y25377562D01*
X16757976Y25377562D02*
X16710357Y25329943D01*
X16329404Y25329943D02*
X16281785Y25377562D01*
X16281785Y25377562D02*
X16186547Y25425181D01*
X16186547Y25425181D02*
X15948452Y25425181D01*
X15948452Y25425181D02*
X15853214Y25377562D01*
X15853214Y25377562D02*
X15805595Y25329943D01*
X15805595Y25329943D02*
X15757976Y25234705D01*
X15757976Y25234705D02*
X15757976Y25139467D01*
X15757976Y25139467D02*
X15805595Y24996610D01*
X15805595Y24996610D02*
X16377023Y24425181D01*
X16377023Y24425181D02*
X15757976Y24425181D01*
X15377023Y25329943D02*
X15329404Y25377562D01*
X15329404Y25377562D02*
X15234166Y25425181D01*
X15234166Y25425181D02*
X14996071Y25425181D01*
X14996071Y25425181D02*
X14900833Y25377562D01*
X14900833Y25377562D02*
X14853214Y25329943D01*
X14853214Y25329943D02*
X14805595Y25234705D01*
X14805595Y25234705D02*
X14805595Y25139467D01*
X14805595Y25139467D02*
X14853214Y24996610D01*
X14853214Y24996610D02*
X15424642Y24425181D01*
X15424642Y24425181D02*
X14805595Y24425181D01*
X39892857Y39475181D02*
X40226190Y39951372D01*
X40464285Y39475181D02*
X40464285Y40475181D01*
X40464285Y40475181D02*
X40083333Y40475181D01*
X40083333Y40475181D02*
X39988095Y40427562D01*
X39988095Y40427562D02*
X39940476Y40379943D01*
X39940476Y40379943D02*
X39892857Y40284705D01*
X39892857Y40284705D02*
X39892857Y40141848D01*
X39892857Y40141848D02*
X39940476Y40046610D01*
X39940476Y40046610D02*
X39988095Y39998991D01*
X39988095Y39998991D02*
X40083333Y39951372D01*
X40083333Y39951372D02*
X40464285Y39951372D01*
X38940476Y39475181D02*
X39511904Y39475181D01*
X39226190Y39475181D02*
X39226190Y40475181D01*
X39226190Y40475181D02*
X39321428Y40332324D01*
X39321428Y40332324D02*
X39416666Y40237086D01*
X39416666Y40237086D02*
X39511904Y40189467D01*
X38369047Y40046610D02*
X38464285Y40094229D01*
X38464285Y40094229D02*
X38511904Y40141848D01*
X38511904Y40141848D02*
X38559523Y40237086D01*
X38559523Y40237086D02*
X38559523Y40284705D01*
X38559523Y40284705D02*
X38511904Y40379943D01*
X38511904Y40379943D02*
X38464285Y40427562D01*
X38464285Y40427562D02*
X38369047Y40475181D01*
X38369047Y40475181D02*
X38178571Y40475181D01*
X38178571Y40475181D02*
X38083333Y40427562D01*
X38083333Y40427562D02*
X38035714Y40379943D01*
X38035714Y40379943D02*
X37988095Y40284705D01*
X37988095Y40284705D02*
X37988095Y40237086D01*
X37988095Y40237086D02*
X38035714Y40141848D01*
X38035714Y40141848D02*
X38083333Y40094229D01*
X38083333Y40094229D02*
X38178571Y40046610D01*
X38178571Y40046610D02*
X38369047Y40046610D01*
X38369047Y40046610D02*
X38464285Y39998991D01*
X38464285Y39998991D02*
X38511904Y39951372D01*
X38511904Y39951372D02*
X38559523Y39856134D01*
X38559523Y39856134D02*
X38559523Y39665658D01*
X38559523Y39665658D02*
X38511904Y39570420D01*
X38511904Y39570420D02*
X38464285Y39522800D01*
X38464285Y39522800D02*
X38369047Y39475181D01*
X38369047Y39475181D02*
X38178571Y39475181D01*
X38178571Y39475181D02*
X38083333Y39522800D01*
X38083333Y39522800D02*
X38035714Y39570420D01*
X38035714Y39570420D02*
X37988095Y39665658D01*
X37988095Y39665658D02*
X37988095Y39856134D01*
X37988095Y39856134D02*
X38035714Y39951372D01*
X38035714Y39951372D02*
X38083333Y39998991D01*
X38083333Y39998991D02*
X38178571Y40046610D01*
D11*
X28110928Y38291800D02*
X28273373Y38129355D01*
X28045950Y38584201D02*
X28110928Y38291800D01*
X28110928Y38291800D02*
X27818527Y38356778D01*
X27737305Y38275556D02*
X27526127Y38064377D01*
X27526127Y38064377D02*
X27769794Y38048133D01*
X27769794Y38048133D02*
X27721061Y37999399D01*
X27721061Y37999399D02*
X27704816Y37950666D01*
X27704816Y37950666D02*
X27704816Y37918177D01*
X27704816Y37918177D02*
X27721061Y37869443D01*
X27721061Y37869443D02*
X27802283Y37788221D01*
X27802283Y37788221D02*
X27851017Y37771976D01*
X27851017Y37771976D02*
X27883506Y37771976D01*
X27883506Y37771976D02*
X27932239Y37788221D01*
X27932239Y37788221D02*
X28029706Y37885688D01*
X28029706Y37885688D02*
X28045951Y37934421D01*
X28045951Y37934421D02*
X28045951Y37966910D01*
D10*
X-1830372Y40194791D02*
X-1497039Y40194791D01*
X-1497039Y39670981D02*
X-1497039Y40670981D01*
X-1497039Y40670981D02*
X-1973229Y40670981D01*
X-2354182Y39670981D02*
X-2354182Y40670981D01*
X-2830372Y39670981D02*
X-2830372Y40670981D01*
X-2830372Y40670981D02*
X-3068467Y40670981D01*
X-3068467Y40670981D02*
X-3211324Y40623362D01*
X-3211324Y40623362D02*
X-3306562Y40528124D01*
X-3306562Y40528124D02*
X-3354181Y40432886D01*
X-3354181Y40432886D02*
X-3401800Y40242410D01*
X-3401800Y40242410D02*
X-3401800Y40099553D01*
X-3401800Y40099553D02*
X-3354181Y39909077D01*
X-3354181Y39909077D02*
X-3306562Y39813839D01*
X-3306562Y39813839D02*
X-3211324Y39718600D01*
X-3211324Y39718600D02*
X-3068467Y39670981D01*
X-3068467Y39670981D02*
X-2830372Y39670981D01*
X-3782753Y40575743D02*
X-3830372Y40623362D01*
X-3830372Y40623362D02*
X-3925610Y40670981D01*
X-3925610Y40670981D02*
X-4163705Y40670981D01*
X-4163705Y40670981D02*
X-4258943Y40623362D01*
X-4258943Y40623362D02*
X-4306562Y40575743D01*
X-4306562Y40575743D02*
X-4354181Y40480505D01*
X-4354181Y40480505D02*
X-4354181Y40385267D01*
X-4354181Y40385267D02*
X-4306562Y40242410D01*
X-4306562Y40242410D02*
X-3735134Y39670981D01*
X-3735134Y39670981D02*
X-4354181Y39670981D01*
X14142857Y13710420D02*
X14190476Y13662800D01*
X14190476Y13662800D02*
X14333333Y13615181D01*
X14333333Y13615181D02*
X14428571Y13615181D01*
X14428571Y13615181D02*
X14571428Y13662800D01*
X14571428Y13662800D02*
X14666666Y13758039D01*
X14666666Y13758039D02*
X14714285Y13853277D01*
X14714285Y13853277D02*
X14761904Y14043753D01*
X14761904Y14043753D02*
X14761904Y14186610D01*
X14761904Y14186610D02*
X14714285Y14377086D01*
X14714285Y14377086D02*
X14666666Y14472324D01*
X14666666Y14472324D02*
X14571428Y14567562D01*
X14571428Y14567562D02*
X14428571Y14615181D01*
X14428571Y14615181D02*
X14333333Y14615181D01*
X14333333Y14615181D02*
X14190476Y14567562D01*
X14190476Y14567562D02*
X14142857Y14519943D01*
X13190476Y13615181D02*
X13761904Y13615181D01*
X13476190Y13615181D02*
X13476190Y14615181D01*
X13476190Y14615181D02*
X13571428Y14472324D01*
X13571428Y14472324D02*
X13666666Y14377086D01*
X13666666Y14377086D02*
X13761904Y14329467D01*
X12333333Y14615181D02*
X12523809Y14615181D01*
X12523809Y14615181D02*
X12619047Y14567562D01*
X12619047Y14567562D02*
X12666666Y14519943D01*
X12666666Y14519943D02*
X12761904Y14377086D01*
X12761904Y14377086D02*
X12809523Y14186610D01*
X12809523Y14186610D02*
X12809523Y13805658D01*
X12809523Y13805658D02*
X12761904Y13710420D01*
X12761904Y13710420D02*
X12714285Y13662800D01*
X12714285Y13662800D02*
X12619047Y13615181D01*
X12619047Y13615181D02*
X12428571Y13615181D01*
X12428571Y13615181D02*
X12333333Y13662800D01*
X12333333Y13662800D02*
X12285714Y13710420D01*
X12285714Y13710420D02*
X12238095Y13805658D01*
X12238095Y13805658D02*
X12238095Y14043753D01*
X12238095Y14043753D02*
X12285714Y14138991D01*
X12285714Y14138991D02*
X12333333Y14186610D01*
X12333333Y14186610D02*
X12428571Y14234229D01*
X12428571Y14234229D02*
X12619047Y14234229D01*
X12619047Y14234229D02*
X12714285Y14186610D01*
X12714285Y14186610D02*
X12761904Y14138991D01*
X12761904Y14138991D02*
X12809523Y14043753D01*
X30292857Y21907170D02*
X30340476Y21859550D01*
X30340476Y21859550D02*
X30483333Y21811931D01*
X30483333Y21811931D02*
X30578571Y21811931D01*
X30578571Y21811931D02*
X30721428Y21859550D01*
X30721428Y21859550D02*
X30816666Y21954789D01*
X30816666Y21954789D02*
X30864285Y22050027D01*
X30864285Y22050027D02*
X30911904Y22240503D01*
X30911904Y22240503D02*
X30911904Y22383360D01*
X30911904Y22383360D02*
X30864285Y22573836D01*
X30864285Y22573836D02*
X30816666Y22669074D01*
X30816666Y22669074D02*
X30721428Y22764312D01*
X30721428Y22764312D02*
X30578571Y22811931D01*
X30578571Y22811931D02*
X30483333Y22811931D01*
X30483333Y22811931D02*
X30340476Y22764312D01*
X30340476Y22764312D02*
X30292857Y22716693D01*
X29911904Y22716693D02*
X29864285Y22764312D01*
X29864285Y22764312D02*
X29769047Y22811931D01*
X29769047Y22811931D02*
X29530952Y22811931D01*
X29530952Y22811931D02*
X29435714Y22764312D01*
X29435714Y22764312D02*
X29388095Y22716693D01*
X29388095Y22716693D02*
X29340476Y22621455D01*
X29340476Y22621455D02*
X29340476Y22526217D01*
X29340476Y22526217D02*
X29388095Y22383360D01*
X29388095Y22383360D02*
X29959523Y21811931D01*
X29959523Y21811931D02*
X29340476Y21811931D01*
X28721428Y22811931D02*
X28626190Y22811931D01*
X28626190Y22811931D02*
X28530952Y22764312D01*
X28530952Y22764312D02*
X28483333Y22716693D01*
X28483333Y22716693D02*
X28435714Y22621455D01*
X28435714Y22621455D02*
X28388095Y22430979D01*
X28388095Y22430979D02*
X28388095Y22192884D01*
X28388095Y22192884D02*
X28435714Y22002408D01*
X28435714Y22002408D02*
X28483333Y21907170D01*
X28483333Y21907170D02*
X28530952Y21859550D01*
X28530952Y21859550D02*
X28626190Y21811931D01*
X28626190Y21811931D02*
X28721428Y21811931D01*
X28721428Y21811931D02*
X28816666Y21859550D01*
X28816666Y21859550D02*
X28864285Y21907170D01*
X28864285Y21907170D02*
X28911904Y22002408D01*
X28911904Y22002408D02*
X28959523Y22192884D01*
X28959523Y22192884D02*
X28959523Y22430979D01*
X28959523Y22430979D02*
X28911904Y22621455D01*
X28911904Y22621455D02*
X28864285Y22716693D01*
X28864285Y22716693D02*
X28816666Y22764312D01*
X28816666Y22764312D02*
X28721428Y22811931D01*
X14354819Y11261905D02*
X15164342Y11261905D01*
X15164342Y11261905D02*
X15259580Y11214286D01*
X15259580Y11214286D02*
X15307200Y11166667D01*
X15307200Y11166667D02*
X15354819Y11071429D01*
X15354819Y11071429D02*
X15354819Y10880953D01*
X15354819Y10880953D02*
X15307200Y10785715D01*
X15307200Y10785715D02*
X15259580Y10738096D01*
X15259580Y10738096D02*
X15164342Y10690477D01*
X15164342Y10690477D02*
X14354819Y10690477D01*
X14354819Y10309524D02*
X14354819Y9690477D01*
X14354819Y9690477D02*
X14735771Y10023810D01*
X14735771Y10023810D02*
X14735771Y9880953D01*
X14735771Y9880953D02*
X14783390Y9785715D01*
X14783390Y9785715D02*
X14831009Y9738096D01*
X14831009Y9738096D02*
X14926247Y9690477D01*
X14926247Y9690477D02*
X15164342Y9690477D01*
X15164342Y9690477D02*
X15259580Y9738096D01*
X15259580Y9738096D02*
X15307200Y9785715D01*
X15307200Y9785715D02*
X15354819Y9880953D01*
X15354819Y9880953D02*
X15354819Y10166667D01*
X15354819Y10166667D02*
X15307200Y10261905D01*
X15307200Y10261905D02*
X15259580Y10309524D01*
X11675357Y40010420D02*
X11722976Y39962800D01*
X11722976Y39962800D02*
X11865833Y39915181D01*
X11865833Y39915181D02*
X11961071Y39915181D01*
X11961071Y39915181D02*
X12103928Y39962800D01*
X12103928Y39962800D02*
X12199166Y40058039D01*
X12199166Y40058039D02*
X12246785Y40153277D01*
X12246785Y40153277D02*
X12294404Y40343753D01*
X12294404Y40343753D02*
X12294404Y40486610D01*
X12294404Y40486610D02*
X12246785Y40677086D01*
X12246785Y40677086D02*
X12199166Y40772324D01*
X12199166Y40772324D02*
X12103928Y40867562D01*
X12103928Y40867562D02*
X11961071Y40915181D01*
X11961071Y40915181D02*
X11865833Y40915181D01*
X11865833Y40915181D02*
X11722976Y40867562D01*
X11722976Y40867562D02*
X11675357Y40819943D01*
X11294404Y40819943D02*
X11246785Y40867562D01*
X11246785Y40867562D02*
X11151547Y40915181D01*
X11151547Y40915181D02*
X10913452Y40915181D01*
X10913452Y40915181D02*
X10818214Y40867562D01*
X10818214Y40867562D02*
X10770595Y40819943D01*
X10770595Y40819943D02*
X10722976Y40724705D01*
X10722976Y40724705D02*
X10722976Y40629467D01*
X10722976Y40629467D02*
X10770595Y40486610D01*
X10770595Y40486610D02*
X11342023Y39915181D01*
X11342023Y39915181D02*
X10722976Y39915181D01*
X10389642Y40915181D02*
X9770595Y40915181D01*
X9770595Y40915181D02*
X10103928Y40534229D01*
X10103928Y40534229D02*
X9961071Y40534229D01*
X9961071Y40534229D02*
X9865833Y40486610D01*
X9865833Y40486610D02*
X9818214Y40438991D01*
X9818214Y40438991D02*
X9770595Y40343753D01*
X9770595Y40343753D02*
X9770595Y40105658D01*
X9770595Y40105658D02*
X9818214Y40010420D01*
X9818214Y40010420D02*
X9865833Y39962800D01*
X9865833Y39962800D02*
X9961071Y39915181D01*
X9961071Y39915181D02*
X10246785Y39915181D01*
X10246785Y39915181D02*
X10342023Y39962800D01*
X10342023Y39962800D02*
X10389642Y40010420D01*
X9738094Y17045181D02*
X9738094Y18045181D01*
X9738094Y18045181D02*
X9499999Y18045181D01*
X9499999Y18045181D02*
X9357142Y17997562D01*
X9357142Y17997562D02*
X9261904Y17902324D01*
X9261904Y17902324D02*
X9214285Y17807086D01*
X9214285Y17807086D02*
X9166666Y17616610D01*
X9166666Y17616610D02*
X9166666Y17473753D01*
X9166666Y17473753D02*
X9214285Y17283277D01*
X9214285Y17283277D02*
X9261904Y17188039D01*
X9261904Y17188039D02*
X9357142Y17092800D01*
X9357142Y17092800D02*
X9499999Y17045181D01*
X9499999Y17045181D02*
X9738094Y17045181D01*
X8833332Y18045181D02*
X8214285Y18045181D01*
X8214285Y18045181D02*
X8547618Y17664229D01*
X8547618Y17664229D02*
X8404761Y17664229D01*
X8404761Y17664229D02*
X8309523Y17616610D01*
X8309523Y17616610D02*
X8261904Y17568991D01*
X8261904Y17568991D02*
X8214285Y17473753D01*
X8214285Y17473753D02*
X8214285Y17235658D01*
X8214285Y17235658D02*
X8261904Y17140420D01*
X8261904Y17140420D02*
X8309523Y17092800D01*
X8309523Y17092800D02*
X8404761Y17045181D01*
X8404761Y17045181D02*
X8690475Y17045181D01*
X8690475Y17045181D02*
X8785713Y17092800D01*
X8785713Y17092800D02*
X8833332Y17140420D01*
X22992857Y14770420D02*
X23040476Y14722800D01*
X23040476Y14722800D02*
X23183333Y14675181D01*
X23183333Y14675181D02*
X23278571Y14675181D01*
X23278571Y14675181D02*
X23421428Y14722800D01*
X23421428Y14722800D02*
X23516666Y14818039D01*
X23516666Y14818039D02*
X23564285Y14913277D01*
X23564285Y14913277D02*
X23611904Y15103753D01*
X23611904Y15103753D02*
X23611904Y15246610D01*
X23611904Y15246610D02*
X23564285Y15437086D01*
X23564285Y15437086D02*
X23516666Y15532324D01*
X23516666Y15532324D02*
X23421428Y15627562D01*
X23421428Y15627562D02*
X23278571Y15675181D01*
X23278571Y15675181D02*
X23183333Y15675181D01*
X23183333Y15675181D02*
X23040476Y15627562D01*
X23040476Y15627562D02*
X22992857Y15579943D01*
X22611904Y15579943D02*
X22564285Y15627562D01*
X22564285Y15627562D02*
X22469047Y15675181D01*
X22469047Y15675181D02*
X22230952Y15675181D01*
X22230952Y15675181D02*
X22135714Y15627562D01*
X22135714Y15627562D02*
X22088095Y15579943D01*
X22088095Y15579943D02*
X22040476Y15484705D01*
X22040476Y15484705D02*
X22040476Y15389467D01*
X22040476Y15389467D02*
X22088095Y15246610D01*
X22088095Y15246610D02*
X22659523Y14675181D01*
X22659523Y14675181D02*
X22040476Y14675181D01*
X21088095Y14675181D02*
X21659523Y14675181D01*
X21373809Y14675181D02*
X21373809Y15675181D01*
X21373809Y15675181D02*
X21469047Y15532324D01*
X21469047Y15532324D02*
X21564285Y15437086D01*
X21564285Y15437086D02*
X21659523Y15389467D01*
X33351695Y23106791D02*
X33685028Y23106791D01*
X33685028Y22582981D02*
X33685028Y23582981D01*
X33685028Y23582981D02*
X33208838Y23582981D01*
X32351695Y22582981D02*
X32827885Y22582981D01*
X32827885Y22582981D02*
X32827885Y23582981D01*
X31494552Y22582981D02*
X32065980Y22582981D01*
X31780266Y22582981D02*
X31780266Y23582981D01*
X31780266Y23582981D02*
X31875504Y23440124D01*
X31875504Y23440124D02*
X31970742Y23344886D01*
X31970742Y23344886D02*
X32065980Y23297267D01*
X32549999Y21395181D02*
X32549999Y21157086D01*
X32788094Y21252324D02*
X32549999Y21157086D01*
X32549999Y21157086D02*
X32311904Y21252324D01*
X32692856Y20966610D02*
X32549999Y21157086D01*
X32549999Y21157086D02*
X32407142Y20966610D01*
X27869993Y15639144D02*
X27937337Y15639144D01*
X27937337Y15639144D02*
X28072024Y15706488D01*
X28072024Y15706488D02*
X28139367Y15773831D01*
X28139367Y15773831D02*
X28206711Y15908518D01*
X28206711Y15908518D02*
X28206711Y16043205D01*
X28206711Y16043205D02*
X28173039Y16144220D01*
X28173039Y16144220D02*
X28072024Y16312579D01*
X28072024Y16312579D02*
X27971009Y16413594D01*
X27971009Y16413594D02*
X27802650Y16514610D01*
X27802650Y16514610D02*
X27701635Y16548281D01*
X27701635Y16548281D02*
X27566948Y16548281D01*
X27566948Y16548281D02*
X27432261Y16480938D01*
X27432261Y16480938D02*
X27364917Y16413594D01*
X27364917Y16413594D02*
X27297574Y16278907D01*
X27297574Y16278907D02*
X27297574Y16211564D01*
X27028200Y15942190D02*
X26960856Y15942190D01*
X26960856Y15942190D02*
X26859841Y15908518D01*
X26859841Y15908518D02*
X26691482Y15740159D01*
X26691482Y15740159D02*
X26657810Y15639144D01*
X26657810Y15639144D02*
X26657810Y15571801D01*
X26657810Y15571801D02*
X26691482Y15470785D01*
X26691482Y15470785D02*
X26758826Y15403442D01*
X26758826Y15403442D02*
X26893513Y15336098D01*
X26893513Y15336098D02*
X27701635Y15336098D01*
X27701635Y15336098D02*
X27263902Y14898366D01*
X26186406Y14763678D02*
X26657810Y14292274D01*
X26085390Y15201411D02*
X26758825Y14864694D01*
X26758825Y14864694D02*
X26321093Y14426961D01*
X27833800Y39024891D02*
X27901144Y39024891D01*
X27901144Y39024891D02*
X28035831Y39092235D01*
X28035831Y39092235D02*
X28103174Y39159578D01*
X28103174Y39159578D02*
X28170518Y39294265D01*
X28170518Y39294265D02*
X28170518Y39428952D01*
X28170518Y39428952D02*
X28136846Y39529967D01*
X28136846Y39529967D02*
X28035831Y39698326D01*
X28035831Y39698326D02*
X27934816Y39799341D01*
X27934816Y39799341D02*
X27766457Y39900357D01*
X27766457Y39900357D02*
X27665442Y39934028D01*
X27665442Y39934028D02*
X27530755Y39934028D01*
X27530755Y39934028D02*
X27396068Y39866685D01*
X27396068Y39866685D02*
X27328724Y39799341D01*
X27328724Y39799341D02*
X27261381Y39664654D01*
X27261381Y39664654D02*
X27261381Y39597311D01*
X26992007Y39327937D02*
X26924663Y39327937D01*
X26924663Y39327937D02*
X26823648Y39294265D01*
X26823648Y39294265D02*
X26655289Y39125906D01*
X26655289Y39125906D02*
X26621617Y39024891D01*
X26621617Y39024891D02*
X26621617Y38957548D01*
X26621617Y38957548D02*
X26655289Y38856532D01*
X26655289Y38856532D02*
X26722633Y38789189D01*
X26722633Y38789189D02*
X26857320Y38721845D01*
X26857320Y38721845D02*
X27665442Y38721845D01*
X27665442Y38721845D02*
X27227709Y38284113D01*
X25880839Y38351456D02*
X26217556Y38688174D01*
X26217556Y38688174D02*
X26587945Y38385128D01*
X26587945Y38385128D02*
X26520602Y38385128D01*
X26520602Y38385128D02*
X26419587Y38351456D01*
X26419587Y38351456D02*
X26251228Y38183097D01*
X26251228Y38183097D02*
X26217556Y38082082D01*
X26217556Y38082082D02*
X26217556Y38014738D01*
X26217556Y38014738D02*
X26251228Y37913723D01*
X26251228Y37913723D02*
X26419587Y37745364D01*
X26419587Y37745364D02*
X26520602Y37711693D01*
X26520602Y37711693D02*
X26587945Y37711693D01*
X26587945Y37711693D02*
X26688961Y37745364D01*
X26688961Y37745364D02*
X26857319Y37913723D01*
X26857319Y37913723D02*
X26890991Y38014738D01*
X26890991Y38014738D02*
X26890991Y38082082D01*
X14539580Y25642858D02*
X14587200Y25690477D01*
X14587200Y25690477D02*
X14634819Y25833334D01*
X14634819Y25833334D02*
X14634819Y25928572D01*
X14634819Y25928572D02*
X14587200Y26071429D01*
X14587200Y26071429D02*
X14491961Y26166667D01*
X14491961Y26166667D02*
X14396723Y26214286D01*
X14396723Y26214286D02*
X14206247Y26261905D01*
X14206247Y26261905D02*
X14063390Y26261905D01*
X14063390Y26261905D02*
X13872914Y26214286D01*
X13872914Y26214286D02*
X13777676Y26166667D01*
X13777676Y26166667D02*
X13682438Y26071429D01*
X13682438Y26071429D02*
X13634819Y25928572D01*
X13634819Y25928572D02*
X13634819Y25833334D01*
X13634819Y25833334D02*
X13682438Y25690477D01*
X13682438Y25690477D02*
X13730057Y25642858D01*
X14634819Y24690477D02*
X14634819Y25261905D01*
X14634819Y24976191D02*
X13634819Y24976191D01*
X13634819Y24976191D02*
X13777676Y25071429D01*
X13777676Y25071429D02*
X13872914Y25166667D01*
X13872914Y25166667D02*
X13920533Y25261905D01*
X13634819Y24357143D02*
X13634819Y23690477D01*
X13634819Y23690477D02*
X14634819Y24119048D01*
X22439571Y21630748D02*
X23011991Y21058328D01*
X23011991Y21058328D02*
X23045663Y20957313D01*
X23045663Y20957313D02*
X23045663Y20889969D01*
X23045663Y20889969D02*
X23011991Y20788954D01*
X23011991Y20788954D02*
X22877304Y20654267D01*
X22877304Y20654267D02*
X22776289Y20620595D01*
X22776289Y20620595D02*
X22708945Y20620595D01*
X22708945Y20620595D02*
X22607930Y20654267D01*
X22607930Y20654267D02*
X22035510Y21226687D01*
X21799808Y20856297D02*
X21732465Y20856297D01*
X21732465Y20856297D02*
X21631449Y20822626D01*
X21631449Y20822626D02*
X21463091Y20654267D01*
X21463091Y20654267D02*
X21429419Y20553252D01*
X21429419Y20553252D02*
X21429419Y20485908D01*
X21429419Y20485908D02*
X21463091Y20384893D01*
X21463091Y20384893D02*
X21530434Y20317549D01*
X21530434Y20317549D02*
X21665121Y20250206D01*
X21665121Y20250206D02*
X22473243Y20250206D01*
X22473243Y20250206D02*
X22035510Y19812473D01*
X21154819Y31681905D02*
X21964342Y31681905D01*
X21964342Y31681905D02*
X22059580Y31634286D01*
X22059580Y31634286D02*
X22107200Y31586667D01*
X22107200Y31586667D02*
X22154819Y31491429D01*
X22154819Y31491429D02*
X22154819Y31300953D01*
X22154819Y31300953D02*
X22107200Y31205715D01*
X22107200Y31205715D02*
X22059580Y31158096D01*
X22059580Y31158096D02*
X21964342Y31110477D01*
X21964342Y31110477D02*
X21154819Y31110477D01*
X22154819Y30110477D02*
X22154819Y30681905D01*
X22154819Y30396191D02*
X21154819Y30396191D01*
X21154819Y30396191D02*
X21297676Y30491429D01*
X21297676Y30491429D02*
X21392914Y30586667D01*
X21392914Y30586667D02*
X21440533Y30681905D01*
D12*
%TO.C,C26*%
X27641197Y40655391D02*
X27442386Y40854202D01*
X28362446Y41376640D02*
X28163635Y41575451D01*
%TO.C,C22*%
X16208080Y23960000D02*
X15926920Y23960000D01*
X16208080Y22940000D02*
X15926920Y22940000D01*
%TO.C,R18*%
X39487258Y39022500D02*
X39012742Y39022500D01*
X39487258Y37977500D02*
X39012742Y37977500D01*
D13*
%TO.C,Y3*%
X24500862Y39520710D02*
X26268629Y37752943D01*
X26410051Y41429899D02*
X28177818Y39662132D01*
D14*
X27323223Y37717588D02*
G75*
G02*
X27123223Y37717588I-100000J0D01*
G01*
X27123223Y37717588D02*
G75*
G02*
X27323223Y37717588I100000J0D01*
G01*
D12*
%TO.C,C16*%
X13359420Y16010000D02*
X13640580Y16010000D01*
X13359420Y14990000D02*
X13640580Y14990000D01*
%TO.C,C20*%
X29790580Y21346750D02*
X29509420Y21346750D01*
X29790580Y20326750D02*
X29509420Y20326750D01*
%TO.C,U3*%
X15740000Y12810000D02*
X15740000Y8190000D01*
X15740000Y8190000D02*
X15940000Y8190000D01*
X15940000Y12810000D02*
X15740000Y12810000D01*
X20760000Y8190000D02*
X20960000Y8190000D01*
X20960000Y12810000D02*
X20760000Y12810000D01*
X20960000Y8190000D02*
X20960000Y12810000D01*
X15940000Y13450000D02*
X15470000Y13110000D01*
X15470000Y13790000D01*
X15940000Y13450000D01*
G36*
X15940000Y13450000D02*
G01*
X15470000Y13110000D01*
X15470000Y13790000D01*
X15940000Y13450000D01*
G37*
%TO.C,C23*%
X10891920Y42310000D02*
X11173080Y42310000D01*
X10891920Y41290000D02*
X11173080Y41290000D01*
%TO.C,D3*%
X7250000Y16610000D02*
X11660000Y16610000D01*
X11660000Y16610000D02*
X11660000Y14390000D01*
X11660000Y14390000D02*
X7250000Y14390000D01*
%TO.C,C21*%
X22490580Y14210000D02*
X22209420Y14210000D01*
X22490580Y13190000D02*
X22209420Y13190000D01*
D15*
%TO.C,FL1*%
X31343500Y21360540D02*
X31343500Y21675500D01*
X31343500Y20024500D02*
X31343500Y20339460D01*
X33756500Y21675500D02*
X33756500Y21360540D01*
X33756500Y20339460D02*
X33756500Y20024500D01*
D12*
%TO.C,C24*%
X25689970Y16711219D02*
X25888781Y16910030D01*
X26411219Y15989970D02*
X26610030Y16188781D01*
%TO.C,C25*%
X27874914Y38273451D02*
X27676103Y38074640D01*
X28596163Y37552202D02*
X28397352Y37353391D01*
%TO.C,C17*%
X11765000Y24738748D02*
X11765000Y25261252D01*
X13235000Y24738748D02*
X13235000Y25261252D01*
D14*
%TO.C,U2*%
X16594125Y20918641D02*
X16594103Y20494377D01*
X16753214Y21077730D02*
X16594125Y20918641D01*
X16753214Y20335266D02*
X16594103Y20494377D01*
X22074182Y26398698D02*
X21490828Y25815344D01*
X22074204Y15014276D02*
X21915093Y15173387D01*
X22498446Y26398720D02*
X22074182Y26398698D01*
X22498468Y15014298D02*
X22074204Y15014276D01*
X22657557Y15173387D02*
X22498468Y15014298D01*
X23064143Y25833023D02*
X22498446Y26398720D01*
X27978525Y20494355D02*
X27819436Y20335266D01*
X27978547Y20918619D02*
X27819436Y21077730D01*
X27978547Y20918619D02*
X27978525Y20494355D01*
D12*
%TO.C,U1*%
X15640000Y33230000D02*
X15640000Y28610000D01*
X15640000Y28610000D02*
X15840000Y28610000D01*
X15840000Y33230000D02*
X15640000Y33230000D01*
X20660000Y28610000D02*
X20860000Y28610000D01*
X20860000Y33230000D02*
X20660000Y33230000D01*
X20860000Y28610000D02*
X20860000Y33230000D01*
X21130000Y27630000D02*
X20660000Y27970000D01*
X21130000Y28310000D01*
X21130000Y27630000D01*
G36*
X21130000Y27630000D02*
G01*
X20660000Y27970000D01*
X21130000Y28310000D01*
X21130000Y27630000D01*
G37*
%TD*%
M02*
