M48
; DRILL file {KiCad 9.0.7+1} date 2026-02-14T22:59:46+0000
; FORMAT={3:3/ absolute / metric / suppress leading zeros}
; #@! TF.CreationDate,2026-02-14T22:59:46+00:00
; #@! TF.GenerationSoftware,Kicad,Pcbnew,9.0.7+1
; #@! TF.FileFunction,Plated,1,2,PTH
FMAT,2
METRIC,TZ
; #@! TA.AperFunction,Plated,PTH,ViaDrill
T1C0.200
; #@! TA.AperFunction,Plated,PTH,ComponentDrill
T2C0.889
; #@! TA.AperFunction,Plated,PTH,ComponentDrill
T3C1.500
; #@! TA.AperFunction,Plated,PTH,ComponentDrill
T4C1.700
; #@! TA.AperFunction,Plated,PTH,ComponentDrill
T5C3.000
%
G90
G05
T1
X12030Y24230
X14021Y19558
X14224Y21050
X14275Y16916
X15300Y14300
X15646Y19304
X15697Y30251
X16281Y18644
X16400Y25350
X16600Y19750
X16650Y29100
X16739Y31471
X16891Y17069
X16893Y22700
X16993Y15977
X17450Y10200
X17602Y12040
X17704Y31013
X18009Y17145
X18212Y18644
X18491Y29108
X19350Y10300
X19550Y25050
X19550Y24100
X19787Y14910
X20100Y29100
X20196Y20750
X20635Y19600
X21000Y19000
X21100Y32800
X21100Y30350
X21100Y28650
X21174Y20174
X21200Y17900
X21388Y9737
X21388Y7638
X21550Y13350
X21630Y23170
X22150Y23800
X22400Y25550
X22733Y24689
X23057Y21985
X23150Y12100
X23462Y21001
X23510Y20000
X23530Y18800
X23540Y19410
X23550Y17900
X23660Y16350
X23851Y23343
X24002Y20523
X24511Y14021
X24638Y23368
X25050Y19850
X25050Y17600
X25240Y21090
X25756Y16283
X25900Y23350
X26010Y18700
X26900Y14199
X26900Y27100
X27150Y23807
X27150Y19850
X27150Y17600
X27200Y21400
X28118Y20803
X28200Y18740
X28350Y17100
X28452Y25500
X29050Y23401
X29650Y22450
X30150Y11990
X30220Y23874
X30550Y21000
X30750Y22400
X30840Y5890
X31674Y21895
X31900Y23900
X32563Y16534
X32601Y17119
X34036Y19787
X34036Y15773
X34300Y18250
X34450Y23950
X36000Y25790
X36030Y18270
X36050Y23950
X36070Y16200
X38450Y25840
X38450Y16200
X40767Y23647
X40767Y17729
X40900Y16200
X40950Y25790
X43500Y16200
X43510Y20853
X43550Y25840
T2
X7730Y23040
X7730Y20500
X7730Y17960
X10270Y23040
X10270Y20500
X10270Y17960
X23190Y32850
X23190Y30310
X23190Y10133
X23190Y7593
X25730Y32850
X25730Y30310
X25730Y10133
X25730Y7593
X28270Y32850
X28270Y30310
X28270Y10133
X28270Y7593
X30810Y32850
X30810Y30310
X30810Y10133
X30810Y7593
T3
X40720Y20830
T4
X38180Y23370
X38180Y18290
X43260Y23370
X43260Y18290
T5
X10160Y30480
X10160Y10160
X40640Y30480
X40640Y10160
M30
