%TF.GenerationSoftware,KiCad,Pcbnew,9.0.7+1*%
%TF.CreationDate,2026-02-14T22:29:57+00:00*%
%TF.ProjectId,BLE02,424c4530-322e-46b6-9963-61645f706362,rev?*%
%TF.SameCoordinates,Original*%
%TF.FileFunction,Legend,Bot*%
%TF.FilePolarity,Positive*%
%FSLAX46Y46*%
G04 Gerber Fmt 4.6, Leading zero omitted, Abs format (unit mm)*
G04 Created by KiCad (PCBNEW 9.0.7+1) date 2026-02-14 22:29:57*
%MOMM*%
%LPD*%
G01*
G04 APERTURE LIST*
%ADD10C,0.120000*%
%ADD11C,0.150000*%
%ADD12C,0.200000*%
%ADD13C,0.152400*%
G04 APERTURE END LIST*
D10*
X30950000Y27200000D02*
X30600000Y26850000D01*
X34450000Y19750000D02*
X33873250Y20326750D01*
X32100000Y16650000D02*
X31650000Y17100000D01*
X30550000Y28750000D02*
X30050000Y28250000D01*
D11*
X16809580Y25416667D02*
X16857200Y25464286D01*
X16857200Y25464286D02*
X16904819Y25607143D01*
X16904819Y25607143D02*
X16904819Y25702381D01*
X16904819Y25702381D02*
X16857200Y25845238D01*
X16857200Y25845238D02*
X16761961Y25940476D01*
X16761961Y25940476D02*
X16666723Y25988095D01*
X16666723Y25988095D02*
X16476247Y26035714D01*
X16476247Y26035714D02*
X16333390Y26035714D01*
X16333390Y26035714D02*
X16142914Y25988095D01*
X16142914Y25988095D02*
X16047676Y25940476D01*
X16047676Y25940476D02*
X15952438Y25845238D01*
X15952438Y25845238D02*
X15904819Y25702381D01*
X15904819Y25702381D02*
X15904819Y25607143D01*
X15904819Y25607143D02*
X15952438Y25464286D01*
X15952438Y25464286D02*
X16000057Y25416667D01*
X15904819Y25083333D02*
X15904819Y24416667D01*
X15904819Y24416667D02*
X16904819Y24845238D01*
X25592857Y28490420D02*
X25640476Y28442800D01*
X25640476Y28442800D02*
X25783333Y28395181D01*
X25783333Y28395181D02*
X25878571Y28395181D01*
X25878571Y28395181D02*
X26021428Y28442800D01*
X26021428Y28442800D02*
X26116666Y28538039D01*
X26116666Y28538039D02*
X26164285Y28633277D01*
X26164285Y28633277D02*
X26211904Y28823753D01*
X26211904Y28823753D02*
X26211904Y28966610D01*
X26211904Y28966610D02*
X26164285Y29157086D01*
X26164285Y29157086D02*
X26116666Y29252324D01*
X26116666Y29252324D02*
X26021428Y29347562D01*
X26021428Y29347562D02*
X25878571Y29395181D01*
X25878571Y29395181D02*
X25783333Y29395181D01*
X25783333Y29395181D02*
X25640476Y29347562D01*
X25640476Y29347562D02*
X25592857Y29299943D01*
X25211904Y29299943D02*
X25164285Y29347562D01*
X25164285Y29347562D02*
X25069047Y29395181D01*
X25069047Y29395181D02*
X24830952Y29395181D01*
X24830952Y29395181D02*
X24735714Y29347562D01*
X24735714Y29347562D02*
X24688095Y29299943D01*
X24688095Y29299943D02*
X24640476Y29204705D01*
X24640476Y29204705D02*
X24640476Y29109467D01*
X24640476Y29109467D02*
X24688095Y28966610D01*
X24688095Y28966610D02*
X25259523Y28395181D01*
X25259523Y28395181D02*
X24640476Y28395181D01*
X23783333Y29395181D02*
X23973809Y29395181D01*
X23973809Y29395181D02*
X24069047Y29347562D01*
X24069047Y29347562D02*
X24116666Y29299943D01*
X24116666Y29299943D02*
X24211904Y29157086D01*
X24211904Y29157086D02*
X24259523Y28966610D01*
X24259523Y28966610D02*
X24259523Y28585658D01*
X24259523Y28585658D02*
X24211904Y28490420D01*
X24211904Y28490420D02*
X24164285Y28442800D01*
X24164285Y28442800D02*
X24069047Y28395181D01*
X24069047Y28395181D02*
X23878571Y28395181D01*
X23878571Y28395181D02*
X23783333Y28442800D01*
X23783333Y28442800D02*
X23735714Y28490420D01*
X23735714Y28490420D02*
X23688095Y28585658D01*
X23688095Y28585658D02*
X23688095Y28823753D01*
X23688095Y28823753D02*
X23735714Y28918991D01*
X23735714Y28918991D02*
X23783333Y28966610D01*
X23783333Y28966610D02*
X23878571Y29014229D01*
X23878571Y29014229D02*
X24069047Y29014229D01*
X24069047Y29014229D02*
X24164285Y28966610D01*
X24164285Y28966610D02*
X24211904Y28918991D01*
X24211904Y28918991D02*
X24259523Y28823753D01*
X18509580Y22642858D02*
X18557200Y22690477D01*
X18557200Y22690477D02*
X18604819Y22833334D01*
X18604819Y22833334D02*
X18604819Y22928572D01*
X18604819Y22928572D02*
X18557200Y23071429D01*
X18557200Y23071429D02*
X18461961Y23166667D01*
X18461961Y23166667D02*
X18366723Y23214286D01*
X18366723Y23214286D02*
X18176247Y23261905D01*
X18176247Y23261905D02*
X18033390Y23261905D01*
X18033390Y23261905D02*
X17842914Y23214286D01*
X17842914Y23214286D02*
X17747676Y23166667D01*
X17747676Y23166667D02*
X17652438Y23071429D01*
X17652438Y23071429D02*
X17604819Y22928572D01*
X17604819Y22928572D02*
X17604819Y22833334D01*
X17604819Y22833334D02*
X17652438Y22690477D01*
X17652438Y22690477D02*
X17700057Y22642858D01*
X17700057Y22261905D02*
X17652438Y22214286D01*
X17652438Y22214286D02*
X17604819Y22119048D01*
X17604819Y22119048D02*
X17604819Y21880953D01*
X17604819Y21880953D02*
X17652438Y21785715D01*
X17652438Y21785715D02*
X17700057Y21738096D01*
X17700057Y21738096D02*
X17795295Y21690477D01*
X17795295Y21690477D02*
X17890533Y21690477D01*
X17890533Y21690477D02*
X18033390Y21738096D01*
X18033390Y21738096D02*
X18604819Y22309524D01*
X18604819Y22309524D02*
X18604819Y21690477D01*
X17700057Y21309524D02*
X17652438Y21261905D01*
X17652438Y21261905D02*
X17604819Y21166667D01*
X17604819Y21166667D02*
X17604819Y20928572D01*
X17604819Y20928572D02*
X17652438Y20833334D01*
X17652438Y20833334D02*
X17700057Y20785715D01*
X17700057Y20785715D02*
X17795295Y20738096D01*
X17795295Y20738096D02*
X17890533Y20738096D01*
X17890533Y20738096D02*
X18033390Y20785715D01*
X18033390Y20785715D02*
X18604819Y21357143D01*
X18604819Y21357143D02*
X18604819Y20738096D01*
X22584628Y25139591D02*
X23060819Y25139591D01*
X22060819Y25472924D02*
X22584628Y25139591D01*
X22584628Y25139591D02*
X22060819Y24806258D01*
X22060819Y24568162D02*
X22060819Y23949115D01*
X22060819Y23949115D02*
X22441771Y24282448D01*
X22441771Y24282448D02*
X22441771Y24139591D01*
X22441771Y24139591D02*
X22489390Y24044353D01*
X22489390Y24044353D02*
X22537009Y23996734D01*
X22537009Y23996734D02*
X22632247Y23949115D01*
X22632247Y23949115D02*
X22870342Y23949115D01*
X22870342Y23949115D02*
X22965580Y23996734D01*
X22965580Y23996734D02*
X23013200Y24044353D01*
X23013200Y24044353D02*
X23060819Y24139591D01*
X23060819Y24139591D02*
X23060819Y24425305D01*
X23060819Y24425305D02*
X23013200Y24520543D01*
X23013200Y24520543D02*
X22965580Y24568162D01*
X34866666Y17240420D02*
X34914285Y17192800D01*
X34914285Y17192800D02*
X35057142Y17145181D01*
X35057142Y17145181D02*
X35152380Y17145181D01*
X35152380Y17145181D02*
X35295237Y17192800D01*
X35295237Y17192800D02*
X35390475Y17288039D01*
X35390475Y17288039D02*
X35438094Y17383277D01*
X35438094Y17383277D02*
X35485713Y17573753D01*
X35485713Y17573753D02*
X35485713Y17716610D01*
X35485713Y17716610D02*
X35438094Y17907086D01*
X35438094Y17907086D02*
X35390475Y18002324D01*
X35390475Y18002324D02*
X35295237Y18097562D01*
X35295237Y18097562D02*
X35152380Y18145181D01*
X35152380Y18145181D02*
X35057142Y18145181D01*
X35057142Y18145181D02*
X34914285Y18097562D01*
X34914285Y18097562D02*
X34866666Y18049943D01*
X34533332Y18145181D02*
X33914285Y18145181D01*
X33914285Y18145181D02*
X34247618Y17764229D01*
X34247618Y17764229D02*
X34104761Y17764229D01*
X34104761Y17764229D02*
X34009523Y17716610D01*
X34009523Y17716610D02*
X33961904Y17668991D01*
X33961904Y17668991D02*
X33914285Y17573753D01*
X33914285Y17573753D02*
X33914285Y17335658D01*
X33914285Y17335658D02*
X33961904Y17240420D01*
X33961904Y17240420D02*
X34009523Y17192800D01*
X34009523Y17192800D02*
X34104761Y17145181D01*
X34104761Y17145181D02*
X34390475Y17145181D01*
X34390475Y17145181D02*
X34485713Y17192800D01*
X34485713Y17192800D02*
X34533332Y17240420D01*
X22059580Y29816667D02*
X22107200Y29864286D01*
X22107200Y29864286D02*
X22154819Y30007143D01*
X22154819Y30007143D02*
X22154819Y30102381D01*
X22154819Y30102381D02*
X22107200Y30245238D01*
X22107200Y30245238D02*
X22011961Y30340476D01*
X22011961Y30340476D02*
X21916723Y30388095D01*
X21916723Y30388095D02*
X21726247Y30435714D01*
X21726247Y30435714D02*
X21583390Y30435714D01*
X21583390Y30435714D02*
X21392914Y30388095D01*
X21392914Y30388095D02*
X21297676Y30340476D01*
X21297676Y30340476D02*
X21202438Y30245238D01*
X21202438Y30245238D02*
X21154819Y30102381D01*
X21154819Y30102381D02*
X21154819Y30007143D01*
X21154819Y30007143D02*
X21202438Y29864286D01*
X21202438Y29864286D02*
X21250057Y29816667D01*
X21154819Y28911905D02*
X21154819Y29388095D01*
X21154819Y29388095D02*
X21631009Y29435714D01*
X21631009Y29435714D02*
X21583390Y29388095D01*
X21583390Y29388095D02*
X21535771Y29292857D01*
X21535771Y29292857D02*
X21535771Y29054762D01*
X21535771Y29054762D02*
X21583390Y28959524D01*
X21583390Y28959524D02*
X21631009Y28911905D01*
X21631009Y28911905D02*
X21726247Y28864286D01*
X21726247Y28864286D02*
X21964342Y28864286D01*
X21964342Y28864286D02*
X22059580Y28911905D01*
X22059580Y28911905D02*
X22107200Y28959524D01*
X22107200Y28959524D02*
X22154819Y29054762D01*
X22154819Y29054762D02*
X22154819Y29292857D01*
X22154819Y29292857D02*
X22107200Y29388095D01*
X22107200Y29388095D02*
X22059580Y29435714D01*
X14532780Y18905458D02*
X14580400Y18953077D01*
X14580400Y18953077D02*
X14628019Y19095934D01*
X14628019Y19095934D02*
X14628019Y19191172D01*
X14628019Y19191172D02*
X14580400Y19334029D01*
X14580400Y19334029D02*
X14485161Y19429267D01*
X14485161Y19429267D02*
X14389923Y19476886D01*
X14389923Y19476886D02*
X14199447Y19524505D01*
X14199447Y19524505D02*
X14056590Y19524505D01*
X14056590Y19524505D02*
X13866114Y19476886D01*
X13866114Y19476886D02*
X13770876Y19429267D01*
X13770876Y19429267D02*
X13675638Y19334029D01*
X13675638Y19334029D02*
X13628019Y19191172D01*
X13628019Y19191172D02*
X13628019Y19095934D01*
X13628019Y19095934D02*
X13675638Y18953077D01*
X13675638Y18953077D02*
X13723257Y18905458D01*
X14628019Y17953077D02*
X14628019Y18524505D01*
X14628019Y18238791D02*
X13628019Y18238791D01*
X13628019Y18238791D02*
X13770876Y18334029D01*
X13770876Y18334029D02*
X13866114Y18429267D01*
X13866114Y18429267D02*
X13913733Y18524505D01*
X13628019Y17095934D02*
X13628019Y17286410D01*
X13628019Y17286410D02*
X13675638Y17381648D01*
X13675638Y17381648D02*
X13723257Y17429267D01*
X13723257Y17429267D02*
X13866114Y17524505D01*
X13866114Y17524505D02*
X14056590Y17572124D01*
X14056590Y17572124D02*
X14437542Y17572124D01*
X14437542Y17572124D02*
X14532780Y17524505D01*
X14532780Y17524505D02*
X14580400Y17476886D01*
X14580400Y17476886D02*
X14628019Y17381648D01*
X14628019Y17381648D02*
X14628019Y17191172D01*
X14628019Y17191172D02*
X14580400Y17095934D01*
X14580400Y17095934D02*
X14532780Y17048315D01*
X14532780Y17048315D02*
X14437542Y17000696D01*
X14437542Y17000696D02*
X14199447Y17000696D01*
X14199447Y17000696D02*
X14104209Y17048315D01*
X14104209Y17048315D02*
X14056590Y17095934D01*
X14056590Y17095934D02*
X14008971Y17191172D01*
X14008971Y17191172D02*
X14008971Y17381648D01*
X14008971Y17381648D02*
X14056590Y17476886D01*
X14056590Y17476886D02*
X14104209Y17524505D01*
X14104209Y17524505D02*
X14199447Y17572124D01*
X35745657Y18512620D02*
X35793276Y18465000D01*
X35793276Y18465000D02*
X35936133Y18417381D01*
X35936133Y18417381D02*
X36031371Y18417381D01*
X36031371Y18417381D02*
X36174228Y18465000D01*
X36174228Y18465000D02*
X36269466Y18560239D01*
X36269466Y18560239D02*
X36317085Y18655477D01*
X36317085Y18655477D02*
X36364704Y18845953D01*
X36364704Y18845953D02*
X36364704Y18988810D01*
X36364704Y18988810D02*
X36317085Y19179286D01*
X36317085Y19179286D02*
X36269466Y19274524D01*
X36269466Y19274524D02*
X36174228Y19369762D01*
X36174228Y19369762D02*
X36031371Y19417381D01*
X36031371Y19417381D02*
X35936133Y19417381D01*
X35936133Y19417381D02*
X35793276Y19369762D01*
X35793276Y19369762D02*
X35745657Y19322143D01*
X35364704Y19322143D02*
X35317085Y19369762D01*
X35317085Y19369762D02*
X35221847Y19417381D01*
X35221847Y19417381D02*
X34983752Y19417381D01*
X34983752Y19417381D02*
X34888514Y19369762D01*
X34888514Y19369762D02*
X34840895Y19322143D01*
X34840895Y19322143D02*
X34793276Y19226905D01*
X34793276Y19226905D02*
X34793276Y19131667D01*
X34793276Y19131667D02*
X34840895Y18988810D01*
X34840895Y18988810D02*
X35412323Y18417381D01*
X35412323Y18417381D02*
X34793276Y18417381D01*
X34174228Y19417381D02*
X34078990Y19417381D01*
X34078990Y19417381D02*
X33983752Y19369762D01*
X33983752Y19369762D02*
X33936133Y19322143D01*
X33936133Y19322143D02*
X33888514Y19226905D01*
X33888514Y19226905D02*
X33840895Y19036429D01*
X33840895Y19036429D02*
X33840895Y18798334D01*
X33840895Y18798334D02*
X33888514Y18607858D01*
X33888514Y18607858D02*
X33936133Y18512620D01*
X33936133Y18512620D02*
X33983752Y18465000D01*
X33983752Y18465000D02*
X34078990Y18417381D01*
X34078990Y18417381D02*
X34174228Y18417381D01*
X34174228Y18417381D02*
X34269466Y18465000D01*
X34269466Y18465000D02*
X34317085Y18512620D01*
X34317085Y18512620D02*
X34364704Y18607858D01*
X34364704Y18607858D02*
X34412323Y18798334D01*
X34412323Y18798334D02*
X34412323Y19036429D01*
X34412323Y19036429D02*
X34364704Y19226905D01*
X34364704Y19226905D02*
X34317085Y19322143D01*
X34317085Y19322143D02*
X34269466Y19369762D01*
X34269466Y19369762D02*
X34174228Y19417381D01*
X14354819Y11261905D02*
X15164342Y11261905D01*
X15164342Y11261905D02*
X15259580Y11214286D01*
X15259580Y11214286D02*
X15307200Y11166667D01*
X15307200Y11166667D02*
X15354819Y11071429D01*
X15354819Y11071429D02*
X15354819Y10880953D01*
X15354819Y10880953D02*
X15307200Y10785715D01*
X15307200Y10785715D02*
X15259580Y10738096D01*
X15259580Y10738096D02*
X15164342Y10690477D01*
X15164342Y10690477D02*
X14354819Y10690477D01*
X14354819Y10309524D02*
X14354819Y9690477D01*
X14354819Y9690477D02*
X14735771Y10023810D01*
X14735771Y10023810D02*
X14735771Y9880953D01*
X14735771Y9880953D02*
X14783390Y9785715D01*
X14783390Y9785715D02*
X14831009Y9738096D01*
X14831009Y9738096D02*
X14926247Y9690477D01*
X14926247Y9690477D02*
X15164342Y9690477D01*
X15164342Y9690477D02*
X15259580Y9738096D01*
X15259580Y9738096D02*
X15307200Y9785715D01*
X15307200Y9785715D02*
X15354819Y9880953D01*
X15354819Y9880953D02*
X15354819Y10166667D01*
X15354819Y10166667D02*
X15307200Y10261905D01*
X15307200Y10261905D02*
X15259580Y10309524D01*
X16116666Y16525181D02*
X16449999Y17001372D01*
X16688094Y16525181D02*
X16688094Y17525181D01*
X16688094Y17525181D02*
X16307142Y17525181D01*
X16307142Y17525181D02*
X16211904Y17477562D01*
X16211904Y17477562D02*
X16164285Y17429943D01*
X16164285Y17429943D02*
X16116666Y17334705D01*
X16116666Y17334705D02*
X16116666Y17191848D01*
X16116666Y17191848D02*
X16164285Y17096610D01*
X16164285Y17096610D02*
X16211904Y17048991D01*
X16211904Y17048991D02*
X16307142Y17001372D01*
X16307142Y17001372D02*
X16688094Y17001372D01*
X15783332Y17525181D02*
X15164285Y17525181D01*
X15164285Y17525181D02*
X15497618Y17144229D01*
X15497618Y17144229D02*
X15354761Y17144229D01*
X15354761Y17144229D02*
X15259523Y17096610D01*
X15259523Y17096610D02*
X15211904Y17048991D01*
X15211904Y17048991D02*
X15164285Y16953753D01*
X15164285Y16953753D02*
X15164285Y16715658D01*
X15164285Y16715658D02*
X15211904Y16620420D01*
X15211904Y16620420D02*
X15259523Y16572800D01*
X15259523Y16572800D02*
X15354761Y16525181D01*
X15354761Y16525181D02*
X15640475Y16525181D01*
X15640475Y16525181D02*
X15735713Y16572800D01*
X15735713Y16572800D02*
X15783332Y16620420D01*
X35117066Y23440220D02*
X35164685Y23392600D01*
X35164685Y23392600D02*
X35307542Y23344981D01*
X35307542Y23344981D02*
X35402780Y23344981D01*
X35402780Y23344981D02*
X35545637Y23392600D01*
X35545637Y23392600D02*
X35640875Y23487839D01*
X35640875Y23487839D02*
X35688494Y23583077D01*
X35688494Y23583077D02*
X35736113Y23773553D01*
X35736113Y23773553D02*
X35736113Y23916410D01*
X35736113Y23916410D02*
X35688494Y24106886D01*
X35688494Y24106886D02*
X35640875Y24202124D01*
X35640875Y24202124D02*
X35545637Y24297362D01*
X35545637Y24297362D02*
X35402780Y24344981D01*
X35402780Y24344981D02*
X35307542Y24344981D01*
X35307542Y24344981D02*
X35164685Y24297362D01*
X35164685Y24297362D02*
X35117066Y24249743D01*
X34259923Y24011648D02*
X34259923Y23344981D01*
X34498018Y24392600D02*
X34736113Y23678315D01*
X34736113Y23678315D02*
X34117066Y23678315D01*
X28592857Y11390420D02*
X28640476Y11342800D01*
X28640476Y11342800D02*
X28783333Y11295181D01*
X28783333Y11295181D02*
X28878571Y11295181D01*
X28878571Y11295181D02*
X29021428Y11342800D01*
X29021428Y11342800D02*
X29116666Y11438039D01*
X29116666Y11438039D02*
X29164285Y11533277D01*
X29164285Y11533277D02*
X29211904Y11723753D01*
X29211904Y11723753D02*
X29211904Y11866610D01*
X29211904Y11866610D02*
X29164285Y12057086D01*
X29164285Y12057086D02*
X29116666Y12152324D01*
X29116666Y12152324D02*
X29021428Y12247562D01*
X29021428Y12247562D02*
X28878571Y12295181D01*
X28878571Y12295181D02*
X28783333Y12295181D01*
X28783333Y12295181D02*
X28640476Y12247562D01*
X28640476Y12247562D02*
X28592857Y12199943D01*
X28211904Y12199943D02*
X28164285Y12247562D01*
X28164285Y12247562D02*
X28069047Y12295181D01*
X28069047Y12295181D02*
X27830952Y12295181D01*
X27830952Y12295181D02*
X27735714Y12247562D01*
X27735714Y12247562D02*
X27688095Y12199943D01*
X27688095Y12199943D02*
X27640476Y12104705D01*
X27640476Y12104705D02*
X27640476Y12009467D01*
X27640476Y12009467D02*
X27688095Y11866610D01*
X27688095Y11866610D02*
X28259523Y11295181D01*
X28259523Y11295181D02*
X27640476Y11295181D01*
X27307142Y12295181D02*
X26688095Y12295181D01*
X26688095Y12295181D02*
X27021428Y11914229D01*
X27021428Y11914229D02*
X26878571Y11914229D01*
X26878571Y11914229D02*
X26783333Y11866610D01*
X26783333Y11866610D02*
X26735714Y11818991D01*
X26735714Y11818991D02*
X26688095Y11723753D01*
X26688095Y11723753D02*
X26688095Y11485658D01*
X26688095Y11485658D02*
X26735714Y11390420D01*
X26735714Y11390420D02*
X26783333Y11342800D01*
X26783333Y11342800D02*
X26878571Y11295181D01*
X26878571Y11295181D02*
X27164285Y11295181D01*
X27164285Y11295181D02*
X27259523Y11342800D01*
X27259523Y11342800D02*
X27307142Y11390420D01*
X10364694Y14886781D02*
X10364694Y15886781D01*
X10364694Y15886781D02*
X10126599Y15886781D01*
X10126599Y15886781D02*
X9983742Y15839162D01*
X9983742Y15839162D02*
X9888504Y15743924D01*
X9888504Y15743924D02*
X9840885Y15648686D01*
X9840885Y15648686D02*
X9793266Y15458210D01*
X9793266Y15458210D02*
X9793266Y15315353D01*
X9793266Y15315353D02*
X9840885Y15124877D01*
X9840885Y15124877D02*
X9888504Y15029639D01*
X9888504Y15029639D02*
X9983742Y14934400D01*
X9983742Y14934400D02*
X10126599Y14886781D01*
X10126599Y14886781D02*
X10364694Y14886781D01*
X9459932Y15886781D02*
X8840885Y15886781D01*
X8840885Y15886781D02*
X9174218Y15505829D01*
X9174218Y15505829D02*
X9031361Y15505829D01*
X9031361Y15505829D02*
X8936123Y15458210D01*
X8936123Y15458210D02*
X8888504Y15410591D01*
X8888504Y15410591D02*
X8840885Y15315353D01*
X8840885Y15315353D02*
X8840885Y15077258D01*
X8840885Y15077258D02*
X8888504Y14982020D01*
X8888504Y14982020D02*
X8936123Y14934400D01*
X8936123Y14934400D02*
X9031361Y14886781D01*
X9031361Y14886781D02*
X9317075Y14886781D01*
X9317075Y14886781D02*
X9412313Y14934400D01*
X9412313Y14934400D02*
X9459932Y14982020D01*
X33192857Y27290420D02*
X33240476Y27242800D01*
X33240476Y27242800D02*
X33383333Y27195181D01*
X33383333Y27195181D02*
X33478571Y27195181D01*
X33478571Y27195181D02*
X33621428Y27242800D01*
X33621428Y27242800D02*
X33716666Y27338039D01*
X33716666Y27338039D02*
X33764285Y27433277D01*
X33764285Y27433277D02*
X33811904Y27623753D01*
X33811904Y27623753D02*
X33811904Y27766610D01*
X33811904Y27766610D02*
X33764285Y27957086D01*
X33764285Y27957086D02*
X33716666Y28052324D01*
X33716666Y28052324D02*
X33621428Y28147562D01*
X33621428Y28147562D02*
X33478571Y28195181D01*
X33478571Y28195181D02*
X33383333Y28195181D01*
X33383333Y28195181D02*
X33240476Y28147562D01*
X33240476Y28147562D02*
X33192857Y28099943D01*
X32811904Y28099943D02*
X32764285Y28147562D01*
X32764285Y28147562D02*
X32669047Y28195181D01*
X32669047Y28195181D02*
X32430952Y28195181D01*
X32430952Y28195181D02*
X32335714Y28147562D01*
X32335714Y28147562D02*
X32288095Y28099943D01*
X32288095Y28099943D02*
X32240476Y28004705D01*
X32240476Y28004705D02*
X32240476Y27909467D01*
X32240476Y27909467D02*
X32288095Y27766610D01*
X32288095Y27766610D02*
X32859523Y27195181D01*
X32859523Y27195181D02*
X32240476Y27195181D01*
X31288095Y27195181D02*
X31859523Y27195181D01*
X31573809Y27195181D02*
X31573809Y28195181D01*
X31573809Y28195181D02*
X31669047Y28052324D01*
X31669047Y28052324D02*
X31764285Y27957086D01*
X31764285Y27957086D02*
X31859523Y27909467D01*
X31766666Y28540420D02*
X31814285Y28492800D01*
X31814285Y28492800D02*
X31957142Y28445181D01*
X31957142Y28445181D02*
X32052380Y28445181D01*
X32052380Y28445181D02*
X32195237Y28492800D01*
X32195237Y28492800D02*
X32290475Y28588039D01*
X32290475Y28588039D02*
X32338094Y28683277D01*
X32338094Y28683277D02*
X32385713Y28873753D01*
X32385713Y28873753D02*
X32385713Y29016610D01*
X32385713Y29016610D02*
X32338094Y29207086D01*
X32338094Y29207086D02*
X32290475Y29302324D01*
X32290475Y29302324D02*
X32195237Y29397562D01*
X32195237Y29397562D02*
X32052380Y29445181D01*
X32052380Y29445181D02*
X31957142Y29445181D01*
X31957142Y29445181D02*
X31814285Y29397562D01*
X31814285Y29397562D02*
X31766666Y29349943D01*
X30909523Y29445181D02*
X31099999Y29445181D01*
X31099999Y29445181D02*
X31195237Y29397562D01*
X31195237Y29397562D02*
X31242856Y29349943D01*
X31242856Y29349943D02*
X31338094Y29207086D01*
X31338094Y29207086D02*
X31385713Y29016610D01*
X31385713Y29016610D02*
X31385713Y28635658D01*
X31385713Y28635658D02*
X31338094Y28540420D01*
X31338094Y28540420D02*
X31290475Y28492800D01*
X31290475Y28492800D02*
X31195237Y28445181D01*
X31195237Y28445181D02*
X31004761Y28445181D01*
X31004761Y28445181D02*
X30909523Y28492800D01*
X30909523Y28492800D02*
X30861904Y28540420D01*
X30861904Y28540420D02*
X30814285Y28635658D01*
X30814285Y28635658D02*
X30814285Y28873753D01*
X30814285Y28873753D02*
X30861904Y28968991D01*
X30861904Y28968991D02*
X30909523Y29016610D01*
X30909523Y29016610D02*
X31004761Y29064229D01*
X31004761Y29064229D02*
X31195237Y29064229D01*
X31195237Y29064229D02*
X31290475Y29016610D01*
X31290475Y29016610D02*
X31338094Y28968991D01*
X31338094Y28968991D02*
X31385713Y28873753D01*
X15454819Y25416667D02*
X14978628Y25750000D01*
X15454819Y25988095D02*
X14454819Y25988095D01*
X14454819Y25988095D02*
X14454819Y25607143D01*
X14454819Y25607143D02*
X14502438Y25511905D01*
X14502438Y25511905D02*
X14550057Y25464286D01*
X14550057Y25464286D02*
X14645295Y25416667D01*
X14645295Y25416667D02*
X14788152Y25416667D01*
X14788152Y25416667D02*
X14883390Y25464286D01*
X14883390Y25464286D02*
X14931009Y25511905D01*
X14931009Y25511905D02*
X14978628Y25607143D01*
X14978628Y25607143D02*
X14978628Y25988095D01*
X14550057Y25035714D02*
X14502438Y24988095D01*
X14502438Y24988095D02*
X14454819Y24892857D01*
X14454819Y24892857D02*
X14454819Y24654762D01*
X14454819Y24654762D02*
X14502438Y24559524D01*
X14502438Y24559524D02*
X14550057Y24511905D01*
X14550057Y24511905D02*
X14645295Y24464286D01*
X14645295Y24464286D02*
X14740533Y24464286D01*
X14740533Y24464286D02*
X14883390Y24511905D01*
X14883390Y24511905D02*
X15454819Y25083333D01*
X15454819Y25083333D02*
X15454819Y24464286D01*
X32342857Y15590420D02*
X32390476Y15542800D01*
X32390476Y15542800D02*
X32533333Y15495181D01*
X32533333Y15495181D02*
X32628571Y15495181D01*
X32628571Y15495181D02*
X32771428Y15542800D01*
X32771428Y15542800D02*
X32866666Y15638039D01*
X32866666Y15638039D02*
X32914285Y15733277D01*
X32914285Y15733277D02*
X32961904Y15923753D01*
X32961904Y15923753D02*
X32961904Y16066610D01*
X32961904Y16066610D02*
X32914285Y16257086D01*
X32914285Y16257086D02*
X32866666Y16352324D01*
X32866666Y16352324D02*
X32771428Y16447562D01*
X32771428Y16447562D02*
X32628571Y16495181D01*
X32628571Y16495181D02*
X32533333Y16495181D01*
X32533333Y16495181D02*
X32390476Y16447562D01*
X32390476Y16447562D02*
X32342857Y16399943D01*
X31961904Y16399943D02*
X31914285Y16447562D01*
X31914285Y16447562D02*
X31819047Y16495181D01*
X31819047Y16495181D02*
X31580952Y16495181D01*
X31580952Y16495181D02*
X31485714Y16447562D01*
X31485714Y16447562D02*
X31438095Y16399943D01*
X31438095Y16399943D02*
X31390476Y16304705D01*
X31390476Y16304705D02*
X31390476Y16209467D01*
X31390476Y16209467D02*
X31438095Y16066610D01*
X31438095Y16066610D02*
X32009523Y15495181D01*
X32009523Y15495181D02*
X31390476Y15495181D01*
X30533333Y16161848D02*
X30533333Y15495181D01*
X30771428Y16542800D02*
X31009523Y15828515D01*
X31009523Y15828515D02*
X30390476Y15828515D01*
X12921466Y26471381D02*
X13254799Y26947572D01*
X13492894Y26471381D02*
X13492894Y27471381D01*
X13492894Y27471381D02*
X13111942Y27471381D01*
X13111942Y27471381D02*
X13016704Y27423762D01*
X13016704Y27423762D02*
X12969085Y27376143D01*
X12969085Y27376143D02*
X12921466Y27280905D01*
X12921466Y27280905D02*
X12921466Y27138048D01*
X12921466Y27138048D02*
X12969085Y27042810D01*
X12969085Y27042810D02*
X13016704Y26995191D01*
X13016704Y26995191D02*
X13111942Y26947572D01*
X13111942Y26947572D02*
X13492894Y26947572D01*
X12064323Y27138048D02*
X12064323Y26471381D01*
X12302418Y27519000D02*
X12540513Y26804715D01*
X12540513Y26804715D02*
X11921466Y26804715D01*
X33684380Y26246058D02*
X33732000Y26293677D01*
X33732000Y26293677D02*
X33779619Y26436534D01*
X33779619Y26436534D02*
X33779619Y26531772D01*
X33779619Y26531772D02*
X33732000Y26674629D01*
X33732000Y26674629D02*
X33636761Y26769867D01*
X33636761Y26769867D02*
X33541523Y26817486D01*
X33541523Y26817486D02*
X33351047Y26865105D01*
X33351047Y26865105D02*
X33208190Y26865105D01*
X33208190Y26865105D02*
X33017714Y26817486D01*
X33017714Y26817486D02*
X32922476Y26769867D01*
X32922476Y26769867D02*
X32827238Y26674629D01*
X32827238Y26674629D02*
X32779619Y26531772D01*
X32779619Y26531772D02*
X32779619Y26436534D01*
X32779619Y26436534D02*
X32827238Y26293677D01*
X32827238Y26293677D02*
X32874857Y26246058D01*
X32874857Y25865105D02*
X32827238Y25817486D01*
X32827238Y25817486D02*
X32779619Y25722248D01*
X32779619Y25722248D02*
X32779619Y25484153D01*
X32779619Y25484153D02*
X32827238Y25388915D01*
X32827238Y25388915D02*
X32874857Y25341296D01*
X32874857Y25341296D02*
X32970095Y25293677D01*
X32970095Y25293677D02*
X33065333Y25293677D01*
X33065333Y25293677D02*
X33208190Y25341296D01*
X33208190Y25341296D02*
X33779619Y25912724D01*
X33779619Y25912724D02*
X33779619Y25293677D01*
X32779619Y24388915D02*
X32779619Y24865105D01*
X32779619Y24865105D02*
X33255809Y24912724D01*
X33255809Y24912724D02*
X33208190Y24865105D01*
X33208190Y24865105D02*
X33160571Y24769867D01*
X33160571Y24769867D02*
X33160571Y24531772D01*
X33160571Y24531772D02*
X33208190Y24436534D01*
X33208190Y24436534D02*
X33255809Y24388915D01*
X33255809Y24388915D02*
X33351047Y24341296D01*
X33351047Y24341296D02*
X33589142Y24341296D01*
X33589142Y24341296D02*
X33684380Y24388915D01*
X33684380Y24388915D02*
X33732000Y24436534D01*
X33732000Y24436534D02*
X33779619Y24531772D01*
X33779619Y24531772D02*
X33779619Y24769867D01*
X33779619Y24769867D02*
X33732000Y24865105D01*
X33732000Y24865105D02*
X33684380Y24912724D01*
X19959580Y24766667D02*
X20007200Y24814286D01*
X20007200Y24814286D02*
X20054819Y24957143D01*
X20054819Y24957143D02*
X20054819Y25052381D01*
X20054819Y25052381D02*
X20007200Y25195238D01*
X20007200Y25195238D02*
X19911961Y25290476D01*
X19911961Y25290476D02*
X19816723Y25338095D01*
X19816723Y25338095D02*
X19626247Y25385714D01*
X19626247Y25385714D02*
X19483390Y25385714D01*
X19483390Y25385714D02*
X19292914Y25338095D01*
X19292914Y25338095D02*
X19197676Y25290476D01*
X19197676Y25290476D02*
X19102438Y25195238D01*
X19102438Y25195238D02*
X19054819Y25052381D01*
X19054819Y25052381D02*
X19054819Y24957143D01*
X19054819Y24957143D02*
X19102438Y24814286D01*
X19102438Y24814286D02*
X19150057Y24766667D01*
X19150057Y24385714D02*
X19102438Y24338095D01*
X19102438Y24338095D02*
X19054819Y24242857D01*
X19054819Y24242857D02*
X19054819Y24004762D01*
X19054819Y24004762D02*
X19102438Y23909524D01*
X19102438Y23909524D02*
X19150057Y23861905D01*
X19150057Y23861905D02*
X19245295Y23814286D01*
X19245295Y23814286D02*
X19340533Y23814286D01*
X19340533Y23814286D02*
X19483390Y23861905D01*
X19483390Y23861905D02*
X20054819Y24433333D01*
X20054819Y24433333D02*
X20054819Y23814286D01*
X33999466Y8708220D02*
X34047085Y8660600D01*
X34047085Y8660600D02*
X34189942Y8612981D01*
X34189942Y8612981D02*
X34285180Y8612981D01*
X34285180Y8612981D02*
X34428037Y8660600D01*
X34428037Y8660600D02*
X34523275Y8755839D01*
X34523275Y8755839D02*
X34570894Y8851077D01*
X34570894Y8851077D02*
X34618513Y9041553D01*
X34618513Y9041553D02*
X34618513Y9184410D01*
X34618513Y9184410D02*
X34570894Y9374886D01*
X34570894Y9374886D02*
X34523275Y9470124D01*
X34523275Y9470124D02*
X34428037Y9565362D01*
X34428037Y9565362D02*
X34285180Y9612981D01*
X34285180Y9612981D02*
X34189942Y9612981D01*
X34189942Y9612981D02*
X34047085Y9565362D01*
X34047085Y9565362D02*
X33999466Y9517743D01*
X33428037Y9184410D02*
X33523275Y9232029D01*
X33523275Y9232029D02*
X33570894Y9279648D01*
X33570894Y9279648D02*
X33618513Y9374886D01*
X33618513Y9374886D02*
X33618513Y9422505D01*
X33618513Y9422505D02*
X33570894Y9517743D01*
X33570894Y9517743D02*
X33523275Y9565362D01*
X33523275Y9565362D02*
X33428037Y9612981D01*
X33428037Y9612981D02*
X33237561Y9612981D01*
X33237561Y9612981D02*
X33142323Y9565362D01*
X33142323Y9565362D02*
X33094704Y9517743D01*
X33094704Y9517743D02*
X33047085Y9422505D01*
X33047085Y9422505D02*
X33047085Y9374886D01*
X33047085Y9374886D02*
X33094704Y9279648D01*
X33094704Y9279648D02*
X33142323Y9232029D01*
X33142323Y9232029D02*
X33237561Y9184410D01*
X33237561Y9184410D02*
X33428037Y9184410D01*
X33428037Y9184410D02*
X33523275Y9136791D01*
X33523275Y9136791D02*
X33570894Y9089172D01*
X33570894Y9089172D02*
X33618513Y8993934D01*
X33618513Y8993934D02*
X33618513Y8803458D01*
X33618513Y8803458D02*
X33570894Y8708220D01*
X33570894Y8708220D02*
X33523275Y8660600D01*
X33523275Y8660600D02*
X33428037Y8612981D01*
X33428037Y8612981D02*
X33237561Y8612981D01*
X33237561Y8612981D02*
X33142323Y8660600D01*
X33142323Y8660600D02*
X33094704Y8708220D01*
X33094704Y8708220D02*
X33047085Y8803458D01*
X33047085Y8803458D02*
X33047085Y8993934D01*
X33047085Y8993934D02*
X33094704Y9089172D01*
X33094704Y9089172D02*
X33142323Y9136791D01*
X33142323Y9136791D02*
X33237561Y9184410D01*
X35360828Y15436791D02*
X35837019Y15436791D01*
X34837019Y15770124D02*
X35360828Y15436791D01*
X35360828Y15436791D02*
X34837019Y15103458D01*
X35837019Y14246315D02*
X35837019Y14817743D01*
X35837019Y14532029D02*
X34837019Y14532029D01*
X34837019Y14532029D02*
X34979876Y14627267D01*
X34979876Y14627267D02*
X35075114Y14722505D01*
X35075114Y14722505D02*
X35122733Y14817743D01*
X15932857Y20140420D02*
X15980476Y20092800D01*
X15980476Y20092800D02*
X16123333Y20045181D01*
X16123333Y20045181D02*
X16218571Y20045181D01*
X16218571Y20045181D02*
X16361428Y20092800D01*
X16361428Y20092800D02*
X16456666Y20188039D01*
X16456666Y20188039D02*
X16504285Y20283277D01*
X16504285Y20283277D02*
X16551904Y20473753D01*
X16551904Y20473753D02*
X16551904Y20616610D01*
X16551904Y20616610D02*
X16504285Y20807086D01*
X16504285Y20807086D02*
X16456666Y20902324D01*
X16456666Y20902324D02*
X16361428Y20997562D01*
X16361428Y20997562D02*
X16218571Y21045181D01*
X16218571Y21045181D02*
X16123333Y21045181D01*
X16123333Y21045181D02*
X15980476Y20997562D01*
X15980476Y20997562D02*
X15932857Y20949943D01*
X14980476Y20045181D02*
X15551904Y20045181D01*
X15266190Y20045181D02*
X15266190Y21045181D01*
X15266190Y21045181D02*
X15361428Y20902324D01*
X15361428Y20902324D02*
X15456666Y20807086D01*
X15456666Y20807086D02*
X15551904Y20759467D01*
X14647142Y21045181D02*
X13980476Y21045181D01*
X13980476Y21045181D02*
X14409047Y20045181D01*
X20054219Y19862705D02*
X20863742Y19862705D01*
X20863742Y19862705D02*
X20958980Y19815086D01*
X20958980Y19815086D02*
X21006600Y19767467D01*
X21006600Y19767467D02*
X21054219Y19672229D01*
X21054219Y19672229D02*
X21054219Y19481753D01*
X21054219Y19481753D02*
X21006600Y19386515D01*
X21006600Y19386515D02*
X20958980Y19338896D01*
X20958980Y19338896D02*
X20863742Y19291277D01*
X20863742Y19291277D02*
X20054219Y19291277D01*
X20149457Y18862705D02*
X20101838Y18815086D01*
X20101838Y18815086D02*
X20054219Y18719848D01*
X20054219Y18719848D02*
X20054219Y18481753D01*
X20054219Y18481753D02*
X20101838Y18386515D01*
X20101838Y18386515D02*
X20149457Y18338896D01*
X20149457Y18338896D02*
X20244695Y18291277D01*
X20244695Y18291277D02*
X20339933Y18291277D01*
X20339933Y18291277D02*
X20482790Y18338896D01*
X20482790Y18338896D02*
X21054219Y18910324D01*
X21054219Y18910324D02*
X21054219Y18291277D01*
X35329019Y26125467D02*
X34852828Y26458800D01*
X35329019Y26696895D02*
X34329019Y26696895D01*
X34329019Y26696895D02*
X34329019Y26315943D01*
X34329019Y26315943D02*
X34376638Y26220705D01*
X34376638Y26220705D02*
X34424257Y26173086D01*
X34424257Y26173086D02*
X34519495Y26125467D01*
X34519495Y26125467D02*
X34662352Y26125467D01*
X34662352Y26125467D02*
X34757590Y26173086D01*
X34757590Y26173086D02*
X34805209Y26220705D01*
X34805209Y26220705D02*
X34852828Y26315943D01*
X34852828Y26315943D02*
X34852828Y26696895D01*
X35329019Y25173086D02*
X35329019Y25744514D01*
X35329019Y25458800D02*
X34329019Y25458800D01*
X34329019Y25458800D02*
X34471876Y25554038D01*
X34471876Y25554038D02*
X34567114Y25649276D01*
X34567114Y25649276D02*
X34614733Y25744514D01*
X20066666Y16520420D02*
X20114285Y16472800D01*
X20114285Y16472800D02*
X20257142Y16425181D01*
X20257142Y16425181D02*
X20352380Y16425181D01*
X20352380Y16425181D02*
X20495237Y16472800D01*
X20495237Y16472800D02*
X20590475Y16568039D01*
X20590475Y16568039D02*
X20638094Y16663277D01*
X20638094Y16663277D02*
X20685713Y16853753D01*
X20685713Y16853753D02*
X20685713Y16996610D01*
X20685713Y16996610D02*
X20638094Y17187086D01*
X20638094Y17187086D02*
X20590475Y17282324D01*
X20590475Y17282324D02*
X20495237Y17377562D01*
X20495237Y17377562D02*
X20352380Y17425181D01*
X20352380Y17425181D02*
X20257142Y17425181D01*
X20257142Y17425181D02*
X20114285Y17377562D01*
X20114285Y17377562D02*
X20066666Y17329943D01*
X19114285Y16425181D02*
X19685713Y16425181D01*
X19399999Y16425181D02*
X19399999Y17425181D01*
X19399999Y17425181D02*
X19495237Y17282324D01*
X19495237Y17282324D02*
X19590475Y17187086D01*
X19590475Y17187086D02*
X19685713Y17139467D01*
X14204819Y30761905D02*
X15014342Y30761905D01*
X15014342Y30761905D02*
X15109580Y30714286D01*
X15109580Y30714286D02*
X15157200Y30666667D01*
X15157200Y30666667D02*
X15204819Y30571429D01*
X15204819Y30571429D02*
X15204819Y30380953D01*
X15204819Y30380953D02*
X15157200Y30285715D01*
X15157200Y30285715D02*
X15109580Y30238096D01*
X15109580Y30238096D02*
X15014342Y30190477D01*
X15014342Y30190477D02*
X14204819Y30190477D01*
X15204819Y29190477D02*
X15204819Y29761905D01*
X15204819Y29476191D02*
X14204819Y29476191D01*
X14204819Y29476191D02*
X14347676Y29571429D01*
X14347676Y29571429D02*
X14442914Y29666667D01*
X14442914Y29666667D02*
X14490533Y29761905D01*
X38684104Y21220781D02*
X38684104Y20411258D01*
X38684104Y20411258D02*
X38636485Y20316020D01*
X38636485Y20316020D02*
X38588866Y20268400D01*
X38588866Y20268400D02*
X38493628Y20220781D01*
X38493628Y20220781D02*
X38303152Y20220781D01*
X38303152Y20220781D02*
X38207914Y20268400D01*
X38207914Y20268400D02*
X38160295Y20316020D01*
X38160295Y20316020D02*
X38112676Y20411258D01*
X38112676Y20411258D02*
X38112676Y21220781D01*
X37207914Y20887448D02*
X37207914Y20220781D01*
X37446009Y21268400D02*
X37684104Y20554115D01*
X37684104Y20554115D02*
X37065057Y20554115D01*
D10*
%TO.C,C7*%
X15990000Y22659420D02*
X15990000Y22940580D01*
X17010000Y22659420D02*
X17010000Y22940580D01*
%TO.C,C26*%
X25140581Y28034000D02*
X24859419Y28034000D01*
X25140581Y27014000D02*
X24859419Y27014000D01*
%TO.C,C22*%
X18940000Y21859420D02*
X18940000Y22140580D01*
X19960000Y21859420D02*
X19960000Y22140580D01*
%TO.C,Y3*%
X26710000Y26460000D02*
X26710000Y23540000D01*
X26710000Y23540000D02*
X23290000Y23540000D01*
%TO.C,C3*%
X32290000Y18409420D02*
X32290000Y18690580D01*
X33310000Y18409420D02*
X33310000Y18690580D01*
%TO.C,C5*%
X21840000Y27109420D02*
X21840000Y27390580D01*
X22860000Y27109420D02*
X22860000Y27390580D01*
%TO.C,C16*%
X11990000Y18640580D02*
X11990000Y18359420D01*
X13010000Y18640580D02*
X13010000Y18359420D01*
%TO.C,C20*%
X32640580Y21346750D02*
X32359420Y21346750D01*
X32640580Y20326750D02*
X32359420Y20326750D01*
%TO.C,U3*%
X15740000Y12810000D02*
X15740000Y8190000D01*
X15740000Y8190000D02*
X15940000Y8190000D01*
X15940000Y12810000D02*
X15740000Y12810000D01*
X20760000Y8190000D02*
X20960000Y8190000D01*
X20960000Y12810000D02*
X20760000Y12810000D01*
X20960000Y8190000D02*
X20960000Y12810000D01*
X15940000Y13450000D02*
X15470000Y13110000D01*
X15470000Y13790000D01*
X15940000Y13450000D01*
G36*
X15940000Y13450000D02*
G01*
X15470000Y13110000D01*
X15470000Y13790000D01*
X15940000Y13450000D01*
G37*
%TO.C,R3*%
X15437258Y16072500D02*
X14962742Y16072500D01*
X15437258Y15027500D02*
X14962742Y15027500D01*
%TO.C,C4*%
X32284420Y23510000D02*
X32565580Y23510000D01*
X32284420Y22490000D02*
X32565580Y22490000D01*
%TO.C,C23*%
X27915580Y14010000D02*
X27634420Y14010000D01*
X27915580Y12990000D02*
X27634420Y12990000D01*
%TO.C,D3*%
X11314200Y16017800D02*
X13274200Y16017800D01*
X11314200Y14817800D02*
X13274200Y14817800D01*
X13274200Y16017800D02*
X13274200Y14817800D01*
%TO.C,C21*%
X29490000Y25359420D02*
X29490000Y25640580D01*
X30510000Y25359420D02*
X30510000Y25640580D01*
%TO.C,C6*%
X28609420Y28460000D02*
X28890580Y28460000D01*
X28609420Y27440000D02*
X28890580Y27440000D01*
%TO.C,R2*%
X14427500Y22587742D02*
X14427500Y23062258D01*
X15472500Y22587742D02*
X15472500Y23062258D01*
%TO.C,C24*%
X30740000Y18409419D02*
X30740000Y18690581D01*
X31760000Y18409419D02*
X31760000Y18690581D01*
%TO.C,R4*%
X13242058Y25998700D02*
X12767542Y25998700D01*
X13242058Y24953700D02*
X12767542Y24953700D01*
%TO.C,C25*%
X27490000Y25640581D02*
X27490000Y25359419D01*
X28510000Y25640581D02*
X28510000Y25359419D01*
%TO.C,C2*%
X20440000Y23859420D02*
X20440000Y24140580D01*
X21460000Y23859420D02*
X21460000Y24140580D01*
%TO.C,C8*%
X33693981Y11101800D02*
X33412819Y11101800D01*
X33693981Y10081800D02*
X33412819Y10081800D01*
%TO.C,Y1*%
X34426000Y14898200D02*
X34426000Y12178200D01*
X34426000Y12178200D02*
X31106000Y12178200D01*
%TO.C,C17*%
X12005000Y21738748D02*
X12005000Y22261252D01*
X13475000Y21738748D02*
X13475000Y22261252D01*
D12*
%TO.C,U2*%
X21824999Y22674985D02*
X21824999Y21849998D01*
X21824999Y15149999D02*
X21824999Y14925013D01*
X21824999Y14925013D02*
X22124984Y14624998D01*
X22124984Y22975000D02*
X21824999Y22674985D01*
X22350000Y14624998D02*
X22124984Y14624998D01*
X22925000Y22975000D02*
X22124984Y22975000D01*
X29875016Y22975000D02*
X29650000Y22975000D01*
X29875016Y22975000D02*
X30175001Y22674985D01*
X29875016Y14624998D02*
X29650000Y14624998D01*
X30175001Y22674985D02*
X30175001Y22449999D01*
X30175001Y15149999D02*
X30175001Y14925013D01*
X30175001Y14925013D02*
X29875016Y14624998D01*
D10*
%TO.C,R1*%
X31177500Y25262742D02*
X31177500Y25737258D01*
X32222500Y25262742D02*
X32222500Y25737258D01*
%TO.C,C1*%
X20040580Y15960000D02*
X19759420Y15960000D01*
X20040580Y14940000D02*
X19759420Y14940000D01*
%TO.C,U1*%
X15640000Y32310000D02*
X15640000Y27690000D01*
X15640000Y27690000D02*
X15840000Y27690000D01*
X15840000Y32310000D02*
X15640000Y32310000D01*
X20660000Y27690000D02*
X20860000Y27690000D01*
X20860000Y32310000D02*
X20660000Y32310000D01*
X20860000Y27690000D02*
X20860000Y32310000D01*
X21130000Y26710000D02*
X20660000Y27050000D01*
X21130000Y27390000D01*
X21130000Y26710000D01*
G36*
X21130000Y26710000D02*
G01*
X20660000Y27050000D01*
X21130000Y27390000D01*
X21130000Y26710000D01*
G37*
D13*
%TO.C,U4*%
X35013900Y22036500D02*
X36614100Y22036500D01*
X35013900Y21861597D02*
X35013900Y22036500D01*
X35013900Y19623500D02*
X35013900Y19798403D01*
X36614100Y22036500D02*
X36614100Y21861597D01*
X36614100Y19798403D02*
X36614100Y19623500D01*
X36614100Y19623500D02*
X35013900Y19623500D01*
%TD*%
M02*
