%TF.GenerationSoftware,KiCad,Pcbnew,9.0.6+1*%
%TF.CreationDate,2026-02-08T21:45:32+00:00*%
%TF.ProjectId,BLE02,424c4530-322e-46b6-9963-61645f706362,rev?*%
%TF.SameCoordinates,Original*%
%TF.FileFunction,Legend,Top*%
%TF.FilePolarity,Positive*%
%FSLAX46Y46*%
G04 Gerber Fmt 4.6, Leading zero omitted, Abs format (unit mm)*
G04 Created by KiCad (PCBNEW 9.0.6+1) date 2026-02-08 21:45:32*
%MOMM*%
%LPD*%
G01*
G04 APERTURE LIST*
%ADD10C,0.300000*%
%ADD11C,0.150000*%
G04 APERTURE END LIST*
D10*
X14722857Y13287386D02*
X14937143Y13215958D01*
X14937143Y13215958D02*
X15008572Y13144529D01*
X15008572Y13144529D02*
X15080000Y13001672D01*
X15080000Y13001672D02*
X15080000Y12787386D01*
X15080000Y12787386D02*
X15008572Y12644529D01*
X15008572Y12644529D02*
X14937143Y12573100D01*
X14937143Y12573100D02*
X14794286Y12501672D01*
X14794286Y12501672D02*
X14222857Y12501672D01*
X14222857Y12501672D02*
X14222857Y14001672D01*
X14222857Y14001672D02*
X14722857Y14001672D01*
X14722857Y14001672D02*
X14865715Y13930243D01*
X14865715Y13930243D02*
X14937143Y13858815D01*
X14937143Y13858815D02*
X15008572Y13715958D01*
X15008572Y13715958D02*
X15008572Y13573100D01*
X15008572Y13573100D02*
X14937143Y13430243D01*
X14937143Y13430243D02*
X14865715Y13358815D01*
X14865715Y13358815D02*
X14722857Y13287386D01*
X14722857Y13287386D02*
X14222857Y13287386D01*
X16437143Y12501672D02*
X15722857Y12501672D01*
X15722857Y12501672D02*
X15722857Y14001672D01*
X16937143Y13287386D02*
X17437143Y13287386D01*
X17651429Y12501672D02*
X16937143Y12501672D01*
X16937143Y12501672D02*
X16937143Y14001672D01*
X16937143Y14001672D02*
X17651429Y14001672D01*
X18580001Y14001672D02*
X18722858Y14001672D01*
X18722858Y14001672D02*
X18865715Y13930243D01*
X18865715Y13930243D02*
X18937144Y13858815D01*
X18937144Y13858815D02*
X19008572Y13715958D01*
X19008572Y13715958D02*
X19080001Y13430243D01*
X19080001Y13430243D02*
X19080001Y13073100D01*
X19080001Y13073100D02*
X19008572Y12787386D01*
X19008572Y12787386D02*
X18937144Y12644529D01*
X18937144Y12644529D02*
X18865715Y12573100D01*
X18865715Y12573100D02*
X18722858Y12501672D01*
X18722858Y12501672D02*
X18580001Y12501672D01*
X18580001Y12501672D02*
X18437144Y12573100D01*
X18437144Y12573100D02*
X18365715Y12644529D01*
X18365715Y12644529D02*
X18294286Y12787386D01*
X18294286Y12787386D02*
X18222858Y13073100D01*
X18222858Y13073100D02*
X18222858Y13430243D01*
X18222858Y13430243D02*
X18294286Y13715958D01*
X18294286Y13715958D02*
X18365715Y13858815D01*
X18365715Y13858815D02*
X18437144Y13930243D01*
X18437144Y13930243D02*
X18580001Y14001672D01*
X19651429Y13858815D02*
X19722857Y13930243D01*
X19722857Y13930243D02*
X19865715Y14001672D01*
X19865715Y14001672D02*
X20222857Y14001672D01*
X20222857Y14001672D02*
X20365715Y13930243D01*
X20365715Y13930243D02*
X20437143Y13858815D01*
X20437143Y13858815D02*
X20508572Y13715958D01*
X20508572Y13715958D02*
X20508572Y13573100D01*
X20508572Y13573100D02*
X20437143Y13358815D01*
X20437143Y13358815D02*
X19580000Y12501672D01*
X19580000Y12501672D02*
X20508572Y12501672D01*
X30021671Y28635715D02*
X31521671Y28635715D01*
X30021671Y27921429D02*
X31521671Y27921429D01*
X31521671Y27921429D02*
X30021671Y27064286D01*
X30021671Y27064286D02*
X31521671Y27064286D01*
X12907143Y23900243D02*
X12764286Y23971672D01*
X12764286Y23971672D02*
X12550000Y23971672D01*
X12550000Y23971672D02*
X12335714Y23900243D01*
X12335714Y23900243D02*
X12192857Y23757386D01*
X12192857Y23757386D02*
X12121428Y23614529D01*
X12121428Y23614529D02*
X12050000Y23328815D01*
X12050000Y23328815D02*
X12050000Y23114529D01*
X12050000Y23114529D02*
X12121428Y22828815D01*
X12121428Y22828815D02*
X12192857Y22685958D01*
X12192857Y22685958D02*
X12335714Y22543100D01*
X12335714Y22543100D02*
X12550000Y22471672D01*
X12550000Y22471672D02*
X12692857Y22471672D01*
X12692857Y22471672D02*
X12907143Y22543100D01*
X12907143Y22543100D02*
X12978571Y22614529D01*
X12978571Y22614529D02*
X12978571Y23114529D01*
X12978571Y23114529D02*
X12692857Y23114529D01*
X13621428Y22471672D02*
X13621428Y23971672D01*
X13621428Y23971672D02*
X14478571Y22471672D01*
X14478571Y22471672D02*
X14478571Y23971672D01*
X15192857Y22471672D02*
X15192857Y23971672D01*
X15192857Y23971672D02*
X15550000Y23971672D01*
X15550000Y23971672D02*
X15764286Y23900243D01*
X15764286Y23900243D02*
X15907143Y23757386D01*
X15907143Y23757386D02*
X15978572Y23614529D01*
X15978572Y23614529D02*
X16050000Y23328815D01*
X16050000Y23328815D02*
X16050000Y23114529D01*
X16050000Y23114529D02*
X15978572Y22828815D01*
X15978572Y22828815D02*
X15907143Y22685958D01*
X15907143Y22685958D02*
X15764286Y22543100D01*
X15764286Y22543100D02*
X15550000Y22471672D01*
X15550000Y22471672D02*
X15192857Y22471672D01*
X28921671Y28400000D02*
X28921671Y28114286D01*
X28921671Y28114286D02*
X28850242Y27971429D01*
X28850242Y27971429D02*
X28707385Y27828572D01*
X28707385Y27828572D02*
X28421671Y27757143D01*
X28421671Y27757143D02*
X27921671Y27757143D01*
X27921671Y27757143D02*
X27635957Y27828572D01*
X27635957Y27828572D02*
X27493100Y27971429D01*
X27493100Y27971429D02*
X27421671Y28114286D01*
X27421671Y28114286D02*
X27421671Y28400000D01*
X27421671Y28400000D02*
X27493100Y28542857D01*
X27493100Y28542857D02*
X27635957Y28685715D01*
X27635957Y28685715D02*
X27921671Y28757143D01*
X27921671Y28757143D02*
X28421671Y28757143D01*
X28421671Y28757143D02*
X28707385Y28685715D01*
X28707385Y28685715D02*
X28850242Y28542857D01*
X28850242Y28542857D02*
X28921671Y28400000D01*
X28921671Y27114286D02*
X27707385Y27114286D01*
X27707385Y27114286D02*
X27564528Y27042857D01*
X27564528Y27042857D02*
X27493100Y26971428D01*
X27493100Y26971428D02*
X27421671Y26828571D01*
X27421671Y26828571D02*
X27421671Y26542857D01*
X27421671Y26542857D02*
X27493100Y26400000D01*
X27493100Y26400000D02*
X27564528Y26328571D01*
X27564528Y26328571D02*
X27707385Y26257143D01*
X27707385Y26257143D02*
X28921671Y26257143D01*
X28921671Y25757142D02*
X28921671Y24899999D01*
X27421671Y25328571D02*
X28921671Y25328571D01*
X24928328Y11728573D02*
X24928328Y12585715D01*
X26428328Y12157144D02*
X24928328Y12157144D01*
X24928328Y12942858D02*
X26428328Y13942858D01*
X24928328Y13942858D02*
X26428328Y12942858D01*
X23207385Y28228572D02*
X23207385Y28728572D01*
X22421671Y28728572D02*
X23921671Y28728572D01*
X23921671Y28728572D02*
X23921671Y28014286D01*
X22493100Y27514286D02*
X22421671Y27300000D01*
X22421671Y27300000D02*
X22421671Y26942858D01*
X22421671Y26942858D02*
X22493100Y26800000D01*
X22493100Y26800000D02*
X22564528Y26728572D01*
X22564528Y26728572D02*
X22707385Y26657143D01*
X22707385Y26657143D02*
X22850242Y26657143D01*
X22850242Y26657143D02*
X22993100Y26728572D01*
X22993100Y26728572D02*
X23064528Y26800000D01*
X23064528Y26800000D02*
X23135957Y26942858D01*
X23135957Y26942858D02*
X23207385Y27228572D01*
X23207385Y27228572D02*
X23278814Y27371429D01*
X23278814Y27371429D02*
X23350242Y27442858D01*
X23350242Y27442858D02*
X23493100Y27514286D01*
X23493100Y27514286D02*
X23635957Y27514286D01*
X23635957Y27514286D02*
X23778814Y27442858D01*
X23778814Y27442858D02*
X23850242Y27371429D01*
X23850242Y27371429D02*
X23921671Y27228572D01*
X23921671Y27228572D02*
X23921671Y26871429D01*
X23921671Y26871429D02*
X23850242Y26657143D01*
X23135957Y25728572D02*
X22421671Y25728572D01*
X23921671Y26228572D02*
X23135957Y25728572D01*
X23135957Y25728572D02*
X23921671Y25228572D01*
X22421671Y24728573D02*
X23921671Y24728573D01*
X23921671Y24728573D02*
X22421671Y23871430D01*
X22421671Y23871430D02*
X23921671Y23871430D01*
X22564528Y22300001D02*
X22493100Y22371429D01*
X22493100Y22371429D02*
X22421671Y22585715D01*
X22421671Y22585715D02*
X22421671Y22728572D01*
X22421671Y22728572D02*
X22493100Y22942858D01*
X22493100Y22942858D02*
X22635957Y23085715D01*
X22635957Y23085715D02*
X22778814Y23157144D01*
X22778814Y23157144D02*
X23064528Y23228572D01*
X23064528Y23228572D02*
X23278814Y23228572D01*
X23278814Y23228572D02*
X23564528Y23157144D01*
X23564528Y23157144D02*
X23707385Y23085715D01*
X23707385Y23085715D02*
X23850242Y22942858D01*
X23850242Y22942858D02*
X23921671Y22728572D01*
X23921671Y22728572D02*
X23921671Y22585715D01*
X23921671Y22585715D02*
X23850242Y22371429D01*
X23850242Y22371429D02*
X23778814Y22300001D01*
X24964528Y27792858D02*
X24893100Y27864286D01*
X24893100Y27864286D02*
X24821671Y28078572D01*
X24821671Y28078572D02*
X24821671Y28221429D01*
X24821671Y28221429D02*
X24893100Y28435715D01*
X24893100Y28435715D02*
X25035957Y28578572D01*
X25035957Y28578572D02*
X25178814Y28650001D01*
X25178814Y28650001D02*
X25464528Y28721429D01*
X25464528Y28721429D02*
X25678814Y28721429D01*
X25678814Y28721429D02*
X25964528Y28650001D01*
X25964528Y28650001D02*
X26107385Y28578572D01*
X26107385Y28578572D02*
X26250242Y28435715D01*
X26250242Y28435715D02*
X26321671Y28221429D01*
X26321671Y28221429D02*
X26321671Y28078572D01*
X26321671Y28078572D02*
X26250242Y27864286D01*
X26250242Y27864286D02*
X26178814Y27792858D01*
X24821671Y26435715D02*
X24821671Y27150001D01*
X24821671Y27150001D02*
X26321671Y27150001D01*
X24821671Y25935715D02*
X26321671Y25935715D01*
X24821671Y25078572D02*
X25678814Y25721429D01*
X26321671Y25078572D02*
X25464528Y25935715D01*
X28785471Y12800001D02*
X28856900Y12728573D01*
X28856900Y12728573D02*
X28928328Y12514287D01*
X28928328Y12514287D02*
X28928328Y12371430D01*
X28928328Y12371430D02*
X28856900Y12157144D01*
X28856900Y12157144D02*
X28714042Y12014287D01*
X28714042Y12014287D02*
X28571185Y11942858D01*
X28571185Y11942858D02*
X28285471Y11871430D01*
X28285471Y11871430D02*
X28071185Y11871430D01*
X28071185Y11871430D02*
X27785471Y11942858D01*
X27785471Y11942858D02*
X27642614Y12014287D01*
X27642614Y12014287D02*
X27499757Y12157144D01*
X27499757Y12157144D02*
X27428328Y12371430D01*
X27428328Y12371430D02*
X27428328Y12514287D01*
X27428328Y12514287D02*
X27499757Y12728573D01*
X27499757Y12728573D02*
X27571185Y12800001D01*
X27428328Y13228573D02*
X27428328Y14085715D01*
X28928328Y13657144D02*
X27428328Y13657144D01*
X28856900Y14514287D02*
X28928328Y14728572D01*
X28928328Y14728572D02*
X28928328Y15085715D01*
X28928328Y15085715D02*
X28856900Y15228572D01*
X28856900Y15228572D02*
X28785471Y15300001D01*
X28785471Y15300001D02*
X28642614Y15371430D01*
X28642614Y15371430D02*
X28499757Y15371430D01*
X28499757Y15371430D02*
X28356900Y15300001D01*
X28356900Y15300001D02*
X28285471Y15228572D01*
X28285471Y15228572D02*
X28214042Y15085715D01*
X28214042Y15085715D02*
X28142614Y14800001D01*
X28142614Y14800001D02*
X28071185Y14657144D01*
X28071185Y14657144D02*
X27999757Y14585715D01*
X27999757Y14585715D02*
X27856900Y14514287D01*
X27856900Y14514287D02*
X27714042Y14514287D01*
X27714042Y14514287D02*
X27571185Y14585715D01*
X27571185Y14585715D02*
X27499757Y14657144D01*
X27499757Y14657144D02*
X27428328Y14800001D01*
X27428328Y14800001D02*
X27428328Y15157144D01*
X27428328Y15157144D02*
X27499757Y15371430D01*
X12907143Y18650243D02*
X12764286Y18721672D01*
X12764286Y18721672D02*
X12550000Y18721672D01*
X12550000Y18721672D02*
X12335714Y18650243D01*
X12335714Y18650243D02*
X12192857Y18507386D01*
X12192857Y18507386D02*
X12121428Y18364529D01*
X12121428Y18364529D02*
X12050000Y18078815D01*
X12050000Y18078815D02*
X12050000Y17864529D01*
X12050000Y17864529D02*
X12121428Y17578815D01*
X12121428Y17578815D02*
X12192857Y17435958D01*
X12192857Y17435958D02*
X12335714Y17293100D01*
X12335714Y17293100D02*
X12550000Y17221672D01*
X12550000Y17221672D02*
X12692857Y17221672D01*
X12692857Y17221672D02*
X12907143Y17293100D01*
X12907143Y17293100D02*
X12978571Y17364529D01*
X12978571Y17364529D02*
X12978571Y17864529D01*
X12978571Y17864529D02*
X12692857Y17864529D01*
X13621428Y17221672D02*
X13621428Y18721672D01*
X13621428Y18721672D02*
X14478571Y17221672D01*
X14478571Y17221672D02*
X14478571Y18721672D01*
X15192857Y17221672D02*
X15192857Y18721672D01*
X15192857Y18721672D02*
X15550000Y18721672D01*
X15550000Y18721672D02*
X15764286Y18650243D01*
X15764286Y18650243D02*
X15907143Y18507386D01*
X15907143Y18507386D02*
X15978572Y18364529D01*
X15978572Y18364529D02*
X16050000Y18078815D01*
X16050000Y18078815D02*
X16050000Y17864529D01*
X16050000Y17864529D02*
X15978572Y17578815D01*
X15978572Y17578815D02*
X15907143Y17435958D01*
X15907143Y17435958D02*
X15764286Y17293100D01*
X15764286Y17293100D02*
X15550000Y17221672D01*
X15550000Y17221672D02*
X15192857Y17221672D01*
X28588572Y19298815D02*
X28660000Y19370243D01*
X28660000Y19370243D02*
X28802858Y19441672D01*
X28802858Y19441672D02*
X29160000Y19441672D01*
X29160000Y19441672D02*
X29302858Y19370243D01*
X29302858Y19370243D02*
X29374286Y19298815D01*
X29374286Y19298815D02*
X29445715Y19155958D01*
X29445715Y19155958D02*
X29445715Y19013100D01*
X29445715Y19013100D02*
X29374286Y18798815D01*
X29374286Y18798815D02*
X28517143Y17941672D01*
X28517143Y17941672D02*
X29445715Y17941672D01*
X30374286Y19441672D02*
X30517143Y19441672D01*
X30517143Y19441672D02*
X30660000Y19370243D01*
X30660000Y19370243D02*
X30731429Y19298815D01*
X30731429Y19298815D02*
X30802857Y19155958D01*
X30802857Y19155958D02*
X30874286Y18870243D01*
X30874286Y18870243D02*
X30874286Y18513100D01*
X30874286Y18513100D02*
X30802857Y18227386D01*
X30802857Y18227386D02*
X30731429Y18084529D01*
X30731429Y18084529D02*
X30660000Y18013100D01*
X30660000Y18013100D02*
X30517143Y17941672D01*
X30517143Y17941672D02*
X30374286Y17941672D01*
X30374286Y17941672D02*
X30231429Y18013100D01*
X30231429Y18013100D02*
X30160000Y18084529D01*
X30160000Y18084529D02*
X30088571Y18227386D01*
X30088571Y18227386D02*
X30017143Y18513100D01*
X30017143Y18513100D02*
X30017143Y18870243D01*
X30017143Y18870243D02*
X30088571Y19155958D01*
X30088571Y19155958D02*
X30160000Y19298815D01*
X30160000Y19298815D02*
X30231429Y19370243D01*
X30231429Y19370243D02*
X30374286Y19441672D01*
X31445714Y19298815D02*
X31517142Y19370243D01*
X31517142Y19370243D02*
X31660000Y19441672D01*
X31660000Y19441672D02*
X32017142Y19441672D01*
X32017142Y19441672D02*
X32160000Y19370243D01*
X32160000Y19370243D02*
X32231428Y19298815D01*
X32231428Y19298815D02*
X32302857Y19155958D01*
X32302857Y19155958D02*
X32302857Y19013100D01*
X32302857Y19013100D02*
X32231428Y18798815D01*
X32231428Y18798815D02*
X31374285Y17941672D01*
X31374285Y17941672D02*
X32302857Y17941672D01*
X33588571Y19441672D02*
X33302856Y19441672D01*
X33302856Y19441672D02*
X33159999Y19370243D01*
X33159999Y19370243D02*
X33088571Y19298815D01*
X33088571Y19298815D02*
X32945713Y19084529D01*
X32945713Y19084529D02*
X32874285Y18798815D01*
X32874285Y18798815D02*
X32874285Y18227386D01*
X32874285Y18227386D02*
X32945713Y18084529D01*
X32945713Y18084529D02*
X33017142Y18013100D01*
X33017142Y18013100D02*
X33159999Y17941672D01*
X33159999Y17941672D02*
X33445713Y17941672D01*
X33445713Y17941672D02*
X33588571Y18013100D01*
X33588571Y18013100D02*
X33659999Y18084529D01*
X33659999Y18084529D02*
X33731428Y18227386D01*
X33731428Y18227386D02*
X33731428Y18584529D01*
X33731428Y18584529D02*
X33659999Y18727386D01*
X33659999Y18727386D02*
X33588571Y18798815D01*
X33588571Y18798815D02*
X33445713Y18870243D01*
X33445713Y18870243D02*
X33159999Y18870243D01*
X33159999Y18870243D02*
X33017142Y18798815D01*
X33017142Y18798815D02*
X32945713Y18727386D01*
X32945713Y18727386D02*
X32874285Y18584529D01*
X27028571Y20101672D02*
X27028571Y21601672D01*
X27028571Y21601672D02*
X27528571Y20530243D01*
X27528571Y20530243D02*
X28028571Y21601672D01*
X28028571Y21601672D02*
X28028571Y20101672D01*
X29457143Y20101672D02*
X28742857Y20101672D01*
X28742857Y20101672D02*
X28742857Y21601672D01*
X29885715Y20530243D02*
X30600001Y20530243D01*
X29742858Y20101672D02*
X30242858Y21601672D01*
X30242858Y21601672D02*
X30742858Y20101672D01*
X31742857Y20887386D02*
X31957143Y20815958D01*
X31957143Y20815958D02*
X32028572Y20744529D01*
X32028572Y20744529D02*
X32100000Y20601672D01*
X32100000Y20601672D02*
X32100000Y20387386D01*
X32100000Y20387386D02*
X32028572Y20244529D01*
X32028572Y20244529D02*
X31957143Y20173100D01*
X31957143Y20173100D02*
X31814286Y20101672D01*
X31814286Y20101672D02*
X31242857Y20101672D01*
X31242857Y20101672D02*
X31242857Y21601672D01*
X31242857Y21601672D02*
X31742857Y21601672D01*
X31742857Y21601672D02*
X31885715Y21530243D01*
X31885715Y21530243D02*
X31957143Y21458815D01*
X31957143Y21458815D02*
X32028572Y21315958D01*
X32028572Y21315958D02*
X32028572Y21173100D01*
X32028572Y21173100D02*
X31957143Y21030243D01*
X31957143Y21030243D02*
X31885715Y20958815D01*
X31885715Y20958815D02*
X31742857Y20887386D01*
X31742857Y20887386D02*
X31242857Y20887386D01*
X32742857Y20244529D02*
X32814286Y20173100D01*
X32814286Y20173100D02*
X32742857Y20101672D01*
X32742857Y20101672D02*
X32671429Y20173100D01*
X32671429Y20173100D02*
X32742857Y20244529D01*
X32742857Y20244529D02*
X32742857Y20101672D01*
X34314286Y20244529D02*
X34242858Y20173100D01*
X34242858Y20173100D02*
X34028572Y20101672D01*
X34028572Y20101672D02*
X33885715Y20101672D01*
X33885715Y20101672D02*
X33671429Y20173100D01*
X33671429Y20173100D02*
X33528572Y20315958D01*
X33528572Y20315958D02*
X33457143Y20458815D01*
X33457143Y20458815D02*
X33385715Y20744529D01*
X33385715Y20744529D02*
X33385715Y20958815D01*
X33385715Y20958815D02*
X33457143Y21244529D01*
X33457143Y21244529D02*
X33528572Y21387386D01*
X33528572Y21387386D02*
X33671429Y21530243D01*
X33671429Y21530243D02*
X33885715Y21601672D01*
X33885715Y21601672D02*
X34028572Y21601672D01*
X34028572Y21601672D02*
X34242858Y21530243D01*
X34242858Y21530243D02*
X34314286Y21458815D01*
X34814286Y21601672D02*
X35814286Y21601672D01*
X35814286Y21601672D02*
X34814286Y20101672D01*
X34814286Y20101672D02*
X35814286Y20101672D01*
X12161653Y21321672D02*
X13090225Y21321672D01*
X13090225Y21321672D02*
X12590225Y20750243D01*
X12590225Y20750243D02*
X12804510Y20750243D01*
X12804510Y20750243D02*
X12947368Y20678815D01*
X12947368Y20678815D02*
X13018796Y20607386D01*
X13018796Y20607386D02*
X13090225Y20464529D01*
X13090225Y20464529D02*
X13090225Y20107386D01*
X13090225Y20107386D02*
X13018796Y19964529D01*
X13018796Y19964529D02*
X12947368Y19893100D01*
X12947368Y19893100D02*
X12804510Y19821672D01*
X12804510Y19821672D02*
X12375939Y19821672D01*
X12375939Y19821672D02*
X12233082Y19893100D01*
X12233082Y19893100D02*
X12161653Y19964529D01*
X13733081Y19964529D02*
X13804510Y19893100D01*
X13804510Y19893100D02*
X13733081Y19821672D01*
X13733081Y19821672D02*
X13661653Y19893100D01*
X13661653Y19893100D02*
X13733081Y19964529D01*
X13733081Y19964529D02*
X13733081Y19821672D01*
X14304510Y21321672D02*
X15233082Y21321672D01*
X15233082Y21321672D02*
X14733082Y20750243D01*
X14733082Y20750243D02*
X14947367Y20750243D01*
X14947367Y20750243D02*
X15090225Y20678815D01*
X15090225Y20678815D02*
X15161653Y20607386D01*
X15161653Y20607386D02*
X15233082Y20464529D01*
X15233082Y20464529D02*
X15233082Y20107386D01*
X15233082Y20107386D02*
X15161653Y19964529D01*
X15161653Y19964529D02*
X15090225Y19893100D01*
X15090225Y19893100D02*
X14947367Y19821672D01*
X14947367Y19821672D02*
X14518796Y19821672D01*
X14518796Y19821672D02*
X14375939Y19893100D01*
X14375939Y19893100D02*
X14304510Y19964529D01*
X15661653Y21321672D02*
X16161653Y19821672D01*
X16161653Y19821672D02*
X16661653Y21321672D01*
X23878328Y12800001D02*
X23164042Y12300001D01*
X23878328Y11942858D02*
X22378328Y11942858D01*
X22378328Y11942858D02*
X22378328Y12514287D01*
X22378328Y12514287D02*
X22449757Y12657144D01*
X22449757Y12657144D02*
X22521185Y12728573D01*
X22521185Y12728573D02*
X22664042Y12800001D01*
X22664042Y12800001D02*
X22878328Y12800001D01*
X22878328Y12800001D02*
X23021185Y12728573D01*
X23021185Y12728573D02*
X23092614Y12657144D01*
X23092614Y12657144D02*
X23164042Y12514287D01*
X23164042Y12514287D02*
X23164042Y11942858D01*
X22378328Y13228573D02*
X22378328Y14085715D01*
X23878328Y13657144D02*
X22378328Y13657144D01*
X23806900Y14514287D02*
X23878328Y14728572D01*
X23878328Y14728572D02*
X23878328Y15085715D01*
X23878328Y15085715D02*
X23806900Y15228572D01*
X23806900Y15228572D02*
X23735471Y15300001D01*
X23735471Y15300001D02*
X23592614Y15371430D01*
X23592614Y15371430D02*
X23449757Y15371430D01*
X23449757Y15371430D02*
X23306900Y15300001D01*
X23306900Y15300001D02*
X23235471Y15228572D01*
X23235471Y15228572D02*
X23164042Y15085715D01*
X23164042Y15085715D02*
X23092614Y14800001D01*
X23092614Y14800001D02*
X23021185Y14657144D01*
X23021185Y14657144D02*
X22949757Y14585715D01*
X22949757Y14585715D02*
X22806900Y14514287D01*
X22806900Y14514287D02*
X22664042Y14514287D01*
X22664042Y14514287D02*
X22521185Y14585715D01*
X22521185Y14585715D02*
X22449757Y14657144D01*
X22449757Y14657144D02*
X22378328Y14800001D01*
X22378328Y14800001D02*
X22378328Y15157144D01*
X22378328Y15157144D02*
X22449757Y15371430D01*
X31478328Y12800001D02*
X30764042Y12300001D01*
X31478328Y11942858D02*
X29978328Y11942858D01*
X29978328Y11942858D02*
X29978328Y12514287D01*
X29978328Y12514287D02*
X30049757Y12657144D01*
X30049757Y12657144D02*
X30121185Y12728573D01*
X30121185Y12728573D02*
X30264042Y12800001D01*
X30264042Y12800001D02*
X30478328Y12800001D01*
X30478328Y12800001D02*
X30621185Y12728573D01*
X30621185Y12728573D02*
X30692614Y12657144D01*
X30692614Y12657144D02*
X30764042Y12514287D01*
X30764042Y12514287D02*
X30764042Y11942858D01*
X29978328Y13300001D02*
X31478328Y14300001D01*
X29978328Y14300001D02*
X31478328Y13300001D01*
D11*
X33350000Y32323872D02*
X33350000Y31252443D01*
X33350000Y31252443D02*
X33278571Y31038158D01*
X33278571Y31038158D02*
X33135714Y30895300D01*
X33135714Y30895300D02*
X32921428Y30823872D01*
X32921428Y30823872D02*
X32778571Y30823872D01*
X34707143Y31823872D02*
X34707143Y30823872D01*
X34350000Y32395300D02*
X33992857Y31323872D01*
X33992857Y31323872D02*
X34921428Y31323872D01*
X40370000Y16073872D02*
X40370000Y15002443D01*
X40370000Y15002443D02*
X40298571Y14788158D01*
X40298571Y14788158D02*
X40155714Y14645300D01*
X40155714Y14645300D02*
X39941428Y14573872D01*
X39941428Y14573872D02*
X39798571Y14573872D01*
X41870000Y14573872D02*
X41012857Y14573872D01*
X41441428Y14573872D02*
X41441428Y16073872D01*
X41441428Y16073872D02*
X41298571Y15859586D01*
X41298571Y15859586D02*
X41155714Y15716729D01*
X41155714Y15716729D02*
X41012857Y15645300D01*
X8500000Y16193872D02*
X8500000Y15122443D01*
X8500000Y15122443D02*
X8428571Y14908158D01*
X8428571Y14908158D02*
X8285714Y14765300D01*
X8285714Y14765300D02*
X8071428Y14693872D01*
X8071428Y14693872D02*
X7928571Y14693872D01*
X9142857Y16051015D02*
X9214285Y16122443D01*
X9214285Y16122443D02*
X9357143Y16193872D01*
X9357143Y16193872D02*
X9714285Y16193872D01*
X9714285Y16193872D02*
X9857143Y16122443D01*
X9857143Y16122443D02*
X9928571Y16051015D01*
X9928571Y16051015D02*
X10000000Y15908158D01*
X10000000Y15908158D02*
X10000000Y15765300D01*
X10000000Y15765300D02*
X9928571Y15551015D01*
X9928571Y15551015D02*
X9071428Y14693872D01*
X9071428Y14693872D02*
X10000000Y14693872D01*
X33170000Y9676372D02*
X33170000Y8604943D01*
X33170000Y8604943D02*
X33098571Y8390658D01*
X33098571Y8390658D02*
X32955714Y8247800D01*
X32955714Y8247800D02*
X32741428Y8176372D01*
X32741428Y8176372D02*
X32598571Y8176372D01*
X33741428Y9676372D02*
X34670000Y9676372D01*
X34670000Y9676372D02*
X34170000Y9104943D01*
X34170000Y9104943D02*
X34384285Y9104943D01*
X34384285Y9104943D02*
X34527143Y9033515D01*
X34527143Y9033515D02*
X34598571Y8962086D01*
X34598571Y8962086D02*
X34670000Y8819229D01*
X34670000Y8819229D02*
X34670000Y8462086D01*
X34670000Y8462086D02*
X34598571Y8319229D01*
X34598571Y8319229D02*
X34527143Y8247800D01*
X34527143Y8247800D02*
X34384285Y8176372D01*
X34384285Y8176372D02*
X33955714Y8176372D01*
X33955714Y8176372D02*
X33812857Y8247800D01*
X33812857Y8247800D02*
X33741428Y8319229D01*
%TO.C,J4*%
X21920000Y34120000D02*
X32080000Y34120000D01*
X21920000Y29040000D02*
X21920000Y34120000D01*
X32080000Y34120000D02*
X32080000Y29040000D01*
X32080000Y29040000D02*
X21920000Y29040000D01*
%TO.C,J1*%
X37245400Y21846000D02*
X37245400Y19814000D01*
X39704000Y17330000D02*
X41736000Y17330000D01*
X41736000Y24330000D02*
X39704000Y24330000D01*
X44220000Y19814000D02*
X44220000Y21846000D01*
%TO.C,J2*%
X6460000Y24310000D02*
X11540000Y24310000D01*
X6460000Y16690000D02*
X6460000Y24310000D01*
X11540000Y24310000D02*
X11540000Y16690000D01*
X11540000Y16690000D02*
X6460000Y16690000D01*
%TO.C,J3*%
X21920000Y11402500D02*
X32080000Y11402500D01*
X21920000Y6322500D02*
X21920000Y11402500D01*
X32080000Y11402500D02*
X32080000Y6322500D01*
X32080000Y6322500D02*
X21920000Y6322500D01*
%TD*%
M02*
