%TF.GenerationSoftware,KiCad,Pcbnew,9.0.7+1*%
%TF.CreationDate,2026-02-14T22:29:57+00:00*%
%TF.ProjectId,BLE02,424c4530-322e-46b6-9963-61645f706362,rev?*%
%TF.SameCoordinates,Original*%
%TF.FileFunction,Legend,Top*%
%TF.FilePolarity,Positive*%
%FSLAX46Y46*%
G04 Gerber Fmt 4.6, Leading zero omitted, Abs format (unit mm)*
G04 Created by KiCad (PCBNEW 9.0.7+1) date 2026-02-14 22:29:57*
%MOMM*%
%LPD*%
G01*
G04 APERTURE LIST*
%ADD10C,0.187500*%
%ADD11C,0.150000*%
%ADD12C,0.120000*%
G04 APERTURE END LIST*
D10*
X16789464Y26417201D02*
X16860892Y26631487D01*
X16860892Y26631487D02*
X16932321Y26702916D01*
X16932321Y26702916D02*
X17075178Y26774344D01*
X17075178Y26774344D02*
X17289464Y26774344D01*
X17289464Y26774344D02*
X17432321Y26702916D01*
X17432321Y26702916D02*
X17503750Y26631487D01*
X17503750Y26631487D02*
X17575178Y26488630D01*
X17575178Y26488630D02*
X17575178Y25917201D01*
X17575178Y25917201D02*
X16075178Y25917201D01*
X16075178Y25917201D02*
X16075178Y26417201D01*
X16075178Y26417201D02*
X16146607Y26560058D01*
X16146607Y26560058D02*
X16218035Y26631487D01*
X16218035Y26631487D02*
X16360892Y26702916D01*
X16360892Y26702916D02*
X16503750Y26702916D01*
X16503750Y26702916D02*
X16646607Y26631487D01*
X16646607Y26631487D02*
X16718035Y26560058D01*
X16718035Y26560058D02*
X16789464Y26417201D01*
X16789464Y26417201D02*
X16789464Y25917201D01*
X17575178Y28131487D02*
X17575178Y27417201D01*
X17575178Y27417201D02*
X16075178Y27417201D01*
X16789464Y28631487D02*
X16789464Y29131487D01*
X17575178Y29345773D02*
X17575178Y28631487D01*
X17575178Y28631487D02*
X16075178Y28631487D01*
X16075178Y28631487D02*
X16075178Y29345773D01*
X16075178Y30274345D02*
X16075178Y30417202D01*
X16075178Y30417202D02*
X16146607Y30560059D01*
X16146607Y30560059D02*
X16218035Y30631487D01*
X16218035Y30631487D02*
X16360892Y30702916D01*
X16360892Y30702916D02*
X16646607Y30774345D01*
X16646607Y30774345D02*
X17003750Y30774345D01*
X17003750Y30774345D02*
X17289464Y30702916D01*
X17289464Y30702916D02*
X17432321Y30631487D01*
X17432321Y30631487D02*
X17503750Y30560059D01*
X17503750Y30560059D02*
X17575178Y30417202D01*
X17575178Y30417202D02*
X17575178Y30274345D01*
X17575178Y30274345D02*
X17503750Y30131487D01*
X17503750Y30131487D02*
X17432321Y30060059D01*
X17432321Y30060059D02*
X17289464Y29988630D01*
X17289464Y29988630D02*
X17003750Y29917202D01*
X17003750Y29917202D02*
X16646607Y29917202D01*
X16646607Y29917202D02*
X16360892Y29988630D01*
X16360892Y29988630D02*
X16218035Y30060059D01*
X16218035Y30060059D02*
X16146607Y30131487D01*
X16146607Y30131487D02*
X16075178Y30274345D01*
X16218035Y31345773D02*
X16146607Y31417201D01*
X16146607Y31417201D02*
X16075178Y31560058D01*
X16075178Y31560058D02*
X16075178Y31917201D01*
X16075178Y31917201D02*
X16146607Y32060058D01*
X16146607Y32060058D02*
X16218035Y32131487D01*
X16218035Y32131487D02*
X16360892Y32202916D01*
X16360892Y32202916D02*
X16503750Y32202916D01*
X16503750Y32202916D02*
X16718035Y32131487D01*
X16718035Y32131487D02*
X17575178Y31274344D01*
X17575178Y31274344D02*
X17575178Y32202916D01*
X17146607Y32774344D02*
X17146607Y33488629D01*
X17575178Y32631487D02*
X16075178Y33131487D01*
X16075178Y33131487D02*
X17575178Y33631487D01*
X31570578Y26900286D02*
X30070578Y26900286D01*
X31570578Y27614572D02*
X30070578Y27614572D01*
X30070578Y27614572D02*
X31570578Y28471715D01*
X31570578Y28471715D02*
X30070578Y28471715D01*
X12907143Y23894393D02*
X12764286Y23965822D01*
X12764286Y23965822D02*
X12550000Y23965822D01*
X12550000Y23965822D02*
X12335714Y23894393D01*
X12335714Y23894393D02*
X12192857Y23751536D01*
X12192857Y23751536D02*
X12121428Y23608679D01*
X12121428Y23608679D02*
X12050000Y23322965D01*
X12050000Y23322965D02*
X12050000Y23108679D01*
X12050000Y23108679D02*
X12121428Y22822965D01*
X12121428Y22822965D02*
X12192857Y22680108D01*
X12192857Y22680108D02*
X12335714Y22537250D01*
X12335714Y22537250D02*
X12550000Y22465822D01*
X12550000Y22465822D02*
X12692857Y22465822D01*
X12692857Y22465822D02*
X12907143Y22537250D01*
X12907143Y22537250D02*
X12978571Y22608679D01*
X12978571Y22608679D02*
X12978571Y23108679D01*
X12978571Y23108679D02*
X12692857Y23108679D01*
X13621428Y22465822D02*
X13621428Y23965822D01*
X13621428Y23965822D02*
X14478571Y22465822D01*
X14478571Y22465822D02*
X14478571Y23965822D01*
X15192857Y22465822D02*
X15192857Y23965822D01*
X15192857Y23965822D02*
X15550000Y23965822D01*
X15550000Y23965822D02*
X15764286Y23894393D01*
X15764286Y23894393D02*
X15907143Y23751536D01*
X15907143Y23751536D02*
X15978572Y23608679D01*
X15978572Y23608679D02*
X16050000Y23322965D01*
X16050000Y23322965D02*
X16050000Y23108679D01*
X16050000Y23108679D02*
X15978572Y22822965D01*
X15978572Y22822965D02*
X15907143Y22680108D01*
X15907143Y22680108D02*
X15764286Y22537250D01*
X15764286Y22537250D02*
X15550000Y22465822D01*
X15550000Y22465822D02*
X15192857Y22465822D01*
X27505178Y25170001D02*
X27505178Y25455715D01*
X27505178Y25455715D02*
X27576607Y25598572D01*
X27576607Y25598572D02*
X27719464Y25741429D01*
X27719464Y25741429D02*
X28005178Y25812858D01*
X28005178Y25812858D02*
X28505178Y25812858D01*
X28505178Y25812858D02*
X28790892Y25741429D01*
X28790892Y25741429D02*
X28933750Y25598572D01*
X28933750Y25598572D02*
X29005178Y25455715D01*
X29005178Y25455715D02*
X29005178Y25170001D01*
X29005178Y25170001D02*
X28933750Y25027143D01*
X28933750Y25027143D02*
X28790892Y24884286D01*
X28790892Y24884286D02*
X28505178Y24812858D01*
X28505178Y24812858D02*
X28005178Y24812858D01*
X28005178Y24812858D02*
X27719464Y24884286D01*
X27719464Y24884286D02*
X27576607Y25027143D01*
X27576607Y25027143D02*
X27505178Y25170001D01*
X27505178Y26455715D02*
X28719464Y26455715D01*
X28719464Y26455715D02*
X28862321Y26527144D01*
X28862321Y26527144D02*
X28933750Y26598572D01*
X28933750Y26598572D02*
X29005178Y26741430D01*
X29005178Y26741430D02*
X29005178Y27027144D01*
X29005178Y27027144D02*
X28933750Y27170001D01*
X28933750Y27170001D02*
X28862321Y27241430D01*
X28862321Y27241430D02*
X28719464Y27312858D01*
X28719464Y27312858D02*
X27505178Y27312858D01*
X27505178Y27812859D02*
X27505178Y28670001D01*
X29005178Y28241430D02*
X27505178Y28241430D01*
X24934178Y11728573D02*
X24934178Y12585715D01*
X26434178Y12157144D02*
X24934178Y12157144D01*
X24934178Y12942858D02*
X26434178Y13942858D01*
X24934178Y13942858D02*
X26434178Y12942858D01*
X23037864Y22696029D02*
X23037864Y22196029D01*
X23823578Y22196029D02*
X22323578Y22196029D01*
X22323578Y22196029D02*
X22323578Y22910315D01*
X23752150Y23410315D02*
X23823578Y23624600D01*
X23823578Y23624600D02*
X23823578Y23981743D01*
X23823578Y23981743D02*
X23752150Y24124600D01*
X23752150Y24124600D02*
X23680721Y24196029D01*
X23680721Y24196029D02*
X23537864Y24267458D01*
X23537864Y24267458D02*
X23395007Y24267458D01*
X23395007Y24267458D02*
X23252150Y24196029D01*
X23252150Y24196029D02*
X23180721Y24124600D01*
X23180721Y24124600D02*
X23109292Y23981743D01*
X23109292Y23981743D02*
X23037864Y23696029D01*
X23037864Y23696029D02*
X22966435Y23553172D01*
X22966435Y23553172D02*
X22895007Y23481743D01*
X22895007Y23481743D02*
X22752150Y23410315D01*
X22752150Y23410315D02*
X22609292Y23410315D01*
X22609292Y23410315D02*
X22466435Y23481743D01*
X22466435Y23481743D02*
X22395007Y23553172D01*
X22395007Y23553172D02*
X22323578Y23696029D01*
X22323578Y23696029D02*
X22323578Y24053172D01*
X22323578Y24053172D02*
X22395007Y24267458D01*
X23109292Y25196029D02*
X23823578Y25196029D01*
X22323578Y24696029D02*
X23109292Y25196029D01*
X23109292Y25196029D02*
X22323578Y25696029D01*
X23823578Y26196028D02*
X22323578Y26196028D01*
X22323578Y26196028D02*
X23823578Y27053171D01*
X23823578Y27053171D02*
X22323578Y27053171D01*
X23680721Y28624600D02*
X23752150Y28553172D01*
X23752150Y28553172D02*
X23823578Y28338886D01*
X23823578Y28338886D02*
X23823578Y28196029D01*
X23823578Y28196029D02*
X23752150Y27981743D01*
X23752150Y27981743D02*
X23609292Y27838886D01*
X23609292Y27838886D02*
X23466435Y27767457D01*
X23466435Y27767457D02*
X23180721Y27696029D01*
X23180721Y27696029D02*
X22966435Y27696029D01*
X22966435Y27696029D02*
X22680721Y27767457D01*
X22680721Y27767457D02*
X22537864Y27838886D01*
X22537864Y27838886D02*
X22395007Y27981743D01*
X22395007Y27981743D02*
X22323578Y28196029D01*
X22323578Y28196029D02*
X22323578Y28338886D01*
X22323578Y28338886D02*
X22395007Y28553172D01*
X22395007Y28553172D02*
X22466435Y28624600D01*
X26169921Y25954943D02*
X26241350Y25883515D01*
X26241350Y25883515D02*
X26312778Y25669229D01*
X26312778Y25669229D02*
X26312778Y25526372D01*
X26312778Y25526372D02*
X26241350Y25312086D01*
X26241350Y25312086D02*
X26098492Y25169229D01*
X26098492Y25169229D02*
X25955635Y25097800D01*
X25955635Y25097800D02*
X25669921Y25026372D01*
X25669921Y25026372D02*
X25455635Y25026372D01*
X25455635Y25026372D02*
X25169921Y25097800D01*
X25169921Y25097800D02*
X25027064Y25169229D01*
X25027064Y25169229D02*
X24884207Y25312086D01*
X24884207Y25312086D02*
X24812778Y25526372D01*
X24812778Y25526372D02*
X24812778Y25669229D01*
X24812778Y25669229D02*
X24884207Y25883515D01*
X24884207Y25883515D02*
X24955635Y25954943D01*
X26312778Y27312086D02*
X26312778Y26597800D01*
X26312778Y26597800D02*
X24812778Y26597800D01*
X26312778Y27812086D02*
X24812778Y27812086D01*
X26312778Y28669229D02*
X25455635Y28026372D01*
X24812778Y28669229D02*
X25669921Y27812086D01*
X28791321Y12800001D02*
X28862750Y12728573D01*
X28862750Y12728573D02*
X28934178Y12514287D01*
X28934178Y12514287D02*
X28934178Y12371430D01*
X28934178Y12371430D02*
X28862750Y12157144D01*
X28862750Y12157144D02*
X28719892Y12014287D01*
X28719892Y12014287D02*
X28577035Y11942858D01*
X28577035Y11942858D02*
X28291321Y11871430D01*
X28291321Y11871430D02*
X28077035Y11871430D01*
X28077035Y11871430D02*
X27791321Y11942858D01*
X27791321Y11942858D02*
X27648464Y12014287D01*
X27648464Y12014287D02*
X27505607Y12157144D01*
X27505607Y12157144D02*
X27434178Y12371430D01*
X27434178Y12371430D02*
X27434178Y12514287D01*
X27434178Y12514287D02*
X27505607Y12728573D01*
X27505607Y12728573D02*
X27577035Y12800001D01*
X27434178Y13228573D02*
X27434178Y14085715D01*
X28934178Y13657144D02*
X27434178Y13657144D01*
X28862750Y14514287D02*
X28934178Y14728572D01*
X28934178Y14728572D02*
X28934178Y15085715D01*
X28934178Y15085715D02*
X28862750Y15228572D01*
X28862750Y15228572D02*
X28791321Y15300001D01*
X28791321Y15300001D02*
X28648464Y15371430D01*
X28648464Y15371430D02*
X28505607Y15371430D01*
X28505607Y15371430D02*
X28362750Y15300001D01*
X28362750Y15300001D02*
X28291321Y15228572D01*
X28291321Y15228572D02*
X28219892Y15085715D01*
X28219892Y15085715D02*
X28148464Y14800001D01*
X28148464Y14800001D02*
X28077035Y14657144D01*
X28077035Y14657144D02*
X28005607Y14585715D01*
X28005607Y14585715D02*
X27862750Y14514287D01*
X27862750Y14514287D02*
X27719892Y14514287D01*
X27719892Y14514287D02*
X27577035Y14585715D01*
X27577035Y14585715D02*
X27505607Y14657144D01*
X27505607Y14657144D02*
X27434178Y14800001D01*
X27434178Y14800001D02*
X27434178Y15157144D01*
X27434178Y15157144D02*
X27505607Y15371430D01*
X12907143Y18644393D02*
X12764286Y18715822D01*
X12764286Y18715822D02*
X12550000Y18715822D01*
X12550000Y18715822D02*
X12335714Y18644393D01*
X12335714Y18644393D02*
X12192857Y18501536D01*
X12192857Y18501536D02*
X12121428Y18358679D01*
X12121428Y18358679D02*
X12050000Y18072965D01*
X12050000Y18072965D02*
X12050000Y17858679D01*
X12050000Y17858679D02*
X12121428Y17572965D01*
X12121428Y17572965D02*
X12192857Y17430108D01*
X12192857Y17430108D02*
X12335714Y17287250D01*
X12335714Y17287250D02*
X12550000Y17215822D01*
X12550000Y17215822D02*
X12692857Y17215822D01*
X12692857Y17215822D02*
X12907143Y17287250D01*
X12907143Y17287250D02*
X12978571Y17358679D01*
X12978571Y17358679D02*
X12978571Y17858679D01*
X12978571Y17858679D02*
X12692857Y17858679D01*
X13621428Y17215822D02*
X13621428Y18715822D01*
X13621428Y18715822D02*
X14478571Y17215822D01*
X14478571Y17215822D02*
X14478571Y18715822D01*
X15192857Y17215822D02*
X15192857Y18715822D01*
X15192857Y18715822D02*
X15550000Y18715822D01*
X15550000Y18715822D02*
X15764286Y18644393D01*
X15764286Y18644393D02*
X15907143Y18501536D01*
X15907143Y18501536D02*
X15978572Y18358679D01*
X15978572Y18358679D02*
X16050000Y18072965D01*
X16050000Y18072965D02*
X16050000Y17858679D01*
X16050000Y17858679D02*
X15978572Y17572965D01*
X15978572Y17572965D02*
X15907143Y17430108D01*
X15907143Y17430108D02*
X15764286Y17287250D01*
X15764286Y17287250D02*
X15550000Y17215822D01*
X15550000Y17215822D02*
X15192857Y17215822D01*
X28588572Y19292965D02*
X28660000Y19364393D01*
X28660000Y19364393D02*
X28802858Y19435822D01*
X28802858Y19435822D02*
X29160000Y19435822D01*
X29160000Y19435822D02*
X29302858Y19364393D01*
X29302858Y19364393D02*
X29374286Y19292965D01*
X29374286Y19292965D02*
X29445715Y19150108D01*
X29445715Y19150108D02*
X29445715Y19007250D01*
X29445715Y19007250D02*
X29374286Y18792965D01*
X29374286Y18792965D02*
X28517143Y17935822D01*
X28517143Y17935822D02*
X29445715Y17935822D01*
X30374286Y19435822D02*
X30517143Y19435822D01*
X30517143Y19435822D02*
X30660000Y19364393D01*
X30660000Y19364393D02*
X30731429Y19292965D01*
X30731429Y19292965D02*
X30802857Y19150108D01*
X30802857Y19150108D02*
X30874286Y18864393D01*
X30874286Y18864393D02*
X30874286Y18507250D01*
X30874286Y18507250D02*
X30802857Y18221536D01*
X30802857Y18221536D02*
X30731429Y18078679D01*
X30731429Y18078679D02*
X30660000Y18007250D01*
X30660000Y18007250D02*
X30517143Y17935822D01*
X30517143Y17935822D02*
X30374286Y17935822D01*
X30374286Y17935822D02*
X30231429Y18007250D01*
X30231429Y18007250D02*
X30160000Y18078679D01*
X30160000Y18078679D02*
X30088571Y18221536D01*
X30088571Y18221536D02*
X30017143Y18507250D01*
X30017143Y18507250D02*
X30017143Y18864393D01*
X30017143Y18864393D02*
X30088571Y19150108D01*
X30088571Y19150108D02*
X30160000Y19292965D01*
X30160000Y19292965D02*
X30231429Y19364393D01*
X30231429Y19364393D02*
X30374286Y19435822D01*
X31445714Y19292965D02*
X31517142Y19364393D01*
X31517142Y19364393D02*
X31660000Y19435822D01*
X31660000Y19435822D02*
X32017142Y19435822D01*
X32017142Y19435822D02*
X32160000Y19364393D01*
X32160000Y19364393D02*
X32231428Y19292965D01*
X32231428Y19292965D02*
X32302857Y19150108D01*
X32302857Y19150108D02*
X32302857Y19007250D01*
X32302857Y19007250D02*
X32231428Y18792965D01*
X32231428Y18792965D02*
X31374285Y17935822D01*
X31374285Y17935822D02*
X32302857Y17935822D01*
X33588571Y19435822D02*
X33302856Y19435822D01*
X33302856Y19435822D02*
X33159999Y19364393D01*
X33159999Y19364393D02*
X33088571Y19292965D01*
X33088571Y19292965D02*
X32945713Y19078679D01*
X32945713Y19078679D02*
X32874285Y18792965D01*
X32874285Y18792965D02*
X32874285Y18221536D01*
X32874285Y18221536D02*
X32945713Y18078679D01*
X32945713Y18078679D02*
X33017142Y18007250D01*
X33017142Y18007250D02*
X33159999Y17935822D01*
X33159999Y17935822D02*
X33445713Y17935822D01*
X33445713Y17935822D02*
X33588571Y18007250D01*
X33588571Y18007250D02*
X33659999Y18078679D01*
X33659999Y18078679D02*
X33731428Y18221536D01*
X33731428Y18221536D02*
X33731428Y18578679D01*
X33731428Y18578679D02*
X33659999Y18721536D01*
X33659999Y18721536D02*
X33588571Y18792965D01*
X33588571Y18792965D02*
X33445713Y18864393D01*
X33445713Y18864393D02*
X33159999Y18864393D01*
X33159999Y18864393D02*
X33017142Y18792965D01*
X33017142Y18792965D02*
X32945713Y18721536D01*
X32945713Y18721536D02*
X32874285Y18578679D01*
X27242856Y20095822D02*
X27242856Y21595822D01*
X27242856Y21595822D02*
X27742856Y20524393D01*
X27742856Y20524393D02*
X28242856Y21595822D01*
X28242856Y21595822D02*
X28242856Y20095822D01*
X29671428Y20095822D02*
X28957142Y20095822D01*
X28957142Y20095822D02*
X28957142Y21595822D01*
X30100000Y20524393D02*
X30814286Y20524393D01*
X29957143Y20095822D02*
X30457143Y21595822D01*
X30457143Y21595822D02*
X30957143Y20095822D01*
X31957142Y20881536D02*
X32171428Y20810108D01*
X32171428Y20810108D02*
X32242857Y20738679D01*
X32242857Y20738679D02*
X32314285Y20595822D01*
X32314285Y20595822D02*
X32314285Y20381536D01*
X32314285Y20381536D02*
X32242857Y20238679D01*
X32242857Y20238679D02*
X32171428Y20167250D01*
X32171428Y20167250D02*
X32028571Y20095822D01*
X32028571Y20095822D02*
X31457142Y20095822D01*
X31457142Y20095822D02*
X31457142Y21595822D01*
X31457142Y21595822D02*
X31957142Y21595822D01*
X31957142Y21595822D02*
X32100000Y21524393D01*
X32100000Y21524393D02*
X32171428Y21452965D01*
X32171428Y21452965D02*
X32242857Y21310108D01*
X32242857Y21310108D02*
X32242857Y21167250D01*
X32242857Y21167250D02*
X32171428Y21024393D01*
X32171428Y21024393D02*
X32100000Y20952965D01*
X32100000Y20952965D02*
X31957142Y20881536D01*
X31957142Y20881536D02*
X31457142Y20881536D01*
X32957142Y20238679D02*
X33028571Y20167250D01*
X33028571Y20167250D02*
X32957142Y20095822D01*
X32957142Y20095822D02*
X32885714Y20167250D01*
X32885714Y20167250D02*
X32957142Y20238679D01*
X32957142Y20238679D02*
X32957142Y20095822D01*
X34314286Y20167250D02*
X34171428Y20095822D01*
X34171428Y20095822D02*
X33885714Y20095822D01*
X33885714Y20095822D02*
X33742857Y20167250D01*
X33742857Y20167250D02*
X33671428Y20238679D01*
X33671428Y20238679D02*
X33600000Y20381536D01*
X33600000Y20381536D02*
X33600000Y20810108D01*
X33600000Y20810108D02*
X33671428Y20952965D01*
X33671428Y20952965D02*
X33742857Y21024393D01*
X33742857Y21024393D02*
X33885714Y21095822D01*
X33885714Y21095822D02*
X34171428Y21095822D01*
X34171428Y21095822D02*
X34314286Y21024393D01*
X34814285Y21095822D02*
X35600000Y21095822D01*
X35600000Y21095822D02*
X34814285Y20095822D01*
X34814285Y20095822D02*
X35600000Y20095822D01*
X12087640Y21315822D02*
X13016212Y21315822D01*
X13016212Y21315822D02*
X12516212Y20744393D01*
X12516212Y20744393D02*
X12730497Y20744393D01*
X12730497Y20744393D02*
X12873355Y20672965D01*
X12873355Y20672965D02*
X12944783Y20601536D01*
X12944783Y20601536D02*
X13016212Y20458679D01*
X13016212Y20458679D02*
X13016212Y20101536D01*
X13016212Y20101536D02*
X12944783Y19958679D01*
X12944783Y19958679D02*
X12873355Y19887250D01*
X12873355Y19887250D02*
X12730497Y19815822D01*
X12730497Y19815822D02*
X12301926Y19815822D01*
X12301926Y19815822D02*
X12159069Y19887250D01*
X12159069Y19887250D02*
X12087640Y19958679D01*
X13659068Y19958679D02*
X13730497Y19887250D01*
X13730497Y19887250D02*
X13659068Y19815822D01*
X13659068Y19815822D02*
X13587640Y19887250D01*
X13587640Y19887250D02*
X13659068Y19958679D01*
X13659068Y19958679D02*
X13659068Y19815822D01*
X14230497Y21315822D02*
X15159069Y21315822D01*
X15159069Y21315822D02*
X14659069Y20744393D01*
X14659069Y20744393D02*
X14873354Y20744393D01*
X14873354Y20744393D02*
X15016212Y20672965D01*
X15016212Y20672965D02*
X15087640Y20601536D01*
X15087640Y20601536D02*
X15159069Y20458679D01*
X15159069Y20458679D02*
X15159069Y20101536D01*
X15159069Y20101536D02*
X15087640Y19958679D01*
X15087640Y19958679D02*
X15016212Y19887250D01*
X15016212Y19887250D02*
X14873354Y19815822D01*
X14873354Y19815822D02*
X14444783Y19815822D01*
X14444783Y19815822D02*
X14301926Y19887250D01*
X14301926Y19887250D02*
X14230497Y19958679D01*
X15587640Y21315822D02*
X16087640Y19815822D01*
X16087640Y19815822D02*
X16587640Y21315822D01*
X23884178Y12800001D02*
X23169892Y12300001D01*
X23884178Y11942858D02*
X22384178Y11942858D01*
X22384178Y11942858D02*
X22384178Y12514287D01*
X22384178Y12514287D02*
X22455607Y12657144D01*
X22455607Y12657144D02*
X22527035Y12728573D01*
X22527035Y12728573D02*
X22669892Y12800001D01*
X22669892Y12800001D02*
X22884178Y12800001D01*
X22884178Y12800001D02*
X23027035Y12728573D01*
X23027035Y12728573D02*
X23098464Y12657144D01*
X23098464Y12657144D02*
X23169892Y12514287D01*
X23169892Y12514287D02*
X23169892Y11942858D01*
X22384178Y13228573D02*
X22384178Y14085715D01*
X23884178Y13657144D02*
X22384178Y13657144D01*
X23812750Y14514287D02*
X23884178Y14728572D01*
X23884178Y14728572D02*
X23884178Y15085715D01*
X23884178Y15085715D02*
X23812750Y15228572D01*
X23812750Y15228572D02*
X23741321Y15300001D01*
X23741321Y15300001D02*
X23598464Y15371430D01*
X23598464Y15371430D02*
X23455607Y15371430D01*
X23455607Y15371430D02*
X23312750Y15300001D01*
X23312750Y15300001D02*
X23241321Y15228572D01*
X23241321Y15228572D02*
X23169892Y15085715D01*
X23169892Y15085715D02*
X23098464Y14800001D01*
X23098464Y14800001D02*
X23027035Y14657144D01*
X23027035Y14657144D02*
X22955607Y14585715D01*
X22955607Y14585715D02*
X22812750Y14514287D01*
X22812750Y14514287D02*
X22669892Y14514287D01*
X22669892Y14514287D02*
X22527035Y14585715D01*
X22527035Y14585715D02*
X22455607Y14657144D01*
X22455607Y14657144D02*
X22384178Y14800001D01*
X22384178Y14800001D02*
X22384178Y15157144D01*
X22384178Y15157144D02*
X22455607Y15371430D01*
X31484178Y12800001D02*
X30769892Y12300001D01*
X31484178Y11942858D02*
X29984178Y11942858D01*
X29984178Y11942858D02*
X29984178Y12514287D01*
X29984178Y12514287D02*
X30055607Y12657144D01*
X30055607Y12657144D02*
X30127035Y12728573D01*
X30127035Y12728573D02*
X30269892Y12800001D01*
X30269892Y12800001D02*
X30484178Y12800001D01*
X30484178Y12800001D02*
X30627035Y12728573D01*
X30627035Y12728573D02*
X30698464Y12657144D01*
X30698464Y12657144D02*
X30769892Y12514287D01*
X30769892Y12514287D02*
X30769892Y11942858D01*
X29984178Y13300001D02*
X31484178Y14300001D01*
X29984178Y14300001D02*
X31484178Y13300001D01*
D11*
X33078800Y33986272D02*
X33078800Y32914843D01*
X33078800Y32914843D02*
X33007371Y32700558D01*
X33007371Y32700558D02*
X32864514Y32557700D01*
X32864514Y32557700D02*
X32650228Y32486272D01*
X32650228Y32486272D02*
X32507371Y32486272D01*
X34435943Y33486272D02*
X34435943Y32486272D01*
X34078800Y34057700D02*
X33721657Y32986272D01*
X33721657Y32986272D02*
X34650228Y32986272D01*
X40343200Y16663472D02*
X40343200Y15592043D01*
X40343200Y15592043D02*
X40271771Y15377758D01*
X40271771Y15377758D02*
X40128914Y15234900D01*
X40128914Y15234900D02*
X39914628Y15163472D01*
X39914628Y15163472D02*
X39771771Y15163472D01*
X41843200Y15163472D02*
X40986057Y15163472D01*
X41414628Y15163472D02*
X41414628Y16663472D01*
X41414628Y16663472D02*
X41271771Y16449186D01*
X41271771Y16449186D02*
X41128914Y16306329D01*
X41128914Y16306329D02*
X40986057Y16234900D01*
X25154095Y18096581D02*
X25725523Y18096581D01*
X25439809Y17096581D02*
X25439809Y18096581D01*
X26058857Y17096581D02*
X26058857Y18096581D01*
X26058857Y18096581D02*
X26439809Y18096581D01*
X26439809Y18096581D02*
X26535047Y18048962D01*
X26535047Y18048962D02*
X26582666Y18001343D01*
X26582666Y18001343D02*
X26630285Y17906105D01*
X26630285Y17906105D02*
X26630285Y17763248D01*
X26630285Y17763248D02*
X26582666Y17668010D01*
X26582666Y17668010D02*
X26535047Y17620391D01*
X26535047Y17620391D02*
X26439809Y17572772D01*
X26439809Y17572772D02*
X26058857Y17572772D01*
X27582666Y17096581D02*
X27011238Y17096581D01*
X27296952Y17096581D02*
X27296952Y18096581D01*
X27296952Y18096581D02*
X27201714Y17953724D01*
X27201714Y17953724D02*
X27106476Y17858486D01*
X27106476Y17858486D02*
X27011238Y17810867D01*
X8500000Y16193872D02*
X8500000Y15122443D01*
X8500000Y15122443D02*
X8428571Y14908158D01*
X8428571Y14908158D02*
X8285714Y14765300D01*
X8285714Y14765300D02*
X8071428Y14693872D01*
X8071428Y14693872D02*
X7928571Y14693872D01*
X9142857Y16051015D02*
X9214285Y16122443D01*
X9214285Y16122443D02*
X9357143Y16193872D01*
X9357143Y16193872D02*
X9714285Y16193872D01*
X9714285Y16193872D02*
X9857143Y16122443D01*
X9857143Y16122443D02*
X9928571Y16051015D01*
X9928571Y16051015D02*
X10000000Y15908158D01*
X10000000Y15908158D02*
X10000000Y15765300D01*
X10000000Y15765300D02*
X9928571Y15551015D01*
X9928571Y15551015D02*
X9071428Y14693872D01*
X9071428Y14693872D02*
X10000000Y14693872D01*
X33170000Y9676372D02*
X33170000Y8604943D01*
X33170000Y8604943D02*
X33098571Y8390658D01*
X33098571Y8390658D02*
X32955714Y8247800D01*
X32955714Y8247800D02*
X32741428Y8176372D01*
X32741428Y8176372D02*
X32598571Y8176372D01*
X33741428Y9676372D02*
X34670000Y9676372D01*
X34670000Y9676372D02*
X34170000Y9104943D01*
X34170000Y9104943D02*
X34384285Y9104943D01*
X34384285Y9104943D02*
X34527143Y9033515D01*
X34527143Y9033515D02*
X34598571Y8962086D01*
X34598571Y8962086D02*
X34670000Y8819229D01*
X34670000Y8819229D02*
X34670000Y8462086D01*
X34670000Y8462086D02*
X34598571Y8319229D01*
X34598571Y8319229D02*
X34527143Y8247800D01*
X34527143Y8247800D02*
X34384285Y8176372D01*
X34384285Y8176372D02*
X33955714Y8176372D01*
X33955714Y8176372D02*
X33812857Y8247800D01*
X33812857Y8247800D02*
X33741428Y8319229D01*
%TO.C,J4*%
X21920000Y34120000D02*
X32080000Y34120000D01*
X21920000Y29040000D02*
X21920000Y34120000D01*
X32080000Y34120000D02*
X32080000Y29040000D01*
X32080000Y29040000D02*
X21920000Y29040000D01*
%TO.C,J1*%
X37245400Y21846000D02*
X37245400Y19814000D01*
X39704000Y17330000D02*
X41736000Y17330000D01*
X41736000Y24330000D02*
X39704000Y24330000D01*
X44220000Y19814000D02*
X44220000Y21846000D01*
D12*
%TO.C,TP1*%
X26506400Y15976600D02*
G75*
G02*
X25106400Y15976600I-700000J0D01*
G01*
X25106400Y15976600D02*
G75*
G02*
X26506400Y15976600I700000J0D01*
G01*
D11*
%TO.C,J2*%
X6460000Y24310000D02*
X11540000Y24310000D01*
X6460000Y16690000D02*
X6460000Y24310000D01*
X11540000Y24310000D02*
X11540000Y16690000D01*
X11540000Y16690000D02*
X6460000Y16690000D01*
%TO.C,J3*%
X21920000Y11402500D02*
X32080000Y11402500D01*
X21920000Y6322500D02*
X21920000Y11402500D01*
X32080000Y11402500D02*
X32080000Y6322500D01*
X32080000Y6322500D02*
X21920000Y6322500D01*
%TD*%
M02*
