%TF.GenerationSoftware,KiCad,Pcbnew,9.0.6+1*%
%TF.CreationDate,2026-02-08T21:45:32+00:00*%
%TF.ProjectId,BLE02,424c4530-322e-46b6-9963-61645f706362,rev?*%
%TF.SameCoordinates,Original*%
%TF.FileFunction,Paste,Bot*%
%TF.FilePolarity,Positive*%
%FSLAX46Y46*%
G04 Gerber Fmt 4.6, Leading zero omitted, Abs format (unit mm)*
G04 Created by KiCad (PCBNEW 9.0.6+1) date 2026-02-08 21:45:32*
%MOMM*%
%LPD*%
G01*
G04 APERTURE LIST*
G04 Aperture macros list*
%AMRoundRect*
0 Rectangle with rounded corners*
0 $1 Rounding radius*
0 $2 $3 $4 $5 $6 $7 $8 $9 X,Y pos of 4 corners*
0 Add a 4 corners polygon primitive as box body*
4,1,4,$2,$3,$4,$5,$6,$7,$8,$9,$2,$3,0*
0 Add four circle primitives for the rounded corners*
1,1,$1+$1,$2,$3*
1,1,$1+$1,$4,$5*
1,1,$1+$1,$6,$7*
1,1,$1+$1,$8,$9*
0 Add four rect primitives between the rounded corners*
20,1,$1+$1,$2,$3,$4,$5,0*
20,1,$1+$1,$4,$5,$6,$7,0*
20,1,$1+$1,$6,$7,$8,$9,0*
20,1,$1+$1,$8,$9,$2,$3,0*%
G04 Aperture macros list end*
%ADD10C,0.000000*%
%ADD11RoundRect,0.225000X0.250000X-0.225000X0.250000X0.225000X-0.250000X0.225000X-0.250000X-0.225000X0*%
%ADD12RoundRect,0.225000X0.225000X0.250000X-0.225000X0.250000X-0.225000X-0.250000X0.225000X-0.250000X0*%
%ADD13R,1.200000X1.000000*%
%ADD14RoundRect,0.243750X-0.243750X-0.456250X0.243750X-0.456250X0.243750X0.456250X-0.243750X0.456250X0*%
%ADD15RoundRect,0.225000X-0.250000X0.225000X-0.250000X-0.225000X0.250000X-0.225000X0.250000X0.225000X0*%
%ADD16RoundRect,0.100000X-0.100000X0.637500X-0.100000X-0.637500X0.100000X-0.637500X0.100000X0.637500X0*%
%ADD17RoundRect,0.200000X0.200000X0.275000X-0.200000X0.275000X-0.200000X-0.275000X0.200000X-0.275000X0*%
%ADD18RoundRect,0.225000X-0.225000X-0.250000X0.225000X-0.250000X0.225000X0.250000X-0.225000X0.250000X0*%
%ADD19RoundRect,0.250000X0.400000X0.600000X-0.400000X0.600000X-0.400000X-0.600000X0.400000X-0.600000X0*%
%ADD20R,0.609600X0.812800*%
%ADD21R,0.558800X0.355600*%
%ADD22R,1.244600X0.558800*%
%ADD23RoundRect,0.237500X0.237500X-0.250000X0.237500X0.250000X-0.237500X0.250000X-0.237500X-0.250000X0*%
%ADD24RoundRect,0.200000X0.275000X-0.200000X0.275000X0.200000X-0.275000X0.200000X-0.275000X-0.200000X0*%
%ADD25RoundRect,0.237500X0.300000X0.237500X-0.300000X0.237500X-0.300000X-0.237500X0.300000X-0.237500X0*%
%ADD26RoundRect,0.250000X0.475000X-0.250000X0.475000X0.250000X-0.475000X0.250000X-0.475000X-0.250000X0*%
%ADD27R,0.200000X0.599999*%
%ADD28R,0.599999X0.200000*%
%ADD29R,0.200000X0.399999*%
%ADD30R,0.399999X0.200000*%
%ADD31RoundRect,0.100000X0.100000X-0.637500X0.100000X0.637500X-0.100000X0.637500X-0.100000X-0.637500X0*%
G04 APERTURE END LIST*
D10*
%TO.C,U2*%
G36*
X25857824Y20158993D02*
G01*
X25867653Y20156011D01*
X25876711Y20151167D01*
X25884654Y20144652D01*
X25891169Y20136710D01*
X25896012Y20127652D01*
X25898994Y20117822D01*
X25900000Y20107599D01*
X25900000Y18782399D01*
X25898994Y18772176D01*
X25896012Y18762346D01*
X25891169Y18753288D01*
X25884654Y18745346D01*
X25876711Y18738831D01*
X25867653Y18733987D01*
X25857824Y18731005D01*
X25847600Y18729999D01*
X24642400Y18729999D01*
X24632177Y18731005D01*
X24622347Y18733987D01*
X24613290Y18738831D01*
X24605347Y18745346D01*
X24598832Y18753288D01*
X24593988Y18762346D01*
X24591006Y18772176D01*
X24590000Y18782399D01*
X24590000Y20107599D01*
X24591006Y20117822D01*
X24593988Y20127652D01*
X24598832Y20136710D01*
X24605347Y20144652D01*
X24613290Y20151167D01*
X24622347Y20156011D01*
X24632177Y20158993D01*
X24642400Y20159999D01*
X25847600Y20159999D01*
X25857824Y20158993D01*
G37*
G36*
X25857824Y18528994D02*
G01*
X25867653Y18526012D01*
X25876711Y18521168D01*
X25884654Y18514653D01*
X25891169Y18506710D01*
X25896012Y18497653D01*
X25898994Y18487823D01*
X25900000Y18477599D01*
X25900000Y17152400D01*
X25898994Y17142177D01*
X25896012Y17132347D01*
X25891169Y17123289D01*
X25884654Y17115347D01*
X25876711Y17108831D01*
X25867653Y17103988D01*
X25857824Y17101006D01*
X25847600Y17100000D01*
X24642400Y17100000D01*
X24632177Y17101006D01*
X24622347Y17103988D01*
X24613290Y17108831D01*
X24605347Y17115347D01*
X24598832Y17123289D01*
X24593988Y17132347D01*
X24591006Y17142177D01*
X24590000Y17152400D01*
X24590000Y18477599D01*
X24591006Y18487823D01*
X24593988Y18497653D01*
X24598832Y18506710D01*
X24605347Y18514653D01*
X24613290Y18521168D01*
X24622347Y18526012D01*
X24632177Y18528994D01*
X24642400Y18530000D01*
X25847600Y18530000D01*
X25857824Y18528994D01*
G37*
G36*
X27367823Y20158993D02*
G01*
X27377653Y20156011D01*
X27386710Y20151167D01*
X27394653Y20144652D01*
X27401168Y20136710D01*
X27406012Y20127652D01*
X27408994Y20117822D01*
X27410000Y20107599D01*
X27410000Y18782399D01*
X27408994Y18772176D01*
X27406012Y18762346D01*
X27401168Y18753288D01*
X27394653Y18745346D01*
X27386710Y18738831D01*
X27377653Y18733987D01*
X27367823Y18731005D01*
X27357600Y18729999D01*
X26152400Y18729999D01*
X26142176Y18731005D01*
X26132347Y18733987D01*
X26123289Y18738831D01*
X26115346Y18745346D01*
X26108831Y18753288D01*
X26103988Y18762346D01*
X26101006Y18772176D01*
X26100000Y18782399D01*
X26100000Y20107599D01*
X26101006Y20117822D01*
X26103988Y20127652D01*
X26108831Y20136710D01*
X26115346Y20144652D01*
X26123289Y20151167D01*
X26132347Y20156011D01*
X26142176Y20158993D01*
X26152400Y20159999D01*
X27357600Y20159999D01*
X27367823Y20158993D01*
G37*
G36*
X27367823Y18528994D02*
G01*
X27377653Y18526012D01*
X27386710Y18521168D01*
X27394653Y18514653D01*
X27401168Y18506710D01*
X27406012Y18497653D01*
X27408994Y18487823D01*
X27410000Y18477599D01*
X27410000Y17152400D01*
X27408994Y17142177D01*
X27406012Y17132347D01*
X27401168Y17123289D01*
X27394653Y17115347D01*
X27386710Y17108831D01*
X27377653Y17103988D01*
X27367823Y17101006D01*
X27357600Y17100000D01*
X26152400Y17100000D01*
X26142176Y17101006D01*
X26132347Y17103988D01*
X26123289Y17108831D01*
X26115346Y17115347D01*
X26108831Y17123289D01*
X26103988Y17132347D01*
X26101006Y17142177D01*
X26100000Y17152400D01*
X26100000Y18477599D01*
X26101006Y18487823D01*
X26103988Y18497653D01*
X26108831Y18506710D01*
X26115346Y18514653D01*
X26123289Y18521168D01*
X26132347Y18526012D01*
X26142176Y18528994D01*
X26152400Y18530000D01*
X27357600Y18530000D01*
X27367823Y18528994D01*
G37*
%TD*%
D11*
%TO.C,C7*%
X16500000Y22025000D03*
X16500000Y23575000D03*
%TD*%
D12*
%TO.C,C26*%
X25775000Y27524000D03*
X24225000Y27524000D03*
%TD*%
D11*
%TO.C,C22*%
X19450000Y21225000D03*
X19450000Y22775000D03*
%TD*%
D13*
%TO.C,Y3*%
X25850000Y24350000D03*
X24150000Y24350000D03*
X24150000Y25650000D03*
X25850000Y25650000D03*
%TD*%
D11*
%TO.C,C3*%
X32800000Y17775000D03*
X32800000Y19325000D03*
%TD*%
D14*
%TO.C,D1*%
X8062500Y25650000D03*
X9937500Y25650000D03*
%TD*%
D11*
%TO.C,C5*%
X22350000Y26475000D03*
X22350000Y28025000D03*
%TD*%
D15*
%TO.C,C16*%
X12500000Y19275000D03*
X12500000Y17725000D03*
%TD*%
D12*
%TO.C,C20*%
X33275000Y20836750D03*
X31725000Y20836750D03*
%TD*%
D16*
%TO.C,U3*%
X16400000Y13362500D03*
X17050000Y13362500D03*
X17700000Y13362500D03*
X18350000Y13362500D03*
X19000000Y13362500D03*
X19650000Y13362500D03*
X20300000Y13362500D03*
X20300000Y7637500D03*
X19650000Y7637500D03*
X19000000Y7637500D03*
X18350000Y7637500D03*
X17700000Y7637500D03*
X17050000Y7637500D03*
X16400000Y7637500D03*
%TD*%
D17*
%TO.C,R3*%
X16025000Y15550000D03*
X14375000Y15550000D03*
%TD*%
D18*
%TO.C,C4*%
X31650000Y23000000D03*
X33200000Y23000000D03*
%TD*%
D12*
%TO.C,C23*%
X28550000Y13500000D03*
X27000000Y13500000D03*
%TD*%
D19*
%TO.C,D3*%
X10750000Y15500000D03*
X7250000Y15500000D03*
%TD*%
D11*
%TO.C,C21*%
X30000000Y24725000D03*
X30000000Y26275000D03*
%TD*%
D18*
%TO.C,C6*%
X27975000Y27950000D03*
X29525000Y27950000D03*
%TD*%
D20*
%TO.C,X1*%
X34450000Y13050000D03*
X31450000Y13050000D03*
X31450000Y14149998D03*
X34450000Y14149998D03*
%TD*%
D21*
%TO.C,FL1*%
X34971300Y20850000D03*
D22*
X36000000Y20202300D03*
D21*
X37028700Y20850000D03*
D22*
X36000000Y21497700D03*
%TD*%
D23*
%TO.C,R5*%
X36150000Y12787500D03*
X36150000Y14612500D03*
%TD*%
D24*
%TO.C,R2*%
X14950000Y22000000D03*
X14950000Y23650000D03*
%TD*%
D11*
%TO.C,C24*%
X31250000Y17775000D03*
X31250000Y19325000D03*
%TD*%
D24*
%TO.C,R4*%
X14500000Y17675000D03*
X14500000Y19325000D03*
%TD*%
D15*
%TO.C,C25*%
X28000000Y26275000D03*
X28000000Y24725000D03*
%TD*%
D11*
%TO.C,C2*%
X20950000Y23225000D03*
X20950000Y24775000D03*
%TD*%
D25*
%TO.C,C8*%
X35325000Y11100000D03*
X33600000Y11100000D03*
%TD*%
D26*
%TO.C,C17*%
X12740000Y21050000D03*
X12740000Y22950000D03*
%TD*%
D27*
%TO.C,U2*%
X23300000Y22699999D03*
X23899999Y22699999D03*
X24500000Y22699999D03*
X25099999Y22699999D03*
X25700001Y22699999D03*
X26299999Y22699999D03*
X26900001Y22699999D03*
X27500000Y22699999D03*
X28100001Y22699999D03*
X28700000Y22699999D03*
D28*
X29900000Y21500001D03*
X29900000Y20900000D03*
X29900000Y20300001D03*
X29900000Y19700000D03*
X29900000Y19100001D03*
X29900000Y18500000D03*
X29900000Y17900001D03*
X29900000Y17299999D03*
X29900000Y16700001D03*
X29900000Y16099999D03*
D27*
X28700000Y14899999D03*
X28099998Y14899999D03*
X27500000Y14899999D03*
X26899998Y14899999D03*
X26299999Y14899999D03*
X25699998Y14899999D03*
X25099999Y14899999D03*
X24499998Y14899999D03*
X23899999Y14899999D03*
X23299998Y14899999D03*
D28*
X22100000Y16099999D03*
X22100000Y16700001D03*
X22100000Y17299999D03*
X22100000Y17900001D03*
X22100000Y18500000D03*
X22100000Y19100001D03*
X22100000Y19700000D03*
X22100000Y20300001D03*
X22100000Y20900000D03*
X22100000Y21500001D03*
D29*
X23600000Y21899998D03*
X24199999Y21899998D03*
X24800000Y21899998D03*
X25399999Y21899998D03*
X26000000Y21899998D03*
X26599999Y21899998D03*
X27200000Y21899998D03*
X27799999Y21899998D03*
X28400000Y21899998D03*
D30*
X29099999Y21199999D03*
X29099999Y20600000D03*
X29099999Y19999999D03*
X29099999Y19400000D03*
X29099999Y18799999D03*
X29099999Y18200000D03*
X29099999Y17599999D03*
X29099999Y17000000D03*
X29099999Y16399999D03*
D29*
X28400000Y15700000D03*
X27800001Y15700000D03*
X27200000Y15700000D03*
X26600001Y15700000D03*
X26000000Y15700000D03*
X25400001Y15700000D03*
X24800000Y15700000D03*
X24200001Y15700000D03*
X23600000Y15700000D03*
D30*
X22900001Y16399999D03*
X22900001Y16999998D03*
X22900001Y17599999D03*
X22900001Y18199998D03*
X22900001Y18799999D03*
X22900001Y19399998D03*
X22900001Y19999999D03*
X22900001Y20599998D03*
X22900001Y21199999D03*
%TD*%
D24*
%TO.C,R1*%
X31700000Y24675000D03*
X31700000Y26325000D03*
%TD*%
D12*
%TO.C,C1*%
X20675000Y15450000D03*
X19125000Y15450000D03*
%TD*%
D31*
%TO.C,U1*%
X20200000Y27137500D03*
X19550000Y27137500D03*
X18900000Y27137500D03*
X18250000Y27137500D03*
X17600000Y27137500D03*
X16950000Y27137500D03*
X16300000Y27137500D03*
X16300000Y32862500D03*
X16950000Y32862500D03*
X17600000Y32862500D03*
X18250000Y32862500D03*
X18900000Y32862500D03*
X19550000Y32862500D03*
X20200000Y32862500D03*
%TD*%
M02*
