%TF.GenerationSoftware,KiCad,Pcbnew,9.0.6+1*%
%TF.CreationDate,2026-02-08T13:26:48+00:00*%
%TF.ProjectId,BLE02,424c4530-322e-46b6-9963-61645f706362,rev?*%
%TF.SameCoordinates,Original*%
%TF.FileFunction,Copper,L2,Bot*%
%TF.FilePolarity,Positive*%
%FSLAX46Y46*%
G04 Gerber Fmt 4.6, Leading zero omitted, Abs format (unit mm)*
G04 Created by KiCad (PCBNEW 9.0.6+1) date 2026-02-08 13:26:48*
%MOMM*%
%LPD*%
G01*
G04 APERTURE LIST*
G04 Aperture macros list*
%AMRoundRect*
0 Rectangle with rounded corners*
0 $1 Rounding radius*
0 $2 $3 $4 $5 $6 $7 $8 $9 X,Y pos of 4 corners*
0 Add a 4 corners polygon primitive as box body*
4,1,4,$2,$3,$4,$5,$6,$7,$8,$9,$2,$3,0*
0 Add four circle primitives for the rounded corners*
1,1,$1+$1,$2,$3*
1,1,$1+$1,$4,$5*
1,1,$1+$1,$6,$7*
1,1,$1+$1,$8,$9*
0 Add four rect primitives between the rounded corners*
20,1,$1+$1,$2,$3,$4,$5,0*
20,1,$1+$1,$4,$5,$6,$7,0*
20,1,$1+$1,$6,$7,$8,$9,0*
20,1,$1+$1,$8,$9,$2,$3,0*%
%AMRotRect*
0 Rectangle, with rotation*
0 The origin of the aperture is its center*
0 $1 length*
0 $2 width*
0 $3 Rotation angle, in degrees counterclockwise*
0 Add horizontal line*
21,1,$1,$2,0,0,$3*%
G04 Aperture macros list end*
%TA.AperFunction,ComponentPad*%
%ADD10R,1.524000X1.524000*%
%TD*%
%TA.AperFunction,ComponentPad*%
%ADD11C,2.500000*%
%TD*%
%TA.AperFunction,ComponentPad*%
%ADD12C,2.700000*%
%TD*%
%TA.AperFunction,ComponentPad*%
%ADD13C,6.000000*%
%TD*%
%TA.AperFunction,SMDPad,CuDef*%
%ADD14C,1.000000*%
%TD*%
%TA.AperFunction,SMDPad,CuDef*%
%ADD15RoundRect,0.155000X0.259862X-0.040659X-0.040659X0.259862X-0.259862X0.040659X0.040659X-0.259862X0*%
%TD*%
%TA.AperFunction,SMDPad,CuDef*%
%ADD16RoundRect,0.155000X0.212500X0.155000X-0.212500X0.155000X-0.212500X-0.155000X0.212500X-0.155000X0*%
%TD*%
%TA.AperFunction,SMDPad,CuDef*%
%ADD17RoundRect,0.160000X0.197500X0.160000X-0.197500X0.160000X-0.197500X-0.160000X0.197500X-0.160000X0*%
%TD*%
%TA.AperFunction,SMDPad,CuDef*%
%ADD18RotRect,1.200000X1.000000X135.000000*%
%TD*%
%TA.AperFunction,SMDPad,CuDef*%
%ADD19RoundRect,0.250000X-0.250000X-0.475000X0.250000X-0.475000X0.250000X0.475000X-0.250000X0.475000X0*%
%TD*%
%TA.AperFunction,SMDPad,CuDef*%
%ADD20RoundRect,0.100000X-0.100000X0.637500X-0.100000X-0.637500X0.100000X-0.637500X0.100000X0.637500X0*%
%TD*%
%TA.AperFunction,SMDPad,CuDef*%
%ADD21RoundRect,0.160000X-0.222500X-0.160000X0.222500X-0.160000X0.222500X0.160000X-0.222500X0.160000X0*%
%TD*%
%TA.AperFunction,SMDPad,CuDef*%
%ADD22RoundRect,0.155000X-0.212500X-0.155000X0.212500X-0.155000X0.212500X0.155000X-0.212500X0.155000X0*%
%TD*%
%TA.AperFunction,SMDPad,CuDef*%
%ADD23RoundRect,0.250000X0.400000X0.600000X-0.400000X0.600000X-0.400000X-0.600000X0.400000X-0.600000X0*%
%TD*%
%TA.AperFunction,SMDPad,CuDef*%
%ADD24R,0.558800X0.355600*%
%TD*%
%TA.AperFunction,SMDPad,CuDef*%
%ADD25R,1.244600X0.558800*%
%TD*%
%TA.AperFunction,SMDPad,CuDef*%
%ADD26RoundRect,0.155000X-0.040659X-0.259862X0.259862X0.040659X0.040659X0.259862X-0.259862X-0.040659X0*%
%TD*%
%TA.AperFunction,SMDPad,CuDef*%
%ADD27RoundRect,0.155000X0.155000X-0.212500X0.155000X0.212500X-0.155000X0.212500X-0.155000X-0.212500X0*%
%TD*%
%TA.AperFunction,SMDPad,CuDef*%
%ADD28RoundRect,0.155000X0.040659X0.259862X-0.259862X-0.040659X-0.040659X-0.259862X0.259862X0.040659X0*%
%TD*%
%TA.AperFunction,SMDPad,CuDef*%
%ADD29RoundRect,0.250000X0.475000X-0.250000X0.475000X0.250000X-0.475000X0.250000X-0.475000X-0.250000X0*%
%TD*%
%TA.AperFunction,SMDPad,CuDef*%
%ADD30RotRect,0.599999X0.200000X225.000000*%
%TD*%
%TA.AperFunction,SMDPad,CuDef*%
%ADD31RotRect,0.599999X0.200000X135.000000*%
%TD*%
%TA.AperFunction,SMDPad,CuDef*%
%ADD32RotRect,0.399999X0.200000X225.000000*%
%TD*%
%TA.AperFunction,SMDPad,CuDef*%
%ADD33RotRect,0.399999X0.200000X135.000000*%
%TD*%
%TA.AperFunction,SMDPad,CuDef*%
%ADD34RotRect,2.999999X3.300001X135.000000*%
%TD*%
%TA.AperFunction,ComponentPad*%
%ADD35C,0.499999*%
%TD*%
%TA.AperFunction,SMDPad,CuDef*%
%ADD36RoundRect,0.100000X0.100000X-0.637500X0.100000X0.637500X-0.100000X0.637500X-0.100000X-0.637500X0*%
%TD*%
%TA.AperFunction,ViaPad*%
%ADD37C,0.800000*%
%TD*%
%TA.AperFunction,ViaPad*%
%ADD38C,0.460000*%
%TD*%
%TA.AperFunction,Conductor*%
%ADD39C,0.254000*%
%TD*%
%TA.AperFunction,Conductor*%
%ADD40C,0.127000*%
%TD*%
%TA.AperFunction,Conductor*%
%ADD41C,0.200000*%
%TD*%
G04 APERTURE END LIST*
D10*
%TO.P,J4,1,2*%
%TO.N,Net-(J4-2-Pad1)*%
X23750000Y30310000D03*
%TO.P,J4,2,2*%
X23750000Y32850000D03*
%TO.P,J4,3,4*%
%TO.N,Net-(U1-B4)*%
X26290000Y30310000D03*
%TO.P,J4,4,4*%
X26290000Y32850000D03*
%TO.P,J4,5,6*%
%TO.N,Net-(U1-B3)*%
X28830000Y30310000D03*
%TO.P,J4,6,6*%
X28830000Y32850000D03*
%TO.P,J4,7,7*%
%TO.N,Net-(U1-B2)*%
X31370000Y30310000D03*
%TO.P,J4,8,7*%
X31370000Y32850000D03*
%TO.P,J4,9,10*%
%TO.N,Net-(U1-B1)*%
X33910000Y30310000D03*
%TO.P,J4,10,10*%
X33910000Y32850000D03*
%TD*%
D11*
%TO.P,J1,1,In*%
%TO.N,Net-(J1-In)*%
X41000000Y21000000D03*
D12*
%TO.P,J1,2,Ext*%
%TO.N,GND*%
X43540000Y23540000D03*
X38460000Y23540000D03*
X43540000Y18460000D03*
X38460000Y18460000D03*
%TD*%
D13*
%TO.P,M3,1*%
%TO.N,GND*%
X10160000Y10160000D03*
%TD*%
%TO.P,M2,1*%
%TO.N,GND*%
X40640000Y30480000D03*
%TD*%
%TO.P,M4,1*%
%TO.N,GND*%
X40640000Y10160000D03*
%TD*%
%TO.P,M1,1*%
%TO.N,GND*%
X10160000Y30480000D03*
%TD*%
D10*
%TO.P,J2,1,2*%
%TO.N,GND*%
X7730000Y23040000D03*
%TO.P,J2,2,2*%
X10270000Y23040000D03*
%TO.P,J2,3,4*%
%TO.N,VCC*%
X7730000Y20500000D03*
%TO.P,J2,4,4*%
X10270000Y20500000D03*
%TO.P,J2,5,6*%
%TO.N,GND*%
X7730000Y17960000D03*
%TO.P,J2,6,6*%
X10270000Y17960000D03*
%TD*%
%TO.P,J3,1,2*%
%TO.N,Net-(J3-2-Pad1)*%
X23800000Y7592500D03*
%TO.P,J3,2,2*%
X23800000Y10132500D03*
%TO.P,J3,3,4*%
%TO.N,Net-(U3-B4)*%
X26340000Y7592500D03*
%TO.P,J3,4,4*%
X26340000Y10132500D03*
%TO.P,J3,5,6*%
%TO.N,Net-(U3-B3)*%
X28880000Y7592500D03*
%TO.P,J3,6,6*%
X28880000Y10132500D03*
%TO.P,J3,7,7*%
%TO.N,Net-(U3-B2)*%
X31420000Y7592500D03*
%TO.P,J3,8,7*%
X31420000Y10132500D03*
%TO.P,J3,9,10*%
%TO.N,Net-(U3-B1)*%
X33960000Y7592500D03*
%TO.P,J3,10,10*%
X33960000Y10132500D03*
%TD*%
D14*
%TO.P,FID3,*%
%TO.N,*%
X-2901800Y45625800D03*
%TD*%
D15*
%TO.P,C26,1*%
%TO.N,GND*%
X28303699Y40714138D03*
%TO.P,C26,2*%
%TO.N,Net-(U2A-XTALM_FREFM)*%
X27501133Y41516704D03*
%TD*%
D14*
%TO.P,FID1,*%
%TO.N,*%
X-2901800Y38525800D03*
%TD*%
D16*
%TO.P,C22,1*%
%TO.N,VDD_1V8*%
X16635000Y23450000D03*
%TO.P,C22,2*%
%TO.N,GND*%
X15500000Y23450000D03*
%TD*%
D17*
%TO.P,R18,1*%
%TO.N,BT_SLOW_CLK*%
X39847500Y38500000D03*
%TO.P,R18,2*%
%TO.N,unconnected-(R18-Pad2)*%
X38652500Y38500000D03*
%TD*%
D18*
%TO.P,Y3,1,1*%
%TO.N,GND*%
X26480761Y38530761D03*
%TO.P,Y3,2,2*%
X25278680Y39732842D03*
%TO.P,Y3,3,3*%
%TO.N,Net-(U2A-XTALM_FREFM)*%
X26197919Y40652081D03*
%TO.P,Y3,4,4*%
%TO.N,GND*%
X27400000Y39450000D03*
%TD*%
D14*
%TO.P,FID2,*%
%TO.N,*%
X-2901800Y42075800D03*
%TD*%
D19*
%TO.P,C16,1*%
%TO.N,VCC*%
X12550000Y15500000D03*
%TO.P,C16,2*%
%TO.N,GND*%
X14450000Y15500000D03*
%TD*%
D16*
%TO.P,C20,1*%
%TO.N,Net-(FL1-IN)*%
X30217500Y20836750D03*
%TO.P,C20,2*%
%TO.N,Net-(U2A-BT_RF)*%
X29082500Y20836750D03*
%TD*%
D20*
%TO.P,U3,1,V_{CCA}*%
%TO.N,unconnected-(U3-V_{CCA}-Pad1)*%
X16400000Y13362500D03*
%TO.P,U3,2,A1*%
%TO.N,USART2_RTS_1V8*%
X17050000Y13362500D03*
%TO.P,U3,3,A2*%
%TO.N,USART2_CTS_1V8*%
X17700000Y13362500D03*
%TO.P,U3,4,A3*%
%TO.N,USART2_RX_1V8*%
X18350000Y13362500D03*
%TO.P,U3,5,A4*%
%TO.N,USART2_TX_1V8*%
X19000000Y13362500D03*
%TO.P,U3,6,NC*%
%TO.N,unconnected-(U3-NC-Pad6)*%
X19650000Y13362500D03*
%TO.P,U3,7,GND*%
%TO.N,GND*%
X20300000Y13362500D03*
%TO.P,U3,8,OE*%
%TO.N,unconnected-(U3-OE-Pad8)*%
X20300000Y7637500D03*
%TO.P,U3,9,NC*%
%TO.N,unconnected-(U3-NC-Pad9)*%
X19650000Y7637500D03*
%TO.P,U3,10,B4*%
%TO.N,Net-(U3-B4)*%
X19000000Y7637500D03*
%TO.P,U3,11,B3*%
%TO.N,Net-(U3-B3)*%
X18350000Y7637500D03*
%TO.P,U3,12,B2*%
%TO.N,Net-(U3-B2)*%
X17700000Y7637500D03*
%TO.P,U3,13,B1*%
%TO.N,Net-(U3-B1)*%
X17050000Y7637500D03*
%TO.P,U3,14,V_{CCB}*%
%TO.N,unconnected-(U3-V_{CCB}-Pad14)*%
X16400000Y7637500D03*
%TD*%
D21*
%TO.P,L2,1,1*%
%TO.N,Net-(FL1-OUT)*%
X35055000Y20850000D03*
%TO.P,L2,2,2*%
%TO.N,Net-(J1-In)*%
X36200000Y20850000D03*
%TD*%
D22*
%TO.P,C23,1*%
%TO.N,VDD_1V8*%
X10465000Y41800000D03*
%TO.P,C23,2*%
%TO.N,GND*%
X11600000Y41800000D03*
%TD*%
D23*
%TO.P,D3,1,K*%
%TO.N,VCC*%
X10750000Y15500000D03*
%TO.P,D3,2,A*%
%TO.N,GND*%
X7250000Y15500000D03*
%TD*%
D16*
%TO.P,C21,1*%
%TO.N,VDD_1V8*%
X22917500Y13700000D03*
%TO.P,C21,2*%
%TO.N,GND*%
X21782500Y13700000D03*
%TD*%
D24*
%TO.P,FL1,1,IN*%
%TO.N,Net-(FL1-IN)*%
X31521300Y20850000D03*
D25*
%TO.P,FL1,2,GND*%
%TO.N,GND*%
X32550000Y20202300D03*
D24*
%TO.P,FL1,3,OUT*%
%TO.N,Net-(FL1-OUT)*%
X33578700Y20850000D03*
D25*
%TO.P,FL1,4,GND*%
%TO.N,GND*%
X32550000Y21497700D03*
%TD*%
D26*
%TO.P,C24,1*%
%TO.N,VDD_1V8*%
X25748717Y16048717D03*
%TO.P,C24,2*%
%TO.N,GND*%
X26551283Y16851283D03*
%TD*%
D27*
%TO.P,C19,1*%
%TO.N,Net-(J1-In)*%
X36262500Y21831900D03*
%TO.P,C19,2*%
%TO.N,GND*%
X36262500Y22966900D03*
%TD*%
D28*
%TO.P,C25,1*%
%TO.N,GND*%
X28537416Y38214704D03*
%TO.P,C25,2*%
X27734850Y37412138D03*
%TD*%
D29*
%TO.P,C17,1*%
%TO.N,VCC*%
X12500000Y24050000D03*
%TO.P,C17,2*%
%TO.N,GND*%
X12500000Y25950000D03*
%TD*%
D30*
%TO.P,U2,A1,NC*%
%TO.N,GND*%
X23134853Y25373403D03*
%TO.P,U2,A2,DIG_LDO_OUT*%
%TO.N,unconnected-(U2A-DIG_LDO_OUT-PadA2)*%
X23559116Y24949139D03*
%TO.P,U2,A3,DIG_LDO_OUT*%
%TO.N,unconnected-(U2A-DIG_LDO_OUT-PadA3)*%
X23983381Y24524875D03*
%TO.P,U2,A4,XTALM_FREFM*%
%TO.N,Net-(U2A-XTALM_FREFM)*%
X24407645Y24100611D03*
%TO.P,U2,A5,MLDO_OUT*%
%TO.N,VDD_1V8*%
X24831910Y23676346D03*
%TO.P,U2,A6,SHUTD_N*%
%TO.N,NSHUTDOWN_1V8*%
X25256173Y23252083D03*
%TO.P,U2,A7,CL1.5_LDO_OUT*%
%TO.N,unconnected-(U2A-CL1.5_LDO_OUT-PadA7)*%
X25680438Y22827818D03*
%TO.P,U2,A8,ADC_PPA_LDO_OUT*%
%TO.N,unconnected-(U2A-ADC_PPA_LDO_OUT-PadA8)*%
X26104702Y22403554D03*
%TO.P,U2,A9,MLDO_OUT*%
%TO.N,VDD_1V8*%
X26528966Y21979289D03*
%TO.P,U2,A10,NC*%
%TO.N,GND*%
X26953230Y21555026D03*
D31*
%TO.P,U2,A11,NC*%
%TO.N,unconnected-(U2B-NC-PadA11)*%
X26953231Y19857971D03*
%TO.P,U2,A12,DCO_LDO_OUT*%
%TO.N,unconnected-(U2A-DCO_LDO_OUT-PadA12)*%
X26528966Y19433707D03*
%TO.P,U2,A13,NC*%
%TO.N,unconnected-(U2B-NC-PadA13)*%
X26104703Y19009443D03*
%TO.P,U2,A14,NC*%
%TO.N,unconnected-(U2A-NC-PadA14)*%
X25680438Y18585178D03*
%TO.P,U2,A15,NC*%
%TO.N,unconnected-(U2B-NC-PadA15)*%
X25256175Y18160915D03*
%TO.P,U2,A16,NC*%
%TO.N,unconnected-(U2B-NC-PadA16)*%
X24831910Y17736650D03*
%TO.P,U2,A17,VDD_IO*%
%TO.N,VDD_1V8*%
X24407647Y17312387D03*
%TO.P,U2,A18,NC*%
%TO.N,unconnected-(U2B-NC-PadA18)*%
X23983381Y16888121D03*
%TO.P,U2,A19,NC*%
%TO.N,unconnected-(U2B-NC-PadA19)*%
X23559119Y16463859D03*
%TO.P,U2,A20,NC*%
%TO.N,unconnected-(U2B-NC-PadA20)*%
X23134853Y16039593D03*
D30*
%TO.P,U2,A21,NC*%
%TO.N,unconnected-(U2B-NC-PadA21)*%
X21437797Y16039593D03*
%TO.P,U2,A22,NC*%
%TO.N,unconnected-(U2B-NC-PadA22)*%
X21013531Y16463859D03*
%TO.P,U2,A23,NC*%
%TO.N,unconnected-(U2B-NC-PadA23)*%
X20589269Y16888121D03*
%TO.P,U2,A24,VSS*%
%TO.N,GND*%
X20165003Y17312387D03*
%TO.P,U2,A25,SLOW_CLK*%
%TO.N,BT_SLOW_CLK*%
X19740740Y17736650D03*
%TO.P,U2,A26,HCI_RX*%
%TO.N,USART2_TX_1V8*%
X19316475Y18160915D03*
%TO.P,U2,A27,NC*%
%TO.N,unconnected-(U2B-NC-PadA27)*%
X18892212Y18585178D03*
%TO.P,U2,A28,VSS*%
%TO.N,GND*%
X18467947Y19009443D03*
%TO.P,U2,A29,HCI_CTS*%
%TO.N,USART2_RTS_1V8*%
X18043684Y19433707D03*
%TO.P,U2,A30,NC*%
%TO.N,unconnected-(U2B-NC-PadA30)*%
X17619419Y19857971D03*
D31*
%TO.P,U2,A31,NC*%
%TO.N,unconnected-(U2B-NC-PadA31)*%
X17619420Y21555026D03*
%TO.P,U2,A32,HCI_RTS*%
%TO.N,USART2_CTS_1V8*%
X18043686Y21979292D03*
%TO.P,U2,A33,HCI_TX*%
%TO.N,USART2_RX_1V8*%
X18467948Y22403554D03*
%TO.P,U2,A34,VDD_IO*%
%TO.N,VDD_1V8*%
X18892214Y22827820D03*
%TO.P,U2,A35,AUD_FSYNC*%
%TO.N,unconnected-(U2A-AUD_FSYNC-PadA35)*%
X19316477Y23252083D03*
%TO.P,U2,A36,NC*%
%TO.N,unconnected-(U2B-NC-PadA36)*%
X19740742Y23676348D03*
%TO.P,U2,A37,NC*%
%TO.N,unconnected-(U2B-NC-PadA37)*%
X20165005Y24100611D03*
%TO.P,U2,A38,VDD_IO*%
%TO.N,VDD_1V8*%
X20589270Y24524876D03*
%TO.P,U2,A39,NC*%
%TO.N,unconnected-(U2B-NC-PadA39)*%
X21013534Y24949139D03*
%TO.P,U2,A40,NC*%
%TO.N,unconnected-(U2B-NC-PadA40)*%
X21437798Y25373404D03*
D32*
%TO.P,U2,B1,SRAM_LDO_OUT*%
%TO.N,unconnected-(U2A-SRAM_LDO_OUT-PadB1)*%
X22781299Y24595585D03*
%TO.P,U2,B2,MLDO_OUT*%
%TO.N,VDD_1V8*%
X23205562Y24171321D03*
%TO.P,U2,B3,VSS_FREF*%
%TO.N,GND*%
X23629827Y23747056D03*
%TO.P,U2,B4,XTALP_FREFP*%
X24054091Y23322793D03*
%TO.P,U2,B5,MLDO_IN*%
%TO.N,VCC*%
X24478355Y22898528D03*
%TO.P,U2,B6,CL1.5_LDO_IN*%
X24902619Y22474265D03*
%TO.P,U2,B7,MLDO_OUT*%
%TO.N,VDD_1V8*%
X25326883Y22050000D03*
%TO.P,U2,B8,BT_RF*%
%TO.N,Net-(U2A-BT_RF)*%
X25751147Y21625737D03*
%TO.P,U2,B9,NC*%
%TO.N,GND*%
X26175412Y21201472D03*
D33*
%TO.P,U2,B10,NC*%
%TO.N,unconnected-(U2B-NC-PadB10)*%
X26175412Y20211524D03*
%TO.P,U2,B11,VSS_DCO*%
%TO.N,GND*%
X25751148Y19787261D03*
%TO.P,U2,B12,NC*%
%TO.N,unconnected-(U2B-NC-PadB12)*%
X25326883Y19362996D03*
%TO.P,U2,B13,NC*%
%TO.N,unconnected-(U2B-NC-PadB13)*%
X24902620Y18938732D03*
%TO.P,U2,B14,NC*%
%TO.N,unconnected-(U2B-NC-PadB14)*%
X24478355Y18514468D03*
%TO.P,U2,B15,DIG_LDO_OUT*%
%TO.N,unconnected-(U2A-DIG_LDO_OUT-PadB15)*%
X24054092Y18090204D03*
%TO.P,U2,B16,NC*%
%TO.N,unconnected-(U2B-NC-PadB16)*%
X23629827Y17665940D03*
%TO.P,U2,B17,NC*%
%TO.N,unconnected-(U2B-NC-PadB17)*%
X23205564Y17241676D03*
%TO.P,U2,B18,VDD_IO*%
%TO.N,VDD_1V8*%
X22781299Y16817411D03*
D32*
%TO.P,U2,B19,VDD_IO*%
X21791351Y16817411D03*
%TO.P,U2,B20,NC*%
%TO.N,unconnected-(U2B-NC-PadB20)*%
X21367088Y17241675D03*
%TO.P,U2,B21,VDD_IO*%
%TO.N,VDD_1V8*%
X20942823Y17665940D03*
%TO.P,U2,B22,VDD_IO*%
X20518559Y18090203D03*
%TO.P,U2,B23,NC*%
%TO.N,unconnected-(U2B-NC-PadB23)*%
X20094295Y18514468D03*
%TO.P,U2,B24,TX_DBG*%
%TO.N,BT_TX_DBG*%
X19670031Y18938731D03*
%TO.P,U2,B25,VDD_IO*%
%TO.N,VDD_1V8*%
X19245767Y19362996D03*
%TO.P,U2,B26,DIG_LDO_OUT*%
%TO.N,unconnected-(U2A-DIG_LDO_OUT-PadB26)*%
X18821503Y19787259D03*
%TO.P,U2,B27,DIG_LDO_OUT*%
%TO.N,unconnected-(U2A-DIG_LDO_OUT-PadB27)*%
X18397238Y20211524D03*
D33*
%TO.P,U2,B28,NC*%
%TO.N,unconnected-(U2B-NC-PadB28)*%
X18397238Y21201472D03*
%TO.P,U2,B29,NC*%
%TO.N,unconnected-(U2B-NC-PadB29)*%
X18821502Y21625735D03*
%TO.P,U2,B30,NC*%
%TO.N,unconnected-(U2B-NC-PadB30)*%
X19245767Y22050000D03*
%TO.P,U2,B31,NC*%
%TO.N,unconnected-(U2B-NC-PadB31)*%
X19670030Y22474264D03*
%TO.P,U2,B32,AUD_CLK*%
%TO.N,unconnected-(U2A-AUD_CLK-PadB32)*%
X20094295Y22898528D03*
%TO.P,U2,B33,AUD_OUT*%
%TO.N,unconnected-(U2A-AUD_OUT-PadB33)*%
X20518558Y23322792D03*
%TO.P,U2,B34,AUD_IN*%
%TO.N,unconnected-(U2A-AUD_IN-PadB34)*%
X20942823Y23747056D03*
%TO.P,U2,B35,DIG_LDO_OUT*%
%TO.N,unconnected-(U2A-DIG_LDO_OUT-PadB35)*%
X21367086Y24171320D03*
%TO.P,U2,B36,DIG_LDO_OUT*%
%TO.N,unconnected-(U2A-DIG_LDO_OUT-PadB36)*%
X21791351Y24595585D03*
D34*
%TO.P,U2,D1,EPAD*%
%TO.N,GND*%
X22166117Y20586290D03*
D35*
%TO.P,U2,V*%
%TO.N,N/C*%
X23156066Y21576239D03*
X23050000Y19702406D03*
X22166117Y20586290D03*
X21282233Y21470173D03*
X21176168Y19596341D03*
%TD*%
D27*
%TO.P,C18,1*%
%TO.N,Net-(FL1-OUT)*%
X34992500Y21831900D03*
%TO.P,C18,2*%
%TO.N,GND*%
X34992500Y22966900D03*
%TD*%
D36*
%TO.P,U1,1,V_{CCA}*%
%TO.N,unconnected-(U1-V_{CCA}-Pad1)*%
X20200000Y28057500D03*
%TO.P,U1,2,A1*%
%TO.N,unconnected-(U1-A1-Pad2)*%
X19550000Y28057500D03*
%TO.P,U1,3,A2*%
%TO.N,unconnected-(U1-A2-Pad3)*%
X18900000Y28057500D03*
%TO.P,U1,4,A3*%
%TO.N,unconnected-(U1-A3-Pad4)*%
X18250000Y28057500D03*
%TO.P,U1,5,A4*%
%TO.N,unconnected-(U1-A4-Pad5)*%
X17600000Y28057500D03*
%TO.P,U1,6,NC*%
%TO.N,unconnected-(U1-NC-Pad6)*%
X16950000Y28057500D03*
%TO.P,U1,7,GND*%
%TO.N,GND*%
X16300000Y28057500D03*
%TO.P,U1,8,OE*%
%TO.N,unconnected-(U1-OE-Pad8)*%
X16300000Y33782500D03*
%TO.P,U1,9,NC*%
%TO.N,unconnected-(U1-NC-Pad9)*%
X16950000Y33782500D03*
%TO.P,U1,10,B4*%
%TO.N,Net-(U1-B4)*%
X17600000Y33782500D03*
%TO.P,U1,11,B3*%
%TO.N,Net-(U1-B3)*%
X18250000Y33782500D03*
%TO.P,U1,12,B2*%
%TO.N,Net-(U1-B2)*%
X18900000Y33782500D03*
%TO.P,U1,13,B1*%
%TO.N,Net-(U1-B1)*%
X19550000Y33782500D03*
%TO.P,U1,14,V_{CCB}*%
%TO.N,unconnected-(U1-V_{CCB}-Pad14)*%
X20200000Y33782500D03*
%TD*%
D37*
%TO.N,GND*%
X13791000Y18373801D03*
X29248616Y38956421D03*
X29020016Y40023221D03*
X12617500Y41818400D03*
D38*
%TO.N,NSHUTDOWN_1V8*%
X24016216Y38321421D03*
%TO.N,unconnected-(U1-V_{CCB}-Pad14)*%
X20750000Y33080000D03*
%TD*%
D39*
%TO.N,GND*%
X28303699Y40714138D02*
X28329099Y40714138D01*
D40*
X25743416Y37940421D02*
X25890421Y37940421D01*
X24450617Y39233220D02*
X25743416Y37940421D01*
D39*
X11600000Y41800000D02*
X12599100Y41800000D01*
X28329099Y40714138D02*
X29020016Y40023221D01*
X12599100Y41800000D02*
X12617500Y41818400D01*
X29248616Y38956421D02*
X28537416Y38245221D01*
D40*
X25890421Y37940421D02*
X26480761Y38530761D01*
D39*
X28537416Y38245221D02*
X28537416Y38214704D01*
D40*
X27599384Y37412138D02*
X26480761Y38530761D01*
X27734850Y37412138D02*
X27599384Y37412138D01*
D41*
%TO.N,Net-(FL1-OUT)*%
X34992500Y20912500D02*
X35055000Y20850000D01*
X34992500Y21831900D02*
X34992500Y20912500D01*
X33578700Y20850000D02*
X35055000Y20850000D01*
D39*
%TO.N,VDD_1V8*%
X10509300Y41776300D02*
X10509300Y43317601D01*
X8020100Y42910600D02*
X9154400Y41776300D01*
X9154400Y41776300D02*
X10509300Y41776300D01*
D41*
%TO.N,Net-(J1-In)*%
X36262500Y21831900D02*
X36262500Y20912500D01*
X40850000Y20850000D02*
X41000000Y21000000D01*
D39*
X40969400Y21030600D02*
X41000000Y21000000D01*
D41*
X36262500Y20912500D02*
X36200000Y20850000D01*
X36200000Y20850000D02*
X40850000Y20850000D01*
%TO.N,Net-(FL1-IN)*%
X30217500Y20836750D02*
X31508050Y20836750D01*
X31508050Y20836750D02*
X31521300Y20850000D01*
%TO.N,USART2_TX_1V8*%
X19000000Y17844440D02*
X19316475Y18160915D01*
X19000000Y13362500D02*
X19000000Y17844440D01*
D39*
%TO.N,BT_SLOW_CLK*%
X39847500Y38500000D02*
X40050700Y38296800D01*
D41*
%TO.N,unconnected-(U1-V_{CCB}-Pad14)*%
X20200000Y33782500D02*
X20750000Y33232500D01*
X20750000Y33080000D02*
X20750000Y33232500D01*
%TO.N,Net-(U3-B2)*%
X17700000Y7637500D02*
X17700000Y7083366D01*
X17700000Y7083366D02*
X18180866Y6602500D01*
X31420000Y7592500D02*
X31420000Y10132500D01*
X18180866Y6602500D02*
X30430000Y6602500D01*
X30430000Y6602500D02*
X31420000Y7592500D01*
%TO.N,Net-(U3-B1)*%
X33960000Y7592500D02*
X33960000Y10132500D01*
X17050000Y7637500D02*
X17050000Y6900001D01*
X17050000Y6900001D02*
X17675501Y6274500D01*
X32642000Y6274500D02*
X33960000Y7592500D01*
X17675501Y6274500D02*
X32642000Y6274500D01*
%TO.N,Net-(U3-B3)*%
X18350000Y7637500D02*
X18350000Y8374999D01*
X27541500Y8931000D02*
X28880000Y7592500D01*
X28880000Y7592500D02*
X28880000Y10132500D01*
X18350000Y8374999D02*
X18906001Y8931000D01*
X18906001Y8931000D02*
X27541500Y8931000D01*
%TO.N,Net-(U3-B4)*%
X19000000Y8374999D02*
X19228001Y8603000D01*
X19000000Y7637500D02*
X19000000Y8374999D01*
X22499500Y8603000D02*
X22520000Y8582500D01*
X22520000Y8582500D02*
X25350000Y8582500D01*
X25350000Y8582500D02*
X26340000Y7592500D01*
X19228001Y8603000D02*
X22499500Y8603000D01*
%TO.N,Net-(U1-B3)*%
X28830000Y32850000D02*
X28830000Y30310000D01*
X27512000Y31628000D02*
X28830000Y30310000D01*
X18250000Y33782500D02*
X18250000Y33045001D01*
X18250000Y33045001D02*
X19667001Y31628000D01*
X19667001Y31628000D02*
X27512000Y31628000D01*
%TO.N,Net-(U1-B4)*%
X17600000Y32730000D02*
X19030000Y31300000D01*
X17600000Y33782500D02*
X17600000Y32730000D01*
X19030000Y31300000D02*
X25300000Y31300000D01*
X25300000Y31300000D02*
X26290000Y30310000D01*
%TO.N,Net-(U1-B1)*%
X20311001Y32284000D02*
X20954000Y32284000D01*
X19550000Y33045001D02*
X20311001Y32284000D01*
X21250000Y32580000D02*
X21250000Y33543862D01*
X20954000Y32284000D02*
X21250000Y32580000D01*
X32352000Y34408000D02*
X33910000Y32850000D01*
X19550000Y33782500D02*
X19550000Y33045001D01*
X33910000Y32850000D02*
X33910000Y30310000D01*
X21250000Y33543862D02*
X22114138Y34408000D01*
X22114138Y34408000D02*
X32352000Y34408000D01*
%TO.N,Net-(U1-B2)*%
X31370000Y32850000D02*
X31370000Y30310000D01*
X18900000Y33782500D02*
X18900000Y32930000D01*
X22250000Y34080000D02*
X30140000Y34080000D01*
X21750000Y32580000D02*
X21750000Y33580000D01*
X21750000Y33580000D02*
X22250000Y34080000D01*
X18900000Y32930000D02*
X19874000Y31956000D01*
X21126000Y31956000D02*
X21750000Y32580000D01*
X30140000Y34080000D02*
X31370000Y32850000D01*
X19874000Y31956000D02*
X21126000Y31956000D01*
%TO.N,Net-(U2A-BT_RF)*%
X29082500Y20836750D02*
X29007091Y20761341D01*
X25550000Y21050000D02*
X25550000Y21424590D01*
X29007091Y20761341D02*
X25838659Y20761341D01*
X25550000Y21424590D02*
X25751147Y21625737D01*
X25838659Y20761341D02*
X25550000Y21050000D01*
D40*
%TO.N,Net-(U2A-XTALM_FREFM)*%
X26636510Y40652081D02*
X27501133Y41516704D01*
X25734579Y41115421D02*
X26197919Y40652081D01*
X25235416Y41115421D02*
X25734579Y41115421D01*
X26197919Y40652081D02*
X26636510Y40652081D01*
D39*
%TO.N,unconnected-(U2A-SRAM_LDO_OUT-PadB1)*%
X22909600Y24985801D02*
X22885603Y24961804D01*
%TD*%
M02*
