%TF.GenerationSoftware,KiCad,Pcbnew,9.0.7+1*%
%TF.CreationDate,2026-02-14T22:59:46+00:00*%
%TF.ProjectId,BLE02,424c4530-322e-46b6-9963-61645f706362,rev?*%
%TF.SameCoordinates,Original*%
%TF.FileFunction,Soldermask,Bot*%
%TF.FilePolarity,Negative*%
%FSLAX46Y46*%
G04 Gerber Fmt 4.6, Leading zero omitted, Abs format (unit mm)*
G04 Created by KiCad (PCBNEW 9.0.7+1) date 2026-02-14 22:59:46*
%MOMM*%
%LPD*%
G01*
G04 APERTURE LIST*
G04 Aperture macros list*
%AMRoundRect*
0 Rectangle with rounded corners*
0 $1 Rounding radius*
0 $2 $3 $4 $5 $6 $7 $8 $9 X,Y pos of 4 corners*
0 Add a 4 corners polygon primitive as box body*
4,1,4,$2,$3,$4,$5,$6,$7,$8,$9,$2,$3,0*
0 Add four circle primitives for the rounded corners*
1,1,$1+$1,$2,$3*
1,1,$1+$1,$4,$5*
1,1,$1+$1,$6,$7*
1,1,$1+$1,$8,$9*
0 Add four rect primitives between the rounded corners*
20,1,$1+$1,$2,$3,$4,$5,0*
20,1,$1+$1,$4,$5,$6,$7,0*
20,1,$1+$1,$6,$7,$8,$9,0*
20,1,$1+$1,$8,$9,$2,$3,0*%
G04 Aperture macros list end*
%ADD10R,1.524000X1.524000*%
%ADD11C,2.500000*%
%ADD12C,2.700000*%
%ADD13C,6.000000*%
%ADD14RoundRect,0.225000X0.250000X-0.225000X0.250000X0.225000X-0.250000X0.225000X-0.250000X-0.225000X0*%
%ADD15C,2.000000*%
%ADD16RoundRect,0.225000X0.225000X0.250000X-0.225000X0.250000X-0.225000X-0.250000X0.225000X-0.250000X0*%
%ADD17RoundRect,0.250000X0.325000X0.250000X-0.325000X0.250000X-0.325000X-0.250000X0.325000X-0.250000X0*%
%ADD18RoundRect,0.180000X-0.495000X-0.620000X0.495000X-0.620000X0.495000X0.620000X-0.495000X0.620000X0*%
%ADD19RoundRect,0.180000X0.495000X0.620000X-0.495000X0.620000X-0.495000X-0.620000X0.495000X-0.620000X0*%
%ADD20RoundRect,0.225000X-0.250000X0.225000X-0.250000X-0.225000X0.250000X-0.225000X0.250000X0.225000X0*%
%ADD21RoundRect,0.100000X-0.100000X0.637500X-0.100000X-0.637500X0.100000X-0.637500X0.100000X0.637500X0*%
%ADD22RoundRect,0.200000X0.200000X0.275000X-0.200000X0.275000X-0.200000X-0.275000X0.200000X-0.275000X0*%
%ADD23RoundRect,0.225000X-0.225000X-0.250000X0.225000X-0.250000X0.225000X0.250000X-0.225000X0.250000X0*%
%ADD24RoundRect,0.150000X-0.150000X-0.200000X0.150000X-0.200000X0.150000X0.200000X-0.150000X0.200000X0*%
%ADD25RoundRect,0.200000X0.275000X-0.200000X0.275000X0.200000X-0.275000X0.200000X-0.275000X-0.200000X0*%
%ADD26RoundRect,0.225000X0.325000X0.225000X-0.325000X0.225000X-0.325000X-0.225000X0.325000X-0.225000X0*%
%ADD27RoundRect,0.250000X0.475000X-0.250000X0.475000X0.250000X-0.475000X0.250000X-0.475000X-0.250000X0*%
%ADD28R,0.200000X0.599999*%
%ADD29R,0.599999X0.200000*%
%ADD30R,0.200000X0.399999*%
%ADD31R,0.399999X0.200000*%
%ADD32R,2.999999X3.300001*%
%ADD33RoundRect,0.100000X0.100000X-0.637500X0.100000X0.637500X-0.100000X0.637500X-0.100000X-0.637500X0*%
%ADD34R,0.406400X0.406400*%
%ADD35R,1.041400X0.508000*%
G04 APERTURE END LIST*
D10*
%TO.C,J4*%
X23190000Y30310000D03*
X23190000Y32850000D03*
X25730000Y30310000D03*
X25730000Y32850000D03*
X28270000Y30310000D03*
X28270000Y32850000D03*
X30810000Y30310000D03*
X30810000Y32850000D03*
%TD*%
D11*
%TO.C,J1*%
X40720000Y20830000D03*
D12*
X43260000Y23370000D03*
X38180000Y23370000D03*
X43260000Y18290000D03*
X38180000Y18290000D03*
%TD*%
D13*
%TO.C,M3*%
X10160000Y10160000D03*
%TD*%
%TO.C,M2*%
X40640000Y30480000D03*
%TD*%
%TO.C,M4*%
X40640000Y10160000D03*
%TD*%
%TO.C,M1*%
X10160000Y30480000D03*
%TD*%
D10*
%TO.C,J2*%
X7730000Y23040000D03*
X10270000Y23040000D03*
X7730000Y20500000D03*
X10270000Y20500000D03*
X7730000Y17960000D03*
X10270000Y17960000D03*
%TD*%
%TO.C,J3*%
X23190000Y7592500D03*
X23190000Y10132500D03*
X25730000Y7592500D03*
X25730000Y10132500D03*
X28270000Y7592500D03*
X28270000Y10132500D03*
X30810000Y7592500D03*
X30810000Y10132500D03*
%TD*%
D14*
%TO.C,C7*%
X16500000Y22025000D03*
X16500000Y23575000D03*
%TD*%
D15*
%TO.C,FID3*%
X42250000Y15200000D03*
%TD*%
D16*
%TO.C,C26*%
X25775000Y27524000D03*
X24225000Y27524000D03*
%TD*%
D15*
%TO.C,FID1*%
X14010000Y7140000D03*
%TD*%
D14*
%TO.C,C22*%
X19450000Y21225000D03*
X19450000Y22775000D03*
%TD*%
D17*
%TO.C,Y3*%
X25875000Y24300000D03*
X24125000Y24300000D03*
X24125000Y25700000D03*
X25875000Y25700000D03*
%TD*%
D15*
%TO.C,FID2*%
X34500000Y31580000D03*
%TD*%
D14*
%TO.C,C3*%
X32800000Y17775000D03*
X32800000Y19325000D03*
%TD*%
D18*
%TO.C,D1*%
X7200000Y25476200D03*
D19*
X10800000Y25476200D03*
%TD*%
D14*
%TO.C,C5*%
X22350000Y26475000D03*
X22350000Y28025000D03*
%TD*%
D20*
%TO.C,C16*%
X12500000Y19275000D03*
X12500000Y17725000D03*
%TD*%
D16*
%TO.C,C20*%
X33275000Y20836750D03*
X31725000Y20836750D03*
%TD*%
D21*
%TO.C,U3*%
X16400000Y13362500D03*
X17050000Y13362500D03*
X17700000Y13362500D03*
X18350000Y13362500D03*
X19000000Y13362500D03*
X19650000Y13362500D03*
X20300000Y13362500D03*
X20300000Y7637500D03*
X19650000Y7637500D03*
X19000000Y7637500D03*
X18350000Y7637500D03*
X17700000Y7637500D03*
X17050000Y7637500D03*
X16400000Y7637500D03*
%TD*%
D22*
%TO.C,R3*%
X16025000Y15550000D03*
X14375000Y15550000D03*
%TD*%
D23*
%TO.C,C4*%
X31650000Y23000000D03*
X33200000Y23000000D03*
%TD*%
D16*
%TO.C,C23*%
X28550000Y13500000D03*
X27000000Y13500000D03*
%TD*%
D24*
%TO.C,D3*%
X12714200Y15417800D03*
X11314200Y15417800D03*
%TD*%
D14*
%TO.C,C21*%
X30000000Y24725000D03*
X30000000Y26275000D03*
%TD*%
D23*
%TO.C,C6*%
X27975000Y27950000D03*
X29525000Y27950000D03*
%TD*%
D25*
%TO.C,R2*%
X14950000Y22000000D03*
X14950000Y23650000D03*
%TD*%
D14*
%TO.C,C24*%
X31250000Y17775000D03*
X31250000Y19325000D03*
%TD*%
D22*
%TO.C,R4*%
X13829800Y25476200D03*
X12179800Y25476200D03*
%TD*%
D20*
%TO.C,C25*%
X28000000Y26275000D03*
X28000000Y24725000D03*
%TD*%
D14*
%TO.C,C2*%
X20950000Y23225000D03*
X20950000Y24775000D03*
%TD*%
D16*
%TO.C,C8*%
X34328400Y10591800D03*
X32778400Y10591800D03*
%TD*%
D26*
%TO.C,Y1*%
X33616000Y12888200D03*
X31916000Y12888200D03*
X31916000Y14188200D03*
X33616000Y14188200D03*
%TD*%
D27*
%TO.C,C17*%
X12740000Y21050000D03*
X12740000Y22950000D03*
%TD*%
D28*
%TO.C,U2*%
X23300000Y22699999D03*
X23899999Y22699999D03*
X24500000Y22699999D03*
X25099999Y22699999D03*
X25700001Y22699999D03*
X26299999Y22699999D03*
X26900001Y22699999D03*
X27500000Y22699999D03*
X28100001Y22699999D03*
X28700000Y22699999D03*
D29*
X29900000Y21500001D03*
X29900000Y20900000D03*
X29900000Y20300001D03*
X29900000Y19700000D03*
X29900000Y19100001D03*
X29900000Y18500000D03*
X29900000Y17900001D03*
X29900000Y17299999D03*
X29900000Y16700001D03*
X29900000Y16099999D03*
D28*
X28700000Y14899999D03*
X28099998Y14899999D03*
X27500000Y14899999D03*
X26899998Y14899999D03*
X26299999Y14899999D03*
X25699998Y14899999D03*
X25099999Y14899999D03*
X24499998Y14899999D03*
X23899999Y14899999D03*
X23299998Y14899999D03*
D29*
X22100000Y16099999D03*
X22100000Y16700001D03*
X22100000Y17299999D03*
X22100000Y17900001D03*
X22100000Y18500000D03*
X22100000Y19100001D03*
X22100000Y19700000D03*
X22100000Y20300001D03*
X22100000Y20900000D03*
X22100000Y21500001D03*
D30*
X23600000Y21899998D03*
X24199999Y21899998D03*
X24800000Y21899998D03*
X25399999Y21899998D03*
X26000000Y21899998D03*
X26599999Y21899998D03*
X27200000Y21899998D03*
X27799999Y21899998D03*
X28400000Y21899998D03*
D31*
X29099999Y21199999D03*
X29099999Y20600000D03*
X29099999Y19999999D03*
X29099999Y19400000D03*
X29099999Y18799999D03*
X29099999Y18200000D03*
X29099999Y17599999D03*
X29099999Y17000000D03*
X29099999Y16399999D03*
D30*
X28400000Y15700000D03*
X27800001Y15700000D03*
X27200000Y15700000D03*
X26600001Y15700000D03*
X26000000Y15700000D03*
X25400001Y15700000D03*
X24800000Y15700000D03*
X24200001Y15700000D03*
X23600000Y15700000D03*
D31*
X22900001Y16399999D03*
X22900001Y16999998D03*
X22900001Y17599999D03*
X22900001Y18199998D03*
X22900001Y18799999D03*
X22900001Y19399998D03*
X22900001Y19999999D03*
X22900001Y20599998D03*
X22900001Y21199999D03*
D32*
X26000000Y18629999D03*
%TD*%
D25*
%TO.C,R1*%
X31700000Y24675000D03*
X31700000Y26325000D03*
%TD*%
D16*
%TO.C,C1*%
X20675000Y15450000D03*
X19125000Y15450000D03*
%TD*%
D33*
%TO.C,U1*%
X20200000Y27137500D03*
X19550000Y27137500D03*
X18900000Y27137500D03*
X18250000Y27137500D03*
X17600000Y27137500D03*
X16950000Y27137500D03*
X16300000Y27137500D03*
X16300000Y32862500D03*
X16950000Y32862500D03*
X17600000Y32862500D03*
X18250000Y32862500D03*
X18900000Y32862500D03*
X19550000Y32862500D03*
X20200000Y32862500D03*
%TD*%
D34*
%TO.C,U4*%
X35547300Y20830000D03*
D35*
X35814000Y21426900D03*
D34*
X36080700Y20830000D03*
D35*
X35814000Y20233100D03*
%TD*%
M02*
