%TF.GenerationSoftware,KiCad,Pcbnew,9.0.6+1*%
%TF.CreationDate,2026-02-08T13:26:48+00:00*%
%TF.ProjectId,BLE02,424c4530-322e-46b6-9963-61645f706362,rev?*%
%TF.SameCoordinates,Original*%
%TF.FileFunction,Legend,Bot*%
%TF.FilePolarity,Positive*%
%FSLAX46Y46*%
G04 Gerber Fmt 4.6, Leading zero omitted, Abs format (unit mm)*
G04 Created by KiCad (PCBNEW 9.0.6+1) date 2026-02-08 13:26:48*
%MOMM*%
%LPD*%
G01*
G04 APERTURE LIST*
%ADD10C,0.150000*%
%ADD11C,0.015000*%
%ADD12C,0.120000*%
%ADD13C,0.127000*%
%ADD14C,0.200000*%
%ADD15C,0.152400*%
G04 APERTURE END LIST*
D10*
X-1830372Y43744791D02*
X-1497039Y43744791D01*
X-1497039Y43220981D02*
X-1497039Y44220981D01*
X-1497039Y44220981D02*
X-1973229Y44220981D01*
X-2354182Y43220981D02*
X-2354182Y44220981D01*
X-2830372Y43220981D02*
X-2830372Y44220981D01*
X-2830372Y44220981D02*
X-3068467Y44220981D01*
X-3068467Y44220981D02*
X-3211324Y44173362D01*
X-3211324Y44173362D02*
X-3306562Y44078124D01*
X-3306562Y44078124D02*
X-3354181Y43982886D01*
X-3354181Y43982886D02*
X-3401800Y43792410D01*
X-3401800Y43792410D02*
X-3401800Y43649553D01*
X-3401800Y43649553D02*
X-3354181Y43459077D01*
X-3354181Y43459077D02*
X-3306562Y43363839D01*
X-3306562Y43363839D02*
X-3211324Y43268600D01*
X-3211324Y43268600D02*
X-3068467Y43220981D01*
X-3068467Y43220981D02*
X-2830372Y43220981D01*
X-3735134Y44220981D02*
X-4354181Y44220981D01*
X-4354181Y44220981D02*
X-4020848Y43840029D01*
X-4020848Y43840029D02*
X-4163705Y43840029D01*
X-4163705Y43840029D02*
X-4258943Y43792410D01*
X-4258943Y43792410D02*
X-4306562Y43744791D01*
X-4306562Y43744791D02*
X-4354181Y43649553D01*
X-4354181Y43649553D02*
X-4354181Y43411458D01*
X-4354181Y43411458D02*
X-4306562Y43316220D01*
X-4306562Y43316220D02*
X-4258943Y43268600D01*
X-4258943Y43268600D02*
X-4163705Y43220981D01*
X-4163705Y43220981D02*
X-3877991Y43220981D01*
X-3877991Y43220981D02*
X-3782753Y43268600D01*
X-3782753Y43268600D02*
X-3735134Y43316220D01*
X28922966Y41226835D02*
X28922966Y41159491D01*
X28922966Y41159491D02*
X28990310Y41024804D01*
X28990310Y41024804D02*
X29057653Y40957461D01*
X29057653Y40957461D02*
X29192340Y40890117D01*
X29192340Y40890117D02*
X29327027Y40890117D01*
X29327027Y40890117D02*
X29428042Y40923789D01*
X29428042Y40923789D02*
X29596401Y41024804D01*
X29596401Y41024804D02*
X29697416Y41125819D01*
X29697416Y41125819D02*
X29798432Y41294178D01*
X29798432Y41294178D02*
X29832103Y41395193D01*
X29832103Y41395193D02*
X29832103Y41529880D01*
X29832103Y41529880D02*
X29764760Y41664567D01*
X29764760Y41664567D02*
X29697416Y41731911D01*
X29697416Y41731911D02*
X29562729Y41799254D01*
X29562729Y41799254D02*
X29495386Y41799254D01*
X29226012Y42068628D02*
X29226012Y42135972D01*
X29226012Y42135972D02*
X29192340Y42236987D01*
X29192340Y42236987D02*
X29023981Y42405346D01*
X29023981Y42405346D02*
X28922966Y42439018D01*
X28922966Y42439018D02*
X28855623Y42439018D01*
X28855623Y42439018D02*
X28754607Y42405346D01*
X28754607Y42405346D02*
X28687264Y42338002D01*
X28687264Y42338002D02*
X28619920Y42203315D01*
X28619920Y42203315D02*
X28619920Y41395193D01*
X28619920Y41395193D02*
X28182188Y41832926D01*
X28283203Y43146125D02*
X28417890Y43011438D01*
X28417890Y43011438D02*
X28451561Y42910422D01*
X28451561Y42910422D02*
X28451561Y42843079D01*
X28451561Y42843079D02*
X28417890Y42674720D01*
X28417890Y42674720D02*
X28316874Y42506361D01*
X28316874Y42506361D02*
X28047500Y42236987D01*
X28047500Y42236987D02*
X27946485Y42203316D01*
X27946485Y42203316D02*
X27879142Y42203316D01*
X27879142Y42203316D02*
X27778126Y42236987D01*
X27778126Y42236987D02*
X27643439Y42371674D01*
X27643439Y42371674D02*
X27609768Y42472690D01*
X27609768Y42472690D02*
X27609768Y42540033D01*
X27609768Y42540033D02*
X27643439Y42641048D01*
X27643439Y42641048D02*
X27811798Y42809407D01*
X27811798Y42809407D02*
X27912813Y42843079D01*
X27912813Y42843079D02*
X27980157Y42843079D01*
X27980157Y42843079D02*
X28081172Y42809407D01*
X28081172Y42809407D02*
X28215859Y42674720D01*
X28215859Y42674720D02*
X28249531Y42573705D01*
X28249531Y42573705D02*
X28249531Y42506361D01*
X28249531Y42506361D02*
X28215859Y42405346D01*
X-1830372Y36644791D02*
X-1497039Y36644791D01*
X-1497039Y36120981D02*
X-1497039Y37120981D01*
X-1497039Y37120981D02*
X-1973229Y37120981D01*
X-2354182Y36120981D02*
X-2354182Y37120981D01*
X-2830372Y36120981D02*
X-2830372Y37120981D01*
X-2830372Y37120981D02*
X-3068467Y37120981D01*
X-3068467Y37120981D02*
X-3211324Y37073362D01*
X-3211324Y37073362D02*
X-3306562Y36978124D01*
X-3306562Y36978124D02*
X-3354181Y36882886D01*
X-3354181Y36882886D02*
X-3401800Y36692410D01*
X-3401800Y36692410D02*
X-3401800Y36549553D01*
X-3401800Y36549553D02*
X-3354181Y36359077D01*
X-3354181Y36359077D02*
X-3306562Y36263839D01*
X-3306562Y36263839D02*
X-3211324Y36168600D01*
X-3211324Y36168600D02*
X-3068467Y36120981D01*
X-3068467Y36120981D02*
X-2830372Y36120981D01*
X-4354181Y36120981D02*
X-3782753Y36120981D01*
X-4068467Y36120981D02*
X-4068467Y37120981D01*
X-4068467Y37120981D02*
X-3973229Y36978124D01*
X-3973229Y36978124D02*
X-3877991Y36882886D01*
X-3877991Y36882886D02*
X-3782753Y36835267D01*
X16710357Y24250420D02*
X16757976Y24202800D01*
X16757976Y24202800D02*
X16900833Y24155181D01*
X16900833Y24155181D02*
X16996071Y24155181D01*
X16996071Y24155181D02*
X17138928Y24202800D01*
X17138928Y24202800D02*
X17234166Y24298039D01*
X17234166Y24298039D02*
X17281785Y24393277D01*
X17281785Y24393277D02*
X17329404Y24583753D01*
X17329404Y24583753D02*
X17329404Y24726610D01*
X17329404Y24726610D02*
X17281785Y24917086D01*
X17281785Y24917086D02*
X17234166Y25012324D01*
X17234166Y25012324D02*
X17138928Y25107562D01*
X17138928Y25107562D02*
X16996071Y25155181D01*
X16996071Y25155181D02*
X16900833Y25155181D01*
X16900833Y25155181D02*
X16757976Y25107562D01*
X16757976Y25107562D02*
X16710357Y25059943D01*
X16329404Y25059943D02*
X16281785Y25107562D01*
X16281785Y25107562D02*
X16186547Y25155181D01*
X16186547Y25155181D02*
X15948452Y25155181D01*
X15948452Y25155181D02*
X15853214Y25107562D01*
X15853214Y25107562D02*
X15805595Y25059943D01*
X15805595Y25059943D02*
X15757976Y24964705D01*
X15757976Y24964705D02*
X15757976Y24869467D01*
X15757976Y24869467D02*
X15805595Y24726610D01*
X15805595Y24726610D02*
X16377023Y24155181D01*
X16377023Y24155181D02*
X15757976Y24155181D01*
X15377023Y25059943D02*
X15329404Y25107562D01*
X15329404Y25107562D02*
X15234166Y25155181D01*
X15234166Y25155181D02*
X14996071Y25155181D01*
X14996071Y25155181D02*
X14900833Y25107562D01*
X14900833Y25107562D02*
X14853214Y25059943D01*
X14853214Y25059943D02*
X14805595Y24964705D01*
X14805595Y24964705D02*
X14805595Y24869467D01*
X14805595Y24869467D02*
X14853214Y24726610D01*
X14853214Y24726610D02*
X15424642Y24155181D01*
X15424642Y24155181D02*
X14805595Y24155181D01*
X39892857Y39215181D02*
X40226190Y39691372D01*
X40464285Y39215181D02*
X40464285Y40215181D01*
X40464285Y40215181D02*
X40083333Y40215181D01*
X40083333Y40215181D02*
X39988095Y40167562D01*
X39988095Y40167562D02*
X39940476Y40119943D01*
X39940476Y40119943D02*
X39892857Y40024705D01*
X39892857Y40024705D02*
X39892857Y39881848D01*
X39892857Y39881848D02*
X39940476Y39786610D01*
X39940476Y39786610D02*
X39988095Y39738991D01*
X39988095Y39738991D02*
X40083333Y39691372D01*
X40083333Y39691372D02*
X40464285Y39691372D01*
X38940476Y39215181D02*
X39511904Y39215181D01*
X39226190Y39215181D02*
X39226190Y40215181D01*
X39226190Y40215181D02*
X39321428Y40072324D01*
X39321428Y40072324D02*
X39416666Y39977086D01*
X39416666Y39977086D02*
X39511904Y39929467D01*
X38369047Y39786610D02*
X38464285Y39834229D01*
X38464285Y39834229D02*
X38511904Y39881848D01*
X38511904Y39881848D02*
X38559523Y39977086D01*
X38559523Y39977086D02*
X38559523Y40024705D01*
X38559523Y40024705D02*
X38511904Y40119943D01*
X38511904Y40119943D02*
X38464285Y40167562D01*
X38464285Y40167562D02*
X38369047Y40215181D01*
X38369047Y40215181D02*
X38178571Y40215181D01*
X38178571Y40215181D02*
X38083333Y40167562D01*
X38083333Y40167562D02*
X38035714Y40119943D01*
X38035714Y40119943D02*
X37988095Y40024705D01*
X37988095Y40024705D02*
X37988095Y39977086D01*
X37988095Y39977086D02*
X38035714Y39881848D01*
X38035714Y39881848D02*
X38083333Y39834229D01*
X38083333Y39834229D02*
X38178571Y39786610D01*
X38178571Y39786610D02*
X38369047Y39786610D01*
X38369047Y39786610D02*
X38464285Y39738991D01*
X38464285Y39738991D02*
X38511904Y39691372D01*
X38511904Y39691372D02*
X38559523Y39596134D01*
X38559523Y39596134D02*
X38559523Y39405658D01*
X38559523Y39405658D02*
X38511904Y39310420D01*
X38511904Y39310420D02*
X38464285Y39262800D01*
X38464285Y39262800D02*
X38369047Y39215181D01*
X38369047Y39215181D02*
X38178571Y39215181D01*
X38178571Y39215181D02*
X38083333Y39262800D01*
X38083333Y39262800D02*
X38035714Y39310420D01*
X38035714Y39310420D02*
X37988095Y39405658D01*
X37988095Y39405658D02*
X37988095Y39596134D01*
X37988095Y39596134D02*
X38035714Y39691372D01*
X38035714Y39691372D02*
X38083333Y39738991D01*
X38083333Y39738991D02*
X38178571Y39786610D01*
D11*
X28110928Y38291800D02*
X28273373Y38129355D01*
X28045950Y38584201D02*
X28110928Y38291800D01*
X28110928Y38291800D02*
X27818527Y38356778D01*
X27737305Y38275556D02*
X27526127Y38064377D01*
X27526127Y38064377D02*
X27769794Y38048133D01*
X27769794Y38048133D02*
X27721061Y37999399D01*
X27721061Y37999399D02*
X27704816Y37950666D01*
X27704816Y37950666D02*
X27704816Y37918177D01*
X27704816Y37918177D02*
X27721061Y37869443D01*
X27721061Y37869443D02*
X27802283Y37788221D01*
X27802283Y37788221D02*
X27851017Y37771976D01*
X27851017Y37771976D02*
X27883506Y37771976D01*
X27883506Y37771976D02*
X27932239Y37788221D01*
X27932239Y37788221D02*
X28029706Y37885688D01*
X28029706Y37885688D02*
X28045951Y37934421D01*
X28045951Y37934421D02*
X28045951Y37966910D01*
D10*
X-1830372Y40194791D02*
X-1497039Y40194791D01*
X-1497039Y39670981D02*
X-1497039Y40670981D01*
X-1497039Y40670981D02*
X-1973229Y40670981D01*
X-2354182Y39670981D02*
X-2354182Y40670981D01*
X-2830372Y39670981D02*
X-2830372Y40670981D01*
X-2830372Y40670981D02*
X-3068467Y40670981D01*
X-3068467Y40670981D02*
X-3211324Y40623362D01*
X-3211324Y40623362D02*
X-3306562Y40528124D01*
X-3306562Y40528124D02*
X-3354181Y40432886D01*
X-3354181Y40432886D02*
X-3401800Y40242410D01*
X-3401800Y40242410D02*
X-3401800Y40099553D01*
X-3401800Y40099553D02*
X-3354181Y39909077D01*
X-3354181Y39909077D02*
X-3306562Y39813839D01*
X-3306562Y39813839D02*
X-3211324Y39718600D01*
X-3211324Y39718600D02*
X-3068467Y39670981D01*
X-3068467Y39670981D02*
X-2830372Y39670981D01*
X-3782753Y40575743D02*
X-3830372Y40623362D01*
X-3830372Y40623362D02*
X-3925610Y40670981D01*
X-3925610Y40670981D02*
X-4163705Y40670981D01*
X-4163705Y40670981D02*
X-4258943Y40623362D01*
X-4258943Y40623362D02*
X-4306562Y40575743D01*
X-4306562Y40575743D02*
X-4354181Y40480505D01*
X-4354181Y40480505D02*
X-4354181Y40385267D01*
X-4354181Y40385267D02*
X-4306562Y40242410D01*
X-4306562Y40242410D02*
X-3735134Y39670981D01*
X-3735134Y39670981D02*
X-4354181Y39670981D01*
X14142857Y13460420D02*
X14190476Y13412800D01*
X14190476Y13412800D02*
X14333333Y13365181D01*
X14333333Y13365181D02*
X14428571Y13365181D01*
X14428571Y13365181D02*
X14571428Y13412800D01*
X14571428Y13412800D02*
X14666666Y13508039D01*
X14666666Y13508039D02*
X14714285Y13603277D01*
X14714285Y13603277D02*
X14761904Y13793753D01*
X14761904Y13793753D02*
X14761904Y13936610D01*
X14761904Y13936610D02*
X14714285Y14127086D01*
X14714285Y14127086D02*
X14666666Y14222324D01*
X14666666Y14222324D02*
X14571428Y14317562D01*
X14571428Y14317562D02*
X14428571Y14365181D01*
X14428571Y14365181D02*
X14333333Y14365181D01*
X14333333Y14365181D02*
X14190476Y14317562D01*
X14190476Y14317562D02*
X14142857Y14269943D01*
X13190476Y13365181D02*
X13761904Y13365181D01*
X13476190Y13365181D02*
X13476190Y14365181D01*
X13476190Y14365181D02*
X13571428Y14222324D01*
X13571428Y14222324D02*
X13666666Y14127086D01*
X13666666Y14127086D02*
X13761904Y14079467D01*
X12333333Y14365181D02*
X12523809Y14365181D01*
X12523809Y14365181D02*
X12619047Y14317562D01*
X12619047Y14317562D02*
X12666666Y14269943D01*
X12666666Y14269943D02*
X12761904Y14127086D01*
X12761904Y14127086D02*
X12809523Y13936610D01*
X12809523Y13936610D02*
X12809523Y13555658D01*
X12809523Y13555658D02*
X12761904Y13460420D01*
X12761904Y13460420D02*
X12714285Y13412800D01*
X12714285Y13412800D02*
X12619047Y13365181D01*
X12619047Y13365181D02*
X12428571Y13365181D01*
X12428571Y13365181D02*
X12333333Y13412800D01*
X12333333Y13412800D02*
X12285714Y13460420D01*
X12285714Y13460420D02*
X12238095Y13555658D01*
X12238095Y13555658D02*
X12238095Y13793753D01*
X12238095Y13793753D02*
X12285714Y13888991D01*
X12285714Y13888991D02*
X12333333Y13936610D01*
X12333333Y13936610D02*
X12428571Y13984229D01*
X12428571Y13984229D02*
X12619047Y13984229D01*
X12619047Y13984229D02*
X12714285Y13936610D01*
X12714285Y13936610D02*
X12761904Y13888991D01*
X12761904Y13888991D02*
X12809523Y13793753D01*
X30292857Y21637170D02*
X30340476Y21589550D01*
X30340476Y21589550D02*
X30483333Y21541931D01*
X30483333Y21541931D02*
X30578571Y21541931D01*
X30578571Y21541931D02*
X30721428Y21589550D01*
X30721428Y21589550D02*
X30816666Y21684789D01*
X30816666Y21684789D02*
X30864285Y21780027D01*
X30864285Y21780027D02*
X30911904Y21970503D01*
X30911904Y21970503D02*
X30911904Y22113360D01*
X30911904Y22113360D02*
X30864285Y22303836D01*
X30864285Y22303836D02*
X30816666Y22399074D01*
X30816666Y22399074D02*
X30721428Y22494312D01*
X30721428Y22494312D02*
X30578571Y22541931D01*
X30578571Y22541931D02*
X30483333Y22541931D01*
X30483333Y22541931D02*
X30340476Y22494312D01*
X30340476Y22494312D02*
X30292857Y22446693D01*
X29911904Y22446693D02*
X29864285Y22494312D01*
X29864285Y22494312D02*
X29769047Y22541931D01*
X29769047Y22541931D02*
X29530952Y22541931D01*
X29530952Y22541931D02*
X29435714Y22494312D01*
X29435714Y22494312D02*
X29388095Y22446693D01*
X29388095Y22446693D02*
X29340476Y22351455D01*
X29340476Y22351455D02*
X29340476Y22256217D01*
X29340476Y22256217D02*
X29388095Y22113360D01*
X29388095Y22113360D02*
X29959523Y21541931D01*
X29959523Y21541931D02*
X29340476Y21541931D01*
X28721428Y22541931D02*
X28626190Y22541931D01*
X28626190Y22541931D02*
X28530952Y22494312D01*
X28530952Y22494312D02*
X28483333Y22446693D01*
X28483333Y22446693D02*
X28435714Y22351455D01*
X28435714Y22351455D02*
X28388095Y22160979D01*
X28388095Y22160979D02*
X28388095Y21922884D01*
X28388095Y21922884D02*
X28435714Y21732408D01*
X28435714Y21732408D02*
X28483333Y21637170D01*
X28483333Y21637170D02*
X28530952Y21589550D01*
X28530952Y21589550D02*
X28626190Y21541931D01*
X28626190Y21541931D02*
X28721428Y21541931D01*
X28721428Y21541931D02*
X28816666Y21589550D01*
X28816666Y21589550D02*
X28864285Y21637170D01*
X28864285Y21637170D02*
X28911904Y21732408D01*
X28911904Y21732408D02*
X28959523Y21922884D01*
X28959523Y21922884D02*
X28959523Y22160979D01*
X28959523Y22160979D02*
X28911904Y22351455D01*
X28911904Y22351455D02*
X28864285Y22446693D01*
X28864285Y22446693D02*
X28816666Y22494312D01*
X28816666Y22494312D02*
X28721428Y22541931D01*
X14354819Y11261905D02*
X15164342Y11261905D01*
X15164342Y11261905D02*
X15259580Y11214286D01*
X15259580Y11214286D02*
X15307200Y11166667D01*
X15307200Y11166667D02*
X15354819Y11071429D01*
X15354819Y11071429D02*
X15354819Y10880953D01*
X15354819Y10880953D02*
X15307200Y10785715D01*
X15307200Y10785715D02*
X15259580Y10738096D01*
X15259580Y10738096D02*
X15164342Y10690477D01*
X15164342Y10690477D02*
X14354819Y10690477D01*
X14354819Y10309524D02*
X14354819Y9690477D01*
X14354819Y9690477D02*
X14735771Y10023810D01*
X14735771Y10023810D02*
X14735771Y9880953D01*
X14735771Y9880953D02*
X14783390Y9785715D01*
X14783390Y9785715D02*
X14831009Y9738096D01*
X14831009Y9738096D02*
X14926247Y9690477D01*
X14926247Y9690477D02*
X15164342Y9690477D01*
X15164342Y9690477D02*
X15259580Y9738096D01*
X15259580Y9738096D02*
X15307200Y9785715D01*
X15307200Y9785715D02*
X15354819Y9880953D01*
X15354819Y9880953D02*
X15354819Y10166667D01*
X15354819Y10166667D02*
X15307200Y10261905D01*
X15307200Y10261905D02*
X15259580Y10309524D01*
X35794166Y19225181D02*
X36270356Y19225181D01*
X36270356Y19225181D02*
X36270356Y20225181D01*
X35508451Y20129943D02*
X35460832Y20177562D01*
X35460832Y20177562D02*
X35365594Y20225181D01*
X35365594Y20225181D02*
X35127499Y20225181D01*
X35127499Y20225181D02*
X35032261Y20177562D01*
X35032261Y20177562D02*
X34984642Y20129943D01*
X34984642Y20129943D02*
X34937023Y20034705D01*
X34937023Y20034705D02*
X34937023Y19939467D01*
X34937023Y19939467D02*
X34984642Y19796610D01*
X34984642Y19796610D02*
X35556070Y19225181D01*
X35556070Y19225181D02*
X34937023Y19225181D01*
X11675357Y40280420D02*
X11722976Y40232800D01*
X11722976Y40232800D02*
X11865833Y40185181D01*
X11865833Y40185181D02*
X11961071Y40185181D01*
X11961071Y40185181D02*
X12103928Y40232800D01*
X12103928Y40232800D02*
X12199166Y40328039D01*
X12199166Y40328039D02*
X12246785Y40423277D01*
X12246785Y40423277D02*
X12294404Y40613753D01*
X12294404Y40613753D02*
X12294404Y40756610D01*
X12294404Y40756610D02*
X12246785Y40947086D01*
X12246785Y40947086D02*
X12199166Y41042324D01*
X12199166Y41042324D02*
X12103928Y41137562D01*
X12103928Y41137562D02*
X11961071Y41185181D01*
X11961071Y41185181D02*
X11865833Y41185181D01*
X11865833Y41185181D02*
X11722976Y41137562D01*
X11722976Y41137562D02*
X11675357Y41089943D01*
X11294404Y41089943D02*
X11246785Y41137562D01*
X11246785Y41137562D02*
X11151547Y41185181D01*
X11151547Y41185181D02*
X10913452Y41185181D01*
X10913452Y41185181D02*
X10818214Y41137562D01*
X10818214Y41137562D02*
X10770595Y41089943D01*
X10770595Y41089943D02*
X10722976Y40994705D01*
X10722976Y40994705D02*
X10722976Y40899467D01*
X10722976Y40899467D02*
X10770595Y40756610D01*
X10770595Y40756610D02*
X11342023Y40185181D01*
X11342023Y40185181D02*
X10722976Y40185181D01*
X10389642Y41185181D02*
X9770595Y41185181D01*
X9770595Y41185181D02*
X10103928Y40804229D01*
X10103928Y40804229D02*
X9961071Y40804229D01*
X9961071Y40804229D02*
X9865833Y40756610D01*
X9865833Y40756610D02*
X9818214Y40708991D01*
X9818214Y40708991D02*
X9770595Y40613753D01*
X9770595Y40613753D02*
X9770595Y40375658D01*
X9770595Y40375658D02*
X9818214Y40280420D01*
X9818214Y40280420D02*
X9865833Y40232800D01*
X9865833Y40232800D02*
X9961071Y40185181D01*
X9961071Y40185181D02*
X10246785Y40185181D01*
X10246785Y40185181D02*
X10342023Y40232800D01*
X10342023Y40232800D02*
X10389642Y40280420D01*
X9738094Y17045181D02*
X9738094Y18045181D01*
X9738094Y18045181D02*
X9499999Y18045181D01*
X9499999Y18045181D02*
X9357142Y17997562D01*
X9357142Y17997562D02*
X9261904Y17902324D01*
X9261904Y17902324D02*
X9214285Y17807086D01*
X9214285Y17807086D02*
X9166666Y17616610D01*
X9166666Y17616610D02*
X9166666Y17473753D01*
X9166666Y17473753D02*
X9214285Y17283277D01*
X9214285Y17283277D02*
X9261904Y17188039D01*
X9261904Y17188039D02*
X9357142Y17092800D01*
X9357142Y17092800D02*
X9499999Y17045181D01*
X9499999Y17045181D02*
X9738094Y17045181D01*
X8833332Y18045181D02*
X8214285Y18045181D01*
X8214285Y18045181D02*
X8547618Y17664229D01*
X8547618Y17664229D02*
X8404761Y17664229D01*
X8404761Y17664229D02*
X8309523Y17616610D01*
X8309523Y17616610D02*
X8261904Y17568991D01*
X8261904Y17568991D02*
X8214285Y17473753D01*
X8214285Y17473753D02*
X8214285Y17235658D01*
X8214285Y17235658D02*
X8261904Y17140420D01*
X8261904Y17140420D02*
X8309523Y17092800D01*
X8309523Y17092800D02*
X8404761Y17045181D01*
X8404761Y17045181D02*
X8690475Y17045181D01*
X8690475Y17045181D02*
X8785713Y17092800D01*
X8785713Y17092800D02*
X8833332Y17140420D01*
X22992857Y14500420D02*
X23040476Y14452800D01*
X23040476Y14452800D02*
X23183333Y14405181D01*
X23183333Y14405181D02*
X23278571Y14405181D01*
X23278571Y14405181D02*
X23421428Y14452800D01*
X23421428Y14452800D02*
X23516666Y14548039D01*
X23516666Y14548039D02*
X23564285Y14643277D01*
X23564285Y14643277D02*
X23611904Y14833753D01*
X23611904Y14833753D02*
X23611904Y14976610D01*
X23611904Y14976610D02*
X23564285Y15167086D01*
X23564285Y15167086D02*
X23516666Y15262324D01*
X23516666Y15262324D02*
X23421428Y15357562D01*
X23421428Y15357562D02*
X23278571Y15405181D01*
X23278571Y15405181D02*
X23183333Y15405181D01*
X23183333Y15405181D02*
X23040476Y15357562D01*
X23040476Y15357562D02*
X22992857Y15309943D01*
X22611904Y15309943D02*
X22564285Y15357562D01*
X22564285Y15357562D02*
X22469047Y15405181D01*
X22469047Y15405181D02*
X22230952Y15405181D01*
X22230952Y15405181D02*
X22135714Y15357562D01*
X22135714Y15357562D02*
X22088095Y15309943D01*
X22088095Y15309943D02*
X22040476Y15214705D01*
X22040476Y15214705D02*
X22040476Y15119467D01*
X22040476Y15119467D02*
X22088095Y14976610D01*
X22088095Y14976610D02*
X22659523Y14405181D01*
X22659523Y14405181D02*
X22040476Y14405181D01*
X21088095Y14405181D02*
X21659523Y14405181D01*
X21373809Y14405181D02*
X21373809Y15405181D01*
X21373809Y15405181D02*
X21469047Y15262324D01*
X21469047Y15262324D02*
X21564285Y15167086D01*
X21564285Y15167086D02*
X21659523Y15119467D01*
X33288095Y20918991D02*
X33621428Y20918991D01*
X33621428Y20395181D02*
X33621428Y21395181D01*
X33621428Y21395181D02*
X33145238Y21395181D01*
X32288095Y20395181D02*
X32764285Y20395181D01*
X32764285Y20395181D02*
X32764285Y21395181D01*
X31430952Y20395181D02*
X32002380Y20395181D01*
X31716666Y20395181D02*
X31716666Y21395181D01*
X31716666Y21395181D02*
X31811904Y21252324D01*
X31811904Y21252324D02*
X31907142Y21157086D01*
X31907142Y21157086D02*
X32002380Y21109467D01*
X32549999Y21395181D02*
X32549999Y21157086D01*
X32788094Y21252324D02*
X32549999Y21157086D01*
X32549999Y21157086D02*
X32311904Y21252324D01*
X32692856Y20966610D02*
X32549999Y21157086D01*
X32549999Y21157086D02*
X32407142Y20966610D01*
X27679074Y15830063D02*
X27746418Y15830063D01*
X27746418Y15830063D02*
X27881105Y15897407D01*
X27881105Y15897407D02*
X27948448Y15964750D01*
X27948448Y15964750D02*
X28015792Y16099437D01*
X28015792Y16099437D02*
X28015792Y16234124D01*
X28015792Y16234124D02*
X27982120Y16335139D01*
X27982120Y16335139D02*
X27881105Y16503498D01*
X27881105Y16503498D02*
X27780090Y16604513D01*
X27780090Y16604513D02*
X27611731Y16705529D01*
X27611731Y16705529D02*
X27510716Y16739200D01*
X27510716Y16739200D02*
X27376029Y16739200D01*
X27376029Y16739200D02*
X27241342Y16671857D01*
X27241342Y16671857D02*
X27173998Y16604513D01*
X27173998Y16604513D02*
X27106655Y16469826D01*
X27106655Y16469826D02*
X27106655Y16402483D01*
X26837281Y16133109D02*
X26769937Y16133109D01*
X26769937Y16133109D02*
X26668922Y16099437D01*
X26668922Y16099437D02*
X26500563Y15931078D01*
X26500563Y15931078D02*
X26466891Y15830063D01*
X26466891Y15830063D02*
X26466891Y15762720D01*
X26466891Y15762720D02*
X26500563Y15661704D01*
X26500563Y15661704D02*
X26567907Y15594361D01*
X26567907Y15594361D02*
X26702594Y15527017D01*
X26702594Y15527017D02*
X27510716Y15527017D01*
X27510716Y15527017D02*
X27072983Y15089285D01*
X25995487Y14954597D02*
X26466891Y14483193D01*
X25894471Y15392330D02*
X26567906Y15055613D01*
X26567906Y15055613D02*
X26130174Y14617880D01*
X37782080Y23042258D02*
X37829700Y23089877D01*
X37829700Y23089877D02*
X37877319Y23232734D01*
X37877319Y23232734D02*
X37877319Y23327972D01*
X37877319Y23327972D02*
X37829700Y23470829D01*
X37829700Y23470829D02*
X37734461Y23566067D01*
X37734461Y23566067D02*
X37639223Y23613686D01*
X37639223Y23613686D02*
X37448747Y23661305D01*
X37448747Y23661305D02*
X37305890Y23661305D01*
X37305890Y23661305D02*
X37115414Y23613686D01*
X37115414Y23613686D02*
X37020176Y23566067D01*
X37020176Y23566067D02*
X36924938Y23470829D01*
X36924938Y23470829D02*
X36877319Y23327972D01*
X36877319Y23327972D02*
X36877319Y23232734D01*
X36877319Y23232734D02*
X36924938Y23089877D01*
X36924938Y23089877D02*
X36972557Y23042258D01*
X37877319Y22089877D02*
X37877319Y22661305D01*
X37877319Y22375591D02*
X36877319Y22375591D01*
X36877319Y22375591D02*
X37020176Y22470829D01*
X37020176Y22470829D02*
X37115414Y22566067D01*
X37115414Y22566067D02*
X37163033Y22661305D01*
X37877319Y21613686D02*
X37877319Y21423210D01*
X37877319Y21423210D02*
X37829700Y21327972D01*
X37829700Y21327972D02*
X37782080Y21280353D01*
X37782080Y21280353D02*
X37639223Y21185115D01*
X37639223Y21185115D02*
X37448747Y21137496D01*
X37448747Y21137496D02*
X37067795Y21137496D01*
X37067795Y21137496D02*
X36972557Y21185115D01*
X36972557Y21185115D02*
X36924938Y21232734D01*
X36924938Y21232734D02*
X36877319Y21327972D01*
X36877319Y21327972D02*
X36877319Y21518448D01*
X36877319Y21518448D02*
X36924938Y21613686D01*
X36924938Y21613686D02*
X36972557Y21661305D01*
X36972557Y21661305D02*
X37067795Y21708924D01*
X37067795Y21708924D02*
X37305890Y21708924D01*
X37305890Y21708924D02*
X37401128Y21661305D01*
X37401128Y21661305D02*
X37448747Y21613686D01*
X37448747Y21613686D02*
X37496366Y21518448D01*
X37496366Y21518448D02*
X37496366Y21327972D01*
X37496366Y21327972D02*
X37448747Y21232734D01*
X37448747Y21232734D02*
X37401128Y21185115D01*
X37401128Y21185115D02*
X37305890Y21137496D01*
X28024719Y38833972D02*
X28092063Y38833972D01*
X28092063Y38833972D02*
X28226750Y38901316D01*
X28226750Y38901316D02*
X28294093Y38968659D01*
X28294093Y38968659D02*
X28361437Y39103346D01*
X28361437Y39103346D02*
X28361437Y39238033D01*
X28361437Y39238033D02*
X28327765Y39339048D01*
X28327765Y39339048D02*
X28226750Y39507407D01*
X28226750Y39507407D02*
X28125735Y39608422D01*
X28125735Y39608422D02*
X27957376Y39709438D01*
X27957376Y39709438D02*
X27856361Y39743109D01*
X27856361Y39743109D02*
X27721674Y39743109D01*
X27721674Y39743109D02*
X27586987Y39675766D01*
X27586987Y39675766D02*
X27519643Y39608422D01*
X27519643Y39608422D02*
X27452300Y39473735D01*
X27452300Y39473735D02*
X27452300Y39406392D01*
X27182926Y39137018D02*
X27115582Y39137018D01*
X27115582Y39137018D02*
X27014567Y39103346D01*
X27014567Y39103346D02*
X26846208Y38934987D01*
X26846208Y38934987D02*
X26812536Y38833972D01*
X26812536Y38833972D02*
X26812536Y38766629D01*
X26812536Y38766629D02*
X26846208Y38665613D01*
X26846208Y38665613D02*
X26913552Y38598270D01*
X26913552Y38598270D02*
X27048239Y38530926D01*
X27048239Y38530926D02*
X27856361Y38530926D01*
X27856361Y38530926D02*
X27418628Y38093194D01*
X26071758Y38160537D02*
X26408475Y38497255D01*
X26408475Y38497255D02*
X26778864Y38194209D01*
X26778864Y38194209D02*
X26711521Y38194209D01*
X26711521Y38194209D02*
X26610506Y38160537D01*
X26610506Y38160537D02*
X26442147Y37992178D01*
X26442147Y37992178D02*
X26408475Y37891163D01*
X26408475Y37891163D02*
X26408475Y37823819D01*
X26408475Y37823819D02*
X26442147Y37722804D01*
X26442147Y37722804D02*
X26610506Y37554445D01*
X26610506Y37554445D02*
X26711521Y37520774D01*
X26711521Y37520774D02*
X26778864Y37520774D01*
X26778864Y37520774D02*
X26879880Y37554445D01*
X26879880Y37554445D02*
X27048238Y37722804D01*
X27048238Y37722804D02*
X27081910Y37823819D01*
X27081910Y37823819D02*
X27081910Y37891163D01*
X14539580Y25642858D02*
X14587200Y25690477D01*
X14587200Y25690477D02*
X14634819Y25833334D01*
X14634819Y25833334D02*
X14634819Y25928572D01*
X14634819Y25928572D02*
X14587200Y26071429D01*
X14587200Y26071429D02*
X14491961Y26166667D01*
X14491961Y26166667D02*
X14396723Y26214286D01*
X14396723Y26214286D02*
X14206247Y26261905D01*
X14206247Y26261905D02*
X14063390Y26261905D01*
X14063390Y26261905D02*
X13872914Y26214286D01*
X13872914Y26214286D02*
X13777676Y26166667D01*
X13777676Y26166667D02*
X13682438Y26071429D01*
X13682438Y26071429D02*
X13634819Y25928572D01*
X13634819Y25928572D02*
X13634819Y25833334D01*
X13634819Y25833334D02*
X13682438Y25690477D01*
X13682438Y25690477D02*
X13730057Y25642858D01*
X14634819Y24690477D02*
X14634819Y25261905D01*
X14634819Y24976191D02*
X13634819Y24976191D01*
X13634819Y24976191D02*
X13777676Y25071429D01*
X13777676Y25071429D02*
X13872914Y25166667D01*
X13872914Y25166667D02*
X13920533Y25261905D01*
X13634819Y24357143D02*
X13634819Y23690477D01*
X13634819Y23690477D02*
X14634819Y24119048D01*
X22439571Y21630748D02*
X23011991Y21058328D01*
X23011991Y21058328D02*
X23045663Y20957313D01*
X23045663Y20957313D02*
X23045663Y20889969D01*
X23045663Y20889969D02*
X23011991Y20788954D01*
X23011991Y20788954D02*
X22877304Y20654267D01*
X22877304Y20654267D02*
X22776289Y20620595D01*
X22776289Y20620595D02*
X22708945Y20620595D01*
X22708945Y20620595D02*
X22607930Y20654267D01*
X22607930Y20654267D02*
X22035510Y21226687D01*
X21799808Y20856297D02*
X21732465Y20856297D01*
X21732465Y20856297D02*
X21631449Y20822626D01*
X21631449Y20822626D02*
X21463091Y20654267D01*
X21463091Y20654267D02*
X21429419Y20553252D01*
X21429419Y20553252D02*
X21429419Y20485908D01*
X21429419Y20485908D02*
X21463091Y20384893D01*
X21463091Y20384893D02*
X21530434Y20317549D01*
X21530434Y20317549D02*
X21665121Y20250206D01*
X21665121Y20250206D02*
X22473243Y20250206D01*
X22473243Y20250206D02*
X22035510Y19812473D01*
X36512080Y23042258D02*
X36559700Y23089877D01*
X36559700Y23089877D02*
X36607319Y23232734D01*
X36607319Y23232734D02*
X36607319Y23327972D01*
X36607319Y23327972D02*
X36559700Y23470829D01*
X36559700Y23470829D02*
X36464461Y23566067D01*
X36464461Y23566067D02*
X36369223Y23613686D01*
X36369223Y23613686D02*
X36178747Y23661305D01*
X36178747Y23661305D02*
X36035890Y23661305D01*
X36035890Y23661305D02*
X35845414Y23613686D01*
X35845414Y23613686D02*
X35750176Y23566067D01*
X35750176Y23566067D02*
X35654938Y23470829D01*
X35654938Y23470829D02*
X35607319Y23327972D01*
X35607319Y23327972D02*
X35607319Y23232734D01*
X35607319Y23232734D02*
X35654938Y23089877D01*
X35654938Y23089877D02*
X35702557Y23042258D01*
X36607319Y22089877D02*
X36607319Y22661305D01*
X36607319Y22375591D02*
X35607319Y22375591D01*
X35607319Y22375591D02*
X35750176Y22470829D01*
X35750176Y22470829D02*
X35845414Y22566067D01*
X35845414Y22566067D02*
X35893033Y22661305D01*
X36035890Y21518448D02*
X35988271Y21613686D01*
X35988271Y21613686D02*
X35940652Y21661305D01*
X35940652Y21661305D02*
X35845414Y21708924D01*
X35845414Y21708924D02*
X35797795Y21708924D01*
X35797795Y21708924D02*
X35702557Y21661305D01*
X35702557Y21661305D02*
X35654938Y21613686D01*
X35654938Y21613686D02*
X35607319Y21518448D01*
X35607319Y21518448D02*
X35607319Y21327972D01*
X35607319Y21327972D02*
X35654938Y21232734D01*
X35654938Y21232734D02*
X35702557Y21185115D01*
X35702557Y21185115D02*
X35797795Y21137496D01*
X35797795Y21137496D02*
X35845414Y21137496D01*
X35845414Y21137496D02*
X35940652Y21185115D01*
X35940652Y21185115D02*
X35988271Y21232734D01*
X35988271Y21232734D02*
X36035890Y21327972D01*
X36035890Y21327972D02*
X36035890Y21518448D01*
X36035890Y21518448D02*
X36083509Y21613686D01*
X36083509Y21613686D02*
X36131128Y21661305D01*
X36131128Y21661305D02*
X36226366Y21708924D01*
X36226366Y21708924D02*
X36416842Y21708924D01*
X36416842Y21708924D02*
X36512080Y21661305D01*
X36512080Y21661305D02*
X36559700Y21613686D01*
X36559700Y21613686D02*
X36607319Y21518448D01*
X36607319Y21518448D02*
X36607319Y21327972D01*
X36607319Y21327972D02*
X36559700Y21232734D01*
X36559700Y21232734D02*
X36512080Y21185115D01*
X36512080Y21185115D02*
X36416842Y21137496D01*
X36416842Y21137496D02*
X36226366Y21137496D01*
X36226366Y21137496D02*
X36131128Y21185115D01*
X36131128Y21185115D02*
X36083509Y21232734D01*
X36083509Y21232734D02*
X36035890Y21327972D01*
X21154819Y31681905D02*
X21964342Y31681905D01*
X21964342Y31681905D02*
X22059580Y31634286D01*
X22059580Y31634286D02*
X22107200Y31586667D01*
X22107200Y31586667D02*
X22154819Y31491429D01*
X22154819Y31491429D02*
X22154819Y31300953D01*
X22154819Y31300953D02*
X22107200Y31205715D01*
X22107200Y31205715D02*
X22059580Y31158096D01*
X22059580Y31158096D02*
X21964342Y31110477D01*
X21964342Y31110477D02*
X21154819Y31110477D01*
X22154819Y30110477D02*
X22154819Y30681905D01*
X22154819Y30396191D02*
X21154819Y30396191D01*
X21154819Y30396191D02*
X21297676Y30491429D01*
X21297676Y30491429D02*
X21392914Y30586667D01*
X21392914Y30586667D02*
X21440533Y30681905D01*
D12*
%TO.C,C26*%
X27729765Y40778955D02*
X27565950Y40942770D01*
X28238882Y41288072D02*
X28075067Y41451887D01*
%TO.C,C22*%
X16183335Y23810000D02*
X15951665Y23810000D01*
X16183335Y23090000D02*
X15951665Y23090000D01*
%TO.C,R18*%
X39417621Y38880000D02*
X39082379Y38880000D01*
X39417621Y38120000D02*
X39082379Y38120000D01*
D13*
%TO.C,Y3*%
X24500862Y39520710D02*
X26268629Y37752943D01*
X26410051Y41429899D02*
X28177818Y39662132D01*
D14*
X27323223Y37717588D02*
G75*
G02*
X27123223Y37717588I-100000J0D01*
G01*
X27123223Y37717588D02*
G75*
G02*
X27323223Y37717588I100000J0D01*
G01*
D12*
%TO.C,C16*%
X13238748Y16235000D02*
X13761252Y16235000D01*
X13238748Y14765000D02*
X13761252Y14765000D01*
%TO.C,C20*%
X29765835Y21196750D02*
X29534165Y21196750D01*
X29765835Y20476750D02*
X29534165Y20476750D01*
%TO.C,U3*%
X15740000Y12810000D02*
X15740000Y8190000D01*
X15740000Y8190000D02*
X15940000Y8190000D01*
X15940000Y12810000D02*
X15740000Y12810000D01*
X20760000Y8190000D02*
X20960000Y8190000D01*
X20960000Y12810000D02*
X20760000Y12810000D01*
X20960000Y8190000D02*
X20960000Y12810000D01*
X15940000Y13450000D02*
X15470000Y13110000D01*
X15470000Y13790000D01*
X15940000Y13450000D01*
G36*
X15940000Y13450000D02*
G01*
X15470000Y13110000D01*
X15470000Y13790000D01*
X15940000Y13450000D01*
G37*
%TO.C,L2*%
X35527300Y21210000D02*
X35727700Y21210000D01*
X35527300Y20490000D02*
X35727700Y20490000D01*
%TO.C,C23*%
X10916665Y42160000D02*
X11148335Y42160000D01*
X10916665Y41440000D02*
X11148335Y41440000D01*
%TO.C,D3*%
X7250000Y16610000D02*
X11660000Y16610000D01*
X11660000Y16610000D02*
X11660000Y14390000D01*
X11660000Y14390000D02*
X7250000Y14390000D01*
%TO.C,C21*%
X22465835Y14060000D02*
X22234165Y14060000D01*
X22465835Y13340000D02*
X22234165Y13340000D01*
D15*
%TO.C,FL1*%
X31343500Y21360540D02*
X31343500Y21675500D01*
X31343500Y20024500D02*
X31343500Y20339460D01*
X33756500Y21675500D02*
X33756500Y21360540D01*
X33756500Y20339460D02*
X33756500Y20024500D01*
D12*
%TO.C,C24*%
X25813534Y16622651D02*
X25977349Y16786466D01*
X26322651Y16113534D02*
X26486466Y16277349D01*
%TO.C,C19*%
X35902500Y22283565D02*
X35902500Y22515235D01*
X36622500Y22283565D02*
X36622500Y22515235D01*
%TO.C,C25*%
X27963482Y38149887D02*
X27799667Y37986072D01*
X28472599Y37640770D02*
X28308784Y37476955D01*
%TO.C,C17*%
X11765000Y24738748D02*
X11765000Y25261252D01*
X13235000Y24738748D02*
X13235000Y25261252D01*
D14*
%TO.C,U2*%
X16594125Y20918641D02*
X16594103Y20494377D01*
X16753214Y21077730D02*
X16594125Y20918641D01*
X16753214Y20335266D02*
X16594103Y20494377D01*
X22074182Y26398698D02*
X21490828Y25815344D01*
X22074204Y15014276D02*
X21915093Y15173387D01*
X22498446Y26398720D02*
X22074182Y26398698D01*
X22498468Y15014298D02*
X22074204Y15014276D01*
X22657557Y15173387D02*
X22498468Y15014298D01*
X23064143Y25833023D02*
X22498446Y26398720D01*
X27978525Y20494355D02*
X27819436Y20335266D01*
X27978547Y20918619D02*
X27819436Y21077730D01*
X27978547Y20918619D02*
X27978525Y20494355D01*
D12*
%TO.C,C18*%
X34632500Y22283565D02*
X34632500Y22515235D01*
X35352500Y22283565D02*
X35352500Y22515235D01*
%TO.C,U1*%
X15640000Y33230000D02*
X15640000Y28610000D01*
X15640000Y28610000D02*
X15840000Y28610000D01*
X15840000Y33230000D02*
X15640000Y33230000D01*
X20660000Y28610000D02*
X20860000Y28610000D01*
X20860000Y33230000D02*
X20660000Y33230000D01*
X20860000Y28610000D02*
X20860000Y33230000D01*
X21130000Y27630000D02*
X20660000Y27970000D01*
X21130000Y28310000D01*
X21130000Y27630000D01*
G36*
X21130000Y27630000D02*
G01*
X20660000Y27970000D01*
X21130000Y28310000D01*
X21130000Y27630000D01*
G37*
%TD*%
M02*
