%TF.GenerationSoftware,KiCad,Pcbnew,9.0.6+1*%
%TF.CreationDate,2026-02-08T19:46:15+00:00*%
%TF.ProjectId,BLE02,424c4530-322e-46b6-9963-61645f706362,rev?*%
%TF.SameCoordinates,Original*%
%TF.FileFunction,Copper,L1,Top*%
%TF.FilePolarity,Positive*%
%FSLAX46Y46*%
G04 Gerber Fmt 4.6, Leading zero omitted, Abs format (unit mm)*
G04 Created by KiCad (PCBNEW 9.0.6+1) date 2026-02-08 19:46:15*
%MOMM*%
%LPD*%
G01*
G04 APERTURE LIST*
%TA.AperFunction,ComponentPad*%
%ADD10R,1.524000X1.524000*%
%TD*%
%TA.AperFunction,ComponentPad*%
%ADD11C,2.500000*%
%TD*%
%TA.AperFunction,ComponentPad*%
%ADD12C,2.700000*%
%TD*%
%TA.AperFunction,ComponentPad*%
%ADD13C,6.000000*%
%TD*%
%TA.AperFunction,ViaPad*%
%ADD14C,0.460000*%
%TD*%
%TA.AperFunction,Conductor*%
%ADD15C,0.254000*%
%TD*%
%TA.AperFunction,Conductor*%
%ADD16C,0.200000*%
%TD*%
%TA.AperFunction,Conductor*%
%ADD17C,0.127000*%
%TD*%
G04 APERTURE END LIST*
D10*
%TO.P,J4,1*%
%TO.N,Net-(U1-B4)*%
X23190000Y30310000D03*
%TO.P,J4,2*%
X23190000Y32850000D03*
%TO.P,J4,3*%
%TO.N,Net-(U1-B3)*%
X25730000Y30310000D03*
%TO.P,J4,4*%
X25730000Y32850000D03*
%TO.P,J4,5*%
%TO.N,Net-(U1-B2)*%
X28270000Y30310000D03*
%TO.P,J4,6*%
X28270000Y32850000D03*
%TO.P,J4,7*%
%TO.N,Net-(U1-B1)*%
X30810000Y30310000D03*
%TO.P,J4,8*%
X30810000Y32850000D03*
%TD*%
D11*
%TO.P,J1,1,In*%
%TO.N,Net-(FL1-OUT)*%
X40720000Y20830000D03*
D12*
%TO.P,J1,2,Ext*%
%TO.N,GND*%
X43260000Y23370000D03*
X38180000Y23370000D03*
X43260000Y18290000D03*
X38180000Y18290000D03*
%TD*%
D13*
%TO.P,M3,1*%
%TO.N,GND*%
X10160000Y10160000D03*
%TD*%
%TO.P,M2,1*%
%TO.N,GND*%
X40640000Y30480000D03*
%TD*%
%TO.P,M4,1*%
%TO.N,GND*%
X40640000Y10160000D03*
%TD*%
%TO.P,M1,1*%
%TO.N,GND*%
X10160000Y30480000D03*
%TD*%
D10*
%TO.P,J2,1*%
%TO.N,GND*%
X7730000Y23040000D03*
%TO.P,J2,2*%
X10270000Y23040000D03*
%TO.P,J2,3*%
%TO.N,VCC*%
X7730000Y20500000D03*
%TO.P,J2,4*%
X10270000Y20500000D03*
%TO.P,J2,5*%
%TO.N,GND*%
X7730000Y17960000D03*
%TO.P,J2,6*%
X10270000Y17960000D03*
%TD*%
%TO.P,J3,1*%
%TO.N,Net-(U3-B4)*%
X23190000Y7592500D03*
%TO.P,J3,2*%
X23190000Y10132500D03*
%TO.P,J3,3*%
%TO.N,Net-(U3-B3)*%
X25730000Y7592500D03*
%TO.P,J3,4*%
X25730000Y10132500D03*
%TO.P,J3,5*%
%TO.N,Net-(U3-B2)*%
X28270000Y7592500D03*
%TO.P,J3,6*%
X28270000Y10132500D03*
%TO.P,J3,7*%
%TO.N,Net-(U3-B1)*%
X30810000Y7592500D03*
%TO.P,J3,8*%
X30810000Y10132500D03*
%TD*%
D14*
%TO.N,GND*%
X19350000Y10300000D03*
X36030000Y18270000D03*
X40900000Y16200000D03*
X16400000Y25350000D03*
X36000000Y25790000D03*
X11310000Y24570000D03*
X15300000Y14300000D03*
X26010000Y18700000D03*
X26536574Y12609722D03*
X36070000Y16200000D03*
X16600000Y19750000D03*
X36050000Y23950000D03*
X19550000Y24100000D03*
X19550000Y25050000D03*
X25050000Y19850000D03*
X43550000Y25840000D03*
X38450000Y16200000D03*
X23150000Y12100000D03*
X24826852Y21323148D03*
X24000000Y14000000D03*
X34300000Y18250000D03*
X28200000Y18740000D03*
X34450000Y23950000D03*
X25050000Y17600000D03*
X12030000Y24230000D03*
X27150000Y19850000D03*
X21100000Y28650000D03*
X31900000Y23900000D03*
X30840000Y5890000D03*
X28500000Y20750000D03*
X26900000Y27100000D03*
X38450000Y25840000D03*
X20100000Y29100000D03*
X22357000Y24700000D03*
X21550000Y13350000D03*
X16600000Y31300000D03*
X17450000Y10200000D03*
X43500000Y16200000D03*
X17200000Y16800000D03*
X27150000Y17600000D03*
X30150000Y11990000D03*
X40950000Y25790000D03*
X29650000Y22450000D03*
X13980000Y24860000D03*
X16650000Y29100000D03*
%TO.N,VDD_1V8*%
X29050000Y23401000D03*
X20177146Y20663721D03*
X22150000Y23800000D03*
X21200000Y17900000D03*
X25900000Y23350000D03*
X27200000Y21400000D03*
X23550000Y17900000D03*
%TO.N,VCC*%
X23571097Y20593000D03*
X13740000Y21050000D03*
X21100000Y32800000D03*
X21100000Y30350000D03*
%TO.N,AUD_OUT*%
X20635146Y19600000D03*
X23570022Y19176274D03*
%TO.N,AUD_IN*%
X23549845Y19842748D03*
X21174006Y20174006D03*
%TO.N,AUD_CLK*%
X21000000Y19000000D03*
X23550000Y18550000D03*
%TO.N,Net-(C1-Pad1)*%
X24262826Y21160529D03*
X21350000Y22500000D03*
X23550000Y16350000D03*
X24250000Y23343000D03*
X32600000Y17100000D03*
X28350000Y17100000D03*
%TO.N,Net-(U2A-DCO_LDO_OUT)*%
X30750000Y22400000D03*
X30550000Y21000000D03*
%TO.N,Net-(U2A-CL1.5_LDO_OUT)*%
X28490004Y25484870D03*
X22400000Y25550000D03*
%TO.N,Net-(U2A-SRAM_LDO_OUT)*%
X23057000Y21984999D03*
X16893000Y22700000D03*
%TO.N,Net-(U2A-SHUTD_N)*%
X27149533Y23807000D03*
X30220225Y23873929D03*
%TO.N,Net-(U3-OE)*%
X21387500Y7637500D03*
X21387500Y9737500D03*
%TO.N,Net-(D1-A)*%
X13450000Y20150000D03*
X13660000Y22130000D03*
%TO.N,Net-(U2A-TX_DBG)*%
X23800000Y12940000D03*
X24970000Y14010000D03*
%TD*%
D15*
%TO.N,GND*%
X37649800Y24201701D02*
X37667000Y24218901D01*
D16*
%TO.N,VDD_1V8*%
X23550000Y17900000D02*
X21200000Y17900000D01*
X27200000Y23350000D02*
X27200000Y21400000D01*
X25450000Y23800000D02*
X25900000Y23350000D01*
X20177146Y18322854D02*
X20600000Y17900000D01*
X25900000Y23350000D02*
X27750000Y23350000D01*
X20177146Y20663721D02*
X20177146Y18322854D01*
X22150000Y23800000D02*
X25450000Y23800000D01*
X28999000Y23350000D02*
X27200000Y23350000D01*
X29050000Y23401000D02*
X28999000Y23350000D01*
X20600000Y17900000D02*
X21200000Y17900000D01*
%TO.N,VCC*%
X20010290Y21208000D02*
X22956097Y21208000D01*
X13740000Y21050000D02*
X19852290Y21050000D01*
X21100000Y32800000D02*
X21100000Y30350000D01*
X22956097Y21208000D02*
X23571097Y20593000D01*
X7730000Y20500000D02*
X10270000Y20500000D01*
X19852290Y21050000D02*
X20010290Y21208000D01*
%TO.N,AUD_OUT*%
X23146296Y19600000D02*
X20635146Y19600000D01*
X23570022Y19176274D02*
X23146296Y19600000D01*
%TO.N,AUD_IN*%
X23500000Y19892593D02*
X23549845Y19842748D01*
X23218587Y20174006D02*
X23549845Y19842748D01*
X21174006Y20174006D02*
X23218587Y20174006D01*
%TO.N,AUD_CLK*%
X21000000Y19000000D02*
X23100000Y19000000D01*
X23100000Y19000000D02*
X23550000Y18550000D01*
%TO.N,Net-(U3-B2)*%
X28270000Y10132500D02*
X28270000Y7592500D01*
%TO.N,Net-(U3-B1)*%
X30810000Y10132500D02*
X30810000Y7592500D01*
%TO.N,Net-(U3-B3)*%
X25730000Y10132500D02*
X25730000Y7592500D01*
%TO.N,Net-(U3-B4)*%
X23190000Y10132500D02*
X23190000Y7592500D01*
%TO.N,Net-(U1-B3)*%
X25730000Y30310000D02*
X25730000Y32850000D01*
%TO.N,Net-(U1-B4)*%
X23190000Y30310000D02*
X23190000Y32850000D01*
%TO.N,Net-(U1-B1)*%
X30810000Y30310000D02*
X30810000Y32850000D01*
%TO.N,Net-(U1-B2)*%
X28270000Y30310000D02*
X28270000Y32850000D01*
%TO.N,Net-(C1-Pad1)*%
X32600000Y17100000D02*
X28350000Y17100000D01*
X28350000Y17100000D02*
X27640000Y16390000D01*
X24250000Y21173355D02*
X24262826Y21160529D01*
X24262826Y21160529D02*
X24050000Y20947703D01*
X24050000Y20947703D02*
X24050000Y16390000D01*
X24200000Y22500000D02*
X24250000Y22450000D01*
X24250000Y23343000D02*
X24250000Y22550000D01*
X24250000Y22450000D02*
X24250000Y21173355D01*
X23590000Y16390000D02*
X23550000Y16350000D01*
X24250000Y22550000D02*
X24200000Y22500000D01*
X24050000Y16390000D02*
X23590000Y16390000D01*
X27640000Y16390000D02*
X24150000Y16390000D01*
X21350000Y22500000D02*
X24200000Y22500000D01*
%TO.N,Net-(U2A-DCO_LDO_OUT)*%
X30550000Y22200000D02*
X30550000Y21000000D01*
X30750000Y22400000D02*
X30550000Y22200000D01*
%TO.N,Net-(U2A-CL1.5_LDO_OUT)*%
X22550000Y25400000D02*
X22400000Y25550000D01*
X28490004Y25484870D02*
X28405134Y25400000D01*
X28405134Y25400000D02*
X22550000Y25400000D01*
%TO.N,Net-(U2A-SRAM_LDO_OUT)*%
X16950000Y22700000D02*
X16893000Y22700000D01*
X17665001Y21984999D02*
X16950000Y22700000D01*
X23057000Y21984999D02*
X17665001Y21984999D01*
%TO.N,Net-(U2A-SHUTD_N)*%
X30192000Y23858000D02*
X27208000Y23858000D01*
X30207929Y23873929D02*
X30192000Y23858000D01*
X27149533Y23800467D02*
X27149533Y23807000D01*
X27208000Y23858000D02*
X27150000Y23800000D01*
X27150000Y23800000D02*
X27149533Y23800467D01*
X30220225Y23873929D02*
X30207929Y23873929D01*
%TO.N,Net-(U3-OE)*%
X21400000Y9750000D02*
X21387500Y9737500D01*
X21387500Y7637500D02*
X21387500Y9737500D01*
%TO.N,Net-(D1-A)*%
X13356476Y22130000D02*
X13200000Y21973524D01*
X13200000Y21973524D02*
X13200000Y20400000D01*
X13200000Y20400000D02*
X13450000Y20150000D01*
X13660000Y22130000D02*
X13356476Y22130000D01*
D17*
%TO.N,Net-(U2A-TX_DBG)*%
X24970000Y14010000D02*
X24900000Y14010000D01*
X24900000Y14010000D02*
X24890000Y14020000D01*
D16*
X24890000Y14020000D02*
X23810000Y12940000D01*
D17*
X23810000Y12940000D02*
X23800000Y12940000D01*
%TD*%
%TA.AperFunction,Conductor*%
%TO.N,GND*%
G36*
X9855792Y18131571D02*
G01*
X9825500Y18018520D01*
X9825500Y17901480D01*
X9855792Y17788429D01*
X9903382Y17706000D01*
X8096618Y17706000D01*
X8144208Y17788429D01*
X8174500Y17901480D01*
X8174500Y18018520D01*
X8144208Y18131571D01*
X8096618Y18214000D01*
X9903382Y18214000D01*
X9855792Y18131571D01*
G37*
%TD.AperFunction*%
%TA.AperFunction,Conductor*%
G36*
X9855792Y23211571D02*
G01*
X9825500Y23098520D01*
X9825500Y22981480D01*
X9855792Y22868429D01*
X9903382Y22786000D01*
X8096618Y22786000D01*
X8144208Y22868429D01*
X8174500Y22981480D01*
X8174500Y23098520D01*
X8144208Y23211571D01*
X8096618Y23294000D01*
X9903382Y23294000D01*
X9855792Y23211571D01*
G37*
%TD.AperFunction*%
%TA.AperFunction,Conductor*%
G36*
X45207621Y35085498D02*
G01*
X45254114Y35031842D01*
X45265500Y34979500D01*
X45265500Y24016929D01*
X45245498Y23948808D01*
X45191842Y23902315D01*
X45121568Y23892211D01*
X45056988Y23921705D01*
X45023091Y23968711D01*
X44929964Y24193538D01*
X44929958Y24193549D01*
X44808188Y24404462D01*
X44808183Y24404469D01*
X44741100Y24491892D01*
X44015771Y23766563D01*
X44013260Y23772626D01*
X43920238Y23911844D01*
X43801844Y24030238D01*
X43662626Y24123260D01*
X43656561Y24125772D01*
X44381890Y24851101D01*
X44381889Y24851103D01*
X44294467Y24918185D01*
X44294461Y24918189D01*
X44083548Y25039959D01*
X44083537Y25039965D01*
X43858515Y25133172D01*
X43623249Y25196211D01*
X43381782Y25228000D01*
X43138217Y25228000D01*
X42896750Y25196211D01*
X42661484Y25133172D01*
X42436462Y25039965D01*
X42436451Y25039959D01*
X42225538Y24918189D01*
X42138108Y24851102D01*
X42863438Y24125772D01*
X42857374Y24123260D01*
X42718156Y24030238D01*
X42599762Y23911844D01*
X42506740Y23772626D01*
X42504228Y23766562D01*
X41778898Y24491892D01*
X41711811Y24404462D01*
X41590041Y24193549D01*
X41590035Y24193538D01*
X41496828Y23968516D01*
X41433789Y23733250D01*
X41402000Y23491783D01*
X41402000Y23248216D01*
X41414378Y23154194D01*
X41403438Y23084045D01*
X41356310Y23030947D01*
X41287955Y23011758D01*
X41256846Y23016042D01*
X41159988Y23041995D01*
X40867508Y23080500D01*
X40867506Y23080500D01*
X40572494Y23080500D01*
X40572491Y23080500D01*
X40280011Y23041995D01*
X40183153Y23016042D01*
X40112176Y23017732D01*
X40053381Y23057527D01*
X40025434Y23122792D01*
X40025621Y23154195D01*
X40037999Y23248219D01*
X40038000Y23248227D01*
X40038000Y23491773D01*
X40037999Y23491783D01*
X40006210Y23733250D01*
X39943171Y23968516D01*
X39849964Y24193538D01*
X39849958Y24193549D01*
X39728188Y24404462D01*
X39728183Y24404469D01*
X39661100Y24491892D01*
X38935771Y23766563D01*
X38933260Y23772626D01*
X38840238Y23911844D01*
X38721844Y24030238D01*
X38582626Y24123260D01*
X38576561Y24125772D01*
X39301890Y24851101D01*
X39301889Y24851103D01*
X39214467Y24918185D01*
X39214461Y24918189D01*
X39003548Y25039959D01*
X39003537Y25039965D01*
X38778515Y25133172D01*
X38543249Y25196211D01*
X38301782Y25228000D01*
X38058217Y25228000D01*
X37816750Y25196211D01*
X37581484Y25133172D01*
X37356462Y25039965D01*
X37356451Y25039959D01*
X37145538Y24918189D01*
X37058108Y24851102D01*
X37783438Y24125772D01*
X37777374Y24123260D01*
X37638156Y24030238D01*
X37519762Y23911844D01*
X37426740Y23772626D01*
X37424228Y23766562D01*
X36698898Y24491892D01*
X36631811Y24404462D01*
X36510041Y24193549D01*
X36510035Y24193538D01*
X36416828Y23968516D01*
X36353789Y23733250D01*
X36322000Y23491783D01*
X36322000Y23248218D01*
X36353789Y23006751D01*
X36416828Y22771485D01*
X36510035Y22546463D01*
X36510041Y22546452D01*
X36631811Y22335539D01*
X36631815Y22335533D01*
X36698897Y22248111D01*
X36698899Y22248110D01*
X37424227Y22973439D01*
X37426740Y22967374D01*
X37519762Y22828156D01*
X37638156Y22709762D01*
X37777374Y22616740D01*
X37783437Y22614229D01*
X37058108Y21888900D01*
X37058108Y21888899D01*
X37145531Y21821817D01*
X37145538Y21821812D01*
X37356451Y21700042D01*
X37356462Y21700036D01*
X37581484Y21606829D01*
X37816750Y21543790D01*
X38058217Y21512001D01*
X38058227Y21512000D01*
X38301773Y21512000D01*
X38301781Y21512001D01*
X38395805Y21524379D01*
X38465953Y21513440D01*
X38519052Y21466312D01*
X38538242Y21397958D01*
X38533958Y21366847D01*
X38508005Y21269989D01*
X38469500Y20977509D01*
X38469500Y20682492D01*
X38508005Y20390012D01*
X38533958Y20293154D01*
X38532268Y20222178D01*
X38492473Y20163382D01*
X38427209Y20135435D01*
X38395806Y20135622D01*
X38301784Y20148000D01*
X38058217Y20148000D01*
X37816750Y20116211D01*
X37581484Y20053172D01*
X37356462Y19959965D01*
X37356451Y19959959D01*
X37145538Y19838189D01*
X37058108Y19771102D01*
X37783438Y19045772D01*
X37777374Y19043260D01*
X37638156Y18950238D01*
X37519762Y18831844D01*
X37426740Y18692626D01*
X37424228Y18686562D01*
X36698898Y19411892D01*
X36631811Y19324462D01*
X36510041Y19113549D01*
X36510035Y19113538D01*
X36416828Y18888516D01*
X36353789Y18653250D01*
X36322000Y18411783D01*
X36322000Y18168218D01*
X36353789Y17926751D01*
X36416828Y17691485D01*
X36510035Y17466463D01*
X36510041Y17466452D01*
X36631811Y17255539D01*
X36631815Y17255533D01*
X36698897Y17168111D01*
X36698899Y17168110D01*
X37424227Y17893439D01*
X37426740Y17887374D01*
X37519762Y17748156D01*
X37638156Y17629762D01*
X37777374Y17536740D01*
X37783437Y17534229D01*
X37058108Y16808900D01*
X37058108Y16808899D01*
X37145531Y16741817D01*
X37145538Y16741812D01*
X37356451Y16620042D01*
X37356462Y16620036D01*
X37581484Y16526829D01*
X37816750Y16463790D01*
X38058217Y16432001D01*
X38058227Y16432000D01*
X38301773Y16432000D01*
X38301782Y16432001D01*
X38543249Y16463790D01*
X38778515Y16526829D01*
X39003537Y16620036D01*
X39003548Y16620042D01*
X39214460Y16741812D01*
X39301890Y16808900D01*
X38576562Y17534229D01*
X38582626Y17536740D01*
X38721844Y17629762D01*
X38840238Y17748156D01*
X38933260Y17887374D01*
X38935771Y17893439D01*
X39661100Y17168110D01*
X39728188Y17255540D01*
X39849958Y17466452D01*
X39849964Y17466463D01*
X39943171Y17691485D01*
X40006210Y17926751D01*
X40037999Y18168218D01*
X40038000Y18168227D01*
X40038000Y18411773D01*
X40037999Y18411783D01*
X40025621Y18505806D01*
X40036560Y18575955D01*
X40083689Y18629053D01*
X40152042Y18648243D01*
X40183150Y18643960D01*
X40280007Y18618007D01*
X40280013Y18618007D01*
X40280014Y18618006D01*
X40313574Y18613588D01*
X40572494Y18579500D01*
X40572501Y18579500D01*
X40867499Y18579500D01*
X40867506Y18579500D01*
X41159993Y18618007D01*
X41256847Y18643959D01*
X41327820Y18642270D01*
X41386616Y18602477D01*
X41414565Y18537213D01*
X41414378Y18505808D01*
X41402000Y18411785D01*
X41402000Y18168218D01*
X41433789Y17926751D01*
X41496828Y17691485D01*
X41590035Y17466463D01*
X41590041Y17466452D01*
X41711811Y17255539D01*
X41711815Y17255533D01*
X41778897Y17168111D01*
X41778898Y17168110D01*
X42504227Y17893439D01*
X42506740Y17887374D01*
X42599762Y17748156D01*
X42718156Y17629762D01*
X42857374Y17536740D01*
X42863437Y17534229D01*
X42138108Y16808900D01*
X42138108Y16808899D01*
X42225531Y16741817D01*
X42225538Y16741812D01*
X42436451Y16620042D01*
X42436462Y16620036D01*
X42661484Y16526829D01*
X42896750Y16463790D01*
X43138217Y16432001D01*
X43138227Y16432000D01*
X43381773Y16432000D01*
X43381782Y16432001D01*
X43623249Y16463790D01*
X43858515Y16526829D01*
X44083537Y16620036D01*
X44083548Y16620042D01*
X44294460Y16741812D01*
X44381890Y16808900D01*
X43656562Y17534229D01*
X43662626Y17536740D01*
X43801844Y17629762D01*
X43920238Y17748156D01*
X44013260Y17887374D01*
X44015771Y17893439D01*
X44741100Y17168110D01*
X44808188Y17255540D01*
X44929958Y17466452D01*
X44929964Y17466463D01*
X45023091Y17691290D01*
X45067640Y17746571D01*
X45135003Y17768992D01*
X45203794Y17751434D01*
X45252172Y17699472D01*
X45265500Y17643072D01*
X45265500Y5660500D01*
X45245498Y5592379D01*
X45191842Y5545886D01*
X45139500Y5534500D01*
X5660500Y5534500D01*
X5592379Y5554502D01*
X5545886Y5608158D01*
X5534500Y5660500D01*
X5534500Y9809454D01*
X20657000Y9809454D01*
X20657000Y9665547D01*
X20677051Y9564745D01*
X20685072Y9524421D01*
X20685073Y9524417D01*
X20685074Y9524416D01*
X20740137Y9391481D01*
X20740138Y9391479D01*
X20740139Y9391478D01*
X20765766Y9353125D01*
X20786980Y9285375D01*
X20787000Y9283125D01*
X20787000Y8091876D01*
X20766998Y8023755D01*
X20765765Y8021874D01*
X20740139Y7983522D01*
X20685074Y7850585D01*
X20685072Y7850578D01*
X20657000Y7709454D01*
X20657000Y7565547D01*
X20677051Y7464745D01*
X20685072Y7424421D01*
X20740139Y7291478D01*
X20820083Y7171833D01*
X20921833Y7070083D01*
X21041478Y6990139D01*
X21174421Y6935072D01*
X21295939Y6910902D01*
X21315546Y6907001D01*
X21315549Y6907001D01*
X21315552Y6907000D01*
X21315553Y6907000D01*
X21459447Y6907000D01*
X21459448Y6907000D01*
X21600579Y6935072D01*
X21733522Y6990139D01*
X21733529Y6990144D01*
X21738979Y6993056D01*
X21739864Y6991400D01*
X21799215Y7010002D01*
X21867688Y6991239D01*
X21915146Y6938435D01*
X21927500Y6884024D01*
X21927500Y6782636D01*
X21927502Y6782615D01*
X21933908Y6723020D01*
X21933908Y6723019D01*
X21984201Y6588174D01*
X21984203Y6588171D01*
X22070453Y6472954D01*
X22128061Y6429829D01*
X22185669Y6386704D01*
X22185671Y6386704D01*
X22185673Y6386702D01*
X22246030Y6364191D01*
X22320514Y6336410D01*
X22320517Y6336409D01*
X22380127Y6330000D01*
X23999872Y6330001D01*
X24059483Y6336409D01*
X24194331Y6386704D01*
X24309546Y6472954D01*
X24359133Y6539194D01*
X24415968Y6581740D01*
X24486783Y6586804D01*
X24549095Y6552779D01*
X24560863Y6539198D01*
X24610454Y6472954D01*
X24725669Y6386704D01*
X24725671Y6386704D01*
X24725673Y6386702D01*
X24786030Y6364191D01*
X24860514Y6336410D01*
X24860517Y6336409D01*
X24920127Y6330000D01*
X26539872Y6330001D01*
X26599483Y6336409D01*
X26734331Y6386704D01*
X26849546Y6472954D01*
X26899133Y6539194D01*
X26955968Y6581740D01*
X27026783Y6586804D01*
X27089095Y6552779D01*
X27100863Y6539198D01*
X27150454Y6472954D01*
X27265669Y6386704D01*
X27265671Y6386704D01*
X27265673Y6386702D01*
X27326030Y6364191D01*
X27400514Y6336410D01*
X27400517Y6336409D01*
X27460127Y6330000D01*
X29079872Y6330001D01*
X29139483Y6336409D01*
X29274331Y6386704D01*
X29389546Y6472954D01*
X29439133Y6539194D01*
X29495968Y6581740D01*
X29566783Y6586804D01*
X29629095Y6552779D01*
X29640863Y6539198D01*
X29690454Y6472954D01*
X29805669Y6386704D01*
X29805671Y6386704D01*
X29805673Y6386702D01*
X29866030Y6364191D01*
X29940514Y6336410D01*
X29940517Y6336409D01*
X30000127Y6330000D01*
X31619872Y6330001D01*
X31679483Y6336409D01*
X31814331Y6386704D01*
X31929546Y6472954D01*
X32015796Y6588169D01*
X32066091Y6723017D01*
X32072500Y6782627D01*
X32072499Y8402372D01*
X32066091Y8461983D01*
X32044800Y8519065D01*
X32015798Y8596827D01*
X32015796Y8596830D01*
X32015796Y8596831D01*
X31929546Y8712046D01*
X31863306Y8761634D01*
X31820760Y8818468D01*
X31815696Y8889283D01*
X31849721Y8951595D01*
X31863302Y8963364D01*
X31929546Y9012954D01*
X32015796Y9128169D01*
X32066091Y9263017D01*
X32072500Y9322627D01*
X32072499Y10942372D01*
X32066091Y11001983D01*
X32044800Y11059065D01*
X32015798Y11136827D01*
X32015796Y11136830D01*
X32015796Y11136831D01*
X31972671Y11194439D01*
X31929546Y11252047D01*
X31852591Y11309655D01*
X31814331Y11338296D01*
X31814329Y11338297D01*
X31814326Y11338299D01*
X31679483Y11388591D01*
X31679486Y11388591D01*
X31619873Y11395000D01*
X30000135Y11395000D01*
X30000114Y11394998D01*
X29940519Y11388592D01*
X29940518Y11388592D01*
X29805673Y11338299D01*
X29805670Y11338297D01*
X29690455Y11252048D01*
X29690454Y11252046D01*
X29640866Y11185807D01*
X29584032Y11143261D01*
X29513216Y11138197D01*
X29450904Y11172222D01*
X29439136Y11185803D01*
X29389546Y11252046D01*
X29389544Y11252047D01*
X29389544Y11252048D01*
X29331614Y11295414D01*
X29274331Y11338296D01*
X29274329Y11338297D01*
X29274326Y11338299D01*
X29139483Y11388591D01*
X29139486Y11388591D01*
X29079873Y11395000D01*
X27460135Y11395000D01*
X27460114Y11394998D01*
X27400519Y11388592D01*
X27400518Y11388592D01*
X27265673Y11338299D01*
X27265670Y11338297D01*
X27150455Y11252048D01*
X27150454Y11252046D01*
X27100866Y11185807D01*
X27044032Y11143261D01*
X26973216Y11138197D01*
X26910904Y11172222D01*
X26899136Y11185803D01*
X26849546Y11252046D01*
X26849544Y11252047D01*
X26849544Y11252048D01*
X26791614Y11295414D01*
X26734331Y11338296D01*
X26734329Y11338297D01*
X26734326Y11338299D01*
X26599483Y11388591D01*
X26599486Y11388591D01*
X26539873Y11395000D01*
X24920135Y11395000D01*
X24920114Y11394998D01*
X24860519Y11388592D01*
X24860518Y11388592D01*
X24725673Y11338299D01*
X24725670Y11338297D01*
X24610455Y11252048D01*
X24610454Y11252046D01*
X24560866Y11185807D01*
X24504032Y11143261D01*
X24433216Y11138197D01*
X24370904Y11172222D01*
X24359136Y11185803D01*
X24309546Y11252046D01*
X24309544Y11252047D01*
X24309544Y11252048D01*
X24251614Y11295414D01*
X24194331Y11338296D01*
X24194329Y11338297D01*
X24194326Y11338299D01*
X24059483Y11388591D01*
X24059486Y11388591D01*
X23999873Y11395000D01*
X22380135Y11395000D01*
X22380114Y11394998D01*
X22320519Y11388592D01*
X22320518Y11388592D01*
X22185673Y11338299D01*
X22185670Y11338297D01*
X22070453Y11252047D01*
X21984203Y11136830D01*
X21984201Y11136827D01*
X21933909Y11001985D01*
X21927500Y10942379D01*
X21927500Y10490979D01*
X21907498Y10422858D01*
X21853842Y10376365D01*
X21783568Y10366261D01*
X21739599Y10383106D01*
X21738979Y10381944D01*
X21733522Y10384861D01*
X21600584Y10439926D01*
X21600583Y10439927D01*
X21600579Y10439928D01*
X21560255Y10447949D01*
X21459453Y10468000D01*
X21459448Y10468000D01*
X21315552Y10468000D01*
X21315546Y10468000D01*
X21194582Y10443939D01*
X21174421Y10439928D01*
X21174418Y10439928D01*
X21174415Y10439926D01*
X21041478Y10384861D01*
X20921837Y10304920D01*
X20921830Y10304915D01*
X20820085Y10203170D01*
X20820080Y10203163D01*
X20740139Y10083522D01*
X20685074Y9950585D01*
X20685072Y9950578D01*
X20657000Y9809454D01*
X5534500Y9809454D01*
X5534500Y13011954D01*
X23069500Y13011954D01*
X23069500Y12868047D01*
X23083600Y12797165D01*
X23097572Y12726921D01*
X23152639Y12593978D01*
X23232583Y12474333D01*
X23334333Y12372583D01*
X23453978Y12292639D01*
X23586921Y12237572D01*
X23708439Y12213402D01*
X23728046Y12209501D01*
X23728049Y12209501D01*
X23728052Y12209500D01*
X23728053Y12209500D01*
X23871947Y12209500D01*
X23871948Y12209500D01*
X24013079Y12237572D01*
X24146022Y12292639D01*
X24265667Y12372583D01*
X24367417Y12474333D01*
X24447361Y12593978D01*
X24502428Y12726921D01*
X24508942Y12759677D01*
X24541848Y12822585D01*
X24543427Y12824193D01*
X24587286Y12868052D01*
X24962137Y13242903D01*
X25024448Y13276926D01*
X25038891Y13279199D01*
X25041940Y13279500D01*
X25041948Y13279500D01*
X25183079Y13307572D01*
X25316022Y13362639D01*
X25435667Y13442583D01*
X25537417Y13544333D01*
X25617361Y13663978D01*
X25672428Y13796921D01*
X25700500Y13938052D01*
X25700500Y14081948D01*
X25672428Y14223079D01*
X25617361Y14356022D01*
X25537417Y14475667D01*
X25435667Y14577417D01*
X25316022Y14657361D01*
X25183079Y14712428D01*
X25142755Y14720449D01*
X25041953Y14740500D01*
X25041948Y14740500D01*
X24898052Y14740500D01*
X24898046Y14740500D01*
X24777082Y14716439D01*
X24756921Y14712428D01*
X24756918Y14712428D01*
X24756915Y14712426D01*
X24623978Y14657361D01*
X24504337Y14577420D01*
X24504330Y14577415D01*
X24402585Y14475670D01*
X24402580Y14475663D01*
X24322638Y14356021D01*
X24322634Y14356015D01*
X24293941Y14286743D01*
X24266629Y14245867D01*
X23709157Y13688394D01*
X23646844Y13654369D01*
X23644644Y13653910D01*
X23624148Y13649833D01*
X23586921Y13642428D01*
X23586919Y13642427D01*
X23586915Y13642426D01*
X23453978Y13587361D01*
X23334337Y13507420D01*
X23334330Y13507415D01*
X23232585Y13405670D01*
X23232580Y13405663D01*
X23152639Y13286022D01*
X23097574Y13153085D01*
X23097572Y13153078D01*
X23069500Y13011954D01*
X5534500Y13011954D01*
X5534500Y23850598D01*
X6460000Y23850598D01*
X6460000Y23294000D01*
X7363382Y23294000D01*
X7315792Y23211571D01*
X7285500Y23098520D01*
X7285500Y22981480D01*
X7315792Y22868429D01*
X7363382Y22786000D01*
X6460000Y22786000D01*
X6460000Y22229403D01*
X6466505Y22168907D01*
X6517555Y22032036D01*
X6517555Y22032035D01*
X6605095Y21915096D01*
X6670434Y21866184D01*
X6712981Y21809348D01*
X6718045Y21738532D01*
X6684020Y21676220D01*
X6670435Y21664449D01*
X6610454Y21619547D01*
X6524203Y21504330D01*
X6524201Y21504327D01*
X6473909Y21369485D01*
X6467500Y21309879D01*
X6467500Y19690136D01*
X6467502Y19690115D01*
X6473908Y19630520D01*
X6473908Y19630519D01*
X6524201Y19495674D01*
X6524203Y19495671D01*
X6610453Y19380454D01*
X6670434Y19335553D01*
X6712981Y19278717D01*
X6718045Y19207901D01*
X6684020Y19145589D01*
X6670435Y19133818D01*
X6605096Y19084905D01*
X6517555Y18967966D01*
X6517555Y18967965D01*
X6466505Y18831094D01*
X6460000Y18770598D01*
X6460000Y18214000D01*
X7363382Y18214000D01*
X7315792Y18131571D01*
X7285500Y18018520D01*
X7285500Y17901480D01*
X7315792Y17788429D01*
X7363382Y17706000D01*
X6460000Y17706000D01*
X6460000Y17149403D01*
X6466505Y17088907D01*
X6517555Y16952036D01*
X6517555Y16952035D01*
X6605095Y16835096D01*
X6722034Y16747556D01*
X6858906Y16696506D01*
X6919402Y16690001D01*
X6919415Y16690000D01*
X7476000Y16690000D01*
X7476000Y17593382D01*
X7558429Y17545792D01*
X7671480Y17515500D01*
X7788520Y17515500D01*
X7901571Y17545792D01*
X7984000Y17593382D01*
X7984000Y16690000D01*
X8540585Y16690000D01*
X8540597Y16690001D01*
X8601093Y16696506D01*
X8737964Y16747556D01*
X8737965Y16747556D01*
X8854904Y16835096D01*
X8899132Y16894177D01*
X8955968Y16936724D01*
X9026783Y16941788D01*
X9089096Y16907763D01*
X9100868Y16894177D01*
X9145095Y16835096D01*
X9262034Y16747556D01*
X9398906Y16696506D01*
X9459402Y16690001D01*
X9459415Y16690000D01*
X10016000Y16690000D01*
X10016000Y17593382D01*
X10098429Y17545792D01*
X10211480Y17515500D01*
X10328520Y17515500D01*
X10441571Y17545792D01*
X10524000Y17593382D01*
X10524000Y16690000D01*
X11080585Y16690000D01*
X11080597Y16690001D01*
X11141093Y16696506D01*
X11277964Y16747556D01*
X11277965Y16747556D01*
X11394904Y16835096D01*
X11482444Y16952035D01*
X11482444Y16952036D01*
X11533494Y17088907D01*
X11539999Y17149403D01*
X11540000Y17149415D01*
X11540000Y17706000D01*
X10636618Y17706000D01*
X10684208Y17788429D01*
X10714500Y17901480D01*
X10714500Y18018520D01*
X10684208Y18131571D01*
X10636618Y18214000D01*
X11540000Y18214000D01*
X11540000Y18770586D01*
X11539999Y18770598D01*
X11533494Y18831094D01*
X11482444Y18967965D01*
X11482444Y18967966D01*
X11394904Y19084905D01*
X11329565Y19133817D01*
X11287018Y19190653D01*
X11281954Y19261469D01*
X11315979Y19323781D01*
X11329558Y19335548D01*
X11389546Y19380454D01*
X11475796Y19495669D01*
X11526091Y19630517D01*
X11532500Y19690127D01*
X11532499Y21309872D01*
X11526091Y21369483D01*
X11489976Y21466312D01*
X11475798Y21504327D01*
X11475796Y21504330D01*
X11475796Y21504331D01*
X11389546Y21619546D01*
X11329563Y21664450D01*
X11287018Y21721284D01*
X11281954Y21792100D01*
X11315979Y21854412D01*
X11329565Y21866185D01*
X11394906Y21915099D01*
X11482444Y22032035D01*
X11490107Y22052581D01*
X12599499Y22052581D01*
X12599499Y21894467D01*
X12599499Y21894465D01*
X12599500Y21884310D01*
X12599500Y20486792D01*
X12599499Y20486774D01*
X12599499Y20479057D01*
X12599499Y20320943D01*
X12628799Y20211596D01*
X12640423Y20168215D01*
X12640424Y20168212D01*
X12665731Y20124382D01*
X12665733Y20124378D01*
X12723301Y20024665D01*
X12737760Y19986249D01*
X12747572Y19936921D01*
X12802639Y19803978D01*
X12882583Y19684333D01*
X12984333Y19582583D01*
X13103978Y19502639D01*
X13236921Y19447572D01*
X13358439Y19423402D01*
X13378046Y19419501D01*
X13378049Y19419501D01*
X13378052Y19419500D01*
X13378053Y19419500D01*
X13521947Y19419500D01*
X13521948Y19419500D01*
X13663079Y19447572D01*
X13796022Y19502639D01*
X13915667Y19582583D01*
X14017417Y19684333D01*
X14097361Y19803978D01*
X14152428Y19936921D01*
X14180500Y20078052D01*
X14180500Y20221948D01*
X14172524Y20262045D01*
X14165190Y20298919D01*
X14171518Y20369633D01*
X14215073Y20425700D01*
X14282025Y20449319D01*
X14288769Y20449500D01*
X19391001Y20449500D01*
X19405229Y20445323D01*
X19420035Y20446109D01*
X19438607Y20435522D01*
X19459122Y20429498D01*
X19469945Y20417658D01*
X19481713Y20410949D01*
X19495962Y20389195D01*
X19502676Y20381850D01*
X19505265Y20376894D01*
X19529785Y20317699D01*
X19559182Y20273704D01*
X19562321Y20267696D01*
X19567962Y20239264D01*
X19576626Y20211596D01*
X19576646Y20209346D01*
X19576646Y18409646D01*
X19576645Y18409628D01*
X19576645Y18401911D01*
X19576645Y18243797D01*
X19617569Y18091069D01*
X19617571Y18091064D01*
X19630031Y18069484D01*
X19630033Y18069481D01*
X19696623Y17954142D01*
X19696631Y17954132D01*
X19815605Y17835158D01*
X19815619Y17835146D01*
X20115069Y17535696D01*
X20115090Y17535673D01*
X20231279Y17419484D01*
X20231282Y17419482D01*
X20231284Y17419480D01*
X20318095Y17369361D01*
X20318098Y17369359D01*
X20368211Y17340425D01*
X20368212Y17340425D01*
X20368215Y17340423D01*
X20520943Y17299499D01*
X20520946Y17299499D01*
X20686775Y17299499D01*
X20686791Y17299500D01*
X20745624Y17299500D01*
X20813745Y17279498D01*
X20815608Y17278277D01*
X20853978Y17252639D01*
X20986921Y17197572D01*
X21099496Y17175180D01*
X21128046Y17169501D01*
X21128049Y17169501D01*
X21128052Y17169500D01*
X21128053Y17169500D01*
X21271947Y17169500D01*
X21271948Y17169500D01*
X21413079Y17197572D01*
X21546022Y17252639D01*
X21584374Y17278266D01*
X21652127Y17299480D01*
X21654376Y17299500D01*
X23095624Y17299500D01*
X23110651Y17295604D01*
X23123337Y17296415D01*
X23147465Y17286060D01*
X23156843Y17283628D01*
X23161343Y17281127D01*
X23203978Y17252639D01*
X23237765Y17238644D01*
X23244090Y17235128D01*
X23264131Y17214782D01*
X23286371Y17196860D01*
X23288711Y17189828D01*
X23293912Y17184548D01*
X23299771Y17156598D01*
X23308791Y17129496D01*
X23306957Y17122315D01*
X23308478Y17115062D01*
X23298296Y17088380D01*
X23291232Y17060705D01*
X23285808Y17055656D01*
X23283166Y17048731D01*
X23260173Y17031789D01*
X23239270Y17012327D01*
X23231090Y17008592D01*
X23203983Y16997364D01*
X23203978Y16997362D01*
X23084337Y16917420D01*
X23084330Y16917415D01*
X22982585Y16815670D01*
X22982580Y16815663D01*
X22902639Y16696022D01*
X22847574Y16563085D01*
X22847572Y16563078D01*
X22819500Y16421954D01*
X22819500Y16278047D01*
X22839551Y16177245D01*
X22847572Y16136921D01*
X22902639Y16003978D01*
X22982583Y15884333D01*
X23084333Y15782583D01*
X23203978Y15702639D01*
X23336921Y15647572D01*
X23458439Y15623402D01*
X23478046Y15619501D01*
X23478049Y15619501D01*
X23478052Y15619500D01*
X23478053Y15619500D01*
X23621947Y15619500D01*
X23621948Y15619500D01*
X23763079Y15647572D01*
X23896022Y15702639D01*
X23920651Y15719096D01*
X23994240Y15768265D01*
X24061993Y15789480D01*
X24064241Y15789500D01*
X24070943Y15789500D01*
X27553209Y15789500D01*
X27553225Y15789499D01*
X27560943Y15789499D01*
X27719054Y15789499D01*
X27719057Y15789499D01*
X27871785Y15830423D01*
X27939435Y15869481D01*
X28008716Y15909480D01*
X28120520Y16021284D01*
X28130887Y16031651D01*
X28130894Y16031661D01*
X28453325Y16354092D01*
X28515635Y16388116D01*
X28517751Y16388557D01*
X28563079Y16397572D01*
X28696022Y16452639D01*
X28734374Y16478266D01*
X28802127Y16499480D01*
X28804376Y16499500D01*
X32145624Y16499500D01*
X32213745Y16479498D01*
X32215608Y16478277D01*
X32253978Y16452639D01*
X32386921Y16397572D01*
X32508439Y16373402D01*
X32528046Y16369501D01*
X32528049Y16369501D01*
X32528052Y16369500D01*
X32528053Y16369500D01*
X32671947Y16369500D01*
X32671948Y16369500D01*
X32813079Y16397572D01*
X32946022Y16452639D01*
X33065667Y16532583D01*
X33167417Y16634333D01*
X33247361Y16753978D01*
X33302428Y16886921D01*
X33330500Y17028052D01*
X33330500Y17171948D01*
X33302428Y17313079D01*
X33247361Y17446022D01*
X33167417Y17565667D01*
X33065667Y17667417D01*
X32946022Y17747361D01*
X32813079Y17802428D01*
X32772755Y17810449D01*
X32671953Y17830500D01*
X32671948Y17830500D01*
X32528052Y17830500D01*
X32528046Y17830500D01*
X32407082Y17806439D01*
X32386921Y17802428D01*
X32386918Y17802428D01*
X32386915Y17802426D01*
X32253978Y17747361D01*
X32215626Y17721735D01*
X32147873Y17700520D01*
X32145624Y17700500D01*
X28804376Y17700500D01*
X28736255Y17720502D01*
X28734374Y17721735D01*
X28696022Y17747361D01*
X28563079Y17802428D01*
X28522755Y17810449D01*
X28421953Y17830500D01*
X28421948Y17830500D01*
X28278052Y17830500D01*
X28278046Y17830500D01*
X28157082Y17806439D01*
X28136921Y17802428D01*
X28136918Y17802428D01*
X28136915Y17802426D01*
X28003978Y17747361D01*
X27884337Y17667420D01*
X27884330Y17667415D01*
X27782585Y17565670D01*
X27782580Y17565663D01*
X27702639Y17446022D01*
X27647574Y17313085D01*
X27647570Y17313073D01*
X27638572Y17267838D01*
X27629666Y17250814D01*
X27625582Y17232037D01*
X27606533Y17206592D01*
X27605664Y17204929D01*
X27604090Y17203327D01*
X27428170Y17027405D01*
X27365858Y16993380D01*
X27339074Y16990500D01*
X24776500Y16990500D01*
X24708379Y17010502D01*
X24661886Y17064158D01*
X24650500Y17116500D01*
X24650500Y20473651D01*
X24670502Y20541772D01*
X24706496Y20578415D01*
X24728493Y20593112D01*
X24830243Y20694862D01*
X24910187Y20814507D01*
X24965254Y20947450D01*
X24993326Y21088581D01*
X24993326Y21232477D01*
X24965254Y21373608D01*
X24910187Y21506551D01*
X24871734Y21564101D01*
X24850520Y21631855D01*
X24850500Y21634102D01*
X24850500Y22360779D01*
X24850501Y22360792D01*
X24850501Y22636775D01*
X24850500Y22636793D01*
X24850500Y22888625D01*
X24870502Y22956746D01*
X24871675Y22958537D01*
X24897361Y22996978D01*
X24949030Y23121719D01*
X24961776Y23137537D01*
X24970215Y23156012D01*
X24983595Y23164612D01*
X24993578Y23176999D01*
X25012853Y23183415D01*
X25029941Y23194396D01*
X25057944Y23198423D01*
X25060942Y23199420D01*
X25065439Y23199500D01*
X25087460Y23199500D01*
X25155581Y23179498D01*
X25202074Y23125842D01*
X25203866Y23121724D01*
X25252639Y23003978D01*
X25332583Y22884333D01*
X25434333Y22782583D01*
X25553978Y22702639D01*
X25686921Y22647572D01*
X25805383Y22624009D01*
X25828046Y22619501D01*
X25828049Y22619501D01*
X25828052Y22619500D01*
X25828053Y22619500D01*
X25971947Y22619500D01*
X25971948Y22619500D01*
X26113079Y22647572D01*
X26246022Y22702639D01*
X26284374Y22728266D01*
X26302713Y22734008D01*
X26318878Y22744396D01*
X26350335Y22748920D01*
X26352127Y22749480D01*
X26354376Y22749500D01*
X26473500Y22749500D01*
X26541621Y22729498D01*
X26588114Y22675842D01*
X26599500Y22623500D01*
X26599500Y21854376D01*
X26579498Y21786255D01*
X26578276Y21784392D01*
X26559367Y21756091D01*
X26552639Y21746022D01*
X26497574Y21613085D01*
X26497572Y21613078D01*
X26469500Y21471954D01*
X26469500Y21328047D01*
X26488509Y21232483D01*
X26497572Y21186921D01*
X26552639Y21053978D01*
X26632583Y20934333D01*
X26734333Y20832583D01*
X26853978Y20752639D01*
X26986921Y20697572D01*
X27108439Y20673402D01*
X27128046Y20669501D01*
X27128049Y20669501D01*
X27128052Y20669500D01*
X27128053Y20669500D01*
X27271947Y20669500D01*
X27271948Y20669500D01*
X27413079Y20697572D01*
X27546022Y20752639D01*
X27665667Y20832583D01*
X27767417Y20934333D01*
X27847361Y21053978D01*
X27902428Y21186921D01*
X27930500Y21328052D01*
X27930500Y21471948D01*
X27902428Y21613079D01*
X27847361Y21746022D01*
X27821734Y21784375D01*
X27800520Y21852127D01*
X27800500Y21854376D01*
X27800500Y22623500D01*
X27820502Y22691621D01*
X27874158Y22738114D01*
X27926500Y22749500D01*
X28688907Y22749500D01*
X28737124Y22739910D01*
X28836921Y22698572D01*
X28958439Y22674402D01*
X28978046Y22670501D01*
X28978049Y22670501D01*
X28978052Y22670500D01*
X28978053Y22670500D01*
X29121947Y22670500D01*
X29121948Y22670500D01*
X29263079Y22698572D01*
X29396022Y22753639D01*
X29515667Y22833583D01*
X29617417Y22935333D01*
X29697361Y23054978D01*
X29735707Y23147555D01*
X29780255Y23202835D01*
X29847619Y23225256D01*
X29900333Y23215745D01*
X29910409Y23211571D01*
X30007135Y23171505D01*
X30007138Y23171505D01*
X30007146Y23171501D01*
X30127539Y23147554D01*
X30148271Y23143430D01*
X30148274Y23143430D01*
X30148277Y23143429D01*
X30148278Y23143429D01*
X30156155Y23143429D01*
X30224276Y23123427D01*
X30270769Y23069771D01*
X30280873Y22999497D01*
X30251379Y22934917D01*
X30245250Y22928334D01*
X30182585Y22865670D01*
X30182580Y22865663D01*
X30104950Y22749480D01*
X30102639Y22746022D01*
X30082507Y22697420D01*
X30050232Y22619500D01*
X30047572Y22613079D01*
X30042758Y22588876D01*
X30026652Y22507910D01*
X30012194Y22469496D01*
X29990424Y22431789D01*
X29990423Y22431785D01*
X29949499Y22279057D01*
X29949499Y22279055D01*
X29949499Y22110793D01*
X29949500Y22110780D01*
X29949500Y21454376D01*
X29929498Y21386255D01*
X29928265Y21384374D01*
X29902639Y21346022D01*
X29847574Y21213085D01*
X29847572Y21213078D01*
X29819500Y21071954D01*
X29819500Y20928047D01*
X29838489Y20832586D01*
X29847572Y20786921D01*
X29902639Y20653978D01*
X29982583Y20534333D01*
X30084333Y20432583D01*
X30203978Y20352639D01*
X30336921Y20297572D01*
X30458439Y20273402D01*
X30478046Y20269501D01*
X30478049Y20269501D01*
X30478052Y20269500D01*
X30478053Y20269500D01*
X30621947Y20269500D01*
X30621948Y20269500D01*
X30763079Y20297572D01*
X30896022Y20352639D01*
X31015667Y20432583D01*
X31117417Y20534333D01*
X31197361Y20653978D01*
X31252428Y20786921D01*
X31280500Y20928052D01*
X31280500Y21071948D01*
X31252428Y21213079D01*
X31197361Y21346022D01*
X31171734Y21384375D01*
X31150520Y21452127D01*
X31150500Y21454376D01*
X31150500Y21721692D01*
X31170502Y21789813D01*
X31206496Y21826456D01*
X31215667Y21832583D01*
X31317417Y21934333D01*
X31397361Y22053978D01*
X31452428Y22186921D01*
X31480500Y22328052D01*
X31480500Y22471948D01*
X31452428Y22613079D01*
X31397361Y22746022D01*
X31317417Y22865667D01*
X31215667Y22967417D01*
X31096022Y23047361D01*
X30963079Y23102428D01*
X30922755Y23110449D01*
X30821953Y23130500D01*
X30821948Y23130500D01*
X30814070Y23130500D01*
X30745949Y23150502D01*
X30699456Y23204158D01*
X30689352Y23274432D01*
X30718846Y23339012D01*
X30724975Y23345595D01*
X30749381Y23370001D01*
X30787642Y23408262D01*
X30867586Y23527907D01*
X30922653Y23660850D01*
X30950725Y23801981D01*
X30950725Y23945877D01*
X30949805Y23950500D01*
X30946183Y23968711D01*
X30922653Y24087008D01*
X30867586Y24219951D01*
X30787642Y24339596D01*
X30685892Y24441346D01*
X30566247Y24521290D01*
X30433304Y24576357D01*
X30392980Y24584378D01*
X30292178Y24604429D01*
X30292173Y24604429D01*
X30148277Y24604429D01*
X30148271Y24604429D01*
X30027307Y24580368D01*
X30007146Y24576357D01*
X30007143Y24576357D01*
X30007140Y24576355D01*
X29913337Y24537500D01*
X29874203Y24521290D01*
X29812010Y24479735D01*
X29744259Y24458520D01*
X29742010Y24458500D01*
X27510626Y24458500D01*
X27462408Y24468091D01*
X27362617Y24509426D01*
X27362616Y24509427D01*
X27362612Y24509428D01*
X27322288Y24517449D01*
X27221486Y24537500D01*
X27221481Y24537500D01*
X27077585Y24537500D01*
X27077579Y24537500D01*
X26956615Y24513439D01*
X26936454Y24509428D01*
X26936451Y24509428D01*
X26936448Y24509426D01*
X26803511Y24454361D01*
X26683870Y24374420D01*
X26683863Y24374415D01*
X26582118Y24272670D01*
X26582113Y24272663D01*
X26502171Y24153022D01*
X26502169Y24153018D01*
X26454898Y24038896D01*
X26410350Y23983615D01*
X26342986Y23961195D01*
X26274195Y23978754D01*
X26268489Y23982349D01*
X26266594Y23983615D01*
X26246022Y23997361D01*
X26113079Y24052428D01*
X26113077Y24052429D01*
X26113073Y24052430D01*
X26067834Y24061429D01*
X26050809Y24070335D01*
X26032033Y24074419D01*
X26006590Y24093466D01*
X26004925Y24094337D01*
X26003323Y24095912D01*
X25937708Y24161527D01*
X25937696Y24161541D01*
X25818722Y24280515D01*
X25818718Y24280518D01*
X25818716Y24280520D01*
X25718256Y24338520D01*
X25718254Y24338522D01*
X25681790Y24359575D01*
X25681785Y24359577D01*
X25529057Y24400501D01*
X25370943Y24400501D01*
X25363225Y24400501D01*
X25363209Y24400500D01*
X22604376Y24400500D01*
X22582619Y24406889D01*
X22560009Y24408570D01*
X22537469Y24420146D01*
X22536255Y24420502D01*
X22535838Y24420984D01*
X22534374Y24421735D01*
X22496022Y24447361D01*
X22363079Y24502428D01*
X22322755Y24510449D01*
X22221953Y24530500D01*
X22221948Y24530500D01*
X22078052Y24530500D01*
X22078046Y24530500D01*
X21957082Y24506439D01*
X21936921Y24502428D01*
X21936918Y24502428D01*
X21936915Y24502426D01*
X21803978Y24447361D01*
X21684337Y24367420D01*
X21684330Y24367415D01*
X21582585Y24265670D01*
X21582580Y24265663D01*
X21502639Y24146022D01*
X21447574Y24013085D01*
X21447572Y24013078D01*
X21419500Y23871954D01*
X21419500Y23728047D01*
X21432867Y23660850D01*
X21447572Y23586921D01*
X21502639Y23453978D01*
X21520998Y23426502D01*
X21542213Y23358749D01*
X21523430Y23290282D01*
X21470613Y23242839D01*
X21416233Y23230500D01*
X21278046Y23230500D01*
X21157082Y23206439D01*
X21136921Y23202428D01*
X21136918Y23202428D01*
X21136915Y23202426D01*
X21003978Y23147361D01*
X20884337Y23067420D01*
X20884330Y23067415D01*
X20782585Y22965670D01*
X20782580Y22965663D01*
X20702639Y22846022D01*
X20647574Y22713085D01*
X20647571Y22713077D01*
X20645495Y22702639D01*
X20642898Y22689577D01*
X20642369Y22686919D01*
X20609462Y22624009D01*
X20547768Y22588876D01*
X20518790Y22585499D01*
X17965926Y22585499D01*
X17897805Y22605501D01*
X17876831Y22622404D01*
X17619707Y22879528D01*
X17592393Y22920405D01*
X17540361Y23046022D01*
X17460417Y23165667D01*
X17358667Y23267417D01*
X17239022Y23347361D01*
X17106079Y23402428D01*
X17065755Y23410449D01*
X16964953Y23430500D01*
X16964948Y23430500D01*
X16821052Y23430500D01*
X16821046Y23430500D01*
X16709276Y23408267D01*
X16679921Y23402428D01*
X16679918Y23402428D01*
X16679915Y23402426D01*
X16546978Y23347361D01*
X16427337Y23267420D01*
X16427330Y23267415D01*
X16325585Y23165670D01*
X16325580Y23165663D01*
X16245639Y23046022D01*
X16190574Y22913085D01*
X16190572Y22913078D01*
X16162500Y22771954D01*
X16162500Y22628047D01*
X16178731Y22546452D01*
X16190572Y22486921D01*
X16190573Y22486917D01*
X16190574Y22486916D01*
X16196772Y22471954D01*
X16245639Y22353978D01*
X16325583Y22234333D01*
X16427333Y22132583D01*
X16546978Y22052639D01*
X16679921Y21997572D01*
X16796315Y21974421D01*
X16813340Y21965515D01*
X16832118Y21961430D01*
X16857555Y21942387D01*
X16859224Y21941514D01*
X16860828Y21939937D01*
X16935170Y21865595D01*
X16969196Y21803283D01*
X16964131Y21732468D01*
X16921584Y21675632D01*
X16855064Y21650821D01*
X16846075Y21650500D01*
X14440645Y21650500D01*
X14372524Y21670502D01*
X14326031Y21724158D01*
X14315927Y21794432D01*
X14324236Y21824718D01*
X14325391Y21827507D01*
X14362428Y21916921D01*
X14390500Y22058052D01*
X14390500Y22201948D01*
X14389831Y22205309D01*
X14381318Y22248111D01*
X14362428Y22343079D01*
X14307361Y22476022D01*
X14227417Y22595667D01*
X14125667Y22697417D01*
X14006022Y22777361D01*
X13887219Y22826571D01*
X13873084Y22832426D01*
X13873083Y22832427D01*
X13873079Y22832428D01*
X13832755Y22840449D01*
X13731953Y22860500D01*
X13731948Y22860500D01*
X13588052Y22860500D01*
X13588046Y22860500D01*
X13467082Y22836439D01*
X13446921Y22832428D01*
X13446918Y22832428D01*
X13446915Y22832426D01*
X13313981Y22777363D01*
X13313979Y22777362D01*
X13238660Y22727037D01*
X13201273Y22710098D01*
X13124695Y22689579D01*
X12987761Y22610521D01*
X12987758Y22610519D01*
X12931857Y22554618D01*
X12875956Y22498716D01*
X12875954Y22498714D01*
X12831286Y22454046D01*
X12831284Y22454044D01*
X12775382Y22398142D01*
X12719480Y22342241D01*
X12719479Y22342239D01*
X12688519Y22288613D01*
X12688518Y22288612D01*
X12640423Y22205311D01*
X12630669Y22168908D01*
X12599499Y22052581D01*
X11490107Y22052581D01*
X11509611Y22104872D01*
X11509611Y22104873D01*
X11533494Y22168908D01*
X11539999Y22229403D01*
X11540000Y22229415D01*
X11540000Y22786000D01*
X10636618Y22786000D01*
X10684208Y22868429D01*
X10714500Y22981480D01*
X10714500Y23098520D01*
X10684208Y23211571D01*
X10636618Y23294000D01*
X11540000Y23294000D01*
X11540000Y23850586D01*
X11539999Y23850598D01*
X11533494Y23911094D01*
X11482444Y24047965D01*
X11482444Y24047966D01*
X11394904Y24164905D01*
X11277965Y24252445D01*
X11141093Y24303495D01*
X11080597Y24310000D01*
X10524000Y24310000D01*
X10524000Y23406619D01*
X10441571Y23454208D01*
X10328520Y23484500D01*
X10211480Y23484500D01*
X10098429Y23454208D01*
X10016000Y23406619D01*
X10016000Y24310000D01*
X9459402Y24310000D01*
X9398906Y24303495D01*
X9262035Y24252445D01*
X9262034Y24252445D01*
X9145097Y24164906D01*
X9100868Y24105823D01*
X9044031Y24063277D01*
X8973216Y24058213D01*
X8910904Y24092238D01*
X8899132Y24105823D01*
X8854902Y24164906D01*
X8737965Y24252445D01*
X8601093Y24303495D01*
X8540597Y24310000D01*
X7984000Y24310000D01*
X7984000Y23406619D01*
X7901571Y23454208D01*
X7788520Y23484500D01*
X7671480Y23484500D01*
X7558429Y23454208D01*
X7476000Y23406619D01*
X7476000Y24310000D01*
X6919402Y24310000D01*
X6858906Y24303495D01*
X6722035Y24252445D01*
X6722034Y24252445D01*
X6605095Y24164905D01*
X6517555Y24047966D01*
X6517555Y24047965D01*
X6466505Y23911094D01*
X6460000Y23850598D01*
X5534500Y23850598D01*
X5534500Y25621954D01*
X21669500Y25621954D01*
X21669500Y25478047D01*
X21689551Y25377245D01*
X21697572Y25336921D01*
X21752639Y25203978D01*
X21832583Y25084333D01*
X21934333Y24982583D01*
X22053978Y24902639D01*
X22186921Y24847572D01*
X22308439Y24823402D01*
X22328046Y24819501D01*
X22328049Y24819501D01*
X22328052Y24819500D01*
X22379709Y24819500D01*
X22412319Y24815207D01*
X22433394Y24809561D01*
X22470943Y24799499D01*
X22470944Y24799499D01*
X22636775Y24799499D01*
X22636791Y24799500D01*
X28210680Y24799500D01*
X28258897Y24789910D01*
X28276925Y24782442D01*
X28398443Y24758272D01*
X28418050Y24754371D01*
X28418053Y24754371D01*
X28418056Y24754370D01*
X28418057Y24754370D01*
X28561951Y24754370D01*
X28561952Y24754370D01*
X28703083Y24782442D01*
X28836026Y24837509D01*
X28955671Y24917453D01*
X29057421Y25019203D01*
X29137365Y25138848D01*
X29192432Y25271791D01*
X29220504Y25412922D01*
X29220504Y25556818D01*
X29192432Y25697949D01*
X29137365Y25830892D01*
X29057421Y25950537D01*
X28955671Y26052287D01*
X28836026Y26132231D01*
X28703083Y26187298D01*
X28652492Y26197361D01*
X28561957Y26215370D01*
X28561952Y26215370D01*
X28418056Y26215370D01*
X28418050Y26215370D01*
X28297086Y26191309D01*
X28276925Y26187298D01*
X28276922Y26187298D01*
X28276919Y26187296D01*
X28143982Y26132231D01*
X28024341Y26052290D01*
X28024334Y26052285D01*
X28009455Y26037405D01*
X27947143Y26003379D01*
X27920360Y26000500D01*
X23034775Y26000500D01*
X22966654Y26020502D01*
X22945680Y26037404D01*
X22930794Y26052290D01*
X22865667Y26117417D01*
X22746022Y26197361D01*
X22613079Y26252428D01*
X22572755Y26260449D01*
X22471953Y26280500D01*
X22471948Y26280500D01*
X22328052Y26280500D01*
X22328046Y26280500D01*
X22207082Y26256439D01*
X22186921Y26252428D01*
X22186918Y26252428D01*
X22186915Y26252426D01*
X22053978Y26197361D01*
X21934337Y26117420D01*
X21934330Y26117415D01*
X21832585Y26015670D01*
X21832580Y26015663D01*
X21752639Y25896022D01*
X21697574Y25763085D01*
X21697572Y25763078D01*
X21669500Y25621954D01*
X5534500Y25621954D01*
X5534500Y32871954D01*
X20369500Y32871954D01*
X20369500Y32728047D01*
X20389551Y32627245D01*
X20397572Y32586921D01*
X20397573Y32586917D01*
X20397574Y32586916D01*
X20452637Y32453981D01*
X20452638Y32453979D01*
X20452639Y32453978D01*
X20478266Y32415625D01*
X20499480Y32347875D01*
X20499500Y32345625D01*
X20499500Y30804376D01*
X20479498Y30736255D01*
X20478265Y30734374D01*
X20452639Y30696022D01*
X20397574Y30563085D01*
X20397572Y30563078D01*
X20369500Y30421954D01*
X20369500Y30278047D01*
X20389551Y30177245D01*
X20397572Y30136921D01*
X20452639Y30003978D01*
X20532583Y29884333D01*
X20634333Y29782583D01*
X20753978Y29702639D01*
X20886921Y29647572D01*
X21008439Y29623402D01*
X21028046Y29619501D01*
X21028049Y29619501D01*
X21028052Y29619500D01*
X21028053Y29619500D01*
X21171947Y29619500D01*
X21171948Y29619500D01*
X21313079Y29647572D01*
X21446022Y29702639D01*
X21565667Y29782583D01*
X21667417Y29884333D01*
X21696735Y29928212D01*
X21751210Y29973739D01*
X21821653Y29982588D01*
X21885697Y29951948D01*
X21923010Y29891547D01*
X21927500Y29858210D01*
X21927500Y29500136D01*
X21927502Y29500115D01*
X21933908Y29440520D01*
X21933908Y29440519D01*
X21984201Y29305674D01*
X21984203Y29305671D01*
X22070453Y29190454D01*
X22128061Y29147329D01*
X22185669Y29104204D01*
X22185671Y29104204D01*
X22185673Y29104202D01*
X22246030Y29081691D01*
X22320514Y29053910D01*
X22320517Y29053909D01*
X22380127Y29047500D01*
X23999872Y29047501D01*
X24059483Y29053909D01*
X24194331Y29104204D01*
X24309546Y29190454D01*
X24359133Y29256694D01*
X24415968Y29299240D01*
X24486783Y29304304D01*
X24549095Y29270279D01*
X24560863Y29256698D01*
X24610454Y29190454D01*
X24725669Y29104204D01*
X24725671Y29104204D01*
X24725673Y29104202D01*
X24786030Y29081691D01*
X24860514Y29053910D01*
X24860517Y29053909D01*
X24920127Y29047500D01*
X26539872Y29047501D01*
X26599483Y29053909D01*
X26734331Y29104204D01*
X26849546Y29190454D01*
X26899133Y29256694D01*
X26955968Y29299240D01*
X27026783Y29304304D01*
X27089095Y29270279D01*
X27100863Y29256698D01*
X27150454Y29190454D01*
X27265669Y29104204D01*
X27265671Y29104204D01*
X27265673Y29104202D01*
X27326030Y29081691D01*
X27400514Y29053910D01*
X27400517Y29053909D01*
X27460127Y29047500D01*
X29079872Y29047501D01*
X29139483Y29053909D01*
X29274331Y29104204D01*
X29389546Y29190454D01*
X29439133Y29256694D01*
X29495968Y29299240D01*
X29566783Y29304304D01*
X29629095Y29270279D01*
X29640863Y29256698D01*
X29690454Y29190454D01*
X29805669Y29104204D01*
X29805671Y29104204D01*
X29805673Y29104202D01*
X29866030Y29081691D01*
X29940514Y29053910D01*
X29940517Y29053909D01*
X30000127Y29047500D01*
X31619872Y29047501D01*
X31679483Y29053909D01*
X31814331Y29104204D01*
X31929546Y29190454D01*
X32015796Y29305669D01*
X32066091Y29440517D01*
X32072500Y29500127D01*
X32072499Y31119872D01*
X32066091Y31179483D01*
X32039021Y31252061D01*
X32015798Y31314327D01*
X32015796Y31314330D01*
X32015796Y31314331D01*
X31929546Y31429546D01*
X31863306Y31479134D01*
X31820760Y31535968D01*
X31815696Y31606783D01*
X31849721Y31669095D01*
X31863302Y31680864D01*
X31929546Y31730454D01*
X32015796Y31845669D01*
X32066091Y31980517D01*
X32072500Y32040127D01*
X32072499Y33659872D01*
X32066091Y33719483D01*
X32044800Y33776565D01*
X32015798Y33854327D01*
X32015796Y33854330D01*
X32015796Y33854331D01*
X31972671Y33911939D01*
X31929546Y33969547D01*
X31852591Y34027155D01*
X31814331Y34055796D01*
X31814329Y34055797D01*
X31814326Y34055799D01*
X31679483Y34106091D01*
X31679486Y34106091D01*
X31619873Y34112500D01*
X30000135Y34112500D01*
X30000114Y34112498D01*
X29940519Y34106092D01*
X29940518Y34106092D01*
X29805673Y34055799D01*
X29805670Y34055797D01*
X29690455Y33969548D01*
X29690454Y33969546D01*
X29640866Y33903307D01*
X29584032Y33860761D01*
X29513216Y33855697D01*
X29450904Y33889722D01*
X29439136Y33903303D01*
X29389546Y33969546D01*
X29389544Y33969547D01*
X29389544Y33969548D01*
X29331614Y34012914D01*
X29274331Y34055796D01*
X29274329Y34055797D01*
X29274326Y34055799D01*
X29139483Y34106091D01*
X29139486Y34106091D01*
X29079873Y34112500D01*
X27460135Y34112500D01*
X27460114Y34112498D01*
X27400519Y34106092D01*
X27400518Y34106092D01*
X27265673Y34055799D01*
X27265670Y34055797D01*
X27150455Y33969548D01*
X27150454Y33969546D01*
X27100866Y33903307D01*
X27044032Y33860761D01*
X26973216Y33855697D01*
X26910904Y33889722D01*
X26899136Y33903303D01*
X26849546Y33969546D01*
X26849544Y33969547D01*
X26849544Y33969548D01*
X26791614Y34012914D01*
X26734331Y34055796D01*
X26734329Y34055797D01*
X26734326Y34055799D01*
X26599483Y34106091D01*
X26599486Y34106091D01*
X26539873Y34112500D01*
X24920135Y34112500D01*
X24920114Y34112498D01*
X24860519Y34106092D01*
X24860518Y34106092D01*
X24725673Y34055799D01*
X24725670Y34055797D01*
X24610455Y33969548D01*
X24610454Y33969546D01*
X24560866Y33903307D01*
X24504032Y33860761D01*
X24433216Y33855697D01*
X24370904Y33889722D01*
X24359136Y33903303D01*
X24309546Y33969546D01*
X24309544Y33969547D01*
X24309544Y33969548D01*
X24251614Y34012914D01*
X24194331Y34055796D01*
X24194329Y34055797D01*
X24194326Y34055799D01*
X24059483Y34106091D01*
X24059486Y34106091D01*
X23999873Y34112500D01*
X22380135Y34112500D01*
X22380114Y34112498D01*
X22320519Y34106092D01*
X22320518Y34106092D01*
X22185673Y34055799D01*
X22185670Y34055797D01*
X22070453Y33969547D01*
X21984203Y33854330D01*
X21984201Y33854327D01*
X21933909Y33719485D01*
X21927500Y33659879D01*
X21927500Y33291792D01*
X21907498Y33223671D01*
X21853842Y33177178D01*
X21783568Y33167074D01*
X21718988Y33196568D01*
X21696735Y33221790D01*
X21685610Y33238440D01*
X21667417Y33265667D01*
X21565667Y33367417D01*
X21446022Y33447361D01*
X21313079Y33502428D01*
X21272755Y33510449D01*
X21171953Y33530500D01*
X21171948Y33530500D01*
X21028052Y33530500D01*
X21028046Y33530500D01*
X20907082Y33506439D01*
X20886921Y33502428D01*
X20886918Y33502428D01*
X20886915Y33502426D01*
X20753978Y33447361D01*
X20634337Y33367420D01*
X20634330Y33367415D01*
X20532585Y33265670D01*
X20532580Y33265663D01*
X20452639Y33146022D01*
X20397574Y33013085D01*
X20397572Y33013078D01*
X20369500Y32871954D01*
X5534500Y32871954D01*
X5534500Y34979500D01*
X5554502Y35047621D01*
X5608158Y35094114D01*
X5660500Y35105500D01*
X45139500Y35105500D01*
X45207621Y35085498D01*
G37*
%TD.AperFunction*%
%TA.AperFunction,Conductor*%
G36*
X44741100Y22248110D02*
G01*
X44808188Y22335540D01*
X44929958Y22546452D01*
X44929964Y22546463D01*
X45023091Y22771290D01*
X45067640Y22826571D01*
X45135003Y22848992D01*
X45203794Y22831434D01*
X45252172Y22779472D01*
X45265500Y22723072D01*
X45265500Y18936929D01*
X45245498Y18868808D01*
X45191842Y18822315D01*
X45121568Y18812211D01*
X45056988Y18841705D01*
X45023091Y18888711D01*
X44929964Y19113538D01*
X44929958Y19113549D01*
X44808188Y19324462D01*
X44808183Y19324469D01*
X44741100Y19411892D01*
X44015771Y18686563D01*
X44013260Y18692626D01*
X43920238Y18831844D01*
X43801844Y18950238D01*
X43662626Y19043260D01*
X43656561Y19045773D01*
X44381890Y19771102D01*
X44381889Y19771103D01*
X44294467Y19838185D01*
X44294461Y19838189D01*
X44083548Y19959959D01*
X44083537Y19959965D01*
X43858515Y20053172D01*
X43623249Y20116211D01*
X43381782Y20148000D01*
X43138215Y20148000D01*
X43044192Y20135622D01*
X42974043Y20146562D01*
X42920945Y20193691D01*
X42901756Y20262045D01*
X42906041Y20293154D01*
X42931993Y20390007D01*
X42970500Y20682494D01*
X42970500Y20977506D01*
X42931993Y21269993D01*
X42906041Y21366848D01*
X42907731Y21437823D01*
X42947525Y21496618D01*
X43012790Y21524566D01*
X43044194Y21524379D01*
X43138217Y21512001D01*
X43138227Y21512000D01*
X43381773Y21512000D01*
X43381782Y21512001D01*
X43623249Y21543790D01*
X43858515Y21606829D01*
X44083537Y21700036D01*
X44083548Y21700042D01*
X44294460Y21821812D01*
X44381890Y21888900D01*
X43656561Y22614229D01*
X43662626Y22616740D01*
X43801844Y22709762D01*
X43920238Y22828156D01*
X44013260Y22967374D01*
X44015771Y22973439D01*
X44741100Y22248110D01*
G37*
%TD.AperFunction*%
%TD*%
M02*
